<svg xmlns="http://www.w3.org/2000/svg" viewBox="0 0 610.392 311.02"><defs><style>.cls-1{fill:#f93103;}.cls-2{font-size:18px;font-family:Arial-BoldMT, Arial;font-weight:700;}.cls-3{fill:red;}</style></defs><g id="cut"><path d="M15,205.784l53.889,9.368a8.415,8.415,0,0,0,1.714.122l28.7-.871a8.5,8.5,0,0,1,3.309.562l52.55,20.2a8.5,8.5,0,0,1,4.668,4.371l24.758,53.58a2.836,2.836,0,0,0,1.911,1.715l63.469,17.007H373.456l63.419-16.945a2.834,2.834,0,0,0,1.911-1.712l24.756-53.642a8.507,8.507,0,0,1,4.671-4.375l52.57-20.2a8.473,8.473,0,0,1,3.308-.562l28.705.868a8.4,8.4,0,0,0,1.713-.122l53.963-9.38a8.5,8.5,0,0,0,6.9-9.856l-27.7-156.55a8.5,8.5,0,0,0-8.374-7.023H461.233l-50.9,9.019a2.837,2.837,0,0,0-2.106,1.661l-2.352,5.413a2.833,2.833,0,0,1-2.1,1.661l-38.841,6.921a2.835,2.835,0,0,1-3.289-2.3l-7.765-44.048a2.835,2.835,0,0,0-3.284-2.3L238.834,27.915l2.88,16.334a4.251,4.251,0,0,1-3.449,4.925L218.724,52.62a4.252,4.252,0,0,1-4.926-3.449L210.831,32.34H44.075A8.5,8.5,0,0,0,35.7,39.367L8.1,195.933A8.5,8.5,0,0,0,15,205.784Zm534.527-13.2a3.121,3.121,0,1,1,3.118,3.259A3.191,3.191,0,0,1,549.524,192.581ZM530.773,86.262a3.121,3.121,0,1,1,3.118,3.26A3.192,3.192,0,0,1,530.773,86.262ZM438.657,225a3.121,3.121,0,1,1,3.118,3.26A3.191,3.191,0,0,1,438.657,225Zm-67.4-110.648a3.122,3.122,0,1,1,3.119,3.26A3.191,3.191,0,0,1,371.255,114.347Zm-62.661,119.11a3.122,3.122,0,1,1,3.118,3.26A3.192,3.192,0,0,1,308.594,233.457Zm-62.7-119.1a3.122,3.122,0,1,1,3.118,3.26A3.191,3.191,0,0,1,245.893,114.353ZM178.488,225a3.121,3.121,0,1,1,3.118,3.26A3.191,3.191,0,0,1,178.488,225ZM86.347,86.228a3.121,3.121,0,1,1,3.118,3.26A3.191,3.191,0,0,1,86.347,86.228ZM67.613,192.564a3.121,3.121,0,1,1,3.118,3.26A3.192,3.192,0,0,1,67.613,192.564Z" transform="translate(-5.111 -6.325)"/></g><g id="graving"><path class="cls-1" d="M530.588,108.078v2.277a1.163,1.163,0,0,0,.629-.124q.18-.123.18-.8v-.563a.85.85,0,0,0-.174-.638A.98.98,0,0,0,530.588,108.078Z" transform="translate(-5.111 -6.325)"/><path class="cls-1" d="M605.544,190.238l-7.214-41.407H566.656A2.834,2.834,0,0,1,563.821,146h0a2.835,2.835,0,0,1,2.835-2.835h30.686l-1-5.724h-31.7a2.836,2.836,0,0,1-2.831-2.988,2.943,2.943,0,0,1,2.991-2.682h30.55l-1-5.724H562.638a2.836,2.836,0,0,1-2.831-2.987,2.943,2.943,0,0,1,2.991-2.682h30.574l-1-5.725H577.521a2.834,2.834,0,0,1-2.83-2.987,2.942,2.942,0,0,1,2.991-2.682h13.7L580.351,45.635a5.67,5.67,0,0,0-5.585-4.7l-74.226,0,4.993,28.32a2.834,2.834,0,0,1-2.45,3.306,2.943,2.943,0,0,1-3.161-2.48l-5.139-29.146h-5.812l4.993,28.319a2.834,2.834,0,0,1-2.45,3.306,2.943,2.943,0,0,1-3.161-2.48l-5.139-29.145H477.4L482.4,69.263a2.835,2.835,0,0,1-2.451,3.306,2.942,2.942,0,0,1-3.16-2.48l-5.139-29.144h-5.813l4.993,28.318a2.834,2.834,0,0,1-2.45,3.306,2.943,2.943,0,0,1-3.161-2.48l-5.062-28.707-5.645.951,4.749,26.93a2.835,2.835,0,0,1-2.451,3.306,2.942,2.942,0,0,1-3.16-2.48l-4.728-26.814-1.209.2a5.669,5.669,0,0,0-4.641,6.575l9.619,54.242a5.669,5.669,0,0,0,5.583,4.685h51.818a5.669,5.669,0,0,1,5.574,4.634l7,38.524a5.643,5.643,0,0,0,5.548,4.618c9.032,0,44,0,56.925,0a5.661,5.661,0,0,1,5.592,4.783l3.731,23.584a5.67,5.67,0,0,1-4.788,6.489l-29.221,4.233a8.5,8.5,0,0,1-15.134,1.085l-17.974-1.091-31.431-18.1a5.668,5.668,0,0,0-4.768-.415l-58.115,21.155a5.669,5.669,0,0,0-3.39,3.393L419.356,230.2l-8.828,15.291a2.834,2.834,0,0,1-2.455,1.417H392.054a2.835,2.835,0,0,1-2.455-1.417l-8.009-13.873a2.837,2.837,0,0,0-2.455-1.418H352.33a2.837,2.837,0,0,0-2.455,1.418l-5.323,9.221a2.836,2.836,0,0,1-2.455,1.417H281.218a2.833,2.833,0,0,1-2.454-1.417l-5.324-9.221a2.836,2.836,0,0,0-2.455-1.418H244.012a2.836,2.836,0,0,0-2.455,1.418l-8.009,13.873a2.836,2.836,0,0,1-2.455,1.417H215.074a2.834,2.834,0,0,1-2.455-1.417L203.791,230.2l-10.24-28.237a5.67,5.67,0,0,0-3.382-3.392l-57.806-21.144a5.669,5.669,0,0,0-4.777.412l-31.26,18-18.361,1.114a8.494,8.494,0,0,1-15.14-1.166L34,191.613a5.67,5.67,0,0,1-4.789-6.489l3.653-23.566a5.669,5.669,0,0,1,5.6-4.8h56.65a5.67,5.67,0,0,0,5.575-4.64l7.1-38.5a5.669,5.669,0,0,1,5.575-4.64h51.813a5.669,5.669,0,0,0,5.583-4.685l9.916-56.7a5.669,5.669,0,0,0-5.583-6.654h-.354l-5.167,29.3a2.835,2.835,0,0,1-3.433,2.269,2.942,2.942,0,0,1-2.122-3.411l4.965-28.16h-5.813l-5.166,29.3a2.836,2.836,0,0,1-3.434,2.269,2.944,2.944,0,0,1-2.122-3.411l4.966-28.16H151.6l-5.167,29.3a2.835,2.835,0,0,1-3.433,2.269,2.942,2.942,0,0,1-2.122-3.411l4.965-28.16h-5.813l-5.072,28.767a3.567,3.567,0,0,1-3.378,2.835h0a2.337,2.337,0,0,1-2.379-2.835l5.073-28.767h-5.813l-5.167,29.3a2.834,2.834,0,0,1-3.433,2.269,2.941,2.941,0,0,1-2.122-3.411l4.965-28.16H48.881a5.668,5.668,0,0,0-5.584,4.69L32.184,108.981H62.609a2.835,2.835,0,0,1,2.831,2.987,2.942,2.942,0,0,1-2.991,2.682H31.19l-1,5.725H60.6a2.834,2.834,0,0,1,2.831,2.987,2.943,2.943,0,0,1-2.991,2.682H29.191l-1,5.724h30.4a2.835,2.835,0,0,1,2.831,2.987,2.943,2.943,0,0,1-2.991,2.683H27.193l-1.005,5.724H56.582a2.835,2.835,0,1,1,0,5.669H25.194l-7.335,41.815a7.753,7.753,0,0,0,6.577,8.932L75.7,206.294a8.431,8.431,0,0,0,1.634.111l22.294-.4a8.5,8.5,0,0,1,3.155.51l57.741,21.076a7.959,7.959,0,0,1,4.451,3.962l26.563,55.193a2.659,2.659,0,0,0,1.821,1.554l59.413,14.921H370.5l59.176-14.214a2.66,2.66,0,0,0,1.822-1.553l26.744-55.428a7.958,7.958,0,0,1,4.453-3.967l59.607-22.03a8.464,8.464,0,0,1,3.153-.51l21.42,1.417a8.5,8.5,0,0,0,1.633-.11l50.46-7.651A7.754,7.754,0,0,0,605.544,190.238ZM571,110.1H568.34v-.929a4.581,4.581,0,0,0-.076-1.1.4.4,0,0,0-.7-.032,3.13,3.13,0,0,0-.088.974v4.915a2.962,2.962,0,0,0,.088.907.345.345,0,0,0,.355.219.391.391,0,0,0,.395-.247,2.9,2.9,0,0,0,.1-.961v-1.215h-.537v-1.556H571v5.5h-1.674l-.246-.734a1.853,1.853,0,0,1-.687.711,1.926,1.926,0,0,1-.978.238,2.546,2.546,0,0,1-1.256-.326,2.433,2.433,0,0,1-.89-.807,2.567,2.567,0,0,1-.379-1.008,12.066,12.066,0,0,1-.076-1.585v-3.042a10.213,10.213,0,0,1,.158-2.131,2.189,2.189,0,0,1,.908-1.218,3.179,3.179,0,0,1,1.938-.553,3.616,3.616,0,0,1,1.942.48,2.274,2.274,0,0,1,1.006,1.142,6.044,6.044,0,0,1,.234,1.92Zm-48.791-8.577a5.669,5.669,0,0,1-5.584-4.685l-6.931-39.3a5.67,5.67,0,0,1,5.583-6.654h51.146a5.669,5.669,0,0,1,5.583,4.685l6.93,39.3a5.669,5.669,0,0,1-5.583,6.654Zm11.253,10.228a1.559,1.559,0,0,1,.339.6,9.6,9.6,0,0,1,.066,1.515v2.7H531.4v-3.4a2.352,2.352,0,0,0-.129-1.018q-.13-.2-.68-.2v4.618h-2.663v-10.24h1.885a14.427,14.427,0,0,1,2.552.145,1.763,1.763,0,0,1,1.088.743,3.381,3.381,0,0,1,.42,1.907,2.986,2.986,0,0,1-.3,1.607,1.562,1.562,0,0,1-1.17.493A1.994,1.994,0,0,1,533.465,111.746Zm6.053,4.82H534.9v-10.24h4.44v2.049h-1.777v1.942h1.663v1.948h-1.663v2.251h1.954Zm5.742,0h-4.045l-1.539-10.24h2.808q.49,4.23.7,7.159.207-2.96.439-5.255l.184-1.9h2.809Zm4.466,0h-2.662v-10.24h2.662Zm7.122-3.4a11.8,11.8,0,0,1-.076,1.635,2.228,2.228,0,0,1-.449.968,2.328,2.328,0,0,1-.983.752,3.7,3.7,0,0,1-1.439.257,4.052,4.052,0,0,1-1.619-.3,2.433,2.433,0,0,1-1.05-.791,2.189,2.189,0,0,1-.412-1.027q-.063-.541-.063-2.274v-6.059h2.663V114a3.008,3.008,0,0,0,.073.857.285.285,0,0,0,.294.187.309.309,0,0,0,.326-.206,3.868,3.868,0,0,0,.072-.971v-7.545h2.663Zm1.031-6.843h2.226l1.493,4.61v-4.61h2.226v10.24H561.49l-1.385-4.655v4.655h-2.226ZM50.3,101.514a5.669,5.669,0,0,1-5.583-6.654l6.93-39.3a5.668,5.668,0,0,1,5.583-4.685h50.791a5.669,5.669,0,0,1,5.581,6.667l-7.026,39.3a5.67,5.67,0,0,1-5.581,4.672Zm131.27,129.15A5.67,5.67,0,1,1,187.236,225,5.669,5.669,0,0,1,181.567,230.664ZM421.042,277.87H354.788l-3.835,15.04a5.4,5.4,0,0,1-5.15,4.187H277.622a5.4,5.4,0,0,1-5.143-4.16l-3.918-15.067H202.274a4.26,4.26,0,0,1,0-8.5h65.048l6.1-16.771a5.354,5.354,0,0,1,4.976-3.625h66.215a5.347,5.347,0,0,1,4.947,3.546l6.407,16.85h65.072a4.26,4.26,0,0,1,0,8.5Zm20.7-47.206A5.67,5.67,0,1,1,447.406,225,5.67,5.67,0,0,1,441.737,230.664Z" transform="translate(-5.111 -6.325)"/></g><g id="note"><text class="cls-2" transform="translate(2.857 280.244)">W : 214.325 mm<tspan x="0" y="24">H : 107.073 mm</tspan></text><path class="cls-3" d="M5.111,17.973V6.52H9.978a8.322,8.322,0,0,1,2.668.309,2.634,2.634,0,0,1,1.332,1.1,3.306,3.306,0,0,1,.5,1.8,3.06,3.06,0,0,1-.758,2.129,3.641,3.641,0,0,1-2.266,1.059,5.444,5.444,0,0,1,1.239.96,13.15,13.15,0,0,1,1.316,1.86l1.4,2.234H12.642L10.97,15.481A16.159,16.159,0,0,0,9.751,13.8a1.774,1.774,0,0,0-.7-.476,3.81,3.81,0,0,0-1.164-.129H7.423v4.781Zm2.312-6.609H9.134a8.807,8.807,0,0,0,2.078-.141,1.252,1.252,0,0,0,.649-.484,1.494,1.494,0,0,0,.234-.86,1.376,1.376,0,0,0-.308-.933,1.419,1.419,0,0,0-.872-.449q-.28-.039-1.687-.039h-1.8Z" transform="translate(-5.111 -6.325)"/><path class="cls-3" d="M21.447,15.333l2.187.367A3.585,3.585,0,0,1,22.3,17.532a3.915,3.915,0,0,1-2.277.629,3.71,3.71,0,0,1-3.2-1.414A4.75,4.75,0,0,1,16,13.887a4.584,4.584,0,0,1,1.078-3.23,3.551,3.551,0,0,1,2.727-1.168,3.687,3.687,0,0,1,2.922,1.222,5.412,5.412,0,0,1,1.023,3.747h-5.5a2.22,2.22,0,0,0,.532,1.519,1.66,1.66,0,0,0,1.265.543,1.345,1.345,0,0,0,.867-.281A1.735,1.735,0,0,0,21.447,15.333Zm.125-2.219a2.114,2.114,0,0,0-.493-1.449,1.507,1.507,0,0,0-1.14-.5,1.525,1.525,0,0,0-1.188.523,2.029,2.029,0,0,0-.461,1.422Z" transform="translate(-5.111 -6.325)"/><path class="cls-3" d="M33.15,17.973H31.111V16.754a3.29,3.29,0,0,1-1.2,1.059,3.088,3.088,0,0,1-1.395.348,3.157,3.157,0,0,1-2.449-1.153,4.683,4.683,0,0,1-1.02-3.214,4.637,4.637,0,0,1,.992-3.208,3.237,3.237,0,0,1,2.508-1.1,3.108,3.108,0,0,1,2.406,1.156V6.52h2.2Zm-5.86-4.328a3.784,3.784,0,0,0,.368,1.922,1.657,1.657,0,0,0,1.484.859,1.617,1.617,0,0,0,1.289-.644,2.976,2.976,0,0,0,.531-1.926,3.264,3.264,0,0,0-.515-2.059,1.7,1.7,0,0,0-2.629-.007A2.8,2.8,0,0,0,27.29,13.645Z" transform="translate(-5.111 -6.325)"/><path class="cls-3" d="M41.4,12.208l-1.992-.36a3.1,3.1,0,0,1,1.156-1.781A4.233,4.233,0,0,1,43,9.489a5.273,5.273,0,0,1,2.188.347,2.193,2.193,0,0,1,1.012.883,4.534,4.534,0,0,1,.293,1.965l-.024,2.563a8.817,8.817,0,0,0,.106,1.613,4.655,4.655,0,0,0,.394,1.113H44.8c-.057-.145-.128-.362-.211-.648q-.054-.195-.078-.258a3.944,3.944,0,0,1-1.2.82,3.452,3.452,0,0,1-1.367.274,2.827,2.827,0,0,1-2.02-.7,2.31,2.31,0,0,1-.738-1.757,2.358,2.358,0,0,1,.336-1.254,2.191,2.191,0,0,1,.941-.844A7.389,7.389,0,0,1,42.2,13.1a11.879,11.879,0,0,0,2.133-.539V12.34a1.139,1.139,0,0,0-.312-.9,1.874,1.874,0,0,0-1.18-.269,1.575,1.575,0,0,0-.914.23A1.6,1.6,0,0,0,41.4,12.208Zm2.937,1.781A13.52,13.52,0,0,1,43,14.325a4.023,4.023,0,0,0-1.2.383.914.914,0,0,0-.43.773,1.077,1.077,0,0,0,.344.8,1.2,1.2,0,0,0,.875.336,1.9,1.9,0,0,0,1.133-.391,1.371,1.371,0,0,0,.523-.726,4.353,4.353,0,0,0,.086-1.071Z" transform="translate(-5.111 -6.325)"/><path class="cls-3" d="M50.759,17.973h-2.2v-8.3H50.6v1.18a3.573,3.573,0,0,1,.941-1.1,1.742,1.742,0,0,1,.95-.265,2.787,2.787,0,0,1,1.445.414l-.68,1.914a1.932,1.932,0,0,0-1.031-.359,1.222,1.222,0,0,0-.781.253,1.736,1.736,0,0,0-.5.918,13,13,0,0,0-.184,2.782Z" transform="translate(-5.111 -6.325)"/><path class="cls-3" d="M59.689,15.333l2.187.367a3.585,3.585,0,0,1-1.332,1.832,3.915,3.915,0,0,1-2.277.629,3.71,3.71,0,0,1-3.2-1.414,4.749,4.749,0,0,1-.82-2.86,4.579,4.579,0,0,1,1.078-3.23,3.547,3.547,0,0,1,2.726-1.168,3.686,3.686,0,0,1,2.922,1.222,5.417,5.417,0,0,1,1.024,3.747h-5.5a2.214,2.214,0,0,0,.531,1.519,1.66,1.66,0,0,0,1.265.543,1.35,1.35,0,0,0,.868-.281A1.74,1.74,0,0,0,59.689,15.333Zm.125-2.219a2.119,2.119,0,0,0-.492-1.449,1.585,1.585,0,0,0-2.328.027,2.02,2.02,0,0,0-.461,1.422Z" transform="translate(-5.111 -6.325)"/><path class="cls-3" d="M65.423,12.208l-1.992-.36a3.1,3.1,0,0,1,1.156-1.781,4.237,4.237,0,0,1,2.438-.578,5.265,5.265,0,0,1,2.187.347,2.188,2.188,0,0,1,1.012.883,4.534,4.534,0,0,1,.293,1.965l-.023,2.563A8.93,8.93,0,0,0,70.6,16.86a4.661,4.661,0,0,0,.395,1.113H68.822c-.058-.145-.128-.362-.211-.648q-.056-.195-.078-.258a3.948,3.948,0,0,1-1.2.82,3.448,3.448,0,0,1-1.367.274,2.824,2.824,0,0,1-2.019-.7,2.31,2.31,0,0,1-.739-1.757,2.358,2.358,0,0,1,.336-1.254,2.188,2.188,0,0,1,.942-.844,7.359,7.359,0,0,1,1.746-.512,11.879,11.879,0,0,0,2.133-.539V12.34a1.139,1.139,0,0,0-.313-.9,1.868,1.868,0,0,0-1.179-.269,1.579,1.579,0,0,0-.915.23A1.6,1.6,0,0,0,65.423,12.208Zm2.938,1.781a13.672,13.672,0,0,1-1.336.336,4.021,4.021,0,0,0-1.2.383.916.916,0,0,0-.429.773,1.073,1.073,0,0,0,.344.8,1.2,1.2,0,0,0,.875.336,1.9,1.9,0,0,0,1.132-.391,1.379,1.379,0,0,0,.524-.726,4.353,4.353,0,0,0,.086-1.071Z" transform="translate(-5.111 -6.325)"/><path class="cls-3" d="M77.126,8.551V6.52h2.2V8.551Zm0,9.422v-8.3h2.2v8.3Z" transform="translate(-5.111 -6.325)"/><path class="cls-3" d="M80.8,15.606,83,15.27a1.614,1.614,0,0,0,.571.973,1.927,1.927,0,0,0,1.2.332,2.169,2.169,0,0,0,1.281-.313.7.7,0,0,0,.289-.586.579.579,0,0,0-.156-.414,1.767,1.767,0,0,0-.735-.289,11.819,11.819,0,0,1-3.367-1.07,2.137,2.137,0,0,1-.984-1.867,2.3,2.3,0,0,1,.851-1.813A3.981,3.981,0,0,1,84.6,9.489a4.6,4.6,0,0,1,2.531.555,2.841,2.841,0,0,1,1.141,1.64l-2.07.383a1.284,1.284,0,0,0-.5-.742,1.845,1.845,0,0,0-1.059-.258,2.39,2.39,0,0,0-1.242.242.52.52,0,0,0-.25.445.485.485,0,0,0,.219.4,8.226,8.226,0,0,0,2.051.617,6.111,6.111,0,0,1,2.449.977,2.029,2.029,0,0,1,.687,1.632A2.505,2.505,0,0,1,87.6,17.34a4.22,4.22,0,0,1-2.82.821,4.623,4.623,0,0,1-2.684-.688A3.163,3.163,0,0,1,80.8,15.606Z" transform="translate(-5.111 -6.325)"/><path class="cls-3" d="M100.259,13.762V11.833h4.985V16.4a6.27,6.27,0,0,1-2.106,1.238,7.661,7.661,0,0,1-2.793.536,6.266,6.266,0,0,1-3.133-.754A4.8,4.8,0,0,1,95.2,15.258a6.96,6.96,0,0,1-.671-3.05,6.593,6.593,0,0,1,.75-3.18A5.05,5.05,0,0,1,97.478,6.9a5.924,5.924,0,0,1,2.742-.57,5.474,5.474,0,0,1,3.332.894A4.044,4.044,0,0,1,105.1,9.692l-2.3.43a2.421,2.421,0,0,0-.91-1.332A2.747,2.747,0,0,0,100.22,8.3a3.134,3.134,0,0,0-2.41.961,4.047,4.047,0,0,0-.895,2.852,4.478,4.478,0,0,0,.907,3.058,3.024,3.024,0,0,0,2.375,1.02,3.99,3.99,0,0,0,1.457-.285,5,5,0,0,0,1.254-.692V13.762Z" transform="translate(-5.111 -6.325)"/><path class="cls-3" d="M109.462,17.973h-2.2v-8.3h2.039v1.18a3.573,3.573,0,0,1,.941-1.1,1.742,1.742,0,0,1,.95-.265,2.787,2.787,0,0,1,1.445.414l-.68,1.914a1.932,1.932,0,0,0-1.031-.359,1.222,1.222,0,0,0-.781.253,1.736,1.736,0,0,0-.5.918,13,13,0,0,0-.184,2.782Z" transform="translate(-5.111 -6.325)"/><path class="cls-3" d="M115.228,12.208l-1.992-.36a3.1,3.1,0,0,1,1.156-1.781,4.233,4.233,0,0,1,2.437-.578,5.273,5.273,0,0,1,2.188.347,2.193,2.193,0,0,1,1.012.883,4.534,4.534,0,0,1,.293,1.965l-.024,2.563a8.817,8.817,0,0,0,.106,1.613,4.655,4.655,0,0,0,.394,1.113h-2.172c-.057-.145-.128-.362-.211-.648q-.054-.195-.078-.258a3.944,3.944,0,0,1-1.2.82,3.452,3.452,0,0,1-1.367.274,2.827,2.827,0,0,1-2.02-.7,2.31,2.31,0,0,1-.738-1.757,2.358,2.358,0,0,1,.336-1.254,2.188,2.188,0,0,1,.942-.844,7.359,7.359,0,0,1,1.746-.512,11.885,11.885,0,0,0,2.132-.539V12.34a1.139,1.139,0,0,0-.312-.9,1.874,1.874,0,0,0-1.18-.269,1.578,1.578,0,0,0-.914.23A1.6,1.6,0,0,0,115.228,12.208Zm2.937,1.781a13.52,13.52,0,0,1-1.336.336,4.023,4.023,0,0,0-1.195.383.917.917,0,0,0-.43.773,1.077,1.077,0,0,0,.344.8,1.2,1.2,0,0,0,.875.336,1.9,1.9,0,0,0,1.133-.391,1.371,1.371,0,0,0,.523-.726,4.3,4.3,0,0,0,.086-1.071Z" transform="translate(-5.111 -6.325)"/><path class="cls-3" d="M124.767,17.973l-3.344-8.3h2.3l1.562,4.235.454,1.414c.119-.36.195-.6.226-.711q.11-.353.234-.7l1.579-4.235h2.257l-3.3,8.3Z" transform="translate(-5.111 -6.325)"/><path class="cls-3" d="M131.384,8.551V6.52h2.2V8.551Zm0,9.422v-8.3h2.2v8.3Z" transform="translate(-5.111 -6.325)"/><path class="cls-3" d="M143.376,17.973h-2.195V13.739A6.524,6.524,0,0,0,141.04,12a1.217,1.217,0,0,0-.457-.614,1.309,1.309,0,0,0-.761-.218,1.762,1.762,0,0,0-1.024.312,1.576,1.576,0,0,0-.621.828,7.161,7.161,0,0,0-.168,1.906v3.758h-2.195v-8.3h2.039V10.9a3.322,3.322,0,0,1,2.734-1.406,3.282,3.282,0,0,1,1.328.262,2.225,2.225,0,0,1,.911.668,2.436,2.436,0,0,1,.429.921,6.844,6.844,0,0,1,.121,1.477Z" transform="translate(-5.111 -6.325)"/><path class="cls-3" d="M145.4,18.52l2.508.3a.849.849,0,0,0,.289.6,1.642,1.642,0,0,0,.984.235,2.556,2.556,0,0,0,1.289-.258,1.075,1.075,0,0,0,.438-.555,3.36,3.36,0,0,0,.1-1.008V16.629a2.969,2.969,0,0,1-2.484,1.344,3.058,3.058,0,0,1-2.649-1.414,4.808,4.808,0,0,1-.765-2.781,4.573,4.573,0,0,1,1-3.188,3.239,3.239,0,0,1,2.5-1.1,3.041,3.041,0,0,1,2.539,1.351V9.676H153.2v7.446a7.432,7.432,0,0,1-.242,2.2,2.731,2.731,0,0,1-.679,1.141,3.027,3.027,0,0,1-1.168.648,6.164,6.164,0,0,1-1.848.234,4.787,4.787,0,0,1-2.992-.722,2.267,2.267,0,0,1-.883-1.832C145.392,18.712,145.394,18.624,145.4,18.52Zm1.961-4.867a2.99,2.99,0,0,0,.511,1.933,1.58,1.58,0,0,0,1.262.614,1.749,1.749,0,0,0,1.36-.629,2.744,2.744,0,0,0,.554-1.863,2.906,2.906,0,0,0-.531-1.914,1.688,1.688,0,0,0-1.344-.625,1.62,1.62,0,0,0-1.3.613A2.878,2.878,0,0,0,147.361,13.653Z" transform="translate(-5.111 -6.325)"/></g></svg>