M48
; DRILL file {KiCad (5.1.6-0-10_14)} date Thursday, August 27, 2020 at 09:40:33 AM
; FORMAT={-:-/ absolute / inch / decimal}
; #@! TF.CreationDate,2020-08-27T09:40:33+09:00
; #@! TF.GenerationSoftware,Kicad,Pcbnew,(5.1.6-0-10_14)
; #@! TF.FileFunction,Plated,1,2,PTH
FMAT,2
INCH
T1C0.0118
T2C0.0197
T3C0.0320
T4C0.0512
%
G90
G05
T1
X0.8071Y-4.6161
X1.2106Y-2.4114
X1.437Y-4.4587
X1.4961Y-3.7205
X1.5065Y-4.3006
X1.5453Y-4.813
X1.6142Y-4.0157
X1.6372Y-3.6482
X1.8809Y-3.6113
X1.8809Y-4.0334
X1.9882Y-3.317
X2.0131Y-2.8392
X2.0374Y-4.7047
X2.1457Y-3.1496
X2.2213Y-4.4913
X2.2638Y-3.7992
X2.2703Y-4.4061
X2.3622Y-4.4882
X2.372Y-3.75
X2.3994Y-3.5412
X2.5295Y-3.9862
X2.6446Y-3.5857
X2.7264Y-3.3268
X2.7749Y-2.855
X3.3563Y-4.0059
X3.4055Y-2.9429
X3.4055Y-3.2185
X3.4068Y-3.5814
X3.4547Y-5.0492
X3.4941Y-2.3917
X3.7697Y-5.8661
X3.7992Y-2.6673
X3.8091Y-3.0807
X3.9862Y-3.8583
X3.9862Y-4.1339
X4.1339Y-2.9134
X4.1437Y-3.3169
X4.252Y-3.5138
X4.2521Y-3.0412
X4.3091Y-3.3118
X4.4377Y-2.7375
X4.4882Y-3.3268
X4.5768Y-3.5433
X4.7047Y-4.1043
X4.7047Y-4.3996
X4.7343Y-6.1319
X4.7933Y-5.1181
X4.7933Y-5.2559
X4.872Y-2.7165
X4.9232Y-2.7736
X4.9675Y-3.5501
X4.9675Y-3.8121
X5.0984Y-5.2756
X5.1969Y-2.7559
X5.2264Y-3.189
X5.3051Y-2.874
X5.315Y-4.5079
X5.4167Y-5.3373
X5.4167Y-5.5085
X5.4429Y-3.7697
X5.5225Y-5.0484
X5.6988Y-3.5433
X5.7087Y-4.252
X5.7726Y-3.5089
X5.7776Y-4.252
X5.8435Y-3.4419
X5.8465Y-3.878
X5.9055Y-2.9035
X5.9228Y-4.4217
X5.935Y-4.9016
X5.9547Y-3.7697
X5.9646Y-5.7677
X5.9803Y-4.2261
X6.0099Y-4.6496
X6.0827Y-4.5079
X6.1417Y-4.9311
X6.1417Y-5.1083
X6.2106Y-2.9331
X6.3484Y-2.7854
X6.378Y-5.2756
X6.4075Y-2.9331
X6.4173Y-2.7461
X6.4616Y-5.2215
X6.4875Y-2.6883
X6.5453Y-2.628
X6.5453Y-5.3051
X6.6142Y-4.3504
X6.6266Y-3.6417
X6.6535Y-6.1319
X6.7175Y-5.1919
X6.7241Y-4.1322
X6.7323Y-3.3366
X6.7323Y-3.6122
X6.7929Y-5.3922
X6.8438Y-4.252
X6.8504Y-4.7933
X7.0866Y-3.1693
X7.0866Y-3.4154
X7.3425Y-2.9429
X7.4213Y-4.439
X7.4213Y-4.6752
X7.4409Y-3.3563
X7.4409Y-3.8484
X7.4776Y-2.5969
X7.5098Y-3.0807
X7.5098Y-3.248
X7.5689Y-3.9764
X7.569Y-4.4389
X7.6181Y-5.8661
X7.9035Y-2.3917
X7.9232Y-5.0492
X7.9469Y-2.639
X8.0936Y-4.4556
X8.1004Y-2.9528
X8.1594Y-4.1929
X8.2004Y-4.027
X8.2004Y-4.3913
X8.2028Y-3.3326
X8.2579Y-2.5984
X8.3366Y-3.7402
X8.3366Y-3.9961
X8.5039Y-2.9134
X8.5236Y-2.7165
X8.622Y-3.6319
X8.6516Y-3.4547
X8.8583Y-2.9134
X8.9638Y-3.6981
X8.9665Y-3.3465
X8.9869Y-4.1529
X9.0898Y-3.1149
X9.1388Y-3.1939
X9.4783Y-3.6713
X9.5513Y-3.244
X9.5945Y-3.5945
X9.7244Y-3.002
X9.7244Y-3.3268
X9.8327Y-4.8031
X9.8622Y-3.7191
X9.8622Y-4.0748
X9.8917Y-3.6713
X10.187Y-2.4016
X10.5807Y-4.6161
T2
X1.1811Y-3.8484
X1.3525Y-4.6654
X1.6634Y-4.0157
X2.0079Y-4.6654
X2.4528Y-3.935
X2.5098Y-3.3366
X2.6575Y-2.9724
X2.7116Y-2.4459
X4.2323Y-2.7559
X4.3799Y-2.6083
X4.6654Y-5.1181
X4.6654Y-5.2559
X4.813Y-3.1496
X5.0886Y-5.4921
X6.378Y-2.4311
X6.6886Y-5.6933
X8.6909Y-2.9232
X8.9272Y-3.8878
X8.9272Y-4.6654
X10.374Y-3.3366
X10.374Y-3.8583
T3
X5.1524Y-2.6299
X5.2509Y-2.6472
X5.2564Y-2.0398
X5.3494Y-2.6646
X5.3549Y-2.0571
X5.4478Y-2.682
X5.4534Y-2.0745
X5.5463Y-2.6993
X5.5519Y-2.0919
X5.6448Y-2.7167
X5.6504Y-2.1092
X5.7433Y-2.7341
X5.7488Y-2.1266
X5.8418Y-2.7514
X5.8473Y-2.144
X5.9402Y-2.7688
X5.9458Y-2.1613
X6.0387Y-2.7862
X6.0443Y-2.1787
X6.1372Y-2.8035
X6.1428Y-2.1961
X6.2357Y-2.8209
X6.2413Y-2.2134
X6.3397Y-2.2308
T4
X6.7638Y-2.399
X7.0158Y-2.4435
T0
M30
