<?xml version="1.0" encoding="utf-8"?>
<!-- Generator: Adobe Illustrator 24.2.3, SVG Export Plug-In . SVG Version: 6.00 Build 0)  -->
<svg version="1.1" xmlns="http://www.w3.org/2000/svg" xmlns:xlink="http://www.w3.org/1999/xlink" x="0px" y="0px"
	 viewBox="0 0 159.18 165.17" style="enable-background:new 0 0 159.18 165.17;" xml:space="preserve">
<style type="text/css">
	.st0{fill:#FF0000;}
</style>
<g id="cut">
	<path d="M55.4,8.5l-25.75,0L8.5,128.43l15.63,9.02c0.65,0.38,1.39,0.58,2.14,0.58h9.57c1.17-2.51,3.72-4.26,6.67-4.26
		s5.5,1.75,6.67,4.26h9.61c0.75,0,1.49-0.2,2.14-0.58l15.6-9L55.4,8.5z M54.15,94.4c-0.51,0.7-0.82,1.56-0.82,2.5
		c0,0.94,0.31,1.79,0.82,2.5v4.92c0,2.35-1.9,4.25-4.25,4.25H35.16c-2.35,0-4.25-1.9-4.25-4.25v-4.95c0.5-0.7,0.8-1.54,0.8-2.46
		s-0.3-1.77-0.8-2.46v-4.86c0-2.35,1.9-4.25,4.25-4.25H49.9c2.35,0,4.25,1.9,4.25,4.25V94.4z"/>
	<path d="M129.52,8.5l-25.75,0L82.62,128.43l15.63,9.02c0.65,0.38,1.39,0.58,2.14,0.58h9.57c1.17-2.51,3.72-4.26,6.67-4.26
		s5.5,1.75,6.67,4.26h9.61c0.75,0,1.49-0.2,2.14-0.58l15.6-9L129.52,8.5z M124.22,38.31c2.08,0,3.77,1.69,3.77,3.77
		c0,2.08-1.69,3.77-3.77,3.77c-2.08,0-3.77-1.69-3.77-3.77C120.45,40,122.14,38.31,124.22,38.31z M124.22,53.91
		c2.08,0,3.77,1.69,3.77,3.77c0,2.08-1.69,3.77-3.77,3.77c-2.08,0-3.77-1.69-3.77-3.77C120.45,55.59,122.14,53.91,124.22,53.91z
		 M124.22,69.5c2.08,0,3.77,1.69,3.77,3.77s-1.69,3.77-3.77,3.77c-2.08,0-3.77-1.69-3.77-3.77S122.14,69.5,124.22,69.5z
		 M116.66,30.54c2.08,0,3.77,1.69,3.77,3.77c0,2.08-1.69,3.77-3.77,3.77s-3.77-1.69-3.77-3.77
		C112.9,32.22,114.58,30.54,116.66,30.54z M116.66,46.13c2.08,0,3.77,1.69,3.77,3.77c0,2.08-1.69,3.77-3.77,3.77
		s-3.77-1.69-3.77-3.77C112.9,47.82,114.58,46.13,116.66,46.13z M116.66,61.72c2.08,0,3.77,1.69,3.77,3.77
		c0,2.08-1.69,3.77-3.77,3.77s-3.77-1.69-3.77-3.77C112.9,63.41,114.58,61.72,116.66,61.72z M109.08,38.31
		c2.08,0,3.77,1.69,3.77,3.77c0,2.08-1.69,3.77-3.77,3.77s-3.77-1.69-3.77-3.77C105.32,40,107,38.31,109.08,38.31z M109.08,53.91
		c2.08,0,3.77,1.69,3.77,3.77c0,2.08-1.69,3.77-3.77,3.77s-3.77-1.69-3.77-3.77C105.32,55.59,107,53.91,109.08,53.91z M112.85,73.27
		c0,2.08-1.69,3.77-3.77,3.77s-3.77-1.69-3.77-3.77s1.69-3.77,3.77-3.77S112.85,71.19,112.85,73.27z M101.59,61.72
		c2.08,0,3.77,1.69,3.77,3.77c0,2.08-1.69,3.77-3.77,3.77c-2.08,0-3.77-1.69-3.77-3.77C97.82,63.41,99.51,61.72,101.59,61.72z
		 M101.59,77.32c2.08,0,3.77,1.69,3.77,3.77c0,2.08-1.69,3.77-3.77,3.77c-2.08,0-3.77-1.69-3.77-3.77
		C97.82,79,99.51,77.32,101.59,77.32z M93.92,123.81c-2.08,0-3.77-1.69-3.77-3.77c0-2.08,1.69-3.77,3.77-3.77
		c2.08,0,3.77,1.69,3.77,3.77C97.69,122.13,96,123.81,93.92,123.81z M101.59,131.63c-2.08,0-3.77-1.69-3.77-3.77
		c0-2.08,1.69-3.77,3.77-3.77c2.08,0,3.77,1.69,3.77,3.77C105.35,129.94,103.67,131.63,101.59,131.63z M97.82,112.27
		c0-2.08,1.69-3.77,3.77-3.77c2.08,0,3.77,1.69,3.77,3.77s-1.69,3.77-3.77,3.77C99.51,116.04,97.82,114.35,97.82,112.27z
		 M109.08,123.81c-2.08,0-3.77-1.69-3.77-3.77c0-2.08,1.69-3.77,3.77-3.77s3.77,1.69,3.77,3.77
		C112.85,122.13,111.16,123.81,109.08,123.81z M116.66,131.63c-2.08,0-3.77-1.69-3.77-3.77c0-2.08,1.69-3.77,3.77-3.77
		s3.77,1.69,3.77,3.77C120.43,129.94,118.74,131.63,116.66,131.63z M124.22,123.81c-2.08,0-3.77-1.69-3.77-3.77
		c0-2.08,1.69-3.77,3.77-3.77c2.08,0,3.77,1.69,3.77,3.77C127.99,122.13,126.3,123.81,124.22,123.81z M131.73,131.63
		c-2.08,0-3.77-1.69-3.77-3.77c0-2.08,1.69-3.77,3.77-3.77c2.08,0,3.77,1.69,3.77,3.77C135.5,129.94,133.81,131.63,131.73,131.63z
		 M131.73,116.04c-2.08,0-3.77-1.69-3.77-3.77s1.69-3.77,3.77-3.77c2.08,0,3.77,1.69,3.77,3.77S133.81,116.04,131.73,116.04z
		 M131.73,100.44L131.73,100.44L131.73,100.44l-3.46,0v3.87c0,2.35-1.9,4.25-4.25,4.25h-3.59c0,0,0,3.5,0,3.7
		c0,2.08-1.69,3.77-3.77,3.77s-3.77-1.69-3.77-3.77c0-0.21,0-3.7,0-3.7h-3.62c-2.35,0-4.25-1.9-4.25-4.25v-3.87h-3.77v-0.03
		c-1.92-0.17-3.44-1.77-3.44-3.73s1.51-3.56,3.44-3.73v-0.03h3.77v-3.33c0-2.35,1.9-4.25,4.25-4.25h3.57v-4.24h0.05
		c0-2.08,1.69-3.77,3.77-3.77s3.77,1.69,3.77,3.77c0,0.15,0,4.24,0,4.24h3.59c2.35,0,4.25,1.9,4.25,4.25v3.33h3.46v0h0
		c2.08,0,3.77,1.69,3.77,3.77C135.5,98.76,133.81,100.44,131.73,100.44z M131.73,84.85c-2.08,0-3.77-1.69-3.77-3.77
		c0-2.08,1.69-3.77,3.77-3.77c2.08,0,3.77,1.69,3.77,3.77C135.5,83.16,133.81,84.85,131.73,84.85z M131.73,69.26
		c-2.08,0-3.77-1.69-3.77-3.77c0-2.08,1.69-3.77,3.77-3.77c2.08,0,3.77,1.69,3.77,3.77C135.5,67.57,133.81,69.26,131.73,69.26z
		 M139.33,123.81c-2.08,0-3.77-1.69-3.77-3.77c0-2.08,1.69-3.77,3.77-3.77c2.08,0,3.77,1.69,3.77,3.77
		C143.1,122.13,141.41,123.81,139.33,123.81z"/>
</g>
<g id="Graving">
	<g>
		<path class="st0" d="M22.15,154.05v-8.88h3.78c0.95,0,1.64,0.08,2.07,0.24c0.43,0.16,0.77,0.44,1.03,0.85
			c0.26,0.41,0.39,0.88,0.39,1.4c0,0.67-0.2,1.22-0.59,1.65c-0.39,0.43-0.98,0.71-1.76,0.82c0.39,0.23,0.71,0.48,0.96,0.75
			c0.25,0.27,0.59,0.75,1.02,1.44l1.08,1.73h-2.15l-1.3-1.93c-0.46-0.69-0.78-1.13-0.95-1.31c-0.17-0.18-0.35-0.3-0.54-0.37
			c-0.19-0.07-0.49-0.1-0.9-0.1h-0.36v3.71H22.15z M23.94,148.93h1.33c0.86,0,1.4-0.04,1.61-0.11c0.21-0.07,0.38-0.2,0.5-0.38
			c0.12-0.18,0.18-0.4,0.18-0.67c0-0.3-0.08-0.54-0.24-0.72c-0.16-0.18-0.38-0.3-0.68-0.35c-0.15-0.02-0.58-0.03-1.31-0.03h-1.4
			V148.93z"/>
		<path class="st0" d="M34.82,152.01l1.7,0.28c-0.22,0.62-0.56,1.1-1.03,1.42c-0.47,0.33-1.06,0.49-1.77,0.49
			c-1.12,0-1.95-0.37-2.48-1.1c-0.42-0.59-0.64-1.32-0.64-2.22c0-1.07,0.28-1.9,0.84-2.51c0.56-0.6,1.26-0.91,2.12-0.91
			c0.96,0,1.71,0.32,2.27,0.95c0.55,0.63,0.82,1.6,0.79,2.91h-4.27c0.01,0.51,0.15,0.9,0.41,1.18c0.26,0.28,0.59,0.42,0.98,0.42
			c0.27,0,0.49-0.07,0.67-0.22C34.59,152.56,34.73,152.33,34.82,152.01z M34.92,150.28c-0.01-0.49-0.14-0.87-0.38-1.12
			c-0.24-0.26-0.54-0.38-0.88-0.38c-0.37,0-0.68,0.14-0.92,0.41c-0.24,0.27-0.36,0.64-0.36,1.1H34.92z"/>
		<path class="st0" d="M43.9,154.05h-1.58v-0.95c-0.26,0.37-0.57,0.64-0.93,0.82c-0.36,0.18-0.72,0.27-1.08,0.27
			c-0.74,0-1.37-0.3-1.9-0.89c-0.53-0.6-0.79-1.43-0.79-2.49c0-1.09,0.26-1.92,0.77-2.49c0.51-0.57,1.16-0.85,1.95-0.85
			c0.72,0,1.34,0.3,1.87,0.9v-3.2h1.7V154.05z M39.35,150.7c0,0.69,0.09,1.18,0.28,1.49c0.27,0.44,0.66,0.67,1.15,0.67
			c0.39,0,0.72-0.17,1-0.5c0.27-0.33,0.41-0.83,0.41-1.49c0-0.74-0.13-1.27-0.4-1.6c-0.27-0.32-0.61-0.49-1.02-0.49
			c-0.4,0-0.74,0.16-1.02,0.48C39.49,149.58,39.35,150.06,39.35,150.7z"/>
		<path class="st0" d="M50.3,149.58l-1.55-0.28c0.17-0.62,0.47-1.08,0.9-1.38c0.42-0.3,1.05-0.45,1.89-0.45
			c0.76,0,1.32,0.09,1.7,0.27c0.37,0.18,0.63,0.41,0.78,0.68c0.15,0.28,0.23,0.78,0.23,1.52l-0.02,1.99c0,0.57,0.03,0.98,0.08,1.25
			c0.05,0.27,0.16,0.56,0.31,0.86h-1.68c-0.04-0.11-0.1-0.28-0.16-0.5c-0.03-0.1-0.05-0.17-0.06-0.2c-0.29,0.28-0.6,0.5-0.93,0.64
			c-0.33,0.14-0.68,0.21-1.06,0.21c-0.66,0-1.18-0.18-1.57-0.54c-0.38-0.36-0.57-0.81-0.57-1.36c0-0.36,0.09-0.69,0.26-0.97
			c0.17-0.28,0.42-0.5,0.73-0.65c0.31-0.15,0.76-0.28,1.35-0.4c0.8-0.15,1.35-0.29,1.65-0.42v-0.17c0-0.33-0.08-0.56-0.24-0.7
			c-0.16-0.14-0.47-0.21-0.92-0.21c-0.3,0-0.54,0.06-0.71,0.18C50.54,149.07,50.4,149.28,50.3,149.58z M52.58,150.96
			c-0.22,0.07-0.56,0.16-1.04,0.26c-0.47,0.1-0.78,0.2-0.93,0.3c-0.22,0.16-0.33,0.36-0.33,0.6c0,0.24,0.09,0.44,0.27,0.62
			c0.18,0.17,0.4,0.26,0.68,0.26c0.31,0,0.6-0.1,0.88-0.3c0.21-0.15,0.34-0.34,0.41-0.56c0.04-0.15,0.07-0.42,0.07-0.83V150.96z"/>
		<path class="st0" d="M57.56,154.05h-1.7v-6.44h1.58v0.92c0.27-0.43,0.51-0.72,0.73-0.85c0.22-0.14,0.46-0.21,0.74-0.21
			c0.39,0,0.76,0.11,1.12,0.32l-0.53,1.48c-0.29-0.19-0.55-0.28-0.8-0.28c-0.24,0-0.44,0.07-0.61,0.2c-0.17,0.13-0.3,0.37-0.39,0.71
			c-0.1,0.34-0.14,1.06-0.14,2.16V154.05z"/>
		<path class="st0" d="M64.49,152.01l1.7,0.28c-0.22,0.62-0.56,1.1-1.03,1.42c-0.47,0.33-1.06,0.49-1.77,0.49
			c-1.12,0-1.95-0.37-2.48-1.1c-0.42-0.59-0.64-1.32-0.64-2.22c0-1.07,0.28-1.9,0.84-2.51c0.56-0.6,1.26-0.91,2.12-0.91
			c0.96,0,1.71,0.32,2.27,0.95c0.55,0.63,0.82,1.6,0.79,2.91h-4.27c0.01,0.51,0.15,0.9,0.41,1.18c0.26,0.28,0.59,0.42,0.98,0.42
			c0.27,0,0.49-0.07,0.67-0.22C64.26,152.56,64.39,152.33,64.49,152.01z M64.58,150.28c-0.01-0.49-0.14-0.87-0.38-1.12
			c-0.24-0.26-0.54-0.38-0.88-0.38c-0.37,0-0.68,0.14-0.92,0.41c-0.24,0.27-0.36,0.64-0.36,1.1H64.58z"/>
		<path class="st0" d="M68.93,149.58l-1.55-0.28c0.17-0.62,0.47-1.08,0.9-1.38c0.42-0.3,1.05-0.45,1.89-0.45
			c0.76,0,1.32,0.09,1.7,0.27c0.37,0.18,0.63,0.41,0.78,0.68c0.15,0.28,0.23,0.78,0.23,1.52l-0.02,1.99c0,0.57,0.03,0.98,0.08,1.25
			c0.05,0.27,0.16,0.56,0.31,0.86h-1.68c-0.04-0.11-0.1-0.28-0.16-0.5c-0.03-0.1-0.05-0.17-0.06-0.2c-0.29,0.28-0.6,0.5-0.93,0.64
			c-0.33,0.14-0.68,0.21-1.06,0.21c-0.66,0-1.18-0.18-1.57-0.54c-0.38-0.36-0.57-0.81-0.57-1.36c0-0.36,0.09-0.69,0.26-0.97
			c0.17-0.28,0.42-0.5,0.73-0.65c0.31-0.15,0.76-0.28,1.35-0.4c0.8-0.15,1.35-0.29,1.65-0.42v-0.17c0-0.33-0.08-0.56-0.24-0.7
			c-0.16-0.14-0.47-0.21-0.92-0.21c-0.3,0-0.54,0.06-0.71,0.18C69.18,149.07,69.04,149.28,68.93,149.58z M71.21,150.96
			c-0.22,0.07-0.56,0.16-1.04,0.26c-0.47,0.1-0.78,0.2-0.93,0.3c-0.22,0.16-0.33,0.36-0.33,0.6c0,0.24,0.09,0.44,0.27,0.62
			c0.18,0.17,0.4,0.26,0.68,0.26c0.31,0,0.6-0.1,0.88-0.3c0.21-0.15,0.34-0.34,0.41-0.56c0.04-0.15,0.07-0.42,0.07-0.83V150.96z"/>
		<path class="st0" d="M78.01,146.75v-1.58h1.7v1.58H78.01z M78.01,154.05v-6.44h1.7v6.44H78.01z"/>
		<path class="st0" d="M80.86,152.22l1.71-0.26c0.07,0.33,0.22,0.58,0.44,0.75c0.22,0.17,0.53,0.26,0.93,0.26
			c0.44,0,0.77-0.08,0.99-0.24c0.15-0.11,0.22-0.26,0.22-0.45c0-0.13-0.04-0.24-0.12-0.32c-0.08-0.08-0.28-0.16-0.57-0.22
			c-1.37-0.3-2.24-0.58-2.61-0.83c-0.51-0.35-0.76-0.83-0.76-1.45c0-0.56,0.22-1.03,0.66-1.41c0.44-0.38,1.12-0.57,2.05-0.57
			c0.88,0,1.54,0.14,1.96,0.43c0.43,0.29,0.72,0.71,0.88,1.27l-1.61,0.3c-0.07-0.25-0.2-0.44-0.39-0.58
			c-0.19-0.13-0.47-0.2-0.82-0.2c-0.45,0-0.77,0.06-0.96,0.19c-0.13,0.09-0.19,0.2-0.19,0.35c0,0.12,0.06,0.22,0.17,0.31
			c0.15,0.11,0.68,0.27,1.59,0.48c0.91,0.21,1.54,0.46,1.9,0.76c0.36,0.3,0.53,0.73,0.53,1.27c0,0.59-0.25,1.1-0.74,1.52
			c-0.49,0.42-1.22,0.64-2.19,0.64c-0.88,0-1.57-0.18-2.08-0.53C81.35,153.31,81.02,152.83,80.86,152.22z"/>
		<path class="st0" d="M95.96,150.79v-1.5h3.87v3.54c-0.38,0.36-0.92,0.68-1.63,0.96c-0.71,0.28-1.44,0.42-2.17,0.42
			c-0.93,0-1.74-0.19-2.43-0.58c-0.69-0.39-1.21-0.95-1.56-1.67c-0.35-0.73-0.52-1.51-0.52-2.37c0-0.92,0.19-1.75,0.58-2.47
			c0.39-0.72,0.96-1.27,1.7-1.65c0.57-0.29,1.28-0.44,2.13-0.44c1.1,0,1.96,0.23,2.58,0.69c0.62,0.46,1.02,1.1,1.2,1.92l-1.78,0.33
			c-0.13-0.44-0.36-0.78-0.71-1.03c-0.35-0.25-0.78-0.38-1.29-0.38c-0.78,0-1.41,0.25-1.87,0.75c-0.46,0.5-0.69,1.23-0.69,2.21
			c0,1.05,0.23,1.85,0.7,2.37c0.47,0.53,1.08,0.79,1.84,0.79c0.38,0,0.75-0.07,1.13-0.22c0.38-0.15,0.7-0.33,0.97-0.54v-1.13H95.96z
			"/>
		<path class="st0" d="M103.1,154.05h-1.7v-6.44h1.58v0.92c0.27-0.43,0.51-0.72,0.73-0.85c0.22-0.14,0.46-0.21,0.74-0.21
			c0.39,0,0.76,0.11,1.12,0.32l-0.53,1.48c-0.29-0.19-0.55-0.28-0.8-0.28c-0.24,0-0.44,0.07-0.61,0.2c-0.17,0.13-0.3,0.37-0.39,0.71
			c-0.1,0.34-0.14,1.06-0.14,2.16V154.05z"/>
		<path class="st0" d="M107.57,149.58l-1.55-0.28c0.17-0.62,0.47-1.08,0.9-1.38c0.42-0.3,1.05-0.45,1.89-0.45
			c0.76,0,1.32,0.09,1.7,0.27c0.37,0.18,0.63,0.41,0.78,0.68c0.15,0.28,0.23,0.78,0.23,1.52l-0.02,1.99c0,0.57,0.03,0.98,0.08,1.25
			c0.05,0.27,0.16,0.56,0.31,0.86h-1.68c-0.04-0.11-0.1-0.28-0.16-0.5c-0.03-0.1-0.05-0.17-0.06-0.2c-0.29,0.28-0.6,0.5-0.93,0.64
			c-0.33,0.14-0.68,0.21-1.06,0.21c-0.66,0-1.18-0.18-1.57-0.54c-0.38-0.36-0.57-0.81-0.57-1.36c0-0.36,0.09-0.69,0.26-0.97
			c0.17-0.28,0.42-0.5,0.73-0.65c0.31-0.15,0.76-0.28,1.35-0.4c0.8-0.15,1.35-0.29,1.65-0.42v-0.17c0-0.33-0.08-0.56-0.24-0.7
			c-0.16-0.14-0.47-0.21-0.92-0.21c-0.3,0-0.54,0.06-0.71,0.18C107.81,149.07,107.68,149.28,107.57,149.58z M109.85,150.96
			c-0.22,0.07-0.56,0.16-1.04,0.26c-0.47,0.1-0.78,0.2-0.93,0.3c-0.22,0.16-0.33,0.36-0.33,0.6c0,0.24,0.09,0.44,0.27,0.62
			c0.18,0.17,0.4,0.26,0.68,0.26c0.31,0,0.6-0.1,0.88-0.3c0.21-0.15,0.34-0.34,0.41-0.56c0.04-0.15,0.07-0.42,0.07-0.83V150.96z"/>
		<path class="st0" d="M114.97,154.05l-2.59-6.44h1.79l1.21,3.28l0.35,1.1c0.09-0.28,0.15-0.46,0.18-0.55
			c0.06-0.18,0.12-0.36,0.18-0.55l1.22-3.28h1.75l-2.56,6.44H114.97z"/>
		<path class="st0" d="M120.1,146.75v-1.58h1.7v1.58H120.1z M120.1,154.05v-6.44h1.7v6.44H120.1z"/>
		<path class="st0" d="M129.41,154.05h-1.7v-3.28c0-0.69-0.04-1.14-0.11-1.35c-0.07-0.2-0.19-0.36-0.35-0.48
			c-0.16-0.11-0.36-0.17-0.59-0.17c-0.3,0-0.56,0.08-0.79,0.24c-0.23,0.16-0.4,0.38-0.48,0.64c-0.09,0.27-0.13,0.76-0.13,1.48v2.92
			h-1.7v-6.44h1.58v0.95c0.56-0.73,1.27-1.09,2.12-1.09c0.38,0,0.72,0.07,1.03,0.2c0.31,0.14,0.55,0.31,0.71,0.52
			c0.16,0.21,0.27,0.45,0.33,0.72c0.06,0.27,0.09,0.65,0.09,1.15V154.05z"/>
		<path class="st0" d="M130.98,154.48l1.95,0.24c0.03,0.23,0.11,0.38,0.22,0.47c0.16,0.12,0.42,0.18,0.76,0.18
			c0.44,0,0.78-0.07,1-0.2c0.15-0.09,0.26-0.23,0.34-0.43c0.05-0.14,0.08-0.4,0.08-0.78v-0.94c-0.51,0.7-1.15,1.04-1.93,1.04
			c-0.86,0-1.55-0.37-2.05-1.1c-0.4-0.58-0.59-1.3-0.59-2.16c0-1.08,0.26-1.9,0.78-2.47c0.52-0.57,1.16-0.85,1.94-0.85
			c0.8,0,1.45,0.35,1.97,1.05v-0.9h1.59v5.78c0,0.76-0.06,1.33-0.19,1.7c-0.13,0.38-0.3,0.67-0.53,0.88
			c-0.23,0.21-0.53,0.38-0.91,0.5c-0.38,0.12-0.86,0.18-1.43,0.18c-1.09,0-1.86-0.19-2.32-0.56c-0.46-0.37-0.68-0.85-0.68-1.42
			C130.97,154.63,130.97,154.56,130.98,154.48z M132.5,150.7c0,0.68,0.13,1.18,0.4,1.5c0.26,0.32,0.59,0.48,0.98,0.48
			c0.42,0,0.77-0.16,1.05-0.49c0.29-0.32,0.43-0.81,0.43-1.45c0-0.67-0.14-1.16-0.41-1.48c-0.27-0.32-0.62-0.48-1.04-0.48
			c-0.41,0-0.74,0.16-1.01,0.48C132.63,149.57,132.5,150.05,132.5,150.7z"/>
	</g>
	<path class="st0" d="M42.53,27.01L42.53,27.01c-7.47,0-13.86,5.35-15.17,12.7L14.1,113.96c-1.49,8.36,3.37,16.55,11.43,19.23h0
		h34.04h0c8.03-2.67,12.88-10.84,11.39-19.17L57.69,39.71C56.38,32.36,49.99,27.01,42.53,27.01z M54.95,94.21
		c-0.54,0.75-0.88,1.66-0.88,2.65c0,1,0.33,1.91,0.88,2.65v5.24c0,2.5-2.03,4.52-4.52,4.52H34.74c-2.5,0-4.52-2.03-4.52-4.52l0-5.27
		c0.53-0.74,0.85-1.64,0.85-2.62c0-0.98-0.32-1.88-0.85-2.62v-5.17c0-2.5,2.03-4.52,4.52-4.52l15.68,0c2.5,0,4.52,2.03,4.52,4.52
		V94.21z"/>
	<g>
	</g>
	<g>
	</g>
	<g>
	</g>
	<g>
	</g>
	<g>
	</g>
	<g>
	</g>
</g>
</svg>
