<?xml version="1.0" encoding="utf-8"?>
<!-- Generator: Adobe Illustrator 24.0.1, SVG Export Plug-In . SVG Version: 6.00 Build 0)  -->
<svg version="1.1" xmlns="http://www.w3.org/2000/svg" xmlns:xlink="http://www.w3.org/1999/xlink" x="0px" y="0px"
	 viewBox="0 0 718.84 298.94" style="enable-background:new 0 0 718.84 298.94;" xml:space="preserve">
<style type="text/css">
	.st0{fill:none;stroke:#000000;stroke-width:0.7087;stroke-miterlimit:10;}
	.st1{fill:#E7211A;}
</style>
<g id="cut">
	<path class="st0" d="M718.38,183.36L690.65,26.12c-0.72-4.06-4.25-7.03-8.37-7.03H457.6l-26.48-4.64c-0.77-0.13-1.5,0.38-1.64,1.15
		l-1.83,10.35l-6.46,2.35l-5.27-4.42l1.69-9.57c0.21-1.19-0.59-2.33-1.78-2.54l0,0c-1.19-0.21-2.32,0.58-2.54,1.77l-8.37,46.87
		c-0.41,2.31-2.62,3.85-4.93,3.44l-43.56-7.7c-0.77-0.14-1.51,0.38-1.64,1.15l-1.69,9.59l-6.46,2.35l-5.27-4.42l1.69-9.6
		c0.14-0.77-0.38-1.51-1.15-1.64l-17.37-3.07c-0.77-0.14-1.51,0.38-1.64,1.15l-1.69,9.56l-6.46,2.35l-5.27-4.42l1.69-9.57
		c0.14-0.77-0.38-1.51-1.15-1.64l-2.47-0.44c-0.72-0.13-1.36-0.53-1.79-1.11l-1.62-2.21c-0.43-0.59-1.07-0.99-1.79-1.11l-34.91-6.16
		c-0.94-0.17-1.73-0.79-2.11-1.67L263,29.84c-0.38-0.87-1.17-1.5-2.1-1.67l-50.99-9.08l-173.22,0c-4.13,0-7.66,2.96-8.37,7.02
		L0.51,183.35c-0.82,4.63,2.27,9.04,6.9,9.86l53.31,9.38c0.71,0.13,1.44,0.11,2.15-0.04l23.98-5.06c0.71-0.15,1.45-0.16,2.17-0.03
		l63.23,11.32c1.35,0.24,2.34,1.42,2.34,2.79v43.23c0,1.57,1.27,2.83,2.83,2.83h49.33c1.17,0,2.22,0.72,2.64,1.81l7.12,18.35
		c0.33,0.84,1.04,1.48,1.91,1.71l71.39,19.08h139.43l71.26-19.08c0.87-0.23,1.58-0.87,1.91-1.71l7.11-18.35
		c0.42-1.09,1.47-1.81,2.64-1.81h49.38c1.57,0,2.83-1.27,2.83-2.83v-43.26c0-1.37,0.98-2.55,2.34-2.79l63.3-11.3
		c0.72-0.13,1.46-0.12,2.17,0.04l23.86,5.06c0.71,0.15,1.44,0.16,2.16,0.04l53.26-9.38C716.1,192.4,719.19,187.98,718.38,183.36z
		 M693.62,128l-38.8,6.84l-7.33-41.59l38.8-6.84L693.62,128z M622.01,32.83l5.5,31.2c0.35,1.99,2.63,3,4.32,1.89
		c1.34-0.89,2.94-1.4,4.67-1.4c0.68,0,1.34,0.08,1.97,0.23c1.97,0.47,3.76-1.26,3.41-3.25l-3.78-21.43l38.8-6.84l7.33,41.59
		l-38.8,6.84l-0.02-0.13c-0.33-1.87-2.48-2.66-4.02-1.56c-1.38,0.98-3.07,1.55-4.9,1.55c-4.14,0-7.59-2.97-8.35-6.89l-37.61,6.63
		l-7.33-41.59L622.01,32.83z M567.1,32.44l7.33,41.59l-38.8,6.84l-7.33-41.59L567.1,32.44z M527.1,116.52
		c0.35,1.99,2.63,3.01,4.32,1.89c1.34-0.89,2.95-1.41,4.68-1.41c0.68,0,1.33,0.08,1.96,0.23c1.97,0.47,3.76-1.26,3.41-3.25
		l-3.79-21.52l38.8-6.84l7.33,41.59l-38.8,6.84l-0.01-0.03c-0.33-1.87-2.47-2.65-4.02-1.56c-1.38,0.98-3.07,1.55-4.89,1.55
		c-4.18,0-7.64-3.01-8.36-6.98l-37.63,6.63l-7.33-41.59l38.8-6.84L527.1,116.52z M486.83,199.14l-38.8,6.84l-7.33-41.59l38.8-6.84
		L486.83,199.14z M512.2,32.06l7.33,41.59l-38.8,6.84L473.4,38.9L512.2,32.06z M477.46,145.96l-38.8,6.84l-7.33-41.59l38.8-6.84
		L477.46,145.96z M432.52,28.82l1.23-6.98c0.2-1.16,1.31-1.93,2.46-1.72l19.85,3.49c1.16,0.2,1.93,1.31,1.72,2.46l-1.23,6.98
		c-0.2,1.16-1.31,1.93-2.46,1.72l-19.85-3.49C433.09,31.08,432.32,29.98,432.52,28.82z M409.29,70.34l3.84,21.79
		c0.35,1.99,2.63,3.01,4.32,1.89c1.34-0.89,2.95-1.41,4.68-1.41c0.68,0,1.33,0.08,1.97,0.23c1.97,0.47,3.76-1.26,3.41-3.25
		l-5.56-31.55l38.8-6.84l7.33,41.59l-37.62,6.63c0.25,1.23,0.24,2.55-0.12,3.91c-0.8,3.07-3.34,5.48-6.44,6.11
		c-1.49,0.3-2.92,0.21-4.22-0.18c-1.71-0.52-3.38,0.88-3.07,2.64l0.01,0.04l-38.8,6.84l-7.33-41.59L409.29,70.34z M426,165.11
		l-38.8,6.84l-7.33-41.59l38.8-6.84L426,165.11z M352.07,164.39h14.74c2.35,0,4.25,1.9,4.25,4.25v4.83c-0.51,0.7-0.82,1.56-0.82,2.5
		c0,0.94,0.31,1.79,0.82,2.5v4.92c0,2.35-1.9,4.25-4.25,4.25h-14.74c-2.35,0-4.25-1.9-4.25-4.25v-4.95c0.5-0.7,0.8-1.54,0.8-2.46
		s-0.3-1.77-0.8-2.46v-4.86C347.82,166.3,349.72,164.39,352.07,164.39z M366.82,220.22c0,4.07-3.3,7.37-7.37,7.37
		c-4.07,0-7.37-3.3-7.37-7.37s3.3-7.37,7.37-7.37C363.53,212.85,366.82,216.15,366.82,220.22z M258.14,51.19l38.8,6.84l-5.56,31.53
		c-0.35,1.99,1.43,3.71,3.4,3.25c0.61-0.14,1.25-0.22,1.91-0.22c1.74,0,3.36,0.52,4.7,1.42c1.7,1.13,3.99,0.14,4.35-1.87l3.85-21.82
		l38.8,6.84l-7.33,41.59l-38.8-6.84l0-0.02c0.32-1.79-1.38-3.19-3.12-2.66c-1.3,0.39-2.72,0.48-4.2,0.18
		c-3.12-0.62-5.67-3.04-6.47-6.11c-0.35-1.36-0.36-2.69-0.12-3.91l-37.56-6.62L258.14,51.19z M339.02,130.36l-7.33,41.59l-38.8-6.84
		l7.33-41.59L339.02,130.36z M287.56,111.21l-7.33,41.59l-38.8-6.84l7.33-41.59L287.56,111.21z M278.19,164.39l-7.33,41.59
		l-38.8-6.84l7.33-41.59L278.19,164.39z M206.67,32.04l38.8,6.84l-7.33,41.59l-38.8-6.84L206.67,32.04z M151.78,32.44l38.8,6.84
		l-7.33,41.59l-38.8-6.84L151.78,32.44z M181.25,92.46l-3.79,21.51c-0.35,1.99,1.44,3.71,3.4,3.25c0.61-0.14,1.26-0.22,1.91-0.22
		c1.73,0,3.34,0.52,4.68,1.41c1.69,1.12,3.97,0.11,4.32-1.89l5.52-31.3l38.8,6.84l-7.33,41.59l-37.62-6.63
		c-0.72,3.97-4.18,6.99-8.36,6.99c-1.82,0-3.51-0.57-4.89-1.55c-1.52-1.08-3.64-0.28-3.96,1.55l-0.01,0.04l-38.8-6.84l7.33-41.59
		L181.25,92.46z M41.97,33.22l38.8,6.84L77,61.5c-0.35,1.99,1.44,3.72,3.41,3.25c0.63-0.15,1.3-0.23,1.98-0.23
		c1.73,0,3.33,0.52,4.67,1.4c1.69,1.12,3.97,0.1,4.32-1.89l5.5-31.2l38.8,6.84l-7.33,41.59l-37.61-6.63
		c-0.75,3.92-4.2,6.89-8.35,6.89c-1.83,0-3.51-0.58-4.9-1.56c-1.55-1.1-3.7-0.31-4.03,1.56l-0.02,0.13l-38.8-6.84L41.97,33.22z
		 M32.6,86.4l38.8,6.84l-7.33,41.59L25.26,128L32.6,86.4z M109.59,187.63l-38.21-6.74c-0.54,4.18-4.1,7.42-8.43,7.42
		c-1.88,0-3.61-0.61-5.02-1.64c-1.23-0.9-2.96-0.27-3.22,1.23l-0.02,0.12l-38.8-6.84l7.33-41.59l38.8,6.84l-3.84,21.78
		c-0.34,1.95,1.38,3.55,3.34,3.22c0.47-0.08,0.94-0.12,1.43-0.12c1.89,0,3.63,0.61,5.04,1.65c1.7,1.26,4.13,0.32,4.49-1.77
		l5.64-31.99l38.8,6.84L109.59,187.63z M80.16,127.6l7.33-41.59l38.8,6.84l-7.33,41.59L80.16,127.6z M125.69,180.39l0.25-1.4
		l6.84-38.8h0l0.25-1.4l38.8,6.84l-0.25,1.4l-7.09,40.2L125.69,180.39z M208.66,244.27h-39.4l0-42.24h39.4V244.27z M180.58,179.99
		l7.33-41.59l38.8,6.84l-7.33,41.59L180.58,179.99z M229.37,219.11c-4.07,0-7.37-3.3-7.37-7.37s3.3-7.37,7.37-7.37
		s7.37,3.3,7.37,7.37S233.44,219.11,229.37,219.11z M272.76,280.27l-38.06-10.2l10.93-40.8l38.06,10.2L272.76,280.27z
		 M283.51,218.29l7.33-41.59l38.8,6.84l-7.33,41.59L283.51,218.29z M405.64,265.56h-0.02l0,20.42l-8.66,0
		c-0.72,1.33-2.11,2.25-3.73,2.25s-3.01-0.92-3.73-2.25l-6.07,0v-1.37l-48.01,0v1.37l-6.14,0c-0.72,1.33-2.11,2.25-3.73,2.25
		s-3.01-0.92-3.73-2.25l-8.56,0l0.01-51.73l92.35-0.01l0,23.43h0.02V265.56z M396.57,225.13l-7.33-41.59l38.8-6.84l7.33,41.59
		L396.57,225.13z M446.11,280.27l-10.93-40.8l38.06-10.2l10.93,40.8L446.11,280.27z M489.53,219.12c-4.07,0-7.37-3.3-7.37-7.37
		s3.3-7.37,7.37-7.37s7.37,3.3,7.37,7.37S493.6,219.12,489.53,219.12z M499.49,186.84l-7.33-41.59l38.8-6.84l7.33,41.59
		L499.49,186.84z M549.62,244.27h-39.4l0-42.24h39.4V244.27z M554.39,187.23l-7.33-41.59l38.8-6.84l7.33,41.59L554.39,187.23z
		 M592.58,92.85l38.8-6.84l7.33,41.59l-38.8,6.84L592.58,92.85z M664.19,188.02l-0.02-0.12c-0.26-1.5-2-2.13-3.22-1.23
		c-1.41,1.03-3.14,1.64-5.01,1.64c-4.33,0-7.89-3.23-8.43-7.42l-38.22,6.74l-7.33-41.59l38.8-6.84l5.64,32
		c0.37,2.09,2.79,3.02,4.5,1.76c1.41-1.04,3.15-1.65,5.04-1.65c0.49,0,0.97,0.04,1.43,0.12c1.95,0.33,3.68-1.26,3.33-3.21
		l-3.84-21.78l38.8-6.84l4.59,26.03l2.75,15.57L664.19,188.02z"/>
</g>
<g id="graving">
	<g>
		<path class="st1" d="M0.6,11.65V0.2h4.87c1.22,0,2.11,0.1,2.67,0.31c0.55,0.21,1,0.57,1.33,1.1c0.33,0.53,0.5,1.13,0.5,1.8
			c0,0.86-0.25,1.57-0.76,2.13C8.7,6.1,7.95,6.45,6.94,6.59c0.5,0.29,0.91,0.61,1.24,0.96C8.51,7.9,8.95,8.52,9.5,9.41l1.4,2.23
			H8.13L6.46,9.16c-0.59-0.89-1-1.45-1.22-1.68C5.02,7.24,4.79,7.08,4.54,7C4.3,6.91,3.91,6.87,3.38,6.87H2.91v4.78H0.6z M2.91,5.04
			h1.71c1.11,0,1.8-0.05,2.08-0.14C6.98,4.8,7.19,4.64,7.35,4.41C7.51,4.19,7.58,3.9,7.58,3.55c0-0.39-0.1-0.7-0.31-0.93
			C7.07,2.38,6.78,2.23,6.4,2.17C6.22,2.15,5.65,2.13,4.72,2.13h-1.8V5.04z"/>
		<path class="st1" d="M16.93,9.01l2.19,0.37c-0.28,0.8-0.73,1.41-1.33,1.83c-0.61,0.42-1.37,0.63-2.28,0.63
			c-1.44,0-2.51-0.47-3.2-1.41c-0.55-0.75-0.82-1.71-0.82-2.86c0-1.38,0.36-2.45,1.08-3.23c0.72-0.78,1.63-1.17,2.73-1.17
			c1.23,0,2.21,0.41,2.92,1.22c0.71,0.82,1.05,2.06,1.02,3.75h-5.5c0.02,0.65,0.19,1.16,0.53,1.52c0.34,0.36,0.76,0.54,1.27,0.54
			c0.34,0,0.63-0.09,0.87-0.28S16.81,9.42,16.93,9.01z M17.06,6.79c-0.02-0.64-0.18-1.12-0.49-1.45c-0.31-0.33-0.69-0.5-1.14-0.5
			c-0.48,0-0.88,0.17-1.19,0.52c-0.31,0.35-0.47,0.82-0.46,1.42H17.06z"/>
		<path class="st1" d="M28.64,11.65H26.6v-1.22c-0.34,0.47-0.74,0.83-1.2,1.06s-0.93,0.35-1.39,0.35c-0.95,0-1.77-0.38-2.45-1.15
			c-0.68-0.77-1.02-1.84-1.02-3.21c0-1.41,0.33-2.48,0.99-3.21c0.66-0.73,1.5-1.1,2.51-1.1c0.93,0,1.73,0.39,2.41,1.16V0.2h2.2
			V11.65z M22.78,7.32c0,0.89,0.12,1.53,0.37,1.92c0.35,0.57,0.85,0.86,1.48,0.86c0.5,0,0.93-0.21,1.29-0.64
			c0.35-0.43,0.53-1.07,0.53-1.93c0-0.95-0.17-1.64-0.52-2.06c-0.34-0.42-0.78-0.63-1.32-0.63c-0.52,0-0.96,0.21-1.31,0.62
			S22.78,6.5,22.78,7.32z"/>
		<path class="st1" d="M36.89,5.88L34.9,5.52c0.22-0.8,0.61-1.4,1.16-1.78c0.55-0.39,1.36-0.58,2.44-0.58
			c0.98,0,1.71,0.12,2.19,0.35c0.48,0.23,0.82,0.53,1.01,0.88c0.2,0.36,0.29,1.01,0.29,1.96l-0.02,2.56c0,0.73,0.04,1.27,0.11,1.61
			c0.07,0.35,0.2,0.72,0.39,1.11h-2.17c-0.06-0.15-0.13-0.36-0.21-0.65c-0.04-0.13-0.06-0.22-0.08-0.26
			c-0.38,0.36-0.78,0.64-1.2,0.82c-0.43,0.18-0.88,0.27-1.37,0.27c-0.85,0-1.53-0.23-2.02-0.7c-0.49-0.46-0.74-1.05-0.74-1.76
			c0-0.47,0.11-0.89,0.34-1.25c0.22-0.37,0.54-0.65,0.94-0.84c0.4-0.2,0.99-0.37,1.75-0.51c1.03-0.19,1.74-0.37,2.13-0.54V6.02
			c0-0.42-0.1-0.72-0.31-0.9c-0.21-0.18-0.6-0.27-1.18-0.27c-0.39,0-0.7,0.08-0.91,0.23C37.2,5.23,37.02,5.5,36.89,5.88z
			 M39.83,7.66C39.54,7.76,39.1,7.87,38.49,8c-0.61,0.13-1.01,0.26-1.2,0.38c-0.29,0.2-0.43,0.46-0.43,0.77
			c0,0.31,0.11,0.57,0.34,0.8c0.23,0.22,0.52,0.34,0.88,0.34c0.4,0,0.77-0.13,1.13-0.39c0.27-0.2,0.44-0.44,0.52-0.73
			c0.06-0.19,0.09-0.54,0.09-1.07V7.66z"/>
		<path class="st1" d="M46.25,11.65h-2.2v-8.3h2.04v1.18c0.35-0.56,0.66-0.92,0.94-1.1c0.28-0.18,0.59-0.27,0.95-0.27
			c0.5,0,0.98,0.14,1.45,0.41l-0.68,1.91c-0.37-0.24-0.71-0.36-1.03-0.36c-0.31,0-0.57,0.08-0.78,0.25
			c-0.21,0.17-0.38,0.48-0.5,0.92c-0.12,0.44-0.18,1.37-0.18,2.78V11.65z"/>
		<path class="st1" d="M55.18,9.01l2.19,0.37c-0.28,0.8-0.73,1.41-1.33,1.83c-0.61,0.42-1.37,0.63-2.28,0.63
			c-1.44,0-2.51-0.47-3.2-1.41c-0.55-0.75-0.82-1.71-0.82-2.86c0-1.38,0.36-2.45,1.08-3.23c0.72-0.78,1.63-1.17,2.73-1.17
			c1.23,0,2.21,0.41,2.92,1.22c0.71,0.82,1.05,2.06,1.02,3.75h-5.5c0.02,0.65,0.19,1.16,0.53,1.52c0.34,0.36,0.76,0.54,1.27,0.54
			c0.34,0,0.63-0.09,0.87-0.28S55.06,9.42,55.18,9.01z M55.3,6.79c-0.02-0.64-0.18-1.12-0.49-1.45c-0.31-0.33-0.69-0.5-1.14-0.5
			c-0.48,0-0.88,0.17-1.19,0.52c-0.31,0.35-0.47,0.82-0.46,1.42H55.3z"/>
		<path class="st1" d="M60.91,5.88l-1.99-0.36c0.22-0.8,0.61-1.4,1.16-1.78c0.55-0.39,1.36-0.58,2.44-0.58
			c0.98,0,1.71,0.12,2.19,0.35c0.48,0.23,0.82,0.53,1.01,0.88c0.2,0.36,0.29,1.01,0.29,1.96l-0.02,2.56c0,0.73,0.04,1.27,0.11,1.61
			c0.07,0.35,0.2,0.72,0.39,1.11h-2.17c-0.06-0.15-0.13-0.36-0.21-0.65c-0.04-0.13-0.06-0.22-0.08-0.26
			c-0.38,0.36-0.78,0.64-1.2,0.82c-0.43,0.18-0.88,0.27-1.37,0.27c-0.85,0-1.53-0.23-2.02-0.7c-0.49-0.46-0.74-1.05-0.74-1.76
			c0-0.47,0.11-0.89,0.34-1.25c0.22-0.37,0.54-0.65,0.94-0.84c0.4-0.2,0.99-0.37,1.75-0.51c1.03-0.19,1.74-0.37,2.13-0.54V6.02
			c0-0.42-0.1-0.72-0.31-0.9c-0.21-0.18-0.6-0.27-1.18-0.27c-0.39,0-0.7,0.08-0.91,0.23C61.22,5.23,61.05,5.5,60.91,5.88z
			 M63.85,7.66C63.57,7.76,63.12,7.87,62.51,8c-0.61,0.13-1.01,0.26-1.2,0.38c-0.29,0.2-0.43,0.46-0.43,0.77
			c0,0.31,0.11,0.57,0.34,0.8c0.23,0.22,0.52,0.34,0.88,0.34c0.4,0,0.77-0.13,1.13-0.39c0.27-0.2,0.44-0.44,0.52-0.73
			c0.06-0.19,0.09-0.54,0.09-1.07V7.66z"/>
		<path class="st1" d="M72.61,2.23V0.2h2.2v2.03H72.61z M72.61,11.65v-8.3h2.2v8.3H72.61z"/>
		<path class="st1" d="M76.29,9.28l2.2-0.34c0.09,0.43,0.28,0.75,0.57,0.97c0.29,0.22,0.69,0.33,1.2,0.33c0.57,0,0.99-0.1,1.28-0.31
			c0.19-0.15,0.29-0.34,0.29-0.59c0-0.17-0.05-0.3-0.16-0.41c-0.11-0.1-0.35-0.2-0.73-0.29c-1.77-0.39-2.89-0.75-3.37-1.07
			c-0.66-0.45-0.98-1.07-0.98-1.87c0-0.72,0.28-1.32,0.85-1.81c0.57-0.49,1.45-0.73,2.64-0.73c1.14,0,1.98,0.19,2.53,0.55
			c0.55,0.37,0.93,0.92,1.14,1.64l-2.07,0.38C81.6,5.42,81.43,5.17,81.18,5c-0.25-0.17-0.6-0.26-1.06-0.26
			c-0.58,0-0.99,0.08-1.24,0.24c-0.17,0.11-0.25,0.26-0.25,0.45c0,0.16,0.07,0.29,0.22,0.4c0.2,0.15,0.88,0.35,2.05,0.62
			c1.17,0.27,1.99,0.59,2.45,0.98c0.46,0.39,0.69,0.94,0.69,1.63c0,0.76-0.32,1.41-0.95,1.96c-0.64,0.55-1.58,0.82-2.82,0.82
			c-1.13,0-2.02-0.23-2.68-0.69C76.92,10.69,76.49,10.07,76.29,9.28z"/>
		<path class="st1" d="M95.75,7.44V5.51h4.98v4.56c-0.48,0.47-1.19,0.88-2.11,1.24c-0.92,0.36-1.85,0.54-2.79,0.54
			c-1.2,0-2.24-0.25-3.13-0.75c-0.89-0.5-1.56-1.22-2.01-2.16C90.24,8,90.02,6.98,90.02,5.88c0-1.19,0.25-2.25,0.75-3.18
			c0.5-0.93,1.23-1.64,2.2-2.13C93.7,0.19,94.61,0,95.71,0c1.42,0,2.53,0.3,3.33,0.89c0.8,0.6,1.31,1.42,1.54,2.47l-2.3,0.43
			c-0.16-0.56-0.46-1.01-0.91-1.33c-0.45-0.33-1-0.49-1.67-0.49c-1.01,0-1.81,0.32-2.41,0.96c-0.6,0.64-0.89,1.59-0.89,2.85
			c0,1.36,0.3,2.38,0.91,3.06c0.6,0.68,1.4,1.02,2.38,1.02c0.48,0,0.97-0.09,1.46-0.29c0.49-0.19,0.9-0.42,1.25-0.69V7.44H95.75z"/>
		<path class="st1" d="M104.95,11.65h-2.2v-8.3h2.04v1.18c0.35-0.56,0.66-0.92,0.94-1.1c0.28-0.18,0.59-0.27,0.95-0.27
			c0.5,0,0.98,0.14,1.45,0.41l-0.68,1.91c-0.37-0.24-0.71-0.36-1.03-0.36c-0.31,0-0.57,0.08-0.78,0.25
			c-0.21,0.17-0.38,0.48-0.5,0.92c-0.12,0.44-0.18,1.37-0.18,2.78V11.65z"/>
		<path class="st1" d="M110.72,5.88l-1.99-0.36c0.22-0.8,0.61-1.4,1.16-1.78c0.55-0.39,1.36-0.58,2.44-0.58
			c0.98,0,1.71,0.12,2.19,0.35c0.48,0.23,0.82,0.53,1.01,0.88c0.2,0.36,0.29,1.01,0.29,1.96l-0.02,2.56c0,0.73,0.04,1.27,0.11,1.61
			c0.07,0.35,0.2,0.72,0.39,1.11h-2.17c-0.06-0.15-0.13-0.36-0.21-0.65c-0.04-0.13-0.06-0.22-0.08-0.26
			c-0.38,0.36-0.78,0.64-1.2,0.82c-0.43,0.18-0.88,0.27-1.37,0.27c-0.85,0-1.53-0.23-2.02-0.7c-0.49-0.46-0.74-1.05-0.74-1.76
			c0-0.47,0.11-0.89,0.34-1.25c0.22-0.37,0.54-0.65,0.94-0.84c0.4-0.2,0.99-0.37,1.75-0.51c1.03-0.19,1.74-0.37,2.13-0.54V6.02
			c0-0.42-0.1-0.72-0.31-0.9c-0.21-0.18-0.6-0.27-1.18-0.27c-0.39,0-0.7,0.08-0.91,0.23C111.03,5.23,110.85,5.5,110.72,5.88z
			 M113.65,7.66c-0.28,0.09-0.73,0.21-1.34,0.34c-0.61,0.13-1.01,0.26-1.2,0.38c-0.29,0.2-0.43,0.46-0.43,0.77
			c0,0.31,0.11,0.57,0.34,0.8c0.23,0.22,0.52,0.34,0.88,0.34c0.4,0,0.77-0.13,1.13-0.39c0.27-0.2,0.44-0.44,0.52-0.73
			c0.06-0.19,0.09-0.54,0.09-1.07V7.66z"/>
		<path class="st1" d="M120.26,11.65l-3.34-8.3h2.3l1.56,4.23L121.23,9c0.12-0.36,0.2-0.6,0.23-0.71c0.07-0.23,0.15-0.47,0.23-0.7
			l1.58-4.23h2.26l-3.3,8.3H120.26z"/>
		<path class="st1" d="M126.87,2.23V0.2h2.2v2.03H126.87z M126.87,11.65v-8.3h2.2v8.3H126.87z"/>
		<path class="st1" d="M138.86,11.65h-2.2V7.41c0-0.9-0.05-1.48-0.14-1.74c-0.09-0.26-0.25-0.47-0.46-0.61
			c-0.21-0.15-0.46-0.22-0.76-0.22c-0.38,0-0.72,0.1-1.02,0.31c-0.3,0.21-0.51,0.48-0.62,0.83c-0.11,0.34-0.17,0.98-0.17,1.91v3.76
			h-2.2v-8.3h2.04v1.22c0.72-0.94,1.64-1.41,2.73-1.41c0.48,0,0.93,0.09,1.33,0.26c0.4,0.17,0.7,0.4,0.91,0.67
			c0.21,0.27,0.35,0.58,0.43,0.92c0.08,0.34,0.12,0.84,0.12,1.48V11.65z"/>
		<path class="st1" d="M140.89,12.2l2.51,0.3c0.04,0.29,0.14,0.49,0.29,0.6c0.21,0.16,0.54,0.23,0.98,0.23c0.57,0,1-0.09,1.29-0.26
			c0.19-0.11,0.34-0.3,0.44-0.55c0.07-0.18,0.1-0.52,0.1-1.01V10.3c-0.66,0.9-1.48,1.34-2.48,1.34c-1.11,0-2-0.47-2.65-1.41
			c-0.51-0.74-0.77-1.67-0.77-2.78c0-1.39,0.33-2.45,1-3.19c0.67-0.73,1.5-1.1,2.5-1.1c1.03,0,1.87,0.45,2.54,1.35V3.35h2.05v7.45
			c0,0.98-0.08,1.71-0.24,2.2c-0.16,0.48-0.39,0.86-0.68,1.14c-0.29,0.28-0.68,0.49-1.17,0.65c-0.49,0.16-1.1,0.23-1.85,0.23
			c-1.41,0-2.4-0.24-2.99-0.72c-0.59-0.48-0.88-1.09-0.88-1.83C140.88,12.39,140.88,12.3,140.89,12.2z M142.85,7.33
			c0,0.88,0.17,1.52,0.51,1.93c0.34,0.41,0.76,0.61,1.26,0.61c0.54,0,0.99-0.21,1.36-0.63c0.37-0.42,0.55-1.04,0.55-1.86
			c0-0.86-0.18-1.5-0.53-1.91c-0.35-0.42-0.8-0.63-1.34-0.63c-0.53,0-0.96,0.2-1.3,0.61C143.02,5.87,142.85,6.49,142.85,7.33z"/>
	</g>
	<path class="st1" d="M330.72,210.62l10.3,5.98c0.65,0.38,1.39,0.58,2.14,0.58h8.09c1.28-3.28,4.45-5.6,8.18-5.6
		c3.73,0,6.9,2.32,8.18,5.6l8.09,0c0.75,0,1.49-0.2,2.14-0.58l10.28-5.98c1.55-0.9,2.37-2.67,2.05-4.44L369.64,91.17
		c-0.36-2.03-2.13-3.52-4.2-3.52l-12.05,0c-2.07,0-3.84,1.48-4.2,3.52l-20.53,115.01C328.35,207.95,329.17,209.72,330.72,210.62z
		 M351.64,163.7h15.68c2.5,0,4.52,2.02,4.52,4.52v5.14c-0.54,0.75-0.88,1.66-0.88,2.65c0,1,0.33,1.91,0.88,2.65l0,5.24
		c0,2.5-2.03,4.52-4.52,4.52h-15.68c-2.5,0-4.52-2.03-4.52-4.52v-5.27c0.53-0.74,0.85-1.64,0.85-2.62c0-0.98-0.32-1.88-0.85-2.62
		v-5.17C347.11,165.72,349.14,163.7,351.64,163.7z"/>
</g>
</svg>
