G04 #@! TF.GenerationSoftware,KiCad,Pcbnew,(5.1.6-0-10_14)*
G04 #@! TF.CreationDate,2020-07-08T09:47:10+09:00*
G04 #@! TF.ProjectId,reviung61,72657669-756e-4673-9631-2e6b69636164,1.0*
G04 #@! TF.SameCoordinates,Original*
G04 #@! TF.FileFunction,Soldermask,Top*
G04 #@! TF.FilePolarity,Negative*
%FSLAX46Y46*%
G04 Gerber Fmt 4.6, Leading zero omitted, Abs format (unit mm)*
G04 Created by KiCad (PCBNEW (5.1.6-0-10_14)) date 2020-07-08 09:47:10*
%MOMM*%
%LPD*%
G01*
G04 APERTURE LIST*
%ADD10C,4.087800*%
%ADD11C,1.850000*%
%ADD12C,3.148000*%
%ADD13O,5.600000X2.800000*%
%ADD14C,0.800000*%
%ADD15C,4.500000*%
%ADD16R,1.497000X1.497000*%
%ADD17C,1.497000*%
%ADD18O,1.200000X1.600000*%
%ADD19O,1.450000X1.800000*%
%ADD20C,2.100000*%
G04 APERTURE END LIST*
D10*
X150870000Y-105650000D03*
D11*
X145790000Y-105650000D03*
X155950000Y-105650000D03*
D12*
X100870100Y-112635000D03*
X200869900Y-112635000D03*
D10*
X100870100Y-97395000D03*
X200869900Y-97395000D03*
X55630000Y-105650000D03*
D11*
X50550000Y-105650000D03*
X60710000Y-105650000D03*
D13*
X148470000Y-67450000D03*
X280350000Y-48340000D03*
X210790000Y-105660000D03*
D14*
X46646726Y-47173274D03*
X45480000Y-46690000D03*
X44313274Y-47173274D03*
X43830000Y-48340000D03*
X44313274Y-49506726D03*
X45480000Y-49990000D03*
X46646726Y-49506726D03*
X47130000Y-48340000D03*
D15*
X45480000Y-48340000D03*
D10*
X29450000Y-29420000D03*
D11*
X24370000Y-29420000D03*
X34530000Y-29420000D03*
X53580000Y-29450000D03*
X43420000Y-29450000D03*
D10*
X48500000Y-29450000D03*
X67550000Y-29450000D03*
D11*
X62470000Y-29450000D03*
X72630000Y-29450000D03*
X91680000Y-29450000D03*
X81520000Y-29450000D03*
D10*
X86600000Y-29450000D03*
D11*
X110730000Y-29450000D03*
X100570000Y-29450000D03*
D10*
X105650000Y-29450000D03*
X124700000Y-29450000D03*
D11*
X119620000Y-29450000D03*
X129780000Y-29450000D03*
X148830000Y-29450000D03*
X138670000Y-29450000D03*
D10*
X143750000Y-29450000D03*
D11*
X167880000Y-29450000D03*
X157720000Y-29450000D03*
D10*
X162800000Y-29450000D03*
D11*
X186930000Y-29450000D03*
X176770000Y-29450000D03*
D10*
X181850000Y-29450000D03*
D11*
X205980000Y-29450000D03*
X195820000Y-29450000D03*
D10*
X200900000Y-29450000D03*
D11*
X225030000Y-29450000D03*
X214870000Y-29450000D03*
D10*
X219950000Y-29450000D03*
X239000000Y-29450000D03*
D11*
X233920000Y-29450000D03*
X244080000Y-29450000D03*
X263130000Y-29450000D03*
X252970000Y-29450000D03*
D10*
X258050000Y-29450000D03*
X286625000Y-29450000D03*
D11*
X281545000Y-29450000D03*
X291705000Y-29450000D03*
D12*
X274687000Y-22465000D03*
X298563000Y-22465000D03*
D10*
X274687000Y-37705000D03*
X298563000Y-37705000D03*
D11*
X39292500Y-48500000D03*
X29132500Y-48500000D03*
D10*
X34212500Y-48500000D03*
D11*
X63105000Y-48500000D03*
X52945000Y-48500000D03*
D10*
X58025000Y-48500000D03*
D11*
X82155000Y-48500000D03*
X71995000Y-48500000D03*
D10*
X77075000Y-48500000D03*
D11*
X101205000Y-48500000D03*
X91045000Y-48500000D03*
D10*
X96125000Y-48500000D03*
D11*
X120255000Y-48500000D03*
X110095000Y-48500000D03*
D10*
X115175000Y-48500000D03*
D11*
X139305000Y-48500000D03*
X129145000Y-48500000D03*
D10*
X134225000Y-48500000D03*
D11*
X158355000Y-48500000D03*
X148195000Y-48500000D03*
D10*
X153275000Y-48500000D03*
D11*
X177405000Y-48500000D03*
X167245000Y-48500000D03*
D10*
X172325000Y-48500000D03*
D11*
X196455000Y-48500000D03*
X186295000Y-48500000D03*
D10*
X191375000Y-48500000D03*
D11*
X215505000Y-48500000D03*
X205345000Y-48500000D03*
D10*
X210425000Y-48500000D03*
D11*
X234555000Y-48500000D03*
X224395000Y-48500000D03*
D10*
X229475000Y-48500000D03*
D11*
X253605000Y-48500000D03*
X243445000Y-48500000D03*
D10*
X248525000Y-48500000D03*
D11*
X272655000Y-48500000D03*
X262495000Y-48500000D03*
D10*
X267575000Y-48500000D03*
D11*
X296467500Y-48500000D03*
X286307500Y-48500000D03*
D10*
X291387500Y-48500000D03*
D11*
X41673750Y-67550000D03*
X31513750Y-67550000D03*
D10*
X36593750Y-67550000D03*
D11*
X67867500Y-67550000D03*
X57707500Y-67550000D03*
D10*
X62787500Y-67550000D03*
D11*
X86917500Y-67550000D03*
X76757500Y-67550000D03*
D10*
X81837500Y-67550000D03*
D11*
X105967500Y-67550000D03*
X95807500Y-67550000D03*
D10*
X100887500Y-67550000D03*
X119937500Y-67550000D03*
D11*
X114857500Y-67550000D03*
X125017500Y-67550000D03*
X144067500Y-67550000D03*
X133907500Y-67550000D03*
D10*
X138987500Y-67550000D03*
X158037500Y-67550000D03*
D11*
X152957500Y-67550000D03*
X163117500Y-67550000D03*
D10*
X177087500Y-67550000D03*
D11*
X172007500Y-67550000D03*
X182167500Y-67550000D03*
D10*
X196137500Y-67550000D03*
D11*
X191057500Y-67550000D03*
X201217500Y-67550000D03*
D10*
X215187500Y-67550000D03*
D11*
X210107500Y-67550000D03*
X220267500Y-67550000D03*
D10*
X234237500Y-67550000D03*
D11*
X229157500Y-67550000D03*
X239317500Y-67550000D03*
D10*
X253287500Y-67550000D03*
D11*
X248207500Y-67550000D03*
X258367500Y-67550000D03*
D10*
X284243750Y-67550000D03*
D11*
X279163750Y-67550000D03*
X289323750Y-67550000D03*
D12*
X272305750Y-60565000D03*
X296181750Y-60565000D03*
D10*
X272305750Y-75805000D03*
X296181750Y-75805000D03*
X53294250Y-94855000D03*
X29418250Y-94855000D03*
D12*
X53294250Y-79615000D03*
X29418250Y-79615000D03*
D11*
X46436250Y-86600000D03*
X36276250Y-86600000D03*
D10*
X41356250Y-86600000D03*
X72312500Y-86600000D03*
D11*
X67232500Y-86600000D03*
X77392500Y-86600000D03*
D10*
X91362500Y-86600000D03*
D11*
X86282500Y-86600000D03*
X96442500Y-86600000D03*
D10*
X110412500Y-86600000D03*
D11*
X105332500Y-86600000D03*
X115492500Y-86600000D03*
D10*
X129462500Y-86600000D03*
D11*
X124382500Y-86600000D03*
X134542500Y-86600000D03*
D10*
X148512500Y-86600000D03*
D11*
X143432500Y-86600000D03*
X153592500Y-86600000D03*
D10*
X167562500Y-86600000D03*
D11*
X162482500Y-86600000D03*
X172642500Y-86600000D03*
D10*
X186612500Y-86600000D03*
D11*
X181532500Y-86600000D03*
X191692500Y-86600000D03*
D10*
X205662500Y-86600000D03*
D11*
X200582500Y-86600000D03*
X210742500Y-86600000D03*
D10*
X224712500Y-86600000D03*
D11*
X219632500Y-86600000D03*
X229792500Y-86600000D03*
D10*
X243762500Y-86600000D03*
D11*
X238682500Y-86600000D03*
X248842500Y-86600000D03*
D10*
X279481250Y-86600000D03*
D11*
X274401250Y-86600000D03*
X284561250Y-86600000D03*
D12*
X267543250Y-79615000D03*
X291419250Y-79615000D03*
D10*
X267543250Y-94855000D03*
X291419250Y-94855000D03*
X31831250Y-105650000D03*
D11*
X26751250Y-105650000D03*
X36911250Y-105650000D03*
D10*
X79410000Y-105650000D03*
D11*
X74330000Y-105650000D03*
X84490000Y-105650000D03*
D10*
X222290000Y-105650000D03*
D11*
X217210000Y-105650000D03*
X227370000Y-105650000D03*
D10*
X246090000Y-105650000D03*
D11*
X241010000Y-105650000D03*
X251170000Y-105650000D03*
D10*
X269910000Y-105650000D03*
D11*
X264830000Y-105650000D03*
X274990000Y-105650000D03*
D10*
X293770000Y-105650000D03*
D11*
X288690000Y-105650000D03*
X298850000Y-105650000D03*
D16*
X24750000Y-46530000D03*
D17*
X24750000Y-38910000D03*
D16*
X58100000Y-32060000D03*
D17*
X58100000Y-24440000D03*
D16*
X77150000Y-32060000D03*
D17*
X77150000Y-24440000D03*
D16*
X96200000Y-32060000D03*
D17*
X96200000Y-24440000D03*
D16*
X115250000Y-32060000D03*
D17*
X115250000Y-24440000D03*
D16*
X134300000Y-32060000D03*
D17*
X134300000Y-24440000D03*
D16*
X153350000Y-32060000D03*
D17*
X153350000Y-24440000D03*
D16*
X172400000Y-32060000D03*
D17*
X172400000Y-24440000D03*
D16*
X191450000Y-32060000D03*
D17*
X191450000Y-24440000D03*
D16*
X210500000Y-32060000D03*
D17*
X210500000Y-24440000D03*
D16*
X229550000Y-32060000D03*
D17*
X229550000Y-24440000D03*
D16*
X248600000Y-32060000D03*
D17*
X248600000Y-24440000D03*
D16*
X267650000Y-32060000D03*
D17*
X267650000Y-24440000D03*
D16*
X296225000Y-32060000D03*
D17*
X296225000Y-24440000D03*
D16*
X24750000Y-58060000D03*
D17*
X24750000Y-50440000D03*
D16*
X67625000Y-51110000D03*
D17*
X67625000Y-43490000D03*
D16*
X86675000Y-51110000D03*
D17*
X86675000Y-43490000D03*
D16*
X105725000Y-51110000D03*
D17*
X105725000Y-43490000D03*
D16*
X124775000Y-51110000D03*
D17*
X124775000Y-43490000D03*
D16*
X143825000Y-51110000D03*
D17*
X143825000Y-43490000D03*
D16*
X162875000Y-51110000D03*
D17*
X162875000Y-43490000D03*
D16*
X181925000Y-51110000D03*
D17*
X181925000Y-43490000D03*
D16*
X200975000Y-51110000D03*
D17*
X200975000Y-43490000D03*
D16*
X220025000Y-51110000D03*
D17*
X220025000Y-43490000D03*
D16*
X239075000Y-51110000D03*
D17*
X239075000Y-43490000D03*
D16*
X258125000Y-51110000D03*
D17*
X258125000Y-43490000D03*
D16*
X276750000Y-58785000D03*
D17*
X276750000Y-51165000D03*
D16*
X300987500Y-51110000D03*
D17*
X300987500Y-43490000D03*
D16*
X27040000Y-70160000D03*
D17*
X27040000Y-62540000D03*
D16*
X72387500Y-70160000D03*
D17*
X72387500Y-62540000D03*
D16*
X91437500Y-70160000D03*
D17*
X91437500Y-62540000D03*
X110487500Y-62540000D03*
D16*
X110487500Y-70160000D03*
D17*
X129537500Y-62540000D03*
D16*
X129537500Y-70160000D03*
D17*
X148587500Y-70690000D03*
D16*
X148587500Y-78310000D03*
D17*
X167637500Y-62540000D03*
D16*
X167637500Y-70160000D03*
D17*
X186687500Y-62540000D03*
D16*
X186687500Y-70160000D03*
D17*
X205737500Y-62540000D03*
D16*
X205737500Y-70160000D03*
D17*
X224787500Y-62540000D03*
D16*
X224787500Y-70160000D03*
D17*
X243837500Y-62540000D03*
D16*
X243837500Y-70160000D03*
D17*
X262887500Y-62540000D03*
D16*
X262887500Y-70160000D03*
D17*
X293847500Y-62540000D03*
D16*
X293847500Y-70160000D03*
D17*
X50956250Y-81590000D03*
D16*
X50956250Y-89210000D03*
D17*
X81912500Y-81590000D03*
D16*
X81912500Y-89210000D03*
D17*
X100962500Y-81590000D03*
D16*
X100962500Y-89210000D03*
D17*
X120012500Y-81590000D03*
D16*
X120012500Y-89210000D03*
D17*
X139062500Y-81590000D03*
D16*
X139062500Y-89210000D03*
D17*
X158112500Y-81590000D03*
D16*
X158112500Y-89210000D03*
D17*
X177162500Y-81590000D03*
D16*
X177162500Y-89210000D03*
D17*
X196212500Y-81590000D03*
D16*
X196212500Y-89210000D03*
D17*
X215262500Y-81590000D03*
D16*
X215262500Y-89210000D03*
D17*
X234312500Y-81590000D03*
D16*
X234312500Y-89210000D03*
D17*
X253362500Y-81590000D03*
D16*
X253362500Y-89210000D03*
D17*
X289020000Y-81590000D03*
D16*
X289020000Y-89210000D03*
D17*
X41431250Y-100640000D03*
D16*
X41431250Y-108260000D03*
D17*
X65243750Y-100640000D03*
D16*
X65243750Y-108260000D03*
D17*
X88930000Y-100640000D03*
D16*
X88930000Y-108260000D03*
D17*
X160760000Y-100640000D03*
D16*
X160760000Y-108260000D03*
D17*
X231810000Y-100640000D03*
D16*
X231810000Y-108260000D03*
D17*
X255610000Y-100640000D03*
D16*
X255610000Y-108260000D03*
D17*
X279460000Y-100640000D03*
D16*
X279460000Y-108260000D03*
D17*
X303300000Y-100640000D03*
D16*
X303300000Y-108260000D03*
D18*
X36045000Y-24545000D03*
X40885000Y-24545000D03*
D19*
X35735000Y-21545000D03*
X41195000Y-21545000D03*
D20*
X49500000Y-66360000D03*
X49500000Y-72860000D03*
M02*
