G04 #@! TF.GenerationSoftware,KiCad,Pcbnew,(5.1.6-0-10_14)*
G04 #@! TF.CreationDate,2020-07-08T09:47:10+09:00*
G04 #@! TF.ProjectId,reviung61,72657669-756e-4673-9631-2e6b69636164,1.0*
G04 #@! TF.SameCoordinates,Original*
G04 #@! TF.FileFunction,Profile,NP*
%FSLAX46Y46*%
G04 Gerber Fmt 4.6, Leading zero omitted, Abs format (unit mm)*
G04 Created by KiCad (PCBNEW (5.1.6-0-10_14)) date 2020-07-08 09:47:10*
%MOMM*%
%LPD*%
G01*
G04 APERTURE LIST*
G04 #@! TA.AperFunction,Profile*
%ADD10C,0.100000*%
G04 #@! TD*
G04 APERTURE END LIST*
D10*
X301486999Y-75630000D02*
X305520000Y-75630000D01*
X300136995Y-76980004D02*
X300143964Y-76841974D01*
X300143964Y-76841974D02*
X300164422Y-76707931D01*
X300164422Y-76707931D02*
X300197688Y-76578555D01*
X300197688Y-76578555D02*
X300243085Y-76454522D01*
X300243085Y-76454522D02*
X300299933Y-76336513D01*
X300299933Y-76336513D02*
X300367555Y-76225205D01*
X300367555Y-76225205D02*
X300445271Y-76121277D01*
X300445271Y-76121277D02*
X300532403Y-76025408D01*
X300532403Y-76025408D02*
X300628272Y-75938276D01*
X300628272Y-75938276D02*
X300732200Y-75860560D01*
X300732200Y-75860560D02*
X300843508Y-75792938D01*
X300843508Y-75792938D02*
X300961518Y-75736090D01*
X300961518Y-75736090D02*
X301085550Y-75690693D01*
X301085550Y-75690693D02*
X301214927Y-75657427D01*
X301214927Y-75657427D02*
X301348969Y-75636969D01*
X301348969Y-75636969D02*
X301486999Y-75630000D01*
X301486977Y-78330007D02*
X301348947Y-78323037D01*
X301348947Y-78323037D02*
X301214906Y-78302579D01*
X301214906Y-78302579D02*
X301085530Y-78269313D01*
X301085530Y-78269313D02*
X300961499Y-78223916D01*
X300961499Y-78223916D02*
X300843491Y-78167068D01*
X300843491Y-78167068D02*
X300732185Y-78099446D01*
X300732185Y-78099446D02*
X300628259Y-78021730D01*
X300628259Y-78021730D02*
X300532392Y-77934599D01*
X300532392Y-77934599D02*
X300445262Y-77838729D01*
X300445262Y-77838729D02*
X300367548Y-77734802D01*
X300367548Y-77734802D02*
X300299928Y-77623494D01*
X300299928Y-77623494D02*
X300243082Y-77505484D01*
X300243082Y-77505484D02*
X300197686Y-77381452D01*
X300197686Y-77381452D02*
X300164421Y-77252075D01*
X300164421Y-77252075D02*
X300143964Y-77118033D01*
X300143964Y-77118033D02*
X300136995Y-76980004D01*
X305520000Y-78330007D02*
X301486977Y-78330007D01*
X305520000Y-112019682D02*
X305520000Y-78330007D01*
X302519989Y-115019671D02*
X302674368Y-115015767D01*
X302674368Y-115015767D02*
X302826721Y-115004182D01*
X302826721Y-115004182D02*
X302976859Y-114985104D01*
X302976859Y-114985104D02*
X303124594Y-114958722D01*
X303124594Y-114958722D02*
X303269736Y-114925223D01*
X303269736Y-114925223D02*
X303412098Y-114884797D01*
X303412098Y-114884797D02*
X303551490Y-114837633D01*
X303551490Y-114837633D02*
X303687726Y-114783917D01*
X303687726Y-114783917D02*
X303820615Y-114723840D01*
X303820615Y-114723840D02*
X303949969Y-114657589D01*
X303949969Y-114657589D02*
X304075601Y-114585353D01*
X304075601Y-114585353D02*
X304197320Y-114507321D01*
X304197320Y-114507321D02*
X304314940Y-114423681D01*
X304314940Y-114423681D02*
X304428271Y-114334621D01*
X304428271Y-114334621D02*
X304537126Y-114240330D01*
X304537126Y-114240330D02*
X304641314Y-114140996D01*
X304641314Y-114140996D02*
X304740649Y-114036809D01*
X304740649Y-114036809D02*
X304834941Y-113927956D01*
X304834941Y-113927956D02*
X304924002Y-113814625D01*
X304924002Y-113814625D02*
X305007643Y-113697006D01*
X305007643Y-113697006D02*
X305085676Y-113575288D01*
X305085676Y-113575288D02*
X305157913Y-113449657D01*
X305157913Y-113449657D02*
X305224165Y-113320303D01*
X305224165Y-113320303D02*
X305284243Y-113187415D01*
X305284243Y-113187415D02*
X305337959Y-113051181D01*
X305337959Y-113051181D02*
X305385124Y-112911789D01*
X305385124Y-112911789D02*
X305425551Y-112769427D01*
X305425551Y-112769427D02*
X305459050Y-112624286D01*
X305459050Y-112624286D02*
X305485432Y-112476552D01*
X305485432Y-112476552D02*
X305504511Y-112326414D01*
X305504511Y-112326414D02*
X305516096Y-112174061D01*
X305516096Y-112174061D02*
X305520000Y-112019682D01*
X23019995Y-115019671D02*
X302519989Y-115019671D01*
X20020006Y-112019682D02*
X20023909Y-112174061D01*
X20023909Y-112174061D02*
X20035494Y-112326414D01*
X20035494Y-112326414D02*
X20054572Y-112476552D01*
X20054572Y-112476552D02*
X20080954Y-112624286D01*
X20080954Y-112624286D02*
X20114453Y-112769427D01*
X20114453Y-112769427D02*
X20154879Y-112911789D01*
X20154879Y-112911789D02*
X20202043Y-113051181D01*
X20202043Y-113051181D02*
X20255759Y-113187415D01*
X20255759Y-113187415D02*
X20315836Y-113320303D01*
X20315836Y-113320303D02*
X20382087Y-113449657D01*
X20382087Y-113449657D02*
X20454323Y-113575288D01*
X20454323Y-113575288D02*
X20532355Y-113697006D01*
X20532355Y-113697006D02*
X20615995Y-113814625D01*
X20615995Y-113814625D02*
X20705055Y-113927956D01*
X20705055Y-113927956D02*
X20799346Y-114036809D01*
X20799346Y-114036809D02*
X20898680Y-114140996D01*
X20898680Y-114140996D02*
X21002867Y-114240330D01*
X21002867Y-114240330D02*
X21111720Y-114334621D01*
X21111720Y-114334621D02*
X21225051Y-114423681D01*
X21225051Y-114423681D02*
X21342670Y-114507321D01*
X21342670Y-114507321D02*
X21464388Y-114585353D01*
X21464388Y-114585353D02*
X21590019Y-114657589D01*
X21590019Y-114657589D02*
X21719373Y-114723840D01*
X21719373Y-114723840D02*
X21852261Y-114783917D01*
X21852261Y-114783917D02*
X21988495Y-114837633D01*
X21988495Y-114837633D02*
X22127887Y-114884797D01*
X22127887Y-114884797D02*
X22270249Y-114925223D01*
X22270249Y-114925223D02*
X22415390Y-114958722D01*
X22415390Y-114958722D02*
X22563124Y-114985104D01*
X22563124Y-114985104D02*
X22713262Y-115004182D01*
X22713262Y-115004182D02*
X22865615Y-115015767D01*
X22865615Y-115015767D02*
X23019995Y-115019671D01*
X20020006Y-78397682D02*
X20020006Y-112019682D01*
X24065173Y-78397682D02*
X20020006Y-78397682D01*
X25465173Y-76997681D02*
X25457944Y-77140820D01*
X25457944Y-77140820D02*
X25436729Y-77279826D01*
X25436729Y-77279826D02*
X25402230Y-77413993D01*
X25402230Y-77413993D02*
X25355152Y-77542619D01*
X25355152Y-77542619D02*
X25296198Y-77664999D01*
X25296198Y-77664999D02*
X25226071Y-77780429D01*
X25226071Y-77780429D02*
X25145477Y-77888206D01*
X25145477Y-77888206D02*
X25055118Y-77987626D01*
X25055118Y-77987626D02*
X24955698Y-78077985D01*
X24955698Y-78077985D02*
X24847921Y-78158580D01*
X24847921Y-78158580D02*
X24732490Y-78228706D01*
X24732490Y-78228706D02*
X24610111Y-78287661D01*
X24610111Y-78287661D02*
X24481485Y-78334739D01*
X24481485Y-78334739D02*
X24347318Y-78369238D01*
X24347318Y-78369238D02*
X24208312Y-78390453D01*
X24208312Y-78390453D02*
X24065173Y-78397682D01*
X24065173Y-75597681D02*
X24208312Y-75604908D01*
X24208312Y-75604908D02*
X24347318Y-75626123D01*
X24347318Y-75626123D02*
X24481485Y-75660621D01*
X24481485Y-75660621D02*
X24610111Y-75707698D01*
X24610111Y-75707698D02*
X24732490Y-75766651D01*
X24732490Y-75766651D02*
X24847921Y-75836776D01*
X24847921Y-75836776D02*
X24955698Y-75917369D01*
X24955698Y-75917369D02*
X25055118Y-76007728D01*
X25055118Y-76007728D02*
X25145477Y-76107147D01*
X25145477Y-76107147D02*
X25226071Y-76214923D01*
X25226071Y-76214923D02*
X25296198Y-76330353D01*
X25296198Y-76330353D02*
X25355152Y-76452733D01*
X25355152Y-76452733D02*
X25402230Y-76581360D01*
X25402230Y-76581360D02*
X25436729Y-76715529D01*
X25436729Y-76715529D02*
X25457944Y-76854537D01*
X25457944Y-76854537D02*
X25465173Y-76997681D01*
X20020006Y-75597681D02*
X24065173Y-75597681D01*
X20020006Y-23019667D02*
X20020006Y-75597681D01*
X23019995Y-20019678D02*
X22865615Y-20023581D01*
X22865615Y-20023581D02*
X22713262Y-20035166D01*
X22713262Y-20035166D02*
X22563124Y-20054244D01*
X22563124Y-20054244D02*
X22415390Y-20080626D01*
X22415390Y-20080626D02*
X22270249Y-20114125D01*
X22270249Y-20114125D02*
X22127887Y-20154551D01*
X22127887Y-20154551D02*
X21988495Y-20201715D01*
X21988495Y-20201715D02*
X21852261Y-20255431D01*
X21852261Y-20255431D02*
X21719373Y-20315508D01*
X21719373Y-20315508D02*
X21590019Y-20381759D01*
X21590019Y-20381759D02*
X21464388Y-20453995D01*
X21464388Y-20453995D02*
X21342670Y-20532027D01*
X21342670Y-20532027D02*
X21225051Y-20615667D01*
X21225051Y-20615667D02*
X21111720Y-20704727D01*
X21111720Y-20704727D02*
X21002867Y-20799018D01*
X21002867Y-20799018D02*
X20898680Y-20898352D01*
X20898680Y-20898352D02*
X20799346Y-21002539D01*
X20799346Y-21002539D02*
X20705055Y-21111392D01*
X20705055Y-21111392D02*
X20615995Y-21224723D01*
X20615995Y-21224723D02*
X20532355Y-21342342D01*
X20532355Y-21342342D02*
X20454323Y-21464060D01*
X20454323Y-21464060D02*
X20382087Y-21589691D01*
X20382087Y-21589691D02*
X20315836Y-21719045D01*
X20315836Y-21719045D02*
X20255759Y-21851933D01*
X20255759Y-21851933D02*
X20202043Y-21988167D01*
X20202043Y-21988167D02*
X20154879Y-22127559D01*
X20154879Y-22127559D02*
X20114453Y-22269921D01*
X20114453Y-22269921D02*
X20080954Y-22415062D01*
X20080954Y-22415062D02*
X20054572Y-22562796D01*
X20054572Y-22562796D02*
X20035494Y-22712934D01*
X20035494Y-22712934D02*
X20023909Y-22865287D01*
X20023909Y-22865287D02*
X20020006Y-23019667D01*
X302519989Y-20019678D02*
X23019995Y-20019678D01*
X305520000Y-23019667D02*
X305516096Y-22865287D01*
X305516096Y-22865287D02*
X305504511Y-22712934D01*
X305504511Y-22712934D02*
X305485432Y-22562796D01*
X305485432Y-22562796D02*
X305459050Y-22415062D01*
X305459050Y-22415062D02*
X305425551Y-22269921D01*
X305425551Y-22269921D02*
X305385124Y-22127559D01*
X305385124Y-22127559D02*
X305337959Y-21988167D01*
X305337959Y-21988167D02*
X305284243Y-21851933D01*
X305284243Y-21851933D02*
X305224165Y-21719045D01*
X305224165Y-21719045D02*
X305157913Y-21589691D01*
X305157913Y-21589691D02*
X305085676Y-21464060D01*
X305085676Y-21464060D02*
X305007643Y-21342342D01*
X305007643Y-21342342D02*
X304924002Y-21224723D01*
X304924002Y-21224723D02*
X304834941Y-21111392D01*
X304834941Y-21111392D02*
X304740649Y-21002539D01*
X304740649Y-21002539D02*
X304641314Y-20898352D01*
X304641314Y-20898352D02*
X304537126Y-20799018D01*
X304537126Y-20799018D02*
X304428271Y-20704727D01*
X304428271Y-20704727D02*
X304314940Y-20615667D01*
X304314940Y-20615667D02*
X304197320Y-20532027D01*
X304197320Y-20532027D02*
X304075601Y-20453995D01*
X304075601Y-20453995D02*
X303949969Y-20381759D01*
X303949969Y-20381759D02*
X303820615Y-20315508D01*
X303820615Y-20315508D02*
X303687726Y-20255431D01*
X303687726Y-20255431D02*
X303551490Y-20201715D01*
X303551490Y-20201715D02*
X303412098Y-20154551D01*
X303412098Y-20154551D02*
X303269736Y-20114125D01*
X303269736Y-20114125D02*
X303124594Y-20080626D01*
X303124594Y-20080626D02*
X302976859Y-20054244D01*
X302976859Y-20054244D02*
X302826721Y-20035166D01*
X302826721Y-20035166D02*
X302674368Y-20023581D01*
X302674368Y-20023581D02*
X302519989Y-20019678D01*
X305520000Y-75630000D02*
X305520000Y-23019667D01*
M02*
