M48
; DRILL file {KiCad (5.1.6-0-10_14)} date Wednesday, July 08, 2020 at 09:47:23 AM
; FORMAT={-:-/ absolute / inch / decimal}
; #@! TF.CreationDate,2020-07-08T09:47:23+09:00
; #@! TF.GenerationSoftware,Kicad,Pcbnew,(5.1.6-0-10_14)
; #@! TF.FileFunction,NonPlated,1,2,NPTH
FMAT,2
INCH
T1C0.0689
T2C0.0866
T3C0.1200
T4C0.1570
%
G90
G05
T1
X3.5844Y-1.9094
X3.9844Y-1.9094
X9.0219Y-2.6594
X9.4219Y-2.6594
X8.6469Y-3.4094
X9.0469Y-3.4094
X2.6469Y-3.4094
X3.0469Y-3.4094
X3.0219Y-2.6594
X3.4219Y-2.6594
X9.9594Y-1.1594
X10.3594Y-1.1594
X9.4886Y-4.1594
X9.8886Y-4.1594
X6.9594Y-1.1594
X7.3594Y-1.1594
X2.4594Y-1.1594
X2.8594Y-1.1594
X4.5219Y-2.6594
X4.9219Y-2.6594
X7.7094Y-1.1594
X8.1094Y-1.1594
X2.0844Y-1.9094
X2.4844Y-1.9094
X7.5219Y-2.6594
X7.9219Y-2.6594
X7.1469Y-3.4094
X7.5469Y-3.4094
X1.2407Y-2.6594
X1.6407Y-2.6594
X5.7398Y-4.1594
X6.1398Y-4.1594
X2.9264Y-4.1594
X3.3264Y-4.1594
X5.4594Y-1.1594
X5.8594Y-1.1594
X5.8344Y-1.9094
X6.2344Y-1.9094
X4.8969Y-3.4094
X5.2969Y-3.4094
X8.0844Y-1.9094
X8.4844Y-1.9094
X11.0844Y-1.1594
X11.4844Y-1.1594
X9.5844Y-1.9094
X9.9844Y-1.9094
X5.6469Y-3.4094
X6.0469Y-3.4094
X3.2094Y-1.1594
X3.6094Y-1.1594
X1.0532Y-4.1594
X1.4532Y-4.1594
X5.2719Y-2.6594
X5.6719Y-2.6594
X1.9902Y-4.1594
X2.3902Y-4.1594
X4.3344Y-1.9094
X4.7344Y-1.9094
X9.7719Y-2.6594
X10.1719Y-2.6594
X9.3969Y-3.4094
X9.7969Y-3.4094
X3.3969Y-3.4094
X3.7969Y-3.4094
X3.7719Y-2.6594
X4.1719Y-2.6594
X8.5516Y-4.1594
X8.9516Y-4.1594
X10.9907Y-2.6594
X11.3907Y-2.6594
X11.3657Y-4.1594
X11.7657Y-4.1594
X1.7094Y-1.1594
X2.1094Y-1.1594
X10.3344Y-1.9094
X10.7344Y-1.9094
X8.4594Y-1.1594
X8.8594Y-1.1594
X2.8344Y-1.9094
X3.2344Y-1.9094
X8.2719Y-2.6594
X8.6719Y-2.6594
X7.8969Y-3.4094
X8.2969Y-3.4094
X2.2719Y-2.6594
X2.6719Y-2.6594
X10.8032Y-3.4094
X11.2032Y-3.4094
X6.2094Y-1.1594
X6.6094Y-1.1594
X6.5844Y-1.9094
X6.9844Y-1.9094
X7.3344Y-1.9094
X7.7344Y-1.9094
X1.1469Y-1.9094
X1.5469Y-1.9094
X6.7719Y-2.6594
X7.1719Y-2.6594
X6.3969Y-3.4094
X6.7969Y-3.4094
X3.9594Y-1.1594
X4.3594Y-1.1594
X6.0219Y-2.6594
X6.4219Y-2.6594
X9.2094Y-1.1594
X9.6094Y-1.1594
X4.7094Y-1.1594
X5.1094Y-1.1594
X5.0844Y-1.9094
X5.4844Y-1.9094
X4.1469Y-3.4094
X4.5469Y-3.4094
X8.8344Y-1.9094
X9.2344Y-1.9094
X0.9594Y-1.1583
X1.3594Y-1.1583
X1.4282Y-3.4094
X1.8282Y-3.4094
X11.2719Y-1.9094
X11.6719Y-1.9094
X10.4264Y-4.1594
X10.8264Y-4.1594
T3
X3.9713Y-4.4344
X7.9083Y-4.4344
X10.8144Y-0.8844
X11.7544Y-0.8844
X10.7207Y-2.3844
X11.6607Y-2.3844
X10.5332Y-3.1344
X11.4732Y-3.1344
X1.1582Y-3.1344
X2.0982Y-3.1344
T4
X1.3469Y-1.9094
X6.9719Y-2.6594
X6.5969Y-3.4094
X4.1594Y-1.1594
X6.2219Y-2.6594
X9.4094Y-1.1594
X4.9094Y-1.1594
X5.2844Y-1.9094
X4.3469Y-3.4094
X9.0344Y-1.9094
X1.1594Y-1.1583
X1.1582Y-3.7344
X1.6282Y-3.4094
X2.0982Y-3.7344
X11.4719Y-1.9094
X10.6264Y-4.1594
X3.7844Y-1.9094
X9.2219Y-2.6594
X8.8469Y-3.4094
X2.8469Y-3.4094
X3.2219Y-2.6594
X10.1594Y-1.1594
X9.6886Y-4.1594
X7.1594Y-1.1594
X2.6594Y-1.1594
X4.7219Y-2.6594
X7.9094Y-1.1594
X2.2844Y-1.9094
X7.7219Y-2.6594
X7.3469Y-3.4094
X1.4407Y-2.6594
X3.9713Y-3.8344
X5.9398Y-4.1594
X7.9083Y-3.8344
X3.1264Y-4.1594
X5.6594Y-1.1594
X6.0344Y-1.9094
X5.0969Y-3.4094
X8.2844Y-1.9094
X10.8144Y-1.4844
X11.2844Y-1.1594
X11.7544Y-1.4844
X9.7844Y-1.9094
X5.8469Y-3.4094
X3.4094Y-1.1594
X1.2532Y-4.1594
X5.4719Y-2.6594
X2.1902Y-4.1594
X4.5344Y-1.9094
X9.9719Y-2.6594
X9.5969Y-3.4094
X3.5969Y-3.4094
X3.9719Y-2.6594
X8.7516Y-4.1594
X10.7207Y-2.9844
X11.1907Y-2.6594
X11.6607Y-2.9844
X11.5657Y-4.1594
X1.9094Y-1.1594
X10.5344Y-1.9094
X8.6594Y-1.1594
X3.0344Y-1.9094
X8.4719Y-2.6594
X8.0969Y-3.4094
X2.4719Y-2.6594
X10.5332Y-3.7344
X11.0032Y-3.4094
X11.4732Y-3.7344
X6.4094Y-1.1594
X6.7844Y-1.9094
X7.5344Y-1.9094
T2
G00X5.7902Y-2.6555
M15
G01X5.9004Y-2.6555
M16
G05
G00X8.2437Y-4.1598
M15
G01X8.3539Y-4.1598
M16
G05
G00X10.9823Y-1.9031
M15
G01X11.0925Y-1.9031
M16
G05
T0
M30
