M48
; DRILL file {KiCad (5.1.6-0-10_14)} date Wednesday, July 08, 2020 at 09:47:23 AM
; FORMAT={-:-/ absolute / inch / decimal}
; #@! TF.CreationDate,2020-07-08T09:47:23+09:00
; #@! TF.GenerationSoftware,Kicad,Pcbnew,(5.1.6-0-10_14)
; #@! TF.FileFunction,Plated,1,2,PTH
FMAT,2
INCH
T1C0.0118
T2C0.0157
T3C0.0197
T4C0.0256
T5C0.0276
T6C0.0320
T7C0.0512
T8C0.0579
T9C0.0866
%
G90
G05
T1
X1.7102Y-1.2622
X2.0902Y-2.7622
X2.0941Y-2.2858
X2.1343Y-3.5122
X2.1949Y-4.3602
X2.248Y-3.1654
X2.2909Y-2.2858
X2.2949Y-3.5122
X2.2969Y-2.7622
X3.0364Y-4.375
X3.6516Y-4.3307
X3.7106Y-4.3307
X4.0551Y-4.311
X4.1654Y-3.7205
X5.5709Y-3.248
X5.6102Y-4.2618
X6.3287Y-4.4685
X7.1161Y-4.4488
X7.6083Y-3.8681
X7.6378Y-3.8878
X7.6673Y-3.9075
X7.7165Y-3.7598
X7.7657Y-3.7598
X7.7657Y-4.2913
X7.8051Y-4.2913
X7.815Y-3.7598
X8.2382Y-3.7106
X8.2382Y-3.75
X8.5335Y-4.3602
X9.4882Y-4.3799
X9.5079Y-3.8878
X9.9311Y-3.1398
X10.0984Y-3.7205
X10.2165Y-3.75
X10.2264Y-3.6614
X10.2854Y-3.7205
X10.3543Y-3.6909
X10.4232Y-4.3799
X11.1439Y-3.8998
X11.3681Y-4.3602
T2
X1.7256Y-1.9031
X1.7446Y-1.8572
X1.7446Y-1.9491
X1.7906Y-1.8382
X1.7906Y-1.9681
X1.8365Y-1.8572
X1.8365Y-1.9491
X1.8555Y-1.9031
T3
X3.6909Y-3.8386
X3.7303Y-4.0354
X4.2717Y-4.3228
X4.311Y-4.4843
X4.3406Y-4.1535
X4.3701Y-4.0354
X4.5138Y-3.8878
X4.5866Y-3.7402
X5.2402Y-4.2244
X5.9478Y-4.0089
X6.248Y-4.0965
X7.502Y-4.0965
X7.6673Y-3.75
X10.1378Y-3.6811
X10.2165Y-2.9134
T6
X3.4124Y-1.7122
X3.4124Y-2.0122
X2.6624Y-1.7122
X2.6624Y-2.0122
X5.2874Y-0.9622
X5.2874Y-1.2622
X9.1264Y-3.9622
X9.1264Y-4.2622
X9.2249Y-3.2122
X9.2249Y-3.5122
X11.9409Y-3.9622
X11.9409Y-4.2622
X8.4749Y-3.2122
X8.4749Y-3.5122
X8.8499Y-2.4622
X8.8499Y-2.7622
X3.5999Y-2.4622
X3.5999Y-2.7622
X2.8499Y-2.4622
X2.8499Y-2.7622
X1.0646Y-2.4622
X1.0646Y-2.7622
X11.8499Y-1.7122
X11.8499Y-2.0122
X10.8957Y-2.0144
X10.8957Y-2.3144
X7.5374Y-0.9622
X7.5374Y-1.2622
X10.1624Y-1.7122
X10.1624Y-2.0122
X6.7874Y-0.9622
X6.7874Y-1.2622
X9.4124Y-1.7122
X9.4124Y-2.0122
X7.7249Y-3.2122
X7.7249Y-3.5122
X8.0999Y-2.4622
X8.0999Y-2.7622
X7.3499Y-2.4622
X7.3499Y-2.7622
X6.5999Y-2.4622
X6.5999Y-2.7622
X8.6624Y-1.7122
X8.6624Y-2.0122
X5.8499Y-2.7831
X5.8499Y-3.0831
X5.0999Y-2.4622
X5.0999Y-2.7622
X4.3499Y-2.4622
X4.3499Y-2.7622
X0.9744Y-1.9858
X0.9744Y-2.2858
X4.5374Y-0.9622
X4.5374Y-1.2622
X6.3291Y-3.9622
X6.3291Y-4.2622
X11.6624Y-0.9622
X11.6624Y-1.2622
X3.7874Y-0.9622
X3.7874Y-1.2622
X9.7874Y-0.9622
X9.7874Y-1.2622
X10.5374Y-0.9622
X10.5374Y-1.2622
X9.0374Y-0.9622
X9.0374Y-1.2622
X11.0024Y-3.9622
X11.0024Y-4.2622
X6.0374Y-0.9622
X6.0374Y-1.2622
X8.2874Y-0.9622
X8.2874Y-1.2622
X6.9749Y-3.2122
X6.9749Y-3.5122
X3.9749Y-3.2122
X3.9749Y-3.5122
X6.2249Y-3.2122
X6.2249Y-3.5122
X5.4749Y-3.2122
X5.4749Y-3.5122
X3.5012Y-3.9622
X3.5012Y-4.2622
X3.0374Y-0.9622
X3.0374Y-1.2622
X2.5687Y-3.9622
X2.5687Y-4.2622
X2.2874Y-0.9622
X2.2874Y-1.2622
X1.6312Y-3.9622
X1.6312Y-4.2622
X0.9744Y-1.5319
X0.9744Y-1.8319
X10.3499Y-2.4622
X10.3499Y-2.7622
X4.1624Y-1.7122
X4.1624Y-2.0122
X3.2249Y-3.2122
X3.2249Y-3.5122
X7.9124Y-1.7122
X7.9124Y-2.0122
X2.0062Y-3.2122
X2.0062Y-3.5122
X7.1624Y-1.7122
X7.1624Y-2.0122
X6.4124Y-1.7122
X6.4124Y-2.0122
X4.7249Y-3.2122
X4.7249Y-3.5122
X5.6624Y-1.7122
X5.6624Y-2.0122
X4.9124Y-1.7122
X4.9124Y-2.0122
X10.0634Y-3.9622
X10.0634Y-4.2622
X11.3787Y-3.2122
X11.3787Y-3.5122
X9.9749Y-3.2122
X9.9749Y-3.5122
X9.5999Y-2.4622
X9.5999Y-2.7622
X11.5688Y-2.4622
X11.5688Y-2.7622
T7
X1.9488Y-2.6126
X1.9488Y-2.8685
T8
X1.1969Y-1.8094
X1.2485Y-1.752
X1.4454Y-1.7323
X1.4469Y-1.7094
X6.8219Y-2.5594
X6.8735Y-2.502
X7.0704Y-2.4823
X7.0719Y-2.4594
X6.4469Y-3.3094
X6.4985Y-3.252
X6.6954Y-3.2323
X6.6969Y-3.2094
X4.0094Y-1.0594
X4.061Y-1.002
X4.2579Y-0.9823
X4.2594Y-0.9594
X6.0719Y-2.5594
X6.1235Y-2.502
X6.3204Y-2.4823
X6.3219Y-2.4594
X9.2594Y-1.0594
X9.311Y-1.002
X9.5079Y-0.9823
X9.5094Y-0.9594
X4.7594Y-1.0594
X4.811Y-1.002
X5.0079Y-0.9823
X5.0094Y-0.9594
X5.1344Y-1.8094
X5.186Y-1.752
X5.3829Y-1.7323
X5.3844Y-1.7094
X4.1969Y-3.3094
X4.2485Y-3.252
X4.4454Y-3.2323
X4.4469Y-3.2094
X8.8844Y-1.8094
X8.936Y-1.752
X9.1329Y-1.7323
X9.1344Y-1.7094
X1.0094Y-1.0583
X1.061Y-1.0008
X1.2579Y-0.9811
X1.2594Y-0.9583
X1.4782Y-3.3094
X1.5298Y-3.252
X1.7266Y-3.2323
X1.7282Y-3.2094
X11.3219Y-1.8094
X11.3735Y-1.752
X11.5704Y-1.7323
X11.5719Y-1.7094
X10.4764Y-4.0594
X10.528Y-4.002
X10.7248Y-3.9823
X10.7264Y-3.9594
X3.6344Y-1.8094
X3.686Y-1.752
X3.8829Y-1.7323
X3.8844Y-1.7094
X9.0719Y-2.5594
X9.1235Y-2.502
X9.3204Y-2.4823
X9.3219Y-2.4594
X8.6969Y-3.3094
X8.7485Y-3.252
X8.9454Y-3.2323
X8.9469Y-3.2094
X2.6969Y-3.3094
X2.7485Y-3.252
X2.9454Y-3.2323
X2.9469Y-3.2094
X3.0719Y-2.5594
X3.1235Y-2.502
X3.3204Y-2.4823
X3.3219Y-2.4594
X10.0094Y-1.0594
X10.061Y-1.002
X10.2579Y-0.9823
X10.2594Y-0.9594
X9.5386Y-4.0594
X9.5902Y-4.002
X9.787Y-3.9823
X9.7886Y-3.9594
X7.0094Y-1.0594
X7.061Y-1.002
X7.2579Y-0.9823
X7.2594Y-0.9594
X2.5094Y-1.0594
X2.561Y-1.002
X2.7579Y-0.9823
X2.7594Y-0.9594
X4.5719Y-2.5594
X4.6235Y-2.502
X4.8204Y-2.4823
X4.8219Y-2.4594
X7.7594Y-1.0594
X7.811Y-1.002
X8.0079Y-0.9823
X8.0094Y-0.9594
X2.1344Y-1.8094
X2.186Y-1.752
X2.3829Y-1.7323
X2.3844Y-1.7094
X7.5719Y-2.5594
X7.6235Y-2.502
X7.8204Y-2.4823
X7.8219Y-2.4594
X7.1969Y-3.3094
X7.2485Y-3.252
X7.4454Y-3.2323
X7.4469Y-3.2094
X1.2907Y-2.5594
X1.3423Y-2.502
X1.5391Y-2.4823
X1.5407Y-2.4594
X5.7898Y-4.0594
X5.8413Y-4.002
X6.0382Y-3.9823
X6.0398Y-3.9594
X2.9764Y-4.0594
X3.028Y-4.002
X3.2248Y-3.9823
X3.2264Y-3.9594
X5.5094Y-1.0594
X5.561Y-1.002
X5.7579Y-0.9823
X5.7594Y-0.9594
X5.8844Y-1.8094
X5.936Y-1.752
X6.1329Y-1.7323
X6.1344Y-1.7094
X4.9469Y-3.3094
X4.9985Y-3.252
X5.1954Y-3.2323
X5.1969Y-3.2094
X8.1344Y-1.8094
X8.186Y-1.752
X8.3829Y-1.7323
X8.3844Y-1.7094
X11.1344Y-1.0594
X11.186Y-1.002
X11.3829Y-0.9823
X11.3844Y-0.9594
X9.6344Y-1.8094
X9.686Y-1.752
X9.8829Y-1.7323
X9.8844Y-1.7094
X5.6969Y-3.3094
X5.7485Y-3.252
X5.9454Y-3.2323
X5.9469Y-3.2094
X3.2594Y-1.0594
X3.311Y-1.002
X3.5079Y-0.9823
X3.5094Y-0.9594
X1.1032Y-4.0594
X1.1548Y-4.002
X1.3516Y-3.9823
X1.3532Y-3.9594
X5.3219Y-2.5594
X5.3735Y-2.502
X5.5704Y-2.4823
X5.5719Y-2.4594
X2.0402Y-4.0594
X2.0917Y-4.002
X2.2886Y-3.9823
X2.2902Y-3.9594
X4.3844Y-1.8094
X4.436Y-1.752
X4.6329Y-1.7323
X4.6344Y-1.7094
X9.8219Y-2.5594
X9.8735Y-2.502
X10.0704Y-2.4823
X10.0719Y-2.4594
X9.4469Y-3.3094
X9.4985Y-3.252
X9.6954Y-3.2323
X9.6969Y-3.2094
X3.4469Y-3.3094
X3.4985Y-3.252
X3.6954Y-3.2323
X3.6969Y-3.2094
X3.8219Y-2.5594
X3.8735Y-2.502
X4.0704Y-2.4823
X4.0719Y-2.4594
X8.6016Y-4.0594
X8.6531Y-4.002
X8.85Y-3.9823
X8.8516Y-3.9594
X11.0407Y-2.5594
X11.0923Y-2.502
X11.2891Y-2.4823
X11.2907Y-2.4594
X11.4157Y-4.0594
X11.4673Y-4.002
X11.6642Y-3.9823
X11.6657Y-3.9594
X1.7594Y-1.0594
X1.811Y-1.002
X2.0079Y-0.9823
X2.0094Y-0.9594
X10.3844Y-1.8094
X10.436Y-1.752
X10.6329Y-1.7323
X10.6344Y-1.7094
X8.5094Y-1.0594
X8.561Y-1.002
X8.7579Y-0.9823
X8.7594Y-0.9594
X2.8844Y-1.8094
X2.936Y-1.752
X3.1329Y-1.7323
X3.1344Y-1.7094
X8.3219Y-2.5594
X8.3735Y-2.502
X8.5704Y-2.4823
X8.5719Y-2.4594
X7.9469Y-3.3094
X7.9985Y-3.252
X8.1954Y-3.2323
X8.1969Y-3.2094
X2.3219Y-2.5594
X2.3735Y-2.502
X2.5704Y-2.4823
X2.5719Y-2.4594
X10.8532Y-3.3094
X10.9048Y-3.252
X11.1016Y-3.2323
X11.1032Y-3.2094
X6.2594Y-1.0594
X6.311Y-1.002
X6.5079Y-0.9823
X6.5094Y-0.9594
X6.6344Y-1.8094
X6.686Y-1.752
X6.8829Y-1.7323
X6.8844Y-1.7094
X7.3844Y-1.8094
X7.436Y-1.752
X7.6329Y-1.7323
X7.6344Y-1.7094
T9
X1.7906Y-1.9031
T4
G00X1.4191Y-0.9585
M15
G01X1.4191Y-0.9742
M16
G05
G00X1.6096Y-0.9585
M15
G01X1.6096Y-0.9742
M16
G05
T5
G00X1.4069Y-0.8384
M15
G01X1.4069Y-0.8581
M16
G05
G00X1.6219Y-0.8384
M15
G01X1.6219Y-0.8581
M16
G05
T0
M30
