<?xml version="1.0" encoding="utf-8"?>
<!-- Generator: Adobe Illustrator 26.0.1, SVG Export Plug-In . SVG Version: 6.00 Build 0)  -->
<svg version="1.1" xmlns="http://www.w3.org/2000/svg" xmlns:xlink="http://www.w3.org/1999/xlink" x="0px" y="0px"
	 viewBox="0 0 758.79 132.66" style="enable-background:new 0 0 758.79 132.66;" xml:space="preserve">
<style type="text/css">
	.st0{fill:none;stroke:#000000;stroke-width:0.2835;stroke-miterlimit:10;}
	.st1{fill:#FF0000;}
	.st2{font-family:'Arial-BoldMT';}
	.st3{font-size:14px;}
</style>
<g id="cut">
	<path class="st0" d="M738.68,33.14H18.54c-6.26,0-11.34,5.08-11.34,11.34v69.49c0,3.13,2.54,5.67,5.67,5.67h731.48
		c3.13,0,5.67-2.54,5.67-5.67V44.47C750.02,38.21,744.95,33.14,738.68,33.14z M502.42,41.8c1.64,0,2.98,1.33,2.98,2.98
		s-1.33,2.98-2.98,2.98s-2.98-1.33-2.98-2.98S500.77,41.8,502.42,41.8z M254.81,41.8c1.64,0,2.98,1.33,2.98,2.98
		s-1.33,2.98-2.98,2.98c-1.64,0-2.98-1.33-2.98-2.98S253.17,41.8,254.81,41.8z M18.83,47.75c-1.64,0-2.98-1.33-2.98-2.98
		s1.33-2.98,2.98-2.98c1.64,0,2.98,1.33,2.98,2.98S20.47,47.75,18.83,47.75z M135.86,115.22c-1.64,0-2.98-1.33-2.98-2.98
		s1.33-2.98,2.98-2.98s2.98,1.33,2.98,2.98S137.5,115.22,135.86,115.22z M204.53,108.96l-56.83,0V52.13l56.83,0V108.96z
		 M434.03,108.96l-218.83,0l0-56.83l218.83,0L434.03,108.96z M663.53,108.96l-218.83,0l0-56.83l218.83,0L663.53,108.96z
		 M731.03,108.96l-56.83,0V52.13l56.83,0V108.96z M738.4,41.8c1.64,0,2.98,1.33,2.98,2.98s-1.33,2.98-2.98,2.98
		s-2.98-1.33-2.98-2.98S736.76,41.8,738.4,41.8z M738.41,115.23c-1.64,0-2.98-1.33-2.98-2.98c0-1.64,1.33-2.98,2.98-2.98
		s2.98,1.33,2.98,2.98C741.38,113.89,740.05,115.23,738.41,115.23z"/>
</g>
<g id="graving">
	<g>
		<path class="st1" d="M130.92,52.83H13.76c-0.38,0-0.69-0.31-0.69-0.69V52.1c0-0.38,0.31-0.69,0.69-0.69h117.17
			c0.38,0,0.69,0.31,0.69,0.69v0.04C131.61,52.52,131.3,52.83,130.92,52.83z"/>
		<path class="st1" d="M130.92,59.91H13.76c-0.38,0-0.69-0.31-0.69-0.69v-0.04c0-0.38,0.31-0.69,0.69-0.69h117.17
			c0.38,0,0.69,0.31,0.69,0.69v0.04C131.61,59.61,131.3,59.91,130.92,59.91z"/>
		<path class="st1" d="M130.92,67H13.76c-0.38,0-0.69-0.31-0.69-0.69v-0.04c0-0.38,0.31-0.69,0.69-0.69h117.17
			c0.38,0,0.69,0.31,0.69,0.69v0.04C131.61,66.69,131.3,67,130.92,67z"/>
		<path class="st1" d="M130.92,74.08H13.76c-0.38,0-0.69-0.31-0.69-0.69v-0.04c0-0.38,0.31-0.69,0.69-0.69h117.17
			c0.38,0,0.69,0.31,0.69,0.69v0.04C131.61,73.77,131.3,74.08,130.92,74.08z"/>
		<path class="st1" d="M130.92,81.16H13.76c-0.38,0-0.69-0.31-0.69-0.69v-0.04c0-0.38,0.31-0.69,0.69-0.69h117.17
			c0.38,0,0.69,0.31,0.69,0.69v0.04C131.61,80.85,131.3,81.16,130.92,81.16z"/>
		<path class="st1" d="M130.92,88.24H13.76c-0.38,0-0.69-0.31-0.69-0.69v-0.04c0-0.38,0.31-0.69,0.69-0.69h117.17
			c0.38,0,0.69,0.31,0.69,0.69v0.04C131.61,87.93,131.3,88.24,130.92,88.24z"/>
		<path class="st1" d="M85.43,95.32H13.61c-0.3,0-0.54-0.24-0.54-0.54v-0.34c0-0.3,0.24-0.54,0.54-0.54h71.82
			c0.3,0,0.54,0.24,0.54,0.54v0.34C85.97,95.08,85.73,95.32,85.43,95.32z"/>
		<path class="st1" d="M85.43,102.4H13.61c-0.3,0-0.54-0.24-0.54-0.54v-0.34c0-0.3,0.24-0.54,0.54-0.54h71.82
			c0.3,0,0.54,0.24,0.54,0.54v0.34C85.97,102.16,85.73,102.4,85.43,102.4z"/>
		<path class="st1" d="M130.92,109.48H13.76c-0.38,0-0.69-0.31-0.69-0.69v-0.04c0-0.38,0.31-0.69,0.69-0.69h117.17
			c0.38,0,0.69,0.31,0.69,0.69v0.04C131.61,109.17,131.3,109.48,130.92,109.48z"/>
		<g>
			<path class="st1" d="M88.73,103.9V91.43h3.01c1.31,0,2.14,0.15,2.5,0.45c0.36,0.3,0.54,1.01,0.54,2.13v1.29
				c0,0.9-0.09,1.51-0.27,1.81c-0.18,0.31-0.5,0.54-0.96,0.7c0.45,0.13,0.77,0.34,0.95,0.64c0.18,0.3,0.28,0.76,0.28,1.38v4.06
				h-2.65v-4.28c0-0.26-0.04-0.43-0.13-0.52c-0.09-0.09-0.25-0.13-0.48-0.13h-0.16v4.94H88.73z M92.13,95.82v-1.71
				c0-0.31-0.04-0.5-0.1-0.57c-0.07-0.07-0.21-0.1-0.43-0.1h-0.23v3.19c0.03,0,0.07,0,0.13,0.01c0.05,0.01,0.09,0.01,0.12,0.01
				c0.2,0,0.34-0.03,0.41-0.1c0.07-0.07,0.11-0.2,0.11-0.39V95.82z"/>
			<path class="st1" d="M95.83,103.9V91.43h4.19v2.01h-1.57v2.59h1.57v2.03h-1.57v3.81h1.57v2.02H95.83z"/>
			<path class="st1" d="M102.15,103.9l-1.63-12.47h2.49l0.6,8.29l0.61-8.29h2.48l-1.64,12.47H102.15z"/>
			<path class="st1" d="M107.28,103.9V91.43h2.62v12.47H107.28z"/>
			<path class="st1" d="M110.97,91.43h2.64v9.9c0,0.22,0.03,0.38,0.09,0.48c0.06,0.09,0.16,0.14,0.3,0.14c0.12,0,0.22-0.03,0.28-0.1
				c0.06-0.07,0.1-0.17,0.1-0.3v-0.22v-9.9h2.64v9.98c0,1.13-0.17,1.85-0.51,2.14s-1.18,0.44-2.52,0.44c-1.35,0-2.2-0.15-2.53-0.45
				c-0.33-0.3-0.49-1.01-0.49-2.13V91.43z"/>
			<path class="st1" d="M118.08,103.9V91.43h2.45l1.31,6.39v-6.39h2.29v12.47h-2.46l-1.32-6.11v6.11H118.08z"/>
			<path class="st1" d="M125.19,93.93c0-1.15,0.17-1.87,0.51-2.16c0.34-0.28,1.17-0.42,2.5-0.42c1.36,0,2.21,0.15,2.54,0.45
				c0.33,0.3,0.49,1.01,0.49,2.13v1.73h-2.64v-1.66c0-0.24-0.03-0.41-0.09-0.5c-0.06-0.09-0.17-0.13-0.33-0.13
				c-0.13,0-0.21,0.04-0.26,0.12c-0.05,0.08-0.07,0.25-0.07,0.51v7.31c0,0.22,0.03,0.38,0.09,0.48c0.06,0.09,0.16,0.14,0.3,0.14
				c0.12,0,0.22-0.03,0.28-0.1c0.06-0.07,0.1-0.17,0.1-0.29v-0.22V99.5h-0.49v-2.01h3.13v6.4h-1.16l-0.48-0.83
				c-0.27,0.35-0.55,0.59-0.85,0.72c-0.3,0.13-0.72,0.2-1.28,0.2c-0.88,0-1.48-0.16-1.8-0.48c-0.32-0.32-0.48-1.03-0.48-2.11V93.93z
				"/>
		</g>
	</g>
</g>
<g id="note">
	<text transform="matrix(1 0 0 1 539.4249 26.0046)" class="st2 st3">W : 262.05 mm  H : 30.513 mm</text>
	<g>
		<path class="st1" d="M16.05,24.76V13.31h4.87c1.22,0,2.11,0.1,2.67,0.31c0.55,0.21,1,0.57,1.33,1.1c0.33,0.53,0.5,1.13,0.5,1.8
			c0,0.86-0.25,1.57-0.76,2.13c-0.51,0.56-1.26,0.91-2.27,1.06c0.5,0.29,0.91,0.61,1.24,0.96c0.33,0.35,0.76,0.97,1.32,1.86
			l1.4,2.23h-2.77l-1.67-2.49c-0.59-0.89-1-1.45-1.22-1.68c-0.22-0.23-0.45-0.39-0.7-0.48c-0.25-0.09-0.63-0.13-1.16-0.13h-0.47
			v4.78H16.05z M18.36,18.15h1.71c1.11,0,1.8-0.05,2.08-0.14c0.28-0.09,0.49-0.25,0.65-0.48c0.16-0.23,0.23-0.52,0.23-0.86
			c0-0.39-0.1-0.7-0.31-0.93c-0.21-0.24-0.5-0.39-0.87-0.45c-0.19-0.03-0.75-0.04-1.69-0.04h-1.8V18.15z"/>
		<path class="st1" d="M32.39,22.12l2.19,0.37c-0.28,0.8-0.73,1.41-1.33,1.83c-0.61,0.42-1.37,0.63-2.28,0.63
			c-1.44,0-2.51-0.47-3.2-1.41c-0.55-0.75-0.82-1.71-0.82-2.86c0-1.38,0.36-2.45,1.08-3.23c0.72-0.78,1.63-1.17,2.73-1.17
			c1.23,0,2.21,0.41,2.92,1.22c0.71,0.82,1.05,2.06,1.02,3.75h-5.5c0.02,0.65,0.19,1.16,0.53,1.52c0.34,0.36,0.76,0.54,1.27,0.54
			c0.34,0,0.63-0.09,0.87-0.28S32.27,22.54,32.39,22.12z M32.51,19.9c-0.02-0.64-0.18-1.12-0.49-1.45c-0.31-0.33-0.69-0.5-1.14-0.5
			c-0.48,0-0.88,0.17-1.19,0.52c-0.31,0.35-0.47,0.82-0.46,1.42H32.51z"/>
		<path class="st1" d="M44.09,24.76h-2.04v-1.22c-0.34,0.47-0.74,0.83-1.2,1.06s-0.93,0.35-1.39,0.35c-0.95,0-1.77-0.38-2.45-1.15
			c-0.68-0.77-1.02-1.84-1.02-3.21c0-1.41,0.33-2.48,0.99-3.21c0.66-0.73,1.5-1.1,2.51-1.1c0.93,0,1.73,0.39,2.41,1.16v-4.12h2.2
			V24.76z M38.23,20.43c0,0.89,0.12,1.53,0.37,1.92c0.35,0.57,0.85,0.86,1.48,0.86c0.5,0,0.93-0.21,1.29-0.64
			c0.35-0.43,0.53-1.07,0.53-1.93c0-0.95-0.17-1.64-0.52-2.06c-0.34-0.42-0.78-0.63-1.32-0.63c-0.52,0-0.96,0.21-1.31,0.62
			S38.23,19.61,38.23,20.43z"/>
		<path class="st1" d="M52.34,19l-1.99-0.36c0.22-0.8,0.61-1.4,1.16-1.78c0.55-0.39,1.36-0.58,2.44-0.58c0.98,0,1.71,0.12,2.19,0.35
			c0.48,0.23,0.82,0.53,1.01,0.88c0.2,0.36,0.29,1.01,0.29,1.96l-0.02,2.56c0,0.73,0.04,1.27,0.11,1.61
			c0.07,0.35,0.2,0.72,0.39,1.11h-2.17c-0.06-0.15-0.13-0.36-0.21-0.65c-0.04-0.13-0.06-0.22-0.08-0.26
			c-0.38,0.36-0.78,0.64-1.2,0.82c-0.43,0.18-0.88,0.27-1.37,0.27c-0.85,0-1.53-0.23-2.02-0.7c-0.49-0.46-0.74-1.05-0.74-1.76
			c0-0.47,0.11-0.89,0.34-1.25c0.22-0.37,0.54-0.65,0.94-0.84c0.4-0.2,0.99-0.37,1.75-0.51c1.03-0.19,1.74-0.37,2.13-0.54v-0.22
			c0-0.42-0.1-0.72-0.31-0.9c-0.21-0.18-0.6-0.27-1.18-0.27c-0.39,0-0.7,0.08-0.91,0.23C52.65,18.34,52.47,18.61,52.34,19z
			 M55.28,20.78c-0.28,0.09-0.73,0.21-1.34,0.34c-0.61,0.13-1.01,0.26-1.2,0.38c-0.29,0.2-0.43,0.46-0.43,0.77
			c0,0.31,0.11,0.57,0.34,0.8c0.23,0.22,0.52,0.34,0.88,0.34c0.4,0,0.77-0.13,1.13-0.39c0.27-0.2,0.44-0.44,0.52-0.73
			c0.06-0.19,0.09-0.54,0.09-1.07V20.78z"/>
		<path class="st1" d="M61.7,24.76h-2.2v-8.3h2.04v1.18c0.35-0.56,0.66-0.92,0.94-1.1c0.28-0.18,0.59-0.27,0.95-0.27
			c0.5,0,0.98,0.14,1.45,0.41l-0.68,1.91c-0.37-0.24-0.71-0.36-1.03-0.36c-0.31,0-0.57,0.08-0.78,0.25
			c-0.21,0.17-0.38,0.48-0.5,0.92c-0.12,0.44-0.18,1.37-0.18,2.78V24.76z"/>
		<path class="st1" d="M70.63,22.12l2.19,0.37c-0.28,0.8-0.73,1.41-1.33,1.83c-0.61,0.42-1.37,0.63-2.28,0.63
			c-1.44,0-2.51-0.47-3.2-1.41c-0.55-0.75-0.82-1.71-0.82-2.86c0-1.38,0.36-2.45,1.08-3.23c0.72-0.78,1.63-1.17,2.73-1.17
			c1.23,0,2.21,0.41,2.92,1.22c0.71,0.82,1.05,2.06,1.02,3.75h-5.5c0.02,0.65,0.19,1.16,0.53,1.52c0.34,0.36,0.76,0.54,1.27,0.54
			c0.34,0,0.63-0.09,0.87-0.28S70.51,22.54,70.63,22.12z M70.75,19.9c-0.02-0.64-0.18-1.12-0.49-1.45c-0.31-0.33-0.69-0.5-1.14-0.5
			c-0.48,0-0.88,0.17-1.19,0.52c-0.31,0.35-0.47,0.82-0.46,1.42H70.75z"/>
		<path class="st1" d="M76.36,19l-1.99-0.36c0.22-0.8,0.61-1.4,1.16-1.78c0.55-0.39,1.36-0.58,2.44-0.58c0.98,0,1.71,0.12,2.19,0.35
			c0.48,0.23,0.82,0.53,1.01,0.88c0.2,0.36,0.29,1.01,0.29,1.96l-0.02,2.56c0,0.73,0.04,1.27,0.11,1.61
			c0.07,0.35,0.2,0.72,0.39,1.11h-2.17c-0.06-0.15-0.13-0.36-0.21-0.65c-0.04-0.13-0.06-0.22-0.08-0.26
			c-0.38,0.36-0.78,0.64-1.2,0.82c-0.43,0.18-0.88,0.27-1.37,0.27c-0.85,0-1.53-0.23-2.02-0.7c-0.49-0.46-0.74-1.05-0.74-1.76
			c0-0.47,0.11-0.89,0.34-1.25c0.22-0.37,0.54-0.65,0.94-0.84c0.4-0.2,0.99-0.37,1.75-0.51c1.03-0.19,1.74-0.37,2.13-0.54v-0.22
			c0-0.42-0.1-0.72-0.31-0.9c-0.21-0.18-0.6-0.27-1.18-0.27c-0.39,0-0.7,0.08-0.91,0.23C76.67,18.34,76.5,18.61,76.36,19z
			 M79.3,20.78c-0.28,0.09-0.73,0.21-1.34,0.34c-0.61,0.13-1.01,0.26-1.2,0.38c-0.29,0.2-0.43,0.46-0.43,0.77
			c0,0.31,0.11,0.57,0.34,0.8c0.23,0.22,0.52,0.34,0.88,0.34c0.4,0,0.77-0.13,1.13-0.39c0.27-0.2,0.44-0.44,0.52-0.73
			c0.06-0.19,0.09-0.54,0.09-1.07V20.78z"/>
		<path class="st1" d="M88.06,15.34v-2.03h2.2v2.03H88.06z M88.06,24.76v-8.3h2.2v8.3H88.06z"/>
		<path class="st1" d="M91.74,22.39l2.2-0.34c0.09,0.43,0.28,0.75,0.57,0.97c0.29,0.22,0.69,0.33,1.2,0.33
			c0.57,0,0.99-0.1,1.28-0.31c0.19-0.15,0.29-0.34,0.29-0.59c0-0.17-0.05-0.3-0.16-0.41c-0.11-0.1-0.35-0.2-0.73-0.29
			c-1.77-0.39-2.89-0.75-3.37-1.07c-0.66-0.45-0.98-1.07-0.98-1.87c0-0.72,0.28-1.32,0.85-1.81c0.57-0.49,1.45-0.73,2.64-0.73
			c1.14,0,1.98,0.19,2.53,0.55c0.55,0.37,0.93,0.92,1.14,1.64l-2.07,0.38c-0.09-0.32-0.26-0.57-0.5-0.74
			c-0.25-0.17-0.6-0.26-1.06-0.26c-0.58,0-0.99,0.08-1.24,0.24c-0.17,0.11-0.25,0.26-0.25,0.45c0,0.16,0.07,0.29,0.22,0.4
			c0.2,0.15,0.88,0.35,2.05,0.62c1.17,0.27,1.99,0.59,2.45,0.98c0.46,0.39,0.69,0.94,0.69,1.63c0,0.76-0.32,1.41-0.95,1.96
			c-0.64,0.55-1.58,0.82-2.82,0.82c-1.13,0-2.02-0.23-2.68-0.69C92.37,23.8,91.94,23.18,91.74,22.39z"/>
		<path class="st1" d="M111.2,20.55v-1.93h4.98v4.56c-0.48,0.47-1.19,0.88-2.11,1.24c-0.92,0.36-1.85,0.54-2.79,0.54
			c-1.2,0-2.24-0.25-3.13-0.75c-0.89-0.5-1.56-1.22-2.01-2.16c-0.45-0.93-0.67-1.95-0.67-3.05c0-1.19,0.25-2.25,0.75-3.18
			c0.5-0.93,1.23-1.64,2.2-2.13c0.73-0.38,1.65-0.57,2.74-0.57c1.42,0,2.53,0.3,3.33,0.89c0.8,0.6,1.31,1.42,1.54,2.47l-2.3,0.43
			c-0.16-0.56-0.46-1.01-0.91-1.33c-0.45-0.33-1-0.49-1.67-0.49c-1.01,0-1.81,0.32-2.41,0.96c-0.6,0.64-0.89,1.59-0.89,2.85
			c0,1.36,0.3,2.38,0.91,3.06c0.6,0.68,1.4,1.02,2.38,1.02c0.48,0,0.97-0.09,1.46-0.29c0.49-0.19,0.9-0.42,1.25-0.69v-1.45H111.2z"
			/>
		<path class="st1" d="M120.4,24.76h-2.2v-8.3h2.04v1.18c0.35-0.56,0.66-0.92,0.94-1.1c0.28-0.18,0.59-0.27,0.95-0.27
			c0.5,0,0.98,0.14,1.45,0.41l-0.68,1.91c-0.37-0.24-0.71-0.36-1.03-0.36c-0.31,0-0.57,0.08-0.78,0.25
			c-0.21,0.17-0.38,0.48-0.5,0.92c-0.12,0.44-0.18,1.37-0.18,2.78V24.76z"/>
		<path class="st1" d="M126.17,19l-1.99-0.36c0.22-0.8,0.61-1.4,1.16-1.78c0.55-0.39,1.36-0.58,2.44-0.58
			c0.98,0,1.71,0.12,2.19,0.35c0.48,0.23,0.82,0.53,1.01,0.88c0.2,0.36,0.29,1.01,0.29,1.96l-0.02,2.56c0,0.73,0.04,1.27,0.11,1.61
			c0.07,0.35,0.2,0.72,0.39,1.11h-2.17c-0.06-0.15-0.13-0.36-0.21-0.65c-0.04-0.13-0.06-0.22-0.08-0.26
			c-0.38,0.36-0.78,0.64-1.2,0.82c-0.43,0.18-0.88,0.27-1.37,0.27c-0.85,0-1.53-0.23-2.02-0.7c-0.49-0.46-0.74-1.05-0.74-1.76
			c0-0.47,0.11-0.89,0.34-1.25c0.22-0.37,0.54-0.65,0.94-0.84c0.4-0.2,0.99-0.37,1.75-0.51c1.03-0.19,1.74-0.37,2.13-0.54v-0.22
			c0-0.42-0.1-0.72-0.31-0.9c-0.21-0.18-0.6-0.27-1.18-0.27c-0.39,0-0.7,0.08-0.91,0.23C126.48,18.34,126.3,18.61,126.17,19z
			 M129.1,20.78c-0.28,0.09-0.73,0.21-1.34,0.34c-0.61,0.13-1.01,0.26-1.2,0.38c-0.29,0.2-0.43,0.46-0.43,0.77
			c0,0.31,0.11,0.57,0.34,0.8c0.23,0.22,0.52,0.34,0.88,0.34c0.4,0,0.77-0.13,1.13-0.39c0.27-0.2,0.44-0.44,0.52-0.73
			c0.06-0.19,0.09-0.54,0.09-1.07V20.78z"/>
		<path class="st1" d="M135.71,24.76l-3.34-8.3h2.3l1.56,4.23l0.45,1.41c0.12-0.36,0.2-0.6,0.23-0.71c0.07-0.23,0.15-0.47,0.23-0.7
			l1.58-4.23h2.26l-3.3,8.3H135.71z"/>
		<path class="st1" d="M142.32,15.34v-2.03h2.2v2.03H142.32z M142.32,24.76v-8.3h2.2v8.3H142.32z"/>
		<path class="st1" d="M154.31,24.76h-2.2v-4.23c0-0.9-0.05-1.48-0.14-1.74c-0.09-0.26-0.25-0.47-0.46-0.61
			c-0.21-0.15-0.46-0.22-0.76-0.22c-0.38,0-0.72,0.1-1.02,0.31c-0.3,0.21-0.51,0.48-0.62,0.83c-0.11,0.34-0.17,0.98-0.17,1.91v3.76
			h-2.2v-8.3h2.04v1.22c0.72-0.94,1.64-1.41,2.73-1.41c0.48,0,0.93,0.09,1.33,0.26c0.4,0.17,0.7,0.4,0.91,0.67
			c0.21,0.27,0.35,0.58,0.43,0.92c0.08,0.34,0.12,0.84,0.12,1.48V24.76z"/>
		<path class="st1" d="M156.34,25.31l2.51,0.3c0.04,0.29,0.14,0.49,0.29,0.6c0.21,0.16,0.54,0.23,0.98,0.23c0.57,0,1-0.09,1.29-0.26
			c0.19-0.11,0.34-0.3,0.44-0.55c0.07-0.18,0.1-0.52,0.1-1.01v-1.21c-0.66,0.9-1.48,1.34-2.48,1.34c-1.11,0-2-0.47-2.65-1.41
			c-0.51-0.74-0.77-1.67-0.77-2.78c0-1.39,0.33-2.45,1-3.19c0.67-0.73,1.5-1.1,2.5-1.1c1.03,0,1.87,0.45,2.54,1.35v-1.16h2.05v7.45
			c0,0.98-0.08,1.71-0.24,2.2c-0.16,0.48-0.39,0.86-0.68,1.14c-0.29,0.28-0.68,0.49-1.17,0.65c-0.49,0.16-1.1,0.23-1.85,0.23
			c-1.41,0-2.4-0.24-2.99-0.72c-0.59-0.48-0.88-1.09-0.88-1.83C156.33,25.5,156.33,25.41,156.34,25.31z M158.3,20.44
			c0,0.88,0.17,1.52,0.51,1.93c0.34,0.41,0.76,0.61,1.26,0.61c0.54,0,0.99-0.21,1.36-0.63c0.37-0.42,0.55-1.04,0.55-1.86
			c0-0.86-0.18-1.5-0.53-1.91c-0.35-0.42-0.8-0.62-1.34-0.62c-0.53,0-0.96,0.2-1.3,0.61C158.47,18.98,158.3,19.6,158.3,20.44z"/>
	</g>
</g>
</svg>
