<?xml version="1.0" encoding="utf-8"?>
<!-- Generator: Adobe Illustrator 25.2.3, SVG Export Plug-In . SVG Version: 6.00 Build 0)  -->
<svg version="1.1" xmlns="http://www.w3.org/2000/svg" xmlns:xlink="http://www.w3.org/1999/xlink" x="0px" y="0px"
	 viewBox="0 0 735.14 325.14" style="enable-background:new 0 0 735.14 325.14;" xml:space="preserve">
<style type="text/css">
	.st0{fill:none;stroke:#000000;stroke-width:0.25;stroke-miterlimit:10;}
	.st1{font-family:'Arial-BoldMT';}
	.st2{font-size:18px;}
</style>
<g id="cut">
	<g>
		<line class="st0" x1="347.15" y1="148.4" x2="347.15" y2="148.4"/>
		<path class="st0" d="M726.5,201.4L698.78,44.17c-0.72-4.06-4.25-7.03-8.37-7.03H465.73l-26.48-4.64c-0.77-0.13-1.5,0.38-1.64,1.15
			L435.78,44l-6.46,2.35l-5.27-4.42l0.43-2.53c0.21-1.19-0.59-2.33-1.78-2.54c-1.19-0.21-2.32,0.58-2.54,1.77l-7.11,39.83
			c-0.41,2.31-2.62,3.85-4.93,3.44l-43.56-7.7c-0.77-0.14-1.51,0.38-1.64,1.15l-1.69,9.59l-6.46,2.35l-5.27-4.42l1.69-9.6
			c0.14-0.77-0.38-1.51-1.15-1.64l-17.37-3.07c-0.77-0.14-1.51,0.38-1.64,1.15l-1.69,9.56l-6.46,2.35l-5.27-4.42l1.69-9.57
			c0.14-0.77-0.38-1.51-1.15-1.64l-2.47-0.44c-0.72-0.13-1.36-0.53-1.79-1.11l-1.62-2.21c-0.43-0.59-1.07-0.99-1.79-1.11
			l-34.91-6.16c-0.94-0.17-1.73-0.79-2.11-1.67l-2.34-5.42c-0.38-0.87-1.17-1.5-2.1-1.67l-50.99-9.08l-173.22,0
			c-4.13,0-7.66,2.96-8.37,7.02L8.64,201.4c-0.82,4.63,2.27,9.04,6.9,9.86l53.31,9.38c0.71,0.13,1.44,0.11,2.15-0.04l23.98-5.06
			c0.71-0.15,1.45-0.16,2.17-0.03L196.1,233c2.94,0.52,5.39,2.54,6.46,5.33l22.09,57.51c0.33,0.84,1.04,1.48,1.91,1.71l71.39,19.08
			h139.43l71.26-19.08c0.87-0.23,1.58-0.87,1.91-1.71l22.1-57.51c1.07-2.78,3.52-4.8,6.46-5.32l99.04-17.5
			c0.72-0.13,1.46-0.12,2.17,0.04l23.86,5.06c0.71,0.15,1.44,0.16,2.16,0.04l53.26-9.38C724.23,210.44,727.32,206.03,726.5,201.4z
			 M701.75,146.04l-38.8,6.84l-7.33-41.59l38.8-6.84L701.75,146.04z M630.13,50.87l5.5,31.2c0.35,1.99,2.63,3,4.32,1.89
			c1.34-0.89,2.94-1.4,4.67-1.4c0.68,0,1.34,0.08,1.97,0.23c1.97,0.47,3.76-1.26,3.41-3.25l-3.78-21.43l38.8-6.84l7.33,41.59
			l-38.8,6.84l-0.02-0.13c-0.33-1.87-2.48-2.66-4.02-1.56c-1.38,0.98-3.07,1.55-4.9,1.55c-4.14,0-7.59-2.97-8.35-6.89l-37.61,6.63
			l-7.33-41.59L630.13,50.87z M575.23,50.48l7.33,41.59l-38.8,6.84l-7.33-41.59L575.23,50.48z M520.33,50.1l7.33,41.59l-38.8,6.84
			l-7.33-41.59L520.33,50.1z M494.96,217.19l-38.8,6.84l-7.33-41.59l38.8-6.84L494.96,217.19z M485.58,164.01l-38.8,6.84
			l-7.33-41.59l38.8-6.84L485.58,164.01z M440.65,46.86l1.23-6.98c0.2-1.16,1.31-1.93,2.46-1.72l19.85,3.49
			c1.16,0.2,1.93,1.31,1.72,2.46l-1.23,6.98c-0.2,1.16-1.31,1.93-2.46,1.72l-19.85-3.49C441.21,49.12,440.44,48.02,440.65,46.86z
			 M249.55,164.01l7.33-41.59l38.8,6.84l-7.33,41.59L249.55,164.01z M286.31,182.43l-7.33,41.59l-38.8-6.84l7.33-41.59
			L286.31,182.43z M214.8,50.08l38.8,6.84l-7.33,41.59l-38.8-6.84L214.8,50.08z M159.9,50.48l38.8,6.84l-7.33,41.59l-38.8-6.84
			L159.9,50.48z M50.1,51.26l38.8,6.84l-3.78,21.43c-0.35,1.99,1.44,3.72,3.41,3.25c0.63-0.15,1.3-0.23,1.98-0.23
			c1.73,0,3.33,0.52,4.67,1.4c1.69,1.12,3.97,0.1,4.32-1.89l5.5-31.2l38.8,6.84l-7.33,41.59l-37.61-6.63
			c-0.75,3.92-4.2,6.89-8.35,6.89c-1.83,0-3.51-0.58-4.9-1.56c-1.55-1.1-3.7-0.31-4.03,1.56l-0.02,0.13l-38.8-6.84L50.1,51.26z
			 M40.72,104.44l38.8,6.84l-7.33,41.59l-38.8-6.84L40.72,104.44z M117.72,205.67l-38.21-6.74c-0.54,4.18-4.1,7.42-8.43,7.42
			c-1.88,0-3.61-0.61-5.02-1.64c-1.23-0.9-2.96-0.27-3.22,1.23l-0.02,0.12l-38.8-6.84l7.33-41.59l38.8,6.84l-3.84,21.78
			c-0.34,1.95,1.38,3.55,3.34,3.22c0.47-0.08,0.94-0.12,1.43-0.12c1.89,0,3.63,0.61,5.04,1.65c1.7,1.26,4.13,0.32,4.49-1.77
			l5.64-31.99l38.8,6.84L117.72,205.67z M88.29,145.65l7.33-41.59l38.8,6.84l-7.33,41.59L88.29,145.65z M179.71,165.07l-7.09,40.2
			l-38.8-6.84l0.25-1.4l6.84-38.8h0l0.25-1.4l38.8,6.84L179.71,165.07z M182.05,152.05l-0.01,0.04l-38.8-6.84l7.33-41.59l38.8,6.84
			l-3.79,21.51c-0.35,1.99,1.44,3.71,3.4,3.25c0.61-0.14,1.26-0.22,1.91-0.22c1.73,0,3.34,0.52,4.68,1.41
			c1.69,1.12,3.97,0.11,4.32-1.89l5.52-31.3l38.8,6.84l-7.33,41.59l-37.62-6.63c-0.72,3.97-4.18,6.99-8.36,6.99
			c-1.82,0-3.51-0.57-4.89-1.55C184.49,149.42,182.38,150.22,182.05,152.05z M188.71,198.04l7.33-41.59l38.8,6.84l-7.33,41.59
			L188.71,198.04z M237.49,237.15c-4.07,0-7.37-3.3-7.37-7.37s3.3-7.37,7.37-7.37s7.37,3.3,7.37,7.37S241.56,237.15,237.49,237.15z
			 M280.89,298.31l-38.06-10.2l10.93-40.8l38.06,10.2L280.89,298.31z M413.77,283.6h-0.02l0,20.42l-8.66,0
			c-0.72,1.33-2.11,2.25-3.73,2.25s-3.01-0.92-3.73-2.25l-6.07,0v-1.37l-48.01,0v1.37l-6.14,0c-0.72,1.33-2.11,2.25-3.73,2.25
			s-3.01-0.92-3.73-2.25l-8.56,0l0.01-51.73l92.35-0.01l0,23.43h0.02V283.6z M404.7,243.18l-3.11-17.62l-15.6,9
			c-0.65,0.38-1.39,0.58-2.14,0.58h-9.6c0.44,0.95,0.7,2,0.7,3.12c0,4.07-3.3,7.37-7.37,7.37c-4.07,0-7.37-3.3-7.37-7.37
			c0-1.24,0.68-3.12,0.68-3.12h-9.57c-0.75,0-1.49-0.2-2.14-0.58l-15.63-9.02l-3.11,17.63l-38.8-6.84l7.33-41.59l38.8,6.84
			l2.04-11.59l-38.8-6.84l7.33-41.59l38.8,6.84l2.04-11.59l-38.8-6.84l0-0.02c0.32-1.79-1.38-3.19-3.12-2.66
			c-1.3,0.39-2.72,0.48-4.2,0.18c-3.12-0.62-5.67-3.04-6.47-6.11c-0.35-1.36-0.36-2.69-0.12-3.91l-37.56-6.62l7.33-41.59l38.8,6.84
			l-5.56,31.53c-0.35,1.99,1.43,3.71,3.4,3.25c0.61-0.14,1.25-0.22,1.91-0.22c1.74,0,3.36,0.52,4.7,1.42
			c1.7,1.13,3.99,0.14,4.35-1.87l3.85-21.82l38.8,6.84l-1.83,10.39l25.75,0l-1.83-10.39l38.8-6.84l3.84,21.79
			c0.35,1.99,2.63,3.01,4.32,1.89c1.34-0.89,2.95-1.41,4.68-1.41c0.68,0,1.33,0.08,1.97,0.23c1.97,0.47,3.76-1.26,3.41-3.25
			l-5.56-31.55l38.8-6.84l7.33,41.59l-37.62,6.63c0.25,1.23,0.24,2.55-0.12,3.91c-0.8,3.07-3.34,5.48-6.44,6.11
			c-1.49,0.3-2.92,0.21-4.22-0.18c-1.71-0.52-3.38,0.88-3.07,2.64l0.01,0.04l-38.8,6.84l2.04,11.59l38.8-6.84l7.33,41.59l-38.8,6.84
			l2.04,11.59l38.8-6.84l7.33,41.59L404.7,243.18z M454.24,298.31l-10.93-40.8l38.06-10.2l10.93,40.8L454.24,298.31z M497.65,237.16
			c-4.07,0-7.37-3.3-7.37-7.37s3.3-7.37,7.37-7.37s7.37,3.3,7.37,7.37S501.72,237.16,497.65,237.16z M507.61,204.88l-7.33-41.59
			l38.8-6.84l7.33,41.59L507.61,204.88z M553.13,152.06c-0.33-1.87-2.47-2.65-4.02-1.56c-1.38,0.98-3.07,1.55-4.89,1.55
			c-4.18,0-7.64-3.01-8.36-6.98l-37.63,6.63l-7.33-41.59l38.8-6.84l5.52,31.3c0.35,1.99,2.63,3.01,4.32,1.89
			c1.34-0.89,2.95-1.41,4.68-1.41c0.68,0,1.33,0.08,1.96,0.23c1.97,0.47,3.76-1.26,3.41-3.25l-3.79-21.52l38.8-6.84l7.33,41.59
			l-38.8,6.84L553.13,152.06z M562.52,205.27l-7.33-41.59l38.8-6.84l7.33,41.59L562.52,205.27z M600.71,110.89l38.8-6.84l7.33,41.59
			l-38.8,6.84L600.71,110.89z M672.32,206.06l-0.02-0.12c-0.26-1.5-2-2.13-3.22-1.23c-1.41,1.03-3.14,1.64-5.01,1.64
			c-4.33,0-7.89-3.23-8.43-7.42l-38.22,6.74l-7.33-41.59l38.8-6.84l5.64,32c0.37,2.09,2.79,3.02,4.5,1.76
			c1.41-1.04,3.15-1.65,5.04-1.65c0.49,0,0.97,0.04,1.43,0.12c1.95,0.33,3.68-1.26,3.33-3.21l-3.84-21.78l38.8-6.84l4.59,26.03
			l2.75,15.57L672.32,206.06z"/>
	</g>
</g>
<g id="note">
	<text transform="matrix(1 0 0 1 8.5039 267.4001)"><tspan x="0" y="0" class="st1 st2">W : 253.341 mm</tspan><tspan x="0" y="24" class="st1 st2">H : 100.245 mm</tspan></text>
</g>
</svg>
