  0
SECTION
  2
HEADER
  9
$ACADVER
  1
AC1032
  9
$ACADMAINTVER
 90
      110
  9
$DWGCODEPAGE
  3
ANSI_932
  9
$REQUIREDVERSIONS
160
                 0
  9
$INSBASE
 10
0.0
 20
0.0
 30
0.0
  9
$EXTMIN
 10
1.000000000000000E+20
 20
1.000000000000000E+20
 30
1.000000000000000E+20
  9
$EXTMAX
 10
-1.000000000000000E+20
 20
-1.000000000000000E+20
 30
-1.000000000000000E+20
  9
$LIMMIN
 10
0.0
 20
0.0
  9
$LIMMAX
 10
12.0
 20
9.0
  9
$ORTHOMODE
 70
     0
  9
$REGENMODE
 70
     1
  9
$FILLMODE
 70
     1
  9
$QTEXTMODE
 70
     0
  9
$MIRRTEXT
 70
     0
  9
$LTSCALE
 40
1.0
  9
$ATTMODE
 70
     1
  9
$TEXTSIZE
 40
0.2
  9
$TRACEWID
 40
0.05
  9
$TEXTSTYLE
  7
Standard
  9
$CLAYER
  8
0
  9
$CELTYPE
  6
ByLayer
  9
$CECOLOR
 62
   256
  9
$CELTSCALE
 40
1.0
  9
$DISPSILH
 70
     0
  9
$DIMSCALE
 40
1.0
  9
$DIMASZ
 40
0.18
  9
$DIMEXO
 40
0.0625
  9
$DIMDLI
 40
0.38
  9
$DIMRND
 40
0.0
  9
$DIMDLE
 40
0.0
  9
$DIMEXE
 40
0.18
  9
$DIMTP
 40
0.0
  9
$DIMTM
 40
0.0
  9
$DIMTXT
 40
0.18
  9
$DIMCEN
 40
0.09
  9
$DIMTSZ
 40
0.0
  9
$DIMTOL
 70
     0
  9
$DIMLIM
 70
     0
  9
$DIMTIH
 70
     1
  9
$DIMTOH
 70
     1
  9
$DIMSE1
 70
     0
  9
$DIMSE2
 70
     0
  9
$DIMTAD
 70
     0
  9
$DIMZIN
 70
     0
  9
$DIMBLK
  1

  9
$DIMASO
 70
     1
  9
$DIMSHO
 70
     1
  9
$DIMPOST
  1

  9
$DIMAPOST
  1

  9
$DIMALT
 70
     0
  9
$DIMALTD
 70
     2
  9
$DIMALTF
 40
25.4
  9
$DIMLFAC
 40
1.0
  9
$DIMTOFL
 70
     0
  9
$DIMTVP
 40
0.0
  9
$DIMTIX
 70
     0
  9
$DIMSOXD
 70
     0
  9
$DIMSAH
 70
     0
  9
$DIMBLK1
  1

  9
$DIMBLK2
  1

  9
$DIMSTYLE
  2
Standard
  9
$DIMCLRD
 70
     0
  9
$DIMCLRE
 70
     0
  9
$DIMCLRT
 70
     0
  9
$DIMTFAC
 40
1.0
  9
$DIMGAP
 40
0.09
  9
$DIMJUST
 70
     0
  9
$DIMSD1
 70
     0
  9
$DIMSD2
 70
     0
  9
$DIMTOLJ
 70
     1
  9
$DIMTZIN
 70
     0
  9
$DIMALTZ
 70
     0
  9
$DIMALTTZ
 70
     0
  9
$DIMUPT
 70
     0
  9
$DIMDEC
 70
     4
  9
$DIMTDEC
 70
     4
  9
$DIMALTU
 70
     2
  9
$DIMALTTD
 70
     2
  9
$DIMTXSTY
  7
Standard
  9
$DIMAUNIT
 70
     0
  9
$DIMADEC
 70
     0
  9
$DIMALTRND
 40
0.0
  9
$DIMAZIN
 70
     0
  9
$DIMDSEP
 70
    46
  9
$DIMATFIT
 70
     3
  9
$DIMFRAC
 70
     0
  9
$DIMLDRBLK
  1

  9
$DIMLUNIT
 70
     2
  9
$DIMLWD
 70
    -2
  9
$DIMLWE
 70
    -2
  9
$DIMTMOVE
 70
     0
  9
$DIMFXL
 40
1.0
  9
$DIMFXLON
 70
     0
  9
$DIMJOGANG
 40
0.7853981633974483
  9
$DIMTFILL
 70
     0
  9
$DIMTFILLCLR
 70
     0
  9
$DIMARCSYM
 70
     0
  9
$DIMLTYPE
  6

  9
$DIMLTEX1
  6

  9
$DIMLTEX2
  6

  9
$DIMTXTDIRECTION
 70
     0
  9
$LUNITS
 70
     2
  9
$LUPREC
 70
     4
  9
$SKETCHINC
 40
0.1
  9
$FILLETRAD
 40
0.0
  9
$AUNITS
 70
     0
  9
$AUPREC
 70
     0
  9
$MENU
  1
.
  9
$ELEVATION
 40
0.0
  9
$PELEVATION
 40
0.0
  9
$THICKNESS
 40
0.0
  9
$LIMCHECK
 70
     0
  9
$CHAMFERA
 40
0.0
  9
$CHAMFERB
 40
0.0
  9
$CHAMFERC
 40
0.0
  9
$CHAMFERD
 40
0.0
  9
$SKPOLY
 70
     0
  9
$TDCREATE
 40
2459324.406388889
  9
$TDUCREATE
 40
2459324.031388889
  9
$TDUPDATE
 40
2459324.406388889
  9
$TDUUPDATE
 40
2459324.031388889
  9
$TDINDWG
 40
0.0000000000
  9
$TDUSRTIMER
 40
0.0000000000
  9
$USRTIMER
 70
     1
  9
$ANGBASE
 50
0.0
  9
$ANGDIR
 70
     0
  9
$PDMODE
 70
     0
  9
$PDSIZE
 40
0.0
  9
$PLINEWID
 40
0.0
  9
$SPLFRAME
 70
     0
  9
$SPLINETYPE
 70
     6
  9
$SPLINESEGS
 70
     8
  9
$HANDSEED
  5
D8
  9
$SURFTAB1
 70
     6
  9
$SURFTAB2
 70
     6
  9
$SURFTYPE
 70
     6
  9
$SURFU
 70
     6
  9
$SURFV
 70
     6
  9
$UCSBASE
  2

  9
$UCSNAME
  2

  9
$UCSORG
 10
0.0
 20
0.0
 30
0.0
  9
$UCSXDIR
 10
1.0
 20
0.0
 30
0.0
  9
$UCSYDIR
 10
0.0
 20
1.0
 30
0.0
  9
$UCSORTHOREF
  2

  9
$UCSORTHOVIEW
 70
     0
  9
$UCSORGTOP
 10
0.0
 20
0.0
 30
0.0
  9
$UCSORGBOTTOM
 10
0.0
 20
0.0
 30
0.0
  9
$UCSORGLEFT
 10
0.0
 20
0.0
 30
0.0
  9
$UCSORGRIGHT
 10
0.0
 20
0.0
 30
0.0
  9
$UCSORGFRONT
 10
0.0
 20
0.0
 30
0.0
  9
$UCSORGBACK
 10
0.0
 20
0.0
 30
0.0
  9
$PUCSBASE
  2

  9
$PUCSNAME
  2

  9
$PUCSORG
 10
0.0
 20
0.0
 30
0.0
  9
$PUCSXDIR
 10
1.0
 20
0.0
 30
0.0
  9
$PUCSYDIR
 10
0.0
 20
1.0
 30
0.0
  9
$PUCSORTHOREF
  2

  9
$PUCSORTHOVIEW
 70
     0
  9
$PUCSORGTOP
 10
0.0
 20
0.0
 30
0.0
  9
$PUCSORGBOTTOM
 10
0.0
 20
0.0
 30
0.0
  9
$PUCSORGLEFT
 10
0.0
 20
0.0
 30
0.0
  9
$PUCSORGRIGHT
 10
0.0
 20
0.0
 30
0.0
  9
$PUCSORGFRONT
 10
0.0
 20
0.0
 30
0.0
  9
$PUCSORGBACK
 10
0.0
 20
0.0
 30
0.0
  9
$USERI1
 70
     0
  9
$USERI2
 70
     0
  9
$USERI3
 70
     0
  9
$USERI4
 70
     0
  9
$USERI5
 70
     0
  9
$USERR1
 40
0.0
  9
$USERR2
 40
0.0
  9
$USERR3
 40
0.0
  9
$USERR4
 40
0.0
  9
$USERR5
 40
0.0
  9
$WORLDVIEW
 70
     1
  9
$SHADEDGE
 70
     3
  9
$SHADEDIF
 70
    70
  9
$TILEMODE
 70
     1
  9
$MAXACTVP
 70
    64
  9
$PINSBASE
 10
0.0
 20
0.0
 30
0.0
  9
$PLIMCHECK
 70
     0
  9
$PEXTMIN
 10
1.000000000000000E+20
 20
1.000000000000000E+20
 30
1.000000000000000E+20
  9
$PEXTMAX
 10
-1.000000000000000E+20
 20
-1.000000000000000E+20
 30
-1.000000000000000E+20
  9
$PLIMMIN
 10
0.0
 20
0.0
  9
$PLIMMAX
 10
12.0
 20
9.0
  9
$UNITMODE
 70
     0
  9
$VISRETAIN
 70
     1
  9
$PLINEGEN
 70
     0
  9
$PSLTSCALE
 70
     1
  9
$TREEDEPTH
 70
  3020
  9
$CMLSTYLE
  2
Standard
  9
$CMLJUST
 70
     0
  9
$CMLSCALE
 40
1.0
  9
$PROXYGRAPHICS
 70
     1
  9
$MEASUREMENT
 70
     0
  9
$CELWEIGHT
370
    -1
  9
$ENDCAPS
280
     0
  9
$JOINSTYLE
280
     0
  9
$LWDISPLAY
290
     1
  9
$INSUNITS
 70
     4
  9
$HYPERLINKBASE
  1

  9
$STYLESHEET
  1

  9
$XEDIT
290
     1
  9
$CEPSNTYPE
380
     0
  9
$PSTYLEMODE
290
     1
  9
$FINGERPRINTGUID
  2
{08C41E3C-0DE8-0C49-970D-33292D35F86F}
  9
$VERSIONGUID
  2
{7AE05F86-4B71-C64D-B62F-4158ACA3D524}
  9
$EXTNAMES
290
     1
  9
$PSVPSCALE
 40
0.0
  9
$OLESTARTUP
290
     0
  9
$SORTENTS
280
   127
  9
$INDEXCTL
280
     0
  9
$HIDETEXT
280
     1
  9
$XCLIPFRAME
280
     2
  9
$HALOGAP
280
     0
  9
$OBSCOLOR
 70
   257
  9
$OBSLTYPE
280
     0
  9
$INTERSECTIONDISPLAY
280
     0
  9
$INTERSECTIONCOLOR
 70
   257
  9
$DIMASSOC
280
     2
  9
$PROJECTNAME
  1

  9
$CAMERADISPLAY
290
     0
  9
$LENSLENGTH
 40
50.0
  9
$CAMERAHEIGHT
 40
0.0
  9
$STEPSPERSEC
 40
2.0
  9
$STEPSIZE
 40
6.0
  9
$3DDWFPREC
 40
2.0
  9
$PSOLWIDTH
 40
0.25
  9
$PSOLHEIGHT
 40
4.0
  9
$LOFTANG1
 40
1.570796326794896
  9
$LOFTANG2
 40
1.570796326794896
  9
$LOFTMAG1
 40
0.0
  9
$LOFTMAG2
 40
0.0
  9
$LOFTPARAM
 70
     7
  9
$LOFTNORMALS
280
     1
  9
$LATITUDE
 40
37.795
  9
$LONGITUDE
 40
-122.394
  9
$NORTHDIRECTION
 40
0.0
  9
$TIMEZONE
 70
 -8000
  9
$LIGHTGLYPHDISPLAY
280
     1
  9
$TILEMODELIGHTSYNCH
280
     1
  9
$CMATERIAL
347
11
  9
$SOLIDHIST
280
     0
  9
$SHOWHIST
280
     1
  9
$DWFFRAME
280
     2
  9
$DGNFRAME
280
     0
  9
$REALWORLDSCALE
290
     1
  9
$INTERFERECOLOR
 62
     1
  9
$INTERFEREOBJVS
345
33
  9
$INTERFEREVPVS
346
30
  9
$CSHADOW
280
     0
  9
$SHADOWPLANELOCATION
 40
0.0
  0
ENDSEC
  0
SECTION
  2
CLASSES
  0
CLASS
  1
ACDBDICTIONARYWDFLT
  2
AcDbDictionaryWithDefault
  3
ObjectDBX Classes
 90
        0
 91
        1
280
     0
281
     0
  0
CLASS
  1
MATERIAL
  2
AcDbMaterial
  3
ObjectDBX Classes
 90
     1153
 91
        3
280
     0
281
     0
  0
CLASS
  1
VISUALSTYLE
  2
AcDbVisualStyle
  3
ObjectDBX Classes
 90
     4095
 91
       24
280
     0
281
     0
  0
CLASS
  1
SCALE
  2
AcDbScale
  3
ObjectDBX Classes
 90
     1153
 91
       17
280
     0
281
     0
  0
CLASS
  1
TABLESTYLE
  2
AcDbTableStyle
  3
ObjectDBX Classes
 90
     4095
 91
        1
280
     0
281
     0
  0
CLASS
  1
MLEADERSTYLE
  2
AcDbMLeaderStyle
  3
ACDB_MLEADERSTYLE_CLASS
 90
     4095
 91
        1
280
     0
281
     0
  0
CLASS
  1
ACDBSECTIONVIEWSTYLE
  2
AcDbSectionViewStyle
  3
ObjectDBX Classes
 90
     1025
 91
        1
280
     0
281
     0
  0
CLASS
  1
ACDBDETAILVIEWSTYLE
  2
AcDbDetailViewStyle
  3
ObjectDBX Classes
 90
     1025
 91
        1
280
     0
281
     0
  0
CLASS
  1
DICTIONARYVAR
  2
AcDbDictionaryVar
  3
ObjectDBX Classes
 90
        0
 91
        5
280
     0
281
     0
  0
CLASS
  1
CELLSTYLEMAP
  2
AcDbCellStyleMap
  3
ObjectDBX Classes
 90
     1152
 91
        1
280
     0
281
     0
  0
ENDSEC
  0
SECTION
  2
TABLES
  0
TABLE
  2
VPORT
  5
8
330
0
100
AcDbSymbolTable
 70
     1
  0
VPORT
  5
57
330
8
100
AcDbSymbolTableRecord
100
AcDbViewportTableRecord
  2
*Active
 70
     0
 10
0.0
 20
0.0
 11
1.0
 21
1.0
 12
0.0
 22
0.0
 13
0.0
 23
0.0
 14
1.0
 24
1.0
 15
0.0
 25
0.0
 16
0.0
 26
0.0
 36
1.0
 17
150.0001472298444
 27
-154.130268076765
 37
0.0
 40
103.2704291460913
 41
2.503110210242838
 42
50.0
 43
0.0
 44
0.0
 50
0.0
 51
0.0
 71
     0
 72
   100
 73
     1
 74
     0
 75
     1
 76
     0
 77
     0
 78
     0
281
     0
 65
     1
110
0.0
120
0.0
130
0.0
111
1.0
121
0.0
131
0.0
112
0.0
122
1.0
132
0.0
 79
     0
146
0.0
 60
     3
 61
     5
292
     1
282
     1
141
0.0
142
0.0
 63
   250
421
  3355443
  0
ENDTAB
  0
TABLE
  2
LTYPE
  5
5
330
0
100
AcDbSymbolTable
 70
     1
  0
LTYPE
  5
5B
330
5
100
AcDbSymbolTableRecord
100
AcDbLinetypeTableRecord
  2
ByBlock
 70
     0
  3

 72
    65
 73
     0
 40
0.0
  0
LTYPE
  5
5C
330
5
100
AcDbSymbolTableRecord
100
AcDbLinetypeTableRecord
  2
ByLayer
 70
     0
  3

 72
    65
 73
     0
 40
0.0
  0
LTYPE
  5
5D
330
5
100
AcDbSymbolTableRecord
100
AcDbLinetypeTableRecord
  2
Continuous
 70
     0
  3
Solid line
 72
    65
 73
     0
 40
0.0
  0
ENDTAB
  0
TABLE
  2
LAYER
  5
2
330
0
100
AcDbSymbolTable
 70
     2
  0
LAYER
  5
54
330
2
100
AcDbSymbolTableRecord
100
AcDbLayerTableRecord
  2
0
 70
     0
 62
     7
  6
Continuous
370
    -3
390
F
347
21
348
0
  0
LAYER
  5
78
330
2
100
AcDbSymbolTableRecord
100
AcDbLayerTableRecord
  2
top
 70
     0
 62
     7
  6
Continuous
370
     0
390
F
347
21
348
0
  0
ENDTAB
  0
TABLE
  2
STYLE
  5
3
330
0
100
AcDbSymbolTable
 70
     2
  0
STYLE
  5
55
330
3
100
AcDbSymbolTableRecord
100
AcDbTextStyleTableRecord
  2
Standard
 70
     0
 40
0.0
 41
1.0
 50
0.0
 71
     0
 42
0.2
  3
txt
  4

  0
STYLE
  5
5A
330
3
100
AcDbSymbolTableRecord
100
AcDbTextStyleTableRecord
  2
Annotative
 70
     0
 40
0.0
 41
1.0
 50
0.0
 71
     0
 42
0.2
  3
txt
  4

1001
AcadAnnotative
1000
AnnotativeData
1002
{
1070
     1
1070
     1
1002
}
  0
ENDTAB
  0
TABLE
  2
VIEW
  5
6
330
0
100
AcDbSymbolTable
 70
     0
  0
ENDTAB
  0
TABLE
  2
UCS
  5
7
330
0
100
AcDbSymbolTable
 70
     0
  0
ENDTAB
  0
TABLE
  2
APPID
  5
9
330
0
100
AcDbSymbolTable
 70
     2
  0
APPID
  5
56
330
9
100
AcDbSymbolTableRecord
100
AcDbRegAppTableRecord
  2
ACAD
 70
     0
  0
APPID
  5
5E
330
9
100
AcDbSymbolTableRecord
100
AcDbRegAppTableRecord
  2
AcadAnnotative
 70
     0
  0
ENDTAB
  0
TABLE
  2
DIMSTYLE
  5
A
330
0
100
AcDbSymbolTable
 70
     2
100
AcDbDimStyleTable
 71
     0
  0
DIMSTYLE
105
58
330
A
100
AcDbSymbolTableRecord
100
AcDbDimStyleTableRecord
  2
Standard
 70
     0
340
55
  0
DIMSTYLE
105
59
330
A
100
AcDbSymbolTableRecord
100
AcDbDimStyleTableRecord
  2
Annotative
 70
     0
340
55
1001
AcadAnnotative
1000
AnnotativeData
1002
{
1070
     1
1070
     1
1002
}
  0
ENDTAB
  0
TABLE
  2
BLOCK_RECORD
  5
1
330
0
100
AcDbSymbolTable
 70
     1
  0
BLOCK_RECORD
  5
70
330
1
100
AcDbSymbolTableRecord
100
AcDbBlockTableRecord
  2
*Model_Space
340
73
 70
     0
280
     1
281
     0
  0
BLOCK_RECORD
  5
6C
330
1
100
AcDbSymbolTableRecord
100
AcDbBlockTableRecord
  2
*Paper_Space
340
6F
 70
     0
280
     1
281
     0
  0
BLOCK_RECORD
  5
74
330
1
100
AcDbSymbolTableRecord
100
AcDbBlockTableRecord
  2
*Paper_Space0
340
77
 70
     0
280
     1
281
     0
  0
ENDTAB
  0
ENDSEC
  0
SECTION
  2
BLOCKS
  0
BLOCK
  5
71
330
70
100
AcDbEntity
  8
0
100
AcDbBlockBegin
  2
*Model_Space
 70
     0
 10
0.0
 20
0.0
 30
0.0
  3
*Model_Space
  1

  0
ENDBLK
  5
72
330
70
100
AcDbEntity
  8
0
100
AcDbBlockEnd
  0
BLOCK
  5
6D
330
6C
100
AcDbEntity
 67
     1
  8
0
100
AcDbBlockBegin
  2
*Paper_Space
 70
     0
 10
0.0
 20
0.0
 30
0.0
  3
*Paper_Space
  1

  0
ENDBLK
  5
6E
330
6C
100
AcDbEntity
 67
     1
  8
0
100
AcDbBlockEnd
  0
BLOCK
  5
75
330
74
100
AcDbEntity
 67
     1
  8
0
100
AcDbBlockBegin
  2
*Paper_Space0
 70
     0
 10
0.0
 20
0.0
 30
0.0
  3
*Paper_Space0
  1

  0
ENDBLK
  5
76
330
74
100
AcDbEntity
 67
     1
  8
0
100
AcDbBlockEnd
  0
ENDSEC
  0
SECTION
  2
ENTITIES
  0
SPLINE
  5
79
330
70
100
AcDbEntity
  8
top
 62
    18
420
        0
370
     9
100
AcDbSpline
210
0.0
220
0.0
230
1.0
 70
    11
 71
     3
 72
    17
 73
    13
 74
     0
 42
0.0000000001
 43
0.0000000001
 40
0.0
 40
0.0
 40
0.0
 40
0.0
 40
1.0
 40
1.0
 40
1.0
 40
2.0
 40
2.0
 40
2.0
 40
3.0
 40
3.0
 40
3.0
 40
4.0
 40
4.0
 40
4.0
 40
4.0
 10
257.4324777595351
 20
-165.2072931512437
 30
0.0
 10
257.4324777595351
 20
-165.2072931512437
 30
0.0
 10
255.018757735182
 20
-151.5184646227649
 30
0.0
 10
255.018757735182
 20
-151.5184646227649
 30
0.0
 10
255.018757735182
 20
-151.5184646227649
 30
0.0
 10
268.7075862636608
 20
-149.1047661302585
 30
0.0
 10
268.7075862636608
 20
-149.1047661302585
 30
0.0
 10
268.7075862636608
 20
-149.1047661302585
 30
0.0
 10
271.121306288014
 20
-162.7935946587373
 30
0.0
 10
271.121306288014
 20
-162.7935946587373
 30
0.0
 10
271.121306288014
 20
-162.7935946587373
 30
0.0
 10
257.4324777595351
 20
-165.2072931512437
 30
0.0
 10
257.4324777595351
 20
-165.2072931512437
 30
0.0
  0
SPLINE
  5
7A
330
70
100
AcDbEntity
  8
top
 62
    18
420
        0
370
     9
100
AcDbSpline
210
0.0
220
0.0
230
1.0
 70
     9
 71
     3
 72
    17
 73
    13
 74
     0
 42
0.0000000001
 43
0.0000000001
 40
0.0
 40
0.0
 40
0.0
 40
0.0
 40
1.0
 40
1.0
 40
1.0
 40
2.0
 40
2.0
 40
2.0
 40
3.0
 40
3.0
 40
3.0
 40
4.0
 40
4.0
 40
4.0
 40
4.0
 10
254.597013452247
 20
-163.8999870738254
 30
0.0
 10
253.9895139271168
 20
-163.8999870738254
 30
0.0
 10
253.4970159956535
 20
-163.4075106742089
 30
0.0
 10
253.4970159956535
 20
-162.7999896172318
 30
0.0
 10
253.4970159956535
 20
-162.1924900921016
 30
0.0
 10
253.9895139271168
 20
-161.6999921606383
 30
0.0
 10
254.597013452247
 20
-161.6999921606383
 30
0.0
 10
255.2045345092241
 20
-161.6999921606383
 30
0.0
 10
255.6970109088405
 20
-162.1924900921016
 30
0.0
 10
255.6970109088405
 20
-162.7999896172318
 30
0.0
 10
255.6970109088405
 20
-163.4075106742089
 30
0.0
 10
255.2045345092241
 20
-163.8999870738254
 30
0.0
 10
254.597013452247
 20
-163.8999870738254
 30
0.0
  0
SPLINE
  5
7B
330
70
100
AcDbEntity
  8
top
 62
    18
420
        0
370
     9
100
AcDbSpline
210
0.0
220
0.0
230
1.0
 70
    11
 71
     3
 72
    17
 73
    13
 74
     0
 42
0.0000000001
 43
0.0000000001
 40
0.0
 40
0.0
 40
0.0
 40
0.0
 40
1.0
 40
1.0
 40
1.0
 40
2.0
 40
2.0
 40
2.0
 40
3.0
 40
3.0
 40
3.0
 40
4.0
 40
4.0
 40
4.0
 40
4.0
 10
238.0641078777669
 20
-165.0684558031882
 30
0.0
 10
238.0641078777669
 20
-165.0684558031882
 30
0.0
 10
235.6504093852606
 20
-151.3796272747093
 30
0.0
 10
235.6504093852606
 20
-151.3796272747093
 30
0.0
 10
235.6504093852606
 20
-151.3796272747093
 30
0.0
 10
249.3392379137394
 20
-148.965928782203
 30
0.0
 10
249.3392379137394
 20
-148.965928782203
 30
0.0
 10
249.3392379137394
 20
-148.965928782203
 30
0.0
 10
251.7529364062458
 20
-162.6547573106818
 30
0.0
 10
251.7529364062458
 20
-162.6547573106818
 30
0.0
 10
251.7529364062458
 20
-162.6547573106818
 30
0.0
 10
238.0641078777669
 20
-165.0684558031882
 30
0.0
 10
238.0641078777669
 20
-165.0684558031882
 30
0.0
  0
SPLINE
  5
7C
330
70
100
AcDbEntity
  8
top
 62
    18
420
        0
370
     9
100
AcDbSpline
210
0.0
220
0.0
230
1.0
 70
    11
 71
     3
 72
    17
 73
    13
 74
     0
 42
0.0000000001
 43
0.0000000001
 40
0.0
 40
0.0
 40
0.0
 40
0.0
 40
1.0
 40
1.0
 40
1.0
 40
2.0
 40
2.0
 40
2.0
 40
3.0
 40
3.0
 40
3.0
 40
4.0
 40
4.0
 40
4.0
 40
4.0
 10
232.3424071684769
 20
-132.6190368320796
 30
0.0
 10
232.3424071684769
 20
-132.6190368320796
 30
0.0
 10
246.0312356969557
 20
-130.2053383395732
 30
0.0
 10
246.0312356969557
 20
-130.2053383395732
 30
0.0
 10
246.0312356969557
 20
-130.2053383395732
 30
0.0
 10
248.4449557213089
 20
-143.894166868052
 30
0.0
 10
248.4449557213089
 20
-143.894166868052
 30
0.0
 10
248.4449557213089
 20
-143.894166868052
 30
0.0
 10
234.75612719283
 20
-146.3078653605584
 30
0.0
 10
234.75612719283
 20
-146.3078653605584
 30
0.0
 10
234.75612719283
 20
-146.3078653605584
 30
0.0
 10
232.3424071684769
 20
-132.6190368320796
 30
0.0
 10
232.3424071684769
 20
-132.6190368320796
 30
0.0
  0
SPLINE
  5
7D
330
70
100
AcDbEntity
  8
top
 62
    18
420
        0
370
     9
100
AcDbSpline
210
0.0
220
0.0
230
1.0
 70
    11
 71
     3
 72
    17
 73
    13
 74
     0
 42
0.0000000001
 43
0.0000000001
 40
0.0
 40
0.0
 40
0.0
 40
0.0
 40
1.0
 40
1.0
 40
1.0
 40
2.0
 40
2.0
 40
2.0
 40
3.0
 40
3.0
 40
3.0
 40
4.0
 40
4.0
 40
4.0
 40
4.0
 10
218.6957595278456
 20
-164.9296184551326
 30
0.0
 10
218.6957595278456
 20
-164.9296184551326
 30
0.0
 10
216.2820610353392
 20
-151.2407899266538
 30
0.0
 10
216.2820610353392
 20
-151.2407899266538
 30
0.0
 10
216.2820610353392
 20
-151.2407899266538
 30
0.0
 10
229.970889563818
 20
-148.8270914341474
 30
0.0
 10
229.970889563818
 20
-148.8270914341474
 30
0.0
 10
229.970889563818
 20
-148.8270914341474
 30
0.0
 10
232.3845880563244
 20
-162.5159199626262
 30
0.0
 10
232.3845880563244
 20
-162.5159199626262
 30
0.0
 10
232.3845880563244
 20
-162.5159199626262
 30
0.0
 10
218.6957595278456
 20
-164.9296184551326
 30
0.0
 10
218.6957595278456
 20
-164.9296184551326
 30
0.0
  0
SPLINE
  5
7E
330
70
100
AcDbEntity
  8
top
 62
    18
420
        0
370
     9
100
AcDbSpline
210
0.0
220
0.0
230
1.0
 70
    11
 71
     3
 72
    17
 73
    13
 74
     0
 42
0.0000000001
 43
0.0000000001
 40
0.0
 40
0.0
 40
0.0
 40
0.0
 40
1.0
 40
1.0
 40
1.0
 40
2.0
 40
2.0
 40
2.0
 40
3.0
 40
3.0
 40
3.0
 40
4.0
 40
4.0
 40
4.0
 40
4.0
 10
217.0953834838663
 20
-185.0421720254083
 30
0.0
 10
217.0953834838663
 20
-185.0421720254083
 30
0.0
 10
203.1953706021417
 20
-185.0421720254083
 30
0.0
 10
203.1953706021417
 20
-185.0421720254083
 30
0.0
 10
203.1953706021417
 20
-185.0421720254083
 30
0.0
 10
203.1953921339885
 20
-171.1421806755304
 30
0.0
 10
203.1953921339885
 20
-171.1421806755304
 30
0.0
 10
203.1953921339885
 20
-171.1421806755304
 30
0.0
 10
217.0953834838663
 20
-171.1421806755304
 30
0.0
 10
217.0953834838663
 20
-171.1421806755304
 30
0.0
 10
217.0953834838663
 20
-171.1421806755304
 30
0.0
 10
217.0953834838663
 20
-185.0421720254083
 30
0.0
 10
217.0953834838663
 20
-185.0421720254083
 30
0.0
  0
SPLINE
  5
7F
330
70
100
AcDbEntity
  8
top
 62
    18
420
        0
370
     9
100
AcDbSpline
210
0.0
220
0.0
230
1.0
 70
    11
 71
     3
 72
    17
 73
    13
 74
     0
 42
0.0000000001
 43
0.0000000001
 40
0.0
 40
0.0
 40
0.0
 40
0.0
 40
1.0
 40
1.0
 40
1.0
 40
2.0
 40
2.0
 40
2.0
 40
3.0
 40
3.0
 40
3.0
 40
4.0
 40
4.0
 40
4.0
 40
4.0
 10
199.3277772193195
 20
-164.7918361675694
 30
0.0
 10
199.3277772193195
 20
-164.7918361675694
 30
0.0
 10
196.9140787268131
 20
-151.1030076390906
 30
0.0
 10
196.9140787268131
 20
-151.1030076390906
 30
0.0
 10
196.9140787268131
 20
-151.1030076390906
 30
0.0
 10
210.602907255292
 20
-148.6892876147374
 30
0.0
 10
210.602907255292
 20
-148.6892876147374
 30
0.0
 10
210.602907255292
 20
-148.6892876147374
 30
0.0
 10
213.0166057477984
 20
-162.3781161432162
 30
0.0
 10
213.0166057477984
 20
-162.3781161432162
 30
0.0
 10
213.0166057477984
 20
-162.3781161432162
 30
0.0
 10
199.3277772193195
 20
-164.7918361675694
 30
0.0
 10
199.3277772193195
 20
-164.7918361675694
 30
0.0
  0
SPLINE
  5
80
330
70
100
AcDbEntity
  8
top
 62
    18
420
        0
370
     9
100
AcDbSpline
210
0.0
220
0.0
230
1.0
 70
     9
 71
     3
 72
    17
 73
    13
 74
     0
 42
0.0000000001
 43
0.0000000001
 40
0.0
 40
0.0
 40
0.0
 40
0.0
 40
1.0
 40
1.0
 40
1.0
 40
2.0
 40
2.0
 40
2.0
 40
3.0
 40
3.0
 40
3.0
 40
4.0
 40
4.0
 40
4.0
 40
4.0
 10
195.8929954886787
 20
-175.1728562658856
 30
0.0
 10
195.2854959635484
 20
-175.1728562658856
 30
0.0
 10
194.7929980320851
 20
-174.6803583344224
 30
0.0
 10
194.7929980320851
 20
-174.0728588092921
 30
0.0
 10
194.7929980320851
 20
-173.4653377523151
 30
0.0
 10
195.2854959635484
 20
-172.9728398208518
 30
0.0
 10
195.8929954886787
 20
-172.9728398208518
 30
0.0
 10
196.5005165456557
 20
-172.9728398208518
 30
0.0
 10
196.9929929452721
 20
-173.4653377523151
 30
0.0
 10
196.9929929452721
 20
-174.0728588092921
 30
0.0
 10
196.9929929452721
 20
-174.6803583344224
 30
0.0
 10
196.5005165456557
 20
-175.1728562658856
 30
0.0
 10
195.8929954886787
 20
-175.1728562658856
 30
0.0
  0
SPLINE
  5
81
330
70
100
AcDbEntity
  8
top
 62
    18
420
        0
370
     9
100
AcDbSpline
210
0.0
220
0.0
230
1.0
 70
    11
 71
     3
 72
    17
 73
    13
 74
     0
 42
0.0000000001
 43
0.0000000001
 40
0.0
 40
0.0
 40
0.0
 40
0.0
 40
1.0
 40
1.0
 40
1.0
 40
2.0
 40
2.0
 40
2.0
 40
3.0
 40
3.0
 40
3.0
 40
4.0
 40
4.0
 40
4.0
 40
4.0
 10
180.455436491887
 20
-197.7613138340232
 30
0.0
 10
180.455436491887
 20
-197.7613138340232
 30
0.0
 10
176.8578524677213
 20
-184.3349369859801
 30
0.0
 10
176.8578524677213
 20
-184.3349369859801
 30
0.0
 10
176.8578524677213
 20
-184.3349369859801
 30
0.0
 10
190.2842293157645
 20
-180.7373529618143
 30
0.0
 10
190.2842293157645
 20
-180.7373529618143
 30
0.0
 10
190.2842293157645
 20
-180.7373529618143
 30
0.0
 10
193.8817918080834
 20
-194.1637298098575
 30
0.0
 10
193.8817918080834
 20
-194.1637298098575
 30
0.0
 10
193.8817918080834
 20
-194.1637298098575
 30
0.0
 10
180.455436491887
 20
-197.7613138340232
 30
0.0
 10
180.455436491887
 20
-197.7613138340232
 30
0.0
  0
SPLINE
  5
82
330
70
100
AcDbEntity
  8
top
 62
    18
420
        0
370
     9
100
AcDbSpline
210
0.0
220
0.0
230
1.0
 70
    11
 71
     3
 72
    17
 73
    13
 74
     0
 42
0.0000000001
 43
0.0000000001
 40
0.0
 40
0.0
 40
0.0
 40
0.0
 40
1.0
 40
1.0
 40
1.0
 40
2.0
 40
2.0
 40
2.0
 40
3.0
 40
3.0
 40
3.0
 40
4.0
 40
4.0
 40
4.0
 40
4.0
 10
163.021746107248
 20
-178.3004216066293
 30
0.0
 10
163.021746107248
 20
-178.3004216066293
 30
0.0
 10
160.6080476147416
 20
-164.6115930781505
 30
0.0
 10
160.6080476147416
 20
-164.6115930781505
 30
0.0
 10
160.6080476147416
 20
-164.6115930781505
 30
0.0
 10
174.2968761432205
 20
-162.1978945856441
 30
0.0
 10
174.2968761432205
 20
-162.1978945856441
 30
0.0
 10
174.2968761432205
 20
-162.1978945856441
 30
0.0
 10
176.7105746357269
 20
-175.8867231141229
 30
0.0
 10
176.7105746357269
 20
-175.8867231141229
 30
0.0
 10
176.7105746357269
 20
-175.8867231141229
 30
0.0
 10
163.021746107248
 20
-178.3004216066293
 30
0.0
 10
163.021746107248
 20
-178.3004216066293
 30
0.0
  0
SPLINE
  5
83
330
70
100
AcDbEntity
  8
top
 62
    18
420
        0
370
     9
100
AcDbSpline
210
0.0
220
0.0
230
1.0
 70
    11
 71
     3
 72
   113
 73
   109
 74
     0
 42
0.0000000001
 43
0.0000000001
 40
0.0
 40
0.0
 40
0.0
 40
0.0
 40
1.0
 40
1.0
 40
1.0
 40
2.0
 40
2.0
 40
2.0
 40
3.0
 40
3.0
 40
3.0
 40
4.0
 40
4.0
 40
4.0
 40
5.0
 40
5.0
 40
5.0
 40
6.0
 40
6.0
 40
6.0
 40
7.0
 40
7.0
 40
7.0
 40
8.0
 40
8.0
 40
8.0
 40
9.0
 40
9.0
 40
9.0
 40
10.0
 40
10.0
 40
10.0
 40
11.0
 40
11.0
 40
11.0
 40
12.0
 40
12.0
 40
12.0
 40
13.0
 40
13.0
 40
13.0
 40
14.0
 40
14.0
 40
14.0
 40
15.0
 40
15.0
 40
15.0
 40
16.0
 40
16.0
 40
16.0
 40
17.0
 40
17.0
 40
17.0
 40
18.0
 40
18.0
 40
18.0
 40
19.0
 40
19.0
 40
19.0
 40
20.0
 40
20.0
 40
20.0
 40
21.0
 40
21.0
 40
21.0
 40
22.0
 40
22.0
 40
22.0
 40
23.0
 40
23.0
 40
23.0
 40
24.0
 40
24.0
 40
24.0
 40
25.0
 40
25.0
 40
25.0
 40
26.0
 40
26.0
 40
26.0
 40
27.0
 40
27.0
 40
27.0
 40
28.0
 40
28.0
 40
28.0
 40
29.0
 40
29.0
 40
29.0
 40
30.0
 40
30.0
 40
30.0
 40
31.0
 40
31.0
 40
31.0
 40
32.0
 40
32.0
 40
32.0
 40
33.0
 40
33.0
 40
33.0
 40
34.0
 40
34.0
 40
34.0
 40
35.0
 40
35.0
 40
35.0
 40
36.0
 40
36.0
 40
36.0
 40
36.0
 10
166.6331751088951
 20
-195.1620538859425
 30
0.0
 10
166.6331751088951
 20
-195.1620538859425
 30
0.0
 10
165.7978255811091
 20
-195.1620538859425
 30
0.0
 10
165.7978255811091
 20
-195.1620538859425
 30
0.0
 10
165.7978255811091
 20
-195.1620538859425
 30
0.0
 10
165.7978255811091
 20
-199.0314344120477
 30
0.0
 10
165.7978255811091
 20
-199.0314344120477
 30
0.0
 10
165.7978255811091
 20
-199.1694966136191
 30
0.0
 10
165.6858815096853
 20
-199.2814406850429
 30
0.0
 10
165.5478193081139
 20
-199.2814406850429
 30
0.0
 10
165.5478193081139
 20
-199.2814406850429
 30
0.0
 10
158.7324515051845
 20
-199.2814406850429
 30
0.0
 10
158.7324515051845
 20
-199.2814406850429
 30
0.0
 10
158.5943677717663
 20
-199.2814406850429
 30
0.0
 10
158.4824452321893
 20
-199.1694966136191
 30
0.0
 10
158.4824452321893
 20
-199.0314344120477
 30
0.0
 10
158.4824452321893
 20
-199.0314344120477
 30
0.0
 10
158.4824452321893
 20
-197.5723288148105
 30
0.0
 10
158.4824452321893
 20
-197.5723288148105
 30
0.0
 10
158.4824452321893
 20
-197.5723288148105
 30
0.0
 10
156.9676152154781
 20
-197.5723288148105
 30
0.0
 10
156.9676152154781
 20
-197.5723288148105
 30
0.0
 10
156.9676152154781
 20
-197.5723288148105
 30
0.0
 10
156.9676152154781
 20
-199.5087954552226
 30
0.0
 10
156.9676152154781
 20
-199.5087954552226
 30
0.0
 10
156.9676152154781
 20
-199.5087954552226
 30
0.0
 10
143.0610566523315
 20
-199.5087954552226
 30
0.0
 10
143.0610566523315
 20
-199.5087954552226
 30
0.0
 10
143.0610566523315
 20
-199.5087954552226
 30
0.0
 10
143.0610566523315
 20
-197.5723288148105
 30
0.0
 10
143.0610566523315
 20
-197.5723288148105
 30
0.0
 10
143.0610566523315
 20
-197.5723288148105
 30
0.0
 10
141.5462481674672
 20
-197.5723288148105
 30
0.0
 10
141.5462481674672
 20
-197.5723288148105
 30
0.0
 10
141.5462481674672
 20
-197.5723288148105
 30
0.0
 10
141.5462481674672
 20
-199.0314344120477
 30
0.0
 10
141.5462481674672
 20
-199.0314344120477
 30
0.0
 10
141.5462481674672
 20
-199.1694966136191
 30
0.0
 10
141.4343256278901
 20
-199.2814406850429
 30
0.0
 10
141.2962418944722
 20
-199.2814406850429
 30
0.0
 10
141.2962418944722
 20
-199.2814406850429
 30
0.0
 10
134.4712924197242
 20
-199.2814406850429
 30
0.0
 10
134.4712924197242
 20
-199.2814406850429
 30
0.0
 10
134.3332302181528
 20
-199.2814406850429
 30
0.0
 10
134.221307678576
 20
-199.1694966136191
 30
0.0
 10
134.221307678576
 20
-199.0314344120477
 30
0.0
 10
134.221307678576
 20
-199.0314344120477
 30
0.0
 10
134.221307678576
 20
-195.1620538859425
 30
0.0
 10
134.221307678576
 20
-195.1620538859425
 30
0.0
 10
134.221307678576
 20
-195.1620538859425
 30
0.0
 10
133.385936618943
 20
-195.1620538859425
 30
0.0
 10
133.385936618943
 20
-195.1620538859425
 30
0.0
 10
133.385936618943
 20
-195.1620538859425
 30
0.0
 10
133.385936618943
 20
-190.271977694945
 30
0.0
 10
133.385936618943
 20
-190.271977694945
 30
0.0
 10
133.385936618943
 20
-190.271977694945
 30
0.0
 10
134.221307678576
 20
-190.271977694945
 30
0.0
 10
134.221307678576
 20
-190.271977694945
 30
0.0
 10
134.221307678576
 20
-190.271977694945
 30
0.0
 10
134.221307678576
 20
-184.5166011772866
 30
0.0
 10
134.221307678576
 20
-184.5166011772866
 30
0.0
 10
134.221307678576
 20
-184.2404552422971
 30
0.0
 10
134.4451527577302
 20
-184.0165886312962
 30
0.0
 10
134.7212986927194
 20
-184.0165886312962
 30
0.0
 10
134.7212986927194
 20
-184.0165886312962
 30
0.0
 10
141.0462571533235
 20
-184.0165886312962
 30
0.0
 10
141.0462571533235
 20
-184.0165886312962
 30
0.0
 10
141.3223815564663
 20
-184.0165886312962
 30
0.0
 10
141.5462481674672
 20
-184.2404552422971
 30
0.0
 10
141.5462481674672
 20
-184.5166011772866
 30
0.0
 10
141.5462481674672
 20
-184.5166011772866
 30
0.0
 10
141.5462481674672
 20
-186.301462084501
 30
0.0
 10
141.5462481674672
 20
-186.301462084501
 30
0.0
 10
141.5462481674672
 20
-186.301462084501
 30
0.0
 10
143.0596140185974
 20
-186.301462084501
 30
0.0
 10
143.0596140185974
 20
-186.301462084501
 30
0.0
 10
143.0596140185974
 20
-186.301462084501
 30
0.0
 10
143.0596140185974
 20
-185.6033565481087
 30
0.0
 10
143.0596140185974
 20
-185.6033565481087
 30
0.0
 10
143.0596140185974
 20
-185.6033565481087
 30
0.0
 10
156.9690578492126
 20
-185.6033565481087
 30
0.0
 10
156.9690578492126
 20
-185.6033565481087
 30
0.0
 10
156.9690578492126
 20
-185.6033565481087
 30
0.0
 10
156.9690578492126
 20
-186.301462084501
 30
0.0
 10
156.9690578492126
 20
-186.301462084501
 30
0.0
 10
156.9690578492126
 20
-186.301462084501
 30
0.0
 10
158.4824452321893
 20
-186.301462084501
 30
0.0
 10
158.4824452321893
 20
-186.301462084501
 30
0.0
 10
158.4824452321893
 20
-186.301462084501
 30
0.0
 10
158.4824452321893
 20
-184.5166011772866
 30
0.0
 10
158.4824452321893
 20
-184.5166011772866
 30
0.0
 10
158.4824452321893
 20
-184.2404552422971
 30
0.0
 10
158.7063118431901
 20
-184.0165886312962
 30
0.0
 10
158.9824362463329
 20
-184.0165886312962
 30
0.0
 10
158.9824362463329
 20
-184.0165886312962
 30
0.0
 10
165.2978130351187
 20
-184.0165886312962
 30
0.0
 10
165.2978130351187
 20
-184.0165886312962
 30
0.0
 10
165.5739589701082
 20
-184.0165886312962
 30
0.0
 10
165.7978255811091
 20
-184.2404552422971
 30
0.0
 10
165.7978255811091
 20
-184.5166011772866
 30
0.0
 10
165.7978255811091
 20
-184.5166011772866
 30
0.0
 10
165.7978255811091
 20
-190.271977694945
 30
0.0
 10
165.7978255811091
 20
-190.271977694945
 30
0.0
 10
165.7978255811091
 20
-190.271977694945
 30
0.0
 10
166.6331751088951
 20
-190.271977694945
 30
0.0
 10
166.6331751088951
 20
-190.271977694945
 30
0.0
 10
166.6331751088951
 20
-190.271977694945
 30
0.0
 10
166.6331751088951
 20
-195.1620538859425
 30
0.0
 10
166.6331751088951
 20
-195.1620538859425
 30
0.0
  0
SPLINE
  5
84
330
70
100
AcDbEntity
  8
top
 62
    18
420
        0
370
     9
100
AcDbSpline
210
0.0
220
0.0
230
1.0
 70
    11
 71
     3
 72
    17
 73
    13
 74
     0
 42
0.0000000001
 43
0.0000000001
 40
0.0
 40
0.0
 40
0.0
 40
0.0
 40
1.0
 40
1.0
 40
1.0
 40
2.0
 40
2.0
 40
2.0
 40
3.0
 40
3.0
 40
3.0
 40
4.0
 40
4.0
 40
4.0
 40
4.0
 10
123.3075466271592
 20
-175.8867661778165
 30
0.0
 10
123.3075466271592
 20
-175.8867661778165
 30
0.0
 10
125.7212666515124
 20
-162.1979376493377
 30
0.0
 10
125.7212666515124
 20
-162.1979376493377
 30
0.0
 10
125.7212666515124
 20
-162.1979376493377
 30
0.0
 10
139.4100951799912
 20
-164.6116576736908
 30
0.0
 10
139.4100951799912
 20
-164.6116576736908
 30
0.0
 10
139.4100951799912
 20
-164.6116576736908
 30
0.0
 10
136.996375155638
 20
-178.3004862021696
 30
0.0
 10
136.996375155638
 20
-178.3004862021696
 30
0.0
 10
136.996375155638
 20
-178.3004862021696
 30
0.0
 10
123.3075466271592
 20
-175.8867661778165
 30
0.0
 10
123.3075466271592
 20
-175.8867661778165
 30
0.0
  0
SPLINE
  5
85
330
70
100
AcDbEntity
  8
top
 62
    18
420
        0
370
     9
100
AcDbSpline
210
0.0
220
0.0
230
1.0
 70
    11
 71
     3
 72
    17
 73
    13
 74
     0
 42
0.0000000001
 43
0.0000000001
 40
0.0
 40
0.0
 40
0.0
 40
0.0
 40
1.0
 40
1.0
 40
1.0
 40
2.0
 40
2.0
 40
2.0
 40
3.0
 40
3.0
 40
3.0
 40
4.0
 40
4.0
 40
4.0
 40
4.0
 10
119.5589382296589
 20
-197.7599142639823
 30
0.0
 10
119.5589382296589
 20
-197.7599142639823
 30
0.0
 10
106.1325613816157
 20
-194.1623302398166
 30
0.0
 10
106.1325613816157
 20
-194.1623302398166
 30
0.0
 10
106.1325613816157
 20
-194.1623302398166
 30
0.0
 10
109.7301454057814
 20
-180.7359533917735
 30
0.0
 10
109.7301454057814
 20
-180.7359533917735
 30
0.0
 10
109.7301454057814
 20
-180.7359533917735
 30
0.0
 10
123.1565222538249
 20
-184.3335374159392
 30
0.0
 10
123.1565222538249
 20
-184.3335374159392
 30
0.0
 10
123.1565222538249
 20
-184.3335374159392
 30
0.0
 10
119.5589382296589
 20
-197.7599142639823
 30
0.0
 10
119.5589382296589
 20
-197.7599142639823
 30
0.0
  0
SPLINE
  5
86
330
70
100
AcDbEntity
  8
top
 62
    18
420
        0
370
     9
100
AcDbSpline
210
0.0
220
0.0
230
1.0
 70
     9
 71
     3
 72
    17
 73
    13
 74
     0
 42
0.0000000001
 43
0.0000000001
 40
0.0
 40
0.0
 40
0.0
 40
0.0
 40
1.0
 40
1.0
 40
1.0
 40
2.0
 40
2.0
 40
2.0
 40
3.0
 40
3.0
 40
3.0
 40
4.0
 40
4.0
 40
4.0
 40
4.0
 10
104.1110008827182
 20
-175.1728562658856
 30
0.0
 10
103.5034798257409
 20
-175.1728562658856
 30
0.0
 10
103.0110034261244
 20
-174.6803583344224
 30
0.0
 10
103.0110034261244
 20
-174.0728588092921
 30
0.0
 10
103.0110034261244
 20
-173.4653377523151
 30
0.0
 10
103.5034798257409
 20
-172.9728398208518
 30
0.0
 10
104.1110008827182
 20
-172.9728398208518
 30
0.0
 10
104.7185219396949
 20
-172.9728398208518
 30
0.0
 10
105.2109983393114
 20
-173.4653377523151
 30
0.0
 10
105.2109983393114
 20
-174.0728588092921
 30
0.0
 10
105.2109983393114
 20
-174.6803583344224
 30
0.0
 10
104.7185219396949
 20
-175.1728562658856
 30
0.0
 10
104.1110008827182
 20
-175.1728562658856
 30
0.0
  0
SPLINE
  5
87
330
70
100
AcDbEntity
  8
top
 62
    18
420
        0
370
     9
100
AcDbSpline
210
0.0
220
0.0
230
1.0
 70
    11
 71
     3
 72
    17
 73
    13
 74
     0
 42
0.0000000001
 43
0.0000000001
 40
0.0
 40
0.0
 40
0.0
 40
0.0
 40
1.0
 40
1.0
 40
1.0
 40
2.0
 40
2.0
 40
2.0
 40
3.0
 40
3.0
 40
3.0
 40
4.0
 40
4.0
 40
4.0
 40
4.0
 10
86.99951305333692
 20
-162.3760490859251
 30
0.0
 10
86.99951305333692
 20
-162.3760490859251
 30
0.0
 10
89.41323307769009
 20
-148.6872205574463
 30
0.0
 10
89.41323307769009
 20
-148.6872205574463
 30
0.0
 10
89.41323307769009
 20
-148.6872205574463
 30
0.0
 10
103.1020616061689
 20
-151.1009190499526
 30
0.0
 10
103.1020616061689
 20
-151.1009190499526
 30
0.0
 10
103.1020616061689
 20
-151.1009190499526
 30
0.0
 10
100.6883415818157
 20
-164.7897475784315
 30
0.0
 10
100.6883415818157
 20
-164.7897475784315
 30
0.0
 10
100.6883415818157
 20
-164.7897475784315
 30
0.0
 10
86.99951305333692
 20
-162.3760490859251
 30
0.0
 10
86.99951305333692
 20
-162.3760490859251
 30
0.0
  0
SPLINE
  5
88
330
70
100
AcDbEntity
  8
top
 62
    18
420
        0
370
     9
100
AcDbSpline
210
0.0
220
0.0
230
1.0
 70
    11
 71
     3
 72
    17
 73
    13
 74
     0
 42
0.0000000001
 43
0.0000000001
 40
0.0
 40
0.0
 40
0.0
 40
0.0
 40
1.0
 40
1.0
 40
1.0
 40
2.0
 40
2.0
 40
2.0
 40
3.0
 40
3.0
 40
3.0
 40
4.0
 40
4.0
 40
4.0
 40
4.0
 10
96.81926250156559
 20
-185.0449496336432
 30
0.0
 10
96.81926250156559
 20
-185.0449496336432
 30
0.0
 10
82.91927115168803
 20
-185.0449496336432
 30
0.0
 10
82.91927115168803
 20
-185.0449496336432
 30
0.0
 10
82.91927115168803
 20
-185.0449496336432
 30
0.0
 10
82.91927115168803
 20
-171.1449582837654
 30
0.0
 10
82.91927115168803
 20
-171.1449582837654
 30
0.0
 10
82.91927115168803
 20
-171.1449582837654
 30
0.0
 10
96.81926250156559
 20
-171.1449582837654
 30
0.0
 10
96.81926250156559
 20
-171.1449582837654
 30
0.0
 10
96.81926250156559
 20
-171.1449582837654
 30
0.0
 10
96.81926250156559
 20
-185.0449496336432
 30
0.0
 10
96.81926250156559
 20
-185.0449496336432
 30
0.0
  0
SPLINE
  5
89
330
70
100
AcDbEntity
  8
top
 62
    18
420
        0
370
     9
100
AcDbSpline
210
0.0
220
0.0
230
1.0
 70
    11
 71
     3
 72
    17
 73
    13
 74
     0
 42
0.0000000001
 43
0.0000000001
 40
0.0
 40
0.0
 40
0.0
 40
0.0
 40
1.0
 40
1.0
 40
1.0
 40
2.0
 40
2.0
 40
2.0
 40
3.0
 40
3.0
 40
3.0
 40
4.0
 40
4.0
 40
4.0
 40
4.0
 10
67.63355473840878
 20
-162.5159630263198
 30
0.0
 10
67.63355473840878
 20
-162.5159630263198
 30
0.0
 10
70.04727476276194
 20
-148.8271344978413
 30
0.0
 10
70.04727476276194
 20
-148.8271344978413
 30
0.0
 10
70.04727476276194
 20
-148.8271344978413
 30
0.0
 10
83.73610329124078
 20
-151.2408329903473
 30
0.0
 10
83.73610329124078
 20
-151.2408329903473
 30
0.0
 10
83.73610329124078
 20
-151.2408329903473
 30
0.0
 10
81.32238326688762
 20
-164.9296615188261
 30
0.0
 10
81.32238326688762
 20
-164.9296615188261
 30
0.0
 10
81.32238326688762
 20
-164.9296615188261
 30
0.0
 10
67.63355473840878
 20
-162.5159630263198
 30
0.0
 10
67.63355473840878
 20
-162.5159630263198
 30
0.0
  0
SPLINE
  5
8A
330
70
100
AcDbEntity
  8
top
 62
    18
420
        0
370
     9
100
AcDbSpline
210
0.0
220
0.0
230
1.0
 70
    11
 71
     3
 72
    17
 73
    13
 74
     0
 42
0.0000000001
 43
0.0000000001
 40
0.0
 40
0.0
 40
0.0
 40
0.0
 40
1.0
 40
1.0
 40
1.0
 40
2.0
 40
2.0
 40
2.0
 40
3.0
 40
3.0
 40
3.0
 40
4.0
 40
4.0
 40
4.0
 40
4.0
 10
51.57318707342398
 20
-143.8941883998992
 30
0.0
 10
51.57318707342398
 20
-143.8941883998992
 30
0.0
 10
53.98690709777715
 20
-130.2053598714203
 30
0.0
 10
53.98690709777715
 20
-130.2053598714203
 30
0.0
 10
53.98690709777715
 20
-130.2053598714203
 30
0.0
 10
67.67573562625599
 20
-132.6190798957735
 30
0.0
 10
67.67573562625599
 20
-132.6190798957735
 30
0.0
 10
67.67573562625599
 20
-132.6190798957735
 30
0.0
 10
65.26201560190282
 20
-146.3079084242523
 30
0.0
 10
65.26201560190282
 20
-146.3079084242523
 30
0.0
 10
65.26201560190282
 20
-146.3079084242523
 30
0.0
 10
51.57318707342398
 20
-143.8941883998992
 30
0.0
 10
51.57318707342398
 20
-143.8941883998992
 30
0.0
  0
SPLINE
  5
8B
330
70
100
AcDbEntity
  8
top
 62
    18
420
        0
370
     9
100
AcDbSpline
210
0.0
220
0.0
230
1.0
 70
    11
 71
     3
 72
    17
 73
    13
 74
     0
 42
0.0000000001
 43
0.0000000001
 40
0.0
 40
0.0
 40
0.0
 40
0.0
 40
1.0
 40
1.0
 40
1.0
 40
2.0
 40
2.0
 40
2.0
 40
3.0
 40
3.0
 40
3.0
 40
4.0
 40
4.0
 40
4.0
 40
4.0
 10
61.95403491696592
 20
-165.0684988668817
 30
0.0
 10
61.95403491696592
 20
-165.0684988668817
 30
0.0
 10
48.26520638848709
 20
-162.6547788425286
 30
0.0
 10
48.26520638848709
 20
-162.6547788425286
 30
0.0
 10
48.26520638848709
 20
-162.6547788425286
 30
0.0
 10
50.67890488099347
 20
-148.9659503140497
 30
0.0
 10
50.67890488099347
 20
-148.9659503140497
 30
0.0
 10
50.67890488099347
 20
-148.9659503140497
 30
0.0
 10
64.3677334094723
 20
-151.3796703384029
 30
0.0
 10
64.3677334094723
 20
-151.3796703384029
 30
0.0
 10
64.3677334094723
 20
-151.3796703384029
 30
0.0
 10
61.95403491696592
 20
-165.0684988668817
 30
0.0
 10
61.95403491696592
 20
-165.0684988668817
 30
0.0
  0
SPLINE
  5
8C
330
70
100
AcDbEntity
  8
top
 62
    18
420
        0
370
     9
100
AcDbSpline
210
0.0
220
0.0
230
1.0
 70
     9
 71
     3
 72
    17
 73
    13
 74
     0
 42
0.0000000001
 43
0.0000000001
 40
0.0
 40
0.0
 40
0.0
 40
0.0
 40
1.0
 40
1.0
 40
1.0
 40
2.0
 40
2.0
 40
2.0
 40
3.0
 40
3.0
 40
3.0
 40
4.0
 40
4.0
 40
4.0
 40
4.0
 10
45.403667014745
 20
-163.8999870738254
 30
0.0
 10
44.79616748961475
 20
-163.8999870738254
 30
0.0
 10
44.30366955815151
 20
-163.4075106742089
 30
0.0
 10
44.30366955815151
 20
-162.7999896172318
 30
0.0
 10
44.30366955815151
 20
-162.1924900921016
 30
0.0
 10
44.79616748961475
 20
-161.6999921606383
 30
0.0
 10
45.403667014745
 20
-161.6999921606383
 30
0.0
 10
46.01118807172235
 20
-161.6999921606383
 30
0.0
 10
46.50368600318528
 20
-162.1924900921016
 30
0.0
 10
46.50368600318528
 20
-162.7999896172318
 30
0.0
 10
46.50368600318528
 20
-163.4075106742089
 30
0.0
 10
46.01118807172235
 20
-163.8999870738254
 30
0.0
 10
45.403667014745
 20
-163.8999870738254
 30
0.0
  0
SPLINE
  5
8D
330
70
100
AcDbEntity
  8
top
 62
    18
420
        0
370
     9
100
AcDbSpline
210
0.0
220
0.0
230
1.0
 70
    11
 71
     3
 72
    17
 73
    13
 74
     0
 42
0.0000000001
 43
0.0000000001
 40
0.0
 40
0.0
 40
0.0
 40
0.0
 40
1.0
 40
1.0
 40
1.0
 40
2.0
 40
2.0
 40
2.0
 40
3.0
 40
3.0
 40
3.0
 40
4.0
 40
4.0
 40
4.0
 40
4.0
 10
28.89683650671893
 20
-162.7936161905841
 30
0.0
 10
28.89683650671893
 20
-162.7936161905841
 30
0.0
 10
31.3105565310721
 20
-149.1047876621053
 30
0.0
 10
31.3105565310721
 20
-149.1047876621053
 30
0.0
 10
31.3105565310721
 20
-149.1047876621053
 30
0.0
 10
44.99938505955094
 20
-151.5184861546117
 30
0.0
 10
44.99938505955094
 20
-151.5184861546117
 30
0.0
 10
44.99938505955094
 20
-151.5184861546117
 30
0.0
 10
42.58566503519777
 20
-165.2073146830905
 30
0.0
 10
42.58566503519777
 20
-165.2073146830905
 30
0.0
 10
42.58566503519777
 20
-165.2073146830905
 30
0.0
 10
28.89683650671893
 20
-162.7936161905841
 30
0.0
 10
28.89683650671893
 20
-162.7936161905841
 30
0.0
  0
SPLINE
  5
8E
330
70
100
AcDbEntity
  8
top
 62
    18
420
        0
370
     9
100
AcDbSpline
210
0.0
220
0.0
230
1.0
 70
    11
 71
     3
 72
    17
 73
    13
 74
     0
 42
0.0000000001
 43
0.0000000001
 40
0.0
 40
0.0
 40
0.0
 40
0.0
 40
1.0
 40
1.0
 40
1.0
 40
2.0
 40
2.0
 40
2.0
 40
3.0
 40
3.0
 40
3.0
 40
4.0
 40
4.0
 40
4.0
 40
4.0
 10
34.61855874785578
 20
-130.3441972194759
 30
0.0
 10
34.61855874785578
 20
-130.3441972194759
 30
0.0
 10
48.30738727633462
 20
-132.7579172438291
 30
0.0
 10
48.30738727633462
 20
-132.7579172438291
 30
0.0
 10
48.30738727633462
 20
-132.7579172438291
 30
0.0
 10
45.89366725198145
 20
-146.4467457723079
 30
0.0
 10
45.89366725198145
 20
-146.4467457723079
 30
0.0
 10
45.89366725198145
 20
-146.4467457723079
 30
0.0
 10
32.20483872350261
 20
-144.0330257479547
 30
0.0
 10
32.20483872350261
 20
-144.0330257479547
 30
0.0
 10
32.20483872350261
 20
-144.0330257479547
 30
0.0
 10
34.61855874785578
 20
-130.3441972194759
 30
0.0
 10
34.61855874785578
 20
-130.3441972194759
 30
0.0
  0
SPLINE
  5
8F
330
70
100
AcDbEntity
  8
top
 62
    18
420
        0
370
     9
100
AcDbSpline
210
0.0
220
0.0
230
1.0
 70
    11
 71
     3
 72
    17
 73
    13
 74
     0
 42
0.0000000001
 43
0.0000000001
 40
0.0
 40
0.0
 40
0.0
 40
0.0
 40
1.0
 40
1.0
 40
1.0
 40
2.0
 40
2.0
 40
2.0
 40
3.0
 40
3.0
 40
3.0
 40
4.0
 40
4.0
 40
4.0
 40
4.0
 10
37.92653943279268
 20
-111.5836067768458
 30
0.0
 10
37.92653943279268
 20
-111.5836067768458
 30
0.0
 10
51.61536796127151
 20
-113.997326801199
 30
0.0
 10
51.61536796127151
 20
-113.997326801199
 30
0.0
 10
51.61536796127151
 20
-113.997326801199
 30
0.0
 10
49.20166946876513
 20
-127.6861553296778
 30
0.0
 10
49.20166946876513
 20
-127.6861553296778
 30
0.0
 10
49.20166946876513
 20
-127.6861553296778
 30
0.0
 10
35.51284094028629
 20
-125.2724353053247
 30
0.0
 10
35.51284094028629
 20
-125.2724353053247
 30
0.0
 10
35.51284094028629
 20
-125.2724353053247
 30
0.0
 10
37.92653943279268
 20
-111.5836067768458
 30
0.0
 10
37.92653943279268
 20
-111.5836067768458
 30
0.0
  0
SPLINE
  5
90
330
70
100
AcDbEntity
  8
top
 62
    18
420
        0
370
     9
100
AcDbSpline
210
0.0
220
0.0
230
1.0
 70
     9
 71
     3
 72
    17
 73
    13
 74
     0
 42
0.0000000001
 43
0.0000000001
 40
0.0
 40
0.0
 40
0.0
 40
0.0
 40
1.0
 40
1.0
 40
1.0
 40
2.0
 40
2.0
 40
2.0
 40
3.0
 40
3.0
 40
3.0
 40
4.0
 40
4.0
 40
4.0
 40
4.0
 10
53.36125622580899
 20
-125.1310571993487
 30
0.0
 10
53.36125622580899
 20
-125.7385782563257
 30
0.0
 10
52.86877982619253
 20
-126.2310546559422
 30
0.0
 10
52.2612587692155
 20
-126.2310546559422
 30
0.0
 10
51.6537377122388
 20
-126.2310546559422
 30
0.0
 10
51.16126131262234
 20
-125.7385782563257
 30
0.0
 10
51.16126131262234
 20
-125.1310571993487
 30
0.0
 10
51.16126131262234
 20
-124.523536142372
 30
0.0
 10
51.6537377122388
 20
-124.0310597427556
 30
0.0
 10
52.2612587692155
 20
-124.0310597427556
 30
0.0
 10
52.86877982619253
 20
-124.0310597427556
 30
0.0
 10
53.36125622580899
 20
-124.523536142372
 30
0.0
 10
53.36125622580899
 20
-125.1310571993487
 30
0.0
  0
SPLINE
  5
91
330
70
100
AcDbEntity
  8
top
 62
    18
420
        0
370
     9
100
AcDbSpline
210
0.0
220
0.0
230
1.0
 70
    11
 71
     3
 72
    17
 73
    13
 74
     0
 42
0.0000000001
 43
0.0000000001
 40
0.0
 40
0.0
 40
0.0
 40
0.0
 40
1.0
 40
1.0
 40
1.0
 40
2.0
 40
2.0
 40
2.0
 40
3.0
 40
3.0
 40
3.0
 40
4.0
 40
4.0
 40
4.0
 40
4.0
 10
57.29490931456115
 20
-111.444790960637
 30
0.0
 10
57.29490931456115
 20
-111.444790960637
 30
0.0
 10
70.98373784303998
 20
-113.8584894531434
 30
0.0
 10
70.98373784303998
 20
-113.8584894531434
 30
0.0
 10
70.98373784303998
 20
-113.8584894531434
 30
0.0
 10
68.57001781868681
 20
-127.5473179816223
 30
0.0
 10
68.57001781868681
 20
-127.5473179816223
 30
0.0
 10
68.57001781868681
 20
-127.5473179816223
 30
0.0
 10
54.88118929020798
 20
-125.1336194891159
 30
0.0
 10
54.88118929020798
 20
-125.1336194891159
 30
0.0
 10
54.88118929020798
 20
-125.1336194891159
 30
0.0
 10
57.29490931456115
 20
-111.444790960637
 30
0.0
 10
57.29490931456115
 20
-111.444790960637
 30
0.0
  0
SPLINE
  5
92
330
70
100
AcDbEntity
  8
top
 62
    18
420
        0
370
     9
100
AcDbSpline
210
0.0
220
0.0
230
1.0
 70
    11
 71
     3
 72
    17
 73
    13
 74
     0
 42
0.0000000001
 43
0.0000000001
 40
0.0
 40
0.0
 40
0.0
 40
0.0
 40
1.0
 40
1.0
 40
1.0
 40
2.0
 40
2.0
 40
2.0
 40
3.0
 40
3.0
 40
3.0
 40
4.0
 40
4.0
 40
4.0
 40
4.0
 10
87.04408397617767
 20
-132.4802425477179
 30
0.0
 10
87.04408397617767
 20
-132.4802425477179
 30
0.0
 10
84.63038548367096
 20
-146.1690710761968
 30
0.0
 10
84.63038548367096
 20
-146.1690710761968
 30
0.0
 10
84.63038548367096
 20
-146.1690710761968
 30
0.0
 10
70.94155695519212
 20
-143.7553725836901
 30
0.0
 10
70.94155695519212
 20
-143.7553725836901
 30
0.0
 10
70.94155695519212
 20
-143.7553725836901
 30
0.0
 10
73.35525544769883
 20
-130.0665440552112
 30
0.0
 10
73.35525544769883
 20
-130.0665440552112
 30
0.0
 10
73.35525544769883
 20
-130.0665440552112
 30
0.0
 10
87.04408397617767
 20
-132.4802425477179
 30
0.0
 10
87.04408397617767
 20
-132.4802425477179
 30
0.0
  0
SPLINE
  5
93
330
70
100
AcDbEntity
  8
top
 62
    18
420
        0
370
     9
100
AcDbSpline
210
0.0
220
0.0
230
1.0
 70
     9
 71
     3
 72
    17
 73
    13
 74
     0
 42
0.0000000001
 43
0.0000000001
 40
0.0
 40
0.0
 40
0.0
 40
0.0
 40
1.0
 40
1.0
 40
1.0
 40
2.0
 40
2.0
 40
2.0
 40
3.0
 40
3.0
 40
3.0
 40
4.0
 40
4.0
 40
4.0
 40
4.0
 10
88.77675168679019
 20
-143.6463137797354
 30
0.0
 10
88.77675168679019
 20
-144.2538348367121
 30
0.0
 10
88.28425375532694
 20
-144.7463112363286
 30
0.0
 10
87.67675423019671
 20
-144.7463112363286
 30
0.0
 10
87.06923317321999
 20
-144.7463112363286
 30
0.0
 10
86.57675677360353
 20
-144.2538348367121
 30
0.0
 10
86.57675677360353
 20
-143.6463137797354
 30
0.0
 10
86.57675677360353
 20
-143.0388142546049
 30
0.0
 10
87.06923317321999
 20
-142.5463163231416
 30
0.0
 10
87.67675423019671
 20
-142.5463163231416
 30
0.0
 10
88.28425375532694
 20
-142.5463163231416
 30
0.0
 10
88.77675168679019
 20
-143.0388142546049
 30
0.0
 10
88.77675168679019
 20
-143.6463137797354
 30
0.0
  0
SPLINE
  5
94
330
70
100
AcDbEntity
  8
top
 62
    18
420
        0
370
     9
100
AcDbSpline
210
0.0
220
0.0
230
1.0
 70
    11
 71
     3
 72
    17
 73
    13
 74
     0
 42
0.0000000001
 43
0.0000000001
 40
0.0
 40
0.0
 40
0.0
 40
0.0
 40
1.0
 40
1.0
 40
1.0
 40
2.0
 40
2.0
 40
2.0
 40
3.0
 40
3.0
 40
3.0
 40
4.0
 40
4.0
 40
4.0
 40
4.0
 10
76.66325766448219
 20
-111.3059536125815
 30
0.0
 10
76.66325766448219
 20
-111.3059536125815
 30
0.0
 10
90.35208619296103
 20
-113.7196521050879
 30
0.0
 10
90.35208619296103
 20
-113.7196521050879
 30
0.0
 10
90.35208619296103
 20
-113.7196521050879
 30
0.0
 10
87.93838770045464
 20
-127.4084806335667
 30
0.0
 10
87.93838770045464
 20
-127.4084806335667
 30
0.0
 10
87.93838770045464
 20
-127.4084806335667
 30
0.0
 10
74.2495591719758
 20
-124.9947821410603
 30
0.0
 10
74.2495591719758
 20
-124.9947821410603
 30
0.0
 10
74.2495591719758
 20
-124.9947821410603
 30
0.0
 10
76.66325766448219
 20
-111.3059536125815
 30
0.0
 10
76.66325766448219
 20
-111.3059536125815
 30
0.0
  0
SPLINE
  5
95
330
70
100
AcDbEntity
  8
top
 62
    18
420
        0
370
     9
100
AcDbSpline
210
0.0
220
0.0
230
1.0
 70
    11
 71
     3
 72
    17
 73
    13
 74
     0
 42
0.0000000001
 43
0.0000000001
 40
0.0
 40
0.0
 40
0.0
 40
0.0
 40
1.0
 40
1.0
 40
1.0
 40
2.0
 40
2.0
 40
2.0
 40
3.0
 40
3.0
 40
3.0
 40
4.0
 40
4.0
 40
4.0
 40
4.0
 10
106.4100638229526
 20
-132.3403286073229
 30
0.0
 10
106.4100638229526
 20
-132.3403286073229
 30
0.0
 10
103.9963437985994
 20
-146.0291571358017
 30
0.0
 10
103.9963437985994
 20
-146.0291571358017
 30
0.0
 10
103.9963437985994
 20
-146.0291571358017
 30
0.0
 10
90.30751527012061
 20
-143.6154586432953
 30
0.0
 10
90.30751527012061
 20
-143.6154586432953
 30
0.0
 10
90.30751527012061
 20
-143.6154586432953
 30
0.0
 10
92.72123529447377
 20
-129.9266301148165
 30
0.0
 10
92.72123529447377
 20
-129.9266301148165
 30
0.0
 10
92.72123529447377
 20
-129.9266301148165
 30
0.0
 10
106.4100638229526
 20
-132.3403286073229
 30
0.0
 10
106.4100638229526
 20
-132.3403286073229
 30
0.0
  0
SPLINE
  5
96
330
70
100
AcDbEntity
  8
top
 62
    18
420
        0
370
     9
100
AcDbSpline
210
0.0
220
0.0
230
1.0
 70
    11
 71
     3
 72
    17
 73
    13
 74
     0
 42
0.0000000001
 43
0.0000000001
 40
0.0
 40
0.0
 40
0.0
 40
0.0
 40
1.0
 40
1.0
 40
1.0
 40
2.0
 40
2.0
 40
2.0
 40
3.0
 40
3.0
 40
3.0
 40
4.0
 40
4.0
 40
4.0
 40
4.0
 10
96.02921597941067
 20
-111.1660396721871
 30
0.0
 10
96.02921597941067
 20
-111.1660396721871
 30
0.0
 10
109.7180445078895
 20
-113.5797596965403
 30
0.0
 10
109.7180445078895
 20
-113.5797596965403
 30
0.0
 10
109.7180445078895
 20
-113.5797596965403
 30
0.0
 10
107.3043460153834
 20
-127.2685882250191
 30
0.0
 10
107.3043460153834
 20
-127.2685882250191
 30
0.0
 10
107.3043460153834
 20
-127.2685882250191
 30
0.0
 10
93.61551748690461
 20
-124.8548682006659
 30
0.0
 10
93.61551748690461
 20
-124.8548682006659
 30
0.0
 10
93.61551748690461
 20
-124.8548682006659
 30
0.0
 10
96.02921597941067
 20
-111.1660396721871
 30
0.0
 10
96.02921597941067
 20
-111.1660396721871
 30
0.0
  0
SPLINE
  5
97
330
70
100
AcDbEntity
  8
top
 62
    18
420
        0
370
     9
100
AcDbSpline
210
0.0
220
0.0
230
1.0
 70
    11
 71
     3
 72
    17
 73
    13
 74
     0
 42
0.0000000001
 43
0.0000000001
 40
0.0
 40
0.0
 40
0.0
 40
0.0
 40
1.0
 40
1.0
 40
1.0
 40
2.0
 40
2.0
 40
2.0
 40
3.0
 40
3.0
 40
3.0
 40
4.0
 40
4.0
 40
4.0
 40
4.0
 10
121.2572626446531
 20
-157.8568374239147
 30
0.0
 10
121.2572626446531
 20
-157.8568374239147
 30
0.0
 10
118.8435641521467
 20
-171.5456659523935
 30
0.0
 10
118.8435641521467
 20
-171.5456659523935
 30
0.0
 10
118.8435641521467
 20
-171.5456659523935
 30
0.0
 10
105.1547356236679
 20
-169.1319459280404
 30
0.0
 10
105.1547356236679
 20
-169.1319459280404
 30
0.0
 10
105.1547356236679
 20
-169.1319459280404
 30
0.0
 10
107.5684341161743
 20
-155.4431173995615
 30
0.0
 10
107.5684341161743
 20
-155.4431173995615
 30
0.0
 10
107.5684341161743
 20
-155.4431173995615
 30
0.0
 10
121.2572626446531
 20
-157.8568374239147
 30
0.0
 10
121.2572626446531
 20
-157.8568374239147
 30
0.0
  0
SPLINE
  5
98
330
70
100
AcDbEntity
  8
top
 62
    18
420
        0
370
     9
100
AcDbSpline
210
0.0
220
0.0
230
1.0
 70
    11
 71
     3
 72
    17
 73
    13
 74
     0
 42
0.0000000001
 43
0.0000000001
 40
0.0
 40
0.0
 40
0.0
 40
0.0
 40
1.0
 40
1.0
 40
1.0
 40
2.0
 40
2.0
 40
2.0
 40
3.0
 40
3.0
 40
3.0
 40
4.0
 40
4.0
 40
4.0
 40
4.0
 10
124.5652648614368
 20
-139.0962469812849
 30
0.0
 10
124.5652648614368
 20
-139.0962469812849
 30
0.0
 10
122.1515663689304
 20
-152.7850755097638
 30
0.0
 10
122.1515663689304
 20
-152.7850755097638
 30
0.0
 10
122.1515663689304
 20
-152.7850755097638
 30
0.0
 10
108.4627378404516
 20
-150.3713554854106
 30
0.0
 10
108.4627378404516
 20
-150.3713554854106
 30
0.0
 10
108.4627378404516
 20
-150.3713554854106
 30
0.0
 10
110.876436332958
 20
-136.6825269569318
 30
0.0
 10
110.876436332958
 20
-136.6825269569318
 30
0.0
 10
110.876436332958
 20
-136.6825269569318
 30
0.0
 10
124.5652648614368
 20
-139.0962469812849
 30
0.0
 10
124.5652648614368
 20
-139.0962469812849
 30
0.0
  0
SPLINE
  5
99
330
70
100
AcDbEntity
  8
top
 62
    18
420
        0
370
     9
100
AcDbSpline
210
0.0
220
0.0
230
1.0
 70
    11
 71
     3
 72
    17
 73
    13
 74
     0
 42
0.0000000001
 43
0.0000000001
 40
0.0
 40
0.0
 40
0.0
 40
0.0
 40
1.0
 40
1.0
 40
1.0
 40
2.0
 40
2.0
 40
2.0
 40
3.0
 40
3.0
 40
3.0
 40
4.0
 40
4.0
 40
4.0
 40
4.0
 10
114.1844385497416
 20
-117.9219580461492
 30
0.0
 10
114.1844385497416
 20
-117.9219580461492
 30
0.0
 10
127.8732670782205
 20
-120.3356565386552
 30
0.0
 10
127.8732670782205
 20
-120.3356565386552
 30
0.0
 10
127.8732670782205
 20
-120.3356565386552
 30
0.0
 10
125.4595470538673
 20
-134.024485067134
 30
0.0
 10
125.4595470538673
 20
-134.024485067134
 30
0.0
 10
125.4595470538673
 20
-134.024485067134
 30
0.0
 10
111.7707185253885
 20
-131.6107650427809
 30
0.0
 10
111.7707185253885
 20
-131.6107650427809
 30
0.0
 10
111.7707185253885
 20
-131.6107650427809
 30
0.0
 10
114.1844385497416
 20
-117.9219580461492
 30
0.0
 10
114.1844385497416
 20
-117.9219580461492
 30
0.0
  0
SPLINE
  5
9A
330
70
100
AcDbEntity
  8
top
 62
    18
420
        0
370
     9
100
AcDbSpline
210
0.0
220
0.0
230
1.0
 70
     9
 71
     3
 72
    17
 73
    13
 74
     0
 42
0.0000000001
 43
0.0000000001
 40
0.0
 40
0.0
 40
0.0
 40
0.0
 40
1.0
 40
1.0
 40
1.0
 40
2.0
 40
2.0
 40
2.0
 40
3.0
 40
3.0
 40
3.0
 40
4.0
 40
4.0
 40
4.0
 40
4.0
 10
128.9888535918847
 20
-135.0387427098387
 30
0.0
 10
128.9888535918847
 20
-135.6462422349686
 30
0.0
 10
128.4963771922683
 20
-136.1387401664319
 30
0.0
 10
127.8888561352912
 20
-136.1387401664319
 30
0.0
 10
127.281356610161
 20
-136.1387401664319
 30
0.0
 10
126.788858678698
 20
-135.6462422349686
 30
0.0
 10
126.788858678698
 20
-135.0387427098387
 30
0.0
 10
126.788858678698
 20
-134.4312216528614
 30
0.0
 10
127.281356610161
 20
-133.9387452532449
 30
0.0
 10
127.8888561352912
 20
-133.9387452532449
 30
0.0
 10
128.4963771922683
 20
-133.9387452532449
 30
0.0
 10
128.9888535918847
 20
-134.4312216528614
 30
0.0
 10
128.9888535918847
 20
-135.0387427098387
 30
0.0
  0
SPLINE
  5
9B
330
70
100
AcDbEntity
  8
top
 62
    18
420
        0
370
     9
100
AcDbSpline
210
0.0
220
0.0
230
1.0
 70
    11
 71
     3
 72
    17
 73
    13
 74
     0
 42
0.0000000001
 43
0.0000000001
 40
0.0
 40
0.0
 40
0.0
 40
0.0
 40
1.0
 40
1.0
 40
1.0
 40
2.0
 40
2.0
 40
2.0
 40
3.0
 40
3.0
 40
3.0
 40
4.0
 40
4.0
 40
4.0
 40
4.0
 10
142.7180758649281
 20
-145.8510672310611
 30
0.0
 10
142.7180758649281
 20
-145.8510672310611
 30
0.0
 10
140.3043773724217
 20
-159.5398957595399
 30
0.0
 10
140.3043773724217
 20
-159.5398957595399
 30
0.0
 10
140.3043773724217
 20
-159.5398957595399
 30
0.0
 10
126.6155488439429
 20
-157.1261972670336
 30
0.0
 10
126.6155488439429
 20
-157.1261972670336
 30
0.0
 10
126.6155488439429
 20
-157.1261972670336
 30
0.0
 10
129.0292473364493
 20
-143.437368738555
 30
0.0
 10
129.0292473364493
 20
-143.437368738555
 30
0.0
 10
129.0292473364493
 20
-143.437368738555
 30
0.0
 10
142.7180758649281
 20
-145.8510672310611
 30
0.0
 10
142.7180758649281
 20
-145.8510672310611
 30
0.0
  0
SPLINE
  5
9C
330
70
100
AcDbEntity
  8
top
 62
    18
420
        0
370
     9
100
AcDbSpline
210
0.0
220
0.0
230
1.0
 70
     9
 71
     3
 72
    17
 73
    13
 74
     0
 42
0.0000000001
 43
0.0000000001
 40
0.0
 40
0.0
 40
0.0
 40
0.0
 40
1.0
 40
1.0
 40
1.0
 40
2.0
 40
2.0
 40
2.0
 40
3.0
 40
3.0
 40
3.0
 40
4.0
 40
4.0
 40
4.0
 40
4.0
 10
143.3115796896495
 20
-169.7013556162118
 30
0.0
 10
143.3115796896495
 20
-170.4352040182636
 30
0.0
 10
142.7166762948872
 20
-171.0301074130259
 30
0.0
 10
141.9828063609887
 20
-171.0301074130259
 30
0.0
 10
141.2489579589372
 20
-171.0301074130259
 30
0.0
 10
140.6540545641746
 20
-170.4352040182636
 30
0.0
 10
140.6540545641746
 20
-169.7013556162118
 30
0.0
 10
140.6540545641746
 20
-168.9674856823132
 30
0.0
 10
141.2489579589372
 20
-168.3725822875509
 30
0.0
 10
141.9828063609887
 20
-168.3725822875509
 30
0.0
 10
142.7166762948872
 20
-168.3725822875509
 30
0.0
 10
143.3115796896495
 20
-168.9674856823132
 30
0.0
 10
143.3115796896495
 20
-169.7013556162118
 30
0.0
  0
SPLINE
  5
9D
330
70
100
AcDbEntity
  8
top
 62
    18
420
        0
370
     9
100
AcDbSpline
210
0.0
220
0.0
230
1.0
 70
    11
 71
     3
 72
    17
 73
    13
 74
     0
 42
0.0000000001
 43
0.0000000001
 40
0.0
 40
0.0
 40
0.0
 40
0.0
 40
1.0
 40
1.0
 40
1.0
 40
2.0
 40
2.0
 40
2.0
 40
3.0
 40
3.0
 40
3.0
 40
4.0
 40
4.0
 40
4.0
 40
4.0
 10
132.3372495532329
 20
-124.676778295925
 30
0.0
 10
132.3372495532329
 20
-124.676778295925
 30
0.0
 10
146.0260780817118
 20
-127.0904767884317
 30
0.0
 10
146.0260780817118
 20
-127.0904767884317
 30
0.0
 10
146.0260780817118
 20
-127.0904767884317
 30
0.0
 10
143.6123795892057
 20
-140.7793053169105
 30
0.0
 10
143.6123795892057
 20
-140.7793053169105
 30
0.0
 10
143.6123795892057
 20
-140.7793053169105
 30
0.0
 10
129.9235510607269
 20
-138.3656068244038
 30
0.0
 10
129.9235510607269
 20
-138.3656068244038
 30
0.0
 10
129.9235510607269
 20
-138.3656068244038
 30
0.0
 10
132.3372495532329
 20
-124.676778295925
 30
0.0
 10
132.3372495532329
 20
-124.676778295925
 30
0.0
  0
SPLINE
  5
9E
330
70
100
AcDbEntity
  8
top
 62
    18
420
        0
370
     9
100
AcDbSpline
210
0.0
220
0.0
230
1.0
 70
    11
 71
     3
 72
    17
 73
    13
 74
     0
 42
0.0000000001
 43
0.0000000001
 40
0.0
 40
0.0
 40
0.0
 40
0.0
 40
1.0
 40
1.0
 40
1.0
 40
2.0
 40
2.0
 40
2.0
 40
3.0
 40
3.0
 40
3.0
 40
4.0
 40
4.0
 40
4.0
 40
4.0
 10
134.6571337893066
 20
-118.4144129139185
 30
0.0
 10
135.2094256592857
 20
-118.4144129139185
 30
0.0
 10
135.6571373494411
 20
-118.8621246040738
 30
0.0
 10
135.6571373494411
 20
-119.4144164740526
 30
0.0
 10
135.6571373494411
 20
-119.9667083440321
 30
0.0
 10
135.2094256592857
 20
-120.4144200341867
 30
0.0
 10
134.6571337893066
 20
-120.4144200341867
 30
0.0
 10
134.1048419193275
 20
-120.4144200341867
 30
0.0
 10
133.6571302291725
 20
-119.9667083440321
 30
0.0
 10
133.6571302291725
 20
-119.4144164740526
 30
0.0
 10
133.6571302291725
 20
-118.8621246040738
 30
0.0
 10
134.1048419193275
 20
-118.4144129139185
 30
0.0
 10
134.6571337893066
 20
-118.4144129139185
 30
0.0
  0
SPLINE
  5
9F
330
70
100
AcDbEntity
  8
top
 62
    18
420
        0
370
     9
100
AcDbSpline
210
0.0
220
0.0
230
1.0
 70
     9
 71
     3
 72
    17
 73
    13
 74
     0
 42
0.0000000001
 43
0.0000000001
 40
0.0
 40
0.0
 40
0.0
 40
0.0
 40
1.0
 40
1.0
 40
1.0
 40
2.0
 40
2.0
 40
2.0
 40
3.0
 40
3.0
 40
3.0
 40
4.0
 40
4.0
 40
4.0
 40
4.0
 10
145.9030881728883
 20
-120.4144200341867
 30
0.0
 10
146.455358511021
 20
-120.4144200341867
 30
0.0
 10
146.9030702011757
 20
-120.8621317243417
 30
0.0
 10
146.9030702011757
 20
-121.4144235943212
 30
0.0
 10
146.9030702011757
 20
-121.9666939324532
 30
0.0
 10
146.455358511021
 20
-122.414427154455
 30
0.0
 10
145.9030881728883
 20
-122.414427154455
 30
0.0
 10
145.3507963029092
 20
-122.414427154455
 30
0.0
 10
144.9030846127546
 20
-121.9666939324532
 30
0.0
 10
144.9030846127546
 20
-121.4144235943212
 30
0.0
 10
144.9030846127546
 20
-120.8621317243417
 30
0.0
 10
145.3507963029092
 20
-120.4144200341867
 30
0.0
 10
145.9030881728883
 20
-120.4144200341867
 30
0.0
  0
SPLINE
  5
A0
330
70
100
AcDbEntity
  8
top
 62
    18
420
        0
370
     9
100
AcDbSpline
210
0.0
220
0.0
230
1.0
 70
     9
 71
     3
 72
    17
 73
    13
 74
     0
 42
0.0000000001
 43
0.0000000001
 40
0.0
 40
0.0
 40
0.0
 40
0.0
 40
1.0
 40
1.0
 40
1.0
 40
2.0
 40
2.0
 40
2.0
 40
3.0
 40
3.0
 40
3.0
 40
4.0
 40
4.0
 40
4.0
 40
4.0
 10
147.3309725922905
 20
-149.0266485901305
 30
0.0
 10
146.597124190239
 20
-149.0266485901305
 30
0.0
 10
146.0021992636296
 20
-148.4317451953682
 30
0.0
 10
146.0021992636296
 20
-147.6978752614696
 30
0.0
 10
146.0021992636296
 20
-146.9640268594181
 30
0.0
 10
146.597124190239
 20
-146.3691234646555
 30
0.0
 10
147.3309725922905
 20
-146.3691234646555
 30
0.0
 10
148.0648209943426
 20
-146.3691234646555
 30
0.0
 10
148.6597459209514
 20
-146.9640268594181
 30
0.0
 10
148.6597459209514
 20
-147.6978752614696
 30
0.0
 10
148.6597459209514
 20
-148.4317451953682
 30
0.0
 10
148.0648209943426
 20
-149.0266485901305
 30
0.0
 10
147.3309725922905
 20
-149.0266485901305
 30
0.0
  0
SPLINE
  5
A1
330
70
100
AcDbEntity
  8
top
 62
    18
420
        0
370
     9
100
AcDbSpline
210
0.0
220
0.0
230
1.0
 70
     9
 71
     3
 72
    17
 73
    13
 74
     0
 42
0.0000000001
 43
0.0000000001
 40
0.0
 40
0.0
 40
0.0
 40
0.0
 40
1.0
 40
1.0
 40
1.0
 40
2.0
 40
2.0
 40
2.0
 40
3.0
 40
3.0
 40
3.0
 40
4.0
 40
4.0
 40
4.0
 40
4.0
 10
147.3309725922905
 20
-154.527518678816
 30
0.0
 10
146.597124190239
 20
-154.527518678816
 30
0.0
 10
146.0021992636296
 20
-153.932593752207
 30
0.0
 10
146.0021992636296
 20
-153.1987453501552
 30
0.0
 10
146.0021992636296
 20
-152.4648969481034
 30
0.0
 10
146.597124190239
 20
-151.8699720214943
 30
0.0
 10
147.3309725922905
 20
-151.8699720214943
 30
0.0
 10
148.0648209943426
 20
-151.8699720214943
 30
0.0
 10
148.6597459209514
 20
-152.4648969481034
 30
0.0
 10
148.6597459209514
 20
-153.1987453501552
 30
0.0
 10
148.6597459209514
 20
-153.932593752207
 30
0.0
 10
148.0648209943426
 20
-154.527518678816
 30
0.0
 10
147.3309725922905
 20
-154.527518678816
 30
0.0
  0
SPLINE
  5
A2
330
70
100
AcDbEntity
  8
top
 62
    18
420
        0
370
     9
100
AcDbSpline
210
0.0
220
0.0
230
1.0
 70
     9
 71
     3
 72
    17
 73
    13
 74
     0
 42
0.0000000001
 43
0.0000000001
 40
0.0
 40
0.0
 40
0.0
 40
0.0
 40
1.0
 40
1.0
 40
1.0
 40
2.0
 40
2.0
 40
2.0
 40
3.0
 40
3.0
 40
3.0
 40
4.0
 40
4.0
 40
4.0
 40
4.0
 10
147.3309725922905
 20
-160.0283887675016
 30
0.0
 10
146.597124190239
 20
-160.0283887675016
 30
0.0
 10
146.0021992636296
 20
-159.4334638408925
 30
0.0
 10
146.0021992636296
 20
-158.6996154388407
 30
0.0
 10
146.0021992636296
 20
-157.9657670367889
 30
0.0
 10
146.597124190239
 20
-157.3708421101798
 30
0.0
 10
147.3309725922905
 20
-157.3708421101798
 30
0.0
 10
148.0648209943426
 20
-157.3708421101798
 30
0.0
 10
148.6597459209514
 20
-157.9657670367889
 30
0.0
 10
148.6597459209514
 20
-158.6996154388407
 30
0.0
 10
148.6597459209514
 20
-159.4334638408925
 30
0.0
 10
148.0648209943426
 20
-160.0283887675016
 30
0.0
 10
147.3309725922905
 20
-160.0283887675016
 30
0.0
  0
SPLINE
  5
A3
330
70
100
AcDbEntity
  8
top
 62
    18
420
        0
370
     9
100
AcDbSpline
210
0.0
220
0.0
230
1.0
 70
     9
 71
     3
 72
    17
 73
    13
 74
     0
 42
0.0000000001
 43
0.0000000001
 40
0.0
 40
0.0
 40
0.0
 40
0.0
 40
1.0
 40
1.0
 40
1.0
 40
2.0
 40
2.0
 40
2.0
 40
3.0
 40
3.0
 40
3.0
 40
4.0
 40
4.0
 40
4.0
 40
4.0
 10
147.3309725922905
 20
-165.5292373243403
 30
0.0
 10
146.597124190239
 20
-165.5292373243403
 30
0.0
 10
146.0021992636296
 20
-164.934333929578
 30
0.0
 10
146.0021992636296
 20
-164.2004855275262
 30
0.0
 10
146.0021992636296
 20
-163.4666155936277
 30
0.0
 10
146.597124190239
 20
-162.8717121988654
 30
0.0
 10
147.3309725922905
 20
-162.8717121988654
 30
0.0
 10
148.0648209943426
 20
-162.8717121988654
 30
0.0
 10
148.6597459209514
 20
-163.4666155936277
 30
0.0
 10
148.6597459209514
 20
-164.2004855275262
 30
0.0
 10
148.6597459209514
 20
-164.934333929578
 30
0.0
 10
148.0648209943426
 20
-165.5292373243403
 30
0.0
 10
147.3309725922905
 20
-165.5292373243403
 30
0.0
  0
SPLINE
  5
A4
330
70
100
AcDbEntity
  8
top
 62
    18
420
        0
370
     9
100
AcDbSpline
210
0.0
220
0.0
230
1.0
 70
     9
 71
     3
 72
    17
 73
    13
 74
     0
 42
0.0000000001
 43
0.0000000001
 40
0.0
 40
0.0
 40
0.0
 40
0.0
 40
1.0
 40
1.0
 40
1.0
 40
2.0
 40
2.0
 40
2.0
 40
3.0
 40
3.0
 40
3.0
 40
4.0
 40
4.0
 40
4.0
 40
4.0
 10
146.0021992636296
 20
-169.7013556162118
 30
0.0
 10
146.0021992636296
 20
-168.9674856823132
 30
0.0
 10
146.597124190239
 20
-168.3725822875509
 30
0.0
 10
147.3309725922905
 20
-168.3725822875509
 30
0.0
 10
148.0648209943426
 20
-168.3725822875509
 30
0.0
 10
148.6597459209514
 20
-168.9674856823132
 30
0.0
 10
148.6597459209514
 20
-169.7013556162118
 30
0.0
 10
148.6597459209514
 20
-170.4352040182636
 30
0.0
 10
148.0648209943426
 20
-171.0301074130259
 30
0.0
 10
147.3309725922905
 20
-171.0301074130259
 30
0.0
 10
146.597124190239
 20
-171.0301074130259
 30
0.0
 10
146.0021992636296
 20
-170.4352040182636
 30
0.0
 10
146.0021992636296
 20
-169.7013556162118
 30
0.0
  0
SPLINE
  5
A5
330
70
100
AcDbEntity
  8
top
 62
    18
420
        0
370
     9
100
AcDbSpline
210
0.0
220
0.0
230
1.0
 70
     9
 71
     3
 72
    17
 73
    13
 74
     0
 42
0.0000000001
 43
0.0000000001
 40
0.0
 40
0.0
 40
0.0
 40
0.0
 40
1.0
 40
1.0
 40
1.0
 40
2.0
 40
2.0
 40
2.0
 40
3.0
 40
3.0
 40
3.0
 40
4.0
 40
4.0
 40
4.0
 40
4.0
 10
144.6866249570466
 20
-171.1299721184045
 30
0.0
 10
145.4204948909452
 20
-171.1299721184045
 30
0.0
 10
146.0153982857075
 20
-171.7248755131669
 30
0.0
 10
146.0153982857075
 20
-172.4587454470654
 30
0.0
 10
146.0153982857075
 20
-173.1925938491172
 30
0.0
 10
145.4204948909452
 20
-173.7874972438795
 30
0.0
 10
144.6866249570466
 20
-173.7874972438795
 30
0.0
 10
143.9527765549949
 20
-173.7874972438795
 30
0.0
 10
143.3578731602329
 20
-173.1925938491172
 30
0.0
 10
143.3578731602329
 20
-172.4587454470654
 30
0.0
 10
143.3578731602329
 20
-171.7248755131669
 30
0.0
 10
143.9527765549949
 20
-171.1299721184045
 30
0.0
 10
144.6866249570466
 20
-171.1299721184045
 30
0.0
  0
SPLINE
  5
A6
330
70
100
AcDbEntity
  8
top
 62
    18
420
        0
370
     9
100
AcDbSpline
210
0.0
220
0.0
230
1.0
 70
     9
 71
     3
 72
    17
 73
    13
 74
     0
 42
0.0000000001
 43
0.0000000001
 40
0.0
 40
0.0
 40
0.0
 40
0.0
 40
1.0
 40
1.0
 40
1.0
 40
2.0
 40
2.0
 40
2.0
 40
3.0
 40
3.0
 40
3.0
 40
4.0
 40
4.0
 40
4.0
 40
4.0
 10
144.6866249570466
 20
-165.629102029719
 30
0.0
 10
145.4204948909452
 20
-165.629102029719
 30
0.0
 10
146.0153982857075
 20
-166.2240269563281
 30
0.0
 10
146.0153982857075
 20
-166.9578753583799
 30
0.0
 10
146.0153982857075
 20
-167.6917237604316
 30
0.0
 10
145.4204948909452
 20
-168.2866486870407
 30
0.0
 10
144.6866249570466
 20
-168.2866486870407
 30
0.0
 10
143.9527765549949
 20
-168.2866486870407
 30
0.0
 10
143.3578731602329
 20
-167.6917237604316
 30
0.0
 10
143.3578731602329
 20
-166.9578753583799
 30
0.0
 10
143.3578731602329
 20
-166.2240269563281
 30
0.0
 10
143.9527765549949
 20
-165.629102029719
 30
0.0
 10
144.6866249570466
 20
-165.629102029719
 30
0.0
  0
SPLINE
  5
A7
330
70
100
AcDbEntity
  8
top
 62
    18
420
        0
370
     9
100
AcDbSpline
210
0.0
220
0.0
230
1.0
 70
     9
 71
     3
 72
    17
 73
    13
 74
     0
 42
0.0000000001
 43
0.0000000001
 40
0.0
 40
0.0
 40
0.0
 40
0.0
 40
1.0
 40
1.0
 40
1.0
 40
2.0
 40
2.0
 40
2.0
 40
3.0
 40
3.0
 40
3.0
 40
4.0
 40
4.0
 40
4.0
 40
4.0
 10
144.6866249570466
 20
-160.1282534728802
 30
0.0
 10
145.4204948909452
 20
-160.1282534728802
 30
0.0
 10
146.0153982857075
 20
-160.7231568676425
 30
0.0
 10
146.0153982857075
 20
-161.4570052696943
 30
0.0
 10
146.0153982857075
 20
-162.1908752035929
 30
0.0
 10
145.4204948909452
 20
-162.7857785983552
 30
0.0
 10
144.6866249570466
 20
-162.7857785983552
 30
0.0
 10
143.9527765549949
 20
-162.7857785983552
 30
0.0
 10
143.3578731602329
 20
-162.1908752035929
 30
0.0
 10
143.3578731602329
 20
-161.4570052696943
 30
0.0
 10
143.3578731602329
 20
-160.7231568676425
 30
0.0
 10
143.9527765549949
 20
-160.1282534728802
 30
0.0
 10
144.6866249570466
 20
-160.1282534728802
 30
0.0
  0
SPLINE
  5
A8
330
70
100
AcDbEntity
  8
top
 62
    18
420
        0
370
     9
100
AcDbSpline
210
0.0
220
0.0
230
1.0
 70
     9
 71
     3
 72
    17
 73
    13
 74
     0
 42
0.0000000001
 43
0.0000000001
 40
0.0
 40
0.0
 40
0.0
 40
0.0
 40
1.0
 40
1.0
 40
1.0
 40
2.0
 40
2.0
 40
2.0
 40
3.0
 40
3.0
 40
3.0
 40
4.0
 40
4.0
 40
4.0
 40
4.0
 10
143.3578731602329
 20
-150.4552650923232
 30
0.0
 10
143.3578731602329
 20
-149.7214166902715
 30
0.0
 10
143.9527765549949
 20
-149.1265132955095
 30
0.0
 10
144.6866249570466
 20
-149.1265132955095
 30
0.0
 10
145.4204948909452
 20
-149.1265132955095
 30
0.0
 10
146.0153982857075
 20
-149.7214166902715
 30
0.0
 10
146.0153982857075
 20
-150.4552650923232
 30
0.0
 10
146.0153982857075
 20
-151.1891350262218
 30
0.0
 10
145.4204948909452
 20
-151.7840384209841
 30
0.0
 10
144.6866249570466
 20
-151.7840384209841
 30
0.0
 10
143.9527765549949
 20
-151.7840384209841
 30
0.0
 10
143.3578731602329
 20
-151.1891350262218
 30
0.0
 10
143.3578731602329
 20
-150.4552650923232
 30
0.0
  0
SPLINE
  5
A9
330
70
100
AcDbEntity
  8
top
 62
    18
420
        0
370
     9
100
AcDbSpline
210
0.0
220
0.0
230
1.0
 70
     9
 71
     3
 72
    17
 73
    13
 74
     0
 42
0.0000000001
 43
0.0000000001
 40
0.0
 40
0.0
 40
0.0
 40
0.0
 40
1.0
 40
1.0
 40
1.0
 40
2.0
 40
2.0
 40
2.0
 40
3.0
 40
3.0
 40
3.0
 40
4.0
 40
4.0
 40
4.0
 40
4.0
 10
144.6866249570466
 20
-154.6273833841947
 30
0.0
 10
145.4204948909452
 20
-154.6273833841947
 30
0.0
 10
146.0153982857075
 20
-155.222286778957
 30
0.0
 10
146.0153982857075
 20
-155.9561351810088
 30
0.0
 10
146.0153982857075
 20
-156.6900051149073
 30
0.0
 10
145.4204948909452
 20
-157.2849085096696
 30
0.0
 10
144.6866249570466
 20
-157.2849085096696
 30
0.0
 10
143.9527765549949
 20
-157.2849085096696
 30
0.0
 10
143.3578731602329
 20
-156.6900051149073
 30
0.0
 10
143.3578731602329
 20
-155.9561351810088
 30
0.0
 10
143.3578731602329
 20
-155.222286778957
 30
0.0
 10
143.9527765549949
 20
-154.6273833841947
 30
0.0
 10
144.6866249570466
 20
-154.6273833841947
 30
0.0
  0
SPLINE
  5
AA
330
70
100
AcDbEntity
  8
top
 62
    18
420
        0
370
     9
100
AcDbSpline
210
0.0
220
0.0
230
1.0
 70
     9
 71
     3
 72
    17
 73
    13
 74
     0
 42
0.0000000001
 43
0.0000000001
 40
0.0
 40
0.0
 40
0.0
 40
0.0
 40
1.0
 40
1.0
 40
1.0
 40
2.0
 40
2.0
 40
2.0
 40
3.0
 40
3.0
 40
3.0
 40
4.0
 40
4.0
 40
4.0
 40
4.0
 10
148.6597459209514
 20
-142.196122367066
 30
0.0
 10
148.6597459209514
 20
-142.9299707691177
 30
0.0
 10
148.0648209943426
 20
-143.5248741638804
 30
0.0
 10
147.3309725922905
 20
-143.5248741638804
 30
0.0
 10
146.597124190239
 20
-143.5248741638804
 30
0.0
 10
146.0021992636296
 20
-142.9299707691177
 30
0.0
 10
146.0021992636296
 20
-142.196122367066
 30
0.0
 10
146.0021992636296
 20
-141.4622524331674
 30
0.0
 10
146.597124190239
 20
-140.8673490384051
 30
0.0
 10
147.3309725922905
 20
-140.8673490384051
 30
0.0
 10
148.0648209943426
 20
-140.8673490384051
 30
0.0
 10
148.6597459209514
 20
-141.4622524331674
 30
0.0
 10
148.6597459209514
 20
-142.196122367066
 30
0.0
  0
SPLINE
  5
AB
330
70
100
AcDbEntity
  8
top
 62
    18
420
        0
370
     9
100
AcDbSpline
210
0.0
220
0.0
230
1.0
 70
     9
 71
     3
 72
    17
 73
    13
 74
     0
 42
0.0000000001
 43
0.0000000001
 40
0.0
 40
0.0
 40
0.0
 40
0.0
 40
1.0
 40
1.0
 40
1.0
 40
2.0
 40
2.0
 40
2.0
 40
3.0
 40
3.0
 40
3.0
 40
4.0
 40
4.0
 40
4.0
 40
4.0
 10
151.0954714927166
 20
-177.0577971969465
 30
0.0
 10
151.0954714927166
 20
-177.6652967220767
 30
0.0
 10
150.6029950931001
 20
-178.1577946535399
 30
0.0
 10
149.9954740361231
 20
-178.1577946535399
 30
0.0
 10
149.3879745109928
 20
-178.1577946535399
 30
0.0
 10
148.8954765795296
 20
-177.6652967220767
 30
0.0
 10
148.8954765795296
 20
-177.0577971969465
 30
0.0
 10
148.8954765795296
 20
-176.4502761399695
 30
0.0
 10
149.3879745109928
 20
-175.957799740353
 30
0.0
 10
149.9954740361231
 20
-175.957799740353
 30
0.0
 10
150.6029950931001
 20
-175.957799740353
 30
0.0
 10
151.0954714927166
 20
-176.4502761399695
 30
0.0
 10
151.0954714927166
 20
-177.0577971969465
 30
0.0
  0
SPLINE
  5
AC
330
70
100
AcDbEntity
  8
top
 62
    18
420
        0
370
     9
100
AcDbSpline
210
0.0
220
0.0
230
1.0
 70
     9
 71
     3
 72
    17
 73
    13
 74
     0
 42
0.0000000001
 43
0.0000000001
 40
0.0
 40
0.0
 40
0.0
 40
0.0
 40
1.0
 40
1.0
 40
1.0
 40
2.0
 40
2.0
 40
2.0
 40
3.0
 40
3.0
 40
3.0
 40
4.0
 40
4.0
 40
4.0
 40
4.0
 10
150.0050557079414
 20
-171.1299721184045
 30
0.0
 10
150.7389041099932
 20
-171.1299721184045
 30
0.0
 10
151.3338290366023
 20
-171.7248755131669
 30
0.0
 10
151.3338290366023
 20
-172.4587454470654
 30
0.0
 10
151.3338290366023
 20
-173.1925938491172
 30
0.0
 10
150.7389041099932
 20
-173.7874972438795
 30
0.0
 10
150.0050557079414
 20
-173.7874972438795
 30
0.0
 10
149.27120730589
 20
-173.7874972438795
 30
0.0
 10
148.6762823792806
 20
-173.1925938491172
 30
0.0
 10
148.6762823792806
 20
-172.4587454470654
 30
0.0
 10
148.6762823792806
 20
-171.7248755131669
 30
0.0
 10
149.27120730589
 20
-171.1299721184045
 30
0.0
 10
150.0050557079414
 20
-171.1299721184045
 30
0.0
  0
SPLINE
  5
AD
330
70
100
AcDbEntity
  8
top
 62
    18
420
        0
370
     9
100
AcDbSpline
210
0.0
220
0.0
230
1.0
 70
     9
 71
     3
 72
    17
 73
    13
 74
     0
 42
0.0000000001
 43
0.0000000001
 40
0.0
 40
0.0
 40
0.0
 40
0.0
 40
1.0
 40
1.0
 40
1.0
 40
2.0
 40
2.0
 40
2.0
 40
3.0
 40
3.0
 40
3.0
 40
4.0
 40
4.0
 40
4.0
 40
4.0
 10
150.0050557079414
 20
-165.629102029719
 30
0.0
 10
150.7389041099932
 20
-165.629102029719
 30
0.0
 10
151.3338290366023
 20
-166.2240269563281
 30
0.0
 10
151.3338290366023
 20
-166.9578753583799
 30
0.0
 10
151.3338290366023
 20
-167.6917237604316
 30
0.0
 10
150.7389041099932
 20
-168.2866486870407
 30
0.0
 10
150.0050557079414
 20
-168.2866486870407
 30
0.0
 10
149.27120730589
 20
-168.2866486870407
 30
0.0
 10
148.6762823792806
 20
-167.6917237604316
 30
0.0
 10
148.6762823792806
 20
-166.9578753583799
 30
0.0
 10
148.6762823792806
 20
-166.2240269563281
 30
0.0
 10
149.27120730589
 20
-165.629102029719
 30
0.0
 10
150.0050557079414
 20
-165.629102029719
 30
0.0
  0
SPLINE
  5
AE
330
70
100
AcDbEntity
  8
top
 62
    18
420
        0
370
     9
100
AcDbSpline
210
0.0
220
0.0
230
1.0
 70
     9
 71
     3
 72
    17
 73
    13
 74
     0
 42
0.0000000001
 43
0.0000000001
 40
0.0
 40
0.0
 40
0.0
 40
0.0
 40
1.0
 40
1.0
 40
1.0
 40
2.0
 40
2.0
 40
2.0
 40
3.0
 40
3.0
 40
3.0
 40
4.0
 40
4.0
 40
4.0
 40
4.0
 10
150.0050557079414
 20
-154.6273833841947
 30
0.0
 10
150.7389041099932
 20
-154.6273833841947
 30
0.0
 10
151.3338290366023
 20
-155.222286778957
 30
0.0
 10
151.3338290366023
 20
-155.9561351810088
 30
0.0
 10
151.3338290366023
 20
-156.6900051149073
 30
0.0
 10
150.7389041099932
 20
-157.2849085096696
 30
0.0
 10
150.0050557079414
 20
-157.2849085096696
 30
0.0
 10
149.27120730589
 20
-157.2849085096696
 30
0.0
 10
148.6762823792806
 20
-156.6900051149073
 30
0.0
 10
148.6762823792806
 20
-155.9561351810088
 30
0.0
 10
148.6762823792806
 20
-155.222286778957
 30
0.0
 10
149.27120730589
 20
-154.6273833841947
 30
0.0
 10
150.0050557079414
 20
-154.6273833841947
 30
0.0
  0
SPLINE
  5
AF
330
70
100
AcDbEntity
  8
top
 62
    18
420
        0
370
     9
100
AcDbSpline
210
0.0
220
0.0
230
1.0
 70
     9
 71
     3
 72
    17
 73
    13
 74
     0
 42
0.0000000001
 43
0.0000000001
 40
0.0
 40
0.0
 40
0.0
 40
0.0
 40
1.0
 40
1.0
 40
1.0
 40
2.0
 40
2.0
 40
2.0
 40
3.0
 40
3.0
 40
3.0
 40
4.0
 40
4.0
 40
4.0
 40
4.0
 10
150.0050557079414
 20
-149.1265132955095
 30
0.0
 10
150.7389041099932
 20
-149.1265132955095
 30
0.0
 10
151.3338290366023
 20
-149.7214166902715
 30
0.0
 10
151.3338290366023
 20
-150.4552650923232
 30
0.0
 10
151.3338290366023
 20
-151.1891350262218
 30
0.0
 10
150.7389041099932
 20
-151.7840384209841
 30
0.0
 10
150.0050557079414
 20
-151.7840384209841
 30
0.0
 10
149.27120730589
 20
-151.7840384209841
 30
0.0
 10
148.6762823792806
 20
-151.1891350262218
 30
0.0
 10
148.6762823792806
 20
-150.4552650923232
 30
0.0
 10
148.6762823792806
 20
-149.7214166902715
 30
0.0
 10
149.27120730589
 20
-149.1265132955095
 30
0.0
 10
150.0050557079414
 20
-149.1265132955095
 30
0.0
  0
SPLINE
  5
B0
330
70
100
AcDbEntity
  8
top
 62
    18
420
        0
370
     9
100
AcDbSpline
210
0.0
220
0.0
230
1.0
 70
     9
 71
     3
 72
    17
 73
    13
 74
     0
 42
0.0000000001
 43
0.0000000001
 40
0.0
 40
0.0
 40
0.0
 40
0.0
 40
1.0
 40
1.0
 40
1.0
 40
2.0
 40
2.0
 40
2.0
 40
3.0
 40
3.0
 40
3.0
 40
4.0
 40
4.0
 40
4.0
 40
4.0
 10
150.0050557079414
 20
-143.6256432068239
 30
0.0
 10
150.7389041099932
 20
-143.6256432068239
 30
0.0
 10
151.3338290366023
 20
-144.2205466015859
 30
0.0
 10
151.3338290366023
 20
-144.9544165354848
 30
0.0
 10
151.3338290366023
 20
-145.6882649375363
 30
0.0
 10
150.7389041099932
 20
-146.2831683322986
 30
0.0
 10
150.0050557079414
 20
-146.2831683322986
 30
0.0
 10
149.27120730589
 20
-146.2831683322986
 30
0.0
 10
148.6762823792806
 20
-145.6882649375363
 30
0.0
 10
148.6762823792806
 20
-144.9544165354848
 30
0.0
 10
148.6762823792806
 20
-144.2205466015859
 30
0.0
 10
149.27120730589
 20
-143.6256432068239
 30
0.0
 10
150.0050557079414
 20
-143.6256432068239
 30
0.0
  0
SPLINE
  5
B1
330
70
100
AcDbEntity
  8
top
 62
    18
420
        0
370
     9
100
AcDbSpline
210
0.0
220
0.0
230
1.0
 70
     9
 71
     3
 72
    17
 73
    13
 74
     0
 42
0.0000000001
 43
0.0000000001
 40
0.0
 40
0.0
 40
0.0
 40
0.0
 40
1.0
 40
1.0
 40
1.0
 40
2.0
 40
2.0
 40
2.0
 40
3.0
 40
3.0
 40
3.0
 40
4.0
 40
4.0
 40
4.0
 40
4.0
 10
150.0050557079414
 20
-138.1247731181384
 30
0.0
 10
150.7389041099932
 20
-138.1247731181384
 30
0.0
 10
151.3338290366023
 20
-138.7196765129004
 30
0.0
 10
151.3338290366023
 20
-139.4535464467992
 30
0.0
 10
151.3338290366023
 20
-140.1873948488507
 30
0.0
 10
150.7389041099932
 20
-140.782298243613
 30
0.0
 10
150.0050557079414
 20
-140.782298243613
 30
0.0
 10
149.27120730589
 20
-140.782298243613
 30
0.0
 10
148.6762823792806
 20
-140.1873948488507
 30
0.0
 10
148.6762823792806
 20
-139.4535464467992
 30
0.0
 10
148.6762823792806
 20
-138.7196765129004
 30
0.0
 10
149.27120730589
 20
-138.1247731181384
 30
0.0
 10
150.0050557079414
 20
-138.1247731181384
 30
0.0
  0
SPLINE
  5
B2
330
70
100
AcDbEntity
  8
top
 62
    18
420
        0
370
     9
100
AcDbSpline
210
0.0
220
0.0
230
1.0
 70
     9
 71
     3
 72
    17
 73
    13
 74
     0
 42
0.0000000001
 43
0.0000000001
 40
0.0
 40
0.0
 40
0.0
 40
0.0
 40
1.0
 40
1.0
 40
1.0
 40
2.0
 40
2.0
 40
2.0
 40
3.0
 40
3.0
 40
3.0
 40
4.0
 40
4.0
 40
4.0
 40
4.0
 10
152.670547616726
 20
-168.3725822875509
 30
0.0
 10
153.4044175506246
 20
-168.3725822875509
 30
0.0
 10
153.9993209453869
 20
-168.9674856823132
 30
0.0
 10
153.9993209453869
 20
-169.7013556162118
 30
0.0
 10
153.9993209453869
 20
-170.4352040182636
 30
0.0
 10
153.4044175506246
 20
-171.0301074130259
 30
0.0
 10
152.670547616726
 20
-171.0301074130259
 30
0.0
 10
151.9366992146743
 20
-171.0301074130259
 30
0.0
 10
151.3417958199119
 20
-170.4352040182636
 30
0.0
 10
151.3417958199119
 20
-169.7013556162118
 30
0.0
 10
151.3417958199119
 20
-168.9674856823132
 30
0.0
 10
151.9366992146743
 20
-168.3725822875509
 30
0.0
 10
152.670547616726
 20
-168.3725822875509
 30
0.0
  0
SPLINE
  5
B3
330
70
100
AcDbEntity
  8
top
 62
    18
420
        0
370
     9
100
AcDbSpline
210
0.0
220
0.0
230
1.0
 70
     9
 71
     3
 72
    17
 73
    13
 74
     0
 42
0.0000000001
 43
0.0000000001
 40
0.0
 40
0.0
 40
0.0
 40
0.0
 40
1.0
 40
1.0
 40
1.0
 40
2.0
 40
2.0
 40
2.0
 40
3.0
 40
3.0
 40
3.0
 40
4.0
 40
4.0
 40
4.0
 40
4.0
 10
152.670547616726
 20
-162.8717121988654
 30
0.0
 10
153.4044175506246
 20
-162.8717121988654
 30
0.0
 10
153.9993209453869
 20
-163.4666155936277
 30
0.0
 10
153.9993209453869
 20
-164.2004855275262
 30
0.0
 10
153.9993209453869
 20
-164.934333929578
 30
0.0
 10
153.4044175506246
 20
-165.5292373243403
 30
0.0
 10
152.670547616726
 20
-165.5292373243403
 30
0.0
 10
151.9366992146743
 20
-165.5292373243403
 30
0.0
 10
151.3417958199119
 20
-164.934333929578
 30
0.0
 10
151.3417958199119
 20
-164.2004855275262
 30
0.0
 10
151.3417958199119
 20
-163.4666155936277
 30
0.0
 10
151.9366992146743
 20
-162.8717121988654
 30
0.0
 10
152.670547616726
 20
-162.8717121988654
 30
0.0
  0
SPLINE
  5
B4
330
70
100
AcDbEntity
  8
top
 62
    18
420
        0
370
     9
100
AcDbSpline
210
0.0
220
0.0
230
1.0
 70
     9
 71
     3
 72
    17
 73
    13
 74
     0
 42
0.0000000001
 43
0.0000000001
 40
0.0
 40
0.0
 40
0.0
 40
0.0
 40
1.0
 40
1.0
 40
1.0
 40
2.0
 40
2.0
 40
2.0
 40
3.0
 40
3.0
 40
3.0
 40
4.0
 40
4.0
 40
4.0
 40
4.0
 10
152.670547616726
 20
-157.3708421101798
 30
0.0
 10
153.4044175506246
 20
-157.3708421101798
 30
0.0
 10
153.9993209453869
 20
-157.9657670367889
 30
0.0
 10
153.9993209453869
 20
-158.6996154388407
 30
0.0
 10
153.9993209453869
 20
-159.4334638408925
 30
0.0
 10
153.4044175506246
 20
-160.0283887675016
 30
0.0
 10
152.670547616726
 20
-160.0283887675016
 30
0.0
 10
151.9366992146743
 20
-160.0283887675016
 30
0.0
 10
151.3417958199119
 20
-159.4334638408925
 30
0.0
 10
151.3417958199119
 20
-158.6996154388407
 30
0.0
 10
151.3417958199119
 20
-157.9657670367889
 30
0.0
 10
151.9366992146743
 20
-157.3708421101798
 30
0.0
 10
152.670547616726
 20
-157.3708421101798
 30
0.0
  0
SPLINE
  5
B5
330
70
100
AcDbEntity
  8
top
 62
    18
420
        0
370
     9
100
AcDbSpline
210
0.0
220
0.0
230
1.0
 70
     9
 71
     3
 72
    17
 73
    13
 74
     0
 42
0.0000000001
 43
0.0000000001
 40
0.0
 40
0.0
 40
0.0
 40
0.0
 40
1.0
 40
1.0
 40
1.0
 40
2.0
 40
2.0
 40
2.0
 40
3.0
 40
3.0
 40
3.0
 40
4.0
 40
4.0
 40
4.0
 40
4.0
 10
152.670547616726
 20
-151.8699720214943
 30
0.0
 10
153.4044175506246
 20
-151.8699720214943
 30
0.0
 10
153.9993209453869
 20
-152.4648969481034
 30
0.0
 10
153.9993209453869
 20
-153.1987453501552
 30
0.0
 10
153.9993209453869
 20
-153.932593752207
 30
0.0
 10
153.4044175506246
 20
-154.527518678816
 30
0.0
 10
152.670547616726
 20
-154.527518678816
 30
0.0
 10
151.9366992146743
 20
-154.527518678816
 30
0.0
 10
151.3417958199119
 20
-153.932593752207
 30
0.0
 10
151.3417958199119
 20
-153.1987453501552
 30
0.0
 10
151.3417958199119
 20
-152.4648969481034
 30
0.0
 10
151.9366992146743
 20
-151.8699720214943
 30
0.0
 10
152.670547616726
 20
-151.8699720214943
 30
0.0
  0
SPLINE
  5
B6
330
70
100
AcDbEntity
  8
top
 62
    18
420
        0
370
     9
100
AcDbSpline
210
0.0
220
0.0
230
1.0
 70
     9
 71
     3
 72
    17
 73
    13
 74
     0
 42
0.0000000001
 43
0.0000000001
 40
0.0
 40
0.0
 40
0.0
 40
0.0
 40
1.0
 40
1.0
 40
1.0
 40
2.0
 40
2.0
 40
2.0
 40
3.0
 40
3.0
 40
3.0
 40
4.0
 40
4.0
 40
4.0
 40
4.0
 10
152.670547616726
 20
-146.3691234646555
 30
0.0
 10
153.4044175506246
 20
-146.3691234646555
 30
0.0
 10
153.9993209453869
 20
-146.9640268594181
 30
0.0
 10
153.9993209453869
 20
-147.6978752614696
 30
0.0
 10
153.9993209453869
 20
-148.4317451953682
 30
0.0
 10
153.4044175506246
 20
-149.0266485901305
 30
0.0
 10
152.670547616726
 20
-149.0266485901305
 30
0.0
 10
151.9366992146743
 20
-149.0266485901305
 30
0.0
 10
151.3417958199119
 20
-148.4317451953682
 30
0.0
 10
151.3417958199119
 20
-147.6978752614696
 30
0.0
 10
151.3417958199119
 20
-146.9640268594181
 30
0.0
 10
151.9366992146743
 20
-146.3691234646555
 30
0.0
 10
152.670547616726
 20
-146.3691234646555
 30
0.0
  0
SPLINE
  5
B7
330
70
100
AcDbEntity
  8
top
 62
    18
420
        0
370
     9
100
AcDbSpline
210
0.0
220
0.0
230
1.0
 70
     9
 71
     3
 72
    17
 73
    13
 74
     0
 42
0.0000000001
 43
0.0000000001
 40
0.0
 40
0.0
 40
0.0
 40
0.0
 40
1.0
 40
1.0
 40
1.0
 40
2.0
 40
2.0
 40
2.0
 40
3.0
 40
3.0
 40
3.0
 40
4.0
 40
4.0
 40
4.0
 40
4.0
 10
152.670547616726
 20
-140.8673490384051
 30
0.0
 10
153.4044175506246
 20
-140.8673490384051
 30
0.0
 10
153.9993209453869
 20
-141.4622524331674
 30
0.0
 10
153.9993209453869
 20
-142.196122367066
 30
0.0
 10
153.9993209453869
 20
-142.9299707691177
 30
0.0
 10
153.4044175506246
 20
-143.5248741638804
 30
0.0
 10
152.670547616726
 20
-143.5248741638804
 30
0.0
 10
151.9366992146743
 20
-143.5248741638804
 30
0.0
 10
151.3417958199119
 20
-142.9299707691177
 30
0.0
 10
151.3417958199119
 20
-142.196122367066
 30
0.0
 10
151.3417958199119
 20
-141.4622524331674
 30
0.0
 10
151.9366992146743
 20
-140.8673490384051
 30
0.0
 10
152.670547616726
 20
-140.8673490384051
 30
0.0
  0
SPLINE
  5
B8
330
70
100
AcDbEntity
  8
top
 62
    18
420
        0
370
     9
100
AcDbSpline
210
0.0
220
0.0
230
1.0
 70
     9
 71
     3
 72
    17
 73
    13
 74
     0
 42
0.0000000001
 43
0.0000000001
 40
0.0
 40
0.0
 40
0.0
 40
0.0
 40
1.0
 40
1.0
 40
1.0
 40
2.0
 40
2.0
 40
2.0
 40
3.0
 40
3.0
 40
3.0
 40
4.0
 40
4.0
 40
4.0
 40
4.0
 10
155.3212471467708
 20
-151.7840384209841
 30
0.0
 10
154.5873772128723
 20
-151.7840384209841
 30
0.0
 10
153.9924738181099
 20
-151.1891350262218
 30
0.0
 10
153.9924738181099
 20
-150.4552650923232
 30
0.0
 10
153.9924738181099
 20
-149.7214166902715
 30
0.0
 10
154.5873772128723
 20
-149.1265132955095
 30
0.0
 10
155.3212471467708
 20
-149.1265132955095
 30
0.0
 10
156.0550955488226
 20
-149.1265132955095
 30
0.0
 10
156.6499989435849
 20
-149.7214166902715
 30
0.0
 10
156.6499989435849
 20
-150.4552650923232
 30
0.0
 10
156.6499989435849
 20
-151.1891350262218
 30
0.0
 10
156.0550955488226
 20
-151.7840384209841
 30
0.0
 10
155.3212471467708
 20
-151.7840384209841
 30
0.0
  0
SPLINE
  5
B9
330
70
100
AcDbEntity
  8
top
 62
    18
420
        0
370
     9
100
AcDbSpline
210
0.0
220
0.0
230
1.0
 70
     9
 71
     3
 72
    17
 73
    13
 74
     0
 42
0.0000000001
 43
0.0000000001
 40
0.0
 40
0.0
 40
0.0
 40
0.0
 40
1.0
 40
1.0
 40
1.0
 40
2.0
 40
2.0
 40
2.0
 40
3.0
 40
3.0
 40
3.0
 40
4.0
 40
4.0
 40
4.0
 40
4.0
 10
155.3212471467708
 20
-157.2849085096696
 30
0.0
 10
154.5873772128723
 20
-157.2849085096696
 30
0.0
 10
153.9924738181099
 20
-156.6900051149073
 30
0.0
 10
153.9924738181099
 20
-155.9561351810088
 30
0.0
 10
153.9924738181099
 20
-155.222286778957
 30
0.0
 10
154.5873772128723
 20
-154.6273833841947
 30
0.0
 10
155.3212471467708
 20
-154.6273833841947
 30
0.0
 10
156.0550955488226
 20
-154.6273833841947
 30
0.0
 10
156.6499989435849
 20
-155.222286778957
 30
0.0
 10
156.6499989435849
 20
-155.9561351810088
 30
0.0
 10
156.6499989435849
 20
-156.6900051149073
 30
0.0
 10
156.0550955488226
 20
-157.2849085096696
 30
0.0
 10
155.3212471467708
 20
-157.2849085096696
 30
0.0
  0
SPLINE
  5
BA
330
70
100
AcDbEntity
  8
top
 62
    18
420
        0
370
     9
100
AcDbSpline
210
0.0
220
0.0
230
1.0
 70
     9
 71
     3
 72
    17
 73
    13
 74
     0
 42
0.0000000001
 43
0.0000000001
 40
0.0
 40
0.0
 40
0.0
 40
0.0
 40
1.0
 40
1.0
 40
1.0
 40
2.0
 40
2.0
 40
2.0
 40
3.0
 40
3.0
 40
3.0
 40
4.0
 40
4.0
 40
4.0
 40
4.0
 10
155.3212471467708
 20
-162.7857785983552
 30
0.0
 10
154.5873772128723
 20
-162.7857785983552
 30
0.0
 10
153.9924738181099
 20
-162.1908752035929
 30
0.0
 10
153.9924738181099
 20
-161.4570052696943
 30
0.0
 10
153.9924738181099
 20
-160.7231568676425
 30
0.0
 10
154.5873772128723
 20
-160.1282534728802
 30
0.0
 10
155.3212471467708
 20
-160.1282534728802
 30
0.0
 10
156.0550955488226
 20
-160.1282534728802
 30
0.0
 10
156.6499989435849
 20
-160.7231568676425
 30
0.0
 10
156.6499989435849
 20
-161.4570052696943
 30
0.0
 10
156.6499989435849
 20
-162.1908752035929
 30
0.0
 10
156.0550955488226
 20
-162.7857785983552
 30
0.0
 10
155.3212471467708
 20
-162.7857785983552
 30
0.0
  0
SPLINE
  5
BB
330
70
100
AcDbEntity
  8
top
 62
    18
420
        0
370
     9
100
AcDbSpline
210
0.0
220
0.0
230
1.0
 70
     9
 71
     3
 72
    17
 73
    13
 74
     0
 42
0.0000000001
 43
0.0000000001
 40
0.0
 40
0.0
 40
0.0
 40
0.0
 40
1.0
 40
1.0
 40
1.0
 40
2.0
 40
2.0
 40
2.0
 40
3.0
 40
3.0
 40
3.0
 40
4.0
 40
4.0
 40
4.0
 40
4.0
 10
156.6499989435849
 20
-172.4587454470654
 30
0.0
 10
156.6499989435849
 20
-173.1925938491172
 30
0.0
 10
156.0550955488226
 20
-173.7874972438795
 30
0.0
 10
155.3212471467708
 20
-173.7874972438795
 30
0.0
 10
154.5873772128723
 20
-173.7874972438795
 30
0.0
 10
153.9924738181099
 20
-173.1925938491172
 30
0.0
 10
153.9924738181099
 20
-172.4587454470654
 30
0.0
 10
153.9924738181099
 20
-171.7248755131669
 30
0.0
 10
154.5873772128723
 20
-171.1299721184045
 30
0.0
 10
155.3212471467708
 20
-171.1299721184045
 30
0.0
 10
156.0550955488226
 20
-171.1299721184045
 30
0.0
 10
156.6499989435849
 20
-171.7248755131669
 30
0.0
 10
156.6499989435849
 20
-172.4587454470654
 30
0.0
  0
SPLINE
  5
BC
330
70
100
AcDbEntity
  8
top
 62
    18
420
        0
370
     9
100
AcDbSpline
210
0.0
220
0.0
230
1.0
 70
     9
 71
     3
 72
    17
 73
    13
 74
     0
 42
0.0000000001
 43
0.0000000001
 40
0.0
 40
0.0
 40
0.0
 40
0.0
 40
1.0
 40
1.0
 40
1.0
 40
2.0
 40
2.0
 40
2.0
 40
3.0
 40
3.0
 40
3.0
 40
4.0
 40
4.0
 40
4.0
 40
4.0
 10
155.3212471467708
 20
-168.2866486870407
 30
0.0
 10
154.5873772128723
 20
-168.2866486870407
 30
0.0
 10
153.9924738181099
 20
-167.6917237604316
 30
0.0
 10
153.9924738181099
 20
-166.9578753583799
 30
0.0
 10
153.9924738181099
 20
-166.2240269563281
 30
0.0
 10
154.5873772128723
 20
-165.629102029719
 30
0.0
 10
155.3212471467708
 20
-165.629102029719
 30
0.0
 10
156.0550955488226
 20
-165.629102029719
 30
0.0
 10
156.6499989435849
 20
-166.2240269563281
 30
0.0
 10
156.6499989435849
 20
-166.9578753583799
 30
0.0
 10
156.6499989435849
 20
-167.6917237604316
 30
0.0
 10
156.0550955488226
 20
-168.2866486870407
 30
0.0
 10
155.3212471467708
 20
-168.2866486870407
 30
0.0
  0
SPLINE
  5
BD
330
70
100
AcDbEntity
  8
top
 62
    18
420
        0
370
     9
100
AcDbSpline
210
0.0
220
0.0
230
1.0
 70
    11
 71
     3
 72
    17
 73
    13
 74
     0
 42
0.0000000001
 43
0.0000000001
 40
0.0
 40
0.0
 40
0.0
 40
0.0
 40
1.0
 40
1.0
 40
1.0
 40
2.0
 40
2.0
 40
2.0
 40
3.0
 40
3.0
 40
3.0
 40
4.0
 40
4.0
 40
4.0
 40
4.0
 10
167.6808932414999
 20
-124.6767137003846
 30
0.0
 10
167.6808932414999
 20
-124.6767137003846
 30
0.0
 10
170.0946132658531
 20
-138.3655422288635
 30
0.0
 10
170.0946132658531
 20
-138.3655422288635
 30
0.0
 10
170.0946132658531
 20
-138.3655422288635
 30
0.0
 10
156.4057847373742
 20
-140.7792407213698
 30
0.0
 10
156.4057847373742
 20
-140.7792407213698
 30
0.0
 10
156.4057847373742
 20
-140.7792407213698
 30
0.0
 10
153.9920647130211
 20
-127.090412192891
 30
0.0
 10
153.9920647130211
 20
-127.090412192891
 30
0.0
 10
153.9920647130211
 20
-127.090412192891
 30
0.0
 10
167.6808932414999
 20
-124.6767137003846
 30
0.0
 10
167.6808932414999
 20
-124.6767137003846
 30
0.0
  0
SPLINE
  5
BE
330
70
100
AcDbEntity
  8
top
 62
    18
420
        0
370
     9
100
AcDbSpline
210
0.0
220
0.0
230
1.0
 70
     9
 71
     3
 72
    17
 73
    13
 74
     0
 42
0.0000000001
 43
0.0000000001
 40
0.0
 40
0.0
 40
0.0
 40
0.0
 40
1.0
 40
1.0
 40
1.0
 40
2.0
 40
2.0
 40
2.0
 40
3.0
 40
3.0
 40
3.0
 40
4.0
 40
4.0
 40
4.0
 40
4.0
 10
159.3303262948028
 20
-169.7013556162118
 30
0.0
 10
159.3303262948028
 20
-170.4352040182636
 30
0.0
 10
158.7354229000405
 20
-171.0301074130259
 30
0.0
 10
158.0015744979887
 20
-171.0301074130259
 30
0.0
 10
157.2677045640902
 20
-171.0301074130259
 30
0.0
 10
156.6728011693279
 20
-170.4352040182636
 30
0.0
 10
156.6728011693279
 20
-169.7013556162118
 30
0.0
 10
156.6728011693279
 20
-168.9674856823132
 30
0.0
 10
157.2677045640902
 20
-168.3725822875509
 30
0.0
 10
158.0015744979887
 20
-168.3725822875509
 30
0.0
 10
158.7354229000405
 20
-168.3725822875509
 30
0.0
 10
159.3303262948028
 20
-168.9674856823132
 30
0.0
 10
159.3303262948028
 20
-169.7013556162118
 30
0.0
  0
SPLINE
  5
BF
330
70
100
AcDbEntity
  8
top
 62
    18
420
        0
370
     9
100
AcDbSpline
210
0.0
220
0.0
230
1.0
 70
    11
 71
     3
 72
    17
 73
    13
 74
     0
 42
0.0000000001
 43
0.0000000001
 40
0.0
 40
0.0
 40
0.0
 40
0.0
 40
1.0
 40
1.0
 40
1.0
 40
2.0
 40
2.0
 40
2.0
 40
3.0
 40
3.0
 40
3.0
 40
4.0
 40
4.0
 40
4.0
 40
4.0
 10
170.9888954582836
 20
-143.4373041430144
 30
0.0
 10
170.9888954582836
 20
-143.4373041430144
 30
0.0
 10
173.40259395079
 20
-157.1261326714932
 30
0.0
 10
173.40259395079
 20
-157.1261326714932
 30
0.0
 10
173.40259395079
 20
-157.1261326714932
 30
0.0
 10
159.7137654223111
 20
-159.5398311639996
 30
0.0
 10
159.7137654223111
 20
-159.5398311639996
 30
0.0
 10
159.7137654223111
 20
-159.5398311639996
 30
0.0
 10
157.3000669298047
 20
-145.851002635521
 30
0.0
 10
157.3000669298047
 20
-145.851002635521
 30
0.0
 10
157.3000669298047
 20
-145.851002635521
 30
0.0
 10
170.9888954582836
 20
-143.4373041430144
 30
0.0
 10
170.9888954582836
 20
-143.4373041430144
 30
0.0
  0
SPLINE
  5
C0
330
70
100
AcDbEntity
  8
top
 62
    18
420
        0
370
     9
100
AcDbSpline
210
0.0
220
0.0
230
1.0
 70
     9
 71
     3
 72
    17
 73
    13
 74
     0
 42
0.0000000001
 43
0.0000000001
 40
0.0
 40
0.0
 40
0.0
 40
0.0
 40
1.0
 40
1.0
 40
1.0
 40
2.0
 40
2.0
 40
2.0
 40
3.0
 40
3.0
 40
3.0
 40
4.0
 40
4.0
 40
4.0
 40
4.0
 10
172.1138913889919
 20
-133.9410922245442
 30
0.0
 10
172.7214124459689
 20
-133.9410922245442
 30
0.0
 10
173.2138888455854
 20
-134.4335686241607
 30
0.0
 10
173.2138888455854
 20
-135.0410896811377
 30
0.0
 10
173.2138888455854
 20
-135.648589206268
 30
0.0
 10
172.7214124459689
 20
-136.1410871377315
 30
0.0
 10
172.1138913889919
 20
-136.1410871377315
 30
0.0
 10
171.5063918638617
 20
-136.1410871377315
 30
0.0
 10
171.0138939323984
 20
-135.648589206268
 30
0.0
 10
171.0138939323984
 20
-135.0410896811377
 30
0.0
 10
171.0138939323984
 20
-134.4335686241607
 30
0.0
 10
171.5063918638617
 20
-133.9410922245442
 30
0.0
 10
172.1138913889919
 20
-133.9410922245442
 30
0.0
  0
SPLINE
  5
C1
330
70
100
AcDbEntity
  8
top
 62
    18
420
        0
370
     9
100
AcDbSpline
210
0.0
220
0.0
230
1.0
 70
     9
 71
     3
 72
    17
 73
    13
 74
     0
 42
0.0000000001
 43
0.0000000001
 40
0.0
 40
0.0
 40
0.0
 40
0.0
 40
1.0
 40
1.0
 40
1.0
 40
2.0
 40
2.0
 40
2.0
 40
3.0
 40
3.0
 40
3.0
 40
4.0
 40
4.0
 40
4.0
 40
4.0
 10
172.2019566423336
 20
-105.9696083651634
 30
0.0
 10
172.754226980466
 20
-105.9696083651634
 30
0.0
 10
173.2019386706209
 20
-106.4173415871652
 30
0.0
 10
173.2019386706209
 20
-106.9696119252975
 30
0.0
 10
173.2019386706209
 20
-107.5219037952769
 30
0.0
 10
172.754226980466
 20
-107.9696154854316
 30
0.0
 10
172.2019566423336
 20
-107.9696154854316
 30
0.0
 10
171.6496647723545
 20
-107.9696154854316
 30
0.0
 10
171.2019530821995
 20
-107.5219037952769
 30
0.0
 10
171.2019530821995
 20
-106.9696119252975
 30
0.0
 10
171.2019530821995
 20
-106.4173415871652
 30
0.0
 10
171.6496647723545
 20
-105.9696083651634
 30
0.0
 10
172.2019566423336
 20
-105.9696083651634
 30
0.0
  0
SPLINE
  5
C2
330
70
100
AcDbEntity
  8
top
 62
    18
420
        0
370
     9
100
AcDbSpline
210
0.0
220
0.0
230
1.0
 70
    11
 71
     3
 72
    17
 73
    13
 74
     0
 42
0.0000000001
 43
0.0000000001
 40
0.0
 40
0.0
 40
0.0
 40
0.0
 40
1.0
 40
1.0
 40
1.0
 40
2.0
 40
2.0
 40
2.0
 40
3.0
 40
3.0
 40
3.0
 40
4.0
 40
4.0
 40
4.0
 40
4.0
 10
185.833725776838
 20
-117.9218934506085
 30
0.0
 10
185.833725776838
 20
-117.9218934506085
 30
0.0
 10
188.2474242693444
 20
-131.6107219790873
 30
0.0
 10
188.2474242693444
 20
-131.6107219790873
 30
0.0
 10
188.2474242693444
 20
-131.6107219790873
 30
0.0
 10
174.5585957408655
 20
-134.0244420034405
 30
0.0
 10
174.5585957408655
 20
-134.0244420034405
 30
0.0
 10
174.5585957408655
 20
-134.0244420034405
 30
0.0
 10
172.1448972483591
 20
-120.3356134749617
 30
0.0
 10
172.1448972483591
 20
-120.3356134749617
 30
0.0
 10
172.1448972483591
 20
-120.3356134749617
 30
0.0
 10
185.833725776838
 20
-117.9218934506085
 30
0.0
 10
185.833725776838
 20
-117.9218934506085
 30
0.0
  0
SPLINE
  5
C3
330
70
100
AcDbEntity
  8
top
 62
    18
420
        0
370
     9
100
AcDbSpline
210
0.0
220
0.0
230
1.0
 70
    11
 71
     3
 72
    17
 73
    13
 74
     0
 42
0.0000000001
 43
0.0000000001
 40
0.0
 40
0.0
 40
0.0
 40
0.0
 40
1.0
 40
1.0
 40
1.0
 40
2.0
 40
2.0
 40
2.0
 40
3.0
 40
3.0
 40
3.0
 40
4.0
 40
4.0
 40
4.0
 40
4.0
 10
191.5554049542813
 20
-150.3713124217171
 30
0.0
 10
191.5554049542813
 20
-150.3713124217171
 30
0.0
 10
177.8665764258024
 20
-152.7850109142234
 30
0.0
 10
177.8665764258024
 20
-152.7850109142234
 30
0.0
 10
177.8665764258024
 20
-152.7850109142234
 30
0.0
 10
175.452877933296
 20
-139.0961823857446
 30
0.0
 10
175.452877933296
 20
-139.0961823857446
 30
0.0
 10
175.452877933296
 20
-139.0961823857446
 30
0.0
 10
189.1417064617749
 20
-136.6824838932385
 30
0.0
 10
189.1417064617749
 20
-136.6824838932385
 30
0.0
 10
189.1417064617749
 20
-136.6824838932385
 30
0.0
 10
191.5554049542813
 20
-150.3713124217171
 30
0.0
 10
191.5554049542813
 20
-150.3713124217171
 30
0.0
  0
SPLINE
  5
C4
330
70
100
AcDbEntity
  8
top
 62
    18
420
        0
370
     9
100
AcDbSpline
210
0.0
220
0.0
230
1.0
 70
    11
 71
     3
 72
    17
 73
    13
 74
     0
 42
0.0000000001
 43
0.0000000001
 40
0.0
 40
0.0
 40
0.0
 40
0.0
 40
1.0
 40
1.0
 40
1.0
 40
2.0
 40
2.0
 40
2.0
 40
3.0
 40
3.0
 40
3.0
 40
4.0
 40
4.0
 40
4.0
 40
4.0
 10
203.9869243535714
 20
-111.1681282613247
 30
0.0
 10
203.9869243535714
 20
-111.1681282613247
 30
0.0
 10
206.4006228460778
 20
-124.8569567898035
 30
0.0
 10
206.4006228460778
 20
-124.8569567898035
 30
0.0
 10
206.4006228460778
 20
-124.8569567898035
 30
0.0
 10
192.7117943175989
 20
-127.2706552823102
 30
0.0
 10
192.7117943175989
 20
-127.2706552823102
 30
0.0
 10
192.7117943175989
 20
-127.2706552823102
 30
0.0
 10
190.2980958250926
 20
-113.5818267538314
 30
0.0
 10
190.2980958250926
 20
-113.5818267538314
 30
0.0
 10
190.2980958250926
 20
-113.5818267538314
 30
0.0
 10
203.9869243535714
 20
-111.1681282613247
 30
0.0
 10
203.9869243535714
 20
-111.1681282613247
 30
0.0
  0
SPLINE
  5
C5
330
70
100
AcDbEntity
  8
top
 62
    18
420
        0
370
     9
100
AcDbSpline
210
0.0
220
0.0
230
1.0
 70
    11
 71
     3
 72
    17
 73
    13
 74
     0
 42
0.0000000001
 43
0.0000000001
 40
0.0
 40
0.0
 40
0.0
 40
0.0
 40
1.0
 40
1.0
 40
1.0
 40
2.0
 40
2.0
 40
2.0
 40
3.0
 40
3.0
 40
3.0
 40
4.0
 40
4.0
 40
4.0
 40
4.0
 10
194.863407171065
 20
-169.1319028643468
 30
0.0
 10
194.863407171065
 20
-169.1319028643468
 30
0.0
 10
181.1745786425861
 20
-171.5456013568532
 30
0.0
 10
181.1745786425861
 20
-171.5456013568532
 30
0.0
 10
181.1745786425861
 20
-171.5456013568532
 30
0.0
 10
178.7608801500797
 20
-157.8567728283743
 30
0.0
 10
178.7608801500797
 20
-157.8567728283743
 30
0.0
 10
178.7608801500797
 20
-157.8567728283743
 30
0.0
 10
192.4497086785585
 20
-155.4430743358679
 30
0.0
 10
192.4497086785585
 20
-155.4430743358679
 30
0.0
 10
192.4497086785585
 20
-155.4430743358679
 30
0.0
 10
194.863407171065
 20
-169.1319028643468
 30
0.0
 10
194.863407171065
 20
-169.1319028643468
 30
0.0
  0
SPLINE
  5
C6
330
70
100
AcDbEntity
  8
top
 62
    18
420
        0
370
     9
100
AcDbSpline
210
0.0
220
0.0
230
1.0
 70
    11
 71
     3
 72
    17
 73
    13
 74
     0
 42
0.0000000001
 43
0.0000000001
 40
0.0
 40
0.0
 40
0.0
 40
0.0
 40
1.0
 40
1.0
 40
1.0
 40
2.0
 40
2.0
 40
2.0
 40
3.0
 40
3.0
 40
3.0
 40
4.0
 40
4.0
 40
4.0
 40
4.0
 10
209.7086250628615
 20
-143.6175257005865
 30
0.0
 10
209.7086250628615
 20
-143.6175257005865
 30
0.0
 10
196.0197965343826
 20
-146.0312457249397
 30
0.0
 10
196.0197965343826
 20
-146.0312457249397
 30
0.0
 10
196.0197965343826
 20
-146.0312457249397
 30
0.0
 10
193.6060765100295
 20
-132.3424171964608
 30
0.0
 10
193.6060765100295
 20
-132.3424171964608
 30
0.0
 10
193.6060765100295
 20
-132.3424171964608
 30
0.0
 10
207.2949050385083
 20
-129.9286971721077
 30
0.0
 10
207.2949050385083
 20
-129.9286971721077
 30
0.0
 10
207.2949050385083
 20
-129.9286971721077
 30
0.0
 10
209.7086250628615
 20
-143.6175257005865
 30
0.0
 10
209.7086250628615
 20
-143.6175257005865
 30
0.0
  0
SPLINE
  5
C7
330
70
100
AcDbEntity
  8
top
 62
    18
420
        0
370
     9
100
AcDbSpline
210
0.0
220
0.0
230
1.0
 70
    11
 71
     3
 72
    17
 73
    13
 74
     0
 42
0.0000000001
 43
0.0000000001
 40
0.0
 40
0.0
 40
0.0
 40
0.0
 40
1.0
 40
1.0
 40
1.0
 40
2.0
 40
2.0
 40
2.0
 40
3.0
 40
3.0
 40
3.0
 40
4.0
 40
4.0
 40
4.0
 40
4.0
 10
223.3549066620975
 20
-111.3059105488882
 30
0.0
 10
223.3549066620975
 20
-111.3059105488882
 30
0.0
 10
225.7686051546039
 20
-124.9947390773671
 30
0.0
 10
225.7686051546039
 20
-124.9947390773671
 30
0.0
 10
225.7686051546039
 20
-124.9947390773671
 30
0.0
 10
212.079776626125
 20
-127.4084591017202
 30
0.0
 10
212.079776626125
 20
-127.4084591017202
 30
0.0
 10
212.079776626125
 20
-127.4084591017202
 30
0.0
 10
209.6660781336186
 20
-113.7196305732414
 30
0.0
 10
209.6660781336186
 20
-113.7196305732414
 30
0.0
 10
209.6660781336186
 20
-113.7196305732414
 30
0.0
 10
223.3549066620975
 20
-111.3059105488882
 30
0.0
 10
223.3549066620975
 20
-111.3059105488882
 30
0.0
  0
SPLINE
  5
C8
330
70
100
AcDbEntity
  8
top
 62
    18
420
        0
370
     9
100
AcDbSpline
210
0.0
220
0.0
230
1.0
 70
     9
 71
     3
 72
    17
 73
    13
 74
     0
 42
0.0000000001
 43
0.0000000001
 40
0.0
 40
0.0
 40
0.0
 40
0.0
 40
1.0
 40
1.0
 40
1.0
 40
2.0
 40
2.0
 40
2.0
 40
3.0
 40
3.0
 40
3.0
 40
4.0
 40
4.0
 40
4.0
 40
4.0
 10
213.4198111106533
 20
-143.6463137797354
 30
0.0
 10
213.4198111106533
 20
-144.2538348367121
 30
0.0
 10
212.9273347110368
 20
-144.7463112363286
 30
0.0
 10
212.3198136540598
 20
-144.7463112363286
 30
0.0
 10
211.7122925970828
 20
-144.7463112363286
 30
0.0
 10
211.2198161974663
 20
-144.2538348367121
 30
0.0
 10
211.2198161974663
 20
-143.6463137797354
 30
0.0
 10
211.2198161974663
 20
-143.0388142546049
 30
0.0
 10
211.7122925970828
 20
-142.5463163231416
 30
0.0
 10
212.3198136540598
 20
-142.5463163231416
 30
0.0
 10
212.9273347110368
 20
-142.5463163231416
 30
0.0
 10
213.4198111106533
 20
-143.0388142546049
 30
0.0
 10
213.4198111106533
 20
-143.6463137797354
 30
0.0
  0
SPLINE
  5
C9
330
70
100
AcDbEntity
  8
top
 62
    18
420
        0
370
     9
100
AcDbSpline
210
0.0
220
0.0
230
1.0
 70
    11
 71
     3
 72
    17
 73
    13
 74
     0
 42
0.0000000001
 43
0.0000000001
 40
0.0
 40
0.0
 40
0.0
 40
0.0
 40
1.0
 40
1.0
 40
1.0
 40
2.0
 40
2.0
 40
2.0
 40
3.0
 40
3.0
 40
3.0
 40
4.0
 40
4.0
 40
4.0
 40
4.0
 10
229.0765858395408
 20
-143.7553295199965
 30
0.0
 10
229.0765858395408
 20
-143.7553295199965
 30
0.0
 10
215.3877573110619
 20
-146.1690280125029
 30
0.0
 10
215.3877573110619
 20
-146.1690280125029
 30
0.0
 10
215.3877573110619
 20
-146.1690280125029
 30
0.0
 10
212.9740588185555
 20
-132.480199484024
 30
0.0
 10
212.9740588185555
 20
-132.480199484024
 30
0.0
 10
212.9740588185555
 20
-132.480199484024
 30
0.0
 10
226.6628873470344
 20
-130.0665009915176
 30
0.0
 10
226.6628873470344
 20
-130.0665009915176
 30
0.0
 10
226.6628873470344
 20
-130.0665009915176
 30
0.0
 10
229.0765858395408
 20
-143.7553295199965
 30
0.0
 10
229.0765858395408
 20
-143.7553295199965
 30
0.0
  0
SPLINE
  5
CA
330
70
100
AcDbEntity
  8
top
 62
    18
420
        0
370
     9
100
AcDbSpline
210
0.0
220
0.0
230
1.0
 70
    11
 71
     3
 72
    17
 73
    13
 74
     0
 42
0.0000000001
 43
0.0000000001
 40
0.0
 40
0.0
 40
0.0
 40
0.0
 40
1.0
 40
1.0
 40
1.0
 40
2.0
 40
2.0
 40
2.0
 40
3.0
 40
3.0
 40
3.0
 40
4.0
 40
4.0
 40
4.0
 40
4.0
 10
242.7232550120189
 20
-111.4447478969438
 30
0.0
 10
242.7232550120189
 20
-111.4447478969438
 30
0.0
 10
245.1369535045252
 20
-125.1335764254226
 30
0.0
 10
245.1369535045252
 20
-125.1335764254226
 30
0.0
 10
245.1369535045252
 20
-125.1335764254226
 30
0.0
 10
231.4481249760464
 20
-127.5472749179287
 30
0.0
 10
231.4481249760464
 20
-127.5472749179287
 30
0.0
 10
231.4481249760464
 20
-127.5472749179287
 30
0.0
 10
229.03442648354
 20
-113.8584463894499
 30
0.0
 10
229.03442648354
 20
-113.8584463894499
 30
0.0
 10
229.03442648354
 20
-113.8584463894499
 30
0.0
 10
242.7232550120189
 20
-111.4447478969438
 30
0.0
 10
242.7232550120189
 20
-111.4447478969438
 30
0.0
  0
SPLINE
  5
CB
330
70
100
AcDbEntity
  8
top
 62
    18
420
        0
370
     9
100
AcDbSpline
210
0.0
220
0.0
230
1.0
 70
     9
 71
     3
 72
    17
 73
    13
 74
     0
 42
0.0000000001
 43
0.0000000001
 40
0.0
 40
0.0
 40
0.0
 40
0.0
 40
1.0
 40
1.0
 40
1.0
 40
2.0
 40
2.0
 40
2.0
 40
3.0
 40
3.0
 40
3.0
 40
4.0
 40
4.0
 40
4.0
 40
4.0
 10
247.7384958283649
 20
-124.0310597427556
 30
0.0
 10
248.3460168853419
 20
-124.0310597427556
 30
0.0
 10
248.8384932849584
 20
-124.523536142372
 30
0.0
 10
248.8384932849584
 20
-125.1310571993487
 30
0.0
 10
248.8384932849584
 20
-125.7385782563257
 30
0.0
 10
248.3460168853419
 20
-126.2310546559422
 30
0.0
 10
247.7384958283649
 20
-126.2310546559422
 30
0.0
 10
247.1309963032346
 20
-126.2310546559422
 30
0.0
 10
246.6384983717714
 20
-125.7385782563257
 30
0.0
 10
246.6384983717714
 20
-125.1310571993487
 30
0.0
 10
246.6384983717714
 20
-124.523536142372
 30
0.0
 10
247.1309963032346
 20
-124.0310597427556
 30
0.0
 10
247.7384958283649
 20
-124.0310597427556
 30
0.0
  0
SPLINE
  5
CC
330
70
100
AcDbEntity
  8
top
 62
    18
420
        0
370
     9
100
AcDbSpline
210
0.0
220
0.0
230
1.0
 70
    11
 71
     3
 72
    17
 73
    13
 74
     0
 42
0.0000000001
 43
0.0000000001
 40
0.0
 40
0.0
 40
0.0
 40
0.0
 40
1.0
 40
1.0
 40
1.0
 40
2.0
 40
2.0
 40
2.0
 40
3.0
 40
3.0
 40
3.0
 40
4.0
 40
4.0
 40
4.0
 40
4.0
 10
262.0916033619402
 20
-111.5835852449994
 30
0.0
 10
262.0916033619402
 20
-111.5835852449994
 30
0.0
 10
264.5053233862934
 20
-125.2724137734782
 30
0.0
 10
264.5053233862934
 20
-125.2724137734782
 30
0.0
 10
264.5053233862934
 20
-125.2724137734782
 30
0.0
 10
250.8164948578146
 20
-127.6861122659843
 30
0.0
 10
250.8164948578146
 20
-127.6861122659843
 30
0.0
 10
250.8164948578146
 20
-127.6861122659843
 30
0.0
 10
248.4027748334614
 20
-113.9972837375054
 30
0.0
 10
248.4027748334614
 20
-113.9972837375054
 30
0.0
 10
248.4027748334614
 20
-113.9972837375054
 30
0.0
 10
262.0916033619402
 20
-111.5835852449994
 30
0.0
 10
262.0916033619402
 20
-111.5835852449994
 30
0.0
  0
SPLINE
  5
CD
330
70
100
AcDbEntity
  8
top
 62
    18
420
        0
370
     9
100
AcDbSpline
210
0.0
220
0.0
230
1.0
 70
    11
 71
     3
 72
    17
 73
    13
 74
     0
 42
0.0000000001
 43
0.0000000001
 40
0.0
 40
0.0
 40
0.0
 40
0.0
 40
1.0
 40
1.0
 40
1.0
 40
2.0
 40
2.0
 40
2.0
 40
3.0
 40
3.0
 40
3.0
 40
4.0
 40
4.0
 40
4.0
 40
4.0
 10
267.8133040712303
 20
-144.0330042161076
 30
0.0
 10
267.8133040712303
 20
-144.0330042161076
 30
0.0
 10
254.1244755427515
 20
-146.446702708614
 30
0.0
 10
254.1244755427515
 20
-146.446702708614
 30
0.0
 10
254.1244755427515
 20
-146.446702708614
 30
0.0
 10
251.7107770502451
 20
-132.7578741801352
 30
0.0
 10
251.7107770502451
 20
-132.7578741801352
 30
0.0
 10
251.7107770502451
 20
-132.7578741801352
 30
0.0
 10
265.3996055787239
 20
-130.3441756876288
 30
0.0
 10
265.3996055787239
 20
-130.3441756876288
 30
0.0
 10
265.3996055787239
 20
-130.3441756876288
 30
0.0
 10
267.8133040712303
 20
-144.0330042161076
 30
0.0
 10
267.8133040712303
 20
-144.0330042161076
 30
0.0
  0
SPLINE
  5
CE
330
70
100
AcDbEntity
  8
top
 62
    18
420
        0
370
     9
100
AcDbSpline
210
0.0
220
0.0
230
1.0
 70
     9
 71
     3
 72
   149
 73
   145
 74
     0
 42
0.0000000001
 43
0.0000000001
 40
0.0
 40
0.0
 40
0.0
 40
0.0
 40
1.0
 40
1.0
 40
1.0
 40
2.0
 40
2.0
 40
2.0
 40
3.0
 40
3.0
 40
3.0
 40
4.0
 40
4.0
 40
4.0
 40
5.0
 40
5.0
 40
5.0
 40
6.0
 40
6.0
 40
6.0
 40
7.0
 40
7.0
 40
7.0
 40
8.0
 40
8.0
 40
8.0
 40
9.0
 40
9.0
 40
9.0
 40
10.0
 40
10.0
 40
10.0
 40
11.0
 40
11.0
 40
11.0
 40
12.0
 40
12.0
 40
12.0
 40
13.0
 40
13.0
 40
13.0
 40
14.0
 40
14.0
 40
14.0
 40
15.0
 40
15.0
 40
15.0
 40
16.0
 40
16.0
 40
16.0
 40
17.0
 40
17.0
 40
17.0
 40
18.0
 40
18.0
 40
18.0
 40
19.0
 40
19.0
 40
19.0
 40
20.0
 40
20.0
 40
20.0
 40
21.0
 40
21.0
 40
21.0
 40
22.0
 40
22.0
 40
22.0
 40
23.0
 40
23.0
 40
23.0
 40
24.0
 40
24.0
 40
24.0
 40
25.0
 40
25.0
 40
25.0
 40
26.0
 40
26.0
 40
26.0
 40
27.0
 40
27.0
 40
27.0
 40
28.0
 40
28.0
 40
28.0
 40
29.0
 40
29.0
 40
29.0
 40
30.0
 40
30.0
 40
30.0
 40
31.0
 40
31.0
 40
31.0
 40
32.0
 40
32.0
 40
32.0
 40
33.0
 40
33.0
 40
33.0
 40
34.0
 40
34.0
 40
34.0
 40
35.0
 40
35.0
 40
35.0
 40
36.0
 40
36.0
 40
36.0
 40
37.0
 40
37.0
 40
37.0
 40
38.0
 40
38.0
 40
38.0
 40
39.0
 40
39.0
 40
39.0
 40
40.0
 40
40.0
 40
40.0
 40
41.0
 40
41.0
 40
41.0
 40
42.0
 40
42.0
 40
42.0
 40
43.0
 40
43.0
 40
43.0
 40
44.0
 40
44.0
 40
44.0
 40
45.0
 40
45.0
 40
45.0
 40
46.0
 40
46.0
 40
46.0
 40
47.0
 40
47.0
 40
47.0
 40
48.0
 40
48.0
 40
48.0
 40
48.0
 10
276.624308029531
 20
-164.0558345808393
 30
0.0
 10
276.624308029531
 20
-164.0558345808393
 30
0.0
 10
266.8430144596564
 20
-108.5871273193162
 30
0.0
 10
266.8430144596564
 20
-108.5871273193162
 30
0.0
 10
266.5901875147327
 20
-107.1533862375888
 30
0.0
 10
265.3444625191131
 20
-106.1081012036704
 30
0.0
 10
263.8886082307401
 20
-106.1081012036704
 30
0.0
 10
263.8886082307401
 20
-106.1081012036704
 30
0.0
 10
184.6292773315011
 20
-106.1081012036704
 30
0.0
 10
184.6292773315011
 20
-106.1081012036704
 30
0.0
 10
184.6292773315011
 20
-106.1081012036704
 30
0.0
 10
170.1175446826768
 20
-103.5667619234359
 30
0.0
 10
170.1175446826768
 20
-103.5667619234359
 30
0.0
 10
169.5748560163628
 20
-103.4717203517362
 30
0.0
 10
169.057531865559
 20
-103.8335199732278
 30
0.0
 10
168.9606170231895
 20
-104.37588566184
 30
0.0
 10
168.9606170231895
 20
-104.37588566184
 30
0.0
 10
166.0459585834342
 20
-120.6895970360711
 30
0.0
 10
166.0459585834342
 20
-120.6895970360711
 30
0.0
 10
165.900446362876
 20
-121.5041037361713
 30
0.0
 10
165.1228667800083
 20
-122.046943125413
 30
0.0
 10
164.3081232295935
 20
-121.9028520067425
 30
0.0
 10
164.3081232295935
 20
-121.9028520067425
 30
0.0
 10
131.7011126718816
 20
-116.1364081198374
 30
0.0
 10
131.7011126718816
 20
-116.1364081198374
 30
0.0
 10
131.4478335581757
 20
-116.0916218785292
 30
0.0
 10
131.2215553803348
 20
-115.9509758553438
 30
0.0
 10
131.0693036917338
 20
-115.7436887663657
 30
0.0
 10
131.0693036917338
 20
-115.7436887663657
 30
0.0
 10
130.4971163953271
 20
-114.9647096134571
 30
0.0
 10
130.4971163953271
 20
-114.9647096134571
 30
0.0
 10
130.3448001111858
 20
-114.7573363970919
 30
0.0
 10
130.118414274111
 20
-114.6166688420598
 30
0.0
 10
129.8650275011709
 20
-114.5719256644451
 30
0.0
 10
129.8650275011709
 20
-114.5719256644451
 30
0.0
 10
117.5486173547817
 20
-112.3974675215425
 30
0.0
 10
117.5486173547817
 20
-112.3974675215425
 30
0.0
 10
117.2175436786492
 20
-112.3390085575275
 30
0.0
 10
116.9380172437147
 20
-112.1181348732291
 30
0.0
 10
116.8045843892016
 20
-111.8095619769847
 30
0.0
 10
116.8045843892016
 20
-111.8095619769847
 30
0.0
 10
115.9785581510726
 20
-109.8990627437926
 30
0.0
 10
115.9785581510726
 20
-109.8990627437926
 30
0.0
 10
115.8453621468741
 20
-109.5909635481773
 30
0.0
 10
115.5664601354967
 20
-109.3702621186535
 30
0.0
 10
115.2360108829206
 20
-109.3114155813961
 30
0.0
 10
115.2360108829206
 20
-109.3114155813961
 30
0.0
 10
97.24923194997188
 20
-106.1081012036704
 30
0.0
 10
97.24923194997188
 20
-106.1081012036704
 30
0.0
 10
97.24923194997188
 20
-106.1081012036704
 30
0.0
 10
36.13950380905323
 20
-106.1079935444365
 30
0.0
 10
36.13950380905323
 20
-106.1079935444365
 30
0.0
 10
34.68418781684979
 20
-106.1079935444365
 30
0.0
 10
33.43876426708519
 20
-107.1524819000239
 30
0.0
 10
33.1853344304515
 20
-108.5855770263478
 30
0.0
 10
33.1853344304515
 20
-108.5855770263478
 30
0.0
 10
23.37624324638033
 20
-164.0542196923306
 30
0.0
 10
23.37624324638033
 20
-164.0542196923306
 30
0.0
 10
23.0875442447164
 20
-165.6866781880162
 30
0.0
 10
24.17765858363658
 20
-167.2438398155024
 30
0.0
 10
25.81035392963682
 20
-167.5312038426658
 30
0.0
 10
25.81035392963682
 20
-167.5312038426658
 30
0.0
 10
44.61846515811621
 20
-170.8417037536763
 30
0.0
 10
44.61846515811621
 20
-170.8417037536763
 30
0.0
 10
44.87008631962047
 20
-170.8859947625085
 30
0.0
 10
45.12784405745718
 20
-170.8816453294584
 30
0.0
 10
45.37785033045241
 20
-170.8289353685341
 30
0.0
 10
45.37785033045241
 20
-170.8289353685341
 30
0.0
 10
53.83891871483888
 20
-169.0446558211828
 30
0.0
 10
53.83891871483888
 20
-169.0446558211828
 30
0.0
 10
54.090819790351
 20
-168.9915367551696
 30
0.0
 10
54.35060152178561
 20
-168.987531831668
 30
0.0
 10
54.60403135841962
 20
-169.0328994328394
 30
0.0
 10
54.60403135841962
 20
-169.0328994328394
 30
0.0
 10
76.90876378149981
 20
-173.0255497817761
 30
0.0
 10
76.90876378149981
 20
-173.0255497817761
 30
0.0
 10
77.38550040111836
 20
-173.1109020224232
 30
0.0
 10
77.73255070756339
 20
-173.5256053914602
 30
0.0
 10
77.73255070756339
 20
-174.0099212211459
 30
0.0
 10
77.73255070756339
 20
-174.0099212211459
 30
0.0
 10
77.73255070756339
 20
-189.2611866795727
 30
0.0
 10
77.73255070756339
 20
-189.2611866795727
 30
0.0
 10
77.73255070756339
 20
-189.8134570177051
 30
0.0
 10
78.18028392956549
 20
-190.26116870786
 30
0.0
 10
78.73255426769751
 20
-190.26116870786
 30
0.0
 10
78.73255426769751
 20
-190.26116870786
 30
0.0
 10
96.13476509234002
 20
-190.26116870786
 30
0.0
 10
96.13476509234002
 20
-190.26116870786
 30
0.0
 10
96.54737987223935
 20
-190.26116870786
 30
0.0
 10
96.91764150951657
 20
-190.5146200763405
 30
0.0
 10
97.06696486695506
 20
-190.8992865191154
 30
0.0
 10
97.06696486695506
 20
-190.8992865191154
 30
0.0
 10
99.58026968267905
 20
-197.3734176142309
 30
0.0
 10
99.58026968267905
 20
-197.3734176142309
 30
0.0
 10
99.69572344512815
 20
-197.6707939501483
 30
0.0
 10
99.94611729136547
 20
-197.8952419210123
 30
0.0
 10
100.2543026143681
 20
-197.9776012349565
 30
0.0
 10
100.2543026143681
 20
-197.9776012349565
 30
0.0
 10
125.4406205605455
 20
-204.7089302398926
 30
0.0
 10
125.4406205605455
 20
-204.7089302398926
 30
0.0
 10
125.4406205605455
 20
-204.7089302398926
 30
0.0
 10
174.6273038639495
 20
-204.7089302398926
 30
0.0
 10
174.6273038639495
 20
-204.7089302398926
 30
0.0
 10
174.6273038639495
 20
-204.7089302398926
 30
0.0
 10
199.7670484255356
 20
-197.9778811489647
 30
0.0
 10
199.7670484255356
 20
-197.9778811489647
 30
0.0
 10
200.0753198759252
 20
-197.8953495802462
 30
0.0
 10
200.3256706584689
 20
-197.6706432272208
 30
0.0
 10
200.4409306342973
 20
-197.3730731046823
 30
0.0
 10
200.4409306342973
 20
-197.3730731046823
 30
0.0
 10
202.9479481507604
 20
-190.9000186019061
 30
0.0
 10
202.9479481507604
 20
-190.9000186019061
 30
0.0
 10
203.0970777215781
 20
-190.514964585889
 30
0.0
 10
203.4675331454764
 20
-190.26116870786
 30
0.0
 10
203.8804493712304
 20
-190.26116870786
 30
0.0
 10
203.8804493712304
 20
-190.26116870786
 30
0.0
 10
221.3004024376219
 20
-190.26116870786
 30
0.0
 10
221.3004024376219
 20
-190.26116870786
 30
0.0
 10
221.8526943076011
 20
-190.26116870786
 30
0.0
 10
222.3004059977561
 20
-189.8134570177051
 30
0.0
 10
222.3004059977561
 20
-189.2611866795727
 30
0.0
 10
222.3004059977561
 20
-189.2611866795727
 30
0.0
 10
222.3004059977561
 20
-174.0007701862633
 30
0.0
 10
222.3004059977561
 20
-174.0007701862633
 30
0.0
 10
222.3004059977561
 20
-173.5162605699564
 30
0.0
 10
222.6477362182096
 20
-173.1014495416856
 30
0.0
 10
223.1246881562956
 20
-173.0163341513531
 30
0.0
 10
223.1246881562956
 20
-173.0163341513531
 30
0.0
 10
245.4555602413705
 20
-169.0305739933869
 30
0.0
 10
245.4555602413705
 20
-169.0305739933869
 30
0.0
 10
245.7094422467867
 20
-168.9852709877558
 30
0.0
 10
245.9696761470037
 20
-168.9894912297253
 30
0.0
 10
246.2219432639111
 20
-169.0429763371338
 30
0.0
 10
246.2219432639111
 20
-169.0429763371338
 30
0.0
 10
254.6390651490138
 20
-170.8282248175903
 30
0.0
 10
254.6390651490138
 20
-170.8282248175903
 30
0.0
 10
254.8898465684933
 20
-170.8814084791438
 30
0.0
 10
255.148530175742
 20
-170.8858871032746
 30
0.0
 10
255.4010126111172
 20
-170.8414023078213
 30
0.0
 10
255.4010126111172
 20
-170.8414023078213
 30
0.0
 10
274.1903911328956
 20
-167.5313115018997
 30
0.0
 10
274.1903911328956
 20
-167.5313115018997
 30
0.0
 10
275.8223113324116
 20
-167.2438398155024
 30
0.0
 10
276.9120811617832
 20
-165.6877117166618
 30
0.0
 10
276.624308029531
 20
-164.0558345808393
 30
0.0
  0
ENDSEC
  0
SECTION
  2
OBJECTS
  0
DICTIONARY
  5
C
330
0
100
AcDbDictionary
281
     1
  3
ACAD_COLOR
350
63
  3
ACAD_DETAILVIEWSTYLE
350
6A
  3
ACAD_GROUP
350
D
  3
ACAD_LAYOUT
350
62
  3
ACAD_MATERIAL
350
10
  3
ACAD_MLEADERSTYLE
350
66
  3
ACAD_MLINESTYLE
350
5F
  3
ACAD_PLOTSETTINGS
350
61
  3
ACAD_PLOTSTYLENAME
350
E
  3
ACAD_SCALELIST
350
42
  3
ACAD_SECTIONVIEWSTYLE
350
68
  3
ACAD_TABLESTYLE
350
64
  3
ACAD_VISUALSTYLE
350
29
  3
ACDB_RECOMPOSE_DATA
350
D7
  3
AcDbVariableDictionary
350
CF
  0
DICTIONARY
  5
63
102
{ACAD_REACTORS
330
C
102
}
330
C
100
AcDbDictionary
281
     1
  0
DICTIONARY
  5
6A
102
{ACAD_REACTORS
330
C
102
}
330
C
100
AcDbDictionary
281
     1
  3
Imperial24
350
6B
  0
DICTIONARY
  5
D
102
{ACAD_REACTORS
330
C
102
}
330
C
100
AcDbDictionary
281
     1
  0
DICTIONARY
  5
62
102
{ACAD_REACTORS
330
C
102
}
330
C
100
AcDbDictionary
281
     1
  3
Layout1
350
6F
  3
Layout2
350
77
  3
Model
350
73
  0
DICTIONARY
  5
10
102
{ACAD_REACTORS
330
C
102
}
330
C
100
AcDbDictionary
281
     1
  3
ByBlock
350
19
  3
ByLayer
350
11
  3
Global
350
21
  0
DICTIONARY
  5
66
102
{ACAD_REACTORS
330
C
102
}
330
C
100
AcDbDictionary
281
     1
  3
Standard
350
67
  0
DICTIONARY
  5
5F
102
{ACAD_REACTORS
330
C
102
}
330
C
100
AcDbDictionary
281
     1
  3
Standard
350
60
  0
DICTIONARY
  5
61
102
{ACAD_REACTORS
330
C
102
}
330
C
100
AcDbDictionary
281
     1
  0
ACDBDICTIONARYWDFLT
  5
E
102
{ACAD_REACTORS
330
C
102
}
330
C
100
AcDbDictionary
281
     1
  3
Normal
350
F
100
AcDbDictionaryWithDefault
340
F
  0
DICTIONARY
  5
42
102
{ACAD_REACTORS
330
C
102
}
330
C
100
AcDbDictionary
281
     1
  3
A0
350
43
  3
A1
350
44
  3
A2
350
45
  3
A3
350
46
  3
A4
350
47
  3
A5
350
48
  3
A6
350
49
  3
A7
350
4A
  3
A8
350
4B
  3
A9
350
4C
  3
B0
350
4D
  3
B1
350
4E
  3
B2
350
4F
  3
B3
350
50
  3
B4
350
51
  3
B5
350
52
  3
B6
350
53
  0
DICTIONARY
  5
68
102
{ACAD_REACTORS
330
C
102
}
330
C
100
AcDbDictionary
281
     1
  3
Imperial24
350
69
  0
DICTIONARY
  5
64
102
{ACAD_REACTORS
330
C
102
}
330
C
100
AcDbDictionary
281
     1
  3
Standard
350
65
  0
DICTIONARY
  5
29
102
{ACAD_REACTORS
330
C
102
}
330
C
100
AcDbDictionary
281
     1
  3
2dWireframe
350
2F
  3
Basic
350
2E
  3
Brighten
350
35
  3
ColorChange
350
39
  3
Conceptual
350
32
  3
Dim
350
34
  3
EdgeColorOff
350
41
  3
Facepattern
350
38
  3
Flat
350
2A
  3
FlatWithEdges
350
2B
  3
Gouraud
350
2C
  3
GouraudWithEdges
350
2D
  3
Hidden
350
31
  3
JitterOff
350
3F
  3
Linepattern
350
37
  3
OverhangOff
350
40
  3
Realistic
350
33
  3
Shaded
350
3E
  3
Shaded with edges
350
3D
  3
Shades of Gray
350
3A
  3
Sketchy
350
3B
  3
Thicken
350
36
  3
Wireframe
350
30
  3
X-Ray
350
3C
  0
XRECORD
  5
D7
102
{ACAD_REACTORS
330
C
102
}
330
C
100
AcDbXrecord
280
     1
 90
        1
330
65
  0
DICTIONARY
  5
CF
102
{ACAD_REACTORS
330
C
102
}
330
C
100
AcDbDictionary
281
     1
  3
CANNOSCALE
350
D4
  3
CMLEADERSTYLE
350
D1
  3
CTABLESTYLE
350
D0
  3
CVIEWDETAILSTYLE
350
D2
  3
CVIEWSECTIONSTYLE
350
D3
  0
ACDBDETAILVIEWSTYLE
  5
6B
102
{ACAD_REACTORS
330
6A
102
}
330
6A
100
AcDbModelDocViewStyle
 70
     0
  3
Imperial24
290
     1
300
Imperial24
 90
        0
100
AcDbDetailViewStyle
 70
     0
 71
     0
 90
        3
 71
     1
340
55
 62
   256
 40
0.24
340
0
 62
   256
 40
0.24
300

 40
0.36
280
     3
 71
     2
340
5D
 90
       25
 62
   256
 71
     3
340
55
 62
   256
 40
0.24
 90
        1
 40
0.75
 90
        1
300
%<\AcVar ViewType \f "%tc1">% %<\AcVar ViewDetailId>%\PSCALE %<\AcVar ViewScale \f "%sn">%
 71
     4
340
5D
 90
       25
 62
   256
340
5D
 90
       25
 62
   256
280
     0
  0
LAYOUT
  5
6F
102
{ACAD_REACTORS
330
62
102
}
330
62
100
AcDbPlotSettings
  1

  2

  4

  6

 40
0.0
 41
0.0
 42
0.0
 43
0.0
 44
0.0
 45
0.0
 46
0.0
 47
0.0
 48
0.0
 49
0.0
140
0.0
141
0.0
142
1.0
143
1.0
 70
   688
 72
     0
 73
     0
 74
     5
  7

 75
    16
147
1.0
 76
     0
 77
     2
 78
   300
148
0.0
149
0.0
100
AcDbLayout
  1
Layout1
 70
     1
 71
     1
 10
0.0
 20
0.0
 11
12.0
 21
9.0
 12
0.0
 22
0.0
 32
0.0
 14
0.0
 24
0.0
 34
0.0
 15
0.0
 25
0.0
 35
0.0
146
0.0
 13
0.0
 23
0.0
 33
0.0
 16
1.0
 26
0.0
 36
0.0
 17
0.0
 27
1.0
 37
0.0
 76
     0
330
6C
  0
LAYOUT
  5
77
102
{ACAD_REACTORS
330
62
102
}
330
62
100
AcDbPlotSettings
  1

  2

  4

  6

 40
0.0
 41
0.0
 42
0.0
 43
0.0
 44
0.0
 45
0.0
 46
0.0
 47
0.0
 48
0.0
 49
0.0
140
0.0
141
0.0
142
1.0
143
1.0
 70
   688
 72
     0
 73
     0
 74
     5
  7

 75
    16
147
1.0
 76
     0
 77
     2
 78
   300
148
0.0
149
0.0
100
AcDbLayout
  1
Layout2
 70
     1
 71
     2
 10
0.0
 20
0.0
 11
12.0
 21
9.0
 12
0.0
 22
0.0
 32
0.0
 14
0.0
 24
0.0
 34
0.0
 15
0.0
 25
0.0
 35
0.0
146
0.0
 13
0.0
 23
0.0
 33
0.0
 16
1.0
 26
0.0
 36
0.0
 17
0.0
 27
1.0
 37
0.0
 76
     0
330
74
  0
LAYOUT
  5
73
102
{ACAD_REACTORS
330
62
102
}
330
62
100
AcDbPlotSettings
  1

  2

  4

  6

 40
0.0
 41
0.0
 42
0.0
 43
0.0
 44
0.0
 45
0.0
 46
0.0
 47
0.0
 48
0.0
 49
0.0
140
0.0
141
0.0
142
1.0
143
1.0
 70
  1712
 72
     0
 73
     0
 74
     0
  7

 75
     0
147
1.0
 76
     0
 77
     2
 78
   300
148
0.0
149
0.0
100
AcDbLayout
  1
Model
 70
     1
 71
     0
 10
0.0
 20
0.0
 11
12.0
 21
9.0
 12
0.0
 22
0.0
 32
0.0
 14
0.0
 24
0.0
 34
0.0
 15
0.0
 25
0.0
 35
0.0
146
0.0
 13
0.0
 23
0.0
 33
0.0
 16
1.0
 26
0.0
 36
0.0
 17
0.0
 27
1.0
 37
0.0
 76
     0
330
70
  0
MATERIAL
  5
19
102
{ACAD_XDICTIONARY
360
1A
102
}
102
{ACAD_REACTORS
330
10
102
}
330
10
100
AcDbMaterial
  1
ByBlock
 72
     0
 43
0.0208333333333333
 43
0.0
 43
0.0
 43
0.0
 43
0.0
 43
0.0208333333333333
 43
0.0
 43
0.0
 43
0.0
 43
0.0
 43
1.0
 43
0.0
 43
0.0
 43
0.0
 43
0.0
 43
1.0
 77
     0
 47
0.0208333333333333
 47
0.0
 47
0.0
 47
0.0
 47
0.0
 47
0.0208333333333333
 47
0.0
 47
0.0
 47
0.0
 47
0.0
 47
1.0
 47
0.0
 47
0.0
 47
0.0
 47
0.0
 47
1.0
171
     0
 49
0.0208333333333333
 49
0.0
 49
0.0
 49
0.0
 49
0.0
 49
0.0208333333333333
 49
0.0
 49
0.0
 49
0.0
 49
0.0
 49
1.0
 49
0.0
 49
0.0
 49
0.0
 49
0.0
 49
1.0
175
     0
142
0.0208333333333333
142
0.0
142
0.0
142
0.0
142
0.0
142
0.0208333333333333
142
0.0
142
0.0
142
0.0
142
0.0
142
1.0
142
0.0
142
0.0
142
0.0
142
0.0
142
1.0
179
     0
144
0.0208333333333333
144
0.0
144
0.0
144
0.0
144
0.0
144
0.0208333333333333
144
0.0
144
0.0
144
0.0
144
0.0
144
1.0
144
0.0
144
0.0
144
0.0
144
0.0
144
1.0
147
0.0208333333333333
147
0.0
147
0.0
147
0.0
147
0.0
147
0.0208333333333333
147
0.0
147
0.0
147
0.0
147
0.0
147
1.0
147
0.0
147
0.0
147
0.0
147
0.0
147
1.0
  0
MATERIAL
  5
11
102
{ACAD_XDICTIONARY
360
12
102
}
102
{ACAD_REACTORS
330
10
102
}
330
10
100
AcDbMaterial
  1
ByLayer
 72
     0
 43
0.0208333333333333
 43
0.0
 43
0.0
 43
0.0
 43
0.0
 43
0.0208333333333333
 43
0.0
 43
0.0
 43
0.0
 43
0.0
 43
1.0
 43
0.0
 43
0.0
 43
0.0
 43
0.0
 43
1.0
 77
     0
 47
0.0208333333333333
 47
0.0
 47
0.0
 47
0.0
 47
0.0
 47
0.0208333333333333
 47
0.0
 47
0.0
 47
0.0
 47
0.0
 47
1.0
 47
0.0
 47
0.0
 47
0.0
 47
0.0
 47
1.0
171
     0
 49
0.0208333333333333
 49
0.0
 49
0.0
 49
0.0
 49
0.0
 49
0.0208333333333333
 49
0.0
 49
0.0
 49
0.0
 49
0.0
 49
1.0
 49
0.0
 49
0.0
 49
0.0
 49
0.0
 49
1.0
175
     0
142
0.0208333333333333
142
0.0
142
0.0
142
0.0
142
0.0
142
0.0208333333333333
142
0.0
142
0.0
142
0.0
142
0.0
142
1.0
142
0.0
142
0.0
142
0.0
142
0.0
142
1.0
179
     0
144
0.0208333333333333
144
0.0
144
0.0
144
0.0
144
0.0
144
0.0208333333333333
144
0.0
144
0.0
144
0.0
144
0.0
144
1.0
144
0.0
144
0.0
144
0.0
144
0.0
144
1.0
147
0.0208333333333333
147
0.0
147
0.0
147
0.0
147
0.0
147
0.0208333333333333
147
0.0
147
0.0
147
0.0
147
0.0
147
1.0
147
0.0
147
0.0
147
0.0
147
0.0
147
1.0
  0
MATERIAL
  5
21
102
{ACAD_XDICTIONARY
360
22
102
}
102
{ACAD_REACTORS
330
10
102
}
330
10
100
AcDbMaterial
  1
Global
 72
     0
 43
0.0208333333333333
 43
0.0
 43
0.0
 43
0.0
 43
0.0
 43
0.0208333333333333
 43
0.0
 43
0.0
 43
0.0
 43
0.0
 43
1.0
 43
0.0
 43
0.0
 43
0.0
 43
0.0
 43
1.0
 77
     0
 47
0.0208333333333333
 47
0.0
 47
0.0
 47
0.0
 47
0.0
 47
0.0208333333333333
 47
0.0
 47
0.0
 47
0.0
 47
0.0
 47
1.0
 47
0.0
 47
0.0
 47
0.0
 47
0.0
 47
1.0
171
     0
 49
0.0208333333333333
 49
0.0
 49
0.0
 49
0.0
 49
0.0
 49
0.0208333333333333
 49
0.0
 49
0.0
 49
0.0
 49
0.0
 49
1.0
 49
0.0
 49
0.0
 49
0.0
 49
0.0
 49
1.0
175
     0
142
0.0208333333333333
142
0.0
142
0.0
142
0.0
142
0.0
142
0.0208333333333333
142
0.0
142
0.0
142
0.0
142
0.0
142
1.0
142
0.0
142
0.0
142
0.0
142
0.0
142
1.0
179
     0
144
0.0208333333333333
144
0.0
144
0.0
144
0.0
144
0.0
144
0.0208333333333333
144
0.0
144
0.0
144
0.0
144
0.0
144
1.0
144
0.0
144
0.0
144
0.0
144
0.0
144
1.0
147
0.0208333333333333
147
0.0
147
0.0
147
0.0
147
0.0
147
0.0208333333333333
147
0.0
147
0.0
147
0.0
147
0.0
147
1.0
147
0.0
147
0.0
147
0.0
147
0.0
147
1.0
  0
MLEADERSTYLE
  5
67
102
{ACAD_REACTORS
330
66
102
}
330
66
100
AcDbMLeaderStyle
179
     2
170
     2
171
     1
172
     0
 90
        2
 40
0.0
 41
0.0
173
     1
 91
-1056964608
340
5B
 92
       -2
290
     1
 42
0.09
291
     1
 43
0.36
  3
Standard
 44
0.18
300

342
55
174
     1
178
     6
175
     1
176
     0
 93
-1056964608
 45
0.18
292
     0
297
     0
 46
0.18
 94
-1056964608
 47
1.0
 49
1.0
140
1.0
293
     1
141
0.0
294
     1
177
     0
142
1.0
295
     1
296
     0
143
0.125
271
     0
272
     9
273
     9
298
     1
  0
MLINESTYLE
  5
60
102
{ACAD_REACTORS
330
5F
102
}
330
5F
100
AcDbMlineStyle
  2
STANDARD
 70
     0
  3

 62
   256
 51
90.0
 52
90.0
 71
     2
 49
0.5
 62
   256
  6
BYLAYER
 49
-0.5
 62
   256
  6
BYLAYER
  0
ACDBPLACEHOLDER
  5
F
102
{ACAD_REACTORS
330
E
102
}
330
E
  0
SCALE
  5
43
102
{ACAD_REACTORS
330
42
102
}
330
42
100
AcDbScale
 70
     0
300
1:1
140
1.0
141
1.0
290
     1
  0
SCALE
  5
44
102
{ACAD_REACTORS
330
42
102
}
330
42
100
AcDbScale
 70
     0
300
1/128" = 1'-0"
140
0.0078125
141
12.0
290
     0
  0
SCALE
  5
45
102
{ACAD_REACTORS
330
42
102
}
330
42
100
AcDbScale
 70
     0
300
1/64" = 1'-0"
140
0.015625
141
12.0
290
     0
  0
SCALE
  5
46
102
{ACAD_REACTORS
330
42
102
}
330
42
100
AcDbScale
 70
     0
300
1/32" = 1'-0"
140
0.03125
141
12.0
290
     0
  0
SCALE
  5
47
102
{ACAD_REACTORS
330
42
102
}
330
42
100
AcDbScale
 70
     0
300
1/16" = 1'-0"
140
0.0625
141
12.0
290
     0
  0
SCALE
  5
48
102
{ACAD_REACTORS
330
42
102
}
330
42
100
AcDbScale
 70
     0
300
3/32" = 1'-0"
140
0.09375
141
12.0
290
     0
  0
SCALE
  5
49
102
{ACAD_REACTORS
330
42
102
}
330
42
100
AcDbScale
 70
     0
300
1/8" = 1'-0"
140
0.125
141
12.0
290
     0
  0
SCALE
  5
4A
102
{ACAD_REACTORS
330
42
102
}
330
42
100
AcDbScale
 70
     0
300
3/16" = 1'-0"
140
0.1875
141
12.0
290
     0
  0
SCALE
  5
4B
102
{ACAD_REACTORS
330
42
102
}
330
42
100
AcDbScale
 70
     0
300
1/4" = 1'-0"
140
0.25
141
12.0
290
     0
  0
SCALE
  5
4C
102
{ACAD_REACTORS
330
42
102
}
330
42
100
AcDbScale
 70
     0
300
3/8" = 1'-0"
140
0.375
141
12.0
290
     0
  0
SCALE
  5
4D
102
{ACAD_REACTORS
330
42
102
}
330
42
100
AcDbScale
 70
     0
300
1/2" = 1'-0"
140
0.5
141
12.0
290
     0
  0
SCALE
  5
4E
102
{ACAD_REACTORS
330
42
102
}
330
42
100
AcDbScale
 70
     0
300
3/4" = 1'-0"
140
0.75
141
12.0
290
     0
  0
SCALE
  5
4F
102
{ACAD_REACTORS
330
42
102
}
330
42
100
AcDbScale
 70
     0
300
1" = 1'-0"
140
1.0
141
12.0
290
     0
  0
SCALE
  5
50
102
{ACAD_REACTORS
330
42
102
}
330
42
100
AcDbScale
 70
     0
300
1-1/2" = 1'-0"
140
1.5
141
12.0
290
     0
  0
SCALE
  5
51
102
{ACAD_REACTORS
330
42
102
}
330
42
100
AcDbScale
 70
     0
300
3" = 1'-0"
140
3.0
141
12.0
290
     0
  0
SCALE
  5
52
102
{ACAD_REACTORS
330
42
102
}
330
42
100
AcDbScale
 70
     0
300
6" = 1'-0"
140
6.0
141
12.0
290
     0
  0
SCALE
  5
53
102
{ACAD_REACTORS
330
42
102
}
330
42
100
AcDbScale
 70
     0
300
1'-0" = 1'-0"
140
12.0
141
12.0
290
     0
  0
ACDBSECTIONVIEWSTYLE
  5
69
102
{ACAD_REACTORS
330
68
102
}
330
68
100
AcDbModelDocViewStyle
 70
     0
  3
Imperial24
290
     1
300
Imperial24
 90
        0
100
AcDbSectionViewStyle
 70
     0
 71
     0
 90
       78
 71
     1
340
55
 62
   256
 40
0.24
340
0
340
0
 62
   256
 40
0.24
300
I, O, Q, S, X, Z
 40
0.48
 90
        3
 40
0.18
 90
        1
 71
     2
340
5D
 90
       25
 62
   256
340
5D
 90
       50
 62
   256
 40
0.24
 40
0.0
 40
0.24
 71
     3
340
55
 62
   256
 40
0.24
 90
        1
 40
0.75
 90
        1
300
%<\AcVar ViewType \f "%tc1">% %<\AcVar ViewSectionStartId>%-%<\AcVar ViewSectionEndId>%\PSCALE %<\AcVar ViewScale \f "%sn">%
 71
     4
 62
   256
 62
   257
300
ANSI31
 40
1.0
 90
        0
290
     0
290
     0
 90
        6
 40
0.0
 40
1.570796326794896
 40
0.2617993877991494
 40
1.308996938995747
 40
-0.2617993877991494
 40
1.832595714594046
  0
TABLESTYLE
  5
65
102
{ACAD_XDICTIONARY
360
D5
102
}
102
{ACAD_REACTORS
330
64
102
}
330
64
100
AcDbTableStyle
280
     0
  3
Standard
 70
     0
 71
     0
 40
0.06
 41
0.06
280
     0
281
     0
  7
Standard
140
0.18
170
     2
 62
     0
 63
     7
283
     0
 90
      512
 91
        0
  1

274
    -2
284
     1
 64
     0
275
    -2
285
     1
 65
     0
276
    -2
286
     1
 66
     0
277
    -2
287
     1
 67
     0
278
    -2
288
     1
 68
     0
279
    -2
289
     1
 69
     0
  7
Standard
140
0.25
170
     5
 62
     0
 63
     7
283
     0
 90
      512
 91
        0
  1

274
    -2
284
     1
 64
     0
275
    -2
285
     1
 65
     0
276
    -2
286
     1
 66
     0
277
    -2
287
     1
 67
     0
278
    -2
288
     1
 68
     0
279
    -2
289
     1
 69
     0
  7
Standard
140
0.18
170
     5
 62
     0
 63
     7
283
     0
 90
      512
 91
        0
  1

274
    -2
284
     1
 64
     0
275
    -2
285
     1
 65
     0
276
    -2
286
     1
 66
     0
277
    -2
287
     1
 67
     0
278
    -2
288
     1
 68
     0
279
    -2
289
     1
 69
     0
  0
VISUALSTYLE
  5
2F
102
{ACAD_REACTORS
330
29
102
}
330
29
100
AcDbVisualStyle
  2
2dWireframe
 70
     4
177
     3
291
     0
 70
    58
 90
        0
176
     1
 90
        2
176
     1
 90
        0
176
     1
 90
        0
176
     1
 40
0.6
176
     1
 40
30.0
176
     1
 62
     7
420
 16777215
176
     1
 90
        1
176
     1
 90
        4
176
     1
 62
     7
176
     1
 62
   257
176
     1
 90
        1
176
     1
 90
        1
176
     1
 40
1.0
176
     1
 90
        0
176
     1
 62
   257
176
     1
 40
1.0
176
     1
 90
        1
176
     1
 90
        6
176
     1
 90
        2
176
     1
 62
     7
176
     1
 90
        5
176
     1
 90
        0
176
     1
 90
        0
176
     1
290
     0
176
     1
 90
        1
176
     1
 40
0.0
176
     1
 90
        0
176
     1
290
     1
176
     1
290
     1
176
     1
290
     0
176
     1
290
     0
176
     1
290
     0
176
     1
290
     0
176
     1
290
     0
176
     1
290
     0
176
     1
290
     0
176
     1
 90
       50
176
     1
 40
0.0
176
     1
 40
1.0
176
     1
 90
        0
176
     1
 62
    18
420
        0
176
     1
 90
       50
176
     1
 90
        3
176
     1
 62
     5
420
      255
176
     1
290
     0
176
     1
 90
       50
176
     1
 90
       50
176
     1
 90
       50
176
     1
290
     0
176
     1
 90
       50
176
     1
 62
   256
176
     0
 40
1.0
176
     0
 90
        2
176
     1
  1
strokes_ogs.tif
176
     1
290
     0
176
     1
 40
1.0
176
     1
 40
1.0
176
     1
  0
VISUALSTYLE
  5
2E
102
{ACAD_REACTORS
330
29
102
}
330
29
100
AcDbVisualStyle
  2
Basic
 70
     7
177
     3
291
     1
 70
    58
 90
        1
176
     1
 90
        0
176
     1
 90
        1
176
     1
 90
        0
176
     1
 40
0.6
176
     1
 40
30.0
176
     1
 62
     7
420
 16777215
176
     1
 90
        0
176
     1
 90
        4
176
     1
 62
     7
176
     1
 62
   257
176
     1
 90
        1
176
     1
 90
        1
176
     1
 40
1.0
176
     1
 90
        8
176
     1
 62
     7
176
     1
 40
1.0
176
     1
 90
        1
176
     1
 90
        6
176
     1
 90
        2
176
     1
 62
     7
176
     1
 90
        5
176
     1
 90
        0
176
     1
 90
        0
176
     1
290
     0
176
     1
 90
        1
176
     1
 40
0.0
176
     1
 90
        0
176
     1
290
     0
176
     1
290
     1
176
     1
290
     1
176
     1
290
     0
176
     1
290
     0
176
     1
290
     0
176
     1
290
     0
176
     1
290
     0
176
     1
290
     0
176
     1
 90
       50
176
     1
 40
0.0
176
     1
 40
1.0
176
     1
 90
        0
176
     1
 62
    18
420
        0
176
     1
 90
       50
176
     1
 90
        3
176
     1
 62
     5
420
      255
176
     1
290
     0
176
     1
 90
       50
176
     1
 90
       50
176
     1
 90
       50
176
     1
290
     0
176
     1
 90
       50
176
     1
 62
   256
176
     0
 40
1.0
176
     0
 90
        2
176
     1
  1
strokes_ogs.tif
176
     1
290
     0
176
     1
 40
1.0
176
     1
 40
1.0
176
     1
  0
VISUALSTYLE
  5
35
102
{ACAD_REACTORS
330
29
102
}
330
29
100
AcDbVisualStyle
  2
Brighten
 70
    12
177
     3
291
     1
 70
    58
 90
        2
176
     1
 90
        2
176
     1
 90
        0
176
     1
 90
        0
176
     1
 40
0.6
176
     1
 40
30.0
176
     1
 62
     7
420
 16777215
176
     1
 90
        1
176
     1
 90
        4
176
     1
 62
     7
176
     1
 62
   257
176
     1
 90
        1
176
     1
 90
        1
176
     1
 40
1.0
176
     1
 90
        8
176
     1
 62
     7
176
     1
 40
1.0
176
     1
 90
        1
176
     1
 90
        6
176
     1
 90
        2
176
     1
 62
     7
176
     1
 90
        5
176
     1
 90
        0
176
     1
 90
        0
176
     1
290
     0
176
     1
 90
        1
176
     1
 40
50.0
176
     1
 90
        0
176
     1
290
     0
176
     1
290
     1
176
     1
290
     1
176
     1
290
     0
176
     1
290
     0
176
     1
290
     0
176
     1
290
     0
176
     1
290
     0
176
     1
290
     0
176
     1
 90
       50
176
     1
 40
0.0
176
     1
 40
1.0
176
     1
 90
        0
176
     1
 62
    18
420
        0
176
     1
 90
       50
176
     1
 90
        3
176
     1
 62
     5
420
      255
176
     1
290
     0
176
     1
 90
       50
176
     1
 90
       50
176
     1
 90
       50
176
     1
290
     0
176
     1
 90
       50
176
     1
 62
   256
176
     0
 40
1.0
176
     0
 90
        2
176
     1
  1
strokes_ogs.tif
176
     1
290
     0
176
     1
 40
1.0
176
     1
 40
1.0
176
     1
  0
VISUALSTYLE
  5
39
102
{ACAD_REACTORS
330
29
102
}
330
29
100
AcDbVisualStyle
  2
ColorChange
 70
    16
177
     3
291
     1
 70
    58
 90
        2
176
     1
 90
        2
176
     1
 90
        3
176
     1
 90
        0
176
     1
 40
0.6
176
     1
 40
30.0
176
     1
 62
     8
420
  8421504
176
     1
 90
        1
176
     1
 90
        4
176
     1
 62
     7
176
     1
 62
   257
176
     1
 90
        1
176
     1
 90
        1
176
     1
 40
1.0
176
     1
 90
        8
176
     1
 62
     8
420
  8421504
176
     1
 40
1.0
176
     1
 90
        1
176
     1
 90
        6
176
     1
 90
        2
176
     1
 62
     7
176
     1
 90
        5
176
     1
 90
        0
176
     1
 90
        0
176
     1
290
     0
176
     1
 90
        1
176
     1
 40
0.0
176
     1
 90
        0
176
     1
290
     0
176
     1
290
     1
176
     1
290
     1
176
     1
290
     0
176
     1
290
     0
176
     1
290
     0
176
     1
290
     0
176
     1
290
     0
176
     1
290
     0
176
     1
 90
       50
176
     1
 40
0.0
176
     1
 40
1.0
176
     1
 90
        0
176
     1
 62
    18
420
        0
176
     1
 90
       50
176
     1
 90
        3
176
     1
 62
     5
420
      255
176
     1
290
     0
176
     1
 90
       50
176
     1
 90
       50
176
     1
 90
       50
176
     1
290
     0
176
     1
 90
       50
176
     1
 62
   256
176
     0
 40
1.0
176
     0
 90
        2
176
     1
  1
strokes_ogs.tif
176
     1
290
     0
176
     1
 40
1.0
176
     1
 40
1.0
176
     1
  0
VISUALSTYLE
  5
32
102
{ACAD_REACTORS
330
29
102
}
330
29
100
AcDbVisualStyle
  2
Conceptual
 70
     9
177
     3
291
     0
 70
    58
 90
        3
176
     1
 90
        2
176
     1
 90
        0
176
     1
 90
        0
176
     1
 40
0.6
176
     1
 40
30.0
176
     1
 62
     7
420
 16777215
176
     1
 90
        2
176
     1
 90
        2
176
     1
 62
     7
176
     1
 62
   257
176
     1
 90
        1
176
     1
 90
        1
176
     1
 40
179.0
176
     1
 90
        8
176
     1
 62
     7
176
     1
 40
1.0
176
     1
 90
        1
176
     1
 90
        6
176
     1
 90
        2
176
     1
 62
     7
176
     1
 90
        3
176
     1
 90
        0
176
     1
 90
        0
176
     1
290
     0
176
     1
 90
        1
176
     1
 40
0.0
176
     1
 90
        0
176
     1
290
     0
176
     1
290
     1
176
     1
290
     1
176
     1
290
     0
176
     1
290
     0
176
     1
290
     0
176
     1
290
     0
176
     1
290
     0
176
     1
290
     0
176
     1
 90
       50
176
     1
 40
0.0
176
     1
 40
1.0
176
     1
 90
        0
176
     1
 62
    18
420
        0
176
     1
 90
       50
176
     1
 90
        3
176
     1
 62
     5
420
      255
176
     1
290
     0
176
     1
 90
       50
176
     1
 90
       50
176
     1
 90
       50
176
     1
290
     0
176
     1
 90
       50
176
     1
 62
   256
176
     0
 40
1.0
176
     0
 90
        2
176
     1
  1
strokes_ogs.tif
176
     1
290
     0
176
     1
 40
1.0
176
     1
 40
1.0
176
     1
  0
VISUALSTYLE
  5
34
102
{ACAD_REACTORS
330
29
102
}
330
29
100
AcDbVisualStyle
  2
Dim
 70
    11
177
     3
291
     1
 70
    58
 90
        2
176
     1
 90
        2
176
     1
 90
        0
176
     1
 90
        0
176
     1
 40
0.6
176
     1
 40
30.0
176
     1
 62
     7
420
 16777215
176
     1
 90
        1
176
     1
 90
        4
176
     1
 62
     7
176
     1
 62
   257
176
     1
 90
        1
176
     1
 90
        1
176
     1
 40
1.0
176
     1
 90
        8
176
     1
 62
     7
176
     1
 40
1.0
176
     1
 90
        1
176
     1
 90
        6
176
     1
 90
        2
176
     1
 62
     7
176
     1
 90
        5
176
     1
 90
        0
176
     1
 90
        0
176
     1
290
     0
176
     1
 90
        1
176
     1
 40
-50.0
176
     1
 90
        0
176
     1
290
     0
176
     1
290
     1
176
     1
290
     1
176
     1
290
     0
176
     1
290
     0
176
     1
290
     0
176
     1
290
     0
176
     1
290
     0
176
     1
290
     0
176
     1
 90
       50
176
     1
 40
0.0
176
     1
 40
1.0
176
     1
 90
        0
176
     1
 62
    18
420
        0
176
     1
 90
       50
176
     1
 90
        3
176
     1
 62
     5
420
      255
176
     1
290
     0
176
     1
 90
       50
176
     1
 90
       50
176
     1
 90
       50
176
     1
290
     0
176
     1
 90
       50
176
     1
 62
   256
176
     0
 40
1.0
176
     0
 90
        2
176
     1
  1
strokes_ogs.tif
176
     1
290
     0
176
     1
 40
1.0
176
     1
 40
1.0
176
     1
  0
VISUALSTYLE
  5
41
102
{ACAD_REACTORS
330
29
102
}
330
29
100
AcDbVisualStyle
  2
EdgeColorOff
 70
    22
177
     3
291
     1
 70
    58
 90
        2
176
     0
 90
        2
176
     0
 90
        0
176
     0
 90
        0
176
     0
 40
0.6
176
     0
 40
30.0
176
     0
 62
     7
420
 16777215
176
     0
 90
        1
176
     0
 90
        4
176
     0
 62
     7
176
     0
 62
   257
176
     0
 90
        1
176
     0
 90
        1
176
     0
 40
1.0
176
     0
 90
        8
176
     2
 62
     7
176
     0
 40
1.0
176
     0
 90
        1
176
     0
 90
        6
176
     0
 90
        2
176
     0
 62
     7
176
     0
 90
        5
176
     0
 90
        0
176
     0
 90
        0
176
     0
290
     0
176
     0
 90
        1
176
     0
 40
0.0
176
     0
 90
        0
176
     0
290
     0
176
     0
290
     1
176
     0
290
     1
176
     0
290
     0
176
     0
290
     0
176
     0
290
     0
176
     0
290
     0
176
     0
290
     0
176
     0
290
     0
176
     0
 90
       50
176
     0
 40
0.0
176
     0
 40
1.0
176
     0
 90
        0
176
     0
 62
    18
420
        0
176
     0
 90
       50
176
     0
 90
        3
176
     0
 62
     5
420
      255
176
     0
290
     0
176
     0
 90
       50
176
     0
 90
       50
176
     0
 90
       50
176
     0
290
     0
176
     0
 90
       50
176
     0
 62
   256
176
     0
 40
1.0
176
     0
 90
        2
176
     0
  1
strokes_ogs.tif
176
     0
290
     0
176
     0
 40
1.0
176
     0
 40
1.0
176
     0
  0
VISUALSTYLE
  5
38
102
{ACAD_REACTORS
330
29
102
}
330
29
100
AcDbVisualStyle
  2
Facepattern
 70
    15
177
     3
291
     1
 70
    58
 90
        2
176
     1
 90
        2
176
     1
 90
        0
176
     1
 90
        0
176
     1
 40
0.6
176
     1
 40
30.0
176
     1
 62
     7
420
 16777215
176
     1
 90
        1
176
     1
 90
        4
176
     1
 62
     7
176
     1
 62
   257
176
     1
 90
        1
176
     1
 90
        1
176
     1
 40
1.0
176
     1
 90
        8
176
     1
 62
     7
176
     1
 40
1.0
176
     1
 90
        1
176
     1
 90
        6
176
     1
 90
        2
176
     1
 62
     7
176
     1
 90
        5
176
     1
 90
        0
176
     1
 90
        0
176
     1
290
     0
176
     1
 90
        1
176
     1
 40
0.0
176
     1
 90
        0
176
     1
290
     0
176
     1
290
     1
176
     1
290
     1
176
     1
290
     0
176
     1
290
     0
176
     1
290
     0
176
     1
290
     0
176
     1
290
     0
176
     1
290
     0
176
     1
 90
       50
176
     1
 40
0.0
176
     1
 40
1.0
176
     1
 90
        0
176
     1
 62
    18
420
        0
176
     1
 90
       50
176
     1
 90
        3
176
     1
 62
     5
420
      255
176
     1
290
     0
176
     1
 90
       50
176
     1
 90
       50
176
     1
 90
       50
176
     1
290
     0
176
     1
 90
       50
176
     1
 62
   256
176
     0
 40
1.0
176
     0
 90
        2
176
     1
  1
strokes_ogs.tif
176
     1
290
     0
176
     1
 40
1.0
176
     1
 40
1.0
176
     1
  0
VISUALSTYLE
  5
2A
102
{ACAD_REACTORS
330
29
102
}
330
29
100
AcDbVisualStyle
  2
Flat
 70
     0
177
     3
291
     1
 70
    58
 90
        2
176
     1
 90
        1
176
     1
 90
        1
176
     1
 90
        2
176
     1
 40
0.6
176
     1
 40
30.0
176
     1
 62
     7
420
 16777215
176
     1
 90
        0
176
     1
 90
        0
176
     1
 62
     7
176
     1
 62
   257
176
     1
 90
        1
176
     1
 90
        1
176
     1
 40
1.0
176
     1
 90
        8
176
     1
 62
     7
176
     1
 40
1.0
176
     1
 90
        1
176
     1
 90
        6
176
     1
 90
        2
176
     1
 62
     7
176
     1
 90
        5
176
     1
 90
        0
176
     1
 90
        0
176
     1
290
     0
176
     1
 90
       13
176
     1
 40
0.0
176
     1
 90
        0
176
     1
290
     0
176
     1
290
     1
176
     1
290
     1
176
     1
290
     0
176
     1
290
     0
176
     1
290
     0
176
     1
290
     0
176
     1
290
     0
176
     1
290
     0
176
     1
 90
       50
176
     1
 40
0.0
176
     1
 40
1.0
176
     1
 90
        0
176
     1
 62
    18
420
        0
176
     1
 90
       50
176
     1
 90
        3
176
     1
 62
     5
420
      255
176
     1
290
     0
176
     1
 90
       50
176
     1
 90
       50
176
     1
 90
       50
176
     1
290
     0
176
     1
 90
       50
176
     1
 62
   256
176
     0
 40
1.0
176
     0
 90
        2
176
     1
  1
strokes_ogs.tif
176
     1
290
     0
176
     1
 40
1.0
176
     1
 40
1.0
176
     1
  0
VISUALSTYLE
  5
2B
102
{ACAD_REACTORS
330
29
102
}
330
29
100
AcDbVisualStyle
  2
FlatWithEdges
 70
     1
177
     3
291
     1
 70
    58
 90
        2
176
     1
 90
        1
176
     1
 90
        1
176
     1
 90
        2
176
     1
 40
0.6
176
     1
 40
30.0
176
     1
 62
     7
420
 16777215
176
     1
 90
        1
176
     1
 90
        0
176
     1
 62
     7
176
     1
 62
   257
176
     1
 90
        1
176
     1
 90
        1
176
     1
 40
1.0
176
     1
 90
        0
176
     1
 62
   257
176
     1
 40
1.0
176
     1
 90
        1
176
     1
 90
        6
176
     1
 90
        2
176
     1
 62
     7
176
     1
 90
        5
176
     1
 90
        0
176
     1
 90
        0
176
     1
290
     0
176
     1
 90
       13
176
     1
 40
0.0
176
     1
 90
        0
176
     1
290
     0
176
     1
290
     1
176
     1
290
     1
176
     1
290
     0
176
     1
290
     0
176
     1
290
     0
176
     1
290
     0
176
     1
290
     0
176
     1
290
     0
176
     1
 90
       50
176
     1
 40
0.0
176
     1
 40
1.0
176
     1
 90
        0
176
     1
 62
    18
420
        0
176
     1
 90
       50
176
     1
 90
        3
176
     1
 62
     5
420
      255
176
     1
290
     0
176
     1
 90
       50
176
     1
 90
       50
176
     1
 90
       50
176
     1
290
     0
176
     1
 90
       50
176
     1
 62
   256
176
     0
 40
1.0
176
     0
 90
        2
176
     1
  1
strokes_ogs.tif
176
     1
290
     0
176
     1
 40
1.0
176
     1
 40
1.0
176
     1
  0
VISUALSTYLE
  5
2C
102
{ACAD_REACTORS
330
29
102
}
330
29
100
AcDbVisualStyle
  2
Gouraud
 70
     2
177
     3
291
     1
 70
    58
 90
        2
176
     1
 90
        2
176
     1
 90
        1
176
     1
 90
        2
176
     1
 40
0.6
176
     1
 40
30.0
176
     1
 62
     7
420
 16777215
176
     1
 90
        0
176
     1
 90
        0
176
     1
 62
     7
176
     1
 62
   257
176
     1
 90
        1
176
     1
 90
        1
176
     1
 40
1.0
176
     1
 90
        0
176
     1
 62
     7
176
     1
 40
1.0
176
     1
 90
        1
176
     1
 90
        6
176
     1
 90
        2
176
     1
 62
     7
176
     1
 90
        5
176
     1
 90
        0
176
     1
 90
        0
176
     1
290
     0
176
     1
 90
       13
176
     1
 40
0.0
176
     1
 90
        0
176
     1
290
     0
176
     1
290
     1
176
     1
290
     1
176
     1
290
     0
176
     1
290
     0
176
     1
290
     0
176
     1
290
     0
176
     1
290
     0
176
     1
290
     0
176
     1
 90
       50
176
     1
 40
0.0
176
     1
 40
1.0
176
     1
 90
        0
176
     1
 62
    18
420
        0
176
     1
 90
       50
176
     1
 90
        3
176
     1
 62
     5
420
      255
176
     1
290
     0
176
     1
 90
       50
176
     1
 90
       50
176
     1
 90
       50
176
     1
290
     0
176
     1
 90
       50
176
     1
 62
   256
176
     0
 40
1.0
176
     0
 90
        2
176
     1
  1
strokes_ogs.tif
176
     1
290
     0
176
     1
 40
1.0
176
     1
 40
1.0
176
     1
  0
VISUALSTYLE
  5
2D
102
{ACAD_REACTORS
330
29
102
}
330
29
100
AcDbVisualStyle
  2
GouraudWithEdges
 70
     3
177
     3
291
     1
 70
    58
 90
        2
176
     1
 90
        2
176
     1
 90
        1
176
     1
 90
        2
176
     1
 40
0.6
176
     1
 40
30.0
176
     1
 62
     7
420
 16777215
176
     1
 90
        1
176
     1
 90
        0
176
     1
 62
     7
176
     1
 62
   257
176
     1
 90
        1
176
     1
 90
        1
176
     1
 40
1.0
176
     1
 90
        0
176
     1
 62
   257
176
     1
 40
1.0
176
     1
 90
        1
176
     1
 90
        6
176
     1
 90
        2
176
     1
 62
     7
176
     1
 90
        5
176
     1
 90
        0
176
     1
 90
        0
176
     1
290
     0
176
     1
 90
       13
176
     1
 40
0.0
176
     1
 90
        0
176
     1
290
     0
176
     1
290
     1
176
     1
290
     1
176
     1
290
     0
176
     1
290
     0
176
     1
290
     0
176
     1
290
     0
176
     1
290
     0
176
     1
290
     0
176
     1
 90
       50
176
     1
 40
0.0
176
     1
 40
1.0
176
     1
 90
        0
176
     1
 62
    18
420
        0
176
     1
 90
       50
176
     1
 90
        3
176
     1
 62
     5
420
      255
176
     1
290
     0
176
     1
 90
       50
176
     1
 90
       50
176
     1
 90
       50
176
     1
290
     0
176
     1
 90
       50
176
     1
 62
   256
176
     0
 40
1.0
176
     0
 90
        2
176
     1
  1
strokes_ogs.tif
176
     1
290
     0
176
     1
 40
1.0
176
     1
 40
1.0
176
     1
  0
VISUALSTYLE
  5
31
102
{ACAD_REACTORS
330
29
102
}
330
29
100
AcDbVisualStyle
  2
Hidden
 70
     6
177
     3
291
     0
 70
    58
 90
        1
176
     1
 90
        2
176
     1
 90
        2
176
     1
 90
        0
176
     1
 40
0.6
176
     1
 40
30.0
176
     1
 62
     7
420
 16777215
176
     1
 90
        2
176
     1
 90
        2
176
     1
 62
     7
176
     1
 62
   257
176
     1
 90
        2
176
     1
 90
        1
176
     1
 40
40.0
176
     1
 90
        0
176
     1
 62
   257
176
     1
 40
1.0
176
     1
 90
        1
176
     1
 90
        6
176
     1
 90
        2
176
     1
 62
     7
176
     1
 90
        3
176
     1
 90
        0
176
     1
 90
        0
176
     1
290
     0
176
     1
 90
        1
176
     1
 40
0.0
176
     1
 90
        0
176
     1
290
     0
176
     1
290
     1
176
     1
290
     1
176
     1
290
     0
176
     1
290
     0
176
     1
290
     0
176
     1
290
     0
176
     1
290
     0
176
     1
290
     0
176
     1
 90
       50
176
     1
 40
0.0
176
     1
 40
1.0
176
     1
 90
        0
176
     1
 62
    18
420
        0
176
     1
 90
       50
176
     1
 90
        3
176
     1
 62
     5
420
      255
176
     1
290
     0
176
     1
 90
       50
176
     1
 90
       50
176
     1
 90
       50
176
     1
290
     0
176
     1
 90
       50
176
     1
 62
   256
176
     0
 40
1.0
176
     0
 90
        2
176
     1
  1
strokes_ogs.tif
176
     1
290
     0
176
     1
 40
1.0
176
     1
 40
1.0
176
     1
  0
VISUALSTYLE
  5
3F
102
{ACAD_REACTORS
330
29
102
}
330
29
100
AcDbVisualStyle
  2
JitterOff
 70
    20
177
     3
291
     1
 70
    58
 90
        2
176
     0
 90
        2
176
     0
 90
        0
176
     0
 90
        0
176
     0
 40
0.6
176
     0
 40
30.0
176
     0
 62
     7
420
 16777215
176
     0
 90
        1
176
     0
 90
        4
176
     0
 62
     7
176
     0
 62
   257
176
     0
 90
        1
176
     0
 90
        1
176
     0
 40
1.0
176
     0
 90
       10
176
     2
 62
     7
176
     0
 40
1.0
176
     0
 90
        1
176
     0
 90
        6
176
     0
 90
        2
176
     0
 62
     7
176
     0
 90
        5
176
     0
 90
        0
176
     0
 90
        0
176
     0
290
     0
176
     0
 90
        1
176
     0
 40
0.0
176
     0
 90
        0
176
     0
290
     0
176
     0
290
     1
176
     0
290
     1
176
     0
290
     0
176
     0
290
     0
176
     0
290
     0
176
     0
290
     0
176
     0
290
     0
176
     0
290
     0
176
     0
 90
       50
176
     0
 40
0.0
176
     0
 40
1.0
176
     0
 90
        0
176
     0
 62
    18
420
        0
176
     0
 90
       50
176
     0
 90
        3
176
     0
 62
     5
420
      255
176
     0
290
     0
176
     0
 90
       50
176
     0
 90
       50
176
     0
 90
       50
176
     0
290
     0
176
     0
 90
       50
176
     0
 62
   256
176
     0
 40
1.0
176
     0
 90
        2
176
     0
  1
strokes_ogs.tif
176
     0
290
     0
176
     0
 40
1.0
176
     0
 40
1.0
176
     0
  0
VISUALSTYLE
  5
37
102
{ACAD_REACTORS
330
29
102
}
330
29
100
AcDbVisualStyle
  2
Linepattern
 70
    14
177
     3
291
     1
 70
    58
 90
        2
176
     1
 90
        2
176
     1
 90
        0
176
     1
 90
        0
176
     1
 40
0.6
176
     1
 40
30.0
176
     1
 62
     7
420
 16777215
176
     1
 90
        1
176
     1
 90
        4
176
     1
 62
     7
176
     1
 62
   257
176
     1
 90
        7
176
     1
 90
        7
176
     1
 40
1.0
176
     1
 90
        8
176
     1
 62
     7
176
     1
 40
1.0
176
     1
 90
        1
176
     1
 90
        6
176
     1
 90
        2
176
     1
 62
     7
176
     1
 90
        5
176
     1
 90
        0
176
     1
 90
        0
176
     1
290
     0
176
     1
 90
        1
176
     1
 40
0.0
176
     1
 90
        0
176
     1
290
     0
176
     1
290
     1
176
     1
290
     1
176
     1
290
     0
176
     1
290
     0
176
     1
290
     0
176
     1
290
     0
176
     1
290
     0
176
     1
290
     0
176
     1
 90
       50
176
     1
 40
0.0
176
     1
 40
1.0
176
     1
 90
        0
176
     1
 62
    18
420
        0
176
     1
 90
       50
176
     1
 90
        3
176
     1
 62
     5
420
      255
176
     1
290
     0
176
     1
 90
       50
176
     1
 90
       50
176
     1
 90
       50
176
     1
290
     0
176
     1
 90
       50
176
     1
 62
   256
176
     0
 40
1.0
176
     0
 90
        2
176
     1
  1
strokes_ogs.tif
176
     1
290
     0
176
     1
 40
1.0
176
     1
 40
1.0
176
     1
  0
VISUALSTYLE
  5
40
102
{ACAD_REACTORS
330
29
102
}
330
29
100
AcDbVisualStyle
  2
OverhangOff
 70
    21
177
     3
291
     1
 70
    58
 90
        2
176
     0
 90
        2
176
     0
 90
        0
176
     0
 90
        0
176
     0
 40
0.6
176
     0
 40
30.0
176
     0
 62
     7
420
 16777215
176
     0
 90
        1
176
     0
 90
        4
176
     0
 62
     7
176
     0
 62
   257
176
     0
 90
        1
176
     0
 90
        1
176
     0
 40
1.0
176
     0
 90
        9
176
     2
 62
     7
176
     0
 40
1.0
176
     0
 90
        1
176
     0
 90
        6
176
     0
 90
        2
176
     0
 62
     7
176
     0
 90
        5
176
     0
 90
        0
176
     0
 90
        0
176
     0
290
     0
176
     0
 90
        1
176
     0
 40
0.0
176
     0
 90
        0
176
     0
290
     0
176
     0
290
     1
176
     0
290
     1
176
     0
290
     0
176
     0
290
     0
176
     0
290
     0
176
     0
290
     0
176
     0
290
     0
176
     0
290
     0
176
     0
 90
       50
176
     0
 40
0.0
176
     0
 40
1.0
176
     0
 90
        0
176
     0
 62
    18
420
        0
176
     0
 90
       50
176
     0
 90
        3
176
     0
 62
     5
420
      255
176
     0
290
     0
176
     0
 90
       50
176
     0
 90
       50
176
     0
 90
       50
176
     0
290
     0
176
     0
 90
       50
176
     0
 62
   256
176
     0
 40
1.0
176
     0
 90
        2
176
     0
  1
strokes_ogs.tif
176
     0
290
     0
176
     0
 40
1.0
176
     0
 40
1.0
176
     0
  0
VISUALSTYLE
  5
33
102
{ACAD_REACTORS
330
29
102
}
330
29
100
AcDbVisualStyle
  2
Realistic
 70
     8
177
     3
291
     0
 70
    58
 90
        2
176
     1
 90
        3
176
     1
 90
        0
176
     1
 90
        2
176
     1
 40
0.6
176
     1
 40
30.0
176
     1
 62
     7
420
 16777215
176
     1
 90
        0
176
     1
 90
        0
176
     1
 62
     7
176
     1
 62
   257
176
     1
 90
        1
176
     1
 90
        1
176
     1
 40
1.0
176
     1
 90
        8
176
     1
 62
   257
176
     1
 40
1.0
176
     1
 90
        1
176
     1
 90
        6
176
     1
 90
        2
176
     1
 62
     7
176
     1
 90
        3
176
     1
 90
        0
176
     1
 90
        0
176
     1
290
     0
176
     1
 90
       13
176
     1
 40
0.0
176
     1
 90
        0
176
     1
290
     0
176
     1
290
     1
176
     1
290
     1
176
     1
290
     0
176
     1
290
     0
176
     1
290
     0
176
     1
290
     0
176
     1
290
     0
176
     1
290
     0
176
     1
 90
       50
176
     1
 40
0.0
176
     1
 40
1.0
176
     1
 90
        0
176
     1
 62
    18
420
        0
176
     1
 90
       50
176
     1
 90
        3
176
     1
 62
     5
420
      255
176
     1
290
     0
176
     1
 90
       50
176
     1
 90
       50
176
     1
 90
       50
176
     1
290
     0
176
     1
 90
       50
176
     1
 62
   256
176
     0
 40
1.0
176
     0
 90
        2
176
     1
  1
strokes_ogs.tif
176
     1
290
     0
176
     1
 40
1.0
176
     1
 40
1.0
176
     1
  0
VISUALSTYLE
  5
3E
102
{ACAD_REACTORS
330
29
102
}
330
29
100
AcDbVisualStyle
  2
Shaded
 70
    27
177
     3
291
     0
 70
    58
 90
        2
176
     1
 90
        2
176
     1
 90
        1
176
     1
 90
        2
176
     1
 40
0.6
176
     1
 40
30.0
176
     1
 62
     7
420
 16777215
176
     1
 90
        0
176
     1
 90
        4
176
     1
 62
     7
176
     1
 62
   257
176
     1
 90
        1
176
     1
 90
        1
176
     1
 40
1.0
176
     1
 90
        8
176
     1
 62
   257
176
     1
 40
1.0
176
     1
 90
        1
176
     1
 90
        6
176
     1
 90
        2
176
     1
 62
     8
420
  7895160
176
     1
 90
        3
176
     1
 90
        0
176
     1
 90
        0
176
     1
290
     0
176
     1
 90
        5
176
     1
 40
0.0
176
     1
 90
        0
176
     1
290
     0
176
     1
290
     1
176
     1
290
     1
176
     1
290
     0
176
     1
290
     0
176
     1
290
     0
176
     1
290
     0
176
     1
290
     0
176
     1
290
     0
176
     1
 90
       50
176
     1
 40
0.0
176
     1
 40
1.0
176
     1
 90
        0
176
     1
 62
    18
420
        0
176
     1
 90
       50
176
     1
 90
        3
176
     1
 62
     5
420
      255
176
     1
290
     0
176
     1
 90
       50
176
     1
 90
       50
176
     1
 90
       50
176
     1
290
     0
176
     1
 90
       50
176
     1
 62
   256
176
     0
 40
1.0
176
     0
 90
        2
176
     1
  1
strokes_ogs.tif
176
     1
290
     0
176
     1
 40
1.0
176
     1
 40
1.0
176
     1
  0
VISUALSTYLE
  5
3D
102
{ACAD_REACTORS
330
29
102
}
330
29
100
AcDbVisualStyle
  2
Shaded with edges
 70
    26
177
     3
291
     0
 70
    58
 90
        2
176
     1
 90
        2
176
     1
 90
        1
176
     1
 90
        2
176
     1
 40
0.6
176
     1
 40
30.0
176
     1
 62
     7
420
 16777215
176
     1
 90
        1
176
     1
 90
        2
176
     1
 62
     7
176
     1
 62
   257
176
     1
 90
        2
176
     1
 90
        1
176
     1
 40
1.0
176
     1
 90
        8
176
     1
 62
   257
176
     1
 40
1.0
176
     1
 90
        1
176
     1
 90
        6
176
     1
 90
        2
176
     1
 62
     7
176
     1
 90
        3
176
     1
 90
        0
176
     1
 90
        0
176
     1
290
     0
176
     1
 90
        5
176
     1
 40
0.0
176
     1
 90
        0
176
     1
290
     0
176
     1
290
     1
176
     1
290
     1
176
     1
290
     0
176
     1
290
     0
176
     1
290
     0
176
     1
290
     0
176
     1
290
     0
176
     1
290
     0
176
     1
 90
       50
176
     1
 40
0.0
176
     1
 40
1.0
176
     1
 90
        0
176
     1
 62
    18
420
        0
176
     1
 90
       50
176
     1
 90
        3
176
     1
 62
     5
420
      255
176
     1
290
     0
176
     1
 90
       50
176
     1
 90
       50
176
     1
 90
       50
176
     1
290
     0
176
     1
 90
       50
176
     1
 62
   256
176
     0
 40
1.0
176
     0
 90
        2
176
     1
  1
strokes_ogs.tif
176
     1
290
     0
176
     1
 40
1.0
176
     1
 40
1.0
176
     1
  0
VISUALSTYLE
  5
3A
102
{ACAD_REACTORS
330
29
102
}
330
29
100
AcDbVisualStyle
  2
Shades of Gray
 70
    23
177
     3
291
     0
 70
    58
 90
        2
176
     1
 90
        2
176
     1
 90
        3
176
     1
 90
        0
176
     1
 40
0.6
176
     1
 40
30.0
176
     1
 62
     7
420
 16777215
176
     1
 90
        2
176
     1
 90
        2
176
     1
 62
     7
176
     1
 62
     7
176
     1
 90
        1
176
     1
 90
        1
176
     1
 40
40.0
176
     1
 90
        8
176
     1
 62
     7
176
     1
 40
1.0
176
     1
 90
        1
176
     1
 90
        6
176
     1
 90
        2
176
     1
 62
     7
176
     1
 90
        3
176
     1
 90
        0
176
     1
 90
        0
176
     1
290
     0
176
     1
 90
        1
176
     1
 40
0.0
176
     1
 90
        0
176
     1
290
     0
176
     1
290
     1
176
     1
290
     1
176
     1
290
     0
176
     1
290
     0
176
     1
290
     0
176
     1
290
     0
176
     1
290
     0
176
     1
290
     0
176
     1
 90
       50
176
     1
 40
0.0
176
     1
 40
1.0
176
     1
 90
        0
176
     1
 62
    18
420
        0
176
     1
 90
       50
176
     1
 90
        3
176
     1
 62
     5
420
      255
176
     1
290
     0
176
     1
 90
       50
176
     1
 90
       50
176
     1
 90
       50
176
     1
290
     0
176
     1
 90
       50
176
     1
 62
   256
176
     0
 40
1.0
176
     0
 90
        2
176
     1
  1
strokes_ogs.tif
176
     1
290
     0
176
     1
 40
1.0
176
     1
 40
1.0
176
     1
  0
VISUALSTYLE
  5
3B
102
{ACAD_REACTORS
330
29
102
}
330
29
100
AcDbVisualStyle
  2
Sketchy
 70
    24
177
     3
291
     0
 70
    58
 90
        1
176
     1
 90
        2
176
     1
 90
        2
176
     1
 90
        0
176
     1
 40
0.6
176
     1
 40
30.0
176
     1
 62
     7
420
 16777215
176
     1
 90
        2
176
     1
 90
        2
176
     1
 62
     7
176
     1
 62
     7
176
     1
 90
        1
176
     1
 90
        1
176
     1
 40
40.0
176
     1
 90
       11
176
     1
 62
     7
176
     1
 40
1.0
176
     1
 90
        1
176
     1
 90
        6
176
     1
 90
        2
176
     1
 62
     7
176
     1
 90
        6
176
     1
 90
        0
176
     1
 90
        0
176
     1
290
     0
176
     1
 90
        1
176
     1
 40
0.0
176
     1
 90
        0
176
     1
290
     0
176
     1
290
     1
176
     1
290
     1
176
     1
290
     0
176
     1
290
     0
176
     1
290
     0
176
     1
290
     0
176
     1
290
     0
176
     1
290
     0
176
     1
 90
       50
176
     1
 40
0.0
176
     1
 40
1.0
176
     1
 90
        0
176
     1
 62
    18
420
        0
176
     1
 90
       50
176
     1
 90
        3
176
     1
 62
     5
420
      255
176
     1
290
     0
176
     1
 90
       50
176
     1
 90
       50
176
     1
 90
       50
176
     1
290
     0
176
     1
 90
       50
176
     1
 62
   256
176
     0
 40
1.0
176
     0
 90
        2
176
     1
  1
strokes_ogs.tif
176
     1
290
     0
176
     1
 40
1.0
176
     1
 40
1.0
176
     1
  0
VISUALSTYLE
  5
36
102
{ACAD_REACTORS
330
29
102
}
330
29
100
AcDbVisualStyle
  2
Thicken
 70
    13
177
     3
291
     1
 70
    58
 90
        2
176
     1
 90
        2
176
     1
 90
        0
176
     1
 90
        0
176
     1
 40
0.6
176
     1
 40
30.0
176
     1
 62
     7
420
 16777215
176
     1
 90
        1
176
     1
 90
        4
176
     1
 62
     7
176
     1
 62
   257
176
     1
 90
        1
176
     1
 90
        1
176
     1
 40
1.0
176
     1
 90
       12
176
     1
 62
     7
176
     1
 40
1.0
176
     1
 90
        1
176
     1
 90
        6
176
     1
 90
        2
176
     1
 62
     7
176
     1
 90
        5
176
     1
 90
        0
176
     1
 90
        0
176
     1
290
     0
176
     1
 90
        1
176
     1
 40
0.0
176
     1
 90
        0
176
     1
290
     0
176
     1
290
     1
176
     1
290
     1
176
     1
290
     0
176
     1
290
     0
176
     1
290
     0
176
     1
290
     0
176
     1
290
     0
176
     1
290
     0
176
     1
 90
       50
176
     1
 40
0.0
176
     1
 40
1.0
176
     1
 90
        0
176
     1
 62
    18
420
        0
176
     1
 90
       50
176
     1
 90
        3
176
     1
 62
     5
420
      255
176
     1
290
     0
176
     1
 90
       50
176
     1
 90
       50
176
     1
 90
       50
176
     1
290
     0
176
     1
 90
       50
176
     1
 62
   256
176
     0
 40
1.0
176
     0
 90
        2
176
     1
  1
strokes_ogs.tif
176
     1
290
     0
176
     1
 40
1.0
176
     1
 40
1.0
176
     1
  0
VISUALSTYLE
  5
30
102
{ACAD_REACTORS
330
29
102
}
330
29
100
AcDbVisualStyle
  2
Wireframe
 70
     5
177
     3
291
     0
 70
    58
 90
        0
176
     1
 90
        2
176
     1
 90
        0
176
     1
 90
        0
176
     1
 40
0.6
176
     1
 40
30.0
176
     1
 62
     7
420
 16777215
176
     1
 90
        1
176
     1
 90
        4
176
     1
 62
     7
176
     1
 62
   257
176
     1
 90
        1
176
     1
 90
        1
176
     1
 40
1.0
176
     1
 90
        0
176
     1
 62
   257
176
     1
 40
1.0
176
     1
 90
        1
176
     1
 90
        6
176
     1
 90
        2
176
     1
 62
     7
176
     1
 90
        3
176
     1
 90
        0
176
     1
 90
        0
176
     1
290
     0
176
     1
 90
        1
176
     1
 40
0.0
176
     1
 90
        0
176
     1
290
     0
176
     1
290
     1
176
     1
290
     1
176
     1
290
     0
176
     1
290
     0
176
     1
290
     0
176
     1
290
     0
176
     1
290
     0
176
     1
290
     0
176
     1
 90
       50
176
     1
 40
0.0
176
     1
 40
1.0
176
     1
 90
        0
176
     1
 62
    18
420
        0
176
     1
 90
       50
176
     1
 90
        3
176
     1
 62
     5
420
      255
176
     1
290
     0
176
     1
 90
       50
176
     1
 90
       50
176
     1
 90
       50
176
     1
290
     0
176
     1
 90
       50
176
     1
 62
   256
176
     0
 40
1.0
176
     0
 90
        2
176
     1
  1
strokes_ogs.tif
176
     1
290
     0
176
     1
 40
1.0
176
     1
 40
1.0
176
     1
  0
VISUALSTYLE
  5
3C
102
{ACAD_REACTORS
330
29
102
}
330
29
100
AcDbVisualStyle
  2
X-Ray
 70
    25
177
     3
291
     0
 70
    58
 90
        2
176
     1
 90
        2
176
     1
 90
        1
176
     1
 90
        1
176
     1
 40
0.5
176
     1
 40
30.0
176
     1
 62
     7
420
 16777215
176
     1
 90
        1
176
     1
 90
        0
176
     1
 62
     7
176
     1
 62
   257
176
     1
 90
        1
176
     1
 90
        1
176
     1
 40
1.0
176
     1
 90
        8
176
     1
 62
     7
176
     1
 40
1.0
176
     1
 90
        1
176
     1
 90
        6
176
     1
 90
        2
176
     1
 62
     7
176
     1
 90
        3
176
     1
 90
        0
176
     1
 90
        0
176
     1
290
     0
176
     1
 90
       13
176
     1
 40
0.0
176
     1
 90
        0
176
     1
290
     0
176
     1
290
     1
176
     1
290
     1
176
     1
290
     0
176
     1
290
     0
176
     1
290
     0
176
     1
290
     0
176
     1
290
     0
176
     1
290
     0
176
     1
 90
       50
176
     1
 40
0.0
176
     1
 40
1.0
176
     1
 90
        0
176
     1
 62
    18
420
        0
176
     1
 90
       50
176
     1
 90
        3
176
     1
 62
     5
420
      255
176
     1
290
     0
176
     1
 90
       50
176
     1
 90
       50
176
     1
 90
       50
176
     1
290
     0
176
     1
 90
       50
176
     1
 62
   256
176
     0
 40
1.0
176
     0
 90
        2
176
     1
  1
strokes_ogs.tif
176
     1
290
     0
176
     1
 40
1.0
176
     1
 40
1.0
176
     1
  0
DICTIONARYVAR
  5
D4
102
{ACAD_REACTORS
330
CF
102
}
330
CF
100
DictionaryVariables
280
     0
  1
1:1
  0
DICTIONARYVAR
  5
D1
102
{ACAD_REACTORS
330
CF
102
}
330
CF
100
DictionaryVariables
280
     0
  1
STANDARD
  0
DICTIONARYVAR
  5
D0
102
{ACAD_REACTORS
330
CF
102
}
330
CF
100
DictionaryVariables
280
     0
  1
STANDARD
  0
DICTIONARYVAR
  5
D2
102
{ACAD_REACTORS
330
CF
102
}
330
CF
100
DictionaryVariables
280
     0
  1
Imperial24
  0
DICTIONARYVAR
  5
D3
102
{ACAD_REACTORS
330
CF
102
}
330
CF
100
DictionaryVariables
280
     0
  1
Imperial24
  0
DICTIONARY
  5
1A
330
19
100
AcDbDictionary
280
     1
281
     1
  3
BUMPTILE
360
1C
  3
DIFFUSETILE
360
1B
  3
OPACITYTILE
360
1F
  3
REFLECTIONTILE
360
1E
  3
REFRACTIONTILE
360
20
  3
SPECULARTILE
360
1D
  0
DICTIONARY
  5
12
330
11
100
AcDbDictionary
280
     1
281
     1
  3
BUMPTILE
360
14
  3
DIFFUSETILE
360
13
  3
OPACITYTILE
360
17
  3
REFLECTIONTILE
360
16
  3
REFRACTIONTILE
360
18
  3
SPECULARTILE
360
15
  0
DICTIONARY
  5
22
330
21
100
AcDbDictionary
280
     1
281
     1
  3
BUMPTILE
360
24
  3
DIFFUSETILE
360
23
  3
OPACITYTILE
360
27
  3
REFLECTIONTILE
360
26
  3
REFRACTIONTILE
360
28
  3
SPECULARTILE
360
25
  0
DICTIONARY
  5
D5
330
65
100
AcDbDictionary
280
     1
281
     1
  3
ACAD_ROUNDTRIP_2008_TABLESTYLE_CELLSTYLEMAP
360
D6
  0
XRECORD
  5
1C
102
{ACAD_REACTORS
330
1A
102
}
330
1A
100
AcDbXrecord
280
     1
270
     1
271
     1
  0
XRECORD
  5
1B
102
{ACAD_REACTORS
330
1A
102
}
330
1A
100
AcDbXrecord
280
     1
270
     1
271
     1
  0
XRECORD
  5
1F
102
{ACAD_REACTORS
330
1A
102
}
330
1A
100
AcDbXrecord
280
     1
270
     1
271
     1
  0
XRECORD
  5
1E
102
{ACAD_REACTORS
330
1A
102
}
330
1A
100
AcDbXrecord
280
     1
270
     1
271
     1
  0
XRECORD
  5
20
102
{ACAD_REACTORS
330
1A
102
}
330
1A
100
AcDbXrecord
280
     1
270
     1
271
     1
  0
XRECORD
  5
1D
102
{ACAD_REACTORS
330
1A
102
}
330
1A
100
AcDbXrecord
280
     1
270
     1
271
     1
  0
XRECORD
  5
14
102
{ACAD_REACTORS
330
12
102
}
330
12
100
AcDbXrecord
280
     1
270
     1
271
     1
  0
XRECORD
  5
13
102
{ACAD_REACTORS
330
12
102
}
330
12
100
AcDbXrecord
280
     1
270
     1
271
     1
  0
XRECORD
  5
17
102
{ACAD_REACTORS
330
12
102
}
330
12
100
AcDbXrecord
280
     1
270
     1
271
     1
  0
XRECORD
  5
16
102
{ACAD_REACTORS
330
12
102
}
330
12
100
AcDbXrecord
280
     1
270
     1
271
     1
  0
XRECORD
  5
18
102
{ACAD_REACTORS
330
12
102
}
330
12
100
AcDbXrecord
280
     1
270
     1
271
     1
  0
XRECORD
  5
15
102
{ACAD_REACTORS
330
12
102
}
330
12
100
AcDbXrecord
280
     1
270
     1
271
     1
  0
XRECORD
  5
24
102
{ACAD_REACTORS
330
22
102
}
330
22
100
AcDbXrecord
280
     1
270
     1
271
     1
  0
XRECORD
  5
23
102
{ACAD_REACTORS
330
22
102
}
330
22
100
AcDbXrecord
280
     1
270
     1
271
     1
  0
XRECORD
  5
27
102
{ACAD_REACTORS
330
22
102
}
330
22
100
AcDbXrecord
280
     1
270
     1
271
     1
  0
XRECORD
  5
26
102
{ACAD_REACTORS
330
22
102
}
330
22
100
AcDbXrecord
280
     1
270
     1
271
     1
  0
XRECORD
  5
28
102
{ACAD_REACTORS
330
22
102
}
330
22
100
AcDbXrecord
280
     1
270
     1
271
     1
  0
XRECORD
  5
25
102
{ACAD_REACTORS
330
22
102
}
330
22
100
AcDbXrecord
280
     1
270
     1
271
     1
  0
CELLSTYLEMAP
  5
D6
102
{ACAD_REACTORS
330
D5
102
}
330
D5
100
AcDbCellStyleMap
 90
        3
300
CELLSTYLE
  1
TABLEFORMAT_BEGIN
 90
        5
170
     1
 91
        0
 92
    32768
 62
   257
 93
        1
300
CONTENTFORMAT
  1
CONTENTFORMAT_BEGIN
 90
        0
 91
        0
 92
      512
 93
        0
300

 40
0.0
140
1.0
 94
        5
 62
     0
340
55
144
0.25
309
CONTENTFORMAT_END
171
     0
 94
        0
309
TABLEFORMAT_END
  1
CELLSTYLE_BEGIN
 90
        1
 91
        1
300
_TITLE
309
CELLSTYLE_END
300
CELLSTYLE
  1
TABLEFORMAT_BEGIN
 90
        5
170
     1
 91
        0
 92
        0
 62
   257
 93
        1
300
CONTENTFORMAT
  1
CONTENTFORMAT_BEGIN
 90
        0
 91
        0
 92
      512
 93
        0
300

 40
0.0
140
1.0
 94
        5
 62
     0
340
55
144
0.18
309
CONTENTFORMAT_END
171
     0
 94
        0
309
TABLEFORMAT_END
  1
CELLSTYLE_BEGIN
 90
        2
 91
        1
300
_HEADER
309
CELLSTYLE_END
300
CELLSTYLE
  1
TABLEFORMAT_BEGIN
 90
        5
170
     1
 91
        0
 92
        0
 62
   257
 93
        1
300
CONTENTFORMAT
  1
CONTENTFORMAT_BEGIN
 90
        0
 91
        0
 92
      512
 93
        0
300

 40
0.0
140
1.0
 94
        2
 62
     0
340
55
144
0.18
309
CONTENTFORMAT_END
171
     0
 94
        0
309
TABLEFORMAT_END
  1
CELLSTYLE_BEGIN
 90
        3
 91
        2
300
_DATA
309
CELLSTYLE_END
  0
ENDSEC
  0
EOF
