<svg id="cut" xmlns="http://www.w3.org/2000/svg" viewBox="0 0 703.34 278.5986"><defs><style>.cls-1{fill:none;stroke:#000;stroke-miterlimit:10;stroke-width:0.7087px;}</style></defs><title>reviung39-upper-middle-plate</title><path class="cls-1" d="M702.9493,170.0481,675.5165,14.4572a2.8425,2.8425,0,0,0-2.8156-2.3546l-189.6343-.0011-.0023.0017L417.15.4813l4.7268,8.1448-3.7642,6.52h-7.5283L406.1825,7.56l-7.91,44.4851-5.7682,1.0171-47.3709-8.3616,2.2489,6.1788-4.8391,5.767-7.414-1.3073-2.5748-7.0742,4.2277-5.0385-23.6011-4.1659,2.3223,6.3806-4.8391,5.767L303.25,49.901l-2.5748-7.0743,4.3656-5.2028-6.8142-1.2028-2.7723-6.22L192.84,12.1071l-.0272-.0068-162.2037,0a2.8268,2.8268,0,0,0-2.7978,2.4292L.3924,170.03s-.0381.3219-.0381.4827a2.83,2.83,0,0,0,2.3541,2.7862l.0022.0031,192.9337,34.0226,27.7594,60.2227a2.811,2.811,0,0,0,2.0328,1.5687l51.7546,9.1281,148.9547,0,51.7157-9.12a2.8394,2.8394,0,0,0,2.1121-1.67l27.7207-60.1323,192.9344-34.02a2.8292,2.8292,0,0,0,2.357-2.7947C702.9857,170.3547,702.9493,170.0481,702.9493,170.0481Zm-17.1121-55.7295-38.803,6.8419-7.088-40.1987,38.8029-6.842ZM614.47,20.546l5.6826,32.2278a1.4173,1.4173,0,0,0,1.6419,1.15l11.5845-2.0426a1.4174,1.4174,0,0,0,1.15-1.6419l-3.9617-22.472,38.803-6.8419,7.0881,40.1988-51.3434,9.0466a2.1268,2.1268,0,0,1-2.4637-1.726L621.3041,60.79l-38.5488,6.7972L575.6672,27.388Zm-54.9-.3789,7.0881,40.1987-38.803,6.842L520.7672,27.009Zm-54.9-.379,7.0881,40.1988-38.803,6.8419L465.8672,26.63Zm-35.0225,112.53-38.803,6.8419-7.0881-40.1987L462.56,92.12Zm-87.9306,38.951,38.803-6.842,7.088,40.1988-38.8029,6.842Zm36.4884-19.8142-38.8029,6.8419-7.0881-40.1987,38.803-6.842Zm6.5417-135.52,1.2306-6.979a2.126,2.126,0,0,1,2.4629-1.7245l19.85,3.4927a2.1259,2.1259,0,0,1,1.7245,2.4628l-1.2306,6.979a2.126,2.126,0,0,1-2.4629,1.7245l-19.85-3.4927A2.126,2.126,0,0,1,424.7472,15.9355ZM401.7386,58.0616l4.0628,22.9661a1.4173,1.4173,0,0,0,1.6418,1.1489l11.556-2.0376a1.4173,1.4173,0,0,0,1.15-1.6419l-5.7711-32.73,38.803-6.8419,7.088,40.1988-38.6511,6.8151,1.361,7.6341a2.1266,2.1266,0,0,1-1.7251,2.4636l-51.23,9.0659-7.0881-40.1988ZM343.18,158.14a2.3686,2.3686,0,0,1,2.552-2.1266h11.9039a2.3686,2.3686,0,0,1,2.552,2.1267v9.92a2.3686,2.3686,0,0,1-2.552,2.1266H345.7317a2.3686,2.3686,0,0,1-2.552-2.1266Zm15.2268,49.1933a6.8032,6.8032,0,1,1-6.8032-6.8032A6.8032,6.8032,0,0,1,358.4065,207.3334ZM250.3791,38.9167l38.8029,6.8421-5.7738,32.7448a1.4173,1.4173,0,0,0,1.15,1.6419l11.5627,2.0388a1.4172,1.4172,0,0,0,1.6419-1.15l4.0508-22.9732,38.803,6.8421-7.0882,40.1988-51.2591-9.1465a2.1266,2.1266,0,0,1-1.7251-2.4636l1.3605-7.5681-38.6134-6.8087Zm73.77,119.38-38.803-6.8421,7.0882-40.1988,38.803,6.8421Zm-9.379,53.1473-38.803-6.842,7.0882-40.1988,38.803,6.8421ZM241,92.0957l38.803,6.842-7.0882,40.1988-38.8029-6.842.1217-.69-.018-.0032,6.842-38.803.018.0032ZM198.9054,19.7483,237.7083,26.59,230.62,66.7891l-38.803-6.842Zm-61.8719,39.919,6.842-38.8029.0206.0036.1251-.7092,38.8029,6.842L175.736,67.2l-38.803-6.8421.121-.6865ZM34.2212,20.9481,73.0241,27.79,69.0575,50.2858a1.4175,1.4175,0,0,0,1.15,1.642l11.5645,2.0391a1.4172,1.4172,0,0,0,1.6419-1.15l2.8506-16.1667L88.9715,21.256l.007.0012.1269-.7195,38.803,6.842L120.82,67.5785,82.2184,60.7719l-1.2969,7.6924a2.1268,2.1268,0,0,1-2.4637,1.7251L27.133,61.1469Zm-9.379,53.179,38.8029,6.842L56.557,121.1679l-38.803-6.8421Zm77.22,99.8093L63.6716,167.167,62.11,175.7865a2.1268,2.1268,0,0,1-2.4637,1.7251l-10.8648-1.9158a2.1182,2.1182,0,0,1-1.5962-1.2913l-38.81-6.8,7.0881-40.1988,38.803,6.842-4.1849,23.7335a1.4173,1.4173,0,0,0,1.15,1.6419l11.5616,2.0387a1.4174,1.4174,0,0,0,1.6419-1.15l5.913-33.517,38.8029,6.8421ZM72.6382,113.947l7.0882-40.1988,38.8029,6.842-7.0881,40.1988Zm84.34,59.61-38.8029-6.842,7.0882-40.1988,38.803,6.8421Zm16.0813-7.2209.1243-.7049-.0085-.0016,6.842-38.8029.0086.0015.1218-.6909L218.95,132.98l-7.0882,40.1987Zm42.88,47.8a6.8032,6.8032,0,1,1,6.8031-6.8031A6.8032,6.8032,0,0,1,215.94,214.1364Zm5.3017-94.1684-38.722-6.8278-1.3638,7.7133a2.1294,2.1294,0,0,1-2.4668,1.7272l-51.1346-9.0443,7.0881-40.1987,38.803,6.8421-4.0113,22.7493a1.4172,1.4172,0,0,0,1.15,1.6419l11.5578,2.038a1.4173,1.4173,0,0,0,1.6419-1.1494l5.7433-32.5324,38.8029,6.8421Zm3.2916,65.5054.1217-.69-.016-.0028,6.8421-38.803.016.0029.1244-.706,38.803,6.8421-7.0882,40.1987Zm46.6187,85.0157-38.8029-6.842,7.0881-40.1988L278.24,230.29Zm126.719,2.567-8.6621.0029a4.2158,4.2158,0,0,1-7.4559,0l-6.0714-.0029v-1.3685H327.6729V273.06l-6.1448-.0008a4.2159,4.2159,0,0,1-7.4552,0l-8.5637.0008.0072-51.7328,92.3528-.0107Zm34.3241-2.5984-7.0881-40.1988,38.803-6.8419,7.0881,40.1987Zm8.029-78.15-7.0881-40.1988,38.803-6.8419,7.0881,40.1988Zm47.1121,21.8289a6.8032,6.8032,0,1,1,6.8032-6.8031A6.8031,6.8031,0,0,1,487.3357,214.1366Zm4.3774-40.9657-7.0881-40.1988,38.803-6.8419,7.0881,40.1988Zm33.116-50.5987a2.1291,2.1291,0,0,1-2.4666-1.7272l-1.3512-7.6412-38.6771,6.82-7.0881-40.1987,38.803-6.842,5.7264,32.47a1.4174,1.4174,0,0,0,1.6419,1.15l11.5841-2.0426a1.4174,1.4174,0,0,0,1.15-1.6419l-4.0051-22.7142,38.803-6.8419,7.0881,40.1988Zm21.784,50.9777-7.0881-40.1988,38.803-6.8419,7.0881,40.1987Zm38.433-92.9671,38.803-6.842.123.6976.0016,0,6.8419,38.803-.0015,0,.1231.6982-38.803,6.8421Zm71.39,93.7694a1.95,1.95,0,0,1-1.7248,1.2364l-10.8648,1.9158a2.1266,2.1266,0,0,1-2.4636-1.7251l-1.47-8.5739-38.4,6.7709-7.0881-40.1988,38.803-6.842,5.9,33.4575a1.4173,1.4173,0,0,0,1.6419,1.15L652.3546,159.5a1.4174,1.4174,0,0,0,1.15-1.6419l-4.1792-23.7016,38.803-6.842,7.0881,40.1988Z"/></svg>