G04 #@! TF.GenerationSoftware,KiCad,Pcbnew,(5.1.6-0-10_14)*
G04 #@! TF.CreationDate,2020-08-27T09:33:25+09:00*
G04 #@! TF.ProjectId,pcb-top-plate,7063622d-746f-4702-9d70-6c6174652e6b,2.0*
G04 #@! TF.SameCoordinates,Original*
G04 #@! TF.FileFunction,Legend,Bot*
G04 #@! TF.FilePolarity,Positive*
%FSLAX46Y46*%
G04 Gerber Fmt 4.6, Leading zero omitted, Abs format (unit mm)*
G04 Created by KiCad (PCBNEW (5.1.6-0-10_14)) date 2020-08-27 09:33:25*
%MOMM*%
%LPD*%
G01*
G04 APERTURE LIST*
%ADD10C,0.150000*%
G04 APERTURE END LIST*
D10*
X118301305Y-123394722D02*
X118657483Y-123095768D01*
X118742871Y-123513039D02*
X118949926Y-122740298D01*
X118655549Y-122661420D01*
X118572095Y-122678498D01*
X118525438Y-122705435D01*
X118468921Y-122769170D01*
X118439342Y-122879561D01*
X118456419Y-122963015D01*
X118483357Y-123009672D01*
X118547091Y-123066189D01*
X118841469Y-123145067D01*
X118078588Y-122901215D02*
X117821008Y-122832196D01*
X117602159Y-123207386D02*
X117970130Y-123305984D01*
X118177186Y-122533243D01*
X117809214Y-122434645D01*
X117588431Y-122375487D02*
X117123795Y-123079209D01*
X117073270Y-122237450D01*
X116608635Y-122941172D02*
X116815690Y-122168431D01*
X116447718Y-122069834D02*
X116280102Y-122695386D01*
X116223586Y-122759120D01*
X116176929Y-122786058D01*
X116093474Y-122803135D01*
X115946286Y-122763696D01*
X115882551Y-122707179D01*
X115855614Y-122660523D01*
X115838536Y-122577068D01*
X116006152Y-121951516D01*
X115431125Y-122625659D02*
X115638181Y-121852919D01*
X114989559Y-122507342D01*
X115196614Y-121734601D01*
X114414014Y-121564343D02*
X114497468Y-121547266D01*
X114607860Y-121576845D01*
X114708391Y-121643222D01*
X114762266Y-121736535D01*
X114779344Y-121819990D01*
X114776702Y-121977038D01*
X114747123Y-122087430D01*
X114670886Y-122224758D01*
X114614370Y-122288493D01*
X114521056Y-122342368D01*
X114400804Y-122349586D01*
X114327210Y-122329866D01*
X114226678Y-122263490D01*
X114199741Y-122216833D01*
X114268759Y-121959252D01*
X114415948Y-121998692D01*
X114129496Y-121448668D02*
X113651133Y-121320491D01*
X113829835Y-121683887D01*
X113719444Y-121654307D01*
X113635990Y-121671385D01*
X113589333Y-121698322D01*
X113532816Y-121762057D01*
X113483517Y-121946043D01*
X113500595Y-122029497D01*
X113527532Y-122076154D01*
X113591267Y-122132671D01*
X113812050Y-122191829D01*
X113895504Y-122174752D01*
X113942161Y-122147814D01*
X113076106Y-121994634D02*
X112928917Y-121955195D01*
X112865183Y-121898678D01*
X112838245Y-121852021D01*
X112794230Y-121721910D01*
X112796872Y-121564862D01*
X112875751Y-121270484D01*
X112932267Y-121206750D01*
X112978924Y-121179812D01*
X113062378Y-121162735D01*
X113209567Y-121202174D01*
X113273302Y-121258690D01*
X113300239Y-121305347D01*
X113317317Y-121388801D01*
X113268018Y-121572787D01*
X113211501Y-121636522D01*
X113164844Y-121663459D01*
X113081390Y-121680537D01*
X112934201Y-121641098D01*
X112870467Y-121584581D01*
X112843529Y-121537924D01*
X112826452Y-121454470D01*
X111788205Y-121649542D02*
X111926242Y-121134381D01*
X111886803Y-121281570D02*
X111869725Y-121198116D01*
X111842788Y-121151459D01*
X111779053Y-121094942D01*
X111705459Y-121075223D01*
X111025324Y-121405689D02*
X111089059Y-121462206D01*
X111236247Y-121501645D01*
X111319702Y-121484568D01*
X111376218Y-121420833D01*
X111455096Y-121126456D01*
X111438019Y-121043001D01*
X111374284Y-120986485D01*
X111227096Y-120947046D01*
X111143641Y-120964123D01*
X111087125Y-121027858D01*
X111067405Y-121101452D01*
X111415657Y-121273644D01*
X110859124Y-120848448D02*
X110537101Y-121314310D01*
X110491152Y-120749850D01*
X110282871Y-120496846D02*
X110255933Y-120450189D01*
X110192199Y-120393672D01*
X110008213Y-120344373D01*
X109924759Y-120361451D01*
X109878102Y-120388388D01*
X109821585Y-120452123D01*
X109801866Y-120525717D01*
X109809083Y-120645969D01*
X110132332Y-121205852D01*
X109653969Y-121077675D01*
X109342514Y-120915343D02*
X109295857Y-120942280D01*
X109322794Y-120988937D01*
X109369451Y-120962000D01*
X109342514Y-120915343D01*
X109322794Y-120988937D01*
X109014689Y-120078160D02*
X108941095Y-120058440D01*
X108857641Y-120075518D01*
X108810984Y-120102455D01*
X108754467Y-120166190D01*
X108678231Y-120303519D01*
X108628932Y-120487504D01*
X108626290Y-120644553D01*
X108643368Y-120728007D01*
X108670305Y-120774664D01*
X108734040Y-120831181D01*
X108807634Y-120850900D01*
X108891088Y-120833823D01*
X108937745Y-120806885D01*
X108994262Y-120743151D01*
X109070498Y-120605822D01*
X109119797Y-120421836D01*
X109122439Y-120264787D01*
X109105361Y-120181333D01*
X109078424Y-120134676D01*
X109014689Y-120078160D01*
X107422551Y-119690986D02*
X107506005Y-119673909D01*
X107616397Y-119703488D01*
X107716928Y-119769865D01*
X107770803Y-119863179D01*
X107787881Y-119946633D01*
X107785239Y-120103681D01*
X107755659Y-120214073D01*
X107679423Y-120351402D01*
X107622907Y-120415136D01*
X107529593Y-120469011D01*
X107409341Y-120476229D01*
X107335747Y-120456509D01*
X107235215Y-120390133D01*
X107208278Y-120343476D01*
X107277296Y-120085896D01*
X107424485Y-120125335D01*
X106857384Y-120328332D02*
X107064439Y-119555592D01*
X106965841Y-119923563D02*
X106524275Y-119805246D01*
X106415818Y-120210015D02*
X106622873Y-119437274D01*
X118393465Y-124817039D02*
X118600520Y-124044298D01*
X118416534Y-123994999D01*
X118296283Y-124002217D01*
X118202969Y-124056092D01*
X118146452Y-124119827D01*
X118070216Y-124257156D01*
X118040637Y-124367547D01*
X118037995Y-124524596D01*
X118055073Y-124608050D01*
X118108947Y-124701364D01*
X118209479Y-124767740D01*
X118393465Y-124817039D01*
X117336207Y-124494308D02*
X117399941Y-124550825D01*
X117547130Y-124590264D01*
X117630584Y-124573187D01*
X117687101Y-124509452D01*
X117765979Y-124215075D01*
X117748901Y-124131620D01*
X117685167Y-124075104D01*
X117537978Y-124035665D01*
X117454524Y-124052742D01*
X117398007Y-124116477D01*
X117378288Y-124190071D01*
X117726540Y-124362263D01*
X117005032Y-124405570D02*
X116921578Y-124422648D01*
X116774389Y-124383209D01*
X116710655Y-124326692D01*
X116693577Y-124243238D01*
X116703437Y-124206441D01*
X116759954Y-124142706D01*
X116843408Y-124125629D01*
X116953799Y-124155208D01*
X117037253Y-124138130D01*
X117093770Y-124074396D01*
X117103630Y-124037599D01*
X117086552Y-123954145D01*
X117022818Y-123897628D01*
X116912426Y-123868048D01*
X116828972Y-123885126D01*
X116332823Y-124264892D02*
X116470860Y-123749731D01*
X116539878Y-123492151D02*
X116566816Y-123538808D01*
X116520159Y-123565745D01*
X116493222Y-123519088D01*
X116539878Y-123492151D01*
X116520159Y-123565745D01*
X115771714Y-123562396D02*
X115604098Y-124187947D01*
X115621175Y-124271402D01*
X115648113Y-124318059D01*
X115711847Y-124374575D01*
X115822239Y-124404155D01*
X115905693Y-124387077D01*
X115643537Y-124040759D02*
X115707271Y-124097275D01*
X115854460Y-124136715D01*
X115937914Y-124119637D01*
X115984571Y-124092700D01*
X116041088Y-124028965D01*
X116100246Y-123808182D01*
X116083169Y-123724728D01*
X116056231Y-123678071D01*
X115992497Y-123621554D01*
X115845308Y-123582115D01*
X115761854Y-123599193D01*
X115403742Y-123463798D02*
X115265705Y-123978958D01*
X115384022Y-123537392D02*
X115357085Y-123490735D01*
X115293350Y-123434218D01*
X115182959Y-123404639D01*
X115099505Y-123421717D01*
X115042988Y-123485451D01*
X114934531Y-123890220D01*
X114282041Y-123675947D02*
X114345776Y-123732464D01*
X114492965Y-123771903D01*
X114576419Y-123754825D01*
X114632935Y-123691091D01*
X114711814Y-123396713D01*
X114694736Y-123313259D01*
X114631001Y-123256743D01*
X114483813Y-123217303D01*
X114400359Y-123234381D01*
X114343842Y-123298116D01*
X114324122Y-123371710D01*
X114672374Y-123543902D01*
X113573035Y-123525409D02*
X113780090Y-122752668D01*
X113582895Y-123488611D02*
X113646630Y-123545128D01*
X113793818Y-123584567D01*
X113877272Y-123567490D01*
X113923929Y-123540552D01*
X113980446Y-123476818D01*
X114039605Y-123256035D01*
X114022527Y-123172581D01*
X113995590Y-123125924D01*
X113931855Y-123069407D01*
X113784666Y-123029968D01*
X113701212Y-123047045D01*
X112616309Y-123269055D02*
X112823364Y-122496314D01*
X112744486Y-122790691D02*
X112680751Y-122734175D01*
X112533562Y-122694735D01*
X112450108Y-122711813D01*
X112403451Y-122738750D01*
X112346935Y-122802485D01*
X112287776Y-123023268D01*
X112304854Y-123106722D01*
X112331791Y-123153379D01*
X112395526Y-123209896D01*
X112542714Y-123249335D01*
X112626168Y-123232257D01*
X112128794Y-122586278D02*
X111806771Y-123052140D01*
X111760822Y-122487680D02*
X111806771Y-123052140D01*
X111831066Y-123255845D01*
X111858004Y-123302502D01*
X111921738Y-123359019D01*
X110546515Y-122162308D02*
X110378899Y-122787860D01*
X110395976Y-122871314D01*
X110422914Y-122917971D01*
X110486648Y-122974487D01*
X110597040Y-123004067D01*
X110680494Y-122986989D01*
X110418338Y-122640671D02*
X110482073Y-122697188D01*
X110629261Y-122736627D01*
X110712715Y-122719549D01*
X110759372Y-122692612D01*
X110815889Y-122628877D01*
X110875048Y-122408094D01*
X110857970Y-122324640D01*
X110831033Y-122277983D01*
X110767298Y-122221466D01*
X110620109Y-122182027D01*
X110536655Y-122199105D01*
X110288935Y-122093289D02*
X109994557Y-122014411D01*
X110247562Y-121806130D02*
X110070086Y-122468479D01*
X110013569Y-122532213D01*
X109930115Y-122549291D01*
X109856521Y-122529572D01*
X109598940Y-122460553D02*
X109736977Y-121945393D01*
X109805996Y-121687812D02*
X109832933Y-121734469D01*
X109786276Y-121761407D01*
X109759339Y-121714750D01*
X109805996Y-121687812D01*
X109786276Y-121761407D01*
X109369005Y-121846795D02*
X109161950Y-122619536D01*
X109359146Y-121883592D02*
X109295411Y-121827075D01*
X109148222Y-121787636D01*
X109064768Y-121804714D01*
X109018111Y-121831651D01*
X108961595Y-121895386D01*
X108902436Y-122116169D01*
X108919514Y-122199623D01*
X108946451Y-122246280D01*
X109010186Y-122302797D01*
X109157374Y-122342236D01*
X109240828Y-122325158D01*
X108578479Y-122147682D02*
X108495025Y-122164760D01*
X108347836Y-122125321D01*
X108284102Y-122068804D01*
X108267024Y-121985350D01*
X108276884Y-121948553D01*
X108333401Y-121884818D01*
X108416855Y-121867741D01*
X108527246Y-121897320D01*
X108610700Y-121880242D01*
X108667217Y-121816508D01*
X108677077Y-121779711D01*
X108659999Y-121696256D01*
X108596265Y-121639740D01*
X108485873Y-121610160D01*
X108402419Y-121627238D01*
X107541648Y-121159961D02*
X107514711Y-121113304D01*
X107450976Y-121056787D01*
X107266991Y-121007488D01*
X107183536Y-121024566D01*
X107136879Y-121051503D01*
X107080363Y-121115238D01*
X107060643Y-121188832D01*
X107067861Y-121309083D01*
X107391110Y-121868967D01*
X106912747Y-121740790D01*
X106641439Y-120839872D02*
X106567844Y-120820152D01*
X106484390Y-120837230D01*
X106437733Y-120864167D01*
X106381216Y-120927902D01*
X106304980Y-121065231D01*
X106255681Y-121249217D01*
X106253039Y-121406265D01*
X106270117Y-121489719D01*
X106297054Y-121536376D01*
X106360789Y-121592893D01*
X106434383Y-121612613D01*
X106517837Y-121595535D01*
X106564494Y-121568598D01*
X106621011Y-121504863D01*
X106697247Y-121367534D01*
X106746546Y-121183548D01*
X106749188Y-121026500D01*
X106732111Y-120943046D01*
X106705173Y-120896389D01*
X106641439Y-120839872D01*
X106069761Y-120765570D02*
X106042824Y-120718913D01*
X105979089Y-120662396D01*
X105795104Y-120613097D01*
X105711649Y-120630175D01*
X105664993Y-120657112D01*
X105608476Y-120720847D01*
X105588756Y-120794441D01*
X105595974Y-120914692D01*
X105919223Y-121474576D01*
X105440860Y-121346399D01*
X105169552Y-120445481D02*
X105095957Y-120425762D01*
X105012503Y-120442839D01*
X104965846Y-120469777D01*
X104909329Y-120533511D01*
X104833093Y-120670840D01*
X104783794Y-120854826D01*
X104781152Y-121011874D01*
X104798230Y-121095329D01*
X104825167Y-121141985D01*
X104888902Y-121198502D01*
X104962496Y-121218222D01*
X105045951Y-121201144D01*
X105092607Y-121174207D01*
X105149124Y-121110472D01*
X105225360Y-120973143D01*
X105274659Y-120789157D01*
X105277301Y-120632109D01*
X105260224Y-120548655D01*
X105233286Y-120501998D01*
X105169552Y-120445481D01*
M02*
