  0
SECTION
  2
HEADER
  9
$ACADVER
  1
AC1032
  9
$ACADMAINTVER
 90
      110
  9
$DWGCODEPAGE
  3
ANSI_932
  9
$REQUIREDVERSIONS
160
                 0
  9
$INSBASE
 10
0.0
 20
0.0
 30
0.0
  9
$EXTMIN
 10
1.000000000000000E+20
 20
1.000000000000000E+20
 30
1.000000000000000E+20
  9
$EXTMAX
 10
-1.000000000000000E+20
 20
-1.000000000000000E+20
 30
-1.000000000000000E+20
  9
$LIMMIN
 10
0.0
 20
0.0
  9
$LIMMAX
 10
12.0
 20
9.0
  9
$ORTHOMODE
 70
     0
  9
$REGENMODE
 70
     1
  9
$FILLMODE
 70
     1
  9
$QTEXTMODE
 70
     0
  9
$MIRRTEXT
 70
     0
  9
$LTSCALE
 40
1.0
  9
$ATTMODE
 70
     1
  9
$TEXTSIZE
 40
0.2
  9
$TRACEWID
 40
0.05
  9
$TEXTSTYLE
  7
Standard
  9
$CLAYER
  8
0
  9
$CELTYPE
  6
ByLayer
  9
$CECOLOR
 62
   256
  9
$CELTSCALE
 40
1.0
  9
$DISPSILH
 70
     0
  9
$DIMSCALE
 40
1.0
  9
$DIMASZ
 40
0.18
  9
$DIMEXO
 40
0.0625
  9
$DIMDLI
 40
0.38
  9
$DIMRND
 40
0.0
  9
$DIMDLE
 40
0.0
  9
$DIMEXE
 40
0.18
  9
$DIMTP
 40
0.0
  9
$DIMTM
 40
0.0
  9
$DIMTXT
 40
0.18
  9
$DIMCEN
 40
0.09
  9
$DIMTSZ
 40
0.0
  9
$DIMTOL
 70
     0
  9
$DIMLIM
 70
     0
  9
$DIMTIH
 70
     1
  9
$DIMTOH
 70
     1
  9
$DIMSE1
 70
     0
  9
$DIMSE2
 70
     0
  9
$DIMTAD
 70
     0
  9
$DIMZIN
 70
     0
  9
$DIMBLK
  1

  9
$DIMASO
 70
     1
  9
$DIMSHO
 70
     1
  9
$DIMPOST
  1

  9
$DIMAPOST
  1

  9
$DIMALT
 70
     0
  9
$DIMALTD
 70
     2
  9
$DIMALTF
 40
25.4
  9
$DIMLFAC
 40
1.0
  9
$DIMTOFL
 70
     0
  9
$DIMTVP
 40
0.0
  9
$DIMTIX
 70
     0
  9
$DIMSOXD
 70
     0
  9
$DIMSAH
 70
     0
  9
$DIMBLK1
  1

  9
$DIMBLK2
  1

  9
$DIMSTYLE
  2
Standard
  9
$DIMCLRD
 70
     0
  9
$DIMCLRE
 70
     0
  9
$DIMCLRT
 70
     0
  9
$DIMTFAC
 40
1.0
  9
$DIMGAP
 40
0.09
  9
$DIMJUST
 70
     0
  9
$DIMSD1
 70
     0
  9
$DIMSD2
 70
     0
  9
$DIMTOLJ
 70
     1
  9
$DIMTZIN
 70
     0
  9
$DIMALTZ
 70
     0
  9
$DIMALTTZ
 70
     0
  9
$DIMUPT
 70
     0
  9
$DIMDEC
 70
     4
  9
$DIMTDEC
 70
     4
  9
$DIMALTU
 70
     2
  9
$DIMALTTD
 70
     2
  9
$DIMTXSTY
  7
Standard
  9
$DIMAUNIT
 70
     0
  9
$DIMADEC
 70
     0
  9
$DIMALTRND
 40
0.0
  9
$DIMAZIN
 70
     0
  9
$DIMDSEP
 70
    46
  9
$DIMATFIT
 70
     3
  9
$DIMFRAC
 70
     0
  9
$DIMLDRBLK
  1

  9
$DIMLUNIT
 70
     2
  9
$DIMLWD
 70
    -2
  9
$DIMLWE
 70
    -2
  9
$DIMTMOVE
 70
     0
  9
$DIMFXL
 40
1.0
  9
$DIMFXLON
 70
     0
  9
$DIMJOGANG
 40
0.7853981633974483
  9
$DIMTFILL
 70
     0
  9
$DIMTFILLCLR
 70
     0
  9
$DIMARCSYM
 70
     0
  9
$DIMLTYPE
  6

  9
$DIMLTEX1
  6

  9
$DIMLTEX2
  6

  9
$DIMTXTDIRECTION
 70
     0
  9
$LUNITS
 70
     2
  9
$LUPREC
 70
     4
  9
$SKETCHINC
 40
0.1
  9
$FILLETRAD
 40
0.0
  9
$AUNITS
 70
     0
  9
$AUPREC
 70
     0
  9
$MENU
  1
.
  9
$ELEVATION
 40
0.0
  9
$PELEVATION
 40
0.0
  9
$THICKNESS
 40
0.0
  9
$LIMCHECK
 70
     0
  9
$CHAMFERA
 40
0.0
  9
$CHAMFERB
 40
0.0
  9
$CHAMFERC
 40
0.0
  9
$CHAMFERD
 40
0.0
  9
$SKPOLY
 70
     0
  9
$TDCREATE
 40
2459360.423344907
  9
$TDUCREATE
 40
2459360.048344907
  9
$TDUPDATE
 40
2459360.423344907
  9
$TDUUPDATE
 40
2459360.048344907
  9
$TDINDWG
 40
0.0000000000
  9
$TDUSRTIMER
 40
0.0000000000
  9
$USRTIMER
 70
     1
  9
$ANGBASE
 50
0.0
  9
$ANGDIR
 70
     0
  9
$PDMODE
 70
     0
  9
$PDSIZE
 40
0.0
  9
$PLINEWID
 40
0.0
  9
$SPLFRAME
 70
     0
  9
$SPLINETYPE
 70
     6
  9
$SPLINESEGS
 70
     8
  9
$HANDSEED
  5
9D
  9
$SURFTAB1
 70
     6
  9
$SURFTAB2
 70
     6
  9
$SURFTYPE
 70
     6
  9
$SURFU
 70
     6
  9
$SURFV
 70
     6
  9
$UCSBASE
  2

  9
$UCSNAME
  2

  9
$UCSORG
 10
0.0
 20
0.0
 30
0.0
  9
$UCSXDIR
 10
1.0
 20
0.0
 30
0.0
  9
$UCSYDIR
 10
0.0
 20
1.0
 30
0.0
  9
$UCSORTHOREF
  2

  9
$UCSORTHOVIEW
 70
     0
  9
$UCSORGTOP
 10
0.0
 20
0.0
 30
0.0
  9
$UCSORGBOTTOM
 10
0.0
 20
0.0
 30
0.0
  9
$UCSORGLEFT
 10
0.0
 20
0.0
 30
0.0
  9
$UCSORGRIGHT
 10
0.0
 20
0.0
 30
0.0
  9
$UCSORGFRONT
 10
0.0
 20
0.0
 30
0.0
  9
$UCSORGBACK
 10
0.0
 20
0.0
 30
0.0
  9
$PUCSBASE
  2

  9
$PUCSNAME
  2

  9
$PUCSORG
 10
0.0
 20
0.0
 30
0.0
  9
$PUCSXDIR
 10
1.0
 20
0.0
 30
0.0
  9
$PUCSYDIR
 10
0.0
 20
1.0
 30
0.0
  9
$PUCSORTHOREF
  2

  9
$PUCSORTHOVIEW
 70
     0
  9
$PUCSORGTOP
 10
0.0
 20
0.0
 30
0.0
  9
$PUCSORGBOTTOM
 10
0.0
 20
0.0
 30
0.0
  9
$PUCSORGLEFT
 10
0.0
 20
0.0
 30
0.0
  9
$PUCSORGRIGHT
 10
0.0
 20
0.0
 30
0.0
  9
$PUCSORGFRONT
 10
0.0
 20
0.0
 30
0.0
  9
$PUCSORGBACK
 10
0.0
 20
0.0
 30
0.0
  9
$USERI1
 70
     0
  9
$USERI2
 70
     0
  9
$USERI3
 70
     0
  9
$USERI4
 70
     0
  9
$USERI5
 70
     0
  9
$USERR1
 40
0.0
  9
$USERR2
 40
0.0
  9
$USERR3
 40
0.0
  9
$USERR4
 40
0.0
  9
$USERR5
 40
0.0
  9
$WORLDVIEW
 70
     1
  9
$SHADEDGE
 70
     3
  9
$SHADEDIF
 70
    70
  9
$TILEMODE
 70
     1
  9
$MAXACTVP
 70
    64
  9
$PINSBASE
 10
0.0
 20
0.0
 30
0.0
  9
$PLIMCHECK
 70
     0
  9
$PEXTMIN
 10
1.000000000000000E+20
 20
1.000000000000000E+20
 30
1.000000000000000E+20
  9
$PEXTMAX
 10
-1.000000000000000E+20
 20
-1.000000000000000E+20
 30
-1.000000000000000E+20
  9
$PLIMMIN
 10
0.0
 20
0.0
  9
$PLIMMAX
 10
12.0
 20
9.0
  9
$UNITMODE
 70
     0
  9
$VISRETAIN
 70
     1
  9
$PLINEGEN
 70
     0
  9
$PSLTSCALE
 70
     1
  9
$TREEDEPTH
 70
  3020
  9
$CMLSTYLE
  2
Standard
  9
$CMLJUST
 70
     0
  9
$CMLSCALE
 40
1.0
  9
$PROXYGRAPHICS
 70
     1
  9
$MEASUREMENT
 70
     0
  9
$CELWEIGHT
370
    -1
  9
$ENDCAPS
280
     0
  9
$JOINSTYLE
280
     0
  9
$LWDISPLAY
290
     1
  9
$INSUNITS
 70
     4
  9
$HYPERLINKBASE
  1

  9
$STYLESHEET
  1

  9
$XEDIT
290
     1
  9
$CEPSNTYPE
380
     0
  9
$PSTYLEMODE
290
     1
  9
$FINGERPRINTGUID
  2
{95711EFA-C0DA-A249-B437-EE50D8E4B63E}
  9
$VERSIONGUID
  2
{E33AE87B-30C4-CB40-859E-2F1879236868}
  9
$EXTNAMES
290
     1
  9
$PSVPSCALE
 40
0.0
  9
$OLESTARTUP
290
     0
  9
$SORTENTS
280
   127
  9
$INDEXCTL
280
     0
  9
$HIDETEXT
280
     1
  9
$XCLIPFRAME
280
     2
  9
$HALOGAP
280
     0
  9
$OBSCOLOR
 70
   257
  9
$OBSLTYPE
280
     0
  9
$INTERSECTIONDISPLAY
280
     0
  9
$INTERSECTIONCOLOR
 70
   257
  9
$DIMASSOC
280
     2
  9
$PROJECTNAME
  1

  9
$CAMERADISPLAY
290
     0
  9
$LENSLENGTH
 40
50.0
  9
$CAMERAHEIGHT
 40
0.0
  9
$STEPSPERSEC
 40
2.0
  9
$STEPSIZE
 40
6.0
  9
$3DDWFPREC
 40
2.0
  9
$PSOLWIDTH
 40
0.25
  9
$PSOLHEIGHT
 40
4.0
  9
$LOFTANG1
 40
1.570796326794896
  9
$LOFTANG2
 40
1.570796326794896
  9
$LOFTMAG1
 40
0.0
  9
$LOFTMAG2
 40
0.0
  9
$LOFTPARAM
 70
     7
  9
$LOFTNORMALS
280
     1
  9
$LATITUDE
 40
37.795
  9
$LONGITUDE
 40
-122.394
  9
$NORTHDIRECTION
 40
0.0
  9
$TIMEZONE
 70
 -8000
  9
$LIGHTGLYPHDISPLAY
280
     1
  9
$TILEMODELIGHTSYNCH
280
     1
  9
$CMATERIAL
347
11
  9
$SOLIDHIST
280
     0
  9
$SHOWHIST
280
     1
  9
$DWFFRAME
280
     2
  9
$DGNFRAME
280
     0
  9
$REALWORLDSCALE
290
     1
  9
$INTERFERECOLOR
 62
     1
  9
$INTERFEREOBJVS
345
33
  9
$INTERFEREVPVS
346
30
  9
$CSHADOW
280
     0
  9
$SHADOWPLANELOCATION
 40
0.0
  0
ENDSEC
  0
SECTION
  2
CLASSES
  0
CLASS
  1
ACDBDICTIONARYWDFLT
  2
AcDbDictionaryWithDefault
  3
ObjectDBX Classes
 90
        0
 91
        1
280
     0
281
     0
  0
CLASS
  1
MATERIAL
  2
AcDbMaterial
  3
ObjectDBX Classes
 90
     1153
 91
        3
280
     0
281
     0
  0
CLASS
  1
VISUALSTYLE
  2
AcDbVisualStyle
  3
ObjectDBX Classes
 90
     4095
 91
       24
280
     0
281
     0
  0
CLASS
  1
SCALE
  2
AcDbScale
  3
ObjectDBX Classes
 90
     1153
 91
       17
280
     0
281
     0
  0
CLASS
  1
TABLESTYLE
  2
AcDbTableStyle
  3
ObjectDBX Classes
 90
     4095
 91
        1
280
     0
281
     0
  0
CLASS
  1
MLEADERSTYLE
  2
AcDbMLeaderStyle
  3
ACDB_MLEADERSTYLE_CLASS
 90
     4095
 91
        1
280
     0
281
     0
  0
CLASS
  1
ACDBSECTIONVIEWSTYLE
  2
AcDbSectionViewStyle
  3
ObjectDBX Classes
 90
     1025
 91
        1
280
     0
281
     0
  0
CLASS
  1
ACDBDETAILVIEWSTYLE
  2
AcDbDetailViewStyle
  3
ObjectDBX Classes
 90
     1025
 91
        1
280
     0
281
     0
  0
CLASS
  1
DICTIONARYVAR
  2
AcDbDictionaryVar
  3
ObjectDBX Classes
 90
        0
 91
        5
280
     0
281
     0
  0
CLASS
  1
CELLSTYLEMAP
  2
AcDbCellStyleMap
  3
ObjectDBX Classes
 90
     1152
 91
        1
280
     0
281
     0
  0
ENDSEC
  0
SECTION
  2
TABLES
  0
TABLE
  2
VPORT
  5
8
330
0
100
AcDbSymbolTable
 70
     1
  0
VPORT
  5
57
330
8
100
AcDbSymbolTableRecord
100
AcDbViewportTableRecord
  2
*Active
 70
     0
 10
0.0
 20
0.0
 11
1.0
 21
1.0
 12
0.0
 22
0.0
 13
0.0
 23
0.0
 14
1.0
 24
1.0
 15
0.0
 25
0.0
 16
0.0
 26
0.0
 36
1.0
 17
129.8785010879562
 27
-56.801113653802
 37
0.0
 40
112.1999999719493
 41
2.045454545454553
 42
50.0
 43
0.0
 44
0.0
 50
0.0
 51
0.0
 71
     0
 72
   100
 73
     1
 74
     0
 75
     1
 76
     0
 77
     0
 78
     0
281
     0
 65
     1
110
0.0
120
0.0
130
0.0
111
1.0
121
0.0
131
0.0
112
0.0
122
1.0
132
0.0
 79
     0
146
0.0
 60
     3
 61
     5
292
     1
282
     1
141
0.0
142
0.0
 63
   250
421
  3355443
  0
ENDTAB
  0
TABLE
  2
LTYPE
  5
5
330
0
100
AcDbSymbolTable
 70
     1
  0
LTYPE
  5
5B
330
5
100
AcDbSymbolTableRecord
100
AcDbLinetypeTableRecord
  2
ByBlock
 70
     0
  3

 72
    65
 73
     0
 40
0.0
  0
LTYPE
  5
5C
330
5
100
AcDbSymbolTableRecord
100
AcDbLinetypeTableRecord
  2
ByLayer
 70
     0
  3

 72
    65
 73
     0
 40
0.0
  0
LTYPE
  5
5D
330
5
100
AcDbSymbolTableRecord
100
AcDbLinetypeTableRecord
  2
Continuous
 70
     0
  3
Solid line
 72
    65
 73
     0
 40
0.0
  0
ENDTAB
  0
TABLE
  2
LAYER
  5
2
330
0
100
AcDbSymbolTable
 70
     3
  0
LAYER
  5
54
330
2
100
AcDbSymbolTableRecord
100
AcDbLayerTableRecord
  2
0
 70
     0
 62
     7
  6
Continuous
370
    -3
390
F
347
21
348
0
  0
LAYER
  5
78
330
2
100
AcDbSymbolTableRecord
100
AcDbLayerTableRecord
  2
cut
 70
     0
 62
     7
  6
Continuous
370
     0
390
F
347
21
348
0
  0
LAYER
  5
93
330
2
100
AcDbSymbolTableRecord
100
AcDbLayerTableRecord
  2
note
 70
     0
 62
     7
  6
Continuous
370
     0
390
F
347
21
348
0
  0
ENDTAB
  0
TABLE
  2
STYLE
  5
3
330
0
100
AcDbSymbolTable
 70
     2
  0
STYLE
  5
55
330
3
100
AcDbSymbolTableRecord
100
AcDbTextStyleTableRecord
  2
Standard
 70
     0
 40
0.0
 41
1.0
 50
0.0
 71
     0
 42
0.2
  3
txt
  4

  0
STYLE
  5
5A
330
3
100
AcDbSymbolTableRecord
100
AcDbTextStyleTableRecord
  2
Annotative
 70
     0
 40
0.0
 41
1.0
 50
0.0
 71
     0
 42
0.2
  3
txt
  4

1001
AcadAnnotative
1000
AnnotativeData
1002
{
1070
     1
1070
     1
1002
}
  0
ENDTAB
  0
TABLE
  2
VIEW
  5
6
330
0
100
AcDbSymbolTable
 70
     0
  0
ENDTAB
  0
TABLE
  2
UCS
  5
7
330
0
100
AcDbSymbolTable
 70
     0
  0
ENDTAB
  0
TABLE
  2
APPID
  5
9
330
0
100
AcDbSymbolTable
 70
     2
  0
APPID
  5
56
330
9
100
AcDbSymbolTableRecord
100
AcDbRegAppTableRecord
  2
ACAD
 70
     0
  0
APPID
  5
5E
330
9
100
AcDbSymbolTableRecord
100
AcDbRegAppTableRecord
  2
AcadAnnotative
 70
     0
  0
ENDTAB
  0
TABLE
  2
DIMSTYLE
  5
A
330
0
100
AcDbSymbolTable
 70
     2
100
AcDbDimStyleTable
 71
     0
  0
DIMSTYLE
105
58
330
A
100
AcDbSymbolTableRecord
100
AcDbDimStyleTableRecord
  2
Standard
 70
     0
340
55
  0
DIMSTYLE
105
59
330
A
100
AcDbSymbolTableRecord
100
AcDbDimStyleTableRecord
  2
Annotative
 70
     0
340
55
1001
AcadAnnotative
1000
AnnotativeData
1002
{
1070
     1
1070
     1
1002
}
  0
ENDTAB
  0
TABLE
  2
BLOCK_RECORD
  5
1
330
0
100
AcDbSymbolTable
 70
     1
  0
BLOCK_RECORD
  5
70
330
1
100
AcDbSymbolTableRecord
100
AcDbBlockTableRecord
  2
*Model_Space
340
73
 70
     0
280
     1
281
     0
  0
BLOCK_RECORD
  5
6C
330
1
100
AcDbSymbolTableRecord
100
AcDbBlockTableRecord
  2
*Paper_Space
340
6F
 70
     0
280
     1
281
     0
  0
BLOCK_RECORD
  5
74
330
1
100
AcDbSymbolTableRecord
100
AcDbBlockTableRecord
  2
*Paper_Space0
340
77
 70
     0
280
     1
281
     0
  0
ENDTAB
  0
ENDSEC
  0
SECTION
  2
BLOCKS
  0
BLOCK
  5
71
330
70
100
AcDbEntity
  8
0
100
AcDbBlockBegin
  2
*Model_Space
 70
     0
 10
0.0
 20
0.0
 30
0.0
  3
*Model_Space
  1

  0
ENDBLK
  5
72
330
70
100
AcDbEntity
  8
0
100
AcDbBlockEnd
  0
BLOCK
  5
6D
330
6C
100
AcDbEntity
 67
     1
  8
0
100
AcDbBlockBegin
  2
*Paper_Space
 70
     0
 10
0.0
 20
0.0
 30
0.0
  3
*Paper_Space
  1

  0
ENDBLK
  5
6E
330
6C
100
AcDbEntity
 67
     1
  8
0
100
AcDbBlockEnd
  0
BLOCK
  5
75
330
74
100
AcDbEntity
 67
     1
  8
0
100
AcDbBlockBegin
  2
*Paper_Space0
 70
     0
 10
0.0
 20
0.0
 30
0.0
  3
*Paper_Space0
  1

  0
ENDBLK
  5
76
330
74
100
AcDbEntity
 67
     1
  8
0
100
AcDbBlockEnd
  0
ENDSEC
  0
SECTION
  2
ENTITIES
  0
SPLINE
  5
79
330
70
100
AcDbEntity
  8
cut
 62
    18
420
        0
370
     9
100
AcDbSpline
210
0.0
220
0.0
230
1.0
 70
    11
 71
     3
 72
    41
 73
    37
 74
     0
 42
0.0000000001
 43
0.0000000001
 40
0.0
 40
0.0
 40
0.0
 40
0.0
 40
1.0
 40
1.0
 40
1.0
 40
2.0
 40
2.0
 40
2.0
 40
3.0
 40
3.0
 40
3.0
 40
4.0
 40
4.0
 40
4.0
 40
5.0
 40
5.0
 40
5.0
 40
6.0
 40
6.0
 40
6.0
 40
7.0
 40
7.0
 40
7.0
 40
8.0
 40
8.0
 40
8.0
 40
9.0
 40
9.0
 40
9.0
 40
10.0
 40
10.0
 40
10.0
 40
11.0
 40
11.0
 40
11.0
 40
12.0
 40
12.0
 40
12.0
 40
12.0
 10
218.0305309724572
 20
-67.75788298146901
 30
0.0
 10
218.0305309724572
 20
-67.75788298146901
 30
0.0
 10
215.4262787089728
 20
-67.80544683101225
 30
0.0
 10
215.4262787089728
 20
-67.80544683101225
 30
0.0
 10
213.9097925295315
 20
-67.83313678597494
 30
0.0
 10
212.5986122669011
 20
-66.75318547873624
 30
0.0
 10
212.3352350278421
 20
-65.25947820371904
 30
0.0
 10
212.3352350278421
 20
-65.25947820371904
 30
0.0
 10
212.3293783724283
 20
-65.22627609597996
 30
0.0
 10
212.3293783724283
 20
-65.22627609597996
 30
0.0
 10
212.3293783724283
 20
-65.22627609597996
 30
0.0
 10
198.6651338051061
 20
-67.63566821912977
 30
0.0
 10
198.6651338051061
 20
-67.63566821912977
 30
0.0
 10
198.6651338051061
 20
-67.63566821912977
 30
0.0
 10
196.0778055532227
 20
-52.9620160824987
 30
0.0
 10
196.0778055532227
 20
-52.9620160824987
 30
0.0
 10
196.0778055532227
 20
-52.9620160824987
 30
0.0
 10
209.7665963969122
 20
-50.54831758999232
 30
0.0
 10
209.7665963969122
 20
-50.54831758999232
 30
0.0
 10
209.7665963969122
 20
-50.54831758999232
 30
0.0
 10
211.9142448563184
 20
-62.72821582777851
 30
0.0
 10
211.9142448563184
 20
-62.72821582777851
 30
0.0
 10
211.9142448563184
 20
-62.72821582777851
 30
0.0
 10
216.9859792539134
 20
-61.83393363534801
 30
0.0
 10
216.9859792539134
 20
-61.83393363534801
 30
0.0
 10
216.9859792539134
 20
-61.83393363534801
 30
0.0
 10
215.4461310482801
 20
-53.10085343055427
 30
0.0
 10
215.4461310482801
 20
-53.10085343055427
 30
0.0
 10
215.4461310482801
 20
-53.10085343055427
 30
0.0
 10
229.1349218919702
 20
-50.68715493804789
 30
0.0
 10
229.1349218919702
 20
-50.68715493804789
 30
0.0
 10
229.1349218919702
 20
-50.68715493804789
 30
0.0
 10
231.7222716756748
 20
-65.36078554283218
 30
0.0
 10
231.7222716756748
 20
-65.36078554283218
 30
0.0
 10
231.7222716756748
 20
-65.36078554283218
 30
0.0
 10
218.0305309724572
 20
-67.75788298146901
 30
0.0
 10
218.0305309724572
 20
-67.75788298146901
 30
0.0
  0
SPLINE
  5
7A
330
70
100
AcDbEntity
  8
cut
 62
    18
420
        0
370
     9
100
AcDbSpline
210
0.0
220
0.0
230
1.0
 70
    11
 71
     3
 72
    17
 73
    13
 74
     0
 42
0.0000000001
 43
0.0000000001
 40
0.0
 40
0.0
 40
0.0
 40
0.0
 40
1.0
 40
1.0
 40
1.0
 40
2.0
 40
2.0
 40
2.0
 40
3.0
 40
3.0
 40
3.0
 40
4.0
 40
4.0
 40
4.0
 40
4.0
 10
192.769807239918
 20
-34.20142563986897
 30
0.0
 10
192.769807239918
 20
-34.20142563986897
 30
0.0
 10
206.4585980836076
 20
-31.78772714736259
 30
0.0
 10
206.4585980836076
 20
-31.78772714736259
 30
0.0
 10
206.4585980836076
 20
-31.78772714736259
 30
0.0
 10
209.0459478673127
 20
-46.46135775214751
 30
0.0
 10
209.0459478673127
 20
-46.46135775214751
 30
0.0
 10
209.0459478673127
 20
-46.46135775214751
 30
0.0
 10
195.3571354918014
 20
-48.87507777650068
 30
0.0
 10
195.3571354918014
 20
-48.87507777650068
 30
0.0
 10
195.3571354918014
 20
-48.87507777650068
 30
0.0
 10
192.769807239918
 20
-34.20142563986897
 30
0.0
 10
192.769807239918
 20
-34.20142563986897
 30
0.0
  0
SPLINE
  5
7B
330
70
100
AcDbEntity
  8
cut
 62
    18
420
        0
370
     9
100
AcDbSpline
210
0.0
220
0.0
230
1.0
 70
    11
 71
     3
 72
    17
 73
    13
 74
     0
 42
0.0000000001
 43
0.0000000001
 40
0.0
 40
0.0
 40
0.0
 40
0.0
 40
1.0
 40
1.0
 40
1.0
 40
2.0
 40
2.0
 40
2.0
 40
3.0
 40
3.0
 40
3.0
 40
4.0
 40
4.0
 40
4.0
 40
4.0
 10
179.2971743510116
 20
-67.49786439971977
 30
0.0
 10
179.2971743510116
 20
-67.49786439971977
 30
0.0
 10
176.7098460991281
 20
-52.82421226308871
 30
0.0
 10
176.7098460991281
 20
-52.82421226308871
 30
0.0
 10
176.7098460991281
 20
-52.82421226308871
 30
0.0
 10
190.3986369428176
 20
-50.41051377058233
 30
0.0
 10
190.3986369428176
 20
-50.41051377058233
 30
0.0
 10
190.3986369428176
 20
-50.41051377058233
 30
0.0
 10
192.9859867265228
 20
-65.08414437536661
 30
0.0
 10
192.9859867265228
 20
-65.08414437536661
 30
0.0
 10
192.9859867265228
 20
-65.08414437536661
 30
0.0
 10
179.2971743510116
 20
-67.49786439971977
 30
0.0
 10
179.2971743510116
 20
-67.49786439971977
 30
0.0
  0
SPLINE
  5
7C
330
70
100
AcDbEntity
  8
cut
 62
    18
420
        0
370
     9
100
AcDbSpline
210
0.0
220
0.0
230
1.0
 70
    11
 71
     3
 72
    17
 73
    13
 74
     0
 42
0.0000000001
 43
0.0000000001
 40
0.0
 40
0.0
 40
0.0
 40
0.0
 40
1.0
 40
1.0
 40
1.0
 40
2.0
 40
2.0
 40
2.0
 40
3.0
 40
3.0
 40
3.0
 40
4.0
 40
4.0
 40
4.0
 40
4.0
 10
175.7851404983578
 20
-78.88058907406594
 30
0.0
 10
174.3492048626806
 20
-78.88058907406594
 30
0.0
 10
173.1851515355055
 20
-77.7165128414468
 30
0.0
 10
173.1851515355055
 20
-76.28057551134789
 30
0.0
 10
173.1851515355055
 20
-74.84463818124897
 30
0.0
 10
174.3492048626806
 20
-73.68058348047661
 30
0.0
 10
175.7851404983578
 20
-73.68058348047661
 30
0.0
 10
177.221076134035
 20
-73.68058348047661
 30
0.0
 10
178.3851294612095
 20
-74.84463818124897
 30
0.0
 10
178.3851294612095
 20
-76.28057551134789
 30
0.0
 10
178.3851294612095
 20
-77.7165128414468
 30
0.0
 10
177.221076134035
 20
-78.88058907406594
 30
0.0
 10
175.7851404983578
 20
-78.88058907406594
 30
0.0
  0
SPLINE
  5
7D
330
70
100
AcDbEntity
  8
cut
 62
    18
420
        0
370
     9
100
AcDbSpline
210
0.0
220
0.0
230
1.0
 70
    11
 71
     3
 72
    17
 73
    13
 74
     0
 42
0.0000000001
 43
0.0000000001
 40
0.0
 40
0.0
 40
0.0
 40
0.0
 40
1.0
 40
1.0
 40
1.0
 40
2.0
 40
2.0
 40
2.0
 40
3.0
 40
3.0
 40
3.0
 40
4.0
 40
4.0
 40
4.0
 40
4.0
 10
156.2675133538856
 20
-100.9720700866095
 30
0.0
 10
156.2675133538856
 20
-100.9720700866095
 30
0.0
 10
152.4111426138024
 20
-86.5797745918894
 30
0.0
 10
152.4111426138024
 20
-86.5797745918894
 30
0.0
 10
152.4111426138024
 20
-86.5797745918894
 30
0.0
 10
165.8374820867523
 20
-82.98219056772369
 30
0.0
 10
165.8374820867523
 20
-82.98219056772369
 30
0.0
 10
165.8374820867523
 20
-82.98219056772369
 30
0.0
 10
169.6938743586567
 20
-97.37448606244377
 30
0.0
 10
169.6938743586567
 20
-97.37448606244377
 30
0.0
 10
169.6938743586567
 20
-97.37448606244377
 30
0.0
 10
156.2675133538856
 20
-100.9720700866095
 30
0.0
 10
156.2675133538856
 20
-100.9720700866095
 30
0.0
  0
SPLINE
  5
7E
330
70
100
AcDbEntity
  8
cut
 62
    18
420
        0
370
     9
100
AcDbSpline
210
0.0
220
0.0
230
1.0
 70
    11
 71
     3
 72
   170
 73
   166
 74
     0
 42
0.0000000001
 43
0.0000000001
 40
0.0
 40
0.0
 40
0.0
 40
0.0
 40
1.0
 40
1.0
 40
1.0
 40
2.0
 40
2.0
 40
2.0
 40
3.0
 40
3.0
 40
3.0
 40
4.0
 40
4.0
 40
4.0
 40
5.0
 40
5.0
 40
5.0
 40
6.0
 40
6.0
 40
6.0
 40
7.0
 40
7.0
 40
7.0
 40
8.0
 40
8.0
 40
8.0
 40
9.0
 40
9.0
 40
9.0
 40
10.0
 40
10.0
 40
10.0
 40
11.0
 40
11.0
 40
11.0
 40
12.0
 40
12.0
 40
12.0
 40
13.0
 40
13.0
 40
13.0
 40
14.0
 40
14.0
 40
14.0
 40
15.0
 40
15.0
 40
15.0
 40
16.0
 40
16.0
 40
16.0
 40
17.0
 40
17.0
 40
17.0
 40
18.0
 40
18.0
 40
18.0
 40
19.0
 40
19.0
 40
19.0
 40
20.0
 40
20.0
 40
20.0
 40
21.0
 40
21.0
 40
21.0
 40
22.0
 40
22.0
 40
22.0
 40
23.0
 40
23.0
 40
23.0
 40
24.0
 40
24.0
 40
24.0
 40
25.0
 40
25.0
 40
25.0
 40
26.0
 40
26.0
 40
26.0
 40
27.0
 40
27.0
 40
27.0
 40
28.0
 40
28.0
 40
28.0
 40
29.0
 40
29.0
 40
29.0
 40
30.0
 40
30.0
 40
30.0
 40
31.0
 40
31.0
 40
31.0
 40
32.0
 40
32.0
 40
32.0
 40
33.0
 40
33.0
 40
33.0
 40
34.0
 40
34.0
 40
34.0
 40
35.0
 40
35.0
 40
35.0
 40
36.0
 40
36.0
 40
36.0
 40
37.0
 40
37.0
 40
37.0
 40
38.0
 40
38.0
 40
38.0
 40
39.0
 40
39.0
 40
39.0
 40
40.0
 40
40.0
 40
40.0
 40
41.0
 40
41.0
 40
41.0
 40
42.0
 40
42.0
 40
42.0
 40
43.0
 40
43.0
 40
43.0
 40
44.0
 40
44.0
 40
44.0
 40
45.0
 40
45.0
 40
45.0
 40
46.0
 40
46.0
 40
46.0
 40
47.0
 40
47.0
 40
47.0
 40
48.0
 40
48.0
 40
48.0
 40
49.0
 40
49.0
 40
49.0
 40
50.0
 40
50.0
 40
50.0
 40
51.0
 40
51.0
 40
51.0
 40
52.0
 40
52.0
 40
52.0
 40
53.0
 40
53.0
 40
53.0
 40
54.0
 40
54.0
 40
54.0
 40
55.0
 40
55.0
 40
55.0
 40
55.0
 10
142.9911860804556
 20
-81.00647137062649
 30
0.0
 10
142.9911860804556
 20
-81.00647137062649
 30
0.0
 10
141.8959699862163
 20
-74.79515799734207
 30
0.0
 10
141.8959699862163
 20
-74.79515799734207
 30
0.0
 10
141.8959699862163
 20
-74.79515799734207
 30
0.0
 10
136.3973241662196
 20
-77.96858617173318
 30
0.0
 10
136.3973241662196
 20
-77.96858617173318
 30
0.0
 10
136.1675365685056
 20
-78.10225587656088
 30
0.0
 10
135.9064632343335
 20
-78.17268654738744
 30
0.0
 10
135.6406313676381
 20
-78.17268654738744
 30
0.0
 10
135.6406313676381
 20
-78.17268654738744
 30
0.0
 10
132.2503599648593
 20
-78.17268654738744
 30
0.0
 10
132.2503599648593
 20
-78.17268654738744
 30
0.0
 10
132.4067671153274
 20
-78.50692540499704
 30
0.0
 10
132.4966624695679
 20
-78.87847895308123
 30
0.0
 10
132.4966624695679
 20
-79.27188732564997
 30
0.0
 10
132.4966624695679
 20
-80.70782465574888
 30
0.0
 10
131.3326091423931
 20
-81.87190088836802
 30
0.0
 10
129.8966735067159
 20
-81.87190088836802
 30
0.0
 10
128.4607378710387
 20
-81.87190088836802
 30
0.0
 10
127.2966845438642
 20
-80.70782465574888
 30
0.0
 10
127.2966845438642
 20
-79.27188732564997
 30
0.0
 10
127.2966845438642
 20
-78.87847895308123
 30
0.0
 10
127.3866014299259
 20
-78.50690387315025
 30
0.0
 10
127.543008580394
 20
-78.17266501554065
 30
0.0
 10
127.543008580394
 20
-78.17266501554065
 30
0.0
 10
124.1615652243791
 20
-78.17266501554065
 30
0.0
 10
124.1615652243791
 20
-78.17266501554065
 30
0.0
 10
123.896185525932
 20
-78.17266501554065
 30
0.0
 10
123.6355212963665
 20
-78.10249272687548
 30
0.0
 10
123.4060136123302
 20
-77.96925365898345
 30
0.0
 10
123.4060136123302
 20
-77.96925365898345
 30
0.0
 10
117.8892164669142
 20
-74.78508109304771
 30
0.0
 10
117.8892164669142
 20
-74.78508109304771
 30
0.0
 10
117.8892164669142
 20
-74.78508109304771
 30
0.0
 10
116.7922132315009
 20
-81.00651443432004
 30
0.0
 10
116.7922132315009
 20
-81.00651443432004
 30
0.0
 10
116.7922132315009
 20
-81.00651443432004
 30
0.0
 10
103.1034008559899
 20
-78.59279440996688
 30
0.0
 10
103.1034008559899
 20
-78.59279440996688
 30
0.0
 10
103.1034008559899
 20
-78.59279440996688
 30
0.0
 10
105.6907721715166
 20
-63.9191638051826
 30
0.0
 10
105.6907721715166
 20
-63.9191638051826
 30
0.0
 10
105.6907721715166
 20
-63.9191638051826
 30
0.0
 10
119.3769361329986
 20
-66.33241012890654
 30
0.0
 10
119.3769361329986
 20
-66.33241012890654
 30
0.0
 10
119.3769361329986
 20
-66.33241012890654
 30
0.0
 10
120.097347812563
 20
-62.2454502910611
 30
0.0
 10
120.097347812563
 20
-62.2454502910611
 30
0.0
 10
120.097347812563
 20
-62.2454502910611
 30
0.0
 10
106.4113991692952
 20
-59.83222549918393
 30
0.0
 10
106.4113991692952
 20
-59.83222549918393
 30
0.0
 10
106.4113991692952
 20
-59.83222549918393
 30
0.0
 10
108.9987704848216
 20
-45.15859489440028
 30
0.0
 10
108.9987704848216
 20
-45.15859489440028
 30
0.0
 10
108.9987704848216
 20
-45.15859489440028
 30
0.0
 10
122.6839655143416
 20
-47.57166896334933
 30
0.0
 10
122.6839655143416
 20
-47.57166896334933
 30
0.0
 10
122.6839655143416
 20
-47.57166896334933
 30
0.0
 10
123.404398725727
 20
-43.48462299811739
 30
0.0
 10
123.404398725727
 20
-43.48462299811739
 30
0.0
 10
123.404398725727
 20
-43.48462299811739
 30
0.0
 10
109.7193974825999
 20
-41.07157046101384
 30
0.0
 10
109.7193974825999
 20
-41.07157046101384
 30
0.0
 10
109.7193974825999
 20
-41.07157046101384
 30
0.0
 10
109.7201726281694
 20
-41.06713490057659
 30
0.0
 10
109.7201726281694
 20
-41.06713490057659
 30
0.0
 10
109.7201726281694
 20
-41.06713490057659
 30
0.0
 10
107.2620783681782
 20
-40.20297576179523
 30
0.0
 10
107.2620783681782
 20
-40.20297576179523
 30
0.0
 10
105.8275638327122
 20
-39.71032710740451
 30
0.0
 10
104.9648483456798
 20
-38.24706586373821
 30
0.0
 10
105.2282255847388
 20
-36.75333705687487
 30
0.0
 10
105.2282255847388
 20
-36.75333705687487
 30
0.0
 10
105.2329410536204
 20
-36.7265729713232
 30
0.0
 10
105.2329410536204
 20
-36.7265729713232
 30
0.0
 10
105.2329410536204
 20
-36.7265729713232
 30
0.0
 10
91.56658636780305
 20
-34.31681480677806
 30
0.0
 10
91.56658636780305
 20
-34.31681480677806
 30
0.0
 10
91.56658636780305
 20
-34.31681480677806
 30
0.0
 10
94.15395768332968
 20
-19.64318420199442
 30
0.0
 10
94.15395768332968
 20
-19.64318420199442
 30
0.0
 10
94.15395768332968
 20
-19.64318420199442
 30
0.0
 10
107.8427485270192
 20
-22.05690422634759
 30
0.0
 10
107.8427485270192
 20
-22.05690422634759
 30
0.0
 10
107.8427485270192
 20
-22.05690422634759
 30
0.0
 10
105.6962412541458
 20
-34.23036444194507
 30
0.0
 10
105.6962412541458
 20
-34.23036444194507
 30
0.0
 10
105.6962412541458
 20
-34.23036444194507
 30
0.0
 10
110.7679971835622
 20
-35.124668166223
 30
0.0
 10
110.7679971835622
 20
-35.124668166223
 30
0.0
 10
110.7679971835622
 20
-35.124668166223
 30
0.0
 10
112.3067687981259
 20
-26.39793985622957
 30
0.0
 10
112.3067687981259
 20
-26.39793985622957
 30
0.0
 10
112.3067687981259
 20
-26.39793985622957
 30
0.0
 10
125.9959256827789
 20
-28.80952822775124
 30
0.0
 10
125.9959256827789
 20
-28.80952822775124
 30
0.0
 10
125.9959256827789
 20
-28.80952822775124
 30
0.0
 10
125.3488944504601
 20
-32.4790716838651
 30
0.0
 10
125.3488944504601
 20
-32.4790716838651
 30
0.0
 10
125.3488944504601
 20
-32.4790716838651
 30
0.0
 10
134.4345263933178
 20
-32.47905015201832
 30
0.0
 10
134.4345263933178
 20
-32.47905015201832
 30
0.0
 10
134.4345263933178
 20
-32.47905015201832
 30
0.0
 10
133.7879257974265
 20
-28.81196132643834
 30
0.0
 10
133.7879257974265
 20
-28.81196132643834
 30
0.0
 10
133.7879257974265
 20
-28.81196132643834
 30
0.0
 10
147.4766951092949
 20
-26.39800445176991
 30
0.0
 10
147.4766951092949
 20
-26.39800445176991
 30
0.0
 10
147.4766951092949
 20
-26.39800445176991
 30
0.0
 10
149.0185457743153
 20
-35.14236734427784
 30
0.0
 10
149.0185457743153
 20
-35.14236734427784
 30
0.0
 10
149.0185457743153
 20
-35.14236734427784
 30
0.0
 10
154.0903017037319
 20
-34.24806362000119
 30
0.0
 10
154.0903017037319
 20
-34.24806362000119
 30
0.0
 10
154.0903017037319
 20
-34.24806362000119
 30
0.0
 10
151.9406938485805
 20
-22.05681809896046
 30
0.0
 10
151.9406938485805
 20
-22.05681809896046
 30
0.0
 10
151.9406938485805
 20
-22.05681809896046
 30
0.0
 10
165.62948469227
 20
-19.64311960645343
 30
0.0
 10
165.62948469227
 20
-19.64311960645343
 30
0.0
 10
165.62948469227
 20
-19.64311960645343
 30
0.0
 10
168.2168344759746
 20
-34.31675021123771
 30
0.0
 10
168.2168344759746
 20
-34.31675021123771
 30
0.0
 10
168.2168344759746
 20
-34.31675021123771
 30
0.0
 10
154.5510611493353
 20
-36.72640071654893
 30
0.0
 10
154.5510611493353
 20
-36.72640071654893
 30
0.0
 10
154.5510611493353
 20
-36.72640071654893
 30
0.0
 10
154.5589202641372
 20
-36.77092857569578
 30
0.0
 10
154.5589202641372
 20
-36.77092857569578
 30
0.0
 10
154.8223190350174
 20
-38.26465738255976
 30
0.0
 10
153.9595820161638
 20
-39.72791862622671
 30
0.0
 10
152.5250674806975
 20
-40.22056728061744
 30
0.0
 10
152.5250674806975
 20
-40.22056728061744
 30
0.0
 10
150.0630544292166
 20
-41.06607984008487
 30
0.0
 10
150.0630544292166
 20
-41.06607984008487
 30
0.0
 10
150.0630544292166
 20
-41.06607984008487
 30
0.0
 10
150.0640448929997
 20
-41.0716350565542
 30
0.0
 10
150.0640448929997
 20
-41.0716350565542
 30
0.0
 10
150.0640448929997
 20
-41.0716350565542
 30
0.0
 10
136.3794312226569
 20
-43.48462299811739
 30
0.0
 10
136.3794312226569
 20
-43.48462299811739
 30
0.0
 10
136.3794312226569
 20
-43.48462299811739
 30
0.0
 10
137.1000582204352
 20
-47.57156130411541
 30
0.0
 10
137.1000582204352
 20
-47.57156130411541
 30
0.0
 10
137.1000582204352
 20
-47.57156130411541
 30
0.0
 10
150.7846718907781
 20
-45.15859489440028
 30
0.0
 10
150.7846718907781
 20
-45.15859489440028
 30
0.0
 10
150.7846718907781
 20
-45.15859489440028
 30
0.0
 10
153.3720216744833
 20
-59.83222549918393
 30
0.0
 10
153.3720216744833
 20
-59.83222549918393
 30
0.0
 10
153.3720216744833
 20
-59.83222549918393
 30
0.0
 10
139.6874080041405
 20
-62.24521344074648
 30
0.0
 10
139.6874080041405
 20
-62.24521344074648
 30
0.0
 10
139.6874080041405
 20
-62.24521344074648
 30
0.0
 10
140.4080350019188
 20
-66.3320871512048
 30
0.0
 10
140.4080350019188
 20
-66.3320871512048
 30
0.0
 10
140.4080350019188
 20
-66.3320871512048
 30
0.0
 10
154.0926486722617
 20
-63.91912074148903
 30
0.0
 10
154.0926486722617
 20
-63.91912074148903
 30
0.0
 10
154.0926486722617
 20
-63.91912074148903
 30
0.0
 10
156.6799984559662
 20
-78.59275134627331
 30
0.0
 10
156.6799984559662
 20
-78.59275134627331
 30
0.0
 10
156.6799984559662
 20
-78.59275134627331
 30
0.0
 10
142.9911860804556
 20
-81.00647137062649
 30
0.0
 10
142.9911860804556
 20
-81.00647137062649
 30
0.0
  0
SPLINE
  5
7F
330
70
100
AcDbEntity
  8
cut
 62
    18
420
        0
370
     9
100
AcDbSpline
210
0.0
220
0.0
230
1.0
 70
     9
 71
     3
 72
    47
 73
    43
 74
     0
 42
0.0000000001
 43
0.0000000001
 40
0.0
 40
0.0
 40
0.0
 40
0.0
 40
1.0
 40
1.0
 40
1.0
 40
2.0
 40
2.0
 40
2.0
 40
3.0
 40
3.0
 40
3.0
 40
4.0
 40
4.0
 40
4.0
 40
5.0
 40
5.0
 40
5.0
 40
6.0
 40
6.0
 40
6.0
 40
7.0
 40
7.0
 40
7.0
 40
8.0
 40
8.0
 40
8.0
 40
9.0
 40
9.0
 40
9.0
 40
10.0
 40
10.0
 40
10.0
 40
11.0
 40
11.0
 40
11.0
 40
12.0
 40
12.0
 40
12.0
 40
13.0
 40
13.0
 40
13.0
 40
14.0
 40
14.0
 40
14.0
 40
14.0
 10
143.1278916143655
 20
-102.4736364857024
 30
0.0
 10
142.8745482040673
 20
-102.9434183188097
 30
0.0
 10
142.3839241222166
 20
-103.2663529568583
 30
0.0
 10
141.8127494966022
 20
-103.2663529568583
 30
0.0
 10
141.2415748709874
 20
-103.2663529568583
 30
0.0
 10
140.7509507891371
 20
-102.943396786963
 30
0.0
 10
140.4976073788388
 20
-102.4736149538556
 30
0.0
 10
140.4976073788388
 20
-102.4736149538556
 30
0.0
 10
138.3557509793824
 20
-102.47258142521
 30
0.0
 10
138.3557509793824
 20
-102.47258142521
 30
0.0
 10
138.3557509793824
 20
-102.47258142521
 30
0.0
 10
138.3557509793824
 20
-101.9898158884926
 30
0.0
 10
138.3557509793824
 20
-101.9898158884926
 30
0.0
 10
138.3557509793824
 20
-101.9898158884926
 30
0.0
 10
121.4195523677373
 20
-101.9897943566458
 30
0.0
 10
121.4195523677373
 20
-101.9897943566458
 30
0.0
 10
121.4195523677373
 20
-101.9897943566458
 30
0.0
 10
121.4195523677373
 20
-102.4741317181784
 30
0.0
 10
121.4195523677373
 20
-102.4741317181784
 30
0.0
 10
121.4195523677373
 20
-102.4741317181784
 30
0.0
 10
119.2517931871669
 20
-102.4738518041702
 30
0.0
 10
119.2517931871669
 20
-102.4738518041702
 30
0.0
 10
118.9984067132265
 20
-102.9434829143501
 30
0.0
 10
118.5078472268392
 20
-103.2663314250116
 30
0.0
 10
117.9367802603316
 20
-103.2663314250116
 30
0.0
 10
117.365713293824
 20
-103.2663314250116
 30
0.0
 10
116.8751753392587
 20
-102.9434829143501
 30
0.0
 10
116.6217888653179
 20
-102.4738518041702
 30
0.0
 10
116.6217888653179
 20
-102.4738518041702
 30
0.0
 10
113.4150547079398
 20
-102.4741317181784
 30
0.0
 10
113.4150547079398
 20
-102.4741317181784
 30
0.0
 10
113.4150547079398
 20
-102.4741317181784
 30
0.0
 10
113.4175954628618
 20
-84.22393217168844
 30
0.0
 10
113.4175954628618
 20
-84.22393217168844
 30
0.0
 10
113.4175954628618
 20
-84.22393217168844
 30
0.0
 10
146.3671603538412
 20
-84.22016409850144
 30
0.0
 10
146.3671603538412
 20
-84.22016409850144
 30
0.0
 10
146.3671603538412
 20
-84.22016409850144
 30
0.0
 10
146.3675048629829
 20
-102.4726029570568
 30
0.0
 10
146.3675048629829
 20
-102.4726029570568
 30
0.0
 10
146.3675048629829
 20
-102.4726029570568
 30
0.0
 10
143.1278916143655
 20
-102.4736364857024
 30
0.0
 10
143.1278916143655
 20
-102.4736364857024
 30
0.0
  0
SPLINE
  5
80
330
70
100
AcDbEntity
  8
cut
 62
    18
420
        0
370
     9
100
AcDbSpline
210
0.0
220
0.0
230
1.0
 70
    11
 71
     3
 72
    17
 73
    13
 74
     0
 42
0.0000000001
 43
0.0000000001
 40
0.0
 40
0.0
 40
0.0
 40
0.0
 40
1.0
 40
1.0
 40
1.0
 40
2.0
 40
2.0
 40
2.0
 40
3.0
 40
3.0
 40
3.0
 40
4.0
 40
4.0
 40
4.0
 40
4.0
 10
103.5058736611315
 20
-100.9720700866095
 30
0.0
 10
103.5058736611315
 20
-100.9720700866095
 30
0.0
 10
90.07951265636044
 20
-97.37448606244377
 30
0.0
 10
90.07951265636044
 20
-97.37448606244377
 30
0.0
 10
90.07951265636044
 20
-97.37448606244377
 30
0.0
 10
93.93592646008622
 20
-82.98219056772369
 30
0.0
 10
93.93592646008622
 20
-82.98219056772369
 30
0.0
 10
93.93592646008622
 20
-82.98219056772369
 30
0.0
 10
107.3622659330365
 20
-86.5797745918894
 30
0.0
 10
107.3622659330365
 20
-86.5797745918894
 30
0.0
 10
107.3622659330365
 20
-86.5797745918894
 30
0.0
 10
103.5058736611315
 20
-100.9720700866095
 30
0.0
 10
103.5058736611315
 20
-100.9720700866095
 30
0.0
  0
SPLINE
  5
81
330
70
100
AcDbEntity
  8
cut
 62
    18
420
        0
370
     9
100
AcDbSpline
210
0.0
220
0.0
230
1.0
 70
     9
 71
     3
 72
    17
 73
    13
 74
     0
 42
0.0000000001
 43
0.0000000001
 40
0.0
 40
0.0
 40
0.0
 40
0.0
 40
1.0
 40
1.0
 40
1.0
 40
2.0
 40
2.0
 40
2.0
 40
3.0
 40
3.0
 40
3.0
 40
4.0
 40
4.0
 40
4.0
 40
4.0
 10
84.00325419615798
 20
-78.88058907406594
 30
0.0
 10
82.5673185604811
 20
-78.88058907406594
 30
0.0
 10
81.40326523330564
 20
-77.7165128414468
 30
0.0
 10
81.40326523330564
 20
-76.28057551134789
 30
0.0
 10
81.40326523330564
 20
-74.84463818124897
 30
0.0
 10
82.5673185604811
 20
-73.68058348047661
 30
0.0
 10
84.00325419615798
 20
-73.68058348047661
 30
0.0
 10
85.4391898318352
 20
-73.68058348047661
 30
0.0
 10
86.60324315901
 20
-74.84463818124897
 30
0.0
 10
86.60324315901
 20
-76.28057551134789
 30
0.0
 10
86.60324315901
 20
-77.7165128414468
 30
0.0
 10
85.4391898318352
 20
-78.88058907406594
 30
0.0
 10
84.00325419615798
 20
-78.88058907406594
 30
0.0
  0
SPLINE
  5
82
330
70
100
AcDbEntity
  8
cut
 62
    18
420
        0
370
     9
100
AcDbSpline
210
0.0
220
0.0
230
1.0
 70
    11
 71
     3
 72
    17
 73
    13
 74
     0
 42
0.0000000001
 43
0.0000000001
 40
0.0
 40
0.0
 40
0.0
 40
0.0
 40
1.0
 40
1.0
 40
1.0
 40
2.0
 40
2.0
 40
2.0
 40
3.0
 40
3.0
 40
3.0
 40
4.0
 40
4.0
 40
4.0
 40
4.0
 10
66.80182660881612
 20
-65.08207731807546
 30
0.0
 10
66.80182660881612
 20
-65.08207731807546
 30
0.0
 10
69.38919792434211
 20
-50.40844671329118
 30
0.0
 10
69.38919792434211
 20
-50.40844671329118
 30
0.0
 10
69.38919792434211
 20
-50.40844671329118
 30
0.0
 10
83.07798876803195
 20
-52.82216673764434
 30
0.0
 10
83.07798876803195
 20
-52.82216673764434
 30
0.0
 10
83.07798876803195
 20
-52.82216673764434
 30
0.0
 10
80.49063898432706
 20
-67.49579734242863
 30
0.0
 10
80.49063898432706
 20
-67.49579734242863
 30
0.0
 10
80.49063898432706
 20
-67.49579734242863
 30
0.0
 10
66.80182660881612
 20
-65.08207731807546
 30
0.0
 10
66.80182660881612
 20
-65.08207731807546
 30
0.0
  0
SPLINE
  5
83
330
70
100
AcDbEntity
  8
cut
 62
    18
420
        0
370
     9
100
AcDbSpline
210
0.0
220
0.0
230
1.0
 70
    11
 71
     3
 72
    17
 73
    13
 74
     0
 42
0.0000000001
 43
0.0000000001
 40
0.0
 40
0.0
 40
0.0
 40
0.0
 40
1.0
 40
1.0
 40
1.0
 40
2.0
 40
2.0
 40
2.0
 40
3.0
 40
3.0
 40
3.0
 40
4.0
 40
4.0
 40
4.0
 40
4.0
 10
50.73747297646555
 20
-46.46140081584044
 30
0.0
 10
50.73747297646555
 20
-46.46140081584044
 30
0.0
 10
53.32484429199186
 20
-31.78777021105616
 30
0.0
 10
53.32484429199186
 20
-31.78777021105616
 30
0.0
 10
53.32484429199186
 20
-31.78777021105616
 30
0.0
 10
67.01363513568136
 20
-34.20149023540933
 30
0.0
 10
67.01363513568136
 20
-34.20149023540933
 30
0.0
 10
67.01363513568136
 20
-34.20149023540933
 30
0.0
 10
64.42628535197648
 20
-48.8751208401936
 30
0.0
 10
64.42628535197648
 20
-48.8751208401936
 30
0.0
 10
64.42628535197648
 20
-48.8751208401936
 30
0.0
 10
50.73747297646555
 20
-46.46140081584044
 30
0.0
 10
50.73747297646555
 20
-46.46140081584044
 30
0.0
  0
SPLINE
  5
84
330
70
100
AcDbEntity
  8
cut
 62
    18
420
        0
370
     9
100
AcDbSpline
210
0.0
220
0.0
230
1.0
 70
    11
 71
     3
 72
    44
 73
    40
 74
     0
 42
0.0000000001
 43
0.0000000001
 40
0.0
 40
0.0
 40
0.0
 40
0.0
 40
1.0
 40
1.0
 40
1.0
 40
2.0
 40
2.0
 40
2.0
 40
3.0
 40
3.0
 40
3.0
 40
4.0
 40
4.0
 40
4.0
 40
5.0
 40
5.0
 40
5.0
 40
6.0
 40
6.0
 40
6.0
 40
7.0
 40
7.0
 40
7.0
 40
8.0
 40
8.0
 40
8.0
 40
9.0
 40
9.0
 40
9.0
 40
10.0
 40
10.0
 40
10.0
 40
11.0
 40
11.0
 40
11.0
 40
12.0
 40
12.0
 40
12.0
 40
13.0
 40
13.0
 40
13.0
 40
13.0
 10
61.11828703867214
 20
-67.63571128282333
 30
0.0
 10
61.11828703867214
 20
-67.63571128282333
 30
0.0
 10
47.46562659124938
 20
-65.22836468511788
 30
0.0
 10
47.46562659124938
 20
-65.22836468511788
 30
0.0
 10
47.46562659124938
 20
-65.22836468511788
 30
0.0
 10
47.45824117651811
 20
-65.27028719080401
 30
0.0
 10
47.45824117651811
 20
-65.27028719080401
 30
0.0
 10
47.19486393745941
 20
-66.764015997668
 30
0.0
 10
45.88370520664979
 20
-67.84394577305992
 30
0.0
 10
44.36719749538736
 20
-67.81625581809722
 30
0.0
 10
44.36719749538736
 20
-67.81625581809722
 30
0.0
 10
41.75101660286158
 20
-67.76847665008616
 30
0.0
 10
41.75101660286158
 20
-67.76847665008616
 30
0.0
 10
41.75101660286158
 20
-67.76847665008616
 30
0.0
 10
41.74996154361412
 20
-67.77452709903212
 30
0.0
 10
41.74996154361412
 20
-67.77452709903212
 30
0.0
 10
41.74996154361412
 20
-67.77452709903212
 30
0.0
 10
28.06114916810319
 20
-65.36080707467895
 30
0.0
 10
28.06114916810319
 20
-65.36080707467895
 30
0.0
 10
28.06114916810319
 20
-65.36080707467895
 30
0.0
 10
30.64852048362982
 20
-50.68717646989467
 30
0.0
 10
30.64852048362982
 20
-50.68717646989467
 30
0.0
 10
30.64852048362982
 20
-50.68717646989467
 30
0.0
 10
44.337311327319
 20
-53.10089649424784
 30
0.0
 10
44.337311327319
 20
-53.10089649424784
 30
0.0
 10
44.337311327319
 20
-53.10089649424784
 30
0.0
 10
42.79589129872573
 20
-61.84269709698861
 30
0.0
 10
42.79589129872573
 20
-61.84269709698861
 30
0.0
 10
42.79589129872573
 20
-61.84269709698861
 30
0.0
 10
47.86764722814176
 20
-62.73697928941912
 30
0.0
 10
47.86764722814176
 20
-62.73697928941912
 30
0.0
 10
47.86764722814176
 20
-62.73697928941912
 30
0.0
 10
50.0168459786875
 20
-50.54836065368653
 30
0.0
 10
50.0168459786875
 20
-50.54836065368653
 30
0.0
 10
50.0168459786875
 20
-50.54836065368653
 30
0.0
 10
63.70563682237733
 20
-52.96208067803905
 30
0.0
 10
63.70563682237733
 20
-52.96208067803905
 30
0.0
 10
63.70563682237733
 20
-52.96208067803905
 30
0.0
 10
61.11828703867214
 20
-67.63571128282333
 30
0.0
 10
61.11828703867214
 20
-67.63571128282333
 30
0.0
  0
SPLINE
  5
85
330
70
100
AcDbEntity
  8
cut
 62
    18
420
        0
370
     9
100
AcDbSpline
210
0.0
220
0.0
230
1.0
 70
    11
 71
     3
 72
    17
 73
    13
 74
     0
 42
0.0000000001
 43
0.0000000001
 40
0.0
 40
0.0
 40
0.0
 40
0.0
 40
1.0
 40
1.0
 40
1.0
 40
2.0
 40
2.0
 40
2.0
 40
3.0
 40
3.0
 40
3.0
 40
4.0
 40
4.0
 40
4.0
 40
4.0
 10
33.95649726511306
 20
-31.92658602726558
 30
0.0
 10
33.95649726511306
 20
-31.92658602726558
 30
0.0
 10
47.64528810880224
 20
-34.34030605161875
 30
0.0
 10
47.64528810880224
 20
-34.34030605161875
 30
0.0
 10
47.64528810880224
 20
-34.34030605161875
 30
0.0
 10
45.05793832509737
 20
-49.01393665640239
 30
0.0
 10
45.05793832509737
 20
-49.01393665640239
 30
0.0
 10
45.05793832509737
 20
-49.01393665640239
 30
0.0
 10
31.36912594958643
 20
-46.60021663204922
 30
0.0
 10
31.36912594958643
 20
-46.60021663204922
 30
0.0
 10
31.36912594958643
 20
-46.60021663204922
 30
0.0
 10
33.95649726511306
 20
-31.92658602726558
 30
0.0
 10
33.95649726511306
 20
-31.92658602726558
 30
0.0
  0
SPLINE
  5
86
330
70
100
AcDbEntity
  8
cut
 62
    18
420
        0
370
     9
100
AcDbSpline
210
0.0
220
0.0
230
1.0
 70
    11
 71
     3
 72
    44
 73
    40
 74
     0
 42
0.0000000001
 43
0.0000000001
 40
0.0
 40
0.0
 40
0.0
 40
0.0
 40
1.0
 40
1.0
 40
1.0
 40
2.0
 40
2.0
 40
2.0
 40
3.0
 40
3.0
 40
3.0
 40
4.0
 40
4.0
 40
4.0
 40
5.0
 40
5.0
 40
5.0
 40
6.0
 40
6.0
 40
6.0
 40
7.0
 40
7.0
 40
7.0
 40
8.0
 40
8.0
 40
8.0
 40
9.0
 40
9.0
 40
9.0
 40
10.0
 40
10.0
 40
10.0
 40
11.0
 40
11.0
 40
11.0
 40
12.0
 40
12.0
 40
12.0
 40
13.0
 40
13.0
 40
13.0
 40
13.0
 10
37.26449557841774
 20
-13.16601711648199
 30
0.0
 10
37.26449557841774
 20
-13.16601711648199
 30
0.0
 10
50.95328642210755
 20
-15.57973714083516
 30
0.0
 10
50.95328642210755
 20
-15.57973714083516
 30
0.0
 10
50.95328642210755
 20
-15.57973714083516
 30
0.0
 10
49.40939023405593
 20
-24.33566263506609
 30
0.0
 10
49.40939023405593
 20
-24.33566263506609
 30
0.0
 10
49.40939023405593
 20
-24.33566263506609
 30
0.0
 10
54.48114616347228
 20
-25.22996635934274
 30
0.0
 10
54.48114616347228
 20
-25.22996635934274
 30
0.0
 10
54.48114616347228
 20
-25.22996635934274
 30
0.0
 10
56.63284260529685
 20
-13.02717976842642
 30
0.0
 10
56.63284260529685
 20
-13.02717976842642
 30
0.0
 10
56.63284260529685
 20
-13.02717976842642
 30
0.0
 10
70.32163344898636
 20
-15.44089979277959
 30
0.0
 10
70.32163344898636
 20
-15.44089979277959
 30
0.0
 10
70.32163344898636
 20
-15.44089979277959
 30
0.0
 10
67.73428366528117
 20
-30.11453039756388
 30
0.0
 10
67.73428366528117
 20
-30.11453039756388
 30
0.0
 10
67.73428366528117
 20
-30.11453039756388
 30
0.0
 10
54.07798434004702
 20
-27.70653784445494
 30
0.0
 10
54.07798434004702
 20
-27.70653784445494
 30
0.0
 10
54.07798434004702
 20
-27.70653784445494
 30
0.0
 10
54.0681012340353
 20
-27.76260677347738
 30
0.0
 10
54.0681012340353
 20
-27.76260677347738
 30
0.0
 10
53.80472399497691
 20
-29.25633558034136
 30
0.0
 10
52.49356526416761
 20
-30.33628688758005
 30
0.0
 10
50.97705755290551
 20
-30.30857540077057
 30
0.0
 10
50.97705755290551
 20
-30.30857540077057
 30
0.0
 10
48.34744080384107
 20
-30.2605593824449
 30
0.0
 10
48.34744080384107
 20
-30.2605593824449
 30
0.0
 10
48.34744080384107
 20
-30.2605593824449
 30
0.0
 10
48.34922794501543
 20
-30.2504178826102
 30
0.0
 10
48.34922794501543
 20
-30.2504178826102
 30
0.0
 10
48.34922794501543
 20
-30.2504178826102
 30
0.0
 10
34.67712426289143
 20
-27.83964772126628
 30
0.0
 10
34.67712426289143
 20
-27.83964772126628
 30
0.0
 10
34.67712426289143
 20
-27.83964772126628
 30
0.0
 10
37.26449557841774
 20
-13.16601711648199
 30
0.0
 10
37.26449557841774
 20
-13.16601711648199
 30
0.0
  0
SPLINE
  5
87
330
70
100
AcDbEntity
  8
cut
 62
    18
420
        0
370
     9
100
AcDbSpline
210
0.0
220
0.0
230
1.0
 70
    11
 71
     3
 72
    17
 73
    13
 74
     0
 42
0.0000000001
 43
0.0000000001
 40
0.0
 40
0.0
 40
0.0
 40
0.0
 40
1.0
 40
1.0
 40
1.0
 40
2.0
 40
2.0
 40
2.0
 40
3.0
 40
3.0
 40
3.0
 40
4.0
 40
4.0
 40
4.0
 40
4.0
 10
86.37957059856708
 20
-34.06157629501461
 30
0.0
 10
86.37957059856708
 20
-34.06157629501461
 30
0.0
 10
83.79222081486155
 20
-48.73520689979954
 30
0.0
 10
83.79222081486155
 20
-48.73520689979954
 30
0.0
 10
83.79222081486155
 20
-48.73520689979954
 30
0.0
 10
70.10340843935061
 20
-46.32148687544637
 30
0.0
 10
70.10340843935061
 20
-46.32148687544637
 30
0.0
 10
70.10340843935061
 20
-46.32148687544637
 30
0.0
 10
72.69077975487724
 20
-31.64785627066145
 30
0.0
 10
72.69077975487724
 20
-31.64785627066145
 30
0.0
 10
72.69077975487724
 20
-31.64785627066145
 30
0.0
 10
86.37957059856708
 20
-34.06157629501461
 30
0.0
 10
86.37957059856708
 20
-34.06157629501461
 30
0.0
  0
SPLINE
  5
88
330
70
100
AcDbEntity
  8
cut
 62
    18
420
        0
370
     9
100
AcDbSpline
210
0.0
220
0.0
230
1.0
 70
    11
 71
     3
 72
    17
 73
    13
 74
     0
 42
0.0000000001
 43
0.0000000001
 40
0.0
 40
0.0
 40
0.0
 40
0.0
 40
1.0
 40
1.0
 40
1.0
 40
2.0
 40
2.0
 40
2.0
 40
3.0
 40
3.0
 40
3.0
 40
4.0
 40
4.0
 40
4.0
 40
4.0
 10
75.99877806818192
 20
-12.88726582803235
 30
0.0
 10
75.99877806818192
 20
-12.88726582803235
 30
0.0
 10
89.68756891187174
 20
-15.30098585238552
 30
0.0
 10
89.68756891187174
 20
-15.30098585238552
 30
0.0
 10
89.68756891187174
 20
-15.30098585238552
 30
0.0
 10
87.10021912816623
 20
-29.97461645716917
 30
0.0
 10
87.10021912816623
 20
-29.97461645716917
 30
0.0
 10
87.10021912816623
 20
-29.97461645716917
 30
0.0
 10
73.41140675265561
 20
-27.560896432816
 30
0.0
 10
73.41140675265561
 20
-27.560896432816
 30
0.0
 10
73.41140675265561
 20
-27.560896432816
 30
0.0
 10
75.99877806818192
 20
-12.88726582803235
 30
0.0
 10
75.99877806818192
 20
-12.88726582803235
 30
0.0
  0
SPLINE
  5
89
330
70
100
AcDbEntity
  8
cut
 62
    18
420
        0
370
     9
100
AcDbSpline
210
0.0
220
0.0
230
1.0
 70
    11
 71
     3
 72
    17
 73
    13
 74
     0
 42
0.0000000001
 43
0.0000000001
 40
0.0
 40
0.0
 40
0.0
 40
0.0
 40
1.0
 40
1.0
 40
1.0
 40
2.0
 40
2.0
 40
2.0
 40
3.0
 40
3.0
 40
3.0
 40
4.0
 40
4.0
 40
4.0
 40
4.0
 10
101.2267734322312
 20
-59.57806357975962
 30
0.0
 10
101.2267734322312
 20
-59.57806357975962
 30
0.0
 10
98.63942364852608
 20
-74.25169418454391
 30
0.0
 10
98.63942364852608
 20
-74.25169418454391
 30
0.0
 10
98.63942364852608
 20
-74.25169418454391
 30
0.0
 10
84.95061127301514
 20
-71.83797416019074
 30
0.0
 10
84.95061127301514
 20
-71.83797416019074
 30
0.0
 10
84.95061127301514
 20
-71.83797416019074
 30
0.0
 10
87.53798258854144
 20
-57.16434355540645
 30
0.0
 10
87.53798258854144
 20
-57.16434355540645
 30
0.0
 10
87.53798258854144
 20
-57.16434355540645
 30
0.0
 10
101.2267734322312
 20
-59.57806357975962
 30
0.0
 10
101.2267734322312
 20
-59.57806357975962
 30
0.0
  0
SPLINE
  5
8A
330
70
100
AcDbEntity
  8
cut
 62
    18
420
        0
370
     9
100
AcDbSpline
210
0.0
220
0.0
230
1.0
 70
    11
 71
     3
 72
    17
 73
    13
 74
     0
 42
0.0000000001
 43
0.0000000001
 40
0.0
 40
0.0
 40
0.0
 40
0.0
 40
1.0
 40
1.0
 40
1.0
 40
2.0
 40
2.0
 40
2.0
 40
3.0
 40
3.0
 40
3.0
 40
4.0
 40
4.0
 40
4.0
 40
4.0
 10
88.25860958631983
 20
-53.07738371756101
 30
0.0
 10
88.25860958631983
 20
-53.07738371756101
 30
0.0
 10
90.84598090184645
 20
-38.40375311277673
 30
0.0
 10
90.84598090184645
 20
-38.40375311277673
 30
0.0
 10
90.84598090184645
 20
-38.40375311277673
 30
0.0
 10
104.5347717455356
 20
-40.81747313712989
 30
0.0
 10
104.5347717455356
 20
-40.81747313712989
 30
0.0
 10
104.5347717455356
 20
-40.81747313712989
 30
0.0
 10
101.9474219618304
 20
-55.49110374191418
 30
0.0
 10
101.9474219618304
 20
-55.49110374191418
 30
0.0
 10
101.9474219618304
 20
-55.49110374191418
 30
0.0
 10
88.25860958631983
 20
-53.07738371756101
 30
0.0
 10
88.25860958631983
 20
-53.07738371756101
 30
0.0
  0
SPLINE
  5
8B
330
70
100
AcDbEntity
  8
cut
 62
    18
420
        0
370
     9
100
AcDbSpline
210
0.0
220
0.0
230
1.0
 70
     9
 71
     3
 72
    29
 73
    25
 74
     0
 42
0.0000000001
 43
0.0000000001
 40
0.0
 40
0.0
 40
0.0
 40
0.0
 40
1.0
 40
1.0
 40
1.0
 40
2.0
 40
2.0
 40
2.0
 40
3.0
 40
3.0
 40
3.0
 40
4.0
 40
4.0
 40
4.0
 40
5.0
 40
5.0
 40
5.0
 40
6.0
 40
6.0
 40
6.0
 40
7.0
 40
7.0
 40
7.0
 40
8.0
 40
8.0
 40
8.0
 40
8.0
 10
155.6722015565101
 20
-11.75156856947232
 30
0.0
 10
155.6722015565101
 20
-11.75156856947232
 30
0.0
 10
156.1063261390723
 20
-9.289531080938525
 30
0.0
 10
156.1063261390723
 20
-9.289531080938525
 30
0.0
 10
156.1782424224647
 20
-8.881610243638162
 30
0.0
 10
156.5672363074254
 20
-8.609232381836239
 30
0.0
 10
156.9751566633752
 20
-8.681170281936969
 30
0.0
 10
156.9751566633752
 20
-8.681170281936969
 30
0.0
 10
163.9779293973434
 20
-9.913308682236575
 30
0.0
 10
163.9779293973434
 20
-9.913308682236575
 30
0.0
 10
164.3858497532931
 20
-9.985225050491164
 30
0.0
 10
164.6582272936866
 20
-10.37421939446943
 30
0.0
 10
164.5862894784724
 20
-10.78214023177044
 30
0.0
 10
164.5862894784724
 20
-10.78214023177044
 30
0.0
 10
164.1521648959102
 20
-13.24415618845681
 30
0.0
 10
164.1521648959102
 20
-13.24415618845681
 30
0.0
 10
164.0802486125177
 20
-13.65207702575782
 30
0.0
 10
163.6912547275571
 20
-13.92445488755974
 30
0.0
 10
163.2833343716073
 20
-13.85253851930515
 30
0.0
 10
163.2833343716073
 20
-13.85253851930515
 30
0.0
 10
156.2805831694602
 20
-12.62040011900555
 30
0.0
 10
156.2805831694602
 20
-12.62040011900555
 30
0.0
 10
155.8726628135111
 20
-12.54848375075096
 30
0.0
 10
155.6002852731176
 20
-12.15948940677332
 30
0.0
 10
155.6722015565101
 20
-11.75156856947232
 30
0.0
  0
SPLINE
  5
8C
330
70
100
AcDbEntity
  8
cut
 62
    18
420
        0
370
     9
100
AcDbSpline
210
0.0
220
0.0
230
1.0
 70
    11
 71
     3
 72
    17
 73
    13
 74
     0
 42
0.0000000001
 43
0.0000000001
 40
0.0
 40
0.0
 40
0.0
 40
0.0
 40
1.0
 40
1.0
 40
1.0
 40
2.0
 40
2.0
 40
2.0
 40
3.0
 40
3.0
 40
3.0
 40
4.0
 40
4.0
 40
4.0
 40
4.0
 10
171.5248112574581
 20
-53.07734065386744
 30
0.0
 10
171.5248112574581
 20
-53.07734065386744
 30
0.0
 10
157.8359988819475
 20
-55.49106067822061
 30
0.0
 10
157.8359988819475
 20
-55.49106067822061
 30
0.0
 10
157.8359988819475
 20
-55.49106067822061
 30
0.0
 10
155.2486706300634
 20
-40.81740854158954
 30
0.0
 10
155.2486706300634
 20
-40.81740854158954
 30
0.0
 10
155.2486706300634
 20
-40.81740854158954
 30
0.0
 10
168.9374614737529
 20
-38.4037100490838
 30
0.0
 10
168.9374614737529
 20
-38.4037100490838
 30
0.0
 10
168.9374614737529
 20
-38.4037100490838
 30
0.0
 10
171.5248112574581
 20
-53.07734065386744
 30
0.0
 10
171.5248112574581
 20
-53.07734065386744
 30
0.0
  0
SPLINE
  5
8D
330
70
100
AcDbEntity
  8
cut
 62
    18
420
        0
370
     9
100
AcDbSpline
210
0.0
220
0.0
230
1.0
 70
    11
 71
     3
 72
    17
 73
    13
 74
     0
 42
0.0000000001
 43
0.0000000001
 40
0.0
 40
0.0
 40
0.0
 40
0.0
 40
1.0
 40
1.0
 40
1.0
 40
2.0
 40
2.0
 40
2.0
 40
3.0
 40
3.0
 40
3.0
 40
4.0
 40
4.0
 40
4.0
 40
4.0
 10
183.7826618480294
 20
-12.88935441716964
 30
0.0
 10
183.7826618480294
 20
-12.88935441716964
 30
0.0
 10
186.3700116317346
 20
-27.56298502195393
 30
0.0
 10
186.3700116317346
 20
-27.56298502195393
 30
0.0
 10
186.3700116317346
 20
-27.56298502195393
 30
0.0
 10
172.681199256224
 20
-29.9767050463071
 30
0.0
 10
172.681199256224
 20
-29.9767050463071
 30
0.0
 10
172.681199256224
 20
-29.9767050463071
 30
0.0
 10
170.0938710043399
 20
-15.30305290967667
 30
0.0
 10
170.0938710043399
 20
-15.30305290967667
 30
0.0
 10
170.0938710043399
 20
-15.30305290967667
 30
0.0
 10
183.7826618480294
 20
-12.88935441716964
 30
0.0
 10
183.7826618480294
 20
-12.88935441716964
 30
0.0
  0
SPLINE
  5
8E
330
70
100
AcDbEntity
  8
cut
 62
    18
420
        0
370
     9
100
AcDbSpline
210
0.0
220
0.0
230
1.0
 70
    11
 71
     3
 72
    17
 73
    13
 74
     0
 42
0.0000000001
 43
0.0000000001
 40
0.0
 40
0.0
 40
0.0
 40
0.0
 40
1.0
 40
1.0
 40
1.0
 40
2.0
 40
2.0
 40
2.0
 40
3.0
 40
3.0
 40
3.0
 40
4.0
 40
4.0
 40
4.0
 40
4.0
 10
174.8328095707628
 20
-71.83793109649717
 30
0.0
 10
174.8328095707628
 20
-71.83793109649717
 30
0.0
 10
161.1439971952522
 20
-74.25165112085034
 30
0.0
 10
161.1439971952522
 20
-74.25165112085034
 30
0.0
 10
161.1439971952522
 20
-74.25165112085034
 30
0.0
 10
158.5566689433681
 20
-59.57799898421928
 30
0.0
 10
158.5566689433681
 20
-59.57799898421928
 30
0.0
 10
158.5566689433681
 20
-59.57799898421928
 30
0.0
 10
172.2454597870583
 20
-57.1643004917129
 30
0.0
 10
172.2454597870583
 20
-57.1643004917129
 30
0.0
 10
172.2454597870583
 20
-57.1643004917129
 30
0.0
 10
174.8328095707628
 20
-71.83793109649717
 30
0.0
 10
174.8328095707628
 20
-71.83793109649717
 30
0.0
  0
SPLINE
  5
8F
330
70
100
AcDbEntity
  8
cut
 62
    18
420
        0
370
     9
100
AcDbSpline
210
0.0
220
0.0
230
1.0
 70
    11
 71
     3
 72
    17
 73
    13
 74
     0
 42
0.0000000001
 43
0.0000000001
 40
0.0
 40
0.0
 40
0.0
 40
0.0
 40
1.0
 40
1.0
 40
1.0
 40
2.0
 40
2.0
 40
2.0
 40
3.0
 40
3.0
 40
3.0
 40
4.0
 40
4.0
 40
4.0
 40
4.0
 10
189.6780099450393
 20
-46.32355393273751
 30
0.0
 10
189.6780099450393
 20
-46.32355393273751
 30
0.0
 10
175.9891975695286
 20
-48.73727395709068
 30
0.0
 10
175.9891975695286
 20
-48.73727395709068
 30
0.0
 10
175.9891975695286
 20
-48.73727395709068
 30
0.0
 10
173.4018693176446
 20
-34.06362182045898
 30
0.0
 10
173.4018693176446
 20
-34.06362182045898
 30
0.0
 10
173.4018693176446
 20
-34.06362182045898
 30
0.0
 10
187.0906601613347
 20
-31.6499233279526
 30
0.0
 10
187.0906601613347
 20
-31.6499233279526
 30
0.0
 10
187.0906601613347
 20
-31.6499233279526
 30
0.0
 10
189.6780099450393
 20
-46.32355393273751
 30
0.0
 10
189.6780099450393
 20
-46.32355393273751
 30
0.0
  0
SPLINE
  5
90
330
70
100
AcDbEntity
  8
cut
 62
    18
420
        0
370
     9
100
AcDbSpline
210
0.0
220
0.0
230
1.0
 70
    11
 71
     3
 72
    50
 73
    46
 74
     0
 42
0.0000000001
 43
0.0000000001
 40
0.0
 40
0.0
 40
0.0
 40
0.0
 40
1.0
 40
1.0
 40
1.0
 40
2.0
 40
2.0
 40
2.0
 40
3.0
 40
3.0
 40
3.0
 40
4.0
 40
4.0
 40
4.0
 40
5.0
 40
5.0
 40
5.0
 40
6.0
 40
6.0
 40
6.0
 40
7.0
 40
7.0
 40
7.0
 40
8.0
 40
8.0
 40
8.0
 40
9.0
 40
9.0
 40
9.0
 40
10.0
 40
10.0
 40
10.0
 40
11.0
 40
11.0
 40
11.0
 40
12.0
 40
12.0
 40
12.0
 40
13.0
 40
13.0
 40
13.0
 40
14.0
 40
14.0
 40
14.0
 40
15.0
 40
15.0
 40
15.0
 40
15.0
 10
203.150621302124
 20
-13.0271367047335
 30
0.0
 10
203.150621302124
 20
-13.0271367047335
 30
0.0
 10
205.3005090709531
 20
-25.21976026396833
 30
0.0
 10
205.3005090709531
 20
-25.21976026396833
 30
0.0
 10
205.3005090709531
 20
-25.21976026396833
 30
0.0
 10
210.3722650003698
 20
-24.32547807153718
 30
0.0
 10
210.3722650003698
 20
-24.32547807153718
 30
0.0
 10
210.3722650003698
 20
-24.32547807153718
 30
0.0
 10
208.8301559534925
 20
-15.57967254529481
 30
0.0
 10
208.8301559534925
 20
-15.57967254529481
 30
0.0
 10
208.8301559534925
 20
-15.57967254529481
 30
0.0
 10
222.518946797182
 20
-13.16597405278907
 30
0.0
 10
222.518946797182
 20
-13.16597405278907
 30
0.0
 10
222.518946797182
 20
-13.16597405278907
 30
0.0
 10
225.1062965808865
 20
-27.83960465757271
 30
0.0
 10
225.1062965808865
 20
-27.83960465757271
 30
0.0
 10
225.1062965808865
 20
-27.83960465757271
 30
0.0
 10
211.4448511503434
 20
-30.24850154824653
 30
0.0
 10
211.4448511503434
 20
-30.24850154824653
 30
0.0
 10
211.4448511503434
 20
-30.24850154824653
 30
0.0
 10
211.4448296185222
 20
-30.24850154824653
 30
0.0
 10
211.4448296185222
 20
-30.24850154824653
 30
0.0
 10
211.4448296185222
 20
-30.24850154824653
 30
0.0
 10
211.4174842053759
 20
-30.25332468192588
 30
0.0
 10
211.4174842053759
 20
-30.25332468192588
 30
0.0
 10
211.4174842053759
 20
-30.25332468192588
 30
0.0
 10
211.4167305916279
 20
-30.24901831256932
 30
0.0
 10
211.4167305916279
 20
-30.24901831256932
 30
0.0
 10
211.4167305916279
 20
-30.24901831256932
 30
0.0
 10
208.8152344012796
 20
-30.2965175665722
 30
0.0
 10
208.8152344012796
 20
-30.2965175665722
 30
0.0
 10
207.2987266900171
 20
-30.32422905338167
 30
0.0
 10
205.9875679592078
 20
-29.24427774614299
 30
0.0
 10
205.7241907201488
 20
-27.750548939279
 30
0.0
 10
205.7241907201488
 20
-27.750548939279
 30
0.0
 10
205.7160947553121
 20
-27.70462151009191
 30
0.0
 10
205.7160947553121
 20
-27.70462151009191
 30
0.0
 10
205.7160947553121
 20
-27.70462151009191
 30
0.0
 10
192.0491587103179
 20
-30.11448733387031
 30
0.0
 10
192.0491587103179
 20
-30.11448733387031
 30
0.0
 10
192.0491587103179
 20
-30.11448733387031
 30
0.0
 10
189.4618304584344
 20
-15.44083519723924
 30
0.0
 10
189.4618304584344
 20
-15.44083519723924
 30
0.0
 10
189.4618304584344
 20
-15.44083519723924
 30
0.0
 10
203.150621302124
 20
-13.0271367047335
 30
0.0
 10
203.150621302124
 20
-13.0271367047335
 30
0.0
  0
SPLINE
  5
91
330
70
100
AcDbEntity
  8
cut
 62
    18
420
        0
370
     9
100
AcDbSpline
210
0.0
220
0.0
230
1.0
 70
    11
 71
     3
 72
    17
 73
    13
 74
     0
 42
0.0000000001
 43
0.0000000001
 40
0.0
 40
0.0
 40
0.0
 40
0.0
 40
1.0
 40
1.0
 40
1.0
 40
2.0
 40
2.0
 40
2.0
 40
3.0
 40
3.0
 40
3.0
 40
4.0
 40
4.0
 40
4.0
 40
4.0
 10
228.4142948941918
 20
-46.60019510020307
 30
0.0
 10
228.4142948941918
 20
-46.60019510020307
 30
0.0
 10
214.7254825186806
 20
-49.01391512455624
 30
0.0
 10
214.7254825186806
 20
-49.01391512455624
 30
0.0
 10
214.7254825186806
 20
-49.01391512455624
 30
0.0
 10
212.1381542667971
 20
-34.34026298792454
 30
0.0
 10
212.1381542667971
 20
-34.34026298792454
 30
0.0
 10
212.1381542667971
 20
-34.34026298792454
 30
0.0
 10
225.8269451104867
 20
-31.92656449541816
 30
0.0
 10
225.8269451104867
 20
-31.92656449541816
 30
0.0
 10
225.8269451104867
 20
-31.92656449541816
 30
0.0
 10
228.4142948941918
 20
-46.60019510020307
 30
0.0
 10
228.4142948941918
 20
-46.60019510020307
 30
0.0
  0
SPLINE
  5
92
330
70
100
AcDbEntity
  8
cut
 62
    18
420
        0
370
     9
100
AcDbSpline
210
0.0
220
0.0
230
1.0
 70
     9
 71
     3
 72
   179
 73
   175
 74
     0
 42
0.0000000001
 43
0.0000000001
 40
0.0
 40
0.0
 40
0.0
 40
0.0
 40
1.0
 40
1.0
 40
1.0
 40
2.0
 40
2.0
 40
2.0
 40
3.0
 40
3.0
 40
3.0
 40
4.0
 40
4.0
 40
4.0
 40
5.0
 40
5.0
 40
5.0
 40
6.0
 40
6.0
 40
6.0
 40
7.0
 40
7.0
 40
7.0
 40
8.0
 40
8.0
 40
8.0
 40
9.0
 40
9.0
 40
9.0
 40
10.0
 40
10.0
 40
10.0
 40
11.0
 40
11.0
 40
11.0
 40
12.0
 40
12.0
 40
12.0
 40
13.0
 40
13.0
 40
13.0
 40
14.0
 40
14.0
 40
14.0
 40
15.0
 40
15.0
 40
15.0
 40
16.0
 40
16.0
 40
16.0
 40
17.0
 40
17.0
 40
17.0
 40
18.0
 40
18.0
 40
18.0
 40
19.0
 40
19.0
 40
19.0
 40
20.0
 40
20.0
 40
20.0
 40
21.0
 40
21.0
 40
21.0
 40
22.0
 40
22.0
 40
22.0
 40
23.0
 40
23.0
 40
23.0
 40
24.0
 40
24.0
 40
24.0
 40
25.0
 40
25.0
 40
25.0
 40
26.0
 40
26.0
 40
26.0
 40
27.0
 40
27.0
 40
27.0
 40
28.0
 40
28.0
 40
28.0
 40
29.0
 40
29.0
 40
29.0
 40
30.0
 40
30.0
 40
30.0
 40
31.0
 40
31.0
 40
31.0
 40
32.0
 40
32.0
 40
32.0
 40
33.0
 40
33.0
 40
33.0
 40
34.0
 40
34.0
 40
34.0
 40
35.0
 40
35.0
 40
35.0
 40
36.0
 40
36.0
 40
36.0
 40
37.0
 40
37.0
 40
37.0
 40
38.0
 40
38.0
 40
38.0
 40
39.0
 40
39.0
 40
39.0
 40
40.0
 40
40.0
 40
40.0
 40
41.0
 40
41.0
 40
41.0
 40
42.0
 40
42.0
 40
42.0
 40
43.0
 40
43.0
 40
43.0
 40
44.0
 40
44.0
 40
44.0
 40
45.0
 40
45.0
 40
45.0
 40
46.0
 40
46.0
 40
46.0
 40
47.0
 40
47.0
 40
47.0
 40
48.0
 40
48.0
 40
48.0
 40
49.0
 40
49.0
 40
49.0
 40
50.0
 40
50.0
 40
50.0
 40
51.0
 40
51.0
 40
51.0
 40
52.0
 40
52.0
 40
52.0
 40
53.0
 40
53.0
 40
53.0
 40
54.0
 40
54.0
 40
54.0
 40
55.0
 40
55.0
 40
55.0
 40
56.0
 40
56.0
 40
56.0
 40
57.0
 40
57.0
 40
57.0
 40
58.0
 40
58.0
 40
58.0
 40
58.0
 10
236.9949194985199
 20
-66.03404332803712
 30
0.0
 10
236.9949194985199
 20
-66.03404332803712
 30
0.0
 10
227.25734706807
 20
-10.80128204355972
 30
0.0
 10
227.25734706807
 20
-10.80128204355972
 30
0.0
 10
227.0045204214849
 20
-9.367540961832652
 30
0.0
 10
225.7587968958349
 20
-8.322277459761068
 30
0.0
 10
224.302922793564
 20
-8.322277459761068
 30
0.0
 10
224.302922793564
 20
-8.322277459761068
 30
0.0
 10
164.5212849097412
 20
-8.322277459761068
 30
0.0
 10
164.5212849097412
 20
-8.322277459761068
 30
0.0
 10
164.5212849097412
 20
-8.322277459761068
 30
0.0
 10
155.181685133766
 20
-6.686718378138708
 30
0.0
 10
155.181685133766
 20
-6.686718378138708
 30
0.0
 10
154.9101903980484
 20
-6.63917606044226
 30
0.0
 10
154.6514209687638
 20
-6.820323487426053
 30
0.0
 10
154.6031681570628
 20
-7.091689352429826
 30
0.0
 10
154.6031681570628
 20
-7.091689352429826
 30
0.0
 10
153.95372536075
 20
-10.74361975787535
 30
0.0
 10
153.95372536075
 20
-10.74361975787535
 30
0.0
 10
153.95372536075
 20
-10.74361975787535
 30
0.0
 10
151.6750988319197
 20
-11.57298343225568
 30
0.0
 10
151.6750988319197
 20
-11.57298343225568
 30
0.0
 10
151.6750988319197
 20
-11.57298343225568
 30
0.0
 10
149.1076659829867
 20
-9.410776910172536
 30
0.0
 10
149.1076659829867
 20
-9.410776910172536
 30
0.0
 10
148.8132613893261
 20
-9.162837694468462
 30
0.0
 10
148.3608778222374
 20
-9.326565857404961
 30
0.0
 10
148.2933324985842
 20
-9.705461765242736
 30
0.0
 10
148.2933324985842
 20
-9.705461765242736
 30
0.0
 10
145.853260373084
 20
-23.39310604214788
 30
0.0
 10
145.853260373084
 20
-23.39310604214788
 30
0.0
 10
145.7564533041822
 20
-23.9362468772443
 30
0.0
 10
145.2380531727577
 20
-24.29836947643826
 30
0.0
 10
144.6947622558239
 20
-24.20235897163307
 30
0.0
 10
144.6947622558239
 20
-24.20235897163307
 30
0.0
 10
128.8366834722466
 20
-21.39983838992331
 30
0.0
 10
128.8366834722466
 20
-21.39983838992331
 30
0.0
 10
128.5649518864939
 20
-21.35180083975022
 30
0.0
 10
128.3056656934965
 20
-21.53301286227436
 30
0.0
 10
128.257391349973
 20
-21.8047232368273
 30
0.0
 10
128.257391349973
 20
-21.8047232368273
 30
0.0
 10
127.6561152380768
 20
-25.18828070397122
 30
0.0
 10
127.6561152380768
 20
-25.18828070397122
 30
0.0
 10
127.6561152380768
 20
-25.18828070397122
 30
0.0
 10
125.3774887092462
 20
-26.01764437835219
 30
0.0
 10
125.3774887092462
 20
-26.01764437835219
 30
0.0
 10
125.3774887092462
 20
-26.01764437835219
 30
0.0
 10
123.5199384792256
 20
-24.45897552159061
 30
0.0
 10
123.5199384792256
 20
-24.45897552159061
 30
0.0
 10
123.5199384792256
 20
-24.45897552159061
 30
0.0
 10
124.1205471046596
 20
-21.0744706531876
 30
0.0
 10
124.1205471046596
 20
-21.0744706531876
 30
0.0
 10
124.1688214481824
 20
-20.80243730093357
 30
0.0
 10
123.9873297258126
 20
-20.54282782427321
 30
0.0
 10
123.7152536309183
 20
-20.49474721040719
 30
0.0
 10
123.7152536309183
 20
-20.49474721040719
 30
0.0
 10
117.5855962537055
 20
-19.41147999876394
 30
0.0
 10
117.5855962537055
 20
-19.41147999876394
 30
0.0
 10
117.3137570088466
 20
-19.36344244859213
 30
0.0
 10
117.0544277522059
 20
-19.54476213034954
 30
0.0
 10
117.00626106779
 20
-19.81658016413575
 30
0.0
 10
117.00626106779
 20
-19.81658016413575
 30
0.0
 10
116.4085807700626
 20
-23.18835971109077
 30
0.0
 10
116.4085807700626
 20
-23.18835971109077
 30
0.0
 10
116.4085807700626
 20
-23.18835971109077
 30
0.0
 10
114.1299542412323
 20
-24.01770185362367
 30
0.0
 10
114.1299542412323
 20
-24.01770185362367
 30
0.0
 10
114.1299542412323
 20
-24.01770185362367
 30
0.0
 10
112.2724040112114
 20
-22.45903299686337
 30
0.0
 10
112.2724040112114
 20
-22.45903299686337
 30
0.0
 10
112.2724040112114
 20
-22.45903299686337
 30
0.0
 10
112.8722159592548
 20
-19.08682281297271
 30
0.0
 10
112.8722159592548
 20
-19.08682281297271
 30
0.0
 10
112.9206194937056
 20
-18.81472486517896
 30
0.0
 10
112.7391062395151
 20
-18.55498619743726
 30
0.0
 10
112.4669655491561
 20
-18.50688405172446
 30
0.0
 10
112.4669655491561
 20
-18.50688405172446
 30
0.0
 10
111.5900821236597
 20
-18.35191935042857
 30
0.0
 10
111.5900821236597
 20
-18.35191935042857
 30
0.0
 10
111.3355759950072
 20
-18.30693932249928
 30
0.0
 10
111.108372215858
 20
-18.16517364328124
 30
0.0
 10
110.9560991750941
 20
-17.95635779318154
 30
0.0
 10
110.9560991750941
 20
-17.95635779318154
 30
0.0
 10
110.3907381412506
 20
-17.18108211791963
 30
0.0
 10
110.3907381412506
 20
-17.18108211791963
 30
0.0
 10
110.2387665459858
 20
-16.9726753729088
 30
0.0
 10
110.0121225941927
 20
-16.8310388847721
 30
0.0
 10
109.7581762928959
 20
-16.78580047468078
 30
0.0
 10
109.7581762928959
 20
-16.78580047468078
 30
0.0
 10
97.40946141612205
 20
-14.58556871117919
 30
0.0
 10
97.40946141612205
 20
-14.58556871117919
 30
0.0
 10
97.07968003994269
 20
-14.52680830130889
 30
0.0
 10
96.80123052592103
 20
-14.30683895457569
 30
0.0
 10
96.66773323339604
 20
-13.99962256467853
 30
0.0
 10
96.66773323339604
 20
-13.99962256467853
 30
0.0
 10
95.83789683760382
 20
-12.08998460535841
 30
0.0
 10
95.83789683760382
 20
-12.08998460535841
 30
0.0
 10
95.70427035415056
 20
-11.78244523775887
 30
0.0
 10
95.42539020370176
 20
-11.56234669994497
 30
0.0
 10
95.09519972291611
 20
-11.50384467223607
 30
0.0
 10
95.09519972291611
 20
-11.50384467223607
 30
0.0
 10
77.13910332820166
 20
-8.322277459761068
 30
0.0
 10
77.13910332820166
 20
-8.322277459761068
 30
0.0
 10
77.13910332820166
 20
-8.322277459761068
 30
0.0
 10
35.48977826522641
 20
-8.322148268680372
 30
0.0
 10
35.48977826522641
 20
-8.322148268680372
 30
0.0
 10
34.03446399031162
 20
-8.322148268680372
 30
0.0
 10
32.78904191016103
 20
-9.366636624268416
 30
0.0
 10
32.53561237257674
 20
-10.79973175059135
 30
0.0
 10
32.53561237257674
 20
-10.79973175059135
 30
0.0
 10
22.76234018228748
 20
-66.02721773260697
 30
0.0
 10
22.76234018228748
 20
-66.02721773260697
 30
0.0
 10
22.47366305311337
 20
-67.65969776013939
 30
0.0
 10
23.56375457386479
 20
-69.21683785577875
 30
0.0
 10
25.19644799326666
 20
-69.50422341478894
 30
0.0
 10
25.19644799326666
 20
-69.50422341478894
 30
0.0
 10
44.23320497097129
 20
-72.81330222391175
 30
0.0
 10
44.23320497097129
 20
-72.81330222391175
 30
0.0
 10
44.43269729601027
 20
-72.84796849723207
 30
0.0
 10
44.63518254422079
 20
-72.862351770883
 30
0.0
 10
44.83758166514558
 20
-72.85623672639667
 30
0.0
 10
44.83758166514558
 20
-72.85623672639667
 30
0.0
 10
54.96425563966274
 20
-72.5498170148305
 30
0.0
 10
54.96425563966274
 20
-72.5498170148305
 30
0.0
 10
55.36248667599367
 20
-72.53775918063211
 30
0.0
 10
55.7591028257211
 20
-72.60515386106232
 30
0.0
 10
56.13100044450995
 20
-72.74806072815983
 30
0.0
 10
56.13100044450995
 20
-72.74806072815983
 30
0.0
 10
74.67670270393617
 20
-79.87441299417338
 30
0.0
 10
74.67670270393617
 20
-79.87441299417338
 30
0.0
 10
75.40598549390667
 20
-80.15464998005167
 30
0.0
 10
75.99718471340017
 20
-80.70831988822488
 30
0.0
 10
76.32455452558545
 20
-81.4176865804846
 30
0.0
 10
76.32455452558545
 20
-81.4176865804846
 30
0.0
 10
85.05790433892666
 20
-100.3413376988006
 30
0.0
 10
85.05790433892666
 20
-100.3413376988006
 30
0.0
 10
85.17335796513924
 20
-100.638714034718
 30
0.0
 10
85.42375151590944
 20
-100.8631835374288
 30
0.0
 10
85.73193647524941
 20
-100.945542851373
 30
0.0
 10
85.73193647524941
 20
-100.945542851373
 30
0.0
 10
108.1048553886173
 20
-106.9230849641364
 30
0.0
 10
108.1048553886173
 20
-106.9230849641364
 30
0.0
 10
108.1048553886173
 20
-106.9230849641364
 30
0.0
 10
151.6682086490795
 20
-106.9230849641364
 30
0.0
 10
151.6682086490795
 20
-106.9230849641364
 30
0.0
 10
151.6682086490795
 20
-106.9230849641364
 30
0.0
 10
174.0588482514387
 20
-100.9234081128803
 30
0.0
 10
174.0588482514387
 20
-100.9234081128803
 30
0.0
 10
174.3670978062433
 20
-100.8408765441618
 30
0.0
 10
174.61744829337
 20
-100.6161701911364
 30
0.0
 10
174.7327081331909
 20
-100.3186000685979
 30
0.0
 10
174.7327081331909
 20
-100.3186000685979
 30
0.0
 10
183.4667684966372
 20
-81.41654539260512
 30
0.0
 10
183.4667684966372
 20
-81.41654539260512
 30
0.0
 10
183.7942244361079
 20
-80.70786771944245
 30
0.0
 10
184.3850145509955
 20
-80.15475763928559
 30
0.0
 10
185.1136944499677
 20
-79.87464984448799
 30
0.0
 10
185.1136944499677
 20
-79.87464984448799
 30
0.0
 10
203.6521189537689
 20
-72.74825451478088
 30
0.0
 10
203.6521189537689
 20
-72.74825451478088
 30
0.0
 10
204.0242318907715
 20
-72.60521845660266
 30
0.0
 10
204.4211064223558
 20
-72.53778071247889
 30
0.0
 10
204.8195743087212
 20
-72.54988161037083
 30
0.0
 10
204.8195743087212
 20
-72.54988161037083
 30
0.0
 10
214.9455377331329
 20
-72.85731331873582
 30
0.0
 10
214.9455377331329
 20
-72.85731331873582
 30
0.0
 10
215.148066044986
 20
-72.86344989506893
 30
0.0
 10
215.3506804841248
 20
-72.849066621418
 30
0.0
 10
215.5503020000927
 20
-72.81435728440411
 30
0.0
 10
215.5503020000927
 20
-72.81435728440411
 30
0.0
 10
234.5609839421119
 20
-69.5095202490975
 30
0.0
 10
234.5609839421119
 20
-69.5095202490975
 30
0.0
 10
236.1929022159437
 20
-69.22202703085341
 30
0.0
 10
237.2826707593755
 20
-67.66589893201284
 30
0.0
 10
236.9949194985199
 20
-66.03404332803712
 30
0.0
  0
ENDSEC
  0
SECTION
  2
OBJECTS
  0
DICTIONARY
  5
C
330
0
100
AcDbDictionary
281
     1
  3
ACAD_COLOR
350
63
  3
ACAD_DETAILVIEWSTYLE
350
6A
  3
ACAD_GROUP
350
D
  3
ACAD_LAYOUT
350
62
  3
ACAD_MATERIAL
350
10
  3
ACAD_MLEADERSTYLE
350
66
  3
ACAD_MLINESTYLE
350
5F
  3
ACAD_PLOTSETTINGS
350
61
  3
ACAD_PLOTSTYLENAME
350
E
  3
ACAD_SCALELIST
350
42
  3
ACAD_SECTIONVIEWSTYLE
350
68
  3
ACAD_TABLESTYLE
350
64
  3
ACAD_VISUALSTYLE
350
29
  3
ACDB_RECOMPOSE_DATA
350
9C
  3
AcDbVariableDictionary
350
94
  0
DICTIONARY
  5
63
102
{ACAD_REACTORS
330
C
102
}
330
C
100
AcDbDictionary
281
     1
  0
DICTIONARY
  5
6A
102
{ACAD_REACTORS
330
C
102
}
330
C
100
AcDbDictionary
281
     1
  3
Imperial24
350
6B
  0
DICTIONARY
  5
D
102
{ACAD_REACTORS
330
C
102
}
330
C
100
AcDbDictionary
281
     1
  0
DICTIONARY
  5
62
102
{ACAD_REACTORS
330
C
102
}
330
C
100
AcDbDictionary
281
     1
  3
Layout1
350
6F
  3
Layout2
350
77
  3
Model
350
73
  0
DICTIONARY
  5
10
102
{ACAD_REACTORS
330
C
102
}
330
C
100
AcDbDictionary
281
     1
  3
ByBlock
350
19
  3
ByLayer
350
11
  3
Global
350
21
  0
DICTIONARY
  5
66
102
{ACAD_REACTORS
330
C
102
}
330
C
100
AcDbDictionary
281
     1
  3
Standard
350
67
  0
DICTIONARY
  5
5F
102
{ACAD_REACTORS
330
C
102
}
330
C
100
AcDbDictionary
281
     1
  3
Standard
350
60
  0
DICTIONARY
  5
61
102
{ACAD_REACTORS
330
C
102
}
330
C
100
AcDbDictionary
281
     1
  0
ACDBDICTIONARYWDFLT
  5
E
102
{ACAD_REACTORS
330
C
102
}
330
C
100
AcDbDictionary
281
     1
  3
Normal
350
F
100
AcDbDictionaryWithDefault
340
F
  0
DICTIONARY
  5
42
102
{ACAD_REACTORS
330
C
102
}
330
C
100
AcDbDictionary
281
     1
  3
A0
350
43
  3
A1
350
44
  3
A2
350
45
  3
A3
350
46
  3
A4
350
47
  3
A5
350
48
  3
A6
350
49
  3
A7
350
4A
  3
A8
350
4B
  3
A9
350
4C
  3
B0
350
4D
  3
B1
350
4E
  3
B2
350
4F
  3
B3
350
50
  3
B4
350
51
  3
B5
350
52
  3
B6
350
53
  0
DICTIONARY
  5
68
102
{ACAD_REACTORS
330
C
102
}
330
C
100
AcDbDictionary
281
     1
  3
Imperial24
350
69
  0
DICTIONARY
  5
64
102
{ACAD_REACTORS
330
C
102
}
330
C
100
AcDbDictionary
281
     1
  3
Standard
350
65
  0
DICTIONARY
  5
29
102
{ACAD_REACTORS
330
C
102
}
330
C
100
AcDbDictionary
281
     1
  3
2dWireframe
350
2F
  3
Basic
350
2E
  3
Brighten
350
35
  3
ColorChange
350
39
  3
Conceptual
350
32
  3
Dim
350
34
  3
EdgeColorOff
350
41
  3
Facepattern
350
38
  3
Flat
350
2A
  3
FlatWithEdges
350
2B
  3
Gouraud
350
2C
  3
GouraudWithEdges
350
2D
  3
Hidden
350
31
  3
JitterOff
350
3F
  3
Linepattern
350
37
  3
OverhangOff
350
40
  3
Realistic
350
33
  3
Shaded
350
3E
  3
Shaded with edges
350
3D
  3
Shades of Gray
350
3A
  3
Sketchy
350
3B
  3
Thicken
350
36
  3
Wireframe
350
30
  3
X-Ray
350
3C
  0
XRECORD
  5
9C
102
{ACAD_REACTORS
330
C
102
}
330
C
100
AcDbXrecord
280
     1
 90
        1
330
65
  0
DICTIONARY
  5
94
102
{ACAD_REACTORS
330
C
102
}
330
C
100
AcDbDictionary
281
     1
  3
CANNOSCALE
350
99
  3
CMLEADERSTYLE
350
96
  3
CTABLESTYLE
350
95
  3
CVIEWDETAILSTYLE
350
97
  3
CVIEWSECTIONSTYLE
350
98
  0
ACDBDETAILVIEWSTYLE
  5
6B
102
{ACAD_REACTORS
330
6A
102
}
330
6A
100
AcDbModelDocViewStyle
 70
     0
  3
Imperial24
290
     1
300
Imperial24
 90
        0
100
AcDbDetailViewStyle
 70
     0
 71
     0
 90
        3
 71
     1
340
55
 62
   256
 40
0.24
340
0
 62
   256
 40
0.24
300

 40
0.36
280
     3
 71
     2
340
5D
 90
       25
 62
   256
 71
     3
340
55
 62
   256
 40
0.24
 90
        1
 40
0.75
 90
        1
300
%<\AcVar ViewType \f "%tc1">% %<\AcVar ViewDetailId>%\PSCALE %<\AcVar ViewScale \f "%sn">%
 71
     4
340
5D
 90
       25
 62
   256
340
5D
 90
       25
 62
   256
280
     0
  0
LAYOUT
  5
6F
102
{ACAD_REACTORS
330
62
102
}
330
62
100
AcDbPlotSettings
  1

  2

  4

  6

 40
0.0
 41
0.0
 42
0.0
 43
0.0
 44
0.0
 45
0.0
 46
0.0
 47
0.0
 48
0.0
 49
0.0
140
0.0
141
0.0
142
1.0
143
1.0
 70
   688
 72
     0
 73
     0
 74
     5
  7

 75
    16
147
1.0
 76
     0
 77
     2
 78
   300
148
0.0
149
0.0
100
AcDbLayout
  1
Layout1
 70
     1
 71
     1
 10
0.0
 20
0.0
 11
12.0
 21
9.0
 12
0.0
 22
0.0
 32
0.0
 14
0.0
 24
0.0
 34
0.0
 15
0.0
 25
0.0
 35
0.0
146
0.0
 13
0.0
 23
0.0
 33
0.0
 16
1.0
 26
0.0
 36
0.0
 17
0.0
 27
1.0
 37
0.0
 76
     0
330
6C
  0
LAYOUT
  5
77
102
{ACAD_REACTORS
330
62
102
}
330
62
100
AcDbPlotSettings
  1

  2

  4

  6

 40
0.0
 41
0.0
 42
0.0
 43
0.0
 44
0.0
 45
0.0
 46
0.0
 47
0.0
 48
0.0
 49
0.0
140
0.0
141
0.0
142
1.0
143
1.0
 70
   688
 72
     0
 73
     0
 74
     5
  7

 75
    16
147
1.0
 76
     0
 77
     2
 78
   300
148
0.0
149
0.0
100
AcDbLayout
  1
Layout2
 70
     1
 71
     2
 10
0.0
 20
0.0
 11
12.0
 21
9.0
 12
0.0
 22
0.0
 32
0.0
 14
0.0
 24
0.0
 34
0.0
 15
0.0
 25
0.0
 35
0.0
146
0.0
 13
0.0
 23
0.0
 33
0.0
 16
1.0
 26
0.0
 36
0.0
 17
0.0
 27
1.0
 37
0.0
 76
     0
330
74
  0
LAYOUT
  5
73
102
{ACAD_REACTORS
330
62
102
}
330
62
100
AcDbPlotSettings
  1

  2

  4

  6

 40
0.0
 41
0.0
 42
0.0
 43
0.0
 44
0.0
 45
0.0
 46
0.0
 47
0.0
 48
0.0
 49
0.0
140
0.0
141
0.0
142
1.0
143
1.0
 70
  1712
 72
     0
 73
     0
 74
     0
  7

 75
     0
147
1.0
 76
     0
 77
     2
 78
   300
148
0.0
149
0.0
100
AcDbLayout
  1
Model
 70
     1
 71
     0
 10
0.0
 20
0.0
 11
12.0
 21
9.0
 12
0.0
 22
0.0
 32
0.0
 14
0.0
 24
0.0
 34
0.0
 15
0.0
 25
0.0
 35
0.0
146
0.0
 13
0.0
 23
0.0
 33
0.0
 16
1.0
 26
0.0
 36
0.0
 17
0.0
 27
1.0
 37
0.0
 76
     0
330
70
  0
MATERIAL
  5
19
102
{ACAD_XDICTIONARY
360
1A
102
}
102
{ACAD_REACTORS
330
10
102
}
330
10
100
AcDbMaterial
  1
ByBlock
 72
     0
 43
0.0208333333333333
 43
0.0
 43
0.0
 43
0.0
 43
0.0
 43
0.0208333333333333
 43
0.0
 43
0.0
 43
0.0
 43
0.0
 43
1.0
 43
0.0
 43
0.0
 43
0.0
 43
0.0
 43
1.0
 77
     0
 47
0.0208333333333333
 47
0.0
 47
0.0
 47
0.0
 47
0.0
 47
0.0208333333333333
 47
0.0
 47
0.0
 47
0.0
 47
0.0
 47
1.0
 47
0.0
 47
0.0
 47
0.0
 47
0.0
 47
1.0
171
     0
 49
0.0208333333333333
 49
0.0
 49
0.0
 49
0.0
 49
0.0
 49
0.0208333333333333
 49
0.0
 49
0.0
 49
0.0
 49
0.0
 49
1.0
 49
0.0
 49
0.0
 49
0.0
 49
0.0
 49
1.0
175
     0
142
0.0208333333333333
142
0.0
142
0.0
142
0.0
142
0.0
142
0.0208333333333333
142
0.0
142
0.0
142
0.0
142
0.0
142
1.0
142
0.0
142
0.0
142
0.0
142
0.0
142
1.0
179
     0
144
0.0208333333333333
144
0.0
144
0.0
144
0.0
144
0.0
144
0.0208333333333333
144
0.0
144
0.0
144
0.0
144
0.0
144
1.0
144
0.0
144
0.0
144
0.0
144
0.0
144
1.0
147
0.0208333333333333
147
0.0
147
0.0
147
0.0
147
0.0
147
0.0208333333333333
147
0.0
147
0.0
147
0.0
147
0.0
147
1.0
147
0.0
147
0.0
147
0.0
147
0.0
147
1.0
  0
MATERIAL
  5
11
102
{ACAD_XDICTIONARY
360
12
102
}
102
{ACAD_REACTORS
330
10
102
}
330
10
100
AcDbMaterial
  1
ByLayer
 72
     0
 43
0.0208333333333333
 43
0.0
 43
0.0
 43
0.0
 43
0.0
 43
0.0208333333333333
 43
0.0
 43
0.0
 43
0.0
 43
0.0
 43
1.0
 43
0.0
 43
0.0
 43
0.0
 43
0.0
 43
1.0
 77
     0
 47
0.0208333333333333
 47
0.0
 47
0.0
 47
0.0
 47
0.0
 47
0.0208333333333333
 47
0.0
 47
0.0
 47
0.0
 47
0.0
 47
1.0
 47
0.0
 47
0.0
 47
0.0
 47
0.0
 47
1.0
171
     0
 49
0.0208333333333333
 49
0.0
 49
0.0
 49
0.0
 49
0.0
 49
0.0208333333333333
 49
0.0
 49
0.0
 49
0.0
 49
0.0
 49
1.0
 49
0.0
 49
0.0
 49
0.0
 49
0.0
 49
1.0
175
     0
142
0.0208333333333333
142
0.0
142
0.0
142
0.0
142
0.0
142
0.0208333333333333
142
0.0
142
0.0
142
0.0
142
0.0
142
1.0
142
0.0
142
0.0
142
0.0
142
0.0
142
1.0
179
     0
144
0.0208333333333333
144
0.0
144
0.0
144
0.0
144
0.0
144
0.0208333333333333
144
0.0
144
0.0
144
0.0
144
0.0
144
1.0
144
0.0
144
0.0
144
0.0
144
0.0
144
1.0
147
0.0208333333333333
147
0.0
147
0.0
147
0.0
147
0.0
147
0.0208333333333333
147
0.0
147
0.0
147
0.0
147
0.0
147
1.0
147
0.0
147
0.0
147
0.0
147
0.0
147
1.0
  0
MATERIAL
  5
21
102
{ACAD_XDICTIONARY
360
22
102
}
102
{ACAD_REACTORS
330
10
102
}
330
10
100
AcDbMaterial
  1
Global
 72
     0
 43
0.0208333333333333
 43
0.0
 43
0.0
 43
0.0
 43
0.0
 43
0.0208333333333333
 43
0.0
 43
0.0
 43
0.0
 43
0.0
 43
1.0
 43
0.0
 43
0.0
 43
0.0
 43
0.0
 43
1.0
 77
     0
 47
0.0208333333333333
 47
0.0
 47
0.0
 47
0.0
 47
0.0
 47
0.0208333333333333
 47
0.0
 47
0.0
 47
0.0
 47
0.0
 47
1.0
 47
0.0
 47
0.0
 47
0.0
 47
0.0
 47
1.0
171
     0
 49
0.0208333333333333
 49
0.0
 49
0.0
 49
0.0
 49
0.0
 49
0.0208333333333333
 49
0.0
 49
0.0
 49
0.0
 49
0.0
 49
1.0
 49
0.0
 49
0.0
 49
0.0
 49
0.0
 49
1.0
175
     0
142
0.0208333333333333
142
0.0
142
0.0
142
0.0
142
0.0
142
0.0208333333333333
142
0.0
142
0.0
142
0.0
142
0.0
142
1.0
142
0.0
142
0.0
142
0.0
142
0.0
142
1.0
179
     0
144
0.0208333333333333
144
0.0
144
0.0
144
0.0
144
0.0
144
0.0208333333333333
144
0.0
144
0.0
144
0.0
144
0.0
144
1.0
144
0.0
144
0.0
144
0.0
144
0.0
144
1.0
147
0.0208333333333333
147
0.0
147
0.0
147
0.0
147
0.0
147
0.0208333333333333
147
0.0
147
0.0
147
0.0
147
0.0
147
1.0
147
0.0
147
0.0
147
0.0
147
0.0
147
1.0
  0
MLEADERSTYLE
  5
67
102
{ACAD_REACTORS
330
66
102
}
330
66
100
AcDbMLeaderStyle
179
     2
170
     2
171
     1
172
     0
 90
        2
 40
0.0
 41
0.0
173
     1
 91
-1056964608
340
5B
 92
       -2
290
     1
 42
0.09
291
     1
 43
0.36
  3
Standard
 44
0.18
300

342
55
174
     1
178
     6
175
     1
176
     0
 93
-1056964608
 45
0.18
292
     0
297
     0
 46
0.18
 94
-1056964608
 47
1.0
 49
1.0
140
1.0
293
     1
141
0.0
294
     1
177
     0
142
1.0
295
     1
296
     0
143
0.125
271
     0
272
     9
273
     9
298
     1
  0
MLINESTYLE
  5
60
102
{ACAD_REACTORS
330
5F
102
}
330
5F
100
AcDbMlineStyle
  2
STANDARD
 70
     0
  3

 62
   256
 51
90.0
 52
90.0
 71
     2
 49
0.5
 62
   256
  6
BYLAYER
 49
-0.5
 62
   256
  6
BYLAYER
  0
ACDBPLACEHOLDER
  5
F
102
{ACAD_REACTORS
330
E
102
}
330
E
  0
SCALE
  5
43
102
{ACAD_REACTORS
330
42
102
}
330
42
100
AcDbScale
 70
     0
300
1:1
140
1.0
141
1.0
290
     1
  0
SCALE
  5
44
102
{ACAD_REACTORS
330
42
102
}
330
42
100
AcDbScale
 70
     0
300
1/128" = 1'-0"
140
0.0078125
141
12.0
290
     0
  0
SCALE
  5
45
102
{ACAD_REACTORS
330
42
102
}
330
42
100
AcDbScale
 70
     0
300
1/64" = 1'-0"
140
0.015625
141
12.0
290
     0
  0
SCALE
  5
46
102
{ACAD_REACTORS
330
42
102
}
330
42
100
AcDbScale
 70
     0
300
1/32" = 1'-0"
140
0.03125
141
12.0
290
     0
  0
SCALE
  5
47
102
{ACAD_REACTORS
330
42
102
}
330
42
100
AcDbScale
 70
     0
300
1/16" = 1'-0"
140
0.0625
141
12.0
290
     0
  0
SCALE
  5
48
102
{ACAD_REACTORS
330
42
102
}
330
42
100
AcDbScale
 70
     0
300
3/32" = 1'-0"
140
0.09375
141
12.0
290
     0
  0
SCALE
  5
49
102
{ACAD_REACTORS
330
42
102
}
330
42
100
AcDbScale
 70
     0
300
1/8" = 1'-0"
140
0.125
141
12.0
290
     0
  0
SCALE
  5
4A
102
{ACAD_REACTORS
330
42
102
}
330
42
100
AcDbScale
 70
     0
300
3/16" = 1'-0"
140
0.1875
141
12.0
290
     0
  0
SCALE
  5
4B
102
{ACAD_REACTORS
330
42
102
}
330
42
100
AcDbScale
 70
     0
300
1/4" = 1'-0"
140
0.25
141
12.0
290
     0
  0
SCALE
  5
4C
102
{ACAD_REACTORS
330
42
102
}
330
42
100
AcDbScale
 70
     0
300
3/8" = 1'-0"
140
0.375
141
12.0
290
     0
  0
SCALE
  5
4D
102
{ACAD_REACTORS
330
42
102
}
330
42
100
AcDbScale
 70
     0
300
1/2" = 1'-0"
140
0.5
141
12.0
290
     0
  0
SCALE
  5
4E
102
{ACAD_REACTORS
330
42
102
}
330
42
100
AcDbScale
 70
     0
300
3/4" = 1'-0"
140
0.75
141
12.0
290
     0
  0
SCALE
  5
4F
102
{ACAD_REACTORS
330
42
102
}
330
42
100
AcDbScale
 70
     0
300
1" = 1'-0"
140
1.0
141
12.0
290
     0
  0
SCALE
  5
50
102
{ACAD_REACTORS
330
42
102
}
330
42
100
AcDbScale
 70
     0
300
1-1/2" = 1'-0"
140
1.5
141
12.0
290
     0
  0
SCALE
  5
51
102
{ACAD_REACTORS
330
42
102
}
330
42
100
AcDbScale
 70
     0
300
3" = 1'-0"
140
3.0
141
12.0
290
     0
  0
SCALE
  5
52
102
{ACAD_REACTORS
330
42
102
}
330
42
100
AcDbScale
 70
     0
300
6" = 1'-0"
140
6.0
141
12.0
290
     0
  0
SCALE
  5
53
102
{ACAD_REACTORS
330
42
102
}
330
42
100
AcDbScale
 70
     0
300
1'-0" = 1'-0"
140
12.0
141
12.0
290
     0
  0
ACDBSECTIONVIEWSTYLE
  5
69
102
{ACAD_REACTORS
330
68
102
}
330
68
100
AcDbModelDocViewStyle
 70
     0
  3
Imperial24
290
     1
300
Imperial24
 90
        0
100
AcDbSectionViewStyle
 70
     0
 71
     0
 90
       78
 71
     1
340
55
 62
   256
 40
0.24
340
0
340
0
 62
   256
 40
0.24
300
I, O, Q, S, X, Z
 40
0.48
 90
        3
 40
0.18
 90
        1
 71
     2
340
5D
 90
       25
 62
   256
340
5D
 90
       50
 62
   256
 40
0.24
 40
0.0
 40
0.24
 71
     3
340
55
 62
   256
 40
0.24
 90
        1
 40
0.75
 90
        1
300
%<\AcVar ViewType \f "%tc1">% %<\AcVar ViewSectionStartId>%-%<\AcVar ViewSectionEndId>%\PSCALE %<\AcVar ViewScale \f "%sn">%
 71
     4
 62
   256
 62
   257
300
ANSI31
 40
1.0
 90
        0
290
     0
290
     0
 90
        6
 40
0.0
 40
1.570796326794896
 40
0.2617993877991494
 40
1.308996938995747
 40
-0.2617993877991494
 40
1.832595714594046
  0
TABLESTYLE
  5
65
102
{ACAD_XDICTIONARY
360
9A
102
}
102
{ACAD_REACTORS
330
64
102
}
330
64
100
AcDbTableStyle
280
     0
  3
Standard
 70
     0
 71
     0
 40
0.06
 41
0.06
280
     0
281
     0
  7
Standard
140
0.18
170
     2
 62
     0
 63
     7
283
     0
 90
      512
 91
        0
  1

274
    -2
284
     1
 64
     0
275
    -2
285
     1
 65
     0
276
    -2
286
     1
 66
     0
277
    -2
287
     1
 67
     0
278
    -2
288
     1
 68
     0
279
    -2
289
     1
 69
     0
  7
Standard
140
0.25
170
     5
 62
     0
 63
     7
283
     0
 90
      512
 91
        0
  1

274
    -2
284
     1
 64
     0
275
    -2
285
     1
 65
     0
276
    -2
286
     1
 66
     0
277
    -2
287
     1
 67
     0
278
    -2
288
     1
 68
     0
279
    -2
289
     1
 69
     0
  7
Standard
140
0.18
170
     5
 62
     0
 63
     7
283
     0
 90
      512
 91
        0
  1

274
    -2
284
     1
 64
     0
275
    -2
285
     1
 65
     0
276
    -2
286
     1
 66
     0
277
    -2
287
     1
 67
     0
278
    -2
288
     1
 68
     0
279
    -2
289
     1
 69
     0
  0
VISUALSTYLE
  5
2F
102
{ACAD_REACTORS
330
29
102
}
330
29
100
AcDbVisualStyle
  2
2dWireframe
 70
     4
177
     3
291
     0
 70
    58
 90
        0
176
     1
 90
        2
176
     1
 90
        0
176
     1
 90
        0
176
     1
 40
0.6
176
     1
 40
30.0
176
     1
 62
     7
420
 16777215
176
     1
 90
        1
176
     1
 90
        4
176
     1
 62
     7
176
     1
 62
   257
176
     1
 90
        1
176
     1
 90
        1
176
     1
 40
1.0
176
     1
 90
        0
176
     1
 62
   257
176
     1
 40
1.0
176
     1
 90
        1
176
     1
 90
        6
176
     1
 90
        2
176
     1
 62
     7
176
     1
 90
        5
176
     1
 90
        0
176
     1
 90
        0
176
     1
290
     0
176
     1
 90
        1
176
     1
 40
0.0
176
     1
 90
        0
176
     1
290
     1
176
     1
290
     1
176
     1
290
     0
176
     1
290
     0
176
     1
290
     0
176
     1
290
     0
176
     1
290
     0
176
     1
290
     0
176
     1
290
     0
176
     1
 90
       50
176
     1
 40
0.0
176
     1
 40
1.0
176
     1
 90
        0
176
     1
 62
    18
420
        0
176
     1
 90
       50
176
     1
 90
        3
176
     1
 62
     5
420
      255
176
     1
290
     0
176
     1
 90
       50
176
     1
 90
       50
176
     1
 90
       50
176
     1
290
     0
176
     1
 90
       50
176
     1
 62
   256
176
     0
 40
1.0
176
     0
 90
        2
176
     1
  1
strokes_ogs.tif
176
     1
290
     0
176
     1
 40
1.0
176
     1
 40
1.0
176
     1
  0
VISUALSTYLE
  5
2E
102
{ACAD_REACTORS
330
29
102
}
330
29
100
AcDbVisualStyle
  2
Basic
 70
     7
177
     3
291
     1
 70
    58
 90
        1
176
     1
 90
        0
176
     1
 90
        1
176
     1
 90
        0
176
     1
 40
0.6
176
     1
 40
30.0
176
     1
 62
     7
420
 16777215
176
     1
 90
        0
176
     1
 90
        4
176
     1
 62
     7
176
     1
 62
   257
176
     1
 90
        1
176
     1
 90
        1
176
     1
 40
1.0
176
     1
 90
        8
176
     1
 62
     7
176
     1
 40
1.0
176
     1
 90
        1
176
     1
 90
        6
176
     1
 90
        2
176
     1
 62
     7
176
     1
 90
        5
176
     1
 90
        0
176
     1
 90
        0
176
     1
290
     0
176
     1
 90
        1
176
     1
 40
0.0
176
     1
 90
        0
176
     1
290
     0
176
     1
290
     1
176
     1
290
     1
176
     1
290
     0
176
     1
290
     0
176
     1
290
     0
176
     1
290
     0
176
     1
290
     0
176
     1
290
     0
176
     1
 90
       50
176
     1
 40
0.0
176
     1
 40
1.0
176
     1
 90
        0
176
     1
 62
    18
420
        0
176
     1
 90
       50
176
     1
 90
        3
176
     1
 62
     5
420
      255
176
     1
290
     0
176
     1
 90
       50
176
     1
 90
       50
176
     1
 90
       50
176
     1
290
     0
176
     1
 90
       50
176
     1
 62
   256
176
     0
 40
1.0
176
     0
 90
        2
176
     1
  1
strokes_ogs.tif
176
     1
290
     0
176
     1
 40
1.0
176
     1
 40
1.0
176
     1
  0
VISUALSTYLE
  5
35
102
{ACAD_REACTORS
330
29
102
}
330
29
100
AcDbVisualStyle
  2
Brighten
 70
    12
177
     3
291
     1
 70
    58
 90
        2
176
     1
 90
        2
176
     1
 90
        0
176
     1
 90
        0
176
     1
 40
0.6
176
     1
 40
30.0
176
     1
 62
     7
420
 16777215
176
     1
 90
        1
176
     1
 90
        4
176
     1
 62
     7
176
     1
 62
   257
176
     1
 90
        1
176
     1
 90
        1
176
     1
 40
1.0
176
     1
 90
        8
176
     1
 62
     7
176
     1
 40
1.0
176
     1
 90
        1
176
     1
 90
        6
176
     1
 90
        2
176
     1
 62
     7
176
     1
 90
        5
176
     1
 90
        0
176
     1
 90
        0
176
     1
290
     0
176
     1
 90
        1
176
     1
 40
50.0
176
     1
 90
        0
176
     1
290
     0
176
     1
290
     1
176
     1
290
     1
176
     1
290
     0
176
     1
290
     0
176
     1
290
     0
176
     1
290
     0
176
     1
290
     0
176
     1
290
     0
176
     1
 90
       50
176
     1
 40
0.0
176
     1
 40
1.0
176
     1
 90
        0
176
     1
 62
    18
420
        0
176
     1
 90
       50
176
     1
 90
        3
176
     1
 62
     5
420
      255
176
     1
290
     0
176
     1
 90
       50
176
     1
 90
       50
176
     1
 90
       50
176
     1
290
     0
176
     1
 90
       50
176
     1
 62
   256
176
     0
 40
1.0
176
     0
 90
        2
176
     1
  1
strokes_ogs.tif
176
     1
290
     0
176
     1
 40
1.0
176
     1
 40
1.0
176
     1
  0
VISUALSTYLE
  5
39
102
{ACAD_REACTORS
330
29
102
}
330
29
100
AcDbVisualStyle
  2
ColorChange
 70
    16
177
     3
291
     1
 70
    58
 90
        2
176
     1
 90
        2
176
     1
 90
        3
176
     1
 90
        0
176
     1
 40
0.6
176
     1
 40
30.0
176
     1
 62
     8
420
  8421504
176
     1
 90
        1
176
     1
 90
        4
176
     1
 62
     7
176
     1
 62
   257
176
     1
 90
        1
176
     1
 90
        1
176
     1
 40
1.0
176
     1
 90
        8
176
     1
 62
     8
420
  8421504
176
     1
 40
1.0
176
     1
 90
        1
176
     1
 90
        6
176
     1
 90
        2
176
     1
 62
     7
176
     1
 90
        5
176
     1
 90
        0
176
     1
 90
        0
176
     1
290
     0
176
     1
 90
        1
176
     1
 40
0.0
176
     1
 90
        0
176
     1
290
     0
176
     1
290
     1
176
     1
290
     1
176
     1
290
     0
176
     1
290
     0
176
     1
290
     0
176
     1
290
     0
176
     1
290
     0
176
     1
290
     0
176
     1
 90
       50
176
     1
 40
0.0
176
     1
 40
1.0
176
     1
 90
        0
176
     1
 62
    18
420
        0
176
     1
 90
       50
176
     1
 90
        3
176
     1
 62
     5
420
      255
176
     1
290
     0
176
     1
 90
       50
176
     1
 90
       50
176
     1
 90
       50
176
     1
290
     0
176
     1
 90
       50
176
     1
 62
   256
176
     0
 40
1.0
176
     0
 90
        2
176
     1
  1
strokes_ogs.tif
176
     1
290
     0
176
     1
 40
1.0
176
     1
 40
1.0
176
     1
  0
VISUALSTYLE
  5
32
102
{ACAD_REACTORS
330
29
102
}
330
29
100
AcDbVisualStyle
  2
Conceptual
 70
     9
177
     3
291
     0
 70
    58
 90
        3
176
     1
 90
        2
176
     1
 90
        0
176
     1
 90
        0
176
     1
 40
0.6
176
     1
 40
30.0
176
     1
 62
     7
420
 16777215
176
     1
 90
        2
176
     1
 90
        2
176
     1
 62
     7
176
     1
 62
   257
176
     1
 90
        1
176
     1
 90
        1
176
     1
 40
179.0
176
     1
 90
        8
176
     1
 62
     7
176
     1
 40
1.0
176
     1
 90
        1
176
     1
 90
        6
176
     1
 90
        2
176
     1
 62
     7
176
     1
 90
        3
176
     1
 90
        0
176
     1
 90
        0
176
     1
290
     0
176
     1
 90
        1
176
     1
 40
0.0
176
     1
 90
        0
176
     1
290
     0
176
     1
290
     1
176
     1
290
     1
176
     1
290
     0
176
     1
290
     0
176
     1
290
     0
176
     1
290
     0
176
     1
290
     0
176
     1
290
     0
176
     1
 90
       50
176
     1
 40
0.0
176
     1
 40
1.0
176
     1
 90
        0
176
     1
 62
    18
420
        0
176
     1
 90
       50
176
     1
 90
        3
176
     1
 62
     5
420
      255
176
     1
290
     0
176
     1
 90
       50
176
     1
 90
       50
176
     1
 90
       50
176
     1
290
     0
176
     1
 90
       50
176
     1
 62
   256
176
     0
 40
1.0
176
     0
 90
        2
176
     1
  1
strokes_ogs.tif
176
     1
290
     0
176
     1
 40
1.0
176
     1
 40
1.0
176
     1
  0
VISUALSTYLE
  5
34
102
{ACAD_REACTORS
330
29
102
}
330
29
100
AcDbVisualStyle
  2
Dim
 70
    11
177
     3
291
     1
 70
    58
 90
        2
176
     1
 90
        2
176
     1
 90
        0
176
     1
 90
        0
176
     1
 40
0.6
176
     1
 40
30.0
176
     1
 62
     7
420
 16777215
176
     1
 90
        1
176
     1
 90
        4
176
     1
 62
     7
176
     1
 62
   257
176
     1
 90
        1
176
     1
 90
        1
176
     1
 40
1.0
176
     1
 90
        8
176
     1
 62
     7
176
     1
 40
1.0
176
     1
 90
        1
176
     1
 90
        6
176
     1
 90
        2
176
     1
 62
     7
176
     1
 90
        5
176
     1
 90
        0
176
     1
 90
        0
176
     1
290
     0
176
     1
 90
        1
176
     1
 40
-50.0
176
     1
 90
        0
176
     1
290
     0
176
     1
290
     1
176
     1
290
     1
176
     1
290
     0
176
     1
290
     0
176
     1
290
     0
176
     1
290
     0
176
     1
290
     0
176
     1
290
     0
176
     1
 90
       50
176
     1
 40
0.0
176
     1
 40
1.0
176
     1
 90
        0
176
     1
 62
    18
420
        0
176
     1
 90
       50
176
     1
 90
        3
176
     1
 62
     5
420
      255
176
     1
290
     0
176
     1
 90
       50
176
     1
 90
       50
176
     1
 90
       50
176
     1
290
     0
176
     1
 90
       50
176
     1
 62
   256
176
     0
 40
1.0
176
     0
 90
        2
176
     1
  1
strokes_ogs.tif
176
     1
290
     0
176
     1
 40
1.0
176
     1
 40
1.0
176
     1
  0
VISUALSTYLE
  5
41
102
{ACAD_REACTORS
330
29
102
}
330
29
100
AcDbVisualStyle
  2
EdgeColorOff
 70
    22
177
     3
291
     1
 70
    58
 90
        2
176
     0
 90
        2
176
     0
 90
        0
176
     0
 90
        0
176
     0
 40
0.6
176
     0
 40
30.0
176
     0
 62
     7
420
 16777215
176
     0
 90
        1
176
     0
 90
        4
176
     0
 62
     7
176
     0
 62
   257
176
     0
 90
        1
176
     0
 90
        1
176
     0
 40
1.0
176
     0
 90
        8
176
     2
 62
     7
176
     0
 40
1.0
176
     0
 90
        1
176
     0
 90
        6
176
     0
 90
        2
176
     0
 62
     7
176
     0
 90
        5
176
     0
 90
        0
176
     0
 90
        0
176
     0
290
     0
176
     0
 90
        1
176
     0
 40
0.0
176
     0
 90
        0
176
     0
290
     0
176
     0
290
     1
176
     0
290
     1
176
     0
290
     0
176
     0
290
     0
176
     0
290
     0
176
     0
290
     0
176
     0
290
     0
176
     0
290
     0
176
     0
 90
       50
176
     0
 40
0.0
176
     0
 40
1.0
176
     0
 90
        0
176
     0
 62
    18
420
        0
176
     0
 90
       50
176
     0
 90
        3
176
     0
 62
     5
420
      255
176
     0
290
     0
176
     0
 90
       50
176
     0
 90
       50
176
     0
 90
       50
176
     0
290
     0
176
     0
 90
       50
176
     0
 62
   256
176
     0
 40
1.0
176
     0
 90
        2
176
     0
  1
strokes_ogs.tif
176
     0
290
     0
176
     0
 40
1.0
176
     0
 40
1.0
176
     0
  0
VISUALSTYLE
  5
38
102
{ACAD_REACTORS
330
29
102
}
330
29
100
AcDbVisualStyle
  2
Facepattern
 70
    15
177
     3
291
     1
 70
    58
 90
        2
176
     1
 90
        2
176
     1
 90
        0
176
     1
 90
        0
176
     1
 40
0.6
176
     1
 40
30.0
176
     1
 62
     7
420
 16777215
176
     1
 90
        1
176
     1
 90
        4
176
     1
 62
     7
176
     1
 62
   257
176
     1
 90
        1
176
     1
 90
        1
176
     1
 40
1.0
176
     1
 90
        8
176
     1
 62
     7
176
     1
 40
1.0
176
     1
 90
        1
176
     1
 90
        6
176
     1
 90
        2
176
     1
 62
     7
176
     1
 90
        5
176
     1
 90
        0
176
     1
 90
        0
176
     1
290
     0
176
     1
 90
        1
176
     1
 40
0.0
176
     1
 90
        0
176
     1
290
     0
176
     1
290
     1
176
     1
290
     1
176
     1
290
     0
176
     1
290
     0
176
     1
290
     0
176
     1
290
     0
176
     1
290
     0
176
     1
290
     0
176
     1
 90
       50
176
     1
 40
0.0
176
     1
 40
1.0
176
     1
 90
        0
176
     1
 62
    18
420
        0
176
     1
 90
       50
176
     1
 90
        3
176
     1
 62
     5
420
      255
176
     1
290
     0
176
     1
 90
       50
176
     1
 90
       50
176
     1
 90
       50
176
     1
290
     0
176
     1
 90
       50
176
     1
 62
   256
176
     0
 40
1.0
176
     0
 90
        2
176
     1
  1
strokes_ogs.tif
176
     1
290
     0
176
     1
 40
1.0
176
     1
 40
1.0
176
     1
  0
VISUALSTYLE
  5
2A
102
{ACAD_REACTORS
330
29
102
}
330
29
100
AcDbVisualStyle
  2
Flat
 70
     0
177
     3
291
     1
 70
    58
 90
        2
176
     1
 90
        1
176
     1
 90
        1
176
     1
 90
        2
176
     1
 40
0.6
176
     1
 40
30.0
176
     1
 62
     7
420
 16777215
176
     1
 90
        0
176
     1
 90
        0
176
     1
 62
     7
176
     1
 62
   257
176
     1
 90
        1
176
     1
 90
        1
176
     1
 40
1.0
176
     1
 90
        8
176
     1
 62
     7
176
     1
 40
1.0
176
     1
 90
        1
176
     1
 90
        6
176
     1
 90
        2
176
     1
 62
     7
176
     1
 90
        5
176
     1
 90
        0
176
     1
 90
        0
176
     1
290
     0
176
     1
 90
       13
176
     1
 40
0.0
176
     1
 90
        0
176
     1
290
     0
176
     1
290
     1
176
     1
290
     1
176
     1
290
     0
176
     1
290
     0
176
     1
290
     0
176
     1
290
     0
176
     1
290
     0
176
     1
290
     0
176
     1
 90
       50
176
     1
 40
0.0
176
     1
 40
1.0
176
     1
 90
        0
176
     1
 62
    18
420
        0
176
     1
 90
       50
176
     1
 90
        3
176
     1
 62
     5
420
      255
176
     1
290
     0
176
     1
 90
       50
176
     1
 90
       50
176
     1
 90
       50
176
     1
290
     0
176
     1
 90
       50
176
     1
 62
   256
176
     0
 40
1.0
176
     0
 90
        2
176
     1
  1
strokes_ogs.tif
176
     1
290
     0
176
     1
 40
1.0
176
     1
 40
1.0
176
     1
  0
VISUALSTYLE
  5
2B
102
{ACAD_REACTORS
330
29
102
}
330
29
100
AcDbVisualStyle
  2
FlatWithEdges
 70
     1
177
     3
291
     1
 70
    58
 90
        2
176
     1
 90
        1
176
     1
 90
        1
176
     1
 90
        2
176
     1
 40
0.6
176
     1
 40
30.0
176
     1
 62
     7
420
 16777215
176
     1
 90
        1
176
     1
 90
        0
176
     1
 62
     7
176
     1
 62
   257
176
     1
 90
        1
176
     1
 90
        1
176
     1
 40
1.0
176
     1
 90
        0
176
     1
 62
   257
176
     1
 40
1.0
176
     1
 90
        1
176
     1
 90
        6
176
     1
 90
        2
176
     1
 62
     7
176
     1
 90
        5
176
     1
 90
        0
176
     1
 90
        0
176
     1
290
     0
176
     1
 90
       13
176
     1
 40
0.0
176
     1
 90
        0
176
     1
290
     0
176
     1
290
     1
176
     1
290
     1
176
     1
290
     0
176
     1
290
     0
176
     1
290
     0
176
     1
290
     0
176
     1
290
     0
176
     1
290
     0
176
     1
 90
       50
176
     1
 40
0.0
176
     1
 40
1.0
176
     1
 90
        0
176
     1
 62
    18
420
        0
176
     1
 90
       50
176
     1
 90
        3
176
     1
 62
     5
420
      255
176
     1
290
     0
176
     1
 90
       50
176
     1
 90
       50
176
     1
 90
       50
176
     1
290
     0
176
     1
 90
       50
176
     1
 62
   256
176
     0
 40
1.0
176
     0
 90
        2
176
     1
  1
strokes_ogs.tif
176
     1
290
     0
176
     1
 40
1.0
176
     1
 40
1.0
176
     1
  0
VISUALSTYLE
  5
2C
102
{ACAD_REACTORS
330
29
102
}
330
29
100
AcDbVisualStyle
  2
Gouraud
 70
     2
177
     3
291
     1
 70
    58
 90
        2
176
     1
 90
        2
176
     1
 90
        1
176
     1
 90
        2
176
     1
 40
0.6
176
     1
 40
30.0
176
     1
 62
     7
420
 16777215
176
     1
 90
        0
176
     1
 90
        0
176
     1
 62
     7
176
     1
 62
   257
176
     1
 90
        1
176
     1
 90
        1
176
     1
 40
1.0
176
     1
 90
        0
176
     1
 62
     7
176
     1
 40
1.0
176
     1
 90
        1
176
     1
 90
        6
176
     1
 90
        2
176
     1
 62
     7
176
     1
 90
        5
176
     1
 90
        0
176
     1
 90
        0
176
     1
290
     0
176
     1
 90
       13
176
     1
 40
0.0
176
     1
 90
        0
176
     1
290
     0
176
     1
290
     1
176
     1
290
     1
176
     1
290
     0
176
     1
290
     0
176
     1
290
     0
176
     1
290
     0
176
     1
290
     0
176
     1
290
     0
176
     1
 90
       50
176
     1
 40
0.0
176
     1
 40
1.0
176
     1
 90
        0
176
     1
 62
    18
420
        0
176
     1
 90
       50
176
     1
 90
        3
176
     1
 62
     5
420
      255
176
     1
290
     0
176
     1
 90
       50
176
     1
 90
       50
176
     1
 90
       50
176
     1
290
     0
176
     1
 90
       50
176
     1
 62
   256
176
     0
 40
1.0
176
     0
 90
        2
176
     1
  1
strokes_ogs.tif
176
     1
290
     0
176
     1
 40
1.0
176
     1
 40
1.0
176
     1
  0
VISUALSTYLE
  5
2D
102
{ACAD_REACTORS
330
29
102
}
330
29
100
AcDbVisualStyle
  2
GouraudWithEdges
 70
     3
177
     3
291
     1
 70
    58
 90
        2
176
     1
 90
        2
176
     1
 90
        1
176
     1
 90
        2
176
     1
 40
0.6
176
     1
 40
30.0
176
     1
 62
     7
420
 16777215
176
     1
 90
        1
176
     1
 90
        0
176
     1
 62
     7
176
     1
 62
   257
176
     1
 90
        1
176
     1
 90
        1
176
     1
 40
1.0
176
     1
 90
        0
176
     1
 62
   257
176
     1
 40
1.0
176
     1
 90
        1
176
     1
 90
        6
176
     1
 90
        2
176
     1
 62
     7
176
     1
 90
        5
176
     1
 90
        0
176
     1
 90
        0
176
     1
290
     0
176
     1
 90
       13
176
     1
 40
0.0
176
     1
 90
        0
176
     1
290
     0
176
     1
290
     1
176
     1
290
     1
176
     1
290
     0
176
     1
290
     0
176
     1
290
     0
176
     1
290
     0
176
     1
290
     0
176
     1
290
     0
176
     1
 90
       50
176
     1
 40
0.0
176
     1
 40
1.0
176
     1
 90
        0
176
     1
 62
    18
420
        0
176
     1
 90
       50
176
     1
 90
        3
176
     1
 62
     5
420
      255
176
     1
290
     0
176
     1
 90
       50
176
     1
 90
       50
176
     1
 90
       50
176
     1
290
     0
176
     1
 90
       50
176
     1
 62
   256
176
     0
 40
1.0
176
     0
 90
        2
176
     1
  1
strokes_ogs.tif
176
     1
290
     0
176
     1
 40
1.0
176
     1
 40
1.0
176
     1
  0
VISUALSTYLE
  5
31
102
{ACAD_REACTORS
330
29
102
}
330
29
100
AcDbVisualStyle
  2
Hidden
 70
     6
177
     3
291
     0
 70
    58
 90
        1
176
     1
 90
        2
176
     1
 90
        2
176
     1
 90
        0
176
     1
 40
0.6
176
     1
 40
30.0
176
     1
 62
     7
420
 16777215
176
     1
 90
        2
176
     1
 90
        2
176
     1
 62
     7
176
     1
 62
   257
176
     1
 90
        2
176
     1
 90
        1
176
     1
 40
40.0
176
     1
 90
        0
176
     1
 62
   257
176
     1
 40
1.0
176
     1
 90
        1
176
     1
 90
        6
176
     1
 90
        2
176
     1
 62
     7
176
     1
 90
        3
176
     1
 90
        0
176
     1
 90
        0
176
     1
290
     0
176
     1
 90
        1
176
     1
 40
0.0
176
     1
 90
        0
176
     1
290
     0
176
     1
290
     1
176
     1
290
     1
176
     1
290
     0
176
     1
290
     0
176
     1
290
     0
176
     1
290
     0
176
     1
290
     0
176
     1
290
     0
176
     1
 90
       50
176
     1
 40
0.0
176
     1
 40
1.0
176
     1
 90
        0
176
     1
 62
    18
420
        0
176
     1
 90
       50
176
     1
 90
        3
176
     1
 62
     5
420
      255
176
     1
290
     0
176
     1
 90
       50
176
     1
 90
       50
176
     1
 90
       50
176
     1
290
     0
176
     1
 90
       50
176
     1
 62
   256
176
     0
 40
1.0
176
     0
 90
        2
176
     1
  1
strokes_ogs.tif
176
     1
290
     0
176
     1
 40
1.0
176
     1
 40
1.0
176
     1
  0
VISUALSTYLE
  5
3F
102
{ACAD_REACTORS
330
29
102
}
330
29
100
AcDbVisualStyle
  2
JitterOff
 70
    20
177
     3
291
     1
 70
    58
 90
        2
176
     0
 90
        2
176
     0
 90
        0
176
     0
 90
        0
176
     0
 40
0.6
176
     0
 40
30.0
176
     0
 62
     7
420
 16777215
176
     0
 90
        1
176
     0
 90
        4
176
     0
 62
     7
176
     0
 62
   257
176
     0
 90
        1
176
     0
 90
        1
176
     0
 40
1.0
176
     0
 90
       10
176
     2
 62
     7
176
     0
 40
1.0
176
     0
 90
        1
176
     0
 90
        6
176
     0
 90
        2
176
     0
 62
     7
176
     0
 90
        5
176
     0
 90
        0
176
     0
 90
        0
176
     0
290
     0
176
     0
 90
        1
176
     0
 40
0.0
176
     0
 90
        0
176
     0
290
     0
176
     0
290
     1
176
     0
290
     1
176
     0
290
     0
176
     0
290
     0
176
     0
290
     0
176
     0
290
     0
176
     0
290
     0
176
     0
290
     0
176
     0
 90
       50
176
     0
 40
0.0
176
     0
 40
1.0
176
     0
 90
        0
176
     0
 62
    18
420
        0
176
     0
 90
       50
176
     0
 90
        3
176
     0
 62
     5
420
      255
176
     0
290
     0
176
     0
 90
       50
176
     0
 90
       50
176
     0
 90
       50
176
     0
290
     0
176
     0
 90
       50
176
     0
 62
   256
176
     0
 40
1.0
176
     0
 90
        2
176
     0
  1
strokes_ogs.tif
176
     0
290
     0
176
     0
 40
1.0
176
     0
 40
1.0
176
     0
  0
VISUALSTYLE
  5
37
102
{ACAD_REACTORS
330
29
102
}
330
29
100
AcDbVisualStyle
  2
Linepattern
 70
    14
177
     3
291
     1
 70
    58
 90
        2
176
     1
 90
        2
176
     1
 90
        0
176
     1
 90
        0
176
     1
 40
0.6
176
     1
 40
30.0
176
     1
 62
     7
420
 16777215
176
     1
 90
        1
176
     1
 90
        4
176
     1
 62
     7
176
     1
 62
   257
176
     1
 90
        7
176
     1
 90
        7
176
     1
 40
1.0
176
     1
 90
        8
176
     1
 62
     7
176
     1
 40
1.0
176
     1
 90
        1
176
     1
 90
        6
176
     1
 90
        2
176
     1
 62
     7
176
     1
 90
        5
176
     1
 90
        0
176
     1
 90
        0
176
     1
290
     0
176
     1
 90
        1
176
     1
 40
0.0
176
     1
 90
        0
176
     1
290
     0
176
     1
290
     1
176
     1
290
     1
176
     1
290
     0
176
     1
290
     0
176
     1
290
     0
176
     1
290
     0
176
     1
290
     0
176
     1
290
     0
176
     1
 90
       50
176
     1
 40
0.0
176
     1
 40
1.0
176
     1
 90
        0
176
     1
 62
    18
420
        0
176
     1
 90
       50
176
     1
 90
        3
176
     1
 62
     5
420
      255
176
     1
290
     0
176
     1
 90
       50
176
     1
 90
       50
176
     1
 90
       50
176
     1
290
     0
176
     1
 90
       50
176
     1
 62
   256
176
     0
 40
1.0
176
     0
 90
        2
176
     1
  1
strokes_ogs.tif
176
     1
290
     0
176
     1
 40
1.0
176
     1
 40
1.0
176
     1
  0
VISUALSTYLE
  5
40
102
{ACAD_REACTORS
330
29
102
}
330
29
100
AcDbVisualStyle
  2
OverhangOff
 70
    21
177
     3
291
     1
 70
    58
 90
        2
176
     0
 90
        2
176
     0
 90
        0
176
     0
 90
        0
176
     0
 40
0.6
176
     0
 40
30.0
176
     0
 62
     7
420
 16777215
176
     0
 90
        1
176
     0
 90
        4
176
     0
 62
     7
176
     0
 62
   257
176
     0
 90
        1
176
     0
 90
        1
176
     0
 40
1.0
176
     0
 90
        9
176
     2
 62
     7
176
     0
 40
1.0
176
     0
 90
        1
176
     0
 90
        6
176
     0
 90
        2
176
     0
 62
     7
176
     0
 90
        5
176
     0
 90
        0
176
     0
 90
        0
176
     0
290
     0
176
     0
 90
        1
176
     0
 40
0.0
176
     0
 90
        0
176
     0
290
     0
176
     0
290
     1
176
     0
290
     1
176
     0
290
     0
176
     0
290
     0
176
     0
290
     0
176
     0
290
     0
176
     0
290
     0
176
     0
290
     0
176
     0
 90
       50
176
     0
 40
0.0
176
     0
 40
1.0
176
     0
 90
        0
176
     0
 62
    18
420
        0
176
     0
 90
       50
176
     0
 90
        3
176
     0
 62
     5
420
      255
176
     0
290
     0
176
     0
 90
       50
176
     0
 90
       50
176
     0
 90
       50
176
     0
290
     0
176
     0
 90
       50
176
     0
 62
   256
176
     0
 40
1.0
176
     0
 90
        2
176
     0
  1
strokes_ogs.tif
176
     0
290
     0
176
     0
 40
1.0
176
     0
 40
1.0
176
     0
  0
VISUALSTYLE
  5
33
102
{ACAD_REACTORS
330
29
102
}
330
29
100
AcDbVisualStyle
  2
Realistic
 70
     8
177
     3
291
     0
 70
    58
 90
        2
176
     1
 90
        3
176
     1
 90
        0
176
     1
 90
        2
176
     1
 40
0.6
176
     1
 40
30.0
176
     1
 62
     7
420
 16777215
176
     1
 90
        0
176
     1
 90
        0
176
     1
 62
     7
176
     1
 62
   257
176
     1
 90
        1
176
     1
 90
        1
176
     1
 40
1.0
176
     1
 90
        8
176
     1
 62
   257
176
     1
 40
1.0
176
     1
 90
        1
176
     1
 90
        6
176
     1
 90
        2
176
     1
 62
     7
176
     1
 90
        3
176
     1
 90
        0
176
     1
 90
        0
176
     1
290
     0
176
     1
 90
       13
176
     1
 40
0.0
176
     1
 90
        0
176
     1
290
     0
176
     1
290
     1
176
     1
290
     1
176
     1
290
     0
176
     1
290
     0
176
     1
290
     0
176
     1
290
     0
176
     1
290
     0
176
     1
290
     0
176
     1
 90
       50
176
     1
 40
0.0
176
     1
 40
1.0
176
     1
 90
        0
176
     1
 62
    18
420
        0
176
     1
 90
       50
176
     1
 90
        3
176
     1
 62
     5
420
      255
176
     1
290
     0
176
     1
 90
       50
176
     1
 90
       50
176
     1
 90
       50
176
     1
290
     0
176
     1
 90
       50
176
     1
 62
   256
176
     0
 40
1.0
176
     0
 90
        2
176
     1
  1
strokes_ogs.tif
176
     1
290
     0
176
     1
 40
1.0
176
     1
 40
1.0
176
     1
  0
VISUALSTYLE
  5
3E
102
{ACAD_REACTORS
330
29
102
}
330
29
100
AcDbVisualStyle
  2
Shaded
 70
    27
177
     3
291
     0
 70
    58
 90
        2
176
     1
 90
        2
176
     1
 90
        1
176
     1
 90
        2
176
     1
 40
0.6
176
     1
 40
30.0
176
     1
 62
     7
420
 16777215
176
     1
 90
        0
176
     1
 90
        4
176
     1
 62
     7
176
     1
 62
   257
176
     1
 90
        1
176
     1
 90
        1
176
     1
 40
1.0
176
     1
 90
        8
176
     1
 62
   257
176
     1
 40
1.0
176
     1
 90
        1
176
     1
 90
        6
176
     1
 90
        2
176
     1
 62
     8
420
  7895160
176
     1
 90
        3
176
     1
 90
        0
176
     1
 90
        0
176
     1
290
     0
176
     1
 90
        5
176
     1
 40
0.0
176
     1
 90
        0
176
     1
290
     0
176
     1
290
     1
176
     1
290
     1
176
     1
290
     0
176
     1
290
     0
176
     1
290
     0
176
     1
290
     0
176
     1
290
     0
176
     1
290
     0
176
     1
 90
       50
176
     1
 40
0.0
176
     1
 40
1.0
176
     1
 90
        0
176
     1
 62
    18
420
        0
176
     1
 90
       50
176
     1
 90
        3
176
     1
 62
     5
420
      255
176
     1
290
     0
176
     1
 90
       50
176
     1
 90
       50
176
     1
 90
       50
176
     1
290
     0
176
     1
 90
       50
176
     1
 62
   256
176
     0
 40
1.0
176
     0
 90
        2
176
     1
  1
strokes_ogs.tif
176
     1
290
     0
176
     1
 40
1.0
176
     1
 40
1.0
176
     1
  0
VISUALSTYLE
  5
3D
102
{ACAD_REACTORS
330
29
102
}
330
29
100
AcDbVisualStyle
  2
Shaded with edges
 70
    26
177
     3
291
     0
 70
    58
 90
        2
176
     1
 90
        2
176
     1
 90
        1
176
     1
 90
        2
176
     1
 40
0.6
176
     1
 40
30.0
176
     1
 62
     7
420
 16777215
176
     1
 90
        1
176
     1
 90
        2
176
     1
 62
     7
176
     1
 62
   257
176
     1
 90
        2
176
     1
 90
        1
176
     1
 40
1.0
176
     1
 90
        8
176
     1
 62
   257
176
     1
 40
1.0
176
     1
 90
        1
176
     1
 90
        6
176
     1
 90
        2
176
     1
 62
     7
176
     1
 90
        3
176
     1
 90
        0
176
     1
 90
        0
176
     1
290
     0
176
     1
 90
        5
176
     1
 40
0.0
176
     1
 90
        0
176
     1
290
     0
176
     1
290
     1
176
     1
290
     1
176
     1
290
     0
176
     1
290
     0
176
     1
290
     0
176
     1
290
     0
176
     1
290
     0
176
     1
290
     0
176
     1
 90
       50
176
     1
 40
0.0
176
     1
 40
1.0
176
     1
 90
        0
176
     1
 62
    18
420
        0
176
     1
 90
       50
176
     1
 90
        3
176
     1
 62
     5
420
      255
176
     1
290
     0
176
     1
 90
       50
176
     1
 90
       50
176
     1
 90
       50
176
     1
290
     0
176
     1
 90
       50
176
     1
 62
   256
176
     0
 40
1.0
176
     0
 90
        2
176
     1
  1
strokes_ogs.tif
176
     1
290
     0
176
     1
 40
1.0
176
     1
 40
1.0
176
     1
  0
VISUALSTYLE
  5
3A
102
{ACAD_REACTORS
330
29
102
}
330
29
100
AcDbVisualStyle
  2
Shades of Gray
 70
    23
177
     3
291
     0
 70
    58
 90
        2
176
     1
 90
        2
176
     1
 90
        3
176
     1
 90
        0
176
     1
 40
0.6
176
     1
 40
30.0
176
     1
 62
     7
420
 16777215
176
     1
 90
        2
176
     1
 90
        2
176
     1
 62
     7
176
     1
 62
     7
176
     1
 90
        1
176
     1
 90
        1
176
     1
 40
40.0
176
     1
 90
        8
176
     1
 62
     7
176
     1
 40
1.0
176
     1
 90
        1
176
     1
 90
        6
176
     1
 90
        2
176
     1
 62
     7
176
     1
 90
        3
176
     1
 90
        0
176
     1
 90
        0
176
     1
290
     0
176
     1
 90
        1
176
     1
 40
0.0
176
     1
 90
        0
176
     1
290
     0
176
     1
290
     1
176
     1
290
     1
176
     1
290
     0
176
     1
290
     0
176
     1
290
     0
176
     1
290
     0
176
     1
290
     0
176
     1
290
     0
176
     1
 90
       50
176
     1
 40
0.0
176
     1
 40
1.0
176
     1
 90
        0
176
     1
 62
    18
420
        0
176
     1
 90
       50
176
     1
 90
        3
176
     1
 62
     5
420
      255
176
     1
290
     0
176
     1
 90
       50
176
     1
 90
       50
176
     1
 90
       50
176
     1
290
     0
176
     1
 90
       50
176
     1
 62
   256
176
     0
 40
1.0
176
     0
 90
        2
176
     1
  1
strokes_ogs.tif
176
     1
290
     0
176
     1
 40
1.0
176
     1
 40
1.0
176
     1
  0
VISUALSTYLE
  5
3B
102
{ACAD_REACTORS
330
29
102
}
330
29
100
AcDbVisualStyle
  2
Sketchy
 70
    24
177
     3
291
     0
 70
    58
 90
        1
176
     1
 90
        2
176
     1
 90
        2
176
     1
 90
        0
176
     1
 40
0.6
176
     1
 40
30.0
176
     1
 62
     7
420
 16777215
176
     1
 90
        2
176
     1
 90
        2
176
     1
 62
     7
176
     1
 62
     7
176
     1
 90
        1
176
     1
 90
        1
176
     1
 40
40.0
176
     1
 90
       11
176
     1
 62
     7
176
     1
 40
1.0
176
     1
 90
        1
176
     1
 90
        6
176
     1
 90
        2
176
     1
 62
     7
176
     1
 90
        6
176
     1
 90
        0
176
     1
 90
        0
176
     1
290
     0
176
     1
 90
        1
176
     1
 40
0.0
176
     1
 90
        0
176
     1
290
     0
176
     1
290
     1
176
     1
290
     1
176
     1
290
     0
176
     1
290
     0
176
     1
290
     0
176
     1
290
     0
176
     1
290
     0
176
     1
290
     0
176
     1
 90
       50
176
     1
 40
0.0
176
     1
 40
1.0
176
     1
 90
        0
176
     1
 62
    18
420
        0
176
     1
 90
       50
176
     1
 90
        3
176
     1
 62
     5
420
      255
176
     1
290
     0
176
     1
 90
       50
176
     1
 90
       50
176
     1
 90
       50
176
     1
290
     0
176
     1
 90
       50
176
     1
 62
   256
176
     0
 40
1.0
176
     0
 90
        2
176
     1
  1
strokes_ogs.tif
176
     1
290
     0
176
     1
 40
1.0
176
     1
 40
1.0
176
     1
  0
VISUALSTYLE
  5
36
102
{ACAD_REACTORS
330
29
102
}
330
29
100
AcDbVisualStyle
  2
Thicken
 70
    13
177
     3
291
     1
 70
    58
 90
        2
176
     1
 90
        2
176
     1
 90
        0
176
     1
 90
        0
176
     1
 40
0.6
176
     1
 40
30.0
176
     1
 62
     7
420
 16777215
176
     1
 90
        1
176
     1
 90
        4
176
     1
 62
     7
176
     1
 62
   257
176
     1
 90
        1
176
     1
 90
        1
176
     1
 40
1.0
176
     1
 90
       12
176
     1
 62
     7
176
     1
 40
1.0
176
     1
 90
        1
176
     1
 90
        6
176
     1
 90
        2
176
     1
 62
     7
176
     1
 90
        5
176
     1
 90
        0
176
     1
 90
        0
176
     1
290
     0
176
     1
 90
        1
176
     1
 40
0.0
176
     1
 90
        0
176
     1
290
     0
176
     1
290
     1
176
     1
290
     1
176
     1
290
     0
176
     1
290
     0
176
     1
290
     0
176
     1
290
     0
176
     1
290
     0
176
     1
290
     0
176
     1
 90
       50
176
     1
 40
0.0
176
     1
 40
1.0
176
     1
 90
        0
176
     1
 62
    18
420
        0
176
     1
 90
       50
176
     1
 90
        3
176
     1
 62
     5
420
      255
176
     1
290
     0
176
     1
 90
       50
176
     1
 90
       50
176
     1
 90
       50
176
     1
290
     0
176
     1
 90
       50
176
     1
 62
   256
176
     0
 40
1.0
176
     0
 90
        2
176
     1
  1
strokes_ogs.tif
176
     1
290
     0
176
     1
 40
1.0
176
     1
 40
1.0
176
     1
  0
VISUALSTYLE
  5
30
102
{ACAD_REACTORS
330
29
102
}
330
29
100
AcDbVisualStyle
  2
Wireframe
 70
     5
177
     3
291
     0
 70
    58
 90
        0
176
     1
 90
        2
176
     1
 90
        0
176
     1
 90
        0
176
     1
 40
0.6
176
     1
 40
30.0
176
     1
 62
     7
420
 16777215
176
     1
 90
        1
176
     1
 90
        4
176
     1
 62
     7
176
     1
 62
   257
176
     1
 90
        1
176
     1
 90
        1
176
     1
 40
1.0
176
     1
 90
        0
176
     1
 62
   257
176
     1
 40
1.0
176
     1
 90
        1
176
     1
 90
        6
176
     1
 90
        2
176
     1
 62
     7
176
     1
 90
        3
176
     1
 90
        0
176
     1
 90
        0
176
     1
290
     0
176
     1
 90
        1
176
     1
 40
0.0
176
     1
 90
        0
176
     1
290
     0
176
     1
290
     1
176
     1
290
     1
176
     1
290
     0
176
     1
290
     0
176
     1
290
     0
176
     1
290
     0
176
     1
290
     0
176
     1
290
     0
176
     1
 90
       50
176
     1
 40
0.0
176
     1
 40
1.0
176
     1
 90
        0
176
     1
 62
    18
420
        0
176
     1
 90
       50
176
     1
 90
        3
176
     1
 62
     5
420
      255
176
     1
290
     0
176
     1
 90
       50
176
     1
 90
       50
176
     1
 90
       50
176
     1
290
     0
176
     1
 90
       50
176
     1
 62
   256
176
     0
 40
1.0
176
     0
 90
        2
176
     1
  1
strokes_ogs.tif
176
     1
290
     0
176
     1
 40
1.0
176
     1
 40
1.0
176
     1
  0
VISUALSTYLE
  5
3C
102
{ACAD_REACTORS
330
29
102
}
330
29
100
AcDbVisualStyle
  2
X-Ray
 70
    25
177
     3
291
     0
 70
    58
 90
        2
176
     1
 90
        2
176
     1
 90
        1
176
     1
 90
        1
176
     1
 40
0.5
176
     1
 40
30.0
176
     1
 62
     7
420
 16777215
176
     1
 90
        1
176
     1
 90
        0
176
     1
 62
     7
176
     1
 62
   257
176
     1
 90
        1
176
     1
 90
        1
176
     1
 40
1.0
176
     1
 90
        8
176
     1
 62
     7
176
     1
 40
1.0
176
     1
 90
        1
176
     1
 90
        6
176
     1
 90
        2
176
     1
 62
     7
176
     1
 90
        3
176
     1
 90
        0
176
     1
 90
        0
176
     1
290
     0
176
     1
 90
       13
176
     1
 40
0.0
176
     1
 90
        0
176
     1
290
     0
176
     1
290
     1
176
     1
290
     1
176
     1
290
     0
176
     1
290
     0
176
     1
290
     0
176
     1
290
     0
176
     1
290
     0
176
     1
290
     0
176
     1
 90
       50
176
     1
 40
0.0
176
     1
 40
1.0
176
     1
 90
        0
176
     1
 62
    18
420
        0
176
     1
 90
       50
176
     1
 90
        3
176
     1
 62
     5
420
      255
176
     1
290
     0
176
     1
 90
       50
176
     1
 90
       50
176
     1
 90
       50
176
     1
290
     0
176
     1
 90
       50
176
     1
 62
   256
176
     0
 40
1.0
176
     0
 90
        2
176
     1
  1
strokes_ogs.tif
176
     1
290
     0
176
     1
 40
1.0
176
     1
 40
1.0
176
     1
  0
DICTIONARYVAR
  5
99
102
{ACAD_REACTORS
330
94
102
}
330
94
100
DictionaryVariables
280
     0
  1
1:1
  0
DICTIONARYVAR
  5
96
102
{ACAD_REACTORS
330
94
102
}
330
94
100
DictionaryVariables
280
     0
  1
STANDARD
  0
DICTIONARYVAR
  5
95
102
{ACAD_REACTORS
330
94
102
}
330
94
100
DictionaryVariables
280
     0
  1
STANDARD
  0
DICTIONARYVAR
  5
97
102
{ACAD_REACTORS
330
94
102
}
330
94
100
DictionaryVariables
280
     0
  1
Imperial24
  0
DICTIONARYVAR
  5
98
102
{ACAD_REACTORS
330
94
102
}
330
94
100
DictionaryVariables
280
     0
  1
Imperial24
  0
DICTIONARY
  5
1A
330
19
100
AcDbDictionary
280
     1
281
     1
  3
BUMPTILE
360
1C
  3
DIFFUSETILE
360
1B
  3
OPACITYTILE
360
1F
  3
REFLECTIONTILE
360
1E
  3
REFRACTIONTILE
360
20
  3
SPECULARTILE
360
1D
  0
DICTIONARY
  5
12
330
11
100
AcDbDictionary
280
     1
281
     1
  3
BUMPTILE
360
14
  3
DIFFUSETILE
360
13
  3
OPACITYTILE
360
17
  3
REFLECTIONTILE
360
16
  3
REFRACTIONTILE
360
18
  3
SPECULARTILE
360
15
  0
DICTIONARY
  5
22
330
21
100
AcDbDictionary
280
     1
281
     1
  3
BUMPTILE
360
24
  3
DIFFUSETILE
360
23
  3
OPACITYTILE
360
27
  3
REFLECTIONTILE
360
26
  3
REFRACTIONTILE
360
28
  3
SPECULARTILE
360
25
  0
DICTIONARY
  5
9A
330
65
100
AcDbDictionary
280
     1
281
     1
  3
ACAD_ROUNDTRIP_2008_TABLESTYLE_CELLSTYLEMAP
360
9B
  0
XRECORD
  5
1C
102
{ACAD_REACTORS
330
1A
102
}
330
1A
100
AcDbXrecord
280
     1
270
     1
271
     1
  0
XRECORD
  5
1B
102
{ACAD_REACTORS
330
1A
102
}
330
1A
100
AcDbXrecord
280
     1
270
     1
271
     1
  0
XRECORD
  5
1F
102
{ACAD_REACTORS
330
1A
102
}
330
1A
100
AcDbXrecord
280
     1
270
     1
271
     1
  0
XRECORD
  5
1E
102
{ACAD_REACTORS
330
1A
102
}
330
1A
100
AcDbXrecord
280
     1
270
     1
271
     1
  0
XRECORD
  5
20
102
{ACAD_REACTORS
330
1A
102
}
330
1A
100
AcDbXrecord
280
     1
270
     1
271
     1
  0
XRECORD
  5
1D
102
{ACAD_REACTORS
330
1A
102
}
330
1A
100
AcDbXrecord
280
     1
270
     1
271
     1
  0
XRECORD
  5
14
102
{ACAD_REACTORS
330
12
102
}
330
12
100
AcDbXrecord
280
     1
270
     1
271
     1
  0
XRECORD
  5
13
102
{ACAD_REACTORS
330
12
102
}
330
12
100
AcDbXrecord
280
     1
270
     1
271
     1
  0
XRECORD
  5
17
102
{ACAD_REACTORS
330
12
102
}
330
12
100
AcDbXrecord
280
     1
270
     1
271
     1
  0
XRECORD
  5
16
102
{ACAD_REACTORS
330
12
102
}
330
12
100
AcDbXrecord
280
     1
270
     1
271
     1
  0
XRECORD
  5
18
102
{ACAD_REACTORS
330
12
102
}
330
12
100
AcDbXrecord
280
     1
270
     1
271
     1
  0
XRECORD
  5
15
102
{ACAD_REACTORS
330
12
102
}
330
12
100
AcDbXrecord
280
     1
270
     1
271
     1
  0
XRECORD
  5
24
102
{ACAD_REACTORS
330
22
102
}
330
22
100
AcDbXrecord
280
     1
270
     1
271
     1
  0
XRECORD
  5
23
102
{ACAD_REACTORS
330
22
102
}
330
22
100
AcDbXrecord
280
     1
270
     1
271
     1
  0
XRECORD
  5
27
102
{ACAD_REACTORS
330
22
102
}
330
22
100
AcDbXrecord
280
     1
270
     1
271
     1
  0
XRECORD
  5
26
102
{ACAD_REACTORS
330
22
102
}
330
22
100
AcDbXrecord
280
     1
270
     1
271
     1
  0
XRECORD
  5
28
102
{ACAD_REACTORS
330
22
102
}
330
22
100
AcDbXrecord
280
     1
270
     1
271
     1
  0
XRECORD
  5
25
102
{ACAD_REACTORS
330
22
102
}
330
22
100
AcDbXrecord
280
     1
270
     1
271
     1
  0
CELLSTYLEMAP
  5
9B
102
{ACAD_REACTORS
330
9A
102
}
330
9A
100
AcDbCellStyleMap
 90
        3
300
CELLSTYLE
  1
TABLEFORMAT_BEGIN
 90
        5
170
     1
 91
        0
 92
    32768
 62
   257
 93
        1
300
CONTENTFORMAT
  1
CONTENTFORMAT_BEGIN
 90
        0
 91
        0
 92
      512
 93
        0
300

 40
0.0
140
1.0
 94
        5
 62
     0
340
55
144
0.25
309
CONTENTFORMAT_END
171
     0
 94
        0
309
TABLEFORMAT_END
  1
CELLSTYLE_BEGIN
 90
        1
 91
        1
300
_TITLE
309
CELLSTYLE_END
300
CELLSTYLE
  1
TABLEFORMAT_BEGIN
 90
        5
170
     1
 91
        0
 92
        0
 62
   257
 93
        1
300
CONTENTFORMAT
  1
CONTENTFORMAT_BEGIN
 90
        0
 91
        0
 92
      512
 93
        0
300

 40
0.0
140
1.0
 94
        5
 62
     0
340
55
144
0.18
309
CONTENTFORMAT_END
171
     0
 94
        0
309
TABLEFORMAT_END
  1
CELLSTYLE_BEGIN
 90
        2
 91
        1
300
_HEADER
309
CELLSTYLE_END
300
CELLSTYLE
  1
TABLEFORMAT_BEGIN
 90
        5
170
     1
 91
        0
 92
        0
 62
   257
 93
        1
300
CONTENTFORMAT
  1
CONTENTFORMAT_BEGIN
 90
        0
 91
        0
 92
      512
 93
        0
300

 40
0.0
140
1.0
 94
        2
 62
     0
340
55
144
0.18
309
CONTENTFORMAT_END
171
     0
 94
        0
309
TABLEFORMAT_END
  1
CELLSTYLE_BEGIN
 90
        3
 91
        2
300
_DATA
309
CELLSTYLE_END
  0
ENDSEC
  0
EOF
