<?xml version="1.0" encoding="utf-8"?>
<!-- Generator: Adobe Illustrator 25.2.3, SVG Export Plug-In . SVG Version: 6.00 Build 0)  -->
<svg version="1.1" xmlns="http://www.w3.org/2000/svg" xmlns:xlink="http://www.w3.org/1999/xlink" x="0px" y="0px"
	 viewBox="0 0 637.8 311.81" style="enable-background:new 0 0 637.8 311.81;" xml:space="preserve">
<style type="text/css">
	.st0{fill:none;stroke:#000000;stroke-width:0.25;stroke-miterlimit:10;}
	.st1{font-family:'Arial-BoldMT';}
	.st2{font-size:18px;}
</style>
<g id="cut">
	<path class="st0" d="M622.53,182.08l-27.6-156.57c-0.72-4.06-4.25-7.03-8.37-7.03H417.1l-26.47-4.64c-0.77-0.13-1.5,0.38-1.64,1.15
		l-1.84,10.35l-6.46,2.35l-7.28-6.13c-0.83-0.7-2.12-0.24-2.31,0.84l-6.92,38.8c-0.27,1.54-1.74,2.57-3.28,2.29l-44.95-7.94
		c-0.77-0.14-1.51,0.38-1.64,1.15l-1.7,9.59l-6.46,2.35l-5.27-4.42l1.7-9.59c0.14-0.77-0.38-1.51-1.15-1.64l-17.38-3.07
		c-0.77-0.14-1.51,0.38-1.64,1.15l-1.69,9.56l-6.46,2.35l-5.27-4.42l1.7-9.56c0.14-0.77-0.38-1.51-1.15-1.64l-2.49-0.44
		c-0.72-0.13-1.37-0.53-1.8-1.12l-1.6-2.2c-0.43-0.59-1.07-0.99-1.79-1.12l-35-6.24c-0.93-0.17-1.72-0.79-2.1-1.66l-2.35-5.41
		c-0.38-0.87-1.17-1.5-2.11-1.66l-50.9-9.02l-118.06,0c-4.13,0-7.66,2.96-8.37,7.02l-27.7,156.55c-0.82,4.63,2.27,9.04,6.9,9.86
		l53.96,9.38c0.57,0.1,1.14,0.14,1.71,0.12l28.71-0.87c1.13-0.03,2.25,0.16,3.31,0.56l52.57,20.2c2.07,0.79,3.74,2.36,4.67,4.37
		l24.76,53.64c0.33,0.84,1.04,1.48,1.91,1.71l63.42,16.94h123.49l63.47-17.01c0.87-0.23,1.58-0.87,1.91-1.71l24.76-53.58
		c0.93-2.01,2.6-3.58,4.67-4.37l52.55-20.2c1.05-0.41,2.18-0.6,3.31-0.56l28.7,0.87c0.57,0.02,1.15-0.02,1.71-0.12l53.89-9.37
		C620.26,191.11,623.35,186.7,622.53,182.08z M598.21,126.99l-38.8,6.84l-7.33-41.59l38.8-6.84L598.21,126.99z M526.6,31.82
		l6.09,34.56l14.38-2.53l-4.37-24.79l38.8-6.84l7.33,41.59l-38.73,6.83h0l-0.08,0.01l0-0.01l-7.37,0.13
		c-4.3,0.08-8.02-2.98-8.76-7.22l-0.02-0.13l-38.74,6.83l-7.33-41.59L526.6,31.82z M488.41,126.21l-38.8,6.84l-7.33-41.59l38.8-6.84
		L488.41,126.21z M446.33,198.53l-38.8,6.84l-7.33-41.59l38.8-6.84L446.33,198.53z M471.7,31.43l7.33,41.59l-38.8,6.84l-7.33-41.59
		L471.7,31.43z M436.95,145.35l-38.8,6.84l-7.33-41.59l38.8-6.84L436.95,145.35z M392.01,28.21l1.23-6.98
		c0.2-1.16,1.31-1.93,2.46-1.72L415.56,23c1.16,0.2,1.93,1.31,1.72,2.46l-1.23,6.98c-0.2,1.16-1.31,1.93-2.46,1.72l-19.85-3.49
		C392.58,30.46,391.81,29.36,392.01,28.21z M200.92,145.35l7.33-41.59l38.8,6.84l-7.33,41.59L200.92,145.35z M237.68,163.78
		l-7.33,41.59l-38.8-6.84l7.33-41.59L237.68,163.78z M166.17,31.43l38.8,6.84l-7.33,41.59l-38.8-6.84L166.17,31.43z M195.59,91.45
		l-7.33,41.59l-38.8-6.84l7.33-41.59L195.59,91.45z M56.37,32.22l38.8,6.84L90.8,63.88l14.38,2.54l6.1-34.59l38.8,6.84l-7.33,41.59
		l-38.71-6.83L104,73.59c-0.75,4.23-4.46,7.3-8.76,7.22l-7.45-0.14l0.01-0.03l-38.76-6.83L56.37,32.22z M46.99,85.4l38.8,6.84
		l-7.33,41.59l-38.8-6.84L46.99,85.4z M123.99,186.62l-38.7-6.82l-0.02,0.12c-0.75,4.23-4.46,7.3-8.76,7.22l-7.42-0.14l0,0.02
		l-38.8-6.84l7.33-41.59l38.8,6.84l-4.37,24.78l14.38,2.53l6.09-34.55l38.8,6.84L123.99,186.62z M94.56,126.6L101.9,85l38.8,6.84
		l-7.33,41.59L94.56,126.6z M140.1,179.38l7.33-41.59l38.8,6.84l-7.33,41.59L140.1,179.38z M188.86,218.49
		c-4.07,0-7.37-3.3-7.37-7.37s3.3-7.37,7.37-7.37c4.07,0,7.37,3.3,7.37,7.37S192.93,218.49,188.86,218.49z M244.14,281.11
		l-38.06-10.2l10.93-40.8l38.06,10.2L244.14,281.11z M356.45,285.37c-0.72,1.33-2.11,2.25-3.73,2.25c-1.62,0-3.01-0.92-3.73-2.25
		l-6.07,0V284l-48.01,0v1.37l-6.14,0c-0.72,1.33-2.11,2.25-3.73,2.25s-3.01-0.92-3.73-2.25l-9.09,0l0.01-51.73l93.4-0.01l0,51.74
		L356.45,285.37z M356.07,224.52l-3.1-17.61l-15.59,9c-0.65,0.38-1.39,0.58-2.14,0.58h-9.61c0.44,0.95,0.7,2,0.7,3.12
		c0,4.07-3.3,7.37-7.37,7.37s-7.37-3.3-7.37-7.37c0-1.12,0.25-2.17,0.7-3.12h-9.59c-0.75,0-1.49-0.2-2.14-0.58l-15.64-9.03
		l-3.11,17.64l-38.8-6.84l7.33-41.59l38.8,6.84l2.04-11.59l-38.79-6.84l7.33-41.59l38.79,6.84l2.04-11.59l-38.79-6.84l0-0.01
		l-6.97-2.45c-4.07-1.4-6.51-5.54-5.77-9.78l0.01-0.08l-38.74-6.83l7.33-41.59l38.8,6.84l-6.08,34.51l14.38,2.54l4.36-24.74
		l38.8,6.84l-1.83,10.4l25.75,0l-1.83-10.39l38.8-6.84l4.37,24.79l14.38-2.54l-6.09-34.56l38.8-6.84l7.33,41.59L388.84,99l0.02,0.13
		c0.75,4.23-1.7,8.38-5.77,9.78l-6.98,2.4l0,0.02l-38.79,6.84l2.04,11.59l38.79-6.84l7.33,41.59l-38.79,6.84l2.04,11.58l38.79-6.84
		l7.33,41.59L356.07,224.52z M393.7,281.11l-10.93-40.8l38.06-10.2l10.93,40.8L393.7,281.11z M449.03,218.49
		c-4.07,0-7.37-3.3-7.37-7.37s3.3-7.37,7.37-7.37s7.37,3.3,7.37,7.37S453.1,218.49,449.03,218.49z M458.98,186.23l-7.33-41.59
		l38.8-6.84l7.33,41.59L458.98,186.23z M497.17,91.84l38.8-6.84l7.33,41.59l-38.8,6.84L497.17,91.84z M568.78,186.96l-7.38,0.13
		c-4.3,0.08-8.02-2.98-8.76-7.22l-0.02-0.09l-38.73,6.83l-7.33-41.59l38.8-6.84l6.09,34.53l14.38-2.53l-4.36-24.76l38.8-6.84
		l7.33,41.59L568.78,186.96z"/>
</g>
<g id="note">
	<text transform="matrix(1 0 0 1 19.1973 260.735)"><tspan x="0" y="0" class="st1 st2">W : 214.325 mm</tspan><tspan x="0" y="24" class="st1 st2">H : 100.244 mm</tspan></text>
</g>
</svg>
