<?xml version="1.0" encoding="utf-8"?>
<!-- Generator: Adobe Illustrator 25.2.3, SVG Export Plug-In . SVG Version: 6.00 Build 0)  -->
<svg version="1.1" xmlns="http://www.w3.org/2000/svg" xmlns:xlink="http://www.w3.org/1999/xlink" x="0px" y="0px"
	 viewBox="0 0 735.14 325.14" style="enable-background:new 0 0 735.14 325.14;" xml:space="preserve">
<style type="text/css">
	.st0{fill:none;stroke:#000000;stroke-width:0.25;stroke-miterlimit:10;}
	.st1{font-family:'Arial-BoldMT';}
	.st2{font-size:18px;}
</style>
<g id="cut">
	<path class="st0" d="M726.5,190.76L698.78,33.52c-0.72-4.06-4.25-7.03-8.37-7.03H465.73l-26.48-4.64c-0.77-0.13-1.5,0.38-1.64,1.15
		l-1.83,10.35l-6.46,2.35l-5.27-4.42l1.69-9.57c0.21-1.19-0.59-2.33-1.78-2.54h0c-1.19-0.21-2.32,0.58-2.54,1.77l-8.37,46.87
		c-0.41,2.31-2.62,3.85-4.93,3.44l-43.56-7.7c-0.77-0.14-1.51,0.38-1.64,1.15l-1.69,9.59l-6.46,2.35l-5.27-4.42l1.69-9.6
		c0.14-0.77-0.38-1.51-1.15-1.64l-17.37-3.07c-0.77-0.14-1.51,0.38-1.64,1.15l-1.69,9.56l-6.46,2.35l-5.27-4.42l1.69-9.57
		c0.14-0.77-0.38-1.51-1.15-1.64l-2.47-0.44c-0.72-0.13-1.36-0.53-1.79-1.11l-1.62-2.21c-0.43-0.59-1.07-0.99-1.79-1.11l-34.91-6.16
		c-0.94-0.17-1.73-0.79-2.11-1.67l-2.34-5.42c-0.38-0.87-1.17-1.5-2.1-1.67l-50.99-9.08l-173.22,0c-4.13,0-7.66,2.96-8.37,7.02
		L8.63,190.75c-0.82,4.63,2.27,9.04,6.9,9.86l53.31,9.38c0.71,0.13,1.44,0.11,2.15-0.04l23.98-5.06c0.71-0.15,1.45-0.16,2.17-0.03
		l63.23,11.32c1.35,0.24,2.34,1.42,2.34,2.79v43.23c0,1.57,1.27,2.83,2.83,2.83h49.33c1.17,0,2.22,0.72,2.64,1.81l7.12,18.35
		c0.33,0.84,1.04,1.48,1.91,1.71l71.39,19.08h139.43l71.26-19.08c0.87-0.23,1.58-0.87,1.91-1.71l7.11-18.35
		c0.42-1.09,1.47-1.81,2.64-1.81h49.38c1.57,0,2.83-1.27,2.83-2.83v-43.26c0-1.37,0.98-2.55,2.34-2.79l63.3-11.3
		c0.72-0.13,1.46-0.12,2.17,0.04l23.86,5.06c0.71,0.15,1.44,0.16,2.16,0.04l53.26-9.38C724.23,199.79,727.32,195.38,726.5,190.76z
		 M701.75,135.4L701.75,135.4L701.75,135.4l-38.8,6.84l-7.33-41.59l0,0v0l38.8-6.84L701.75,135.4z M591.33,47.07l38.8-6.84l5.5,31.2
		c0.31,1.74,2.09,2.74,3.66,2.21c0.22-0.08,0.44-0.18,0.66-0.32c0.34-0.22,0.69-0.42,1.05-0.59c1.1-0.52,2.32-0.81,3.62-0.81
		c0.68,0,1.34,0.08,1.97,0.23c0.74,0.18,1.45,0.04,2.04-0.3c0.98-0.57,1.59-1.71,1.38-2.95l-3.78-21.43l0,0v0l38.8-6.84l7.33,41.59
		l0,0v0l-38.8,6.84l-0.02-0.13c-0.29-1.63-1.97-2.44-3.42-1.88c-0.21,0.08-0.41,0.19-0.6,0.32c-0.35,0.24-0.71,0.46-1.09,0.66
		c-1.14,0.57-2.44,0.9-3.8,0.9c-4.14,0-7.59-2.97-8.35-6.89l-37.61,6.63L591.33,47.07L591.33,47.07L591.33,47.07z M536.43,46.68
		l38.8-6.84l7.33,41.59l0,0v0l-38.8,6.84L536.43,46.68L536.43,46.68L536.43,46.68z M535.23,123.92c0.31,1.75,2.09,2.74,3.66,2.21
		c0.22-0.08,0.44-0.18,0.66-0.32c0.34-0.22,0.69-0.42,1.05-0.59c1.1-0.52,2.33-0.81,3.63-0.81c0.68,0,1.33,0.08,1.96,0.23
		c0.74,0.18,1.45,0.04,2.04-0.3c0.98-0.57,1.59-1.71,1.37-2.95l-3.79-21.52l0,0v0l38.8-6.84l7.33,41.59l0,0v0l-38.8,6.84l-0.01-0.03
		c-0.29-1.63-1.97-2.44-3.42-1.88c-0.21,0.08-0.41,0.19-0.6,0.32c-0.35,0.24-0.71,0.46-1.09,0.65c-1.14,0.57-2.43,0.9-3.8,0.9
		c-4.18,0-7.64-3.01-8.36-6.98l-37.63,6.63l-7.33-41.59l0,0v0l38.8-6.84L535.23,123.92z M494.96,206.54l-38.8,6.84l-7.33-41.59l0,0
		v0l38.8-6.84L494.96,206.54L494.96,206.54L494.96,206.54z M481.53,46.3l38.8-6.84l7.33,41.59l0,0v0l-38.8,6.84L481.53,46.3
		L481.53,46.3L481.53,46.3z M485.58,153.36L485.58,153.36L485.58,153.36l-38.8,6.84l-7.33-41.59l0,0v0l38.8-6.84L485.58,153.36z
		 M440.65,36.22l1.23-6.98c0.13-0.72,0.61-1.3,1.23-1.57c0.37-0.17,0.8-0.23,1.23-0.15l19.85,3.49c1.16,0.2,1.93,1.31,1.72,2.46
		l-1.23,6.98c-0.13,0.72-0.61,1.3-1.23,1.57c-0.37,0.17-0.8,0.23-1.23,0.15l-19.85-3.49C441.21,38.48,440.44,37.37,440.65,36.22z
		 M256.89,111.77l38.8,6.84l-7.33,41.59l0,0l0,0l-38.8-6.84L256.89,111.77L256.89,111.77L256.89,111.77z M286.31,171.79l-7.33,41.59
		l0,0l0,0l-38.8-6.84l7.33-41.59l0,0l0,0L286.31,171.79z M214.8,39.44L214.8,39.44L214.8,39.44l38.8,6.84l-7.33,41.59l0,0l0,0
		l-38.8-6.84L214.8,39.44z M159.9,39.83L159.9,39.83L159.9,39.83l38.8,6.84l-7.33,41.59l0,0l0,0l-38.8-6.84L159.9,39.83z
		 M150.58,93.01l38.8,6.84l-3.79,21.51c-0.35,1.99,1.44,3.71,3.4,3.25c0.61-0.14,1.26-0.22,1.91-0.22c1.73,0,3.34,0.52,4.68,1.41
		c0.84,0.56,1.84,0.59,2.66,0.22c0.82-0.36,1.48-1.11,1.66-2.11l5.52-31.3l0,0l0,0l38.8,6.84l-7.33,41.59l0,0l0,0l-37.62-6.63
		c-0.49,2.73-2.29,5.01-4.72,6.17c-1.1,0.53-2.34,0.82-3.65,0.82c-1.82,0-3.51-0.57-4.89-1.55c-0.76-0.54-1.67-0.61-2.43-0.32
		c-0.76,0.29-1.37,0.95-1.53,1.87l-0.01,0.04l0,0l0,0l-38.8-6.84L150.58,93.01L150.58,93.01L150.58,93.01z M50.1,40.62L50.1,40.62
		L50.1,40.62l38.8,6.84L85.12,68.9c-0.35,1.99,1.44,3.72,3.41,3.25c0.63-0.15,1.3-0.23,1.98-0.23c1.73,0,3.33,0.52,4.67,1.4
		c0.84,0.56,1.84,0.58,2.66,0.22c0.82-0.36,1.48-1.11,1.66-2.11l5.5-31.2l0,0l0,0l38.8,6.84l-7.33,41.59l0,0l0,0l-37.61-6.63
		c-0.52,2.7-2.31,4.94-4.73,6.08c-1.1,0.52-2.33,0.81-3.62,0.81c-1.83,0-3.51-0.58-4.9-1.56c-0.77-0.55-1.7-0.63-2.47-0.33
		c-0.77,0.29-1.39,0.96-1.56,1.89l-0.02,0.13l0,0l0,0l-38.8-6.84L50.1,40.62z M40.72,93.8L40.72,93.8L40.72,93.8l38.8,6.84
		l-7.33,41.59l0,0l0,0l-38.8-6.84L40.72,93.8z M117.72,195.02L117.72,195.02L117.72,195.02l-38.21-6.74
		c-0.37,2.87-2.17,5.3-4.66,6.54c-1.13,0.56-2.41,0.88-3.76,0.88c-1.88,0-3.61-0.61-5.02-1.64c-0.61-0.45-1.35-0.52-1.97-0.28
		c-0.62,0.23-1.12,0.77-1.25,1.51l-0.02,0.12l0,0l0,0l-38.8-6.84l7.33-41.59l0,0l0,0l38.8,6.84l-3.84,21.78
		c-0.34,1.95,1.38,3.55,3.34,3.22c0.47-0.08,0.94-0.12,1.43-0.12c1.89,0,3.63,0.61,5.04,1.65c0.85,0.63,1.88,0.71,2.75,0.37
		c0.86-0.34,1.56-1.09,1.75-2.14l5.64-31.99l0,0l0,0l38.8,6.84L117.72,195.02z M127.09,141.84L88.29,135l7.33-41.59l0,0l0,0
		l38.8,6.84L127.09,141.84L127.09,141.84L127.09,141.84z M172.62,194.63l-38.8-6.84l0.25-1.4l6.84-38.8h0l0.25-1.4l0,0l0,0
		l38.8,6.84l-0.25,1.4L172.62,194.63L172.62,194.63L172.62,194.63z M216.79,251.66L216.79,251.66L216.79,251.66l-39.4,0l0-42.24h0v0
		h39.4V251.66z M227.51,194.23l-38.8-6.84l7.33-41.59l0,0l0,0l38.8,6.84L227.51,194.23L227.51,194.23L227.51,194.23z M237.49,226.51
		c-4.07,0-7.37-3.3-7.37-7.37c0-3.05,1.86-5.67,4.5-6.79c0.88-0.37,1.85-0.58,2.87-0.58c4.07,0,7.37,3.3,7.37,7.37
		c0,3.05-1.86,5.67-4.5,6.79C239.48,226.3,238.51,226.51,237.49,226.51z M280.89,287.67L280.89,287.67L280.89,287.67l-38.06-10.2
		l10.93-40.8l0,0l0,0l38.06,10.2L280.89,287.67z M413.77,272.96L413.77,272.96L413.77,272.96l-0.02,0l0,20.42h0v0l-8.66,0
		c-0.45,0.83-1.16,1.5-2.03,1.89c-0.52,0.23-1.09,0.36-1.7,0.36c-1.62,0-3.01-0.92-3.73-2.25l-6.07,0v-1.37l-48.01,0v1.37h0v0
		l-6.14,0c-0.45,0.83-1.16,1.5-2.03,1.89c-0.52,0.23-1.09,0.36-1.7,0.36c-1.62,0-3.01-0.92-3.73-2.25l-8.56,0l0.01-51.73h0v0
		l92.35-0.01l0,23.43h0.02V272.96z M404.7,232.53l-3.1-17.61l-15.58,8.99c-0.16,0.09-0.33,0.18-0.5,0.25
		c-0.52,0.22-1.08,0.33-1.64,0.33h-9.61c0.44,0.95,0.7,2,0.7,3.12c0,3.05-1.86,5.67-4.5,6.79c-0.88,0.37-1.85,0.58-2.87,0.58
		c-4.07,0-7.37-3.3-7.37-7.37c0-1.12,0.26-2.17,0.7-3.12h-9.58c-0.75,0-1.49-0.2-2.14-0.58l-15.64-9.03l-3.11,17.64l0,0l0,0
		l-38.8-6.84l7.33-41.59l0,0l0,0l38.79,6.84l2.04-11.58l-38.79-6.84l7.33-41.59l0,0l0,0l38.79,6.84l2.04-11.58l-38.79-6.84l0-0.02
		c0.32-1.79-1.38-3.19-3.12-2.66c-1.3,0.39-2.72,0.48-4.2,0.18c-3.12-0.62-5.67-3.04-6.47-6.11c-0.35-1.36-0.36-2.69-0.12-3.91
		l-37.56-6.62l7.33-41.59l0,0l0,0l38.8,6.84l-5.56,31.53c-0.35,1.99,1.43,3.71,3.4,3.25c0.61-0.14,1.25-0.22,1.91-0.22
		c1.74,0,3.36,0.52,4.7,1.42c0.85,0.57,1.85,0.6,2.68,0.24c0.83-0.36,1.49-1.11,1.67-2.11l3.85-21.82l0,0l0,0l38.8,6.84l-1.83,10.39
		l25.75,0l-1.83-10.39l0,0v0l38.8-6.84l3.84,21.79c0.31,1.74,2.09,2.74,3.66,2.21c0.22-0.08,0.44-0.18,0.66-0.32
		c0.34-0.22,0.69-0.42,1.05-0.59c1.1-0.52,2.33-0.81,3.63-0.81c0.68,0,1.33,0.08,1.97,0.23c0.74,0.18,1.45,0.04,2.04-0.3
		c0.98-0.57,1.59-1.71,1.37-2.95l-5.56-31.55l0,0v0l38.8-6.84l7.33,41.59l0,0v0l-37.62,6.63c0.25,1.23,0.24,2.55-0.12,3.91
		c-0.6,2.3-2.17,4.23-4.24,5.32c-0.69,0.36-1.43,0.63-2.2,0.79c-1.49,0.3-2.92,0.21-4.22-0.18c-0.64-0.19-1.28-0.12-1.8,0.14
		c-0.88,0.44-1.46,1.39-1.26,2.49l0.01,0.04l0,0v0l-38.79,6.84l2.04,11.58l38.79-6.84l7.33,41.59l0,0v0l-38.79,6.84l2.04,11.58
		l38.79-6.84l7.33,41.59l0,0v0L404.7,232.53z M492.3,277.47l-38.06,10.2l-10.93-40.8l0,0v0l38.06-10.2L492.3,277.47L492.3,277.47
		L492.3,277.47z M500.52,225.94c-0.88,0.37-1.85,0.58-2.87,0.58c-4.07,0-7.37-3.3-7.37-7.37c0-3.05,1.86-5.67,4.5-6.79
		c0.88-0.37,1.85-0.58,2.87-0.58c4.07,0,7.37,3.3,7.37,7.37C505.03,222.2,503.17,224.82,500.52,225.94z M507.62,194.24l-7.33-41.59
		l0,0v0l38.8-6.84l7.33,41.59l0,0v0L507.62,194.24z M557.75,251.67L557.75,251.67L557.75,251.67l-39.4,0l0-42.24h0v0h39.4V251.67z
		 M601.32,187.79l-38.8,6.84l-7.33-41.59l0,0v0l38.8-6.84L601.32,187.79L601.32,187.79L601.32,187.79z M600.71,100.25L600.71,100.25
		L600.71,100.25l38.8-6.84l7.33,41.59l0,0v0l-38.8,6.84L600.71,100.25z M711.12,188.58l-38.8,6.84l-0.02-0.12
		c-0.23-1.31-1.59-1.96-2.74-1.5c-0.17,0.07-0.33,0.15-0.48,0.27c-0.53,0.39-1.1,0.71-1.71,0.97c-1.02,0.43-2.13,0.67-3.3,0.67
		c-4.33,0-7.89-3.23-8.43-7.42l-38.22,6.74l-7.33-41.59l0,0v0l38.8-6.84l5.64,32c0.32,1.82,2.22,2.77,3.83,2.14
		c0.23-0.09,0.45-0.21,0.67-0.37c0.53-0.39,1.1-0.72,1.72-0.98c1.02-0.43,2.14-0.67,3.32-0.67c0.49,0,0.97,0.04,1.43,0.12
		c0.73,0.12,1.43-0.02,2-0.36c0.95-0.56,1.54-1.64,1.33-2.86l-3.84-21.78l0,0v0l38.8-6.84l4.59,26.03L711.12,188.58L711.12,188.58
		L711.12,188.58z"/>
</g>
<g id="note">
	<text transform="matrix(1 0 0 1 8.5039 267.4001)"><tspan x="0" y="0" class="st1 st2">W : 253.341 mm</tspan><tspan x="0" y="24" class="st1 st2">H : 101.193 mm</tspan></text>
</g>
</svg>
