G04 #@! TF.GenerationSoftware,KiCad,Pcbnew,(5.1.9-0-10_14)*
G04 #@! TF.CreationDate,2021-12-01T15:52:12+09:00*
G04 #@! TF.ProjectId,top_plate,746f705f-706c-4617-9465-2e6b69636164,rev?*
G04 #@! TF.SameCoordinates,PX1736fe3PY23988cf*
G04 #@! TF.FileFunction,Profile,NP*
%FSLAX46Y46*%
G04 Gerber Fmt 4.6, Leading zero omitted, Abs format (unit mm)*
G04 Created by KiCad (PCBNEW (5.1.9-0-10_14)) date 2021-12-01 15:52:12*
%MOMM*%
%LPD*%
G01*
G04 APERTURE LIST*
G04 #@! TA.AperFunction,Profile*
%ADD10C,0.088000*%
G04 #@! TD*
G04 APERTURE END LIST*
D10*
X254835010Y3195260D02*
X254829805Y3401100D01*
X254829805Y3401100D02*
X254814358Y3604237D01*
X254814358Y3604237D02*
X254788921Y3804420D01*
X254788921Y3804420D02*
X254753744Y4001399D01*
X254753744Y4001399D02*
X254709079Y4194921D01*
X254709079Y4194921D02*
X254655178Y4384736D01*
X254655178Y4384736D02*
X254592291Y4570592D01*
X254592291Y4570592D02*
X254520670Y4752238D01*
X254520670Y4752238D02*
X254440567Y4929423D01*
X254440567Y4929423D02*
X254352232Y5101895D01*
X254352232Y5101895D02*
X254255917Y5269402D01*
X254255917Y5269402D02*
X254151873Y5431695D01*
X254151873Y5431695D02*
X254040353Y5588520D01*
X254040353Y5588520D02*
X253921606Y5739627D01*
X253921606Y5739627D02*
X253795884Y5884765D01*
X253795884Y5884765D02*
X253663439Y6023683D01*
X253663439Y6023683D02*
X253524521Y6156128D01*
X253524521Y6156128D02*
X253379383Y6281850D01*
X253379383Y6281850D02*
X253228276Y6400597D01*
X253228276Y6400597D02*
X253071451Y6512117D01*
X253071451Y6512117D02*
X252909158Y6616161D01*
X252909158Y6616161D02*
X252741651Y6712476D01*
X252741651Y6712476D02*
X252569179Y6800811D01*
X252569179Y6800811D02*
X252391994Y6880914D01*
X252391994Y6880914D02*
X252210348Y6952535D01*
X252210348Y6952535D02*
X252024492Y7015422D01*
X252024492Y7015422D02*
X251834677Y7069323D01*
X251834677Y7069323D02*
X251641155Y7113988D01*
X251641155Y7113988D02*
X251444176Y7149165D01*
X251444176Y7149165D02*
X251243993Y7174602D01*
X251243993Y7174602D02*
X251040856Y7190049D01*
X251040856Y7190049D02*
X250835017Y7195253D01*
X254835010Y-103217753D02*
X254835010Y3195260D01*
X250835017Y-107217746D02*
X251040856Y-107212541D01*
X251040856Y-107212541D02*
X251243993Y-107197094D01*
X251243993Y-107197094D02*
X251444176Y-107171657D01*
X251444176Y-107171657D02*
X251641155Y-107136480D01*
X251641155Y-107136480D02*
X251834677Y-107091815D01*
X251834677Y-107091815D02*
X252024492Y-107037914D01*
X252024492Y-107037914D02*
X252210348Y-106975027D01*
X252210348Y-106975027D02*
X252391994Y-106903406D01*
X252391994Y-106903406D02*
X252569179Y-106823303D01*
X252569179Y-106823303D02*
X252741651Y-106734968D01*
X252741651Y-106734968D02*
X252909158Y-106638653D01*
X252909158Y-106638653D02*
X253071451Y-106534609D01*
X253071451Y-106534609D02*
X253228276Y-106423089D01*
X253228276Y-106423089D02*
X253379383Y-106304342D01*
X253379383Y-106304342D02*
X253524521Y-106178620D01*
X253524521Y-106178620D02*
X253663439Y-106046175D01*
X253663439Y-106046175D02*
X253795884Y-105907257D01*
X253795884Y-105907257D02*
X253921606Y-105762119D01*
X253921606Y-105762119D02*
X254040353Y-105611012D01*
X254040353Y-105611012D02*
X254151873Y-105454187D01*
X254151873Y-105454187D02*
X254255917Y-105291894D01*
X254255917Y-105291894D02*
X254352232Y-105124387D01*
X254352232Y-105124387D02*
X254440567Y-104951915D01*
X254440567Y-104951915D02*
X254520670Y-104774730D01*
X254520670Y-104774730D02*
X254592291Y-104593084D01*
X254592291Y-104593084D02*
X254655178Y-104407228D01*
X254655178Y-104407228D02*
X254709079Y-104217413D01*
X254709079Y-104217413D02*
X254753744Y-104023891D01*
X254753744Y-104023891D02*
X254788921Y-103826912D01*
X254788921Y-103826912D02*
X254814358Y-103626729D01*
X254814358Y-103626729D02*
X254829805Y-103423592D01*
X254829805Y-103423592D02*
X254835010Y-103217753D01*
X-3214980Y-107217746D02*
X250835017Y-107217746D01*
X-7214973Y-103217753D02*
X-7209769Y-103423592D01*
X-7209769Y-103423592D02*
X-7194322Y-103626729D01*
X-7194322Y-103626729D02*
X-7168885Y-103826912D01*
X-7168885Y-103826912D02*
X-7133708Y-104023891D01*
X-7133708Y-104023891D02*
X-7089043Y-104217413D01*
X-7089043Y-104217413D02*
X-7035142Y-104407228D01*
X-7035142Y-104407228D02*
X-6972255Y-104593084D01*
X-6972255Y-104593084D02*
X-6900634Y-104774730D01*
X-6900634Y-104774730D02*
X-6820531Y-104951915D01*
X-6820531Y-104951915D02*
X-6732196Y-105124387D01*
X-6732196Y-105124387D02*
X-6635881Y-105291894D01*
X-6635881Y-105291894D02*
X-6531837Y-105454187D01*
X-6531837Y-105454187D02*
X-6420317Y-105611012D01*
X-6420317Y-105611012D02*
X-6301570Y-105762119D01*
X-6301570Y-105762119D02*
X-6175848Y-105907257D01*
X-6175848Y-105907257D02*
X-6043403Y-106046175D01*
X-6043403Y-106046175D02*
X-5904485Y-106178620D01*
X-5904485Y-106178620D02*
X-5759347Y-106304342D01*
X-5759347Y-106304342D02*
X-5608240Y-106423089D01*
X-5608240Y-106423089D02*
X-5451415Y-106534609D01*
X-5451415Y-106534609D02*
X-5289122Y-106638653D01*
X-5289122Y-106638653D02*
X-5121615Y-106734968D01*
X-5121615Y-106734968D02*
X-4949143Y-106823303D01*
X-4949143Y-106823303D02*
X-4771958Y-106903406D01*
X-4771958Y-106903406D02*
X-4590312Y-106975027D01*
X-4590312Y-106975027D02*
X-4404456Y-107037914D01*
X-4404456Y-107037914D02*
X-4214641Y-107091815D01*
X-4214641Y-107091815D02*
X-4021119Y-107136480D01*
X-4021119Y-107136480D02*
X-3824140Y-107171657D01*
X-3824140Y-107171657D02*
X-3623957Y-107197094D01*
X-3623957Y-107197094D02*
X-3420820Y-107212541D01*
X-3420820Y-107212541D02*
X-3214980Y-107217746D01*
X-7214973Y-19544442D02*
X-7214973Y-103217753D01*
X-6922079Y-18837336D02*
X-6988508Y-18910684D01*
X-6988508Y-18910684D02*
X-7046961Y-18989642D01*
X-7046961Y-18989642D02*
X-7097167Y-19073552D01*
X-7097167Y-19073552D02*
X-7138853Y-19161759D01*
X-7138853Y-19161759D02*
X-7171748Y-19253607D01*
X-7171748Y-19253607D02*
X-7195581Y-19348440D01*
X-7195581Y-19348440D02*
X-7210080Y-19445604D01*
X-7210080Y-19445604D02*
X-7214973Y-19544442D01*
X-3969013Y-15884269D02*
X-6922079Y-18837336D01*
X-3115460Y-16237823D02*
X-3129033Y-16118662D01*
X-3129033Y-16118662D02*
X-3167239Y-16012789D01*
X-3167239Y-16012789D02*
X-3226310Y-15921764D01*
X-3226310Y-15921764D02*
X-3302478Y-15847148D01*
X-3302478Y-15847148D02*
X-3391976Y-15790502D01*
X-3391976Y-15790502D02*
X-3491034Y-15753385D01*
X-3491034Y-15753385D02*
X-3595886Y-15737360D01*
X-3595886Y-15737360D02*
X-3702763Y-15743986D01*
X-3702763Y-15743986D02*
X-3807897Y-15774825D01*
X-3807897Y-15774825D02*
X-3907520Y-15831438D01*
X-3907520Y-15831438D02*
X-3969013Y-15884269D01*
X-3115460Y-19555246D02*
X-3115460Y-16237823D01*
X33993515Y-19555246D02*
X-3115460Y-19555246D01*
X33993515Y494758D02*
X33993515Y-19555246D01*
X-3115460Y494758D02*
X33993515Y494758D01*
X-3115460Y-2822666D02*
X-3115460Y494758D01*
X-3969013Y-3176219D02*
X-3875157Y-3250880D01*
X-3875157Y-3250880D02*
X-3773278Y-3298728D01*
X-3773278Y-3298728D02*
X-3667145Y-3321323D01*
X-3667145Y-3321323D02*
X-3560524Y-3320225D01*
X-3560524Y-3320225D02*
X-3457185Y-3296996D01*
X-3457185Y-3296996D02*
X-3360895Y-3253196D01*
X-3360895Y-3253196D02*
X-3275422Y-3190387D01*
X-3275422Y-3190387D02*
X-3204534Y-3110128D01*
X-3204534Y-3110128D02*
X-3151999Y-3013980D01*
X-3151999Y-3013980D02*
X-3121586Y-2903505D01*
X-3121586Y-2903505D02*
X-3115460Y-2822666D01*
X-6922079Y-223153D02*
X-3969013Y-3176219D01*
X-7214973Y483954D02*
X-7210080Y385117D01*
X-7210080Y385117D02*
X-7195581Y287953D01*
X-7195581Y287953D02*
X-7171748Y193120D01*
X-7171748Y193120D02*
X-7138853Y101271D01*
X-7138853Y101271D02*
X-7097167Y13064D01*
X-7097167Y13064D02*
X-7046961Y-70846D01*
X-7046961Y-70846D02*
X-6988508Y-149803D01*
X-6988508Y-149803D02*
X-6922079Y-223153D01*
X-7214973Y3195260D02*
X-7214973Y483954D01*
X-3214980Y7195253D02*
X-3420820Y7190049D01*
X-3420820Y7190049D02*
X-3623957Y7174602D01*
X-3623957Y7174602D02*
X-3824140Y7149165D01*
X-3824140Y7149165D02*
X-4021119Y7113988D01*
X-4021119Y7113988D02*
X-4214641Y7069323D01*
X-4214641Y7069323D02*
X-4404456Y7015422D01*
X-4404456Y7015422D02*
X-4590312Y6952535D01*
X-4590312Y6952535D02*
X-4771958Y6880914D01*
X-4771958Y6880914D02*
X-4949143Y6800811D01*
X-4949143Y6800811D02*
X-5121615Y6712476D01*
X-5121615Y6712476D02*
X-5289122Y6616161D01*
X-5289122Y6616161D02*
X-5451415Y6512117D01*
X-5451415Y6512117D02*
X-5608240Y6400597D01*
X-5608240Y6400597D02*
X-5759347Y6281850D01*
X-5759347Y6281850D02*
X-5904485Y6156128D01*
X-5904485Y6156128D02*
X-6043403Y6023683D01*
X-6043403Y6023683D02*
X-6175848Y5884765D01*
X-6175848Y5884765D02*
X-6301570Y5739627D01*
X-6301570Y5739627D02*
X-6420317Y5588520D01*
X-6420317Y5588520D02*
X-6531837Y5431695D01*
X-6531837Y5431695D02*
X-6635881Y5269402D01*
X-6635881Y5269402D02*
X-6732196Y5101895D01*
X-6732196Y5101895D02*
X-6820531Y4929423D01*
X-6820531Y4929423D02*
X-6900634Y4752238D01*
X-6900634Y4752238D02*
X-6972255Y4570592D01*
X-6972255Y4570592D02*
X-7035142Y4384736D01*
X-7035142Y4384736D02*
X-7089043Y4194921D01*
X-7089043Y4194921D02*
X-7133708Y4001399D01*
X-7133708Y4001399D02*
X-7168885Y3804420D01*
X-7168885Y3804420D02*
X-7194322Y3604237D01*
X-7194322Y3604237D02*
X-7209769Y3401100D01*
X-7209769Y3401100D02*
X-7214973Y3195260D01*
X250835017Y7195253D02*
X-3214980Y7195253D01*
X226347515Y-40342478D02*
X226347537Y-26342493D01*
X240347500Y-40342500D02*
X226347515Y-40342478D01*
X240347522Y-26342493D02*
X240347500Y-40342500D01*
X226347537Y-26342493D02*
X240347522Y-26342493D01*
X207297515Y-16529978D02*
X207297537Y-2529993D01*
X221297500Y-16530000D02*
X207297515Y-16529978D01*
X221297522Y-2529993D02*
X221297500Y-16530000D01*
X207297537Y-2529993D02*
X221297522Y-2529993D01*
X202535015Y-40342478D02*
X202535037Y-26342493D01*
X216535000Y-40342500D02*
X202535015Y-40342478D01*
X216535022Y-26342493D02*
X216535000Y-40342500D01*
X202535037Y-26342493D02*
X216535022Y-26342493D01*
X188247515Y-16529978D02*
X188247537Y-2529993D01*
X202247500Y-16530000D02*
X188247515Y-16529978D01*
X202247522Y-2529993D02*
X202247500Y-16530000D01*
X188247537Y-2529993D02*
X202247522Y-2529993D01*
X188247537Y-45392493D02*
X202247522Y-45392493D01*
X188247515Y-59392478D02*
X188247537Y-45392493D01*
X202247500Y-59392500D02*
X188247515Y-59392478D01*
X202247522Y-45392493D02*
X202247500Y-59392500D01*
X183485015Y-40342478D02*
X183485037Y-26342493D01*
X197485000Y-40342500D02*
X183485015Y-40342478D01*
X197485022Y-26342493D02*
X197485000Y-40342500D01*
X183485037Y-26342493D02*
X197485022Y-26342493D01*
X169197515Y-16529978D02*
X169197537Y-2529993D01*
X183197500Y-16530000D02*
X169197515Y-16529978D01*
X183197522Y-2529993D02*
X183197500Y-16530000D01*
X169197537Y-2529993D02*
X183197522Y-2529993D01*
X169197537Y-45392493D02*
X183197522Y-45392493D01*
X169197515Y-59392478D02*
X169197537Y-45392493D01*
X183197500Y-59392500D02*
X169197515Y-59392478D01*
X183197522Y-45392493D02*
X183197500Y-59392500D01*
X164435015Y-40342478D02*
X164435037Y-26342493D01*
X178435000Y-40342500D02*
X164435015Y-40342478D01*
X178435022Y-26342493D02*
X178435000Y-40342500D01*
X164435037Y-26342493D02*
X178435022Y-26342493D01*
X150147515Y-16529978D02*
X150147537Y-2529993D01*
X164147500Y-16530000D02*
X150147515Y-16529978D01*
X164147522Y-2529993D02*
X164147500Y-16530000D01*
X150147537Y-2529993D02*
X164147522Y-2529993D01*
X164147500Y-59392500D02*
X150147515Y-59392478D01*
X164147522Y-45392493D02*
X164147500Y-59392500D01*
X150147537Y-45392493D02*
X164147522Y-45392493D01*
X150147515Y-59392478D02*
X150147537Y-45392493D01*
X140622537Y-64442493D02*
X154622522Y-64442493D01*
X140622515Y-78442478D02*
X140622537Y-64442493D01*
X154622500Y-78442500D02*
X140622515Y-78442478D01*
X154622522Y-64442493D02*
X154622500Y-78442500D01*
X145385015Y-40342478D02*
X145385037Y-26342493D01*
X159385000Y-40342500D02*
X145385015Y-40342478D01*
X159385022Y-26342493D02*
X159385000Y-40342500D01*
X145385037Y-26342493D02*
X159385022Y-26342493D01*
X145097522Y-45392493D02*
X145097500Y-59392500D01*
X131097537Y-45392493D02*
X145097522Y-45392493D01*
X131097515Y-59392478D02*
X131097537Y-45392493D01*
X145097500Y-59392500D02*
X131097515Y-59392478D01*
X126335015Y-16529978D02*
X126335037Y-2529993D01*
X140335000Y-16530000D02*
X126335015Y-16529978D01*
X140335022Y-2529993D02*
X140335000Y-16530000D01*
X126335037Y-2529993D02*
X140335022Y-2529993D01*
X126335015Y-40342478D02*
X126335037Y-26342493D01*
X140335000Y-40342500D02*
X126335015Y-40342478D01*
X140335022Y-26342493D02*
X140335000Y-40342500D01*
X126335037Y-26342493D02*
X140335022Y-26342493D01*
X126047500Y-59392500D02*
X112047515Y-59392478D01*
X126047522Y-45392493D02*
X126047500Y-59392500D01*
X112047537Y-45392493D02*
X126047522Y-45392493D01*
X112047515Y-59392478D02*
X112047537Y-45392493D01*
X102522537Y-64442493D02*
X116522522Y-64442493D01*
X102522515Y-78442478D02*
X102522537Y-64442493D01*
X116522500Y-78442500D02*
X102522515Y-78442478D01*
X116522522Y-64442493D02*
X116522500Y-78442500D01*
X107285015Y-16529978D02*
X107285037Y-2529993D01*
X121285000Y-16530000D02*
X107285015Y-16529978D01*
X121285022Y-2529993D02*
X121285000Y-16530000D01*
X107285037Y-2529993D02*
X121285022Y-2529993D01*
X107285015Y-40342478D02*
X107285037Y-26342493D01*
X121285000Y-40342500D02*
X107285015Y-40342478D01*
X121285022Y-26342493D02*
X121285000Y-40342500D01*
X107285037Y-26342493D02*
X121285022Y-26342493D01*
X106997522Y-45392493D02*
X106997500Y-59392500D01*
X92997537Y-45392493D02*
X106997522Y-45392493D01*
X92997515Y-59392478D02*
X92997537Y-45392493D01*
X106997500Y-59392500D02*
X92997515Y-59392478D01*
X83472537Y-64442493D02*
X97472522Y-64442493D01*
X83472515Y-78442478D02*
X83472537Y-64442493D01*
X97472500Y-78442500D02*
X83472515Y-78442478D01*
X97472522Y-64442493D02*
X97472500Y-78442500D01*
X88235015Y-16529978D02*
X88235037Y-2529993D01*
X102235000Y-16530000D02*
X88235015Y-16529978D01*
X102235022Y-2529993D02*
X102235000Y-16530000D01*
X88235037Y-2529993D02*
X102235022Y-2529993D01*
X88235015Y-40342478D02*
X88235037Y-26342493D01*
X102235000Y-40342500D02*
X88235015Y-40342478D01*
X102235022Y-26342493D02*
X102235000Y-40342500D01*
X88235037Y-26342493D02*
X102235022Y-26342493D01*
X87947522Y-45392493D02*
X87947500Y-59392500D01*
X73947537Y-45392493D02*
X87947522Y-45392493D01*
X73947515Y-59392478D02*
X73947537Y-45392493D01*
X87947500Y-59392500D02*
X73947515Y-59392478D01*
X69185015Y-16529978D02*
X69185037Y-2529993D01*
X83185000Y-16530000D02*
X69185015Y-16529978D01*
X83185022Y-2529993D02*
X83185000Y-16530000D01*
X69185037Y-2529993D02*
X83185022Y-2529993D01*
X69185015Y-40342478D02*
X69185037Y-26342493D01*
X83185000Y-40342500D02*
X69185015Y-40342478D01*
X83185022Y-26342493D02*
X83185000Y-40342500D01*
X69185037Y-26342493D02*
X83185022Y-26342493D01*
X45372515Y-78442478D02*
X45372537Y-64442493D01*
X59372500Y-78442500D02*
X45372515Y-78442478D01*
X59372522Y-64442493D02*
X59372500Y-78442500D01*
X45372537Y-64442493D02*
X59372522Y-64442493D01*
X49847500Y-59392500D02*
X35847515Y-59392478D01*
X49847522Y-45392493D02*
X49847500Y-59392500D01*
X35847537Y-45392493D02*
X49847522Y-45392493D01*
X35847515Y-59392478D02*
X35847537Y-45392493D01*
X68897500Y-59392500D02*
X54897515Y-59392478D01*
X68897522Y-45392493D02*
X68897500Y-59392500D01*
X54897537Y-45392493D02*
X68897522Y-45392493D01*
X54897515Y-59392478D02*
X54897537Y-45392493D01*
X64135022Y-26342493D02*
X64135000Y-40342500D01*
X50135037Y-26342493D02*
X64135022Y-26342493D01*
X50135015Y-40342478D02*
X50135037Y-26342493D01*
X64135000Y-40342500D02*
X50135015Y-40342478D01*
X45372515Y-16529978D02*
X45372537Y-2529993D01*
X59372500Y-16530000D02*
X45372515Y-16529978D01*
X59372522Y-2529993D02*
X59372500Y-16530000D01*
X45372537Y-2529993D02*
X59372522Y-2529993D01*
X31085015Y-40342478D02*
X31085037Y-26342493D01*
X45085000Y-40342500D02*
X31085015Y-40342478D01*
X45085022Y-26342493D02*
X45085000Y-40342500D01*
X31085037Y-26342493D02*
X45085022Y-26342493D01*
X7272515Y-40342478D02*
X7272537Y-26342493D01*
X21272500Y-40342500D02*
X7272515Y-40342478D01*
X21272522Y-26342493D02*
X21272500Y-40342500D01*
X7272537Y-26342493D02*
X21272522Y-26342493D01*
X4891018Y-59392220D02*
X4891018Y-45392235D01*
X23653750Y-59392500D02*
X4891018Y-59392220D01*
X23653772Y-45392493D02*
X23653750Y-59392500D01*
X4891018Y-45392235D02*
X23653772Y-45392493D01*
X21272522Y-83492493D02*
X21272500Y-97492500D01*
X7272537Y-83492493D02*
X21272522Y-83492493D01*
X7272515Y-97492478D02*
X7272537Y-83492493D01*
X21272500Y-97492500D02*
X7272515Y-97492478D01*
X29954399Y-77564517D02*
X29857094Y-77544868D01*
X29857094Y-77544868D02*
X29777633Y-77491287D01*
X29777633Y-77491287D02*
X29724060Y-77411819D01*
X29724060Y-77411819D02*
X29704415Y-77314511D01*
X36779349Y-77564539D02*
X29954399Y-77564517D01*
X37029355Y-77314533D02*
X37009709Y-77411841D01*
X37009709Y-77411841D02*
X36956133Y-77491309D01*
X36956133Y-77491309D02*
X36876666Y-77544890D01*
X36876666Y-77544890D02*
X36779349Y-77564539D01*
X37029355Y-73726638D02*
X37029355Y-77314533D01*
X37864705Y-73726638D02*
X37029355Y-73726638D01*
X37864726Y-69135639D02*
X37864705Y-73726638D01*
X37029377Y-69135639D02*
X37864726Y-69135639D01*
X37029398Y-62799699D02*
X37029377Y-69135639D01*
X36529407Y-62299687D02*
X36630169Y-62309845D01*
X36630169Y-62309845D02*
X36724020Y-62338980D01*
X36724020Y-62338980D02*
X36808951Y-62385081D01*
X36808951Y-62385081D02*
X36882949Y-62446138D01*
X36882949Y-62446138D02*
X36944004Y-62520138D01*
X36944004Y-62520138D02*
X36990104Y-62605073D01*
X36990104Y-62605073D02*
X37019239Y-62698930D01*
X37019239Y-62698930D02*
X37029398Y-62799699D01*
X30204449Y-62299687D02*
X36529407Y-62299687D01*
X29704458Y-62799678D02*
X29714615Y-62698909D01*
X29714615Y-62698909D02*
X29743748Y-62605052D01*
X29743748Y-62605052D02*
X29789846Y-62520118D01*
X29789846Y-62520118D02*
X29850898Y-62446119D01*
X29850898Y-62446119D02*
X29924895Y-62385065D01*
X29924895Y-62385065D02*
X30009826Y-62338968D01*
X30009826Y-62338968D02*
X30103680Y-62309838D01*
X30103680Y-62309838D02*
X30204449Y-62299687D01*
X29704436Y-69118026D02*
X29704458Y-62799678D01*
X28416013Y-69118026D02*
X29704436Y-69118026D01*
X28416013Y-64431146D02*
X28416013Y-69118026D01*
X14416028Y-64431146D02*
X28416013Y-64431146D01*
X14416028Y-69135639D02*
X14416028Y-64431146D01*
X13150537Y-69135639D02*
X14416028Y-69135639D01*
X13150559Y-62799699D02*
X13150537Y-69135639D01*
X12650568Y-62299687D02*
X12751329Y-62309845D01*
X12751329Y-62309845D02*
X12845181Y-62338980D01*
X12845181Y-62338980D02*
X12930111Y-62385081D01*
X12930111Y-62385081D02*
X13004110Y-62446138D01*
X13004110Y-62446138D02*
X13065164Y-62520138D01*
X13065164Y-62520138D02*
X13111265Y-62605073D01*
X13111265Y-62605073D02*
X13140400Y-62698930D01*
X13140400Y-62698930D02*
X13150559Y-62799699D01*
X6325609Y-62299687D02*
X12650568Y-62299687D01*
X5825618Y-62799678D02*
X5835775Y-62698909D01*
X5835775Y-62698909D02*
X5864908Y-62605052D01*
X5864908Y-62605052D02*
X5911006Y-62520118D01*
X5911006Y-62520118D02*
X5972058Y-62446119D01*
X5972058Y-62446119D02*
X6046055Y-62385065D01*
X6046055Y-62385065D02*
X6130986Y-62338968D01*
X6130986Y-62338968D02*
X6224840Y-62309838D01*
X6224840Y-62309838D02*
X6325609Y-62299687D01*
X5825597Y-69118026D02*
X5825618Y-62799678D01*
X4990225Y-69118026D02*
X5825597Y-69118026D01*
X4990225Y-73729157D02*
X4990225Y-69118026D01*
X5825597Y-73729157D02*
X4990225Y-73729157D01*
X5825575Y-77314511D02*
X5825597Y-73729157D01*
X6075560Y-77564517D02*
X5978254Y-77544868D01*
X5978254Y-77544868D02*
X5898794Y-77491287D01*
X5898794Y-77491287D02*
X5845220Y-77411819D01*
X5845220Y-77411819D02*
X5825575Y-77314511D01*
X12900509Y-77564539D02*
X6075560Y-77564517D01*
X13150515Y-77314533D02*
X13130869Y-77411841D01*
X13130869Y-77411841D02*
X13077293Y-77491309D01*
X13077293Y-77491309D02*
X12997826Y-77544890D01*
X12997826Y-77544890D02*
X12900509Y-77564539D01*
X13150537Y-73726638D02*
X13150515Y-77314533D01*
X14416028Y-73726638D02*
X13150537Y-73726638D01*
X14416028Y-78431153D02*
X14416028Y-73726638D01*
X28416013Y-78431153D02*
X14416028Y-78431153D01*
X28416013Y-73729157D02*
X28416013Y-78431153D01*
X29704415Y-73729157D02*
X28416013Y-73729157D01*
X29704415Y-77314511D02*
X29704415Y-73729157D01*
X47466272Y-83492493D02*
X47466250Y-97492500D01*
X33466265Y-83492493D02*
X47466272Y-83492493D01*
X33466265Y-97492478D02*
X33466265Y-83492493D01*
X47466250Y-97492500D02*
X33466265Y-97492478D01*
X71278772Y-83492493D02*
X71278750Y-97492500D01*
X57278765Y-83492493D02*
X71278772Y-83492493D01*
X57278765Y-97492478D02*
X57278765Y-83492493D01*
X71278750Y-97492500D02*
X57278765Y-97492478D01*
X78422522Y-64442493D02*
X78422500Y-78442500D01*
X64422537Y-64442493D02*
X78422522Y-64442493D01*
X64422515Y-78442478D02*
X64422537Y-64442493D01*
X78422500Y-78442500D02*
X64422515Y-78442478D01*
X118813489Y-88205857D02*
X118813467Y-92796856D01*
X117978139Y-88205857D02*
X118813489Y-88205857D01*
X117978161Y-81869918D02*
X117978139Y-88205857D01*
X117478170Y-81369905D02*
X117578931Y-81380063D01*
X117578931Y-81380063D02*
X117672783Y-81409199D01*
X117672783Y-81409199D02*
X117757713Y-81455300D01*
X117757713Y-81455300D02*
X117831712Y-81516356D01*
X117831712Y-81516356D02*
X117892766Y-81590357D01*
X117892766Y-81590357D02*
X117938867Y-81675291D01*
X117938867Y-81675291D02*
X117968002Y-81769148D01*
X117968002Y-81769148D02*
X117978161Y-81869918D01*
X111153211Y-81369905D02*
X117478170Y-81369905D01*
X110653220Y-81869896D02*
X110663377Y-81769127D01*
X110663377Y-81769127D02*
X110692510Y-81675270D01*
X110692510Y-81675270D02*
X110738608Y-81590336D01*
X110738608Y-81590336D02*
X110799660Y-81516337D01*
X110799660Y-81516337D02*
X110873657Y-81455284D01*
X110873657Y-81455284D02*
X110958588Y-81409186D01*
X110958588Y-81409186D02*
X111052442Y-81380056D01*
X111052442Y-81380056D02*
X111153211Y-81369905D01*
X110653199Y-88188244D02*
X110653220Y-81869896D01*
X109364776Y-88188244D02*
X110653199Y-88188244D01*
X109364776Y-83501364D02*
X109364776Y-88188244D01*
X95364791Y-83501364D02*
X109364776Y-83501364D01*
X95364791Y-88205857D02*
X95364791Y-83501364D01*
X94099300Y-88205857D02*
X95364791Y-88205857D01*
X94099321Y-81869918D02*
X94099300Y-88205857D01*
X93599330Y-81369905D02*
X93700092Y-81380063D01*
X93700092Y-81380063D02*
X93793943Y-81409199D01*
X93793943Y-81409199D02*
X93878874Y-81455300D01*
X93878874Y-81455300D02*
X93952872Y-81516356D01*
X93952872Y-81516356D02*
X94013927Y-81590357D01*
X94013927Y-81590357D02*
X94060027Y-81675291D01*
X94060027Y-81675291D02*
X94089162Y-81769148D01*
X94089162Y-81769148D02*
X94099321Y-81869918D01*
X82550801Y-81357524D02*
X93599330Y-81369905D01*
X82050810Y-81857537D02*
X82060967Y-81756767D01*
X82060967Y-81756767D02*
X82090100Y-81662910D01*
X82090100Y-81662910D02*
X82136198Y-81577976D01*
X82136198Y-81577976D02*
X82197250Y-81503975D01*
X82197250Y-81503975D02*
X82271247Y-81442919D01*
X82271247Y-81442919D02*
X82356178Y-81396818D01*
X82356178Y-81396818D02*
X82450032Y-81367682D01*
X82450032Y-81367682D02*
X82550801Y-81357524D01*
X82050789Y-88175885D02*
X82050810Y-81857537D01*
X81215418Y-88175885D02*
X82050789Y-88175885D01*
X81215418Y-92787016D02*
X81215418Y-88175885D01*
X82050789Y-92787016D02*
X81215418Y-92787016D01*
X82050767Y-96372370D02*
X82050789Y-92787016D01*
X82300752Y-96622376D02*
X82203446Y-96602727D01*
X82203446Y-96602727D02*
X82123986Y-96549146D01*
X82123986Y-96549146D02*
X82070412Y-96469678D01*
X82070412Y-96469678D02*
X82050767Y-96372370D01*
X93849272Y-96634757D02*
X82300752Y-96622376D01*
X94099278Y-96384751D02*
X94079632Y-96482059D01*
X94079632Y-96482059D02*
X94026056Y-96561527D01*
X94026056Y-96561527D02*
X93946589Y-96615108D01*
X93946589Y-96615108D02*
X93849272Y-96634757D01*
X94099300Y-92796856D02*
X94099278Y-96384751D01*
X95364791Y-92796856D02*
X94099300Y-92796856D01*
X95364791Y-97501371D02*
X95364791Y-92796856D01*
X109364776Y-97501371D02*
X95364791Y-97501371D01*
X109364776Y-92799375D02*
X109364776Y-97501371D01*
X110653177Y-92799375D02*
X109364776Y-92799375D01*
X110653177Y-96384729D02*
X110653177Y-92799375D01*
X110903162Y-96634736D02*
X110805856Y-96615087D01*
X110805856Y-96615087D02*
X110726396Y-96561506D01*
X110726396Y-96561506D02*
X110672822Y-96482037D01*
X110672822Y-96482037D02*
X110653177Y-96384729D01*
X117728111Y-96634757D02*
X110903162Y-96634736D01*
X117978118Y-96384751D02*
X117958472Y-96482059D01*
X117958472Y-96482059D02*
X117904896Y-96561527D01*
X117904896Y-96561527D02*
X117825428Y-96615108D01*
X117825428Y-96615108D02*
X117728111Y-96634757D01*
X117978118Y-92796856D02*
X117978118Y-96384751D01*
X118813467Y-92796856D02*
X117978118Y-92796856D01*
X121572515Y-78442478D02*
X121572537Y-64442493D01*
X135572500Y-78442500D02*
X121572515Y-78442478D01*
X135572522Y-64442493D02*
X135572500Y-78442500D01*
X121572537Y-64442493D02*
X135572522Y-64442493D01*
X165618491Y-92796856D02*
X165618491Y-96384751D01*
X166453841Y-92796856D02*
X165618491Y-92796856D01*
X166453863Y-88205857D02*
X166453841Y-92796856D01*
X165618513Y-88205857D02*
X166453863Y-88205857D01*
X165618535Y-81869918D02*
X165618513Y-88205857D01*
X165118544Y-81369905D02*
X165219305Y-81380063D01*
X165219305Y-81380063D02*
X165313157Y-81409199D01*
X165313157Y-81409199D02*
X165398087Y-81455300D01*
X165398087Y-81455300D02*
X165472086Y-81516356D01*
X165472086Y-81516356D02*
X165533140Y-81590357D01*
X165533140Y-81590357D02*
X165579241Y-81675291D01*
X165579241Y-81675291D02*
X165608376Y-81769148D01*
X165608376Y-81769148D02*
X165618535Y-81869918D01*
X158793585Y-81369905D02*
X165118544Y-81369905D01*
X158293594Y-81869896D02*
X158303751Y-81769127D01*
X158303751Y-81769127D02*
X158332884Y-81675270D01*
X158332884Y-81675270D02*
X158378982Y-81590336D01*
X158378982Y-81590336D02*
X158440034Y-81516337D01*
X158440034Y-81516337D02*
X158514031Y-81455284D01*
X158514031Y-81455284D02*
X158598962Y-81409186D01*
X158598962Y-81409186D02*
X158692816Y-81380056D01*
X158692816Y-81380056D02*
X158793585Y-81369905D01*
X158293573Y-88188244D02*
X158293594Y-81869896D01*
X157005150Y-88188244D02*
X158293573Y-88188244D01*
X157005150Y-83501364D02*
X157005150Y-88188244D01*
X141739695Y-83492407D02*
X157005150Y-83501364D01*
X141739695Y-81869918D02*
X141739695Y-83492407D01*
X141239704Y-81369905D02*
X141340465Y-81380063D01*
X141340465Y-81380063D02*
X141434317Y-81409199D01*
X141434317Y-81409199D02*
X141519247Y-81455300D01*
X141519247Y-81455300D02*
X141593246Y-81516356D01*
X141593246Y-81516356D02*
X141654300Y-81590357D01*
X141654300Y-81590357D02*
X141700401Y-81675291D01*
X141700401Y-81675291D02*
X141729536Y-81769148D01*
X141729536Y-81769148D02*
X141739695Y-81869918D01*
X134914745Y-81369905D02*
X141239704Y-81369905D01*
X134414754Y-81869896D02*
X134424911Y-81769127D01*
X134424911Y-81769127D02*
X134454044Y-81675270D01*
X134454044Y-81675270D02*
X134500142Y-81590336D01*
X134500142Y-81590336D02*
X134561195Y-81516337D01*
X134561195Y-81516337D02*
X134635191Y-81455284D01*
X134635191Y-81455284D02*
X134720122Y-81409186D01*
X134720122Y-81409186D02*
X134813977Y-81380056D01*
X134813977Y-81380056D02*
X134914745Y-81369905D01*
X134414754Y-83492385D02*
X134414754Y-81869896D01*
X128716287Y-83492364D02*
X134414754Y-83492385D01*
X128716265Y-97492349D02*
X128716287Y-83492364D01*
X157005150Y-97501371D02*
X128716265Y-97492349D01*
X157005150Y-92799375D02*
X157005150Y-97501371D01*
X158293551Y-92799375D02*
X157005150Y-92799375D01*
X158293551Y-96384729D02*
X158293551Y-92799375D01*
X158543536Y-96634736D02*
X158446230Y-96615087D01*
X158446230Y-96615087D02*
X158366770Y-96561506D01*
X158366770Y-96561506D02*
X158313196Y-96482037D01*
X158313196Y-96482037D02*
X158293551Y-96384729D01*
X165368485Y-96634757D02*
X158543536Y-96634736D01*
X165618491Y-96384751D02*
X165598845Y-96482059D01*
X165598845Y-96482059D02*
X165545269Y-96561527D01*
X165545269Y-96561527D02*
X165465802Y-96615108D01*
X165465802Y-96615108D02*
X165368485Y-96634757D01*
X173672522Y-64442493D02*
X173672500Y-78442500D01*
X159672537Y-64442493D02*
X173672522Y-64442493D01*
X159672515Y-78442478D02*
X159672537Y-64442493D01*
X173672500Y-78442500D02*
X159672515Y-78442478D01*
X190341272Y-83492493D02*
X190341250Y-97492478D01*
X189368355Y-83492493D02*
X190341272Y-83492493D01*
X189368355Y-81863437D02*
X189368355Y-83492493D01*
X188868364Y-81363424D02*
X188969126Y-81373582D01*
X188969126Y-81373582D02*
X189062977Y-81402718D01*
X189062977Y-81402718D02*
X189147908Y-81448819D01*
X189147908Y-81448819D02*
X189221906Y-81509875D01*
X189221906Y-81509875D02*
X189282961Y-81583876D01*
X189282961Y-81583876D02*
X189329061Y-81668810D01*
X189329061Y-81668810D02*
X189358196Y-81762667D01*
X189358196Y-81762667D02*
X189368355Y-81863437D01*
X182543406Y-81363403D02*
X188868364Y-81363424D01*
X182043415Y-81863415D02*
X182053572Y-81762646D01*
X182053572Y-81762646D02*
X182082705Y-81668789D01*
X182082705Y-81668789D02*
X182128803Y-81583854D01*
X182128803Y-81583854D02*
X182189855Y-81509854D01*
X182189855Y-81509854D02*
X182263852Y-81448797D01*
X182263852Y-81448797D02*
X182348783Y-81402696D01*
X182348783Y-81402696D02*
X182442637Y-81373561D01*
X182442637Y-81373561D02*
X182543406Y-81363403D01*
X182043415Y-83492472D02*
X182043415Y-81863415D01*
X176341265Y-83492472D02*
X182043415Y-83492472D01*
X176341265Y-97492457D02*
X176341265Y-83492472D01*
X190341250Y-97492478D02*
X176341265Y-97492457D01*
X192722522Y-64442493D02*
X192722500Y-78442500D01*
X178722537Y-64442493D02*
X192722522Y-64442493D01*
X178722515Y-78442478D02*
X178722537Y-64442493D01*
X192722500Y-78442500D02*
X178722515Y-78442478D01*
X214153772Y-83492515D02*
X214153750Y-97492500D01*
X200153765Y-83492493D02*
X214153772Y-83492515D01*
X200153765Y-97492478D02*
X200153765Y-83492493D01*
X214153750Y-97492500D02*
X200153765Y-97492478D01*
X214448018Y-73726638D02*
X213165058Y-73726638D01*
X214448018Y-78442246D02*
X214448018Y-73726638D01*
X237966250Y-78442500D02*
X214448018Y-78442246D01*
X237966272Y-64442493D02*
X237966250Y-78442500D01*
X237043920Y-64442493D02*
X237966272Y-64442493D01*
X237043920Y-62799699D02*
X237043920Y-64442493D01*
X236543929Y-62299687D02*
X236644690Y-62309845D01*
X236644690Y-62309845D02*
X236738542Y-62338980D01*
X236738542Y-62338980D02*
X236823472Y-62385081D01*
X236823472Y-62385081D02*
X236897471Y-62446138D01*
X236897471Y-62446138D02*
X236958525Y-62520138D01*
X236958525Y-62520138D02*
X237004626Y-62605073D01*
X237004626Y-62605073D02*
X237033761Y-62698930D01*
X237033761Y-62698930D02*
X237043920Y-62799699D01*
X230218970Y-62299687D02*
X236543929Y-62299687D01*
X229718979Y-62799678D02*
X229729136Y-62698909D01*
X229729136Y-62698909D02*
X229758269Y-62605052D01*
X229758269Y-62605052D02*
X229804367Y-62520118D01*
X229804367Y-62520118D02*
X229865419Y-62446119D01*
X229865419Y-62446119D02*
X229939416Y-62385065D01*
X229939416Y-62385065D02*
X230024347Y-62338968D01*
X230024347Y-62338968D02*
X230118201Y-62309838D01*
X230118201Y-62309838D02*
X230218970Y-62299687D01*
X229718979Y-64442493D02*
X229718979Y-62799678D01*
X214448142Y-64442246D02*
X229718979Y-64442493D01*
X214448142Y-69135639D02*
X214448142Y-64442246D01*
X213182651Y-69135639D02*
X214448142Y-69135639D01*
X213182672Y-62799699D02*
X213182651Y-69135639D01*
X212682681Y-62299687D02*
X212783443Y-62309845D01*
X212783443Y-62309845D02*
X212877294Y-62338980D01*
X212877294Y-62338980D02*
X212962225Y-62385081D01*
X212962225Y-62385081D02*
X213036223Y-62446138D01*
X213036223Y-62446138D02*
X213097278Y-62520138D01*
X213097278Y-62520138D02*
X213143378Y-62605073D01*
X213143378Y-62605073D02*
X213172513Y-62698930D01*
X213172513Y-62698930D02*
X213182672Y-62799699D01*
X206357723Y-62299687D02*
X212682681Y-62299687D01*
X205857732Y-62799678D02*
X205867889Y-62698909D01*
X205867889Y-62698909D02*
X205897022Y-62605052D01*
X205897022Y-62605052D02*
X205943120Y-62520118D01*
X205943120Y-62520118D02*
X206004172Y-62446119D01*
X206004172Y-62446119D02*
X206078169Y-62385065D01*
X206078169Y-62385065D02*
X206163100Y-62338968D01*
X206163100Y-62338968D02*
X206256954Y-62309838D01*
X206256954Y-62309838D02*
X206357723Y-62299687D01*
X205857732Y-64442493D02*
X205857732Y-62799678D01*
X197772537Y-64442493D02*
X205857732Y-64442493D01*
X197772515Y-78442478D02*
X197772537Y-64442493D01*
X211772500Y-78442500D02*
X197772515Y-78442478D01*
X211772500Y-77564539D02*
X211772500Y-78442500D01*
X212915031Y-77564539D02*
X211772500Y-77564539D01*
X213165037Y-77314533D02*
X213145391Y-77411841D01*
X213145391Y-77411841D02*
X213091815Y-77491309D01*
X213091815Y-77491309D02*
X213012348Y-77544890D01*
X213012348Y-77544890D02*
X212915031Y-77564539D01*
X213165058Y-73726638D02*
X213165037Y-77314533D01*
X240347522Y-83492515D02*
X240347500Y-97492500D01*
X226347537Y-83492493D02*
X240347522Y-83492515D01*
X226347515Y-97492478D02*
X226347537Y-83492493D01*
X240347500Y-97492500D02*
X226347515Y-97492478D01*
X242728772Y-45392493D02*
X242728750Y-59392500D01*
X241805615Y-45392493D02*
X242728772Y-45392493D01*
X241805615Y-43752929D02*
X241805615Y-45392493D01*
X241305624Y-43252917D02*
X241406386Y-43263075D01*
X241406386Y-43263075D02*
X241500237Y-43292210D01*
X241500237Y-43292210D02*
X241585168Y-43338311D01*
X241585168Y-43338311D02*
X241659166Y-43399368D01*
X241659166Y-43399368D02*
X241720221Y-43473368D01*
X241720221Y-43473368D02*
X241766321Y-43558303D01*
X241766321Y-43558303D02*
X241795456Y-43652160D01*
X241795456Y-43652160D02*
X241805615Y-43752929D01*
X234980666Y-43252917D02*
X241305624Y-43252917D01*
X234480675Y-43752908D02*
X234490832Y-43652139D01*
X234490832Y-43652139D02*
X234519965Y-43558282D01*
X234519965Y-43558282D02*
X234566063Y-43473348D01*
X234566063Y-43473348D02*
X234627115Y-43399349D01*
X234627115Y-43399349D02*
X234701112Y-43338295D01*
X234701112Y-43338295D02*
X234786043Y-43292198D01*
X234786043Y-43292198D02*
X234879897Y-43263068D01*
X234879897Y-43263068D02*
X234980666Y-43252917D01*
X234480675Y-45392493D02*
X234480675Y-43752908D01*
X217926776Y-45392493D02*
X234480675Y-45392493D01*
X217926776Y-43752929D02*
X217926776Y-45392493D01*
X217426785Y-43252917D02*
X217527546Y-43263075D01*
X217527546Y-43263075D02*
X217621398Y-43292210D01*
X217621398Y-43292210D02*
X217706328Y-43338311D01*
X217706328Y-43338311D02*
X217780327Y-43399368D01*
X217780327Y-43399368D02*
X217841381Y-43473368D01*
X217841381Y-43473368D02*
X217887482Y-43558303D01*
X217887482Y-43558303D02*
X217916617Y-43652160D01*
X217916617Y-43652160D02*
X217926776Y-43752929D01*
X211101826Y-43252917D02*
X217426785Y-43252917D01*
X210601835Y-43752908D02*
X210611992Y-43652139D01*
X210611992Y-43652139D02*
X210641125Y-43558282D01*
X210641125Y-43558282D02*
X210687223Y-43473348D01*
X210687223Y-43473348D02*
X210748275Y-43399349D01*
X210748275Y-43399349D02*
X210822272Y-43338295D01*
X210822272Y-43338295D02*
X210907203Y-43292198D01*
X210907203Y-43292198D02*
X211001057Y-43263068D01*
X211001057Y-43263068D02*
X211101826Y-43252917D01*
X210601835Y-45392493D02*
X210601835Y-43752908D01*
X207297537Y-45392493D02*
X210601835Y-45392493D01*
X207297515Y-59392478D02*
X207297537Y-45392493D01*
X242728750Y-59392500D02*
X207297515Y-59392478D01*
X245110022Y-2529993D02*
X245110000Y-16530000D01*
X231110037Y-2529993D02*
X245110022Y-2529993D01*
X231110015Y-16529978D02*
X231110037Y-2529993D01*
X245110000Y-16530000D02*
X231110015Y-16529978D01*
M02*
