G04 #@! TF.GenerationSoftware,KiCad,Pcbnew,(5.1.9-0-10_14)*
G04 #@! TF.CreationDate,2021-12-01T15:47:24+09:00*
G04 #@! TF.ProjectId,slim_bottom_plate,736c696d-5f62-46f7-9474-6f6d5f706c61,1*
G04 #@! TF.SameCoordinates,PX1c9c380PY1c9c380*
G04 #@! TF.FileFunction,Copper,L2,Bot*
G04 #@! TF.FilePolarity,Positive*
%FSLAX46Y46*%
G04 Gerber Fmt 4.6, Leading zero omitted, Abs format (unit mm)*
G04 Created by KiCad (PCBNEW (5.1.9-0-10_14)) date 2021-12-01 15:47:24*
%MOMM*%
%LPD*%
G01*
G04 APERTURE LIST*
G04 #@! TA.AperFunction,ComponentPad*
%ADD10C,4.400000*%
G04 #@! TD*
G04 #@! TA.AperFunction,Conductor*
%ADD11C,0.254000*%
G04 #@! TD*
G04 #@! TA.AperFunction,Conductor*
%ADD12C,0.100000*%
G04 #@! TD*
G04 APERTURE END LIST*
D10*
X38140000Y-6620000D03*
D11*
X245669586Y-536003D02*
X245744857Y-541727D01*
X245818902Y-551136D01*
X245891626Y-564123D01*
X245963002Y-580596D01*
X246032993Y-600471D01*
X246101519Y-623658D01*
X246168496Y-650066D01*
X246233886Y-679629D01*
X246297562Y-712241D01*
X246359475Y-747840D01*
X246419474Y-786306D01*
X246477520Y-827582D01*
X246533479Y-871557D01*
X246587225Y-918113D01*
X246638699Y-967190D01*
X246687770Y-1018658D01*
X246734335Y-1072415D01*
X246778300Y-1128360D01*
X246819582Y-1186412D01*
X246858051Y-1246419D01*
X246893643Y-1308320D01*
X246926265Y-1372016D01*
X246955822Y-1437393D01*
X246982232Y-1504376D01*
X247005417Y-1572897D01*
X247025289Y-1642874D01*
X247041768Y-1714275D01*
X247054752Y-1786983D01*
X247064161Y-1861032D01*
X247069886Y-1936322D01*
X247071989Y-2019456D01*
X247071989Y-98018823D01*
X247069886Y-98101960D01*
X247064161Y-98177252D01*
X247054751Y-98251306D01*
X247041766Y-98324018D01*
X247025290Y-98395409D01*
X247005421Y-98465379D01*
X246982233Y-98533913D01*
X246955816Y-98600911D01*
X246926264Y-98666279D01*
X246893643Y-98729972D01*
X246858048Y-98791879D01*
X246819575Y-98851892D01*
X246778297Y-98909939D01*
X246734336Y-98965879D01*
X246687769Y-99019639D01*
X246638703Y-99071104D01*
X246587225Y-99120185D01*
X246533479Y-99166741D01*
X246477518Y-99210718D01*
X246419491Y-99251982D01*
X246359458Y-99290468D01*
X246297571Y-99326053D01*
X246233886Y-99358670D01*
X246168496Y-99388233D01*
X246101519Y-99414641D01*
X246032993Y-99437828D01*
X245963002Y-99457703D01*
X245891626Y-99474176D01*
X245818902Y-99487163D01*
X245744857Y-99496572D01*
X245669567Y-99502297D01*
X245586434Y-99504400D01*
X1949545Y-99504400D01*
X1866411Y-99502297D01*
X1791121Y-99496572D01*
X1717072Y-99487163D01*
X1644364Y-99474179D01*
X1572963Y-99457700D01*
X1502986Y-99437828D01*
X1434465Y-99414643D01*
X1367482Y-99388233D01*
X1302105Y-99358676D01*
X1238408Y-99326054D01*
X1176506Y-99290460D01*
X1116492Y-99251986D01*
X1058457Y-99210715D01*
X1002500Y-99166741D01*
X948753Y-99120185D01*
X897273Y-99071103D01*
X848212Y-99019643D01*
X801652Y-98965892D01*
X757668Y-98909921D01*
X716396Y-98851882D01*
X677929Y-98791879D01*
X642333Y-98729970D01*
X609720Y-98666293D01*
X580159Y-98600907D01*
X553740Y-98533901D01*
X530562Y-98465399D01*
X510686Y-98395407D01*
X494211Y-98324022D01*
X481225Y-98251303D01*
X471816Y-98177252D01*
X466092Y-98101979D01*
X463989Y-98018792D01*
X463989Y-96439003D01*
X1979351Y-96439003D01*
X1979667Y-96446270D01*
X1985087Y-96553625D01*
X1988439Y-96576080D01*
X1989341Y-96598759D01*
X1990388Y-96605958D01*
X2006298Y-96710213D01*
X2011847Y-96732018D01*
X2014985Y-96754292D01*
X2016747Y-96761350D01*
X2042620Y-96861976D01*
X2050230Y-96882862D01*
X2055494Y-96904452D01*
X2057946Y-96911301D01*
X2093253Y-97007771D01*
X2102769Y-97027543D01*
X2110025Y-97048237D01*
X2113136Y-97054812D01*
X2157349Y-97146597D01*
X2168610Y-97165103D01*
X2177723Y-97184754D01*
X2181456Y-97190997D01*
X2234049Y-97277568D01*
X2246917Y-97294720D01*
X2257762Y-97313213D01*
X2262077Y-97319069D01*
X2322522Y-97399902D01*
X2336880Y-97415633D01*
X2349356Y-97432889D01*
X2354211Y-97438307D01*
X2421979Y-97512871D01*
X2437735Y-97527125D01*
X2451770Y-97543082D01*
X2457119Y-97548012D01*
X2531683Y-97615781D01*
X2548767Y-97628499D01*
X2564293Y-97643074D01*
X2570087Y-97647471D01*
X2650919Y-97707916D01*
X2669261Y-97719020D01*
X2686231Y-97732126D01*
X2692422Y-97735946D01*
X2778994Y-97788540D01*
X2798514Y-97797926D01*
X2816860Y-97809444D01*
X2823391Y-97812646D01*
X2915177Y-97856862D01*
X2935774Y-97864408D01*
X2955407Y-97874198D01*
X2962220Y-97876746D01*
X3058690Y-97912054D01*
X3080213Y-97917621D01*
X3100985Y-97925520D01*
X3108017Y-97927381D01*
X3208645Y-97953255D01*
X3230880Y-97956705D01*
X3252603Y-97962557D01*
X3259786Y-97963705D01*
X3364042Y-97979616D01*
X3386709Y-97980834D01*
X3409103Y-97984498D01*
X3416365Y-97984916D01*
X3523726Y-97990338D01*
X3546382Y-97989266D01*
X3569016Y-97990654D01*
X3576284Y-97990338D01*
X3683639Y-97984916D01*
X3706094Y-97981564D01*
X3728763Y-97980662D01*
X3735962Y-97979615D01*
X3840217Y-97963705D01*
X3862031Y-97958154D01*
X3884301Y-97955016D01*
X3891358Y-97953254D01*
X3991984Y-97927380D01*
X4012866Y-97919771D01*
X4034461Y-97914506D01*
X4041309Y-97912054D01*
X4137779Y-97876746D01*
X4157551Y-97867229D01*
X4178249Y-97859972D01*
X4184824Y-97856861D01*
X4276609Y-97812645D01*
X4295114Y-97801385D01*
X4314761Y-97792273D01*
X4321004Y-97788540D01*
X4407577Y-97735946D01*
X4424729Y-97723078D01*
X4443220Y-97712234D01*
X4449076Y-97707918D01*
X4529909Y-97647473D01*
X4545643Y-97633112D01*
X4562896Y-97620638D01*
X4568313Y-97615783D01*
X4642878Y-97548014D01*
X4657134Y-97532256D01*
X4673088Y-97518223D01*
X4678018Y-97512874D01*
X4745787Y-97438309D01*
X4758504Y-97421227D01*
X4773079Y-97405700D01*
X4777476Y-97399905D01*
X4837922Y-97319072D01*
X4849024Y-97300733D01*
X4862130Y-97283763D01*
X4865950Y-97277572D01*
X4918544Y-97191000D01*
X4927929Y-97171482D01*
X4939447Y-97153136D01*
X4942649Y-97146605D01*
X4986865Y-97054820D01*
X4994412Y-97034222D01*
X5004202Y-97014588D01*
X5006750Y-97007775D01*
X5042058Y-96911305D01*
X5047624Y-96889789D01*
X5055524Y-96869013D01*
X5057384Y-96861980D01*
X5083258Y-96761355D01*
X5086708Y-96739122D01*
X5092561Y-96717396D01*
X5093708Y-96710213D01*
X5109619Y-96605958D01*
X5110837Y-96583297D01*
X5114502Y-96560897D01*
X5114920Y-96553635D01*
X5120342Y-96446280D01*
X5119998Y-96439008D01*
X120970171Y-96439008D01*
X120970487Y-96446275D01*
X120975908Y-96553630D01*
X120979260Y-96576085D01*
X120980162Y-96598759D01*
X120981209Y-96605958D01*
X120997119Y-96710213D01*
X121002670Y-96732027D01*
X121005808Y-96754297D01*
X121007570Y-96761354D01*
X121033444Y-96861980D01*
X121041053Y-96882862D01*
X121046318Y-96904457D01*
X121048770Y-96911305D01*
X121084078Y-97007775D01*
X121093595Y-97027547D01*
X121100852Y-97048245D01*
X121103963Y-97054820D01*
X121148179Y-97146605D01*
X121159439Y-97165110D01*
X121168551Y-97184757D01*
X121172284Y-97191000D01*
X121224878Y-97277573D01*
X121237746Y-97294725D01*
X121248590Y-97313216D01*
X121252906Y-97319072D01*
X121313351Y-97399905D01*
X121327712Y-97415639D01*
X121340186Y-97432892D01*
X121345041Y-97438309D01*
X121412810Y-97512874D01*
X121428568Y-97527130D01*
X121442601Y-97543084D01*
X121447950Y-97548014D01*
X121522515Y-97615783D01*
X121539597Y-97628500D01*
X121555124Y-97643075D01*
X121560919Y-97647472D01*
X121641752Y-97707918D01*
X121660091Y-97719020D01*
X121677061Y-97732126D01*
X121683252Y-97735946D01*
X121769824Y-97788540D01*
X121789342Y-97797925D01*
X121807688Y-97809443D01*
X121814219Y-97812645D01*
X121906004Y-97856861D01*
X121926602Y-97864408D01*
X121946236Y-97874198D01*
X121953049Y-97876746D01*
X122049519Y-97912054D01*
X122071035Y-97917620D01*
X122091811Y-97925520D01*
X122098844Y-97927380D01*
X122199469Y-97953254D01*
X122221702Y-97956704D01*
X122243428Y-97962557D01*
X122250611Y-97963704D01*
X122354866Y-97979615D01*
X122377527Y-97980833D01*
X122399927Y-97984498D01*
X122407189Y-97984916D01*
X122514546Y-97990338D01*
X122537203Y-97989266D01*
X122559837Y-97990654D01*
X122567105Y-97990338D01*
X122674460Y-97984916D01*
X122696915Y-97981564D01*
X122719584Y-97980662D01*
X122726783Y-97979615D01*
X122831038Y-97963705D01*
X122852852Y-97958154D01*
X122875122Y-97955016D01*
X122882179Y-97953254D01*
X122982805Y-97927380D01*
X123003687Y-97919771D01*
X123025282Y-97914506D01*
X123032130Y-97912054D01*
X123128600Y-97876746D01*
X123148372Y-97867229D01*
X123169070Y-97859972D01*
X123175645Y-97856861D01*
X123267430Y-97812645D01*
X123285935Y-97801385D01*
X123305582Y-97792273D01*
X123311825Y-97788540D01*
X123398398Y-97735946D01*
X123415550Y-97723078D01*
X123434041Y-97712234D01*
X123439897Y-97707918D01*
X123520730Y-97647473D01*
X123536464Y-97633112D01*
X123553717Y-97620638D01*
X123559134Y-97615783D01*
X123633699Y-97548014D01*
X123647955Y-97532256D01*
X123663909Y-97518223D01*
X123668839Y-97512874D01*
X123736608Y-97438309D01*
X123749324Y-97421229D01*
X123763903Y-97405697D01*
X123768300Y-97399902D01*
X123828745Y-97319068D01*
X123839844Y-97300733D01*
X123852948Y-97283766D01*
X123856768Y-97277576D01*
X123909363Y-97191004D01*
X123918751Y-97171480D01*
X123930270Y-97153132D01*
X123933472Y-97146601D01*
X123977688Y-97054816D01*
X123985236Y-97034214D01*
X123995022Y-97014588D01*
X123997570Y-97007775D01*
X124032878Y-96911305D01*
X124038444Y-96889789D01*
X124046344Y-96869013D01*
X124048204Y-96861980D01*
X124074078Y-96761355D01*
X124077528Y-96739122D01*
X124083381Y-96717396D01*
X124084528Y-96710213D01*
X124100439Y-96605958D01*
X124101657Y-96583297D01*
X124105322Y-96560897D01*
X124105740Y-96553635D01*
X124111162Y-96446280D01*
X124110818Y-96439008D01*
X242419347Y-96439008D01*
X242419663Y-96446275D01*
X242425084Y-96553630D01*
X242428436Y-96576085D01*
X242429338Y-96598759D01*
X242430385Y-96605958D01*
X242446295Y-96710213D01*
X242451846Y-96732027D01*
X242454984Y-96754297D01*
X242456746Y-96761354D01*
X242482620Y-96861980D01*
X242490229Y-96882862D01*
X242495494Y-96904457D01*
X242497946Y-96911305D01*
X242533254Y-97007775D01*
X242542771Y-97027547D01*
X242550028Y-97048245D01*
X242553139Y-97054820D01*
X242597355Y-97146605D01*
X242608615Y-97165110D01*
X242617727Y-97184757D01*
X242621460Y-97191000D01*
X242674054Y-97277573D01*
X242686922Y-97294725D01*
X242697766Y-97313216D01*
X242702082Y-97319072D01*
X242762527Y-97399905D01*
X242776888Y-97415639D01*
X242789362Y-97432892D01*
X242794217Y-97438309D01*
X242861986Y-97512874D01*
X242877744Y-97527130D01*
X242891777Y-97543084D01*
X242897126Y-97548014D01*
X242971691Y-97615783D01*
X242988773Y-97628500D01*
X243004300Y-97643075D01*
X243010095Y-97647472D01*
X243090928Y-97707918D01*
X243109267Y-97719020D01*
X243126237Y-97732126D01*
X243132428Y-97735946D01*
X243219000Y-97788540D01*
X243238518Y-97797925D01*
X243256864Y-97809443D01*
X243263395Y-97812645D01*
X243355180Y-97856861D01*
X243375778Y-97864408D01*
X243395412Y-97874198D01*
X243402225Y-97876746D01*
X243498695Y-97912054D01*
X243520211Y-97917620D01*
X243540987Y-97925520D01*
X243548020Y-97927380D01*
X243648645Y-97953254D01*
X243670878Y-97956704D01*
X243692604Y-97962557D01*
X243699787Y-97963704D01*
X243804042Y-97979615D01*
X243826703Y-97980833D01*
X243849103Y-97984498D01*
X243856365Y-97984916D01*
X243963722Y-97990338D01*
X243986379Y-97989266D01*
X244009013Y-97990654D01*
X244016281Y-97990338D01*
X244123636Y-97984916D01*
X244146091Y-97981564D01*
X244168760Y-97980662D01*
X244175959Y-97979615D01*
X244280214Y-97963705D01*
X244302028Y-97958154D01*
X244324298Y-97955016D01*
X244331355Y-97953254D01*
X244431981Y-97927380D01*
X244452863Y-97919771D01*
X244474458Y-97914506D01*
X244481306Y-97912054D01*
X244577776Y-97876746D01*
X244597548Y-97867229D01*
X244618246Y-97859972D01*
X244624821Y-97856861D01*
X244716606Y-97812645D01*
X244735111Y-97801385D01*
X244754758Y-97792273D01*
X244761001Y-97788540D01*
X244847574Y-97735946D01*
X244864726Y-97723078D01*
X244883217Y-97712234D01*
X244889073Y-97707918D01*
X244969906Y-97647473D01*
X244985640Y-97633112D01*
X245002893Y-97620638D01*
X245008310Y-97615783D01*
X245082875Y-97548014D01*
X245097131Y-97532256D01*
X245113085Y-97518223D01*
X245118015Y-97512874D01*
X245185784Y-97438309D01*
X245198500Y-97421229D01*
X245213079Y-97405697D01*
X245217476Y-97399902D01*
X245277921Y-97319068D01*
X245289020Y-97300733D01*
X245302124Y-97283766D01*
X245305944Y-97277576D01*
X245358539Y-97191004D01*
X245367927Y-97171480D01*
X245379446Y-97153132D01*
X245382648Y-97146601D01*
X245426864Y-97054816D01*
X245434412Y-97034214D01*
X245444198Y-97014588D01*
X245446746Y-97007775D01*
X245482054Y-96911305D01*
X245487620Y-96889789D01*
X245495520Y-96869013D01*
X245497380Y-96861980D01*
X245523254Y-96761355D01*
X245526704Y-96739122D01*
X245532557Y-96717396D01*
X245533704Y-96710213D01*
X245549615Y-96605958D01*
X245550833Y-96583297D01*
X245554498Y-96560897D01*
X245554916Y-96553635D01*
X245560338Y-96446280D01*
X245559266Y-96423623D01*
X245560654Y-96400988D01*
X245560338Y-96393721D01*
X245554916Y-96286364D01*
X245551564Y-96263910D01*
X245550662Y-96241239D01*
X245549615Y-96234041D01*
X245533704Y-96129786D01*
X245528155Y-96107978D01*
X245525016Y-96085702D01*
X245523254Y-96078644D01*
X245497380Y-95978019D01*
X245489770Y-95957134D01*
X245484505Y-95935540D01*
X245482053Y-95928692D01*
X245446745Y-95832223D01*
X245437233Y-95812461D01*
X245429975Y-95791760D01*
X245426864Y-95785184D01*
X245382648Y-95693399D01*
X245371387Y-95674893D01*
X245362273Y-95655241D01*
X245358540Y-95648998D01*
X245305945Y-95562425D01*
X245293081Y-95545278D01*
X245282235Y-95526784D01*
X245277919Y-95520928D01*
X245217474Y-95440096D01*
X245203116Y-95424366D01*
X245190639Y-95407108D01*
X245185784Y-95401691D01*
X245118015Y-95327126D01*
X245102257Y-95312870D01*
X245088224Y-95296916D01*
X245082875Y-95291986D01*
X245008310Y-95224217D01*
X244991232Y-95211503D01*
X244975701Y-95196924D01*
X244969906Y-95192527D01*
X244889073Y-95132082D01*
X244870735Y-95120981D01*
X244853764Y-95107874D01*
X244847574Y-95104054D01*
X244761001Y-95051460D01*
X244741483Y-95042075D01*
X244723137Y-95030557D01*
X244716606Y-95027355D01*
X244624821Y-94983139D01*
X244604223Y-94975592D01*
X244584589Y-94965802D01*
X244577776Y-94963254D01*
X244481306Y-94927946D01*
X244459787Y-94922380D01*
X244439013Y-94914480D01*
X244431981Y-94912620D01*
X244331355Y-94886746D01*
X244309124Y-94883296D01*
X244287397Y-94877443D01*
X244280214Y-94876295D01*
X244175959Y-94860385D01*
X244153294Y-94859166D01*
X244130893Y-94855502D01*
X244123631Y-94855084D01*
X244016276Y-94849663D01*
X243993624Y-94850735D01*
X243970994Y-94849347D01*
X243963727Y-94849663D01*
X243856370Y-94855084D01*
X243833915Y-94858436D01*
X243811240Y-94859338D01*
X243804042Y-94860385D01*
X243699787Y-94876296D01*
X243677979Y-94881845D01*
X243655703Y-94884984D01*
X243648645Y-94886746D01*
X243548020Y-94912620D01*
X243527137Y-94920229D01*
X243505543Y-94925494D01*
X243498695Y-94927946D01*
X243402225Y-94963254D01*
X243382452Y-94972771D01*
X243361755Y-94980028D01*
X243355180Y-94983139D01*
X243263395Y-95027355D01*
X243244896Y-95038612D01*
X243225243Y-95047726D01*
X243219000Y-95051460D01*
X243132428Y-95104054D01*
X243115280Y-95116919D01*
X243096784Y-95127766D01*
X243090928Y-95132082D01*
X243010095Y-95192528D01*
X242994365Y-95206885D01*
X242977108Y-95219362D01*
X242971691Y-95224217D01*
X242897126Y-95291986D01*
X242882870Y-95307744D01*
X242866916Y-95321777D01*
X242861986Y-95327126D01*
X242794217Y-95401691D01*
X242781502Y-95418771D01*
X242766926Y-95434298D01*
X242762529Y-95440093D01*
X242702083Y-95520924D01*
X242690976Y-95539272D01*
X242677873Y-95556238D01*
X242674053Y-95562429D01*
X242621458Y-95649002D01*
X242612072Y-95668523D01*
X242600557Y-95686864D01*
X242597355Y-95693395D01*
X242553139Y-95785180D01*
X242545592Y-95805779D01*
X242535803Y-95825410D01*
X242533255Y-95832224D01*
X242497947Y-95928692D01*
X242492381Y-95950209D01*
X242484480Y-95970987D01*
X242482620Y-95978019D01*
X242456746Y-96078645D01*
X242453296Y-96100876D01*
X242447443Y-96122603D01*
X242446295Y-96129786D01*
X242430385Y-96234041D01*
X242429166Y-96256706D01*
X242425502Y-96279107D01*
X242425084Y-96286369D01*
X242419663Y-96393725D01*
X242420735Y-96416377D01*
X242419347Y-96439008D01*
X124110818Y-96439008D01*
X124110090Y-96423623D01*
X124111478Y-96400988D01*
X124111162Y-96393721D01*
X124105740Y-96286364D01*
X124102388Y-96263910D01*
X124101486Y-96241239D01*
X124100439Y-96234041D01*
X124084528Y-96129786D01*
X124078979Y-96107978D01*
X124075840Y-96085702D01*
X124074078Y-96078644D01*
X124048204Y-95978019D01*
X124040594Y-95957134D01*
X124035329Y-95935540D01*
X124032877Y-95928692D01*
X123997569Y-95832223D01*
X123988057Y-95812461D01*
X123980799Y-95791760D01*
X123977688Y-95785184D01*
X123933472Y-95693399D01*
X123922211Y-95674893D01*
X123913097Y-95655241D01*
X123909364Y-95648998D01*
X123856769Y-95562425D01*
X123843905Y-95545278D01*
X123833059Y-95526784D01*
X123828743Y-95520928D01*
X123768298Y-95440096D01*
X123753940Y-95424366D01*
X123741463Y-95407108D01*
X123736608Y-95401691D01*
X123668839Y-95327126D01*
X123653081Y-95312870D01*
X123639048Y-95296916D01*
X123633699Y-95291986D01*
X123559134Y-95224217D01*
X123542056Y-95211503D01*
X123526525Y-95196924D01*
X123520730Y-95192527D01*
X123439897Y-95132082D01*
X123421559Y-95120981D01*
X123404588Y-95107874D01*
X123398398Y-95104054D01*
X123311825Y-95051460D01*
X123292307Y-95042075D01*
X123273961Y-95030557D01*
X123267430Y-95027355D01*
X123175645Y-94983139D01*
X123155047Y-94975592D01*
X123135413Y-94965802D01*
X123128600Y-94963254D01*
X123032130Y-94927946D01*
X123010611Y-94922380D01*
X122989837Y-94914480D01*
X122982805Y-94912620D01*
X122882179Y-94886746D01*
X122859948Y-94883296D01*
X122838221Y-94877443D01*
X122831038Y-94876295D01*
X122726783Y-94860385D01*
X122704118Y-94859166D01*
X122681717Y-94855502D01*
X122674455Y-94855084D01*
X122567100Y-94849663D01*
X122544448Y-94850735D01*
X122521818Y-94849347D01*
X122514551Y-94849663D01*
X122407194Y-94855084D01*
X122384739Y-94858436D01*
X122362064Y-94859338D01*
X122354866Y-94860385D01*
X122250611Y-94876296D01*
X122228803Y-94881845D01*
X122206527Y-94884984D01*
X122199469Y-94886746D01*
X122098844Y-94912620D01*
X122077961Y-94920229D01*
X122056367Y-94925494D01*
X122049519Y-94927946D01*
X121953049Y-94963254D01*
X121933276Y-94972771D01*
X121912579Y-94980028D01*
X121906004Y-94983139D01*
X121814219Y-95027355D01*
X121795720Y-95038612D01*
X121776067Y-95047726D01*
X121769824Y-95051460D01*
X121683252Y-95104054D01*
X121666104Y-95116919D01*
X121647608Y-95127766D01*
X121641752Y-95132082D01*
X121560919Y-95192528D01*
X121545189Y-95206885D01*
X121527932Y-95219362D01*
X121522515Y-95224217D01*
X121447950Y-95291986D01*
X121433694Y-95307744D01*
X121417740Y-95321777D01*
X121412810Y-95327126D01*
X121345041Y-95401691D01*
X121332326Y-95418771D01*
X121317750Y-95434298D01*
X121313353Y-95440093D01*
X121252907Y-95520924D01*
X121241800Y-95539272D01*
X121228697Y-95556238D01*
X121224877Y-95562429D01*
X121172282Y-95649002D01*
X121162896Y-95668523D01*
X121151381Y-95686864D01*
X121148179Y-95693395D01*
X121103963Y-95785180D01*
X121096416Y-95805779D01*
X121086627Y-95825410D01*
X121084079Y-95832224D01*
X121048771Y-95928692D01*
X121043205Y-95950209D01*
X121035304Y-95970987D01*
X121033444Y-95978019D01*
X121007570Y-96078645D01*
X121004120Y-96100876D01*
X120998267Y-96122603D01*
X120997119Y-96129786D01*
X120981209Y-96234041D01*
X120979990Y-96256706D01*
X120976326Y-96279107D01*
X120975908Y-96286369D01*
X120970487Y-96393725D01*
X120971559Y-96416377D01*
X120970171Y-96439008D01*
X5119998Y-96439008D01*
X5119270Y-96423623D01*
X5120658Y-96400988D01*
X5120342Y-96393721D01*
X5114920Y-96286364D01*
X5111568Y-96263910D01*
X5110666Y-96241239D01*
X5109619Y-96234041D01*
X5093708Y-96129786D01*
X5088159Y-96107978D01*
X5085020Y-96085702D01*
X5083258Y-96078644D01*
X5057384Y-95978019D01*
X5049774Y-95957134D01*
X5044509Y-95935540D01*
X5042057Y-95928692D01*
X5006749Y-95832223D01*
X4997233Y-95812453D01*
X4989976Y-95791755D01*
X4986865Y-95785180D01*
X4942649Y-95693395D01*
X4931392Y-95674896D01*
X4922279Y-95655245D01*
X4918546Y-95649002D01*
X4865952Y-95562429D01*
X4853083Y-95545276D01*
X4842236Y-95526780D01*
X4837920Y-95520924D01*
X4777475Y-95440092D01*
X4763115Y-95424359D01*
X4750642Y-95407108D01*
X4745787Y-95401691D01*
X4678018Y-95327126D01*
X4662260Y-95312870D01*
X4648227Y-95296916D01*
X4642878Y-95291986D01*
X4568313Y-95224217D01*
X4551235Y-95211503D01*
X4535704Y-95196924D01*
X4529909Y-95192527D01*
X4449076Y-95132082D01*
X4430738Y-95120981D01*
X4413767Y-95107874D01*
X4407577Y-95104054D01*
X4321004Y-95051460D01*
X4301486Y-95042075D01*
X4283140Y-95030557D01*
X4276609Y-95027355D01*
X4184824Y-94983139D01*
X4164226Y-94975592D01*
X4144592Y-94965802D01*
X4137779Y-94963254D01*
X4041309Y-94927946D01*
X4019790Y-94922380D01*
X3999016Y-94914480D01*
X3991984Y-94912620D01*
X3891358Y-94886746D01*
X3869127Y-94883296D01*
X3847400Y-94877443D01*
X3840217Y-94876295D01*
X3735962Y-94860385D01*
X3713297Y-94859166D01*
X3690896Y-94855502D01*
X3683634Y-94855084D01*
X3576279Y-94849663D01*
X3553628Y-94850735D01*
X3530998Y-94849347D01*
X3523730Y-94849663D01*
X3416370Y-94855084D01*
X3393922Y-94858435D01*
X3371241Y-94859337D01*
X3364042Y-94860384D01*
X3259786Y-94876295D01*
X3237978Y-94881844D01*
X3215702Y-94884983D01*
X3208645Y-94886745D01*
X3108017Y-94912619D01*
X3087131Y-94920229D01*
X3065538Y-94925494D01*
X3058690Y-94927946D01*
X2962220Y-94963254D01*
X2942449Y-94972770D01*
X2921752Y-94980027D01*
X2915177Y-94983138D01*
X2823391Y-95027354D01*
X2804890Y-95038612D01*
X2785237Y-95047726D01*
X2778994Y-95051460D01*
X2692422Y-95104054D01*
X2675274Y-95116920D01*
X2656775Y-95127768D01*
X2650919Y-95132084D01*
X2570087Y-95192529D01*
X2554355Y-95206889D01*
X2537100Y-95219364D01*
X2531683Y-95224219D01*
X2457119Y-95291988D01*
X2442862Y-95307748D01*
X2426909Y-95321780D01*
X2421979Y-95327129D01*
X2354211Y-95401693D01*
X2341492Y-95418779D01*
X2326921Y-95434301D01*
X2322524Y-95440095D01*
X2262079Y-95520928D01*
X2250976Y-95539270D01*
X2237868Y-95556242D01*
X2234048Y-95562433D01*
X2181455Y-95649006D01*
X2172068Y-95668528D01*
X2160552Y-95686872D01*
X2157349Y-95693403D01*
X2113136Y-95785188D01*
X2105590Y-95805785D01*
X2095802Y-95825415D01*
X2093254Y-95832228D01*
X2057947Y-95928697D01*
X2052381Y-95950215D01*
X2044481Y-95970991D01*
X2042620Y-95978023D01*
X2016747Y-96078649D01*
X2013297Y-96100884D01*
X2007446Y-96122603D01*
X2006298Y-96129786D01*
X1990388Y-96234041D01*
X1989170Y-96256704D01*
X1985504Y-96279112D01*
X1985087Y-96286374D01*
X1979667Y-96393730D01*
X1980739Y-96416374D01*
X1979351Y-96439003D01*
X463989Y-96439003D01*
X463989Y-42891006D01*
X78523021Y-42891006D01*
X78523337Y-42898273D01*
X78528758Y-43005628D01*
X78532110Y-43028083D01*
X78533012Y-43050757D01*
X78534059Y-43057956D01*
X78549969Y-43162211D01*
X78555520Y-43184025D01*
X78558658Y-43206295D01*
X78560420Y-43213352D01*
X78586294Y-43313978D01*
X78593903Y-43334860D01*
X78599168Y-43356455D01*
X78601620Y-43363303D01*
X78636928Y-43459773D01*
X78646445Y-43479545D01*
X78653702Y-43500243D01*
X78656813Y-43506818D01*
X78701029Y-43598603D01*
X78712289Y-43617108D01*
X78721401Y-43636755D01*
X78725134Y-43642998D01*
X78777728Y-43729571D01*
X78790596Y-43746723D01*
X78801440Y-43765214D01*
X78805756Y-43771070D01*
X78866201Y-43851903D01*
X78880562Y-43867637D01*
X78893036Y-43884890D01*
X78897891Y-43890307D01*
X78965660Y-43964872D01*
X78981418Y-43979128D01*
X78995451Y-43995082D01*
X79000800Y-44000012D01*
X79075365Y-44067781D01*
X79092444Y-44080496D01*
X79107972Y-44095072D01*
X79113766Y-44099469D01*
X79194598Y-44159914D01*
X79212946Y-44171021D01*
X79229913Y-44184125D01*
X79236103Y-44187946D01*
X79322676Y-44240540D01*
X79342197Y-44249926D01*
X79360538Y-44261441D01*
X79367069Y-44264643D01*
X79458854Y-44308859D01*
X79479453Y-44316406D01*
X79499084Y-44326195D01*
X79505897Y-44328743D01*
X79602366Y-44364051D01*
X79623880Y-44369616D01*
X79644660Y-44377518D01*
X79651693Y-44379378D01*
X79752318Y-44405252D01*
X79774551Y-44408702D01*
X79796277Y-44414555D01*
X79803460Y-44415702D01*
X79907715Y-44431613D01*
X79930376Y-44432831D01*
X79952776Y-44436496D01*
X79960038Y-44436914D01*
X80067395Y-44442336D01*
X80090052Y-44441264D01*
X80112686Y-44442652D01*
X80119954Y-44442336D01*
X80227309Y-44436914D01*
X80249764Y-44433562D01*
X80272433Y-44432660D01*
X80279632Y-44431613D01*
X80383887Y-44415703D01*
X80405701Y-44410152D01*
X80427971Y-44407014D01*
X80435028Y-44405252D01*
X80535654Y-44379378D01*
X80556536Y-44371769D01*
X80578131Y-44366504D01*
X80584979Y-44364052D01*
X80681449Y-44328744D01*
X80701221Y-44319227D01*
X80721919Y-44311970D01*
X80728494Y-44308859D01*
X80820279Y-44264643D01*
X80838784Y-44253383D01*
X80858431Y-44244271D01*
X80864674Y-44240538D01*
X80951247Y-44187944D01*
X80968399Y-44175076D01*
X80986890Y-44164232D01*
X80992746Y-44159916D01*
X81073579Y-44099471D01*
X81089313Y-44085110D01*
X81106566Y-44072636D01*
X81111983Y-44067781D01*
X81186548Y-44000012D01*
X81200804Y-43984254D01*
X81216758Y-43970221D01*
X81221688Y-43964872D01*
X81289457Y-43890307D01*
X81302174Y-43873225D01*
X81316749Y-43857698D01*
X81321146Y-43851903D01*
X81381592Y-43771070D01*
X81392694Y-43752731D01*
X81405800Y-43735761D01*
X81409620Y-43729570D01*
X81462214Y-43642998D01*
X81471599Y-43623480D01*
X81483117Y-43605134D01*
X81486319Y-43598603D01*
X81530535Y-43506818D01*
X81538082Y-43486220D01*
X81547872Y-43466586D01*
X81550420Y-43459773D01*
X81585728Y-43363303D01*
X81591294Y-43341787D01*
X81599194Y-43321011D01*
X81601054Y-43313978D01*
X81626928Y-43213353D01*
X81630378Y-43191120D01*
X81636231Y-43169394D01*
X81637378Y-43162211D01*
X81653289Y-43057956D01*
X81654507Y-43035295D01*
X81658172Y-43012895D01*
X81658590Y-43005633D01*
X81664012Y-42898278D01*
X81663668Y-42891006D01*
X165873115Y-42891006D01*
X165873431Y-42898273D01*
X165878852Y-43005628D01*
X165882204Y-43028083D01*
X165883106Y-43050757D01*
X165884153Y-43057956D01*
X165900063Y-43162211D01*
X165905614Y-43184025D01*
X165908752Y-43206295D01*
X165910514Y-43213352D01*
X165936388Y-43313978D01*
X165943997Y-43334860D01*
X165949262Y-43356455D01*
X165951714Y-43363303D01*
X165987022Y-43459773D01*
X165996539Y-43479545D01*
X166003796Y-43500243D01*
X166006907Y-43506818D01*
X166051123Y-43598603D01*
X166062383Y-43617108D01*
X166071495Y-43636755D01*
X166075228Y-43642998D01*
X166127822Y-43729571D01*
X166140690Y-43746723D01*
X166151534Y-43765214D01*
X166155850Y-43771070D01*
X166216295Y-43851903D01*
X166230656Y-43867637D01*
X166243130Y-43884890D01*
X166247985Y-43890307D01*
X166315754Y-43964872D01*
X166331512Y-43979128D01*
X166345545Y-43995082D01*
X166350894Y-44000012D01*
X166425459Y-44067781D01*
X166442541Y-44080498D01*
X166458068Y-44095073D01*
X166463863Y-44099470D01*
X166544696Y-44159916D01*
X166563035Y-44171018D01*
X166580005Y-44184124D01*
X166586196Y-44187944D01*
X166672768Y-44240538D01*
X166692286Y-44249923D01*
X166710632Y-44261441D01*
X166717163Y-44264643D01*
X166808948Y-44308859D01*
X166829546Y-44316406D01*
X166849180Y-44326196D01*
X166855993Y-44328744D01*
X166952463Y-44364052D01*
X166973979Y-44369618D01*
X166994755Y-44377518D01*
X167001788Y-44379378D01*
X167102413Y-44405252D01*
X167124646Y-44408702D01*
X167146372Y-44414555D01*
X167153555Y-44415702D01*
X167257810Y-44431613D01*
X167280471Y-44432831D01*
X167302871Y-44436496D01*
X167310133Y-44436914D01*
X167417490Y-44442336D01*
X167440146Y-44441264D01*
X167462780Y-44442652D01*
X167470048Y-44442336D01*
X167577407Y-44436914D01*
X167599855Y-44433563D01*
X167622531Y-44432661D01*
X167629729Y-44431614D01*
X167733986Y-44415703D01*
X167755792Y-44410154D01*
X167778070Y-44407015D01*
X167785127Y-44405253D01*
X167885755Y-44379379D01*
X167906641Y-44371769D01*
X167928234Y-44366504D01*
X167935082Y-44364052D01*
X168031552Y-44328744D01*
X168051322Y-44319228D01*
X168072020Y-44311971D01*
X168078595Y-44308860D01*
X168170381Y-44264644D01*
X168188888Y-44253383D01*
X168208535Y-44244271D01*
X168214778Y-44240538D01*
X168301351Y-44187944D01*
X168318503Y-44175076D01*
X168336997Y-44164230D01*
X168342853Y-44159915D01*
X168423684Y-44099469D01*
X168439412Y-44085113D01*
X168456672Y-44072634D01*
X168462089Y-44067779D01*
X168536653Y-44000010D01*
X168550910Y-43984250D01*
X168566863Y-43970218D01*
X168571793Y-43964870D01*
X168639561Y-43890305D01*
X168652279Y-43873221D01*
X168666853Y-43857695D01*
X168671250Y-43851900D01*
X168731695Y-43771066D01*
X168742797Y-43752726D01*
X168755902Y-43735757D01*
X168759723Y-43729567D01*
X168812315Y-43642995D01*
X168821701Y-43623474D01*
X168833220Y-43605126D01*
X168836422Y-43598595D01*
X168880636Y-43506810D01*
X168888181Y-43486217D01*
X168897971Y-43466582D01*
X168900519Y-43459769D01*
X168935826Y-43363299D01*
X168941392Y-43341778D01*
X168949291Y-43321006D01*
X168951152Y-43313974D01*
X168977025Y-43213348D01*
X168980475Y-43191113D01*
X168986326Y-43169394D01*
X168987473Y-43162211D01*
X169003384Y-43057956D01*
X169004603Y-43035291D01*
X169008267Y-43012890D01*
X169008685Y-43005628D01*
X169014106Y-42898273D01*
X169013034Y-42875621D01*
X169014422Y-42852991D01*
X169014106Y-42845724D01*
X169008685Y-42738367D01*
X169005333Y-42715912D01*
X169004431Y-42693237D01*
X169003384Y-42686039D01*
X168987473Y-42581784D01*
X168981926Y-42559986D01*
X168978787Y-42537705D01*
X168977025Y-42530647D01*
X168951152Y-42430021D01*
X168943540Y-42409131D01*
X168938277Y-42387543D01*
X168935825Y-42380695D01*
X168900518Y-42284226D01*
X168891003Y-42264457D01*
X168883747Y-42243761D01*
X168880636Y-42237186D01*
X168836422Y-42145401D01*
X168825162Y-42126896D01*
X168816050Y-42107247D01*
X168812317Y-42101003D01*
X168759724Y-42014431D01*
X168746857Y-41997280D01*
X168736009Y-41978782D01*
X168731693Y-41972926D01*
X168671248Y-41892094D01*
X168656890Y-41876363D01*
X168644415Y-41859109D01*
X168639561Y-41853691D01*
X168571793Y-41779126D01*
X168556031Y-41764867D01*
X168542001Y-41748916D01*
X168536653Y-41743986D01*
X168462089Y-41676217D01*
X168445005Y-41663499D01*
X168429479Y-41648924D01*
X168423684Y-41644527D01*
X168342853Y-41584081D01*
X168324507Y-41572975D01*
X168307541Y-41559872D01*
X168301351Y-41556052D01*
X168214778Y-41503458D01*
X168195262Y-41494074D01*
X168176913Y-41482554D01*
X168170381Y-41479352D01*
X168078595Y-41435136D01*
X168057998Y-41427590D01*
X168038365Y-41417800D01*
X168031552Y-41415252D01*
X167935082Y-41379944D01*
X167913559Y-41374377D01*
X167892787Y-41366478D01*
X167885755Y-41364617D01*
X167785127Y-41338743D01*
X167762892Y-41335293D01*
X167741169Y-41329441D01*
X167733986Y-41328293D01*
X167629729Y-41312382D01*
X167607059Y-41311163D01*
X167584664Y-41307500D01*
X167577402Y-41307082D01*
X167470043Y-41301661D01*
X167447392Y-41302733D01*
X167424762Y-41301345D01*
X167417495Y-41301661D01*
X167310138Y-41307082D01*
X167287683Y-41310434D01*
X167265008Y-41311336D01*
X167257810Y-41312383D01*
X167153555Y-41328294D01*
X167131747Y-41333843D01*
X167109471Y-41336982D01*
X167102413Y-41338744D01*
X167001788Y-41364618D01*
X166980905Y-41372227D01*
X166959311Y-41377492D01*
X166952463Y-41379944D01*
X166855993Y-41415252D01*
X166836220Y-41424769D01*
X166815523Y-41432026D01*
X166808948Y-41435137D01*
X166717163Y-41479353D01*
X166698664Y-41490610D01*
X166679011Y-41499724D01*
X166672768Y-41503458D01*
X166586196Y-41556052D01*
X166569048Y-41568917D01*
X166550552Y-41579764D01*
X166544696Y-41584080D01*
X166463863Y-41644526D01*
X166448133Y-41658883D01*
X166430876Y-41671360D01*
X166425459Y-41676215D01*
X166350894Y-41743984D01*
X166336638Y-41759742D01*
X166320684Y-41773775D01*
X166315754Y-41779124D01*
X166247985Y-41853689D01*
X166235270Y-41870769D01*
X166220694Y-41886296D01*
X166216297Y-41892091D01*
X166155851Y-41972922D01*
X166144744Y-41991270D01*
X166131641Y-42008236D01*
X166127821Y-42014427D01*
X166075226Y-42101000D01*
X166065840Y-42120521D01*
X166054325Y-42138862D01*
X166051123Y-42145393D01*
X166006907Y-42237178D01*
X165999360Y-42257777D01*
X165989571Y-42277408D01*
X165987023Y-42284222D01*
X165951715Y-42380690D01*
X165946149Y-42402207D01*
X165938248Y-42422985D01*
X165936388Y-42430017D01*
X165910514Y-42530643D01*
X165907064Y-42552874D01*
X165901211Y-42574601D01*
X165900063Y-42581784D01*
X165884153Y-42686039D01*
X165882934Y-42708704D01*
X165879270Y-42731105D01*
X165878852Y-42738367D01*
X165873431Y-42845723D01*
X165874503Y-42868375D01*
X165873115Y-42891006D01*
X81663668Y-42891006D01*
X81662940Y-42875621D01*
X81664328Y-42852986D01*
X81664012Y-42845719D01*
X81658590Y-42738362D01*
X81655238Y-42715908D01*
X81654336Y-42693237D01*
X81653289Y-42686039D01*
X81637378Y-42581784D01*
X81631829Y-42559976D01*
X81628690Y-42537700D01*
X81626928Y-42530642D01*
X81601054Y-42430017D01*
X81593444Y-42409132D01*
X81588179Y-42387538D01*
X81585727Y-42380690D01*
X81550419Y-42284221D01*
X81540903Y-42264451D01*
X81533646Y-42243753D01*
X81530535Y-42237178D01*
X81486319Y-42145393D01*
X81475062Y-42126894D01*
X81465949Y-42107243D01*
X81462216Y-42101000D01*
X81409622Y-42014427D01*
X81396753Y-41997274D01*
X81385906Y-41978778D01*
X81381590Y-41972922D01*
X81321145Y-41892090D01*
X81306785Y-41876357D01*
X81294312Y-41859106D01*
X81289457Y-41853689D01*
X81221688Y-41779124D01*
X81205930Y-41764868D01*
X81191897Y-41748914D01*
X81186548Y-41743984D01*
X81111983Y-41676215D01*
X81094905Y-41663501D01*
X81079374Y-41648922D01*
X81073579Y-41644525D01*
X80992746Y-41584080D01*
X80974408Y-41572979D01*
X80957437Y-41559872D01*
X80951247Y-41556052D01*
X80864674Y-41503458D01*
X80845156Y-41494073D01*
X80826810Y-41482555D01*
X80820279Y-41479353D01*
X80728494Y-41435137D01*
X80707896Y-41427590D01*
X80688262Y-41417800D01*
X80681449Y-41415252D01*
X80584979Y-41379944D01*
X80563460Y-41374378D01*
X80542686Y-41366478D01*
X80535654Y-41364618D01*
X80435028Y-41338744D01*
X80412797Y-41335294D01*
X80391070Y-41329441D01*
X80383887Y-41328293D01*
X80279632Y-41312383D01*
X80256967Y-41311164D01*
X80234566Y-41307500D01*
X80227304Y-41307082D01*
X80119949Y-41301661D01*
X80097297Y-41302733D01*
X80074667Y-41301345D01*
X80067400Y-41301661D01*
X79960043Y-41307082D01*
X79937588Y-41310434D01*
X79914913Y-41311336D01*
X79907715Y-41312383D01*
X79803460Y-41328294D01*
X79781652Y-41333843D01*
X79759376Y-41336982D01*
X79752318Y-41338744D01*
X79651693Y-41364618D01*
X79630808Y-41372228D01*
X79609214Y-41377493D01*
X79602366Y-41379945D01*
X79505897Y-41415253D01*
X79486127Y-41424769D01*
X79465429Y-41432026D01*
X79458854Y-41435137D01*
X79367069Y-41479353D01*
X79348570Y-41490610D01*
X79328919Y-41499723D01*
X79322676Y-41503456D01*
X79236103Y-41556050D01*
X79218950Y-41568919D01*
X79200454Y-41579766D01*
X79194598Y-41584082D01*
X79113766Y-41644527D01*
X79098033Y-41658887D01*
X79080782Y-41671360D01*
X79075365Y-41676215D01*
X79000800Y-41743984D01*
X78986544Y-41759742D01*
X78970590Y-41773775D01*
X78965660Y-41779124D01*
X78897891Y-41853689D01*
X78885176Y-41870769D01*
X78870600Y-41886296D01*
X78866203Y-41892091D01*
X78805757Y-41972922D01*
X78794650Y-41991270D01*
X78781547Y-42008236D01*
X78777727Y-42014427D01*
X78725132Y-42101000D01*
X78715746Y-42120521D01*
X78704231Y-42138862D01*
X78701029Y-42145393D01*
X78656813Y-42237178D01*
X78649266Y-42257777D01*
X78639477Y-42277408D01*
X78636929Y-42284222D01*
X78601621Y-42380690D01*
X78596055Y-42402207D01*
X78588154Y-42422985D01*
X78586294Y-42430017D01*
X78560420Y-42530643D01*
X78556970Y-42552874D01*
X78551117Y-42574601D01*
X78549969Y-42581784D01*
X78534059Y-42686039D01*
X78532840Y-42708704D01*
X78529176Y-42731105D01*
X78528758Y-42738367D01*
X78523337Y-42845723D01*
X78524409Y-42868375D01*
X78523021Y-42891006D01*
X463989Y-42891006D01*
X463989Y-20279148D01*
X910981Y-20279148D01*
X910981Y-23679135D01*
X911911Y-23688625D01*
X911328Y-23698138D01*
X911644Y-23705405D01*
X916806Y-23807650D01*
X920158Y-23830104D01*
X921060Y-23852787D01*
X922107Y-23859985D01*
X937261Y-23959277D01*
X942808Y-23981076D01*
X945947Y-24003354D01*
X947709Y-24010411D01*
X972350Y-24106246D01*
X979962Y-24127139D01*
X985227Y-24148730D01*
X987679Y-24155578D01*
X1021306Y-24247453D01*
X1030818Y-24267215D01*
X1038075Y-24287914D01*
X1041186Y-24294489D01*
X1083295Y-24381905D01*
X1094558Y-24400415D01*
X1103669Y-24420061D01*
X1107402Y-24426304D01*
X1157491Y-24508754D01*
X1170357Y-24525903D01*
X1181201Y-24544395D01*
X1185516Y-24550251D01*
X1243082Y-24627235D01*
X1257440Y-24642966D01*
X1269919Y-24660226D01*
X1274774Y-24665643D01*
X1339315Y-24736657D01*
X1355070Y-24750910D01*
X1369107Y-24766869D01*
X1374456Y-24771799D01*
X1445469Y-24836340D01*
X1462548Y-24849055D01*
X1478076Y-24863631D01*
X1483871Y-24868028D01*
X1560853Y-24925595D01*
X1579197Y-24936700D01*
X1596162Y-24949802D01*
X1602352Y-24953622D01*
X1684801Y-25003712D01*
X1704326Y-25013100D01*
X1722670Y-25024617D01*
X1729201Y-25027820D01*
X1816613Y-25069929D01*
X1837208Y-25077475D01*
X1856838Y-25087263D01*
X1863652Y-25089811D01*
X1955526Y-25123438D01*
X1977050Y-25129006D01*
X1997826Y-25136906D01*
X2004858Y-25138767D01*
X2100691Y-25163408D01*
X2122923Y-25166858D01*
X2144642Y-25172709D01*
X2151825Y-25173857D01*
X2251113Y-25189011D01*
X2273788Y-25190230D01*
X2296183Y-25193894D01*
X2303445Y-25194312D01*
X2405687Y-25199475D01*
X2415214Y-25199024D01*
X2424689Y-25200087D01*
X2431963Y-25200138D01*
X8431963Y-25200138D01*
X8441454Y-25199207D01*
X8450971Y-25199791D01*
X8458238Y-25199475D01*
X8560483Y-25194312D01*
X8582937Y-25190960D01*
X8605615Y-25190058D01*
X8612813Y-25189011D01*
X8712105Y-25173857D01*
X8733904Y-25168310D01*
X8756182Y-25165171D01*
X8763239Y-25163409D01*
X8859074Y-25138768D01*
X8879967Y-25131156D01*
X8901558Y-25125891D01*
X8908406Y-25123439D01*
X9000281Y-25089812D01*
X9020043Y-25080300D01*
X9040742Y-25073043D01*
X9047317Y-25069932D01*
X9134733Y-25027823D01*
X9153242Y-25016560D01*
X9172893Y-25007447D01*
X9179136Y-25003714D01*
X9261586Y-24953624D01*
X9278733Y-24940759D01*
X9297227Y-24929914D01*
X9303083Y-24925598D01*
X9380066Y-24868032D01*
X9395796Y-24853674D01*
X9413054Y-24841197D01*
X9418471Y-24836342D01*
X9489485Y-24771801D01*
X9503741Y-24756042D01*
X9519696Y-24742009D01*
X9524627Y-24736660D01*
X9589169Y-24665646D01*
X9601891Y-24648557D01*
X9616463Y-24633033D01*
X9620860Y-24627239D01*
X9678427Y-24550255D01*
X9689531Y-24531911D01*
X9702635Y-24514944D01*
X9706455Y-24508754D01*
X9756544Y-24426305D01*
X9765932Y-24406780D01*
X9777446Y-24388440D01*
X9780649Y-24381909D01*
X9822759Y-24294494D01*
X9830307Y-24273894D01*
X9840093Y-24254267D01*
X9842641Y-24247454D01*
X9876268Y-24155578D01*
X9881835Y-24134056D01*
X9889736Y-24113278D01*
X9891597Y-24106246D01*
X9916238Y-24010411D01*
X9919688Y-23988176D01*
X9925538Y-23966460D01*
X9926686Y-23959277D01*
X9941840Y-23859985D01*
X9943059Y-23837315D01*
X9946723Y-23814917D01*
X9947141Y-23807655D01*
X9952304Y-23705410D01*
X9951853Y-23695884D01*
X9952916Y-23686409D01*
X9952967Y-23679135D01*
X9952967Y-20279127D01*
X9952036Y-20269636D01*
X9952620Y-20260118D01*
X9952304Y-20252851D01*
X9947141Y-20150609D01*
X9943789Y-20128158D01*
X9942887Y-20105475D01*
X9941840Y-20098277D01*
X9926686Y-19998989D01*
X9921137Y-19977182D01*
X9917999Y-19954913D01*
X9916237Y-19947855D01*
X9891596Y-19852022D01*
X9883984Y-19831131D01*
X9878719Y-19809538D01*
X9876267Y-19802690D01*
X9842640Y-19710816D01*
X9833126Y-19691049D01*
X9825867Y-19670348D01*
X9822756Y-19663773D01*
X9780646Y-19576361D01*
X9769388Y-19557860D01*
X9760276Y-19538212D01*
X9756543Y-19531969D01*
X9706454Y-19449520D01*
X9693584Y-19432366D01*
X9682739Y-19413873D01*
X9678424Y-19408017D01*
X9620857Y-19331035D01*
X9606497Y-19315303D01*
X9594021Y-19298047D01*
X9589166Y-19292630D01*
X9524624Y-19221617D01*
X9508865Y-19207361D01*
X9494834Y-19191409D01*
X9489485Y-19186479D01*
X9418471Y-19121938D01*
X9401387Y-19109220D01*
X9385858Y-19094643D01*
X9380063Y-19090246D01*
X9303079Y-19032680D01*
X9284736Y-19021576D01*
X9267772Y-19008475D01*
X9261582Y-19004655D01*
X9179132Y-18954566D01*
X9159608Y-18945178D01*
X9141264Y-18933662D01*
X9134733Y-18930459D01*
X9047317Y-18888350D01*
X9026721Y-18880804D01*
X9007095Y-18871018D01*
X9000281Y-18868470D01*
X8908406Y-18834843D01*
X8886884Y-18829276D01*
X8866106Y-18821375D01*
X8859074Y-18819514D01*
X8763239Y-18794873D01*
X8741005Y-18791423D01*
X8719288Y-18785573D01*
X8712105Y-18784425D01*
X8612813Y-18769271D01*
X8590145Y-18768052D01*
X8567740Y-18764387D01*
X8560478Y-18763970D01*
X8458233Y-18758808D01*
X8448711Y-18759259D01*
X8439237Y-18758196D01*
X8431963Y-18758145D01*
X2431963Y-18758145D01*
X2422473Y-18759075D01*
X2412959Y-18758492D01*
X2405692Y-18758808D01*
X2303450Y-18763970D01*
X2280998Y-18767321D01*
X2258312Y-18768224D01*
X2251114Y-18769271D01*
X2151825Y-18784425D01*
X2130020Y-18789974D01*
X2107749Y-18793112D01*
X2100691Y-18794874D01*
X2004858Y-18819515D01*
X1983973Y-18827124D01*
X1962374Y-18832391D01*
X1955526Y-18834843D01*
X1863650Y-18868470D01*
X1843879Y-18877987D01*
X1823183Y-18885243D01*
X1816608Y-18888354D01*
X1729195Y-18930464D01*
X1710691Y-18941724D01*
X1691047Y-18950834D01*
X1684803Y-18954567D01*
X1602354Y-19004656D01*
X1585201Y-19017525D01*
X1566709Y-19028369D01*
X1560853Y-19032684D01*
X1483869Y-19090251D01*
X1468136Y-19104611D01*
X1450879Y-19117088D01*
X1445462Y-19121942D01*
X1374448Y-19186484D01*
X1360189Y-19202246D01*
X1344237Y-19216277D01*
X1339307Y-19221626D01*
X1274766Y-19292640D01*
X1262048Y-19309723D01*
X1247476Y-19325247D01*
X1243079Y-19331042D01*
X1185512Y-19408025D01*
X1174410Y-19426364D01*
X1161300Y-19443340D01*
X1157480Y-19449530D01*
X1107391Y-19531981D01*
X1098003Y-19551506D01*
X1086490Y-19569845D01*
X1083287Y-19576376D01*
X1041178Y-19663790D01*
X1033631Y-19684390D01*
X1023843Y-19704020D01*
X1021295Y-19710833D01*
X987669Y-19802709D01*
X982102Y-19824233D01*
X974200Y-19845014D01*
X972340Y-19852047D01*
X947700Y-19947883D01*
X944250Y-19970119D01*
X938400Y-19991838D01*
X937253Y-19999021D01*
X922102Y-20098311D01*
X920884Y-20120977D01*
X917219Y-20143385D01*
X916802Y-20150648D01*
X911643Y-20252893D01*
X912094Y-20262409D01*
X911032Y-20271874D01*
X910981Y-20279148D01*
X463989Y-20279148D01*
X463989Y-8609775D01*
X36329830Y-8609775D01*
X36569976Y-8997018D01*
X37063877Y-9257641D01*
X37599133Y-9416901D01*
X38155174Y-9468678D01*
X38710632Y-9410981D01*
X39244161Y-9246028D01*
X39710024Y-8997018D01*
X39950170Y-8609775D01*
X38140000Y-6799605D01*
X36329830Y-8609775D01*
X463989Y-8609775D01*
X463989Y-6635174D01*
X35291322Y-6635174D01*
X35349019Y-7190632D01*
X35513972Y-7724161D01*
X35762982Y-8190024D01*
X36150225Y-8430170D01*
X37960395Y-6620000D01*
X38319605Y-6620000D01*
X40129775Y-8430170D01*
X40517018Y-8190024D01*
X40777641Y-7696123D01*
X40936901Y-7160867D01*
X40988678Y-6604826D01*
X40972044Y-6444679D01*
X224583000Y-6444679D01*
X224583000Y-6755321D01*
X224643604Y-7059994D01*
X224762481Y-7346989D01*
X224935064Y-7605279D01*
X225154721Y-7824936D01*
X225413011Y-7997519D01*
X225700006Y-8116396D01*
X226004679Y-8177000D01*
X226315321Y-8177000D01*
X226619994Y-8116396D01*
X226906989Y-7997519D01*
X227165279Y-7824936D01*
X227384936Y-7605279D01*
X227557519Y-7346989D01*
X227676396Y-7059994D01*
X227737000Y-6755321D01*
X227737000Y-6444679D01*
X227676396Y-6140006D01*
X227557519Y-5853011D01*
X227384936Y-5594721D01*
X227165279Y-5375064D01*
X226906989Y-5202481D01*
X226619994Y-5083604D01*
X226315321Y-5023000D01*
X226004679Y-5023000D01*
X225700006Y-5083604D01*
X225413011Y-5202481D01*
X225154721Y-5375064D01*
X224935064Y-5594721D01*
X224762481Y-5853011D01*
X224643604Y-6140006D01*
X224583000Y-6444679D01*
X40972044Y-6444679D01*
X40930981Y-6049368D01*
X40766028Y-5515839D01*
X40517018Y-5049976D01*
X40129775Y-4809830D01*
X38319605Y-6620000D01*
X37960395Y-6620000D01*
X36150225Y-4809830D01*
X35762982Y-5049976D01*
X35502359Y-5543877D01*
X35343099Y-6079133D01*
X35291322Y-6635174D01*
X463989Y-6635174D01*
X463989Y-4630225D01*
X36329830Y-4630225D01*
X38140000Y-6440395D01*
X39950170Y-4630225D01*
X39710024Y-4242982D01*
X39216123Y-3982359D01*
X38680867Y-3823099D01*
X38124826Y-3771322D01*
X37569368Y-3829019D01*
X37035839Y-3993972D01*
X36569976Y-4242982D01*
X36329830Y-4630225D01*
X463989Y-4630225D01*
X463989Y-2019488D01*
X466092Y-1936303D01*
X471816Y-1861032D01*
X481225Y-1786983D01*
X494209Y-1714274D01*
X510686Y-1642882D01*
X530560Y-1572896D01*
X553747Y-1504370D01*
X580155Y-1437393D01*
X609718Y-1372002D01*
X642332Y-1308323D01*
X677930Y-1246414D01*
X716400Y-1186407D01*
X757673Y-1128367D01*
X801646Y-1072410D01*
X848202Y-1018664D01*
X897279Y-967190D01*
X948753Y-918113D01*
X1002500Y-871557D01*
X1058452Y-827587D01*
X1116503Y-786306D01*
X1176517Y-747832D01*
X1238409Y-712245D01*
X1302105Y-679623D01*
X1367482Y-650066D01*
X1434465Y-623656D01*
X1502986Y-600471D01*
X1572963Y-580599D01*
X1644364Y-564120D01*
X1717072Y-551136D01*
X1791121Y-541727D01*
X1866392Y-536003D01*
X1949577Y-533900D01*
X245586402Y-533900D01*
X245669586Y-536003D01*
G04 #@! TA.AperFunction,Conductor*
D12*
G36*
X245669586Y-536003D02*
G01*
X245744857Y-541727D01*
X245818902Y-551136D01*
X245891626Y-564123D01*
X245963002Y-580596D01*
X246032993Y-600471D01*
X246101519Y-623658D01*
X246168496Y-650066D01*
X246233886Y-679629D01*
X246297562Y-712241D01*
X246359475Y-747840D01*
X246419474Y-786306D01*
X246477520Y-827582D01*
X246533479Y-871557D01*
X246587225Y-918113D01*
X246638699Y-967190D01*
X246687770Y-1018658D01*
X246734335Y-1072415D01*
X246778300Y-1128360D01*
X246819582Y-1186412D01*
X246858051Y-1246419D01*
X246893643Y-1308320D01*
X246926265Y-1372016D01*
X246955822Y-1437393D01*
X246982232Y-1504376D01*
X247005417Y-1572897D01*
X247025289Y-1642874D01*
X247041768Y-1714275D01*
X247054752Y-1786983D01*
X247064161Y-1861032D01*
X247069886Y-1936322D01*
X247071989Y-2019456D01*
X247071989Y-98018823D01*
X247069886Y-98101960D01*
X247064161Y-98177252D01*
X247054751Y-98251306D01*
X247041766Y-98324018D01*
X247025290Y-98395409D01*
X247005421Y-98465379D01*
X246982233Y-98533913D01*
X246955816Y-98600911D01*
X246926264Y-98666279D01*
X246893643Y-98729972D01*
X246858048Y-98791879D01*
X246819575Y-98851892D01*
X246778297Y-98909939D01*
X246734336Y-98965879D01*
X246687769Y-99019639D01*
X246638703Y-99071104D01*
X246587225Y-99120185D01*
X246533479Y-99166741D01*
X246477518Y-99210718D01*
X246419491Y-99251982D01*
X246359458Y-99290468D01*
X246297571Y-99326053D01*
X246233886Y-99358670D01*
X246168496Y-99388233D01*
X246101519Y-99414641D01*
X246032993Y-99437828D01*
X245963002Y-99457703D01*
X245891626Y-99474176D01*
X245818902Y-99487163D01*
X245744857Y-99496572D01*
X245669567Y-99502297D01*
X245586434Y-99504400D01*
X1949545Y-99504400D01*
X1866411Y-99502297D01*
X1791121Y-99496572D01*
X1717072Y-99487163D01*
X1644364Y-99474179D01*
X1572963Y-99457700D01*
X1502986Y-99437828D01*
X1434465Y-99414643D01*
X1367482Y-99388233D01*
X1302105Y-99358676D01*
X1238408Y-99326054D01*
X1176506Y-99290460D01*
X1116492Y-99251986D01*
X1058457Y-99210715D01*
X1002500Y-99166741D01*
X948753Y-99120185D01*
X897273Y-99071103D01*
X848212Y-99019643D01*
X801652Y-98965892D01*
X757668Y-98909921D01*
X716396Y-98851882D01*
X677929Y-98791879D01*
X642333Y-98729970D01*
X609720Y-98666293D01*
X580159Y-98600907D01*
X553740Y-98533901D01*
X530562Y-98465399D01*
X510686Y-98395407D01*
X494211Y-98324022D01*
X481225Y-98251303D01*
X471816Y-98177252D01*
X466092Y-98101979D01*
X463989Y-98018792D01*
X463989Y-96439003D01*
X1979351Y-96439003D01*
X1979667Y-96446270D01*
X1985087Y-96553625D01*
X1988439Y-96576080D01*
X1989341Y-96598759D01*
X1990388Y-96605958D01*
X2006298Y-96710213D01*
X2011847Y-96732018D01*
X2014985Y-96754292D01*
X2016747Y-96761350D01*
X2042620Y-96861976D01*
X2050230Y-96882862D01*
X2055494Y-96904452D01*
X2057946Y-96911301D01*
X2093253Y-97007771D01*
X2102769Y-97027543D01*
X2110025Y-97048237D01*
X2113136Y-97054812D01*
X2157349Y-97146597D01*
X2168610Y-97165103D01*
X2177723Y-97184754D01*
X2181456Y-97190997D01*
X2234049Y-97277568D01*
X2246917Y-97294720D01*
X2257762Y-97313213D01*
X2262077Y-97319069D01*
X2322522Y-97399902D01*
X2336880Y-97415633D01*
X2349356Y-97432889D01*
X2354211Y-97438307D01*
X2421979Y-97512871D01*
X2437735Y-97527125D01*
X2451770Y-97543082D01*
X2457119Y-97548012D01*
X2531683Y-97615781D01*
X2548767Y-97628499D01*
X2564293Y-97643074D01*
X2570087Y-97647471D01*
X2650919Y-97707916D01*
X2669261Y-97719020D01*
X2686231Y-97732126D01*
X2692422Y-97735946D01*
X2778994Y-97788540D01*
X2798514Y-97797926D01*
X2816860Y-97809444D01*
X2823391Y-97812646D01*
X2915177Y-97856862D01*
X2935774Y-97864408D01*
X2955407Y-97874198D01*
X2962220Y-97876746D01*
X3058690Y-97912054D01*
X3080213Y-97917621D01*
X3100985Y-97925520D01*
X3108017Y-97927381D01*
X3208645Y-97953255D01*
X3230880Y-97956705D01*
X3252603Y-97962557D01*
X3259786Y-97963705D01*
X3364042Y-97979616D01*
X3386709Y-97980834D01*
X3409103Y-97984498D01*
X3416365Y-97984916D01*
X3523726Y-97990338D01*
X3546382Y-97989266D01*
X3569016Y-97990654D01*
X3576284Y-97990338D01*
X3683639Y-97984916D01*
X3706094Y-97981564D01*
X3728763Y-97980662D01*
X3735962Y-97979615D01*
X3840217Y-97963705D01*
X3862031Y-97958154D01*
X3884301Y-97955016D01*
X3891358Y-97953254D01*
X3991984Y-97927380D01*
X4012866Y-97919771D01*
X4034461Y-97914506D01*
X4041309Y-97912054D01*
X4137779Y-97876746D01*
X4157551Y-97867229D01*
X4178249Y-97859972D01*
X4184824Y-97856861D01*
X4276609Y-97812645D01*
X4295114Y-97801385D01*
X4314761Y-97792273D01*
X4321004Y-97788540D01*
X4407577Y-97735946D01*
X4424729Y-97723078D01*
X4443220Y-97712234D01*
X4449076Y-97707918D01*
X4529909Y-97647473D01*
X4545643Y-97633112D01*
X4562896Y-97620638D01*
X4568313Y-97615783D01*
X4642878Y-97548014D01*
X4657134Y-97532256D01*
X4673088Y-97518223D01*
X4678018Y-97512874D01*
X4745787Y-97438309D01*
X4758504Y-97421227D01*
X4773079Y-97405700D01*
X4777476Y-97399905D01*
X4837922Y-97319072D01*
X4849024Y-97300733D01*
X4862130Y-97283763D01*
X4865950Y-97277572D01*
X4918544Y-97191000D01*
X4927929Y-97171482D01*
X4939447Y-97153136D01*
X4942649Y-97146605D01*
X4986865Y-97054820D01*
X4994412Y-97034222D01*
X5004202Y-97014588D01*
X5006750Y-97007775D01*
X5042058Y-96911305D01*
X5047624Y-96889789D01*
X5055524Y-96869013D01*
X5057384Y-96861980D01*
X5083258Y-96761355D01*
X5086708Y-96739122D01*
X5092561Y-96717396D01*
X5093708Y-96710213D01*
X5109619Y-96605958D01*
X5110837Y-96583297D01*
X5114502Y-96560897D01*
X5114920Y-96553635D01*
X5120342Y-96446280D01*
X5119998Y-96439008D01*
X120970171Y-96439008D01*
X120970487Y-96446275D01*
X120975908Y-96553630D01*
X120979260Y-96576085D01*
X120980162Y-96598759D01*
X120981209Y-96605958D01*
X120997119Y-96710213D01*
X121002670Y-96732027D01*
X121005808Y-96754297D01*
X121007570Y-96761354D01*
X121033444Y-96861980D01*
X121041053Y-96882862D01*
X121046318Y-96904457D01*
X121048770Y-96911305D01*
X121084078Y-97007775D01*
X121093595Y-97027547D01*
X121100852Y-97048245D01*
X121103963Y-97054820D01*
X121148179Y-97146605D01*
X121159439Y-97165110D01*
X121168551Y-97184757D01*
X121172284Y-97191000D01*
X121224878Y-97277573D01*
X121237746Y-97294725D01*
X121248590Y-97313216D01*
X121252906Y-97319072D01*
X121313351Y-97399905D01*
X121327712Y-97415639D01*
X121340186Y-97432892D01*
X121345041Y-97438309D01*
X121412810Y-97512874D01*
X121428568Y-97527130D01*
X121442601Y-97543084D01*
X121447950Y-97548014D01*
X121522515Y-97615783D01*
X121539597Y-97628500D01*
X121555124Y-97643075D01*
X121560919Y-97647472D01*
X121641752Y-97707918D01*
X121660091Y-97719020D01*
X121677061Y-97732126D01*
X121683252Y-97735946D01*
X121769824Y-97788540D01*
X121789342Y-97797925D01*
X121807688Y-97809443D01*
X121814219Y-97812645D01*
X121906004Y-97856861D01*
X121926602Y-97864408D01*
X121946236Y-97874198D01*
X121953049Y-97876746D01*
X122049519Y-97912054D01*
X122071035Y-97917620D01*
X122091811Y-97925520D01*
X122098844Y-97927380D01*
X122199469Y-97953254D01*
X122221702Y-97956704D01*
X122243428Y-97962557D01*
X122250611Y-97963704D01*
X122354866Y-97979615D01*
X122377527Y-97980833D01*
X122399927Y-97984498D01*
X122407189Y-97984916D01*
X122514546Y-97990338D01*
X122537203Y-97989266D01*
X122559837Y-97990654D01*
X122567105Y-97990338D01*
X122674460Y-97984916D01*
X122696915Y-97981564D01*
X122719584Y-97980662D01*
X122726783Y-97979615D01*
X122831038Y-97963705D01*
X122852852Y-97958154D01*
X122875122Y-97955016D01*
X122882179Y-97953254D01*
X122982805Y-97927380D01*
X123003687Y-97919771D01*
X123025282Y-97914506D01*
X123032130Y-97912054D01*
X123128600Y-97876746D01*
X123148372Y-97867229D01*
X123169070Y-97859972D01*
X123175645Y-97856861D01*
X123267430Y-97812645D01*
X123285935Y-97801385D01*
X123305582Y-97792273D01*
X123311825Y-97788540D01*
X123398398Y-97735946D01*
X123415550Y-97723078D01*
X123434041Y-97712234D01*
X123439897Y-97707918D01*
X123520730Y-97647473D01*
X123536464Y-97633112D01*
X123553717Y-97620638D01*
X123559134Y-97615783D01*
X123633699Y-97548014D01*
X123647955Y-97532256D01*
X123663909Y-97518223D01*
X123668839Y-97512874D01*
X123736608Y-97438309D01*
X123749324Y-97421229D01*
X123763903Y-97405697D01*
X123768300Y-97399902D01*
X123828745Y-97319068D01*
X123839844Y-97300733D01*
X123852948Y-97283766D01*
X123856768Y-97277576D01*
X123909363Y-97191004D01*
X123918751Y-97171480D01*
X123930270Y-97153132D01*
X123933472Y-97146601D01*
X123977688Y-97054816D01*
X123985236Y-97034214D01*
X123995022Y-97014588D01*
X123997570Y-97007775D01*
X124032878Y-96911305D01*
X124038444Y-96889789D01*
X124046344Y-96869013D01*
X124048204Y-96861980D01*
X124074078Y-96761355D01*
X124077528Y-96739122D01*
X124083381Y-96717396D01*
X124084528Y-96710213D01*
X124100439Y-96605958D01*
X124101657Y-96583297D01*
X124105322Y-96560897D01*
X124105740Y-96553635D01*
X124111162Y-96446280D01*
X124110818Y-96439008D01*
X242419347Y-96439008D01*
X242419663Y-96446275D01*
X242425084Y-96553630D01*
X242428436Y-96576085D01*
X242429338Y-96598759D01*
X242430385Y-96605958D01*
X242446295Y-96710213D01*
X242451846Y-96732027D01*
X242454984Y-96754297D01*
X242456746Y-96761354D01*
X242482620Y-96861980D01*
X242490229Y-96882862D01*
X242495494Y-96904457D01*
X242497946Y-96911305D01*
X242533254Y-97007775D01*
X242542771Y-97027547D01*
X242550028Y-97048245D01*
X242553139Y-97054820D01*
X242597355Y-97146605D01*
X242608615Y-97165110D01*
X242617727Y-97184757D01*
X242621460Y-97191000D01*
X242674054Y-97277573D01*
X242686922Y-97294725D01*
X242697766Y-97313216D01*
X242702082Y-97319072D01*
X242762527Y-97399905D01*
X242776888Y-97415639D01*
X242789362Y-97432892D01*
X242794217Y-97438309D01*
X242861986Y-97512874D01*
X242877744Y-97527130D01*
X242891777Y-97543084D01*
X242897126Y-97548014D01*
X242971691Y-97615783D01*
X242988773Y-97628500D01*
X243004300Y-97643075D01*
X243010095Y-97647472D01*
X243090928Y-97707918D01*
X243109267Y-97719020D01*
X243126237Y-97732126D01*
X243132428Y-97735946D01*
X243219000Y-97788540D01*
X243238518Y-97797925D01*
X243256864Y-97809443D01*
X243263395Y-97812645D01*
X243355180Y-97856861D01*
X243375778Y-97864408D01*
X243395412Y-97874198D01*
X243402225Y-97876746D01*
X243498695Y-97912054D01*
X243520211Y-97917620D01*
X243540987Y-97925520D01*
X243548020Y-97927380D01*
X243648645Y-97953254D01*
X243670878Y-97956704D01*
X243692604Y-97962557D01*
X243699787Y-97963704D01*
X243804042Y-97979615D01*
X243826703Y-97980833D01*
X243849103Y-97984498D01*
X243856365Y-97984916D01*
X243963722Y-97990338D01*
X243986379Y-97989266D01*
X244009013Y-97990654D01*
X244016281Y-97990338D01*
X244123636Y-97984916D01*
X244146091Y-97981564D01*
X244168760Y-97980662D01*
X244175959Y-97979615D01*
X244280214Y-97963705D01*
X244302028Y-97958154D01*
X244324298Y-97955016D01*
X244331355Y-97953254D01*
X244431981Y-97927380D01*
X244452863Y-97919771D01*
X244474458Y-97914506D01*
X244481306Y-97912054D01*
X244577776Y-97876746D01*
X244597548Y-97867229D01*
X244618246Y-97859972D01*
X244624821Y-97856861D01*
X244716606Y-97812645D01*
X244735111Y-97801385D01*
X244754758Y-97792273D01*
X244761001Y-97788540D01*
X244847574Y-97735946D01*
X244864726Y-97723078D01*
X244883217Y-97712234D01*
X244889073Y-97707918D01*
X244969906Y-97647473D01*
X244985640Y-97633112D01*
X245002893Y-97620638D01*
X245008310Y-97615783D01*
X245082875Y-97548014D01*
X245097131Y-97532256D01*
X245113085Y-97518223D01*
X245118015Y-97512874D01*
X245185784Y-97438309D01*
X245198500Y-97421229D01*
X245213079Y-97405697D01*
X245217476Y-97399902D01*
X245277921Y-97319068D01*
X245289020Y-97300733D01*
X245302124Y-97283766D01*
X245305944Y-97277576D01*
X245358539Y-97191004D01*
X245367927Y-97171480D01*
X245379446Y-97153132D01*
X245382648Y-97146601D01*
X245426864Y-97054816D01*
X245434412Y-97034214D01*
X245444198Y-97014588D01*
X245446746Y-97007775D01*
X245482054Y-96911305D01*
X245487620Y-96889789D01*
X245495520Y-96869013D01*
X245497380Y-96861980D01*
X245523254Y-96761355D01*
X245526704Y-96739122D01*
X245532557Y-96717396D01*
X245533704Y-96710213D01*
X245549615Y-96605958D01*
X245550833Y-96583297D01*
X245554498Y-96560897D01*
X245554916Y-96553635D01*
X245560338Y-96446280D01*
X245559266Y-96423623D01*
X245560654Y-96400988D01*
X245560338Y-96393721D01*
X245554916Y-96286364D01*
X245551564Y-96263910D01*
X245550662Y-96241239D01*
X245549615Y-96234041D01*
X245533704Y-96129786D01*
X245528155Y-96107978D01*
X245525016Y-96085702D01*
X245523254Y-96078644D01*
X245497380Y-95978019D01*
X245489770Y-95957134D01*
X245484505Y-95935540D01*
X245482053Y-95928692D01*
X245446745Y-95832223D01*
X245437233Y-95812461D01*
X245429975Y-95791760D01*
X245426864Y-95785184D01*
X245382648Y-95693399D01*
X245371387Y-95674893D01*
X245362273Y-95655241D01*
X245358540Y-95648998D01*
X245305945Y-95562425D01*
X245293081Y-95545278D01*
X245282235Y-95526784D01*
X245277919Y-95520928D01*
X245217474Y-95440096D01*
X245203116Y-95424366D01*
X245190639Y-95407108D01*
X245185784Y-95401691D01*
X245118015Y-95327126D01*
X245102257Y-95312870D01*
X245088224Y-95296916D01*
X245082875Y-95291986D01*
X245008310Y-95224217D01*
X244991232Y-95211503D01*
X244975701Y-95196924D01*
X244969906Y-95192527D01*
X244889073Y-95132082D01*
X244870735Y-95120981D01*
X244853764Y-95107874D01*
X244847574Y-95104054D01*
X244761001Y-95051460D01*
X244741483Y-95042075D01*
X244723137Y-95030557D01*
X244716606Y-95027355D01*
X244624821Y-94983139D01*
X244604223Y-94975592D01*
X244584589Y-94965802D01*
X244577776Y-94963254D01*
X244481306Y-94927946D01*
X244459787Y-94922380D01*
X244439013Y-94914480D01*
X244431981Y-94912620D01*
X244331355Y-94886746D01*
X244309124Y-94883296D01*
X244287397Y-94877443D01*
X244280214Y-94876295D01*
X244175959Y-94860385D01*
X244153294Y-94859166D01*
X244130893Y-94855502D01*
X244123631Y-94855084D01*
X244016276Y-94849663D01*
X243993624Y-94850735D01*
X243970994Y-94849347D01*
X243963727Y-94849663D01*
X243856370Y-94855084D01*
X243833915Y-94858436D01*
X243811240Y-94859338D01*
X243804042Y-94860385D01*
X243699787Y-94876296D01*
X243677979Y-94881845D01*
X243655703Y-94884984D01*
X243648645Y-94886746D01*
X243548020Y-94912620D01*
X243527137Y-94920229D01*
X243505543Y-94925494D01*
X243498695Y-94927946D01*
X243402225Y-94963254D01*
X243382452Y-94972771D01*
X243361755Y-94980028D01*
X243355180Y-94983139D01*
X243263395Y-95027355D01*
X243244896Y-95038612D01*
X243225243Y-95047726D01*
X243219000Y-95051460D01*
X243132428Y-95104054D01*
X243115280Y-95116919D01*
X243096784Y-95127766D01*
X243090928Y-95132082D01*
X243010095Y-95192528D01*
X242994365Y-95206885D01*
X242977108Y-95219362D01*
X242971691Y-95224217D01*
X242897126Y-95291986D01*
X242882870Y-95307744D01*
X242866916Y-95321777D01*
X242861986Y-95327126D01*
X242794217Y-95401691D01*
X242781502Y-95418771D01*
X242766926Y-95434298D01*
X242762529Y-95440093D01*
X242702083Y-95520924D01*
X242690976Y-95539272D01*
X242677873Y-95556238D01*
X242674053Y-95562429D01*
X242621458Y-95649002D01*
X242612072Y-95668523D01*
X242600557Y-95686864D01*
X242597355Y-95693395D01*
X242553139Y-95785180D01*
X242545592Y-95805779D01*
X242535803Y-95825410D01*
X242533255Y-95832224D01*
X242497947Y-95928692D01*
X242492381Y-95950209D01*
X242484480Y-95970987D01*
X242482620Y-95978019D01*
X242456746Y-96078645D01*
X242453296Y-96100876D01*
X242447443Y-96122603D01*
X242446295Y-96129786D01*
X242430385Y-96234041D01*
X242429166Y-96256706D01*
X242425502Y-96279107D01*
X242425084Y-96286369D01*
X242419663Y-96393725D01*
X242420735Y-96416377D01*
X242419347Y-96439008D01*
X124110818Y-96439008D01*
X124110090Y-96423623D01*
X124111478Y-96400988D01*
X124111162Y-96393721D01*
X124105740Y-96286364D01*
X124102388Y-96263910D01*
X124101486Y-96241239D01*
X124100439Y-96234041D01*
X124084528Y-96129786D01*
X124078979Y-96107978D01*
X124075840Y-96085702D01*
X124074078Y-96078644D01*
X124048204Y-95978019D01*
X124040594Y-95957134D01*
X124035329Y-95935540D01*
X124032877Y-95928692D01*
X123997569Y-95832223D01*
X123988057Y-95812461D01*
X123980799Y-95791760D01*
X123977688Y-95785184D01*
X123933472Y-95693399D01*
X123922211Y-95674893D01*
X123913097Y-95655241D01*
X123909364Y-95648998D01*
X123856769Y-95562425D01*
X123843905Y-95545278D01*
X123833059Y-95526784D01*
X123828743Y-95520928D01*
X123768298Y-95440096D01*
X123753940Y-95424366D01*
X123741463Y-95407108D01*
X123736608Y-95401691D01*
X123668839Y-95327126D01*
X123653081Y-95312870D01*
X123639048Y-95296916D01*
X123633699Y-95291986D01*
X123559134Y-95224217D01*
X123542056Y-95211503D01*
X123526525Y-95196924D01*
X123520730Y-95192527D01*
X123439897Y-95132082D01*
X123421559Y-95120981D01*
X123404588Y-95107874D01*
X123398398Y-95104054D01*
X123311825Y-95051460D01*
X123292307Y-95042075D01*
X123273961Y-95030557D01*
X123267430Y-95027355D01*
X123175645Y-94983139D01*
X123155047Y-94975592D01*
X123135413Y-94965802D01*
X123128600Y-94963254D01*
X123032130Y-94927946D01*
X123010611Y-94922380D01*
X122989837Y-94914480D01*
X122982805Y-94912620D01*
X122882179Y-94886746D01*
X122859948Y-94883296D01*
X122838221Y-94877443D01*
X122831038Y-94876295D01*
X122726783Y-94860385D01*
X122704118Y-94859166D01*
X122681717Y-94855502D01*
X122674455Y-94855084D01*
X122567100Y-94849663D01*
X122544448Y-94850735D01*
X122521818Y-94849347D01*
X122514551Y-94849663D01*
X122407194Y-94855084D01*
X122384739Y-94858436D01*
X122362064Y-94859338D01*
X122354866Y-94860385D01*
X122250611Y-94876296D01*
X122228803Y-94881845D01*
X122206527Y-94884984D01*
X122199469Y-94886746D01*
X122098844Y-94912620D01*
X122077961Y-94920229D01*
X122056367Y-94925494D01*
X122049519Y-94927946D01*
X121953049Y-94963254D01*
X121933276Y-94972771D01*
X121912579Y-94980028D01*
X121906004Y-94983139D01*
X121814219Y-95027355D01*
X121795720Y-95038612D01*
X121776067Y-95047726D01*
X121769824Y-95051460D01*
X121683252Y-95104054D01*
X121666104Y-95116919D01*
X121647608Y-95127766D01*
X121641752Y-95132082D01*
X121560919Y-95192528D01*
X121545189Y-95206885D01*
X121527932Y-95219362D01*
X121522515Y-95224217D01*
X121447950Y-95291986D01*
X121433694Y-95307744D01*
X121417740Y-95321777D01*
X121412810Y-95327126D01*
X121345041Y-95401691D01*
X121332326Y-95418771D01*
X121317750Y-95434298D01*
X121313353Y-95440093D01*
X121252907Y-95520924D01*
X121241800Y-95539272D01*
X121228697Y-95556238D01*
X121224877Y-95562429D01*
X121172282Y-95649002D01*
X121162896Y-95668523D01*
X121151381Y-95686864D01*
X121148179Y-95693395D01*
X121103963Y-95785180D01*
X121096416Y-95805779D01*
X121086627Y-95825410D01*
X121084079Y-95832224D01*
X121048771Y-95928692D01*
X121043205Y-95950209D01*
X121035304Y-95970987D01*
X121033444Y-95978019D01*
X121007570Y-96078645D01*
X121004120Y-96100876D01*
X120998267Y-96122603D01*
X120997119Y-96129786D01*
X120981209Y-96234041D01*
X120979990Y-96256706D01*
X120976326Y-96279107D01*
X120975908Y-96286369D01*
X120970487Y-96393725D01*
X120971559Y-96416377D01*
X120970171Y-96439008D01*
X5119998Y-96439008D01*
X5119270Y-96423623D01*
X5120658Y-96400988D01*
X5120342Y-96393721D01*
X5114920Y-96286364D01*
X5111568Y-96263910D01*
X5110666Y-96241239D01*
X5109619Y-96234041D01*
X5093708Y-96129786D01*
X5088159Y-96107978D01*
X5085020Y-96085702D01*
X5083258Y-96078644D01*
X5057384Y-95978019D01*
X5049774Y-95957134D01*
X5044509Y-95935540D01*
X5042057Y-95928692D01*
X5006749Y-95832223D01*
X4997233Y-95812453D01*
X4989976Y-95791755D01*
X4986865Y-95785180D01*
X4942649Y-95693395D01*
X4931392Y-95674896D01*
X4922279Y-95655245D01*
X4918546Y-95649002D01*
X4865952Y-95562429D01*
X4853083Y-95545276D01*
X4842236Y-95526780D01*
X4837920Y-95520924D01*
X4777475Y-95440092D01*
X4763115Y-95424359D01*
X4750642Y-95407108D01*
X4745787Y-95401691D01*
X4678018Y-95327126D01*
X4662260Y-95312870D01*
X4648227Y-95296916D01*
X4642878Y-95291986D01*
X4568313Y-95224217D01*
X4551235Y-95211503D01*
X4535704Y-95196924D01*
X4529909Y-95192527D01*
X4449076Y-95132082D01*
X4430738Y-95120981D01*
X4413767Y-95107874D01*
X4407577Y-95104054D01*
X4321004Y-95051460D01*
X4301486Y-95042075D01*
X4283140Y-95030557D01*
X4276609Y-95027355D01*
X4184824Y-94983139D01*
X4164226Y-94975592D01*
X4144592Y-94965802D01*
X4137779Y-94963254D01*
X4041309Y-94927946D01*
X4019790Y-94922380D01*
X3999016Y-94914480D01*
X3991984Y-94912620D01*
X3891358Y-94886746D01*
X3869127Y-94883296D01*
X3847400Y-94877443D01*
X3840217Y-94876295D01*
X3735962Y-94860385D01*
X3713297Y-94859166D01*
X3690896Y-94855502D01*
X3683634Y-94855084D01*
X3576279Y-94849663D01*
X3553628Y-94850735D01*
X3530998Y-94849347D01*
X3523730Y-94849663D01*
X3416370Y-94855084D01*
X3393922Y-94858435D01*
X3371241Y-94859337D01*
X3364042Y-94860384D01*
X3259786Y-94876295D01*
X3237978Y-94881844D01*
X3215702Y-94884983D01*
X3208645Y-94886745D01*
X3108017Y-94912619D01*
X3087131Y-94920229D01*
X3065538Y-94925494D01*
X3058690Y-94927946D01*
X2962220Y-94963254D01*
X2942449Y-94972770D01*
X2921752Y-94980027D01*
X2915177Y-94983138D01*
X2823391Y-95027354D01*
X2804890Y-95038612D01*
X2785237Y-95047726D01*
X2778994Y-95051460D01*
X2692422Y-95104054D01*
X2675274Y-95116920D01*
X2656775Y-95127768D01*
X2650919Y-95132084D01*
X2570087Y-95192529D01*
X2554355Y-95206889D01*
X2537100Y-95219364D01*
X2531683Y-95224219D01*
X2457119Y-95291988D01*
X2442862Y-95307748D01*
X2426909Y-95321780D01*
X2421979Y-95327129D01*
X2354211Y-95401693D01*
X2341492Y-95418779D01*
X2326921Y-95434301D01*
X2322524Y-95440095D01*
X2262079Y-95520928D01*
X2250976Y-95539270D01*
X2237868Y-95556242D01*
X2234048Y-95562433D01*
X2181455Y-95649006D01*
X2172068Y-95668528D01*
X2160552Y-95686872D01*
X2157349Y-95693403D01*
X2113136Y-95785188D01*
X2105590Y-95805785D01*
X2095802Y-95825415D01*
X2093254Y-95832228D01*
X2057947Y-95928697D01*
X2052381Y-95950215D01*
X2044481Y-95970991D01*
X2042620Y-95978023D01*
X2016747Y-96078649D01*
X2013297Y-96100884D01*
X2007446Y-96122603D01*
X2006298Y-96129786D01*
X1990388Y-96234041D01*
X1989170Y-96256704D01*
X1985504Y-96279112D01*
X1985087Y-96286374D01*
X1979667Y-96393730D01*
X1980739Y-96416374D01*
X1979351Y-96439003D01*
X463989Y-96439003D01*
X463989Y-42891006D01*
X78523021Y-42891006D01*
X78523337Y-42898273D01*
X78528758Y-43005628D01*
X78532110Y-43028083D01*
X78533012Y-43050757D01*
X78534059Y-43057956D01*
X78549969Y-43162211D01*
X78555520Y-43184025D01*
X78558658Y-43206295D01*
X78560420Y-43213352D01*
X78586294Y-43313978D01*
X78593903Y-43334860D01*
X78599168Y-43356455D01*
X78601620Y-43363303D01*
X78636928Y-43459773D01*
X78646445Y-43479545D01*
X78653702Y-43500243D01*
X78656813Y-43506818D01*
X78701029Y-43598603D01*
X78712289Y-43617108D01*
X78721401Y-43636755D01*
X78725134Y-43642998D01*
X78777728Y-43729571D01*
X78790596Y-43746723D01*
X78801440Y-43765214D01*
X78805756Y-43771070D01*
X78866201Y-43851903D01*
X78880562Y-43867637D01*
X78893036Y-43884890D01*
X78897891Y-43890307D01*
X78965660Y-43964872D01*
X78981418Y-43979128D01*
X78995451Y-43995082D01*
X79000800Y-44000012D01*
X79075365Y-44067781D01*
X79092444Y-44080496D01*
X79107972Y-44095072D01*
X79113766Y-44099469D01*
X79194598Y-44159914D01*
X79212946Y-44171021D01*
X79229913Y-44184125D01*
X79236103Y-44187946D01*
X79322676Y-44240540D01*
X79342197Y-44249926D01*
X79360538Y-44261441D01*
X79367069Y-44264643D01*
X79458854Y-44308859D01*
X79479453Y-44316406D01*
X79499084Y-44326195D01*
X79505897Y-44328743D01*
X79602366Y-44364051D01*
X79623880Y-44369616D01*
X79644660Y-44377518D01*
X79651693Y-44379378D01*
X79752318Y-44405252D01*
X79774551Y-44408702D01*
X79796277Y-44414555D01*
X79803460Y-44415702D01*
X79907715Y-44431613D01*
X79930376Y-44432831D01*
X79952776Y-44436496D01*
X79960038Y-44436914D01*
X80067395Y-44442336D01*
X80090052Y-44441264D01*
X80112686Y-44442652D01*
X80119954Y-44442336D01*
X80227309Y-44436914D01*
X80249764Y-44433562D01*
X80272433Y-44432660D01*
X80279632Y-44431613D01*
X80383887Y-44415703D01*
X80405701Y-44410152D01*
X80427971Y-44407014D01*
X80435028Y-44405252D01*
X80535654Y-44379378D01*
X80556536Y-44371769D01*
X80578131Y-44366504D01*
X80584979Y-44364052D01*
X80681449Y-44328744D01*
X80701221Y-44319227D01*
X80721919Y-44311970D01*
X80728494Y-44308859D01*
X80820279Y-44264643D01*
X80838784Y-44253383D01*
X80858431Y-44244271D01*
X80864674Y-44240538D01*
X80951247Y-44187944D01*
X80968399Y-44175076D01*
X80986890Y-44164232D01*
X80992746Y-44159916D01*
X81073579Y-44099471D01*
X81089313Y-44085110D01*
X81106566Y-44072636D01*
X81111983Y-44067781D01*
X81186548Y-44000012D01*
X81200804Y-43984254D01*
X81216758Y-43970221D01*
X81221688Y-43964872D01*
X81289457Y-43890307D01*
X81302174Y-43873225D01*
X81316749Y-43857698D01*
X81321146Y-43851903D01*
X81381592Y-43771070D01*
X81392694Y-43752731D01*
X81405800Y-43735761D01*
X81409620Y-43729570D01*
X81462214Y-43642998D01*
X81471599Y-43623480D01*
X81483117Y-43605134D01*
X81486319Y-43598603D01*
X81530535Y-43506818D01*
X81538082Y-43486220D01*
X81547872Y-43466586D01*
X81550420Y-43459773D01*
X81585728Y-43363303D01*
X81591294Y-43341787D01*
X81599194Y-43321011D01*
X81601054Y-43313978D01*
X81626928Y-43213353D01*
X81630378Y-43191120D01*
X81636231Y-43169394D01*
X81637378Y-43162211D01*
X81653289Y-43057956D01*
X81654507Y-43035295D01*
X81658172Y-43012895D01*
X81658590Y-43005633D01*
X81664012Y-42898278D01*
X81663668Y-42891006D01*
X165873115Y-42891006D01*
X165873431Y-42898273D01*
X165878852Y-43005628D01*
X165882204Y-43028083D01*
X165883106Y-43050757D01*
X165884153Y-43057956D01*
X165900063Y-43162211D01*
X165905614Y-43184025D01*
X165908752Y-43206295D01*
X165910514Y-43213352D01*
X165936388Y-43313978D01*
X165943997Y-43334860D01*
X165949262Y-43356455D01*
X165951714Y-43363303D01*
X165987022Y-43459773D01*
X165996539Y-43479545D01*
X166003796Y-43500243D01*
X166006907Y-43506818D01*
X166051123Y-43598603D01*
X166062383Y-43617108D01*
X166071495Y-43636755D01*
X166075228Y-43642998D01*
X166127822Y-43729571D01*
X166140690Y-43746723D01*
X166151534Y-43765214D01*
X166155850Y-43771070D01*
X166216295Y-43851903D01*
X166230656Y-43867637D01*
X166243130Y-43884890D01*
X166247985Y-43890307D01*
X166315754Y-43964872D01*
X166331512Y-43979128D01*
X166345545Y-43995082D01*
X166350894Y-44000012D01*
X166425459Y-44067781D01*
X166442541Y-44080498D01*
X166458068Y-44095073D01*
X166463863Y-44099470D01*
X166544696Y-44159916D01*
X166563035Y-44171018D01*
X166580005Y-44184124D01*
X166586196Y-44187944D01*
X166672768Y-44240538D01*
X166692286Y-44249923D01*
X166710632Y-44261441D01*
X166717163Y-44264643D01*
X166808948Y-44308859D01*
X166829546Y-44316406D01*
X166849180Y-44326196D01*
X166855993Y-44328744D01*
X166952463Y-44364052D01*
X166973979Y-44369618D01*
X166994755Y-44377518D01*
X167001788Y-44379378D01*
X167102413Y-44405252D01*
X167124646Y-44408702D01*
X167146372Y-44414555D01*
X167153555Y-44415702D01*
X167257810Y-44431613D01*
X167280471Y-44432831D01*
X167302871Y-44436496D01*
X167310133Y-44436914D01*
X167417490Y-44442336D01*
X167440146Y-44441264D01*
X167462780Y-44442652D01*
X167470048Y-44442336D01*
X167577407Y-44436914D01*
X167599855Y-44433563D01*
X167622531Y-44432661D01*
X167629729Y-44431614D01*
X167733986Y-44415703D01*
X167755792Y-44410154D01*
X167778070Y-44407015D01*
X167785127Y-44405253D01*
X167885755Y-44379379D01*
X167906641Y-44371769D01*
X167928234Y-44366504D01*
X167935082Y-44364052D01*
X168031552Y-44328744D01*
X168051322Y-44319228D01*
X168072020Y-44311971D01*
X168078595Y-44308860D01*
X168170381Y-44264644D01*
X168188888Y-44253383D01*
X168208535Y-44244271D01*
X168214778Y-44240538D01*
X168301351Y-44187944D01*
X168318503Y-44175076D01*
X168336997Y-44164230D01*
X168342853Y-44159915D01*
X168423684Y-44099469D01*
X168439412Y-44085113D01*
X168456672Y-44072634D01*
X168462089Y-44067779D01*
X168536653Y-44000010D01*
X168550910Y-43984250D01*
X168566863Y-43970218D01*
X168571793Y-43964870D01*
X168639561Y-43890305D01*
X168652279Y-43873221D01*
X168666853Y-43857695D01*
X168671250Y-43851900D01*
X168731695Y-43771066D01*
X168742797Y-43752726D01*
X168755902Y-43735757D01*
X168759723Y-43729567D01*
X168812315Y-43642995D01*
X168821701Y-43623474D01*
X168833220Y-43605126D01*
X168836422Y-43598595D01*
X168880636Y-43506810D01*
X168888181Y-43486217D01*
X168897971Y-43466582D01*
X168900519Y-43459769D01*
X168935826Y-43363299D01*
X168941392Y-43341778D01*
X168949291Y-43321006D01*
X168951152Y-43313974D01*
X168977025Y-43213348D01*
X168980475Y-43191113D01*
X168986326Y-43169394D01*
X168987473Y-43162211D01*
X169003384Y-43057956D01*
X169004603Y-43035291D01*
X169008267Y-43012890D01*
X169008685Y-43005628D01*
X169014106Y-42898273D01*
X169013034Y-42875621D01*
X169014422Y-42852991D01*
X169014106Y-42845724D01*
X169008685Y-42738367D01*
X169005333Y-42715912D01*
X169004431Y-42693237D01*
X169003384Y-42686039D01*
X168987473Y-42581784D01*
X168981926Y-42559986D01*
X168978787Y-42537705D01*
X168977025Y-42530647D01*
X168951152Y-42430021D01*
X168943540Y-42409131D01*
X168938277Y-42387543D01*
X168935825Y-42380695D01*
X168900518Y-42284226D01*
X168891003Y-42264457D01*
X168883747Y-42243761D01*
X168880636Y-42237186D01*
X168836422Y-42145401D01*
X168825162Y-42126896D01*
X168816050Y-42107247D01*
X168812317Y-42101003D01*
X168759724Y-42014431D01*
X168746857Y-41997280D01*
X168736009Y-41978782D01*
X168731693Y-41972926D01*
X168671248Y-41892094D01*
X168656890Y-41876363D01*
X168644415Y-41859109D01*
X168639561Y-41853691D01*
X168571793Y-41779126D01*
X168556031Y-41764867D01*
X168542001Y-41748916D01*
X168536653Y-41743986D01*
X168462089Y-41676217D01*
X168445005Y-41663499D01*
X168429479Y-41648924D01*
X168423684Y-41644527D01*
X168342853Y-41584081D01*
X168324507Y-41572975D01*
X168307541Y-41559872D01*
X168301351Y-41556052D01*
X168214778Y-41503458D01*
X168195262Y-41494074D01*
X168176913Y-41482554D01*
X168170381Y-41479352D01*
X168078595Y-41435136D01*
X168057998Y-41427590D01*
X168038365Y-41417800D01*
X168031552Y-41415252D01*
X167935082Y-41379944D01*
X167913559Y-41374377D01*
X167892787Y-41366478D01*
X167885755Y-41364617D01*
X167785127Y-41338743D01*
X167762892Y-41335293D01*
X167741169Y-41329441D01*
X167733986Y-41328293D01*
X167629729Y-41312382D01*
X167607059Y-41311163D01*
X167584664Y-41307500D01*
X167577402Y-41307082D01*
X167470043Y-41301661D01*
X167447392Y-41302733D01*
X167424762Y-41301345D01*
X167417495Y-41301661D01*
X167310138Y-41307082D01*
X167287683Y-41310434D01*
X167265008Y-41311336D01*
X167257810Y-41312383D01*
X167153555Y-41328294D01*
X167131747Y-41333843D01*
X167109471Y-41336982D01*
X167102413Y-41338744D01*
X167001788Y-41364618D01*
X166980905Y-41372227D01*
X166959311Y-41377492D01*
X166952463Y-41379944D01*
X166855993Y-41415252D01*
X166836220Y-41424769D01*
X166815523Y-41432026D01*
X166808948Y-41435137D01*
X166717163Y-41479353D01*
X166698664Y-41490610D01*
X166679011Y-41499724D01*
X166672768Y-41503458D01*
X166586196Y-41556052D01*
X166569048Y-41568917D01*
X166550552Y-41579764D01*
X166544696Y-41584080D01*
X166463863Y-41644526D01*
X166448133Y-41658883D01*
X166430876Y-41671360D01*
X166425459Y-41676215D01*
X166350894Y-41743984D01*
X166336638Y-41759742D01*
X166320684Y-41773775D01*
X166315754Y-41779124D01*
X166247985Y-41853689D01*
X166235270Y-41870769D01*
X166220694Y-41886296D01*
X166216297Y-41892091D01*
X166155851Y-41972922D01*
X166144744Y-41991270D01*
X166131641Y-42008236D01*
X166127821Y-42014427D01*
X166075226Y-42101000D01*
X166065840Y-42120521D01*
X166054325Y-42138862D01*
X166051123Y-42145393D01*
X166006907Y-42237178D01*
X165999360Y-42257777D01*
X165989571Y-42277408D01*
X165987023Y-42284222D01*
X165951715Y-42380690D01*
X165946149Y-42402207D01*
X165938248Y-42422985D01*
X165936388Y-42430017D01*
X165910514Y-42530643D01*
X165907064Y-42552874D01*
X165901211Y-42574601D01*
X165900063Y-42581784D01*
X165884153Y-42686039D01*
X165882934Y-42708704D01*
X165879270Y-42731105D01*
X165878852Y-42738367D01*
X165873431Y-42845723D01*
X165874503Y-42868375D01*
X165873115Y-42891006D01*
X81663668Y-42891006D01*
X81662940Y-42875621D01*
X81664328Y-42852986D01*
X81664012Y-42845719D01*
X81658590Y-42738362D01*
X81655238Y-42715908D01*
X81654336Y-42693237D01*
X81653289Y-42686039D01*
X81637378Y-42581784D01*
X81631829Y-42559976D01*
X81628690Y-42537700D01*
X81626928Y-42530642D01*
X81601054Y-42430017D01*
X81593444Y-42409132D01*
X81588179Y-42387538D01*
X81585727Y-42380690D01*
X81550419Y-42284221D01*
X81540903Y-42264451D01*
X81533646Y-42243753D01*
X81530535Y-42237178D01*
X81486319Y-42145393D01*
X81475062Y-42126894D01*
X81465949Y-42107243D01*
X81462216Y-42101000D01*
X81409622Y-42014427D01*
X81396753Y-41997274D01*
X81385906Y-41978778D01*
X81381590Y-41972922D01*
X81321145Y-41892090D01*
X81306785Y-41876357D01*
X81294312Y-41859106D01*
X81289457Y-41853689D01*
X81221688Y-41779124D01*
X81205930Y-41764868D01*
X81191897Y-41748914D01*
X81186548Y-41743984D01*
X81111983Y-41676215D01*
X81094905Y-41663501D01*
X81079374Y-41648922D01*
X81073579Y-41644525D01*
X80992746Y-41584080D01*
X80974408Y-41572979D01*
X80957437Y-41559872D01*
X80951247Y-41556052D01*
X80864674Y-41503458D01*
X80845156Y-41494073D01*
X80826810Y-41482555D01*
X80820279Y-41479353D01*
X80728494Y-41435137D01*
X80707896Y-41427590D01*
X80688262Y-41417800D01*
X80681449Y-41415252D01*
X80584979Y-41379944D01*
X80563460Y-41374378D01*
X80542686Y-41366478D01*
X80535654Y-41364618D01*
X80435028Y-41338744D01*
X80412797Y-41335294D01*
X80391070Y-41329441D01*
X80383887Y-41328293D01*
X80279632Y-41312383D01*
X80256967Y-41311164D01*
X80234566Y-41307500D01*
X80227304Y-41307082D01*
X80119949Y-41301661D01*
X80097297Y-41302733D01*
X80074667Y-41301345D01*
X80067400Y-41301661D01*
X79960043Y-41307082D01*
X79937588Y-41310434D01*
X79914913Y-41311336D01*
X79907715Y-41312383D01*
X79803460Y-41328294D01*
X79781652Y-41333843D01*
X79759376Y-41336982D01*
X79752318Y-41338744D01*
X79651693Y-41364618D01*
X79630808Y-41372228D01*
X79609214Y-41377493D01*
X79602366Y-41379945D01*
X79505897Y-41415253D01*
X79486127Y-41424769D01*
X79465429Y-41432026D01*
X79458854Y-41435137D01*
X79367069Y-41479353D01*
X79348570Y-41490610D01*
X79328919Y-41499723D01*
X79322676Y-41503456D01*
X79236103Y-41556050D01*
X79218950Y-41568919D01*
X79200454Y-41579766D01*
X79194598Y-41584082D01*
X79113766Y-41644527D01*
X79098033Y-41658887D01*
X79080782Y-41671360D01*
X79075365Y-41676215D01*
X79000800Y-41743984D01*
X78986544Y-41759742D01*
X78970590Y-41773775D01*
X78965660Y-41779124D01*
X78897891Y-41853689D01*
X78885176Y-41870769D01*
X78870600Y-41886296D01*
X78866203Y-41892091D01*
X78805757Y-41972922D01*
X78794650Y-41991270D01*
X78781547Y-42008236D01*
X78777727Y-42014427D01*
X78725132Y-42101000D01*
X78715746Y-42120521D01*
X78704231Y-42138862D01*
X78701029Y-42145393D01*
X78656813Y-42237178D01*
X78649266Y-42257777D01*
X78639477Y-42277408D01*
X78636929Y-42284222D01*
X78601621Y-42380690D01*
X78596055Y-42402207D01*
X78588154Y-42422985D01*
X78586294Y-42430017D01*
X78560420Y-42530643D01*
X78556970Y-42552874D01*
X78551117Y-42574601D01*
X78549969Y-42581784D01*
X78534059Y-42686039D01*
X78532840Y-42708704D01*
X78529176Y-42731105D01*
X78528758Y-42738367D01*
X78523337Y-42845723D01*
X78524409Y-42868375D01*
X78523021Y-42891006D01*
X463989Y-42891006D01*
X463989Y-20279148D01*
X910981Y-20279148D01*
X910981Y-23679135D01*
X911911Y-23688625D01*
X911328Y-23698138D01*
X911644Y-23705405D01*
X916806Y-23807650D01*
X920158Y-23830104D01*
X921060Y-23852787D01*
X922107Y-23859985D01*
X937261Y-23959277D01*
X942808Y-23981076D01*
X945947Y-24003354D01*
X947709Y-24010411D01*
X972350Y-24106246D01*
X979962Y-24127139D01*
X985227Y-24148730D01*
X987679Y-24155578D01*
X1021306Y-24247453D01*
X1030818Y-24267215D01*
X1038075Y-24287914D01*
X1041186Y-24294489D01*
X1083295Y-24381905D01*
X1094558Y-24400415D01*
X1103669Y-24420061D01*
X1107402Y-24426304D01*
X1157491Y-24508754D01*
X1170357Y-24525903D01*
X1181201Y-24544395D01*
X1185516Y-24550251D01*
X1243082Y-24627235D01*
X1257440Y-24642966D01*
X1269919Y-24660226D01*
X1274774Y-24665643D01*
X1339315Y-24736657D01*
X1355070Y-24750910D01*
X1369107Y-24766869D01*
X1374456Y-24771799D01*
X1445469Y-24836340D01*
X1462548Y-24849055D01*
X1478076Y-24863631D01*
X1483871Y-24868028D01*
X1560853Y-24925595D01*
X1579197Y-24936700D01*
X1596162Y-24949802D01*
X1602352Y-24953622D01*
X1684801Y-25003712D01*
X1704326Y-25013100D01*
X1722670Y-25024617D01*
X1729201Y-25027820D01*
X1816613Y-25069929D01*
X1837208Y-25077475D01*
X1856838Y-25087263D01*
X1863652Y-25089811D01*
X1955526Y-25123438D01*
X1977050Y-25129006D01*
X1997826Y-25136906D01*
X2004858Y-25138767D01*
X2100691Y-25163408D01*
X2122923Y-25166858D01*
X2144642Y-25172709D01*
X2151825Y-25173857D01*
X2251113Y-25189011D01*
X2273788Y-25190230D01*
X2296183Y-25193894D01*
X2303445Y-25194312D01*
X2405687Y-25199475D01*
X2415214Y-25199024D01*
X2424689Y-25200087D01*
X2431963Y-25200138D01*
X8431963Y-25200138D01*
X8441454Y-25199207D01*
X8450971Y-25199791D01*
X8458238Y-25199475D01*
X8560483Y-25194312D01*
X8582937Y-25190960D01*
X8605615Y-25190058D01*
X8612813Y-25189011D01*
X8712105Y-25173857D01*
X8733904Y-25168310D01*
X8756182Y-25165171D01*
X8763239Y-25163409D01*
X8859074Y-25138768D01*
X8879967Y-25131156D01*
X8901558Y-25125891D01*
X8908406Y-25123439D01*
X9000281Y-25089812D01*
X9020043Y-25080300D01*
X9040742Y-25073043D01*
X9047317Y-25069932D01*
X9134733Y-25027823D01*
X9153242Y-25016560D01*
X9172893Y-25007447D01*
X9179136Y-25003714D01*
X9261586Y-24953624D01*
X9278733Y-24940759D01*
X9297227Y-24929914D01*
X9303083Y-24925598D01*
X9380066Y-24868032D01*
X9395796Y-24853674D01*
X9413054Y-24841197D01*
X9418471Y-24836342D01*
X9489485Y-24771801D01*
X9503741Y-24756042D01*
X9519696Y-24742009D01*
X9524627Y-24736660D01*
X9589169Y-24665646D01*
X9601891Y-24648557D01*
X9616463Y-24633033D01*
X9620860Y-24627239D01*
X9678427Y-24550255D01*
X9689531Y-24531911D01*
X9702635Y-24514944D01*
X9706455Y-24508754D01*
X9756544Y-24426305D01*
X9765932Y-24406780D01*
X9777446Y-24388440D01*
X9780649Y-24381909D01*
X9822759Y-24294494D01*
X9830307Y-24273894D01*
X9840093Y-24254267D01*
X9842641Y-24247454D01*
X9876268Y-24155578D01*
X9881835Y-24134056D01*
X9889736Y-24113278D01*
X9891597Y-24106246D01*
X9916238Y-24010411D01*
X9919688Y-23988176D01*
X9925538Y-23966460D01*
X9926686Y-23959277D01*
X9941840Y-23859985D01*
X9943059Y-23837315D01*
X9946723Y-23814917D01*
X9947141Y-23807655D01*
X9952304Y-23705410D01*
X9951853Y-23695884D01*
X9952916Y-23686409D01*
X9952967Y-23679135D01*
X9952967Y-20279127D01*
X9952036Y-20269636D01*
X9952620Y-20260118D01*
X9952304Y-20252851D01*
X9947141Y-20150609D01*
X9943789Y-20128158D01*
X9942887Y-20105475D01*
X9941840Y-20098277D01*
X9926686Y-19998989D01*
X9921137Y-19977182D01*
X9917999Y-19954913D01*
X9916237Y-19947855D01*
X9891596Y-19852022D01*
X9883984Y-19831131D01*
X9878719Y-19809538D01*
X9876267Y-19802690D01*
X9842640Y-19710816D01*
X9833126Y-19691049D01*
X9825867Y-19670348D01*
X9822756Y-19663773D01*
X9780646Y-19576361D01*
X9769388Y-19557860D01*
X9760276Y-19538212D01*
X9756543Y-19531969D01*
X9706454Y-19449520D01*
X9693584Y-19432366D01*
X9682739Y-19413873D01*
X9678424Y-19408017D01*
X9620857Y-19331035D01*
X9606497Y-19315303D01*
X9594021Y-19298047D01*
X9589166Y-19292630D01*
X9524624Y-19221617D01*
X9508865Y-19207361D01*
X9494834Y-19191409D01*
X9489485Y-19186479D01*
X9418471Y-19121938D01*
X9401387Y-19109220D01*
X9385858Y-19094643D01*
X9380063Y-19090246D01*
X9303079Y-19032680D01*
X9284736Y-19021576D01*
X9267772Y-19008475D01*
X9261582Y-19004655D01*
X9179132Y-18954566D01*
X9159608Y-18945178D01*
X9141264Y-18933662D01*
X9134733Y-18930459D01*
X9047317Y-18888350D01*
X9026721Y-18880804D01*
X9007095Y-18871018D01*
X9000281Y-18868470D01*
X8908406Y-18834843D01*
X8886884Y-18829276D01*
X8866106Y-18821375D01*
X8859074Y-18819514D01*
X8763239Y-18794873D01*
X8741005Y-18791423D01*
X8719288Y-18785573D01*
X8712105Y-18784425D01*
X8612813Y-18769271D01*
X8590145Y-18768052D01*
X8567740Y-18764387D01*
X8560478Y-18763970D01*
X8458233Y-18758808D01*
X8448711Y-18759259D01*
X8439237Y-18758196D01*
X8431963Y-18758145D01*
X2431963Y-18758145D01*
X2422473Y-18759075D01*
X2412959Y-18758492D01*
X2405692Y-18758808D01*
X2303450Y-18763970D01*
X2280998Y-18767321D01*
X2258312Y-18768224D01*
X2251114Y-18769271D01*
X2151825Y-18784425D01*
X2130020Y-18789974D01*
X2107749Y-18793112D01*
X2100691Y-18794874D01*
X2004858Y-18819515D01*
X1983973Y-18827124D01*
X1962374Y-18832391D01*
X1955526Y-18834843D01*
X1863650Y-18868470D01*
X1843879Y-18877987D01*
X1823183Y-18885243D01*
X1816608Y-18888354D01*
X1729195Y-18930464D01*
X1710691Y-18941724D01*
X1691047Y-18950834D01*
X1684803Y-18954567D01*
X1602354Y-19004656D01*
X1585201Y-19017525D01*
X1566709Y-19028369D01*
X1560853Y-19032684D01*
X1483869Y-19090251D01*
X1468136Y-19104611D01*
X1450879Y-19117088D01*
X1445462Y-19121942D01*
X1374448Y-19186484D01*
X1360189Y-19202246D01*
X1344237Y-19216277D01*
X1339307Y-19221626D01*
X1274766Y-19292640D01*
X1262048Y-19309723D01*
X1247476Y-19325247D01*
X1243079Y-19331042D01*
X1185512Y-19408025D01*
X1174410Y-19426364D01*
X1161300Y-19443340D01*
X1157480Y-19449530D01*
X1107391Y-19531981D01*
X1098003Y-19551506D01*
X1086490Y-19569845D01*
X1083287Y-19576376D01*
X1041178Y-19663790D01*
X1033631Y-19684390D01*
X1023843Y-19704020D01*
X1021295Y-19710833D01*
X987669Y-19802709D01*
X982102Y-19824233D01*
X974200Y-19845014D01*
X972340Y-19852047D01*
X947700Y-19947883D01*
X944250Y-19970119D01*
X938400Y-19991838D01*
X937253Y-19999021D01*
X922102Y-20098311D01*
X920884Y-20120977D01*
X917219Y-20143385D01*
X916802Y-20150648D01*
X911643Y-20252893D01*
X912094Y-20262409D01*
X911032Y-20271874D01*
X910981Y-20279148D01*
X463989Y-20279148D01*
X463989Y-8609775D01*
X36329830Y-8609775D01*
X36569976Y-8997018D01*
X37063877Y-9257641D01*
X37599133Y-9416901D01*
X38155174Y-9468678D01*
X38710632Y-9410981D01*
X39244161Y-9246028D01*
X39710024Y-8997018D01*
X39950170Y-8609775D01*
X38140000Y-6799605D01*
X36329830Y-8609775D01*
X463989Y-8609775D01*
X463989Y-6635174D01*
X35291322Y-6635174D01*
X35349019Y-7190632D01*
X35513972Y-7724161D01*
X35762982Y-8190024D01*
X36150225Y-8430170D01*
X37960395Y-6620000D01*
X38319605Y-6620000D01*
X40129775Y-8430170D01*
X40517018Y-8190024D01*
X40777641Y-7696123D01*
X40936901Y-7160867D01*
X40988678Y-6604826D01*
X40972044Y-6444679D01*
X224583000Y-6444679D01*
X224583000Y-6755321D01*
X224643604Y-7059994D01*
X224762481Y-7346989D01*
X224935064Y-7605279D01*
X225154721Y-7824936D01*
X225413011Y-7997519D01*
X225700006Y-8116396D01*
X226004679Y-8177000D01*
X226315321Y-8177000D01*
X226619994Y-8116396D01*
X226906989Y-7997519D01*
X227165279Y-7824936D01*
X227384936Y-7605279D01*
X227557519Y-7346989D01*
X227676396Y-7059994D01*
X227737000Y-6755321D01*
X227737000Y-6444679D01*
X227676396Y-6140006D01*
X227557519Y-5853011D01*
X227384936Y-5594721D01*
X227165279Y-5375064D01*
X226906989Y-5202481D01*
X226619994Y-5083604D01*
X226315321Y-5023000D01*
X226004679Y-5023000D01*
X225700006Y-5083604D01*
X225413011Y-5202481D01*
X225154721Y-5375064D01*
X224935064Y-5594721D01*
X224762481Y-5853011D01*
X224643604Y-6140006D01*
X224583000Y-6444679D01*
X40972044Y-6444679D01*
X40930981Y-6049368D01*
X40766028Y-5515839D01*
X40517018Y-5049976D01*
X40129775Y-4809830D01*
X38319605Y-6620000D01*
X37960395Y-6620000D01*
X36150225Y-4809830D01*
X35762982Y-5049976D01*
X35502359Y-5543877D01*
X35343099Y-6079133D01*
X35291322Y-6635174D01*
X463989Y-6635174D01*
X463989Y-4630225D01*
X36329830Y-4630225D01*
X38140000Y-6440395D01*
X39950170Y-4630225D01*
X39710024Y-4242982D01*
X39216123Y-3982359D01*
X38680867Y-3823099D01*
X38124826Y-3771322D01*
X37569368Y-3829019D01*
X37035839Y-3993972D01*
X36569976Y-4242982D01*
X36329830Y-4630225D01*
X463989Y-4630225D01*
X463989Y-2019488D01*
X466092Y-1936303D01*
X471816Y-1861032D01*
X481225Y-1786983D01*
X494209Y-1714274D01*
X510686Y-1642882D01*
X530560Y-1572896D01*
X553747Y-1504370D01*
X580155Y-1437393D01*
X609718Y-1372002D01*
X642332Y-1308323D01*
X677930Y-1246414D01*
X716400Y-1186407D01*
X757673Y-1128367D01*
X801646Y-1072410D01*
X848202Y-1018664D01*
X897279Y-967190D01*
X948753Y-918113D01*
X1002500Y-871557D01*
X1058452Y-827587D01*
X1116503Y-786306D01*
X1176517Y-747832D01*
X1238409Y-712245D01*
X1302105Y-679623D01*
X1367482Y-650066D01*
X1434465Y-623656D01*
X1502986Y-600471D01*
X1572963Y-580599D01*
X1644364Y-564120D01*
X1717072Y-551136D01*
X1791121Y-541727D01*
X1866392Y-536003D01*
X1949577Y-533900D01*
X245586402Y-533900D01*
X245669586Y-536003D01*
G37*
G04 #@! TD.AperFunction*
M02*
