<?xml version="1.0" encoding="utf-8"?>
<!-- Generator: Adobe Illustrator 24.0.1, SVG Export Plug-In . SVG Version: 6.00 Build 0)  -->
<svg version="1.1" id="cut" xmlns="http://www.w3.org/2000/svg" xmlns:xlink="http://www.w3.org/1999/xlink" x="0px" y="0px"
	 viewBox="0 0 703.34 279.7" style="enable-background:new 0 0 703.34 279.7;" xml:space="preserve">
<style type="text/css">
	.st0{fill:none;stroke:#000000;stroke-width:0.7087;stroke-miterlimit:10;}
</style>
<path class="st0" d="M702.95,171.36L675.64,15.75c-0.22-1.34-1.41-2.36-2.81-2.36l-189.63-0.15l0,0L410.61,0.39
	c-0.15-0.02-0.29-0.04-0.44-0.04c-1.4,0-2.57,1.01-2.8,2.35l-9.01,50.42l-5.77,1.01l-94.26-16.71l-2.77-6.22l-102.6-18.17
	l-0.03-0.01l-162.2-0.13c-1.43,0-2.6,1.05-2.8,2.43L0.39,170.8c0,0-0.04,0.32-0.04,0.48c0,1.4,1.02,2.56,2.35,2.79l0,0l192.91,34.17
	l27.71,60.24c0.38,0.81,1.13,1.4,2.03,1.57l51.75,9.17l148.95,0.12l51.72-9.08c0.95-0.16,1.74-0.81,2.11-1.67l27.77-60.11
	l192.96-33.87c1.34-0.22,2.36-1.39,2.36-2.79C702.99,171.67,702.95,171.36,702.95,171.36z M685.64,114.99l-38.81,6.81l-6.81-38.81
	l38.81-6.81L685.64,114.99z M669.49,22.99l6.81,38.81l-38.81,6.81l-6.81-38.81L669.49,22.99z M628.81,58.24
	c1.72,0,3.12,1.4,3.12,3.12c0,1.72-1.4,3.12-3.12,3.12c-1.72,0-3.12-1.4-3.12-3.12C625.69,59.64,627.08,58.24,628.81,58.24z
	 M614.59,22.56l6.81,38.81l-38.81,6.81l-6.81-38.81L614.59,22.56z M559.69,22.12l6.81,38.81l-38.81,6.81l-6.81-38.81L559.69,22.12z
	 M504.79,21.69l6.81,38.81l-38.81,6.81l-6.81-38.81L504.79,21.69z M469.46,132.79l-38.81,6.81l-6.81-38.81l38.81-6.81L469.46,132.79
	z M427.33,205.08l-38.81,6.81l-6.81-38.81l38.81-6.81L427.33,205.08z M460.13,79.6l-38.81,6.81l-6.81-38.81l38.81-6.81L460.13,79.6z
	 M414.73,6.6c1.72,0,3.12,1.4,3.12,3.12c0,1.72-1.4,3.12-3.12,3.12c-1.72,0-3.12-1.4-3.12-3.12C411.61,7.99,413,6.6,414.73,6.6z
	 M414.41,86.17c1.72,0,3.12,1.4,3.12,3.12c0,1.72-1.4,3.12-3.12,3.12c-1.72,0-3.12-1.4-3.12-3.12
	C411.3,87.56,412.69,86.17,414.41,86.17z M411.18,113.09l6.81,38.81l-38.81,6.81l-6.81-38.81L411.18,113.09z M401.84,59.9
	l6.81,38.81l-38.81,6.81l-6.81-38.81L401.84,59.9z M354.74,208.35c0,1.72-1.4,3.12-3.12,3.12c-1.72,0-3.12-1.4-3.12-3.12
	c0-1.72,1.4-3.12,3.12-3.12C353.34,205.23,354.74,206.62,354.74,208.35z M340.15,47.49c1.72,0,3.12,1.4,3.12,3.12
	c0,1.72-1.4,3.12-3.12,3.12c-1.72,0-3.12-1.4-3.12-3.12C337.03,48.88,338.42,47.48,340.15,47.49z M308.27,41.79
	c1.72,0,3.12,1.4,3.12,3.12c0,1.72-1.4,3.12-3.12,3.12c-1.72,0-3.12-1.4-3.12-3.12C305.15,43.19,306.55,41.79,308.27,41.79z
	 M301.66,59.82l38.8,6.87l-6.87,38.8l-38.8-6.87L301.66,59.82z M331.03,119.87l-6.87,38.8l-38.8-6.87l6.87-38.8L331.03,119.87z
	 M321.62,173.04l-6.87,38.8l-38.8-6.87l6.87-38.8L321.62,173.04z M292.17,89.19c0,1.72-1.4,3.12-3.12,3.12
	c-1.72,0-3.12-1.4-3.12-3.12c0-1.72,1.4-3.12,3.12-3.12C290.77,86.07,292.17,87.46,292.17,89.19z M250.21,40.63l38.8,6.87
	l-6.87,38.8l-38.8-6.87L250.21,40.63z M279.59,100.68l-6.87,38.8l-38.8-6.87l6.87-38.8L279.59,100.68z M198.76,21.44l38.8,6.87
	l-6.87,38.8l-38.8-6.87L198.76,21.44z M143.87,21.8l38.8,6.87l-6.87,38.8L137,60.6L143.87,21.8z M88.97,22.15l38.8,6.87l-6.87,38.8
	l-38.8-6.87L88.97,22.15z M77.81,60.94c0,1.72-1.4,3.12-3.12,3.12c-1.72,0-3.12-1.4-3.12-3.12c0-1.72,1.4-3.12,3.12-3.12
	C76.42,57.82,77.81,59.21,77.81,60.94z M34.06,22.5l38.8,6.87l-6.87,38.8l-38.8-6.87L34.06,22.5z M24.64,75.67l38.8,6.87l-6.87,38.8
	l-38.8-6.87L24.64,75.67z M8.35,167.64l6.87-38.8l38.8,6.87l-6.87,38.8L8.35,167.64z M55.17,174.22c-1.72,0-3.12-1.4-3.12-3.12
	c0-1.72,1.4-3.12,3.12-3.12c1.72,0,3.12,1.4,3.12,3.12S56.89,174.22,55.17,174.22z M102.06,174.16l-38.8-6.87l6.87-38.8l38.8,6.87
	L102.06,174.16z M72.68,114.12l6.87-38.8l38.8,6.87l-6.87,38.8L72.68,114.12z M156.96,173.81l-38.8-6.87l6.87-38.8l38.8,6.87
	L156.96,173.81z M127.58,113.77l6.87-38.8l38.8,6.87l-6.87,38.8L127.58,113.77z M171.93,113.49c0-1.72,1.4-3.12,3.12-3.12
	s3.12,1.4,3.12,3.12c0,1.72-1.4,3.12-3.12,3.12S171.92,115.22,171.93,113.49z M173.06,166.59l6.87-38.8l38.8,6.87l-6.87,38.8
	L173.06,166.59z M215.97,211.36c-1.72,0-3.12-1.4-3.12-3.12c0-1.72,1.4-3.12,3.12-3.12c1.72,0,3.12,1.4,3.12,3.12
	C219.09,209.96,217.69,211.36,215.97,211.36z M221.27,120.29l-38.8-6.87l6.87-38.8l38.8,6.87L221.27,120.29z M224.5,185.78
	l6.87-38.8l38.8,6.87l-6.87,38.8L224.5,185.78z M271.19,270.75l-38.8-6.87l6.87-38.8l38.8,6.87L271.19,270.75z M397.8,253.72
	l-2.32,0l-0.01,17.65l-5.71,0l0,2.76l-9.29-0.01l0-2.76l-4.86,0l0.01-12.58l-4.29,0L371.31,272l-39.42-0.03l0.01-13.23l-4.29,0
	l-0.01,12.58l-4.86,0l0,2.76l-10.14-0.01l0-2.76l-4.86,0l0.01-17.65l-2.32,0l0.01-7.89l2.32,0l0.02-20.6l19.86,0.02l-0.02,20.6
	l4.29,0l0.01-13.23l39.42,0.03l-0.01,13.23l4.29,0l0.02-20.6l19.86,0.02l-0.02,20.6l2.32,0L397.8,253.72z M431.98,270.87
	l-6.81-38.81l38.81-6.81l6.81,38.81L431.98,270.87z M439.99,192.79l-6.81-38.81l38.81-6.81l6.81,38.81L439.99,192.79z M475.31,81.69
	l38.81-6.81l6.81,38.81l-38.81,6.81L475.31,81.69z M487.3,211.57c-1.72,0-3.12-1.4-3.12-3.12s1.4-3.12,3.12-3.12
	c1.72,0,3.12,1.4,3.12,3.12S489.02,211.57,487.3,211.57z M491.46,173.68l-6.81-38.81l38.81-6.81l6.81,38.81L491.46,173.68z
	 M528.36,116.89c-1.72,0-3.12-1.4-3.12-3.12c0-1.72,1.4-3.12,3.12-3.12c1.72,0,3.12,1.4,3.12,3.12
	C531.48,115.49,530.08,116.89,528.36,116.89z M530.21,82.12l38.81-6.81l6.81,38.81l-38.81,6.81L530.21,82.12z M546.36,174.11
	l-6.81-38.81l38.81-6.81l6.81,38.81L546.36,174.11z M585.12,82.56l38.81-6.81l6.81,38.81l-38.81,6.81L585.12,82.56z M601.26,174.55
	l-6.81-38.81l38.81-6.81l6.81,38.81L601.26,174.55z M648.16,174.68c-1.72,0-3.12-1.4-3.12-3.12s1.4-3.12,3.12-3.12
	c1.72,0,3.12,1.4,3.12,3.12S649.88,174.68,648.16,174.68z M656.17,174.99l-6.81-38.81l38.81-6.81l6.81,38.81L656.17,174.99z"/>
</svg>
