G04 #@! TF.GenerationSoftware,KiCad,Pcbnew,(5.1.6-0-10_14)*
G04 #@! TF.CreationDate,2020-10-19T11:14:55+09:00*
G04 #@! TF.ProjectId,reviung34-split-L-TOP,72657669-756e-4673-9334-2d73706c6974,2.0*
G04 #@! TF.SameCoordinates,PX2faf080PY2faf080*
G04 #@! TF.FileFunction,Soldermask,Bot*
G04 #@! TF.FilePolarity,Negative*
%FSLAX46Y46*%
G04 Gerber Fmt 4.6, Leading zero omitted, Abs format (unit mm)*
G04 Created by KiCad (PCBNEW (5.1.6-0-10_14)) date 2020-10-19 11:14:55*
%MOMM*%
%LPD*%
G01*
G04 APERTURE LIST*
%ADD10C,0.100000*%
G04 APERTURE END LIST*
D10*
G36*
X181324549Y-76301116D02*
G01*
X181435734Y-76323232D01*
X181645203Y-76409997D01*
X181833720Y-76535960D01*
X181994040Y-76696280D01*
X182120003Y-76884797D01*
X182206768Y-77094266D01*
X182251000Y-77316636D01*
X182251000Y-77543364D01*
X182206768Y-77765734D01*
X182120003Y-77975203D01*
X181994040Y-78163720D01*
X181833720Y-78324040D01*
X181645203Y-78450003D01*
X181435734Y-78536768D01*
X181324549Y-78558884D01*
X181213365Y-78581000D01*
X180986635Y-78581000D01*
X180875451Y-78558884D01*
X180764266Y-78536768D01*
X180554797Y-78450003D01*
X180366280Y-78324040D01*
X180205960Y-78163720D01*
X180079997Y-77975203D01*
X179993232Y-77765734D01*
X179949000Y-77543364D01*
X179949000Y-77316636D01*
X179993232Y-77094266D01*
X180079997Y-76884797D01*
X180205960Y-76696280D01*
X180366280Y-76535960D01*
X180554797Y-76409997D01*
X180764266Y-76323232D01*
X180875451Y-76301116D01*
X180986635Y-76279000D01*
X181213365Y-76279000D01*
X181324549Y-76301116D01*
G37*
G36*
X124174549Y-76301116D02*
G01*
X124285734Y-76323232D01*
X124495203Y-76409997D01*
X124683720Y-76535960D01*
X124844040Y-76696280D01*
X124970003Y-76884797D01*
X125056768Y-77094266D01*
X125101000Y-77316636D01*
X125101000Y-77543364D01*
X125056768Y-77765734D01*
X124970003Y-77975203D01*
X124844040Y-78163720D01*
X124683720Y-78324040D01*
X124495203Y-78450003D01*
X124285734Y-78536768D01*
X124174549Y-78558884D01*
X124063365Y-78581000D01*
X123836635Y-78581000D01*
X123725451Y-78558884D01*
X123614266Y-78536768D01*
X123404797Y-78450003D01*
X123216280Y-78324040D01*
X123055960Y-78163720D01*
X122929997Y-77975203D01*
X122843232Y-77765734D01*
X122799000Y-77543364D01*
X122799000Y-77316636D01*
X122843232Y-77094266D01*
X122929997Y-76884797D01*
X123055960Y-76696280D01*
X123216280Y-76535960D01*
X123404797Y-76409997D01*
X123614266Y-76323232D01*
X123725451Y-76301116D01*
X123836635Y-76279000D01*
X124063365Y-76279000D01*
X124174549Y-76301116D01*
G37*
G36*
X78694549Y-76301116D02*
G01*
X78805734Y-76323232D01*
X79015203Y-76409997D01*
X79203720Y-76535960D01*
X79364040Y-76696280D01*
X79490003Y-76884797D01*
X79576768Y-77094266D01*
X79621000Y-77316636D01*
X79621000Y-77543364D01*
X79576768Y-77765734D01*
X79490003Y-77975203D01*
X79364040Y-78163720D01*
X79203720Y-78324040D01*
X79015203Y-78450003D01*
X78805734Y-78536768D01*
X78694549Y-78558884D01*
X78583365Y-78581000D01*
X78356635Y-78581000D01*
X78245451Y-78558884D01*
X78134266Y-78536768D01*
X77924797Y-78450003D01*
X77736280Y-78324040D01*
X77575960Y-78163720D01*
X77449997Y-77975203D01*
X77363232Y-77765734D01*
X77319000Y-77543364D01*
X77319000Y-77316636D01*
X77363232Y-77094266D01*
X77449997Y-76884797D01*
X77575960Y-76696280D01*
X77736280Y-76535960D01*
X77924797Y-76409997D01*
X78134266Y-76323232D01*
X78245451Y-76301116D01*
X78356635Y-76279000D01*
X78583365Y-76279000D01*
X78694549Y-76301116D01*
G37*
G36*
X21544549Y-76301116D02*
G01*
X21655734Y-76323232D01*
X21865203Y-76409997D01*
X22053720Y-76535960D01*
X22214040Y-76696280D01*
X22340003Y-76884797D01*
X22426768Y-77094266D01*
X22471000Y-77316636D01*
X22471000Y-77543364D01*
X22426768Y-77765734D01*
X22340003Y-77975203D01*
X22214040Y-78163720D01*
X22053720Y-78324040D01*
X21865203Y-78450003D01*
X21655734Y-78536768D01*
X21544549Y-78558884D01*
X21433365Y-78581000D01*
X21206635Y-78581000D01*
X21095451Y-78558884D01*
X20984266Y-78536768D01*
X20774797Y-78450003D01*
X20586280Y-78324040D01*
X20425960Y-78163720D01*
X20299997Y-77975203D01*
X20213232Y-77765734D01*
X20169000Y-77543364D01*
X20169000Y-77316636D01*
X20213232Y-77094266D01*
X20299997Y-76884797D01*
X20425960Y-76696280D01*
X20586280Y-76535960D01*
X20774797Y-76409997D01*
X20984266Y-76323232D01*
X21095451Y-76301116D01*
X21206635Y-76279000D01*
X21433365Y-76279000D01*
X21544549Y-76301116D01*
G37*
G36*
X102182383Y-66292489D02*
G01*
X102182386Y-66292490D01*
X102182385Y-66292490D01*
X102246258Y-66318946D01*
X102303748Y-66357360D01*
X102352640Y-66406252D01*
X102391054Y-66463742D01*
X102412624Y-66515818D01*
X102417511Y-66527617D01*
X102431000Y-66595430D01*
X102431000Y-66664570D01*
X102417511Y-66732383D01*
X102417510Y-66732385D01*
X102391054Y-66796258D01*
X102352640Y-66853748D01*
X102303745Y-66902643D01*
X102249980Y-66938568D01*
X102231038Y-66954113D01*
X102215493Y-66973055D01*
X102203942Y-66994666D01*
X102196829Y-67018115D01*
X102194427Y-67042501D01*
X102196829Y-67066887D01*
X102203942Y-67090336D01*
X102215494Y-67111946D01*
X102231039Y-67130888D01*
X102249980Y-67146432D01*
X102303745Y-67182357D01*
X102352640Y-67231252D01*
X102391054Y-67288742D01*
X102412624Y-67340818D01*
X102417511Y-67352617D01*
X102431000Y-67420430D01*
X102431000Y-67489570D01*
X102417511Y-67557383D01*
X102417510Y-67557385D01*
X102391054Y-67621258D01*
X102352640Y-67678748D01*
X102303745Y-67727643D01*
X102249980Y-67763568D01*
X102231038Y-67779113D01*
X102215493Y-67798055D01*
X102203942Y-67819666D01*
X102196829Y-67843115D01*
X102194427Y-67867501D01*
X102196829Y-67891887D01*
X102203942Y-67915336D01*
X102215494Y-67936946D01*
X102231039Y-67955888D01*
X102249980Y-67971432D01*
X102303745Y-68007357D01*
X102352640Y-68056252D01*
X102391054Y-68113742D01*
X102412624Y-68165818D01*
X102417511Y-68177617D01*
X102431000Y-68245430D01*
X102431000Y-68314570D01*
X102417511Y-68382383D01*
X102417510Y-68382385D01*
X102391054Y-68446258D01*
X102352640Y-68503748D01*
X102303745Y-68552643D01*
X102249980Y-68588568D01*
X102231038Y-68604113D01*
X102215493Y-68623055D01*
X102203942Y-68644666D01*
X102196829Y-68668115D01*
X102194427Y-68692501D01*
X102196829Y-68716887D01*
X102203942Y-68740336D01*
X102215494Y-68761946D01*
X102231039Y-68780888D01*
X102249980Y-68796432D01*
X102303745Y-68832357D01*
X102352640Y-68881252D01*
X102391054Y-68938742D01*
X102412624Y-68990818D01*
X102417511Y-69002617D01*
X102431000Y-69070430D01*
X102431000Y-69139570D01*
X102417511Y-69207383D01*
X102417510Y-69207385D01*
X102391054Y-69271258D01*
X102352640Y-69328748D01*
X102303745Y-69377643D01*
X102249980Y-69413568D01*
X102231038Y-69429113D01*
X102215493Y-69448055D01*
X102203942Y-69469666D01*
X102196829Y-69493115D01*
X102194427Y-69517501D01*
X102196829Y-69541887D01*
X102203942Y-69565336D01*
X102215494Y-69586946D01*
X102231039Y-69605888D01*
X102249980Y-69621432D01*
X102303745Y-69657357D01*
X102352640Y-69706252D01*
X102391054Y-69763742D01*
X102412624Y-69815818D01*
X102417511Y-69827617D01*
X102431000Y-69895430D01*
X102431000Y-69964570D01*
X102417511Y-70032383D01*
X102417510Y-70032385D01*
X102391054Y-70096258D01*
X102352640Y-70153748D01*
X102303745Y-70202643D01*
X102249980Y-70238568D01*
X102231038Y-70254113D01*
X102215493Y-70273055D01*
X102203942Y-70294666D01*
X102196829Y-70318115D01*
X102194427Y-70342501D01*
X102196829Y-70366887D01*
X102203942Y-70390336D01*
X102215494Y-70411946D01*
X102231039Y-70430888D01*
X102249980Y-70446432D01*
X102303745Y-70482357D01*
X102352640Y-70531252D01*
X102391054Y-70588742D01*
X102412624Y-70640818D01*
X102417511Y-70652617D01*
X102431000Y-70720430D01*
X102431000Y-70789570D01*
X102417511Y-70857383D01*
X102417510Y-70857385D01*
X102391054Y-70921258D01*
X102352640Y-70978748D01*
X102303745Y-71027643D01*
X102249980Y-71063568D01*
X102231038Y-71079113D01*
X102215493Y-71098055D01*
X102203942Y-71119666D01*
X102196829Y-71143115D01*
X102194427Y-71167501D01*
X102196829Y-71191887D01*
X102203942Y-71215336D01*
X102215494Y-71236946D01*
X102231039Y-71255888D01*
X102249980Y-71271432D01*
X102303745Y-71307357D01*
X102352640Y-71356252D01*
X102391054Y-71413742D01*
X102412624Y-71465818D01*
X102417511Y-71477617D01*
X102431000Y-71545430D01*
X102431000Y-71614570D01*
X102417511Y-71682383D01*
X102417510Y-71682385D01*
X102391054Y-71746258D01*
X102352640Y-71803748D01*
X102303745Y-71852643D01*
X102249980Y-71888568D01*
X102231038Y-71904113D01*
X102215493Y-71923055D01*
X102203942Y-71944666D01*
X102196829Y-71968115D01*
X102194427Y-71992501D01*
X102196829Y-72016887D01*
X102203942Y-72040336D01*
X102215494Y-72061946D01*
X102231039Y-72080888D01*
X102249980Y-72096432D01*
X102303745Y-72132357D01*
X102352640Y-72181252D01*
X102391054Y-72238742D01*
X102412624Y-72290818D01*
X102417511Y-72302617D01*
X102431000Y-72370430D01*
X102431000Y-72439570D01*
X102417511Y-72507383D01*
X102417510Y-72507385D01*
X102391054Y-72571258D01*
X102352640Y-72628748D01*
X102303745Y-72677643D01*
X102244980Y-72716909D01*
X102226038Y-72732454D01*
X102210493Y-72751396D01*
X102198942Y-72773007D01*
X102191829Y-72796456D01*
X102189427Y-72820842D01*
X102191829Y-72845228D01*
X102198942Y-72868677D01*
X102210494Y-72890287D01*
X102226039Y-72909229D01*
X102244980Y-72924774D01*
X102293748Y-72957360D01*
X102342640Y-73006252D01*
X102381054Y-73063742D01*
X102402624Y-73115818D01*
X102407511Y-73127617D01*
X102421000Y-73195430D01*
X102421000Y-73264570D01*
X102407511Y-73332383D01*
X102407510Y-73332385D01*
X102381054Y-73396258D01*
X102342640Y-73453748D01*
X102293748Y-73502640D01*
X102236258Y-73541054D01*
X102184182Y-73562624D01*
X102172383Y-73567511D01*
X102104570Y-73581000D01*
X102035430Y-73581000D01*
X101967617Y-73567511D01*
X101955818Y-73562624D01*
X101903742Y-73541054D01*
X101846252Y-73502640D01*
X101797360Y-73453748D01*
X101758946Y-73396258D01*
X101732490Y-73332385D01*
X101732489Y-73332383D01*
X101719000Y-73264570D01*
X101719000Y-73195430D01*
X101732489Y-73127617D01*
X101737376Y-73115818D01*
X101758946Y-73063742D01*
X101797360Y-73006252D01*
X101846255Y-72957357D01*
X101905020Y-72918091D01*
X101923962Y-72902546D01*
X101939507Y-72883604D01*
X101951058Y-72861993D01*
X101958171Y-72838544D01*
X101960573Y-72814158D01*
X101958171Y-72789772D01*
X101951058Y-72766323D01*
X101939506Y-72744713D01*
X101923961Y-72725771D01*
X101905020Y-72710226D01*
X101856252Y-72677640D01*
X101807360Y-72628748D01*
X101768946Y-72571258D01*
X101742490Y-72507385D01*
X101742489Y-72507383D01*
X101729000Y-72439570D01*
X101729000Y-72370430D01*
X101742489Y-72302617D01*
X101747376Y-72290818D01*
X101768946Y-72238742D01*
X101807360Y-72181252D01*
X101856255Y-72132357D01*
X101910020Y-72096432D01*
X101928962Y-72080887D01*
X101944507Y-72061945D01*
X101956058Y-72040334D01*
X101963171Y-72016885D01*
X101965573Y-71992499D01*
X101963171Y-71968113D01*
X101956058Y-71944664D01*
X101944506Y-71923054D01*
X101928961Y-71904112D01*
X101910020Y-71888568D01*
X101856255Y-71852643D01*
X101807360Y-71803748D01*
X101768946Y-71746258D01*
X101742490Y-71682385D01*
X101742489Y-71682383D01*
X101729000Y-71614570D01*
X101729000Y-71545430D01*
X101742489Y-71477617D01*
X101747376Y-71465818D01*
X101768946Y-71413742D01*
X101807360Y-71356252D01*
X101856255Y-71307357D01*
X101910020Y-71271432D01*
X101928962Y-71255887D01*
X101944507Y-71236945D01*
X101956058Y-71215334D01*
X101963171Y-71191885D01*
X101965573Y-71167499D01*
X101963171Y-71143113D01*
X101956058Y-71119664D01*
X101944506Y-71098054D01*
X101928961Y-71079112D01*
X101910020Y-71063568D01*
X101856255Y-71027643D01*
X101807360Y-70978748D01*
X101768946Y-70921258D01*
X101742490Y-70857385D01*
X101742489Y-70857383D01*
X101729000Y-70789570D01*
X101729000Y-70720430D01*
X101742489Y-70652617D01*
X101747376Y-70640818D01*
X101768946Y-70588742D01*
X101807360Y-70531252D01*
X101856255Y-70482357D01*
X101910020Y-70446432D01*
X101928962Y-70430887D01*
X101944507Y-70411945D01*
X101956058Y-70390334D01*
X101963171Y-70366885D01*
X101965573Y-70342499D01*
X101963171Y-70318113D01*
X101956058Y-70294664D01*
X101944506Y-70273054D01*
X101928961Y-70254112D01*
X101910020Y-70238568D01*
X101856255Y-70202643D01*
X101807360Y-70153748D01*
X101768946Y-70096258D01*
X101742490Y-70032385D01*
X101742489Y-70032383D01*
X101729000Y-69964570D01*
X101729000Y-69895430D01*
X101742489Y-69827617D01*
X101747376Y-69815818D01*
X101768946Y-69763742D01*
X101807360Y-69706252D01*
X101856255Y-69657357D01*
X101910020Y-69621432D01*
X101928962Y-69605887D01*
X101944507Y-69586945D01*
X101956058Y-69565334D01*
X101963171Y-69541885D01*
X101965573Y-69517499D01*
X101963171Y-69493113D01*
X101956058Y-69469664D01*
X101944506Y-69448054D01*
X101928961Y-69429112D01*
X101910020Y-69413568D01*
X101856255Y-69377643D01*
X101807360Y-69328748D01*
X101768946Y-69271258D01*
X101742490Y-69207385D01*
X101742489Y-69207383D01*
X101729000Y-69139570D01*
X101729000Y-69070430D01*
X101742489Y-69002617D01*
X101747376Y-68990818D01*
X101768946Y-68938742D01*
X101807360Y-68881252D01*
X101856255Y-68832357D01*
X101910020Y-68796432D01*
X101928962Y-68780887D01*
X101944507Y-68761945D01*
X101956058Y-68740334D01*
X101963171Y-68716885D01*
X101965573Y-68692499D01*
X101963171Y-68668113D01*
X101956058Y-68644664D01*
X101944506Y-68623054D01*
X101928961Y-68604112D01*
X101910020Y-68588568D01*
X101856255Y-68552643D01*
X101807360Y-68503748D01*
X101768946Y-68446258D01*
X101742490Y-68382385D01*
X101742489Y-68382383D01*
X101729000Y-68314570D01*
X101729000Y-68245430D01*
X101742489Y-68177617D01*
X101747376Y-68165818D01*
X101768946Y-68113742D01*
X101807360Y-68056252D01*
X101856255Y-68007357D01*
X101910020Y-67971432D01*
X101928962Y-67955887D01*
X101944507Y-67936945D01*
X101956058Y-67915334D01*
X101963171Y-67891885D01*
X101965573Y-67867499D01*
X101963171Y-67843113D01*
X101956058Y-67819664D01*
X101944506Y-67798054D01*
X101928961Y-67779112D01*
X101910020Y-67763568D01*
X101856255Y-67727643D01*
X101807360Y-67678748D01*
X101768946Y-67621258D01*
X101742490Y-67557385D01*
X101742489Y-67557383D01*
X101729000Y-67489570D01*
X101729000Y-67420430D01*
X101742489Y-67352617D01*
X101747376Y-67340818D01*
X101768946Y-67288742D01*
X101807360Y-67231252D01*
X101856255Y-67182357D01*
X101910020Y-67146432D01*
X101928962Y-67130887D01*
X101944507Y-67111945D01*
X101956058Y-67090334D01*
X101963171Y-67066885D01*
X101965573Y-67042499D01*
X101963171Y-67018113D01*
X101956058Y-66994664D01*
X101944506Y-66973054D01*
X101928961Y-66954112D01*
X101910020Y-66938568D01*
X101856255Y-66902643D01*
X101807360Y-66853748D01*
X101768946Y-66796258D01*
X101742490Y-66732385D01*
X101742489Y-66732383D01*
X101729000Y-66664570D01*
X101729000Y-66595430D01*
X101742489Y-66527617D01*
X101747376Y-66515818D01*
X101768946Y-66463742D01*
X101807360Y-66406252D01*
X101856252Y-66357360D01*
X101913742Y-66318946D01*
X101977615Y-66292490D01*
X101977614Y-66292490D01*
X101977617Y-66292489D01*
X102045430Y-66279000D01*
X102114570Y-66279000D01*
X102182383Y-66292489D01*
G37*
G36*
X100452383Y-66282489D02*
G01*
X100452386Y-66282490D01*
X100452385Y-66282490D01*
X100516258Y-66308946D01*
X100573748Y-66347360D01*
X100622640Y-66396252D01*
X100661054Y-66453742D01*
X100682624Y-66505818D01*
X100687511Y-66517617D01*
X100701000Y-66585430D01*
X100701000Y-66654570D01*
X100687511Y-66722383D01*
X100687510Y-66722385D01*
X100661054Y-66786258D01*
X100622640Y-66843748D01*
X100573745Y-66892643D01*
X100514980Y-66931909D01*
X100496038Y-66947454D01*
X100480493Y-66966396D01*
X100468942Y-66988007D01*
X100461829Y-67011456D01*
X100459427Y-67035842D01*
X100461829Y-67060228D01*
X100468942Y-67083677D01*
X100480494Y-67105287D01*
X100496039Y-67124229D01*
X100514980Y-67139774D01*
X100563748Y-67172360D01*
X100612640Y-67221252D01*
X100651054Y-67278742D01*
X100672624Y-67330818D01*
X100677511Y-67342617D01*
X100691000Y-67410430D01*
X100691000Y-67479570D01*
X100677511Y-67547383D01*
X100677510Y-67547385D01*
X100651054Y-67611258D01*
X100612640Y-67668748D01*
X100563745Y-67717643D01*
X100509980Y-67753568D01*
X100491038Y-67769113D01*
X100475493Y-67788055D01*
X100463942Y-67809666D01*
X100456829Y-67833115D01*
X100454427Y-67857501D01*
X100456829Y-67881887D01*
X100463942Y-67905336D01*
X100475494Y-67926946D01*
X100491039Y-67945888D01*
X100509980Y-67961432D01*
X100563745Y-67997357D01*
X100612640Y-68046252D01*
X100651054Y-68103742D01*
X100672624Y-68155818D01*
X100677511Y-68167617D01*
X100691000Y-68235430D01*
X100691000Y-68304570D01*
X100677511Y-68372383D01*
X100677510Y-68372385D01*
X100651054Y-68436258D01*
X100612640Y-68493748D01*
X100563745Y-68542643D01*
X100509980Y-68578568D01*
X100491038Y-68594113D01*
X100475493Y-68613055D01*
X100463942Y-68634666D01*
X100456829Y-68658115D01*
X100454427Y-68682501D01*
X100456829Y-68706887D01*
X100463942Y-68730336D01*
X100475494Y-68751946D01*
X100491039Y-68770888D01*
X100509980Y-68786432D01*
X100563745Y-68822357D01*
X100612640Y-68871252D01*
X100651054Y-68928742D01*
X100672624Y-68980818D01*
X100677511Y-68992617D01*
X100691000Y-69060430D01*
X100691000Y-69129570D01*
X100677511Y-69197383D01*
X100677510Y-69197385D01*
X100651054Y-69261258D01*
X100612640Y-69318748D01*
X100563745Y-69367643D01*
X100509980Y-69403568D01*
X100491038Y-69419113D01*
X100475493Y-69438055D01*
X100463942Y-69459666D01*
X100456829Y-69483115D01*
X100454427Y-69507501D01*
X100456829Y-69531887D01*
X100463942Y-69555336D01*
X100475494Y-69576946D01*
X100491039Y-69595888D01*
X100509980Y-69611432D01*
X100563745Y-69647357D01*
X100612640Y-69696252D01*
X100651054Y-69753742D01*
X100672624Y-69805818D01*
X100677511Y-69817617D01*
X100691000Y-69885430D01*
X100691000Y-69954570D01*
X100677511Y-70022383D01*
X100677510Y-70022385D01*
X100651054Y-70086258D01*
X100612640Y-70143748D01*
X100563745Y-70192643D01*
X100509980Y-70228568D01*
X100491038Y-70244113D01*
X100475493Y-70263055D01*
X100463942Y-70284666D01*
X100456829Y-70308115D01*
X100454427Y-70332501D01*
X100456829Y-70356887D01*
X100463942Y-70380336D01*
X100475494Y-70401946D01*
X100491039Y-70420888D01*
X100509980Y-70436432D01*
X100563745Y-70472357D01*
X100612640Y-70521252D01*
X100651054Y-70578742D01*
X100672624Y-70630818D01*
X100677511Y-70642617D01*
X100691000Y-70710430D01*
X100691000Y-70779570D01*
X100677511Y-70847383D01*
X100677510Y-70847385D01*
X100651054Y-70911258D01*
X100612640Y-70968748D01*
X100563745Y-71017643D01*
X100509980Y-71053568D01*
X100491038Y-71069113D01*
X100475493Y-71088055D01*
X100463942Y-71109666D01*
X100456829Y-71133115D01*
X100454427Y-71157501D01*
X100456829Y-71181887D01*
X100463942Y-71205336D01*
X100475494Y-71226946D01*
X100491039Y-71245888D01*
X100509980Y-71261432D01*
X100563745Y-71297357D01*
X100612640Y-71346252D01*
X100651054Y-71403742D01*
X100672624Y-71455818D01*
X100677511Y-71467617D01*
X100691000Y-71535430D01*
X100691000Y-71604570D01*
X100677511Y-71672383D01*
X100677510Y-71672385D01*
X100651054Y-71736258D01*
X100612640Y-71793748D01*
X100563745Y-71842643D01*
X100509980Y-71878568D01*
X100491038Y-71894113D01*
X100475493Y-71913055D01*
X100463942Y-71934666D01*
X100456829Y-71958115D01*
X100454427Y-71982501D01*
X100456829Y-72006887D01*
X100463942Y-72030336D01*
X100475494Y-72051946D01*
X100491039Y-72070888D01*
X100509980Y-72086432D01*
X100563745Y-72122357D01*
X100612640Y-72171252D01*
X100651054Y-72228742D01*
X100672624Y-72280818D01*
X100677511Y-72292617D01*
X100691000Y-72360430D01*
X100691000Y-72429570D01*
X100677511Y-72497383D01*
X100677510Y-72497385D01*
X100651054Y-72561258D01*
X100612640Y-72618748D01*
X100563745Y-72667643D01*
X100509980Y-72703568D01*
X100491038Y-72719113D01*
X100475493Y-72738055D01*
X100463942Y-72759666D01*
X100456829Y-72783115D01*
X100454427Y-72807501D01*
X100456829Y-72831887D01*
X100463942Y-72855336D01*
X100475494Y-72876946D01*
X100491039Y-72895888D01*
X100509980Y-72911432D01*
X100563745Y-72947357D01*
X100612640Y-72996252D01*
X100651054Y-73053742D01*
X100672624Y-73105818D01*
X100677511Y-73117617D01*
X100691000Y-73185430D01*
X100691000Y-73254570D01*
X100677511Y-73322383D01*
X100677510Y-73322385D01*
X100651054Y-73386258D01*
X100612640Y-73443748D01*
X100563748Y-73492640D01*
X100506258Y-73531054D01*
X100454182Y-73552624D01*
X100442383Y-73557511D01*
X100374570Y-73571000D01*
X100305430Y-73571000D01*
X100237617Y-73557511D01*
X100225818Y-73552624D01*
X100173742Y-73531054D01*
X100116252Y-73492640D01*
X100067360Y-73443748D01*
X100028946Y-73386258D01*
X100002490Y-73322385D01*
X100002489Y-73322383D01*
X99989000Y-73254570D01*
X99989000Y-73185430D01*
X100002489Y-73117617D01*
X100007376Y-73105818D01*
X100028946Y-73053742D01*
X100067360Y-72996252D01*
X100116255Y-72947357D01*
X100170020Y-72911432D01*
X100188962Y-72895887D01*
X100204507Y-72876945D01*
X100216058Y-72855334D01*
X100223171Y-72831885D01*
X100225573Y-72807499D01*
X100223171Y-72783113D01*
X100216058Y-72759664D01*
X100204506Y-72738054D01*
X100188961Y-72719112D01*
X100170020Y-72703568D01*
X100116255Y-72667643D01*
X100067360Y-72618748D01*
X100028946Y-72561258D01*
X100002490Y-72497385D01*
X100002489Y-72497383D01*
X99989000Y-72429570D01*
X99989000Y-72360430D01*
X100002489Y-72292617D01*
X100007376Y-72280818D01*
X100028946Y-72228742D01*
X100067360Y-72171252D01*
X100116255Y-72122357D01*
X100170020Y-72086432D01*
X100188962Y-72070887D01*
X100204507Y-72051945D01*
X100216058Y-72030334D01*
X100223171Y-72006885D01*
X100225573Y-71982499D01*
X100223171Y-71958113D01*
X100216058Y-71934664D01*
X100204506Y-71913054D01*
X100188961Y-71894112D01*
X100170020Y-71878568D01*
X100116255Y-71842643D01*
X100067360Y-71793748D01*
X100028946Y-71736258D01*
X100002490Y-71672385D01*
X100002489Y-71672383D01*
X99989000Y-71604570D01*
X99989000Y-71535430D01*
X100002489Y-71467617D01*
X100007376Y-71455818D01*
X100028946Y-71403742D01*
X100067360Y-71346252D01*
X100116255Y-71297357D01*
X100170020Y-71261432D01*
X100188962Y-71245887D01*
X100204507Y-71226945D01*
X100216058Y-71205334D01*
X100223171Y-71181885D01*
X100225573Y-71157499D01*
X100223171Y-71133113D01*
X100216058Y-71109664D01*
X100204506Y-71088054D01*
X100188961Y-71069112D01*
X100170020Y-71053568D01*
X100116255Y-71017643D01*
X100067360Y-70968748D01*
X100028946Y-70911258D01*
X100002490Y-70847385D01*
X100002489Y-70847383D01*
X99989000Y-70779570D01*
X99989000Y-70710430D01*
X100002489Y-70642617D01*
X100007376Y-70630818D01*
X100028946Y-70578742D01*
X100067360Y-70521252D01*
X100116255Y-70472357D01*
X100170020Y-70436432D01*
X100188962Y-70420887D01*
X100204507Y-70401945D01*
X100216058Y-70380334D01*
X100223171Y-70356885D01*
X100225573Y-70332499D01*
X100223171Y-70308113D01*
X100216058Y-70284664D01*
X100204506Y-70263054D01*
X100188961Y-70244112D01*
X100170020Y-70228568D01*
X100116255Y-70192643D01*
X100067360Y-70143748D01*
X100028946Y-70086258D01*
X100002490Y-70022385D01*
X100002489Y-70022383D01*
X99989000Y-69954570D01*
X99989000Y-69885430D01*
X100002489Y-69817617D01*
X100007376Y-69805818D01*
X100028946Y-69753742D01*
X100067360Y-69696252D01*
X100116255Y-69647357D01*
X100170020Y-69611432D01*
X100188962Y-69595887D01*
X100204507Y-69576945D01*
X100216058Y-69555334D01*
X100223171Y-69531885D01*
X100225573Y-69507499D01*
X100223171Y-69483113D01*
X100216058Y-69459664D01*
X100204506Y-69438054D01*
X100188961Y-69419112D01*
X100170020Y-69403568D01*
X100116255Y-69367643D01*
X100067360Y-69318748D01*
X100028946Y-69261258D01*
X100002490Y-69197385D01*
X100002489Y-69197383D01*
X99989000Y-69129570D01*
X99989000Y-69060430D01*
X100002489Y-68992617D01*
X100007376Y-68980818D01*
X100028946Y-68928742D01*
X100067360Y-68871252D01*
X100116255Y-68822357D01*
X100170020Y-68786432D01*
X100188962Y-68770887D01*
X100204507Y-68751945D01*
X100216058Y-68730334D01*
X100223171Y-68706885D01*
X100225573Y-68682499D01*
X100223171Y-68658113D01*
X100216058Y-68634664D01*
X100204506Y-68613054D01*
X100188961Y-68594112D01*
X100170020Y-68578568D01*
X100116255Y-68542643D01*
X100067360Y-68493748D01*
X100028946Y-68436258D01*
X100002490Y-68372385D01*
X100002489Y-68372383D01*
X99989000Y-68304570D01*
X99989000Y-68235430D01*
X100002489Y-68167617D01*
X100007376Y-68155818D01*
X100028946Y-68103742D01*
X100067360Y-68046252D01*
X100116255Y-67997357D01*
X100170020Y-67961432D01*
X100188962Y-67945887D01*
X100204507Y-67926945D01*
X100216058Y-67905334D01*
X100223171Y-67881885D01*
X100225573Y-67857499D01*
X100223171Y-67833113D01*
X100216058Y-67809664D01*
X100204506Y-67788054D01*
X100188961Y-67769112D01*
X100170020Y-67753568D01*
X100116255Y-67717643D01*
X100067360Y-67668748D01*
X100028946Y-67611258D01*
X100002490Y-67547385D01*
X100002489Y-67547383D01*
X99989000Y-67479570D01*
X99989000Y-67410430D01*
X100002489Y-67342617D01*
X100007376Y-67330818D01*
X100028946Y-67278742D01*
X100067360Y-67221252D01*
X100116255Y-67172357D01*
X100175020Y-67133091D01*
X100193962Y-67117546D01*
X100209507Y-67098604D01*
X100221058Y-67076993D01*
X100228171Y-67053544D01*
X100230573Y-67029158D01*
X100228171Y-67004772D01*
X100221058Y-66981323D01*
X100209506Y-66959713D01*
X100193961Y-66940771D01*
X100175020Y-66925226D01*
X100126252Y-66892640D01*
X100077360Y-66843748D01*
X100038946Y-66786258D01*
X100012490Y-66722385D01*
X100012489Y-66722383D01*
X99999000Y-66654570D01*
X99999000Y-66585430D01*
X100012489Y-66517617D01*
X100017376Y-66505818D01*
X100038946Y-66453742D01*
X100077360Y-66396252D01*
X100126252Y-66347360D01*
X100183742Y-66308946D01*
X100247615Y-66282490D01*
X100247614Y-66282490D01*
X100247617Y-66282489D01*
X100315430Y-66269000D01*
X100384570Y-66269000D01*
X100452383Y-66282489D01*
G37*
G36*
X21595880Y-39089776D02*
G01*
X21976593Y-39165504D01*
X22386249Y-39335189D01*
X22754929Y-39581534D01*
X23068466Y-39895071D01*
X23314811Y-40263751D01*
X23484496Y-40673407D01*
X23571000Y-41108296D01*
X23571000Y-41551704D01*
X23484496Y-41986593D01*
X23314811Y-42396249D01*
X23068466Y-42764929D01*
X22754929Y-43078466D01*
X22386249Y-43324811D01*
X21976593Y-43494496D01*
X21595880Y-43570224D01*
X21541705Y-43581000D01*
X21098295Y-43581000D01*
X21044120Y-43570224D01*
X20663407Y-43494496D01*
X20253751Y-43324811D01*
X19885071Y-43078466D01*
X19571534Y-42764929D01*
X19325189Y-42396249D01*
X19155504Y-41986593D01*
X19069000Y-41551704D01*
X19069000Y-41108296D01*
X19155504Y-40673407D01*
X19325189Y-40263751D01*
X19571534Y-39895071D01*
X19885071Y-39581534D01*
X20253751Y-39335189D01*
X20663407Y-39165504D01*
X21044120Y-39089776D01*
X21098295Y-39079000D01*
X21541705Y-39079000D01*
X21595880Y-39089776D01*
G37*
G36*
X181385880Y-39089776D02*
G01*
X181766593Y-39165504D01*
X182176249Y-39335189D01*
X182544929Y-39581534D01*
X182858466Y-39895071D01*
X183104811Y-40263751D01*
X183274496Y-40673407D01*
X183361000Y-41108296D01*
X183361000Y-41551704D01*
X183274496Y-41986593D01*
X183104811Y-42396249D01*
X182858466Y-42764929D01*
X182544929Y-43078466D01*
X182176249Y-43324811D01*
X181766593Y-43494496D01*
X181385880Y-43570224D01*
X181331705Y-43581000D01*
X180888295Y-43581000D01*
X180834120Y-43570224D01*
X180453407Y-43494496D01*
X180043751Y-43324811D01*
X179675071Y-43078466D01*
X179361534Y-42764929D01*
X179115189Y-42396249D01*
X178945504Y-41986593D01*
X178859000Y-41551704D01*
X178859000Y-41108296D01*
X178945504Y-40673407D01*
X179115189Y-40263751D01*
X179361534Y-39895071D01*
X179675071Y-39581534D01*
X180043751Y-39335189D01*
X180453407Y-39165504D01*
X180834120Y-39089776D01*
X180888295Y-39079000D01*
X181331705Y-39079000D01*
X181385880Y-39089776D01*
G37*
G36*
X78694549Y-40201116D02*
G01*
X78805734Y-40223232D01*
X79015203Y-40309997D01*
X79203720Y-40435960D01*
X79364040Y-40596280D01*
X79490003Y-40784797D01*
X79576768Y-40994266D01*
X79621000Y-41216636D01*
X79621000Y-41443364D01*
X79576768Y-41665734D01*
X79490003Y-41875203D01*
X79364040Y-42063720D01*
X79203720Y-42224040D01*
X79015203Y-42350003D01*
X78805734Y-42436768D01*
X78694549Y-42458884D01*
X78583365Y-42481000D01*
X78356635Y-42481000D01*
X78245451Y-42458884D01*
X78134266Y-42436768D01*
X77924797Y-42350003D01*
X77736280Y-42224040D01*
X77575960Y-42063720D01*
X77449997Y-41875203D01*
X77363232Y-41665734D01*
X77319000Y-41443364D01*
X77319000Y-41216636D01*
X77363232Y-40994266D01*
X77449997Y-40784797D01*
X77575960Y-40596280D01*
X77736280Y-40435960D01*
X77924797Y-40309997D01*
X78134266Y-40223232D01*
X78245451Y-40201116D01*
X78356635Y-40179000D01*
X78583365Y-40179000D01*
X78694549Y-40201116D01*
G37*
G36*
X124174549Y-40201116D02*
G01*
X124285734Y-40223232D01*
X124495203Y-40309997D01*
X124683720Y-40435960D01*
X124844040Y-40596280D01*
X124970003Y-40784797D01*
X125056768Y-40994266D01*
X125101000Y-41216636D01*
X125101000Y-41443364D01*
X125056768Y-41665734D01*
X124970003Y-41875203D01*
X124844040Y-42063720D01*
X124683720Y-42224040D01*
X124495203Y-42350003D01*
X124285734Y-42436768D01*
X124174549Y-42458884D01*
X124063365Y-42481000D01*
X123836635Y-42481000D01*
X123725451Y-42458884D01*
X123614266Y-42436768D01*
X123404797Y-42350003D01*
X123216280Y-42224040D01*
X123055960Y-42063720D01*
X122929997Y-41875203D01*
X122843232Y-41665734D01*
X122799000Y-41443364D01*
X122799000Y-41216636D01*
X122843232Y-40994266D01*
X122929997Y-40784797D01*
X123055960Y-40596280D01*
X123216280Y-40435960D01*
X123404797Y-40309997D01*
X123614266Y-40223232D01*
X123725451Y-40201116D01*
X123836635Y-40179000D01*
X124063365Y-40179000D01*
X124174549Y-40201116D01*
G37*
G36*
X102192383Y-28172489D02*
G01*
X102192386Y-28172490D01*
X102192385Y-28172490D01*
X102256258Y-28198946D01*
X102313748Y-28237360D01*
X102362640Y-28286252D01*
X102401054Y-28343742D01*
X102422624Y-28395818D01*
X102427511Y-28407617D01*
X102441000Y-28475430D01*
X102441000Y-28544570D01*
X102427511Y-28612383D01*
X102427510Y-28612385D01*
X102401054Y-28676258D01*
X102362640Y-28733748D01*
X102313745Y-28782643D01*
X102259980Y-28818568D01*
X102241038Y-28834113D01*
X102225493Y-28853055D01*
X102213942Y-28874666D01*
X102206829Y-28898115D01*
X102204427Y-28922501D01*
X102206829Y-28946887D01*
X102213942Y-28970336D01*
X102225494Y-28991946D01*
X102241039Y-29010888D01*
X102259980Y-29026432D01*
X102313745Y-29062357D01*
X102362640Y-29111252D01*
X102401054Y-29168742D01*
X102422624Y-29220818D01*
X102427511Y-29232617D01*
X102441000Y-29300430D01*
X102441000Y-29369570D01*
X102427511Y-29437383D01*
X102427510Y-29437385D01*
X102401054Y-29501258D01*
X102362640Y-29558748D01*
X102313745Y-29607643D01*
X102259980Y-29643568D01*
X102241038Y-29659113D01*
X102225493Y-29678055D01*
X102213942Y-29699666D01*
X102206829Y-29723115D01*
X102204427Y-29747501D01*
X102206829Y-29771887D01*
X102213942Y-29795336D01*
X102225494Y-29816946D01*
X102241039Y-29835888D01*
X102259980Y-29851432D01*
X102313745Y-29887357D01*
X102362640Y-29936252D01*
X102401054Y-29993742D01*
X102422624Y-30045818D01*
X102427511Y-30057617D01*
X102441000Y-30125430D01*
X102441000Y-30194570D01*
X102427511Y-30262383D01*
X102427510Y-30262385D01*
X102401054Y-30326258D01*
X102362640Y-30383748D01*
X102313745Y-30432643D01*
X102259980Y-30468568D01*
X102241038Y-30484113D01*
X102225493Y-30503055D01*
X102213942Y-30524666D01*
X102206829Y-30548115D01*
X102204427Y-30572501D01*
X102206829Y-30596887D01*
X102213942Y-30620336D01*
X102225494Y-30641946D01*
X102241039Y-30660888D01*
X102259980Y-30676432D01*
X102313745Y-30712357D01*
X102362640Y-30761252D01*
X102401054Y-30818742D01*
X102422624Y-30870818D01*
X102427511Y-30882617D01*
X102441000Y-30950430D01*
X102441000Y-31019570D01*
X102427511Y-31087383D01*
X102427510Y-31087385D01*
X102401054Y-31151258D01*
X102362640Y-31208748D01*
X102313745Y-31257643D01*
X102259980Y-31293568D01*
X102241038Y-31309113D01*
X102225493Y-31328055D01*
X102213942Y-31349666D01*
X102206829Y-31373115D01*
X102204427Y-31397501D01*
X102206829Y-31421887D01*
X102213942Y-31445336D01*
X102225494Y-31466946D01*
X102241039Y-31485888D01*
X102259980Y-31501432D01*
X102313745Y-31537357D01*
X102362640Y-31586252D01*
X102401054Y-31643742D01*
X102422624Y-31695818D01*
X102427511Y-31707617D01*
X102441000Y-31775430D01*
X102441000Y-31844570D01*
X102427511Y-31912383D01*
X102427510Y-31912385D01*
X102401054Y-31976258D01*
X102362640Y-32033748D01*
X102313745Y-32082643D01*
X102259980Y-32118568D01*
X102241038Y-32134113D01*
X102225493Y-32153055D01*
X102213942Y-32174666D01*
X102206829Y-32198115D01*
X102204427Y-32222501D01*
X102206829Y-32246887D01*
X102213942Y-32270336D01*
X102225494Y-32291946D01*
X102241039Y-32310888D01*
X102259980Y-32326432D01*
X102313745Y-32362357D01*
X102362640Y-32411252D01*
X102401054Y-32468742D01*
X102422624Y-32520818D01*
X102427511Y-32532617D01*
X102441000Y-32600430D01*
X102441000Y-32669570D01*
X102427511Y-32737383D01*
X102427510Y-32737385D01*
X102401054Y-32801258D01*
X102362640Y-32858748D01*
X102313745Y-32907643D01*
X102259980Y-32943568D01*
X102241038Y-32959113D01*
X102225493Y-32978055D01*
X102213942Y-32999666D01*
X102206829Y-33023115D01*
X102204427Y-33047501D01*
X102206829Y-33071887D01*
X102213942Y-33095336D01*
X102225494Y-33116946D01*
X102241039Y-33135888D01*
X102259980Y-33151432D01*
X102313745Y-33187357D01*
X102362640Y-33236252D01*
X102401054Y-33293742D01*
X102422624Y-33345818D01*
X102427511Y-33357617D01*
X102441000Y-33425430D01*
X102441000Y-33494570D01*
X102427511Y-33562383D01*
X102427510Y-33562385D01*
X102401054Y-33626258D01*
X102362640Y-33683748D01*
X102313745Y-33732643D01*
X102259980Y-33768568D01*
X102241038Y-33784113D01*
X102225493Y-33803055D01*
X102213942Y-33824666D01*
X102206829Y-33848115D01*
X102204427Y-33872501D01*
X102206829Y-33896887D01*
X102213942Y-33920336D01*
X102225494Y-33941946D01*
X102241039Y-33960888D01*
X102259980Y-33976432D01*
X102313745Y-34012357D01*
X102362640Y-34061252D01*
X102401054Y-34118742D01*
X102422624Y-34170818D01*
X102427511Y-34182617D01*
X102441000Y-34250430D01*
X102441000Y-34319570D01*
X102427511Y-34387383D01*
X102427510Y-34387385D01*
X102401054Y-34451258D01*
X102362640Y-34508748D01*
X102313745Y-34557643D01*
X102254980Y-34596909D01*
X102236038Y-34612454D01*
X102220493Y-34631396D01*
X102208942Y-34653007D01*
X102201829Y-34676456D01*
X102199427Y-34700842D01*
X102201829Y-34725228D01*
X102208942Y-34748677D01*
X102220494Y-34770287D01*
X102236039Y-34789229D01*
X102254980Y-34804774D01*
X102303748Y-34837360D01*
X102352640Y-34886252D01*
X102391054Y-34943742D01*
X102412624Y-34995818D01*
X102417511Y-35007617D01*
X102431000Y-35075430D01*
X102431000Y-35144570D01*
X102417511Y-35212383D01*
X102417510Y-35212385D01*
X102391054Y-35276258D01*
X102352640Y-35333748D01*
X102303748Y-35382640D01*
X102246258Y-35421054D01*
X102194182Y-35442624D01*
X102182383Y-35447511D01*
X102114570Y-35461000D01*
X102045430Y-35461000D01*
X101977617Y-35447511D01*
X101965818Y-35442624D01*
X101913742Y-35421054D01*
X101856252Y-35382640D01*
X101807360Y-35333748D01*
X101768946Y-35276258D01*
X101742490Y-35212385D01*
X101742489Y-35212383D01*
X101729000Y-35144570D01*
X101729000Y-35075430D01*
X101742489Y-35007617D01*
X101747376Y-34995818D01*
X101768946Y-34943742D01*
X101807360Y-34886252D01*
X101856255Y-34837357D01*
X101915020Y-34798091D01*
X101933962Y-34782546D01*
X101949507Y-34763604D01*
X101961058Y-34741993D01*
X101968171Y-34718544D01*
X101970573Y-34694158D01*
X101968171Y-34669772D01*
X101961058Y-34646323D01*
X101949506Y-34624713D01*
X101933961Y-34605771D01*
X101915020Y-34590226D01*
X101866252Y-34557640D01*
X101817360Y-34508748D01*
X101778946Y-34451258D01*
X101752490Y-34387385D01*
X101752489Y-34387383D01*
X101739000Y-34319570D01*
X101739000Y-34250430D01*
X101752489Y-34182617D01*
X101757376Y-34170818D01*
X101778946Y-34118742D01*
X101817360Y-34061252D01*
X101866255Y-34012357D01*
X101920020Y-33976432D01*
X101938962Y-33960887D01*
X101954507Y-33941945D01*
X101966058Y-33920334D01*
X101973171Y-33896885D01*
X101975573Y-33872499D01*
X101973171Y-33848113D01*
X101966058Y-33824664D01*
X101954506Y-33803054D01*
X101938961Y-33784112D01*
X101920020Y-33768568D01*
X101866255Y-33732643D01*
X101817360Y-33683748D01*
X101778946Y-33626258D01*
X101752490Y-33562385D01*
X101752489Y-33562383D01*
X101739000Y-33494570D01*
X101739000Y-33425430D01*
X101752489Y-33357617D01*
X101757376Y-33345818D01*
X101778946Y-33293742D01*
X101817360Y-33236252D01*
X101866255Y-33187357D01*
X101920020Y-33151432D01*
X101938962Y-33135887D01*
X101954507Y-33116945D01*
X101966058Y-33095334D01*
X101973171Y-33071885D01*
X101975573Y-33047499D01*
X101973171Y-33023113D01*
X101966058Y-32999664D01*
X101954506Y-32978054D01*
X101938961Y-32959112D01*
X101920020Y-32943568D01*
X101866255Y-32907643D01*
X101817360Y-32858748D01*
X101778946Y-32801258D01*
X101752490Y-32737385D01*
X101752489Y-32737383D01*
X101739000Y-32669570D01*
X101739000Y-32600430D01*
X101752489Y-32532617D01*
X101757376Y-32520818D01*
X101778946Y-32468742D01*
X101817360Y-32411252D01*
X101866255Y-32362357D01*
X101920020Y-32326432D01*
X101938962Y-32310887D01*
X101954507Y-32291945D01*
X101966058Y-32270334D01*
X101973171Y-32246885D01*
X101975573Y-32222499D01*
X101973171Y-32198113D01*
X101966058Y-32174664D01*
X101954506Y-32153054D01*
X101938961Y-32134112D01*
X101920020Y-32118568D01*
X101866255Y-32082643D01*
X101817360Y-32033748D01*
X101778946Y-31976258D01*
X101752490Y-31912385D01*
X101752489Y-31912383D01*
X101739000Y-31844570D01*
X101739000Y-31775430D01*
X101752489Y-31707617D01*
X101757376Y-31695818D01*
X101778946Y-31643742D01*
X101817360Y-31586252D01*
X101866255Y-31537357D01*
X101920020Y-31501432D01*
X101938962Y-31485887D01*
X101954507Y-31466945D01*
X101966058Y-31445334D01*
X101973171Y-31421885D01*
X101975573Y-31397499D01*
X101973171Y-31373113D01*
X101966058Y-31349664D01*
X101954506Y-31328054D01*
X101938961Y-31309112D01*
X101920020Y-31293568D01*
X101866255Y-31257643D01*
X101817360Y-31208748D01*
X101778946Y-31151258D01*
X101752490Y-31087385D01*
X101752489Y-31087383D01*
X101739000Y-31019570D01*
X101739000Y-30950430D01*
X101752489Y-30882617D01*
X101757376Y-30870818D01*
X101778946Y-30818742D01*
X101817360Y-30761252D01*
X101866255Y-30712357D01*
X101920020Y-30676432D01*
X101938962Y-30660887D01*
X101954507Y-30641945D01*
X101966058Y-30620334D01*
X101973171Y-30596885D01*
X101975573Y-30572499D01*
X101973171Y-30548113D01*
X101966058Y-30524664D01*
X101954506Y-30503054D01*
X101938961Y-30484112D01*
X101920020Y-30468568D01*
X101866255Y-30432643D01*
X101817360Y-30383748D01*
X101778946Y-30326258D01*
X101752490Y-30262385D01*
X101752489Y-30262383D01*
X101739000Y-30194570D01*
X101739000Y-30125430D01*
X101752489Y-30057617D01*
X101757376Y-30045818D01*
X101778946Y-29993742D01*
X101817360Y-29936252D01*
X101866255Y-29887357D01*
X101920020Y-29851432D01*
X101938962Y-29835887D01*
X101954507Y-29816945D01*
X101966058Y-29795334D01*
X101973171Y-29771885D01*
X101975573Y-29747499D01*
X101973171Y-29723113D01*
X101966058Y-29699664D01*
X101954506Y-29678054D01*
X101938961Y-29659112D01*
X101920020Y-29643568D01*
X101866255Y-29607643D01*
X101817360Y-29558748D01*
X101778946Y-29501258D01*
X101752490Y-29437385D01*
X101752489Y-29437383D01*
X101739000Y-29369570D01*
X101739000Y-29300430D01*
X101752489Y-29232617D01*
X101757376Y-29220818D01*
X101778946Y-29168742D01*
X101817360Y-29111252D01*
X101866255Y-29062357D01*
X101920020Y-29026432D01*
X101938962Y-29010887D01*
X101954507Y-28991945D01*
X101966058Y-28970334D01*
X101973171Y-28946885D01*
X101975573Y-28922499D01*
X101973171Y-28898113D01*
X101966058Y-28874664D01*
X101954506Y-28853054D01*
X101938961Y-28834112D01*
X101920020Y-28818568D01*
X101866255Y-28782643D01*
X101817360Y-28733748D01*
X101778946Y-28676258D01*
X101752490Y-28612385D01*
X101752489Y-28612383D01*
X101739000Y-28544570D01*
X101739000Y-28475430D01*
X101752489Y-28407617D01*
X101757376Y-28395818D01*
X101778946Y-28343742D01*
X101817360Y-28286252D01*
X101866252Y-28237360D01*
X101923742Y-28198946D01*
X101987615Y-28172490D01*
X101987614Y-28172490D01*
X101987617Y-28172489D01*
X102055430Y-28159000D01*
X102124570Y-28159000D01*
X102192383Y-28172489D01*
G37*
G36*
X100442383Y-28162489D02*
G01*
X100442386Y-28162490D01*
X100442385Y-28162490D01*
X100506258Y-28188946D01*
X100563748Y-28227360D01*
X100612640Y-28276252D01*
X100651054Y-28333742D01*
X100672624Y-28385818D01*
X100677511Y-28397617D01*
X100691000Y-28465430D01*
X100691000Y-28534570D01*
X100677511Y-28602383D01*
X100677510Y-28602385D01*
X100651054Y-28666258D01*
X100612640Y-28723748D01*
X100563745Y-28772643D01*
X100504980Y-28811909D01*
X100486038Y-28827454D01*
X100470493Y-28846396D01*
X100458942Y-28868007D01*
X100451829Y-28891456D01*
X100449427Y-28915842D01*
X100451829Y-28940228D01*
X100458942Y-28963677D01*
X100470494Y-28985287D01*
X100486039Y-29004229D01*
X100504980Y-29019774D01*
X100553748Y-29052360D01*
X100602640Y-29101252D01*
X100641054Y-29158742D01*
X100662624Y-29210818D01*
X100667511Y-29222617D01*
X100681000Y-29290430D01*
X100681000Y-29359570D01*
X100667511Y-29427383D01*
X100667510Y-29427385D01*
X100641054Y-29491258D01*
X100602640Y-29548748D01*
X100553745Y-29597643D01*
X100499980Y-29633568D01*
X100481038Y-29649113D01*
X100465493Y-29668055D01*
X100453942Y-29689666D01*
X100446829Y-29713115D01*
X100444427Y-29737501D01*
X100446829Y-29761887D01*
X100453942Y-29785336D01*
X100465494Y-29806946D01*
X100481039Y-29825888D01*
X100499980Y-29841432D01*
X100553745Y-29877357D01*
X100602640Y-29926252D01*
X100641054Y-29983742D01*
X100662624Y-30035818D01*
X100667511Y-30047617D01*
X100681000Y-30115430D01*
X100681000Y-30184570D01*
X100667511Y-30252383D01*
X100667510Y-30252385D01*
X100641054Y-30316258D01*
X100602640Y-30373748D01*
X100553745Y-30422643D01*
X100499980Y-30458568D01*
X100481038Y-30474113D01*
X100465493Y-30493055D01*
X100453942Y-30514666D01*
X100446829Y-30538115D01*
X100444427Y-30562501D01*
X100446829Y-30586887D01*
X100453942Y-30610336D01*
X100465494Y-30631946D01*
X100481039Y-30650888D01*
X100499980Y-30666432D01*
X100553745Y-30702357D01*
X100602640Y-30751252D01*
X100641054Y-30808742D01*
X100662624Y-30860818D01*
X100667511Y-30872617D01*
X100681000Y-30940430D01*
X100681000Y-31009570D01*
X100667511Y-31077383D01*
X100667510Y-31077385D01*
X100641054Y-31141258D01*
X100602640Y-31198748D01*
X100553745Y-31247643D01*
X100499980Y-31283568D01*
X100481038Y-31299113D01*
X100465493Y-31318055D01*
X100453942Y-31339666D01*
X100446829Y-31363115D01*
X100444427Y-31387501D01*
X100446829Y-31411887D01*
X100453942Y-31435336D01*
X100465494Y-31456946D01*
X100481039Y-31475888D01*
X100499980Y-31491432D01*
X100553745Y-31527357D01*
X100602640Y-31576252D01*
X100641054Y-31633742D01*
X100662624Y-31685818D01*
X100667511Y-31697617D01*
X100681000Y-31765430D01*
X100681000Y-31834570D01*
X100667511Y-31902383D01*
X100667510Y-31902385D01*
X100641054Y-31966258D01*
X100602640Y-32023748D01*
X100553745Y-32072643D01*
X100499980Y-32108568D01*
X100481038Y-32124113D01*
X100465493Y-32143055D01*
X100453942Y-32164666D01*
X100446829Y-32188115D01*
X100444427Y-32212501D01*
X100446829Y-32236887D01*
X100453942Y-32260336D01*
X100465494Y-32281946D01*
X100481039Y-32300888D01*
X100499980Y-32316432D01*
X100553745Y-32352357D01*
X100602640Y-32401252D01*
X100641054Y-32458742D01*
X100662624Y-32510818D01*
X100667511Y-32522617D01*
X100681000Y-32590430D01*
X100681000Y-32659570D01*
X100667511Y-32727383D01*
X100667510Y-32727385D01*
X100641054Y-32791258D01*
X100602640Y-32848748D01*
X100553745Y-32897643D01*
X100499980Y-32933568D01*
X100481038Y-32949113D01*
X100465493Y-32968055D01*
X100453942Y-32989666D01*
X100446829Y-33013115D01*
X100444427Y-33037501D01*
X100446829Y-33061887D01*
X100453942Y-33085336D01*
X100465494Y-33106946D01*
X100481039Y-33125888D01*
X100499980Y-33141432D01*
X100553745Y-33177357D01*
X100602640Y-33226252D01*
X100641054Y-33283742D01*
X100662624Y-33335818D01*
X100667511Y-33347617D01*
X100681000Y-33415430D01*
X100681000Y-33484570D01*
X100667511Y-33552383D01*
X100667510Y-33552385D01*
X100641054Y-33616258D01*
X100602640Y-33673748D01*
X100553745Y-33722643D01*
X100499980Y-33758568D01*
X100481038Y-33774113D01*
X100465493Y-33793055D01*
X100453942Y-33814666D01*
X100446829Y-33838115D01*
X100444427Y-33862501D01*
X100446829Y-33886887D01*
X100453942Y-33910336D01*
X100465494Y-33931946D01*
X100481039Y-33950888D01*
X100499980Y-33966432D01*
X100553745Y-34002357D01*
X100602640Y-34051252D01*
X100641054Y-34108742D01*
X100662624Y-34160818D01*
X100667511Y-34172617D01*
X100681000Y-34240430D01*
X100681000Y-34309570D01*
X100667511Y-34377383D01*
X100667510Y-34377385D01*
X100641054Y-34441258D01*
X100602640Y-34498748D01*
X100553745Y-34547643D01*
X100499980Y-34583568D01*
X100481038Y-34599113D01*
X100465493Y-34618055D01*
X100453942Y-34639666D01*
X100446829Y-34663115D01*
X100444427Y-34687501D01*
X100446829Y-34711887D01*
X100453942Y-34735336D01*
X100465494Y-34756946D01*
X100481039Y-34775888D01*
X100499980Y-34791432D01*
X100553745Y-34827357D01*
X100602640Y-34876252D01*
X100641054Y-34933742D01*
X100662624Y-34985818D01*
X100667511Y-34997617D01*
X100681000Y-35065430D01*
X100681000Y-35134570D01*
X100667511Y-35202383D01*
X100667510Y-35202385D01*
X100641054Y-35266258D01*
X100602640Y-35323748D01*
X100553748Y-35372640D01*
X100496258Y-35411054D01*
X100444182Y-35432624D01*
X100432383Y-35437511D01*
X100364570Y-35451000D01*
X100295430Y-35451000D01*
X100227617Y-35437511D01*
X100215818Y-35432624D01*
X100163742Y-35411054D01*
X100106252Y-35372640D01*
X100057360Y-35323748D01*
X100018946Y-35266258D01*
X99992490Y-35202385D01*
X99992489Y-35202383D01*
X99979000Y-35134570D01*
X99979000Y-35065430D01*
X99992489Y-34997617D01*
X99997376Y-34985818D01*
X100018946Y-34933742D01*
X100057360Y-34876252D01*
X100106255Y-34827357D01*
X100160020Y-34791432D01*
X100178962Y-34775887D01*
X100194507Y-34756945D01*
X100206058Y-34735334D01*
X100213171Y-34711885D01*
X100215573Y-34687499D01*
X100213171Y-34663113D01*
X100206058Y-34639664D01*
X100194506Y-34618054D01*
X100178961Y-34599112D01*
X100160020Y-34583568D01*
X100106255Y-34547643D01*
X100057360Y-34498748D01*
X100018946Y-34441258D01*
X99992490Y-34377385D01*
X99992489Y-34377383D01*
X99979000Y-34309570D01*
X99979000Y-34240430D01*
X99992489Y-34172617D01*
X99997376Y-34160818D01*
X100018946Y-34108742D01*
X100057360Y-34051252D01*
X100106255Y-34002357D01*
X100160020Y-33966432D01*
X100178962Y-33950887D01*
X100194507Y-33931945D01*
X100206058Y-33910334D01*
X100213171Y-33886885D01*
X100215573Y-33862499D01*
X100213171Y-33838113D01*
X100206058Y-33814664D01*
X100194506Y-33793054D01*
X100178961Y-33774112D01*
X100160020Y-33758568D01*
X100106255Y-33722643D01*
X100057360Y-33673748D01*
X100018946Y-33616258D01*
X99992490Y-33552385D01*
X99992489Y-33552383D01*
X99979000Y-33484570D01*
X99979000Y-33415430D01*
X99992489Y-33347617D01*
X99997376Y-33335818D01*
X100018946Y-33283742D01*
X100057360Y-33226252D01*
X100106255Y-33177357D01*
X100160020Y-33141432D01*
X100178962Y-33125887D01*
X100194507Y-33106945D01*
X100206058Y-33085334D01*
X100213171Y-33061885D01*
X100215573Y-33037499D01*
X100213171Y-33013113D01*
X100206058Y-32989664D01*
X100194506Y-32968054D01*
X100178961Y-32949112D01*
X100160020Y-32933568D01*
X100106255Y-32897643D01*
X100057360Y-32848748D01*
X100018946Y-32791258D01*
X99992490Y-32727385D01*
X99992489Y-32727383D01*
X99979000Y-32659570D01*
X99979000Y-32590430D01*
X99992489Y-32522617D01*
X99997376Y-32510818D01*
X100018946Y-32458742D01*
X100057360Y-32401252D01*
X100106255Y-32352357D01*
X100160020Y-32316432D01*
X100178962Y-32300887D01*
X100194507Y-32281945D01*
X100206058Y-32260334D01*
X100213171Y-32236885D01*
X100215573Y-32212499D01*
X100213171Y-32188113D01*
X100206058Y-32164664D01*
X100194506Y-32143054D01*
X100178961Y-32124112D01*
X100160020Y-32108568D01*
X100106255Y-32072643D01*
X100057360Y-32023748D01*
X100018946Y-31966258D01*
X99992490Y-31902385D01*
X99992489Y-31902383D01*
X99979000Y-31834570D01*
X99979000Y-31765430D01*
X99992489Y-31697617D01*
X99997376Y-31685818D01*
X100018946Y-31633742D01*
X100057360Y-31576252D01*
X100106255Y-31527357D01*
X100160020Y-31491432D01*
X100178962Y-31475887D01*
X100194507Y-31456945D01*
X100206058Y-31435334D01*
X100213171Y-31411885D01*
X100215573Y-31387499D01*
X100213171Y-31363113D01*
X100206058Y-31339664D01*
X100194506Y-31318054D01*
X100178961Y-31299112D01*
X100160020Y-31283568D01*
X100106255Y-31247643D01*
X100057360Y-31198748D01*
X100018946Y-31141258D01*
X99992490Y-31077385D01*
X99992489Y-31077383D01*
X99979000Y-31009570D01*
X99979000Y-30940430D01*
X99992489Y-30872617D01*
X99997376Y-30860818D01*
X100018946Y-30808742D01*
X100057360Y-30751252D01*
X100106255Y-30702357D01*
X100160020Y-30666432D01*
X100178962Y-30650887D01*
X100194507Y-30631945D01*
X100206058Y-30610334D01*
X100213171Y-30586885D01*
X100215573Y-30562499D01*
X100213171Y-30538113D01*
X100206058Y-30514664D01*
X100194506Y-30493054D01*
X100178961Y-30474112D01*
X100160020Y-30458568D01*
X100106255Y-30422643D01*
X100057360Y-30373748D01*
X100018946Y-30316258D01*
X99992490Y-30252385D01*
X99992489Y-30252383D01*
X99979000Y-30184570D01*
X99979000Y-30115430D01*
X99992489Y-30047617D01*
X99997376Y-30035818D01*
X100018946Y-29983742D01*
X100057360Y-29926252D01*
X100106255Y-29877357D01*
X100160020Y-29841432D01*
X100178962Y-29825887D01*
X100194507Y-29806945D01*
X100206058Y-29785334D01*
X100213171Y-29761885D01*
X100215573Y-29737499D01*
X100213171Y-29713113D01*
X100206058Y-29689664D01*
X100194506Y-29668054D01*
X100178961Y-29649112D01*
X100160020Y-29633568D01*
X100106255Y-29597643D01*
X100057360Y-29548748D01*
X100018946Y-29491258D01*
X99992490Y-29427385D01*
X99992489Y-29427383D01*
X99979000Y-29359570D01*
X99979000Y-29290430D01*
X99992489Y-29222617D01*
X99997376Y-29210818D01*
X100018946Y-29158742D01*
X100057360Y-29101252D01*
X100106255Y-29052357D01*
X100165020Y-29013091D01*
X100183962Y-28997546D01*
X100199507Y-28978604D01*
X100211058Y-28956993D01*
X100218171Y-28933544D01*
X100220573Y-28909158D01*
X100218171Y-28884772D01*
X100211058Y-28861323D01*
X100199506Y-28839713D01*
X100183961Y-28820771D01*
X100165020Y-28805226D01*
X100116252Y-28772640D01*
X100067360Y-28723748D01*
X100028946Y-28666258D01*
X100002490Y-28602385D01*
X100002489Y-28602383D01*
X99989000Y-28534570D01*
X99989000Y-28465430D01*
X100002489Y-28397617D01*
X100007376Y-28385818D01*
X100028946Y-28333742D01*
X100067360Y-28276252D01*
X100116252Y-28227360D01*
X100173742Y-28188946D01*
X100237615Y-28162490D01*
X100237614Y-28162490D01*
X100237617Y-28162489D01*
X100305430Y-28149000D01*
X100374570Y-28149000D01*
X100442383Y-28162489D01*
G37*
G36*
X90467383Y-20162489D02*
G01*
X90467386Y-20162490D01*
X90467385Y-20162490D01*
X90531258Y-20188946D01*
X90588748Y-20227360D01*
X90637643Y-20276255D01*
X90673568Y-20330020D01*
X90689113Y-20348962D01*
X90708055Y-20364507D01*
X90729666Y-20376058D01*
X90753115Y-20383171D01*
X90777501Y-20385573D01*
X90801887Y-20383171D01*
X90825336Y-20376058D01*
X90846946Y-20364506D01*
X90865888Y-20348961D01*
X90881432Y-20330020D01*
X90917357Y-20276255D01*
X90966252Y-20227360D01*
X91023742Y-20188946D01*
X91087615Y-20162490D01*
X91087614Y-20162490D01*
X91087617Y-20162489D01*
X91155430Y-20149000D01*
X91224570Y-20149000D01*
X91292383Y-20162489D01*
X91292386Y-20162490D01*
X91292385Y-20162490D01*
X91356258Y-20188946D01*
X91413748Y-20227360D01*
X91462643Y-20276255D01*
X91498568Y-20330020D01*
X91514113Y-20348962D01*
X91533055Y-20364507D01*
X91554666Y-20376058D01*
X91578115Y-20383171D01*
X91602501Y-20385573D01*
X91626887Y-20383171D01*
X91650336Y-20376058D01*
X91671946Y-20364506D01*
X91690888Y-20348961D01*
X91706432Y-20330020D01*
X91742357Y-20276255D01*
X91791252Y-20227360D01*
X91848742Y-20188946D01*
X91912615Y-20162490D01*
X91912614Y-20162490D01*
X91912617Y-20162489D01*
X91980430Y-20149000D01*
X92049570Y-20149000D01*
X92117383Y-20162489D01*
X92117386Y-20162490D01*
X92117385Y-20162490D01*
X92181258Y-20188946D01*
X92238748Y-20227360D01*
X92287640Y-20276252D01*
X92328284Y-20337080D01*
X92336068Y-20351641D01*
X92351613Y-20370583D01*
X92370555Y-20386128D01*
X92392166Y-20397679D01*
X92415615Y-20404792D01*
X92440001Y-20407194D01*
X92464387Y-20404792D01*
X92487836Y-20397679D01*
X92509446Y-20386127D01*
X92528388Y-20370582D01*
X92543933Y-20351640D01*
X92551717Y-20337079D01*
X92553947Y-20333742D01*
X92553948Y-20333739D01*
X92592361Y-20276251D01*
X92641251Y-20227361D01*
X92698739Y-20188948D01*
X92698742Y-20188946D01*
X92762615Y-20162490D01*
X92762614Y-20162490D01*
X92762617Y-20162489D01*
X92830430Y-20149000D01*
X92899570Y-20149000D01*
X92967383Y-20162489D01*
X92967386Y-20162490D01*
X92967385Y-20162490D01*
X93031258Y-20188946D01*
X93088748Y-20227360D01*
X93137643Y-20276255D01*
X93173568Y-20330020D01*
X93189113Y-20348962D01*
X93208055Y-20364507D01*
X93229666Y-20376058D01*
X93253115Y-20383171D01*
X93277501Y-20385573D01*
X93301887Y-20383171D01*
X93325336Y-20376058D01*
X93346946Y-20364506D01*
X93365888Y-20348961D01*
X93381432Y-20330020D01*
X93417357Y-20276255D01*
X93466252Y-20227360D01*
X93523742Y-20188946D01*
X93587615Y-20162490D01*
X93587614Y-20162490D01*
X93587617Y-20162489D01*
X93655430Y-20149000D01*
X93724570Y-20149000D01*
X93792383Y-20162489D01*
X93792386Y-20162490D01*
X93792385Y-20162490D01*
X93856258Y-20188946D01*
X93913748Y-20227360D01*
X93962643Y-20276255D01*
X93998568Y-20330020D01*
X94014113Y-20348962D01*
X94033055Y-20364507D01*
X94054666Y-20376058D01*
X94078115Y-20383171D01*
X94102501Y-20385573D01*
X94126887Y-20383171D01*
X94150336Y-20376058D01*
X94171946Y-20364506D01*
X94190888Y-20348961D01*
X94206432Y-20330020D01*
X94242357Y-20276255D01*
X94291252Y-20227360D01*
X94348742Y-20188946D01*
X94412615Y-20162490D01*
X94412614Y-20162490D01*
X94412617Y-20162489D01*
X94480430Y-20149000D01*
X94549570Y-20149000D01*
X94617383Y-20162489D01*
X94617386Y-20162490D01*
X94617385Y-20162490D01*
X94681258Y-20188946D01*
X94738748Y-20227360D01*
X94787640Y-20276252D01*
X94826054Y-20333742D01*
X94841313Y-20370582D01*
X94852511Y-20397617D01*
X94866000Y-20465430D01*
X94866000Y-20534570D01*
X94852511Y-20602383D01*
X94852510Y-20602385D01*
X94826054Y-20666258D01*
X94787640Y-20723748D01*
X94738748Y-20772640D01*
X94681258Y-20811054D01*
X94629182Y-20832624D01*
X94617383Y-20837511D01*
X94549570Y-20851000D01*
X94480430Y-20851000D01*
X94412617Y-20837511D01*
X94400818Y-20832624D01*
X94348742Y-20811054D01*
X94291252Y-20772640D01*
X94242357Y-20723745D01*
X94206432Y-20669980D01*
X94190887Y-20651038D01*
X94171945Y-20635493D01*
X94150334Y-20623942D01*
X94126885Y-20616829D01*
X94102499Y-20614427D01*
X94078113Y-20616829D01*
X94054664Y-20623942D01*
X94033054Y-20635494D01*
X94014112Y-20651039D01*
X93998568Y-20669980D01*
X93962643Y-20723745D01*
X93913748Y-20772640D01*
X93856258Y-20811054D01*
X93804182Y-20832624D01*
X93792383Y-20837511D01*
X93724570Y-20851000D01*
X93655430Y-20851000D01*
X93587617Y-20837511D01*
X93575818Y-20832624D01*
X93523742Y-20811054D01*
X93466252Y-20772640D01*
X93417357Y-20723745D01*
X93381432Y-20669980D01*
X93365887Y-20651038D01*
X93346945Y-20635493D01*
X93325334Y-20623942D01*
X93301885Y-20616829D01*
X93277499Y-20614427D01*
X93253113Y-20616829D01*
X93229664Y-20623942D01*
X93208054Y-20635494D01*
X93189112Y-20651039D01*
X93173568Y-20669980D01*
X93137643Y-20723745D01*
X93088748Y-20772640D01*
X93031258Y-20811054D01*
X92979182Y-20832624D01*
X92967383Y-20837511D01*
X92899570Y-20851000D01*
X92830430Y-20851000D01*
X92762617Y-20837511D01*
X92750818Y-20832624D01*
X92698742Y-20811054D01*
X92641252Y-20772640D01*
X92592360Y-20723748D01*
X92551716Y-20662920D01*
X92543932Y-20648359D01*
X92528387Y-20629417D01*
X92509445Y-20613872D01*
X92487834Y-20602321D01*
X92464385Y-20595208D01*
X92439999Y-20592806D01*
X92415613Y-20595208D01*
X92392164Y-20602321D01*
X92370554Y-20613873D01*
X92351612Y-20629418D01*
X92336067Y-20648360D01*
X92328283Y-20662921D01*
X92326053Y-20666258D01*
X92326052Y-20666261D01*
X92299991Y-20705263D01*
X92287640Y-20723748D01*
X92238748Y-20772640D01*
X92181258Y-20811054D01*
X92129182Y-20832624D01*
X92117383Y-20837511D01*
X92049570Y-20851000D01*
X91980430Y-20851000D01*
X91912617Y-20837511D01*
X91900818Y-20832624D01*
X91848742Y-20811054D01*
X91791252Y-20772640D01*
X91742357Y-20723745D01*
X91706432Y-20669980D01*
X91690887Y-20651038D01*
X91671945Y-20635493D01*
X91650334Y-20623942D01*
X91626885Y-20616829D01*
X91602499Y-20614427D01*
X91578113Y-20616829D01*
X91554664Y-20623942D01*
X91533054Y-20635494D01*
X91514112Y-20651039D01*
X91498568Y-20669980D01*
X91462643Y-20723745D01*
X91413748Y-20772640D01*
X91356258Y-20811054D01*
X91304182Y-20832624D01*
X91292383Y-20837511D01*
X91224570Y-20851000D01*
X91155430Y-20851000D01*
X91087617Y-20837511D01*
X91075818Y-20832624D01*
X91023742Y-20811054D01*
X90966252Y-20772640D01*
X90917357Y-20723745D01*
X90881432Y-20669980D01*
X90865887Y-20651038D01*
X90846945Y-20635493D01*
X90825334Y-20623942D01*
X90801885Y-20616829D01*
X90777499Y-20614427D01*
X90753113Y-20616829D01*
X90729664Y-20623942D01*
X90708054Y-20635494D01*
X90689112Y-20651039D01*
X90673568Y-20669980D01*
X90637643Y-20723745D01*
X90588748Y-20772640D01*
X90531258Y-20811054D01*
X90479182Y-20832624D01*
X90467383Y-20837511D01*
X90399570Y-20851000D01*
X90330430Y-20851000D01*
X90262617Y-20837511D01*
X90250818Y-20832624D01*
X90198742Y-20811054D01*
X90141252Y-20772640D01*
X90092360Y-20723748D01*
X90053946Y-20666258D01*
X90027490Y-20602385D01*
X90027489Y-20602383D01*
X90014000Y-20534570D01*
X90014000Y-20465430D01*
X90027489Y-20397617D01*
X90038687Y-20370582D01*
X90053946Y-20333742D01*
X90092360Y-20276252D01*
X90141252Y-20227360D01*
X90198742Y-20188946D01*
X90262615Y-20162490D01*
X90262614Y-20162490D01*
X90262617Y-20162489D01*
X90330430Y-20149000D01*
X90399570Y-20149000D01*
X90467383Y-20162489D01*
G37*
G36*
X108017383Y-20162489D02*
G01*
X108017386Y-20162490D01*
X108017385Y-20162490D01*
X108081258Y-20188946D01*
X108138748Y-20227360D01*
X108187643Y-20276255D01*
X108223568Y-20330020D01*
X108239113Y-20348962D01*
X108258055Y-20364507D01*
X108279666Y-20376058D01*
X108303115Y-20383171D01*
X108327501Y-20385573D01*
X108351887Y-20383171D01*
X108375336Y-20376058D01*
X108396946Y-20364506D01*
X108415888Y-20348961D01*
X108431432Y-20330020D01*
X108467357Y-20276255D01*
X108516252Y-20227360D01*
X108573742Y-20188946D01*
X108637615Y-20162490D01*
X108637614Y-20162490D01*
X108637617Y-20162489D01*
X108705430Y-20149000D01*
X108774570Y-20149000D01*
X108842383Y-20162489D01*
X108842386Y-20162490D01*
X108842385Y-20162490D01*
X108906258Y-20188946D01*
X108963748Y-20227360D01*
X109012643Y-20276255D01*
X109048568Y-20330020D01*
X109064113Y-20348962D01*
X109083055Y-20364507D01*
X109104666Y-20376058D01*
X109128115Y-20383171D01*
X109152501Y-20385573D01*
X109176887Y-20383171D01*
X109200336Y-20376058D01*
X109221946Y-20364506D01*
X109240888Y-20348961D01*
X109256432Y-20330020D01*
X109292357Y-20276255D01*
X109341252Y-20227360D01*
X109398742Y-20188946D01*
X109462615Y-20162490D01*
X109462614Y-20162490D01*
X109462617Y-20162489D01*
X109530430Y-20149000D01*
X109599570Y-20149000D01*
X109667383Y-20162489D01*
X109667386Y-20162490D01*
X109667385Y-20162490D01*
X109731258Y-20188946D01*
X109788748Y-20227360D01*
X109837640Y-20276252D01*
X109878284Y-20337080D01*
X109886068Y-20351641D01*
X109901613Y-20370583D01*
X109920555Y-20386128D01*
X109942166Y-20397679D01*
X109965615Y-20404792D01*
X109990001Y-20407194D01*
X110014387Y-20404792D01*
X110037836Y-20397679D01*
X110059446Y-20386127D01*
X110078388Y-20370582D01*
X110093933Y-20351640D01*
X110101717Y-20337079D01*
X110103947Y-20333742D01*
X110103948Y-20333739D01*
X110142361Y-20276251D01*
X110191251Y-20227361D01*
X110248739Y-20188948D01*
X110248742Y-20188946D01*
X110312615Y-20162490D01*
X110312614Y-20162490D01*
X110312617Y-20162489D01*
X110380430Y-20149000D01*
X110449570Y-20149000D01*
X110517383Y-20162489D01*
X110517386Y-20162490D01*
X110517385Y-20162490D01*
X110581258Y-20188946D01*
X110638748Y-20227360D01*
X110687643Y-20276255D01*
X110723568Y-20330020D01*
X110739113Y-20348962D01*
X110758055Y-20364507D01*
X110779666Y-20376058D01*
X110803115Y-20383171D01*
X110827501Y-20385573D01*
X110851887Y-20383171D01*
X110875336Y-20376058D01*
X110896946Y-20364506D01*
X110915888Y-20348961D01*
X110931432Y-20330020D01*
X110967357Y-20276255D01*
X111016252Y-20227360D01*
X111073742Y-20188946D01*
X111137615Y-20162490D01*
X111137614Y-20162490D01*
X111137617Y-20162489D01*
X111205430Y-20149000D01*
X111274570Y-20149000D01*
X111342383Y-20162489D01*
X111342386Y-20162490D01*
X111342385Y-20162490D01*
X111406258Y-20188946D01*
X111463748Y-20227360D01*
X111512643Y-20276255D01*
X111548568Y-20330020D01*
X111564113Y-20348962D01*
X111583055Y-20364507D01*
X111604666Y-20376058D01*
X111628115Y-20383171D01*
X111652501Y-20385573D01*
X111676887Y-20383171D01*
X111700336Y-20376058D01*
X111721946Y-20364506D01*
X111740888Y-20348961D01*
X111756432Y-20330020D01*
X111792357Y-20276255D01*
X111841252Y-20227360D01*
X111898742Y-20188946D01*
X111962615Y-20162490D01*
X111962614Y-20162490D01*
X111962617Y-20162489D01*
X112030430Y-20149000D01*
X112099570Y-20149000D01*
X112167383Y-20162489D01*
X112167386Y-20162490D01*
X112167385Y-20162490D01*
X112231258Y-20188946D01*
X112288748Y-20227360D01*
X112337640Y-20276252D01*
X112376054Y-20333742D01*
X112391313Y-20370582D01*
X112402511Y-20397617D01*
X112416000Y-20465430D01*
X112416000Y-20534570D01*
X112402511Y-20602383D01*
X112402510Y-20602385D01*
X112376054Y-20666258D01*
X112337640Y-20723748D01*
X112288748Y-20772640D01*
X112231258Y-20811054D01*
X112179182Y-20832624D01*
X112167383Y-20837511D01*
X112099570Y-20851000D01*
X112030430Y-20851000D01*
X111962617Y-20837511D01*
X111950818Y-20832624D01*
X111898742Y-20811054D01*
X111841252Y-20772640D01*
X111792357Y-20723745D01*
X111756432Y-20669980D01*
X111740887Y-20651038D01*
X111721945Y-20635493D01*
X111700334Y-20623942D01*
X111676885Y-20616829D01*
X111652499Y-20614427D01*
X111628113Y-20616829D01*
X111604664Y-20623942D01*
X111583054Y-20635494D01*
X111564112Y-20651039D01*
X111548568Y-20669980D01*
X111512643Y-20723745D01*
X111463748Y-20772640D01*
X111406258Y-20811054D01*
X111354182Y-20832624D01*
X111342383Y-20837511D01*
X111274570Y-20851000D01*
X111205430Y-20851000D01*
X111137617Y-20837511D01*
X111125818Y-20832624D01*
X111073742Y-20811054D01*
X111016252Y-20772640D01*
X110967357Y-20723745D01*
X110931432Y-20669980D01*
X110915887Y-20651038D01*
X110896945Y-20635493D01*
X110875334Y-20623942D01*
X110851885Y-20616829D01*
X110827499Y-20614427D01*
X110803113Y-20616829D01*
X110779664Y-20623942D01*
X110758054Y-20635494D01*
X110739112Y-20651039D01*
X110723568Y-20669980D01*
X110687643Y-20723745D01*
X110638748Y-20772640D01*
X110581258Y-20811054D01*
X110529182Y-20832624D01*
X110517383Y-20837511D01*
X110449570Y-20851000D01*
X110380430Y-20851000D01*
X110312617Y-20837511D01*
X110300818Y-20832624D01*
X110248742Y-20811054D01*
X110191252Y-20772640D01*
X110142360Y-20723748D01*
X110101716Y-20662920D01*
X110093932Y-20648359D01*
X110078387Y-20629417D01*
X110059445Y-20613872D01*
X110037834Y-20602321D01*
X110014385Y-20595208D01*
X109989999Y-20592806D01*
X109965613Y-20595208D01*
X109942164Y-20602321D01*
X109920554Y-20613873D01*
X109901612Y-20629418D01*
X109886067Y-20648360D01*
X109878283Y-20662921D01*
X109876053Y-20666258D01*
X109876052Y-20666261D01*
X109849991Y-20705263D01*
X109837640Y-20723748D01*
X109788748Y-20772640D01*
X109731258Y-20811054D01*
X109679182Y-20832624D01*
X109667383Y-20837511D01*
X109599570Y-20851000D01*
X109530430Y-20851000D01*
X109462617Y-20837511D01*
X109450818Y-20832624D01*
X109398742Y-20811054D01*
X109341252Y-20772640D01*
X109292357Y-20723745D01*
X109256432Y-20669980D01*
X109240887Y-20651038D01*
X109221945Y-20635493D01*
X109200334Y-20623942D01*
X109176885Y-20616829D01*
X109152499Y-20614427D01*
X109128113Y-20616829D01*
X109104664Y-20623942D01*
X109083054Y-20635494D01*
X109064112Y-20651039D01*
X109048568Y-20669980D01*
X109012643Y-20723745D01*
X108963748Y-20772640D01*
X108906258Y-20811054D01*
X108854182Y-20832624D01*
X108842383Y-20837511D01*
X108774570Y-20851000D01*
X108705430Y-20851000D01*
X108637617Y-20837511D01*
X108625818Y-20832624D01*
X108573742Y-20811054D01*
X108516252Y-20772640D01*
X108467357Y-20723745D01*
X108431432Y-20669980D01*
X108415887Y-20651038D01*
X108396945Y-20635493D01*
X108375334Y-20623942D01*
X108351885Y-20616829D01*
X108327499Y-20614427D01*
X108303113Y-20616829D01*
X108279664Y-20623942D01*
X108258054Y-20635494D01*
X108239112Y-20651039D01*
X108223568Y-20669980D01*
X108187643Y-20723745D01*
X108138748Y-20772640D01*
X108081258Y-20811054D01*
X108029182Y-20832624D01*
X108017383Y-20837511D01*
X107949570Y-20851000D01*
X107880430Y-20851000D01*
X107812617Y-20837511D01*
X107800818Y-20832624D01*
X107748742Y-20811054D01*
X107691252Y-20772640D01*
X107642360Y-20723748D01*
X107603946Y-20666258D01*
X107577490Y-20602385D01*
X107577489Y-20602383D01*
X107564000Y-20534570D01*
X107564000Y-20465430D01*
X107577489Y-20397617D01*
X107588687Y-20370582D01*
X107603946Y-20333742D01*
X107642360Y-20276252D01*
X107691252Y-20227360D01*
X107748742Y-20188946D01*
X107812615Y-20162490D01*
X107812614Y-20162490D01*
X107812617Y-20162489D01*
X107880430Y-20149000D01*
X107949570Y-20149000D01*
X108017383Y-20162489D01*
G37*
G36*
X108007383Y-17922489D02*
G01*
X108007386Y-17922490D01*
X108007385Y-17922490D01*
X108071258Y-17948946D01*
X108128748Y-17987360D01*
X108177643Y-18036255D01*
X108213568Y-18090020D01*
X108229113Y-18108962D01*
X108248055Y-18124507D01*
X108269666Y-18136058D01*
X108293115Y-18143171D01*
X108317501Y-18145573D01*
X108341887Y-18143171D01*
X108365336Y-18136058D01*
X108386946Y-18124506D01*
X108405888Y-18108961D01*
X108421432Y-18090020D01*
X108457357Y-18036255D01*
X108506252Y-17987360D01*
X108563742Y-17948946D01*
X108627615Y-17922490D01*
X108627614Y-17922490D01*
X108627617Y-17922489D01*
X108695430Y-17909000D01*
X108764570Y-17909000D01*
X108832383Y-17922489D01*
X108832386Y-17922490D01*
X108832385Y-17922490D01*
X108896258Y-17948946D01*
X108953748Y-17987360D01*
X109002643Y-18036255D01*
X109038568Y-18090020D01*
X109054113Y-18108962D01*
X109073055Y-18124507D01*
X109094666Y-18136058D01*
X109118115Y-18143171D01*
X109142501Y-18145573D01*
X109166887Y-18143171D01*
X109190336Y-18136058D01*
X109211946Y-18124506D01*
X109230888Y-18108961D01*
X109246432Y-18090020D01*
X109282357Y-18036255D01*
X109331252Y-17987360D01*
X109388742Y-17948946D01*
X109452615Y-17922490D01*
X109452614Y-17922490D01*
X109452617Y-17922489D01*
X109520430Y-17909000D01*
X109589570Y-17909000D01*
X109657383Y-17922489D01*
X109657386Y-17922490D01*
X109657385Y-17922490D01*
X109721258Y-17948946D01*
X109778748Y-17987360D01*
X109827640Y-18036252D01*
X109868284Y-18097080D01*
X109876068Y-18111641D01*
X109891613Y-18130583D01*
X109910555Y-18146128D01*
X109932166Y-18157679D01*
X109955615Y-18164792D01*
X109980001Y-18167194D01*
X110004387Y-18164792D01*
X110027836Y-18157679D01*
X110049446Y-18146127D01*
X110068388Y-18130582D01*
X110083933Y-18111640D01*
X110091717Y-18097079D01*
X110093947Y-18093742D01*
X110093948Y-18093739D01*
X110132361Y-18036251D01*
X110181251Y-17987361D01*
X110238739Y-17948948D01*
X110238742Y-17948946D01*
X110302615Y-17922490D01*
X110302614Y-17922490D01*
X110302617Y-17922489D01*
X110370430Y-17909000D01*
X110439570Y-17909000D01*
X110507383Y-17922489D01*
X110507386Y-17922490D01*
X110507385Y-17922490D01*
X110571258Y-17948946D01*
X110628748Y-17987360D01*
X110677643Y-18036255D01*
X110713568Y-18090020D01*
X110729113Y-18108962D01*
X110748055Y-18124507D01*
X110769666Y-18136058D01*
X110793115Y-18143171D01*
X110817501Y-18145573D01*
X110841887Y-18143171D01*
X110865336Y-18136058D01*
X110886946Y-18124506D01*
X110905888Y-18108961D01*
X110921432Y-18090020D01*
X110957357Y-18036255D01*
X111006252Y-17987360D01*
X111063742Y-17948946D01*
X111127615Y-17922490D01*
X111127614Y-17922490D01*
X111127617Y-17922489D01*
X111195430Y-17909000D01*
X111264570Y-17909000D01*
X111332383Y-17922489D01*
X111332386Y-17922490D01*
X111332385Y-17922490D01*
X111396258Y-17948946D01*
X111453748Y-17987360D01*
X111502643Y-18036255D01*
X111538568Y-18090020D01*
X111554113Y-18108962D01*
X111573055Y-18124507D01*
X111594666Y-18136058D01*
X111618115Y-18143171D01*
X111642501Y-18145573D01*
X111666887Y-18143171D01*
X111690336Y-18136058D01*
X111711946Y-18124506D01*
X111730888Y-18108961D01*
X111746432Y-18090020D01*
X111782357Y-18036255D01*
X111831252Y-17987360D01*
X111888742Y-17948946D01*
X111952615Y-17922490D01*
X111952614Y-17922490D01*
X111952617Y-17922489D01*
X112020430Y-17909000D01*
X112089570Y-17909000D01*
X112157383Y-17922489D01*
X112157386Y-17922490D01*
X112157385Y-17922490D01*
X112221258Y-17948946D01*
X112278748Y-17987360D01*
X112327640Y-18036252D01*
X112366054Y-18093742D01*
X112381313Y-18130582D01*
X112392511Y-18157617D01*
X112406000Y-18225430D01*
X112406000Y-18294570D01*
X112392511Y-18362383D01*
X112392510Y-18362385D01*
X112366054Y-18426258D01*
X112327640Y-18483748D01*
X112278748Y-18532640D01*
X112221258Y-18571054D01*
X112169182Y-18592624D01*
X112157383Y-18597511D01*
X112089570Y-18611000D01*
X112020430Y-18611000D01*
X111952617Y-18597511D01*
X111940818Y-18592624D01*
X111888742Y-18571054D01*
X111831252Y-18532640D01*
X111782357Y-18483745D01*
X111746432Y-18429980D01*
X111730887Y-18411038D01*
X111711945Y-18395493D01*
X111690334Y-18383942D01*
X111666885Y-18376829D01*
X111642499Y-18374427D01*
X111618113Y-18376829D01*
X111594664Y-18383942D01*
X111573054Y-18395494D01*
X111554112Y-18411039D01*
X111538568Y-18429980D01*
X111502643Y-18483745D01*
X111453748Y-18532640D01*
X111396258Y-18571054D01*
X111344182Y-18592624D01*
X111332383Y-18597511D01*
X111264570Y-18611000D01*
X111195430Y-18611000D01*
X111127617Y-18597511D01*
X111115818Y-18592624D01*
X111063742Y-18571054D01*
X111006252Y-18532640D01*
X110957357Y-18483745D01*
X110921432Y-18429980D01*
X110905887Y-18411038D01*
X110886945Y-18395493D01*
X110865334Y-18383942D01*
X110841885Y-18376829D01*
X110817499Y-18374427D01*
X110793113Y-18376829D01*
X110769664Y-18383942D01*
X110748054Y-18395494D01*
X110729112Y-18411039D01*
X110713568Y-18429980D01*
X110677643Y-18483745D01*
X110628748Y-18532640D01*
X110571258Y-18571054D01*
X110519182Y-18592624D01*
X110507383Y-18597511D01*
X110439570Y-18611000D01*
X110370430Y-18611000D01*
X110302617Y-18597511D01*
X110290818Y-18592624D01*
X110238742Y-18571054D01*
X110181252Y-18532640D01*
X110132360Y-18483748D01*
X110091716Y-18422920D01*
X110083932Y-18408359D01*
X110068387Y-18389417D01*
X110049445Y-18373872D01*
X110027834Y-18362321D01*
X110004385Y-18355208D01*
X109979999Y-18352806D01*
X109955613Y-18355208D01*
X109932164Y-18362321D01*
X109910554Y-18373873D01*
X109891612Y-18389418D01*
X109876067Y-18408360D01*
X109868283Y-18422921D01*
X109866053Y-18426258D01*
X109866052Y-18426261D01*
X109839991Y-18465263D01*
X109827640Y-18483748D01*
X109778748Y-18532640D01*
X109721258Y-18571054D01*
X109669182Y-18592624D01*
X109657383Y-18597511D01*
X109589570Y-18611000D01*
X109520430Y-18611000D01*
X109452617Y-18597511D01*
X109440818Y-18592624D01*
X109388742Y-18571054D01*
X109331252Y-18532640D01*
X109282357Y-18483745D01*
X109246432Y-18429980D01*
X109230887Y-18411038D01*
X109211945Y-18395493D01*
X109190334Y-18383942D01*
X109166885Y-18376829D01*
X109142499Y-18374427D01*
X109118113Y-18376829D01*
X109094664Y-18383942D01*
X109073054Y-18395494D01*
X109054112Y-18411039D01*
X109038568Y-18429980D01*
X109002643Y-18483745D01*
X108953748Y-18532640D01*
X108896258Y-18571054D01*
X108844182Y-18592624D01*
X108832383Y-18597511D01*
X108764570Y-18611000D01*
X108695430Y-18611000D01*
X108627617Y-18597511D01*
X108615818Y-18592624D01*
X108563742Y-18571054D01*
X108506252Y-18532640D01*
X108457357Y-18483745D01*
X108421432Y-18429980D01*
X108405887Y-18411038D01*
X108386945Y-18395493D01*
X108365334Y-18383942D01*
X108341885Y-18376829D01*
X108317499Y-18374427D01*
X108293113Y-18376829D01*
X108269664Y-18383942D01*
X108248054Y-18395494D01*
X108229112Y-18411039D01*
X108213568Y-18429980D01*
X108177643Y-18483745D01*
X108128748Y-18532640D01*
X108071258Y-18571054D01*
X108019182Y-18592624D01*
X108007383Y-18597511D01*
X107939570Y-18611000D01*
X107870430Y-18611000D01*
X107802617Y-18597511D01*
X107790818Y-18592624D01*
X107738742Y-18571054D01*
X107681252Y-18532640D01*
X107632360Y-18483748D01*
X107593946Y-18426258D01*
X107567490Y-18362385D01*
X107567489Y-18362383D01*
X107554000Y-18294570D01*
X107554000Y-18225430D01*
X107567489Y-18157617D01*
X107578687Y-18130582D01*
X107593946Y-18093742D01*
X107632360Y-18036252D01*
X107681252Y-17987360D01*
X107738742Y-17948946D01*
X107802615Y-17922490D01*
X107802614Y-17922490D01*
X107802617Y-17922489D01*
X107870430Y-17909000D01*
X107939570Y-17909000D01*
X108007383Y-17922489D01*
G37*
G36*
X90477383Y-17922489D02*
G01*
X90477386Y-17922490D01*
X90477385Y-17922490D01*
X90541258Y-17948946D01*
X90598748Y-17987360D01*
X90647643Y-18036255D01*
X90683568Y-18090020D01*
X90699113Y-18108962D01*
X90718055Y-18124507D01*
X90739666Y-18136058D01*
X90763115Y-18143171D01*
X90787501Y-18145573D01*
X90811887Y-18143171D01*
X90835336Y-18136058D01*
X90856946Y-18124506D01*
X90875888Y-18108961D01*
X90891432Y-18090020D01*
X90927357Y-18036255D01*
X90976252Y-17987360D01*
X91033742Y-17948946D01*
X91097615Y-17922490D01*
X91097614Y-17922490D01*
X91097617Y-17922489D01*
X91165430Y-17909000D01*
X91234570Y-17909000D01*
X91302383Y-17922489D01*
X91302386Y-17922490D01*
X91302385Y-17922490D01*
X91366258Y-17948946D01*
X91423748Y-17987360D01*
X91472643Y-18036255D01*
X91508568Y-18090020D01*
X91524113Y-18108962D01*
X91543055Y-18124507D01*
X91564666Y-18136058D01*
X91588115Y-18143171D01*
X91612501Y-18145573D01*
X91636887Y-18143171D01*
X91660336Y-18136058D01*
X91681946Y-18124506D01*
X91700888Y-18108961D01*
X91716432Y-18090020D01*
X91752357Y-18036255D01*
X91801252Y-17987360D01*
X91858742Y-17948946D01*
X91922615Y-17922490D01*
X91922614Y-17922490D01*
X91922617Y-17922489D01*
X91990430Y-17909000D01*
X92059570Y-17909000D01*
X92127383Y-17922489D01*
X92127386Y-17922490D01*
X92127385Y-17922490D01*
X92191258Y-17948946D01*
X92248748Y-17987360D01*
X92297640Y-18036252D01*
X92338284Y-18097080D01*
X92346068Y-18111641D01*
X92361613Y-18130583D01*
X92380555Y-18146128D01*
X92402166Y-18157679D01*
X92425615Y-18164792D01*
X92450001Y-18167194D01*
X92474387Y-18164792D01*
X92497836Y-18157679D01*
X92519446Y-18146127D01*
X92538388Y-18130582D01*
X92553933Y-18111640D01*
X92561717Y-18097079D01*
X92563947Y-18093742D01*
X92563948Y-18093739D01*
X92602361Y-18036251D01*
X92651251Y-17987361D01*
X92708739Y-17948948D01*
X92708742Y-17948946D01*
X92772615Y-17922490D01*
X92772614Y-17922490D01*
X92772617Y-17922489D01*
X92840430Y-17909000D01*
X92909570Y-17909000D01*
X92977383Y-17922489D01*
X92977386Y-17922490D01*
X92977385Y-17922490D01*
X93041258Y-17948946D01*
X93098748Y-17987360D01*
X93147643Y-18036255D01*
X93183568Y-18090020D01*
X93199113Y-18108962D01*
X93218055Y-18124507D01*
X93239666Y-18136058D01*
X93263115Y-18143171D01*
X93287501Y-18145573D01*
X93311887Y-18143171D01*
X93335336Y-18136058D01*
X93356946Y-18124506D01*
X93375888Y-18108961D01*
X93391432Y-18090020D01*
X93427357Y-18036255D01*
X93476252Y-17987360D01*
X93533742Y-17948946D01*
X93597615Y-17922490D01*
X93597614Y-17922490D01*
X93597617Y-17922489D01*
X93665430Y-17909000D01*
X93734570Y-17909000D01*
X93802383Y-17922489D01*
X93802386Y-17922490D01*
X93802385Y-17922490D01*
X93866258Y-17948946D01*
X93923748Y-17987360D01*
X93972643Y-18036255D01*
X94008568Y-18090020D01*
X94024113Y-18108962D01*
X94043055Y-18124507D01*
X94064666Y-18136058D01*
X94088115Y-18143171D01*
X94112501Y-18145573D01*
X94136887Y-18143171D01*
X94160336Y-18136058D01*
X94181946Y-18124506D01*
X94200888Y-18108961D01*
X94216432Y-18090020D01*
X94252357Y-18036255D01*
X94301252Y-17987360D01*
X94358742Y-17948946D01*
X94422615Y-17922490D01*
X94422614Y-17922490D01*
X94422617Y-17922489D01*
X94490430Y-17909000D01*
X94559570Y-17909000D01*
X94627383Y-17922489D01*
X94627386Y-17922490D01*
X94627385Y-17922490D01*
X94691258Y-17948946D01*
X94748748Y-17987360D01*
X94797640Y-18036252D01*
X94836054Y-18093742D01*
X94851313Y-18130582D01*
X94862511Y-18157617D01*
X94876000Y-18225430D01*
X94876000Y-18294570D01*
X94862511Y-18362383D01*
X94862510Y-18362385D01*
X94836054Y-18426258D01*
X94797640Y-18483748D01*
X94748748Y-18532640D01*
X94691258Y-18571054D01*
X94639182Y-18592624D01*
X94627383Y-18597511D01*
X94559570Y-18611000D01*
X94490430Y-18611000D01*
X94422617Y-18597511D01*
X94410818Y-18592624D01*
X94358742Y-18571054D01*
X94301252Y-18532640D01*
X94252357Y-18483745D01*
X94216432Y-18429980D01*
X94200887Y-18411038D01*
X94181945Y-18395493D01*
X94160334Y-18383942D01*
X94136885Y-18376829D01*
X94112499Y-18374427D01*
X94088113Y-18376829D01*
X94064664Y-18383942D01*
X94043054Y-18395494D01*
X94024112Y-18411039D01*
X94008568Y-18429980D01*
X93972643Y-18483745D01*
X93923748Y-18532640D01*
X93866258Y-18571054D01*
X93814182Y-18592624D01*
X93802383Y-18597511D01*
X93734570Y-18611000D01*
X93665430Y-18611000D01*
X93597617Y-18597511D01*
X93585818Y-18592624D01*
X93533742Y-18571054D01*
X93476252Y-18532640D01*
X93427357Y-18483745D01*
X93391432Y-18429980D01*
X93375887Y-18411038D01*
X93356945Y-18395493D01*
X93335334Y-18383942D01*
X93311885Y-18376829D01*
X93287499Y-18374427D01*
X93263113Y-18376829D01*
X93239664Y-18383942D01*
X93218054Y-18395494D01*
X93199112Y-18411039D01*
X93183568Y-18429980D01*
X93147643Y-18483745D01*
X93098748Y-18532640D01*
X93041258Y-18571054D01*
X92989182Y-18592624D01*
X92977383Y-18597511D01*
X92909570Y-18611000D01*
X92840430Y-18611000D01*
X92772617Y-18597511D01*
X92760818Y-18592624D01*
X92708742Y-18571054D01*
X92651252Y-18532640D01*
X92602360Y-18483748D01*
X92561716Y-18422920D01*
X92553932Y-18408359D01*
X92538387Y-18389417D01*
X92519445Y-18373872D01*
X92497834Y-18362321D01*
X92474385Y-18355208D01*
X92449999Y-18352806D01*
X92425613Y-18355208D01*
X92402164Y-18362321D01*
X92380554Y-18373873D01*
X92361612Y-18389418D01*
X92346067Y-18408360D01*
X92338283Y-18422921D01*
X92336053Y-18426258D01*
X92336052Y-18426261D01*
X92309991Y-18465263D01*
X92297640Y-18483748D01*
X92248748Y-18532640D01*
X92191258Y-18571054D01*
X92139182Y-18592624D01*
X92127383Y-18597511D01*
X92059570Y-18611000D01*
X91990430Y-18611000D01*
X91922617Y-18597511D01*
X91910818Y-18592624D01*
X91858742Y-18571054D01*
X91801252Y-18532640D01*
X91752357Y-18483745D01*
X91716432Y-18429980D01*
X91700887Y-18411038D01*
X91681945Y-18395493D01*
X91660334Y-18383942D01*
X91636885Y-18376829D01*
X91612499Y-18374427D01*
X91588113Y-18376829D01*
X91564664Y-18383942D01*
X91543054Y-18395494D01*
X91524112Y-18411039D01*
X91508568Y-18429980D01*
X91472643Y-18483745D01*
X91423748Y-18532640D01*
X91366258Y-18571054D01*
X91314182Y-18592624D01*
X91302383Y-18597511D01*
X91234570Y-18611000D01*
X91165430Y-18611000D01*
X91097617Y-18597511D01*
X91085818Y-18592624D01*
X91033742Y-18571054D01*
X90976252Y-18532640D01*
X90927357Y-18483745D01*
X90891432Y-18429980D01*
X90875887Y-18411038D01*
X90856945Y-18395493D01*
X90835334Y-18383942D01*
X90811885Y-18376829D01*
X90787499Y-18374427D01*
X90763113Y-18376829D01*
X90739664Y-18383942D01*
X90718054Y-18395494D01*
X90699112Y-18411039D01*
X90683568Y-18429980D01*
X90647643Y-18483745D01*
X90598748Y-18532640D01*
X90541258Y-18571054D01*
X90489182Y-18592624D01*
X90477383Y-18597511D01*
X90409570Y-18611000D01*
X90340430Y-18611000D01*
X90272617Y-18597511D01*
X90260818Y-18592624D01*
X90208742Y-18571054D01*
X90151252Y-18532640D01*
X90102360Y-18483748D01*
X90063946Y-18426258D01*
X90037490Y-18362385D01*
X90037489Y-18362383D01*
X90024000Y-18294570D01*
X90024000Y-18225430D01*
X90037489Y-18157617D01*
X90048687Y-18130582D01*
X90063946Y-18093742D01*
X90102360Y-18036252D01*
X90151252Y-17987360D01*
X90208742Y-17948946D01*
X90272615Y-17922490D01*
X90272614Y-17922490D01*
X90272617Y-17922489D01*
X90340430Y-17909000D01*
X90409570Y-17909000D01*
X90477383Y-17922489D01*
G37*
G36*
X117583241Y-15354760D02*
G01*
X117847305Y-15464139D01*
X118084958Y-15622934D01*
X118287066Y-15825042D01*
X118445861Y-16062695D01*
X118555240Y-16326759D01*
X118611000Y-16607088D01*
X118611000Y-16892912D01*
X118555240Y-17173241D01*
X118445861Y-17437305D01*
X118287066Y-17674958D01*
X118084958Y-17877066D01*
X117847305Y-18035861D01*
X117583241Y-18145240D01*
X117302912Y-18201000D01*
X117017088Y-18201000D01*
X116736759Y-18145240D01*
X116472695Y-18035861D01*
X116235042Y-17877066D01*
X116032934Y-17674958D01*
X115874139Y-17437305D01*
X115764760Y-17173241D01*
X115709000Y-16892912D01*
X115709000Y-16607088D01*
X115764760Y-16326759D01*
X115874139Y-16062695D01*
X116032934Y-15825042D01*
X116235042Y-15622934D01*
X116472695Y-15464139D01*
X116736759Y-15354760D01*
X117017088Y-15299000D01*
X117302912Y-15299000D01*
X117583241Y-15354760D01*
G37*
G36*
X77284549Y-14381116D02*
G01*
X77395734Y-14403232D01*
X77605203Y-14489997D01*
X77793720Y-14615960D01*
X77954040Y-14776280D01*
X78080003Y-14964797D01*
X78166768Y-15174266D01*
X78211000Y-15396636D01*
X78211000Y-15623364D01*
X78166768Y-15845734D01*
X78080003Y-16055203D01*
X77954040Y-16243720D01*
X77793720Y-16404040D01*
X77605203Y-16530003D01*
X77395734Y-16616768D01*
X77284549Y-16638884D01*
X77173365Y-16661000D01*
X76946635Y-16661000D01*
X76835451Y-16638884D01*
X76724266Y-16616768D01*
X76514797Y-16530003D01*
X76326280Y-16404040D01*
X76165960Y-16243720D01*
X76039997Y-16055203D01*
X75953232Y-15845734D01*
X75909000Y-15623364D01*
X75909000Y-15396636D01*
X75953232Y-15174266D01*
X76039997Y-14964797D01*
X76165960Y-14776280D01*
X76326280Y-14615960D01*
X76514797Y-14489997D01*
X76724266Y-14403232D01*
X76835451Y-14381116D01*
X76946635Y-14359000D01*
X77173365Y-14359000D01*
X77284549Y-14381116D01*
G37*
G36*
X162034549Y-2921116D02*
G01*
X162145734Y-2943232D01*
X162355203Y-3029997D01*
X162543720Y-3155960D01*
X162704040Y-3316280D01*
X162830003Y-3504797D01*
X162916768Y-3714266D01*
X162961000Y-3936636D01*
X162961000Y-4163364D01*
X162916768Y-4385734D01*
X162830003Y-4595203D01*
X162704040Y-4783720D01*
X162543720Y-4944040D01*
X162355203Y-5070003D01*
X162145734Y-5156768D01*
X162034549Y-5178884D01*
X161923365Y-5201000D01*
X161696635Y-5201000D01*
X161585451Y-5178884D01*
X161474266Y-5156768D01*
X161264797Y-5070003D01*
X161076280Y-4944040D01*
X160915960Y-4783720D01*
X160789997Y-4595203D01*
X160703232Y-4385734D01*
X160659000Y-4163364D01*
X160659000Y-3936636D01*
X160703232Y-3714266D01*
X160789997Y-3504797D01*
X160915960Y-3316280D01*
X161076280Y-3155960D01*
X161264797Y-3029997D01*
X161474266Y-2943232D01*
X161585451Y-2921116D01*
X161696635Y-2899000D01*
X161923365Y-2899000D01*
X162034549Y-2921116D01*
G37*
G36*
X77294549Y168884D02*
G01*
X77405734Y146768D01*
X77615203Y60003D01*
X77803720Y-65960D01*
X77964040Y-226280D01*
X78090003Y-414797D01*
X78176768Y-624266D01*
X78221000Y-846636D01*
X78221000Y-1073364D01*
X78176768Y-1295734D01*
X78090003Y-1505203D01*
X77964040Y-1693720D01*
X77803720Y-1854040D01*
X77615203Y-1980003D01*
X77405734Y-2066768D01*
X77294549Y-2088884D01*
X77183365Y-2111000D01*
X76956635Y-2111000D01*
X76845451Y-2088884D01*
X76734266Y-2066768D01*
X76524797Y-1980003D01*
X76336280Y-1854040D01*
X76175960Y-1693720D01*
X76049997Y-1505203D01*
X75963232Y-1295734D01*
X75919000Y-1073364D01*
X75919000Y-846636D01*
X75963232Y-624266D01*
X76049997Y-414797D01*
X76175960Y-226280D01*
X76336280Y-65960D01*
X76524797Y60003D01*
X76734266Y146768D01*
X76845451Y168884D01*
X76956635Y191000D01*
X77183365Y191000D01*
X77294549Y168884D01*
G37*
M02*
