G04 #@! TF.GenerationSoftware,KiCad,Pcbnew,8.0.3*
G04 #@! TF.CreationDate,2024-07-31T18:52:23+09:00*
G04 #@! TF.ProjectId,reviung46,72657669-756e-4673-9436-2e6b69636164,ver 0.1*
G04 #@! TF.SameCoordinates,Original*
G04 #@! TF.FileFunction,Paste,Top*
G04 #@! TF.FilePolarity,Positive*
%FSLAX46Y46*%
G04 Gerber Fmt 4.6, Leading zero omitted, Abs format (unit mm)*
G04 Created by KiCad (PCBNEW 8.0.3) date 2024-07-31 18:52:23*
%MOMM*%
%LPD*%
G01*
G04 APERTURE LIST*
%ADD10R,2.000000X1.500000*%
G04 APERTURE END LIST*
D10*
X127655000Y-28265000D03*
X127655000Y-25065000D03*
X122255000Y-25065000D03*
X122255000Y-28265000D03*
X303825000Y-91730000D03*
X303825000Y-88530000D03*
X298425000Y-88530000D03*
X298425000Y-91730000D03*
X70530000Y-34860000D03*
X70530000Y-31660000D03*
X65130000Y-31660000D03*
X65130000Y-34860000D03*
X241870000Y-28240000D03*
X241870000Y-25040000D03*
X236470000Y-25040000D03*
X236470000Y-28240000D03*
X184800000Y-109790000D03*
X184800000Y-106590000D03*
X179400000Y-106590000D03*
X179400000Y-109790000D03*
X184815000Y-28260000D03*
X184815000Y-25060000D03*
X179415000Y-25060000D03*
X179415000Y-28260000D03*
X112780000Y-109745000D03*
X112780000Y-106545000D03*
X107380000Y-106545000D03*
X107380000Y-109745000D03*
X299050000Y-34860000D03*
X299050000Y-31660000D03*
X293650000Y-31660000D03*
X293650000Y-34860000D03*
X256810000Y-109765000D03*
X256810000Y-106565000D03*
X251410000Y-106565000D03*
X251410000Y-109765000D03*
X36920000Y-83935000D03*
X36920000Y-80735000D03*
X31520000Y-80735000D03*
X31520000Y-83935000D03*
M02*
