G04 #@! TF.GenerationSoftware,KiCad,Pcbnew,8.0.3*
G04 #@! TF.CreationDate,2024-07-31T18:52:23+09:00*
G04 #@! TF.ProjectId,reviung46,72657669-756e-4673-9436-2e6b69636164,ver 0.1*
G04 #@! TF.SameCoordinates,Original*
G04 #@! TF.FileFunction,Profile,NP*
%FSLAX46Y46*%
G04 Gerber Fmt 4.6, Leading zero omitted, Abs format (unit mm)*
G04 Created by KiCad (PCBNEW 8.0.3) date 2024-07-31 18:52:23*
%MOMM*%
%LPD*%
G01*
G04 APERTURE LIST*
G04 #@! TA.AperFunction,Profile*
%ADD10C,0.090000*%
G04 #@! TD*
%ADD11C,0.090000*%
G04 APERTURE END LIST*
D10*
X20294978Y-78673026D02*
X24339929Y-78673026D01*
X302795198Y-115294531D02*
X23295000Y-115294531D01*
X29010004Y-57069618D02*
X48509793Y-57069618D01*
D11*
X23295000Y-115294531D02*
X23140607Y-115290627D01*
X22988243Y-115279043D01*
X22838096Y-115259967D01*
X22690354Y-115233586D01*
X22545204Y-115200090D01*
X22402837Y-115159666D01*
X22263440Y-115112504D01*
X22127201Y-115058792D01*
X21994310Y-114998718D01*
X21864954Y-114932470D01*
X21739322Y-114860237D01*
X21617602Y-114782208D01*
X21499983Y-114698570D01*
X21386654Y-114609513D01*
X21277801Y-114515224D01*
X21173615Y-114415893D01*
X21074284Y-114311707D01*
X20979995Y-114202855D01*
X20890938Y-114089525D01*
X20807300Y-113971906D01*
X20729271Y-113850186D01*
X20657038Y-113724554D01*
X20590790Y-113595199D01*
X20530716Y-113462307D01*
X20477004Y-113326069D01*
X20429842Y-113186672D01*
X20389418Y-113044304D01*
X20355922Y-112899155D01*
X20329541Y-112751413D01*
X20310465Y-112601265D01*
X20298881Y-112448901D01*
X20294978Y-112294510D01*
X25740102Y-77272487D02*
X25732872Y-77129391D01*
X25711655Y-76990423D01*
X25677152Y-76856287D01*
X25630068Y-76727686D01*
X25571106Y-76605326D01*
X25500971Y-76489910D01*
X25420367Y-76382143D01*
X25329997Y-76282730D01*
X25230564Y-76192374D01*
X25122774Y-76111781D01*
X25007330Y-76041654D01*
X24884935Y-75982698D01*
X24756293Y-75935617D01*
X24622109Y-75901116D01*
X24483086Y-75879898D01*
X24339929Y-75872670D01*
D10*
X305795209Y-75905484D02*
X301761906Y-75905484D01*
X20294978Y-75872670D02*
X20294978Y-23294667D01*
D11*
X302795198Y-20295000D02*
X302949558Y-20298903D01*
X303101895Y-20310487D01*
X303252018Y-20329563D01*
X303399741Y-20355943D01*
X303544873Y-20389439D01*
X303687227Y-20429861D01*
X303826613Y-20477022D01*
X303962844Y-20530733D01*
X304095730Y-20590805D01*
X304225083Y-20657049D01*
X304350714Y-20729279D01*
X304472435Y-20807304D01*
X304590057Y-20890936D01*
X304703391Y-20979988D01*
X304812249Y-21074270D01*
X304916443Y-21173593D01*
X305015783Y-21277771D01*
X305110080Y-21386613D01*
X305199148Y-21499931D01*
X305282795Y-21617538D01*
X305360835Y-21739244D01*
X305433079Y-21864861D01*
X305499337Y-21994200D01*
X305559422Y-22127074D01*
X305613144Y-22263293D01*
X305660315Y-22402669D01*
X305700747Y-22545013D01*
X305734250Y-22690138D01*
X305760636Y-22837854D01*
X305779717Y-22987973D01*
X305791304Y-23140307D01*
X305795209Y-23294667D01*
X20294978Y-23294667D02*
X20298881Y-23140307D01*
X20310465Y-22987973D01*
X20329541Y-22837854D01*
X20355922Y-22690138D01*
X20389418Y-22545013D01*
X20429842Y-22402669D01*
X20477004Y-22263293D01*
X20530716Y-22127074D01*
X20590790Y-21994200D01*
X20657038Y-21864861D01*
X20729271Y-21739244D01*
X20807300Y-21617538D01*
X20890938Y-21499931D01*
X20979995Y-21386613D01*
X21074284Y-21277771D01*
X21173615Y-21173593D01*
X21277801Y-21074270D01*
X21386654Y-20979988D01*
X21499983Y-20890936D01*
X21617602Y-20807304D01*
X21739322Y-20729279D01*
X21864954Y-20657049D01*
X21994310Y-20590805D01*
X22127201Y-20530733D01*
X22263440Y-20477022D01*
X22402837Y-20429861D01*
X22545204Y-20389439D01*
X22690354Y-20355943D01*
X22838096Y-20329563D01*
X22988243Y-20310487D01*
X23140607Y-20298903D01*
X23295000Y-20295000D01*
D10*
X48509793Y-20295000D02*
X302795198Y-20295000D01*
X48509793Y-57069618D02*
X48509793Y-20295000D01*
X301761906Y-78604932D02*
X305795209Y-78604932D01*
X23295000Y-20295000D02*
X29010004Y-20295000D01*
D11*
X24339929Y-78673026D02*
X24483086Y-78665792D01*
X24622109Y-78644563D01*
X24756293Y-78610043D01*
X24884935Y-78562936D01*
X25007330Y-78503947D01*
X25122774Y-78433782D01*
X25230564Y-78353145D01*
X25329997Y-78262742D01*
X25420367Y-78163276D01*
X25500971Y-78055453D01*
X25571106Y-77939977D01*
X25630068Y-77817555D01*
X25677152Y-77688889D01*
X25711655Y-77554686D01*
X25732872Y-77415650D01*
X25740102Y-77272487D01*
D10*
X24339929Y-75872670D02*
X20294978Y-75872670D01*
X29010004Y-20295000D02*
X29010004Y-57069618D01*
X20294978Y-112294510D02*
X20294978Y-78673026D01*
X305795209Y-23294667D02*
X305795209Y-75905484D01*
D11*
X300412182Y-77254863D02*
X300419150Y-77392864D01*
X300439603Y-77526888D01*
X300472862Y-77656253D01*
X300518250Y-77780281D01*
X300575086Y-77898292D01*
X300642693Y-78009606D01*
X300720393Y-78113544D01*
X300807507Y-78209426D01*
X300903356Y-78296573D01*
X301007262Y-78374305D01*
X301118547Y-78441943D01*
X301236532Y-78498807D01*
X301360539Y-78544217D01*
X301489889Y-78577494D01*
X301623904Y-78597959D01*
X301761906Y-78604932D01*
D10*
X305795209Y-78604932D02*
X305795209Y-112294510D01*
D11*
X301761906Y-75905484D02*
X301623904Y-75912448D01*
X301489889Y-75932891D01*
X301360539Y-75966134D01*
X301236532Y-76011499D01*
X301118547Y-76068310D01*
X301007262Y-76135889D01*
X300903356Y-76213558D01*
X300807507Y-76300640D01*
X300720393Y-76396458D01*
X300642693Y-76500333D01*
X300575086Y-76611589D01*
X300518250Y-76729548D01*
X300472862Y-76853532D01*
X300439603Y-76982864D01*
X300419150Y-77116867D01*
X300412182Y-77254863D01*
X305795209Y-112294510D02*
X305791304Y-112448901D01*
X305779717Y-112601265D01*
X305760636Y-112751413D01*
X305734250Y-112899155D01*
X305700747Y-113044304D01*
X305660315Y-113186672D01*
X305613144Y-113326069D01*
X305559422Y-113462307D01*
X305499337Y-113595199D01*
X305433079Y-113724554D01*
X305360835Y-113850186D01*
X305282795Y-113971906D01*
X305199148Y-114089525D01*
X305110080Y-114202855D01*
X305015783Y-114311707D01*
X304916443Y-114415893D01*
X304812249Y-114515224D01*
X304703391Y-114609513D01*
X304590057Y-114698570D01*
X304472435Y-114782208D01*
X304350714Y-114860237D01*
X304225083Y-114932470D01*
X304095730Y-114998718D01*
X303962844Y-115058792D01*
X303826613Y-115112504D01*
X303687227Y-115159666D01*
X303544873Y-115200090D01*
X303399741Y-115233586D01*
X303252018Y-115259967D01*
X303101895Y-115279043D01*
X302949558Y-115290627D01*
X302795198Y-115294531D01*
M02*
