<svg id="cut" xmlns="http://www.w3.org/2000/svg" viewBox="0 0 1247.49 900.774"><defs><style>.cls-1,.cls-2{fill:none;stroke-miterlimit:10;}.cls-1{stroke:blue;stroke-width:0.003px;}.cls-2{stroke:#000;stroke-width:0.283px;}</style></defs><rect class="cls-1" x="854.026" y="0.001" width="8.504" height="8.504"/><path class="cls-2" d="M357.3,442.521h720.142a11.339,11.339,0,0,0,11.339-11.339v-8.86L1077.163,410.7H1070.5v11.03a11.338,11.338,0,0,0-2.5,2.507H846.468a8.48,8.48,0,0,0-10.579,0H598.862a8.481,8.481,0,0,0-10.58,0H366.752a11.338,11.338,0,0,0-2.5-2.507V285.646a8.475,8.475,0,0,0,0-10.553V139.479l-9.142,9.142-9.141-9.142v291.7A11.339,11.339,0,0,0,357.3,442.521Zm719.859-17.584a5.953,5.953,0,1,1-5.953,5.953A5.952,5.952,0,0,1,1077.163,424.937Zm-235.985,0a5.953,5.953,0,1,1-5.953,5.953A5.953,5.953,0,0,1,841.178,424.937Zm-247.606,0a5.953,5.953,0,1,1-5.953,5.953A5.953,5.953,0,0,1,593.572,424.937ZM357.588,274.417a5.953,5.953,0,1,1-5.953,5.953A5.952,5.952,0,0,1,357.588,274.417Zm2.979,89a2.976,2.976,0,1,1-2.976-2.977A2.975,2.975,0,0,1,360.567,363.42Zm-2.979,61.517a5.953,5.953,0,1,1-5.953,5.953A5.952,5.952,0,0,1,357.588,424.937Z" transform="translate(-14.031 64.469)"/><path class="cls-2" d="M1104.216,383.905H384.075a11.339,11.339,0,0,0-11.339,11.338v8.86l11.622,11.622h6.662V404.7a11.386,11.386,0,0,0,2.5-2.508h221.53a8.48,8.48,0,0,0,10.579,0H862.659a8.48,8.48,0,0,0,10.579,0h221.53a11.386,11.386,0,0,0,2.5,2.508V540.78a8.478,8.478,0,0,0,0,10.553V686.947l9.142-9.142,9.142,9.142v-291.7A11.339,11.339,0,0,0,1104.216,383.905ZM384.358,401.488a5.953,5.953,0,1,1,5.953-5.952A5.952,5.952,0,0,1,384.358,401.488Zm235.984,0a5.953,5.953,0,1,1,5.953-5.952A5.952,5.952,0,0,1,620.342,401.488Zm247.607,0a5.953,5.953,0,1,1,5.952-5.952A5.952,5.952,0,0,1,867.949,401.488Zm235.984,150.521a5.953,5.953,0,1,1,5.953-5.953A5.953,5.953,0,0,1,1103.933,552.009Zm-2.98-89a2.977,2.977,0,1,1,2.977,2.976A2.977,2.977,0,0,1,1100.953,463.006Zm2.98-61.518a5.953,5.953,0,1,1,5.953-5.952A5.952,5.952,0,0,1,1103.933,401.488Z" transform="translate(-14.031 64.469)"/><path class="cls-2" d="M1261.38,824.824V104.683a11.339,11.339,0,0,0-11.339-11.339h-8.86l-11.622,11.622v6.662h11.029a11.407,11.407,0,0,0,2.508,2.5v221.53a8.48,8.48,0,0,0,0,10.579V583.267a8.48,8.48,0,0,0,0,10.579v221.53a11.407,11.407,0,0,0-2.508,2.5H1104.5a8.477,8.477,0,0,0-10.552,0H958.338l9.141,9.142-9.141,9.142h291.7A11.339,11.339,0,0,0,1261.38,824.824ZM1243.8,104.966a5.953,5.953,0,1,1,5.953,5.953A5.953,5.953,0,0,1,1243.8,104.966Zm0,235.984a5.953,5.953,0,1,1,5.953,5.953A5.952,5.952,0,0,1,1243.8,340.95Zm0,247.607a5.953,5.953,0,1,1,5.953,5.952A5.953,5.953,0,0,1,1243.8,588.557Zm-150.52,235.984a5.953,5.953,0,1,1,5.952,5.953A5.952,5.952,0,0,1,1093.276,824.541Zm150.52,0a5.953,5.953,0,1,1,5.953,5.953A5.953,5.953,0,0,1,1243.8,824.541Z" transform="translate(-14.031 64.469)"/><path class="cls-2" d="M34.947,756.992l9.142-9.142-9.142-9.141,0,.008v-.011a11.37,11.37,0,0,0-2.487-2.487V514.862a8.49,8.49,0,0,0,0-10.952V267.256a8.492,8.492,0,0,0,0-10.953V34.946a11.344,11.344,0,0,0,2.489-2.489h136.12a8.477,8.477,0,0,0,10.552,0h93.874V25.8L263.87,14.173H25.512A11.339,11.339,0,0,0,14.173,25.512V745.654a11.339,11.339,0,0,0,11.339,11.338h9.432v-.008ZM19.851,25.8A5.953,5.953,0,1,1,25.8,31.748,5.954,5.954,0,0,1,19.851,25.8Zm150.539,0a5.953,5.953,0,1,1,5.952,5.953A5.953,5.953,0,0,1,170.39,25.8ZM20,261.779a5.953,5.953,0,1,1,5.952,5.953A5.952,5.952,0,0,1,20,261.779Zm-.152,247.607a5.953,5.953,0,1,1,5.953,5.953A5.953,5.953,0,0,1,19.851,509.386Zm0,235.984a5.953,5.953,0,1,1,5.953,5.953A5.953,5.953,0,0,1,19.851,745.37Z" transform="translate(-14.031 64.469)"/><path class="cls-2" d="M73.467,785.574l9.142-9.142-9.142-9.142,0,.009v-.011a11.348,11.348,0,0,0-2.487-2.487V543.444a8.492,8.492,0,0,0,0-10.953V295.837a8.49,8.49,0,0,0,0-10.952V63.528a11.349,11.349,0,0,0,2.489-2.49h136.12a8.473,8.473,0,0,0,10.552,0h93.874V54.377L302.39,42.755H64.032A11.339,11.339,0,0,0,52.693,54.094V774.235a11.339,11.339,0,0,0,11.339,11.339h9.432v-.009Zm-15.1-731.2a5.953,5.953,0,1,1,5.953,5.953A5.953,5.953,0,0,1,58.371,54.377Zm150.539,0a5.953,5.953,0,1,1,5.952,5.953A5.952,5.952,0,0,1,208.91,54.377ZM58.523,290.361a5.953,5.953,0,1,1,5.952,5.953A5.953,5.953,0,0,1,58.523,290.361Zm-.152,247.607a5.953,5.953,0,1,1,5.953,5.952A5.953,5.953,0,0,1,58.371,537.968Zm0,235.984a5.953,5.953,0,1,1,5.953,5.953A5.953,5.953,0,0,1,58.371,773.952Z" transform="translate(-14.031 64.469)"/><path class="cls-2" d="M111.95,814.255l9.142-9.142-9.142-9.142,0,.009v-.012a11.365,11.365,0,0,0-2.487-2.486V572.125a8.488,8.488,0,0,0,0-10.953V324.518a8.487,8.487,0,0,0,0-10.952V92.209a11.375,11.375,0,0,0,2.49-2.49H248.069a8.475,8.475,0,0,0,10.553,0H352.5V83.058L340.873,71.436H102.515A11.339,11.339,0,0,0,91.176,82.774V802.916a11.339,11.339,0,0,0,11.339,11.339h9.432v-.009ZM96.855,83.058a5.953,5.953,0,1,1,5.952,5.953A5.952,5.952,0,0,1,96.855,83.058Zm150.538,0a5.953,5.953,0,1,1,5.952,5.953A5.952,5.952,0,0,1,247.393,83.058ZM97.006,319.042A5.953,5.953,0,1,1,102.959,325,5.953,5.953,0,0,1,97.006,319.042Zm-.151,247.606a5.953,5.953,0,1,1,5.952,5.953A5.952,5.952,0,0,1,96.855,566.648Zm0,235.985a5.953,5.953,0,1,1,5.952,5.953A5.952,5.952,0,0,1,96.855,802.633Z" transform="translate(-14.031 64.469)"/><path class="cls-2" d="M1088.776,471.791h.009v-9.432a11.339,11.339,0,0,0-11.339-11.339H357.3a11.339,11.339,0,0,0-11.338,11.339V700.717l11.622,11.622h6.661V618.466a8.475,8.475,0,0,0,0-10.553V471.794a11.375,11.375,0,0,0,2.49-2.49H588.1a8.487,8.487,0,0,0,10.952,0H835.7a8.487,8.487,0,0,0,10.952,0h221.357a11.37,11.37,0,0,0,2.487,2.487h.012l-.009,0,9.142,9.142,9.142-9.142Zm-725.236-9.14a5.953,5.953,0,1,1-5.952-5.952A5.952,5.952,0,0,1,363.54,462.651Zm0,150.539a5.953,5.953,0,1,1-5.952-5.953A5.952,5.952,0,0,1,363.54,613.19ZM599.525,462.8a5.953,5.953,0,1,1-5.953-5.953A5.952,5.952,0,0,1,599.525,462.8Zm247.606-.152a5.953,5.953,0,1,1-5.953-5.952A5.953,5.953,0,0,1,847.131,462.651Zm235.984,0a5.953,5.953,0,1,1-5.952-5.952A5.952,5.952,0,0,1,1083.115,462.651Z" transform="translate(-14.031 64.469)"/><path class="cls-2" d="M1221.062,796.161V76.02a11.339,11.339,0,0,0-11.339-11.339h-8.859L1189.242,76.3v6.661h11.029a11.386,11.386,0,0,0,2.507,2.5V307a8.48,8.48,0,0,0,0,10.579V554.6a8.48,8.48,0,0,0,0,10.579v221.53a11.381,11.381,0,0,0-2.507,2.5H1145.4v.706l3.438,5.953-3.436,5.953h-6.874l-3.437-5.953,3.438-5.953v-.706h-74.337a8.478,8.478,0,0,0-10.553,0H918.02l9.142,9.142L918.02,807.5h291.7A11.339,11.339,0,0,0,1221.062,796.161ZM1203.478,76.3a5.953,5.953,0,1,1,5.953,5.953A5.953,5.953,0,0,1,1203.478,76.3Zm0,235.984a5.953,5.953,0,1,1,5.953,5.953A5.953,5.953,0,0,1,1203.478,312.287Zm0,247.607a5.953,5.953,0,1,1,5.953,5.952A5.953,5.953,0,0,1,1203.478,559.894Zm-150.52,235.984a5.953,5.953,0,1,1,5.953,5.953A5.953,5.953,0,0,1,1052.958,795.878Zm150.52,0a5.953,5.953,0,1,1,5.953,5.953A5.953,5.953,0,0,1,1203.478,795.878Z" transform="translate(-14.031 64.469)"/><path class="cls-2" d="M299.254,155.007H242.42V98.386l-9.5,9.5-9.5-9.5V810.66A11.338,11.338,0,0,0,234.765,822H309.92v0l9.492-9.492-9.492-9.492V98.392l-5.329,5.329-5.336-5.336ZM232.09,326.786a2.977,2.977,0,1,1,2.977,2.977A2.977,2.977,0,0,1,232.09,326.786Zm0,247.607a2.977,2.977,0,1,1,2.977,2.976A2.977,2.977,0,0,1,232.09,574.393Zm0,235.984a2.977,2.977,0,1,1,2.977,2.976A2.976,2.976,0,0,1,232.09,810.377Zm67.164-185.7v56.835H242.42V624.672Zm0-229.5V614.007H242.42V395.172Zm0-229.5V384.507H242.42V165.672Z" transform="translate(-14.031 64.469)"/><path class="cls-2" d="M1141.325,399.345h-7.654l-9.5,9.5,9.5,9.5v56.834h0l-5.336,5.336,5.336,5.336V704.673H428.836V486.118l-9.5,9.5-9.5-9.5V712.327a11.339,11.339,0,0,0,11.339,11.338h720.142a11.338,11.338,0,0,0,11.338-11.338V410.683A11.338,11.338,0,0,0,1141.325,399.345ZM421.466,715.02a2.977,2.977,0,1,1,2.977-2.977A2.977,2.977,0,0,1,421.466,715.02Zm0-150.539a2.976,2.976,0,1,1,2.977-2.976A2.976,2.976,0,0,1,421.466,564.481ZM657.451,715.02a2.977,2.977,0,1,1,2.976-2.977A2.977,2.977,0,0,1,657.451,715.02Zm247.606,0a2.977,2.977,0,1,1,2.976-2.977A2.976,2.976,0,0,1,905.057,715.02Zm235.984,0a2.977,2.977,0,1,1,2.977-2.977A2.976,2.976,0,0,1,1141.041,715.02Zm0-150.539a2.976,2.976,0,1,1,2.977-2.976A2.975,2.975,0,0,1,1141.041,564.481Zm0-150.52a2.977,2.977,0,1,1,2.977-2.976A2.975,2.975,0,0,1,1141.041,413.961Z" transform="translate(-14.031 64.469)"/><path class="cls-2" d="M1141.256,51.136H421.114a11.338,11.338,0,0,0-11.338,11.338V364.117a11.339,11.339,0,0,0,11.338,11.339h720.142a11.339,11.339,0,0,0,11.338-11.339V62.474A11.338,11.338,0,0,0,1141.256,51.136ZM904.988,59.8a2.977,2.977,0,1,1-2.976,2.976A2.977,2.977,0,0,1,904.988,59.8Zm-57.72,10.329H1066.1v56.835H847.268ZM657.382,59.8a2.977,2.977,0,1,1-2.976,2.976A2.976,2.976,0,0,1,657.382,59.8ZM617.768,70.128H836.6v56.835H617.768Zm-67.5,0H607.1v56.835H550.268ZM421.4,366.81a2.977,2.977,0,1,1,2.976-2.976A2.976,2.976,0,0,1,421.4,366.81Zm0-150.538a2.977,2.977,0,1,1,2.976-2.976A2.977,2.977,0,0,1,421.4,216.272Zm0-150.52a2.977,2.977,0,1,1,2.976-2.977A2.977,2.977,0,0,1,421.4,65.752ZM657.382,366.81a2.977,2.977,0,1,1,2.976-2.976A2.975,2.975,0,0,1,657.382,366.81Zm247.606,0a2.977,2.977,0,1,1,2.977-2.976A2.975,2.975,0,0,1,904.988,366.81ZM1133.6,356.464H428.768V137.629H1133.6Zm0-229.5h-56.834V70.128H1133.6Zm7.37,239.847a2.977,2.977,0,1,1,2.977-2.976A2.976,2.976,0,0,1,1140.972,366.81Zm0-150.538a2.977,2.977,0,1,1,2.977-2.976A2.977,2.977,0,0,1,1140.972,216.272Zm0-150.52a2.977,2.977,0,1,1,2.977-2.977A2.977,2.977,0,0,1,1140.972,65.752Z" transform="translate(-14.031 64.469)"/><path class="cls-2" d="M204.318,154.86H147.483V98.239l-9.5,9.495-9.5-9.5,0,712.276a11.339,11.339,0,0,0,11.339,11.338h8.859l9.2-9.2a1.418,1.418,0,0,0-1-2.42h-9.406V705.04h56.835v97.617l5.336-5.337,5.33,5.329V98.245l-5.33,5.329-5.336-5.336ZM143.106,810.23a2.976,2.976,0,1,1-2.976-2.976A2.976,2.976,0,0,1,143.106,810.23Zm-5.952-483.59a2.976,2.976,0,1,1,2.976,2.976A2.976,2.976,0,0,1,137.154,326.64Zm0,247.606a2.976,2.976,0,1,1,2.976,2.977A2.975,2.975,0,0,1,137.154,574.246Zm67.164,50.28V681.36H147.483V624.526Zm0-229.5V613.86H147.483V395.026Zm0-229.5V384.36H147.483V165.526Z" transform="translate(-14.031 64.469)"/><path class="cls-2" d="M855.8,25.512v7.653h0l9.5,9.5,9.5-9.5h56.835l5.336,5.337,5.336-5.337h218.828V738H942.29l-5.328-5.328L931.634,738h-.009v7.37h-9.4a1.417,1.417,0,0,0-1,2.42l9.2,9.2h238.358a11.338,11.338,0,0,0,11.339-11.339V25.512a11.339,11.339,0,0,0-11.339-11.339H867.136A11.339,11.339,0,0,0,855.8,25.512ZM1171.472,745.37a2.976,2.976,0,1,1-2.976-2.976A2.976,2.976,0,0,1,1171.472,745.37Zm-150.538,0a2.977,2.977,0,1,1-2.976-2.976A2.976,2.976,0,0,1,1020.934,745.37Zm150.538-235.984a2.976,2.976,0,1,1-2.976-2.977A2.975,2.975,0,0,1,1171.472,509.386Zm0-247.606a2.976,2.976,0,1,1-2.976-2.977A2.976,2.976,0,0,1,1171.472,261.78Zm0-235.985a2.976,2.976,0,1,1-2.976-2.976A2.976,2.976,0,0,1,1171.472,25.8Zm-150.538,0a2.977,2.977,0,1,1-2.976-2.976A2.976,2.976,0,0,1,1020.934,25.8Zm-150.52,0a2.977,2.977,0,1,1-2.976-2.976A2.977,2.977,0,0,1,870.414,25.8Z" transform="translate(-14.031 64.469)"/></svg>