<svg id="cut" xmlns="http://www.w3.org/2000/svg" viewBox="0 0 1247.49 822.273"><defs><style>.cls-1{fill:none;stroke:#231815;stroke-miterlimit:10;stroke-width:0.283px;}</style></defs><path class="cls-1" d="M357.323,442.55h720.142a11.339,11.339,0,0,0,11.338-11.339v-8.86l-11.622-11.622h-6.661v11.029a11.364,11.364,0,0,0-2.5,2.508H846.487a8.481,8.481,0,0,0-10.58,0H598.88a8.48,8.48,0,0,0-10.579,0H366.771a11.364,11.364,0,0,0-2.5-2.508V285.674a8.477,8.477,0,0,0,0-10.552V139.508l-9.142,9.141-9.141-9.141v291.7A11.339,11.339,0,0,0,357.323,442.55Z" transform="translate(-14.05 -14.06)"/><path class="cls-1" d="M1104.235,383.933H384.093a11.339,11.339,0,0,0-11.338,11.339v8.86l11.622,11.622h6.661V404.725a11.39,11.39,0,0,0,2.5-2.508h221.53a8.48,8.48,0,0,0,10.579,0H862.678a8.48,8.48,0,0,0,10.579,0h221.53a11.386,11.386,0,0,0,2.5,2.508V540.809a8.477,8.477,0,0,0,0,10.552V686.975l9.142-9.141,9.142,9.141v-291.7A11.339,11.339,0,0,0,1104.235,383.933Z" transform="translate(-14.05 -14.06)"/><path class="cls-1" d="M1261.4,824.853V104.711a11.338,11.338,0,0,0-11.338-11.338h-8.86L1229.578,105v6.661h11.029a11.369,11.369,0,0,0,2.508,2.5V335.689a8.481,8.481,0,0,0,0,10.58V583.3a8.48,8.48,0,0,0,0,10.579v221.53a11.364,11.364,0,0,0-2.508,2.5H1104.523a8.478,8.478,0,0,0-10.553,0H958.356l9.142,9.142-9.142,9.142h291.7A11.339,11.339,0,0,0,1261.4,824.853Z" transform="translate(-14.05 -14.06)"/><path class="cls-1" d="M34.966,757.021l9.142-9.142-9.142-9.142,0,.009v-.011a11.348,11.348,0,0,0-2.487-2.487V514.891a8.492,8.492,0,0,0,0-10.953V267.284a8.49,8.49,0,0,0,0-10.952V34.975a11.371,11.371,0,0,0,2.489-2.49H171.084a8.475,8.475,0,0,0,10.553,0h93.874V25.824L263.889,14.2H25.531A11.339,11.339,0,0,0,14.192,25.541V745.682a11.339,11.339,0,0,0,11.339,11.339h9.432v-.009Z" transform="translate(-14.05 -14.06)"/><path class="cls-1" d="M73.486,785.6l9.142-9.142-9.142-9.142,0,.009v-.012A11.37,11.37,0,0,0,71,764.829V543.472a8.49,8.49,0,0,0,0-10.952V295.866a8.49,8.49,0,0,0,0-10.952V63.557a11.371,11.371,0,0,0,2.489-2.49H209.6a8.475,8.475,0,0,0,10.553,0h93.874V54.406L302.409,42.784H64.051A11.339,11.339,0,0,0,52.712,54.122V774.264A11.339,11.339,0,0,0,64.051,785.6h9.432v-.009Z" transform="translate(-14.05 -14.06)"/><path class="cls-1" d="M111.969,814.284l9.142-9.142L111.969,796l0,.009V796a11.37,11.37,0,0,0-2.487-2.487V572.153a8.49,8.49,0,0,0,0-10.952V324.547a8.49,8.49,0,0,0,0-10.952V92.238a11.349,11.349,0,0,0,2.489-2.49h136.12a8.473,8.473,0,0,0,10.552,0h93.874V83.087L340.892,71.465H102.534A11.339,11.339,0,0,0,91.2,82.8V802.945a11.339,11.339,0,0,0,11.339,11.339h9.432v-.009Z" transform="translate(-14.05 -14.06)"/><path class="cls-1" d="M299.273,155.036H242.438V98.414l-9.495,9.5-9.5-9.5V810.689a11.339,11.339,0,0,0,11.338,11.339h75.155v0l9.492-9.491-9.492-9.492V98.421l-5.329,5.329-5.336-5.336Z" transform="translate(-14.05 -14.06)"/><path class="cls-1" d="M1141.344,399.374h-7.654l-9.5,9.5,9.5,9.5V475.2h0l-5.336,5.336,5.336,5.336V704.7H428.855V486.146l-9.5,9.5-9.5-9.5V712.355A11.339,11.339,0,0,0,421.2,723.694h720.141a11.339,11.339,0,0,0,11.339-11.339V410.712A11.338,11.338,0,0,0,1141.344,399.374Z" transform="translate(-14.05 -14.06)"/><path class="cls-1" d="M1141.275,51.164H421.133A11.339,11.339,0,0,0,409.794,62.5V364.146a11.339,11.339,0,0,0,11.339,11.339h720.142a11.339,11.339,0,0,0,11.338-11.339V62.5A11.339,11.339,0,0,0,1141.275,51.164Z" transform="translate(-14.05 -14.06)"/><path class="cls-1" d="M204.336,154.889H147.5V98.268l-9.5,9.5-9.5-9.5V810.543a11.338,11.338,0,0,0,11.339,11.338h8.859l9.2-9.2a1.418,1.418,0,0,0-1-2.42H147.5V705.068h56.834v97.618l5.337-5.337L215,802.678V98.274l-5.329,5.329-5.336-5.336Z" transform="translate(-14.05 -14.06)"/><path class="cls-1" d="M855.817,25.541v7.653h0l9.5,9.5,9.5-9.5h56.835l5.336,5.336,5.336-5.336h218.828V738.029H942.309l-5.328-5.328-5.328,5.328h-.009v7.37h-9.4a1.417,1.417,0,0,0-1,2.419l9.2,9.2H1168.8a11.339,11.339,0,0,0,11.339-11.339V25.541A11.339,11.339,0,0,0,1168.8,14.2H867.155A11.338,11.338,0,0,0,855.817,25.541Z" transform="translate(-14.05 -14.06)"/><path class="cls-1" d="M1221.08,796.19V76.048a11.338,11.338,0,0,0-11.339-11.338h-8.859l-9.385,9.384a.709.709,0,0,0,.5,1.21h9.93v9.456a10.187,10.187,0,0,0,.869.737v221.53a8.478,8.478,0,0,0,0,10.58V554.633a8.476,8.476,0,0,0,0,10.579v221.53a11.364,11.364,0,0,0-2.508,2.5h-54.875v.706l3.438,5.953-3.437,5.952h-6.874L1135.1,795.9l3.438-5.953v-.706h-74.337a8.478,8.478,0,0,0-10.553,0H918.038l9.142,9.142-9.142,9.142h291.7A11.339,11.339,0,0,0,1221.08,796.19Z" transform="translate(-14.05 -14.06)"/><path class="cls-1" d="M1088.8,471.81h.008v-9.432a11.338,11.338,0,0,0-11.338-11.338H357.323a11.338,11.338,0,0,0-11.338,11.338V700.737l9.384,9.384a.708.708,0,0,0,1.21-.5v-7.27h7.689V618.485a8.475,8.475,0,0,0,0-10.553V471.813a11.375,11.375,0,0,0,2.49-2.49H588.115a8.487,8.487,0,0,0,10.952,0H835.721a8.487,8.487,0,0,0,10.952,0H1068.03a11.348,11.348,0,0,0,2.487,2.487h.011l-.008,0,9.142,9.142,9.141-9.142Z" transform="translate(-14.05 -14.06)"/><path class="cls-1" d="M1077.181,424.966a5.953,5.953,0,1,1-5.952,5.953A5.953,5.953,0,0,1,1077.181,424.966Zm-235.984,0a5.953,5.953,0,1,1-5.953,5.953A5.953,5.953,0,0,1,841.2,424.966Zm-247.606,0a5.953,5.953,0,1,1-5.953,5.953A5.953,5.953,0,0,1,593.591,424.966ZM357.607,274.446a5.953,5.953,0,1,1-5.953,5.952A5.952,5.952,0,0,1,357.607,274.446Zm2.979,89a2.976,2.976,0,1,1-2.976-2.976A2.976,2.976,0,0,1,360.586,363.448Zm-2.979,61.518a5.953,5.953,0,1,1-5.953,5.953A5.952,5.952,0,0,1,357.607,424.966Z" transform="translate(-14.05 -14.06)"/><path class="cls-1" d="M384.377,401.517a5.953,5.953,0,1,1,5.953-5.953A5.953,5.953,0,0,1,384.377,401.517Zm235.984,0a5.953,5.953,0,1,1,5.953-5.953A5.953,5.953,0,0,1,620.361,401.517Zm247.607,0a5.953,5.953,0,1,1,5.952-5.953A5.953,5.953,0,0,1,867.968,401.517Zm235.984,150.52a5.953,5.953,0,1,1,5.953-5.952A5.952,5.952,0,0,1,1103.952,552.037Zm-2.98-89a2.977,2.977,0,1,1,2.976,2.977A2.977,2.977,0,0,1,1100.972,463.034Zm2.98-61.517a5.953,5.953,0,1,1,5.953-5.953A5.953,5.953,0,0,1,1103.952,401.517Z" transform="translate(-14.05 -14.06)"/><path class="cls-1" d="M1243.815,105a5.953,5.953,0,1,1,5.952,5.953A5.952,5.952,0,0,1,1243.815,105Zm0,235.984a5.953,5.953,0,1,1,5.952,5.953A5.953,5.953,0,0,1,1243.815,340.979Zm0,247.606a5.953,5.953,0,1,1,5.952,5.953A5.952,5.952,0,0,1,1243.815,588.585ZM1093.3,824.57a5.953,5.953,0,1,1,5.952,5.952A5.952,5.952,0,0,1,1093.3,824.57Zm150.52,0a5.953,5.953,0,1,1,5.952,5.952A5.952,5.952,0,0,1,1243.815,824.57Z" transform="translate(-14.05 -14.06)"/><path class="cls-1" d="M19.87,25.824a5.953,5.953,0,1,1,5.953,5.953A5.953,5.953,0,0,1,19.87,25.824Zm150.538,0a5.953,5.953,0,1,1,5.953,5.953A5.953,5.953,0,0,1,170.408,25.824ZM20.022,261.808a5.953,5.953,0,1,1,5.952,5.953A5.952,5.952,0,0,1,20.022,261.808ZM19.87,509.415a5.953,5.953,0,1,1,5.953,5.952A5.953,5.953,0,0,1,19.87,509.415Zm0,235.984a5.953,5.953,0,1,1,5.953,5.953A5.953,5.953,0,0,1,19.87,745.4Z" transform="translate(-14.05 -14.06)"/><path class="cls-1" d="M58.39,54.406a5.953,5.953,0,1,1,5.953,5.953A5.953,5.953,0,0,1,58.39,54.406Zm150.538,0a5.953,5.953,0,1,1,5.953,5.953A5.953,5.953,0,0,1,208.928,54.406ZM58.542,290.39a5.953,5.953,0,1,1,5.952,5.953A5.952,5.952,0,0,1,58.542,290.39ZM58.39,538a5.953,5.953,0,1,1,5.953,5.953A5.952,5.952,0,0,1,58.39,538Zm0,235.985a5.953,5.953,0,1,1,5.953,5.952A5.953,5.953,0,0,1,58.39,773.981Z" transform="translate(-14.05 -14.06)"/><path class="cls-1" d="M96.873,83.087a5.953,5.953,0,1,1,5.953,5.952A5.953,5.953,0,0,1,96.873,83.087Zm150.539,0a5.953,5.953,0,1,1,5.952,5.952A5.952,5.952,0,0,1,247.412,83.087ZM97.025,319.071a5.953,5.953,0,1,1,5.952,5.953A5.952,5.952,0,0,1,97.025,319.071Zm-.152,247.606a5.953,5.953,0,1,1,5.953,5.953A5.953,5.953,0,0,1,96.873,566.677Zm0,235.985a5.953,5.953,0,1,1,5.953,5.952A5.953,5.953,0,0,1,96.873,802.662Z" transform="translate(-14.05 -14.06)"/><path class="cls-1" d="M363.559,462.68a5.953,5.953,0,1,1-5.952-5.953A5.952,5.952,0,0,1,363.559,462.68Zm0,150.538a5.953,5.953,0,1,1-5.952-5.952A5.952,5.952,0,0,1,363.559,613.218ZM599.544,462.831a5.953,5.953,0,1,1-5.953-5.952A5.953,5.953,0,0,1,599.544,462.831Zm247.606-.151a5.953,5.953,0,1,1-5.953-5.953A5.953,5.953,0,0,1,847.15,462.68Zm235.984,0a5.953,5.953,0,1,1-5.953-5.953A5.953,5.953,0,0,1,1083.134,462.68Z" transform="translate(-14.05 -14.06)"/><path class="cls-1" d="M1203.5,76.332a5.953,5.953,0,1,1,5.953,5.952A5.953,5.953,0,0,1,1203.5,76.332Zm0,235.984a5.953,5.953,0,1,1,5.953,5.953A5.953,5.953,0,0,1,1203.5,312.316Zm0,247.606a5.953,5.953,0,1,1,5.953,5.953A5.952,5.952,0,0,1,1203.5,559.922Zm-150.52,235.985a5.953,5.953,0,1,1,5.953,5.952A5.953,5.953,0,0,1,1052.977,795.907Zm150.52,0a5.953,5.953,0,1,1,5.953,5.952A5.953,5.953,0,0,1,1203.5,795.907Z" transform="translate(-14.05 -14.06)"/><path class="cls-1" d="M232.109,326.815a2.977,2.977,0,1,1,2.977,2.977A2.976,2.976,0,0,1,232.109,326.815Zm0,247.607a2.977,2.977,0,1,1,2.977,2.976A2.977,2.977,0,0,1,232.109,574.422Zm0,235.984a2.977,2.977,0,1,1,2.977,2.976A2.977,2.977,0,0,1,232.109,810.406Zm67.164-185.7v56.835H242.438V624.7Zm0-229.5V614.036H242.438V395.2Zm0-229.5V384.536H242.438V165.7Z" transform="translate(-14.05 -14.06)"/><path class="cls-1" d="M421.485,715.048a2.976,2.976,0,1,1,2.977-2.976A2.975,2.975,0,0,1,421.485,715.048Zm0-150.538a2.977,2.977,0,1,1,2.977-2.976A2.975,2.975,0,0,1,421.485,564.51ZM657.469,715.048a2.976,2.976,0,1,1,2.977-2.976A2.976,2.976,0,0,1,657.469,715.048Zm247.607,0a2.976,2.976,0,1,1,2.976-2.976A2.976,2.976,0,0,1,905.076,715.048Zm235.984,0a2.976,2.976,0,1,1,2.976-2.976A2.975,2.975,0,0,1,1141.06,715.048Zm0-150.538a2.977,2.977,0,1,1,2.976-2.976A2.975,2.975,0,0,1,1141.06,564.51Zm0-150.52a2.977,2.977,0,1,1,2.976-2.976A2.976,2.976,0,0,1,1141.06,413.99Z" transform="translate(-14.05 -14.06)"/><path class="cls-1" d="M905.007,59.828a2.977,2.977,0,1,1-2.976,2.976A2.975,2.975,0,0,1,905.007,59.828Zm-57.72,10.329h218.834v56.835H847.287ZM657.4,59.828a2.977,2.977,0,1,1-2.977,2.976A2.975,2.975,0,0,1,657.4,59.828ZM617.787,70.157H836.621v56.835H617.787Zm-67.5,0h56.834v56.835H550.287ZM421.417,366.839a2.977,2.977,0,1,1,2.976-2.976A2.977,2.977,0,0,1,421.417,366.839Zm0-150.538a2.977,2.977,0,1,1,2.976-2.977A2.977,2.977,0,0,1,421.417,216.3Zm0-150.52a2.977,2.977,0,1,1,2.976-2.977A2.977,2.977,0,0,1,421.417,65.781ZM657.4,366.839a2.977,2.977,0,1,1,2.976-2.976A2.977,2.977,0,0,1,657.4,366.839Zm247.606,0a2.977,2.977,0,1,1,2.976-2.976A2.976,2.976,0,0,1,905.007,366.839Zm228.614-10.347H428.787V137.658h704.834Zm0-229.5h-56.834V70.157h56.834Zm7.37,239.847a2.977,2.977,0,1,1,2.977-2.976A2.976,2.976,0,0,1,1140.991,366.839Zm0-150.538a2.977,2.977,0,1,1,2.977-2.977A2.976,2.976,0,0,1,1140.991,216.3Zm0-150.52a2.977,2.977,0,1,1,2.977-2.977A2.976,2.976,0,0,1,1140.991,65.781Z" transform="translate(-14.05 -14.06)"/><path class="cls-1" d="M143.125,810.259a2.977,2.977,0,1,1-2.976-2.976A2.976,2.976,0,0,1,143.125,810.259Zm-5.953-483.59a2.977,2.977,0,1,1,2.977,2.976A2.977,2.977,0,0,1,137.172,326.669Zm0,247.606a2.977,2.977,0,1,1,2.977,2.976A2.976,2.976,0,0,1,137.172,574.275Zm67.164,50.279v56.835H147.5V624.554Zm0-229.5V613.889H147.5V395.054Zm0-229.5V384.389H147.5V165.554Z" transform="translate(-14.05 -14.06)"/><path class="cls-1" d="M1171.491,745.4a2.977,2.977,0,1,1-2.976-2.976A2.975,2.975,0,0,1,1171.491,745.4Zm-150.538,0a2.977,2.977,0,1,1-2.976-2.976A2.975,2.975,0,0,1,1020.953,745.4Zm150.538-235.984a2.977,2.977,0,1,1-2.976-2.977A2.976,2.976,0,0,1,1171.491,509.415Zm0-247.607a2.977,2.977,0,1,1-2.976-2.976A2.976,2.976,0,0,1,1171.491,261.808Zm0-235.984a2.977,2.977,0,1,1-2.976-2.976A2.975,2.975,0,0,1,1171.491,25.824Zm-150.538,0a2.977,2.977,0,1,1-2.976-2.976A2.975,2.975,0,0,1,1020.953,25.824Zm-150.52,0a2.977,2.977,0,1,1-2.977-2.976A2.976,2.976,0,0,1,870.433,25.824Z" transform="translate(-14.05 -14.06)"/></svg>