%TF.GenerationSoftware,KiCad,Pcbnew,(5.1.9-0-10_14)*%
%TF.CreationDate,2021-04-02T11:44:49+09:00*%
%TF.ProjectId,reviung34,72657669-756e-4673-9334-2e6b69636164,1*%
%TF.SameCoordinates,Original*%
%TF.FileFunction,Profile,NP*%
%FSLAX46Y46*%
G04 Gerber Fmt 4.6, Leading zero omitted, Abs format (unit mm)*
G04 Created by KiCad (PCBNEW (5.1.9-0-10_14)) date 2021-04-02 11:44:49*
%MOMM*%
%LPD*%
G01*
G04 APERTURE LIST*
%TA.AperFunction,Profile*%
%ADD10C,0.200000*%
%TD*%
G04 APERTURE END LIST*
D10*
X123058288Y-31343422D02*
X120319015Y-46882814D01*
X64177823Y-103414776D02*
X82723549Y-110541130D01*
X172568228Y-38988975D02*
X124216765Y-30532213D01*
X124216765Y-30532213D02*
X124014755Y-30517223D01*
X124014755Y-30517223D02*
X123772668Y-30554043D01*
X123772668Y-30554043D02*
X123550658Y-30646646D01*
X123550658Y-30646646D02*
X123357822Y-30788661D01*
X123357822Y-30788661D02*
X123203261Y-30973715D01*
X123203261Y-30973715D02*
X123096075Y-31195438D01*
X123096075Y-31195438D02*
X123058288Y-31343422D01*
X30809115Y-96693933D02*
X30770939Y-96998845D01*
X30770939Y-96998845D02*
X30763855Y-97300243D01*
X30763855Y-97300243D02*
X30786636Y-97596377D01*
X30786636Y-97596377D02*
X30838058Y-97885497D01*
X30838058Y-97885497D02*
X30916895Y-98165852D01*
X30916895Y-98165852D02*
X31021924Y-98435694D01*
X31021924Y-98435694D02*
X31151918Y-98693273D01*
X31151918Y-98693273D02*
X31305654Y-98936838D01*
X31305654Y-98936838D02*
X31481906Y-99164641D01*
X31481906Y-99164641D02*
X31679449Y-99374932D01*
X31679449Y-99374932D02*
X31897058Y-99565960D01*
X31897058Y-99565960D02*
X32133509Y-99735976D01*
X32133509Y-99735976D02*
X32387576Y-99883231D01*
X32387576Y-99883231D02*
X32658035Y-100005975D01*
X32658035Y-100005975D02*
X32943661Y-100102458D01*
X32943661Y-100102458D02*
X33243229Y-100170930D01*
X40582406Y-41466435D02*
X30809115Y-96693933D01*
X104714585Y-44666328D02*
X103884750Y-42756677D01*
X103884750Y-42756677D02*
X103777184Y-42568189D01*
X103777184Y-42568189D02*
X103633820Y-42409464D01*
X103633820Y-42409464D02*
X103460557Y-42285158D01*
X103460557Y-42285158D02*
X103263295Y-42199927D01*
X103263295Y-42199927D02*
X103142070Y-42170560D01*
X93778781Y-131612249D02*
X116151731Y-137589783D01*
X93104760Y-131008050D02*
X93199085Y-131192011D01*
X93199085Y-131192011D02*
X93327309Y-131350692D01*
X93327309Y-131350692D02*
X93484587Y-131479748D01*
X93484587Y-131479748D02*
X93666071Y-131574836D01*
X93666071Y-131574836D02*
X93778781Y-131612249D01*
X84371394Y-112084401D02*
X93104760Y-131008050D01*
X182105793Y-131590117D02*
X182298967Y-131516269D01*
X182298967Y-131516269D02*
X182470669Y-131405957D01*
X182470669Y-131405957D02*
X182616049Y-131263530D01*
X182616049Y-131263530D02*
X182730259Y-131093341D01*
X182730259Y-131093341D02*
X182779662Y-130985301D01*
X159715143Y-137589783D02*
X182105793Y-131590117D01*
X116151731Y-137589783D02*
X159715143Y-137589783D01*
X222992541Y-103524014D02*
X223201332Y-103523083D01*
X223201332Y-103523083D02*
X223409440Y-103507645D01*
X223409440Y-103507645D02*
X223597398Y-103481067D01*
X212866566Y-103216592D02*
X222992541Y-103524014D01*
X211699091Y-103414981D02*
X211910863Y-103342518D01*
X211910863Y-103342518D02*
X212126946Y-103286158D01*
X212126946Y-103286158D02*
X212346420Y-103246057D01*
X212346420Y-103246057D02*
X212568369Y-103222371D01*
X212568369Y-103222371D02*
X212791876Y-103215254D01*
X212791876Y-103215254D02*
X212866566Y-103216592D01*
X193160652Y-110541355D02*
X211699091Y-103414981D01*
X191513763Y-112083214D02*
X191612697Y-111888104D01*
X191612697Y-111888104D02*
X191724898Y-111701777D01*
X191724898Y-111701777D02*
X191849745Y-111524815D01*
X191849745Y-111524815D02*
X191986618Y-111357797D01*
X191986618Y-111357797D02*
X192134898Y-111201304D01*
X192134898Y-111201304D02*
X192293962Y-111055918D01*
X192293962Y-111055918D02*
X192463193Y-110922218D01*
X192463193Y-110922218D02*
X192641968Y-110800785D01*
X192641968Y-110800785D02*
X192829669Y-110692201D01*
X192829669Y-110692201D02*
X193025674Y-110597045D01*
X193025674Y-110597045D02*
X193160652Y-110541355D01*
X33243229Y-100170930D02*
X52280000Y-103480000D01*
X82723549Y-110541130D02*
X82924913Y-110627058D01*
X82924913Y-110627058D02*
X83118375Y-110726823D01*
X83118375Y-110726823D02*
X83303311Y-110839844D01*
X83303311Y-110839844D02*
X83479101Y-110965539D01*
X83479101Y-110965539D02*
X83645122Y-111103324D01*
X83645122Y-111103324D02*
X83800753Y-111252619D01*
X83800753Y-111252619D02*
X83945374Y-111412841D01*
X83945374Y-111412841D02*
X84078361Y-111583408D01*
X84078361Y-111583408D02*
X84199093Y-111763737D01*
X84199093Y-111763737D02*
X84306950Y-111953247D01*
X84306950Y-111953247D02*
X84371394Y-112084401D01*
X119158787Y-47693706D02*
X105456322Y-45252278D01*
X120319015Y-46882814D02*
X120263928Y-47077996D01*
X120263928Y-47077996D02*
X120146324Y-47293091D01*
X120146324Y-47293091D02*
X119983086Y-47470132D01*
X119983086Y-47470132D02*
X119783351Y-47602734D01*
X119783351Y-47602734D02*
X119556253Y-47684512D01*
X119556253Y-47684512D02*
X119310929Y-47709081D01*
X119310929Y-47709081D02*
X119158787Y-47693706D01*
X43536576Y-38988851D02*
X43266354Y-39000930D01*
X43266354Y-39000930D02*
X43002197Y-39036529D01*
X43002197Y-39036529D02*
X42745251Y-39094688D01*
X42745251Y-39094688D02*
X42496662Y-39174444D01*
X42496662Y-39174444D02*
X42257575Y-39274838D01*
X42257575Y-39274838D02*
X42029135Y-39394908D01*
X42029135Y-39394908D02*
X41812489Y-39533694D01*
X41812489Y-39533694D02*
X41608781Y-39690235D01*
X41608781Y-39690235D02*
X41419159Y-39863570D01*
X41419159Y-39863570D02*
X41244766Y-40052737D01*
X41244766Y-40052737D02*
X41086750Y-40256778D01*
X41086750Y-40256778D02*
X40946255Y-40474729D01*
X40946255Y-40474729D02*
X40824428Y-40705632D01*
X40824428Y-40705632D02*
X40722413Y-40948524D01*
X40722413Y-40948524D02*
X40641357Y-41202445D01*
X40641357Y-41202445D02*
X40582406Y-41466435D01*
X182779662Y-130985301D02*
X191513763Y-112083214D01*
X235304362Y-41467996D02*
X235245512Y-41203881D01*
X235245512Y-41203881D02*
X235164538Y-40949833D01*
X235164538Y-40949833D02*
X235062587Y-40706814D01*
X235062587Y-40706814D02*
X234940804Y-40475786D01*
X234940804Y-40475786D02*
X234800337Y-40257712D01*
X234800337Y-40257712D02*
X234642332Y-40053553D01*
X234642332Y-40053553D02*
X234467935Y-39864272D01*
X234467935Y-39864272D02*
X234278293Y-39690830D01*
X234278293Y-39690830D02*
X234074554Y-39534190D01*
X234074554Y-39534190D02*
X233857863Y-39395313D01*
X233857863Y-39395313D02*
X233629367Y-39275163D01*
X233629367Y-39275163D02*
X233390212Y-39174701D01*
X233390212Y-39174701D02*
X233141546Y-39094889D01*
X233141546Y-39094889D02*
X232884515Y-39036689D01*
X232884515Y-39036689D02*
X232620266Y-39001063D01*
X232620266Y-39001063D02*
X232349945Y-38988975D01*
X245041942Y-96700743D02*
X235304362Y-41467996D01*
X242608016Y-100176225D02*
X242907443Y-100107744D01*
X242907443Y-100107744D02*
X243192940Y-100011278D01*
X243192940Y-100011278D02*
X243463283Y-99888572D01*
X243463283Y-99888572D02*
X243717249Y-99741376D01*
X243717249Y-99741376D02*
X243953613Y-99571436D01*
X243953613Y-99571436D02*
X244171151Y-99380499D01*
X244171151Y-99380499D02*
X244368641Y-99170313D01*
X244368641Y-99170313D02*
X244544859Y-98942625D01*
X244544859Y-98942625D02*
X244698580Y-98699183D01*
X244698580Y-98699183D02*
X244828581Y-98441733D01*
X244828581Y-98441733D02*
X244933639Y-98172024D01*
X244933639Y-98172024D02*
X245012529Y-97891803D01*
X245012529Y-97891803D02*
X245064028Y-97602817D01*
X245064028Y-97602817D02*
X245086912Y-97306813D01*
X245086912Y-97306813D02*
X245079958Y-97005539D01*
X245079958Y-97005539D02*
X245041942Y-96700743D01*
X223597398Y-103481067D02*
X242608016Y-100176225D01*
X232349945Y-38988975D02*
X172568228Y-38988975D01*
X63011018Y-103216520D02*
X63234708Y-103218095D01*
X63234708Y-103218095D02*
X63457148Y-103236272D01*
X63457148Y-103236272D02*
X63677421Y-103270897D01*
X63677421Y-103270897D02*
X63894612Y-103321813D01*
X63894612Y-103321813D02*
X64107805Y-103388866D01*
X64107805Y-103388866D02*
X64177823Y-103414776D01*
X52884510Y-103522948D02*
X63011018Y-103216520D01*
X85185952Y-38988975D02*
X43536576Y-38988851D01*
X103142070Y-42170560D02*
X85185952Y-38988975D01*
X105456322Y-45252278D02*
X105248252Y-45191349D01*
X105248252Y-45191349D02*
X105060798Y-45088779D01*
X105060798Y-45088779D02*
X104899840Y-44949215D01*
X104899840Y-44949215D02*
X104771260Y-44777301D01*
X104771260Y-44777301D02*
X104714585Y-44666328D01*
X52280000Y-103480000D02*
X52486709Y-103508565D01*
X52486709Y-103508565D02*
X52694790Y-103522687D01*
X52694790Y-103522687D02*
X52884510Y-103522948D01*
M02*
