%TF.GenerationSoftware,KiCad,Pcbnew,(5.1.9-0-10_14)*%
%TF.CreationDate,2021-04-02T11:44:49+09:00*%
%TF.ProjectId,reviung34,72657669-756e-4673-9334-2e6b69636164,1*%
%TF.SameCoordinates,Original*%
%TF.FileFunction,Soldermask,Top*%
%TF.FilePolarity,Negative*%
%FSLAX46Y46*%
G04 Gerber Fmt 4.6, Leading zero omitted, Abs format (unit mm)*
G04 Created by KiCad (PCBNEW (5.1.9-0-10_14)) date 2021-04-02 11:44:49*
%MOMM*%
%LPD*%
G01*
G04 APERTURE LIST*
%ADD10C,1.524000*%
%ADD11C,3.987800*%
%ADD12C,1.750000*%
%ADD13C,2.200000*%
%ADD14C,4.500000*%
%ADD15C,3.048000*%
%ADD16O,2.400000X1.800000*%
%ADD17C,2.000000*%
%ADD18R,1.500000X1.000000*%
G04 APERTURE END LIST*
D10*
%TO.C,U1*%
X124130734Y-47208930D03*
X126632146Y-47649996D03*
X129133557Y-48091063D03*
X131634969Y-48532129D03*
X134136381Y-48973195D03*
X136637792Y-49414262D03*
X139139204Y-49855328D03*
X141640616Y-50296395D03*
X144142027Y-50737461D03*
X146643439Y-51178527D03*
X149144851Y-51619594D03*
X151646262Y-52060660D03*
X154289188Y-37071886D03*
X151787776Y-36630820D03*
X149286364Y-36189753D03*
X146784953Y-35748687D03*
X144283541Y-35307621D03*
X141782129Y-34866554D03*
X139280718Y-34425488D03*
X136779306Y-33984421D03*
X134277894Y-33543355D03*
X131776482Y-33102289D03*
X129275071Y-32661222D03*
X126773659Y-32220156D03*
%TD*%
D11*
%TO.C,SW21*%
X186260000Y-52120000D03*
D12*
X181257177Y-53002133D03*
X191262823Y-51237867D03*
%TD*%
D13*
%TO.C,Ref\u002A\u002A*%
X160110000Y-39870000D03*
%TD*%
%TO.C,Ref\u002A\u002A*%
X133810000Y-54320000D03*
%TD*%
%TO.C,Ref\u002A\u002A*%
X122560000Y-52320000D03*
%TD*%
D14*
%TO.C,H9*%
X222910000Y-95530000D03*
%TD*%
%TO.C,H8*%
X216320000Y-58020000D03*
%TD*%
%TO.C,H6*%
X160020000Y-67940000D03*
%TD*%
%TO.C,H7*%
X183800000Y-106980000D03*
%TD*%
%TO.C,H5*%
X137910000Y-109960000D03*
%TD*%
%TO.C,H3*%
X115800000Y-67940000D03*
%TD*%
%TO.C,H4*%
X92020000Y-106970000D03*
%TD*%
%TO.C,H2*%
X52920000Y-95540000D03*
%TD*%
%TO.C,H1*%
X59540000Y-58030000D03*
%TD*%
D11*
%TO.C,SW35*%
X125963750Y-117205000D03*
X149776250Y-117205000D03*
D15*
X125963750Y-132445000D03*
X149776250Y-132445000D03*
D16*
X133110000Y-125440000D03*
X142630000Y-125440000D03*
D11*
X137870000Y-125460000D03*
%TD*%
D17*
%TO.C,RESET1*%
X171280625Y-42514357D03*
X164879375Y-41385643D03*
%TD*%
D18*
%TO.C,RGB9*%
X135490000Y-92760000D03*
X135490000Y-95960000D03*
X140390000Y-92760000D03*
X140390000Y-95960000D03*
%TD*%
D12*
%TO.C,SW1*%
X55802823Y-53302133D03*
X45797177Y-51537867D03*
D11*
X50800000Y-52420000D03*
%TD*%
D12*
%TO.C,SW2*%
X75152823Y-53202133D03*
X65147177Y-51437867D03*
D11*
X70150000Y-52320000D03*
%TD*%
D12*
%TO.C,SW3*%
X94572823Y-53022133D03*
X84567177Y-51257867D03*
D11*
X89570000Y-52140000D03*
%TD*%
D12*
%TO.C,SW4*%
X112732823Y-59752133D03*
X102727177Y-57987867D03*
D11*
X107730000Y-58870000D03*
%TD*%
%TO.C,SW5*%
X125910000Y-65590000D03*
D12*
X120907177Y-64707867D03*
X130912823Y-66472133D03*
%TD*%
%TO.C,SW6*%
X52522823Y-72042133D03*
X42517177Y-70277867D03*
D11*
X47520000Y-71160000D03*
%TD*%
D12*
%TO.C,SW7*%
X71862823Y-71912133D03*
X61857177Y-70147867D03*
D11*
X66860000Y-71030000D03*
%TD*%
D12*
%TO.C,SW8*%
X91282823Y-71752133D03*
X81277177Y-69987867D03*
D11*
X86280000Y-70870000D03*
%TD*%
D12*
%TO.C,SW9*%
X109392823Y-78502133D03*
X99387177Y-76737867D03*
D11*
X104390000Y-77620000D03*
%TD*%
D12*
%TO.C,SW10*%
X127562823Y-85272133D03*
X117557177Y-83507867D03*
D11*
X122560000Y-84390000D03*
%TD*%
D12*
%TO.C,SW11*%
X49222823Y-90812133D03*
X39217177Y-89047867D03*
D11*
X44220000Y-89930000D03*
%TD*%
D12*
%TO.C,SW12*%
X68592823Y-90642133D03*
X58587177Y-88877867D03*
D11*
X63590000Y-89760000D03*
%TD*%
D12*
%TO.C,SW13*%
X87942823Y-90562133D03*
X77937177Y-88797867D03*
D11*
X82940000Y-89680000D03*
%TD*%
D12*
%TO.C,SW14*%
X106082823Y-97292133D03*
X96077177Y-95527867D03*
D11*
X101080000Y-96410000D03*
%TD*%
%TO.C,SW15*%
X119270000Y-103110000D03*
D12*
X114267177Y-102227867D03*
X124272823Y-103992133D03*
%TD*%
D11*
%TO.C,SW16*%
X106730000Y-122670000D03*
D12*
X101823097Y-121355199D03*
X111636903Y-123984801D03*
%TD*%
D11*
%TO.C,SW17*%
X128390000Y-125500000D03*
D12*
X123310000Y-125500000D03*
%TD*%
D11*
%TO.C,SW18*%
X147430000Y-125500000D03*
D12*
X152510000Y-125500000D03*
%TD*%
%TO.C,SW19*%
X154952823Y-64717867D03*
X144947177Y-66482133D03*
D11*
X149950000Y-65600000D03*
%TD*%
%TO.C,SW20*%
X168090000Y-58870000D03*
D12*
X163087177Y-59752133D03*
X173092823Y-57987867D03*
%TD*%
D11*
%TO.C,SW22*%
X205610000Y-52250000D03*
D12*
X200607177Y-53132133D03*
X210612823Y-51367867D03*
%TD*%
D11*
%TO.C,SW23*%
X153250000Y-84380000D03*
D12*
X148247177Y-85262133D03*
X158252823Y-83497867D03*
%TD*%
D11*
%TO.C,SW24*%
X171410000Y-77610000D03*
D12*
X166407177Y-78492133D03*
X176412823Y-76727867D03*
%TD*%
D11*
%TO.C,SW25*%
X189550000Y-70880000D03*
D12*
X184547177Y-71762133D03*
X194552823Y-69997867D03*
%TD*%
D11*
%TO.C,SW26*%
X208950000Y-71010000D03*
D12*
X203947177Y-71892133D03*
X213952823Y-70127867D03*
%TD*%
D11*
%TO.C,SW27*%
X156550000Y-103160000D03*
D12*
X151547177Y-104042133D03*
X161552823Y-102277867D03*
%TD*%
D11*
%TO.C,SW28*%
X174700000Y-96380000D03*
D12*
X169697177Y-97262133D03*
X179702823Y-95497867D03*
%TD*%
D11*
%TO.C,SW29*%
X192870000Y-89620000D03*
D12*
X187867177Y-90502133D03*
X197872823Y-88737867D03*
%TD*%
D11*
%TO.C,SW30*%
X212250000Y-89750000D03*
D12*
X207247177Y-90632133D03*
X217252823Y-88867867D03*
%TD*%
%TO.C,SW31*%
X230012823Y-51507867D03*
X220007177Y-53272133D03*
D11*
X225010000Y-52390000D03*
%TD*%
%TO.C,SW32*%
X228320000Y-71130000D03*
D12*
X223317177Y-72012133D03*
X233322823Y-70247867D03*
%TD*%
%TO.C,SW33*%
X236592823Y-89027867D03*
X226587177Y-90792133D03*
D11*
X231590000Y-89910000D03*
%TD*%
%TO.C,SW34*%
X169090000Y-122660000D03*
D12*
X164183097Y-123974801D03*
X173996903Y-121345199D03*
%TD*%
M02*
