<svg xmlns="http://www.w3.org/2000/svg" viewBox="0 0 143.393 129.525"><defs><style>.cls-1{fill:red;}.cls-2{font-size:11px;font-family:Arial-BoldMT, Arial;font-weight:700;}</style></defs><g id="cut"><path d="M55.4,17.822H29.651L8.5,137.751l15.626,9.02a4.266,4.266,0,0,0,2.142.577h9.574a7.359,7.359,0,0,1,13.35,0h9.615a4.269,4.269,0,0,0,2.145-.579l15.6-9Zm-1.253,85.9a4.189,4.189,0,0,0,0,4.99v4.922a4.252,4.252,0,0,1-4.252,4.252H35.159a4.251,4.251,0,0,1-4.252-4.252V108.68a4.2,4.2,0,0,0,0-4.929V98.893a4.252,4.252,0,0,1,4.252-4.252H49.9a4.252,4.252,0,0,1,4.252,4.252Z" transform="translate(-8.504 -17.822)"/></g><g id="Graving"><path class="cls-1" d="M42.527,36.326h0a15.408,15.408,0,0,0-15.168,12.7L14.1,123.279A17.108,17.108,0,0,0,25.53,142.513H59.567a17.047,17.047,0,0,0,11.4-19.168L57.7,49.026A15.409,15.409,0,0,0,42.527,36.326Zm12.421,67.2a4.46,4.46,0,0,0,0,5.309v5.236a4.523,4.523,0,0,1-4.523,4.523H34.744a4.523,4.523,0,0,1-4.523-4.523V108.8a4.472,4.472,0,0,0,0-5.243V98.392a4.522,4.522,0,0,1,4.523-4.523H50.425a4.523,4.523,0,0,1,4.523,4.524Z" transform="translate(-8.504 -17.822)"/></g><g id="note"><text class="cls-2" transform="translate(66.356 19.728)">W : 24.006 mm<tspan x="0" y="14" xml:space="preserve">H :  45.694 mm</tspan></text><path class="cls-1" d="M70.3,24.241V17.93h2.682a4.6,4.6,0,0,1,1.47.17,1.457,1.457,0,0,1,.734.6,1.822,1.822,0,0,1,.275.994,1.684,1.684,0,0,1-.417,1.173,2.01,2.01,0,0,1-1.249.584,2.967,2.967,0,0,1,.683.529,7.225,7.225,0,0,1,.725,1.024l.77,1.232H74.449l-.922-1.374a9.079,9.079,0,0,0-.671-.927.985.985,0,0,0-.383-.263,2.115,2.115,0,0,0-.642-.071h-.258v2.635ZM71.573,20.6h.943a4.837,4.837,0,0,0,1.145-.078.682.682,0,0,0,.357-.266.826.826,0,0,0,.129-.474.757.757,0,0,0-.17-.514.78.78,0,0,0-.48-.248Q73.343,19,72.567,19h-.994Z" transform="translate(-8.504 -17.822)"/><path class="cls-1" d="M79.3,22.786l1.2.2A1.973,1.973,0,0,1,79.771,24a2.157,2.157,0,0,1-1.255.347,2.044,2.044,0,0,1-1.764-.779,2.613,2.613,0,0,1-.452-1.576,2.525,2.525,0,0,1,.594-1.78,1.958,1.958,0,0,1,1.5-.643,2.031,2.031,0,0,1,1.61.673A2.987,2.987,0,0,1,80.57,22.3H77.539a1.225,1.225,0,0,0,.293.837.916.916,0,0,0,.7.3.742.742,0,0,0,.478-.155A.958.958,0,0,0,79.3,22.786Zm.069-1.223a1.166,1.166,0,0,0-.271-.8.872.872,0,0,0-1.283.015,1.115,1.115,0,0,0-.254.783Z" transform="translate(-8.504 -17.822)"/><path class="cls-1" d="M85.748,24.241H84.625v-.672a1.813,1.813,0,0,1-.661.583,1.692,1.692,0,0,1-.768.192,1.743,1.743,0,0,1-1.35-.635,2.585,2.585,0,0,1-.562-1.771,2.549,2.549,0,0,1,.547-1.767,1.782,1.782,0,0,1,1.382-.605,1.714,1.714,0,0,1,1.326.637V17.93h1.209ZM82.52,21.856a2.092,2.092,0,0,0,.2,1.059.913.913,0,0,0,.818.473.889.889,0,0,0,.71-.355,1.639,1.639,0,0,0,.293-1.061,1.8,1.8,0,0,0-.284-1.134.933.933,0,0,0-1.449,0A1.55,1.55,0,0,0,82.52,21.856Z" transform="translate(-8.504 -17.822)"/><path class="cls-1" d="M90.294,21.064l-1.1-.2a1.713,1.713,0,0,1,.637-.982,2.336,2.336,0,0,1,1.343-.318,2.913,2.913,0,0,1,1.206.191,1.208,1.208,0,0,1,.557.487,2.485,2.485,0,0,1,.161,1.082l-.013,1.412a4.86,4.86,0,0,0,.059.889,2.567,2.567,0,0,0,.217.614h-1.2c-.031-.081-.07-.2-.116-.358-.02-.071-.034-.119-.043-.142a2.18,2.18,0,0,1-.663.452,1.886,1.886,0,0,1-.753.151,1.559,1.559,0,0,1-1.113-.383,1.275,1.275,0,0,1-.407-.969,1.306,1.306,0,0,1,.185-.691,1.221,1.221,0,0,1,.519-.465,4.065,4.065,0,0,1,.962-.281,6.563,6.563,0,0,0,1.175-.3v-.121a.626.626,0,0,0-.172-.5,1.031,1.031,0,0,0-.65-.149.868.868,0,0,0-.5.127A.881.881,0,0,0,90.294,21.064Zm1.618.981a7.239,7.239,0,0,1-.736.185,2.209,2.209,0,0,0-.658.211.5.5,0,0,0-.237.426.6.6,0,0,0,.189.44.662.662,0,0,0,.482.185,1.048,1.048,0,0,0,.625-.216.758.758,0,0,0,.288-.4,2.423,2.423,0,0,0,.047-.59Z" transform="translate(-8.504 -17.822)"/><path class="cls-1" d="M95.451,24.241h-1.21V19.669h1.124v.65a1.963,1.963,0,0,1,.518-.607.96.96,0,0,1,.523-.146,1.538,1.538,0,0,1,.8.228l-.375,1.055a1.062,1.062,0,0,0-.568-.2.668.668,0,0,0-.43.139.959.959,0,0,0-.278.506,7.155,7.155,0,0,0-.1,1.533Z" transform="translate(-8.504 -17.822)"/><path class="cls-1" d="M100.371,22.786l1.2.2A1.973,1.973,0,0,1,100.842,24a2.157,2.157,0,0,1-1.255.347,2.044,2.044,0,0,1-1.764-.779,2.613,2.613,0,0,1-.452-1.576,2.525,2.525,0,0,1,.594-1.78,1.958,1.958,0,0,1,1.5-.643,2.031,2.031,0,0,1,1.61.673,2.987,2.987,0,0,1,.564,2.065H98.61a1.225,1.225,0,0,0,.293.837.916.916,0,0,0,.7.3.742.742,0,0,0,.478-.155A.958.958,0,0,0,100.371,22.786Zm.069-1.223a1.166,1.166,0,0,0-.271-.8.872.872,0,0,0-1.283.015,1.115,1.115,0,0,0-.254.783Z" transform="translate(-8.504 -17.822)"/><path class="cls-1" d="M103.53,21.064l-1.1-.2a1.713,1.713,0,0,1,.637-.982,2.334,2.334,0,0,1,1.343-.318,2.907,2.907,0,0,1,1.2.191,1.206,1.206,0,0,1,.558.487,2.5,2.5,0,0,1,.161,1.082l-.013,1.412a4.975,4.975,0,0,0,.058.889,2.573,2.573,0,0,0,.218.614h-1.2c-.032-.081-.071-.2-.116-.358-.02-.071-.035-.119-.043-.142a2.18,2.18,0,0,1-.663.452,1.9,1.9,0,0,1-.754.151,1.558,1.558,0,0,1-1.112-.383,1.275,1.275,0,0,1-.407-.969,1.306,1.306,0,0,1,.185-.691,1.209,1.209,0,0,1,.519-.465,4.065,4.065,0,0,1,.962-.281,6.563,6.563,0,0,0,1.175-.3v-.121a.629.629,0,0,0-.172-.5,1.033,1.033,0,0,0-.65-.149.873.873,0,0,0-.5.127A.893.893,0,0,0,103.53,21.064Zm1.619.981a7.239,7.239,0,0,1-.736.185,2.229,2.229,0,0,0-.659.211.5.5,0,0,0-.236.426.592.592,0,0,0,.189.44.662.662,0,0,0,.482.185,1.045,1.045,0,0,0,.624-.216.754.754,0,0,0,.289-.4,2.423,2.423,0,0,0,.047-.59Z" transform="translate(-8.504 -17.822)"/><path class="cls-1" d="M109.979,19.049V17.93h1.209v1.119Zm0,5.192V19.669h1.209v4.572Z" transform="translate(-8.504 -17.822)"/><path class="cls-1" d="M112,22.936l1.214-.185a.884.884,0,0,0,.314.536,1.062,1.062,0,0,0,.663.183,1.2,1.2,0,0,0,.706-.172.384.384,0,0,0,.159-.323.318.318,0,0,0-.086-.228.97.97,0,0,0-.405-.159,6.55,6.55,0,0,1-1.855-.59,1.179,1.179,0,0,1-.542-1.029,1.268,1.268,0,0,1,.469-1,2.2,2.2,0,0,1,1.455-.4,2.55,2.55,0,0,1,1.4.3,1.567,1.567,0,0,1,.628.9l-1.141.211a.708.708,0,0,0-.277-.409,1.024,1.024,0,0,0-.584-.142,1.313,1.313,0,0,0-.684.134.286.286,0,0,0-.138.245.268.268,0,0,0,.121.22,4.574,4.574,0,0,0,1.13.34,3.36,3.36,0,0,1,1.349.538,1.116,1.116,0,0,1,.379.9,1.38,1.38,0,0,1-.525,1.081,2.326,2.326,0,0,1-1.554.452,2.547,2.547,0,0,1-1.479-.379A1.742,1.742,0,0,1,112,22.936Z" transform="translate(-8.504 -17.822)"/><path class="cls-1" d="M122.725,21.92V20.857h2.746v2.514a3.458,3.458,0,0,1-1.16.682,4.218,4.218,0,0,1-1.539.295,3.453,3.453,0,0,1-1.726-.415,2.636,2.636,0,0,1-1.106-1.188,3.839,3.839,0,0,1-.371-1.681,3.628,3.628,0,0,1,.414-1.752,2.774,2.774,0,0,1,1.209-1.175,3.257,3.257,0,0,1,1.511-.315,3.019,3.019,0,0,1,1.836.493,2.228,2.228,0,0,1,.85,1.363l-1.265.236a1.334,1.334,0,0,0-.5-.733,1.511,1.511,0,0,0-.919-.269,1.727,1.727,0,0,0-1.328.529,2.229,2.229,0,0,0-.493,1.571,2.469,2.469,0,0,0,.5,1.685,1.664,1.664,0,0,0,1.308.562,2.188,2.188,0,0,0,.8-.157,2.768,2.768,0,0,0,.691-.381v-.8Z" transform="translate(-8.504 -17.822)"/><path class="cls-1" d="M127.8,24.241h-1.209V19.669h1.123v.65a1.95,1.95,0,0,1,.519-.607.958.958,0,0,1,.523-.146,1.532,1.532,0,0,1,.8.228l-.374,1.055a1.062,1.062,0,0,0-.568-.2.673.673,0,0,0-.431.139.958.958,0,0,0-.277.506,7.132,7.132,0,0,0-.1,1.533Z" transform="translate(-8.504 -17.822)"/><path class="cls-1" d="M130.972,21.064l-1.1-.2a1.708,1.708,0,0,1,.637-.982,2.334,2.334,0,0,1,1.343-.318,2.907,2.907,0,0,1,1.205.191,1.2,1.2,0,0,1,.557.487,2.482,2.482,0,0,1,.162,1.082l-.013,1.412a4.881,4.881,0,0,0,.058.889,2.612,2.612,0,0,0,.217.614h-1.2c-.032-.081-.071-.2-.116-.358-.021-.071-.035-.119-.043-.142a2.18,2.18,0,0,1-.663.452,1.9,1.9,0,0,1-.754.151,1.557,1.557,0,0,1-1.112-.383,1.272,1.272,0,0,1-.407-.969,1.3,1.3,0,0,1,.185-.691,1.209,1.209,0,0,1,.519-.465,4.051,4.051,0,0,1,.962-.281,6.563,6.563,0,0,0,1.175-.3v-.121a.629.629,0,0,0-.172-.5,1.033,1.033,0,0,0-.65-.149.871.871,0,0,0-.5.127A.887.887,0,0,0,130.972,21.064Zm1.619.981a7.311,7.311,0,0,1-.736.185,2.218,2.218,0,0,0-.659.211.5.5,0,0,0-.237.426.593.593,0,0,0,.19.44.662.662,0,0,0,.482.185,1.045,1.045,0,0,0,.624-.216.758.758,0,0,0,.288-.4,2.357,2.357,0,0,0,.048-.59Z" transform="translate(-8.504 -17.822)"/><path class="cls-1" d="M136.228,24.241l-1.842-4.572h1.27L136.517,22l.249.779c.066-.2.108-.328.125-.391.04-.13.083-.259.129-.388l.87-2.333h1.244l-1.817,4.572Z" transform="translate(-8.504 -17.822)"/><path class="cls-1" d="M139.874,19.049V17.93h1.21v1.119Zm0,5.192V19.669h1.21v4.572Z" transform="translate(-8.504 -17.822)"/><path class="cls-1" d="M146.482,24.241h-1.21V21.908a3.643,3.643,0,0,0-.077-.958.674.674,0,0,0-.252-.338.722.722,0,0,0-.42-.121.978.978,0,0,0-.564.172.871.871,0,0,0-.342.457,3.92,3.92,0,0,0-.093,1.05v2.071h-1.209V19.669h1.123v.672a1.875,1.875,0,0,1,2.239-.631,1.222,1.222,0,0,1,.5.368,1.333,1.333,0,0,1,.237.508,3.808,3.808,0,0,1,.067.814Z" transform="translate(-8.504 -17.822)"/><path class="cls-1" d="M147.6,24.542l1.381.168a.469.469,0,0,0,.16.331.907.907,0,0,0,.542.129,1.4,1.4,0,0,0,.71-.142.584.584,0,0,0,.241-.3,1.82,1.82,0,0,0,.056-.556V23.5a1.636,1.636,0,0,1-1.369.741,1.685,1.685,0,0,1-1.459-.78,2.649,2.649,0,0,1-.422-1.532,2.518,2.518,0,0,1,.554-1.756,1.782,1.782,0,0,1,1.375-.607,1.675,1.675,0,0,1,1.4.745v-.642H151.9v4.1a4.084,4.084,0,0,1-.134,1.21,1.492,1.492,0,0,1-.374.628,1.657,1.657,0,0,1-.644.358,3.386,3.386,0,0,1-1.018.129,2.637,2.637,0,0,1-1.648-.4,1.249,1.249,0,0,1-.487-1.01C147.592,24.648,147.594,24.6,147.6,24.542Zm1.08-2.682a1.652,1.652,0,0,0,.282,1.066.872.872,0,0,0,.695.337.96.96,0,0,0,.749-.346,1.509,1.509,0,0,0,.306-1.027,1.6,1.6,0,0,0-.293-1.054.929.929,0,0,0-.74-.345.894.894,0,0,0-.717.338A1.586,1.586,0,0,0,148.677,21.86Z" transform="translate(-8.504 -17.822)"/></g></svg>