<svg xmlns="http://www.w3.org/2000/svg" viewBox="0 0 625.477 298.175"><defs><style>.cls-1{fill:red;}.cls-2{font-size:18px;font-family:Arial-BoldMT, Arial;font-weight:700;}</style></defs><g id="cut"><path d="M622.535,182.269,594.932,25.7a8.5,8.5,0,0,0-8.375-7.027H417.1L390.623,14.04a1.419,1.419,0,0,0-1.64,1.148L387.142,25.54l-6.459,2.351-7.277-6.129a1.418,1.418,0,0,0-2.309.835L364.18,61.4a2.834,2.834,0,0,1-3.284,2.294l-44.952-7.944A1.417,1.417,0,0,0,314.3,56.9l-1.7,9.591-6.459,2.351-5.266-4.419,1.7-9.593a1.418,1.418,0,0,0-1.149-1.644l-17.375-3.07a1.417,1.417,0,0,0-1.643,1.148l-1.694,9.558-6.459,2.351-5.265-4.419,1.7-9.559a1.418,1.418,0,0,0-1.149-1.644l-2.486-.439a2.834,2.834,0,0,1-1.8-1.121l-1.6-2.2a2.834,2.834,0,0,0-1.793-1.12l-35-6.237a2.835,2.835,0,0,1-2.1-1.661l-2.352-5.413A2.837,2.837,0,0,0,220.3,27.7l-50.9-9.018H51.339A8.5,8.5,0,0,0,42.965,25.7L15.261,182.25a8.5,8.5,0,0,0,6.9,9.856l53.963,9.38a8.544,8.544,0,0,0,1.713.122l28.705-.869a8.513,8.513,0,0,1,3.308.562l52.57,20.2a8.505,8.505,0,0,1,4.671,4.374l24.756,53.642a2.835,2.835,0,0,0,1.911,1.713l63.419,16.944H380.664l63.469-17.007a2.833,2.833,0,0,0,1.91-1.714L470.8,225.873a8.506,8.506,0,0,1,4.669-4.371l52.55-20.2a8.5,8.5,0,0,1,3.309-.563l28.7.872a8.559,8.559,0,0,0,1.714-.122l53.888-9.368A8.505,8.505,0,0,0,622.535,182.269Zm-24.323-55.088-38.8,6.842-7.334-41.595,38.8-6.842ZM526.6,32.013l6.094,34.562,14.377-2.535L542.7,39.249l38.8-6.842L588.835,74,550.109,80.83h0l-.077.013,0-.012-7.375.135a8.737,8.737,0,0,1-8.762-7.217l-.023-.13L495.129,80.45l-7.334-41.6ZM488.408,126.4l-38.8,6.842-7.334-41.595,38.8-6.842Zm-42.081,72.324-38.8,6.842-7.334-41.595,38.8-6.841Zm25.37-167.1,7.334,41.594-38.8,6.842-7.334-41.594ZM436.95,145.541l-38.8,6.842-7.334-41.594,38.8-6.842ZM392.014,28.4l1.23-6.979a2.126,2.126,0,0,1,2.463-1.724l19.85,3.493a2.125,2.125,0,0,1,1.725,2.462l-1.231,6.979a2.125,2.125,0,0,1-2.462,1.725L393.738,30.86A2.126,2.126,0,0,1,392.014,28.4ZM368.782,69.915,373.153,94.7l14.377-2.535-6.094-34.558,38.8-6.842,7.334,41.595-38.737,6.83.022.126a8.735,8.735,0,0,1-5.765,9.779l-6.979,2.4,0,.015-38.8,6.843-7.335-41.594Zm16.711,94.774-38.8,6.842-7.335-41.594,38.8-6.842Zm-54.922,13.35v4.922a4.252,4.252,0,0,1-4.252,4.252h-14.74a4.252,4.252,0,0,1-4.252-4.252v-4.953a4.2,4.2,0,0,0,0-4.929v-4.858a4.252,4.252,0,0,1,4.252-4.252h14.74a4.252,4.252,0,0,1,4.252,4.252v4.827a4.195,4.195,0,0,0,0,4.991Zm-4.252,41.755a7.37,7.37,0,1,1-7.37-7.37A7.37,7.37,0,0,1,326.319,219.794ZM217.631,50.767l38.8,6.842-6.085,34.508,14.377,2.535,4.362-24.737,38.8,6.836-7.335,41.6-38.8-6.842,0-.012-6.968-2.45a8.734,8.734,0,0,1-5.765-9.778l.013-.076L210.3,92.362Zm80.883,79.17-7.334,41.594-38.8-6.842,7.334-41.594Zm-51.457-19.148-7.334,41.595-38.8-6.842,7.334-41.595Zm-9.377,53.18-7.334,41.594-38.8-6.842,7.334-41.594ZM166.168,31.617l38.8,6.842-7.335,41.594-38.8-6.842Zm29.426,60.021-7.335,41.6-38.8-6.842L156.791,84.8ZM56.37,32.407l38.8,6.842L90.8,64.069,105.173,66.6l6.1-34.591,38.8,6.842-7.334,41.6L104.03,73.624l-.028.159A8.735,8.735,0,0,1,95.24,81l-7.454-.136,0-.029L49.035,74ZM46.993,85.586l38.8,6.843-7.335,41.594-38.8-6.842Zm76.994,101.223-38.7-6.824-.021.119a8.734,8.734,0,0,1-8.762,7.217l-7.416-.135,0,.017-38.8-6.842,7.334-41.595,38.8,6.842-4.37,24.78,14.377,2.535,6.092-34.55,38.8,6.842ZM94.561,126.788,101.9,85.193l38.8,6.842-7.334,41.6ZM140.1,179.571l7.334-41.595,38.8,6.842-7.334,41.6Zm48.76,39.114a7.371,7.371,0,1,1,7.37-7.371A7.37,7.37,0,0,1,188.858,218.685Zm55.283,62.621-38.059-10.2,10.931-40.8,38.059,10.2ZM243,217.869l7.334-41.595,38.8,6.842-7.334,41.6Zm113.455,67.693a4.215,4.215,0,0,1-7.456,0l-6.071,0v-1.369H294.92v1.373h-6.145a4.215,4.215,0,0,1-7.455,0h-9.09l.007-51.733,93.4-.011v51.74Zm-.388-60.851-7.334-41.595,38.8-6.842,7.334,41.6ZM393.7,281.306l-10.931-40.8,38.059-10.2,10.931,40.8Zm55.326-62.621a7.371,7.371,0,1,1,7.37-7.371A7.37,7.37,0,0,1,449.027,218.685Zm9.955-32.266-7.334-41.595,38.8-6.842,7.334,41.594Zm38.19-94.384,38.8-6.842,7.334,41.594-38.8,6.842Zm71.605,95.121-7.382.134a8.735,8.735,0,0,1-8.762-7.217l-.016-.094-38.734,6.83-7.334-41.594,38.8-6.842L551.44,172.9l14.376-2.535-4.364-24.755,38.8-6.842,7.335,41.6Z" transform="translate(-6.364 -14.019)"/></g><g id="graving"><path class="cls-1" d="M318.947,105.656h0a15.408,15.408,0,0,0-15.168,12.7l-13.255,74.252a17.108,17.108,0,0,0,11.426,19.234h34.037a17.047,17.047,0,0,0,11.395-19.168l-13.267-74.318A15.408,15.408,0,0,0,318.947,105.656Zm12.421,67.2a4.46,4.46,0,0,0,0,5.309V183.4a4.523,4.523,0,0,1-4.523,4.523h-15.68a4.523,4.523,0,0,1-4.523-4.523v-5.269a4.472,4.472,0,0,0,0-5.243v-5.168a4.523,4.523,0,0,1,4.523-4.523h15.68a4.523,4.523,0,0,1,4.523,4.523Z" transform="translate(-6.364 -14.019)"/></g><g id="note"><path class="cls-1" d="M483.747,302.427V290.974h4.867a8.318,8.318,0,0,1,2.668.309,2.634,2.634,0,0,1,1.332,1.1,3.306,3.306,0,0,1,.5,1.805,3.062,3.062,0,0,1-.757,2.129,3.644,3.644,0,0,1-2.266,1.059,5.39,5.39,0,0,1,1.238.961,13.134,13.134,0,0,1,1.317,1.859l1.4,2.234h-2.766l-1.671-2.492a16.1,16.1,0,0,0-1.219-1.683,1.777,1.777,0,0,0-.7-.477,3.806,3.806,0,0,0-1.164-.129h-.468v4.781Zm2.313-6.609h1.711a8.819,8.819,0,0,0,2.078-.141,1.24,1.24,0,0,0,.648-.484,1.493,1.493,0,0,0,.235-.859,1.372,1.372,0,0,0-.309-.934,1.414,1.414,0,0,0-.871-.449q-.282-.039-1.688-.039h-1.8Z" transform="translate(-6.364 -14.019)"/><path class="cls-1" d="M500.083,299.787l2.188.367a3.6,3.6,0,0,1-1.332,1.832,3.919,3.919,0,0,1-2.278.629,3.71,3.71,0,0,1-3.2-1.414,4.749,4.749,0,0,1-.82-2.86,4.579,4.579,0,0,1,1.078-3.23,3.552,3.552,0,0,1,2.726-1.168,3.683,3.683,0,0,1,2.922,1.223,5.409,5.409,0,0,1,1.024,3.746h-5.5a2.214,2.214,0,0,0,.531,1.519,1.657,1.657,0,0,0,1.266.543,1.349,1.349,0,0,0,.867-.281A1.74,1.74,0,0,0,500.083,299.787Zm.125-2.219a2.119,2.119,0,0,0-.492-1.449,1.585,1.585,0,0,0-2.328.027,2.02,2.02,0,0,0-.461,1.422Z" transform="translate(-6.364 -14.019)"/><path class="cls-1" d="M511.786,302.427h-2.039v-1.218a3.288,3.288,0,0,1-1.2,1.058,3.076,3.076,0,0,1-1.395.348,3.159,3.159,0,0,1-2.449-1.153,4.688,4.688,0,0,1-1.019-3.214,4.629,4.629,0,0,1,.992-3.207,3.233,3.233,0,0,1,2.508-1.1,3.11,3.11,0,0,1,2.406,1.156v-4.125h2.195Zm-5.859-4.328a3.794,3.794,0,0,0,.367,1.922,1.658,1.658,0,0,0,1.484.859,1.614,1.614,0,0,0,1.289-.644,2.975,2.975,0,0,0,.532-1.926,3.252,3.252,0,0,0-.516-2.058,1.633,1.633,0,0,0-1.32-.629,1.651,1.651,0,0,0-1.309.621A2.808,2.808,0,0,0,505.927,298.1Z" transform="translate(-6.364 -14.019)"/><path class="cls-1" d="M520.036,296.662l-1.992-.36a3.107,3.107,0,0,1,1.156-1.781,4.237,4.237,0,0,1,2.438-.578,5.246,5.246,0,0,1,2.187.348,2.186,2.186,0,0,1,1.012.882,4.534,4.534,0,0,1,.293,1.965l-.023,2.563a8.93,8.93,0,0,0,.105,1.613,4.661,4.661,0,0,0,.395,1.113h-2.172c-.058-.145-.128-.362-.211-.648q-.056-.195-.078-.258a3.948,3.948,0,0,1-1.2.82,3.431,3.431,0,0,1-1.367.274,2.828,2.828,0,0,1-2.019-.695,2.314,2.314,0,0,1-.739-1.758,2.358,2.358,0,0,1,.336-1.254,2.195,2.195,0,0,1,.942-.844,7.359,7.359,0,0,1,1.746-.512,11.879,11.879,0,0,0,2.133-.539V296.8a1.14,1.14,0,0,0-.313-.9,1.868,1.868,0,0,0-1.179-.269,1.579,1.579,0,0,0-.915.23A1.6,1.6,0,0,0,520.036,296.662Zm2.938,1.781a13.672,13.672,0,0,1-1.336.336,4.021,4.021,0,0,0-1.2.383.916.916,0,0,0-.429.773,1.073,1.073,0,0,0,.344.8,1.2,1.2,0,0,0,.875.336,1.9,1.9,0,0,0,1.132-.391,1.375,1.375,0,0,0,.524-.726,4.353,4.353,0,0,0,.086-1.071Z" transform="translate(-6.364 -14.019)"/><path class="cls-1" d="M529.4,302.427h-2.2v-8.3h2.039v1.18a3.541,3.541,0,0,1,.942-1.1,1.729,1.729,0,0,1,.949-.266,2.787,2.787,0,0,1,1.445.414l-.679,1.914a1.935,1.935,0,0,0-1.032-.359,1.219,1.219,0,0,0-.781.254,1.728,1.728,0,0,0-.5.918,13.078,13.078,0,0,0-.183,2.781Z" transform="translate(-6.364 -14.019)"/><path class="cls-1" d="M538.325,299.787l2.188.367a3.59,3.59,0,0,1-1.332,1.832,3.917,3.917,0,0,1-2.278.629,3.712,3.712,0,0,1-3.2-1.414,4.749,4.749,0,0,1-.82-2.86,4.579,4.579,0,0,1,1.078-3.23,3.554,3.554,0,0,1,2.727-1.168,3.685,3.685,0,0,1,2.922,1.223,5.414,5.414,0,0,1,1.023,3.746h-5.5a2.219,2.219,0,0,0,.531,1.519,1.658,1.658,0,0,0,1.266.543,1.345,1.345,0,0,0,.867-.281A1.74,1.74,0,0,0,538.325,299.787Zm.125-2.219a2.109,2.109,0,0,0-.492-1.449,1.585,1.585,0,0,0-2.328.027,2.024,2.024,0,0,0-.461,1.422Z" transform="translate(-6.364 -14.019)"/><path class="cls-1" d="M544.06,296.662l-1.993-.36a3.108,3.108,0,0,1,1.157-1.781,4.233,4.233,0,0,1,2.437-.578,5.254,5.254,0,0,1,2.188.348,2.183,2.183,0,0,1,1.011.882,4.518,4.518,0,0,1,.293,1.965l-.023,2.563a8.93,8.93,0,0,0,.105,1.613,4.7,4.7,0,0,0,.395,1.113h-2.172c-.058-.145-.128-.362-.211-.648q-.054-.195-.078-.258a3.944,3.944,0,0,1-1.2.82,3.434,3.434,0,0,1-1.367.274,2.829,2.829,0,0,1-2.02-.695,2.313,2.313,0,0,1-.738-1.758,2.358,2.358,0,0,1,.336-1.254,2.186,2.186,0,0,1,.941-.844,7.389,7.389,0,0,1,1.746-.512,11.879,11.879,0,0,0,2.133-.539V296.8a1.14,1.14,0,0,0-.312-.9,1.874,1.874,0,0,0-1.18-.269,1.575,1.575,0,0,0-.914.23A1.6,1.6,0,0,0,544.06,296.662ZM547,298.443a13.52,13.52,0,0,1-1.336.336,4.012,4.012,0,0,0-1.195.383.914.914,0,0,0-.43.773,1.073,1.073,0,0,0,.344.8,1.2,1.2,0,0,0,.875.336,1.9,1.9,0,0,0,1.133-.391,1.373,1.373,0,0,0,.523-.726A4.353,4.353,0,0,0,547,298.88Z" transform="translate(-6.364 -14.019)"/><path class="cls-1" d="M555.763,293.005v-2.031h2.195v2.031Zm0,9.422v-8.3h2.195v8.3Z" transform="translate(-6.364 -14.019)"/><path class="cls-1" d="M559.435,300.06l2.2-.336a1.613,1.613,0,0,0,.57.973,1.923,1.923,0,0,0,1.2.332,2.164,2.164,0,0,0,1.281-.313.7.7,0,0,0,.29-.586.58.58,0,0,0-.157-.414,1.755,1.755,0,0,0-.734-.289,11.807,11.807,0,0,1-3.367-1.07,2.136,2.136,0,0,1-.985-1.867,2.3,2.3,0,0,1,.852-1.813,3.979,3.979,0,0,1,2.641-.734,4.6,4.6,0,0,1,2.531.555,2.835,2.835,0,0,1,1.14,1.64l-2.07.383a1.284,1.284,0,0,0-.5-.742,1.839,1.839,0,0,0-1.058-.258,2.391,2.391,0,0,0-1.243.242.52.52,0,0,0-.25.446.484.484,0,0,0,.219.4,8.212,8.212,0,0,0,2.051.617,6.1,6.1,0,0,1,2.449.977,2.03,2.03,0,0,1,.688,1.633,2.508,2.508,0,0,1-.953,1.961,4.226,4.226,0,0,1-2.821.82,4.619,4.619,0,0,1-2.683-.688A3.159,3.159,0,0,1,559.435,300.06Z" transform="translate(-6.364 -14.019)"/><path class="cls-1" d="M578.9,298.216v-1.929h4.984v4.562a6.264,6.264,0,0,1-2.105,1.238,7.665,7.665,0,0,1-2.793.536,6.261,6.261,0,0,1-3.133-.754,4.791,4.791,0,0,1-2.008-2.157,6.961,6.961,0,0,1-.672-3.05,6.593,6.593,0,0,1,.75-3.18,5.05,5.05,0,0,1,2.2-2.133,5.931,5.931,0,0,1,2.743-.57,5.476,5.476,0,0,1,3.332.894,4.048,4.048,0,0,1,1.543,2.473l-2.3.43a2.426,2.426,0,0,0-.91-1.332,2.758,2.758,0,0,0-1.668-.489,3.138,3.138,0,0,0-2.411.961,4.052,4.052,0,0,0-.894,2.852,4.488,4.488,0,0,0,.906,3.059,3.028,3.028,0,0,0,2.375,1.019,3.986,3.986,0,0,0,1.457-.285,5.016,5.016,0,0,0,1.254-.691v-1.454Z" transform="translate(-6.364 -14.019)"/><path class="cls-1" d="M588.1,302.427h-2.2v-8.3h2.039v1.18a3.541,3.541,0,0,1,.942-1.1,1.731,1.731,0,0,1,.949-.266,2.784,2.784,0,0,1,1.445.414l-.679,1.914a1.932,1.932,0,0,0-1.032-.359,1.221,1.221,0,0,0-.781.254,1.728,1.728,0,0,0-.5.918,13.078,13.078,0,0,0-.183,2.781Z" transform="translate(-6.364 -14.019)"/><path class="cls-1" d="M593.864,296.662l-1.992-.36a3.112,3.112,0,0,1,1.156-1.781,4.237,4.237,0,0,1,2.438-.578,5.246,5.246,0,0,1,2.187.348,2.186,2.186,0,0,1,1.012.882,4.534,4.534,0,0,1,.293,1.965l-.023,2.563a8.93,8.93,0,0,0,.105,1.613,4.661,4.661,0,0,0,.395,1.113h-2.172c-.058-.145-.128-.362-.211-.648q-.056-.195-.078-.258a3.956,3.956,0,0,1-1.2.82,3.439,3.439,0,0,1-1.368.274,2.828,2.828,0,0,1-2.019-.695,2.313,2.313,0,0,1-.738-1.758,2.35,2.35,0,0,1,.336-1.254,2.186,2.186,0,0,1,.941-.844,7.359,7.359,0,0,1,1.746-.512,11.879,11.879,0,0,0,2.133-.539V296.8a1.14,1.14,0,0,0-.313-.9,1.868,1.868,0,0,0-1.179-.269,1.573,1.573,0,0,0-.914.23A1.6,1.6,0,0,0,593.864,296.662Zm2.938,1.781a13.6,13.6,0,0,1-1.336.336,4.012,4.012,0,0,0-1.2.383.914.914,0,0,0-.43.773,1.073,1.073,0,0,0,.344.8,1.2,1.2,0,0,0,.875.336,1.9,1.9,0,0,0,1.132-.391,1.375,1.375,0,0,0,.524-.726,4.353,4.353,0,0,0,.086-1.071Z" transform="translate(-6.364 -14.019)"/><path class="cls-1" d="M603.4,302.427l-3.343-8.3h2.3l1.563,4.235.453,1.414c.12-.359.2-.6.227-.711.072-.234.15-.469.234-.7l1.578-4.235h2.258l-3.3,8.3Z" transform="translate(-6.364 -14.019)"/><path class="cls-1" d="M610.021,293.005v-2.031h2.2v2.031Zm0,9.422v-8.3h2.2v8.3Z" transform="translate(-6.364 -14.019)"/><path class="cls-1" d="M622.013,302.427h-2.2v-4.234a6.539,6.539,0,0,0-.14-1.738,1.223,1.223,0,0,0-.457-.614,1.313,1.313,0,0,0-.762-.218,1.759,1.759,0,0,0-1.023.312,1.57,1.57,0,0,0-.621.828,7.122,7.122,0,0,0-.168,1.907v3.757h-2.2v-8.3h2.039v1.219a3.324,3.324,0,0,1,2.735-1.406,3.289,3.289,0,0,1,1.328.262,2.221,2.221,0,0,1,.91.668,2.42,2.42,0,0,1,.43.922,6.892,6.892,0,0,1,.121,1.476Z" transform="translate(-6.364 -14.019)"/><path class="cls-1" d="M624.036,302.974l2.508.305a.857.857,0,0,0,.289.6,1.642,1.642,0,0,0,.984.235,2.56,2.56,0,0,0,1.29-.258,1.069,1.069,0,0,0,.437-.555,3.348,3.348,0,0,0,.1-1.007v-1.211a2.971,2.971,0,0,1-2.485,1.343,3.056,3.056,0,0,1-2.648-1.414,4.8,4.8,0,0,1-.766-2.781,4.573,4.573,0,0,1,1-3.187,3.237,3.237,0,0,1,2.5-1.1,3.04,3.04,0,0,1,2.539,1.352V294.13h2.055v7.446a7.432,7.432,0,0,1-.242,2.195,2.733,2.733,0,0,1-.68,1.141,3.006,3.006,0,0,1-1.168.648,6.156,6.156,0,0,1-1.848.235,4.788,4.788,0,0,1-2.992-.723,2.267,2.267,0,0,1-.883-1.832C624.028,303.167,624.031,303.078,624.036,302.974ZM626,298.107a3,3,0,0,0,.512,1.934,1.582,1.582,0,0,0,1.262.613,1.745,1.745,0,0,0,1.359-.629,2.739,2.739,0,0,0,.555-1.863,2.905,2.905,0,0,0-.532-1.914,1.686,1.686,0,0,0-1.343-.625,1.619,1.619,0,0,0-1.3.613A2.878,2.878,0,0,0,626,298.107Z" transform="translate(-6.364 -14.019)"/><text class="cls-2" transform="translate(0 267.399)">W : 214.325 mm<tspan x="0" y="24">H : 100.244 mm</tspan></text></g></svg>