M48
; DRILL file {KiCad (5.1.9-0-10_14)} date Wednesday, December 01, 2021 at 03:49:58 PM
; FORMAT={3:3/ absolute / metric / suppress leading zeros}
; #@! TF.CreationDate,2021-12-01T15:49:58+09:00
; #@! TF.GenerationSoftware,Kicad,Pcbnew,(5.1.9-0-10_14)
FMAT,2
METRIC,TZ
T1C0.300
T2C0.500
T3C0.813
T4C1.300
T5C4.200
T6C0.600
T7C1.750
T8C2.200
T9C3.000
T10C3.048
T11C3.988
%
G90
G05
T1
X4835Y-47635
X4835Y-52565
X7135Y-84865
X7165Y-33565
X10000Y-4600
X10000Y-20200
X11600Y-28000
X14315Y-63915
X14315Y-71485
X15200Y-25800
X16400Y-12200
X17400Y-92800
X21000Y-12600
X23735Y-57735
X23800Y-34000
X24800Y-73200
X26400Y-54000
X28025Y-37625
X28200Y-58200
X30965Y-33965
X33365Y-85435
X35715Y-47285
X35715Y-52715
X36400Y-23800
X45265Y-9665
X45265Y-66535
X45265Y-71735
X50015Y-28415
X50015Y-33585
X54765Y-47435
X54765Y-52765
X57165Y-85435
X64315Y-66485
X64315Y-71715
X67100Y-15300
X69065Y-9935
X69065Y-28465
X69065Y-33665
X73800Y-47400
X73815Y-52585
X83365Y-66435
X83365Y-71765
X84600Y-24000
X84600Y-76000
X85800Y-15800
X88115Y-9915
X88115Y-28315
X88115Y-33715
X92865Y-47465
X92865Y-52665
X99800Y-92600
X102415Y-66415
X102415Y-71985
X102415Y-84665
X104800Y-15800
X107165Y-9765
X107165Y-28435
X107165Y-33765
X108400Y-97000
X109400Y-76000
X109400Y-89400
X111915Y-47285
X111915Y-52715
X118000Y-88600
X121465Y-66465
X122800Y-91600
X123600Y-16200
X125350Y-85900
X125350Y-88050
X126215Y-9985
X126215Y-28415
X126215Y-33585
X130965Y-47435
X130965Y-52565
X132700Y-73900
X132800Y-92000
X133000Y-24000
X133160Y-82710
X136975Y-87775
X138800Y-88200
X138800Y-92200
X140500Y-81000
X140515Y-66485
X140515Y-71715
X143400Y-80000
X144600Y-86600
X145200Y-83600
X145265Y-28335
X145265Y-33465
X148700Y-15700
X150015Y-47415
X150015Y-52585
X150065Y-9665
X156000Y-84400
X157035Y-90035
X159000Y-76000
X159565Y-66435
X159565Y-71835
X162200Y-40000
X164365Y-33965
X165400Y-84400
X166400Y-91400
X169115Y-9915
X169600Y-87200
X170400Y-92200
X175400Y-85200
X178615Y-66415
X180200Y-14200
X180400Y-83200
X181800Y-23800
X183365Y-33765
X188115Y-47485
X188800Y-74800
X193600Y-84400
X195400Y-86000
X201000Y-66600
X201500Y-79500
X202415Y-34185
X203000Y-58000
X205400Y-14800
X206800Y-54800
X207215Y-9815
X214800Y-73200
X217400Y-52400
X219065Y-46935
X226200Y-16800
X226215Y-27815
X228000Y-73638
X228600Y-15400
X231015Y-10185
X232000Y-85000
X236575Y-65225
X238035Y-76965
X239000Y-18750
X242835Y-51435
X245950Y-16550
X246000Y-35000
X246000Y-77800
T2
X11400Y-22800
X241600Y-24800
X245000Y-78800
T3
X3712Y-1899
X3712Y-17119
X6252Y-1899
X6252Y-17119
X8792Y-1899
X8792Y-17119
X11332Y-1899
X11332Y-17119
X13872Y-1899
X13872Y-17119
X16412Y-1899
X16412Y-17119
X18952Y-1899
X18952Y-17119
X21492Y-1899
X21492Y-17119
X24032Y-1899
X24032Y-17119
X26572Y-1899
X26572Y-17119
X29112Y-1899
X29112Y-17119
X31652Y-1899
X31652Y-17119
T4
X2350Y-22000
X8850Y-22000
T5
X-3120Y3080
X-3120Y-103120
X3590Y-96420
X38180Y-6600
X80130Y-42880
X122590Y-96420
X167500Y-42870
X226200Y-6600
X244030Y-96420
X250720Y3080
X250730Y-103120
T6
X-600Y-36125
X-600Y-36950
X-600Y-37775
X-600Y-38600
X-600Y-39425
X-600Y-40250
X-600Y-41075
X-600Y-41900
X-590Y-35300
X43700Y600
X43700Y-100600
X44525Y600
X44525Y-100600
X45350Y600
X45350Y-100600
X46175Y600
X46175Y-100600
X47000Y600
X47000Y-100600
X47825Y600
X47825Y-100600
X48650Y600
X48650Y-100600
X49475Y600
X49475Y-100600
X50300Y590
X50300Y-100610
X197300Y600
X197300Y-100600
X198125Y600
X198125Y-100600
X198950Y600
X198950Y-100600
X199775Y600
X199775Y-100600
X200600Y600
X200600Y-100600
X201425Y600
X201425Y-100600
X202250Y600
X202250Y-100600
X203075Y600
X203075Y-100600
X203900Y590
X203900Y-100610
X248190Y-64700
X248200Y-58100
X248200Y-58925
X248200Y-59750
X248200Y-60575
X248200Y-61400
X248200Y-62225
X248200Y-63050
X248200Y-63875
T7
X6789Y-52413
X9170Y-33363
X9170Y-90513
X11551Y-52413
X16314Y-71462
X16949Y-52413
X19330Y-33363
X19330Y-90513
X21711Y-52413
X26474Y-71462
X32983Y-33363
X35364Y-90513
X37745Y-52413
X43143Y-33363
X45524Y-90513
X47270Y-9550
X47270Y-71462
X47905Y-52413
X52033Y-33363
X56795Y-52413
X57430Y-9550
X57430Y-71462
X59176Y-90513
X62193Y-33363
X66320Y-71462
X66955Y-52413
X69336Y-90513
X71082Y-9550
X71082Y-33363
X75845Y-52413
X76480Y-71462
X81243Y-9550
X81243Y-33363
X85370Y-71462
X86005Y-52413
X90133Y-9550
X90133Y-33363
X94895Y-52413
X95530Y-71462
X97276Y-90513
X100293Y-9550
X100293Y-33363
X104420Y-71462
X105055Y-52413
X107436Y-90513
X109182Y-9550
X109182Y-33363
X113945Y-52413
X114580Y-71462
X119343Y-9550
X119343Y-33363
X123470Y-71462
X124105Y-52413
X128232Y-9550
X128232Y-33363
X130614Y-90513
X132995Y-52413
X133630Y-71462
X138392Y-9550
X138392Y-33363
X140774Y-90513
X142520Y-71462
X143155Y-52413
X144901Y-90513
X147283Y-33363
X152045Y-9550
X152045Y-52413
X152680Y-71462
X155061Y-90513
X157443Y-33363
X161570Y-71462
X162205Y-9550
X162205Y-52413
X166333Y-33363
X171095Y-9550
X171095Y-52413
X171730Y-71462
X176492Y-33363
X178239Y-90513
X180620Y-71462
X181255Y-9550
X181255Y-52413
X185383Y-33363
X188399Y-90513
X190145Y-9550
X190145Y-52413
X190780Y-71462
X195543Y-33363
X199670Y-71462
X200305Y-9550
X200305Y-52413
X202051Y-90513
X204433Y-33363
X209195Y-9550
X209195Y-52413
X209830Y-71462
X212211Y-90513
X214593Y-33363
X216339Y-71462
X219355Y-9550
X219355Y-52413
X221101Y-52413
X225864Y-71462
X226499Y-71462
X228245Y-33363
X228245Y-90513
X230626Y-52413
X231261Y-52413
X233008Y-9550
X236024Y-71462
X238405Y-33363
X238405Y-90513
X240786Y-52413
X243167Y-9550
T8
X17540Y-21690
X38160Y-20720
T9
X8059Y-49873
X10440Y-30822
X10440Y-87973
X14091Y-57493
X14409Y-47332
X16790Y-28283
X16790Y-85433
X17584Y-68923
X20441Y-54953
X23934Y-66382
X34253Y-30822
X36634Y-87973
X39015Y-49873
X40603Y-28283
X42984Y-85433
X45365Y-47332
X48540Y-7010
X48540Y-68923
X53303Y-30822
X54890Y-4470
X54890Y-66382
X58065Y-49873
X59653Y-28283
X60446Y-87973
X64415Y-47332
X66796Y-85433
X67590Y-68923
X72352Y-7010
X72352Y-30822
X73940Y-66382
X77115Y-49873
X78703Y-4470
X78703Y-28283
X83465Y-47332
X86640Y-68923
X91402Y-7010
X91402Y-30822
X92990Y-66382
X96165Y-49873
X97753Y-4470
X97753Y-28283
X99816Y-95593
X102515Y-47332
X105690Y-68923
X106166Y-93053
X110453Y-7010
X110453Y-30822
X112040Y-66382
X115215Y-49873
X116802Y-4470
X116802Y-28283
X121565Y-47332
X124740Y-68923
X129503Y-7010
X129503Y-30822
X131090Y-66382
X131884Y-87973
X134265Y-49873
X135852Y-4470
X135852Y-28283
X138234Y-85433
X140615Y-47332
X143790Y-68923
X147441Y-95593
X148552Y-30822
X150140Y-66382
X153315Y-7010
X153315Y-49873
X153791Y-93053
X154903Y-28283
X159665Y-4470
X159665Y-47332
X162840Y-68923
X167603Y-30822
X169190Y-66382
X172365Y-7010
X172365Y-49873
X173953Y-28283
X178715Y-4470
X178715Y-47332
X179509Y-87973
X181890Y-68923
X185859Y-85433
X186653Y-30822
X188240Y-66382
X191415Y-7010
X191415Y-49873
X193003Y-28283
X197765Y-4470
X197765Y-47332
X202210Y-76543
X203321Y-87973
X205702Y-30822
X208560Y-74003
X209671Y-85433
X210465Y-7010
X211735Y-57493
X212052Y-28283
X216815Y-4470
X217609Y-68923
X218085Y-54953
X222371Y-49873
X223959Y-66382
X228404Y-76543
X228721Y-47332
X229515Y-30822
X229515Y-87973
X233166Y-57493
X234278Y-7010
X234754Y-74003
X235865Y-28283
X235865Y-85433
X239516Y-54953
X240628Y-4470
T10
X9456Y-78447
X33332Y-78447
X85694Y-97498
X90418Y-97498
X114294Y-97498
X138043Y-97498
X161919Y-97498
X185694Y-97498
X209481Y-78447
X214243Y-59398
X233357Y-78447
X238119Y-59398
T11
X9456Y-63207
X11869Y-52413
X14250Y-33363
X14250Y-90513
X16631Y-52413
X21394Y-71462
X33332Y-63207
X38063Y-33363
X40444Y-90513
X42825Y-52413
X52350Y-9550
X52350Y-71462
X57113Y-33363
X61875Y-52413
X64256Y-90513
X71400Y-71462
X76163Y-9550
X76163Y-33363
X80925Y-52413
X85694Y-82258
X90418Y-82258
X90450Y-71462
X95212Y-9550
X95212Y-33363
X99975Y-52413
X102356Y-90513
X109500Y-71462
X114263Y-9550
X114263Y-33363
X114294Y-82258
X119025Y-52413
X128550Y-71462
X133313Y-9550
X133313Y-33363
X135694Y-90513
X138043Y-82258
X138075Y-52413
X147600Y-71462
X149981Y-90513
X152362Y-33363
X157125Y-9550
X157125Y-52413
X161919Y-82258
X166650Y-71462
X171413Y-33363
X176175Y-9550
X176175Y-52413
X183319Y-90513
X185694Y-82258
X185700Y-71462
X190462Y-33363
X195225Y-9550
X195225Y-52413
X204750Y-71462
X207131Y-90513
X209481Y-63207
X209513Y-33363
X214243Y-44158
X214275Y-9550
X214275Y-52413
X221419Y-71462
X226181Y-52413
X230944Y-71462
X233325Y-33363
X233325Y-90513
X233357Y-63207
X235706Y-52413
X238088Y-9550
X238119Y-44158
T0
M30
