<?xml version="1.0" encoding="utf-8"?>
<!-- Generator: Adobe Illustrator 23.0.6, SVG Export Plug-In . SVG Version: 6.00 Build 0)  -->
<svg version="1.1" id="レイヤー_1" xmlns="http://www.w3.org/2000/svg" xmlns:xlink="http://www.w3.org/1999/xlink" x="0px"
	 y="0px" viewBox="0 0 703.63 279.98" style="enable-background:new 0 0 703.63 279.98;" xml:space="preserve">
<style type="text/css">
	.st0{fill:none;stroke:#000000;stroke-miterlimit:10;}
</style>
<path class="st0" d="M703.09,171.28L675.66,15.69c-0.22-1.34-1.41-2.35-2.82-2.35l-189.63,0l0,0l-72.59-12.8
	c-0.15-0.02-0.29-0.04-0.44-0.04c-1.4,0-2.57,1.01-2.79,2.35l-8.97,50.43l-5.77,1.02l-94.28-16.64l-2.77-6.22L192.98,13.34
	l-0.03-0.01l-162.2,0c-1.43,0-2.6,1.06-2.8,2.43L0.54,171.26c0,0-0.04,0.32-0.04,0.48c0,1.4,1.02,2.56,2.35,2.79l0,0l192.93,34.02
	l27.76,60.22c0.38,0.81,1.13,1.4,2.03,1.57l51.75,9.13l148.95,0l51.72-9.12c0.95-0.17,1.74-0.81,2.11-1.67l27.72-60.13l192.93-34.02
	c1.34-0.22,2.36-1.39,2.36-2.79C703.13,171.59,703.09,171.28,703.09,171.28z M685.74,114.92l-38.8,6.84l-6.84-38.8l38.8-6.84
	L685.74,114.92z M669.52,22.94l6.84,38.8l-38.8,6.84l-6.84-38.8L669.52,22.94z M628.86,58.22c1.72,0,3.12,1.4,3.12,3.12
	c0,1.72-1.4,3.12-3.12,3.12c-1.72,0-3.12-1.4-3.12-3.12C625.75,59.62,627.14,58.22,628.86,58.22z M614.62,22.54l6.84,38.8
	l-38.8,6.84l-6.84-38.8L614.62,22.54z M559.72,22.15l6.84,38.8l-38.8,6.84l-6.84-38.8L559.72,22.15z M504.82,21.76l6.84,38.8
	l-38.8,6.84l-6.84-38.8L504.82,21.76z M469.58,132.89l-38.8,6.84l-6.84-38.8l38.8-6.84L469.58,132.89z M427.5,205.21l-38.8,6.84
	l-6.84-38.8l38.8-6.84L427.5,205.21z M460.2,79.71l-38.8,6.84l-6.84-38.8l38.8-6.84L460.2,79.71z M414.74,6.74
	c1.72,0,3.12,1.4,3.12,3.12c0,1.72-1.4,3.12-3.12,3.12c-1.72,0-3.12-1.4-3.12-3.12C411.63,8.14,413.02,6.74,414.74,6.74z
	 M414.49,86.31c1.72,0,3.12,1.4,3.12,3.12s-1.4,3.12-3.12,3.12c-1.72,0-3.12-1.4-3.12-3.12S412.77,86.31,414.49,86.31z
	 M411.28,113.23l6.84,38.8l-38.8,6.84l-6.84-38.8L411.28,113.23z M401.9,60.05l6.84,38.8l-38.8,6.84l-6.84-38.8L401.9,60.05z
	 M354.91,208.53c0,1.72-1.4,3.12-3.12,3.12c-1.72,0-3.12-1.4-3.12-3.12c0-1.72,1.4-3.12,3.12-3.12
	C353.52,205.42,354.91,206.81,354.91,208.53z M340.2,47.69c1.72,0,3.12,1.4,3.12,3.12s-1.4,3.12-3.12,3.12
	c-1.72,0-3.12-1.4-3.12-3.12S338.47,47.69,340.2,47.69z M308.32,42.02c1.72,0,3.12,1.4,3.12,3.12c0,1.72-1.4,3.12-3.12,3.12
	c-1.72,0-3.12-1.4-3.12-3.12C305.2,43.41,306.6,42.02,308.32,42.02z M301.71,60.05l38.8,6.84l-6.84,38.8l-38.8-6.84L301.71,60.05z
	 M331.14,120.07l-6.84,38.8l-38.8-6.84l6.84-38.8L331.14,120.07z M321.76,173.25l-6.84,38.8l-38.8-6.84l6.84-38.8L321.76,173.25z
	 M292.25,89.42c0,1.72-1.4,3.12-3.12,3.12c-1.72,0-3.12-1.4-3.12-3.12s1.4-3.12,3.12-3.12C290.85,86.31,292.25,87.7,292.25,89.42z
	 M250.26,40.9l38.8,6.84l-6.84,38.8l-38.8-6.84L250.26,40.9z M279.68,100.93l-6.84,38.8l-38.8-6.84l6.84-38.8L279.68,100.93z
	 M198.79,21.75l38.8,6.84l-6.84,38.8l-38.8-6.84L198.79,21.75z M143.9,22.15l38.8,6.84l-6.84,38.8l-38.8-6.84L143.9,22.15z
	 M89,22.54l38.8,6.84l-6.84,38.8l-38.8-6.84L89,22.54z M77.87,61.34c0,1.72-1.4,3.12-3.12,3.12c-1.72,0-3.12-1.4-3.12-3.12
	c0-1.72,1.4-3.12,3.12-3.12C76.48,58.22,77.87,59.62,77.87,61.34z M34.09,22.94l38.8,6.84l-6.84,38.8l-38.8-6.84L34.09,22.94z
	 M24.72,76.12l38.8,6.84l-6.84,38.8l-38.8-6.84L24.72,76.12z M8.5,168.1l6.84-38.8l38.8,6.84l-6.84,38.8L8.5,168.1z M55.32,174.64
	c-1.72,0-3.12-1.4-3.12-3.12s1.4-3.12,3.12-3.12c1.72,0,3.12,1.4,3.12,3.12S57.04,174.64,55.32,174.64z M102.2,174.55l-38.8-6.84
	l6.84-38.8l38.8,6.84L102.2,174.55z M72.78,114.53l6.84-38.8l38.8,6.84l-6.84,38.8L72.78,114.53z M157.11,174.15l-38.8-6.84
	l6.84-38.8l38.8,6.84L157.11,174.15z M127.68,114.13l6.84-38.8l38.8,6.84l-6.84,38.8L127.68,114.13z M172.03,113.82
	c0-1.72,1.4-3.12,3.12-3.12s3.12,1.4,3.12,3.12c0,1.72-1.4,3.12-3.12,3.12S172.03,115.55,172.03,113.82z M173.2,166.92l6.84-38.8
	l38.8,6.84l-6.84,38.8L173.2,166.92z M216.15,211.65c-1.72,0-3.12-1.4-3.12-3.12s1.4-3.12,3.12-3.12c1.72,0,3.12,1.4,3.12,3.12
	S217.87,211.65,216.15,211.65z M221.38,120.58l-38.8-6.84l6.84-38.8l38.8,6.84L221.38,120.58z M224.66,186.07l6.84-38.8l38.8,6.84
	l-6.84,38.8L224.66,186.07z M271.41,271l-38.8-6.84l6.84-38.8l38.8,6.84L271.41,271z M398.01,253.88h-2.32v17.65h-5.71v2.76h-9.29
	v-2.76h-4.86v-12.58l-4.29,0v13.23h-39.42v-13.23h-4.29v12.58h-4.86v2.76h-10.14v-2.76h-4.86v-17.65h-2.32v-7.89h2.32v-20.6l19.86,0
	v20.6h4.29v-13.23l39.42,0v13.23h4.29v-20.6l19.86,0v20.6h2.32V253.88z M432.2,271l-6.84-38.8l38.8-6.84l6.84,38.8L432.2,271z
	 M440.15,192.91l-6.84-38.8l38.8-6.84l6.84,38.8L440.15,192.91z M475.39,81.78l38.8-6.84l6.84,38.8l-38.8,6.84L475.39,81.78z
	 M487.47,211.65c-1.72,0-3.12-1.4-3.12-3.12c0-1.72,1.4-3.12,3.12-3.12c1.72,0,3.12,1.4,3.12,3.12
	C490.59,210.26,489.2,211.65,487.47,211.65z M491.61,173.76l-6.84-38.8l38.8-6.84l6.84,38.8L491.61,173.76z M528.46,116.94
	c-1.72,0-3.12-1.4-3.12-3.12c0-1.72,1.4-3.12,3.12-3.12c1.72,0,3.12,1.4,3.12,3.12C531.58,115.55,530.19,116.94,528.46,116.94z
	 M530.29,82.17l38.8-6.84l6.84,38.8l-38.8,6.84L530.29,82.17z M546.51,174.15l-6.84-38.8l38.8-6.84l6.84,38.8L546.51,174.15z
	 M585.19,82.57l38.8-6.84l6.84,38.8l-38.8,6.84L585.19,82.57z M601.41,174.55l-6.84-38.8l38.8-6.84l6.84,38.8L601.41,174.55z
	 M648.3,174.64c-1.72,0-3.12-1.4-3.12-3.12s1.4-3.12,3.12-3.12c1.72,0,3.12,1.4,3.12,3.12S650.03,174.64,648.3,174.64z
	 M656.32,174.94l-6.84-38.8l38.8-6.84l6.84,38.8L656.32,174.94z"/>
</svg>
