<?xml version="1.0" encoding="utf-8"?>
<!-- Generator: Adobe Illustrator 23.0.6, SVG Export Plug-In . SVG Version: 6.00 Build 0)  -->
<svg version="1.1" id="BOTTOM-PLATE" xmlns="http://www.w3.org/2000/svg" xmlns:xlink="http://www.w3.org/1999/xlink" x="0px"
	 y="0px" viewBox="0 0 704.35 297.48" style="enable-background:new 0 0 704.35 297.48;" xml:space="preserve">
<style type="text/css">
	.st0{fill:none;stroke:#000000;stroke-width:0.7087;stroke-miterlimit:10;}
</style>
<g>
	<circle class="st0" cx="75.12" cy="78.96" r="3.12"/>
	<circle class="st0" cx="55.68" cy="189.14" r="3.12"/>
	<circle class="st0" cx="175.51" cy="131.44" r="3.12"/>
	<circle class="st0" cx="528.83" cy="131.44" r="3.12"/>
	<circle class="st0" cx="289.5" cy="107.04" r="3.12"/>
	<circle class="st0" cx="414.86" cy="107.05" r="3.12"/>
	<circle class="st0" cx="629.23" cy="78.96" r="3.12"/>
	<circle class="st0" cx="648.67" cy="189.13" r="3.12"/>
	<circle class="st0" cx="216.52" cy="226.15" r="3.12"/>
	<circle class="st0" cx="487.84" cy="226.15" r="3.12"/>
	<circle class="st0" cx="352.16" cy="226.15" r="3.12"/>
	<path class="st0" d="M703.46,188.9L676.03,33.3c-0.22-1.34-1.41-2.35-2.82-2.35l-162.17,0l-27.46,0l-30.52-5.38l-2.89,16.41
		c-0.41,2.3-2.62,3.86-4.93,3.45l-19.54-3.45c-2.3-0.41-3.86-2.62-3.45-4.93l2.89-16.41L313.28,0.92c0,0-0.32-0.04-0.48-0.04
		c-1.41,0-2.58,1.02-2.8,2.37l-8.25,46.81L193.33,30.95l-162.2,0c-1.43,0-2.6,1.06-2.8,2.43L0.91,188.88c0,0-0.04,0.32-0.04,0.48
		c0,1.4,1.02,2.56,2.35,2.79l0,0l192.93,34.02l27.76,60.22c0.38,0.81,1.13,1.4,2.03,1.57l51.75,9.13h148.95l51.72-9.12
		c0.95-0.17,1.74-0.81,2.11-1.67l27.72-60.13l192.93-34.02c1.34-0.22,2.36-1.39,2.36-2.79C703.5,189.2,703.46,188.9,703.46,188.9z"
		/>
</g>
</svg>
