<?xml version="1.0" encoding="utf-8"?>
<!-- Generator: Adobe Illustrator 23.0.6, SVG Export Plug-In . SVG Version: 6.00 Build 0)  -->
<svg version="1.1" id="PM-cover" xmlns="http://www.w3.org/2000/svg" xmlns:xlink="http://www.w3.org/1999/xlink" x="0px" y="0px"
	 viewBox="0 0 116.23 92.13" style="enable-background:new 0 0 116.23 92.13;" xml:space="preserve">
<g>
	<path d="M106.78,25.68l0,0.02l1,0.01c3.62,0.02,6.71,2.62,7.34,6.19c0.35,1.97-0.09,3.97-1.24,5.61c-1.13,1.62-2.82,2.71-4.76,3.07
		l-9.9,0l-1,0l0,1l-0.03,33.8L54.03,91.12L1.2,91.13L1,27.58c-0.02-0.91,0.61-1.69,1.51-1.85c0.11-0.02,0.2-0.03,0.28-0.03
		L106.78,25.68 M107.72,37.03c0.22,0,0.45-0.02,0.67-0.06c2.08-0.37,3.48-2.36,3.11-4.44c-0.32-1.84-1.91-3.17-3.77-3.17
		c-0.22,0-0.45,0.02-0.67,0.06c-1.01,0.18-1.89,0.74-2.48,1.58c-0.59,0.84-0.81,1.86-0.64,2.87
		C104.27,35.7,105.86,37.03,107.72,37.03 M9.04,90.25c0.22,0,0.45-0.02,0.67-0.06c2.08-0.37,3.48-2.36,3.11-4.44
		c-0.32-1.84-1.91-3.17-3.77-3.17c-0.22,0-0.45,0.02-0.67,0.06C6.29,83.01,4.9,85,5.26,87.08C5.59,88.92,7.17,90.25,9.04,90.25
		 M41.41,90.3c0.22,0,0.45-0.02,0.67-0.06c1.01-0.18,1.89-0.74,2.48-1.58c0.59-0.84,0.81-1.86,0.64-2.87
		c-0.32-1.84-1.91-3.17-3.77-3.17c-0.22,0-0.45,0.02-0.67,0.06c-1.01,0.18-1.89,0.74-2.48,1.58c-0.59,0.84-0.81,1.86-0.64,2.87
		C37.97,88.96,39.55,90.3,41.41,90.3 M107.78,24.68L2.79,24.7c-0.15,0-0.3,0.02-0.45,0.04C0.94,24.99-0.03,26.23,0,27.6l0.2,64.52
		l54-0.01l44.97-16.03l0.04-34.51l9.99,0c4.63-0.82,7.71-5.23,6.9-9.85c-0.72-4.11-4.29-7-8.32-7.02L107.78,24.68L107.78,24.68z
		 M107.72,36.03c-1.35,0-2.55-0.97-2.79-2.34c-0.27-1.54,0.76-3.01,2.3-3.28c0.17-0.03,0.33-0.04,0.5-0.04
		c1.35,0,2.55,0.97,2.79,2.34c0.27,1.54-0.76,3.01-2.3,3.28C108.05,36.01,107.88,36.03,107.72,36.03L107.72,36.03z M9.04,89.25
		c-1.35,0-2.55-0.97-2.79-2.34c-0.27-1.54,0.76-3.01,2.3-3.28c0.17-0.03,0.33-0.04,0.5-0.04c1.35,0,2.55,0.97,2.79,2.34
		c0.27,1.54-0.76,3.01-2.3,3.28C9.37,89.24,9.2,89.25,9.04,89.25L9.04,89.25z M41.41,89.3c-1.35,0-2.55-0.97-2.79-2.34
		c-0.27-1.54,0.76-3.01,2.3-3.28c0.17-0.03,0.33-0.04,0.5-0.04c1.35,0,2.55,0.97,2.79,2.34c0.27,1.54-0.76,3.01-2.3,3.28
		C41.74,89.28,41.58,89.3,41.41,89.3L41.41,89.3z"/>
</g>
<g>
	<path d="M53.45,1c3.75,0,6.8,3.05,6.8,6.8s-3.05,6.8-6.8,6.8s-6.8-3.05-6.8-6.8S49.7,1,53.45,1 M53.45,11.91
		c2.27,0,4.12-1.85,4.12-4.12s-1.85-4.12-4.12-4.12s-4.12,1.85-4.12,4.12S51.17,11.91,53.45,11.91 M53.45,0
		c-4.31,0-7.8,3.49-7.8,7.8c0,4.31,3.49,7.8,7.8,7.8s7.8-3.49,7.8-7.8C61.24,3.49,57.75,0,53.45,0L53.45,0z M53.45,10.91
		c-1.72,0-3.12-1.4-3.12-3.12c0-1.72,1.4-3.12,3.12-3.12s3.12,1.4,3.12,3.12C56.56,9.52,55.17,10.91,53.45,10.91L53.45,10.91z"/>
</g>
<g>
	<path d="M16.91,1c3.75,0,6.8,3.05,6.8,6.8s-3.05,6.8-6.8,6.8s-6.8-3.05-6.8-6.8S13.17,1,16.91,1 M16.91,11.91
		c2.27,0,4.12-1.85,4.12-4.12s-1.85-4.12-4.12-4.12S12.8,5.52,12.8,7.8S14.64,11.91,16.91,11.91 M16.91,0c-4.31,0-7.8,3.49-7.8,7.8
		c0,4.31,3.49,7.8,7.8,7.8s7.8-3.49,7.8-7.8C24.71,3.49,21.22,0,16.91,0L16.91,0z M16.91,10.91c-1.72,0-3.12-1.4-3.12-3.12
		c0-1.72,1.4-3.12,3.12-3.12s3.12,1.4,3.12,3.12C20.03,9.52,18.64,10.91,16.91,10.91L16.91,10.91z"/>
</g>
<g>
	<path d="M88,1c3.75,0,6.8,3.05,6.8,6.8s-3.05,6.8-6.8,6.8s-6.8-3.05-6.8-6.8S84.26,1,88,1 M88,11.91c2.27,0,4.12-1.85,4.12-4.12
		S90.27,3.68,88,3.68s-4.12,1.85-4.12,4.12S85.73,11.91,88,11.91 M88,0c-4.31,0-7.8,3.49-7.8,7.8c0,4.31,3.49,7.8,7.8,7.8
		s7.8-3.49,7.8-7.8C95.8,3.49,92.31,0,88,0L88,0z M88,10.91c-1.72,0-3.12-1.4-3.12-3.12c0-1.72,1.4-3.12,3.12-3.12
		s3.12,1.4,3.12,3.12C91.12,9.52,89.73,10.91,88,10.91L88,10.91z"/>
</g>
</svg>
