<?xml version="1.0" encoding="utf-8"?>
<!-- Generator: Adobe Illustrator 25.2.3, SVG Export Plug-In . SVG Version: 6.00 Build 0)  -->
<svg version="1.1" xmlns="http://www.w3.org/2000/svg" xmlns:xlink="http://www.w3.org/1999/xlink" x="0px" y="0px"
	 viewBox="0 0 735.18 321.49" style="enable-background:new 0 0 735.18 321.49;" xml:space="preserve">
<style type="text/css">
	.st0{font-family:'Arial-BoldMT';}
	.st1{font-size:18px;}
	.st2{fill:none;stroke:#000000;stroke-width:0.25;stroke-miterlimit:10;}
</style>
<g id="note">
	<text transform="matrix(1 0 0 1 8.5234 267.2368)"><tspan x="0" y="0" class="st0 st1">W : 253.34 mm</tspan><tspan x="0" y="24" class="st0 st1">H : 107.073 mm</tspan></text>
</g>
<g id="cut">
	<path class="st2" d="M726.52,197.26L698.8,40.03c-0.72-4.06-4.25-7.03-8.37-7.03H468.47l-2.97,16.84
		c-0.41,2.31-2.61,3.86-4.93,3.45l-19.54-3.45c-2.31-0.41-3.86-2.61-3.45-4.93l2.88-16.34l-21.36-3.74l-1.01,5.56
		c-0.27,1.55-1.75,2.58-3.29,2.31l-80.94-14.27c-1.55-0.27-2.58-1.75-2.31-3.29l0.98-5.44l-3.86-0.67c-1.54-0.27-3.01,0.76-3.28,2.3
		l-7.76,44.04c-0.27,1.54-1.75,2.57-3.29,2.3l-38.84-6.92c-0.93-0.17-1.72-0.79-2.1-1.66l-2.35-5.41c-0.38-0.87-1.17-1.5-2.11-1.66
		L218.05,33L44.83,33c-4.13,0-7.66,2.96-8.37,7.02L8.65,197.26c-0.82,4.63,2.27,9.04,6.9,9.86l53.31,9.38
		c0.71,0.13,1.44,0.11,2.15-0.04l23.98-5.06c0.71-0.15,1.45-0.16,2.17-0.03l98.95,17.49c2.94,0.52,5.39,2.54,6.46,5.33l22.09,57.52
		c0.33,0.84,1.04,1.48,1.91,1.71l71.39,19.08H437.4l71.26-19.08c0.87-0.23,1.58-0.87,1.91-1.71l22.1-57.52
		c1.07-2.78,3.52-4.8,6.46-5.32l99.04-17.5c0.72-0.13,1.46-0.12,2.17,0.04l23.86,5.06c0.71,0.15,1.44,0.16,2.16,0.04l53.26-9.38
		C724.25,206.3,727.34,201.89,726.52,197.26z M326.08,43.66l3.34-18.91c0.27-1.54,1.74-2.57,3.28-2.3l92.47,16.3
		c1.54,0.27,2.57,1.74,2.3,3.28l-3.34,18.91c-0.27,1.54-1.74,2.57-3.28,2.3l-92.47-16.3C326.84,46.67,325.81,45.2,326.08,43.66z
		 M324.07,57.04l0.49-2.77c0.27-1.55,1.75-2.58,3.29-2.31l80.94,14.27c1.55,0.27,2.58,1.75,2.31,3.29l-0.49,2.77
		c-0.27,1.55-1.75,2.58-3.29,2.31l-80.94-14.27C324.83,60.07,323.8,58.59,324.07,57.04z M230.14,225.67c0-4.07,3.3-7.37,7.37-7.37
		c4.07,0,7.37,3.3,7.37,7.37c0,4.07-3.3,7.37-7.37,7.37C233.44,233.04,230.14,229.74,230.14,225.67z M489.48,278.34l-43.76,19.19
		c-7.18,3.15-14.93,4.77-22.77,4.77H312.37c-7.79,0-15.5-1.61-22.65-4.72l-44.16-19.24c-3.86-1.68-5.91-5.93-4.82-10l5.11-19.07
		c1.06-3.94,4.76-6.58,8.83-6.28l39.03,2.84l65.92,0c2.27,1.55,5,2.45,7.95,2.45c2.95,0,5.68-0.91,7.95-2.45l65.79,0l39.03-2.84
		c4.07-0.3,7.78,2.34,8.83,6.28l5.11,19.07C495.39,272.41,493.34,276.66,489.48,278.34z M360.2,234.12c0-4.07,3.3-7.37,7.37-7.37
		c4.07,0,7.37,3.3,7.37,7.37c0,4.07-3.3,7.37-7.37,7.37C363.5,241.49,360.2,238.19,360.2,234.12z M497.68,233.03
		c-4.07,0-7.37-3.3-7.37-7.37s3.3-7.37,7.37-7.37c4.07,0,7.37,3.3,7.37,7.37S501.75,233.03,497.68,233.03z M704.89,193.29
		l-42.63,7.52c-2.08,0.37-4.23-0.05-6.02-1.18l-9.78-6.17c-1.86-1.17-4.11-1.58-6.26-1.14l-77.49,16.03l-53.67,8.88
		c-2.58-3.47-6.7-5.73-11.36-5.73c-6.32,0-11.66,4.13-13.49,9.84l-71.24,11l-18.75-0.04c-4.12-0.01-7.65-2.97-8.36-7.04
		l-13.74-78.43c-0.38-2.19-2.28-3.78-4.5-3.78c-2.22,0-4.12,1.6-4.5,3.78l-13.49,78.4c-0.7,4.07-4.23,7.05-8.36,7.06l-19,0.04
		l-71.06-10.41c-1.64-6.01-7.13-10.44-13.66-10.44c-4.89,0-9.2,2.47-11.74,6.24l-56.74-9.39l-77.49-16.03
		c-2.16-0.45-4.4-0.04-6.26,1.14l-9.78,6.17c-1.79,1.13-3.93,1.55-6.02,1.18l-42.63-7.52c-4.63-0.82-7.71-5.23-6.9-9.85L42.63,54.97
		c0.7-3.94,4.04-6.86,8.03-7.02L98.97,46h107.11c1.65,0,3.3,0.14,4.92,0.43l18,3.17l0,0l181.23,31.96c3.08,0.54,6.03-1.51,6.57-4.6
		l0.01-0.04c0.36-2.06,1.83-3.75,3.81-4.4l53.33-17.55c1.29-0.42,2.6-0.75,3.94-0.99l42.84-7.55c1.63-0.29,3.27-0.43,4.92-0.43
		h107.11l50.59,2.04c2.66,0.11,4.89,2.05,5.35,4.68l23.08,130.71C712.6,188.06,709.52,192.47,704.89,193.29z"/>
</g>
</svg>
