<?xml version="1.0" encoding="utf-8"?>
<!-- Generator: Adobe Illustrator 25.2.3, SVG Export Plug-In . SVG Version: 6.00 Build 0)  -->
<svg version="1.1" xmlns="http://www.w3.org/2000/svg" xmlns:xlink="http://www.w3.org/1999/xlink" x="0px" y="0px"
	 viewBox="0 0 623.62 320.31" style="enable-background:new 0 0 623.62 320.31;" xml:space="preserve">
<style type="text/css">
	.st0{fill:none;stroke:#000000;stroke-width:0.25;stroke-miterlimit:10;}
	.st1{fill:#F93103;}
	.st2{font-family:'Arial-BoldMT';}
	.st3{font-size:18px;}
	.st4{fill:#FF0000;}
</style>
<g id="cut">
	<path class="st0" d="M15,205.78l53.89,9.37c0.57,0.1,1.14,0.14,1.71,0.12l28.7-0.87c1.13-0.03,2.25,0.16,3.31,0.56l52.55,20.2
		c2.07,0.79,3.74,2.36,4.67,4.37l24.76,53.58c0.33,0.84,1.04,1.48,1.91,1.71l63.47,17.01h123.49l63.42-16.94
		c0.87-0.23,1.58-0.87,1.91-1.71l24.76-53.64c0.93-2.01,2.6-3.58,4.67-4.37l52.57-20.2c1.05-0.41,2.18-0.6,3.31-0.56l28.71,0.87
		c0.57,0.02,1.15-0.02,1.71-0.12l53.96-9.38c4.63-0.81,7.72-5.23,6.9-9.86l-27.7-156.55c-0.72-4.06-4.25-7.02-8.37-7.02l-118.06,0
		l-50.9,9.02c-0.94,0.17-1.73,0.79-2.11,1.66l-2.35,5.41c-0.38,0.87-1.17,1.49-2.1,1.66l-38.84,6.92c-1.54,0.27-3.02-0.75-3.29-2.3
		l-7.76-44.05c-0.27-1.54-1.74-2.57-3.28-2.3L238.83,27.92l2.88,16.33c0.41,2.31-1.14,4.52-3.45,4.93l-19.54,3.45
		c-2.31,0.41-4.52-1.14-4.93-3.45l-2.97-16.83H44.08c-4.13,0-7.66,2.96-8.37,7.03L8.1,195.93C7.28,200.56,10.37,204.97,15,205.78z
		 M549.52,192.58c0-1.8,1.4-3.26,3.12-3.26c1.72,0,3.12,1.46,3.12,3.26s-1.4,3.26-3.12,3.26
		C550.92,195.84,549.52,194.38,549.52,192.58z M530.77,86.26c0-1.8,1.4-3.26,3.12-3.26s3.12,1.46,3.12,3.26
		c0,1.8-1.4,3.26-3.12,3.26S530.77,88.06,530.77,86.26z M438.66,224.99c0-1.8,1.4-3.26,3.12-3.26s3.12,1.46,3.12,3.26
		c0,1.8-1.4,3.26-3.12,3.26S438.66,226.8,438.66,224.99z M371.26,114.35c0-1.8,1.4-3.26,3.12-3.26c1.72,0,3.12,1.46,3.12,3.26
		s-1.4,3.26-3.12,3.26C372.65,117.61,371.26,116.15,371.26,114.35z M308.59,233.46c0-1.8,1.4-3.26,3.12-3.26
		c1.72,0,3.12,1.46,3.12,3.26s-1.4,3.26-3.12,3.26C309.99,236.72,308.59,235.26,308.59,233.46z M245.89,114.35
		c0-1.8,1.4-3.26,3.12-3.26c1.72,0,3.12,1.46,3.12,3.26s-1.4,3.26-3.12,3.26C247.29,117.61,245.89,116.15,245.89,114.35z
		 M178.49,224.99c0-1.8,1.4-3.26,3.12-3.26c1.72,0,3.12,1.46,3.12,3.26c0,1.8-1.4,3.26-3.12,3.26
		C179.88,228.25,178.49,226.8,178.49,224.99z M86.35,86.23c0-1.8,1.4-3.26,3.12-3.26c1.72,0,3.12,1.46,3.12,3.26
		c0,1.8-1.4,3.26-3.12,3.26C87.74,89.49,86.35,88.03,86.35,86.23z M67.61,192.56c0-1.8,1.4-3.26,3.12-3.26
		c1.72,0,3.12,1.46,3.12,3.26c0,1.8-1.4,3.26-3.12,3.26C69.01,195.82,67.61,194.36,67.61,192.56z"/>
</g>
<g id="graving">
	<g>
		<path class="st1" d="M530.59,108.08v2.28c0.3,0,0.51-0.04,0.63-0.12c0.12-0.08,0.18-0.35,0.18-0.8v-0.56
			c0-0.33-0.06-0.54-0.17-0.64S530.9,108.08,530.59,108.08z"/>
		<path class="st1" d="M605.54,190.24l-7.21-41.41h-31.67c-1.57,0-2.83-1.27-2.83-2.83v0c0-1.57,1.27-2.83,2.83-2.83h30.69l-1-5.72
			h-31.7c-1.62,0-2.92-1.35-2.83-2.99c0.08-1.53,1.46-2.68,2.99-2.68h30.55l-1-5.72h-31.72c-1.62,0-2.92-1.35-2.83-2.99
			c0.08-1.53,1.46-2.68,2.99-2.68h30.57l-1-5.72h-14.85c-1.62,0-2.92-1.35-2.83-2.99c0.08-1.53,1.46-2.68,2.99-2.68h13.71
			l-11.04-63.35c-0.47-2.71-2.83-4.7-5.59-4.7l-74.23,0l4.99,28.32c0.28,1.59-0.83,3.11-2.45,3.31c-1.52,0.19-2.89-0.97-3.16-2.48
			l-5.14-29.15l-5.81,0l4.99,28.32c0.28,1.59-0.83,3.11-2.45,3.31c-1.52,0.19-2.89-0.97-3.16-2.48l-5.14-29.15l-5.81,0l4.99,28.32
			c0.28,1.59-0.83,3.11-2.45,3.31c-1.52,0.19-2.89-0.97-3.16-2.48l-5.14-29.14l-5.81,0l4.99,28.32c0.28,1.59-0.83,3.11-2.45,3.31
			c-1.52,0.19-2.89-0.97-3.16-2.48l-5.06-28.71l-5.64,0.95l4.75,26.93c0.28,1.59-0.83,3.11-2.45,3.31
			c-1.52,0.19-2.89-0.97-3.16-2.48l-4.73-26.81l-1.21,0.2c-3.1,0.52-5.19,3.47-4.64,6.58l9.62,54.24c0.48,2.71,2.83,4.68,5.58,4.68
			h51.82c2.73,0,5.08,1.95,5.57,4.63l7,38.52c0.5,2.68,2.83,4.62,5.55,4.62c9.03,0,44,0,56.93,0c2.79,0,5.16,2.03,5.59,4.78
			l3.73,23.58c0.49,3.12-1.66,6.04-4.79,6.49l-29.22,4.23c-1.28,3.07-4.31,5.22-7.85,5.22c-3.1,0-5.8-1.66-7.29-4.14l-17.97-1.09
			l-31.43-18.1c-1.45-0.84-3.2-0.99-4.77-0.41l-58.11,21.15c-1.58,0.57-2.82,1.82-3.39,3.39l-10.28,28.32l-8.83,15.29
			c-0.51,0.88-1.44,1.42-2.45,1.42h-16.02c-1.01,0-1.95-0.54-2.45-1.42l-8.01-13.87c-0.51-0.88-1.44-1.42-2.45-1.42h-26.8
			c-1.01,0-1.95,0.54-2.45,1.42l-5.32,9.22c-0.51,0.88-1.44,1.42-2.45,1.42h-60.88c-1.01,0-1.95-0.54-2.45-1.42l-5.32-9.22
			c-0.51-0.88-1.44-1.42-2.45-1.42h-26.97c-1.01,0-1.95,0.54-2.45,1.42l-8.01,13.87c-0.51,0.88-1.44,1.42-2.45,1.42h-16.02
			c-1.01,0-1.95-0.54-2.45-1.42l-8.83-15.29l-10.24-28.24c-0.57-1.57-1.81-2.82-3.38-3.39l-57.81-21.14
			c-1.57-0.58-3.32-0.43-4.78,0.41l-31.26,18l-18.36,1.11c-1.49,2.46-4.19,4.11-7.27,4.11c-3.55,0-6.6-2.18-7.87-5.28L34,191.61
			c-3.12-0.45-5.28-3.37-4.79-6.49l3.65-23.57c0.43-2.76,2.81-4.8,5.6-4.8h56.65c2.73,0,5.08-1.95,5.58-4.64l7.1-38.5
			c0.5-2.69,2.84-4.64,5.58-4.64h51.81c2.75,0,5.11-1.98,5.58-4.68l9.92-56.7c0.61-3.47-2.06-6.65-5.58-6.65h-0.35l-5.17,29.3
			c-0.28,1.59-1.84,2.64-3.43,2.27c-1.5-0.35-2.39-1.9-2.12-3.41l4.97-28.16l-5.81,0l-5.17,29.3c-0.28,1.59-1.84,2.64-3.43,2.27
			c-1.5-0.35-2.39-1.9-2.12-3.41l4.97-28.16l-5.81,0l-5.17,29.3c-0.28,1.59-1.84,2.64-3.43,2.27c-1.5-0.35-2.39-1.9-2.12-3.41
			l4.97-28.16l-5.81,0l-5.07,28.77c-0.27,1.56-1.8,2.83-3.38,2.83h0c-1.58,0-2.65-1.28-2.38-2.83l5.07-28.77l-5.81,0l-5.17,29.3
			c-0.28,1.59-1.84,2.64-3.43,2.27c-1.5-0.35-2.39-1.9-2.12-3.41l4.97-28.16l-73.83,0c-2.75,0-5.11,1.98-5.58,4.69l-11.11,63.35
			h30.43c1.62,0,2.92,1.35,2.83,2.99c-0.08,1.53-1.46,2.68-2.99,2.68H31.19l-1,5.72H60.6c1.62,0,2.92,1.35,2.83,2.99
			c-0.08,1.53-1.46,2.68-2.99,2.68H29.19l-1,5.72h30.4c1.62,0,2.92,1.35,2.83,2.99c-0.08,1.53-1.46,2.68-2.99,2.68H27.19l-1,5.72
			h30.39c1.57,0,2.83,1.27,2.83,2.83c0,1.57-1.27,2.83-2.83,2.83H25.19l-7.34,41.82c-0.78,4.19,2.17,8.19,6.58,8.93l51.26,6.72
			c0.54,0.09,1.09,0.13,1.63,0.11l22.29-0.4c1.08-0.03,2.15,0.14,3.15,0.51l57.74,21.08c1.97,0.72,3.57,2.14,4.45,3.96l26.56,55.19
			c0.31,0.76,0.99,1.34,1.82,1.55l59.41,14.92H370.5l59.18-14.21c0.83-0.21,1.51-0.79,1.82-1.55l26.74-55.43
			c0.88-1.82,2.48-3.25,4.45-3.97l59.61-22.03c1.01-0.37,2.08-0.54,3.15-0.51l21.42,1.42c0.55,0.02,1.09-0.02,1.63-0.11l50.46-7.65
			C603.38,198.44,606.32,194.43,605.54,190.24z M571,110.1h-2.66v-0.93c0-0.59-0.03-0.95-0.08-1.1c-0.05-0.15-0.17-0.22-0.36-0.22
			c-0.16,0-0.28,0.06-0.34,0.19c-0.06,0.13-0.09,0.45-0.09,0.97v4.91c0,0.46,0.03,0.76,0.09,0.91c0.06,0.15,0.18,0.22,0.35,0.22
			c0.19,0,0.33-0.08,0.4-0.25c0.07-0.16,0.1-0.49,0.1-0.96v-1.21h-0.54v-1.56H571v5.5h-1.67l-0.25-0.73
			c-0.18,0.32-0.41,0.55-0.69,0.71c-0.28,0.16-0.6,0.24-0.98,0.24c-0.45,0-0.87-0.11-1.26-0.33c-0.39-0.22-0.69-0.49-0.89-0.81
			c-0.2-0.32-0.33-0.66-0.38-1.01c-0.05-0.35-0.08-0.88-0.08-1.58v-3.04c0-0.98,0.05-1.69,0.16-2.13c0.11-0.44,0.41-0.85,0.91-1.22
			c0.5-0.37,1.15-0.55,1.94-0.55c0.78,0,1.43,0.16,1.94,0.48c0.51,0.32,0.85,0.7,1.01,1.14c0.16,0.44,0.23,1.08,0.23,1.92V110.1z
			 M522.21,101.52c-2.75,0-5.11-1.98-5.58-4.68l-6.93-39.31c-0.61-3.47,2.06-6.65,5.58-6.65h51.15c2.75,0,5.11,1.98,5.58,4.68
			l6.93,39.3c0.61,3.47-2.06,6.65-5.58,6.65L522.21,101.52z M533.47,111.75c0.18,0.22,0.29,0.42,0.34,0.6
			c0.04,0.18,0.07,0.69,0.07,1.51v2.7h-2.47v-3.4c0-0.55-0.04-0.89-0.13-1.02c-0.09-0.13-0.31-0.2-0.68-0.2v4.62h-2.66v-10.24h1.88
			c1.26,0,2.11,0.05,2.55,0.15c0.44,0.1,0.81,0.34,1.09,0.74c0.28,0.4,0.42,1.03,0.42,1.91c0,0.8-0.1,1.33-0.3,1.61
			c-0.2,0.27-0.59,0.44-1.17,0.49C532.93,111.35,533.28,111.53,533.47,111.75z M539.52,116.57h-4.62v-10.24h4.44v2.05h-1.78v1.94
			h1.66v1.95h-1.66v2.25h1.95V116.57z M545.26,116.57h-4.05l-1.54-10.24h2.81c0.33,2.82,0.56,5.21,0.7,7.16
			c0.14-1.97,0.28-3.73,0.44-5.26l0.18-1.9h2.81L545.26,116.57z M549.73,116.57h-2.66v-10.24h2.66V116.57z M556.85,113.17
			c0,0.78-0.03,1.32-0.08,1.63c-0.05,0.31-0.2,0.64-0.45,0.97c-0.25,0.33-0.58,0.58-0.98,0.75c-0.41,0.17-0.89,0.26-1.44,0.26
			c-0.61,0-1.15-0.1-1.62-0.3s-0.82-0.47-1.05-0.79c-0.23-0.33-0.37-0.67-0.41-1.03c-0.04-0.36-0.06-1.12-0.06-2.27v-6.06h2.66V114
			c0,0.45,0.02,0.73,0.07,0.86c0.05,0.12,0.15,0.19,0.29,0.19c0.17,0,0.28-0.07,0.33-0.21c0.05-0.14,0.07-0.46,0.07-0.97v-7.55h2.66
			V113.17z M557.88,106.33h2.23l1.49,4.61v-4.61h2.23v10.24h-2.33l-1.39-4.65v4.65h-2.23V106.33z M50.3,101.51
			c-3.52,0-6.2-3.18-5.58-6.65l6.93-39.3c0.48-2.71,2.83-4.68,5.58-4.68h50.79c3.53,0,6.2,3.19,5.58,6.67l-7.03,39.3
			c-0.48,2.7-2.83,4.67-5.58,4.67H50.3z M181.57,230.66c-3.13,0-5.67-2.54-5.67-5.67c0-3.13,2.54-5.67,5.67-5.67
			s5.67,2.54,5.67,5.67C187.24,228.13,184.7,230.66,181.57,230.66z M421.04,277.87h-66.25l-3.84,15.04
			c-0.63,2.47-2.74,4.19-5.15,4.19h-68.18c-2.4,0-4.5-1.7-5.14-4.16l-3.92-15.07h-66.29c-2.21,0-4-1.9-4-4.25
			c0-2.35,1.79-4.25,4-4.25h65.05l6.1-16.77c0.79-2.18,2.77-3.62,4.98-3.62h66.21c2.18,0,4.13,1.4,4.95,3.55l6.41,16.85h65.07
			c2.21,0,4,1.9,4,4.25C425.04,275.97,423.25,277.87,421.04,277.87z M441.74,230.66c-3.13,0-5.67-2.54-5.67-5.67
			c0-3.13,2.54-5.67,5.67-5.67s5.67,2.54,5.67,5.67C447.41,228.13,444.87,230.66,441.74,230.66z"/>
	</g>
</g>
<g id="note">
	<text transform="matrix(1 0 0 1 7.9673 286.5683)"><tspan x="0" y="0" class="st2 st3">W : 214.325 mm</tspan><tspan x="0" y="24" class="st2 st3">H : 107.073 mm</tspan></text>
	<g>
		<path class="st4" d="M5.11,17.97V6.52h4.87c1.22,0,2.11,0.1,2.67,0.31c0.55,0.21,1,0.57,1.33,1.1c0.33,0.53,0.5,1.13,0.5,1.8
			c0,0.86-0.25,1.57-0.76,2.13c-0.51,0.56-1.26,0.91-2.27,1.06c0.5,0.29,0.91,0.61,1.24,0.96c0.33,0.35,0.76,0.97,1.32,1.86
			l1.4,2.23h-2.77l-1.67-2.49c-0.59-0.89-1-1.45-1.22-1.68c-0.22-0.23-0.45-0.39-0.7-0.48c-0.25-0.09-0.63-0.13-1.16-0.13H7.42v4.78
			H5.11z M7.42,11.36h1.71c1.11,0,1.8-0.05,2.08-0.14c0.28-0.09,0.49-0.25,0.65-0.48c0.16-0.23,0.23-0.52,0.23-0.86
			c0-0.39-0.1-0.7-0.31-0.93c-0.21-0.24-0.5-0.39-0.87-0.45c-0.19-0.03-0.75-0.04-1.69-0.04h-1.8V11.36z"/>
		<path class="st4" d="M21.45,15.33l2.19,0.37c-0.28,0.8-0.73,1.41-1.33,1.83c-0.61,0.42-1.37,0.63-2.28,0.63
			c-1.44,0-2.51-0.47-3.2-1.41C16.27,15.99,16,15.04,16,13.89c0-1.38,0.36-2.45,1.08-3.23c0.72-0.78,1.63-1.17,2.73-1.17
			c1.23,0,2.21,0.41,2.92,1.22c0.71,0.82,1.05,2.06,1.02,3.75h-5.5c0.02,0.65,0.19,1.16,0.53,1.52c0.34,0.36,0.76,0.54,1.27,0.54
			c0.34,0,0.63-0.09,0.87-0.28S21.33,15.75,21.45,15.33z M21.57,13.11c-0.02-0.64-0.18-1.12-0.49-1.45c-0.31-0.33-0.69-0.5-1.14-0.5
			c-0.48,0-0.88,0.17-1.19,0.52c-0.31,0.35-0.47,0.82-0.46,1.42H21.57z"/>
		<path class="st4" d="M33.15,17.97h-2.04v-1.22c-0.34,0.47-0.74,0.83-1.2,1.06s-0.93,0.35-1.39,0.35c-0.95,0-1.77-0.38-2.45-1.15
			c-0.68-0.77-1.02-1.84-1.02-3.21c0-1.41,0.33-2.48,0.99-3.21c0.66-0.73,1.5-1.1,2.51-1.1c0.93,0,1.73,0.39,2.41,1.16V6.52h2.2
			V17.97z M27.29,13.65c0,0.89,0.12,1.53,0.37,1.92c0.35,0.57,0.85,0.86,1.48,0.86c0.5,0,0.93-0.21,1.29-0.64
			c0.35-0.43,0.53-1.07,0.53-1.93c0-0.95-0.17-1.64-0.52-2.06c-0.34-0.42-0.78-0.63-1.32-0.63c-0.52,0-0.96,0.21-1.31,0.62
			S27.29,12.82,27.29,13.65z"/>
		<path class="st4" d="M41.4,12.21l-1.99-0.36c0.22-0.8,0.61-1.4,1.16-1.78c0.55-0.39,1.36-0.58,2.44-0.58
			c0.98,0,1.71,0.12,2.19,0.35c0.48,0.23,0.82,0.53,1.01,0.88c0.2,0.36,0.29,1.01,0.29,1.96l-0.02,2.56c0,0.73,0.04,1.27,0.11,1.61
			c0.07,0.35,0.2,0.72,0.39,1.11H44.8c-0.06-0.15-0.13-0.36-0.21-0.65c-0.04-0.13-0.06-0.22-0.08-0.26
			c-0.38,0.36-0.78,0.64-1.2,0.82c-0.43,0.18-0.88,0.27-1.37,0.27c-0.85,0-1.53-0.23-2.02-0.7c-0.49-0.46-0.74-1.05-0.74-1.76
			c0-0.47,0.11-0.89,0.34-1.25c0.22-0.37,0.54-0.65,0.94-0.84c0.4-0.2,0.99-0.37,1.75-0.51c1.03-0.19,1.74-0.37,2.13-0.54v-0.22
			c0-0.42-0.1-0.72-0.31-0.9c-0.21-0.18-0.6-0.27-1.18-0.27c-0.39,0-0.7,0.08-0.91,0.23C41.71,11.55,41.54,11.82,41.4,12.21z
			 M44.34,13.99c-0.28,0.09-0.73,0.21-1.34,0.34c-0.61,0.13-1.01,0.26-1.2,0.38c-0.29,0.2-0.43,0.46-0.43,0.77
			c0,0.31,0.11,0.57,0.34,0.8c0.23,0.22,0.52,0.34,0.88,0.34c0.4,0,0.77-0.13,1.13-0.39c0.27-0.2,0.44-0.44,0.52-0.73
			c0.06-0.19,0.09-0.54,0.09-1.07V13.99z"/>
		<path class="st4" d="M50.76,17.97h-2.2v-8.3h2.04v1.18c0.35-0.56,0.66-0.92,0.94-1.1c0.28-0.18,0.59-0.27,0.95-0.27
			c0.5,0,0.98,0.14,1.45,0.41l-0.68,1.91c-0.37-0.24-0.71-0.36-1.03-0.36c-0.31,0-0.57,0.08-0.78,0.25
			c-0.21,0.17-0.38,0.48-0.5,0.92c-0.12,0.44-0.18,1.37-0.18,2.78V17.97z"/>
		<path class="st4" d="M59.69,15.33l2.19,0.37c-0.28,0.8-0.73,1.41-1.33,1.83c-0.61,0.42-1.37,0.63-2.28,0.63
			c-1.44,0-2.51-0.47-3.2-1.41c-0.55-0.75-0.82-1.71-0.82-2.86c0-1.38,0.36-2.45,1.08-3.23c0.72-0.78,1.63-1.17,2.73-1.17
			c1.23,0,2.21,0.41,2.92,1.22c0.71,0.82,1.05,2.06,1.02,3.75h-5.5c0.02,0.65,0.19,1.16,0.53,1.52c0.34,0.36,0.76,0.54,1.27,0.54
			c0.34,0,0.63-0.09,0.87-0.28S59.57,15.75,59.69,15.33z M59.81,13.11c-0.02-0.64-0.18-1.12-0.49-1.45c-0.31-0.33-0.69-0.5-1.14-0.5
			c-0.48,0-0.88,0.17-1.19,0.52c-0.31,0.35-0.47,0.82-0.46,1.42H59.81z"/>
		<path class="st4" d="M65.42,12.21l-1.99-0.36c0.22-0.8,0.61-1.4,1.16-1.78c0.55-0.39,1.36-0.58,2.44-0.58
			c0.98,0,1.71,0.12,2.19,0.35c0.48,0.23,0.82,0.53,1.01,0.88c0.2,0.36,0.29,1.01,0.29,1.96l-0.02,2.56c0,0.73,0.04,1.27,0.11,1.61
			c0.07,0.35,0.2,0.72,0.39,1.11h-2.17c-0.06-0.15-0.13-0.36-0.21-0.65c-0.04-0.13-0.06-0.22-0.08-0.26
			c-0.38,0.36-0.78,0.64-1.2,0.82c-0.43,0.18-0.88,0.27-1.37,0.27c-0.85,0-1.53-0.23-2.02-0.7c-0.49-0.46-0.74-1.05-0.74-1.76
			c0-0.47,0.11-0.89,0.34-1.25c0.22-0.37,0.54-0.65,0.94-0.84c0.4-0.2,0.99-0.37,1.75-0.51c1.03-0.19,1.74-0.37,2.13-0.54v-0.22
			c0-0.42-0.1-0.72-0.31-0.9c-0.21-0.18-0.6-0.27-1.18-0.27c-0.39,0-0.7,0.08-0.91,0.23C65.74,11.55,65.56,11.82,65.42,12.21z
			 M68.36,13.99c-0.28,0.09-0.73,0.21-1.34,0.34c-0.61,0.13-1.01,0.26-1.2,0.38c-0.29,0.2-0.43,0.46-0.43,0.77
			c0,0.31,0.11,0.57,0.34,0.8c0.23,0.22,0.52,0.34,0.88,0.34c0.4,0,0.77-0.13,1.13-0.39c0.27-0.2,0.44-0.44,0.52-0.73
			c0.06-0.19,0.09-0.54,0.09-1.07V13.99z"/>
		<path class="st4" d="M77.13,8.55V6.52h2.2v2.03H77.13z M77.13,17.97v-8.3h2.2v8.3H77.13z"/>
		<path class="st4" d="M80.8,15.61l2.2-0.34c0.09,0.43,0.28,0.75,0.57,0.97c0.29,0.22,0.69,0.33,1.2,0.33c0.57,0,0.99-0.1,1.28-0.31
			c0.19-0.15,0.29-0.34,0.29-0.59c0-0.17-0.05-0.3-0.16-0.41c-0.11-0.1-0.35-0.2-0.73-0.29c-1.77-0.39-2.89-0.75-3.37-1.07
			c-0.66-0.45-0.98-1.07-0.98-1.87c0-0.72,0.28-1.32,0.85-1.81c0.57-0.49,1.45-0.73,2.64-0.73c1.14,0,1.98,0.19,2.53,0.55
			c0.55,0.37,0.93,0.92,1.14,1.64l-2.07,0.38c-0.09-0.32-0.26-0.57-0.5-0.74c-0.25-0.17-0.6-0.26-1.06-0.26
			c-0.58,0-0.99,0.08-1.24,0.24c-0.17,0.11-0.25,0.26-0.25,0.45c0,0.16,0.07,0.29,0.22,0.4c0.2,0.15,0.88,0.35,2.05,0.62
			c1.17,0.27,1.99,0.59,2.45,0.98c0.46,0.39,0.69,0.94,0.69,1.63c0,0.76-0.32,1.41-0.95,1.96c-0.64,0.55-1.58,0.82-2.82,0.82
			c-1.13,0-2.02-0.23-2.68-0.69C81.43,17.02,81,16.39,80.8,15.61z"/>
		<path class="st4" d="M100.26,13.76v-1.93h4.98v4.56c-0.48,0.47-1.19,0.88-2.11,1.24c-0.92,0.36-1.85,0.54-2.79,0.54
			c-1.2,0-2.24-0.25-3.13-0.75c-0.89-0.5-1.56-1.22-2.01-2.16c-0.45-0.93-0.67-1.95-0.67-3.05c0-1.19,0.25-2.25,0.75-3.18
			c0.5-0.93,1.23-1.64,2.2-2.13c0.73-0.38,1.65-0.57,2.74-0.57c1.42,0,2.53,0.3,3.33,0.89c0.8,0.6,1.31,1.42,1.54,2.47l-2.3,0.43
			c-0.16-0.56-0.46-1.01-0.91-1.33c-0.45-0.33-1-0.49-1.67-0.49c-1.01,0-1.81,0.32-2.41,0.96c-0.6,0.64-0.89,1.59-0.89,2.85
			c0,1.36,0.3,2.38,0.91,3.06c0.6,0.68,1.4,1.02,2.38,1.02c0.48,0,0.97-0.09,1.46-0.29c0.49-0.19,0.9-0.42,1.25-0.69v-1.45H100.26z"
			/>
		<path class="st4" d="M109.46,17.97h-2.2v-8.3h2.04v1.18c0.35-0.56,0.66-0.92,0.94-1.1c0.28-0.18,0.59-0.27,0.95-0.27
			c0.5,0,0.98,0.14,1.45,0.41l-0.68,1.91c-0.37-0.24-0.71-0.36-1.03-0.36c-0.31,0-0.57,0.08-0.78,0.25
			c-0.21,0.17-0.38,0.48-0.5,0.92c-0.12,0.44-0.18,1.37-0.18,2.78V17.97z"/>
		<path class="st4" d="M115.23,12.21l-1.99-0.36c0.22-0.8,0.61-1.4,1.16-1.78c0.55-0.39,1.36-0.58,2.44-0.58
			c0.98,0,1.71,0.12,2.19,0.35c0.48,0.23,0.82,0.53,1.01,0.88c0.2,0.36,0.29,1.01,0.29,1.96l-0.02,2.56c0,0.73,0.04,1.27,0.11,1.61
			c0.07,0.35,0.2,0.72,0.39,1.11h-2.17c-0.06-0.15-0.13-0.36-0.21-0.65c-0.04-0.13-0.06-0.22-0.08-0.26
			c-0.38,0.36-0.78,0.64-1.2,0.82c-0.43,0.18-0.88,0.27-1.37,0.27c-0.85,0-1.53-0.23-2.02-0.7c-0.49-0.46-0.74-1.05-0.74-1.76
			c0-0.47,0.11-0.89,0.34-1.25c0.22-0.37,0.54-0.65,0.94-0.84c0.4-0.2,0.99-0.37,1.75-0.51c1.03-0.19,1.74-0.37,2.13-0.54v-0.22
			c0-0.42-0.1-0.72-0.31-0.9c-0.21-0.18-0.6-0.27-1.18-0.27c-0.39,0-0.7,0.08-0.91,0.23C115.54,11.55,115.36,11.82,115.23,12.21z
			 M118.17,13.99c-0.28,0.09-0.73,0.21-1.34,0.34c-0.61,0.13-1.01,0.26-1.2,0.38c-0.29,0.2-0.43,0.46-0.43,0.77
			c0,0.31,0.11,0.57,0.34,0.8c0.23,0.22,0.52,0.34,0.88,0.34c0.4,0,0.77-0.13,1.13-0.39c0.27-0.2,0.44-0.44,0.52-0.73
			c0.06-0.19,0.09-0.54,0.09-1.07V13.99z"/>
		<path class="st4" d="M124.77,17.97l-3.34-8.3h2.3l1.56,4.23l0.45,1.41c0.12-0.36,0.2-0.6,0.23-0.71c0.07-0.23,0.15-0.47,0.23-0.7
			l1.58-4.23h2.26l-3.3,8.3H124.77z"/>
		<path class="st4" d="M131.38,8.55V6.52h2.2v2.03H131.38z M131.38,17.97v-8.3h2.2v8.3H131.38z"/>
		<path class="st4" d="M143.38,17.97h-2.2v-4.23c0-0.9-0.05-1.48-0.14-1.74c-0.09-0.26-0.25-0.47-0.46-0.61
			c-0.21-0.15-0.46-0.22-0.76-0.22c-0.38,0-0.72,0.1-1.02,0.31c-0.3,0.21-0.51,0.48-0.62,0.83c-0.11,0.34-0.17,0.98-0.17,1.91v3.76
			h-2.2v-8.3h2.04v1.22c0.72-0.94,1.64-1.41,2.73-1.41c0.48,0,0.93,0.09,1.33,0.26c0.4,0.17,0.7,0.4,0.91,0.67
			c0.21,0.27,0.35,0.58,0.43,0.92c0.08,0.34,0.12,0.84,0.12,1.48V17.97z"/>
		<path class="st4" d="M145.4,18.52l2.51,0.3c0.04,0.29,0.14,0.49,0.29,0.6c0.21,0.16,0.54,0.23,0.98,0.23c0.57,0,1-0.09,1.29-0.26
			c0.19-0.11,0.34-0.3,0.44-0.55c0.07-0.18,0.1-0.52,0.1-1.01v-1.21c-0.66,0.9-1.48,1.34-2.48,1.34c-1.11,0-2-0.47-2.65-1.41
			c-0.51-0.74-0.77-1.67-0.77-2.78c0-1.39,0.33-2.45,1-3.19c0.67-0.73,1.5-1.1,2.5-1.1c1.03,0,1.87,0.45,2.54,1.35V9.68h2.05v7.45
			c0,0.98-0.08,1.71-0.24,2.2c-0.16,0.48-0.39,0.86-0.68,1.14c-0.29,0.28-0.68,0.49-1.17,0.65c-0.49,0.16-1.1,0.23-1.85,0.23
			c-1.41,0-2.4-0.24-2.99-0.72c-0.59-0.48-0.88-1.09-0.88-1.83C145.39,18.71,145.39,18.62,145.4,18.52z M147.36,13.65
			c0,0.88,0.17,1.52,0.51,1.93c0.34,0.41,0.76,0.61,1.26,0.61c0.54,0,0.99-0.21,1.36-0.63c0.37-0.42,0.55-1.04,0.55-1.86
			c0-0.86-0.18-1.5-0.53-1.91c-0.35-0.42-0.8-0.62-1.34-0.62c-0.53,0-0.96,0.2-1.3,0.61C147.53,12.19,147.36,12.81,147.36,13.65z"/>
	</g>
</g>
</svg>
