  0
SECTION
  2
HEADER
  9
$ACADVER
  1
AC1032
  9
$ACADMAINTVER
 90
      110
  9
$DWGCODEPAGE
  3
ANSI_932
  9
$REQUIREDVERSIONS
160
                 0
  9
$INSBASE
 10
0.0
 20
0.0
 30
0.0
  9
$EXTMIN
 10
1.000000000000000E+20
 20
1.000000000000000E+20
 30
1.000000000000000E+20
  9
$EXTMAX
 10
-1.000000000000000E+20
 20
-1.000000000000000E+20
 30
-1.000000000000000E+20
  9
$LIMMIN
 10
0.0
 20
0.0
  9
$LIMMAX
 10
12.0
 20
9.0
  9
$ORTHOMODE
 70
     0
  9
$REGENMODE
 70
     1
  9
$FILLMODE
 70
     1
  9
$QTEXTMODE
 70
     0
  9
$MIRRTEXT
 70
     0
  9
$LTSCALE
 40
1.0
  9
$ATTMODE
 70
     1
  9
$TEXTSIZE
 40
0.2
  9
$TRACEWID
 40
0.05
  9
$TEXTSTYLE
  7
Standard
  9
$CLAYER
  8
0
  9
$CELTYPE
  6
ByLayer
  9
$CECOLOR
 62
   256
  9
$CELTSCALE
 40
1.0
  9
$DISPSILH
 70
     0
  9
$DIMSCALE
 40
1.0
  9
$DIMASZ
 40
0.18
  9
$DIMEXO
 40
0.0625
  9
$DIMDLI
 40
0.38
  9
$DIMRND
 40
0.0
  9
$DIMDLE
 40
0.0
  9
$DIMEXE
 40
0.18
  9
$DIMTP
 40
0.0
  9
$DIMTM
 40
0.0
  9
$DIMTXT
 40
0.18
  9
$DIMCEN
 40
0.09
  9
$DIMTSZ
 40
0.0
  9
$DIMTOL
 70
     0
  9
$DIMLIM
 70
     0
  9
$DIMTIH
 70
     1
  9
$DIMTOH
 70
     1
  9
$DIMSE1
 70
     0
  9
$DIMSE2
 70
     0
  9
$DIMTAD
 70
     0
  9
$DIMZIN
 70
     0
  9
$DIMBLK
  1

  9
$DIMASO
 70
     1
  9
$DIMSHO
 70
     1
  9
$DIMPOST
  1

  9
$DIMAPOST
  1

  9
$DIMALT
 70
     0
  9
$DIMALTD
 70
     2
  9
$DIMALTF
 40
25.4
  9
$DIMLFAC
 40
1.0
  9
$DIMTOFL
 70
     0
  9
$DIMTVP
 40
0.0
  9
$DIMTIX
 70
     0
  9
$DIMSOXD
 70
     0
  9
$DIMSAH
 70
     0
  9
$DIMBLK1
  1

  9
$DIMBLK2
  1

  9
$DIMSTYLE
  2
Standard
  9
$DIMCLRD
 70
     0
  9
$DIMCLRE
 70
     0
  9
$DIMCLRT
 70
     0
  9
$DIMTFAC
 40
1.0
  9
$DIMGAP
 40
0.09
  9
$DIMJUST
 70
     0
  9
$DIMSD1
 70
     0
  9
$DIMSD2
 70
     0
  9
$DIMTOLJ
 70
     1
  9
$DIMTZIN
 70
     0
  9
$DIMALTZ
 70
     0
  9
$DIMALTTZ
 70
     0
  9
$DIMUPT
 70
     0
  9
$DIMDEC
 70
     4
  9
$DIMTDEC
 70
     4
  9
$DIMALTU
 70
     2
  9
$DIMALTTD
 70
     2
  9
$DIMTXSTY
  7
Standard
  9
$DIMAUNIT
 70
     0
  9
$DIMADEC
 70
     0
  9
$DIMALTRND
 40
0.0
  9
$DIMAZIN
 70
     0
  9
$DIMDSEP
 70
    46
  9
$DIMATFIT
 70
     3
  9
$DIMFRAC
 70
     0
  9
$DIMLDRBLK
  1

  9
$DIMLUNIT
 70
     2
  9
$DIMLWD
 70
    -2
  9
$DIMLWE
 70
    -2
  9
$DIMTMOVE
 70
     0
  9
$DIMFXL
 40
1.0
  9
$DIMFXLON
 70
     0
  9
$DIMJOGANG
 40
0.7853981633974483
  9
$DIMTFILL
 70
     0
  9
$DIMTFILLCLR
 70
     0
  9
$DIMARCSYM
 70
     0
  9
$DIMLTYPE
  6

  9
$DIMLTEX1
  6

  9
$DIMLTEX2
  6

  9
$DIMTXTDIRECTION
 70
     0
  9
$LUNITS
 70
     2
  9
$LUPREC
 70
     4
  9
$SKETCHINC
 40
0.1
  9
$FILLETRAD
 40
0.0
  9
$AUNITS
 70
     0
  9
$AUPREC
 70
     0
  9
$MENU
  1
.
  9
$ELEVATION
 40
0.0
  9
$PELEVATION
 40
0.0
  9
$THICKNESS
 40
0.0
  9
$LIMCHECK
 70
     0
  9
$CHAMFERA
 40
0.0
  9
$CHAMFERB
 40
0.0
  9
$CHAMFERC
 40
0.0
  9
$CHAMFERD
 40
0.0
  9
$SKPOLY
 70
     0
  9
$TDCREATE
 40
2459360.424814815
  9
$TDUCREATE
 40
2459360.049814815
  9
$TDUPDATE
 40
2459360.424814815
  9
$TDUUPDATE
 40
2459360.049814815
  9
$TDINDWG
 40
0.0000000000
  9
$TDUSRTIMER
 40
0.0000000000
  9
$USRTIMER
 70
     1
  9
$ANGBASE
 50
0.0
  9
$ANGDIR
 70
     0
  9
$PDMODE
 70
     0
  9
$PDSIZE
 40
0.0
  9
$PLINEWID
 40
0.0
  9
$SPLFRAME
 70
     0
  9
$SPLINETYPE
 70
     6
  9
$SPLINESEGS
 70
     8
  9
$HANDSEED
  5
A5
  9
$SURFTAB1
 70
     6
  9
$SURFTAB2
 70
     6
  9
$SURFTYPE
 70
     6
  9
$SURFU
 70
     6
  9
$SURFV
 70
     6
  9
$UCSBASE
  2

  9
$UCSNAME
  2

  9
$UCSORG
 10
0.0
 20
0.0
 30
0.0
  9
$UCSXDIR
 10
1.0
 20
0.0
 30
0.0
  9
$UCSYDIR
 10
0.0
 20
1.0
 30
0.0
  9
$UCSORTHOREF
  2

  9
$UCSORTHOVIEW
 70
     0
  9
$UCSORGTOP
 10
0.0
 20
0.0
 30
0.0
  9
$UCSORGBOTTOM
 10
0.0
 20
0.0
 30
0.0
  9
$UCSORGLEFT
 10
0.0
 20
0.0
 30
0.0
  9
$UCSORGRIGHT
 10
0.0
 20
0.0
 30
0.0
  9
$UCSORGFRONT
 10
0.0
 20
0.0
 30
0.0
  9
$UCSORGBACK
 10
0.0
 20
0.0
 30
0.0
  9
$PUCSBASE
  2

  9
$PUCSNAME
  2

  9
$PUCSORG
 10
0.0
 20
0.0
 30
0.0
  9
$PUCSXDIR
 10
1.0
 20
0.0
 30
0.0
  9
$PUCSYDIR
 10
0.0
 20
1.0
 30
0.0
  9
$PUCSORTHOREF
  2

  9
$PUCSORTHOVIEW
 70
     0
  9
$PUCSORGTOP
 10
0.0
 20
0.0
 30
0.0
  9
$PUCSORGBOTTOM
 10
0.0
 20
0.0
 30
0.0
  9
$PUCSORGLEFT
 10
0.0
 20
0.0
 30
0.0
  9
$PUCSORGRIGHT
 10
0.0
 20
0.0
 30
0.0
  9
$PUCSORGFRONT
 10
0.0
 20
0.0
 30
0.0
  9
$PUCSORGBACK
 10
0.0
 20
0.0
 30
0.0
  9
$USERI1
 70
     0
  9
$USERI2
 70
     0
  9
$USERI3
 70
     0
  9
$USERI4
 70
     0
  9
$USERI5
 70
     0
  9
$USERR1
 40
0.0
  9
$USERR2
 40
0.0
  9
$USERR3
 40
0.0
  9
$USERR4
 40
0.0
  9
$USERR5
 40
0.0
  9
$WORLDVIEW
 70
     1
  9
$SHADEDGE
 70
     3
  9
$SHADEDIF
 70
    70
  9
$TILEMODE
 70
     1
  9
$MAXACTVP
 70
    64
  9
$PINSBASE
 10
0.0
 20
0.0
 30
0.0
  9
$PLIMCHECK
 70
     0
  9
$PEXTMIN
 10
1.000000000000000E+20
 20
1.000000000000000E+20
 30
1.000000000000000E+20
  9
$PEXTMAX
 10
-1.000000000000000E+20
 20
-1.000000000000000E+20
 30
-1.000000000000000E+20
  9
$PLIMMIN
 10
0.0
 20
0.0
  9
$PLIMMAX
 10
12.0
 20
9.0
  9
$UNITMODE
 70
     0
  9
$VISRETAIN
 70
     1
  9
$PLINEGEN
 70
     0
  9
$PSLTSCALE
 70
     1
  9
$TREEDEPTH
 70
  3020
  9
$CMLSTYLE
  2
Standard
  9
$CMLJUST
 70
     0
  9
$CMLSCALE
 40
1.0
  9
$PROXYGRAPHICS
 70
     1
  9
$MEASUREMENT
 70
     0
  9
$CELWEIGHT
370
    -1
  9
$ENDCAPS
280
     0
  9
$JOINSTYLE
280
     0
  9
$LWDISPLAY
290
     1
  9
$INSUNITS
 70
     4
  9
$HYPERLINKBASE
  1

  9
$STYLESHEET
  1

  9
$XEDIT
290
     1
  9
$CEPSNTYPE
380
     0
  9
$PSTYLEMODE
290
     1
  9
$FINGERPRINTGUID
  2
{C24E684B-AF12-6445-BA0F-252F839D4812}
  9
$VERSIONGUID
  2
{8700BD74-78CB-1042-B1A0-4A152B236A0C}
  9
$EXTNAMES
290
     1
  9
$PSVPSCALE
 40
0.0
  9
$OLESTARTUP
290
     0
  9
$SORTENTS
280
   127
  9
$INDEXCTL
280
     0
  9
$HIDETEXT
280
     1
  9
$XCLIPFRAME
280
     2
  9
$HALOGAP
280
     0
  9
$OBSCOLOR
 70
   257
  9
$OBSLTYPE
280
     0
  9
$INTERSECTIONDISPLAY
280
     0
  9
$INTERSECTIONCOLOR
 70
   257
  9
$DIMASSOC
280
     2
  9
$PROJECTNAME
  1

  9
$CAMERADISPLAY
290
     0
  9
$LENSLENGTH
 40
50.0
  9
$CAMERAHEIGHT
 40
0.0
  9
$STEPSPERSEC
 40
2.0
  9
$STEPSIZE
 40
6.0
  9
$3DDWFPREC
 40
2.0
  9
$PSOLWIDTH
 40
0.25
  9
$PSOLHEIGHT
 40
4.0
  9
$LOFTANG1
 40
1.570796326794896
  9
$LOFTANG2
 40
1.570796326794896
  9
$LOFTMAG1
 40
0.0
  9
$LOFTMAG2
 40
0.0
  9
$LOFTPARAM
 70
     7
  9
$LOFTNORMALS
280
     1
  9
$LATITUDE
 40
37.795
  9
$LONGITUDE
 40
-122.394
  9
$NORTHDIRECTION
 40
0.0
  9
$TIMEZONE
 70
 -8000
  9
$LIGHTGLYPHDISPLAY
280
     1
  9
$TILEMODELIGHTSYNCH
280
     1
  9
$CMATERIAL
347
11
  9
$SOLIDHIST
280
     0
  9
$SHOWHIST
280
     1
  9
$DWFFRAME
280
     2
  9
$DGNFRAME
280
     0
  9
$REALWORLDSCALE
290
     1
  9
$INTERFERECOLOR
 62
     1
  9
$INTERFEREOBJVS
345
33
  9
$INTERFEREVPVS
346
30
  9
$CSHADOW
280
     0
  9
$SHADOWPLANELOCATION
 40
0.0
  0
ENDSEC
  0
SECTION
  2
CLASSES
  0
CLASS
  1
ACDBDICTIONARYWDFLT
  2
AcDbDictionaryWithDefault
  3
ObjectDBX Classes
 90
        0
 91
        1
280
     0
281
     0
  0
CLASS
  1
MATERIAL
  2
AcDbMaterial
  3
ObjectDBX Classes
 90
     1153
 91
        3
280
     0
281
     0
  0
CLASS
  1
VISUALSTYLE
  2
AcDbVisualStyle
  3
ObjectDBX Classes
 90
     4095
 91
       24
280
     0
281
     0
  0
CLASS
  1
SCALE
  2
AcDbScale
  3
ObjectDBX Classes
 90
     1153
 91
       17
280
     0
281
     0
  0
CLASS
  1
TABLESTYLE
  2
AcDbTableStyle
  3
ObjectDBX Classes
 90
     4095
 91
        1
280
     0
281
     0
  0
CLASS
  1
MLEADERSTYLE
  2
AcDbMLeaderStyle
  3
ACDB_MLEADERSTYLE_CLASS
 90
     4095
 91
        1
280
     0
281
     0
  0
CLASS
  1
ACDBSECTIONVIEWSTYLE
  2
AcDbSectionViewStyle
  3
ObjectDBX Classes
 90
     1025
 91
        1
280
     0
281
     0
  0
CLASS
  1
ACDBDETAILVIEWSTYLE
  2
AcDbDetailViewStyle
  3
ObjectDBX Classes
 90
     1025
 91
        1
280
     0
281
     0
  0
CLASS
  1
DICTIONARYVAR
  2
AcDbDictionaryVar
  3
ObjectDBX Classes
 90
        0
 91
        5
280
     0
281
     0
  0
CLASS
  1
CELLSTYLEMAP
  2
AcDbCellStyleMap
  3
ObjectDBX Classes
 90
     1152
 91
        1
280
     0
281
     0
  0
ENDSEC
  0
SECTION
  2
TABLES
  0
TABLE
  2
VPORT
  5
8
330
0
100
AcDbSymbolTable
 70
     1
  0
VPORT
  5
57
330
8
100
AcDbSymbolTableRecord
100
AcDbViewportTableRecord
  2
*Active
 70
     0
 10
0.0
 20
0.0
 11
1.0
 21
1.0
 12
0.0
 22
0.0
 13
0.0
 23
0.0
 14
1.0
 24
1.0
 15
0.0
 25
0.0
 16
0.0
 26
0.0
 36
1.0
 17
149.9999999624995
 27
-150.0675550297572
 37
0.0
 40
112.3378123091555
 41
2.042945249022985
 42
50.0
 43
0.0
 44
0.0
 50
0.0
 51
0.0
 71
     0
 72
   100
 73
     1
 74
     0
 75
     1
 76
     0
 77
     0
 78
     0
281
     0
 65
     1
110
0.0
120
0.0
130
0.0
111
1.0
121
0.0
131
0.0
112
0.0
122
1.0
132
0.0
 79
     0
146
0.0
 60
     3
 61
     5
292
     1
282
     1
141
0.0
142
0.0
 63
   250
421
  3355443
  0
ENDTAB
  0
TABLE
  2
LTYPE
  5
5
330
0
100
AcDbSymbolTable
 70
     1
  0
LTYPE
  5
5B
330
5
100
AcDbSymbolTableRecord
100
AcDbLinetypeTableRecord
  2
ByBlock
 70
     0
  3

 72
    65
 73
     0
 40
0.0
  0
LTYPE
  5
5C
330
5
100
AcDbSymbolTableRecord
100
AcDbLinetypeTableRecord
  2
ByLayer
 70
     0
  3

 72
    65
 73
     0
 40
0.0
  0
LTYPE
  5
5D
330
5
100
AcDbSymbolTableRecord
100
AcDbLinetypeTableRecord
  2
Continuous
 70
     0
  3
Solid line
 72
    65
 73
     0
 40
0.0
  0
ENDTAB
  0
TABLE
  2
LAYER
  5
2
330
0
100
AcDbSymbolTable
 70
     4
  0
LAYER
  5
54
330
2
100
AcDbSymbolTableRecord
100
AcDbLayerTableRecord
  2
0
 70
     0
 62
     7
  6
Continuous
370
    -3
390
F
347
21
348
0
  0
LAYER
  5
78
330
2
100
AcDbSymbolTableRecord
100
AcDbLayerTableRecord
  2
cut
 70
     0
 62
     7
  6
Continuous
370
     0
390
F
347
21
348
0
  0
LAYER
  5
9A
330
2
100
AcDbSymbolTableRecord
100
AcDbLayerTableRecord
  2
graving
 70
     0
 62
     7
  6
Continuous
370
     0
390
F
347
21
348
0
  0
LAYER
  5
9B
330
2
100
AcDbSymbolTableRecord
100
AcDbLayerTableRecord
  2
note
 70
     0
 62
     7
  6
Continuous
370
     0
390
F
347
21
348
0
  0
ENDTAB
  0
TABLE
  2
STYLE
  5
3
330
0
100
AcDbSymbolTable
 70
     2
  0
STYLE
  5
55
330
3
100
AcDbSymbolTableRecord
100
AcDbTextStyleTableRecord
  2
Standard
 70
     0
 40
0.0
 41
1.0
 50
0.0
 71
     0
 42
0.2
  3
txt
  4

  0
STYLE
  5
5A
330
3
100
AcDbSymbolTableRecord
100
AcDbTextStyleTableRecord
  2
Annotative
 70
     0
 40
0.0
 41
1.0
 50
0.0
 71
     0
 42
0.2
  3
txt
  4

1001
AcadAnnotative
1000
AnnotativeData
1002
{
1070
     1
1070
     1
1002
}
  0
ENDTAB
  0
TABLE
  2
VIEW
  5
6
330
0
100
AcDbSymbolTable
 70
     0
  0
ENDTAB
  0
TABLE
  2
UCS
  5
7
330
0
100
AcDbSymbolTable
 70
     0
  0
ENDTAB
  0
TABLE
  2
APPID
  5
9
330
0
100
AcDbSymbolTable
 70
     2
  0
APPID
  5
56
330
9
100
AcDbSymbolTableRecord
100
AcDbRegAppTableRecord
  2
ACAD
 70
     0
  0
APPID
  5
5E
330
9
100
AcDbSymbolTableRecord
100
AcDbRegAppTableRecord
  2
AcadAnnotative
 70
     0
  0
ENDTAB
  0
TABLE
  2
DIMSTYLE
  5
A
330
0
100
AcDbSymbolTable
 70
     2
100
AcDbDimStyleTable
 71
     0
  0
DIMSTYLE
105
58
330
A
100
AcDbSymbolTableRecord
100
AcDbDimStyleTableRecord
  2
Standard
 70
     0
340
55
  0
DIMSTYLE
105
59
330
A
100
AcDbSymbolTableRecord
100
AcDbDimStyleTableRecord
  2
Annotative
 70
     0
340
55
1001
AcadAnnotative
1000
AnnotativeData
1002
{
1070
     1
1070
     1
1002
}
  0
ENDTAB
  0
TABLE
  2
BLOCK_RECORD
  5
1
330
0
100
AcDbSymbolTable
 70
     1
  0
BLOCK_RECORD
  5
70
330
1
100
AcDbSymbolTableRecord
100
AcDbBlockTableRecord
  2
*Model_Space
340
73
 70
     0
280
     1
281
     0
  0
BLOCK_RECORD
  5
6C
330
1
100
AcDbSymbolTableRecord
100
AcDbBlockTableRecord
  2
*Paper_Space
340
6F
 70
     0
280
     1
281
     0
  0
BLOCK_RECORD
  5
74
330
1
100
AcDbSymbolTableRecord
100
AcDbBlockTableRecord
  2
*Paper_Space0
340
77
 70
     0
280
     1
281
     0
  0
ENDTAB
  0
ENDSEC
  0
SECTION
  2
BLOCKS
  0
BLOCK
  5
71
330
70
100
AcDbEntity
  8
0
100
AcDbBlockBegin
  2
*Model_Space
 70
     0
 10
0.0
 20
0.0
 30
0.0
  3
*Model_Space
  1

  0
ENDBLK
  5
72
330
70
100
AcDbEntity
  8
0
100
AcDbBlockEnd
  0
BLOCK
  5
6D
330
6C
100
AcDbEntity
 67
     1
  8
0
100
AcDbBlockBegin
  2
*Paper_Space
 70
     0
 10
0.0
 20
0.0
 30
0.0
  3
*Paper_Space
  1

  0
ENDBLK
  5
6E
330
6C
100
AcDbEntity
 67
     1
  8
0
100
AcDbBlockEnd
  0
BLOCK
  5
75
330
74
100
AcDbEntity
 67
     1
  8
0
100
AcDbBlockBegin
  2
*Paper_Space0
 70
     0
 10
0.0
 20
0.0
 30
0.0
  3
*Paper_Space0
  1

  0
ENDBLK
  5
76
330
74
100
AcDbEntity
 67
     1
  8
0
100
AcDbBlockEnd
  0
ENDSEC
  0
SECTION
  2
ENTITIES
  0
SPLINE
  5
79
330
70
100
AcDbEntity
  8
cut
 62
    18
420
        0
370
     9
100
AcDbSpline
210
0.0
220
0.0
230
1.0
 70
    11
 71
     3
 72
    41
 73
    37
 74
     0
 42
0.0000000001
 43
0.0000000001
 40
0.0
 40
0.0
 40
0.0
 40
0.0
 40
1.0
 40
1.0
 40
1.0
 40
2.0
 40
2.0
 40
2.0
 40
3.0
 40
3.0
 40
3.0
 40
4.0
 40
4.0
 40
4.0
 40
5.0
 40
5.0
 40
5.0
 40
6.0
 40
6.0
 40
6.0
 40
7.0
 40
7.0
 40
7.0
 40
8.0
 40
8.0
 40
8.0
 40
9.0
 40
9.0
 40
9.0
 40
10.0
 40
10.0
 40
10.0
 40
11.0
 40
11.0
 40
11.0
 40
12.0
 40
12.0
 40
12.0
 40
12.0
 10
238.1520298470003
 20
-161.0243306263072
 30
0.0
 10
238.1520298470003
 20
-161.0243306263072
 30
0.0
 10
235.5477775835159
 20
-161.0718945030643
 30
0.0
 10
235.5477775835159
 20
-161.0718945030643
 30
0.0
 10
234.0312914040752
 20
-161.0995844738699
 30
0.0
 10
232.7201111414448
 20
-160.0196325487398
 30
0.0
 10
232.4567339023858
 20
-158.5259244191027
 30
0.0
 10
232.4567339023858
 20
-158.5259244191027
 30
0.0
 10
232.4508772469719
 20
-158.4927222923674
 30
0.0
 10
232.4508772469719
 20
-158.4927222923674
 30
0.0
 10
232.4508772469719
 20
-158.4927222923674
 30
0.0
 10
218.7866326796498
 20
-160.9021157940433
 30
0.0
 10
218.7866326796498
 20
-160.9021157940433
 30
0.0
 10
218.7866326796498
 20
-160.9021157940433
 30
0.0
 10
216.1993044277664
 20
-146.2284552619268
 30
0.0
 10
216.1993044277664
 20
-146.2284552619268
 30
0.0
 10
216.1993044277664
 20
-146.2284552619268
 30
0.0
 10
229.8880952714559
 20
-143.8147553884301
 30
0.0
 10
229.8880952714559
 20
-143.8147553884301
 30
0.0
 10
229.8880952714559
 20
-143.8147553884301
 30
0.0
 10
232.0357437308621
 20
-155.9946605949078
 30
0.0
 10
232.0357437308621
 20
-155.9946605949078
 30
0.0
 10
232.0357437308621
 20
-155.9946605949078
 30
0.0
 10
237.107478128457
 20
-155.1003778908166
 30
0.0
 10
237.107478128457
 20
-155.1003778908166
 30
0.0
 10
237.107478128457
 20
-155.1003778908166
 30
0.0
 10
235.5676299228238
 20
-146.3672926894176
 30
0.0
 10
235.5676299228238
 20
-146.3672926894176
 30
0.0
 10
235.5676299228238
 20
-146.3672926894176
 30
0.0
 10
249.2564207665133
 20
-143.9535928159213
 30
0.0
 10
249.2564207665133
 20
-143.9535928159213
 30
0.0
 10
249.2564207665133
 20
-143.9535928159213
 30
0.0
 10
251.8437705502185
 20
-158.6272318161786
 30
0.0
 10
251.8437705502185
 20
-158.6272318161786
 30
0.0
 10
251.8437705502185
 20
-158.6272318161786
 30
0.0
 10
238.1520298470003
 20
-161.0243306263072
 30
0.0
 10
238.1520298470003
 20
-161.0243306263072
 30
0.0
  0
SPLINE
  5
7A
330
70
100
AcDbEntity
  8
cut
 62
    18
420
        0
370
     9
100
AcDbSpline
210
0.0
220
0.0
230
1.0
 70
    11
 71
     3
 72
    17
 73
    13
 74
     0
 42
0.0000000001
 43
0.0000000001
 40
0.0
 40
0.0
 40
0.0
 40
0.0
 40
1.0
 40
1.0
 40
1.0
 40
2.0
 40
2.0
 40
2.0
 40
3.0
 40
3.0
 40
3.0
 40
4.0
 40
4.0
 40
4.0
 40
4.0
 10
212.8913061144618
 20
-127.467854085482
 30
0.0
 10
212.8913061144618
 20
-127.467854085482
 30
0.0
 10
226.5800969581512
 20
-125.0541542119851
 30
0.0
 10
226.5800969581512
 20
-125.0541542119851
 30
0.0
 10
226.5800969581512
 20
-125.0541542119851
 30
0.0
 10
229.1674467418558
 20
-139.727793212243
 30
0.0
 10
229.1674467418558
 20
-139.727793212243
 30
0.0
 10
229.1674467418558
 20
-139.727793212243
 30
0.0
 10
215.4786343663452
 20
-142.1415146175989
 30
0.0
 10
215.4786343663452
 20
-142.1415146175989
 30
0.0
 10
215.4786343663452
 20
-142.1415146175989
 30
0.0
 10
212.8913061144618
 20
-127.467854085482
 30
0.0
 10
212.8913061144618
 20
-127.467854085482
 30
0.0
  0
SPLINE
  5
7B
330
70
100
AcDbEntity
  8
cut
 62
    18
420
        0
370
     9
100
AcDbSpline
210
0.0
220
0.0
230
1.0
 70
    11
 71
     3
 72
    17
 73
    13
 74
     0
 42
0.0000000001
 43
0.0000000001
 40
0.0
 40
0.0
 40
0.0
 40
0.0
 40
1.0
 40
1.0
 40
1.0
 40
2.0
 40
2.0
 40
2.0
 40
3.0
 40
3.0
 40
3.0
 40
4.0
 40
4.0
 40
4.0
 40
4.0
 10
199.4186732255553
 20
-160.7643118957891
 30
0.0
 10
199.4186732255553
 20
-160.7643118957891
 30
0.0
 10
196.8313449736718
 20
-146.0906513636728
 30
0.0
 10
196.8313449736718
 20
-146.0906513636728
 30
0.0
 10
196.8313449736718
 20
-146.0906513636728
 30
0.0
 10
210.5201358173613
 20
-143.6769514901758
 30
0.0
 10
210.5201358173613
 20
-143.6769514901758
 30
0.0
 10
210.5201358173613
 20
-143.6769514901758
 30
0.0
 10
213.1074856010665
 20
-158.3505904904335
 30
0.0
 10
213.1074856010665
 20
-158.3505904904335
 30
0.0
 10
213.1074856010665
 20
-158.3505904904335
 30
0.0
 10
199.4186732255553
 20
-160.7643118957891
 30
0.0
 10
199.4186732255553
 20
-160.7643118957891
 30
0.0
  0
SPLINE
  5
7C
330
70
100
AcDbEntity
  8
cut
 62
    18
420
        0
370
     9
100
AcDbSpline
210
0.0
220
0.0
230
1.0
 70
     9
 71
     3
 72
    17
 73
    13
 74
     0
 42
0.0000000001
 43
0.0000000001
 40
0.0
 40
0.0
 40
0.0
 40
0.0
 40
1.0
 40
1.0
 40
1.0
 40
2.0
 40
2.0
 40
2.0
 40
3.0
 40
3.0
 40
3.0
 40
4.0
 40
4.0
 40
4.0
 40
4.0
 10
195.9066393729015
 20
-172.1470430827272
 30
0.0
 10
194.4707037372243
 20
-172.1470430827272
 30
0.0
 10
193.3066504100492
 20
-170.9829661840855
 30
0.0
 10
193.3066504100492
 20
-169.5470280324193
 30
0.0
 10
193.3066504100492
 20
-168.1110898807531
 30
0.0
 10
194.4707037372243
 20
-166.9470345139703
 30
0.0
 10
195.9066393729015
 20
-166.9470345139703
 30
0.0
 10
197.342575008578
 20
-166.9470345139703
 30
0.0
 10
198.5066283357532
 20
-168.1110898807531
 30
0.0
 10
198.5066283357532
 20
-169.5470280324193
 30
0.0
 10
198.5066283357532
 20
-170.9829661840855
 30
0.0
 10
197.342575008578
 20
-172.1470430827272
 30
0.0
 10
195.9066393729015
 20
-172.1470430827272
 30
0.0
  0
SPLINE
  5
7D
330
70
100
AcDbEntity
  8
cut
 62
    18
420
        0
370
     9
100
AcDbSpline
210
0.0
220
0.0
230
1.0
 70
    11
 71
     3
 72
    17
 73
    13
 74
     0
 42
0.0000000001
 43
0.0000000001
 40
0.0
 40
0.0
 40
0.0
 40
0.0
 40
1.0
 40
1.0
 40
1.0
 40
2.0
 40
2.0
 40
2.0
 40
3.0
 40
3.0
 40
3.0
 40
4.0
 40
4.0
 40
4.0
 40
4.0
 10
176.3890122284293
 20
-194.238536734845
 30
0.0
 10
176.3890122284293
 20
-194.238536734845
 30
0.0
 10
172.5326414883461
 20
-179.8462330056163
 30
0.0
 10
172.5326414883461
 20
-179.8462330056163
 30
0.0
 10
172.5326414883461
 20
-179.8462330056163
 30
0.0
 10
185.9589809612961
 20
-176.248646923104
 30
0.0
 10
185.9589809612961
 20
-176.248646923104
 30
0.0
 10
185.9589809612961
 20
-176.248646923104
 30
0.0
 10
189.8153732332004
 20
-190.6409506523327
 30
0.0
 10
189.8153732332004
 20
-190.6409506523327
 30
0.0
 10
189.8153732332004
 20
-190.6409506523327
 30
0.0
 10
176.3890122284293
 20
-194.238536734845
 30
0.0
 10
176.3890122284293
 20
-194.238536734845
 30
0.0
  0
SPLINE
  5
7E
330
70
100
AcDbEntity
  8
cut
 62
    18
420
        0
370
     9
100
AcDbSpline
210
0.0
220
0.0
230
1.0
 70
    11
 71
     3
 72
    17
 73
    13
 74
     0
 42
0.0000000001
 43
0.0000000001
 40
0.0
 40
0.0
 40
0.0
 40
0.0
 40
1.0
 40
1.0
 40
1.0
 40
2.0
 40
2.0
 40
2.0
 40
3.0
 40
3.0
 40
3.0
 40
4.0
 40
4.0
 40
4.0
 40
4.0
 10
163.1126849549993
 20
-174.2729265956046
 30
0.0
 10
163.1126849549993
 20
-174.2729265956046
 30
0.0
 10
160.5253567031159
 20
-159.5992660634877
 30
0.0
 10
160.5253567031159
 20
-159.5992660634877
 30
0.0
 10
160.5253567031159
 20
-159.5992660634877
 30
0.0
 10
174.2141475468053
 20
-157.185566189991
 30
0.0
 10
174.2141475468053
 20
-157.185566189991
 30
0.0
 10
174.2141475468053
 20
-157.185566189991
 30
0.0
 10
176.8014973305099
 20
-171.859205190249
 30
0.0
 10
176.8014973305099
 20
-171.859205190249
 30
0.0
 10
176.8014973305099
 20
-171.859205190249
 30
0.0
 10
163.1126849549993
 20
-174.2729265956046
 30
0.0
 10
163.1126849549993
 20
-174.2729265956046
 30
0.0
  0
SPLINE
  5
7F
330
70
100
AcDbEntity
  8
cut
 62
    18
420
        0
370
     9
100
AcDbSpline
210
0.0
220
0.0
230
1.0
 70
     9
 71
     3
 72
    47
 73
    43
 74
     0
 42
0.0000000001
 43
0.0000000001
 40
0.0
 40
0.0
 40
0.0
 40
0.0
 40
1.0
 40
1.0
 40
1.0
 40
2.0
 40
2.0
 40
2.0
 40
3.0
 40
3.0
 40
3.0
 40
4.0
 40
4.0
 40
4.0
 40
5.0
 40
5.0
 40
5.0
 40
6.0
 40
6.0
 40
6.0
 40
7.0
 40
7.0
 40
7.0
 40
8.0
 40
8.0
 40
8.0
 40
9.0
 40
9.0
 40
9.0
 40
10.0
 40
10.0
 40
10.0
 40
11.0
 40
11.0
 40
11.0
 40
12.0
 40
12.0
 40
12.0
 40
13.0
 40
13.0
 40
13.0
 40
14.0
 40
14.0
 40
14.0
 40
14.0
 10
163.2493904889092
 20
-195.7401039930548
 30
0.0
 10
162.996047078611
 20
-196.2098860949462
 30
0.0
 10
162.50542299676
 20
-196.5328209177611
 30
0.0
 10
161.9342483711456
 20
-196.5328209177611
 30
0.0
 10
161.3630737455311
 20
-196.5328209177611
 30
0.0
 10
160.8724496636808
 20
-196.2098645630873
 30
0.0
 10
160.6191062533825
 20
-195.7400824611952
 30
0.0
 10
160.6191062533825
 20
-195.7400824611952
 30
0.0
 10
158.4772498539261
 20
-195.7390489319586
 30
0.0
 10
158.4772498539261
 20
-195.7390489319586
 30
0.0
 10
158.4772498539261
 20
-195.7390489319586
 30
0.0
 10
158.4772498539261
 20
-195.2562831190283
 30
0.0
 10
158.4772498539261
 20
-195.2562831190283
 30
0.0
 10
158.4772498539261
 20
-195.2562831190283
 30
0.0
 10
141.541051242281
 20
-195.2562615871693
 30
0.0
 10
141.541051242281
 20
-195.2562615871693
 30
0.0
 10
141.541051242281
 20
-195.2562615871693
 30
0.0
 10
141.541051242281
 20
-195.7405992258138
 30
0.0
 10
141.541051242281
 20
-195.7405992258138
 30
0.0
 10
141.541051242281
 20
-195.7405992258138
 30
0.0
 10
139.373292061711
 20
-195.7403193116459
 30
0.0
 10
139.373292061711
 20
-195.7403193116459
 30
0.0
 10
139.1199055877695
 20
-196.2099506905238
 30
0.0
 10
138.6293461013832
 20
-196.5327993859022
 30
0.0
 10
138.0582791348756
 20
-196.5327993859022
 30
0.0
 10
137.4872121683677
 20
-196.5327993859022
 30
0.0
 10
136.9966742138027
 20
-196.2099506905238
 30
0.0
 10
136.7432877398616
 20
-195.7403193116459
 30
0.0
 10
136.7432877398616
 20
-195.7403193116459
 30
0.0
 10
133.5365535824835
 20
-195.7405992258138
 30
0.0
 10
133.5365535824835
 20
-195.7405992258138
 30
0.0
 10
133.5365535824835
 20
-195.7405992258138
 30
0.0
 10
133.5390943374059
 20
-177.4903892375272
 30
0.0
 10
133.5390943374059
 20
-177.4903892375272
 30
0.0
 10
133.5390943374059
 20
-177.4903892375272
 30
0.0
 10
166.4886592283849
 20
-177.4866211621847
 30
0.0
 10
166.4886592283849
 20
-177.4866211621847
 30
0.0
 10
166.4886592283849
 20
-177.4866211621847
 30
0.0
 10
166.4890037375266
 20
-195.7390704638176
 30
0.0
 10
166.4890037375266
 20
-195.7390704638176
 30
0.0
 10
166.4890037375266
 20
-195.7390704638176
 30
0.0
 10
163.2493904889092
 20
-195.7401039930548
 30
0.0
 10
163.2493904889092
 20
-195.7401039930548
 30
0.0
  0
SPLINE
  5
80
330
70
100
AcDbEntity
  8
cut
 62
    18
420
        0
370
     9
100
AcDbSpline
210
0.0
220
0.0
230
1.0
 70
    11
 71
     3
 72
    17
 73
    13
 74
     0
 42
0.0000000001
 43
0.0000000001
 40
0.0
 40
0.0
 40
0.0
 40
0.0
 40
1.0
 40
1.0
 40
1.0
 40
2.0
 40
2.0
 40
2.0
 40
3.0
 40
3.0
 40
3.0
 40
4.0
 40
4.0
 40
4.0
 40
4.0
 10
123.224899730534
 20
-171.8592482539676
 30
0.0
 10
123.224899730534
 20
-171.8592482539676
 30
0.0
 10
125.8122710460603
 20
-157.1856092537096
 30
0.0
 10
125.8122710460603
 20
-157.1856092537096
 30
0.0
 10
125.8122710460603
 20
-157.1856092537096
 30
0.0
 10
139.5010618897498
 20
-159.5993306590652
 30
0.0
 10
139.5010618897498
 20
-159.5993306590652
 30
0.0
 10
139.5010618897498
 20
-159.5993306590652
 30
0.0
 10
136.9137121060446
 20
-174.2729696593232
 30
0.0
 10
136.9137121060446
 20
-174.2729696593232
 30
0.0
 10
136.9137121060446
 20
-174.2729696593232
 30
0.0
 10
123.224899730534
 20
-171.8592482539676
 30
0.0
 10
123.224899730534
 20
-171.8592482539676
 30
0.0
  0
SPLINE
  5
81
330
70
100
AcDbEntity
  8
cut
 62
    18
420
        0
370
     9
100
AcDbSpline
210
0.0
220
0.0
230
1.0
 70
    11
 71
     3
 72
    17
 73
    13
 74
     0
 42
0.0000000001
 43
0.0000000001
 40
0.0
 40
0.0
 40
0.0
 40
0.0
 40
1.0
 40
1.0
 40
1.0
 40
2.0
 40
2.0
 40
2.0
 40
3.0
 40
3.0
 40
3.0
 40
4.0
 40
4.0
 40
4.0
 40
4.0
 10
123.6273725356752
 20
-194.238536734845
 30
0.0
 10
123.6273725356752
 20
-194.238536734845
 30
0.0
 10
110.2010115309035
 20
-190.6409506523327
 30
0.0
 10
110.2010115309035
 20
-190.6409506523327
 30
0.0
 10
110.2010115309035
 20
-190.6409506523327
 30
0.0
 10
114.0574253346299
 20
-176.248646923104
 30
0.0
 10
114.0574253346299
 20
-176.248646923104
 30
0.0
 10
114.0574253346299
 20
-176.248646923104
 30
0.0
 10
127.4837648075799
 20
-179.8462330056163
 30
0.0
 10
127.4837648075799
 20
-179.8462330056163
 30
0.0
 10
127.4837648075799
 20
-179.8462330056163
 30
0.0
 10
123.6273725356752
 20
-194.238536734845
 30
0.0
 10
123.6273725356752
 20
-194.238536734845
 30
0.0
  0
SPLINE
  5
82
330
70
100
AcDbEntity
  8
cut
 62
    18
420
        0
370
     9
100
AcDbSpline
210
0.0
220
0.0
230
1.0
 70
     9
 71
     3
 72
    17
 73
    13
 74
     0
 42
0.0000000001
 43
0.0000000001
 40
0.0
 40
0.0
 40
0.0
 40
0.0
 40
1.0
 40
1.0
 40
1.0
 40
2.0
 40
2.0
 40
2.0
 40
3.0
 40
3.0
 40
3.0
 40
4.0
 40
4.0
 40
4.0
 40
4.0
 10
104.1247530707017
 20
-172.1470430827272
 30
0.0
 10
102.6888174350238
 20
-172.1470430827272
 30
0.0
 10
101.5247641078493
 20
-170.9829661840855
 30
0.0
 10
101.5247641078493
 20
-169.5470280324193
 30
0.0
 10
101.5247641078493
 20
-168.1110898807531
 30
0.0
 10
102.6888174350238
 20
-166.9470345139703
 30
0.0
 10
104.1247530707017
 20
-166.9470345139703
 30
0.0
 10
105.5606887063786
 20
-166.9470345139703
 30
0.0
 10
106.724742033553
 20
-168.1110898807531
 30
0.0
 10
106.724742033553
 20
-169.5470280324193
 30
0.0
 10
106.724742033553
 20
-170.9829661840855
 30
0.0
 10
105.5606887063786
 20
-172.1470430827272
 30
0.0
 10
104.1247530707017
 20
-172.1470430827272
 30
0.0
  0
SPLINE
  5
83
330
70
100
AcDbEntity
  8
cut
 62
    18
420
        0
370
     9
100
AcDbSpline
210
0.0
220
0.0
230
1.0
 70
    11
 71
     3
 72
    17
 73
    13
 74
     0
 42
0.0000000001
 43
0.0000000001
 40
0.0
 40
0.0
 40
0.0
 40
0.0
 40
1.0
 40
1.0
 40
1.0
 40
2.0
 40
2.0
 40
2.0
 40
3.0
 40
3.0
 40
3.0
 40
4.0
 40
4.0
 40
4.0
 40
4.0
 10
86.92332548335951
 20
-158.3485234319597
 30
0.0
 10
86.92332548335951
 20
-158.3485234319597
 30
0.0
 10
89.51069679888549
 20
-143.6748844317021
 30
0.0
 10
89.51069679888549
 20
-143.6748844317021
 30
0.0
 10
89.51069679888549
 20
-143.6748844317021
 30
0.0
 10
103.1994876425753
 20
-146.088605837058
 30
0.0
 10
103.1994876425753
 20
-146.088605837058
 30
0.0
 10
103.1994876425753
 20
-146.088605837058
 30
0.0
 10
100.6121378588704
 20
-160.7622448373153
 30
0.0
 10
100.6121378588704
 20
-160.7622448373153
 30
0.0
 10
100.6121378588704
 20
-160.7622448373153
 30
0.0
 10
86.92332548335951
 20
-158.3485234319597
 30
0.0
 10
86.92332548335951
 20
-158.3485234319597
 30
0.0
  0
SPLINE
  5
84
330
70
100
AcDbEntity
  8
cut
 62
    18
420
        0
370
     9
100
AcDbSpline
210
0.0
220
0.0
230
1.0
 70
    11
 71
     3
 72
    17
 73
    13
 74
     0
 42
0.0000000001
 43
0.0000000001
 40
0.0
 40
0.0
 40
0.0
 40
0.0
 40
1.0
 40
1.0
 40
1.0
 40
2.0
 40
2.0
 40
2.0
 40
3.0
 40
3.0
 40
3.0
 40
4.0
 40
4.0
 40
4.0
 40
4.0
 10
70.85897185100893
 20
-139.727836275961
 30
0.0
 10
70.85897185100893
 20
-139.727836275961
 30
0.0
 10
73.44634316653555
 20
-125.054197275703
 30
0.0
 10
73.44634316653555
 20
-125.054197275703
 30
0.0
 10
73.44634316653555
 20
-125.054197275703
 30
0.0
 10
87.13513401022506
 20
-127.4679186810589
 30
0.0
 10
87.13513401022506
 20
-127.4679186810589
 30
0.0
 10
87.13513401022506
 20
-127.4679186810589
 30
0.0
 10
84.54778422651987
 20
-142.1415576813169
 30
0.0
 10
84.54778422651987
 20
-142.1415576813169
 30
0.0
 10
84.54778422651987
 20
-142.1415576813169
 30
0.0
 10
70.85897185100893
 20
-139.727836275961
 30
0.0
 10
70.85897185100893
 20
-139.727836275961
 30
0.0
  0
SPLINE
  5
85
330
70
100
AcDbEntity
  8
cut
 62
    18
420
        0
370
     9
100
AcDbSpline
210
0.0
220
0.0
230
1.0
 70
    11
 71
     3
 72
    44
 73
    40
 74
     0
 42
0.0000000001
 43
0.0000000001
 40
0.0
 40
0.0
 40
0.0
 40
0.0
 40
1.0
 40
1.0
 40
1.0
 40
2.0
 40
2.0
 40
2.0
 40
3.0
 40
3.0
 40
3.0
 40
4.0
 40
4.0
 40
4.0
 40
5.0
 40
5.0
 40
5.0
 40
6.0
 40
6.0
 40
6.0
 40
7.0
 40
7.0
 40
7.0
 40
8.0
 40
8.0
 40
8.0
 40
9.0
 40
9.0
 40
9.0
 40
10.0
 40
10.0
 40
10.0
 40
11.0
 40
11.0
 40
11.0
 40
12.0
 40
12.0
 40
12.0
 40
13.0
 40
13.0
 40
13.0
 40
13.0
 10
81.2397859132155
 20
-160.9021588577613
 30
0.0
 10
81.2397859132155
 20
-160.9021588577613
 30
0.0
 10
67.58712546579244
 20
-158.4948108827002
 30
0.0
 10
67.58712546579244
 20
-158.4948108827002
 30
0.0
 10
67.58712546579244
 20
-158.4948108827002
 30
0.0
 10
67.57974005106149
 20
-158.5367334123717
 30
0.0
 10
67.57974005106149
 20
-158.5367334123717
 30
0.0
 10
67.31636281200278
 20
-160.0304630738685
 30
0.0
 10
66.00520408119317
 20
-161.1103934671389
 30
0.0
 10
64.48869636993075
 20
-161.0827034963333
 30
0.0
 10
64.48869636993075
 20
-161.0827034963333
 30
0.0
 10
61.87251547740529
 20
-161.0349243009859
 30
0.0
 10
61.87251547740529
 20
-161.0349243009859
 30
0.0
 10
61.87251547740529
 20
-161.0349243009859
 30
0.0
 10
61.87146041815719
 20
-161.0409747533932
 30
0.0
 10
61.87146041815719
 20
-161.0409747533932
 30
0.0
 10
61.87146041815719
 20
-161.0409747533932
 30
0.0
 10
48.18264804264624
 20
-158.6272533480376
 30
0.0
 10
48.18264804264624
 20
-158.6272533480376
 30
0.0
 10
48.18264804264624
 20
-158.6272533480376
 30
0.0
 10
50.77001935817319
 20
-143.9536143477799
 30
0.0
 10
50.77001935817319
 20
-143.9536143477799
 30
0.0
 10
50.77001935817319
 20
-143.9536143477799
 30
0.0
 10
64.45881020186205
 20
-146.3673357531359
 30
0.0
 10
64.45881020186205
 20
-146.3673357531359
 30
0.0
 10
64.45881020186205
 20
-146.3673357531359
 30
0.0
 10
62.91739017326911
 20
-155.1091413574715
 30
0.0
 10
62.91739017326911
 20
-155.1091413574715
 30
0.0
 10
62.91739017326911
 20
-155.1091413574715
 30
0.0
 10
67.98914610268546
 20
-156.0034240615626
 30
0.0
 10
67.98914610268546
 20
-156.0034240615626
 30
0.0
 10
67.98914610268546
 20
-156.0034240615626
 30
0.0
 10
70.13834485323056
 20
-143.8147984521484
 30
0.0
 10
70.13834485323056
 20
-143.8147984521484
 30
0.0
 10
70.13834485323056
 20
-143.8147984521484
 30
0.0
 10
83.8271356969207
 20
-146.228519857504
 30
0.0
 10
83.8271356969207
 20
-146.228519857504
 30
0.0
 10
83.8271356969207
 20
-146.228519857504
 30
0.0
 10
81.2397859132155
 20
-160.9021588577613
 30
0.0
 10
81.2397859132155
 20
-160.9021588577613
 30
0.0
  0
SPLINE
  5
86
330
70
100
AcDbEntity
  8
cut
 62
    18
420
        0
370
     9
100
AcDbSpline
210
0.0
220
0.0
230
1.0
 70
    11
 71
     3
 72
    17
 73
    13
 74
     0
 42
0.0000000001
 43
0.0000000001
 40
0.0
 40
0.0
 40
0.0
 40
0.0
 40
1.0
 40
1.0
 40
1.0
 40
2.0
 40
2.0
 40
2.0
 40
3.0
 40
3.0
 40
3.0
 40
4.0
 40
4.0
 40
4.0
 40
4.0
 10
54.07799613965675
 20
-125.1930131713352
 30
0.0
 10
54.07799613965675
 20
-125.1930131713352
 30
0.0
 10
67.76678698334561
 20
-127.6067345766911
 30
0.0
 10
67.76678698334561
 20
-127.6067345766911
 30
0.0
 10
67.76678698334561
 20
-127.6067345766911
 30
0.0
 10
65.17943719964041
 20
-142.2803735769487
 30
0.0
 10
65.17943719964041
 20
-142.2803735769487
 30
0.0
 10
65.17943719964041
 20
-142.2803735769487
 30
0.0
 10
51.49062482412981
 20
-139.8666521715928
 30
0.0
 10
51.49062482412981
 20
-139.8666521715928
 30
0.0
 10
51.49062482412981
 20
-139.8666521715928
 30
0.0
 10
54.07799613965675
 20
-125.1930131713352
 30
0.0
 10
54.07799613965675
 20
-125.1930131713352
 30
0.0
  0
SPLINE
  5
87
330
70
100
AcDbEntity
  8
cut
 62
    18
420
        0
370
     9
100
AcDbSpline
210
0.0
220
0.0
230
1.0
 70
    11
 71
     3
 72
    44
 73
    40
 74
     0
 42
0.0000000001
 43
0.0000000001
 40
0.0
 40
0.0
 40
0.0
 40
0.0
 40
1.0
 40
1.0
 40
1.0
 40
2.0
 40
2.0
 40
2.0
 40
3.0
 40
3.0
 40
3.0
 40
4.0
 40
4.0
 40
4.0
 40
5.0
 40
5.0
 40
5.0
 40
6.0
 40
6.0
 40
6.0
 40
7.0
 40
7.0
 40
7.0
 40
8.0
 40
8.0
 40
8.0
 40
9.0
 40
9.0
 40
9.0
 40
10.0
 40
10.0
 40
10.0
 40
11.0
 40
11.0
 40
11.0
 40
12.0
 40
12.0
 40
12.0
 40
13.0
 40
13.0
 40
13.0
 40
13.0
 10
57.38599445296111
 20
-106.4324335267491
 30
0.0
 10
57.38599445296111
 20
-106.4324335267491
 30
0.0
 10
71.07478529665093
 20
-108.8461549321047
 30
0.0
 10
71.07478529665093
 20
-108.8461549321047
 30
0.0
 10
71.07478529665093
 20
-108.8461549321047
 30
0.0
 10
69.53088910859931
 20
-117.6020854360117
 30
0.0
 10
69.53088910859931
 20
-117.6020854360117
 30
0.0
 10
69.53088910859931
 20
-117.6020854360117
 30
0.0
 10
74.60264503801565
 20
-118.4963896719622
 30
0.0
 10
74.60264503801565
 20
-118.4963896719622
 30
0.0
 10
74.60264503801565
 20
-118.4963896719622
 30
0.0
 10
76.75434147983992
 20
-106.2935960992576
 30
0.0
 10
76.75434147983992
 20
-106.2935960992576
 30
0.0
 10
76.75434147983992
 20
-106.2935960992576
 30
0.0
 10
90.44313232352974
 20
-108.7073175046138
 30
0.0
 10
90.44313232352974
 20
-108.7073175046138
 30
0.0
 10
90.44313232352974
 20
-108.7073175046138
 30
0.0
 10
87.85578253982487
 20
-123.3809565048718
 30
0.0
 10
87.85578253982487
 20
-123.3809565048718
 30
0.0
 10
87.85578253982487
 20
-123.3809565048718
 30
0.0
 10
74.19948321459038
 20
-120.972962574037
 30
0.0
 10
74.19948321459038
 20
-120.972962574037
 30
0.0
 10
74.19948321459038
 20
-120.972962574037
 30
0.0
 10
74.189600108579
 20
-121.0290315351392
 30
0.0
 10
74.189600108579
 20
-121.0290315351392
 30
0.0
 10
73.92622286951997
 20
-122.5227611966356
 30
0.0
 10
72.61506413871099
 20
-123.6027131217654
 30
0.0
 10
71.09855642744889
 20
-123.5750016191008
 30
0.0
 10
71.09855642744889
 20
-123.5750016191008
 30
0.0
 10
68.46893967838446
 20
-123.5269855733027
 30
0.0
 10
68.46893967838446
 20
-123.5269855733027
 30
0.0
 10
68.46893967838446
 20
-123.5269855733027
 30
0.0
 10
68.4707268195588
 20
-123.5168440676657
 30
0.0
 10
68.4707268195588
 20
-123.5168440676657
 30
0.0
 10
68.4707268195588
 20
-123.5168440676657
 30
0.0
 10
54.79862313743513
 20
-121.1060725270067
 30
0.0
 10
54.79862313743513
 20
-121.1060725270067
 30
0.0
 10
54.79862313743513
 20
-121.1060725270067
 30
0.0
 10
57.38599445296111
 20
-106.4324335267491
 30
0.0
 10
57.38599445296111
 20
-106.4324335267491
 30
0.0
  0
SPLINE
  5
88
330
70
100
AcDbEntity
  8
cut
 62
    18
420
        0
370
     9
100
AcDbSpline
210
0.0
220
0.0
230
1.0
 70
    11
 71
     3
 72
    17
 73
    13
 74
     0
 42
0.0000000001
 43
0.0000000001
 40
0.0
 40
0.0
 40
0.0
 40
0.0
 40
1.0
 40
1.0
 40
1.0
 40
2.0
 40
2.0
 40
2.0
 40
3.0
 40
3.0
 40
3.0
 40
4.0
 40
4.0
 40
4.0
 40
4.0
 10
106.5010694731098
 20
-127.3280046606129
 30
0.0
 10
106.5010694731098
 20
-127.3280046606129
 30
0.0
 10
103.9137196894049
 20
-142.0016436608709
 30
0.0
 10
103.9137196894049
 20
-142.0016436608709
 30
0.0
 10
103.9137196894049
 20
-142.0016436608709
 30
0.0
 10
90.22490731389366
 20
-139.5879222555153
 30
0.0
 10
90.22490731389366
 20
-139.5879222555153
 30
0.0
 10
90.22490731389366
 20
-139.5879222555153
 30
0.0
 10
92.81227862942094
 20
-124.914283255257
 30
0.0
 10
92.81227862942094
 20
-124.914283255257
 30
0.0
 10
92.81227862942094
 20
-124.914283255257
 30
0.0
 10
106.5010694731098
 20
-127.3280046606129
 30
0.0
 10
106.5010694731098
 20
-127.3280046606129
 30
0.0
  0
SPLINE
  5
89
330
70
100
AcDbEntity
  8
cut
 62
    18
420
        0
370
     9
100
AcDbSpline
210
0.0
220
0.0
230
1.0
 70
    11
 71
     3
 72
    17
 73
    13
 74
     0
 42
0.0000000001
 43
0.0000000001
 40
0.0
 40
0.0
 40
0.0
 40
0.0
 40
1.0
 40
1.0
 40
1.0
 40
2.0
 40
2.0
 40
2.0
 40
3.0
 40
3.0
 40
3.0
 40
4.0
 40
4.0
 40
4.0
 40
4.0
 10
96.1202769427253
 20
-106.1536820788122
 30
0.0
 10
96.1202769427253
 20
-106.1536820788122
 30
0.0
 10
109.8090677864151
 20
-108.5674034841682
 30
0.0
 10
109.8090677864151
 20
-108.5674034841682
 30
0.0
 10
109.8090677864151
 20
-108.5674034841682
 30
0.0
 10
107.2217180027102
 20
-123.2410424844258
 30
0.0
 10
107.2217180027102
 20
-123.2410424844258
 30
0.0
 10
107.2217180027102
 20
-123.2410424844258
 30
0.0
 10
93.53290562719932
 20
-120.8273210790699
 30
0.0
 10
93.53290562719932
 20
-120.8273210790699
 30
0.0
 10
93.53290562719932
 20
-120.8273210790699
 30
0.0
 10
96.1202769427253
 20
-106.1536820788122
 30
0.0
 10
96.1202769427253
 20
-106.1536820788122
 30
0.0
  0
SPLINE
  5
8A
330
70
100
AcDbEntity
  8
cut
 62
    18
420
        0
370
     9
100
AcDbSpline
210
0.0
220
0.0
230
1.0
 70
    11
 71
     3
 72
    17
 73
    13
 74
     0
 42
0.0000000001
 43
0.0000000001
 40
0.0
 40
0.0
 40
0.0
 40
0.0
 40
1.0
 40
1.0
 40
1.0
 40
2.0
 40
2.0
 40
2.0
 40
3.0
 40
3.0
 40
3.0
 40
4.0
 40
4.0
 40
4.0
 40
4.0
 10
121.3482723067746
 20
-152.8445065445392
 30
0.0
 10
121.3482723067746
 20
-152.8445065445392
 30
0.0
 10
118.7609225230698
 20
-167.5181455447971
 30
0.0
 10
118.7609225230698
 20
-167.5181455447971
 30
0.0
 10
118.7609225230698
 20
-167.5181455447971
 30
0.0
 10
105.0721101475585
 20
-165.1044241394409
 30
0.0
 10
105.0721101475585
 20
-165.1044241394409
 30
0.0
 10
105.0721101475585
 20
-165.1044241394409
 30
0.0
 10
107.6594814630845
 20
-150.4307851391829
 30
0.0
 10
107.6594814630845
 20
-150.4307851391829
 30
0.0
 10
107.6594814630845
 20
-150.4307851391829
 30
0.0
 10
121.3482723067746
 20
-152.8445065445392
 30
0.0
 10
121.3482723067746
 20
-152.8445065445392
 30
0.0
  0
SPLINE
  5
8B
330
70
100
AcDbEntity
  8
cut
 62
    18
420
        0
370
     9
100
AcDbSpline
210
0.0
220
0.0
230
1.0
 70
    11
 71
     3
 72
    17
 73
    13
 74
     0
 42
0.0000000001
 43
0.0000000001
 40
0.0
 40
0.0
 40
0.0
 40
0.0
 40
1.0
 40
1.0
 40
1.0
 40
2.0
 40
2.0
 40
2.0
 40
3.0
 40
3.0
 40
3.0
 40
4.0
 40
4.0
 40
4.0
 40
4.0
 10
124.6562706200793
 20
-134.0839053680941
 30
0.0
 10
124.6562706200793
 20
-134.0839053680941
 30
0.0
 10
122.0689208363744
 20
-148.7575443683521
 30
0.0
 10
122.0689208363744
 20
-148.7575443683521
 30
0.0
 10
122.0689208363744
 20
-148.7575443683521
 30
0.0
 10
108.3801084608628
 20
-146.3438229629961
 30
0.0
 10
108.3801084608628
 20
-146.3438229629961
 30
0.0
 10
108.3801084608628
 20
-146.3438229629961
 30
0.0
 10
110.9674797763898
 20
-131.6701839627385
 30
0.0
 10
110.9674797763898
 20
-131.6701839627385
 30
0.0
 10
110.9674797763898
 20
-131.6701839627385
 30
0.0
 10
124.6562706200793
 20
-134.0839053680941
 30
0.0
 10
124.6562706200793
 20
-134.0839053680941
 30
0.0
  0
SPLINE
  5
8C
330
70
100
AcDbEntity
  8
cut
 62
    18
420
        0
370
     9
100
AcDbSpline
210
0.0
220
0.0
230
1.0
 70
    11
 71
     3
 72
    17
 73
    13
 74
     0
 42
0.0000000001
 43
0.0000000001
 40
0.0
 40
0.0
 40
0.0
 40
0.0
 40
1.0
 40
1.0
 40
1.0
 40
2.0
 40
2.0
 40
2.0
 40
3.0
 40
3.0
 40
3.0
 40
4.0
 40
4.0
 40
4.0
 40
4.0
 10
142.8090602030544
 20
-140.8387510144797
 30
0.0
 10
142.8090602030544
 20
-140.8387510144797
 30
0.0
 10
140.2217104193496
 20
-155.5123900147371
 30
0.0
 10
140.2217104193496
 20
-155.5123900147371
 30
0.0
 10
140.2217104193496
 20
-155.5123900147371
 30
0.0
 10
126.5328980438386
 20
-153.0986686093815
 30
0.0
 10
126.5328980438386
 20
-153.0986686093815
 30
0.0
 10
126.5328980438386
 20
-153.0986686093815
 30
0.0
 10
129.1202693593653
 20
-138.4250296091241
 30
0.0
 10
129.1202693593653
 20
-138.4250296091241
 30
0.0
 10
129.1202693593653
 20
-138.4250296091241
 30
0.0
 10
142.8090602030544
 20
-140.8387510144797
 30
0.0
 10
142.8090602030544
 20
-140.8387510144797
 30
0.0
  0
SPLINE
  5
8D
330
70
100
AcDbEntity
  8
cut
 62
    18
420
        0
370
     9
100
AcDbSpline
210
0.0
220
0.0
230
1.0
 70
    11
 71
     3
 72
    44
 73
    40
 74
     0
 42
0.0000000001
 43
0.0000000001
 40
0.0
 40
0.0
 40
0.0
 40
0.0
 40
1.0
 40
1.0
 40
1.0
 40
2.0
 40
2.0
 40
2.0
 40
3.0
 40
3.0
 40
3.0
 40
4.0
 40
4.0
 40
4.0
 40
5.0
 40
5.0
 40
5.0
 40
6.0
 40
6.0
 40
6.0
 40
7.0
 40
7.0
 40
7.0
 40
8.0
 40
8.0
 40
8.0
 40
9.0
 40
9.0
 40
9.0
 40
10.0
 40
10.0
 40
10.0
 40
11.0
 40
11.0
 40
11.0
 40
12.0
 40
12.0
 40
12.0
 40
13.0
 40
13.0
 40
13.0
 40
13.0
 10
114.2754565578734
 20
-112.9096043181527
 30
0.0
 10
114.2754565578734
 20
-112.9096043181527
 30
0.0
 10
127.9642474015629
 20
-115.323325723509
 30
0.0
 10
127.9642474015629
 20
-115.323325723509
 30
0.0
 10
127.9642474015629
 20
-115.323325723509
 30
0.0
 10
125.8177401286895
 20
-127.4967929041149
 30
0.0
 10
125.8177401286895
 20
-127.4967929041149
 30
0.0
 10
125.8177401286895
 20
-127.4967929041149
 30
0.0
 10
130.8894960581056
 20
-128.3910971400657
 30
0.0
 10
130.8894960581056
 20
-128.3910971400657
 30
0.0
 10
130.8894960581056
 20
-128.3910971400657
 30
0.0
 10
132.4282676726696
 20
-119.6643638371015
 30
0.0
 10
132.4282676726696
 20
-119.6643638371015
 30
0.0
 10
132.4282676726696
 20
-119.6643638371015
 30
0.0
 10
146.1174310623983
 20
-122.0759502195346
 30
0.0
 10
146.1174310623983
 20
-122.0759502195346
 30
0.0
 10
146.1174310623983
 20
-122.0759502195346
 30
0.0
 10
143.5297087326543
 20
-136.7517242427151
 30
0.0
 10
143.5297087326543
 20
-136.7517242427151
 30
0.0
 10
143.5297087326543
 20
-136.7517242427151
 30
0.0
 10
129.8408963571433
 20
-134.3380028373591
 30
0.0
 10
129.8408963571433
 20
-134.3380028373591
 30
0.0
 10
129.8408963571433
 20
-134.3380028373591
 30
0.0
 10
129.8416715027128
 20
-134.3335672743843
 30
0.0
 10
129.8416715027128
 20
-134.3335672743843
 30
0.0
 10
129.8416715027128
 20
-134.3335672743843
 30
0.0
 10
127.3835772427219
 20
-133.469407641177
 30
0.0
 10
127.3835772427219
 20
-133.469407641177
 30
0.0
 10
125.9490627072556
 20
-132.9767587049187
 30
0.0
 10
125.0863472202235
 20
-131.5134966240518
 30
0.0
 10
125.3497244592825
 20
-130.019766962556
 30
0.0
 10
125.3497244592825
 20
-130.019766962556
 30
0.0
 10
125.3544399281638
 20
-129.9930028616914
 30
0.0
 10
125.3544399281638
 20
-129.9930028616914
 30
0.0
 10
125.3544399281638
 20
-129.9930028616914
 30
0.0
 10
111.6880852423467
 20
-127.5832433184103
 30
0.0
 10
111.6880852423467
 20
-127.5832433184103
 30
0.0
 10
111.6880852423467
 20
-127.5832433184103
 30
0.0
 10
114.2754565578734
 20
-112.9096043181527
 30
0.0
 10
114.2754565578734
 20
-112.9096043181527
 30
0.0
  0
SPLINE
  5
8E
330
70
100
AcDbEntity
  8
cut
 62
    18
420
        0
370
     9
100
AcDbSpline
210
0.0
220
0.0
230
1.0
 70
    11
 71
     3
 72
    17
 73
    13
 74
     0
 42
0.0000000001
 43
0.0000000001
 40
0.0
 40
0.0
 40
0.0
 40
0.0
 40
1.0
 40
1.0
 40
1.0
 40
2.0
 40
2.0
 40
2.0
 40
3.0
 40
3.0
 40
3.0
 40
4.0
 40
4.0
 40
4.0
 40
4.0
 10
152.618161344112
 20
-172.5383415581911
 30
0.0
 10
152.618161344112
 20
-173.9742797098573
 30
0.0
 10
151.4541080169368
 20
-175.1383566084991
 30
0.0
 10
150.0181723812596
 20
-175.1383566084991
 30
0.0
 10
148.5822367455824
 20
-175.1383566084991
 30
0.0
 10
147.4181834184076
 20
-173.9742797098573
 30
0.0
 10
147.4181834184076
 20
-172.5383415581911
 30
0.0
 10
147.4181834184076
 20
-171.1024034065249
 30
0.0
 10
148.5822367455824
 20
-169.9383480397427
 30
0.0
 10
150.0181723812596
 20
-169.9383480397427
 30
0.0
 10
151.4541080169368
 20
-169.9383480397427
 30
0.0
 10
152.618161344112
 20
-171.1024034065249
 30
0.0
 10
152.618161344112
 20
-172.5383415581911
 30
0.0
  0
SPLINE
  5
8F
330
70
100
AcDbEntity
  8
cut
 62
    18
420
        0
370
     9
100
AcDbSpline
210
0.0
220
0.0
230
1.0
 70
     9
 71
     3
 72
    47
 73
    43
 74
     0
 42
0.0000000001
 43
0.0000000001
 40
0.0
 40
0.0
 40
0.0
 40
0.0
 40
1.0
 40
1.0
 40
1.0
 40
2.0
 40
2.0
 40
2.0
 40
3.0
 40
3.0
 40
3.0
 40
4.0
 40
4.0
 40
4.0
 40
5.0
 40
5.0
 40
5.0
 40
6.0
 40
6.0
 40
6.0
 40
7.0
 40
7.0
 40
7.0
 40
8.0
 40
8.0
 40
8.0
 40
9.0
 40
9.0
 40
9.0
 40
10.0
 40
10.0
 40
10.0
 40
11.0
 40
11.0
 40
11.0
 40
12.0
 40
12.0
 40
12.0
 40
13.0
 40
13.0
 40
13.0
 40
14.0
 40
14.0
 40
14.0
 40
14.0
 10
154.1181541483797
 20
-157.8081598959309
 30
0.0
 10
154.1181541483797
 20
-157.8081598959309
 30
0.0
 10
154.1181541483797
 20
-159.5445751413681
 30
0.0
 10
154.1181541483797
 20
-159.5445751413681
 30
0.0
 10
154.1181541483797
 20
-160.3730134203252
 30
0.0
 10
153.4465766396933
 20
-161.0445921057228
 30
0.0
 10
152.618161344112
 20
-161.0445921057228
 30
0.0
 10
152.618161344112
 20
-161.0445921057228
 30
0.0
 10
147.4181618865862
 20
-161.0445921057228
 30
0.0
 10
147.4181618865862
 20
-161.0445921057228
 30
0.0
 10
146.5897465910045
 20
-161.0445921057228
 30
0.0
 10
145.9181690823184
 20
-160.3730134203252
 30
0.0
 10
145.9181690823184
 20
-159.5445751413681
 30
0.0
 10
145.9181690823184
 20
-159.5445751413681
 30
0.0
 10
145.9181690823184
 20
-157.7973293708029
 30
0.0
 10
145.9181690823184
 20
-157.7973293708029
 30
0.0
 10
146.0938256810955
 20
-157.5516723903058
 30
0.0
 10
146.1997622422607
 20
-157.252896313404
 30
0.0
 10
146.1997622422607
 20
-156.9278729002563
 30
0.0
 10
146.1997622422607
 20
-156.6028494871086
 30
0.0
 10
146.0938256810955
 20
-156.3040518783472
 30
0.0
 10
145.9181690823184
 20
-156.0584164297097
 30
0.0
 10
145.9181690823184
 20
-156.0584164297097
 30
0.0
 10
145.9181690823184
 20
-154.3445881044708
 30
0.0
 10
145.9181690823184
 20
-154.3445881044708
 30
0.0
 10
145.9181690823184
 20
-153.5161498255137
 30
0.0
 10
146.5897465910045
 20
-152.8445926719751
 30
0.0
 10
147.4181618865862
 20
-152.8445926719751
 30
0.0
 10
147.4181618865862
 20
-152.8445926719751
 30
0.0
 10
152.618161344112
 20
-152.8445926719751
 30
0.0
 10
152.618161344112
 20
-152.8445926719751
 30
0.0
 10
153.4465766396933
 20
-152.8445926719751
 30
0.0
 10
154.1181541483797
 20
-153.5161498255137
 30
0.0
 10
154.1181541483797
 20
-154.3445881044708
 30
0.0
 10
154.1181541483797
 20
-154.3445881044708
 30
0.0
 10
154.1181541483797
 20
-156.0475859045811
 30
0.0
 10
154.1181541483797
 20
-156.0475859045811
 30
0.0
 10
153.937480635222
 20
-156.2953099435519
 30
0.0
 10
153.8276468143881
 20
-156.5978110320789
 30
0.0
 10
153.8276468143881
 20
-156.9278729002563
 30
0.0
 10
153.8276468143881
 20
-157.2579563002927
 30
0.0
 10
153.937480635222
 20
-157.5604573888196
 30
0.0
 10
154.1181541483797
 20
-157.8081598959309
 30
0.0
  0
SPLINE
  5
90
330
70
100
AcDbEntity
  8
cut
 62
    18
420
        0
370
     9
100
AcDbSpline
210
0.0
220
0.0
230
1.0
 70
    11
 71
     3
 72
    17
 73
    13
 74
     0
 42
0.0000000001
 43
0.0000000001
 40
0.0
 40
0.0
 40
0.0
 40
0.0
 40
1.0
 40
1.0
 40
1.0
 40
2.0
 40
2.0
 40
2.0
 40
3.0
 40
3.0
 40
3.0
 40
4.0
 40
4.0
 40
4.0
 40
4.0
 10
173.493520549027
 20
-153.0986686093815
 30
0.0
 10
173.493520549027
 20
-153.0986686093815
 30
0.0
 10
159.8047081735157
 20
-155.5123900147371
 30
0.0
 10
159.8047081735157
 20
-155.5123900147371
 30
0.0
 10
159.8047081735157
 20
-155.5123900147371
 30
0.0
 10
157.2173799216323
 20
-140.8387294826208
 30
0.0
 10
157.2173799216323
 20
-140.8387294826208
 30
0.0
 10
157.2173799216323
 20
-140.8387294826208
 30
0.0
 10
170.9061707653218
 20
-138.4250296091241
 30
0.0
 10
170.9061707653218
 20
-138.4250296091241
 30
0.0
 10
170.9061707653218
 20
-138.4250296091241
 30
0.0
 10
173.493520549027
 20
-153.0986686093815
 30
0.0
 10
173.493520549027
 20
-153.0986686093815
 30
0.0
  0
SPLINE
  5
91
330
70
100
AcDbEntity
  8
cut
 62
    18
420
        0
370
     9
100
AcDbSpline
210
0.0
220
0.0
230
1.0
 70
    11
 71
     3
 72
    44
 73
    40
 74
     0
 42
0.0000000001
 43
0.0000000001
 40
0.0
 40
0.0
 40
0.0
 40
0.0
 40
1.0
 40
1.0
 40
1.0
 40
2.0
 40
2.0
 40
2.0
 40
3.0
 40
3.0
 40
3.0
 40
4.0
 40
4.0
 40
4.0
 40
5.0
 40
5.0
 40
5.0
 40
6.0
 40
6.0
 40
6.0
 40
7.0
 40
7.0
 40
7.0
 40
8.0
 40
8.0
 40
8.0
 40
9.0
 40
9.0
 40
9.0
 40
10.0
 40
10.0
 40
10.0
 40
11.0
 40
11.0
 40
11.0
 40
12.0
 40
12.0
 40
12.0
 40
13.0
 40
13.0
 40
13.0
 40
13.0
 10
167.5981939838382
 20
-119.6644284326788
 30
0.0
 10
167.5981939838382
 20
-119.6644284326788
 30
0.0
 10
169.140044648859
 20
-128.4087963282475
 30
0.0
 10
169.140044648859
 20
-128.4087963282475
 30
0.0
 10
169.140044648859
 20
-128.4087963282475
 30
0.0
 10
174.211800578275
 20
-127.5144920922973
 30
0.0
 10
174.211800578275
 20
-127.5144920922973
 30
0.0
 10
174.211800578275
 20
-127.5144920922973
 30
0.0
 10
172.0621927231242
 20
-115.3232395960721
 30
0.0
 10
172.0621927231242
 20
-115.3232395960721
 30
0.0
 10
172.0621927231242
 20
-115.3232395960721
 30
0.0
 10
185.7509835668137
 20
-112.9095397225752
 30
0.0
 10
185.7509835668137
 20
-112.9095397225752
 30
0.0
 10
185.7509835668137
 20
-112.9095397225752
 30
0.0
 10
188.3383333505183
 20
-127.5831787228331
 30
0.0
 10
188.3383333505183
 20
-127.5831787228331
 30
0.0
 10
188.3383333505183
 20
-127.5831787228331
 30
0.0
 10
174.672560023879
 20
-129.9928306068184
 30
0.0
 10
174.672560023879
 20
-129.9928306068184
 30
0.0
 10
174.672560023879
 20
-129.9928306068184
 30
0.0
 10
174.6804191386809
 20
-130.037358491442
 30
0.0
 10
174.6804191386809
 20
-130.037358491442
 30
0.0
 10
174.9438179095611
 20
-131.5310881529383
 30
0.0
 10
174.0810808907075
 20
-132.9943502338053
 30
0.0
 10
172.6465663552412
 20
-133.4869991700636
 30
0.0
 10
172.6465663552412
 20
-133.4869991700636
 30
0.0
 10
170.18455330376
 20
-134.3325122132884
 30
0.0
 10
170.18455330376
 20
-134.3325122132884
 30
0.0
 10
170.18455330376
 20
-134.3325122132884
 30
0.0
 10
170.1855437675434
 20
-134.3380674329364
 30
0.0
 10
170.1855437675434
 20
-134.3380674329364
 30
0.0
 10
170.1855437675434
 20
-134.3380674329364
 30
0.0
 10
156.4967313920328
 20
-136.7517888382923
 30
0.0
 10
156.4967313920328
 20
-136.7517888382923
 30
0.0
 10
156.4967313920328
 20
-136.7517888382923
 30
0.0
 10
153.9094288300481
 20
-122.078384014691
 30
0.0
 10
153.9094288300481
 20
-122.078384014691
 30
0.0
 10
153.9094288300481
 20
-122.078384014691
 30
0.0
 10
167.5981939838382
 20
-119.6644284326788
 30
0.0
 10
167.5981939838382
 20
-119.6644284326788
 30
0.0
  0
SPLINE
  5
92
330
70
100
AcDbEntity
  8
cut
 62
    18
420
        0
370
     9
100
AcDbSpline
210
0.0
220
0.0
230
1.0
 70
     9
 71
     3
 72
    29
 73
    25
 74
     0
 42
0.0000000001
 43
0.0000000001
 40
0.0
 40
0.0
 40
0.0
 40
0.0
 40
1.0
 40
1.0
 40
1.0
 40
2.0
 40
2.0
 40
2.0
 40
3.0
 40
3.0
 40
3.0
 40
4.0
 40
4.0
 40
4.0
 40
5.0
 40
5.0
 40
5.0
 40
6.0
 40
6.0
 40
6.0
 40
7.0
 40
7.0
 40
7.0
 40
8.0
 40
8.0
 40
8.0
 40
8.0
 10
175.7937004310538
 20
-105.0179841704668
 30
0.0
 10
175.7937004310538
 20
-105.0179841704668
 30
0.0
 10
176.227825013616
 20
-102.5559452732858
 30
0.0
 10
176.227825013616
 20
-102.5559452732858
 30
0.0
 10
176.2997412970084
 20
-102.1480242025947
 30
0.0
 10
176.6887351819691
 20
-101.8756461849523
 30
0.0
 10
177.0966555379189
 20
-101.9475841262126
 30
0.0
 10
177.0966555379189
 20
-101.9475841262126
 30
0.0
 10
184.0994282718871
 20
-103.1797232314764
 30
0.0
 10
184.0994282718871
 20
-103.1797232314764
 30
0.0
 10
184.5073486278362
 20
-103.2516396408777
 30
0.0
 10
184.7797261682303
 20
-103.640634207418
 30
0.0
 10
184.7077883530161
 20
-104.0485552781091
 30
0.0
 10
184.7077883530161
 20
-104.0485552781091
 30
0.0
 10
184.2736637704539
 20
-106.5105726434311
 30
0.0
 10
184.2736637704539
 20
-106.5105726434311
 30
0.0
 10
184.2017474870614
 20
-106.9184937141222
 30
0.0
 10
183.8127536021007
 20
-107.1908717317646
 30
0.0
 10
183.404833246151
 20
-107.1189553223633
 30
0.0
 10
183.404833246151
 20
-107.1189553223633
 30
0.0
 10
176.4020820440039
 20
-105.8868162170996
 30
0.0
 10
176.4020820440039
 20
-105.8868162170996
 30
0.0
 10
175.9941616880548
 20
-105.814899807698
 30
0.0
 10
175.7217841476613
 20
-105.4259052411586
 30
0.0
 10
175.7937004310538
 20
-105.0179841704668
 30
0.0
  0
SPLINE
  5
93
330
70
100
AcDbEntity
  8
cut
 62
    18
420
        0
370
     9
100
AcDbSpline
210
0.0
220
0.0
230
1.0
 70
    11
 71
     3
 72
    17
 73
    13
 74
     0
 42
0.0000000001
 43
0.0000000001
 40
0.0
 40
0.0
 40
0.0
 40
0.0
 40
1.0
 40
1.0
 40
1.0
 40
2.0
 40
2.0
 40
2.0
 40
3.0
 40
3.0
 40
3.0
 40
4.0
 40
4.0
 40
4.0
 40
4.0
 10
191.6463101320018
 20
-146.3437798992782
 30
0.0
 10
191.6463101320018
 20
-146.3437798992782
 30
0.0
 10
177.9574977564912
 20
-148.7575013046341
 30
0.0
 10
177.9574977564912
 20
-148.7575013046341
 30
0.0
 10
177.9574977564912
 20
-148.7575013046341
 30
0.0
 10
175.3701695046071
 20
-134.0838407725168
 30
0.0
 10
175.3701695046071
 20
-134.0838407725168
 30
0.0
 10
175.3701695046071
 20
-134.0838407725168
 30
0.0
 10
189.0589603482966
 20
-131.6701408990206
 30
0.0
 10
189.0589603482966
 20
-131.6701408990206
 30
0.0
 10
189.0589603482966
 20
-131.6701408990206
 30
0.0
 10
191.6463101320018
 20
-146.3437798992782
 30
0.0
 10
191.6463101320018
 20
-146.3437798992782
 30
0.0
  0
SPLINE
  5
94
330
70
100
AcDbEntity
  8
cut
 62
    18
420
        0
370
     9
100
AcDbSpline
210
0.0
220
0.0
230
1.0
 70
    11
 71
     3
 72
    17
 73
    13
 74
     0
 42
0.0000000001
 43
0.0000000001
 40
0.0
 40
0.0
 40
0.0
 40
0.0
 40
1.0
 40
1.0
 40
1.0
 40
2.0
 40
2.0
 40
2.0
 40
3.0
 40
3.0
 40
3.0
 40
4.0
 40
4.0
 40
4.0
 40
4.0
 10
203.9041607225731
 20
-106.155770669145
 30
0.0
 10
203.9041607225731
 20
-106.155770669145
 30
0.0
 10
206.4915105062783
 20
-120.8294096694026
 30
0.0
 10
206.4915105062783
 20
-120.8294096694026
 30
0.0
 10
206.4915105062783
 20
-120.8294096694026
 30
0.0
 10
192.8026981307677
 20
-123.2431310747585
 30
0.0
 10
192.8026981307677
 20
-123.2431310747585
 30
0.0
 10
192.8026981307677
 20
-123.2431310747585
 30
0.0
 10
190.2153698788836
 20
-108.569470542642
 30
0.0
 10
190.2153698788836
 20
-108.569470542642
 30
0.0
 10
190.2153698788836
 20
-108.569470542642
 30
0.0
 10
203.9041607225731
 20
-106.155770669145
 30
0.0
 10
203.9041607225731
 20
-106.155770669145
 30
0.0
  0
SPLINE
  5
95
330
70
100
AcDbEntity
  8
cut
 62
    18
420
        0
370
     9
100
AcDbSpline
210
0.0
220
0.0
230
1.0
 70
    11
 71
     3
 72
    17
 73
    13
 74
     0
 42
0.0000000001
 43
0.0000000001
 40
0.0
 40
0.0
 40
0.0
 40
0.0
 40
1.0
 40
1.0
 40
1.0
 40
2.0
 40
2.0
 40
2.0
 40
3.0
 40
3.0
 40
3.0
 40
4.0
 40
4.0
 40
4.0
 40
4.0
 10
194.9543084453065
 20
-165.1043810757229
 30
0.0
 10
194.9543084453065
 20
-165.1043810757229
 30
0.0
 10
181.2654960697959
 20
-167.5181024810785
 30
0.0
 10
181.2654960697959
 20
-167.5181024810785
 30
0.0
 10
181.2654960697959
 20
-167.5181024810785
 30
0.0
 10
178.6781678179118
 20
-152.8444419489616
 30
0.0
 10
178.6781678179118
 20
-152.8444419489616
 30
0.0
 10
178.6781678179118
 20
-152.8444419489616
 30
0.0
 10
192.3669586616013
 20
-150.430742075465
 30
0.0
 10
192.3669586616013
 20
-150.430742075465
 30
0.0
 10
192.3669586616013
 20
-150.430742075465
 30
0.0
 10
194.9543084453065
 20
-165.1043810757229
 30
0.0
 10
194.9543084453065
 20
-165.1043810757229
 30
0.0
  0
SPLINE
  5
96
330
70
100
AcDbEntity
  8
cut
 62
    18
420
        0
370
     9
100
AcDbSpline
210
0.0
220
0.0
230
1.0
 70
    11
 71
     3
 72
    17
 73
    13
 74
     0
 42
0.0000000001
 43
0.0000000001
 40
0.0
 40
0.0
 40
0.0
 40
0.0
 40
1.0
 40
1.0
 40
1.0
 40
2.0
 40
2.0
 40
2.0
 40
3.0
 40
3.0
 40
3.0
 40
4.0
 40
4.0
 40
4.0
 40
4.0
 10
209.799508819583
 20
-139.589989313989
 30
0.0
 10
209.799508819583
 20
-139.589989313989
 30
0.0
 10
196.1106964440723
 20
-142.003710719345
 30
0.0
 10
196.1106964440723
 20
-142.003710719345
 30
0.0
 10
196.1106964440723
 20
-142.003710719345
 30
0.0
 10
193.5233681921883
 20
-127.3300501872277
 30
0.0
 10
193.5233681921883
 20
-127.3300501872277
 30
0.0
 10
193.5233681921883
 20
-127.3300501872277
 30
0.0
 10
207.2121590358778
 20
-124.9163503137308
 30
0.0
 10
207.2121590358778
 20
-124.9163503137308
 30
0.0
 10
207.2121590358778
 20
-124.9163503137308
 30
0.0
 10
209.799508819583
 20
-139.589989313989
 30
0.0
 10
209.799508819583
 20
-139.589989313989
 30
0.0
  0
SPLINE
  5
97
330
70
100
AcDbEntity
  8
cut
 62
    18
420
        0
370
     9
100
AcDbSpline
210
0.0
220
0.0
230
1.0
 70
    11
 71
     3
 72
    50
 73
    46
 74
     0
 42
0.0000000001
 43
0.0000000001
 40
0.0
 40
0.0
 40
0.0
 40
0.0
 40
1.0
 40
1.0
 40
1.0
 40
2.0
 40
2.0
 40
2.0
 40
3.0
 40
3.0
 40
3.0
 40
4.0
 40
4.0
 40
4.0
 40
5.0
 40
5.0
 40
5.0
 40
6.0
 40
6.0
 40
6.0
 40
7.0
 40
7.0
 40
7.0
 40
8.0
 40
8.0
 40
8.0
 40
9.0
 40
9.0
 40
9.0
 40
10.0
 40
10.0
 40
10.0
 40
11.0
 40
11.0
 40
11.0
 40
12.0
 40
12.0
 40
12.0
 40
13.0
 40
13.0
 40
13.0
 40
14.0
 40
14.0
 40
14.0
 40
15.0
 40
15.0
 40
15.0
 40
15.0
 10
223.2721201766677
 20
-106.2935530355403
 30
0.0
 10
223.2721201766677
 20
-106.2935530355403
 30
0.0
 10
225.4220079454968
 20
-118.486183570748
 30
0.0
 10
225.4220079454968
 20
-118.486183570748
 30
0.0
 10
225.4220079454968
 20
-118.486183570748
 30
0.0
 10
230.4937638749128
 20
-117.5919008666562
 30
0.0
 10
230.4937638749128
 20
-117.5919008666562
 30
0.0
 10
230.4937638749128
 20
-117.5919008666562
 30
0.0
 10
228.9516548280356
 20
-108.8460903365271
 30
0.0
 10
228.9516548280356
 20
-108.8460903365271
 30
0.0
 10
228.9516548280356
 20
-108.8460903365271
 30
0.0
 10
242.640445671725
 20
-106.4323904630312
 30
0.0
 10
242.640445671725
 20
-106.4323904630312
 30
0.0
 10
242.640445671725
 20
-106.4323904630312
 30
0.0
 10
245.2277954554302
 20
-121.1060294632888
 30
0.0
 10
245.2277954554302
 20
-121.1060294632888
 30
0.0
 10
245.2277954554302
 20
-121.1060294632888
 30
0.0
 10
231.5663500248871
 20
-123.5149277322057
 30
0.0
 10
231.5663500248871
 20
-123.5149277322057
 30
0.0
 10
231.5663500248871
 20
-123.5149277322057
 30
0.0
 10
231.566328493066
 20
-123.5149277322057
 30
0.0
 10
231.566328493066
 20
-123.5149277322057
 30
0.0
 10
231.566328493066
 20
-123.5149277322057
 30
0.0
 10
231.5389830799196
 20
-123.5197508686444
 30
0.0
 10
231.5389830799196
 20
-123.5197508686444
 30
0.0
 10
231.5389830799196
 20
-123.5197508686444
 30
0.0
 10
231.5382294661716
 20
-123.515444496824
 30
0.0
 10
231.5382294661716
 20
-123.515444496824
 30
0.0
 10
231.5382294661716
 20
-123.515444496824
 30
0.0
 10
228.9367332758226
 20
-123.5629437780035
 30
0.0
 10
228.9367332758226
 20
-123.5629437780035
 30
0.0
 10
227.4202255645608
 20
-123.5906552806681
 30
0.0
 10
226.1090668337515
 20
-122.5107033555383
 30
0.0
 10
225.8456895946925
 20
-121.0169736940419
 30
0.0
 10
225.8456895946925
 20
-121.0169736940419
 30
0.0
 10
225.8375936298558
 20
-120.9710462385773
 30
0.0
 10
225.8375936298558
 20
-120.9710462385773
 30
0.0
 10
225.8375936298558
 20
-120.9710462385773
 30
0.0
 10
212.1706575848616
 20
-123.3809134411535
 30
0.0
 10
212.1706575848616
 20
-123.3809134411535
 30
0.0
 10
212.1706575848616
 20
-123.3809134411535
 30
0.0
 10
209.5833293329782
 20
-108.7072529090369
 30
0.0
 10
209.5833293329782
 20
-108.7072529090369
 30
0.0
 10
209.5833293329782
 20
-108.7072529090369
 30
0.0
 10
223.2721201766677
 20
-106.2935530355403
 30
0.0
 10
223.2721201766677
 20
-106.2935530355403
 30
0.0
  0
SPLINE
  5
98
330
70
100
AcDbEntity
  8
cut
 62
    18
420
        0
370
     9
100
AcDbSpline
210
0.0
220
0.0
230
1.0
 70
    11
 71
     3
 72
    17
 73
    13
 74
     0
 42
0.0000000001
 43
0.0000000001
 40
0.0
 40
0.0
 40
0.0
 40
0.0
 40
1.0
 40
1.0
 40
1.0
 40
2.0
 40
2.0
 40
2.0
 40
3.0
 40
3.0
 40
3.0
 40
4.0
 40
4.0
 40
4.0
 40
4.0
 10
248.5357937687349
 20
-139.8666306397342
 30
0.0
 10
248.5357937687349
 20
-139.8666306397342
 30
0.0
 10
234.8469813932243
 20
-142.2803520450898
 30
0.0
 10
234.8469813932243
 20
-142.2803520450898
 30
0.0
 10
234.8469813932243
 20
-142.2803520450898
 30
0.0
 10
232.2596531413402
 20
-127.6066915129725
 30
0.0
 10
232.2596531413402
 20
-127.6066915129725
 30
0.0
 10
232.2596531413402
 20
-127.6066915129725
 30
0.0
 10
245.9484439850303
 20
-125.1929916394759
 30
0.0
 10
245.9484439850303
 20
-125.1929916394759
 30
0.0
 10
245.9484439850303
 20
-125.1929916394759
 30
0.0
 10
248.5357937687349
 20
-139.8666306397342
 30
0.0
 10
248.5357937687349
 20
-139.8666306397342
 30
0.0
  0
SPLINE
  5
99
330
70
100
AcDbEntity
  8
cut
 62
    18
420
        0
370
     9
100
AcDbSpline
210
0.0
220
0.0
230
1.0
 70
     9
 71
     3
 72
   179
 73
   175
 74
     0
 42
0.0000000001
 43
0.0000000001
 40
0.0
 40
0.0
 40
0.0
 40
0.0
 40
1.0
 40
1.0
 40
1.0
 40
2.0
 40
2.0
 40
2.0
 40
3.0
 40
3.0
 40
3.0
 40
4.0
 40
4.0
 40
4.0
 40
5.0
 40
5.0
 40
5.0
 40
6.0
 40
6.0
 40
6.0
 40
7.0
 40
7.0
 40
7.0
 40
8.0
 40
8.0
 40
8.0
 40
9.0
 40
9.0
 40
9.0
 40
10.0
 40
10.0
 40
10.0
 40
11.0
 40
11.0
 40
11.0
 40
12.0
 40
12.0
 40
12.0
 40
13.0
 40
13.0
 40
13.0
 40
14.0
 40
14.0
 40
14.0
 40
15.0
 40
15.0
 40
15.0
 40
16.0
 40
16.0
 40
16.0
 40
17.0
 40
17.0
 40
17.0
 40
18.0
 40
18.0
 40
18.0
 40
19.0
 40
19.0
 40
19.0
 40
20.0
 40
20.0
 40
20.0
 40
21.0
 40
21.0
 40
21.0
 40
22.0
 40
22.0
 40
22.0
 40
23.0
 40
23.0
 40
23.0
 40
24.0
 40
24.0
 40
24.0
 40
25.0
 40
25.0
 40
25.0
 40
26.0
 40
26.0
 40
26.0
 40
27.0
 40
27.0
 40
27.0
 40
28.0
 40
28.0
 40
28.0
 40
29.0
 40
29.0
 40
29.0
 40
30.0
 40
30.0
 40
30.0
 40
31.0
 40
31.0
 40
31.0
 40
32.0
 40
32.0
 40
32.0
 40
33.0
 40
33.0
 40
33.0
 40
34.0
 40
34.0
 40
34.0
 40
35.0
 40
35.0
 40
35.0
 40
36.0
 40
36.0
 40
36.0
 40
37.0
 40
37.0
 40
37.0
 40
38.0
 40
38.0
 40
38.0
 40
39.0
 40
39.0
 40
39.0
 40
40.0
 40
40.0
 40
40.0
 40
41.0
 40
41.0
 40
41.0
 40
42.0
 40
42.0
 40
42.0
 40
43.0
 40
43.0
 40
43.0
 40
44.0
 40
44.0
 40
44.0
 40
45.0
 40
45.0
 40
45.0
 40
46.0
 40
46.0
 40
46.0
 40
47.0
 40
47.0
 40
47.0
 40
48.0
 40
48.0
 40
48.0
 40
49.0
 40
49.0
 40
49.0
 40
50.0
 40
50.0
 40
50.0
 40
51.0
 40
51.0
 40
51.0
 40
52.0
 40
52.0
 40
52.0
 40
53.0
 40
53.0
 40
53.0
 40
54.0
 40
54.0
 40
54.0
 40
55.0
 40
55.0
 40
55.0
 40
56.0
 40
56.0
 40
56.0
 40
57.0
 40
57.0
 40
57.0
 40
58.0
 40
58.0
 40
58.0
 40
58.0
 10
257.1164183730636
 20
-159.3004899865858
 30
0.0
 10
257.1164183730636
 20
-159.3004899865858
 30
0.0
 10
247.3788459426137
 20
-104.0676971008506
 30
0.0
 10
247.3788459426137
 20
-104.0676971008506
 30
0.0
 10
247.1260192960286
 20
-102.633955198813
 30
0.0
 10
245.8802957703779
 20
-101.5886910986969
 30
0.0
 10
244.4244216681077
 20
-101.5886910986969
 30
0.0
 10
244.4244216681077
 20
-101.5886910986969
 30
0.0
 10
184.6427837842849
 20
-101.5886910986969
 30
0.0
 10
184.6427837842849
 20
-101.5886910986969
 30
0.0
 10
184.6427837842849
 20
-101.5886910986969
 30
0.0
 10
175.3031840083096
 20
-99.95313108129446
 30
0.0
 10
175.3031840083096
 20
-99.95313108129446
 30
0.0
 10
175.0316892725921
 20
-99.9055887363967
 30
0.0
 10
174.7729198433075
 20
-100.0867362670235
 30
0.0
 10
174.7246670316065
 20
-100.3581022872883
 30
0.0
 10
174.7246670316065
 20
-100.3581022872883
 30
0.0
 10
174.0752242352937
 20
-104.0100347821752
 30
0.0
 10
174.0752242352937
 20
-104.0100347821752
 30
0.0
 10
174.0752242352937
 20
-104.0100347821752
 30
0.0
 10
171.7965977064634
 20
-104.8393989310734
 30
0.0
 10
171.7965977064634
 20
-104.8393989310734
 30
0.0
 10
171.7965977064634
 20
-104.8393989310734
 30
0.0
 10
169.2291648575301
 20
-102.6771911718901
 30
0.0
 10
169.2291648575301
 20
-102.6771911718901
 30
0.0
 10
168.9347602638698
 20
-102.4292518143285
 30
0.0
 10
168.4823766967815
 20
-102.5929800709415
 30
0.0
 10
168.4148313731279
 20
-102.9718761955632
 30
0.0
 10
168.4148313731279
 20
-102.9718761955632
 30
0.0
 10
165.9747592476277
 20
-116.6595283038131
 30
0.0
 10
165.9747592476277
 20
-116.6595283038131
 30
0.0
 10
165.8779521787255
 20
-117.2026694496661
 30
0.0
 10
165.3595520473014
 20
-117.5647922560464
 30
0.0
 10
164.8162611303676
 20
-117.4687816963098
 30
0.0
 10
164.8162611303676
 20
-117.4687816963098
 30
0.0
 10
148.9581823467896
 20
-114.6662595111459
 30
0.0
 10
148.9581823467896
 20
-114.6662595111459
 30
0.0
 10
148.6864507610373
 20
-114.6182219334886
 30
0.0
 10
148.4271645680395
 20
-114.7994340596927
 30
0.0
 10
148.3788902245167
 20
-115.0711445897036
 30
0.0
 10
148.3788902245167
 20
-115.0711445897036
 30
0.0
 10
147.7776141126202
 20
-118.4547039927403
 30
0.0
 10
147.7776141126202
 20
-118.4547039927403
 30
0.0
 10
147.7776141126202
 20
-118.4547039927403
 30
0.0
 10
145.4989875837899
 20
-119.2840681416388
 30
0.0
 10
145.4989875837899
 20
-119.2840681416388
 30
0.0
 10
145.4989875837899
 20
-119.2840681416388
 30
0.0
 10
143.641437353769
 20
-117.7253983930897
 30
0.0
 10
143.641437353769
 20
-117.7253983930897
 30
0.0
 10
143.641437353769
 20
-117.7253983930897
 30
0.0
 10
144.2420459792033
 20
-114.3408915882524
 30
0.0
 10
144.2420459792033
 20
-114.3408915882524
 30
0.0
 10
144.2903203227261
 20
-114.0688580803555
 30
0.0
 10
144.108828600356
 20
-113.8092484551601
 30
0.0
 10
143.8367525054617
 20
-113.7611678137848
 30
0.0
 10
143.8367525054617
 20
-113.7611678137848
 30
0.0
 10
137.7070951282491
 20
-112.6778999823537
 30
0.0
 10
137.7070951282491
 20
-112.6778999823537
 30
0.0
 10
137.43525588339
 20
-112.6298624046969
 30
0.0
 10
137.1759266267493
 20
-112.8111821901962
 30
0.0
 10
137.1277599423337
 20
-113.0830003795024
 30
0.0
 10
137.1277599423337
 20
-113.0830003795024
 30
0.0
 10
136.530079644606
 20
-116.4547818556107
 30
0.0
 10
136.530079644606
 20
-116.4547818556107
 30
0.0
 10
136.530079644606
 20
-116.4547818556107
 30
0.0
 10
134.2514531157763
 20
-117.2841244726495
 30
0.0
 10
134.2514531157763
 20
-117.2841244726495
 30
0.0
 10
134.2514531157763
 20
-117.2841244726495
 30
0.0
 10
132.3939028857551
 20
-115.7254547241011
 30
0.0
 10
132.3939028857551
 20
-115.7254547241011
 30
0.0
 10
132.3939028857551
 20
-115.7254547241011
 30
0.0
 10
132.9937148337986
 20
-112.3532426108108
 30
0.0
 10
132.9937148337986
 20
-112.3532426108108
 30
0.0
 10
133.0421183682493
 20
-112.0811445073367
 30
0.0
 10
132.8606051140581
 20
-111.8214056909868
 30
0.0
 10
132.5884644236998
 20
-111.7733035177524
 30
0.0
 10
132.5884644236998
 20
-111.7733035177524
 30
0.0
 10
131.7115809982031
 20
-111.618338727794
 30
0.0
 10
131.7115809982031
 20
-111.618338727794
 30
0.0
 10
131.4570748695505
 20
-111.5733586741293
 30
0.0
 10
131.2298710904014
 20
-111.4315929138006
 30
0.0
 10
131.0775980496375
 20
-111.2227769442274
 30
0.0
 10
131.0775980496375
 20
-111.2227769442274
 30
0.0
 10
130.5122370157943
 20
-110.4475008253939
 30
0.0
 10
130.5122370157943
 20
-110.4475008253939
 30
0.0
 10
130.3602654205295
 20
-110.2390939611438
 30
0.0
 10
130.1336214687364
 20
-110.0974573919699
 30
0.0
 10
129.8796751674396
 20
-110.0522189559959
 30
0.0
 10
129.8796751674396
 20
-110.0522189559959
 30
0.0
 10
117.530960290666
 20
-107.8519859336384
 30
0.0
 10
117.530960290666
 20
-107.8519859336384
 30
0.0
 10
117.2011789144864
 20
-107.7932254901485
 30
0.0
 10
116.922729400465
 20
-107.5732560175605
 30
0.0
 10
116.78923210794
 20
-107.2660394518904
 30
0.0
 10
116.78923210794
 20
-107.2660394518904
 30
0.0
 10
115.9593957121475
 20
-105.3564003999763
 30
0.0
 10
115.9593957121475
 20
-105.3564003999763
 30
0.0
 10
115.8257692286942
 20
-105.0488608564196
 30
0.0
 10
115.5468890782454
 20
-104.8287621926768
 30
0.0
 10
115.2166985974601
 20
-104.7702601314965
 30
0.0
 10
115.2166985974601
 20
-104.7702601314965
 30
0.0
 10
97.26060220274504
 20
-101.5886910986969
 30
0.0
 10
97.26060220274504
 20
-101.5886910986969
 30
0.0
 10
97.26060220274504
 20
-101.5886910986969
 30
0.0
 10
55.61127713976979
 20
-101.5885619075424
 30
0.0
 10
55.61127713976979
 20
-101.5885619075424
 30
0.0
 10
54.15596286485532
 20
-101.5885619075424
 30
0.0
 10
52.91054078470441
 20
-102.633050860731
 30
0.0
 10
52.65711124712044
 20
-104.0661468069954
 30
0.0
 10
52.65711124712044
 20
-104.0661468069954
 30
0.0
 10
42.88383905683054
 20
-159.2936643872503
 30
0.0
 10
42.88383905683054
 20
-159.2936643872503
 30
0.0
 10
42.59516192765675
 20
-160.9261453488014
 30
0.0
 10
43.68525344840817
 20
-162.4832863353539
 30
0.0
 10
45.31794686781036
 20
-162.7706720587911
 30
0.0
 10
45.31794686781036
 20
-162.7706720587911
 30
0.0
 10
64.35470384551499
 20
-166.079752761193
 30
0.0
 10
64.35470384551499
 20
-166.079752761193
 30
0.0
 10
64.55419617055397
 20
-166.1144190543476
 30
0.0
 10
64.75668141876417
 20
-166.1288023362277
 30
0.0
 10
64.95908053968896
 20
-166.1226872882428
 30
0.0
 10
64.95908053968896
 20
-166.1226872882428
 30
0.0
 10
75.08575451420611
 20
-165.8162674013593
 30
0.0
 10
75.08575451420611
 20
-165.8162674013593
 30
0.0
 10
75.48398555053704
 20
-165.804209560262
 30
0.0
 10
75.88060170026448
 20
-165.8716042792519
 30
0.0
 10
76.25249931905301
 20
-166.0145112281135
 30
0.0
 10
76.25249931905301
 20
-166.0145112281135
 30
0.0
 10
94.79820157847955
 20
-173.140867571448
 30
0.0
 10
94.79820157847955
 20
-173.140867571448
 30
0.0
 10
95.52748436845069
 20
-173.4211047176632
 30
0.0
 10
96.11868358794323
 20
-173.9747749426169
 30
0.0
 10
96.44605340012851
 20
-174.6841420407385
 30
0.0
 10
96.44605340012851
 20
-174.6841420407385
 30
0.0
 10
105.17940321347
 20
-193.6078039861645
 30
0.0
 10
105.17940321347
 20
-193.6078039861645
 30
0.0
 10
105.2948568396826
 20
-193.9051804922251
 30
0.0
 10
105.5452503904528
 20
-194.1296501233656
 30
0.0
 10
105.8534353497928
 20
-194.2120094844311
 30
0.0
 10
105.8534353497928
 20
-194.2120094844311
 30
0.0
 10
128.2263542631607
 20
-200.1895550172271
 30
0.0
 10
128.2263542631607
 20
-200.1895550172271
 30
0.0
 10
128.2263542631607
 20
-200.1895550172271
 30
0.0
 10
171.7897075236232
 20
-200.1895550172271
 30
0.0
 10
171.7897075236232
 20
-200.1895550172271
 30
0.0
 10
171.7897075236232
 20
-200.1895550172271
 30
0.0
 10
194.1803471259824
 20
-194.1898747332738
 30
0.0
 10
194.1803471259824
 20
-194.1898747332738
 30
0.0
 10
194.488596680787
 20
-194.1073431173352
 30
0.0
 10
194.7389471679137
 20
-193.8826366357448
 30
0.0
 10
194.8542070077339
 20
-193.5850663429526
 30
0.0
 10
194.8542070077339
 20
-193.5850663429526
 30
0.0
 10
203.588267371181
 20
-174.6830008522063
 30
0.0
 10
203.588267371181
 20
-174.6830008522063
 30
0.0
 10
203.9157233106517
 20
-173.9743227735759
 30
0.0
 10
204.5065134255386
 20
-173.4212123769587
 30
0.0
 10
205.2351933245114
 20
-173.1411044218981
 30
0.0
 10
205.2351933245114
 20
-173.1411044218981
 30
0.0
 10
223.7736178283125
 20
-166.0147050148455
 30
0.0
 10
223.7736178283125
 20
-166.0147050148455
 30
0.0
 10
224.1457307653151
 20
-165.8716688748295
 30
0.0
 10
224.5426052968995
 20
-165.8042310921216
 30
0.0
 10
224.9410731832649
 20
-165.8163319969369
 30
0.0
 10
224.9410731832649
 20
-165.8163319969369
 30
0.0
 10
235.0670366076766
 20
-166.123763881198
 30
0.0
 10
235.0670366076766
 20
-166.123763881198
 30
0.0
 10
235.2695649195297
 20
-166.1299004610418
 30
0.0
 10
235.4721793586685
 20
-166.1155171791618
 30
0.0
 10
235.6718008746364
 20
-166.0808078222892
 30
0.0
 10
235.6718008746364
 20
-166.0808078222892
 30
0.0
 10
254.6824828166549
 20
-162.7759688961297
 30
0.0
 10
254.6824828166549
 20
-162.7759688961297
 30
0.0
 10
256.3144010904874
 20
-162.4884755133976
 30
0.0
 10
257.4041696339185
 20
-160.9323465242228
 30
0.0
 10
257.1164183730636
 20
-159.3004899865858
 30
0.0
  0
ENDSEC
  0
SECTION
  2
OBJECTS
  0
DICTIONARY
  5
C
330
0
100
AcDbDictionary
281
     1
  3
ACAD_COLOR
350
63
  3
ACAD_DETAILVIEWSTYLE
350
6A
  3
ACAD_GROUP
350
D
  3
ACAD_LAYOUT
350
62
  3
ACAD_MATERIAL
350
10
  3
ACAD_MLEADERSTYLE
350
66
  3
ACAD_MLINESTYLE
350
5F
  3
ACAD_PLOTSETTINGS
350
61
  3
ACAD_PLOTSTYLENAME
350
E
  3
ACAD_SCALELIST
350
42
  3
ACAD_SECTIONVIEWSTYLE
350
68
  3
ACAD_TABLESTYLE
350
64
  3
ACAD_VISUALSTYLE
350
29
  3
ACDB_RECOMPOSE_DATA
350
A4
  3
AcDbVariableDictionary
350
9C
  0
DICTIONARY
  5
63
102
{ACAD_REACTORS
330
C
102
}
330
C
100
AcDbDictionary
281
     1
  0
DICTIONARY
  5
6A
102
{ACAD_REACTORS
330
C
102
}
330
C
100
AcDbDictionary
281
     1
  3
Imperial24
350
6B
  0
DICTIONARY
  5
D
102
{ACAD_REACTORS
330
C
102
}
330
C
100
AcDbDictionary
281
     1
  0
DICTIONARY
  5
62
102
{ACAD_REACTORS
330
C
102
}
330
C
100
AcDbDictionary
281
     1
  3
Layout1
350
6F
  3
Layout2
350
77
  3
Model
350
73
  0
DICTIONARY
  5
10
102
{ACAD_REACTORS
330
C
102
}
330
C
100
AcDbDictionary
281
     1
  3
ByBlock
350
19
  3
ByLayer
350
11
  3
Global
350
21
  0
DICTIONARY
  5
66
102
{ACAD_REACTORS
330
C
102
}
330
C
100
AcDbDictionary
281
     1
  3
Standard
350
67
  0
DICTIONARY
  5
5F
102
{ACAD_REACTORS
330
C
102
}
330
C
100
AcDbDictionary
281
     1
  3
Standard
350
60
  0
DICTIONARY
  5
61
102
{ACAD_REACTORS
330
C
102
}
330
C
100
AcDbDictionary
281
     1
  0
ACDBDICTIONARYWDFLT
  5
E
102
{ACAD_REACTORS
330
C
102
}
330
C
100
AcDbDictionary
281
     1
  3
Normal
350
F
100
AcDbDictionaryWithDefault
340
F
  0
DICTIONARY
  5
42
102
{ACAD_REACTORS
330
C
102
}
330
C
100
AcDbDictionary
281
     1
  3
A0
350
43
  3
A1
350
44
  3
A2
350
45
  3
A3
350
46
  3
A4
350
47
  3
A5
350
48
  3
A6
350
49
  3
A7
350
4A
  3
A8
350
4B
  3
A9
350
4C
  3
B0
350
4D
  3
B1
350
4E
  3
B2
350
4F
  3
B3
350
50
  3
B4
350
51
  3
B5
350
52
  3
B6
350
53
  0
DICTIONARY
  5
68
102
{ACAD_REACTORS
330
C
102
}
330
C
100
AcDbDictionary
281
     1
  3
Imperial24
350
69
  0
DICTIONARY
  5
64
102
{ACAD_REACTORS
330
C
102
}
330
C
100
AcDbDictionary
281
     1
  3
Standard
350
65
  0
DICTIONARY
  5
29
102
{ACAD_REACTORS
330
C
102
}
330
C
100
AcDbDictionary
281
     1
  3
2dWireframe
350
2F
  3
Basic
350
2E
  3
Brighten
350
35
  3
ColorChange
350
39
  3
Conceptual
350
32
  3
Dim
350
34
  3
EdgeColorOff
350
41
  3
Facepattern
350
38
  3
Flat
350
2A
  3
FlatWithEdges
350
2B
  3
Gouraud
350
2C
  3
GouraudWithEdges
350
2D
  3
Hidden
350
31
  3
JitterOff
350
3F
  3
Linepattern
350
37
  3
OverhangOff
350
40
  3
Realistic
350
33
  3
Shaded
350
3E
  3
Shaded with edges
350
3D
  3
Shades of Gray
350
3A
  3
Sketchy
350
3B
  3
Thicken
350
36
  3
Wireframe
350
30
  3
X-Ray
350
3C
  0
XRECORD
  5
A4
102
{ACAD_REACTORS
330
C
102
}
330
C
100
AcDbXrecord
280
     1
 90
        1
330
65
  0
DICTIONARY
  5
9C
102
{ACAD_REACTORS
330
C
102
}
330
C
100
AcDbDictionary
281
     1
  3
CANNOSCALE
350
A1
  3
CMLEADERSTYLE
350
9E
  3
CTABLESTYLE
350
9D
  3
CVIEWDETAILSTYLE
350
9F
  3
CVIEWSECTIONSTYLE
350
A0
  0
ACDBDETAILVIEWSTYLE
  5
6B
102
{ACAD_REACTORS
330
6A
102
}
330
6A
100
AcDbModelDocViewStyle
 70
     0
  3
Imperial24
290
     1
300
Imperial24
 90
        0
100
AcDbDetailViewStyle
 70
     0
 71
     0
 90
        3
 71
     1
340
55
 62
   256
 40
0.24
340
0
 62
   256
 40
0.24
300

 40
0.36
280
     3
 71
     2
340
5D
 90
       25
 62
   256
 71
     3
340
55
 62
   256
 40
0.24
 90
        1
 40
0.75
 90
        1
300
%<\AcVar ViewType \f "%tc1">% %<\AcVar ViewDetailId>%\PSCALE %<\AcVar ViewScale \f "%sn">%
 71
     4
340
5D
 90
       25
 62
   256
340
5D
 90
       25
 62
   256
280
     0
  0
LAYOUT
  5
6F
102
{ACAD_REACTORS
330
62
102
}
330
62
100
AcDbPlotSettings
  1

  2

  4

  6

 40
0.0
 41
0.0
 42
0.0
 43
0.0
 44
0.0
 45
0.0
 46
0.0
 47
0.0
 48
0.0
 49
0.0
140
0.0
141
0.0
142
1.0
143
1.0
 70
   688
 72
     0
 73
     0
 74
     5
  7

 75
    16
147
1.0
 76
     0
 77
     2
 78
   300
148
0.0
149
0.0
100
AcDbLayout
  1
Layout1
 70
     1
 71
     1
 10
0.0
 20
0.0
 11
12.0
 21
9.0
 12
0.0
 22
0.0
 32
0.0
 14
0.0
 24
0.0
 34
0.0
 15
0.0
 25
0.0
 35
0.0
146
0.0
 13
0.0
 23
0.0
 33
0.0
 16
1.0
 26
0.0
 36
0.0
 17
0.0
 27
1.0
 37
0.0
 76
     0
330
6C
  0
LAYOUT
  5
77
102
{ACAD_REACTORS
330
62
102
}
330
62
100
AcDbPlotSettings
  1

  2

  4

  6

 40
0.0
 41
0.0
 42
0.0
 43
0.0
 44
0.0
 45
0.0
 46
0.0
 47
0.0
 48
0.0
 49
0.0
140
0.0
141
0.0
142
1.0
143
1.0
 70
   688
 72
     0
 73
     0
 74
     5
  7

 75
    16
147
1.0
 76
     0
 77
     2
 78
   300
148
0.0
149
0.0
100
AcDbLayout
  1
Layout2
 70
     1
 71
     2
 10
0.0
 20
0.0
 11
12.0
 21
9.0
 12
0.0
 22
0.0
 32
0.0
 14
0.0
 24
0.0
 34
0.0
 15
0.0
 25
0.0
 35
0.0
146
0.0
 13
0.0
 23
0.0
 33
0.0
 16
1.0
 26
0.0
 36
0.0
 17
0.0
 27
1.0
 37
0.0
 76
     0
330
74
  0
LAYOUT
  5
73
102
{ACAD_REACTORS
330
62
102
}
330
62
100
AcDbPlotSettings
  1

  2

  4

  6

 40
0.0
 41
0.0
 42
0.0
 43
0.0
 44
0.0
 45
0.0
 46
0.0
 47
0.0
 48
0.0
 49
0.0
140
0.0
141
0.0
142
1.0
143
1.0
 70
  1712
 72
     0
 73
     0
 74
     0
  7

 75
     0
147
1.0
 76
     0
 77
     2
 78
   300
148
0.0
149
0.0
100
AcDbLayout
  1
Model
 70
     1
 71
     0
 10
0.0
 20
0.0
 11
12.0
 21
9.0
 12
0.0
 22
0.0
 32
0.0
 14
0.0
 24
0.0
 34
0.0
 15
0.0
 25
0.0
 35
0.0
146
0.0
 13
0.0
 23
0.0
 33
0.0
 16
1.0
 26
0.0
 36
0.0
 17
0.0
 27
1.0
 37
0.0
 76
     0
330
70
  0
MATERIAL
  5
19
102
{ACAD_XDICTIONARY
360
1A
102
}
102
{ACAD_REACTORS
330
10
102
}
330
10
100
AcDbMaterial
  1
ByBlock
 72
     0
 43
0.0208333333333333
 43
0.0
 43
0.0
 43
0.0
 43
0.0
 43
0.0208333333333333
 43
0.0
 43
0.0
 43
0.0
 43
0.0
 43
1.0
 43
0.0
 43
0.0
 43
0.0
 43
0.0
 43
1.0
 77
     0
 47
0.0208333333333333
 47
0.0
 47
0.0
 47
0.0
 47
0.0
 47
0.0208333333333333
 47
0.0
 47
0.0
 47
0.0
 47
0.0
 47
1.0
 47
0.0
 47
0.0
 47
0.0
 47
0.0
 47
1.0
171
     0
 49
0.0208333333333333
 49
0.0
 49
0.0
 49
0.0
 49
0.0
 49
0.0208333333333333
 49
0.0
 49
0.0
 49
0.0
 49
0.0
 49
1.0
 49
0.0
 49
0.0
 49
0.0
 49
0.0
 49
1.0
175
     0
142
0.0208333333333333
142
0.0
142
0.0
142
0.0
142
0.0
142
0.0208333333333333
142
0.0
142
0.0
142
0.0
142
0.0
142
1.0
142
0.0
142
0.0
142
0.0
142
0.0
142
1.0
179
     0
144
0.0208333333333333
144
0.0
144
0.0
144
0.0
144
0.0
144
0.0208333333333333
144
0.0
144
0.0
144
0.0
144
0.0
144
1.0
144
0.0
144
0.0
144
0.0
144
0.0
144
1.0
147
0.0208333333333333
147
0.0
147
0.0
147
0.0
147
0.0
147
0.0208333333333333
147
0.0
147
0.0
147
0.0
147
0.0
147
1.0
147
0.0
147
0.0
147
0.0
147
0.0
147
1.0
  0
MATERIAL
  5
11
102
{ACAD_XDICTIONARY
360
12
102
}
102
{ACAD_REACTORS
330
10
102
}
330
10
100
AcDbMaterial
  1
ByLayer
 72
     0
 43
0.0208333333333333
 43
0.0
 43
0.0
 43
0.0
 43
0.0
 43
0.0208333333333333
 43
0.0
 43
0.0
 43
0.0
 43
0.0
 43
1.0
 43
0.0
 43
0.0
 43
0.0
 43
0.0
 43
1.0
 77
     0
 47
0.0208333333333333
 47
0.0
 47
0.0
 47
0.0
 47
0.0
 47
0.0208333333333333
 47
0.0
 47
0.0
 47
0.0
 47
0.0
 47
1.0
 47
0.0
 47
0.0
 47
0.0
 47
0.0
 47
1.0
171
     0
 49
0.0208333333333333
 49
0.0
 49
0.0
 49
0.0
 49
0.0
 49
0.0208333333333333
 49
0.0
 49
0.0
 49
0.0
 49
0.0
 49
1.0
 49
0.0
 49
0.0
 49
0.0
 49
0.0
 49
1.0
175
     0
142
0.0208333333333333
142
0.0
142
0.0
142
0.0
142
0.0
142
0.0208333333333333
142
0.0
142
0.0
142
0.0
142
0.0
142
1.0
142
0.0
142
0.0
142
0.0
142
0.0
142
1.0
179
     0
144
0.0208333333333333
144
0.0
144
0.0
144
0.0
144
0.0
144
0.0208333333333333
144
0.0
144
0.0
144
0.0
144
0.0
144
1.0
144
0.0
144
0.0
144
0.0
144
0.0
144
1.0
147
0.0208333333333333
147
0.0
147
0.0
147
0.0
147
0.0
147
0.0208333333333333
147
0.0
147
0.0
147
0.0
147
0.0
147
1.0
147
0.0
147
0.0
147
0.0
147
0.0
147
1.0
  0
MATERIAL
  5
21
102
{ACAD_XDICTIONARY
360
22
102
}
102
{ACAD_REACTORS
330
10
102
}
330
10
100
AcDbMaterial
  1
Global
 72
     0
 43
0.0208333333333333
 43
0.0
 43
0.0
 43
0.0
 43
0.0
 43
0.0208333333333333
 43
0.0
 43
0.0
 43
0.0
 43
0.0
 43
1.0
 43
0.0
 43
0.0
 43
0.0
 43
0.0
 43
1.0
 77
     0
 47
0.0208333333333333
 47
0.0
 47
0.0
 47
0.0
 47
0.0
 47
0.0208333333333333
 47
0.0
 47
0.0
 47
0.0
 47
0.0
 47
1.0
 47
0.0
 47
0.0
 47
0.0
 47
0.0
 47
1.0
171
     0
 49
0.0208333333333333
 49
0.0
 49
0.0
 49
0.0
 49
0.0
 49
0.0208333333333333
 49
0.0
 49
0.0
 49
0.0
 49
0.0
 49
1.0
 49
0.0
 49
0.0
 49
0.0
 49
0.0
 49
1.0
175
     0
142
0.0208333333333333
142
0.0
142
0.0
142
0.0
142
0.0
142
0.0208333333333333
142
0.0
142
0.0
142
0.0
142
0.0
142
1.0
142
0.0
142
0.0
142
0.0
142
0.0
142
1.0
179
     0
144
0.0208333333333333
144
0.0
144
0.0
144
0.0
144
0.0
144
0.0208333333333333
144
0.0
144
0.0
144
0.0
144
0.0
144
1.0
144
0.0
144
0.0
144
0.0
144
0.0
144
1.0
147
0.0208333333333333
147
0.0
147
0.0
147
0.0
147
0.0
147
0.0208333333333333
147
0.0
147
0.0
147
0.0
147
0.0
147
1.0
147
0.0
147
0.0
147
0.0
147
0.0
147
1.0
  0
MLEADERSTYLE
  5
67
102
{ACAD_REACTORS
330
66
102
}
330
66
100
AcDbMLeaderStyle
179
     2
170
     2
171
     1
172
     0
 90
        2
 40
0.0
 41
0.0
173
     1
 91
-1056964608
340
5B
 92
       -2
290
     1
 42
0.09
291
     1
 43
0.36
  3
Standard
 44
0.18
300

342
55
174
     1
178
     6
175
     1
176
     0
 93
-1056964608
 45
0.18
292
     0
297
     0
 46
0.18
 94
-1056964608
 47
1.0
 49
1.0
140
1.0
293
     1
141
0.0
294
     1
177
     0
142
1.0
295
     1
296
     0
143
0.125
271
     0
272
     9
273
     9
298
     1
  0
MLINESTYLE
  5
60
102
{ACAD_REACTORS
330
5F
102
}
330
5F
100
AcDbMlineStyle
  2
STANDARD
 70
     0
  3

 62
   256
 51
90.0
 52
90.0
 71
     2
 49
0.5
 62
   256
  6
BYLAYER
 49
-0.5
 62
   256
  6
BYLAYER
  0
ACDBPLACEHOLDER
  5
F
102
{ACAD_REACTORS
330
E
102
}
330
E
  0
SCALE
  5
43
102
{ACAD_REACTORS
330
42
102
}
330
42
100
AcDbScale
 70
     0
300
1:1
140
1.0
141
1.0
290
     1
  0
SCALE
  5
44
102
{ACAD_REACTORS
330
42
102
}
330
42
100
AcDbScale
 70
     0
300
1/128" = 1'-0"
140
0.0078125
141
12.0
290
     0
  0
SCALE
  5
45
102
{ACAD_REACTORS
330
42
102
}
330
42
100
AcDbScale
 70
     0
300
1/64" = 1'-0"
140
0.015625
141
12.0
290
     0
  0
SCALE
  5
46
102
{ACAD_REACTORS
330
42
102
}
330
42
100
AcDbScale
 70
     0
300
1/32" = 1'-0"
140
0.03125
141
12.0
290
     0
  0
SCALE
  5
47
102
{ACAD_REACTORS
330
42
102
}
330
42
100
AcDbScale
 70
     0
300
1/16" = 1'-0"
140
0.0625
141
12.0
290
     0
  0
SCALE
  5
48
102
{ACAD_REACTORS
330
42
102
}
330
42
100
AcDbScale
 70
     0
300
3/32" = 1'-0"
140
0.09375
141
12.0
290
     0
  0
SCALE
  5
49
102
{ACAD_REACTORS
330
42
102
}
330
42
100
AcDbScale
 70
     0
300
1/8" = 1'-0"
140
0.125
141
12.0
290
     0
  0
SCALE
  5
4A
102
{ACAD_REACTORS
330
42
102
}
330
42
100
AcDbScale
 70
     0
300
3/16" = 1'-0"
140
0.1875
141
12.0
290
     0
  0
SCALE
  5
4B
102
{ACAD_REACTORS
330
42
102
}
330
42
100
AcDbScale
 70
     0
300
1/4" = 1'-0"
140
0.25
141
12.0
290
     0
  0
SCALE
  5
4C
102
{ACAD_REACTORS
330
42
102
}
330
42
100
AcDbScale
 70
     0
300
3/8" = 1'-0"
140
0.375
141
12.0
290
     0
  0
SCALE
  5
4D
102
{ACAD_REACTORS
330
42
102
}
330
42
100
AcDbScale
 70
     0
300
1/2" = 1'-0"
140
0.5
141
12.0
290
     0
  0
SCALE
  5
4E
102
{ACAD_REACTORS
330
42
102
}
330
42
100
AcDbScale
 70
     0
300
3/4" = 1'-0"
140
0.75
141
12.0
290
     0
  0
SCALE
  5
4F
102
{ACAD_REACTORS
330
42
102
}
330
42
100
AcDbScale
 70
     0
300
1" = 1'-0"
140
1.0
141
12.0
290
     0
  0
SCALE
  5
50
102
{ACAD_REACTORS
330
42
102
}
330
42
100
AcDbScale
 70
     0
300
1-1/2" = 1'-0"
140
1.5
141
12.0
290
     0
  0
SCALE
  5
51
102
{ACAD_REACTORS
330
42
102
}
330
42
100
AcDbScale
 70
     0
300
3" = 1'-0"
140
3.0
141
12.0
290
     0
  0
SCALE
  5
52
102
{ACAD_REACTORS
330
42
102
}
330
42
100
AcDbScale
 70
     0
300
6" = 1'-0"
140
6.0
141
12.0
290
     0
  0
SCALE
  5
53
102
{ACAD_REACTORS
330
42
102
}
330
42
100
AcDbScale
 70
     0
300
1'-0" = 1'-0"
140
12.0
141
12.0
290
     0
  0
ACDBSECTIONVIEWSTYLE
  5
69
102
{ACAD_REACTORS
330
68
102
}
330
68
100
AcDbModelDocViewStyle
 70
     0
  3
Imperial24
290
     1
300
Imperial24
 90
        0
100
AcDbSectionViewStyle
 70
     0
 71
     0
 90
       78
 71
     1
340
55
 62
   256
 40
0.24
340
0
340
0
 62
   256
 40
0.24
300
I, O, Q, S, X, Z
 40
0.48
 90
        3
 40
0.18
 90
        1
 71
     2
340
5D
 90
       25
 62
   256
340
5D
 90
       50
 62
   256
 40
0.24
 40
0.0
 40
0.24
 71
     3
340
55
 62
   256
 40
0.24
 90
        1
 40
0.75
 90
        1
300
%<\AcVar ViewType \f "%tc1">% %<\AcVar ViewSectionStartId>%-%<\AcVar ViewSectionEndId>%\PSCALE %<\AcVar ViewScale \f "%sn">%
 71
     4
 62
   256
 62
   257
300
ANSI31
 40
1.0
 90
        0
290
     0
290
     0
 90
        6
 40
0.0
 40
1.570796326794896
 40
0.2617993877991494
 40
1.308996938995747
 40
-0.2617993877991494
 40
1.832595714594046
  0
TABLESTYLE
  5
65
102
{ACAD_XDICTIONARY
360
A2
102
}
102
{ACAD_REACTORS
330
64
102
}
330
64
100
AcDbTableStyle
280
     0
  3
Standard
 70
     0
 71
     0
 40
0.06
 41
0.06
280
     0
281
     0
  7
Standard
140
0.18
170
     2
 62
     0
 63
     7
283
     0
 90
      512
 91
        0
  1

274
    -2
284
     1
 64
     0
275
    -2
285
     1
 65
     0
276
    -2
286
     1
 66
     0
277
    -2
287
     1
 67
     0
278
    -2
288
     1
 68
     0
279
    -2
289
     1
 69
     0
  7
Standard
140
0.25
170
     5
 62
     0
 63
     7
283
     0
 90
      512
 91
        0
  1

274
    -2
284
     1
 64
     0
275
    -2
285
     1
 65
     0
276
    -2
286
     1
 66
     0
277
    -2
287
     1
 67
     0
278
    -2
288
     1
 68
     0
279
    -2
289
     1
 69
     0
  7
Standard
140
0.18
170
     5
 62
     0
 63
     7
283
     0
 90
      512
 91
        0
  1

274
    -2
284
     1
 64
     0
275
    -2
285
     1
 65
     0
276
    -2
286
     1
 66
     0
277
    -2
287
     1
 67
     0
278
    -2
288
     1
 68
     0
279
    -2
289
     1
 69
     0
  0
VISUALSTYLE
  5
2F
102
{ACAD_REACTORS
330
29
102
}
330
29
100
AcDbVisualStyle
  2
2dWireframe
 70
     4
177
     3
291
     0
 70
    58
 90
        0
176
     1
 90
        2
176
     1
 90
        0
176
     1
 90
        0
176
     1
 40
0.6
176
     1
 40
30.0
176
     1
 62
     7
420
 16777215
176
     1
 90
        1
176
     1
 90
        4
176
     1
 62
     7
176
     1
 62
   257
176
     1
 90
        1
176
     1
 90
        1
176
     1
 40
1.0
176
     1
 90
        0
176
     1
 62
   257
176
     1
 40
1.0
176
     1
 90
        1
176
     1
 90
        6
176
     1
 90
        2
176
     1
 62
     7
176
     1
 90
        5
176
     1
 90
        0
176
     1
 90
        0
176
     1
290
     0
176
     1
 90
        1
176
     1
 40
0.0
176
     1
 90
        0
176
     1
290
     1
176
     1
290
     1
176
     1
290
     0
176
     1
290
     0
176
     1
290
     0
176
     1
290
     0
176
     1
290
     0
176
     1
290
     0
176
     1
290
     0
176
     1
 90
       50
176
     1
 40
0.0
176
     1
 40
1.0
176
     1
 90
        0
176
     1
 62
    18
420
        0
176
     1
 90
       50
176
     1
 90
        3
176
     1
 62
     5
420
      255
176
     1
290
     0
176
     1
 90
       50
176
     1
 90
       50
176
     1
 90
       50
176
     1
290
     0
176
     1
 90
       50
176
     1
 62
   256
176
     0
 40
1.0
176
     0
 90
        2
176
     1
  1
strokes_ogs.tif
176
     1
290
     0
176
     1
 40
1.0
176
     1
 40
1.0
176
     1
  0
VISUALSTYLE
  5
2E
102
{ACAD_REACTORS
330
29
102
}
330
29
100
AcDbVisualStyle
  2
Basic
 70
     7
177
     3
291
     1
 70
    58
 90
        1
176
     1
 90
        0
176
     1
 90
        1
176
     1
 90
        0
176
     1
 40
0.6
176
     1
 40
30.0
176
     1
 62
     7
420
 16777215
176
     1
 90
        0
176
     1
 90
        4
176
     1
 62
     7
176
     1
 62
   257
176
     1
 90
        1
176
     1
 90
        1
176
     1
 40
1.0
176
     1
 90
        8
176
     1
 62
     7
176
     1
 40
1.0
176
     1
 90
        1
176
     1
 90
        6
176
     1
 90
        2
176
     1
 62
     7
176
     1
 90
        5
176
     1
 90
        0
176
     1
 90
        0
176
     1
290
     0
176
     1
 90
        1
176
     1
 40
0.0
176
     1
 90
        0
176
     1
290
     0
176
     1
290
     1
176
     1
290
     1
176
     1
290
     0
176
     1
290
     0
176
     1
290
     0
176
     1
290
     0
176
     1
290
     0
176
     1
290
     0
176
     1
 90
       50
176
     1
 40
0.0
176
     1
 40
1.0
176
     1
 90
        0
176
     1
 62
    18
420
        0
176
     1
 90
       50
176
     1
 90
        3
176
     1
 62
     5
420
      255
176
     1
290
     0
176
     1
 90
       50
176
     1
 90
       50
176
     1
 90
       50
176
     1
290
     0
176
     1
 90
       50
176
     1
 62
   256
176
     0
 40
1.0
176
     0
 90
        2
176
     1
  1
strokes_ogs.tif
176
     1
290
     0
176
     1
 40
1.0
176
     1
 40
1.0
176
     1
  0
VISUALSTYLE
  5
35
102
{ACAD_REACTORS
330
29
102
}
330
29
100
AcDbVisualStyle
  2
Brighten
 70
    12
177
     3
291
     1
 70
    58
 90
        2
176
     1
 90
        2
176
     1
 90
        0
176
     1
 90
        0
176
     1
 40
0.6
176
     1
 40
30.0
176
     1
 62
     7
420
 16777215
176
     1
 90
        1
176
     1
 90
        4
176
     1
 62
     7
176
     1
 62
   257
176
     1
 90
        1
176
     1
 90
        1
176
     1
 40
1.0
176
     1
 90
        8
176
     1
 62
     7
176
     1
 40
1.0
176
     1
 90
        1
176
     1
 90
        6
176
     1
 90
        2
176
     1
 62
     7
176
     1
 90
        5
176
     1
 90
        0
176
     1
 90
        0
176
     1
290
     0
176
     1
 90
        1
176
     1
 40
50.0
176
     1
 90
        0
176
     1
290
     0
176
     1
290
     1
176
     1
290
     1
176
     1
290
     0
176
     1
290
     0
176
     1
290
     0
176
     1
290
     0
176
     1
290
     0
176
     1
290
     0
176
     1
 90
       50
176
     1
 40
0.0
176
     1
 40
1.0
176
     1
 90
        0
176
     1
 62
    18
420
        0
176
     1
 90
       50
176
     1
 90
        3
176
     1
 62
     5
420
      255
176
     1
290
     0
176
     1
 90
       50
176
     1
 90
       50
176
     1
 90
       50
176
     1
290
     0
176
     1
 90
       50
176
     1
 62
   256
176
     0
 40
1.0
176
     0
 90
        2
176
     1
  1
strokes_ogs.tif
176
     1
290
     0
176
     1
 40
1.0
176
     1
 40
1.0
176
     1
  0
VISUALSTYLE
  5
39
102
{ACAD_REACTORS
330
29
102
}
330
29
100
AcDbVisualStyle
  2
ColorChange
 70
    16
177
     3
291
     1
 70
    58
 90
        2
176
     1
 90
        2
176
     1
 90
        3
176
     1
 90
        0
176
     1
 40
0.6
176
     1
 40
30.0
176
     1
 62
     8
420
  8421504
176
     1
 90
        1
176
     1
 90
        4
176
     1
 62
     7
176
     1
 62
   257
176
     1
 90
        1
176
     1
 90
        1
176
     1
 40
1.0
176
     1
 90
        8
176
     1
 62
     8
420
  8421504
176
     1
 40
1.0
176
     1
 90
        1
176
     1
 90
        6
176
     1
 90
        2
176
     1
 62
     7
176
     1
 90
        5
176
     1
 90
        0
176
     1
 90
        0
176
     1
290
     0
176
     1
 90
        1
176
     1
 40
0.0
176
     1
 90
        0
176
     1
290
     0
176
     1
290
     1
176
     1
290
     1
176
     1
290
     0
176
     1
290
     0
176
     1
290
     0
176
     1
290
     0
176
     1
290
     0
176
     1
290
     0
176
     1
 90
       50
176
     1
 40
0.0
176
     1
 40
1.0
176
     1
 90
        0
176
     1
 62
    18
420
        0
176
     1
 90
       50
176
     1
 90
        3
176
     1
 62
     5
420
      255
176
     1
290
     0
176
     1
 90
       50
176
     1
 90
       50
176
     1
 90
       50
176
     1
290
     0
176
     1
 90
       50
176
     1
 62
   256
176
     0
 40
1.0
176
     0
 90
        2
176
     1
  1
strokes_ogs.tif
176
     1
290
     0
176
     1
 40
1.0
176
     1
 40
1.0
176
     1
  0
VISUALSTYLE
  5
32
102
{ACAD_REACTORS
330
29
102
}
330
29
100
AcDbVisualStyle
  2
Conceptual
 70
     9
177
     3
291
     0
 70
    58
 90
        3
176
     1
 90
        2
176
     1
 90
        0
176
     1
 90
        0
176
     1
 40
0.6
176
     1
 40
30.0
176
     1
 62
     7
420
 16777215
176
     1
 90
        2
176
     1
 90
        2
176
     1
 62
     7
176
     1
 62
   257
176
     1
 90
        1
176
     1
 90
        1
176
     1
 40
179.0
176
     1
 90
        8
176
     1
 62
     7
176
     1
 40
1.0
176
     1
 90
        1
176
     1
 90
        6
176
     1
 90
        2
176
     1
 62
     7
176
     1
 90
        3
176
     1
 90
        0
176
     1
 90
        0
176
     1
290
     0
176
     1
 90
        1
176
     1
 40
0.0
176
     1
 90
        0
176
     1
290
     0
176
     1
290
     1
176
     1
290
     1
176
     1
290
     0
176
     1
290
     0
176
     1
290
     0
176
     1
290
     0
176
     1
290
     0
176
     1
290
     0
176
     1
 90
       50
176
     1
 40
0.0
176
     1
 40
1.0
176
     1
 90
        0
176
     1
 62
    18
420
        0
176
     1
 90
       50
176
     1
 90
        3
176
     1
 62
     5
420
      255
176
     1
290
     0
176
     1
 90
       50
176
     1
 90
       50
176
     1
 90
       50
176
     1
290
     0
176
     1
 90
       50
176
     1
 62
   256
176
     0
 40
1.0
176
     0
 90
        2
176
     1
  1
strokes_ogs.tif
176
     1
290
     0
176
     1
 40
1.0
176
     1
 40
1.0
176
     1
  0
VISUALSTYLE
  5
34
102
{ACAD_REACTORS
330
29
102
}
330
29
100
AcDbVisualStyle
  2
Dim
 70
    11
177
     3
291
     1
 70
    58
 90
        2
176
     1
 90
        2
176
     1
 90
        0
176
     1
 90
        0
176
     1
 40
0.6
176
     1
 40
30.0
176
     1
 62
     7
420
 16777215
176
     1
 90
        1
176
     1
 90
        4
176
     1
 62
     7
176
     1
 62
   257
176
     1
 90
        1
176
     1
 90
        1
176
     1
 40
1.0
176
     1
 90
        8
176
     1
 62
     7
176
     1
 40
1.0
176
     1
 90
        1
176
     1
 90
        6
176
     1
 90
        2
176
     1
 62
     7
176
     1
 90
        5
176
     1
 90
        0
176
     1
 90
        0
176
     1
290
     0
176
     1
 90
        1
176
     1
 40
-50.0
176
     1
 90
        0
176
     1
290
     0
176
     1
290
     1
176
     1
290
     1
176
     1
290
     0
176
     1
290
     0
176
     1
290
     0
176
     1
290
     0
176
     1
290
     0
176
     1
290
     0
176
     1
 90
       50
176
     1
 40
0.0
176
     1
 40
1.0
176
     1
 90
        0
176
     1
 62
    18
420
        0
176
     1
 90
       50
176
     1
 90
        3
176
     1
 62
     5
420
      255
176
     1
290
     0
176
     1
 90
       50
176
     1
 90
       50
176
     1
 90
       50
176
     1
290
     0
176
     1
 90
       50
176
     1
 62
   256
176
     0
 40
1.0
176
     0
 90
        2
176
     1
  1
strokes_ogs.tif
176
     1
290
     0
176
     1
 40
1.0
176
     1
 40
1.0
176
     1
  0
VISUALSTYLE
  5
41
102
{ACAD_REACTORS
330
29
102
}
330
29
100
AcDbVisualStyle
  2
EdgeColorOff
 70
    22
177
     3
291
     1
 70
    58
 90
        2
176
     0
 90
        2
176
     0
 90
        0
176
     0
 90
        0
176
     0
 40
0.6
176
     0
 40
30.0
176
     0
 62
     7
420
 16777215
176
     0
 90
        1
176
     0
 90
        4
176
     0
 62
     7
176
     0
 62
   257
176
     0
 90
        1
176
     0
 90
        1
176
     0
 40
1.0
176
     0
 90
        8
176
     2
 62
     7
176
     0
 40
1.0
176
     0
 90
        1
176
     0
 90
        6
176
     0
 90
        2
176
     0
 62
     7
176
     0
 90
        5
176
     0
 90
        0
176
     0
 90
        0
176
     0
290
     0
176
     0
 90
        1
176
     0
 40
0.0
176
     0
 90
        0
176
     0
290
     0
176
     0
290
     1
176
     0
290
     1
176
     0
290
     0
176
     0
290
     0
176
     0
290
     0
176
     0
290
     0
176
     0
290
     0
176
     0
290
     0
176
     0
 90
       50
176
     0
 40
0.0
176
     0
 40
1.0
176
     0
 90
        0
176
     0
 62
    18
420
        0
176
     0
 90
       50
176
     0
 90
        3
176
     0
 62
     5
420
      255
176
     0
290
     0
176
     0
 90
       50
176
     0
 90
       50
176
     0
 90
       50
176
     0
290
     0
176
     0
 90
       50
176
     0
 62
   256
176
     0
 40
1.0
176
     0
 90
        2
176
     0
  1
strokes_ogs.tif
176
     0
290
     0
176
     0
 40
1.0
176
     0
 40
1.0
176
     0
  0
VISUALSTYLE
  5
38
102
{ACAD_REACTORS
330
29
102
}
330
29
100
AcDbVisualStyle
  2
Facepattern
 70
    15
177
     3
291
     1
 70
    58
 90
        2
176
     1
 90
        2
176
     1
 90
        0
176
     1
 90
        0
176
     1
 40
0.6
176
     1
 40
30.0
176
     1
 62
     7
420
 16777215
176
     1
 90
        1
176
     1
 90
        4
176
     1
 62
     7
176
     1
 62
   257
176
     1
 90
        1
176
     1
 90
        1
176
     1
 40
1.0
176
     1
 90
        8
176
     1
 62
     7
176
     1
 40
1.0
176
     1
 90
        1
176
     1
 90
        6
176
     1
 90
        2
176
     1
 62
     7
176
     1
 90
        5
176
     1
 90
        0
176
     1
 90
        0
176
     1
290
     0
176
     1
 90
        1
176
     1
 40
0.0
176
     1
 90
        0
176
     1
290
     0
176
     1
290
     1
176
     1
290
     1
176
     1
290
     0
176
     1
290
     0
176
     1
290
     0
176
     1
290
     0
176
     1
290
     0
176
     1
290
     0
176
     1
 90
       50
176
     1
 40
0.0
176
     1
 40
1.0
176
     1
 90
        0
176
     1
 62
    18
420
        0
176
     1
 90
       50
176
     1
 90
        3
176
     1
 62
     5
420
      255
176
     1
290
     0
176
     1
 90
       50
176
     1
 90
       50
176
     1
 90
       50
176
     1
290
     0
176
     1
 90
       50
176
     1
 62
   256
176
     0
 40
1.0
176
     0
 90
        2
176
     1
  1
strokes_ogs.tif
176
     1
290
     0
176
     1
 40
1.0
176
     1
 40
1.0
176
     1
  0
VISUALSTYLE
  5
2A
102
{ACAD_REACTORS
330
29
102
}
330
29
100
AcDbVisualStyle
  2
Flat
 70
     0
177
     3
291
     1
 70
    58
 90
        2
176
     1
 90
        1
176
     1
 90
        1
176
     1
 90
        2
176
     1
 40
0.6
176
     1
 40
30.0
176
     1
 62
     7
420
 16777215
176
     1
 90
        0
176
     1
 90
        0
176
     1
 62
     7
176
     1
 62
   257
176
     1
 90
        1
176
     1
 90
        1
176
     1
 40
1.0
176
     1
 90
        8
176
     1
 62
     7
176
     1
 40
1.0
176
     1
 90
        1
176
     1
 90
        6
176
     1
 90
        2
176
     1
 62
     7
176
     1
 90
        5
176
     1
 90
        0
176
     1
 90
        0
176
     1
290
     0
176
     1
 90
       13
176
     1
 40
0.0
176
     1
 90
        0
176
     1
290
     0
176
     1
290
     1
176
     1
290
     1
176
     1
290
     0
176
     1
290
     0
176
     1
290
     0
176
     1
290
     0
176
     1
290
     0
176
     1
290
     0
176
     1
 90
       50
176
     1
 40
0.0
176
     1
 40
1.0
176
     1
 90
        0
176
     1
 62
    18
420
        0
176
     1
 90
       50
176
     1
 90
        3
176
     1
 62
     5
420
      255
176
     1
290
     0
176
     1
 90
       50
176
     1
 90
       50
176
     1
 90
       50
176
     1
290
     0
176
     1
 90
       50
176
     1
 62
   256
176
     0
 40
1.0
176
     0
 90
        2
176
     1
  1
strokes_ogs.tif
176
     1
290
     0
176
     1
 40
1.0
176
     1
 40
1.0
176
     1
  0
VISUALSTYLE
  5
2B
102
{ACAD_REACTORS
330
29
102
}
330
29
100
AcDbVisualStyle
  2
FlatWithEdges
 70
     1
177
     3
291
     1
 70
    58
 90
        2
176
     1
 90
        1
176
     1
 90
        1
176
     1
 90
        2
176
     1
 40
0.6
176
     1
 40
30.0
176
     1
 62
     7
420
 16777215
176
     1
 90
        1
176
     1
 90
        0
176
     1
 62
     7
176
     1
 62
   257
176
     1
 90
        1
176
     1
 90
        1
176
     1
 40
1.0
176
     1
 90
        0
176
     1
 62
   257
176
     1
 40
1.0
176
     1
 90
        1
176
     1
 90
        6
176
     1
 90
        2
176
     1
 62
     7
176
     1
 90
        5
176
     1
 90
        0
176
     1
 90
        0
176
     1
290
     0
176
     1
 90
       13
176
     1
 40
0.0
176
     1
 90
        0
176
     1
290
     0
176
     1
290
     1
176
     1
290
     1
176
     1
290
     0
176
     1
290
     0
176
     1
290
     0
176
     1
290
     0
176
     1
290
     0
176
     1
290
     0
176
     1
 90
       50
176
     1
 40
0.0
176
     1
 40
1.0
176
     1
 90
        0
176
     1
 62
    18
420
        0
176
     1
 90
       50
176
     1
 90
        3
176
     1
 62
     5
420
      255
176
     1
290
     0
176
     1
 90
       50
176
     1
 90
       50
176
     1
 90
       50
176
     1
290
     0
176
     1
 90
       50
176
     1
 62
   256
176
     0
 40
1.0
176
     0
 90
        2
176
     1
  1
strokes_ogs.tif
176
     1
290
     0
176
     1
 40
1.0
176
     1
 40
1.0
176
     1
  0
VISUALSTYLE
  5
2C
102
{ACAD_REACTORS
330
29
102
}
330
29
100
AcDbVisualStyle
  2
Gouraud
 70
     2
177
     3
291
     1
 70
    58
 90
        2
176
     1
 90
        2
176
     1
 90
        1
176
     1
 90
        2
176
     1
 40
0.6
176
     1
 40
30.0
176
     1
 62
     7
420
 16777215
176
     1
 90
        0
176
     1
 90
        0
176
     1
 62
     7
176
     1
 62
   257
176
     1
 90
        1
176
     1
 90
        1
176
     1
 40
1.0
176
     1
 90
        0
176
     1
 62
     7
176
     1
 40
1.0
176
     1
 90
        1
176
     1
 90
        6
176
     1
 90
        2
176
     1
 62
     7
176
     1
 90
        5
176
     1
 90
        0
176
     1
 90
        0
176
     1
290
     0
176
     1
 90
       13
176
     1
 40
0.0
176
     1
 90
        0
176
     1
290
     0
176
     1
290
     1
176
     1
290
     1
176
     1
290
     0
176
     1
290
     0
176
     1
290
     0
176
     1
290
     0
176
     1
290
     0
176
     1
290
     0
176
     1
 90
       50
176
     1
 40
0.0
176
     1
 40
1.0
176
     1
 90
        0
176
     1
 62
    18
420
        0
176
     1
 90
       50
176
     1
 90
        3
176
     1
 62
     5
420
      255
176
     1
290
     0
176
     1
 90
       50
176
     1
 90
       50
176
     1
 90
       50
176
     1
290
     0
176
     1
 90
       50
176
     1
 62
   256
176
     0
 40
1.0
176
     0
 90
        2
176
     1
  1
strokes_ogs.tif
176
     1
290
     0
176
     1
 40
1.0
176
     1
 40
1.0
176
     1
  0
VISUALSTYLE
  5
2D
102
{ACAD_REACTORS
330
29
102
}
330
29
100
AcDbVisualStyle
  2
GouraudWithEdges
 70
     3
177
     3
291
     1
 70
    58
 90
        2
176
     1
 90
        2
176
     1
 90
        1
176
     1
 90
        2
176
     1
 40
0.6
176
     1
 40
30.0
176
     1
 62
     7
420
 16777215
176
     1
 90
        1
176
     1
 90
        0
176
     1
 62
     7
176
     1
 62
   257
176
     1
 90
        1
176
     1
 90
        1
176
     1
 40
1.0
176
     1
 90
        0
176
     1
 62
   257
176
     1
 40
1.0
176
     1
 90
        1
176
     1
 90
        6
176
     1
 90
        2
176
     1
 62
     7
176
     1
 90
        5
176
     1
 90
        0
176
     1
 90
        0
176
     1
290
     0
176
     1
 90
       13
176
     1
 40
0.0
176
     1
 90
        0
176
     1
290
     0
176
     1
290
     1
176
     1
290
     1
176
     1
290
     0
176
     1
290
     0
176
     1
290
     0
176
     1
290
     0
176
     1
290
     0
176
     1
290
     0
176
     1
 90
       50
176
     1
 40
0.0
176
     1
 40
1.0
176
     1
 90
        0
176
     1
 62
    18
420
        0
176
     1
 90
       50
176
     1
 90
        3
176
     1
 62
     5
420
      255
176
     1
290
     0
176
     1
 90
       50
176
     1
 90
       50
176
     1
 90
       50
176
     1
290
     0
176
     1
 90
       50
176
     1
 62
   256
176
     0
 40
1.0
176
     0
 90
        2
176
     1
  1
strokes_ogs.tif
176
     1
290
     0
176
     1
 40
1.0
176
     1
 40
1.0
176
     1
  0
VISUALSTYLE
  5
31
102
{ACAD_REACTORS
330
29
102
}
330
29
100
AcDbVisualStyle
  2
Hidden
 70
     6
177
     3
291
     0
 70
    58
 90
        1
176
     1
 90
        2
176
     1
 90
        2
176
     1
 90
        0
176
     1
 40
0.6
176
     1
 40
30.0
176
     1
 62
     7
420
 16777215
176
     1
 90
        2
176
     1
 90
        2
176
     1
 62
     7
176
     1
 62
   257
176
     1
 90
        2
176
     1
 90
        1
176
     1
 40
40.0
176
     1
 90
        0
176
     1
 62
   257
176
     1
 40
1.0
176
     1
 90
        1
176
     1
 90
        6
176
     1
 90
        2
176
     1
 62
     7
176
     1
 90
        3
176
     1
 90
        0
176
     1
 90
        0
176
     1
290
     0
176
     1
 90
        1
176
     1
 40
0.0
176
     1
 90
        0
176
     1
290
     0
176
     1
290
     1
176
     1
290
     1
176
     1
290
     0
176
     1
290
     0
176
     1
290
     0
176
     1
290
     0
176
     1
290
     0
176
     1
290
     0
176
     1
 90
       50
176
     1
 40
0.0
176
     1
 40
1.0
176
     1
 90
        0
176
     1
 62
    18
420
        0
176
     1
 90
       50
176
     1
 90
        3
176
     1
 62
     5
420
      255
176
     1
290
     0
176
     1
 90
       50
176
     1
 90
       50
176
     1
 90
       50
176
     1
290
     0
176
     1
 90
       50
176
     1
 62
   256
176
     0
 40
1.0
176
     0
 90
        2
176
     1
  1
strokes_ogs.tif
176
     1
290
     0
176
     1
 40
1.0
176
     1
 40
1.0
176
     1
  0
VISUALSTYLE
  5
3F
102
{ACAD_REACTORS
330
29
102
}
330
29
100
AcDbVisualStyle
  2
JitterOff
 70
    20
177
     3
291
     1
 70
    58
 90
        2
176
     0
 90
        2
176
     0
 90
        0
176
     0
 90
        0
176
     0
 40
0.6
176
     0
 40
30.0
176
     0
 62
     7
420
 16777215
176
     0
 90
        1
176
     0
 90
        4
176
     0
 62
     7
176
     0
 62
   257
176
     0
 90
        1
176
     0
 90
        1
176
     0
 40
1.0
176
     0
 90
       10
176
     2
 62
     7
176
     0
 40
1.0
176
     0
 90
        1
176
     0
 90
        6
176
     0
 90
        2
176
     0
 62
     7
176
     0
 90
        5
176
     0
 90
        0
176
     0
 90
        0
176
     0
290
     0
176
     0
 90
        1
176
     0
 40
0.0
176
     0
 90
        0
176
     0
290
     0
176
     0
290
     1
176
     0
290
     1
176
     0
290
     0
176
     0
290
     0
176
     0
290
     0
176
     0
290
     0
176
     0
290
     0
176
     0
290
     0
176
     0
 90
       50
176
     0
 40
0.0
176
     0
 40
1.0
176
     0
 90
        0
176
     0
 62
    18
420
        0
176
     0
 90
       50
176
     0
 90
        3
176
     0
 62
     5
420
      255
176
     0
290
     0
176
     0
 90
       50
176
     0
 90
       50
176
     0
 90
       50
176
     0
290
     0
176
     0
 90
       50
176
     0
 62
   256
176
     0
 40
1.0
176
     0
 90
        2
176
     0
  1
strokes_ogs.tif
176
     0
290
     0
176
     0
 40
1.0
176
     0
 40
1.0
176
     0
  0
VISUALSTYLE
  5
37
102
{ACAD_REACTORS
330
29
102
}
330
29
100
AcDbVisualStyle
  2
Linepattern
 70
    14
177
     3
291
     1
 70
    58
 90
        2
176
     1
 90
        2
176
     1
 90
        0
176
     1
 90
        0
176
     1
 40
0.6
176
     1
 40
30.0
176
     1
 62
     7
420
 16777215
176
     1
 90
        1
176
     1
 90
        4
176
     1
 62
     7
176
     1
 62
   257
176
     1
 90
        7
176
     1
 90
        7
176
     1
 40
1.0
176
     1
 90
        8
176
     1
 62
     7
176
     1
 40
1.0
176
     1
 90
        1
176
     1
 90
        6
176
     1
 90
        2
176
     1
 62
     7
176
     1
 90
        5
176
     1
 90
        0
176
     1
 90
        0
176
     1
290
     0
176
     1
 90
        1
176
     1
 40
0.0
176
     1
 90
        0
176
     1
290
     0
176
     1
290
     1
176
     1
290
     1
176
     1
290
     0
176
     1
290
     0
176
     1
290
     0
176
     1
290
     0
176
     1
290
     0
176
     1
290
     0
176
     1
 90
       50
176
     1
 40
0.0
176
     1
 40
1.0
176
     1
 90
        0
176
     1
 62
    18
420
        0
176
     1
 90
       50
176
     1
 90
        3
176
     1
 62
     5
420
      255
176
     1
290
     0
176
     1
 90
       50
176
     1
 90
       50
176
     1
 90
       50
176
     1
290
     0
176
     1
 90
       50
176
     1
 62
   256
176
     0
 40
1.0
176
     0
 90
        2
176
     1
  1
strokes_ogs.tif
176
     1
290
     0
176
     1
 40
1.0
176
     1
 40
1.0
176
     1
  0
VISUALSTYLE
  5
40
102
{ACAD_REACTORS
330
29
102
}
330
29
100
AcDbVisualStyle
  2
OverhangOff
 70
    21
177
     3
291
     1
 70
    58
 90
        2
176
     0
 90
        2
176
     0
 90
        0
176
     0
 90
        0
176
     0
 40
0.6
176
     0
 40
30.0
176
     0
 62
     7
420
 16777215
176
     0
 90
        1
176
     0
 90
        4
176
     0
 62
     7
176
     0
 62
   257
176
     0
 90
        1
176
     0
 90
        1
176
     0
 40
1.0
176
     0
 90
        9
176
     2
 62
     7
176
     0
 40
1.0
176
     0
 90
        1
176
     0
 90
        6
176
     0
 90
        2
176
     0
 62
     7
176
     0
 90
        5
176
     0
 90
        0
176
     0
 90
        0
176
     0
290
     0
176
     0
 90
        1
176
     0
 40
0.0
176
     0
 90
        0
176
     0
290
     0
176
     0
290
     1
176
     0
290
     1
176
     0
290
     0
176
     0
290
     0
176
     0
290
     0
176
     0
290
     0
176
     0
290
     0
176
     0
290
     0
176
     0
 90
       50
176
     0
 40
0.0
176
     0
 40
1.0
176
     0
 90
        0
176
     0
 62
    18
420
        0
176
     0
 90
       50
176
     0
 90
        3
176
     0
 62
     5
420
      255
176
     0
290
     0
176
     0
 90
       50
176
     0
 90
       50
176
     0
 90
       50
176
     0
290
     0
176
     0
 90
       50
176
     0
 62
   256
176
     0
 40
1.0
176
     0
 90
        2
176
     0
  1
strokes_ogs.tif
176
     0
290
     0
176
     0
 40
1.0
176
     0
 40
1.0
176
     0
  0
VISUALSTYLE
  5
33
102
{ACAD_REACTORS
330
29
102
}
330
29
100
AcDbVisualStyle
  2
Realistic
 70
     8
177
     3
291
     0
 70
    58
 90
        2
176
     1
 90
        3
176
     1
 90
        0
176
     1
 90
        2
176
     1
 40
0.6
176
     1
 40
30.0
176
     1
 62
     7
420
 16777215
176
     1
 90
        0
176
     1
 90
        0
176
     1
 62
     7
176
     1
 62
   257
176
     1
 90
        1
176
     1
 90
        1
176
     1
 40
1.0
176
     1
 90
        8
176
     1
 62
   257
176
     1
 40
1.0
176
     1
 90
        1
176
     1
 90
        6
176
     1
 90
        2
176
     1
 62
     7
176
     1
 90
        3
176
     1
 90
        0
176
     1
 90
        0
176
     1
290
     0
176
     1
 90
       13
176
     1
 40
0.0
176
     1
 90
        0
176
     1
290
     0
176
     1
290
     1
176
     1
290
     1
176
     1
290
     0
176
     1
290
     0
176
     1
290
     0
176
     1
290
     0
176
     1
290
     0
176
     1
290
     0
176
     1
 90
       50
176
     1
 40
0.0
176
     1
 40
1.0
176
     1
 90
        0
176
     1
 62
    18
420
        0
176
     1
 90
       50
176
     1
 90
        3
176
     1
 62
     5
420
      255
176
     1
290
     0
176
     1
 90
       50
176
     1
 90
       50
176
     1
 90
       50
176
     1
290
     0
176
     1
 90
       50
176
     1
 62
   256
176
     0
 40
1.0
176
     0
 90
        2
176
     1
  1
strokes_ogs.tif
176
     1
290
     0
176
     1
 40
1.0
176
     1
 40
1.0
176
     1
  0
VISUALSTYLE
  5
3E
102
{ACAD_REACTORS
330
29
102
}
330
29
100
AcDbVisualStyle
  2
Shaded
 70
    27
177
     3
291
     0
 70
    58
 90
        2
176
     1
 90
        2
176
     1
 90
        1
176
     1
 90
        2
176
     1
 40
0.6
176
     1
 40
30.0
176
     1
 62
     7
420
 16777215
176
     1
 90
        0
176
     1
 90
        4
176
     1
 62
     7
176
     1
 62
   257
176
     1
 90
        1
176
     1
 90
        1
176
     1
 40
1.0
176
     1
 90
        8
176
     1
 62
   257
176
     1
 40
1.0
176
     1
 90
        1
176
     1
 90
        6
176
     1
 90
        2
176
     1
 62
     8
420
  7895160
176
     1
 90
        3
176
     1
 90
        0
176
     1
 90
        0
176
     1
290
     0
176
     1
 90
        5
176
     1
 40
0.0
176
     1
 90
        0
176
     1
290
     0
176
     1
290
     1
176
     1
290
     1
176
     1
290
     0
176
     1
290
     0
176
     1
290
     0
176
     1
290
     0
176
     1
290
     0
176
     1
290
     0
176
     1
 90
       50
176
     1
 40
0.0
176
     1
 40
1.0
176
     1
 90
        0
176
     1
 62
    18
420
        0
176
     1
 90
       50
176
     1
 90
        3
176
     1
 62
     5
420
      255
176
     1
290
     0
176
     1
 90
       50
176
     1
 90
       50
176
     1
 90
       50
176
     1
290
     0
176
     1
 90
       50
176
     1
 62
   256
176
     0
 40
1.0
176
     0
 90
        2
176
     1
  1
strokes_ogs.tif
176
     1
290
     0
176
     1
 40
1.0
176
     1
 40
1.0
176
     1
  0
VISUALSTYLE
  5
3D
102
{ACAD_REACTORS
330
29
102
}
330
29
100
AcDbVisualStyle
  2
Shaded with edges
 70
    26
177
     3
291
     0
 70
    58
 90
        2
176
     1
 90
        2
176
     1
 90
        1
176
     1
 90
        2
176
     1
 40
0.6
176
     1
 40
30.0
176
     1
 62
     7
420
 16777215
176
     1
 90
        1
176
     1
 90
        2
176
     1
 62
     7
176
     1
 62
   257
176
     1
 90
        2
176
     1
 90
        1
176
     1
 40
1.0
176
     1
 90
        8
176
     1
 62
   257
176
     1
 40
1.0
176
     1
 90
        1
176
     1
 90
        6
176
     1
 90
        2
176
     1
 62
     7
176
     1
 90
        3
176
     1
 90
        0
176
     1
 90
        0
176
     1
290
     0
176
     1
 90
        5
176
     1
 40
0.0
176
     1
 90
        0
176
     1
290
     0
176
     1
290
     1
176
     1
290
     1
176
     1
290
     0
176
     1
290
     0
176
     1
290
     0
176
     1
290
     0
176
     1
290
     0
176
     1
290
     0
176
     1
 90
       50
176
     1
 40
0.0
176
     1
 40
1.0
176
     1
 90
        0
176
     1
 62
    18
420
        0
176
     1
 90
       50
176
     1
 90
        3
176
     1
 62
     5
420
      255
176
     1
290
     0
176
     1
 90
       50
176
     1
 90
       50
176
     1
 90
       50
176
     1
290
     0
176
     1
 90
       50
176
     1
 62
   256
176
     0
 40
1.0
176
     0
 90
        2
176
     1
  1
strokes_ogs.tif
176
     1
290
     0
176
     1
 40
1.0
176
     1
 40
1.0
176
     1
  0
VISUALSTYLE
  5
3A
102
{ACAD_REACTORS
330
29
102
}
330
29
100
AcDbVisualStyle
  2
Shades of Gray
 70
    23
177
     3
291
     0
 70
    58
 90
        2
176
     1
 90
        2
176
     1
 90
        3
176
     1
 90
        0
176
     1
 40
0.6
176
     1
 40
30.0
176
     1
 62
     7
420
 16777215
176
     1
 90
        2
176
     1
 90
        2
176
     1
 62
     7
176
     1
 62
     7
176
     1
 90
        1
176
     1
 90
        1
176
     1
 40
40.0
176
     1
 90
        8
176
     1
 62
     7
176
     1
 40
1.0
176
     1
 90
        1
176
     1
 90
        6
176
     1
 90
        2
176
     1
 62
     7
176
     1
 90
        3
176
     1
 90
        0
176
     1
 90
        0
176
     1
290
     0
176
     1
 90
        1
176
     1
 40
0.0
176
     1
 90
        0
176
     1
290
     0
176
     1
290
     1
176
     1
290
     1
176
     1
290
     0
176
     1
290
     0
176
     1
290
     0
176
     1
290
     0
176
     1
290
     0
176
     1
290
     0
176
     1
 90
       50
176
     1
 40
0.0
176
     1
 40
1.0
176
     1
 90
        0
176
     1
 62
    18
420
        0
176
     1
 90
       50
176
     1
 90
        3
176
     1
 62
     5
420
      255
176
     1
290
     0
176
     1
 90
       50
176
     1
 90
       50
176
     1
 90
       50
176
     1
290
     0
176
     1
 90
       50
176
     1
 62
   256
176
     0
 40
1.0
176
     0
 90
        2
176
     1
  1
strokes_ogs.tif
176
     1
290
     0
176
     1
 40
1.0
176
     1
 40
1.0
176
     1
  0
VISUALSTYLE
  5
3B
102
{ACAD_REACTORS
330
29
102
}
330
29
100
AcDbVisualStyle
  2
Sketchy
 70
    24
177
     3
291
     0
 70
    58
 90
        1
176
     1
 90
        2
176
     1
 90
        2
176
     1
 90
        0
176
     1
 40
0.6
176
     1
 40
30.0
176
     1
 62
     7
420
 16777215
176
     1
 90
        2
176
     1
 90
        2
176
     1
 62
     7
176
     1
 62
     7
176
     1
 90
        1
176
     1
 90
        1
176
     1
 40
40.0
176
     1
 90
       11
176
     1
 62
     7
176
     1
 40
1.0
176
     1
 90
        1
176
     1
 90
        6
176
     1
 90
        2
176
     1
 62
     7
176
     1
 90
        6
176
     1
 90
        0
176
     1
 90
        0
176
     1
290
     0
176
     1
 90
        1
176
     1
 40
0.0
176
     1
 90
        0
176
     1
290
     0
176
     1
290
     1
176
     1
290
     1
176
     1
290
     0
176
     1
290
     0
176
     1
290
     0
176
     1
290
     0
176
     1
290
     0
176
     1
290
     0
176
     1
 90
       50
176
     1
 40
0.0
176
     1
 40
1.0
176
     1
 90
        0
176
     1
 62
    18
420
        0
176
     1
 90
       50
176
     1
 90
        3
176
     1
 62
     5
420
      255
176
     1
290
     0
176
     1
 90
       50
176
     1
 90
       50
176
     1
 90
       50
176
     1
290
     0
176
     1
 90
       50
176
     1
 62
   256
176
     0
 40
1.0
176
     0
 90
        2
176
     1
  1
strokes_ogs.tif
176
     1
290
     0
176
     1
 40
1.0
176
     1
 40
1.0
176
     1
  0
VISUALSTYLE
  5
36
102
{ACAD_REACTORS
330
29
102
}
330
29
100
AcDbVisualStyle
  2
Thicken
 70
    13
177
     3
291
     1
 70
    58
 90
        2
176
     1
 90
        2
176
     1
 90
        0
176
     1
 90
        0
176
     1
 40
0.6
176
     1
 40
30.0
176
     1
 62
     7
420
 16777215
176
     1
 90
        1
176
     1
 90
        4
176
     1
 62
     7
176
     1
 62
   257
176
     1
 90
        1
176
     1
 90
        1
176
     1
 40
1.0
176
     1
 90
       12
176
     1
 62
     7
176
     1
 40
1.0
176
     1
 90
        1
176
     1
 90
        6
176
     1
 90
        2
176
     1
 62
     7
176
     1
 90
        5
176
     1
 90
        0
176
     1
 90
        0
176
     1
290
     0
176
     1
 90
        1
176
     1
 40
0.0
176
     1
 90
        0
176
     1
290
     0
176
     1
290
     1
176
     1
290
     1
176
     1
290
     0
176
     1
290
     0
176
     1
290
     0
176
     1
290
     0
176
     1
290
     0
176
     1
290
     0
176
     1
 90
       50
176
     1
 40
0.0
176
     1
 40
1.0
176
     1
 90
        0
176
     1
 62
    18
420
        0
176
     1
 90
       50
176
     1
 90
        3
176
     1
 62
     5
420
      255
176
     1
290
     0
176
     1
 90
       50
176
     1
 90
       50
176
     1
 90
       50
176
     1
290
     0
176
     1
 90
       50
176
     1
 62
   256
176
     0
 40
1.0
176
     0
 90
        2
176
     1
  1
strokes_ogs.tif
176
     1
290
     0
176
     1
 40
1.0
176
     1
 40
1.0
176
     1
  0
VISUALSTYLE
  5
30
102
{ACAD_REACTORS
330
29
102
}
330
29
100
AcDbVisualStyle
  2
Wireframe
 70
     5
177
     3
291
     0
 70
    58
 90
        0
176
     1
 90
        2
176
     1
 90
        0
176
     1
 90
        0
176
     1
 40
0.6
176
     1
 40
30.0
176
     1
 62
     7
420
 16777215
176
     1
 90
        1
176
     1
 90
        4
176
     1
 62
     7
176
     1
 62
   257
176
     1
 90
        1
176
     1
 90
        1
176
     1
 40
1.0
176
     1
 90
        0
176
     1
 62
   257
176
     1
 40
1.0
176
     1
 90
        1
176
     1
 90
        6
176
     1
 90
        2
176
     1
 62
     7
176
     1
 90
        3
176
     1
 90
        0
176
     1
 90
        0
176
     1
290
     0
176
     1
 90
        1
176
     1
 40
0.0
176
     1
 90
        0
176
     1
290
     0
176
     1
290
     1
176
     1
290
     1
176
     1
290
     0
176
     1
290
     0
176
     1
290
     0
176
     1
290
     0
176
     1
290
     0
176
     1
290
     0
176
     1
 90
       50
176
     1
 40
0.0
176
     1
 40
1.0
176
     1
 90
        0
176
     1
 62
    18
420
        0
176
     1
 90
       50
176
     1
 90
        3
176
     1
 62
     5
420
      255
176
     1
290
     0
176
     1
 90
       50
176
     1
 90
       50
176
     1
 90
       50
176
     1
290
     0
176
     1
 90
       50
176
     1
 62
   256
176
     0
 40
1.0
176
     0
 90
        2
176
     1
  1
strokes_ogs.tif
176
     1
290
     0
176
     1
 40
1.0
176
     1
 40
1.0
176
     1
  0
VISUALSTYLE
  5
3C
102
{ACAD_REACTORS
330
29
102
}
330
29
100
AcDbVisualStyle
  2
X-Ray
 70
    25
177
     3
291
     0
 70
    58
 90
        2
176
     1
 90
        2
176
     1
 90
        1
176
     1
 90
        1
176
     1
 40
0.5
176
     1
 40
30.0
176
     1
 62
     7
420
 16777215
176
     1
 90
        1
176
     1
 90
        0
176
     1
 62
     7
176
     1
 62
   257
176
     1
 90
        1
176
     1
 90
        1
176
     1
 40
1.0
176
     1
 90
        8
176
     1
 62
     7
176
     1
 40
1.0
176
     1
 90
        1
176
     1
 90
        6
176
     1
 90
        2
176
     1
 62
     7
176
     1
 90
        3
176
     1
 90
        0
176
     1
 90
        0
176
     1
290
     0
176
     1
 90
       13
176
     1
 40
0.0
176
     1
 90
        0
176
     1
290
     0
176
     1
290
     1
176
     1
290
     1
176
     1
290
     0
176
     1
290
     0
176
     1
290
     0
176
     1
290
     0
176
     1
290
     0
176
     1
290
     0
176
     1
 90
       50
176
     1
 40
0.0
176
     1
 40
1.0
176
     1
 90
        0
176
     1
 62
    18
420
        0
176
     1
 90
       50
176
     1
 90
        3
176
     1
 62
     5
420
      255
176
     1
290
     0
176
     1
 90
       50
176
     1
 90
       50
176
     1
 90
       50
176
     1
290
     0
176
     1
 90
       50
176
     1
 62
   256
176
     0
 40
1.0
176
     0
 90
        2
176
     1
  1
strokes_ogs.tif
176
     1
290
     0
176
     1
 40
1.0
176
     1
 40
1.0
176
     1
  0
DICTIONARYVAR
  5
A1
102
{ACAD_REACTORS
330
9C
102
}
330
9C
100
DictionaryVariables
280
     0
  1
1:1
  0
DICTIONARYVAR
  5
9E
102
{ACAD_REACTORS
330
9C
102
}
330
9C
100
DictionaryVariables
280
     0
  1
STANDARD
  0
DICTIONARYVAR
  5
9D
102
{ACAD_REACTORS
330
9C
102
}
330
9C
100
DictionaryVariables
280
     0
  1
STANDARD
  0
DICTIONARYVAR
  5
9F
102
{ACAD_REACTORS
330
9C
102
}
330
9C
100
DictionaryVariables
280
     0
  1
Imperial24
  0
DICTIONARYVAR
  5
A0
102
{ACAD_REACTORS
330
9C
102
}
330
9C
100
DictionaryVariables
280
     0
  1
Imperial24
  0
DICTIONARY
  5
1A
330
19
100
AcDbDictionary
280
     1
281
     1
  3
BUMPTILE
360
1C
  3
DIFFUSETILE
360
1B
  3
OPACITYTILE
360
1F
  3
REFLECTIONTILE
360
1E
  3
REFRACTIONTILE
360
20
  3
SPECULARTILE
360
1D
  0
DICTIONARY
  5
12
330
11
100
AcDbDictionary
280
     1
281
     1
  3
BUMPTILE
360
14
  3
DIFFUSETILE
360
13
  3
OPACITYTILE
360
17
  3
REFLECTIONTILE
360
16
  3
REFRACTIONTILE
360
18
  3
SPECULARTILE
360
15
  0
DICTIONARY
  5
22
330
21
100
AcDbDictionary
280
     1
281
     1
  3
BUMPTILE
360
24
  3
DIFFUSETILE
360
23
  3
OPACITYTILE
360
27
  3
REFLECTIONTILE
360
26
  3
REFRACTIONTILE
360
28
  3
SPECULARTILE
360
25
  0
DICTIONARY
  5
A2
330
65
100
AcDbDictionary
280
     1
281
     1
  3
ACAD_ROUNDTRIP_2008_TABLESTYLE_CELLSTYLEMAP
360
A3
  0
XRECORD
  5
1C
102
{ACAD_REACTORS
330
1A
102
}
330
1A
100
AcDbXrecord
280
     1
270
     1
271
     1
  0
XRECORD
  5
1B
102
{ACAD_REACTORS
330
1A
102
}
330
1A
100
AcDbXrecord
280
     1
270
     1
271
     1
  0
XRECORD
  5
1F
102
{ACAD_REACTORS
330
1A
102
}
330
1A
100
AcDbXrecord
280
     1
270
     1
271
     1
  0
XRECORD
  5
1E
102
{ACAD_REACTORS
330
1A
102
}
330
1A
100
AcDbXrecord
280
     1
270
     1
271
     1
  0
XRECORD
  5
20
102
{ACAD_REACTORS
330
1A
102
}
330
1A
100
AcDbXrecord
280
     1
270
     1
271
     1
  0
XRECORD
  5
1D
102
{ACAD_REACTORS
330
1A
102
}
330
1A
100
AcDbXrecord
280
     1
270
     1
271
     1
  0
XRECORD
  5
14
102
{ACAD_REACTORS
330
12
102
}
330
12
100
AcDbXrecord
280
     1
270
     1
271
     1
  0
XRECORD
  5
13
102
{ACAD_REACTORS
330
12
102
}
330
12
100
AcDbXrecord
280
     1
270
     1
271
     1
  0
XRECORD
  5
17
102
{ACAD_REACTORS
330
12
102
}
330
12
100
AcDbXrecord
280
     1
270
     1
271
     1
  0
XRECORD
  5
16
102
{ACAD_REACTORS
330
12
102
}
330
12
100
AcDbXrecord
280
     1
270
     1
271
     1
  0
XRECORD
  5
18
102
{ACAD_REACTORS
330
12
102
}
330
12
100
AcDbXrecord
280
     1
270
     1
271
     1
  0
XRECORD
  5
15
102
{ACAD_REACTORS
330
12
102
}
330
12
100
AcDbXrecord
280
     1
270
     1
271
     1
  0
XRECORD
  5
24
102
{ACAD_REACTORS
330
22
102
}
330
22
100
AcDbXrecord
280
     1
270
     1
271
     1
  0
XRECORD
  5
23
102
{ACAD_REACTORS
330
22
102
}
330
22
100
AcDbXrecord
280
     1
270
     1
271
     1
  0
XRECORD
  5
27
102
{ACAD_REACTORS
330
22
102
}
330
22
100
AcDbXrecord
280
     1
270
     1
271
     1
  0
XRECORD
  5
26
102
{ACAD_REACTORS
330
22
102
}
330
22
100
AcDbXrecord
280
     1
270
     1
271
     1
  0
XRECORD
  5
28
102
{ACAD_REACTORS
330
22
102
}
330
22
100
AcDbXrecord
280
     1
270
     1
271
     1
  0
XRECORD
  5
25
102
{ACAD_REACTORS
330
22
102
}
330
22
100
AcDbXrecord
280
     1
270
     1
271
     1
  0
CELLSTYLEMAP
  5
A3
102
{ACAD_REACTORS
330
A2
102
}
330
A2
100
AcDbCellStyleMap
 90
        3
300
CELLSTYLE
  1
TABLEFORMAT_BEGIN
 90
        5
170
     1
 91
        0
 92
    32768
 62
   257
 93
        1
300
CONTENTFORMAT
  1
CONTENTFORMAT_BEGIN
 90
        0
 91
        0
 92
      512
 93
        0
300

 40
0.0
140
1.0
 94
        5
 62
     0
340
55
144
0.25
309
CONTENTFORMAT_END
171
     0
 94
        0
309
TABLEFORMAT_END
  1
CELLSTYLE_BEGIN
 90
        1
 91
        1
300
_TITLE
309
CELLSTYLE_END
300
CELLSTYLE
  1
TABLEFORMAT_BEGIN
 90
        5
170
     1
 91
        0
 92
        0
 62
   257
 93
        1
300
CONTENTFORMAT
  1
CONTENTFORMAT_BEGIN
 90
        0
 91
        0
 92
      512
 93
        0
300

 40
0.0
140
1.0
 94
        5
 62
     0
340
55
144
0.18
309
CONTENTFORMAT_END
171
     0
 94
        0
309
TABLEFORMAT_END
  1
CELLSTYLE_BEGIN
 90
        2
 91
        1
300
_HEADER
309
CELLSTYLE_END
300
CELLSTYLE
  1
TABLEFORMAT_BEGIN
 90
        5
170
     1
 91
        0
 92
        0
 62
   257
 93
        1
300
CONTENTFORMAT
  1
CONTENTFORMAT_BEGIN
 90
        0
 91
        0
 92
      512
 93
        0
300

 40
0.0
140
1.0
 94
        2
 62
     0
340
55
144
0.18
309
CONTENTFORMAT_END
171
     0
 94
        0
309
TABLEFORMAT_END
  1
CELLSTYLE_BEGIN
 90
        3
 91
        2
300
_DATA
309
CELLSTYLE_END
  0
ENDSEC
  0
EOF
