<?xml version="1.0" encoding="utf-8"?>
<!-- Generator: Adobe Illustrator 25.2.3, SVG Export Plug-In . SVG Version: 6.00 Build 0)  -->
<svg version="1.1" xmlns="http://www.w3.org/2000/svg" xmlns:xlink="http://www.w3.org/1999/xlink" x="0px" y="0px"
	 viewBox="0 0 637.8 312.19" style="enable-background:new 0 0 637.8 312.19;" xml:space="preserve">
<style type="text/css">
	.st0{fill:none;stroke:#000000;stroke-width:0.25;stroke-miterlimit:10;}
	.st1{fill:#FF0000;}
	.st2{font-family:'Arial-BoldMT';}
	.st3{font-size:18px;}
</style>
<g id="cut">
	<path class="st0" d="M622.53,182.27L594.93,25.7c-0.72-4.06-4.25-7.03-8.37-7.03H417.1l-26.47-4.64c-0.77-0.13-1.5,0.38-1.64,1.15
		l-1.84,10.35l-6.46,2.35l-7.28-6.13c-0.83-0.7-2.12-0.24-2.31,0.84l-6.92,38.8c-0.27,1.54-1.74,2.57-3.28,2.29l-44.95-7.94
		c-0.77-0.14-1.51,0.38-1.64,1.15l-1.7,9.59l-6.46,2.35l-5.27-4.42l1.7-9.59c0.14-0.77-0.38-1.51-1.15-1.64l-17.38-3.07
		c-0.77-0.14-1.51,0.38-1.64,1.15l-1.69,9.56l-6.46,2.35l-5.27-4.42l1.7-9.56c0.14-0.77-0.38-1.51-1.15-1.64l-2.49-0.44
		c-0.72-0.13-1.37-0.53-1.8-1.12l-1.6-2.2c-0.43-0.59-1.07-0.99-1.79-1.12l-35-6.24c-0.93-0.17-1.72-0.79-2.1-1.66l-2.35-5.41
		c-0.38-0.87-1.17-1.5-2.11-1.66l-50.9-9.02l-118.06,0c-4.13,0-7.66,2.96-8.37,7.02l-27.7,156.55c-0.82,4.63,2.27,9.04,6.9,9.86
		l53.96,9.38c0.57,0.1,1.14,0.14,1.71,0.12l28.71-0.87c1.13-0.03,2.25,0.16,3.31,0.56l52.57,20.2c2.07,0.79,3.74,2.36,4.67,4.37
		l24.76,53.64c0.33,0.84,1.04,1.48,1.91,1.71l63.42,16.94h123.49l63.47-17.01c0.87-0.23,1.58-0.87,1.91-1.71l24.76-53.58
		c0.93-2.01,2.6-3.58,4.67-4.37l52.55-20.2c1.05-0.41,2.18-0.6,3.31-0.56l28.7,0.87c0.57,0.02,1.15-0.02,1.71-0.12l53.89-9.37
		C620.26,191.31,623.35,186.89,622.53,182.27z M598.21,127.18l-38.8,6.84l-7.33-41.59l38.8-6.84L598.21,127.18z M526.6,32.01
		l6.09,34.56l14.38-2.53l-4.37-24.79l38.8-6.84L588.83,74l-38.73,6.83h0l-0.08,0.01l0-0.01l-7.37,0.13
		c-4.3,0.08-8.02-2.98-8.76-7.22l-0.02-0.13l-38.74,6.83l-7.33-41.59L526.6,32.01z M488.41,126.4l-38.8,6.84l-7.33-41.59l38.8-6.84
		L488.41,126.4z M446.33,198.72l-38.8,6.84l-7.33-41.59l38.8-6.84L446.33,198.72z M471.7,31.62l7.33,41.59l-38.8,6.84l-7.33-41.59
		L471.7,31.62z M436.95,145.54l-38.8,6.84l-7.33-41.59l38.8-6.84L436.95,145.54z M392.01,28.4l1.23-6.98
		c0.2-1.16,1.31-1.93,2.46-1.72l19.85,3.49c1.16,0.2,1.93,1.31,1.72,2.46l-1.23,6.98c-0.2,1.16-1.31,1.93-2.46,1.72l-19.85-3.49
		C392.58,30.66,391.81,29.55,392.01,28.4z M368.78,69.91l4.37,24.79l14.38-2.54l-6.09-34.56l38.8-6.84l7.33,41.59l-38.74,6.83
		l0.02,0.13c0.75,4.23-1.7,8.38-5.77,9.78l-6.98,2.4l0,0.02l-38.8,6.84l-7.33-41.59L368.78,69.91z M385.49,164.69l-38.8,6.84
		l-7.33-41.59l38.8-6.84L385.49,164.69z M330.57,178.04v4.92c0,2.35-1.9,4.25-4.25,4.25h-14.74c-2.35,0-4.25-1.9-4.25-4.25v-4.95
		c0.5-0.7,0.8-1.54,0.8-2.46s-0.3-1.77-0.8-2.46v-4.86c0-2.35,1.9-4.25,4.25-4.25h14.74c2.35,0,4.25,1.9,4.25,4.25v4.83
		c-0.51,0.7-0.82,1.56-0.82,2.5C329.75,176.48,330.06,177.34,330.57,178.04z M326.32,219.79c0,4.07-3.3,7.37-7.37,7.37
		s-7.37-3.3-7.37-7.37c0-4.07,3.3-7.37,7.37-7.37S326.32,215.72,326.32,219.79z M217.63,50.77l38.8,6.84l-6.08,34.51l14.38,2.54
		l4.36-24.74l38.8,6.84l-7.34,41.6l-38.8-6.84l0-0.01l-6.97-2.45c-4.07-1.4-6.51-5.54-5.77-9.78l0.01-0.08l-38.74-6.83L217.63,50.77
		z M298.51,129.94l-7.33,41.59l-38.8-6.84l7.33-41.59L298.51,129.94z M247.06,110.79l-7.33,41.59l-38.8-6.84l7.33-41.59
		L247.06,110.79z M237.68,163.97l-7.33,41.59l-38.8-6.84l7.33-41.59L237.68,163.97z M166.17,31.62l38.8,6.84l-7.33,41.59l-38.8-6.84
		L166.17,31.62z M195.59,91.64l-7.33,41.59l-38.8-6.84l7.33-41.59L195.59,91.64z M56.37,32.41l38.8,6.84L90.8,64.07l14.38,2.54
		l6.1-34.59l38.8,6.84l-7.33,41.59l-38.71-6.83L104,73.78c-0.75,4.23-4.46,7.3-8.76,7.22l-7.45-0.14l0.01-0.03L49.04,74L56.37,32.41
		z M46.99,85.59l38.8,6.84l-7.33,41.59l-38.8-6.84L46.99,85.59z M123.99,186.81l-38.7-6.82l-0.02,0.12
		c-0.75,4.23-4.46,7.3-8.76,7.22l-7.42-0.14l0,0.02l-38.8-6.84l7.33-41.59l38.8,6.84l-4.37,24.78l14.38,2.53l6.09-34.55l38.8,6.84
		L123.99,186.81z M94.56,126.79l7.33-41.59l38.8,6.84l-7.33,41.59L94.56,126.79z M140.1,179.57l7.33-41.59l38.8,6.84l-7.33,41.59
		L140.1,179.57z M188.86,218.68c-4.07,0-7.37-3.3-7.37-7.37s3.3-7.37,7.37-7.37c4.07,0,7.37,3.3,7.37,7.37
		S192.93,218.68,188.86,218.68z M244.14,281.31l-38.06-10.2l10.93-40.8l38.06,10.2L244.14,281.31z M243,217.87l7.33-41.59l38.8,6.84
		l-7.33,41.59L243,217.87z M356.45,285.56c-0.72,1.33-2.11,2.25-3.73,2.25c-1.62,0-3.01-0.92-3.73-2.25l-6.07,0v-1.37l-48.01,0v1.37
		l-6.14,0c-0.72,1.33-2.11,2.25-3.73,2.25s-3.01-0.92-3.73-2.25l-9.09,0l0.01-51.73l93.4-0.01l0,51.74L356.45,285.56z
		 M356.07,224.71l-7.33-41.59l38.8-6.84l7.33,41.59L356.07,224.71z M393.7,281.31l-10.93-40.8l38.06-10.2l10.93,40.8L393.7,281.31z
		 M449.03,218.68c-4.07,0-7.37-3.3-7.37-7.37s3.3-7.37,7.37-7.37s7.37,3.3,7.37,7.37S453.1,218.68,449.03,218.68z M458.98,186.42
		l-7.33-41.59l38.8-6.84l7.33,41.59L458.98,186.42z M497.17,92.03l38.8-6.84l7.33,41.59l-38.8,6.84L497.17,92.03z M568.78,187.16
		l-7.38,0.13c-4.3,0.08-8.02-2.98-8.76-7.22l-0.02-0.09l-38.73,6.83l-7.33-41.59l38.8-6.84l6.09,34.53l14.38-2.53l-4.36-24.76
		l38.8-6.84l7.33,41.59L568.78,187.16z"/>
</g>
<g id="graving">
	<path class="st1" d="M318.95,105.66L318.95,105.66c-7.47,0-13.86,5.35-15.17,12.7l-13.25,74.25c-1.49,8.36,3.37,16.55,11.43,19.23
		l0,0h34.04h0c8.03-2.67,12.88-10.84,11.39-19.17l-13.27-74.32C332.8,111.01,326.41,105.66,318.95,105.66z M331.37,172.86
		c-0.54,0.75-0.88,1.66-0.88,2.65c0,1,0.33,1.91,0.88,2.65v5.24c0,2.5-2.03,4.52-4.52,4.52h-15.68c-2.5,0-4.52-2.03-4.52-4.52
		l0-5.27c0.53-0.74,0.85-1.64,0.85-2.62c0-0.98-0.32-1.88-0.85-2.62v-5.17c0-2.5,2.03-4.52,4.52-4.52l15.68,0
		c2.5,0,4.52,2.03,4.52,4.52V172.86z"/>
</g>
<g id="note">
	<g>
		<path class="st1" d="M483.75,302.43v-11.45h4.87c1.22,0,2.11,0.1,2.67,0.31c0.55,0.21,1,0.57,1.33,1.1c0.33,0.53,0.5,1.13,0.5,1.8
			c0,0.86-0.25,1.57-0.76,2.13c-0.51,0.56-1.26,0.91-2.27,1.06c0.5,0.29,0.91,0.61,1.24,0.96c0.33,0.35,0.76,0.97,1.32,1.86
			l1.4,2.23h-2.77l-1.67-2.49c-0.59-0.89-1-1.45-1.22-1.68c-0.22-0.23-0.45-0.39-0.7-0.48c-0.25-0.09-0.63-0.13-1.16-0.13h-0.47
			v4.78H483.75z M486.06,295.82h1.71c1.11,0,1.8-0.05,2.08-0.14c0.28-0.09,0.49-0.25,0.65-0.48c0.16-0.23,0.23-0.52,0.23-0.86
			c0-0.39-0.1-0.7-0.31-0.93c-0.21-0.24-0.5-0.39-0.87-0.45c-0.19-0.03-0.75-0.04-1.69-0.04h-1.8V295.82z"/>
		<path class="st1" d="M500.08,299.79l2.19,0.37c-0.28,0.8-0.73,1.41-1.33,1.83c-0.61,0.42-1.37,0.63-2.28,0.63
			c-1.44,0-2.51-0.47-3.2-1.41c-0.55-0.75-0.82-1.71-0.82-2.86c0-1.38,0.36-2.45,1.08-3.23c0.72-0.78,1.63-1.17,2.73-1.17
			c1.23,0,2.21,0.41,2.92,1.22c0.71,0.82,1.05,2.06,1.02,3.75h-5.5c0.02,0.65,0.19,1.16,0.53,1.52c0.34,0.36,0.76,0.54,1.27,0.54
			c0.34,0,0.63-0.09,0.87-0.28S499.96,300.2,500.08,299.79z M500.21,297.57c-0.02-0.64-0.18-1.12-0.49-1.45
			c-0.31-0.33-0.69-0.5-1.14-0.5c-0.48,0-0.88,0.17-1.19,0.52c-0.31,0.35-0.47,0.82-0.46,1.42H500.21z"/>
		<path class="st1" d="M511.79,302.43h-2.04v-1.22c-0.34,0.47-0.74,0.83-1.2,1.06s-0.93,0.35-1.39,0.35c-0.95,0-1.77-0.38-2.45-1.15
			c-0.68-0.77-1.02-1.84-1.02-3.21c0-1.41,0.33-2.48,0.99-3.21c0.66-0.73,1.5-1.1,2.51-1.1c0.93,0,1.73,0.39,2.41,1.16v-4.12h2.2
			V302.43z M505.93,298.1c0,0.89,0.12,1.53,0.37,1.92c0.35,0.57,0.85,0.86,1.48,0.86c0.5,0,0.93-0.21,1.29-0.64
			c0.35-0.43,0.53-1.07,0.53-1.93c0-0.95-0.17-1.64-0.52-2.06c-0.34-0.42-0.78-0.63-1.32-0.63c-0.52,0-0.96,0.21-1.31,0.62
			S505.93,297.28,505.93,298.1z"/>
		<path class="st1" d="M520.04,296.66l-1.99-0.36c0.22-0.8,0.61-1.4,1.16-1.78c0.55-0.39,1.36-0.58,2.44-0.58
			c0.98,0,1.71,0.12,2.19,0.35c0.48,0.23,0.82,0.53,1.01,0.88c0.2,0.36,0.29,1.01,0.29,1.96l-0.02,2.56c0,0.73,0.04,1.27,0.11,1.61
			c0.07,0.35,0.2,0.72,0.39,1.11h-2.17c-0.06-0.15-0.13-0.36-0.21-0.65c-0.04-0.13-0.06-0.22-0.08-0.26
			c-0.38,0.36-0.78,0.64-1.2,0.82c-0.43,0.18-0.88,0.27-1.37,0.27c-0.85,0-1.53-0.23-2.02-0.7c-0.49-0.46-0.74-1.05-0.74-1.76
			c0-0.47,0.11-0.89,0.34-1.25c0.22-0.37,0.54-0.65,0.94-0.84c0.4-0.2,0.99-0.37,1.75-0.51c1.03-0.19,1.74-0.37,2.13-0.54v-0.22
			c0-0.42-0.1-0.72-0.31-0.9c-0.21-0.18-0.6-0.27-1.18-0.27c-0.39,0-0.7,0.08-0.91,0.23C520.35,296.01,520.17,296.28,520.04,296.66z
			 M522.97,298.44c-0.28,0.09-0.73,0.21-1.34,0.34c-0.61,0.13-1.01,0.26-1.2,0.38c-0.29,0.2-0.43,0.46-0.43,0.77
			c0,0.31,0.11,0.57,0.34,0.8c0.23,0.22,0.52,0.34,0.88,0.34c0.4,0,0.77-0.13,1.13-0.39c0.27-0.2,0.44-0.44,0.52-0.73
			c0.06-0.19,0.09-0.54,0.09-1.07V298.44z"/>
		<path class="st1" d="M529.4,302.43h-2.2v-8.3h2.04v1.18c0.35-0.56,0.66-0.92,0.94-1.1c0.28-0.18,0.59-0.27,0.95-0.27
			c0.5,0,0.98,0.14,1.45,0.41l-0.68,1.91c-0.37-0.24-0.71-0.36-1.03-0.36c-0.31,0-0.57,0.08-0.78,0.25
			c-0.21,0.17-0.38,0.48-0.5,0.92c-0.12,0.44-0.18,1.37-0.18,2.78V302.43z"/>
		<path class="st1" d="M538.33,299.79l2.19,0.37c-0.28,0.8-0.73,1.41-1.33,1.83c-0.61,0.42-1.37,0.63-2.28,0.63
			c-1.44,0-2.51-0.47-3.2-1.41c-0.55-0.75-0.82-1.71-0.82-2.86c0-1.38,0.36-2.45,1.08-3.23c0.72-0.78,1.63-1.17,2.73-1.17
			c1.23,0,2.21,0.41,2.92,1.22c0.71,0.82,1.05,2.06,1.02,3.75h-5.5c0.02,0.65,0.19,1.16,0.53,1.52c0.34,0.36,0.76,0.54,1.27,0.54
			c0.34,0,0.63-0.09,0.87-0.28S538.21,300.2,538.33,299.79z M538.45,297.57c-0.02-0.64-0.18-1.12-0.49-1.45
			c-0.31-0.33-0.69-0.5-1.14-0.5c-0.48,0-0.88,0.17-1.19,0.52c-0.31,0.35-0.47,0.82-0.46,1.42H538.45z"/>
		<path class="st1" d="M544.06,296.66l-1.99-0.36c0.22-0.8,0.61-1.4,1.16-1.78c0.55-0.39,1.36-0.58,2.44-0.58
			c0.98,0,1.71,0.12,2.19,0.35c0.48,0.23,0.82,0.53,1.01,0.88c0.2,0.36,0.29,1.01,0.29,1.96l-0.02,2.56c0,0.73,0.04,1.27,0.11,1.61
			c0.07,0.35,0.2,0.72,0.39,1.11h-2.17c-0.06-0.15-0.13-0.36-0.21-0.65c-0.04-0.13-0.06-0.22-0.08-0.26
			c-0.38,0.36-0.78,0.64-1.2,0.82c-0.43,0.18-0.88,0.27-1.37,0.27c-0.85,0-1.53-0.23-2.02-0.7c-0.49-0.46-0.74-1.05-0.74-1.76
			c0-0.47,0.11-0.89,0.34-1.25c0.22-0.37,0.54-0.65,0.94-0.84c0.4-0.2,0.99-0.37,1.75-0.51c1.03-0.19,1.74-0.37,2.13-0.54v-0.22
			c0-0.42-0.1-0.72-0.31-0.9c-0.21-0.18-0.6-0.27-1.18-0.27c-0.39,0-0.7,0.08-0.91,0.23C544.37,296.01,544.19,296.28,544.06,296.66z
			 M547,298.44c-0.28,0.09-0.73,0.21-1.34,0.34c-0.61,0.13-1.01,0.26-1.2,0.38c-0.29,0.2-0.43,0.46-0.43,0.77
			c0,0.31,0.11,0.57,0.34,0.8c0.23,0.22,0.52,0.34,0.88,0.34c0.4,0,0.77-0.13,1.13-0.39c0.27-0.2,0.44-0.44,0.52-0.73
			c0.06-0.19,0.09-0.54,0.09-1.07V298.44z"/>
		<path class="st1" d="M555.76,293.01v-2.03h2.2v2.03H555.76z M555.76,302.43v-8.3h2.2v8.3H555.76z"/>
		<path class="st1" d="M559.43,300.06l2.2-0.34c0.09,0.43,0.28,0.75,0.57,0.97c0.29,0.22,0.69,0.33,1.2,0.33
			c0.57,0,0.99-0.1,1.28-0.31c0.19-0.15,0.29-0.34,0.29-0.59c0-0.17-0.05-0.3-0.16-0.41c-0.11-0.1-0.35-0.2-0.73-0.29
			c-1.77-0.39-2.89-0.75-3.37-1.07c-0.66-0.45-0.98-1.07-0.98-1.87c0-0.72,0.28-1.32,0.85-1.81c0.57-0.49,1.45-0.73,2.64-0.73
			c1.14,0,1.98,0.19,2.53,0.55c0.55,0.37,0.93,0.92,1.14,1.64l-2.07,0.38c-0.09-0.32-0.26-0.57-0.5-0.74
			c-0.25-0.17-0.6-0.26-1.06-0.26c-0.58,0-0.99,0.08-1.24,0.24c-0.17,0.11-0.25,0.26-0.25,0.45c0,0.16,0.07,0.29,0.22,0.4
			c0.2,0.15,0.88,0.35,2.05,0.62c1.17,0.27,1.99,0.59,2.45,0.98c0.46,0.39,0.69,0.94,0.69,1.63c0,0.76-0.32,1.41-0.95,1.96
			c-0.64,0.55-1.58,0.82-2.82,0.82c-1.13,0-2.02-0.23-2.68-0.69C560.07,301.47,559.64,300.85,559.43,300.06z"/>
		<path class="st1" d="M578.9,298.22v-1.93h4.98v4.56c-0.48,0.47-1.19,0.88-2.11,1.24c-0.92,0.36-1.85,0.54-2.79,0.54
			c-1.2,0-2.24-0.25-3.13-0.75c-0.89-0.5-1.56-1.22-2.01-2.16c-0.45-0.93-0.67-1.95-0.67-3.05c0-1.19,0.25-2.25,0.75-3.18
			c0.5-0.93,1.23-1.64,2.2-2.13c0.73-0.38,1.65-0.57,2.74-0.57c1.42,0,2.53,0.3,3.33,0.89c0.8,0.6,1.31,1.42,1.54,2.47l-2.3,0.43
			c-0.16-0.56-0.46-1.01-0.91-1.33c-0.45-0.33-1-0.49-1.67-0.49c-1.01,0-1.81,0.32-2.41,0.96c-0.6,0.64-0.89,1.59-0.89,2.85
			c0,1.36,0.3,2.38,0.91,3.06c0.6,0.68,1.4,1.02,2.38,1.02c0.48,0,0.97-0.09,1.46-0.29c0.49-0.19,0.9-0.42,1.25-0.69v-1.45H578.9z"
			/>
		<path class="st1" d="M588.1,302.43h-2.2v-8.3h2.04v1.18c0.35-0.56,0.66-0.92,0.94-1.1c0.28-0.18,0.59-0.27,0.95-0.27
			c0.5,0,0.98,0.14,1.45,0.41l-0.68,1.91c-0.37-0.24-0.71-0.36-1.03-0.36c-0.31,0-0.57,0.08-0.78,0.25
			c-0.21,0.17-0.38,0.48-0.5,0.92c-0.12,0.44-0.18,1.37-0.18,2.78V302.43z"/>
		<path class="st1" d="M593.86,296.66l-1.99-0.36c0.22-0.8,0.61-1.4,1.16-1.78c0.55-0.39,1.36-0.58,2.44-0.58
			c0.98,0,1.71,0.12,2.19,0.35c0.48,0.23,0.82,0.53,1.01,0.88c0.2,0.36,0.29,1.01,0.29,1.96l-0.02,2.56c0,0.73,0.04,1.27,0.11,1.61
			c0.07,0.35,0.2,0.72,0.39,1.11h-2.17c-0.06-0.15-0.13-0.36-0.21-0.65c-0.04-0.13-0.06-0.22-0.08-0.26
			c-0.38,0.36-0.78,0.64-1.2,0.82c-0.43,0.18-0.88,0.27-1.37,0.27c-0.85,0-1.53-0.23-2.02-0.7c-0.49-0.46-0.74-1.05-0.74-1.76
			c0-0.47,0.11-0.89,0.34-1.25c0.22-0.37,0.54-0.65,0.94-0.84c0.4-0.2,0.99-0.37,1.75-0.51c1.03-0.19,1.74-0.37,2.13-0.54v-0.22
			c0-0.42-0.1-0.72-0.31-0.9c-0.21-0.18-0.6-0.27-1.18-0.27c-0.39,0-0.7,0.08-0.91,0.23C594.18,296.01,594,296.28,593.86,296.66z
			 M596.8,298.44c-0.28,0.09-0.73,0.21-1.34,0.34c-0.61,0.13-1.01,0.26-1.2,0.38c-0.29,0.2-0.43,0.46-0.43,0.77
			c0,0.31,0.11,0.57,0.34,0.8c0.23,0.22,0.52,0.34,0.88,0.34c0.4,0,0.77-0.13,1.13-0.39c0.27-0.2,0.44-0.44,0.52-0.73
			c0.06-0.19,0.09-0.54,0.09-1.07V298.44z"/>
		<path class="st1" d="M603.4,302.43l-3.34-8.3h2.3l1.56,4.23l0.45,1.41c0.12-0.36,0.2-0.6,0.23-0.71c0.07-0.23,0.15-0.47,0.23-0.7
			l1.58-4.23h2.26l-3.3,8.3H603.4z"/>
		<path class="st1" d="M610.02,293.01v-2.03h2.2v2.03H610.02z M610.02,302.43v-8.3h2.2v8.3H610.02z"/>
		<path class="st1" d="M622.01,302.43h-2.2v-4.23c0-0.9-0.05-1.48-0.14-1.74c-0.09-0.26-0.25-0.47-0.46-0.61
			c-0.21-0.15-0.46-0.22-0.76-0.22c-0.38,0-0.72,0.1-1.02,0.31c-0.3,0.21-0.51,0.48-0.62,0.83c-0.11,0.34-0.17,0.98-0.17,1.91v3.76
			h-2.2v-8.3h2.04v1.22c0.72-0.94,1.64-1.41,2.73-1.41c0.48,0,0.93,0.09,1.33,0.26c0.4,0.17,0.7,0.4,0.91,0.67
			c0.21,0.27,0.35,0.58,0.43,0.92c0.08,0.34,0.12,0.84,0.12,1.48V302.43z"/>
		<path class="st1" d="M624.04,302.97l2.51,0.3c0.04,0.29,0.14,0.49,0.29,0.6c0.21,0.16,0.54,0.23,0.98,0.23
			c0.57,0,1-0.09,1.29-0.26c0.19-0.11,0.34-0.3,0.44-0.55c0.07-0.18,0.1-0.52,0.1-1.01v-1.21c-0.66,0.9-1.48,1.34-2.48,1.34
			c-1.11,0-2-0.47-2.65-1.41c-0.51-0.74-0.77-1.67-0.77-2.78c0-1.39,0.33-2.45,1-3.19c0.67-0.73,1.5-1.1,2.5-1.1
			c1.03,0,1.87,0.45,2.54,1.35v-1.16h2.05v7.45c0,0.98-0.08,1.71-0.24,2.2c-0.16,0.48-0.39,0.86-0.68,1.14
			c-0.29,0.28-0.68,0.49-1.17,0.65c-0.49,0.16-1.1,0.23-1.85,0.23c-1.41,0-2.4-0.24-2.99-0.72c-0.59-0.48-0.88-1.09-0.88-1.83
			C624.03,303.17,624.03,303.08,624.04,302.97z M626,298.11c0,0.88,0.17,1.52,0.51,1.93c0.34,0.41,0.76,0.61,1.26,0.61
			c0.54,0,0.99-0.21,1.36-0.63c0.37-0.42,0.55-1.04,0.55-1.86c0-0.86-0.18-1.5-0.53-1.91c-0.35-0.42-0.8-0.62-1.34-0.62
			c-0.53,0-0.96,0.2-1.3,0.61C626.17,296.65,626,297.27,626,298.11z"/>
	</g>
	<text transform="matrix(1 0 0 1 6.3643 281.3912)"><tspan x="0" y="0" class="st2 st3">W : 214.325 mm</tspan><tspan x="0" y="24" class="st2 st3">H : 100.244 mm</tspan></text>
</g>
</svg>
