M48
; DRILL file {KiCad (5.1.6-0-10_14)} date Monday, October 19, 2020 at 11:22:23 AM
; FORMAT={-:-/ absolute / inch / decimal}
; #@! TF.CreationDate,2020-10-19T11:22:23+09:00
; #@! TF.GenerationSoftware,Kicad,Pcbnew,(5.1.6-0-10_14)
; #@! TF.FileFunction,NonPlated,1,2,NPTH
FMAT,2
INCH
T1C0.0236
T2C0.0866
%
G90
G05
T1
X5.9937Y-4.8484
X5.9941Y-4.5886
X5.9941Y-4.6211
X5.9941Y-4.6535
X5.9941Y-4.686
X5.9941Y-4.7185
X5.9941Y-4.751
X5.9941Y-4.7835
X5.9941Y-4.8159
X5.9177Y-4.6211
X5.9177Y-4.6535
X5.9177Y-4.686
X5.9177Y-4.7185
X5.9177Y-4.751
X5.9177Y-4.7835
X5.9177Y-4.8159
X5.9177Y-4.8484
X5.9181Y-4.5886
X5.9937Y-3.3488
X5.9941Y-3.089
X5.9941Y-3.1215
X5.9941Y-3.1539
X5.9941Y-3.1864
X5.9941Y-3.2189
X5.9941Y-3.2514
X5.9941Y-3.2839
X5.9941Y-3.3163
X5.9177Y-3.1215
X5.9177Y-3.1539
X5.9177Y-3.1864
X5.9177Y-3.2189
X5.9177Y-3.2514
X5.9177Y-3.2839
X5.9177Y-3.3163
X5.9177Y-3.3488
X5.9181Y-3.089
T2
X2.811Y-5.015
X5.061Y-5.015
X5.0614Y-3.5937
X6.8516Y-3.5937
X6.8516Y-5.015
X8.3417Y-2.126
X9.1016Y-5.0146
T0
M30
