G04 #@! TF.GenerationSoftware,KiCad,Pcbnew,(5.1.6-0-10_14)*
G04 #@! TF.CreationDate,2020-10-19T11:22:08+09:00*
G04 #@! TF.ProjectId,reviung34-split-BOTTOM,72657669-756e-4673-9334-2d73706c6974,2.0*
G04 #@! TF.SameCoordinates,Original*
G04 #@! TF.FileFunction,Copper,L1,Top*
G04 #@! TF.FilePolarity,Positive*
%FSLAX46Y46*%
G04 Gerber Fmt 4.6, Leading zero omitted, Abs format (unit mm)*
G04 Created by KiCad (PCBNEW (5.1.6-0-10_14)) date 2020-10-19 11:22:08*
%MOMM*%
%LPD*%
G01*
G04 APERTURE LIST*
G04 #@! TA.AperFunction,ComponentPad*
%ADD10C,2.800000*%
G04 #@! TD*
G04 #@! TA.AperFunction,Conductor*
%ADD11C,0.254000*%
G04 #@! TD*
G04 APERTURE END LIST*
D10*
X231190000Y-91290000D03*
X71400000Y-91280000D03*
D11*
G36*
X213413106Y-50531597D02*
G01*
X213527512Y-50545151D01*
X213639397Y-50567366D01*
X213748456Y-50597963D01*
X213854292Y-50636658D01*
X213956519Y-50683175D01*
X214054723Y-50737231D01*
X214148444Y-50798515D01*
X214237258Y-50866728D01*
X214320718Y-50941551D01*
X214398406Y-51022676D01*
X214469898Y-51109785D01*
X214534804Y-51202602D01*
X214592742Y-51300870D01*
X214643340Y-51404383D01*
X214690051Y-51522680D01*
X220680495Y-68635465D01*
X220683321Y-68641555D01*
X220685076Y-68648038D01*
X220687731Y-68654900D01*
X220745866Y-68802124D01*
X220753651Y-68817306D01*
X220759388Y-68833372D01*
X220762573Y-68840005D01*
X220831308Y-68980620D01*
X220840188Y-68995026D01*
X220847109Y-69010481D01*
X220850802Y-69016845D01*
X220929576Y-69150450D01*
X220939470Y-69164007D01*
X220947494Y-69178744D01*
X220951668Y-69184803D01*
X221039920Y-69311002D01*
X221050740Y-69323641D01*
X221059798Y-69337602D01*
X221064427Y-69343322D01*
X221161593Y-69461714D01*
X221173265Y-69473395D01*
X221183291Y-69486528D01*
X221188343Y-69491878D01*
X221293864Y-69602066D01*
X221306325Y-69612761D01*
X221317252Y-69625015D01*
X221322697Y-69629965D01*
X221436008Y-69731550D01*
X221449198Y-69741231D01*
X221460981Y-69752580D01*
X221466785Y-69757103D01*
X221587329Y-69849687D01*
X221601194Y-69858326D01*
X221613791Y-69868740D01*
X221619922Y-69872810D01*
X221747133Y-69955993D01*
X221761631Y-69963566D01*
X221774995Y-69973004D01*
X221781417Y-69976597D01*
X221914736Y-70049983D01*
X221929820Y-70056458D01*
X221943919Y-70064885D01*
X221950595Y-70067979D01*
X222089458Y-70131168D01*
X222105085Y-70136508D01*
X222119873Y-70143876D01*
X222126767Y-70146450D01*
X222270614Y-70199043D01*
X222286721Y-70203203D01*
X222302145Y-70209458D01*
X222309215Y-70211495D01*
X222457485Y-70253095D01*
X222474010Y-70256030D01*
X222490003Y-70261113D01*
X222497210Y-70262596D01*
X222649339Y-70292803D01*
X222666181Y-70294464D01*
X222682665Y-70298317D01*
X222689965Y-70299234D01*
X222845393Y-70317651D01*
X222862451Y-70317996D01*
X222879319Y-70320563D01*
X222886670Y-70320904D01*
X223044835Y-70327132D01*
X223051537Y-70326740D01*
X223058212Y-70327489D01*
X223065570Y-70327540D01*
X250653384Y-70327540D01*
X250736332Y-70329637D01*
X250811316Y-70335339D01*
X250885047Y-70344708D01*
X250951030Y-70356492D01*
X251098226Y-70394340D01*
X251233135Y-70443717D01*
X251361616Y-70505610D01*
X251482991Y-70579346D01*
X251596449Y-70664188D01*
X251701207Y-70759399D01*
X251796411Y-70864149D01*
X251881260Y-70977617D01*
X251954994Y-71098988D01*
X252016887Y-71227469D01*
X252066264Y-71362377D01*
X252104113Y-71509579D01*
X252115896Y-71575556D01*
X252125265Y-71649288D01*
X252130967Y-71724272D01*
X252133065Y-71807228D01*
X252133065Y-91061668D01*
X251264281Y-91955741D01*
X251236285Y-91990839D01*
X251207398Y-92025265D01*
X251204234Y-92031021D01*
X251200144Y-92036148D01*
X251179488Y-92076033D01*
X251157849Y-92115396D01*
X251155866Y-92121648D01*
X251152846Y-92127479D01*
X251140333Y-92170612D01*
X251126749Y-92213434D01*
X251126017Y-92219962D01*
X251124190Y-92226259D01*
X251120295Y-92270975D01*
X251115284Y-92315645D01*
X251115233Y-92323003D01*
X251115233Y-109304998D01*
X251119893Y-109352520D01*
X251123886Y-109400105D01*
X251124908Y-109403671D01*
X251125270Y-109407360D01*
X251139071Y-109453073D01*
X251152231Y-109498975D01*
X251153925Y-109502272D01*
X251154997Y-109505822D01*
X251177407Y-109547969D01*
X251199240Y-109590456D01*
X251201545Y-109593365D01*
X251203284Y-109596635D01*
X251233437Y-109633607D01*
X251263122Y-109671064D01*
X251268270Y-109676321D01*
X252133001Y-110547199D01*
X252133087Y-129831234D01*
X252130985Y-129914263D01*
X252125269Y-129989345D01*
X252115874Y-130063184D01*
X252104060Y-130129253D01*
X252066121Y-130276611D01*
X252016625Y-130411657D01*
X251954586Y-130540258D01*
X251880685Y-130661717D01*
X251795638Y-130775259D01*
X251700231Y-130880044D01*
X251595261Y-130975253D01*
X251481566Y-131060075D01*
X251359959Y-131133748D01*
X251231235Y-131195544D01*
X251096100Y-131244778D01*
X250948659Y-131282438D01*
X250882579Y-131294123D01*
X250808737Y-131303374D01*
X250733632Y-131308947D01*
X250650070Y-131310903D01*
X232051272Y-131310925D01*
X232048007Y-131311245D01*
X232044731Y-131310965D01*
X232037374Y-131311108D01*
X231931774Y-131313894D01*
X231921619Y-131315161D01*
X231911394Y-131314827D01*
X231904055Y-131315357D01*
X231799269Y-131323658D01*
X231789250Y-131325448D01*
X231779067Y-131325650D01*
X231771766Y-131326565D01*
X231667987Y-131340294D01*
X231658119Y-131342597D01*
X231648016Y-131343327D01*
X231640773Y-131344622D01*
X231538197Y-131363694D01*
X231528515Y-131366494D01*
X231518502Y-131367745D01*
X231511336Y-131369416D01*
X231410158Y-131393742D01*
X231400661Y-131397034D01*
X231390757Y-131398798D01*
X231383688Y-131400839D01*
X231284103Y-131430335D01*
X231274820Y-131434104D01*
X231265049Y-131436373D01*
X231258094Y-131438778D01*
X231160297Y-131473356D01*
X231151234Y-131477596D01*
X231141614Y-131480362D01*
X231134794Y-131483124D01*
X231038980Y-131522697D01*
X231030151Y-131527400D01*
X231020688Y-131530660D01*
X231014020Y-131533771D01*
X230920384Y-131578254D01*
X230911808Y-131583409D01*
X230902525Y-131587156D01*
X230896027Y-131590609D01*
X230804764Y-131639914D01*
X230796450Y-131645518D01*
X230787355Y-131649750D01*
X230781045Y-131653535D01*
X230692351Y-131707577D01*
X230684323Y-131713617D01*
X230675439Y-131718327D01*
X230669334Y-131722435D01*
X230583403Y-131781126D01*
X230575670Y-131787600D01*
X230567014Y-131792784D01*
X230561132Y-131797204D01*
X230478159Y-131860458D01*
X230470741Y-131867356D01*
X230462335Y-131873008D01*
X230456691Y-131877730D01*
X230376871Y-131945459D01*
X230369786Y-131952774D01*
X230361646Y-131958891D01*
X230356258Y-131963902D01*
X230279788Y-132036023D01*
X230273069Y-132043731D01*
X230265222Y-132050302D01*
X230260106Y-132055590D01*
X230187177Y-132132014D01*
X230185152Y-132134601D01*
X230182689Y-132136776D01*
X230177714Y-132142197D01*
X214924251Y-148995315D01*
X214865525Y-149056983D01*
X214809235Y-149110177D01*
X214750472Y-149160136D01*
X214689395Y-149206789D01*
X214626115Y-149250091D01*
X214560786Y-149289973D01*
X214493569Y-149326358D01*
X214424574Y-149359200D01*
X214353989Y-149388415D01*
X214281929Y-149413949D01*
X214208553Y-149435735D01*
X214134031Y-149453701D01*
X214058450Y-149467799D01*
X213982011Y-149477954D01*
X213904783Y-149484112D01*
X213819961Y-149486390D01*
X154567131Y-149512933D01*
X154484210Y-149510873D01*
X154409174Y-149505199D01*
X154335412Y-149495857D01*
X154269410Y-149484097D01*
X154122155Y-149446293D01*
X153987197Y-149396949D01*
X153858651Y-149335075D01*
X153737234Y-149261361D01*
X153623712Y-149176517D01*
X153518908Y-149081310D01*
X153423656Y-148976550D01*
X153338759Y-148863064D01*
X153264987Y-148741674D01*
X153203055Y-148613156D01*
X153153657Y-148478231D01*
X153115784Y-148330981D01*
X153103993Y-148264977D01*
X153094619Y-148191226D01*
X153088914Y-148116220D01*
X153086816Y-148033247D01*
X153086876Y-127224679D01*
X172453000Y-127224679D01*
X172453000Y-127535321D01*
X172513604Y-127839994D01*
X172632481Y-128126989D01*
X172805064Y-128385279D01*
X173024721Y-128604936D01*
X173283011Y-128777519D01*
X173570006Y-128896396D01*
X173874679Y-128957000D01*
X174185321Y-128957000D01*
X174489994Y-128896396D01*
X174776989Y-128777519D01*
X175035279Y-128604936D01*
X175254936Y-128385279D01*
X175427519Y-128126989D01*
X175546396Y-127839994D01*
X175607000Y-127535321D01*
X175607000Y-127224679D01*
X175605011Y-127214679D01*
X229603000Y-127214679D01*
X229603000Y-127525321D01*
X229663604Y-127829994D01*
X229782481Y-128116989D01*
X229955064Y-128375279D01*
X230174721Y-128594936D01*
X230433011Y-128767519D01*
X230720006Y-128886396D01*
X231024679Y-128947000D01*
X231335321Y-128947000D01*
X231639994Y-128886396D01*
X231926989Y-128767519D01*
X232185279Y-128594936D01*
X232404936Y-128375279D01*
X232577519Y-128116989D01*
X232696396Y-127829994D01*
X232757000Y-127525321D01*
X232757000Y-127214679D01*
X232696396Y-126910006D01*
X232577519Y-126623011D01*
X232404936Y-126364721D01*
X232185279Y-126145064D01*
X231926989Y-125972481D01*
X231639994Y-125853604D01*
X231335321Y-125793000D01*
X231024679Y-125793000D01*
X230720006Y-125853604D01*
X230433011Y-125972481D01*
X230174721Y-126145064D01*
X229955064Y-126364721D01*
X229782481Y-126623011D01*
X229663604Y-126910006D01*
X229603000Y-127214679D01*
X175605011Y-127214679D01*
X175546396Y-126920006D01*
X175427519Y-126633011D01*
X175254936Y-126374721D01*
X175035279Y-126155064D01*
X174776989Y-125982481D01*
X174489994Y-125863604D01*
X174185321Y-125803000D01*
X173874679Y-125803000D01*
X173570006Y-125863604D01*
X173283011Y-125982481D01*
X173024721Y-126155064D01*
X172805064Y-126374721D01*
X172632481Y-126633011D01*
X172513604Y-126920006D01*
X172453000Y-127224679D01*
X153086876Y-127224679D01*
X153086887Y-123660519D01*
X153082048Y-123611170D01*
X153077552Y-123561767D01*
X153077030Y-123559994D01*
X153076850Y-123558157D01*
X153062512Y-123510666D01*
X153048513Y-123463099D01*
X153047659Y-123461465D01*
X153047124Y-123459694D01*
X153023842Y-123415908D01*
X153000862Y-123371951D01*
X152999703Y-123370509D01*
X152998837Y-123368881D01*
X152990675Y-123358874D01*
X153017000Y-123226528D01*
X153017000Y-123073472D01*
X152987141Y-122923357D01*
X152928569Y-122781952D01*
X152903867Y-122744983D01*
X152938569Y-122693048D01*
X152997141Y-122551643D01*
X153027000Y-122401528D01*
X153027000Y-122248472D01*
X152997141Y-122098357D01*
X152938569Y-121956952D01*
X152908867Y-121912500D01*
X152938569Y-121868048D01*
X152997141Y-121726643D01*
X153027000Y-121576528D01*
X153027000Y-121423472D01*
X152997141Y-121273357D01*
X152938569Y-121131952D01*
X152908867Y-121087500D01*
X152938569Y-121043048D01*
X152997141Y-120901643D01*
X153027000Y-120751528D01*
X153027000Y-120598472D01*
X152997141Y-120448357D01*
X152938569Y-120306952D01*
X152908867Y-120262500D01*
X152938569Y-120218048D01*
X152997141Y-120076643D01*
X153027000Y-119926528D01*
X153027000Y-119773472D01*
X152997141Y-119623357D01*
X152938569Y-119481952D01*
X152908867Y-119437500D01*
X152938569Y-119393048D01*
X152997141Y-119251643D01*
X153027000Y-119101528D01*
X153027000Y-118948472D01*
X152997141Y-118798357D01*
X152938569Y-118656952D01*
X152908867Y-118612500D01*
X152938569Y-118568048D01*
X152997141Y-118426643D01*
X153027000Y-118276528D01*
X153027000Y-118123472D01*
X152997141Y-117973357D01*
X152938569Y-117831952D01*
X152908867Y-117787500D01*
X152938569Y-117743048D01*
X152997141Y-117601643D01*
X153027000Y-117451528D01*
X153027000Y-117298472D01*
X152997141Y-117148357D01*
X152938569Y-117006952D01*
X152908867Y-116962500D01*
X152938569Y-116918048D01*
X152997141Y-116776643D01*
X153027000Y-116626528D01*
X153027000Y-116473472D01*
X152999557Y-116335501D01*
X153000191Y-116334728D01*
X153049126Y-116243176D01*
X153079261Y-116143836D01*
X153089436Y-116040526D01*
X153086886Y-116014637D01*
X153086908Y-110579315D01*
X153879979Y-109731593D01*
X153893278Y-109720679D01*
X153915345Y-109693790D01*
X153921355Y-109687366D01*
X153931775Y-109673770D01*
X153959134Y-109640433D01*
X153963304Y-109632632D01*
X153968683Y-109625613D01*
X153987735Y-109586924D01*
X154008069Y-109548881D01*
X154010637Y-109540417D01*
X154014544Y-109532482D01*
X154025682Y-109490820D01*
X154038204Y-109449541D01*
X154039071Y-109440737D01*
X154041355Y-109432194D01*
X154044151Y-109389164D01*
X154045830Y-109372112D01*
X154045830Y-109363313D01*
X154048085Y-109328603D01*
X154045830Y-109311550D01*
X154045830Y-92401780D01*
X154047864Y-92387581D01*
X154045830Y-92350005D01*
X154045830Y-92338355D01*
X154044430Y-92324140D01*
X154042253Y-92283923D01*
X154039352Y-92272582D01*
X154038204Y-92260926D01*
X154026507Y-92222366D01*
X154016527Y-92183352D01*
X154011469Y-92172795D01*
X154008069Y-92161586D01*
X153989074Y-92126048D01*
X153971675Y-92089731D01*
X153964655Y-92080364D01*
X153959134Y-92070034D01*
X153933577Y-92038893D01*
X153925017Y-92027470D01*
X153917153Y-92018880D01*
X153893278Y-91989788D01*
X153882188Y-91980687D01*
X153098536Y-91124679D01*
X172453000Y-91124679D01*
X172453000Y-91435321D01*
X172513604Y-91739994D01*
X172632481Y-92026989D01*
X172805064Y-92285279D01*
X173024721Y-92504936D01*
X173283011Y-92677519D01*
X173570006Y-92796396D01*
X173874679Y-92857000D01*
X174185321Y-92857000D01*
X174489994Y-92796396D01*
X174697493Y-92710447D01*
X229949158Y-92710447D01*
X230093135Y-93015770D01*
X230450892Y-93196597D01*
X230837053Y-93304155D01*
X231236777Y-93334310D01*
X231634704Y-93285904D01*
X232015540Y-93160795D01*
X232286865Y-93015770D01*
X232430842Y-92710447D01*
X231190000Y-91469605D01*
X229949158Y-92710447D01*
X174697493Y-92710447D01*
X174776989Y-92677519D01*
X175035279Y-92504936D01*
X175254936Y-92285279D01*
X175427519Y-92026989D01*
X175546396Y-91739994D01*
X175607000Y-91435321D01*
X175607000Y-91336777D01*
X229145690Y-91336777D01*
X229194096Y-91734704D01*
X229319205Y-92115540D01*
X229464230Y-92386865D01*
X229769553Y-92530842D01*
X231010395Y-91290000D01*
X231369605Y-91290000D01*
X232610447Y-92530842D01*
X232915770Y-92386865D01*
X233096597Y-92029108D01*
X233204155Y-91642947D01*
X233234310Y-91243223D01*
X233185904Y-90845296D01*
X233060795Y-90464460D01*
X232915770Y-90193135D01*
X232610447Y-90049158D01*
X231369605Y-91290000D01*
X231010395Y-91290000D01*
X229769553Y-90049158D01*
X229464230Y-90193135D01*
X229283403Y-90550892D01*
X229175845Y-90937053D01*
X229145690Y-91336777D01*
X175607000Y-91336777D01*
X175607000Y-91124679D01*
X175546396Y-90820006D01*
X175427519Y-90533011D01*
X175254936Y-90274721D01*
X175035279Y-90055064D01*
X174776989Y-89882481D01*
X174745778Y-89869553D01*
X229949158Y-89869553D01*
X231190000Y-91110395D01*
X232430842Y-89869553D01*
X232286865Y-89564230D01*
X231929108Y-89383403D01*
X231542947Y-89275845D01*
X231143223Y-89245690D01*
X230745296Y-89294096D01*
X230364460Y-89419205D01*
X230093135Y-89564230D01*
X229949158Y-89869553D01*
X174745778Y-89869553D01*
X174489994Y-89763604D01*
X174185321Y-89703000D01*
X173874679Y-89703000D01*
X173570006Y-89763604D01*
X173283011Y-89882481D01*
X173024721Y-90055064D01*
X172805064Y-90274721D01*
X172632481Y-90533011D01*
X172513604Y-90820006D01*
X172453000Y-91124679D01*
X153098536Y-91124679D01*
X153086909Y-91111979D01*
X153086909Y-85586398D01*
X153089458Y-85560517D01*
X153079283Y-85457207D01*
X153049148Y-85357867D01*
X153000213Y-85266315D01*
X152992946Y-85257460D01*
X153017000Y-85136528D01*
X153017000Y-84983472D01*
X152987141Y-84833357D01*
X152928569Y-84691952D01*
X152903867Y-84654983D01*
X152938569Y-84603048D01*
X152997141Y-84461643D01*
X153027000Y-84311528D01*
X153027000Y-84158472D01*
X152997141Y-84008357D01*
X152938569Y-83866952D01*
X152908867Y-83822500D01*
X152938569Y-83778048D01*
X152997141Y-83636643D01*
X153027000Y-83486528D01*
X153027000Y-83333472D01*
X152997141Y-83183357D01*
X152938569Y-83041952D01*
X152908867Y-82997500D01*
X152938569Y-82953048D01*
X152997141Y-82811643D01*
X153027000Y-82661528D01*
X153027000Y-82508472D01*
X152997141Y-82358357D01*
X152938569Y-82216952D01*
X152908867Y-82172500D01*
X152938569Y-82128048D01*
X152997141Y-81986643D01*
X153027000Y-81836528D01*
X153027000Y-81683472D01*
X152997141Y-81533357D01*
X152938569Y-81391952D01*
X152908867Y-81347500D01*
X152938569Y-81303048D01*
X152997141Y-81161643D01*
X153027000Y-81011528D01*
X153027000Y-80858472D01*
X152997141Y-80708357D01*
X152938569Y-80566952D01*
X152908867Y-80522500D01*
X152938569Y-80478048D01*
X152997141Y-80336643D01*
X153027000Y-80186528D01*
X153027000Y-80033472D01*
X152997141Y-79883357D01*
X152938569Y-79741952D01*
X152908867Y-79697500D01*
X152938569Y-79653048D01*
X152997141Y-79511643D01*
X153027000Y-79361528D01*
X153027000Y-79208472D01*
X152997141Y-79058357D01*
X152938569Y-78916952D01*
X152908867Y-78872500D01*
X152938569Y-78828048D01*
X152997141Y-78686643D01*
X153027000Y-78536528D01*
X153027000Y-78383472D01*
X152997324Y-78234275D01*
X153020426Y-78191548D01*
X153044293Y-78148133D01*
X153044851Y-78146375D01*
X153045731Y-78144747D01*
X153060405Y-78097343D01*
X153075393Y-78050095D01*
X153075599Y-78048258D01*
X153076145Y-78046494D01*
X153081323Y-77997232D01*
X153086858Y-77947884D01*
X153086883Y-77944332D01*
X153086896Y-77944205D01*
X153086884Y-77944077D01*
X153086909Y-77940526D01*
X153086909Y-53844679D01*
X210303000Y-53844679D01*
X210303000Y-54155321D01*
X210363604Y-54459994D01*
X210482481Y-54746989D01*
X210655064Y-55005279D01*
X210874721Y-55224936D01*
X211133011Y-55397519D01*
X211420006Y-55516396D01*
X211724679Y-55577000D01*
X212035321Y-55577000D01*
X212339994Y-55516396D01*
X212626989Y-55397519D01*
X212885279Y-55224936D01*
X213104936Y-55005279D01*
X213277519Y-54746989D01*
X213396396Y-54459994D01*
X213457000Y-54155321D01*
X213457000Y-53844679D01*
X213396396Y-53540006D01*
X213277519Y-53253011D01*
X213104936Y-52994721D01*
X212885279Y-52775064D01*
X212626989Y-52602481D01*
X212339994Y-52483604D01*
X212035321Y-52423000D01*
X211724679Y-52423000D01*
X211420006Y-52483604D01*
X211133011Y-52602481D01*
X210874721Y-52775064D01*
X210655064Y-52994721D01*
X210482481Y-53253011D01*
X210363604Y-53540006D01*
X210303000Y-53844679D01*
X153086909Y-53844679D01*
X153086909Y-52006299D01*
X153089006Y-51923350D01*
X153094708Y-51848366D01*
X153104077Y-51774635D01*
X153115861Y-51708651D01*
X153153708Y-51561456D01*
X153203086Y-51426545D01*
X153264979Y-51298062D01*
X153338713Y-51176694D01*
X153423560Y-51063230D01*
X153518769Y-50958473D01*
X153623516Y-50863272D01*
X153736985Y-50778421D01*
X153858356Y-50704687D01*
X153986837Y-50642794D01*
X154121745Y-50593417D01*
X154268944Y-50555568D01*
X154334925Y-50543785D01*
X154408657Y-50534416D01*
X154483641Y-50528714D01*
X154566590Y-50526617D01*
X213285986Y-50526595D01*
X213413106Y-50531597D01*
G37*
X213413106Y-50531597D02*
X213527512Y-50545151D01*
X213639397Y-50567366D01*
X213748456Y-50597963D01*
X213854292Y-50636658D01*
X213956519Y-50683175D01*
X214054723Y-50737231D01*
X214148444Y-50798515D01*
X214237258Y-50866728D01*
X214320718Y-50941551D01*
X214398406Y-51022676D01*
X214469898Y-51109785D01*
X214534804Y-51202602D01*
X214592742Y-51300870D01*
X214643340Y-51404383D01*
X214690051Y-51522680D01*
X220680495Y-68635465D01*
X220683321Y-68641555D01*
X220685076Y-68648038D01*
X220687731Y-68654900D01*
X220745866Y-68802124D01*
X220753651Y-68817306D01*
X220759388Y-68833372D01*
X220762573Y-68840005D01*
X220831308Y-68980620D01*
X220840188Y-68995026D01*
X220847109Y-69010481D01*
X220850802Y-69016845D01*
X220929576Y-69150450D01*
X220939470Y-69164007D01*
X220947494Y-69178744D01*
X220951668Y-69184803D01*
X221039920Y-69311002D01*
X221050740Y-69323641D01*
X221059798Y-69337602D01*
X221064427Y-69343322D01*
X221161593Y-69461714D01*
X221173265Y-69473395D01*
X221183291Y-69486528D01*
X221188343Y-69491878D01*
X221293864Y-69602066D01*
X221306325Y-69612761D01*
X221317252Y-69625015D01*
X221322697Y-69629965D01*
X221436008Y-69731550D01*
X221449198Y-69741231D01*
X221460981Y-69752580D01*
X221466785Y-69757103D01*
X221587329Y-69849687D01*
X221601194Y-69858326D01*
X221613791Y-69868740D01*
X221619922Y-69872810D01*
X221747133Y-69955993D01*
X221761631Y-69963566D01*
X221774995Y-69973004D01*
X221781417Y-69976597D01*
X221914736Y-70049983D01*
X221929820Y-70056458D01*
X221943919Y-70064885D01*
X221950595Y-70067979D01*
X222089458Y-70131168D01*
X222105085Y-70136508D01*
X222119873Y-70143876D01*
X222126767Y-70146450D01*
X222270614Y-70199043D01*
X222286721Y-70203203D01*
X222302145Y-70209458D01*
X222309215Y-70211495D01*
X222457485Y-70253095D01*
X222474010Y-70256030D01*
X222490003Y-70261113D01*
X222497210Y-70262596D01*
X222649339Y-70292803D01*
X222666181Y-70294464D01*
X222682665Y-70298317D01*
X222689965Y-70299234D01*
X222845393Y-70317651D01*
X222862451Y-70317996D01*
X222879319Y-70320563D01*
X222886670Y-70320904D01*
X223044835Y-70327132D01*
X223051537Y-70326740D01*
X223058212Y-70327489D01*
X223065570Y-70327540D01*
X250653384Y-70327540D01*
X250736332Y-70329637D01*
X250811316Y-70335339D01*
X250885047Y-70344708D01*
X250951030Y-70356492D01*
X251098226Y-70394340D01*
X251233135Y-70443717D01*
X251361616Y-70505610D01*
X251482991Y-70579346D01*
X251596449Y-70664188D01*
X251701207Y-70759399D01*
X251796411Y-70864149D01*
X251881260Y-70977617D01*
X251954994Y-71098988D01*
X252016887Y-71227469D01*
X252066264Y-71362377D01*
X252104113Y-71509579D01*
X252115896Y-71575556D01*
X252125265Y-71649288D01*
X252130967Y-71724272D01*
X252133065Y-71807228D01*
X252133065Y-91061668D01*
X251264281Y-91955741D01*
X251236285Y-91990839D01*
X251207398Y-92025265D01*
X251204234Y-92031021D01*
X251200144Y-92036148D01*
X251179488Y-92076033D01*
X251157849Y-92115396D01*
X251155866Y-92121648D01*
X251152846Y-92127479D01*
X251140333Y-92170612D01*
X251126749Y-92213434D01*
X251126017Y-92219962D01*
X251124190Y-92226259D01*
X251120295Y-92270975D01*
X251115284Y-92315645D01*
X251115233Y-92323003D01*
X251115233Y-109304998D01*
X251119893Y-109352520D01*
X251123886Y-109400105D01*
X251124908Y-109403671D01*
X251125270Y-109407360D01*
X251139071Y-109453073D01*
X251152231Y-109498975D01*
X251153925Y-109502272D01*
X251154997Y-109505822D01*
X251177407Y-109547969D01*
X251199240Y-109590456D01*
X251201545Y-109593365D01*
X251203284Y-109596635D01*
X251233437Y-109633607D01*
X251263122Y-109671064D01*
X251268270Y-109676321D01*
X252133001Y-110547199D01*
X252133087Y-129831234D01*
X252130985Y-129914263D01*
X252125269Y-129989345D01*
X252115874Y-130063184D01*
X252104060Y-130129253D01*
X252066121Y-130276611D01*
X252016625Y-130411657D01*
X251954586Y-130540258D01*
X251880685Y-130661717D01*
X251795638Y-130775259D01*
X251700231Y-130880044D01*
X251595261Y-130975253D01*
X251481566Y-131060075D01*
X251359959Y-131133748D01*
X251231235Y-131195544D01*
X251096100Y-131244778D01*
X250948659Y-131282438D01*
X250882579Y-131294123D01*
X250808737Y-131303374D01*
X250733632Y-131308947D01*
X250650070Y-131310903D01*
X232051272Y-131310925D01*
X232048007Y-131311245D01*
X232044731Y-131310965D01*
X232037374Y-131311108D01*
X231931774Y-131313894D01*
X231921619Y-131315161D01*
X231911394Y-131314827D01*
X231904055Y-131315357D01*
X231799269Y-131323658D01*
X231789250Y-131325448D01*
X231779067Y-131325650D01*
X231771766Y-131326565D01*
X231667987Y-131340294D01*
X231658119Y-131342597D01*
X231648016Y-131343327D01*
X231640773Y-131344622D01*
X231538197Y-131363694D01*
X231528515Y-131366494D01*
X231518502Y-131367745D01*
X231511336Y-131369416D01*
X231410158Y-131393742D01*
X231400661Y-131397034D01*
X231390757Y-131398798D01*
X231383688Y-131400839D01*
X231284103Y-131430335D01*
X231274820Y-131434104D01*
X231265049Y-131436373D01*
X231258094Y-131438778D01*
X231160297Y-131473356D01*
X231151234Y-131477596D01*
X231141614Y-131480362D01*
X231134794Y-131483124D01*
X231038980Y-131522697D01*
X231030151Y-131527400D01*
X231020688Y-131530660D01*
X231014020Y-131533771D01*
X230920384Y-131578254D01*
X230911808Y-131583409D01*
X230902525Y-131587156D01*
X230896027Y-131590609D01*
X230804764Y-131639914D01*
X230796450Y-131645518D01*
X230787355Y-131649750D01*
X230781045Y-131653535D01*
X230692351Y-131707577D01*
X230684323Y-131713617D01*
X230675439Y-131718327D01*
X230669334Y-131722435D01*
X230583403Y-131781126D01*
X230575670Y-131787600D01*
X230567014Y-131792784D01*
X230561132Y-131797204D01*
X230478159Y-131860458D01*
X230470741Y-131867356D01*
X230462335Y-131873008D01*
X230456691Y-131877730D01*
X230376871Y-131945459D01*
X230369786Y-131952774D01*
X230361646Y-131958891D01*
X230356258Y-131963902D01*
X230279788Y-132036023D01*
X230273069Y-132043731D01*
X230265222Y-132050302D01*
X230260106Y-132055590D01*
X230187177Y-132132014D01*
X230185152Y-132134601D01*
X230182689Y-132136776D01*
X230177714Y-132142197D01*
X214924251Y-148995315D01*
X214865525Y-149056983D01*
X214809235Y-149110177D01*
X214750472Y-149160136D01*
X214689395Y-149206789D01*
X214626115Y-149250091D01*
X214560786Y-149289973D01*
X214493569Y-149326358D01*
X214424574Y-149359200D01*
X214353989Y-149388415D01*
X214281929Y-149413949D01*
X214208553Y-149435735D01*
X214134031Y-149453701D01*
X214058450Y-149467799D01*
X213982011Y-149477954D01*
X213904783Y-149484112D01*
X213819961Y-149486390D01*
X154567131Y-149512933D01*
X154484210Y-149510873D01*
X154409174Y-149505199D01*
X154335412Y-149495857D01*
X154269410Y-149484097D01*
X154122155Y-149446293D01*
X153987197Y-149396949D01*
X153858651Y-149335075D01*
X153737234Y-149261361D01*
X153623712Y-149176517D01*
X153518908Y-149081310D01*
X153423656Y-148976550D01*
X153338759Y-148863064D01*
X153264987Y-148741674D01*
X153203055Y-148613156D01*
X153153657Y-148478231D01*
X153115784Y-148330981D01*
X153103993Y-148264977D01*
X153094619Y-148191226D01*
X153088914Y-148116220D01*
X153086816Y-148033247D01*
X153086876Y-127224679D01*
X172453000Y-127224679D01*
X172453000Y-127535321D01*
X172513604Y-127839994D01*
X172632481Y-128126989D01*
X172805064Y-128385279D01*
X173024721Y-128604936D01*
X173283011Y-128777519D01*
X173570006Y-128896396D01*
X173874679Y-128957000D01*
X174185321Y-128957000D01*
X174489994Y-128896396D01*
X174776989Y-128777519D01*
X175035279Y-128604936D01*
X175254936Y-128385279D01*
X175427519Y-128126989D01*
X175546396Y-127839994D01*
X175607000Y-127535321D01*
X175607000Y-127224679D01*
X175605011Y-127214679D01*
X229603000Y-127214679D01*
X229603000Y-127525321D01*
X229663604Y-127829994D01*
X229782481Y-128116989D01*
X229955064Y-128375279D01*
X230174721Y-128594936D01*
X230433011Y-128767519D01*
X230720006Y-128886396D01*
X231024679Y-128947000D01*
X231335321Y-128947000D01*
X231639994Y-128886396D01*
X231926989Y-128767519D01*
X232185279Y-128594936D01*
X232404936Y-128375279D01*
X232577519Y-128116989D01*
X232696396Y-127829994D01*
X232757000Y-127525321D01*
X232757000Y-127214679D01*
X232696396Y-126910006D01*
X232577519Y-126623011D01*
X232404936Y-126364721D01*
X232185279Y-126145064D01*
X231926989Y-125972481D01*
X231639994Y-125853604D01*
X231335321Y-125793000D01*
X231024679Y-125793000D01*
X230720006Y-125853604D01*
X230433011Y-125972481D01*
X230174721Y-126145064D01*
X229955064Y-126364721D01*
X229782481Y-126623011D01*
X229663604Y-126910006D01*
X229603000Y-127214679D01*
X175605011Y-127214679D01*
X175546396Y-126920006D01*
X175427519Y-126633011D01*
X175254936Y-126374721D01*
X175035279Y-126155064D01*
X174776989Y-125982481D01*
X174489994Y-125863604D01*
X174185321Y-125803000D01*
X173874679Y-125803000D01*
X173570006Y-125863604D01*
X173283011Y-125982481D01*
X173024721Y-126155064D01*
X172805064Y-126374721D01*
X172632481Y-126633011D01*
X172513604Y-126920006D01*
X172453000Y-127224679D01*
X153086876Y-127224679D01*
X153086887Y-123660519D01*
X153082048Y-123611170D01*
X153077552Y-123561767D01*
X153077030Y-123559994D01*
X153076850Y-123558157D01*
X153062512Y-123510666D01*
X153048513Y-123463099D01*
X153047659Y-123461465D01*
X153047124Y-123459694D01*
X153023842Y-123415908D01*
X153000862Y-123371951D01*
X152999703Y-123370509D01*
X152998837Y-123368881D01*
X152990675Y-123358874D01*
X153017000Y-123226528D01*
X153017000Y-123073472D01*
X152987141Y-122923357D01*
X152928569Y-122781952D01*
X152903867Y-122744983D01*
X152938569Y-122693048D01*
X152997141Y-122551643D01*
X153027000Y-122401528D01*
X153027000Y-122248472D01*
X152997141Y-122098357D01*
X152938569Y-121956952D01*
X152908867Y-121912500D01*
X152938569Y-121868048D01*
X152997141Y-121726643D01*
X153027000Y-121576528D01*
X153027000Y-121423472D01*
X152997141Y-121273357D01*
X152938569Y-121131952D01*
X152908867Y-121087500D01*
X152938569Y-121043048D01*
X152997141Y-120901643D01*
X153027000Y-120751528D01*
X153027000Y-120598472D01*
X152997141Y-120448357D01*
X152938569Y-120306952D01*
X152908867Y-120262500D01*
X152938569Y-120218048D01*
X152997141Y-120076643D01*
X153027000Y-119926528D01*
X153027000Y-119773472D01*
X152997141Y-119623357D01*
X152938569Y-119481952D01*
X152908867Y-119437500D01*
X152938569Y-119393048D01*
X152997141Y-119251643D01*
X153027000Y-119101528D01*
X153027000Y-118948472D01*
X152997141Y-118798357D01*
X152938569Y-118656952D01*
X152908867Y-118612500D01*
X152938569Y-118568048D01*
X152997141Y-118426643D01*
X153027000Y-118276528D01*
X153027000Y-118123472D01*
X152997141Y-117973357D01*
X152938569Y-117831952D01*
X152908867Y-117787500D01*
X152938569Y-117743048D01*
X152997141Y-117601643D01*
X153027000Y-117451528D01*
X153027000Y-117298472D01*
X152997141Y-117148357D01*
X152938569Y-117006952D01*
X152908867Y-116962500D01*
X152938569Y-116918048D01*
X152997141Y-116776643D01*
X153027000Y-116626528D01*
X153027000Y-116473472D01*
X152999557Y-116335501D01*
X153000191Y-116334728D01*
X153049126Y-116243176D01*
X153079261Y-116143836D01*
X153089436Y-116040526D01*
X153086886Y-116014637D01*
X153086908Y-110579315D01*
X153879979Y-109731593D01*
X153893278Y-109720679D01*
X153915345Y-109693790D01*
X153921355Y-109687366D01*
X153931775Y-109673770D01*
X153959134Y-109640433D01*
X153963304Y-109632632D01*
X153968683Y-109625613D01*
X153987735Y-109586924D01*
X154008069Y-109548881D01*
X154010637Y-109540417D01*
X154014544Y-109532482D01*
X154025682Y-109490820D01*
X154038204Y-109449541D01*
X154039071Y-109440737D01*
X154041355Y-109432194D01*
X154044151Y-109389164D01*
X154045830Y-109372112D01*
X154045830Y-109363313D01*
X154048085Y-109328603D01*
X154045830Y-109311550D01*
X154045830Y-92401780D01*
X154047864Y-92387581D01*
X154045830Y-92350005D01*
X154045830Y-92338355D01*
X154044430Y-92324140D01*
X154042253Y-92283923D01*
X154039352Y-92272582D01*
X154038204Y-92260926D01*
X154026507Y-92222366D01*
X154016527Y-92183352D01*
X154011469Y-92172795D01*
X154008069Y-92161586D01*
X153989074Y-92126048D01*
X153971675Y-92089731D01*
X153964655Y-92080364D01*
X153959134Y-92070034D01*
X153933577Y-92038893D01*
X153925017Y-92027470D01*
X153917153Y-92018880D01*
X153893278Y-91989788D01*
X153882188Y-91980687D01*
X153098536Y-91124679D01*
X172453000Y-91124679D01*
X172453000Y-91435321D01*
X172513604Y-91739994D01*
X172632481Y-92026989D01*
X172805064Y-92285279D01*
X173024721Y-92504936D01*
X173283011Y-92677519D01*
X173570006Y-92796396D01*
X173874679Y-92857000D01*
X174185321Y-92857000D01*
X174489994Y-92796396D01*
X174697493Y-92710447D01*
X229949158Y-92710447D01*
X230093135Y-93015770D01*
X230450892Y-93196597D01*
X230837053Y-93304155D01*
X231236777Y-93334310D01*
X231634704Y-93285904D01*
X232015540Y-93160795D01*
X232286865Y-93015770D01*
X232430842Y-92710447D01*
X231190000Y-91469605D01*
X229949158Y-92710447D01*
X174697493Y-92710447D01*
X174776989Y-92677519D01*
X175035279Y-92504936D01*
X175254936Y-92285279D01*
X175427519Y-92026989D01*
X175546396Y-91739994D01*
X175607000Y-91435321D01*
X175607000Y-91336777D01*
X229145690Y-91336777D01*
X229194096Y-91734704D01*
X229319205Y-92115540D01*
X229464230Y-92386865D01*
X229769553Y-92530842D01*
X231010395Y-91290000D01*
X231369605Y-91290000D01*
X232610447Y-92530842D01*
X232915770Y-92386865D01*
X233096597Y-92029108D01*
X233204155Y-91642947D01*
X233234310Y-91243223D01*
X233185904Y-90845296D01*
X233060795Y-90464460D01*
X232915770Y-90193135D01*
X232610447Y-90049158D01*
X231369605Y-91290000D01*
X231010395Y-91290000D01*
X229769553Y-90049158D01*
X229464230Y-90193135D01*
X229283403Y-90550892D01*
X229175845Y-90937053D01*
X229145690Y-91336777D01*
X175607000Y-91336777D01*
X175607000Y-91124679D01*
X175546396Y-90820006D01*
X175427519Y-90533011D01*
X175254936Y-90274721D01*
X175035279Y-90055064D01*
X174776989Y-89882481D01*
X174745778Y-89869553D01*
X229949158Y-89869553D01*
X231190000Y-91110395D01*
X232430842Y-89869553D01*
X232286865Y-89564230D01*
X231929108Y-89383403D01*
X231542947Y-89275845D01*
X231143223Y-89245690D01*
X230745296Y-89294096D01*
X230364460Y-89419205D01*
X230093135Y-89564230D01*
X229949158Y-89869553D01*
X174745778Y-89869553D01*
X174489994Y-89763604D01*
X174185321Y-89703000D01*
X173874679Y-89703000D01*
X173570006Y-89763604D01*
X173283011Y-89882481D01*
X173024721Y-90055064D01*
X172805064Y-90274721D01*
X172632481Y-90533011D01*
X172513604Y-90820006D01*
X172453000Y-91124679D01*
X153098536Y-91124679D01*
X153086909Y-91111979D01*
X153086909Y-85586398D01*
X153089458Y-85560517D01*
X153079283Y-85457207D01*
X153049148Y-85357867D01*
X153000213Y-85266315D01*
X152992946Y-85257460D01*
X153017000Y-85136528D01*
X153017000Y-84983472D01*
X152987141Y-84833357D01*
X152928569Y-84691952D01*
X152903867Y-84654983D01*
X152938569Y-84603048D01*
X152997141Y-84461643D01*
X153027000Y-84311528D01*
X153027000Y-84158472D01*
X152997141Y-84008357D01*
X152938569Y-83866952D01*
X152908867Y-83822500D01*
X152938569Y-83778048D01*
X152997141Y-83636643D01*
X153027000Y-83486528D01*
X153027000Y-83333472D01*
X152997141Y-83183357D01*
X152938569Y-83041952D01*
X152908867Y-82997500D01*
X152938569Y-82953048D01*
X152997141Y-82811643D01*
X153027000Y-82661528D01*
X153027000Y-82508472D01*
X152997141Y-82358357D01*
X152938569Y-82216952D01*
X152908867Y-82172500D01*
X152938569Y-82128048D01*
X152997141Y-81986643D01*
X153027000Y-81836528D01*
X153027000Y-81683472D01*
X152997141Y-81533357D01*
X152938569Y-81391952D01*
X152908867Y-81347500D01*
X152938569Y-81303048D01*
X152997141Y-81161643D01*
X153027000Y-81011528D01*
X153027000Y-80858472D01*
X152997141Y-80708357D01*
X152938569Y-80566952D01*
X152908867Y-80522500D01*
X152938569Y-80478048D01*
X152997141Y-80336643D01*
X153027000Y-80186528D01*
X153027000Y-80033472D01*
X152997141Y-79883357D01*
X152938569Y-79741952D01*
X152908867Y-79697500D01*
X152938569Y-79653048D01*
X152997141Y-79511643D01*
X153027000Y-79361528D01*
X153027000Y-79208472D01*
X152997141Y-79058357D01*
X152938569Y-78916952D01*
X152908867Y-78872500D01*
X152938569Y-78828048D01*
X152997141Y-78686643D01*
X153027000Y-78536528D01*
X153027000Y-78383472D01*
X152997324Y-78234275D01*
X153020426Y-78191548D01*
X153044293Y-78148133D01*
X153044851Y-78146375D01*
X153045731Y-78144747D01*
X153060405Y-78097343D01*
X153075393Y-78050095D01*
X153075599Y-78048258D01*
X153076145Y-78046494D01*
X153081323Y-77997232D01*
X153086858Y-77947884D01*
X153086883Y-77944332D01*
X153086896Y-77944205D01*
X153086884Y-77944077D01*
X153086909Y-77940526D01*
X153086909Y-53844679D01*
X210303000Y-53844679D01*
X210303000Y-54155321D01*
X210363604Y-54459994D01*
X210482481Y-54746989D01*
X210655064Y-55005279D01*
X210874721Y-55224936D01*
X211133011Y-55397519D01*
X211420006Y-55516396D01*
X211724679Y-55577000D01*
X212035321Y-55577000D01*
X212339994Y-55516396D01*
X212626989Y-55397519D01*
X212885279Y-55224936D01*
X213104936Y-55005279D01*
X213277519Y-54746989D01*
X213396396Y-54459994D01*
X213457000Y-54155321D01*
X213457000Y-53844679D01*
X213396396Y-53540006D01*
X213277519Y-53253011D01*
X213104936Y-52994721D01*
X212885279Y-52775064D01*
X212626989Y-52602481D01*
X212339994Y-52483604D01*
X212035321Y-52423000D01*
X211724679Y-52423000D01*
X211420006Y-52483604D01*
X211133011Y-52602481D01*
X210874721Y-52775064D01*
X210655064Y-52994721D01*
X210482481Y-53253011D01*
X210363604Y-53540006D01*
X210303000Y-53844679D01*
X153086909Y-53844679D01*
X153086909Y-52006299D01*
X153089006Y-51923350D01*
X153094708Y-51848366D01*
X153104077Y-51774635D01*
X153115861Y-51708651D01*
X153153708Y-51561456D01*
X153203086Y-51426545D01*
X153264979Y-51298062D01*
X153338713Y-51176694D01*
X153423560Y-51063230D01*
X153518769Y-50958473D01*
X153623516Y-50863272D01*
X153736985Y-50778421D01*
X153858356Y-50704687D01*
X153986837Y-50642794D01*
X154121745Y-50593417D01*
X154268944Y-50555568D01*
X154334925Y-50543785D01*
X154408657Y-50534416D01*
X154483641Y-50528714D01*
X154566590Y-50526617D01*
X213285986Y-50526595D01*
X213413106Y-50531597D01*
G36*
X148013913Y-50526617D02*
G01*
X148096861Y-50528714D01*
X148171845Y-50534416D01*
X148245576Y-50543785D01*
X148311559Y-50555569D01*
X148458755Y-50593417D01*
X148593664Y-50642794D01*
X148722145Y-50704687D01*
X148843520Y-50778423D01*
X148956978Y-50863265D01*
X149061736Y-50958476D01*
X149156940Y-51063226D01*
X149241789Y-51176694D01*
X149315523Y-51298065D01*
X149377416Y-51426546D01*
X149426793Y-51561454D01*
X149464642Y-51708656D01*
X149476425Y-51774633D01*
X149485794Y-51848365D01*
X149491496Y-51923349D01*
X149493594Y-52006305D01*
X149493594Y-77940526D01*
X149498435Y-77989901D01*
X149502929Y-78039276D01*
X149503451Y-78041048D01*
X149503631Y-78042888D01*
X149517968Y-78090374D01*
X149531968Y-78137944D01*
X149532824Y-78139582D01*
X149533358Y-78141350D01*
X149556611Y-78185082D01*
X149576833Y-78223763D01*
X149572859Y-78233357D01*
X149543000Y-78383472D01*
X149543000Y-78536528D01*
X149572859Y-78686643D01*
X149631431Y-78828048D01*
X149656133Y-78865017D01*
X149621431Y-78916952D01*
X149562859Y-79058357D01*
X149533000Y-79208472D01*
X149533000Y-79361528D01*
X149562859Y-79511643D01*
X149621431Y-79653048D01*
X149651133Y-79697500D01*
X149621431Y-79741952D01*
X149562859Y-79883357D01*
X149533000Y-80033472D01*
X149533000Y-80186528D01*
X149562859Y-80336643D01*
X149621431Y-80478048D01*
X149651133Y-80522500D01*
X149621431Y-80566952D01*
X149562859Y-80708357D01*
X149533000Y-80858472D01*
X149533000Y-81011528D01*
X149562859Y-81161643D01*
X149621431Y-81303048D01*
X149651133Y-81347500D01*
X149621431Y-81391952D01*
X149562859Y-81533357D01*
X149533000Y-81683472D01*
X149533000Y-81836528D01*
X149562859Y-81986643D01*
X149621431Y-82128048D01*
X149651133Y-82172500D01*
X149621431Y-82216952D01*
X149562859Y-82358357D01*
X149533000Y-82508472D01*
X149533000Y-82661528D01*
X149562859Y-82811643D01*
X149621431Y-82953048D01*
X149651133Y-82997500D01*
X149621431Y-83041952D01*
X149562859Y-83183357D01*
X149533000Y-83333472D01*
X149533000Y-83486528D01*
X149562859Y-83636643D01*
X149621431Y-83778048D01*
X149651133Y-83822500D01*
X149621431Y-83866952D01*
X149562859Y-84008357D01*
X149533000Y-84158472D01*
X149533000Y-84311528D01*
X149562859Y-84461643D01*
X149621431Y-84603048D01*
X149651133Y-84647500D01*
X149621431Y-84691952D01*
X149562859Y-84833357D01*
X149533000Y-84983472D01*
X149533000Y-85136528D01*
X149562859Y-85286643D01*
X149565726Y-85293563D01*
X149531355Y-85357867D01*
X149501220Y-85457207D01*
X149491045Y-85560517D01*
X149493595Y-85586408D01*
X149493594Y-91111978D01*
X148698318Y-91980685D01*
X148687226Y-91989788D01*
X148663344Y-92018889D01*
X148655486Y-92027472D01*
X148646929Y-92038891D01*
X148621370Y-92070034D01*
X148615851Y-92080359D01*
X148608827Y-92089732D01*
X148591419Y-92126069D01*
X148572435Y-92161586D01*
X148569036Y-92172791D01*
X148563976Y-92183353D01*
X148553992Y-92222382D01*
X148542300Y-92260926D01*
X148541152Y-92272577D01*
X148538250Y-92283924D01*
X148536072Y-92324161D01*
X148534674Y-92338355D01*
X148534674Y-92349987D01*
X148532639Y-92387581D01*
X148534674Y-92401787D01*
X148534673Y-109311549D01*
X148532418Y-109328603D01*
X148534673Y-109363313D01*
X148534673Y-109372111D01*
X148536352Y-109389163D01*
X148539148Y-109432193D01*
X148541432Y-109440736D01*
X148542299Y-109449540D01*
X148554821Y-109490819D01*
X148565959Y-109532481D01*
X148569866Y-109540416D01*
X148572434Y-109548880D01*
X148592774Y-109586935D01*
X148611820Y-109625611D01*
X148617196Y-109632625D01*
X148621369Y-109640433D01*
X148648751Y-109673799D01*
X148659148Y-109687364D01*
X148665144Y-109693774D01*
X148687225Y-109720679D01*
X148700531Y-109731599D01*
X149493595Y-110579315D01*
X149493616Y-116014637D01*
X149491066Y-116040526D01*
X149501241Y-116143836D01*
X149531376Y-116243176D01*
X149573459Y-116321909D01*
X149572859Y-116323357D01*
X149543000Y-116473472D01*
X149543000Y-116626528D01*
X149572859Y-116776643D01*
X149631431Y-116918048D01*
X149656133Y-116955017D01*
X149621431Y-117006952D01*
X149562859Y-117148357D01*
X149533000Y-117298472D01*
X149533000Y-117451528D01*
X149562859Y-117601643D01*
X149621431Y-117743048D01*
X149651133Y-117787500D01*
X149621431Y-117831952D01*
X149562859Y-117973357D01*
X149533000Y-118123472D01*
X149533000Y-118276528D01*
X149562859Y-118426643D01*
X149621431Y-118568048D01*
X149651133Y-118612500D01*
X149621431Y-118656952D01*
X149562859Y-118798357D01*
X149533000Y-118948472D01*
X149533000Y-119101528D01*
X149562859Y-119251643D01*
X149621431Y-119393048D01*
X149651133Y-119437500D01*
X149621431Y-119481952D01*
X149562859Y-119623357D01*
X149533000Y-119773472D01*
X149533000Y-119926528D01*
X149562859Y-120076643D01*
X149621431Y-120218048D01*
X149651133Y-120262500D01*
X149621431Y-120306952D01*
X149562859Y-120448357D01*
X149533000Y-120598472D01*
X149533000Y-120751528D01*
X149562859Y-120901643D01*
X149621431Y-121043048D01*
X149651133Y-121087500D01*
X149621431Y-121131952D01*
X149562859Y-121273357D01*
X149533000Y-121423472D01*
X149533000Y-121576528D01*
X149562859Y-121726643D01*
X149621431Y-121868048D01*
X149651133Y-121912500D01*
X149621431Y-121956952D01*
X149562859Y-122098357D01*
X149533000Y-122248472D01*
X149533000Y-122401528D01*
X149562859Y-122551643D01*
X149621431Y-122693048D01*
X149651133Y-122737500D01*
X149621431Y-122781952D01*
X149562859Y-122923357D01*
X149533000Y-123073472D01*
X149533000Y-123226528D01*
X149562859Y-123376643D01*
X149569367Y-123392353D01*
X149560125Y-123409445D01*
X149536230Y-123452911D01*
X149535672Y-123454671D01*
X149534793Y-123456296D01*
X149520126Y-123503679D01*
X149505131Y-123550949D01*
X149504925Y-123552785D01*
X149504379Y-123554549D01*
X149499200Y-123603827D01*
X149493666Y-123653160D01*
X149493641Y-123656711D01*
X149493628Y-123656838D01*
X149493640Y-123656966D01*
X149493615Y-123660518D01*
X149493680Y-148033233D01*
X149491581Y-148116216D01*
X149485876Y-148191220D01*
X149476500Y-148264987D01*
X149464712Y-148330975D01*
X149426840Y-148478220D01*
X149377438Y-148613154D01*
X149315508Y-148741670D01*
X149241738Y-148863057D01*
X149156838Y-148976547D01*
X149061584Y-149081309D01*
X148956784Y-149176513D01*
X148843257Y-149261359D01*
X148721834Y-149335078D01*
X148593295Y-149396949D01*
X148458332Y-149446293D01*
X148311086Y-149484096D01*
X148245068Y-149495858D01*
X148171320Y-149505198D01*
X148096279Y-149510873D01*
X148013358Y-149512933D01*
X88760548Y-149486390D01*
X88675725Y-149484112D01*
X88598494Y-149477954D01*
X88522053Y-149467799D01*
X88446478Y-149453702D01*
X88371949Y-149435734D01*
X88298582Y-149413950D01*
X88226518Y-149388414D01*
X88155931Y-149359200D01*
X88086934Y-149326357D01*
X88019717Y-149289972D01*
X87954387Y-149250090D01*
X87891125Y-149206800D01*
X87830019Y-149160127D01*
X87771273Y-149110182D01*
X87714966Y-149056972D01*
X87656244Y-148995307D01*
X72402789Y-132142197D01*
X72400358Y-132139989D01*
X72398366Y-132137370D01*
X72393323Y-132132011D01*
X72320394Y-132055588D01*
X72312648Y-132048916D01*
X72306032Y-132041108D01*
X72300714Y-132036023D01*
X72224243Y-131963902D01*
X72216192Y-131957674D01*
X72209208Y-131950259D01*
X72203630Y-131945459D01*
X72123811Y-131877729D01*
X72115483Y-131871959D01*
X72108164Y-131864960D01*
X72102343Y-131860458D01*
X72019370Y-131797204D01*
X72010791Y-131791901D01*
X72003146Y-131785318D01*
X71997099Y-131781126D01*
X71911168Y-131722435D01*
X71902356Y-131717604D01*
X71894408Y-131711449D01*
X71888151Y-131707577D01*
X71799457Y-131653535D01*
X71790426Y-131649178D01*
X71782187Y-131643456D01*
X71775738Y-131639914D01*
X71684475Y-131590609D01*
X71675251Y-131586735D01*
X71666743Y-131581458D01*
X71660118Y-131578254D01*
X71566482Y-131533771D01*
X71557070Y-131530381D01*
X71548304Y-131525553D01*
X71541523Y-131522697D01*
X71445708Y-131483124D01*
X71436132Y-131480225D01*
X71427125Y-131475857D01*
X71420205Y-131473356D01*
X71322408Y-131438778D01*
X71312676Y-131436375D01*
X71303439Y-131432473D01*
X71296398Y-131430335D01*
X71196814Y-131400839D01*
X71186945Y-131398939D01*
X71177486Y-131395511D01*
X71170344Y-131393742D01*
X71069166Y-131369416D01*
X71059180Y-131368027D01*
X71049530Y-131365089D01*
X71042305Y-131363694D01*
X70939729Y-131344622D01*
X70929639Y-131343751D01*
X70919802Y-131341310D01*
X70912515Y-131340294D01*
X70808736Y-131326564D01*
X70798559Y-131326220D01*
X70788564Y-131324290D01*
X70781233Y-131323658D01*
X70676445Y-131315357D01*
X70666221Y-131315548D01*
X70656081Y-131314139D01*
X70648727Y-131313894D01*
X70543128Y-131311108D01*
X70539852Y-131311342D01*
X70536588Y-131310976D01*
X70529230Y-131310925D01*
X51930433Y-131310903D01*
X51846870Y-131308947D01*
X51771766Y-131303374D01*
X51697921Y-131294123D01*
X51631842Y-131282437D01*
X51484400Y-131244777D01*
X51349266Y-131195543D01*
X51220541Y-131133748D01*
X51098935Y-131060075D01*
X50985243Y-130975257D01*
X50880272Y-130880046D01*
X50784857Y-130775252D01*
X50699817Y-130661718D01*
X50625914Y-130540256D01*
X50563876Y-130411657D01*
X50514380Y-130276611D01*
X50476439Y-130129244D01*
X50464630Y-130063204D01*
X50455233Y-129989346D01*
X50449517Y-129914263D01*
X50447416Y-129831241D01*
X50447427Y-127224679D01*
X69823000Y-127224679D01*
X69823000Y-127535321D01*
X69883604Y-127839994D01*
X70002481Y-128126989D01*
X70175064Y-128385279D01*
X70394721Y-128604936D01*
X70653011Y-128777519D01*
X70940006Y-128896396D01*
X71244679Y-128957000D01*
X71555321Y-128957000D01*
X71859994Y-128896396D01*
X72146989Y-128777519D01*
X72405279Y-128604936D01*
X72624936Y-128385279D01*
X72797519Y-128126989D01*
X72916396Y-127839994D01*
X72977000Y-127535321D01*
X72977000Y-127224679D01*
X126973000Y-127224679D01*
X126973000Y-127535321D01*
X127033604Y-127839994D01*
X127152481Y-128126989D01*
X127325064Y-128385279D01*
X127544721Y-128604936D01*
X127803011Y-128777519D01*
X128090006Y-128896396D01*
X128394679Y-128957000D01*
X128705321Y-128957000D01*
X129009994Y-128896396D01*
X129296989Y-128777519D01*
X129555279Y-128604936D01*
X129774936Y-128385279D01*
X129947519Y-128126989D01*
X130066396Y-127839994D01*
X130127000Y-127535321D01*
X130127000Y-127224679D01*
X130066396Y-126920006D01*
X129947519Y-126633011D01*
X129774936Y-126374721D01*
X129555279Y-126155064D01*
X129296989Y-125982481D01*
X129009994Y-125863604D01*
X128705321Y-125803000D01*
X128394679Y-125803000D01*
X128090006Y-125863604D01*
X127803011Y-125982481D01*
X127544721Y-126155064D01*
X127325064Y-126374721D01*
X127152481Y-126633011D01*
X127033604Y-126920006D01*
X126973000Y-127224679D01*
X72977000Y-127224679D01*
X72916396Y-126920006D01*
X72797519Y-126633011D01*
X72624936Y-126374721D01*
X72405279Y-126155064D01*
X72146989Y-125982481D01*
X71859994Y-125863604D01*
X71555321Y-125803000D01*
X71244679Y-125803000D01*
X70940006Y-125863604D01*
X70653011Y-125982481D01*
X70394721Y-126155064D01*
X70175064Y-126374721D01*
X70002481Y-126633011D01*
X69883604Y-126920006D01*
X69823000Y-127224679D01*
X50447427Y-127224679D01*
X50447501Y-110547199D01*
X51312232Y-109676321D01*
X51342396Y-109639333D01*
X51373104Y-109602736D01*
X51374891Y-109599485D01*
X51377234Y-109596612D01*
X51399652Y-109554444D01*
X51422653Y-109512605D01*
X51423774Y-109509073D01*
X51425515Y-109505797D01*
X51439311Y-109460094D01*
X51453753Y-109414567D01*
X51454167Y-109410879D01*
X51455237Y-109407333D01*
X51459890Y-109359852D01*
X51465218Y-109312356D01*
X51465269Y-109304998D01*
X51465269Y-92700447D01*
X70159158Y-92700447D01*
X70303135Y-93005770D01*
X70660892Y-93186597D01*
X71047053Y-93294155D01*
X71446777Y-93324310D01*
X71844704Y-93275904D01*
X72225540Y-93150795D01*
X72496865Y-93005770D01*
X72640842Y-92700447D01*
X71400000Y-91459605D01*
X70159158Y-92700447D01*
X51465269Y-92700447D01*
X51465269Y-92323003D01*
X51460888Y-92278326D01*
X51457614Y-92233502D01*
X51455872Y-92227169D01*
X51455232Y-92220641D01*
X51442251Y-92177645D01*
X51430338Y-92134332D01*
X51427403Y-92128465D01*
X51425505Y-92122179D01*
X51404414Y-92082514D01*
X51384320Y-92042348D01*
X51380298Y-92037159D01*
X51377218Y-92031366D01*
X51348845Y-91996577D01*
X51321313Y-91961054D01*
X51316222Y-91955742D01*
X50705048Y-91326777D01*
X69355690Y-91326777D01*
X69404096Y-91724704D01*
X69529205Y-92105540D01*
X69674230Y-92376865D01*
X69979553Y-92520842D01*
X71220395Y-91280000D01*
X71579605Y-91280000D01*
X72820447Y-92520842D01*
X73125770Y-92376865D01*
X73306597Y-92019108D01*
X73414155Y-91632947D01*
X73444310Y-91233223D01*
X73431107Y-91124679D01*
X126983000Y-91124679D01*
X126983000Y-91435321D01*
X127043604Y-91739994D01*
X127162481Y-92026989D01*
X127335064Y-92285279D01*
X127554721Y-92504936D01*
X127813011Y-92677519D01*
X128100006Y-92796396D01*
X128404679Y-92857000D01*
X128715321Y-92857000D01*
X129019994Y-92796396D01*
X129306989Y-92677519D01*
X129565279Y-92504936D01*
X129784936Y-92285279D01*
X129957519Y-92026989D01*
X130076396Y-91739994D01*
X130137000Y-91435321D01*
X130137000Y-91124679D01*
X130076396Y-90820006D01*
X129957519Y-90533011D01*
X129784936Y-90274721D01*
X129565279Y-90055064D01*
X129306989Y-89882481D01*
X129019994Y-89763604D01*
X128715321Y-89703000D01*
X128404679Y-89703000D01*
X128100006Y-89763604D01*
X127813011Y-89882481D01*
X127554721Y-90055064D01*
X127335064Y-90274721D01*
X127162481Y-90533011D01*
X127043604Y-90820006D01*
X126983000Y-91124679D01*
X73431107Y-91124679D01*
X73395904Y-90835296D01*
X73270795Y-90454460D01*
X73125770Y-90183135D01*
X72820447Y-90039158D01*
X71579605Y-91280000D01*
X71220395Y-91280000D01*
X69979553Y-90039158D01*
X69674230Y-90183135D01*
X69493403Y-90540892D01*
X69385845Y-90927053D01*
X69355690Y-91326777D01*
X50705048Y-91326777D01*
X50447438Y-91061669D01*
X50447438Y-89859553D01*
X70159158Y-89859553D01*
X71400000Y-91100395D01*
X72640842Y-89859553D01*
X72496865Y-89554230D01*
X72139108Y-89373403D01*
X71752947Y-89265845D01*
X71353223Y-89235690D01*
X70955296Y-89284096D01*
X70574460Y-89409205D01*
X70303135Y-89554230D01*
X70159158Y-89859553D01*
X50447438Y-89859553D01*
X50447438Y-71807221D01*
X50449535Y-71724272D01*
X50455237Y-71649288D01*
X50464606Y-71575557D01*
X50476390Y-71509574D01*
X50514238Y-71362378D01*
X50563615Y-71227468D01*
X50625508Y-71098985D01*
X50699244Y-70977613D01*
X50784086Y-70864155D01*
X50879297Y-70759397D01*
X50984045Y-70664195D01*
X51097514Y-70579344D01*
X51218885Y-70505610D01*
X51347366Y-70443717D01*
X51482274Y-70394340D01*
X51629473Y-70356491D01*
X51695454Y-70344708D01*
X51769186Y-70335339D01*
X51844170Y-70329637D01*
X51927119Y-70327540D01*
X79514927Y-70327540D01*
X79521611Y-70326885D01*
X79528308Y-70327370D01*
X79535662Y-70327132D01*
X79693828Y-70320904D01*
X79710727Y-70318573D01*
X79727791Y-70318466D01*
X79735104Y-70317651D01*
X79890531Y-70299234D01*
X79907059Y-70295613D01*
X79923931Y-70294187D01*
X79931158Y-70292804D01*
X80083288Y-70262597D01*
X80099348Y-70257739D01*
X80115915Y-70255034D01*
X80123013Y-70253095D01*
X80271282Y-70211495D01*
X80286788Y-70205458D01*
X80302958Y-70201521D01*
X80309886Y-70199043D01*
X80453734Y-70146449D01*
X80468619Y-70139291D01*
X80484321Y-70134168D01*
X80491040Y-70131167D01*
X80629904Y-70067978D01*
X80644112Y-70059753D01*
X80659291Y-70053487D01*
X80665761Y-70049984D01*
X80799081Y-69976599D01*
X80812577Y-69967348D01*
X80827184Y-69959975D01*
X80833371Y-69955990D01*
X80960583Y-69872805D01*
X80973316Y-69862574D01*
X80987306Y-69854126D01*
X80993173Y-69849685D01*
X81113716Y-69757100D01*
X81125652Y-69745920D01*
X81138978Y-69736423D01*
X81144491Y-69731549D01*
X81257804Y-69629964D01*
X81268901Y-69617864D01*
X81281512Y-69607342D01*
X81286638Y-69602064D01*
X81392159Y-69491876D01*
X81402363Y-69478890D01*
X81414202Y-69467368D01*
X81418909Y-69461712D01*
X81516076Y-69343319D01*
X81525324Y-69329492D01*
X81536323Y-69317001D01*
X81540581Y-69311001D01*
X81628834Y-69184802D01*
X81637062Y-69170178D01*
X81647145Y-69156761D01*
X81650926Y-69150449D01*
X81729701Y-69016843D01*
X81736834Y-69001494D01*
X81745919Y-68987205D01*
X81749196Y-68980617D01*
X81817931Y-68840003D01*
X81823892Y-68824018D01*
X81831887Y-68808948D01*
X81834637Y-68802123D01*
X81892773Y-68654898D01*
X81894618Y-68648442D01*
X81897530Y-68642389D01*
X81900010Y-68635461D01*
X86279522Y-56124588D01*
X124724886Y-56124588D01*
X124724886Y-63124591D01*
X124726471Y-63140759D01*
X124725883Y-63157002D01*
X124726387Y-63164342D01*
X124732147Y-63240488D01*
X124740593Y-63288750D01*
X124748607Y-63337151D01*
X124749857Y-63341687D01*
X124749877Y-63341801D01*
X124749917Y-63341905D01*
X124750562Y-63344245D01*
X124784092Y-63462722D01*
X124787573Y-63471604D01*
X124789601Y-63480928D01*
X124806316Y-63519424D01*
X124821624Y-63558482D01*
X124826763Y-63566518D01*
X124830564Y-63575271D01*
X124834184Y-63581677D01*
X124894221Y-63686211D01*
X124898936Y-63692828D01*
X124902503Y-63700132D01*
X124928755Y-63734679D01*
X124953905Y-63769976D01*
X124959812Y-63775548D01*
X124964732Y-63782023D01*
X124969772Y-63787384D01*
X125052391Y-63874048D01*
X125058433Y-63879258D01*
X125063536Y-63885391D01*
X125097338Y-63912803D01*
X125130287Y-63941212D01*
X125137224Y-63945148D01*
X125143422Y-63950174D01*
X125149590Y-63954185D01*
X125250864Y-64019052D01*
X125259051Y-64023231D01*
X125266466Y-64028667D01*
X125304809Y-64046586D01*
X125342474Y-64065810D01*
X125351311Y-64068317D01*
X125359645Y-64072212D01*
X125366601Y-64074613D01*
X125482603Y-64113759D01*
X125486615Y-64114689D01*
X125490390Y-64116319D01*
X125536683Y-64126291D01*
X125582800Y-64136978D01*
X125586909Y-64137111D01*
X125590936Y-64137978D01*
X125598252Y-64138767D01*
X125699021Y-64148925D01*
X125721839Y-64148987D01*
X125744516Y-64151531D01*
X125751874Y-64151582D01*
X130151864Y-64151604D01*
X130168041Y-64150018D01*
X130184291Y-64150606D01*
X130191632Y-64150102D01*
X130267778Y-64144340D01*
X130316066Y-64135888D01*
X130364434Y-64127879D01*
X130368968Y-64126630D01*
X130369091Y-64126608D01*
X130369203Y-64126565D01*
X130371528Y-64125924D01*
X130490007Y-64092392D01*
X130498888Y-64088911D01*
X130508217Y-64086882D01*
X130546717Y-64070164D01*
X130585767Y-64054859D01*
X130593804Y-64049718D01*
X130602559Y-64045917D01*
X130608965Y-64042297D01*
X130713503Y-63982255D01*
X130720119Y-63977541D01*
X130727416Y-63973977D01*
X130761948Y-63947736D01*
X130797267Y-63922570D01*
X130802839Y-63916663D01*
X130809307Y-63911748D01*
X130814668Y-63906708D01*
X130901336Y-63824084D01*
X130906541Y-63818048D01*
X130912674Y-63812945D01*
X130940101Y-63779125D01*
X130968500Y-63746188D01*
X130972432Y-63739257D01*
X130977458Y-63733060D01*
X130981470Y-63726891D01*
X131046342Y-63625612D01*
X131050521Y-63617425D01*
X131055956Y-63610012D01*
X131073870Y-63571679D01*
X131093101Y-63534003D01*
X131095610Y-63525162D01*
X131099502Y-63516833D01*
X131101903Y-63509878D01*
X131141052Y-63393873D01*
X131141981Y-63389864D01*
X131143614Y-63386083D01*
X131153589Y-63339776D01*
X131164273Y-63293676D01*
X131164406Y-63289563D01*
X131165273Y-63285537D01*
X131166062Y-63278221D01*
X131176221Y-63177452D01*
X131176283Y-63154635D01*
X131178828Y-63131949D01*
X131178879Y-63124591D01*
X131178879Y-56124588D01*
X131177293Y-56108412D01*
X131177881Y-56092162D01*
X131177376Y-56084821D01*
X131171614Y-56008680D01*
X131163168Y-55960424D01*
X131155152Y-55912019D01*
X131153903Y-55907488D01*
X131153882Y-55907367D01*
X131153839Y-55907257D01*
X131153197Y-55904926D01*
X131119665Y-55786453D01*
X131116184Y-55777572D01*
X131114155Y-55768244D01*
X131097437Y-55729743D01*
X131082131Y-55690693D01*
X131076991Y-55682657D01*
X131073190Y-55673903D01*
X131069569Y-55667497D01*
X131009528Y-55562963D01*
X131004818Y-55556352D01*
X131001253Y-55549054D01*
X130974994Y-55514498D01*
X130949842Y-55479199D01*
X130943942Y-55473633D01*
X130939025Y-55467163D01*
X130933984Y-55461803D01*
X130851364Y-55375137D01*
X130845327Y-55369932D01*
X130840229Y-55363804D01*
X130806424Y-55336388D01*
X130773468Y-55307973D01*
X130766537Y-55304041D01*
X130760345Y-55299019D01*
X130754177Y-55295008D01*
X130652903Y-55230137D01*
X130644718Y-55225959D01*
X130637300Y-55220520D01*
X130598961Y-55202603D01*
X130561294Y-55183376D01*
X130552450Y-55180867D01*
X130544121Y-55176974D01*
X130537166Y-55174572D01*
X130421167Y-55135424D01*
X130417152Y-55134494D01*
X130413372Y-55132861D01*
X130367108Y-55122895D01*
X130320970Y-55112202D01*
X130316851Y-55112069D01*
X130312826Y-55111202D01*
X130305510Y-55110413D01*
X130204748Y-55100255D01*
X130181932Y-55100193D01*
X130159246Y-55097648D01*
X130151888Y-55097597D01*
X125751877Y-55097597D01*
X125735710Y-55099182D01*
X125719465Y-55098594D01*
X125712124Y-55099098D01*
X125635982Y-55104859D01*
X125587718Y-55113305D01*
X125539316Y-55121320D01*
X125534788Y-55122567D01*
X125534669Y-55122588D01*
X125534561Y-55122630D01*
X125532222Y-55123274D01*
X125413749Y-55156804D01*
X125404867Y-55160285D01*
X125395548Y-55162312D01*
X125357060Y-55179023D01*
X125317989Y-55194337D01*
X125309953Y-55199477D01*
X125301205Y-55203275D01*
X125294799Y-55206895D01*
X125190265Y-55266932D01*
X125183650Y-55271645D01*
X125176349Y-55275211D01*
X125141798Y-55301465D01*
X125106500Y-55326616D01*
X125100931Y-55332520D01*
X125094457Y-55337439D01*
X125089096Y-55342479D01*
X125002430Y-55425098D01*
X124997222Y-55431138D01*
X124991093Y-55436237D01*
X124963677Y-55470043D01*
X124935266Y-55502993D01*
X124931333Y-55509925D01*
X124926308Y-55516121D01*
X124922297Y-55522289D01*
X124857426Y-55623563D01*
X124853246Y-55631751D01*
X124847807Y-55639170D01*
X124829888Y-55677513D01*
X124810665Y-55715172D01*
X124808156Y-55724013D01*
X124804261Y-55732348D01*
X124801860Y-55739304D01*
X124762712Y-55855306D01*
X124761782Y-55859320D01*
X124760149Y-55863101D01*
X124750176Y-55909398D01*
X124739491Y-55955503D01*
X124739358Y-55959616D01*
X124738490Y-55963647D01*
X124737701Y-55970962D01*
X124727543Y-56071732D01*
X124727481Y-56094551D01*
X124724937Y-56117230D01*
X124724886Y-56124588D01*
X86279522Y-56124588D01*
X87890444Y-51522697D01*
X87937160Y-51404384D01*
X87987758Y-51300871D01*
X88045702Y-51202594D01*
X88110603Y-51109785D01*
X88182095Y-51022676D01*
X88259783Y-50941551D01*
X88343238Y-50866733D01*
X88432058Y-50798515D01*
X88525778Y-50737231D01*
X88623981Y-50683175D01*
X88726213Y-50636656D01*
X88832048Y-50597962D01*
X88941107Y-50567365D01*
X89052990Y-50545150D01*
X89167396Y-50531597D01*
X89294516Y-50526595D01*
X148013913Y-50526617D01*
G37*
X148013913Y-50526617D02*
X148096861Y-50528714D01*
X148171845Y-50534416D01*
X148245576Y-50543785D01*
X148311559Y-50555569D01*
X148458755Y-50593417D01*
X148593664Y-50642794D01*
X148722145Y-50704687D01*
X148843520Y-50778423D01*
X148956978Y-50863265D01*
X149061736Y-50958476D01*
X149156940Y-51063226D01*
X149241789Y-51176694D01*
X149315523Y-51298065D01*
X149377416Y-51426546D01*
X149426793Y-51561454D01*
X149464642Y-51708656D01*
X149476425Y-51774633D01*
X149485794Y-51848365D01*
X149491496Y-51923349D01*
X149493594Y-52006305D01*
X149493594Y-77940526D01*
X149498435Y-77989901D01*
X149502929Y-78039276D01*
X149503451Y-78041048D01*
X149503631Y-78042888D01*
X149517968Y-78090374D01*
X149531968Y-78137944D01*
X149532824Y-78139582D01*
X149533358Y-78141350D01*
X149556611Y-78185082D01*
X149576833Y-78223763D01*
X149572859Y-78233357D01*
X149543000Y-78383472D01*
X149543000Y-78536528D01*
X149572859Y-78686643D01*
X149631431Y-78828048D01*
X149656133Y-78865017D01*
X149621431Y-78916952D01*
X149562859Y-79058357D01*
X149533000Y-79208472D01*
X149533000Y-79361528D01*
X149562859Y-79511643D01*
X149621431Y-79653048D01*
X149651133Y-79697500D01*
X149621431Y-79741952D01*
X149562859Y-79883357D01*
X149533000Y-80033472D01*
X149533000Y-80186528D01*
X149562859Y-80336643D01*
X149621431Y-80478048D01*
X149651133Y-80522500D01*
X149621431Y-80566952D01*
X149562859Y-80708357D01*
X149533000Y-80858472D01*
X149533000Y-81011528D01*
X149562859Y-81161643D01*
X149621431Y-81303048D01*
X149651133Y-81347500D01*
X149621431Y-81391952D01*
X149562859Y-81533357D01*
X149533000Y-81683472D01*
X149533000Y-81836528D01*
X149562859Y-81986643D01*
X149621431Y-82128048D01*
X149651133Y-82172500D01*
X149621431Y-82216952D01*
X149562859Y-82358357D01*
X149533000Y-82508472D01*
X149533000Y-82661528D01*
X149562859Y-82811643D01*
X149621431Y-82953048D01*
X149651133Y-82997500D01*
X149621431Y-83041952D01*
X149562859Y-83183357D01*
X149533000Y-83333472D01*
X149533000Y-83486528D01*
X149562859Y-83636643D01*
X149621431Y-83778048D01*
X149651133Y-83822500D01*
X149621431Y-83866952D01*
X149562859Y-84008357D01*
X149533000Y-84158472D01*
X149533000Y-84311528D01*
X149562859Y-84461643D01*
X149621431Y-84603048D01*
X149651133Y-84647500D01*
X149621431Y-84691952D01*
X149562859Y-84833357D01*
X149533000Y-84983472D01*
X149533000Y-85136528D01*
X149562859Y-85286643D01*
X149565726Y-85293563D01*
X149531355Y-85357867D01*
X149501220Y-85457207D01*
X149491045Y-85560517D01*
X149493595Y-85586408D01*
X149493594Y-91111978D01*
X148698318Y-91980685D01*
X148687226Y-91989788D01*
X148663344Y-92018889D01*
X148655486Y-92027472D01*
X148646929Y-92038891D01*
X148621370Y-92070034D01*
X148615851Y-92080359D01*
X148608827Y-92089732D01*
X148591419Y-92126069D01*
X148572435Y-92161586D01*
X148569036Y-92172791D01*
X148563976Y-92183353D01*
X148553992Y-92222382D01*
X148542300Y-92260926D01*
X148541152Y-92272577D01*
X148538250Y-92283924D01*
X148536072Y-92324161D01*
X148534674Y-92338355D01*
X148534674Y-92349987D01*
X148532639Y-92387581D01*
X148534674Y-92401787D01*
X148534673Y-109311549D01*
X148532418Y-109328603D01*
X148534673Y-109363313D01*
X148534673Y-109372111D01*
X148536352Y-109389163D01*
X148539148Y-109432193D01*
X148541432Y-109440736D01*
X148542299Y-109449540D01*
X148554821Y-109490819D01*
X148565959Y-109532481D01*
X148569866Y-109540416D01*
X148572434Y-109548880D01*
X148592774Y-109586935D01*
X148611820Y-109625611D01*
X148617196Y-109632625D01*
X148621369Y-109640433D01*
X148648751Y-109673799D01*
X148659148Y-109687364D01*
X148665144Y-109693774D01*
X148687225Y-109720679D01*
X148700531Y-109731599D01*
X149493595Y-110579315D01*
X149493616Y-116014637D01*
X149491066Y-116040526D01*
X149501241Y-116143836D01*
X149531376Y-116243176D01*
X149573459Y-116321909D01*
X149572859Y-116323357D01*
X149543000Y-116473472D01*
X149543000Y-116626528D01*
X149572859Y-116776643D01*
X149631431Y-116918048D01*
X149656133Y-116955017D01*
X149621431Y-117006952D01*
X149562859Y-117148357D01*
X149533000Y-117298472D01*
X149533000Y-117451528D01*
X149562859Y-117601643D01*
X149621431Y-117743048D01*
X149651133Y-117787500D01*
X149621431Y-117831952D01*
X149562859Y-117973357D01*
X149533000Y-118123472D01*
X149533000Y-118276528D01*
X149562859Y-118426643D01*
X149621431Y-118568048D01*
X149651133Y-118612500D01*
X149621431Y-118656952D01*
X149562859Y-118798357D01*
X149533000Y-118948472D01*
X149533000Y-119101528D01*
X149562859Y-119251643D01*
X149621431Y-119393048D01*
X149651133Y-119437500D01*
X149621431Y-119481952D01*
X149562859Y-119623357D01*
X149533000Y-119773472D01*
X149533000Y-119926528D01*
X149562859Y-120076643D01*
X149621431Y-120218048D01*
X149651133Y-120262500D01*
X149621431Y-120306952D01*
X149562859Y-120448357D01*
X149533000Y-120598472D01*
X149533000Y-120751528D01*
X149562859Y-120901643D01*
X149621431Y-121043048D01*
X149651133Y-121087500D01*
X149621431Y-121131952D01*
X149562859Y-121273357D01*
X149533000Y-121423472D01*
X149533000Y-121576528D01*
X149562859Y-121726643D01*
X149621431Y-121868048D01*
X149651133Y-121912500D01*
X149621431Y-121956952D01*
X149562859Y-122098357D01*
X149533000Y-122248472D01*
X149533000Y-122401528D01*
X149562859Y-122551643D01*
X149621431Y-122693048D01*
X149651133Y-122737500D01*
X149621431Y-122781952D01*
X149562859Y-122923357D01*
X149533000Y-123073472D01*
X149533000Y-123226528D01*
X149562859Y-123376643D01*
X149569367Y-123392353D01*
X149560125Y-123409445D01*
X149536230Y-123452911D01*
X149535672Y-123454671D01*
X149534793Y-123456296D01*
X149520126Y-123503679D01*
X149505131Y-123550949D01*
X149504925Y-123552785D01*
X149504379Y-123554549D01*
X149499200Y-123603827D01*
X149493666Y-123653160D01*
X149493641Y-123656711D01*
X149493628Y-123656838D01*
X149493640Y-123656966D01*
X149493615Y-123660518D01*
X149493680Y-148033233D01*
X149491581Y-148116216D01*
X149485876Y-148191220D01*
X149476500Y-148264987D01*
X149464712Y-148330975D01*
X149426840Y-148478220D01*
X149377438Y-148613154D01*
X149315508Y-148741670D01*
X149241738Y-148863057D01*
X149156838Y-148976547D01*
X149061584Y-149081309D01*
X148956784Y-149176513D01*
X148843257Y-149261359D01*
X148721834Y-149335078D01*
X148593295Y-149396949D01*
X148458332Y-149446293D01*
X148311086Y-149484096D01*
X148245068Y-149495858D01*
X148171320Y-149505198D01*
X148096279Y-149510873D01*
X148013358Y-149512933D01*
X88760548Y-149486390D01*
X88675725Y-149484112D01*
X88598494Y-149477954D01*
X88522053Y-149467799D01*
X88446478Y-149453702D01*
X88371949Y-149435734D01*
X88298582Y-149413950D01*
X88226518Y-149388414D01*
X88155931Y-149359200D01*
X88086934Y-149326357D01*
X88019717Y-149289972D01*
X87954387Y-149250090D01*
X87891125Y-149206800D01*
X87830019Y-149160127D01*
X87771273Y-149110182D01*
X87714966Y-149056972D01*
X87656244Y-148995307D01*
X72402789Y-132142197D01*
X72400358Y-132139989D01*
X72398366Y-132137370D01*
X72393323Y-132132011D01*
X72320394Y-132055588D01*
X72312648Y-132048916D01*
X72306032Y-132041108D01*
X72300714Y-132036023D01*
X72224243Y-131963902D01*
X72216192Y-131957674D01*
X72209208Y-131950259D01*
X72203630Y-131945459D01*
X72123811Y-131877729D01*
X72115483Y-131871959D01*
X72108164Y-131864960D01*
X72102343Y-131860458D01*
X72019370Y-131797204D01*
X72010791Y-131791901D01*
X72003146Y-131785318D01*
X71997099Y-131781126D01*
X71911168Y-131722435D01*
X71902356Y-131717604D01*
X71894408Y-131711449D01*
X71888151Y-131707577D01*
X71799457Y-131653535D01*
X71790426Y-131649178D01*
X71782187Y-131643456D01*
X71775738Y-131639914D01*
X71684475Y-131590609D01*
X71675251Y-131586735D01*
X71666743Y-131581458D01*
X71660118Y-131578254D01*
X71566482Y-131533771D01*
X71557070Y-131530381D01*
X71548304Y-131525553D01*
X71541523Y-131522697D01*
X71445708Y-131483124D01*
X71436132Y-131480225D01*
X71427125Y-131475857D01*
X71420205Y-131473356D01*
X71322408Y-131438778D01*
X71312676Y-131436375D01*
X71303439Y-131432473D01*
X71296398Y-131430335D01*
X71196814Y-131400839D01*
X71186945Y-131398939D01*
X71177486Y-131395511D01*
X71170344Y-131393742D01*
X71069166Y-131369416D01*
X71059180Y-131368027D01*
X71049530Y-131365089D01*
X71042305Y-131363694D01*
X70939729Y-131344622D01*
X70929639Y-131343751D01*
X70919802Y-131341310D01*
X70912515Y-131340294D01*
X70808736Y-131326564D01*
X70798559Y-131326220D01*
X70788564Y-131324290D01*
X70781233Y-131323658D01*
X70676445Y-131315357D01*
X70666221Y-131315548D01*
X70656081Y-131314139D01*
X70648727Y-131313894D01*
X70543128Y-131311108D01*
X70539852Y-131311342D01*
X70536588Y-131310976D01*
X70529230Y-131310925D01*
X51930433Y-131310903D01*
X51846870Y-131308947D01*
X51771766Y-131303374D01*
X51697921Y-131294123D01*
X51631842Y-131282437D01*
X51484400Y-131244777D01*
X51349266Y-131195543D01*
X51220541Y-131133748D01*
X51098935Y-131060075D01*
X50985243Y-130975257D01*
X50880272Y-130880046D01*
X50784857Y-130775252D01*
X50699817Y-130661718D01*
X50625914Y-130540256D01*
X50563876Y-130411657D01*
X50514380Y-130276611D01*
X50476439Y-130129244D01*
X50464630Y-130063204D01*
X50455233Y-129989346D01*
X50449517Y-129914263D01*
X50447416Y-129831241D01*
X50447427Y-127224679D01*
X69823000Y-127224679D01*
X69823000Y-127535321D01*
X69883604Y-127839994D01*
X70002481Y-128126989D01*
X70175064Y-128385279D01*
X70394721Y-128604936D01*
X70653011Y-128777519D01*
X70940006Y-128896396D01*
X71244679Y-128957000D01*
X71555321Y-128957000D01*
X71859994Y-128896396D01*
X72146989Y-128777519D01*
X72405279Y-128604936D01*
X72624936Y-128385279D01*
X72797519Y-128126989D01*
X72916396Y-127839994D01*
X72977000Y-127535321D01*
X72977000Y-127224679D01*
X126973000Y-127224679D01*
X126973000Y-127535321D01*
X127033604Y-127839994D01*
X127152481Y-128126989D01*
X127325064Y-128385279D01*
X127544721Y-128604936D01*
X127803011Y-128777519D01*
X128090006Y-128896396D01*
X128394679Y-128957000D01*
X128705321Y-128957000D01*
X129009994Y-128896396D01*
X129296989Y-128777519D01*
X129555279Y-128604936D01*
X129774936Y-128385279D01*
X129947519Y-128126989D01*
X130066396Y-127839994D01*
X130127000Y-127535321D01*
X130127000Y-127224679D01*
X130066396Y-126920006D01*
X129947519Y-126633011D01*
X129774936Y-126374721D01*
X129555279Y-126155064D01*
X129296989Y-125982481D01*
X129009994Y-125863604D01*
X128705321Y-125803000D01*
X128394679Y-125803000D01*
X128090006Y-125863604D01*
X127803011Y-125982481D01*
X127544721Y-126155064D01*
X127325064Y-126374721D01*
X127152481Y-126633011D01*
X127033604Y-126920006D01*
X126973000Y-127224679D01*
X72977000Y-127224679D01*
X72916396Y-126920006D01*
X72797519Y-126633011D01*
X72624936Y-126374721D01*
X72405279Y-126155064D01*
X72146989Y-125982481D01*
X71859994Y-125863604D01*
X71555321Y-125803000D01*
X71244679Y-125803000D01*
X70940006Y-125863604D01*
X70653011Y-125982481D01*
X70394721Y-126155064D01*
X70175064Y-126374721D01*
X70002481Y-126633011D01*
X69883604Y-126920006D01*
X69823000Y-127224679D01*
X50447427Y-127224679D01*
X50447501Y-110547199D01*
X51312232Y-109676321D01*
X51342396Y-109639333D01*
X51373104Y-109602736D01*
X51374891Y-109599485D01*
X51377234Y-109596612D01*
X51399652Y-109554444D01*
X51422653Y-109512605D01*
X51423774Y-109509073D01*
X51425515Y-109505797D01*
X51439311Y-109460094D01*
X51453753Y-109414567D01*
X51454167Y-109410879D01*
X51455237Y-109407333D01*
X51459890Y-109359852D01*
X51465218Y-109312356D01*
X51465269Y-109304998D01*
X51465269Y-92700447D01*
X70159158Y-92700447D01*
X70303135Y-93005770D01*
X70660892Y-93186597D01*
X71047053Y-93294155D01*
X71446777Y-93324310D01*
X71844704Y-93275904D01*
X72225540Y-93150795D01*
X72496865Y-93005770D01*
X72640842Y-92700447D01*
X71400000Y-91459605D01*
X70159158Y-92700447D01*
X51465269Y-92700447D01*
X51465269Y-92323003D01*
X51460888Y-92278326D01*
X51457614Y-92233502D01*
X51455872Y-92227169D01*
X51455232Y-92220641D01*
X51442251Y-92177645D01*
X51430338Y-92134332D01*
X51427403Y-92128465D01*
X51425505Y-92122179D01*
X51404414Y-92082514D01*
X51384320Y-92042348D01*
X51380298Y-92037159D01*
X51377218Y-92031366D01*
X51348845Y-91996577D01*
X51321313Y-91961054D01*
X51316222Y-91955742D01*
X50705048Y-91326777D01*
X69355690Y-91326777D01*
X69404096Y-91724704D01*
X69529205Y-92105540D01*
X69674230Y-92376865D01*
X69979553Y-92520842D01*
X71220395Y-91280000D01*
X71579605Y-91280000D01*
X72820447Y-92520842D01*
X73125770Y-92376865D01*
X73306597Y-92019108D01*
X73414155Y-91632947D01*
X73444310Y-91233223D01*
X73431107Y-91124679D01*
X126983000Y-91124679D01*
X126983000Y-91435321D01*
X127043604Y-91739994D01*
X127162481Y-92026989D01*
X127335064Y-92285279D01*
X127554721Y-92504936D01*
X127813011Y-92677519D01*
X128100006Y-92796396D01*
X128404679Y-92857000D01*
X128715321Y-92857000D01*
X129019994Y-92796396D01*
X129306989Y-92677519D01*
X129565279Y-92504936D01*
X129784936Y-92285279D01*
X129957519Y-92026989D01*
X130076396Y-91739994D01*
X130137000Y-91435321D01*
X130137000Y-91124679D01*
X130076396Y-90820006D01*
X129957519Y-90533011D01*
X129784936Y-90274721D01*
X129565279Y-90055064D01*
X129306989Y-89882481D01*
X129019994Y-89763604D01*
X128715321Y-89703000D01*
X128404679Y-89703000D01*
X128100006Y-89763604D01*
X127813011Y-89882481D01*
X127554721Y-90055064D01*
X127335064Y-90274721D01*
X127162481Y-90533011D01*
X127043604Y-90820006D01*
X126983000Y-91124679D01*
X73431107Y-91124679D01*
X73395904Y-90835296D01*
X73270795Y-90454460D01*
X73125770Y-90183135D01*
X72820447Y-90039158D01*
X71579605Y-91280000D01*
X71220395Y-91280000D01*
X69979553Y-90039158D01*
X69674230Y-90183135D01*
X69493403Y-90540892D01*
X69385845Y-90927053D01*
X69355690Y-91326777D01*
X50705048Y-91326777D01*
X50447438Y-91061669D01*
X50447438Y-89859553D01*
X70159158Y-89859553D01*
X71400000Y-91100395D01*
X72640842Y-89859553D01*
X72496865Y-89554230D01*
X72139108Y-89373403D01*
X71752947Y-89265845D01*
X71353223Y-89235690D01*
X70955296Y-89284096D01*
X70574460Y-89409205D01*
X70303135Y-89554230D01*
X70159158Y-89859553D01*
X50447438Y-89859553D01*
X50447438Y-71807221D01*
X50449535Y-71724272D01*
X50455237Y-71649288D01*
X50464606Y-71575557D01*
X50476390Y-71509574D01*
X50514238Y-71362378D01*
X50563615Y-71227468D01*
X50625508Y-71098985D01*
X50699244Y-70977613D01*
X50784086Y-70864155D01*
X50879297Y-70759397D01*
X50984045Y-70664195D01*
X51097514Y-70579344D01*
X51218885Y-70505610D01*
X51347366Y-70443717D01*
X51482274Y-70394340D01*
X51629473Y-70356491D01*
X51695454Y-70344708D01*
X51769186Y-70335339D01*
X51844170Y-70329637D01*
X51927119Y-70327540D01*
X79514927Y-70327540D01*
X79521611Y-70326885D01*
X79528308Y-70327370D01*
X79535662Y-70327132D01*
X79693828Y-70320904D01*
X79710727Y-70318573D01*
X79727791Y-70318466D01*
X79735104Y-70317651D01*
X79890531Y-70299234D01*
X79907059Y-70295613D01*
X79923931Y-70294187D01*
X79931158Y-70292804D01*
X80083288Y-70262597D01*
X80099348Y-70257739D01*
X80115915Y-70255034D01*
X80123013Y-70253095D01*
X80271282Y-70211495D01*
X80286788Y-70205458D01*
X80302958Y-70201521D01*
X80309886Y-70199043D01*
X80453734Y-70146449D01*
X80468619Y-70139291D01*
X80484321Y-70134168D01*
X80491040Y-70131167D01*
X80629904Y-70067978D01*
X80644112Y-70059753D01*
X80659291Y-70053487D01*
X80665761Y-70049984D01*
X80799081Y-69976599D01*
X80812577Y-69967348D01*
X80827184Y-69959975D01*
X80833371Y-69955990D01*
X80960583Y-69872805D01*
X80973316Y-69862574D01*
X80987306Y-69854126D01*
X80993173Y-69849685D01*
X81113716Y-69757100D01*
X81125652Y-69745920D01*
X81138978Y-69736423D01*
X81144491Y-69731549D01*
X81257804Y-69629964D01*
X81268901Y-69617864D01*
X81281512Y-69607342D01*
X81286638Y-69602064D01*
X81392159Y-69491876D01*
X81402363Y-69478890D01*
X81414202Y-69467368D01*
X81418909Y-69461712D01*
X81516076Y-69343319D01*
X81525324Y-69329492D01*
X81536323Y-69317001D01*
X81540581Y-69311001D01*
X81628834Y-69184802D01*
X81637062Y-69170178D01*
X81647145Y-69156761D01*
X81650926Y-69150449D01*
X81729701Y-69016843D01*
X81736834Y-69001494D01*
X81745919Y-68987205D01*
X81749196Y-68980617D01*
X81817931Y-68840003D01*
X81823892Y-68824018D01*
X81831887Y-68808948D01*
X81834637Y-68802123D01*
X81892773Y-68654898D01*
X81894618Y-68648442D01*
X81897530Y-68642389D01*
X81900010Y-68635461D01*
X86279522Y-56124588D01*
X124724886Y-56124588D01*
X124724886Y-63124591D01*
X124726471Y-63140759D01*
X124725883Y-63157002D01*
X124726387Y-63164342D01*
X124732147Y-63240488D01*
X124740593Y-63288750D01*
X124748607Y-63337151D01*
X124749857Y-63341687D01*
X124749877Y-63341801D01*
X124749917Y-63341905D01*
X124750562Y-63344245D01*
X124784092Y-63462722D01*
X124787573Y-63471604D01*
X124789601Y-63480928D01*
X124806316Y-63519424D01*
X124821624Y-63558482D01*
X124826763Y-63566518D01*
X124830564Y-63575271D01*
X124834184Y-63581677D01*
X124894221Y-63686211D01*
X124898936Y-63692828D01*
X124902503Y-63700132D01*
X124928755Y-63734679D01*
X124953905Y-63769976D01*
X124959812Y-63775548D01*
X124964732Y-63782023D01*
X124969772Y-63787384D01*
X125052391Y-63874048D01*
X125058433Y-63879258D01*
X125063536Y-63885391D01*
X125097338Y-63912803D01*
X125130287Y-63941212D01*
X125137224Y-63945148D01*
X125143422Y-63950174D01*
X125149590Y-63954185D01*
X125250864Y-64019052D01*
X125259051Y-64023231D01*
X125266466Y-64028667D01*
X125304809Y-64046586D01*
X125342474Y-64065810D01*
X125351311Y-64068317D01*
X125359645Y-64072212D01*
X125366601Y-64074613D01*
X125482603Y-64113759D01*
X125486615Y-64114689D01*
X125490390Y-64116319D01*
X125536683Y-64126291D01*
X125582800Y-64136978D01*
X125586909Y-64137111D01*
X125590936Y-64137978D01*
X125598252Y-64138767D01*
X125699021Y-64148925D01*
X125721839Y-64148987D01*
X125744516Y-64151531D01*
X125751874Y-64151582D01*
X130151864Y-64151604D01*
X130168041Y-64150018D01*
X130184291Y-64150606D01*
X130191632Y-64150102D01*
X130267778Y-64144340D01*
X130316066Y-64135888D01*
X130364434Y-64127879D01*
X130368968Y-64126630D01*
X130369091Y-64126608D01*
X130369203Y-64126565D01*
X130371528Y-64125924D01*
X130490007Y-64092392D01*
X130498888Y-64088911D01*
X130508217Y-64086882D01*
X130546717Y-64070164D01*
X130585767Y-64054859D01*
X130593804Y-64049718D01*
X130602559Y-64045917D01*
X130608965Y-64042297D01*
X130713503Y-63982255D01*
X130720119Y-63977541D01*
X130727416Y-63973977D01*
X130761948Y-63947736D01*
X130797267Y-63922570D01*
X130802839Y-63916663D01*
X130809307Y-63911748D01*
X130814668Y-63906708D01*
X130901336Y-63824084D01*
X130906541Y-63818048D01*
X130912674Y-63812945D01*
X130940101Y-63779125D01*
X130968500Y-63746188D01*
X130972432Y-63739257D01*
X130977458Y-63733060D01*
X130981470Y-63726891D01*
X131046342Y-63625612D01*
X131050521Y-63617425D01*
X131055956Y-63610012D01*
X131073870Y-63571679D01*
X131093101Y-63534003D01*
X131095610Y-63525162D01*
X131099502Y-63516833D01*
X131101903Y-63509878D01*
X131141052Y-63393873D01*
X131141981Y-63389864D01*
X131143614Y-63386083D01*
X131153589Y-63339776D01*
X131164273Y-63293676D01*
X131164406Y-63289563D01*
X131165273Y-63285537D01*
X131166062Y-63278221D01*
X131176221Y-63177452D01*
X131176283Y-63154635D01*
X131178828Y-63131949D01*
X131178879Y-63124591D01*
X131178879Y-56124588D01*
X131177293Y-56108412D01*
X131177881Y-56092162D01*
X131177376Y-56084821D01*
X131171614Y-56008680D01*
X131163168Y-55960424D01*
X131155152Y-55912019D01*
X131153903Y-55907488D01*
X131153882Y-55907367D01*
X131153839Y-55907257D01*
X131153197Y-55904926D01*
X131119665Y-55786453D01*
X131116184Y-55777572D01*
X131114155Y-55768244D01*
X131097437Y-55729743D01*
X131082131Y-55690693D01*
X131076991Y-55682657D01*
X131073190Y-55673903D01*
X131069569Y-55667497D01*
X131009528Y-55562963D01*
X131004818Y-55556352D01*
X131001253Y-55549054D01*
X130974994Y-55514498D01*
X130949842Y-55479199D01*
X130943942Y-55473633D01*
X130939025Y-55467163D01*
X130933984Y-55461803D01*
X130851364Y-55375137D01*
X130845327Y-55369932D01*
X130840229Y-55363804D01*
X130806424Y-55336388D01*
X130773468Y-55307973D01*
X130766537Y-55304041D01*
X130760345Y-55299019D01*
X130754177Y-55295008D01*
X130652903Y-55230137D01*
X130644718Y-55225959D01*
X130637300Y-55220520D01*
X130598961Y-55202603D01*
X130561294Y-55183376D01*
X130552450Y-55180867D01*
X130544121Y-55176974D01*
X130537166Y-55174572D01*
X130421167Y-55135424D01*
X130417152Y-55134494D01*
X130413372Y-55132861D01*
X130367108Y-55122895D01*
X130320970Y-55112202D01*
X130316851Y-55112069D01*
X130312826Y-55111202D01*
X130305510Y-55110413D01*
X130204748Y-55100255D01*
X130181932Y-55100193D01*
X130159246Y-55097648D01*
X130151888Y-55097597D01*
X125751877Y-55097597D01*
X125735710Y-55099182D01*
X125719465Y-55098594D01*
X125712124Y-55099098D01*
X125635982Y-55104859D01*
X125587718Y-55113305D01*
X125539316Y-55121320D01*
X125534788Y-55122567D01*
X125534669Y-55122588D01*
X125534561Y-55122630D01*
X125532222Y-55123274D01*
X125413749Y-55156804D01*
X125404867Y-55160285D01*
X125395548Y-55162312D01*
X125357060Y-55179023D01*
X125317989Y-55194337D01*
X125309953Y-55199477D01*
X125301205Y-55203275D01*
X125294799Y-55206895D01*
X125190265Y-55266932D01*
X125183650Y-55271645D01*
X125176349Y-55275211D01*
X125141798Y-55301465D01*
X125106500Y-55326616D01*
X125100931Y-55332520D01*
X125094457Y-55337439D01*
X125089096Y-55342479D01*
X125002430Y-55425098D01*
X124997222Y-55431138D01*
X124991093Y-55436237D01*
X124963677Y-55470043D01*
X124935266Y-55502993D01*
X124931333Y-55509925D01*
X124926308Y-55516121D01*
X124922297Y-55522289D01*
X124857426Y-55623563D01*
X124853246Y-55631751D01*
X124847807Y-55639170D01*
X124829888Y-55677513D01*
X124810665Y-55715172D01*
X124808156Y-55724013D01*
X124804261Y-55732348D01*
X124801860Y-55739304D01*
X124762712Y-55855306D01*
X124761782Y-55859320D01*
X124760149Y-55863101D01*
X124750176Y-55909398D01*
X124739491Y-55955503D01*
X124739358Y-55959616D01*
X124738490Y-55963647D01*
X124737701Y-55970962D01*
X124727543Y-56071732D01*
X124727481Y-56094551D01*
X124724937Y-56117230D01*
X124724886Y-56124588D01*
X86279522Y-56124588D01*
X87890444Y-51522697D01*
X87937160Y-51404384D01*
X87987758Y-51300871D01*
X88045702Y-51202594D01*
X88110603Y-51109785D01*
X88182095Y-51022676D01*
X88259783Y-50941551D01*
X88343238Y-50866733D01*
X88432058Y-50798515D01*
X88525778Y-50737231D01*
X88623981Y-50683175D01*
X88726213Y-50636656D01*
X88832048Y-50597962D01*
X88941107Y-50567365D01*
X89052990Y-50545150D01*
X89167396Y-50531597D01*
X89294516Y-50526595D01*
X148013913Y-50526617D01*
M02*
