<?xml version="1.0" encoding="utf-8"?>
<!-- Generator: Adobe Illustrator 24.0.1, SVG Export Plug-In . SVG Version: 6.00 Build 0)  -->
<svg version="1.1" xmlns="http://www.w3.org/2000/svg" xmlns:xlink="http://www.w3.org/1999/xlink" x="0px" y="0px"
	 viewBox="0 0 718.84 304.22" style="enable-background:new 0 0 718.84 304.22;" xml:space="preserve">
<style type="text/css">
	.st0{fill:none;stroke:#000000;stroke-width:0.7087;stroke-miterlimit:10;}
	.st1{fill:#E83A19;}
</style>
<g id="cut">
	<path class="st0" d="M7.38,198.48l53.26,9.38c0.72,0.13,1.45,0.11,2.16-0.04l23.86-5.06c0.72-0.15,1.45-0.16,2.17-0.04l63.3,11.3
		c1.35,0.24,2.34,1.42,2.34,2.79v43.26c0,1.57,1.27,2.83,2.83,2.83h49.38c1.17,0,2.22,0.72,2.64,1.81l7.11,18.35
		c0.33,0.84,1.04,1.48,1.91,1.71l71.26,19.08h139.43l71.39-19.08c0.87-0.23,1.58-0.87,1.91-1.71l7.12-18.35
		c0.42-1.09,1.47-1.81,2.64-1.81h49.33c1.57,0,2.83-1.27,2.83-2.83v-43.23c0-1.37,0.98-2.55,2.34-2.79l63.23-11.32
		c0.72-0.13,1.45-0.12,2.17,0.03l23.98,5.06c0.71,0.15,1.44,0.16,2.15,0.04l53.31-9.38c4.63-0.81,7.72-5.23,6.9-9.86L690.55,31.39
		c-0.72-4.06-4.25-7.02-8.37-7.02l-173.22,0l-50.9,9.02c-0.94,0.17-1.73,0.79-2.11,1.66l-2.35,5.41c-0.38,0.87-1.17,1.49-2.1,1.66
		l-38.84,6.92c-1.54,0.27-3.02-0.75-3.29-2.3L401.6,2.7c-0.27-1.54-1.74-2.57-3.28-2.3L286.54,19.95l2.88,16.34
		c0.41,2.31-1.14,4.52-3.45,4.93l-19.54,3.45c-2.31,0.41-4.52-1.14-4.93-3.45l-2.97-16.84H36.59c-4.13,0-7.66,2.96-8.37,7.03
		L0.48,188.63C-0.33,193.26,2.76,197.67,7.38,198.48z M652.79,185.07c0-1.72,1.4-3.12,3.12-3.12s3.12,1.4,3.12,3.12
		c0,1.72-1.4,3.12-3.12,3.12S652.79,186.79,652.79,185.07z M633.35,78.3c0-1.72,1.4-3.12,3.12-3.12c1.72,0,3.12,1.4,3.12,3.12
		c0,1.72-1.4,3.12-3.12,3.12C634.75,81.42,633.35,80.02,633.35,78.3z M532.97,130.78c0-1.72,1.4-3.12,3.12-3.12
		c1.72,0,3.12,1.4,3.12,3.12c0,1.72-1.4,3.12-3.12,3.12C534.36,133.9,532.97,132.5,532.97,130.78z M486.37,217.03
		c0-1.72,1.4-3.12,3.12-3.12c1.72,0,3.12,1.4,3.12,3.12c0,1.72-1.4,3.12-3.12,3.12C487.76,220.15,486.37,218.76,486.37,217.03z
		 M418.96,106.39c0-1.72,1.4-3.12,3.12-3.12s3.12,1.4,3.12,3.12s-1.4,3.12-3.12,3.12S418.96,108.11,418.96,106.39z M356.31,225.49
		c0-1.72,1.4-3.12,3.12-3.12s3.12,1.4,3.12,3.12c0,1.72-1.4,3.12-3.12,3.12S356.31,227.22,356.31,225.49z M293.61,106.39
		c0-1.72,1.4-3.12,3.12-3.12c1.72,0,3.12,1.4,3.12,3.12c0,1.72-1.4,3.12-3.12,3.12C295.01,109.51,293.61,108.11,293.61,106.39z
		 M226.21,217.03c0-1.72,1.4-3.12,3.12-3.12c1.72,0,3.12,1.4,3.12,3.12c0,1.72-1.4,3.12-3.12,3.12
		C227.61,220.15,226.21,218.75,226.21,217.03z M179.64,130.77c0-1.72,1.4-3.12,3.12-3.12c1.72,0,3.12,1.4,3.12,3.12
		s-1.4,3.12-3.12,3.12C181.03,133.89,179.64,132.5,179.64,130.77z M79.25,78.3c0-1.72,1.4-3.12,3.12-3.12c1.72,0,3.12,1.4,3.12,3.12
		c0,1.72-1.4,3.12-3.12,3.12C80.64,81.41,79.25,80.02,79.25,78.3z M59.8,185.07c0-1.72,1.4-3.12,3.12-3.12
		c1.72,0,3.12,1.4,3.12,3.12c0,1.72-1.4,3.12-3.12,3.12C61.2,188.19,59.8,186.79,59.8,185.07z"/>
</g>
<g id="graving2">
	<g>
		<path class="st1" d="M3,13.92V2.47h4.87c1.22,0,2.11,0.1,2.67,0.31c0.55,0.21,1,0.57,1.33,1.1c0.33,0.53,0.5,1.13,0.5,1.8
			c0,0.86-0.25,1.57-0.76,2.13c-0.51,0.56-1.26,0.91-2.27,1.06c0.5,0.29,0.91,0.61,1.24,0.96c0.33,0.35,0.76,0.97,1.32,1.86
			l1.4,2.23h-2.77l-1.67-2.49c-0.59-0.89-1-1.45-1.22-1.68c-0.22-0.23-0.45-0.39-0.7-0.48C6.7,9.18,6.31,9.14,5.78,9.14H5.31v4.78H3
			z M5.31,7.31h1.71c1.11,0,1.8-0.05,2.08-0.14C9.38,7.07,9.6,6.91,9.75,6.68c0.16-0.23,0.23-0.52,0.23-0.86
			c0-0.39-0.1-0.7-0.31-0.93C9.47,4.65,9.18,4.5,8.81,4.44C8.62,4.42,8.06,4.4,7.12,4.4h-1.8V7.31z"/>
		<path class="st1" d="M19.34,11.28l2.19,0.37c-0.28,0.8-0.73,1.41-1.33,1.83c-0.61,0.42-1.37,0.63-2.28,0.63
			c-1.44,0-2.51-0.47-3.2-1.41c-0.55-0.75-0.82-1.71-0.82-2.86c0-1.38,0.36-2.45,1.08-3.23c0.72-0.78,1.63-1.17,2.73-1.17
			c1.23,0,2.21,0.41,2.92,1.22c0.71,0.82,1.05,2.06,1.02,3.75h-5.5c0.02,0.65,0.19,1.16,0.53,1.52c0.34,0.36,0.76,0.54,1.27,0.54
			c0.34,0,0.63-0.09,0.87-0.28S19.22,11.69,19.34,11.28z M19.46,9.06c-0.02-0.64-0.18-1.12-0.49-1.45c-0.31-0.33-0.69-0.5-1.14-0.5
			c-0.48,0-0.88,0.17-1.19,0.52c-0.31,0.35-0.47,0.82-0.46,1.42H19.46z"/>
		<path class="st1" d="M31.04,13.92H29V12.7c-0.34,0.47-0.74,0.83-1.2,1.06s-0.93,0.35-1.39,0.35c-0.95,0-1.77-0.38-2.45-1.15
			c-0.68-0.77-1.02-1.84-1.02-3.21c0-1.41,0.33-2.48,0.99-3.21c0.66-0.73,1.5-1.1,2.51-1.1c0.93,0,1.73,0.39,2.41,1.16V2.47h2.2
			V13.92z M25.18,9.59c0,0.89,0.12,1.53,0.37,1.92c0.35,0.57,0.85,0.86,1.48,0.86c0.5,0,0.93-0.21,1.29-0.64
			c0.35-0.43,0.53-1.07,0.53-1.93c0-0.95-0.17-1.64-0.52-2.06c-0.34-0.42-0.78-0.63-1.32-0.63c-0.52,0-0.96,0.21-1.31,0.62
			C25.36,8.15,25.18,8.77,25.18,9.59z"/>
		<path class="st1" d="M39.29,8.15L37.3,7.79c0.22-0.8,0.61-1.4,1.16-1.78c0.55-0.39,1.36-0.58,2.44-0.58
			c0.98,0,1.71,0.12,2.19,0.35c0.48,0.23,0.82,0.53,1.01,0.88c0.2,0.36,0.29,1.01,0.29,1.96l-0.02,2.56c0,0.73,0.04,1.27,0.11,1.61
			c0.07,0.35,0.2,0.72,0.39,1.11h-2.17c-0.06-0.15-0.13-0.36-0.21-0.65c-0.04-0.13-0.06-0.22-0.08-0.26
			c-0.38,0.36-0.78,0.64-1.2,0.82c-0.43,0.18-0.88,0.27-1.37,0.27c-0.85,0-1.53-0.23-2.02-0.7c-0.49-0.46-0.74-1.05-0.74-1.76
			c0-0.47,0.11-0.89,0.34-1.25c0.22-0.37,0.54-0.65,0.94-0.84c0.4-0.2,0.99-0.37,1.75-0.51c1.03-0.19,1.74-0.37,2.13-0.54V8.29
			c0-0.42-0.1-0.72-0.31-0.9c-0.21-0.18-0.6-0.27-1.18-0.27c-0.39,0-0.7,0.08-0.91,0.23C39.6,7.5,39.43,7.77,39.29,8.15z
			 M42.23,9.93c-0.28,0.09-0.73,0.21-1.34,0.34c-0.61,0.13-1.01,0.26-1.2,0.38c-0.29,0.2-0.43,0.46-0.43,0.77
			c0,0.31,0.11,0.57,0.34,0.8c0.23,0.22,0.52,0.34,0.88,0.34c0.4,0,0.77-0.13,1.13-0.39c0.27-0.2,0.44-0.44,0.52-0.73
			c0.06-0.19,0.09-0.54,0.09-1.07V9.93z"/>
		<path class="st1" d="M48.65,13.92h-2.2v-8.3h2.04V6.8c0.35-0.56,0.66-0.92,0.94-1.1c0.28-0.18,0.59-0.27,0.95-0.27
			c0.5,0,0.98,0.14,1.45,0.41l-0.68,1.91c-0.37-0.24-0.71-0.36-1.03-0.36c-0.31,0-0.57,0.08-0.78,0.25
			c-0.21,0.17-0.38,0.48-0.5,0.92c-0.12,0.44-0.18,1.37-0.18,2.78V13.92z"/>
		<path class="st1" d="M57.58,11.28l2.19,0.37c-0.28,0.8-0.73,1.41-1.33,1.83c-0.61,0.42-1.37,0.63-2.28,0.63
			c-1.44,0-2.51-0.47-3.2-1.41c-0.55-0.75-0.82-1.71-0.82-2.86c0-1.38,0.36-2.45,1.08-3.23c0.72-0.78,1.63-1.17,2.73-1.17
			c1.23,0,2.21,0.41,2.92,1.22c0.71,0.82,1.05,2.06,1.02,3.75h-5.5c0.02,0.65,0.19,1.16,0.53,1.52c0.34,0.36,0.76,0.54,1.27,0.54
			c0.34,0,0.63-0.09,0.87-0.28S57.46,11.69,57.58,11.28z M57.7,9.06c-0.02-0.64-0.18-1.12-0.49-1.45c-0.31-0.33-0.69-0.5-1.14-0.5
			c-0.48,0-0.88,0.17-1.19,0.52c-0.31,0.35-0.47,0.82-0.46,1.42H57.7z"/>
		<path class="st1" d="M63.31,8.15l-1.99-0.36c0.22-0.8,0.61-1.4,1.16-1.78c0.55-0.39,1.36-0.58,2.44-0.58
			c0.98,0,1.71,0.12,2.19,0.35c0.48,0.23,0.82,0.53,1.01,0.88c0.2,0.36,0.29,1.01,0.29,1.96l-0.02,2.56c0,0.73,0.04,1.27,0.11,1.61
			c0.07,0.35,0.2,0.72,0.39,1.11h-2.17c-0.06-0.15-0.13-0.36-0.21-0.65c-0.04-0.13-0.06-0.22-0.08-0.26
			c-0.38,0.36-0.78,0.64-1.2,0.82c-0.43,0.18-0.88,0.27-1.37,0.27c-0.85,0-1.53-0.23-2.02-0.7c-0.49-0.46-0.74-1.05-0.74-1.76
			c0-0.47,0.11-0.89,0.34-1.25c0.22-0.37,0.54-0.65,0.94-0.84c0.4-0.2,0.99-0.37,1.75-0.51c1.03-0.19,1.74-0.37,2.13-0.54V8.29
			c0-0.42-0.1-0.72-0.31-0.9c-0.21-0.18-0.6-0.27-1.18-0.27c-0.39,0-0.7,0.08-0.91,0.23C63.63,7.5,63.45,7.77,63.31,8.15z
			 M66.25,9.93c-0.28,0.09-0.73,0.21-1.34,0.34c-0.61,0.13-1.01,0.26-1.2,0.38c-0.29,0.2-0.43,0.46-0.43,0.77
			c0,0.31,0.11,0.57,0.34,0.8c0.23,0.22,0.52,0.34,0.88,0.34c0.4,0,0.77-0.13,1.13-0.39c0.27-0.2,0.44-0.44,0.52-0.73
			c0.06-0.19,0.09-0.54,0.09-1.07V9.93z"/>
		<path class="st1" d="M75.02,4.5V2.47h2.2V4.5H75.02z M75.02,13.92v-8.3h2.2v8.3H75.02z"/>
		<path class="st1" d="M78.69,11.55l2.2-0.34c0.09,0.43,0.28,0.75,0.57,0.97c0.29,0.22,0.69,0.33,1.2,0.33
			c0.57,0,0.99-0.1,1.28-0.31c0.19-0.15,0.29-0.34,0.29-0.59c0-0.17-0.05-0.3-0.16-0.41c-0.11-0.1-0.35-0.2-0.73-0.29
			c-1.77-0.39-2.89-0.75-3.37-1.07c-0.66-0.45-0.98-1.07-0.98-1.87c0-0.72,0.28-1.32,0.85-1.81c0.57-0.49,1.45-0.73,2.64-0.73
			c1.14,0,1.98,0.19,2.53,0.55c0.55,0.37,0.93,0.92,1.14,1.64l-2.07,0.38c-0.09-0.32-0.26-0.57-0.5-0.74
			c-0.25-0.17-0.6-0.26-1.06-0.26c-0.58,0-0.99,0.08-1.24,0.24c-0.17,0.11-0.25,0.26-0.25,0.45c0,0.16,0.07,0.29,0.22,0.4
			c0.2,0.15,0.88,0.35,2.05,0.62c1.17,0.27,1.99,0.59,2.45,0.98c0.46,0.39,0.69,0.94,0.69,1.63c0,0.76-0.32,1.41-0.95,1.96
			c-0.64,0.55-1.58,0.82-2.82,0.82c-1.13,0-2.02-0.23-2.68-0.69C79.32,12.96,78.89,12.34,78.69,11.55z"/>
		<path class="st1" d="M98.15,9.71V7.78h4.98v4.56c-0.48,0.47-1.19,0.88-2.11,1.24c-0.92,0.36-1.85,0.54-2.79,0.54
			c-1.2,0-2.24-0.25-3.13-0.75c-0.89-0.5-1.56-1.22-2.01-2.16c-0.45-0.93-0.67-1.95-0.67-3.05c0-1.19,0.25-2.25,0.75-3.18
			c0.5-0.93,1.23-1.64,2.2-2.13c0.73-0.38,1.65-0.57,2.74-0.57c1.42,0,2.53,0.3,3.33,0.89c0.8,0.6,1.31,1.42,1.54,2.47l-2.3,0.43
			c-0.16-0.56-0.46-1.01-0.91-1.33c-0.45-0.33-1-0.49-1.67-0.49c-1.01,0-1.81,0.32-2.41,0.96c-0.6,0.64-0.89,1.59-0.89,2.85
			c0,1.36,0.3,2.38,0.91,3.06c0.6,0.68,1.4,1.02,2.38,1.02c0.48,0,0.97-0.09,1.46-0.29c0.49-0.19,0.9-0.42,1.25-0.69V9.71H98.15z"/>
		<path class="st1" d="M107.35,13.92h-2.2v-8.3h2.04V6.8c0.35-0.56,0.66-0.92,0.94-1.1c0.28-0.18,0.59-0.27,0.95-0.27
			c0.5,0,0.98,0.14,1.45,0.41l-0.68,1.91c-0.37-0.24-0.71-0.36-1.03-0.36c-0.31,0-0.57,0.08-0.78,0.25
			c-0.21,0.17-0.38,0.48-0.5,0.92c-0.12,0.44-0.18,1.37-0.18,2.78V13.92z"/>
		<path class="st1" d="M113.12,8.15l-1.99-0.36c0.22-0.8,0.61-1.4,1.16-1.78c0.55-0.39,1.36-0.58,2.44-0.58
			c0.98,0,1.71,0.12,2.19,0.35c0.48,0.23,0.82,0.53,1.01,0.88c0.2,0.36,0.29,1.01,0.29,1.96l-0.02,2.56c0,0.73,0.04,1.27,0.11,1.61
			c0.07,0.35,0.2,0.72,0.39,1.11h-2.17c-0.06-0.15-0.13-0.36-0.21-0.65c-0.04-0.13-0.06-0.22-0.08-0.26
			c-0.38,0.36-0.78,0.64-1.2,0.82c-0.43,0.18-0.88,0.27-1.37,0.27c-0.85,0-1.53-0.23-2.02-0.7c-0.49-0.46-0.74-1.05-0.74-1.76
			c0-0.47,0.11-0.89,0.34-1.25c0.22-0.37,0.54-0.65,0.94-0.84c0.4-0.2,0.99-0.37,1.75-0.51c1.03-0.19,1.74-0.37,2.13-0.54V8.29
			c0-0.42-0.1-0.72-0.31-0.9c-0.21-0.18-0.6-0.27-1.18-0.27c-0.39,0-0.7,0.08-0.91,0.23C113.43,7.5,113.25,7.77,113.12,8.15z
			 M116.06,9.93c-0.28,0.09-0.73,0.21-1.34,0.34c-0.61,0.13-1.01,0.26-1.2,0.38c-0.29,0.2-0.43,0.46-0.43,0.77
			c0,0.31,0.11,0.57,0.34,0.8c0.23,0.22,0.52,0.34,0.88,0.34c0.4,0,0.77-0.13,1.13-0.39c0.27-0.2,0.44-0.44,0.52-0.73
			c0.06-0.19,0.09-0.54,0.09-1.07V9.93z"/>
		<path class="st1" d="M122.66,13.92l-3.34-8.3h2.3l1.56,4.23l0.45,1.41c0.12-0.36,0.2-0.6,0.23-0.71c0.07-0.23,0.15-0.47,0.23-0.7
			l1.58-4.23h2.26l-3.3,8.3H122.66z"/>
		<path class="st1" d="M129.27,4.5V2.47h2.2V4.5H129.27z M129.27,13.92v-8.3h2.2v8.3H129.27z"/>
		<path class="st1" d="M141.27,13.92h-2.2V9.68c0-0.9-0.05-1.48-0.14-1.74c-0.09-0.26-0.25-0.47-0.46-0.61
			c-0.21-0.15-0.46-0.22-0.76-0.22c-0.38,0-0.72,0.1-1.02,0.31c-0.3,0.21-0.51,0.48-0.62,0.83c-0.11,0.34-0.17,0.98-0.17,1.91v3.76
			h-2.2v-8.3h2.04v1.22c0.72-0.94,1.64-1.41,2.73-1.41c0.48,0,0.93,0.09,1.33,0.26c0.4,0.17,0.7,0.4,0.91,0.67
			c0.21,0.27,0.35,0.58,0.43,0.92c0.08,0.34,0.12,0.84,0.12,1.48V13.92z"/>
		<path class="st1" d="M143.29,14.47l2.51,0.3c0.04,0.29,0.14,0.49,0.29,0.6c0.21,0.16,0.54,0.23,0.98,0.23c0.57,0,1-0.09,1.29-0.26
			c0.19-0.11,0.34-0.3,0.44-0.55c0.07-0.18,0.1-0.52,0.1-1.01v-1.21c-0.66,0.9-1.48,1.34-2.48,1.34c-1.11,0-2-0.47-2.65-1.41
			c-0.51-0.74-0.77-1.67-0.77-2.78c0-1.39,0.33-2.45,1-3.19c0.67-0.73,1.5-1.1,2.5-1.1c1.03,0,1.87,0.45,2.54,1.35V5.62h2.05v7.45
			c0,0.98-0.08,1.71-0.24,2.2c-0.16,0.48-0.39,0.86-0.68,1.14c-0.29,0.28-0.68,0.49-1.17,0.65c-0.49,0.16-1.1,0.23-1.85,0.23
			c-1.41,0-2.4-0.24-2.99-0.72c-0.59-0.48-0.88-1.09-0.88-1.83C143.28,14.66,143.28,14.57,143.29,14.47z M145.25,9.6
			c0,0.88,0.17,1.52,0.51,1.93c0.34,0.41,0.76,0.61,1.26,0.61c0.54,0,0.99-0.21,1.36-0.63c0.37-0.42,0.55-1.04,0.55-1.86
			c0-0.86-0.18-1.5-0.53-1.91c-0.35-0.42-0.8-0.62-1.34-0.62c-0.53,0-0.96,0.2-1.3,0.61C145.42,8.14,145.25,8.76,145.25,9.6z"/>
	</g>
	<g>
		<path class="st1" d="M630.89,41.11v2.46c0.32,0,0.55-0.04,0.68-0.13c0.13-0.09,0.19-0.38,0.19-0.87v-0.61
			c0-0.35-0.06-0.58-0.19-0.69C631.45,41.17,631.22,41.11,630.89,41.11z"/>
		<path class="st1" d="M710.44,188.58l-6.66-38.41l0.08-0.01L686.8,53.43c-0.01-0.04-0.01-0.07-0.01-0.11l-0.18-1.02l-2.44-13.82
			l-0.07,0.01l-1.06-5.82c-0.23-1.28-1.38-2.21-2.72-2.21l-162.59,0c-0.32,0-0.64,0.03-0.95,0.08l-50.33,8.94
			c-1.85,0.33-3.42,1.55-4.18,3.27l-1.79,3.83c-0.39,0.84-1.17,1.43-2.08,1.59l-18.53,3.2c-3.62,0.62-5.71,4.47-4.25,7.84
			l20.77,36.21c0.9,2.07,2.94,3.42,5.2,3.42h23.76c2.03,0,3.9-1.08,4.91-2.83l19.03-33.04c1.01-1.75,2.88-2.83,4.91-2.83h27.28
			c2.03,0,3.9,1.08,4.91,2.83l19.37,33.04c1.01,1.75,2.88,2.83,4.91,2.83h23.54c1.64,0,3.19-0.71,4.27-1.94l20.14-34.95
			c1.08-1.23,2.63-1.94,4.27-1.94h53.14c2.75,0,5.11,1.98,5.58,4.68l8.53,48.37c0.61,3.48-2.07,6.66-5.6,6.65l-49.43-0.13
			c-1.88,0-3.64,0.94-4.7,2.5l-30.8,53.07c-1.06,1.57-2.82,2.5-4.71,2.5l-58.25,0c-2.23-0.01-4.25,1.29-5.17,3.32l-36.06,62.52
			c-0.92,2.02-2.94,3.32-5.16,3.32h-39.39c-2.21,0-4.22-1.29-5.15-3.29l-3.79-8.2c-0.93-2.01-2.94-3.29-5.15-3.29h-69.92
			c-1.82,2.03-4.45,3.32-7.39,3.32s-5.57-1.29-7.39-3.32h-69.83c-2.21,0-4.22,1.29-5.15,3.29l-3.79,8.2
			c-0.93,2.01-2.94,3.29-5.15,3.29h-39.7c-2.21,0-4.22-1.28-5.14-3.29L187.1,180.9c-0.93-2-2.94-3.29-5.15-3.29l-58.14,0.04
			c-1.89,0-3.65-0.94-4.71-2.5l-30.7-53.06c-1.05-1.57-2.82-2.5-4.7-2.5H34.07c-3.52,0-6.2-3.18-5.58-6.65l8.5-48.23
			c0.48-2.71,2.83-4.68,5.58-4.68h53.16c1.64,0,3.19,0.71,4.27,1.94l19.95,34.97c1.08,1.23,2.63,1.94,4.27,1.94h23.9
			c2.03,0,3.9-1.08,4.91-2.83l18.92-33.05c1.01-1.75,2.88-2.83,4.91-2.83h28.3c2.03,0,3.9,1.08,4.91,2.83l18.92,33.04
			c1.01,1.75,2.88,2.83,4.91,2.83h22.94c2.29,0,4.36-1.38,5.24-3.5l20.15-35.03c1.3-3.14-0.44-6.72-3.72-7.63l-6.79-3.02l-8.43,1.49
			c-3.08,0.54-6.02-1.52-6.57-4.6l-0.68-3.85l-27.09-12.03c-0.49-0.14-1.01-0.21-1.52-0.21l-189.34,0c-1.34,0-2.49,0.93-2.72,2.21
			l-1.74,10.27l-14.28,81.01c-0.02,0.09-0.06,0.17-0.07,0.27l-3.11,17.78l-1.37,7.76l0.01,0l-6.77,38.74
			c-0.27,1.45,0.74,2.84,2.24,3.1l19.02,3.3c2.34,0.4,4.68-0.7,5.86-2.75l11.3-19.49c1.01-1.75,2.88-2.83,4.91-2.83h20.81
			c2.03,0,3.9,1.08,4.91,2.83l9.16,20.17c0.84,1.46,2.28,2.46,3.94,2.75l69.12,12.13c1.32,0.23,2.28,1.34,2.28,2.63l0,42.75
			c0,1.48,1.24,2.67,2.77,2.67l47.25,0c1.14,0,2.16,0.67,2.58,1.7l7.51,19.7c0.32,0.79,1.01,1.39,1.86,1.61l66.69,17.93l137.88,0
			l67.2-17.99c0.85-0.22,1.54-0.82,1.86-1.61l7.44-19.65c0.41-1.02,1.44-1.7,2.58-1.7l47.24,0c1.53,0,2.77-1.2,2.77-2.67l0-42.9
			c0-1.3,0.96-2.41,2.28-2.63l68.51-11.91c1.67-0.28,3.12-1.29,3.97-2.76l9.39-20.24c1.01-1.75,2.88-2.83,4.91-2.83h20.81
			c2.03,0,3.9,1.08,4.91,2.83l9.76,19.63c1.19,2.05,3.52,3.15,5.86,2.75l20.6-3.38C709.7,191.42,710.7,190.03,710.44,188.58z
			 M554.29,52.98c-3.91,0-7.09-3.17-7.09-7.09s3.17-7.09,7.09-7.09s7.09,3.17,7.09,7.09S558.21,52.98,554.29,52.98z M568.48,67.17
			c-3.91,0-7.09-3.17-7.09-7.09s3.17-7.09,7.09-7.09s7.09,3.17,7.09,7.09S572.39,67.17,568.48,67.17z M582.65,52.98
			c-3.91,0-7.09-3.17-7.09-7.09s3.17-7.09,7.09-7.09s7.09,3.17,7.09,7.09S586.57,52.98,582.65,52.98z M596.83,67.17
			c-3.91,0-7.09-3.17-7.09-7.09s3.17-7.09,7.09-7.09s7.09,3.17,7.09,7.09S600.75,67.17,596.83,67.17z M611.01,52.98
			c-3.91,0-7.09-3.17-7.09-7.09s3.17-7.09,7.09-7.09s7.09,3.17,7.09,7.09S614.92,52.98,611.01,52.98z M634,45.08
			c0.2,0.24,0.32,0.46,0.37,0.65c0.05,0.2,0.07,0.74,0.07,1.64v2.92h-2.67v-3.68c0-0.59-0.05-0.96-0.14-1.1
			c-0.09-0.14-0.34-0.21-0.74-0.21v4.99h-2.88V39.22h2.04c1.36,0,2.28,0.05,2.76,0.16c0.48,0.1,0.87,0.37,1.18,0.8
			c0.3,0.43,0.46,1.12,0.46,2.06c0,0.86-0.11,1.44-0.32,1.74s-0.64,0.47-1.26,0.53C633.42,44.65,633.8,44.84,634,45.08z
			 M640.54,50.29h-4.99V39.22h4.8v2.21h-1.92v2.1h1.8v2.11h-1.8v2.43h2.11V50.29z M646.75,50.29h-4.37l-1.66-11.07h3.04
			c0.35,3.05,0.6,5.63,0.76,7.74c0.15-2.13,0.31-4.03,0.47-5.68l0.2-2.06h3.04L646.75,50.29z M651.58,50.29h-2.88V39.22h2.88V50.29z
			 M659.27,46.62c0,0.84-0.03,1.43-0.08,1.77c-0.05,0.34-0.22,0.69-0.49,1.05c-0.27,0.36-0.62,0.63-1.06,0.81
			c-0.44,0.19-0.96,0.28-1.56,0.28c-0.66,0-1.24-0.11-1.75-0.33s-0.88-0.5-1.13-0.85s-0.4-0.72-0.44-1.11
			c-0.05-0.39-0.07-1.21-0.07-2.46v-6.55h2.88v8.3c0,0.48,0.03,0.79,0.08,0.93c0.05,0.13,0.16,0.2,0.32,0.2
			c0.18,0,0.3-0.07,0.35-0.22c0.05-0.15,0.08-0.5,0.08-1.05v-8.16h2.88V46.62z M666.81,50.29h-2.52l-1.5-5.03v5.03h-2.41V39.22h2.41
			l1.61,4.98v-4.98h2.41V50.29z M674.57,43.29h-2.88v-1c0-0.63-0.03-1.03-0.08-1.19s-0.18-0.24-0.39-0.24
			c-0.18,0-0.3,0.07-0.36,0.21s-0.1,0.49-0.1,1.05v5.31c0,0.5,0.03,0.82,0.1,0.98c0.06,0.16,0.19,0.24,0.38,0.24
			c0.21,0,0.35-0.09,0.43-0.27c0.08-0.18,0.11-0.52,0.11-1.04v-1.31h-0.58v-1.68h3.37v5.94h-1.81l-0.27-0.79
			c-0.2,0.34-0.44,0.6-0.74,0.77c-0.3,0.17-0.65,0.26-1.06,0.26c-0.48,0-0.94-0.12-1.36-0.35c-0.42-0.24-0.74-0.53-0.96-0.87
			c-0.22-0.35-0.36-0.71-0.41-1.09c-0.05-0.38-0.08-0.95-0.08-1.71v-3.29c0-1.06,0.06-1.83,0.17-2.3s0.44-0.92,0.98-1.32
			c0.54-0.4,1.24-0.6,2.09-0.6c0.84,0,1.54,0.17,2.1,0.52s0.92,0.76,1.09,1.23c0.17,0.48,0.25,1.17,0.25,2.08V43.29z M164.67,38.81
			c3.91,0,7.09,3.17,7.09,7.09s-3.17,7.09-7.09,7.09s-7.09-3.17-7.09-7.09S160.76,38.81,164.67,38.81z M150.5,53
			c3.91,0,7.09,3.17,7.09,7.09s-3.17,7.09-7.09,7.09s-7.09-3.17-7.09-7.09S146.58,53,150.5,53z M136.31,38.81
			c3.91,0,7.09,3.17,7.09,7.09s-3.17,7.09-7.09,7.09s-7.09-3.17-7.09-7.09S132.4,38.81,136.31,38.81z M122.14,53
			c3.91,0,7.09,3.17,7.09,7.09s-3.17,7.09-7.09,7.09s-7.09-3.17-7.09-7.09S118.22,53,122.14,53z M107.96,38.81
			c3.91,0,7.09,3.17,7.09,7.09s-3.17,7.09-7.09,7.09c-3.91,0-7.09-3.17-7.09-7.09S104.04,38.81,107.96,38.81z M33.68,167.16
			c-0.68,3.85-4.36,6.43-8.21,5.75s-6.43-4.36-5.75-8.21s4.36-6.43,8.21-5.75C31.79,159.63,34.36,163.31,33.68,167.16z M30.4,144.98
			c-3.85-0.68-6.43-4.36-5.75-8.21s4.36-6.43,8.21-5.75s6.43,4.36,5.75,8.21S34.25,145.66,30.4,144.98z M50.12,155.66
			c-0.68,3.85-4.36,6.43-8.21,5.75s-6.43-4.36-5.75-8.21s4.36-6.43,8.21-5.75S50.8,151.81,50.12,155.66z M181.35,245.97
			c-2.77,2.77-7.25,2.77-10.02,0c-2.77-2.77-2.77-7.25,0-10.02c2.77-2.77,7.25-2.77,10.02,0
			C184.12,238.72,184.12,243.2,181.35,245.97z M181.36,225.91c-2.77,2.77-7.25,2.77-10.02,0c-2.77-2.77-2.77-7.25,0-10.02
			c2.77-2.77,7.25-2.77,10.02,0C184.13,218.66,184.13,223.14,181.36,225.91z M201.41,245.96c-2.77,2.77-7.25,2.77-10.02,0
			c-2.77-2.77-2.77-7.25,0-10.02s7.25-2.77,10.02,0C204.18,238.71,204.18,243.2,201.41,245.96z M475.67,269.86h-70.39l-4.07,15.04
			c-0.67,2.47-2.91,4.19-5.47,4.19h-72.44c-2.55,0-4.79-1.7-5.46-4.16l-4.16-15.07h-70.43c-2.35,0-4.25-1.9-4.25-4.25
			c0-2.35,1.9-4.25,4.25-4.25h69.11l6.48-16.77c0.84-2.18,2.95-3.62,5.29-3.62h70.35c2.31,0,4.39,1.4,5.26,3.55l6.81,16.85h69.14
			c2.35,0,4.25,1.9,4.25,4.25C479.93,267.95,478.02,269.86,475.67,269.86z M527.45,245.96c-2.77,2.77-7.25,2.77-10.02,0
			c-2.77-2.77-2.77-7.25,0-10.02c2.77-2.77,7.25-2.77,10.02,0C530.21,238.71,530.21,243.2,527.45,245.96z M537.48,215.89
			c2.77-2.77,7.25-2.77,10.02,0c2.77,2.77,2.77,7.25,0,10.02c-2.77,2.77-7.25,2.77-10.02,0
			C534.71,223.14,534.71,218.66,537.48,215.89z M547.51,245.97c-2.77,2.77-7.25,2.77-10.02,0c-2.77-2.77-2.77-7.25,0-10.02
			c2.77-2.77,7.25-2.77,10.02,0C550.28,238.72,550.28,243.2,547.51,245.97z M686.14,131.02c3.85-0.68,7.53,1.89,8.21,5.75
			s-1.89,7.53-5.75,8.21s-7.53-1.89-8.21-5.75S682.28,131.7,686.14,131.02z M677.09,161.41c-3.85,0.68-7.53-1.89-8.21-5.75
			s1.89-7.53,5.75-8.21s7.53,1.89,8.21,5.75S680.94,160.73,677.09,161.41z M693.52,172.91c-3.85,0.68-7.53-1.89-8.21-5.75
			s1.89-7.53,5.75-8.21c3.85-0.68,7.53,1.89,8.21,5.75S697.38,172.23,693.52,172.91z"/>
	</g>
</g>
</svg>
