G04 #@! TF.GenerationSoftware,KiCad,Pcbnew,(5.1.6-0-10_14)*
G04 #@! TF.CreationDate,2020-10-19T10:54:39+09:00*
G04 #@! TF.ProjectId,reviung34-split-L,72657669-756e-4673-9334-2d73706c6974,2.0*
G04 #@! TF.SameCoordinates,Original*
G04 #@! TF.FileFunction,Legend,Top*
G04 #@! TF.FilePolarity,Positive*
%FSLAX46Y46*%
G04 Gerber Fmt 4.6, Leading zero omitted, Abs format (unit mm)*
G04 Created by KiCad (PCBNEW (5.1.6-0-10_14)) date 2020-10-19 10:54:39*
%MOMM*%
%LPD*%
G01*
G04 APERTURE LIST*
%ADD10C,0.120000*%
%ADD11C,0.100000*%
%ADD12C,0.150000*%
%ADD13C,0.125000*%
G04 APERTURE END LIST*
D10*
X132360000Y-70400000D02*
X132360000Y-68900000D01*
X132360000Y-49750000D02*
X132360000Y-51400000D01*
X134010000Y-49750000D02*
X132360000Y-49750000D01*
X134010000Y-70400000D02*
X132360000Y-70400000D01*
X147510000Y-70400000D02*
X146010000Y-70400000D01*
X147510000Y-68900000D02*
X147510000Y-70400000D01*
X147510000Y-49750000D02*
X146010000Y-49750000D01*
X147510000Y-51400000D02*
X147510000Y-49750000D01*
D11*
G36*
X141510000Y-52335590D02*
G01*
X138510000Y-52335590D01*
X140010000Y-50400000D01*
X141510000Y-52335590D01*
G37*
X141510000Y-52335590D02*
X138510000Y-52335590D01*
X140010000Y-50400000D01*
X141510000Y-52335590D01*
D10*
X154900000Y-70400000D02*
X154900000Y-68900000D01*
X154900000Y-49750000D02*
X154900000Y-51400000D01*
X156550000Y-49750000D02*
X154900000Y-49750000D01*
X156550000Y-70400000D02*
X154900000Y-70400000D01*
X170050000Y-70400000D02*
X168550000Y-70400000D01*
X170050000Y-68900000D02*
X170050000Y-70400000D01*
X170050000Y-49750000D02*
X168550000Y-49750000D01*
X170050000Y-51400000D02*
X170050000Y-49750000D01*
D11*
G36*
X164050000Y-52335590D02*
G01*
X161050000Y-52335590D01*
X162550000Y-50400000D01*
X164050000Y-52335590D01*
G37*
X164050000Y-52335590D02*
X161050000Y-52335590D01*
X162550000Y-50400000D01*
X164050000Y-52335590D01*
D12*
X123390000Y-50040000D02*
X123390000Y-51050000D01*
X123390000Y-67840000D02*
X123390000Y-66840000D01*
X122390000Y-50040000D02*
X123390000Y-50040000D01*
X122340000Y-67840000D02*
X123390000Y-67840000D01*
X90340000Y-50040000D02*
X90340000Y-50990000D01*
X90340000Y-67840000D02*
X90340000Y-66840000D01*
X90340000Y-50040000D02*
X91340000Y-50040000D01*
X90340000Y-67840000D02*
X91340000Y-67840000D01*
X87640000Y-62690000D02*
X90040000Y-62690000D01*
X90040000Y-62640000D02*
X90040000Y-55190000D01*
X90040000Y-55190000D02*
X87640000Y-55190000D01*
X87640000Y-55190000D02*
X87640000Y-62690000D01*
X139676666Y-59852380D02*
X139676666Y-60566666D01*
X139629047Y-60709523D01*
X139533809Y-60804761D01*
X139390952Y-60852380D01*
X139295714Y-60852380D01*
X140676666Y-60852380D02*
X140105238Y-60852380D01*
X140390952Y-60852380D02*
X140390952Y-59852380D01*
X140295714Y-59995238D01*
X140200476Y-60090476D01*
X140105238Y-60138095D01*
X133684047Y-55329761D02*
X133367380Y-54877380D01*
X133141190Y-55329761D02*
X133141190Y-54379761D01*
X133503095Y-54379761D01*
X133593571Y-54425000D01*
X133638809Y-54470238D01*
X133684047Y-54560714D01*
X133684047Y-54696428D01*
X133638809Y-54786904D01*
X133593571Y-54832142D01*
X133503095Y-54877380D01*
X133141190Y-54877380D01*
X134362619Y-54379761D02*
X134362619Y-55058333D01*
X134317380Y-55194047D01*
X134226904Y-55284523D01*
X134091190Y-55329761D01*
X134000714Y-55329761D01*
X135222142Y-54696428D02*
X135222142Y-55329761D01*
X134995952Y-54334523D02*
X134769761Y-55013095D01*
X135357857Y-55013095D01*
X136172142Y-54379761D02*
X135719761Y-54379761D01*
X135674523Y-54832142D01*
X135719761Y-54786904D01*
X135810238Y-54741666D01*
X136036428Y-54741666D01*
X136126904Y-54786904D01*
X136172142Y-54832142D01*
X136217380Y-54922619D01*
X136217380Y-55148809D01*
X136172142Y-55239285D01*
X136126904Y-55284523D01*
X136036428Y-55329761D01*
X135810238Y-55329761D01*
X135719761Y-55284523D01*
X135674523Y-55239285D01*
X137891190Y-55239285D02*
X137845952Y-55284523D01*
X137710238Y-55329761D01*
X137619761Y-55329761D01*
X137484047Y-55284523D01*
X137393571Y-55194047D01*
X137348333Y-55103571D01*
X137303095Y-54922619D01*
X137303095Y-54786904D01*
X137348333Y-54605952D01*
X137393571Y-54515476D01*
X137484047Y-54425000D01*
X137619761Y-54379761D01*
X137710238Y-54379761D01*
X137845952Y-54425000D01*
X137891190Y-54470238D01*
X138479285Y-54379761D02*
X138660238Y-54379761D01*
X138750714Y-54425000D01*
X138841190Y-54515476D01*
X138886428Y-54696428D01*
X138886428Y-55013095D01*
X138841190Y-55194047D01*
X138750714Y-55284523D01*
X138660238Y-55329761D01*
X138479285Y-55329761D01*
X138388809Y-55284523D01*
X138298333Y-55194047D01*
X138253095Y-55013095D01*
X138253095Y-54696428D01*
X138298333Y-54515476D01*
X138388809Y-54425000D01*
X138479285Y-54379761D01*
X139293571Y-55329761D02*
X139293571Y-54379761D01*
X139836428Y-55329761D01*
X139836428Y-54379761D01*
X140288809Y-55329761D02*
X140288809Y-54379761D01*
X140831666Y-55329761D01*
X140831666Y-54379761D01*
X141600714Y-54832142D02*
X141284047Y-54832142D01*
X141284047Y-55329761D02*
X141284047Y-54379761D01*
X141736428Y-54379761D01*
X142550714Y-55329761D02*
X142098333Y-55329761D01*
X142098333Y-54379761D01*
X143048333Y-54877380D02*
X143048333Y-55329761D01*
X142731666Y-54379761D02*
X143048333Y-54877380D01*
X143365000Y-54379761D01*
X144405476Y-54832142D02*
X144722142Y-54832142D01*
X144857857Y-55329761D02*
X144405476Y-55329761D01*
X144405476Y-54379761D01*
X144857857Y-54379761D01*
X145400714Y-55329761D02*
X145310238Y-55284523D01*
X145265000Y-55194047D01*
X145265000Y-54379761D01*
X146124523Y-55284523D02*
X146034047Y-55329761D01*
X145853095Y-55329761D01*
X145762619Y-55284523D01*
X145717380Y-55194047D01*
X145717380Y-54832142D01*
X145762619Y-54741666D01*
X145853095Y-54696428D01*
X146034047Y-54696428D01*
X146124523Y-54741666D01*
X146169761Y-54832142D01*
X146169761Y-54922619D01*
X145717380Y-55013095D01*
X146984047Y-55284523D02*
X146893571Y-55329761D01*
X146712619Y-55329761D01*
X146622142Y-55284523D01*
X146576904Y-55239285D01*
X146531666Y-55148809D01*
X146531666Y-54877380D01*
X146576904Y-54786904D01*
X146622142Y-54741666D01*
X146712619Y-54696428D01*
X146893571Y-54696428D01*
X146984047Y-54741666D01*
X133121190Y-53829761D02*
X133121190Y-52879761D01*
X133347380Y-52879761D01*
X133483095Y-52925000D01*
X133573571Y-53015476D01*
X133618809Y-53105952D01*
X133664047Y-53286904D01*
X133664047Y-53422619D01*
X133618809Y-53603571D01*
X133573571Y-53694047D01*
X133483095Y-53784523D01*
X133347380Y-53829761D01*
X133121190Y-53829761D01*
X134025952Y-53784523D02*
X134161666Y-53829761D01*
X134387857Y-53829761D01*
X134478333Y-53784523D01*
X134523571Y-53739285D01*
X134568809Y-53648809D01*
X134568809Y-53558333D01*
X134523571Y-53467857D01*
X134478333Y-53422619D01*
X134387857Y-53377380D01*
X134206904Y-53332142D01*
X134116428Y-53286904D01*
X134071190Y-53241666D01*
X134025952Y-53151190D01*
X134025952Y-53060714D01*
X134071190Y-52970238D01*
X134116428Y-52925000D01*
X134206904Y-52879761D01*
X134433095Y-52879761D01*
X134568809Y-52925000D01*
X135473571Y-53829761D02*
X134930714Y-53829761D01*
X135202142Y-53829761D02*
X135202142Y-52879761D01*
X135111666Y-53015476D01*
X135021190Y-53105952D01*
X134930714Y-53151190D01*
X136378333Y-53829761D02*
X135835476Y-53829761D01*
X136106904Y-53829761D02*
X136106904Y-52879761D01*
X136016428Y-53015476D01*
X135925952Y-53105952D01*
X135835476Y-53151190D01*
X136740238Y-52970238D02*
X136785476Y-52925000D01*
X136875952Y-52879761D01*
X137102142Y-52879761D01*
X137192619Y-52925000D01*
X137237857Y-52970238D01*
X137283095Y-53060714D01*
X137283095Y-53151190D01*
X137237857Y-53286904D01*
X136695000Y-53829761D01*
X137283095Y-53829761D01*
X137825952Y-53286904D02*
X137735476Y-53241666D01*
X137690238Y-53196428D01*
X137645000Y-53105952D01*
X137645000Y-53060714D01*
X137690238Y-52970238D01*
X137735476Y-52925000D01*
X137825952Y-52879761D01*
X138006904Y-52879761D01*
X138097380Y-52925000D01*
X138142619Y-52970238D01*
X138187857Y-53060714D01*
X138187857Y-53105952D01*
X138142619Y-53196428D01*
X138097380Y-53241666D01*
X138006904Y-53286904D01*
X137825952Y-53286904D01*
X137735476Y-53332142D01*
X137690238Y-53377380D01*
X137645000Y-53467857D01*
X137645000Y-53648809D01*
X137690238Y-53739285D01*
X137735476Y-53784523D01*
X137825952Y-53829761D01*
X138006904Y-53829761D01*
X138097380Y-53784523D01*
X138142619Y-53739285D01*
X138187857Y-53648809D01*
X138187857Y-53467857D01*
X138142619Y-53377380D01*
X138097380Y-53332142D01*
X138006904Y-53286904D01*
X138595000Y-53467857D02*
X139318809Y-53467857D01*
X139952142Y-52879761D02*
X140042619Y-52879761D01*
X140133095Y-52925000D01*
X140178333Y-52970238D01*
X140223571Y-53060714D01*
X140268809Y-53241666D01*
X140268809Y-53467857D01*
X140223571Y-53648809D01*
X140178333Y-53739285D01*
X140133095Y-53784523D01*
X140042619Y-53829761D01*
X139952142Y-53829761D01*
X139861666Y-53784523D01*
X139816428Y-53739285D01*
X139771190Y-53648809D01*
X139725952Y-53467857D01*
X139725952Y-53241666D01*
X139771190Y-53060714D01*
X139816428Y-52970238D01*
X139861666Y-52925000D01*
X139952142Y-52879761D01*
X141128333Y-52879761D02*
X140675952Y-52879761D01*
X140630714Y-53332142D01*
X140675952Y-53286904D01*
X140766428Y-53241666D01*
X140992619Y-53241666D01*
X141083095Y-53286904D01*
X141128333Y-53332142D01*
X141173571Y-53422619D01*
X141173571Y-53648809D01*
X141128333Y-53739285D01*
X141083095Y-53784523D01*
X140992619Y-53829761D01*
X140766428Y-53829761D01*
X140675952Y-53784523D01*
X140630714Y-53739285D01*
X141580714Y-53467857D02*
X142304523Y-53467857D01*
X142711666Y-53784523D02*
X142847380Y-53829761D01*
X143073571Y-53829761D01*
X143164047Y-53784523D01*
X143209285Y-53739285D01*
X143254523Y-53648809D01*
X143254523Y-53558333D01*
X143209285Y-53467857D01*
X143164047Y-53422619D01*
X143073571Y-53377380D01*
X142892619Y-53332142D01*
X142802142Y-53286904D01*
X142756904Y-53241666D01*
X142711666Y-53151190D01*
X142711666Y-53060714D01*
X142756904Y-52970238D01*
X142802142Y-52925000D01*
X142892619Y-52879761D01*
X143118809Y-52879761D01*
X143254523Y-52925000D01*
X143797380Y-53286904D02*
X143706904Y-53241666D01*
X143661666Y-53196428D01*
X143616428Y-53105952D01*
X143616428Y-53060714D01*
X143661666Y-52970238D01*
X143706904Y-52925000D01*
X143797380Y-52879761D01*
X143978333Y-52879761D01*
X144068809Y-52925000D01*
X144114047Y-52970238D01*
X144159285Y-53060714D01*
X144159285Y-53105952D01*
X144114047Y-53196428D01*
X144068809Y-53241666D01*
X143978333Y-53286904D01*
X143797380Y-53286904D01*
X143706904Y-53332142D01*
X143661666Y-53377380D01*
X143616428Y-53467857D01*
X143616428Y-53648809D01*
X143661666Y-53739285D01*
X143706904Y-53784523D01*
X143797380Y-53829761D01*
X143978333Y-53829761D01*
X144068809Y-53784523D01*
X144114047Y-53739285D01*
X144159285Y-53648809D01*
X144159285Y-53467857D01*
X144114047Y-53377380D01*
X144068809Y-53332142D01*
X143978333Y-53286904D01*
X144883095Y-53332142D02*
X145018809Y-53377380D01*
X145064047Y-53422619D01*
X145109285Y-53513095D01*
X145109285Y-53648809D01*
X145064047Y-53739285D01*
X145018809Y-53784523D01*
X144928333Y-53829761D01*
X144566428Y-53829761D01*
X144566428Y-52879761D01*
X144883095Y-52879761D01*
X144973571Y-52925000D01*
X145018809Y-52970238D01*
X145064047Y-53060714D01*
X145064047Y-53151190D01*
X145018809Y-53241666D01*
X144973571Y-53286904D01*
X144883095Y-53332142D01*
X144566428Y-53332142D01*
X145652142Y-53286904D02*
X145561666Y-53241666D01*
X145516428Y-53196428D01*
X145471190Y-53105952D01*
X145471190Y-53060714D01*
X145516428Y-52970238D01*
X145561666Y-52925000D01*
X145652142Y-52879761D01*
X145833095Y-52879761D01*
X145923571Y-52925000D01*
X145968809Y-52970238D01*
X146014047Y-53060714D01*
X146014047Y-53105952D01*
X145968809Y-53196428D01*
X145923571Y-53241666D01*
X145833095Y-53286904D01*
X145652142Y-53286904D01*
X145561666Y-53332142D01*
X145516428Y-53377380D01*
X145471190Y-53467857D01*
X145471190Y-53648809D01*
X145516428Y-53739285D01*
X145561666Y-53784523D01*
X145652142Y-53829761D01*
X145833095Y-53829761D01*
X145923571Y-53784523D01*
X145968809Y-53739285D01*
X146014047Y-53648809D01*
X146014047Y-53467857D01*
X145968809Y-53377380D01*
X145923571Y-53332142D01*
X145833095Y-53286904D01*
X146421190Y-53829761D02*
X146421190Y-52879761D01*
X146783095Y-52879761D01*
X146873571Y-52925000D01*
X146918809Y-52970238D01*
X146964047Y-53060714D01*
X146964047Y-53196428D01*
X146918809Y-53286904D01*
X146873571Y-53332142D01*
X146783095Y-53377380D01*
X146421190Y-53377380D01*
X144695714Y-65502380D02*
X144124285Y-65502380D01*
X144410000Y-65502380D02*
X144410000Y-64502380D01*
X144314761Y-64645238D01*
X144219523Y-64740476D01*
X144124285Y-64788095D01*
X142774285Y-67247619D02*
X142821904Y-67200000D01*
X142917142Y-67152380D01*
X143155238Y-67152380D01*
X143250476Y-67200000D01*
X143298095Y-67247619D01*
X143345714Y-67342857D01*
X143345714Y-67438095D01*
X143298095Y-67580952D01*
X142726666Y-68152380D01*
X143345714Y-68152380D01*
X141476666Y-64502380D02*
X142095714Y-64502380D01*
X141762380Y-64883333D01*
X141905238Y-64883333D01*
X142000476Y-64930952D01*
X142048095Y-64978571D01*
X142095714Y-65073809D01*
X142095714Y-65311904D01*
X142048095Y-65407142D01*
X142000476Y-65454761D01*
X141905238Y-65502380D01*
X141619523Y-65502380D01*
X141524285Y-65454761D01*
X141476666Y-65407142D01*
X140700476Y-67385714D02*
X140700476Y-68052380D01*
X140462380Y-67004761D02*
X140224285Y-67719047D01*
X140843333Y-67719047D01*
X138200476Y-67102380D02*
X138010000Y-67102380D01*
X137914761Y-67150000D01*
X137867142Y-67197619D01*
X137771904Y-67340476D01*
X137724285Y-67530952D01*
X137724285Y-67911904D01*
X137771904Y-68007142D01*
X137819523Y-68054761D01*
X137914761Y-68102380D01*
X138105238Y-68102380D01*
X138200476Y-68054761D01*
X138248095Y-68007142D01*
X138295714Y-67911904D01*
X138295714Y-67673809D01*
X138248095Y-67578571D01*
X138200476Y-67530952D01*
X138105238Y-67483333D01*
X137914761Y-67483333D01*
X137819523Y-67530952D01*
X137771904Y-67578571D01*
X137724285Y-67673809D01*
X139498095Y-64552380D02*
X139021904Y-64552380D01*
X138974285Y-65028571D01*
X139021904Y-64980952D01*
X139117142Y-64933333D01*
X139355238Y-64933333D01*
X139450476Y-64980952D01*
X139498095Y-65028571D01*
X139545714Y-65123809D01*
X139545714Y-65361904D01*
X139498095Y-65457142D01*
X139450476Y-65504761D01*
X139355238Y-65552380D01*
X139117142Y-65552380D01*
X139021904Y-65504761D01*
X138974285Y-65457142D01*
X136376666Y-64502380D02*
X137043333Y-64502380D01*
X136614761Y-65502380D01*
X135314761Y-67530952D02*
X135219523Y-67483333D01*
X135171904Y-67435714D01*
X135124285Y-67340476D01*
X135124285Y-67292857D01*
X135171904Y-67197619D01*
X135219523Y-67150000D01*
X135314761Y-67102380D01*
X135505238Y-67102380D01*
X135600476Y-67150000D01*
X135648095Y-67197619D01*
X135695714Y-67292857D01*
X135695714Y-67340476D01*
X135648095Y-67435714D01*
X135600476Y-67483333D01*
X135505238Y-67530952D01*
X135314761Y-67530952D01*
X135219523Y-67578571D01*
X135171904Y-67626190D01*
X135124285Y-67721428D01*
X135124285Y-67911904D01*
X135171904Y-68007142D01*
X135219523Y-68054761D01*
X135314761Y-68102380D01*
X135505238Y-68102380D01*
X135600476Y-68054761D01*
X135648095Y-68007142D01*
X135695714Y-67911904D01*
X135695714Y-67721428D01*
X135648095Y-67626190D01*
X135600476Y-67578571D01*
X135505238Y-67530952D01*
X162216666Y-59852380D02*
X162216666Y-60566666D01*
X162169047Y-60709523D01*
X162073809Y-60804761D01*
X161930952Y-60852380D01*
X161835714Y-60852380D01*
X162645238Y-59947619D02*
X162692857Y-59900000D01*
X162788095Y-59852380D01*
X163026190Y-59852380D01*
X163121428Y-59900000D01*
X163169047Y-59947619D01*
X163216666Y-60042857D01*
X163216666Y-60138095D01*
X163169047Y-60280952D01*
X162597619Y-60852380D01*
X163216666Y-60852380D01*
X156224047Y-55329761D02*
X155907380Y-54877380D01*
X155681190Y-55329761D02*
X155681190Y-54379761D01*
X156043095Y-54379761D01*
X156133571Y-54425000D01*
X156178809Y-54470238D01*
X156224047Y-54560714D01*
X156224047Y-54696428D01*
X156178809Y-54786904D01*
X156133571Y-54832142D01*
X156043095Y-54877380D01*
X155681190Y-54877380D01*
X156902619Y-54379761D02*
X156902619Y-55058333D01*
X156857380Y-55194047D01*
X156766904Y-55284523D01*
X156631190Y-55329761D01*
X156540714Y-55329761D01*
X157762142Y-54696428D02*
X157762142Y-55329761D01*
X157535952Y-54334523D02*
X157309761Y-55013095D01*
X157897857Y-55013095D01*
X158712142Y-54379761D02*
X158259761Y-54379761D01*
X158214523Y-54832142D01*
X158259761Y-54786904D01*
X158350238Y-54741666D01*
X158576428Y-54741666D01*
X158666904Y-54786904D01*
X158712142Y-54832142D01*
X158757380Y-54922619D01*
X158757380Y-55148809D01*
X158712142Y-55239285D01*
X158666904Y-55284523D01*
X158576428Y-55329761D01*
X158350238Y-55329761D01*
X158259761Y-55284523D01*
X158214523Y-55239285D01*
X160431190Y-55239285D02*
X160385952Y-55284523D01*
X160250238Y-55329761D01*
X160159761Y-55329761D01*
X160024047Y-55284523D01*
X159933571Y-55194047D01*
X159888333Y-55103571D01*
X159843095Y-54922619D01*
X159843095Y-54786904D01*
X159888333Y-54605952D01*
X159933571Y-54515476D01*
X160024047Y-54425000D01*
X160159761Y-54379761D01*
X160250238Y-54379761D01*
X160385952Y-54425000D01*
X160431190Y-54470238D01*
X161019285Y-54379761D02*
X161200238Y-54379761D01*
X161290714Y-54425000D01*
X161381190Y-54515476D01*
X161426428Y-54696428D01*
X161426428Y-55013095D01*
X161381190Y-55194047D01*
X161290714Y-55284523D01*
X161200238Y-55329761D01*
X161019285Y-55329761D01*
X160928809Y-55284523D01*
X160838333Y-55194047D01*
X160793095Y-55013095D01*
X160793095Y-54696428D01*
X160838333Y-54515476D01*
X160928809Y-54425000D01*
X161019285Y-54379761D01*
X161833571Y-55329761D02*
X161833571Y-54379761D01*
X162376428Y-55329761D01*
X162376428Y-54379761D01*
X162828809Y-55329761D02*
X162828809Y-54379761D01*
X163371666Y-55329761D01*
X163371666Y-54379761D01*
X164140714Y-54832142D02*
X163824047Y-54832142D01*
X163824047Y-55329761D02*
X163824047Y-54379761D01*
X164276428Y-54379761D01*
X165090714Y-55329761D02*
X164638333Y-55329761D01*
X164638333Y-54379761D01*
X165588333Y-54877380D02*
X165588333Y-55329761D01*
X165271666Y-54379761D02*
X165588333Y-54877380D01*
X165905000Y-54379761D01*
X166945476Y-54832142D02*
X167262142Y-54832142D01*
X167397857Y-55329761D02*
X166945476Y-55329761D01*
X166945476Y-54379761D01*
X167397857Y-54379761D01*
X167940714Y-55329761D02*
X167850238Y-55284523D01*
X167805000Y-55194047D01*
X167805000Y-54379761D01*
X168664523Y-55284523D02*
X168574047Y-55329761D01*
X168393095Y-55329761D01*
X168302619Y-55284523D01*
X168257380Y-55194047D01*
X168257380Y-54832142D01*
X168302619Y-54741666D01*
X168393095Y-54696428D01*
X168574047Y-54696428D01*
X168664523Y-54741666D01*
X168709761Y-54832142D01*
X168709761Y-54922619D01*
X168257380Y-55013095D01*
X169524047Y-55284523D02*
X169433571Y-55329761D01*
X169252619Y-55329761D01*
X169162142Y-55284523D01*
X169116904Y-55239285D01*
X169071666Y-55148809D01*
X169071666Y-54877380D01*
X169116904Y-54786904D01*
X169162142Y-54741666D01*
X169252619Y-54696428D01*
X169433571Y-54696428D01*
X169524047Y-54741666D01*
X155661190Y-53829761D02*
X155661190Y-52879761D01*
X155887380Y-52879761D01*
X156023095Y-52925000D01*
X156113571Y-53015476D01*
X156158809Y-53105952D01*
X156204047Y-53286904D01*
X156204047Y-53422619D01*
X156158809Y-53603571D01*
X156113571Y-53694047D01*
X156023095Y-53784523D01*
X155887380Y-53829761D01*
X155661190Y-53829761D01*
X156565952Y-53784523D02*
X156701666Y-53829761D01*
X156927857Y-53829761D01*
X157018333Y-53784523D01*
X157063571Y-53739285D01*
X157108809Y-53648809D01*
X157108809Y-53558333D01*
X157063571Y-53467857D01*
X157018333Y-53422619D01*
X156927857Y-53377380D01*
X156746904Y-53332142D01*
X156656428Y-53286904D01*
X156611190Y-53241666D01*
X156565952Y-53151190D01*
X156565952Y-53060714D01*
X156611190Y-52970238D01*
X156656428Y-52925000D01*
X156746904Y-52879761D01*
X156973095Y-52879761D01*
X157108809Y-52925000D01*
X158013571Y-53829761D02*
X157470714Y-53829761D01*
X157742142Y-53829761D02*
X157742142Y-52879761D01*
X157651666Y-53015476D01*
X157561190Y-53105952D01*
X157470714Y-53151190D01*
X158918333Y-53829761D02*
X158375476Y-53829761D01*
X158646904Y-53829761D02*
X158646904Y-52879761D01*
X158556428Y-53015476D01*
X158465952Y-53105952D01*
X158375476Y-53151190D01*
X159280238Y-52970238D02*
X159325476Y-52925000D01*
X159415952Y-52879761D01*
X159642142Y-52879761D01*
X159732619Y-52925000D01*
X159777857Y-52970238D01*
X159823095Y-53060714D01*
X159823095Y-53151190D01*
X159777857Y-53286904D01*
X159235000Y-53829761D01*
X159823095Y-53829761D01*
X160365952Y-53286904D02*
X160275476Y-53241666D01*
X160230238Y-53196428D01*
X160185000Y-53105952D01*
X160185000Y-53060714D01*
X160230238Y-52970238D01*
X160275476Y-52925000D01*
X160365952Y-52879761D01*
X160546904Y-52879761D01*
X160637380Y-52925000D01*
X160682619Y-52970238D01*
X160727857Y-53060714D01*
X160727857Y-53105952D01*
X160682619Y-53196428D01*
X160637380Y-53241666D01*
X160546904Y-53286904D01*
X160365952Y-53286904D01*
X160275476Y-53332142D01*
X160230238Y-53377380D01*
X160185000Y-53467857D01*
X160185000Y-53648809D01*
X160230238Y-53739285D01*
X160275476Y-53784523D01*
X160365952Y-53829761D01*
X160546904Y-53829761D01*
X160637380Y-53784523D01*
X160682619Y-53739285D01*
X160727857Y-53648809D01*
X160727857Y-53467857D01*
X160682619Y-53377380D01*
X160637380Y-53332142D01*
X160546904Y-53286904D01*
X161135000Y-53467857D02*
X161858809Y-53467857D01*
X162492142Y-52879761D02*
X162582619Y-52879761D01*
X162673095Y-52925000D01*
X162718333Y-52970238D01*
X162763571Y-53060714D01*
X162808809Y-53241666D01*
X162808809Y-53467857D01*
X162763571Y-53648809D01*
X162718333Y-53739285D01*
X162673095Y-53784523D01*
X162582619Y-53829761D01*
X162492142Y-53829761D01*
X162401666Y-53784523D01*
X162356428Y-53739285D01*
X162311190Y-53648809D01*
X162265952Y-53467857D01*
X162265952Y-53241666D01*
X162311190Y-53060714D01*
X162356428Y-52970238D01*
X162401666Y-52925000D01*
X162492142Y-52879761D01*
X163668333Y-52879761D02*
X163215952Y-52879761D01*
X163170714Y-53332142D01*
X163215952Y-53286904D01*
X163306428Y-53241666D01*
X163532619Y-53241666D01*
X163623095Y-53286904D01*
X163668333Y-53332142D01*
X163713571Y-53422619D01*
X163713571Y-53648809D01*
X163668333Y-53739285D01*
X163623095Y-53784523D01*
X163532619Y-53829761D01*
X163306428Y-53829761D01*
X163215952Y-53784523D01*
X163170714Y-53739285D01*
X164120714Y-53467857D02*
X164844523Y-53467857D01*
X165251666Y-53784523D02*
X165387380Y-53829761D01*
X165613571Y-53829761D01*
X165704047Y-53784523D01*
X165749285Y-53739285D01*
X165794523Y-53648809D01*
X165794523Y-53558333D01*
X165749285Y-53467857D01*
X165704047Y-53422619D01*
X165613571Y-53377380D01*
X165432619Y-53332142D01*
X165342142Y-53286904D01*
X165296904Y-53241666D01*
X165251666Y-53151190D01*
X165251666Y-53060714D01*
X165296904Y-52970238D01*
X165342142Y-52925000D01*
X165432619Y-52879761D01*
X165658809Y-52879761D01*
X165794523Y-52925000D01*
X166337380Y-53286904D02*
X166246904Y-53241666D01*
X166201666Y-53196428D01*
X166156428Y-53105952D01*
X166156428Y-53060714D01*
X166201666Y-52970238D01*
X166246904Y-52925000D01*
X166337380Y-52879761D01*
X166518333Y-52879761D01*
X166608809Y-52925000D01*
X166654047Y-52970238D01*
X166699285Y-53060714D01*
X166699285Y-53105952D01*
X166654047Y-53196428D01*
X166608809Y-53241666D01*
X166518333Y-53286904D01*
X166337380Y-53286904D01*
X166246904Y-53332142D01*
X166201666Y-53377380D01*
X166156428Y-53467857D01*
X166156428Y-53648809D01*
X166201666Y-53739285D01*
X166246904Y-53784523D01*
X166337380Y-53829761D01*
X166518333Y-53829761D01*
X166608809Y-53784523D01*
X166654047Y-53739285D01*
X166699285Y-53648809D01*
X166699285Y-53467857D01*
X166654047Y-53377380D01*
X166608809Y-53332142D01*
X166518333Y-53286904D01*
X167423095Y-53332142D02*
X167558809Y-53377380D01*
X167604047Y-53422619D01*
X167649285Y-53513095D01*
X167649285Y-53648809D01*
X167604047Y-53739285D01*
X167558809Y-53784523D01*
X167468333Y-53829761D01*
X167106428Y-53829761D01*
X167106428Y-52879761D01*
X167423095Y-52879761D01*
X167513571Y-52925000D01*
X167558809Y-52970238D01*
X167604047Y-53060714D01*
X167604047Y-53151190D01*
X167558809Y-53241666D01*
X167513571Y-53286904D01*
X167423095Y-53332142D01*
X167106428Y-53332142D01*
X168192142Y-53286904D02*
X168101666Y-53241666D01*
X168056428Y-53196428D01*
X168011190Y-53105952D01*
X168011190Y-53060714D01*
X168056428Y-52970238D01*
X168101666Y-52925000D01*
X168192142Y-52879761D01*
X168373095Y-52879761D01*
X168463571Y-52925000D01*
X168508809Y-52970238D01*
X168554047Y-53060714D01*
X168554047Y-53105952D01*
X168508809Y-53196428D01*
X168463571Y-53241666D01*
X168373095Y-53286904D01*
X168192142Y-53286904D01*
X168101666Y-53332142D01*
X168056428Y-53377380D01*
X168011190Y-53467857D01*
X168011190Y-53648809D01*
X168056428Y-53739285D01*
X168101666Y-53784523D01*
X168192142Y-53829761D01*
X168373095Y-53829761D01*
X168463571Y-53784523D01*
X168508809Y-53739285D01*
X168554047Y-53648809D01*
X168554047Y-53467857D01*
X168508809Y-53377380D01*
X168463571Y-53332142D01*
X168373095Y-53286904D01*
X168961190Y-53829761D02*
X168961190Y-52879761D01*
X169323095Y-52879761D01*
X169413571Y-52925000D01*
X169458809Y-52970238D01*
X169504047Y-53060714D01*
X169504047Y-53196428D01*
X169458809Y-53286904D01*
X169413571Y-53332142D01*
X169323095Y-53377380D01*
X168961190Y-53377380D01*
X167235714Y-65502380D02*
X166664285Y-65502380D01*
X166950000Y-65502380D02*
X166950000Y-64502380D01*
X166854761Y-64645238D01*
X166759523Y-64740476D01*
X166664285Y-64788095D01*
X165314285Y-67247619D02*
X165361904Y-67200000D01*
X165457142Y-67152380D01*
X165695238Y-67152380D01*
X165790476Y-67200000D01*
X165838095Y-67247619D01*
X165885714Y-67342857D01*
X165885714Y-67438095D01*
X165838095Y-67580952D01*
X165266666Y-68152380D01*
X165885714Y-68152380D01*
X164016666Y-64502380D02*
X164635714Y-64502380D01*
X164302380Y-64883333D01*
X164445238Y-64883333D01*
X164540476Y-64930952D01*
X164588095Y-64978571D01*
X164635714Y-65073809D01*
X164635714Y-65311904D01*
X164588095Y-65407142D01*
X164540476Y-65454761D01*
X164445238Y-65502380D01*
X164159523Y-65502380D01*
X164064285Y-65454761D01*
X164016666Y-65407142D01*
X163240476Y-67385714D02*
X163240476Y-68052380D01*
X163002380Y-67004761D02*
X162764285Y-67719047D01*
X163383333Y-67719047D01*
X160740476Y-67102380D02*
X160550000Y-67102380D01*
X160454761Y-67150000D01*
X160407142Y-67197619D01*
X160311904Y-67340476D01*
X160264285Y-67530952D01*
X160264285Y-67911904D01*
X160311904Y-68007142D01*
X160359523Y-68054761D01*
X160454761Y-68102380D01*
X160645238Y-68102380D01*
X160740476Y-68054761D01*
X160788095Y-68007142D01*
X160835714Y-67911904D01*
X160835714Y-67673809D01*
X160788095Y-67578571D01*
X160740476Y-67530952D01*
X160645238Y-67483333D01*
X160454761Y-67483333D01*
X160359523Y-67530952D01*
X160311904Y-67578571D01*
X160264285Y-67673809D01*
X162038095Y-64552380D02*
X161561904Y-64552380D01*
X161514285Y-65028571D01*
X161561904Y-64980952D01*
X161657142Y-64933333D01*
X161895238Y-64933333D01*
X161990476Y-64980952D01*
X162038095Y-65028571D01*
X162085714Y-65123809D01*
X162085714Y-65361904D01*
X162038095Y-65457142D01*
X161990476Y-65504761D01*
X161895238Y-65552380D01*
X161657142Y-65552380D01*
X161561904Y-65504761D01*
X161514285Y-65457142D01*
X158916666Y-64502380D02*
X159583333Y-64502380D01*
X159154761Y-65502380D01*
X157854761Y-67530952D02*
X157759523Y-67483333D01*
X157711904Y-67435714D01*
X157664285Y-67340476D01*
X157664285Y-67292857D01*
X157711904Y-67197619D01*
X157759523Y-67150000D01*
X157854761Y-67102380D01*
X158045238Y-67102380D01*
X158140476Y-67150000D01*
X158188095Y-67197619D01*
X158235714Y-67292857D01*
X158235714Y-67340476D01*
X158188095Y-67435714D01*
X158140476Y-67483333D01*
X158045238Y-67530952D01*
X157854761Y-67530952D01*
X157759523Y-67578571D01*
X157711904Y-67626190D01*
X157664285Y-67721428D01*
X157664285Y-67911904D01*
X157711904Y-68007142D01*
X157759523Y-68054761D01*
X157854761Y-68102380D01*
X158045238Y-68102380D01*
X158140476Y-68054761D01*
X158188095Y-68007142D01*
X158235714Y-67911904D01*
X158235714Y-67721428D01*
X158188095Y-67626190D01*
X158140476Y-67578571D01*
X158045238Y-67530952D01*
D13*
X94479285Y-64397619D02*
X94122142Y-64620952D01*
X94479285Y-64780476D02*
X93729285Y-64780476D01*
X93729285Y-64525238D01*
X93765000Y-64461428D01*
X93800714Y-64429523D01*
X93872142Y-64397619D01*
X93979285Y-64397619D01*
X94050714Y-64429523D01*
X94086428Y-64461428D01*
X94122142Y-64525238D01*
X94122142Y-64780476D01*
X94265000Y-64142380D02*
X94265000Y-63823333D01*
X94479285Y-64206190D02*
X93729285Y-63982857D01*
X94479285Y-63759523D01*
X93729285Y-63600000D02*
X94479285Y-63440476D01*
X93943571Y-63312857D01*
X94479285Y-63185238D01*
X93729285Y-63025714D01*
X96315000Y-64445476D02*
X96279285Y-64509285D01*
X96279285Y-64605000D01*
X96315000Y-64700714D01*
X96386428Y-64764523D01*
X96457857Y-64796428D01*
X96600714Y-64828333D01*
X96707857Y-64828333D01*
X96850714Y-64796428D01*
X96922142Y-64764523D01*
X96993571Y-64700714D01*
X97029285Y-64605000D01*
X97029285Y-64541190D01*
X96993571Y-64445476D01*
X96957857Y-64413571D01*
X96707857Y-64413571D01*
X96707857Y-64541190D01*
X97029285Y-64126428D02*
X96279285Y-64126428D01*
X97029285Y-63743571D01*
X96279285Y-63743571D01*
X97029285Y-63424523D02*
X96279285Y-63424523D01*
X96279285Y-63265000D01*
X96315000Y-63169285D01*
X96386428Y-63105476D01*
X96457857Y-63073571D01*
X96600714Y-63041666D01*
X96707857Y-63041666D01*
X96850714Y-63073571D01*
X96922142Y-63105476D01*
X96993571Y-63169285D01*
X97029285Y-63265000D01*
X97029285Y-63424523D01*
X99579285Y-64301904D02*
X99222142Y-64525238D01*
X99579285Y-64684761D02*
X98829285Y-64684761D01*
X98829285Y-64429523D01*
X98865000Y-64365714D01*
X98900714Y-64333809D01*
X98972142Y-64301904D01*
X99079285Y-64301904D01*
X99150714Y-64333809D01*
X99186428Y-64365714D01*
X99222142Y-64429523D01*
X99222142Y-64684761D01*
X99543571Y-64046666D02*
X99579285Y-63950952D01*
X99579285Y-63791428D01*
X99543571Y-63727619D01*
X99507857Y-63695714D01*
X99436428Y-63663809D01*
X99365000Y-63663809D01*
X99293571Y-63695714D01*
X99257857Y-63727619D01*
X99222142Y-63791428D01*
X99186428Y-63919047D01*
X99150714Y-63982857D01*
X99115000Y-64014761D01*
X99043571Y-64046666D01*
X98972142Y-64046666D01*
X98900714Y-64014761D01*
X98865000Y-63982857D01*
X98829285Y-63919047D01*
X98829285Y-63759523D01*
X98865000Y-63663809D01*
X98829285Y-63472380D02*
X98829285Y-63089523D01*
X99579285Y-63280952D02*
X98829285Y-63280952D01*
X101279285Y-64828333D02*
X102029285Y-64605000D01*
X101279285Y-64381666D01*
X101957857Y-63775476D02*
X101993571Y-63807380D01*
X102029285Y-63903095D01*
X102029285Y-63966904D01*
X101993571Y-64062619D01*
X101922142Y-64126428D01*
X101850714Y-64158333D01*
X101707857Y-64190238D01*
X101600714Y-64190238D01*
X101457857Y-64158333D01*
X101386428Y-64126428D01*
X101315000Y-64062619D01*
X101279285Y-63966904D01*
X101279285Y-63903095D01*
X101315000Y-63807380D01*
X101350714Y-63775476D01*
X101957857Y-63105476D02*
X101993571Y-63137380D01*
X102029285Y-63233095D01*
X102029285Y-63296904D01*
X101993571Y-63392619D01*
X101922142Y-63456428D01*
X101850714Y-63488333D01*
X101707857Y-63520238D01*
X101600714Y-63520238D01*
X101457857Y-63488333D01*
X101386428Y-63456428D01*
X101315000Y-63392619D01*
X101279285Y-63296904D01*
X101279285Y-63233095D01*
X101315000Y-63137380D01*
X101350714Y-63105476D01*
X104515000Y-64770714D02*
X104515000Y-64451666D01*
X104729285Y-64834523D02*
X103979285Y-64611190D01*
X104729285Y-64387857D01*
X103979285Y-64228333D02*
X103979285Y-63813571D01*
X104265000Y-64036904D01*
X104265000Y-63941190D01*
X104300714Y-63877380D01*
X104336428Y-63845476D01*
X104407857Y-63813571D01*
X104586428Y-63813571D01*
X104657857Y-63845476D01*
X104693571Y-63877380D01*
X104729285Y-63941190D01*
X104729285Y-64132619D01*
X104693571Y-64196428D01*
X104657857Y-64228333D01*
X103943571Y-63047857D02*
X104907857Y-63622142D01*
X104336428Y-62601190D02*
X104336428Y-62824523D01*
X104729285Y-62824523D02*
X103979285Y-62824523D01*
X103979285Y-62505476D01*
X104229285Y-61963095D02*
X104729285Y-61963095D01*
X103943571Y-62122619D02*
X104479285Y-62282142D01*
X104479285Y-61867380D01*
X107015000Y-64770714D02*
X107015000Y-64451666D01*
X107229285Y-64834523D02*
X106479285Y-64611190D01*
X107229285Y-64387857D01*
X106550714Y-64196428D02*
X106515000Y-64164523D01*
X106479285Y-64100714D01*
X106479285Y-63941190D01*
X106515000Y-63877380D01*
X106550714Y-63845476D01*
X106622142Y-63813571D01*
X106693571Y-63813571D01*
X106800714Y-63845476D01*
X107229285Y-64228333D01*
X107229285Y-63813571D01*
X106443571Y-63047857D02*
X107407857Y-63622142D01*
X106836428Y-62601190D02*
X106836428Y-62824523D01*
X107229285Y-62824523D02*
X106479285Y-62824523D01*
X106479285Y-62505476D01*
X106479285Y-61931190D02*
X106479285Y-62250238D01*
X106836428Y-62282142D01*
X106800714Y-62250238D01*
X106765000Y-62186428D01*
X106765000Y-62026904D01*
X106800714Y-61963095D01*
X106836428Y-61931190D01*
X106907857Y-61899285D01*
X107086428Y-61899285D01*
X107157857Y-61931190D01*
X107193571Y-61963095D01*
X107229285Y-62026904D01*
X107229285Y-62186428D01*
X107193571Y-62250238D01*
X107157857Y-62282142D01*
X109515000Y-64770714D02*
X109515000Y-64451666D01*
X109729285Y-64834523D02*
X108979285Y-64611190D01*
X109729285Y-64387857D01*
X109729285Y-63813571D02*
X109729285Y-64196428D01*
X109729285Y-64005000D02*
X108979285Y-64005000D01*
X109086428Y-64068809D01*
X109157857Y-64132619D01*
X109193571Y-64196428D01*
X108943571Y-63047857D02*
X109907857Y-63622142D01*
X109336428Y-62601190D02*
X109336428Y-62824523D01*
X109729285Y-62824523D02*
X108979285Y-62824523D01*
X108979285Y-62505476D01*
X108979285Y-61963095D02*
X108979285Y-62090714D01*
X109015000Y-62154523D01*
X109050714Y-62186428D01*
X109157857Y-62250238D01*
X109300714Y-62282142D01*
X109586428Y-62282142D01*
X109657857Y-62250238D01*
X109693571Y-62218333D01*
X109729285Y-62154523D01*
X109729285Y-62026904D01*
X109693571Y-61963095D01*
X109657857Y-61931190D01*
X109586428Y-61899285D01*
X109407857Y-61899285D01*
X109336428Y-61931190D01*
X109300714Y-61963095D01*
X109265000Y-62026904D01*
X109265000Y-62154523D01*
X109300714Y-62218333D01*
X109336428Y-62250238D01*
X109407857Y-62282142D01*
X112065000Y-64770714D02*
X112065000Y-64451666D01*
X112279285Y-64834523D02*
X111529285Y-64611190D01*
X112279285Y-64387857D01*
X111529285Y-64036904D02*
X111529285Y-63973095D01*
X111565000Y-63909285D01*
X111600714Y-63877380D01*
X111672142Y-63845476D01*
X111815000Y-63813571D01*
X111993571Y-63813571D01*
X112136428Y-63845476D01*
X112207857Y-63877380D01*
X112243571Y-63909285D01*
X112279285Y-63973095D01*
X112279285Y-64036904D01*
X112243571Y-64100714D01*
X112207857Y-64132619D01*
X112136428Y-64164523D01*
X111993571Y-64196428D01*
X111815000Y-64196428D01*
X111672142Y-64164523D01*
X111600714Y-64132619D01*
X111565000Y-64100714D01*
X111529285Y-64036904D01*
X111493571Y-63047857D02*
X112457857Y-63622142D01*
X111886428Y-62601190D02*
X111886428Y-62824523D01*
X112279285Y-62824523D02*
X111529285Y-62824523D01*
X111529285Y-62505476D01*
X111529285Y-62314047D02*
X111529285Y-61867380D01*
X112279285Y-62154523D01*
X114829285Y-64467619D02*
X114829285Y-64850476D01*
X114829285Y-64659047D02*
X114079285Y-64659047D01*
X114186428Y-64722857D01*
X114257857Y-64786666D01*
X114293571Y-64850476D01*
X114079285Y-63861428D02*
X114079285Y-64180476D01*
X114436428Y-64212380D01*
X114400714Y-64180476D01*
X114365000Y-64116666D01*
X114365000Y-63957142D01*
X114400714Y-63893333D01*
X114436428Y-63861428D01*
X114507857Y-63829523D01*
X114686428Y-63829523D01*
X114757857Y-63861428D01*
X114793571Y-63893333D01*
X114829285Y-63957142D01*
X114829285Y-64116666D01*
X114793571Y-64180476D01*
X114757857Y-64212380D01*
X114043571Y-63063809D02*
X115007857Y-63638095D01*
X114436428Y-62617142D02*
X114472142Y-62521428D01*
X114507857Y-62489523D01*
X114579285Y-62457619D01*
X114686428Y-62457619D01*
X114757857Y-62489523D01*
X114793571Y-62521428D01*
X114829285Y-62585238D01*
X114829285Y-62840476D01*
X114079285Y-62840476D01*
X114079285Y-62617142D01*
X114115000Y-62553333D01*
X114150714Y-62521428D01*
X114222142Y-62489523D01*
X114293571Y-62489523D01*
X114365000Y-62521428D01*
X114400714Y-62553333D01*
X114436428Y-62617142D01*
X114436428Y-62840476D01*
X114829285Y-61819523D02*
X114829285Y-62202380D01*
X114829285Y-62010952D02*
X114079285Y-62010952D01*
X114186428Y-62074761D01*
X114257857Y-62138571D01*
X114293571Y-62202380D01*
X117379285Y-64467619D02*
X117379285Y-64850476D01*
X117379285Y-64659047D02*
X116629285Y-64659047D01*
X116736428Y-64722857D01*
X116807857Y-64786666D01*
X116843571Y-64850476D01*
X116879285Y-63893333D02*
X117379285Y-63893333D01*
X116593571Y-64052857D02*
X117129285Y-64212380D01*
X117129285Y-63797619D01*
X116593571Y-63063809D02*
X117557857Y-63638095D01*
X116986428Y-62617142D02*
X117022142Y-62521428D01*
X117057857Y-62489523D01*
X117129285Y-62457619D01*
X117236428Y-62457619D01*
X117307857Y-62489523D01*
X117343571Y-62521428D01*
X117379285Y-62585238D01*
X117379285Y-62840476D01*
X116629285Y-62840476D01*
X116629285Y-62617142D01*
X116665000Y-62553333D01*
X116700714Y-62521428D01*
X116772142Y-62489523D01*
X116843571Y-62489523D01*
X116915000Y-62521428D01*
X116950714Y-62553333D01*
X116986428Y-62617142D01*
X116986428Y-62840476D01*
X116629285Y-62234285D02*
X116629285Y-61819523D01*
X116915000Y-62042857D01*
X116915000Y-61947142D01*
X116950714Y-61883333D01*
X116986428Y-61851428D01*
X117057857Y-61819523D01*
X117236428Y-61819523D01*
X117307857Y-61851428D01*
X117343571Y-61883333D01*
X117379285Y-61947142D01*
X117379285Y-62138571D01*
X117343571Y-62202380D01*
X117307857Y-62234285D01*
X122429285Y-64467619D02*
X122429285Y-64850476D01*
X122429285Y-64659047D02*
X121679285Y-64659047D01*
X121786428Y-64722857D01*
X121857857Y-64786666D01*
X121893571Y-64850476D01*
X121679285Y-64052857D02*
X121679285Y-63989047D01*
X121715000Y-63925238D01*
X121750714Y-63893333D01*
X121822142Y-63861428D01*
X121965000Y-63829523D01*
X122143571Y-63829523D01*
X122286428Y-63861428D01*
X122357857Y-63893333D01*
X122393571Y-63925238D01*
X122429285Y-63989047D01*
X122429285Y-64052857D01*
X122393571Y-64116666D01*
X122357857Y-64148571D01*
X122286428Y-64180476D01*
X122143571Y-64212380D01*
X121965000Y-64212380D01*
X121822142Y-64180476D01*
X121750714Y-64148571D01*
X121715000Y-64116666D01*
X121679285Y-64052857D01*
X121643571Y-63063809D02*
X122607857Y-63638095D01*
X122036428Y-62617142D02*
X122072142Y-62521428D01*
X122107857Y-62489523D01*
X122179285Y-62457619D01*
X122286428Y-62457619D01*
X122357857Y-62489523D01*
X122393571Y-62521428D01*
X122429285Y-62585238D01*
X122429285Y-62840476D01*
X121679285Y-62840476D01*
X121679285Y-62617142D01*
X121715000Y-62553333D01*
X121750714Y-62521428D01*
X121822142Y-62489523D01*
X121893571Y-62489523D01*
X121965000Y-62521428D01*
X122000714Y-62553333D01*
X122036428Y-62617142D01*
X122036428Y-62840476D01*
X121679285Y-61883333D02*
X121679285Y-62010952D01*
X121715000Y-62074761D01*
X121750714Y-62106666D01*
X121857857Y-62170476D01*
X122000714Y-62202380D01*
X122286428Y-62202380D01*
X122357857Y-62170476D01*
X122393571Y-62138571D01*
X122429285Y-62074761D01*
X122429285Y-61947142D01*
X122393571Y-61883333D01*
X122357857Y-61851428D01*
X122286428Y-61819523D01*
X122107857Y-61819523D01*
X122036428Y-61851428D01*
X122000714Y-61883333D01*
X121965000Y-61947142D01*
X121965000Y-62074761D01*
X122000714Y-62138571D01*
X122036428Y-62170476D01*
X122107857Y-62202380D01*
X119929285Y-64467619D02*
X119929285Y-64850476D01*
X119929285Y-64659047D02*
X119179285Y-64659047D01*
X119286428Y-64722857D01*
X119357857Y-64786666D01*
X119393571Y-64850476D01*
X119179285Y-63893333D02*
X119179285Y-64020952D01*
X119215000Y-64084761D01*
X119250714Y-64116666D01*
X119357857Y-64180476D01*
X119500714Y-64212380D01*
X119786428Y-64212380D01*
X119857857Y-64180476D01*
X119893571Y-64148571D01*
X119929285Y-64084761D01*
X119929285Y-63957142D01*
X119893571Y-63893333D01*
X119857857Y-63861428D01*
X119786428Y-63829523D01*
X119607857Y-63829523D01*
X119536428Y-63861428D01*
X119500714Y-63893333D01*
X119465000Y-63957142D01*
X119465000Y-64084761D01*
X119500714Y-64148571D01*
X119536428Y-64180476D01*
X119607857Y-64212380D01*
X119143571Y-63063809D02*
X120107857Y-63638095D01*
X119536428Y-62617142D02*
X119572142Y-62521428D01*
X119607857Y-62489523D01*
X119679285Y-62457619D01*
X119786428Y-62457619D01*
X119857857Y-62489523D01*
X119893571Y-62521428D01*
X119929285Y-62585238D01*
X119929285Y-62840476D01*
X119179285Y-62840476D01*
X119179285Y-62617142D01*
X119215000Y-62553333D01*
X119250714Y-62521428D01*
X119322142Y-62489523D01*
X119393571Y-62489523D01*
X119465000Y-62521428D01*
X119500714Y-62553333D01*
X119536428Y-62617142D01*
X119536428Y-62840476D01*
X119250714Y-62202380D02*
X119215000Y-62170476D01*
X119179285Y-62106666D01*
X119179285Y-61947142D01*
X119215000Y-61883333D01*
X119250714Y-61851428D01*
X119322142Y-61819523D01*
X119393571Y-61819523D01*
X119500714Y-61851428D01*
X119929285Y-62234285D01*
X119929285Y-61819523D01*
X116836428Y-55367619D02*
X116836428Y-55144285D01*
X117229285Y-55048571D02*
X117229285Y-55367619D01*
X116479285Y-55367619D01*
X116479285Y-55048571D01*
X116479285Y-54474285D02*
X116479285Y-54601904D01*
X116515000Y-54665714D01*
X116550714Y-54697619D01*
X116657857Y-54761428D01*
X116800714Y-54793333D01*
X117086428Y-54793333D01*
X117157857Y-54761428D01*
X117193571Y-54729523D01*
X117229285Y-54665714D01*
X117229285Y-54538095D01*
X117193571Y-54474285D01*
X117157857Y-54442380D01*
X117086428Y-54410476D01*
X116907857Y-54410476D01*
X116836428Y-54442380D01*
X116800714Y-54474285D01*
X116765000Y-54538095D01*
X116765000Y-54665714D01*
X116800714Y-54729523D01*
X116836428Y-54761428D01*
X116907857Y-54793333D01*
X116443571Y-53644761D02*
X117407857Y-54219047D01*
X116479285Y-53485238D02*
X116479285Y-53038571D01*
X117229285Y-53325714D01*
X114679285Y-55399523D02*
X113929285Y-55399523D01*
X113929285Y-55240000D01*
X113965000Y-55144285D01*
X114036428Y-55080476D01*
X114107857Y-55048571D01*
X114250714Y-55016666D01*
X114357857Y-55016666D01*
X114500714Y-55048571D01*
X114572142Y-55080476D01*
X114643571Y-55144285D01*
X114679285Y-55240000D01*
X114679285Y-55399523D01*
X113929285Y-54793333D02*
X113929285Y-54346666D01*
X114679285Y-54633809D01*
X113893571Y-53612857D02*
X114857857Y-54187142D01*
X113929285Y-53102380D02*
X113929285Y-53230000D01*
X113965000Y-53293809D01*
X114000714Y-53325714D01*
X114107857Y-53389523D01*
X114250714Y-53421428D01*
X114536428Y-53421428D01*
X114607857Y-53389523D01*
X114643571Y-53357619D01*
X114679285Y-53293809D01*
X114679285Y-53166190D01*
X114643571Y-53102380D01*
X114607857Y-53070476D01*
X114536428Y-53038571D01*
X114357857Y-53038571D01*
X114286428Y-53070476D01*
X114250714Y-53102380D01*
X114215000Y-53166190D01*
X114215000Y-53293809D01*
X114250714Y-53357619D01*
X114286428Y-53389523D01*
X114357857Y-53421428D01*
X98915000Y-54495476D02*
X98879285Y-54559285D01*
X98879285Y-54655000D01*
X98915000Y-54750714D01*
X98986428Y-54814523D01*
X99057857Y-54846428D01*
X99200714Y-54878333D01*
X99307857Y-54878333D01*
X99450714Y-54846428D01*
X99522142Y-54814523D01*
X99593571Y-54750714D01*
X99629285Y-54655000D01*
X99629285Y-54591190D01*
X99593571Y-54495476D01*
X99557857Y-54463571D01*
X99307857Y-54463571D01*
X99307857Y-54591190D01*
X99629285Y-54176428D02*
X98879285Y-54176428D01*
X99629285Y-53793571D01*
X98879285Y-53793571D01*
X99629285Y-53474523D02*
X98879285Y-53474523D01*
X98879285Y-53315000D01*
X98915000Y-53219285D01*
X98986428Y-53155476D01*
X99057857Y-53123571D01*
X99200714Y-53091666D01*
X99307857Y-53091666D01*
X99450714Y-53123571D01*
X99522142Y-53155476D01*
X99593571Y-53219285D01*
X99629285Y-53315000D01*
X99629285Y-53474523D01*
X101365000Y-54495476D02*
X101329285Y-54559285D01*
X101329285Y-54655000D01*
X101365000Y-54750714D01*
X101436428Y-54814523D01*
X101507857Y-54846428D01*
X101650714Y-54878333D01*
X101757857Y-54878333D01*
X101900714Y-54846428D01*
X101972142Y-54814523D01*
X102043571Y-54750714D01*
X102079285Y-54655000D01*
X102079285Y-54591190D01*
X102043571Y-54495476D01*
X102007857Y-54463571D01*
X101757857Y-54463571D01*
X101757857Y-54591190D01*
X102079285Y-54176428D02*
X101329285Y-54176428D01*
X102079285Y-53793571D01*
X101329285Y-53793571D01*
X102079285Y-53474523D02*
X101329285Y-53474523D01*
X101329285Y-53315000D01*
X101365000Y-53219285D01*
X101436428Y-53155476D01*
X101507857Y-53123571D01*
X101650714Y-53091666D01*
X101757857Y-53091666D01*
X101900714Y-53123571D01*
X101972142Y-53155476D01*
X102043571Y-53219285D01*
X102079285Y-53315000D01*
X102079285Y-53474523D01*
X94529285Y-56523809D02*
X93779285Y-56523809D01*
X93779285Y-56364285D01*
X93815000Y-56268571D01*
X93886428Y-56204761D01*
X93957857Y-56172857D01*
X94100714Y-56140952D01*
X94207857Y-56140952D01*
X94350714Y-56172857D01*
X94422142Y-56204761D01*
X94493571Y-56268571D01*
X94529285Y-56364285D01*
X94529285Y-56523809D01*
X93779285Y-55917619D02*
X93779285Y-55502857D01*
X94065000Y-55726190D01*
X94065000Y-55630476D01*
X94100714Y-55566666D01*
X94136428Y-55534761D01*
X94207857Y-55502857D01*
X94386428Y-55502857D01*
X94457857Y-55534761D01*
X94493571Y-55566666D01*
X94529285Y-55630476D01*
X94529285Y-55821904D01*
X94493571Y-55885714D01*
X94457857Y-55917619D01*
X93743571Y-54737142D02*
X94707857Y-55311428D01*
X93779285Y-54609523D02*
X93779285Y-54226666D01*
X94529285Y-54418095D02*
X93779285Y-54418095D01*
X93779285Y-54067142D02*
X94529285Y-53620476D01*
X93779285Y-53620476D02*
X94529285Y-54067142D01*
X93779285Y-53237619D02*
X93779285Y-53173809D01*
X93815000Y-53110000D01*
X93850714Y-53078095D01*
X93922142Y-53046190D01*
X94065000Y-53014285D01*
X94243571Y-53014285D01*
X94386428Y-53046190D01*
X94457857Y-53078095D01*
X94493571Y-53110000D01*
X94529285Y-53173809D01*
X94529285Y-53237619D01*
X94493571Y-53301428D01*
X94457857Y-53333333D01*
X94386428Y-53365238D01*
X94243571Y-53397142D01*
X94065000Y-53397142D01*
X93922142Y-53365238D01*
X93850714Y-53333333D01*
X93815000Y-53301428D01*
X93779285Y-53237619D01*
X109579285Y-55399523D02*
X108829285Y-55399523D01*
X108829285Y-55240000D01*
X108865000Y-55144285D01*
X108936428Y-55080476D01*
X109007857Y-55048571D01*
X109150714Y-55016666D01*
X109257857Y-55016666D01*
X109400714Y-55048571D01*
X109472142Y-55080476D01*
X109543571Y-55144285D01*
X109579285Y-55240000D01*
X109579285Y-55399523D01*
X109079285Y-54442380D02*
X109579285Y-54442380D01*
X108793571Y-54601904D02*
X109329285Y-54761428D01*
X109329285Y-54346666D01*
X108793571Y-53612857D02*
X109757857Y-54187142D01*
X109079285Y-53102380D02*
X109579285Y-53102380D01*
X108793571Y-53261904D02*
X109329285Y-53421428D01*
X109329285Y-53006666D01*
X104543571Y-57973571D02*
X104579285Y-57877857D01*
X104579285Y-57718333D01*
X104543571Y-57654523D01*
X104507857Y-57622619D01*
X104436428Y-57590714D01*
X104365000Y-57590714D01*
X104293571Y-57622619D01*
X104257857Y-57654523D01*
X104222142Y-57718333D01*
X104186428Y-57845952D01*
X104150714Y-57909761D01*
X104115000Y-57941666D01*
X104043571Y-57973571D01*
X103972142Y-57973571D01*
X103900714Y-57941666D01*
X103865000Y-57909761D01*
X103829285Y-57845952D01*
X103829285Y-57686428D01*
X103865000Y-57590714D01*
X104579285Y-57303571D02*
X103829285Y-57303571D01*
X103829285Y-57144047D01*
X103865000Y-57048333D01*
X103936428Y-56984523D01*
X104007857Y-56952619D01*
X104150714Y-56920714D01*
X104257857Y-56920714D01*
X104400714Y-56952619D01*
X104472142Y-56984523D01*
X104543571Y-57048333D01*
X104579285Y-57144047D01*
X104579285Y-57303571D01*
X104365000Y-56665476D02*
X104365000Y-56346428D01*
X104579285Y-56729285D02*
X103829285Y-56505952D01*
X104579285Y-56282619D01*
X103793571Y-55580714D02*
X104757857Y-56155000D01*
X104579285Y-55357380D02*
X103829285Y-55357380D01*
X103829285Y-55197857D01*
X103865000Y-55102142D01*
X103936428Y-55038333D01*
X104007857Y-55006428D01*
X104150714Y-54974523D01*
X104257857Y-54974523D01*
X104400714Y-55006428D01*
X104472142Y-55038333D01*
X104543571Y-55102142D01*
X104579285Y-55197857D01*
X104579285Y-55357380D01*
X104579285Y-54336428D02*
X104579285Y-54719285D01*
X104579285Y-54527857D02*
X103829285Y-54527857D01*
X103936428Y-54591666D01*
X104007857Y-54655476D01*
X104043571Y-54719285D01*
X103793571Y-53570714D02*
X104757857Y-54145000D01*
X103900714Y-53379285D02*
X103865000Y-53347380D01*
X103829285Y-53283571D01*
X103829285Y-53124047D01*
X103865000Y-53060238D01*
X103900714Y-53028333D01*
X103972142Y-52996428D01*
X104043571Y-52996428D01*
X104150714Y-53028333D01*
X104579285Y-53411190D01*
X104579285Y-52996428D01*
X107043571Y-57957619D02*
X107079285Y-57861904D01*
X107079285Y-57702380D01*
X107043571Y-57638571D01*
X107007857Y-57606666D01*
X106936428Y-57574761D01*
X106865000Y-57574761D01*
X106793571Y-57606666D01*
X106757857Y-57638571D01*
X106722142Y-57702380D01*
X106686428Y-57830000D01*
X106650714Y-57893809D01*
X106615000Y-57925714D01*
X106543571Y-57957619D01*
X106472142Y-57957619D01*
X106400714Y-57925714D01*
X106365000Y-57893809D01*
X106329285Y-57830000D01*
X106329285Y-57670476D01*
X106365000Y-57574761D01*
X107007857Y-56904761D02*
X107043571Y-56936666D01*
X107079285Y-57032380D01*
X107079285Y-57096190D01*
X107043571Y-57191904D01*
X106972142Y-57255714D01*
X106900714Y-57287619D01*
X106757857Y-57319523D01*
X106650714Y-57319523D01*
X106507857Y-57287619D01*
X106436428Y-57255714D01*
X106365000Y-57191904D01*
X106329285Y-57096190D01*
X106329285Y-57032380D01*
X106365000Y-56936666D01*
X106400714Y-56904761D01*
X107079285Y-56298571D02*
X107079285Y-56617619D01*
X106329285Y-56617619D01*
X106293571Y-55596666D02*
X107257857Y-56170952D01*
X107079285Y-55373333D02*
X106329285Y-55373333D01*
X106329285Y-55213809D01*
X106365000Y-55118095D01*
X106436428Y-55054285D01*
X106507857Y-55022380D01*
X106650714Y-54990476D01*
X106757857Y-54990476D01*
X106900714Y-55022380D01*
X106972142Y-55054285D01*
X107043571Y-55118095D01*
X107079285Y-55213809D01*
X107079285Y-55373333D01*
X106329285Y-54575714D02*
X106329285Y-54511904D01*
X106365000Y-54448095D01*
X106400714Y-54416190D01*
X106472142Y-54384285D01*
X106615000Y-54352380D01*
X106793571Y-54352380D01*
X106936428Y-54384285D01*
X107007857Y-54416190D01*
X107043571Y-54448095D01*
X107079285Y-54511904D01*
X107079285Y-54575714D01*
X107043571Y-54639523D01*
X107007857Y-54671428D01*
X106936428Y-54703333D01*
X106793571Y-54735238D01*
X106615000Y-54735238D01*
X106472142Y-54703333D01*
X106400714Y-54671428D01*
X106365000Y-54639523D01*
X106329285Y-54575714D01*
X106293571Y-53586666D02*
X107257857Y-54160952D01*
X106329285Y-53427142D02*
X106329285Y-53012380D01*
X106615000Y-53235714D01*
X106615000Y-53140000D01*
X106650714Y-53076190D01*
X106686428Y-53044285D01*
X106757857Y-53012380D01*
X106936428Y-53012380D01*
X107007857Y-53044285D01*
X107043571Y-53076190D01*
X107079285Y-53140000D01*
X107079285Y-53331428D01*
X107043571Y-53395238D01*
X107007857Y-53427142D01*
X112057857Y-55016666D02*
X112093571Y-55048571D01*
X112129285Y-55144285D01*
X112129285Y-55208095D01*
X112093571Y-55303809D01*
X112022142Y-55367619D01*
X111950714Y-55399523D01*
X111807857Y-55431428D01*
X111700714Y-55431428D01*
X111557857Y-55399523D01*
X111486428Y-55367619D01*
X111415000Y-55303809D01*
X111379285Y-55208095D01*
X111379285Y-55144285D01*
X111415000Y-55048571D01*
X111450714Y-55016666D01*
X111379285Y-54442380D02*
X111379285Y-54570000D01*
X111415000Y-54633809D01*
X111450714Y-54665714D01*
X111557857Y-54729523D01*
X111700714Y-54761428D01*
X111986428Y-54761428D01*
X112057857Y-54729523D01*
X112093571Y-54697619D01*
X112129285Y-54633809D01*
X112129285Y-54506190D01*
X112093571Y-54442380D01*
X112057857Y-54410476D01*
X111986428Y-54378571D01*
X111807857Y-54378571D01*
X111736428Y-54410476D01*
X111700714Y-54442380D01*
X111665000Y-54506190D01*
X111665000Y-54633809D01*
X111700714Y-54697619D01*
X111736428Y-54729523D01*
X111807857Y-54761428D01*
X111343571Y-53612857D02*
X112307857Y-54187142D01*
X111379285Y-53070476D02*
X111379285Y-53389523D01*
X111736428Y-53421428D01*
X111700714Y-53389523D01*
X111665000Y-53325714D01*
X111665000Y-53166190D01*
X111700714Y-53102380D01*
X111736428Y-53070476D01*
X111807857Y-53038571D01*
X111986428Y-53038571D01*
X112057857Y-53070476D01*
X112093571Y-53102380D01*
X112129285Y-53166190D01*
X112129285Y-53325714D01*
X112093571Y-53389523D01*
X112057857Y-53421428D01*
X121886428Y-55176190D02*
X121922142Y-55080476D01*
X121957857Y-55048571D01*
X122029285Y-55016666D01*
X122136428Y-55016666D01*
X122207857Y-55048571D01*
X122243571Y-55080476D01*
X122279285Y-55144285D01*
X122279285Y-55399523D01*
X121529285Y-55399523D01*
X121529285Y-55176190D01*
X121565000Y-55112380D01*
X121600714Y-55080476D01*
X121672142Y-55048571D01*
X121743571Y-55048571D01*
X121815000Y-55080476D01*
X121850714Y-55112380D01*
X121886428Y-55176190D01*
X121886428Y-55399523D01*
X121529285Y-54410476D02*
X121529285Y-54729523D01*
X121886428Y-54761428D01*
X121850714Y-54729523D01*
X121815000Y-54665714D01*
X121815000Y-54506190D01*
X121850714Y-54442380D01*
X121886428Y-54410476D01*
X121957857Y-54378571D01*
X122136428Y-54378571D01*
X122207857Y-54410476D01*
X122243571Y-54442380D01*
X122279285Y-54506190D01*
X122279285Y-54665714D01*
X122243571Y-54729523D01*
X122207857Y-54761428D01*
X121493571Y-53612857D02*
X122457857Y-54187142D01*
X122279285Y-53357619D02*
X122279285Y-53230000D01*
X122243571Y-53166190D01*
X122207857Y-53134285D01*
X122100714Y-53070476D01*
X121957857Y-53038571D01*
X121672142Y-53038571D01*
X121600714Y-53070476D01*
X121565000Y-53102380D01*
X121529285Y-53166190D01*
X121529285Y-53293809D01*
X121565000Y-53357619D01*
X121600714Y-53389523D01*
X121672142Y-53421428D01*
X121850714Y-53421428D01*
X121922142Y-53389523D01*
X121957857Y-53357619D01*
X121993571Y-53293809D01*
X121993571Y-53166190D01*
X121957857Y-53102380D01*
X121922142Y-53070476D01*
X121850714Y-53038571D01*
X97079285Y-56603571D02*
X96329285Y-56603571D01*
X96329285Y-56444047D01*
X96365000Y-56348333D01*
X96436428Y-56284523D01*
X96507857Y-56252619D01*
X96650714Y-56220714D01*
X96757857Y-56220714D01*
X96900714Y-56252619D01*
X96972142Y-56284523D01*
X97043571Y-56348333D01*
X97079285Y-56444047D01*
X97079285Y-56603571D01*
X96400714Y-55965476D02*
X96365000Y-55933571D01*
X96329285Y-55869761D01*
X96329285Y-55710238D01*
X96365000Y-55646428D01*
X96400714Y-55614523D01*
X96472142Y-55582619D01*
X96543571Y-55582619D01*
X96650714Y-55614523D01*
X97079285Y-55997380D01*
X97079285Y-55582619D01*
X96293571Y-54816904D02*
X97257857Y-55391190D01*
X97079285Y-54210714D02*
X96722142Y-54434047D01*
X97079285Y-54593571D02*
X96329285Y-54593571D01*
X96329285Y-54338333D01*
X96365000Y-54274523D01*
X96400714Y-54242619D01*
X96472142Y-54210714D01*
X96579285Y-54210714D01*
X96650714Y-54242619D01*
X96686428Y-54274523D01*
X96722142Y-54338333D01*
X96722142Y-54593571D01*
X96329285Y-53987380D02*
X97079285Y-53540714D01*
X96329285Y-53540714D02*
X97079285Y-53987380D01*
X97079285Y-52934523D02*
X97079285Y-53317380D01*
X97079285Y-53125952D02*
X96329285Y-53125952D01*
X96436428Y-53189761D01*
X96507857Y-53253571D01*
X96543571Y-53317380D01*
X119386428Y-55176190D02*
X119422142Y-55080476D01*
X119457857Y-55048571D01*
X119529285Y-55016666D01*
X119636428Y-55016666D01*
X119707857Y-55048571D01*
X119743571Y-55080476D01*
X119779285Y-55144285D01*
X119779285Y-55399523D01*
X119029285Y-55399523D01*
X119029285Y-55176190D01*
X119065000Y-55112380D01*
X119100714Y-55080476D01*
X119172142Y-55048571D01*
X119243571Y-55048571D01*
X119315000Y-55080476D01*
X119350714Y-55112380D01*
X119386428Y-55176190D01*
X119386428Y-55399523D01*
X119279285Y-54442380D02*
X119779285Y-54442380D01*
X118993571Y-54601904D02*
X119529285Y-54761428D01*
X119529285Y-54346666D01*
X118993571Y-53612857D02*
X119957857Y-54187142D01*
X119350714Y-53293809D02*
X119315000Y-53357619D01*
X119279285Y-53389523D01*
X119207857Y-53421428D01*
X119172142Y-53421428D01*
X119100714Y-53389523D01*
X119065000Y-53357619D01*
X119029285Y-53293809D01*
X119029285Y-53166190D01*
X119065000Y-53102380D01*
X119100714Y-53070476D01*
X119172142Y-53038571D01*
X119207857Y-53038571D01*
X119279285Y-53070476D01*
X119315000Y-53102380D01*
X119350714Y-53166190D01*
X119350714Y-53293809D01*
X119386428Y-53357619D01*
X119422142Y-53389523D01*
X119493571Y-53421428D01*
X119636428Y-53421428D01*
X119707857Y-53389523D01*
X119743571Y-53357619D01*
X119779285Y-53293809D01*
X119779285Y-53166190D01*
X119743571Y-53102380D01*
X119707857Y-53070476D01*
X119636428Y-53038571D01*
X119493571Y-53038571D01*
X119422142Y-53070476D01*
X119386428Y-53102380D01*
X119350714Y-53166190D01*
D10*
X88429285Y-59886428D02*
X89036428Y-59886428D01*
X89107857Y-59850714D01*
X89143571Y-59815000D01*
X89179285Y-59743571D01*
X89179285Y-59600714D01*
X89143571Y-59529285D01*
X89107857Y-59493571D01*
X89036428Y-59457857D01*
X88429285Y-59457857D01*
X89143571Y-59136428D02*
X89179285Y-59029285D01*
X89179285Y-58850714D01*
X89143571Y-58779285D01*
X89107857Y-58743571D01*
X89036428Y-58707857D01*
X88965000Y-58707857D01*
X88893571Y-58743571D01*
X88857857Y-58779285D01*
X88822142Y-58850714D01*
X88786428Y-58993571D01*
X88750714Y-59065000D01*
X88715000Y-59100714D01*
X88643571Y-59136428D01*
X88572142Y-59136428D01*
X88500714Y-59100714D01*
X88465000Y-59065000D01*
X88429285Y-58993571D01*
X88429285Y-58815000D01*
X88465000Y-58707857D01*
X88786428Y-58136428D02*
X88822142Y-58029285D01*
X88857857Y-57993571D01*
X88929285Y-57957857D01*
X89036428Y-57957857D01*
X89107857Y-57993571D01*
X89143571Y-58029285D01*
X89179285Y-58100714D01*
X89179285Y-58386428D01*
X88429285Y-58386428D01*
X88429285Y-58136428D01*
X88465000Y-58065000D01*
X88500714Y-58029285D01*
X88572142Y-57993571D01*
X88643571Y-57993571D01*
X88715000Y-58029285D01*
X88750714Y-58065000D01*
X88786428Y-58136428D01*
X88786428Y-58386428D01*
M02*
