M48
; DRILL file {KiCad (5.1.6-0-10_14)} date Monday, October 19, 2020 at 10:55:12 AM
; FORMAT={-:-/ absolute / inch / decimal}
; #@! TF.CreationDate,2020-10-19T10:55:12+09:00
; #@! TF.GenerationSoftware,Kicad,Pcbnew,(5.1.6-0-10_14)
; #@! TF.FileFunction,Plated,1,2,PTH
FMAT,2
INCH
T1C0.0118
T2C0.0320
T3C0.0354
T4C0.0512
T5C0.0579
T6C0.1693
%
G90
G05
T1
X2.0472Y-2.8346
X2.0472Y-5.0984
X3.189Y-5.0984
X3.4646Y-5.8268
X4.311Y-4.1339
X4.7933Y-2.7756
X4.9016Y-2.5197
X5.8268Y-2.0472
X5.8268Y-5.8268
X6.0827Y-2.0472
X6.0827Y-5.8268
X6.1024Y-2.8346
X7.062Y-4.9852
X7.0965Y-4.8622
X7.5469Y-5.5862
X7.5984Y-4.1339
X7.6181Y-5.561
X7.6969Y-2.7657
X7.7854Y-5.0197
X7.9035Y-5.0492
X8.4252Y-5.8268
X8.4449Y-2.7657
X8.5223Y-2.7966
X8.6024Y-4.9902
X8.6417Y-2.7756
X8.6687Y-2.9429
X8.8386Y-5.0984
X9.1732Y-4.7835
X9.6654Y-4.8524
X9.8425Y-5.0984
T2
X8.3496Y-4.3461
X8.3496Y-4.6461
X6.85Y-3.8205
X6.85Y-4.1205
X7.5996Y-4.3461
X7.5996Y-4.6461
X4.3067Y-2.8461
X4.3067Y-3.1461
X3.5567Y-3.5961
X3.5567Y-3.8961
X7.5996Y-5.0961
X7.5996Y-5.3961
X9.0996Y-2.8461
X9.0996Y-3.1461
X6.8516Y-4.3461
X6.8516Y-4.6461
X5.7559Y-4.3461
X5.7559Y-4.6461
X5.8067Y-5.0961
X5.8067Y-5.3961
X3.5567Y-2.8461
X3.5567Y-3.1461
X2.8067Y-3.7939
X2.8067Y-4.0939
X9.7972Y-4.3461
X9.7972Y-4.6461
X3.7072Y-2.0208
X3.7072Y-2.62
X3.8072Y-2.0208
X3.8072Y-2.62
X3.9072Y-2.0208
X3.9072Y-2.62
X4.0072Y-2.0208
X4.0072Y-2.62
X4.1072Y-2.0208
X4.1072Y-2.62
X4.2072Y-2.0208
X4.2072Y-2.62
X4.3072Y-2.0208
X4.3072Y-2.62
X4.4072Y-2.0208
X4.4072Y-2.62
X4.5072Y-2.0208
X4.5072Y-2.62
X4.6072Y-2.0208
X4.6072Y-2.62
X4.7072Y-2.0208
X4.7072Y-2.62
X4.8072Y-2.0208
X4.8072Y-2.62
X9.7972Y-3.5961
X9.7972Y-3.8961
X8.3496Y-2.8461
X8.3496Y-3.1461
X9.0996Y-3.8205
X9.0996Y-4.1205
X5.0567Y-4.3461
X5.0567Y-4.6461
X7.5996Y-2.8461
X7.5996Y-3.1461
X8.3496Y-3.5961
X8.3496Y-3.8961
X4.3067Y-4.3461
X4.3067Y-4.6461
X2.8067Y-2.8461
X2.8067Y-3.1461
X9.8496Y-2.8461
X9.8496Y-3.1461
X6.8496Y-2.8461
X6.8496Y-3.1461
X3.5567Y-4.3461
X3.5567Y-4.6461
X4.3067Y-5.0961
X4.3067Y-5.3961
X2.8067Y-4.3461
X2.8067Y-4.6461
X5.8067Y-2.8461
X5.8067Y-3.1461
X5.0567Y-2.8461
X5.0567Y-3.1461
X9.0996Y-4.3461
X9.0996Y-4.6461
X7.5996Y-3.5961
X7.5996Y-3.8961
X3.5567Y-5.0961
X3.5567Y-5.3961
X5.7559Y-3.5961
X5.7559Y-3.8961
X5.0567Y-3.8205
X5.0567Y-4.1205
X4.3067Y-3.5961
X4.3067Y-3.8961
T3
X6.2217Y-2.7244
X6.2717Y-2.6244
X6.3217Y-2.7244
X6.3717Y-2.6244
X6.4217Y-2.7244
X6.4717Y-2.6244
X6.5217Y-2.7244
X6.5717Y-2.6244
X5.3343Y-2.7244
X5.3843Y-2.6244
X5.4343Y-2.7244
X5.4843Y-2.6244
X5.5343Y-2.7244
X5.5843Y-2.6244
X5.6343Y-2.7244
X5.6843Y-2.6244
T4
X5.0339Y-2.222
X5.0339Y-2.478
T5
X2.2831Y-3.1205
X2.5331Y-3.0205
X7.0728Y-4.6205
X7.3228Y-4.5205
X2.2831Y-4.6205
X2.5331Y-4.5205
X6.3228Y-3.8705
X6.5728Y-3.7705
X3.7831Y-3.8705
X4.0331Y-3.7705
X8.5728Y-3.8705
X8.8228Y-3.7705
X3.0331Y-3.1205
X3.2831Y-3.0205
X9.3228Y-3.8705
X9.5728Y-3.7705
X3.7831Y-5.3705
X4.0331Y-5.2705
X7.0728Y-3.1205
X7.3228Y-3.0205
X7.8228Y-4.6205
X8.0728Y-4.5205
X5.2831Y-3.1205
X5.5331Y-3.0205
X3.0331Y-4.6205
X3.2831Y-4.5205
X7.0728Y-3.8705
X7.3228Y-3.7705
X4.5331Y-5.3705
X4.7831Y-5.2705
X6.7478Y-5.6705
X6.9978Y-5.5705
X4.5331Y-3.8705
X4.7831Y-3.7705
X8.5728Y-4.6205
X8.8228Y-4.5205
X2.2831Y-3.8705
X2.5331Y-3.7705
X6.3228Y-4.6205
X6.5728Y-4.5205
X3.7831Y-3.1205
X4.0331Y-3.0205
X9.3228Y-4.6205
X9.5728Y-4.5205
X3.0331Y-3.8705
X3.2831Y-3.7705
X7.8228Y-3.1205
X8.0728Y-3.0205
X5.2831Y-5.3705
X5.5331Y-5.2705
X4.5331Y-4.6205
X4.7831Y-4.5205
X3.7831Y-4.6205
X4.0331Y-4.5205
X5.2831Y-3.8705
X5.5331Y-3.7705
X8.5728Y-3.1205
X8.8228Y-3.0205
X4.9581Y-5.6705
X5.2081Y-5.5705
X9.3228Y-3.1205
X9.5728Y-3.0205
X5.2831Y-4.6205
X5.5331Y-4.5205
X6.3228Y-3.1205
X6.5728Y-3.0205
X4.5331Y-3.1205
X4.7831Y-3.0205
X7.8228Y-3.8705
X8.0728Y-3.7705
T6
X9.0976Y-3.5961
T0
M30
