G04 #@! TF.GenerationSoftware,KiCad,Pcbnew,(5.1.6-0-10_14)*
G04 #@! TF.CreationDate,2020-10-19T10:54:39+09:00*
G04 #@! TF.ProjectId,reviung34-split-L,72657669-756e-4673-9334-2d73706c6974,2.0*
G04 #@! TF.SameCoordinates,Original*
G04 #@! TF.FileFunction,Legend,Bot*
G04 #@! TF.FilePolarity,Positive*
%FSLAX46Y46*%
G04 Gerber Fmt 4.6, Leading zero omitted, Abs format (unit mm)*
G04 Created by KiCad (PCBNEW (5.1.6-0-10_14)) date 2020-10-19 10:54:39*
%MOMM*%
%LPD*%
G01*
G04 APERTURE LIST*
%ADD10C,0.150000*%
%ADD11C,0.010000*%
G04 APERTURE END LIST*
D10*
X205754880Y-146686904D02*
X206021547Y-146305952D01*
X206212023Y-146686904D02*
X206212023Y-145886904D01*
X205907261Y-145886904D01*
X205831071Y-145925000D01*
X205792976Y-145963095D01*
X205754880Y-146039285D01*
X205754880Y-146153571D01*
X205792976Y-146229761D01*
X205831071Y-146267857D01*
X205907261Y-146305952D01*
X206212023Y-146305952D01*
X205412023Y-146267857D02*
X205145357Y-146267857D01*
X205031071Y-146686904D02*
X205412023Y-146686904D01*
X205412023Y-145886904D01*
X205031071Y-145886904D01*
X204802500Y-145886904D02*
X204535833Y-146686904D01*
X204269166Y-145886904D01*
X204002500Y-146686904D02*
X204002500Y-145886904D01*
X203621547Y-145886904D02*
X203621547Y-146534523D01*
X203583452Y-146610714D01*
X203545357Y-146648809D01*
X203469166Y-146686904D01*
X203316785Y-146686904D01*
X203240595Y-146648809D01*
X203202500Y-146610714D01*
X203164404Y-146534523D01*
X203164404Y-145886904D01*
X202783452Y-146686904D02*
X202783452Y-145886904D01*
X202326309Y-146686904D01*
X202326309Y-145886904D01*
X201526309Y-145925000D02*
X201602500Y-145886904D01*
X201716785Y-145886904D01*
X201831071Y-145925000D01*
X201907261Y-146001190D01*
X201945357Y-146077380D01*
X201983452Y-146229761D01*
X201983452Y-146344047D01*
X201945357Y-146496428D01*
X201907261Y-146572619D01*
X201831071Y-146648809D01*
X201716785Y-146686904D01*
X201640595Y-146686904D01*
X201526309Y-146648809D01*
X201488214Y-146610714D01*
X201488214Y-146344047D01*
X201640595Y-146344047D01*
X201221547Y-145886904D02*
X200726309Y-145886904D01*
X200992976Y-146191666D01*
X200878690Y-146191666D01*
X200802500Y-146229761D01*
X200764404Y-146267857D01*
X200726309Y-146344047D01*
X200726309Y-146534523D01*
X200764404Y-146610714D01*
X200802500Y-146648809D01*
X200878690Y-146686904D01*
X201107261Y-146686904D01*
X201183452Y-146648809D01*
X201221547Y-146610714D01*
X200040595Y-146153571D02*
X200040595Y-146686904D01*
X200231071Y-145848809D02*
X200421547Y-146420238D01*
X199926309Y-146420238D01*
X199050119Y-146648809D02*
X198935833Y-146686904D01*
X198745357Y-146686904D01*
X198669166Y-146648809D01*
X198631071Y-146610714D01*
X198592976Y-146534523D01*
X198592976Y-146458333D01*
X198631071Y-146382142D01*
X198669166Y-146344047D01*
X198745357Y-146305952D01*
X198897738Y-146267857D01*
X198973928Y-146229761D01*
X199012023Y-146191666D01*
X199050119Y-146115476D01*
X199050119Y-146039285D01*
X199012023Y-145963095D01*
X198973928Y-145925000D01*
X198897738Y-145886904D01*
X198707261Y-145886904D01*
X198592976Y-145925000D01*
X198250119Y-146686904D02*
X198250119Y-145886904D01*
X197945357Y-145886904D01*
X197869166Y-145925000D01*
X197831071Y-145963095D01*
X197792976Y-146039285D01*
X197792976Y-146153571D01*
X197831071Y-146229761D01*
X197869166Y-146267857D01*
X197945357Y-146305952D01*
X198250119Y-146305952D01*
X197069166Y-146686904D02*
X197450119Y-146686904D01*
X197450119Y-145886904D01*
X196802500Y-146686904D02*
X196802500Y-145886904D01*
X196535833Y-145886904D02*
X196078690Y-145886904D01*
X196307261Y-146686904D02*
X196307261Y-145886904D01*
X195202500Y-146686904D02*
X195202500Y-146153571D01*
X195202500Y-146305952D02*
X195164404Y-146229761D01*
X195126309Y-146191666D01*
X195050119Y-146153571D01*
X194973928Y-146153571D01*
X194402500Y-146648809D02*
X194478690Y-146686904D01*
X194631071Y-146686904D01*
X194707261Y-146648809D01*
X194745357Y-146572619D01*
X194745357Y-146267857D01*
X194707261Y-146191666D01*
X194631071Y-146153571D01*
X194478690Y-146153571D01*
X194402500Y-146191666D01*
X194364404Y-146267857D01*
X194364404Y-146344047D01*
X194745357Y-146420238D01*
X194097738Y-146153571D02*
X193907261Y-146686904D01*
X193716785Y-146153571D01*
X192840595Y-145963095D02*
X192802500Y-145925000D01*
X192726309Y-145886904D01*
X192535833Y-145886904D01*
X192459642Y-145925000D01*
X192421547Y-145963095D01*
X192383452Y-146039285D01*
X192383452Y-146115476D01*
X192421547Y-146229761D01*
X192878690Y-146686904D01*
X192383452Y-146686904D01*
X192040595Y-146610714D02*
X192002500Y-146648809D01*
X192040595Y-146686904D01*
X192078690Y-146648809D01*
X192040595Y-146610714D01*
X192040595Y-146686904D01*
X191507261Y-145886904D02*
X191431071Y-145886904D01*
X191354880Y-145925000D01*
X191316785Y-145963095D01*
X191278690Y-146039285D01*
X191240595Y-146191666D01*
X191240595Y-146382142D01*
X191278690Y-146534523D01*
X191316785Y-146610714D01*
X191354880Y-146648809D01*
X191431071Y-146686904D01*
X191507261Y-146686904D01*
X191583452Y-146648809D01*
X191621547Y-146610714D01*
X191659642Y-146534523D01*
X191697738Y-146382142D01*
X191697738Y-146191666D01*
X191659642Y-146039285D01*
X191621547Y-145963095D01*
X191583452Y-145925000D01*
X191507261Y-145886904D01*
X206212023Y-148036904D02*
X206212023Y-147236904D01*
X206021547Y-147236904D01*
X205907261Y-147275000D01*
X205831071Y-147351190D01*
X205792976Y-147427380D01*
X205754880Y-147579761D01*
X205754880Y-147694047D01*
X205792976Y-147846428D01*
X205831071Y-147922619D01*
X205907261Y-147998809D01*
X206021547Y-148036904D01*
X206212023Y-148036904D01*
X205107261Y-147998809D02*
X205183452Y-148036904D01*
X205335833Y-148036904D01*
X205412023Y-147998809D01*
X205450119Y-147922619D01*
X205450119Y-147617857D01*
X205412023Y-147541666D01*
X205335833Y-147503571D01*
X205183452Y-147503571D01*
X205107261Y-147541666D01*
X205069166Y-147617857D01*
X205069166Y-147694047D01*
X205450119Y-147770238D01*
X204764404Y-147998809D02*
X204688214Y-148036904D01*
X204535833Y-148036904D01*
X204459642Y-147998809D01*
X204421547Y-147922619D01*
X204421547Y-147884523D01*
X204459642Y-147808333D01*
X204535833Y-147770238D01*
X204650119Y-147770238D01*
X204726309Y-147732142D01*
X204764404Y-147655952D01*
X204764404Y-147617857D01*
X204726309Y-147541666D01*
X204650119Y-147503571D01*
X204535833Y-147503571D01*
X204459642Y-147541666D01*
X204078690Y-148036904D02*
X204078690Y-147503571D01*
X204078690Y-147236904D02*
X204116785Y-147275000D01*
X204078690Y-147313095D01*
X204040595Y-147275000D01*
X204078690Y-147236904D01*
X204078690Y-147313095D01*
X203354880Y-147503571D02*
X203354880Y-148151190D01*
X203392976Y-148227380D01*
X203431071Y-148265476D01*
X203507261Y-148303571D01*
X203621547Y-148303571D01*
X203697738Y-148265476D01*
X203354880Y-147998809D02*
X203431071Y-148036904D01*
X203583452Y-148036904D01*
X203659642Y-147998809D01*
X203697738Y-147960714D01*
X203735833Y-147884523D01*
X203735833Y-147655952D01*
X203697738Y-147579761D01*
X203659642Y-147541666D01*
X203583452Y-147503571D01*
X203431071Y-147503571D01*
X203354880Y-147541666D01*
X202973928Y-147503571D02*
X202973928Y-148036904D01*
X202973928Y-147579761D02*
X202935833Y-147541666D01*
X202859642Y-147503571D01*
X202745357Y-147503571D01*
X202669166Y-147541666D01*
X202631071Y-147617857D01*
X202631071Y-148036904D01*
X201945357Y-147998809D02*
X202021547Y-148036904D01*
X202173928Y-148036904D01*
X202250119Y-147998809D01*
X202288214Y-147922619D01*
X202288214Y-147617857D01*
X202250119Y-147541666D01*
X202173928Y-147503571D01*
X202021547Y-147503571D01*
X201945357Y-147541666D01*
X201907261Y-147617857D01*
X201907261Y-147694047D01*
X202288214Y-147770238D01*
X201221547Y-148036904D02*
X201221547Y-147236904D01*
X201221547Y-147998809D02*
X201297738Y-148036904D01*
X201450119Y-148036904D01*
X201526309Y-147998809D01*
X201564404Y-147960714D01*
X201602500Y-147884523D01*
X201602500Y-147655952D01*
X201564404Y-147579761D01*
X201526309Y-147541666D01*
X201450119Y-147503571D01*
X201297738Y-147503571D01*
X201221547Y-147541666D01*
X200231071Y-148036904D02*
X200231071Y-147236904D01*
X200231071Y-147541666D02*
X200154880Y-147503571D01*
X200002500Y-147503571D01*
X199926309Y-147541666D01*
X199888214Y-147579761D01*
X199850119Y-147655952D01*
X199850119Y-147884523D01*
X199888214Y-147960714D01*
X199926309Y-147998809D01*
X200002500Y-148036904D01*
X200154880Y-148036904D01*
X200231071Y-147998809D01*
X199583452Y-147503571D02*
X199392976Y-148036904D01*
X199202500Y-147503571D02*
X199392976Y-148036904D01*
X199469166Y-148227380D01*
X199507261Y-148265476D01*
X199583452Y-148303571D01*
X197945357Y-147503571D02*
X197945357Y-148151190D01*
X197983452Y-148227380D01*
X198021547Y-148265476D01*
X198097738Y-148303571D01*
X198212023Y-148303571D01*
X198288214Y-148265476D01*
X197945357Y-147998809D02*
X198021547Y-148036904D01*
X198173928Y-148036904D01*
X198250119Y-147998809D01*
X198288214Y-147960714D01*
X198326309Y-147884523D01*
X198326309Y-147655952D01*
X198288214Y-147579761D01*
X198250119Y-147541666D01*
X198173928Y-147503571D01*
X198021547Y-147503571D01*
X197945357Y-147541666D01*
X197678690Y-147503571D02*
X197373928Y-147503571D01*
X197564404Y-147236904D02*
X197564404Y-147922619D01*
X197526309Y-147998809D01*
X197450119Y-148036904D01*
X197373928Y-148036904D01*
X197107261Y-148036904D02*
X197107261Y-147503571D01*
X197107261Y-147236904D02*
X197145357Y-147275000D01*
X197107261Y-147313095D01*
X197069166Y-147275000D01*
X197107261Y-147236904D01*
X197107261Y-147313095D01*
X196726309Y-147503571D02*
X196726309Y-148303571D01*
X196726309Y-147541666D02*
X196650119Y-147503571D01*
X196497738Y-147503571D01*
X196421547Y-147541666D01*
X196383452Y-147579761D01*
X196345357Y-147655952D01*
X196345357Y-147884523D01*
X196383452Y-147960714D01*
X196421547Y-147998809D01*
X196497738Y-148036904D01*
X196650119Y-148036904D01*
X196726309Y-147998809D01*
X196040595Y-147998809D02*
X195964404Y-148036904D01*
X195812023Y-148036904D01*
X195735833Y-147998809D01*
X195697738Y-147922619D01*
X195697738Y-147884523D01*
X195735833Y-147808333D01*
X195812023Y-147770238D01*
X195926309Y-147770238D01*
X196002500Y-147732142D01*
X196040595Y-147655952D01*
X196040595Y-147617857D01*
X196002500Y-147541666D01*
X195926309Y-147503571D01*
X195812023Y-147503571D01*
X195735833Y-147541666D01*
X194783452Y-147313095D02*
X194745357Y-147275000D01*
X194669166Y-147236904D01*
X194478690Y-147236904D01*
X194402500Y-147275000D01*
X194364404Y-147313095D01*
X194326309Y-147389285D01*
X194326309Y-147465476D01*
X194364404Y-147579761D01*
X194821547Y-148036904D01*
X194326309Y-148036904D01*
X193831071Y-147236904D02*
X193754880Y-147236904D01*
X193678690Y-147275000D01*
X193640595Y-147313095D01*
X193602500Y-147389285D01*
X193564404Y-147541666D01*
X193564404Y-147732142D01*
X193602500Y-147884523D01*
X193640595Y-147960714D01*
X193678690Y-147998809D01*
X193754880Y-148036904D01*
X193831071Y-148036904D01*
X193907261Y-147998809D01*
X193945357Y-147960714D01*
X193983452Y-147884523D01*
X194021547Y-147732142D01*
X194021547Y-147541666D01*
X193983452Y-147389285D01*
X193945357Y-147313095D01*
X193907261Y-147275000D01*
X193831071Y-147236904D01*
X193259642Y-147313095D02*
X193221547Y-147275000D01*
X193145357Y-147236904D01*
X192954880Y-147236904D01*
X192878690Y-147275000D01*
X192840595Y-147313095D01*
X192802500Y-147389285D01*
X192802500Y-147465476D01*
X192840595Y-147579761D01*
X193297738Y-148036904D01*
X192802500Y-148036904D01*
X192307261Y-147236904D02*
X192231071Y-147236904D01*
X192154880Y-147275000D01*
X192116785Y-147313095D01*
X192078690Y-147389285D01*
X192040595Y-147541666D01*
X192040595Y-147732142D01*
X192078690Y-147884523D01*
X192116785Y-147960714D01*
X192154880Y-147998809D01*
X192231071Y-148036904D01*
X192307261Y-148036904D01*
X192383452Y-147998809D01*
X192421547Y-147960714D01*
X192459642Y-147884523D01*
X192497738Y-147732142D01*
X192497738Y-147541666D01*
X192459642Y-147389285D01*
X192421547Y-147313095D01*
X192383452Y-147275000D01*
X192307261Y-147236904D01*
D11*
G36*
X210955315Y-142431922D02*
G01*
X210880345Y-142460525D01*
X210837687Y-142503908D01*
X210832353Y-142535791D01*
X210827621Y-142604282D01*
X210823515Y-142703663D01*
X210820062Y-142828214D01*
X210817287Y-142972213D01*
X210815216Y-143129941D01*
X210813872Y-143295678D01*
X210813283Y-143463703D01*
X210813473Y-143628298D01*
X210814468Y-143783741D01*
X210816292Y-143924312D01*
X210818972Y-144044292D01*
X210822533Y-144137960D01*
X210827001Y-144199596D01*
X210830082Y-144218658D01*
X210869363Y-144298116D01*
X210937210Y-144347645D01*
X211035168Y-144368247D01*
X211062449Y-144369000D01*
X211148167Y-144369000D01*
X211148167Y-142421666D01*
X211053913Y-142421666D01*
X210955315Y-142431922D01*
G37*
X210955315Y-142431922D02*
X210880345Y-142460525D01*
X210837687Y-142503908D01*
X210832353Y-142535791D01*
X210827621Y-142604282D01*
X210823515Y-142703663D01*
X210820062Y-142828214D01*
X210817287Y-142972213D01*
X210815216Y-143129941D01*
X210813872Y-143295678D01*
X210813283Y-143463703D01*
X210813473Y-143628298D01*
X210814468Y-143783741D01*
X210816292Y-143924312D01*
X210818972Y-144044292D01*
X210822533Y-144137960D01*
X210827001Y-144199596D01*
X210830082Y-144218658D01*
X210869363Y-144298116D01*
X210937210Y-144347645D01*
X211035168Y-144368247D01*
X211062449Y-144369000D01*
X211148167Y-144369000D01*
X211148167Y-142421666D01*
X211053913Y-142421666D01*
X210955315Y-142431922D01*
G36*
X210739169Y-140778093D02*
G01*
X210342381Y-140822589D01*
X209950887Y-140906850D01*
X209567898Y-141030847D01*
X209215208Y-141185247D01*
X208859935Y-141384243D01*
X208533684Y-141612008D01*
X208237017Y-141865973D01*
X207970494Y-142143568D01*
X207734676Y-142442224D01*
X207530125Y-142759373D01*
X207357401Y-143092446D01*
X207217064Y-143438873D01*
X207109675Y-143796087D01*
X207035796Y-144161517D01*
X206995987Y-144532596D01*
X206990808Y-144906754D01*
X207020821Y-145281422D01*
X207086587Y-145654032D01*
X207188665Y-146022014D01*
X207327618Y-146382799D01*
X207504005Y-146733819D01*
X207718388Y-147072505D01*
X207882553Y-147290000D01*
X207986140Y-147409791D01*
X208112723Y-147543066D01*
X208251574Y-147679468D01*
X208391965Y-147808642D01*
X208523166Y-147920231D01*
X208587000Y-147969968D01*
X208925165Y-148196517D01*
X209282842Y-148386755D01*
X209656646Y-148539746D01*
X210043194Y-148654554D01*
X210439100Y-148730244D01*
X210840980Y-148765881D01*
X211245449Y-148760528D01*
X211399900Y-148747471D01*
X211801110Y-148684916D01*
X212188135Y-148583797D01*
X212558906Y-148446113D01*
X212911356Y-148273861D01*
X213243417Y-148069042D01*
X213405034Y-147946166D01*
X212248834Y-147946166D01*
X211148167Y-147946166D01*
X211148167Y-145300333D01*
X211068792Y-145300645D01*
X210966921Y-145316230D01*
X210891472Y-145363568D01*
X210846575Y-145427627D01*
X210838709Y-145445950D01*
X210832035Y-145469307D01*
X210826456Y-145501090D01*
X210821875Y-145544695D01*
X210818196Y-145603514D01*
X210815322Y-145680942D01*
X210813154Y-145780372D01*
X210811597Y-145905197D01*
X210810554Y-146058811D01*
X210809926Y-146244608D01*
X210809619Y-146465982D01*
X210809533Y-146723791D01*
X210809500Y-147946166D01*
X209727865Y-147946166D01*
X209734700Y-146670875D01*
X209736150Y-146406552D01*
X209737535Y-146181061D01*
X209738988Y-145990896D01*
X209740643Y-145832557D01*
X209742632Y-145702539D01*
X209745090Y-145597341D01*
X209748150Y-145513460D01*
X209751944Y-145447393D01*
X209756607Y-145395637D01*
X209762272Y-145354690D01*
X209769071Y-145321048D01*
X209777140Y-145291210D01*
X209786610Y-145261673D01*
X209788577Y-145255810D01*
X209860954Y-145103360D01*
X209965740Y-144972376D01*
X210096552Y-144870649D01*
X210110880Y-144862351D01*
X210213726Y-144804538D01*
X210125321Y-144754649D01*
X209996016Y-144664405D01*
X209895774Y-144553363D01*
X209819309Y-144414558D01*
X209776430Y-144294916D01*
X209766313Y-144239116D01*
X209757393Y-144146894D01*
X209749724Y-144024146D01*
X209743357Y-143876768D01*
X209738346Y-143710656D01*
X209734744Y-143531707D01*
X209732603Y-143345815D01*
X209731976Y-143158877D01*
X209732917Y-142976790D01*
X209735477Y-142805449D01*
X209739711Y-142650749D01*
X209745670Y-142518588D01*
X209753408Y-142414861D01*
X209759145Y-142367262D01*
X209794980Y-142178116D01*
X209841282Y-142025671D01*
X209900743Y-141905016D01*
X209976053Y-141811239D01*
X210069904Y-141739428D01*
X210117093Y-141713853D01*
X210177592Y-141685633D01*
X210236629Y-141662032D01*
X210298674Y-141642584D01*
X210368196Y-141626818D01*
X210449667Y-141614267D01*
X210547557Y-141604463D01*
X210666335Y-141596936D01*
X210810472Y-141591219D01*
X210984438Y-141586842D01*
X211192704Y-141583338D01*
X211386292Y-141580857D01*
X212248834Y-141570707D01*
X212248834Y-147946166D01*
X213405034Y-147946166D01*
X213553023Y-147833652D01*
X213838105Y-147569689D01*
X214096596Y-147279153D01*
X214326429Y-146964042D01*
X214525536Y-146626353D01*
X214691850Y-146268085D01*
X214823303Y-145891236D01*
X214917828Y-145497805D01*
X214947360Y-145318746D01*
X214964041Y-145159312D01*
X214974042Y-144972012D01*
X214977364Y-144770784D01*
X214974008Y-144569564D01*
X214963974Y-144382289D01*
X214947321Y-144223308D01*
X214868838Y-143817277D01*
X214751869Y-143426807D01*
X214597990Y-143054043D01*
X214408777Y-142701129D01*
X214185805Y-142370208D01*
X213930652Y-142063423D01*
X213644891Y-141782917D01*
X213330100Y-141530835D01*
X212987854Y-141309320D01*
X212690249Y-141153136D01*
X212315110Y-140998359D01*
X211929223Y-140883496D01*
X211535799Y-140808517D01*
X211138045Y-140773393D01*
X210739169Y-140778093D01*
G37*
X210739169Y-140778093D02*
X210342381Y-140822589D01*
X209950887Y-140906850D01*
X209567898Y-141030847D01*
X209215208Y-141185247D01*
X208859935Y-141384243D01*
X208533684Y-141612008D01*
X208237017Y-141865973D01*
X207970494Y-142143568D01*
X207734676Y-142442224D01*
X207530125Y-142759373D01*
X207357401Y-143092446D01*
X207217064Y-143438873D01*
X207109675Y-143796087D01*
X207035796Y-144161517D01*
X206995987Y-144532596D01*
X206990808Y-144906754D01*
X207020821Y-145281422D01*
X207086587Y-145654032D01*
X207188665Y-146022014D01*
X207327618Y-146382799D01*
X207504005Y-146733819D01*
X207718388Y-147072505D01*
X207882553Y-147290000D01*
X207986140Y-147409791D01*
X208112723Y-147543066D01*
X208251574Y-147679468D01*
X208391965Y-147808642D01*
X208523166Y-147920231D01*
X208587000Y-147969968D01*
X208925165Y-148196517D01*
X209282842Y-148386755D01*
X209656646Y-148539746D01*
X210043194Y-148654554D01*
X210439100Y-148730244D01*
X210840980Y-148765881D01*
X211245449Y-148760528D01*
X211399900Y-148747471D01*
X211801110Y-148684916D01*
X212188135Y-148583797D01*
X212558906Y-148446113D01*
X212911356Y-148273861D01*
X213243417Y-148069042D01*
X213405034Y-147946166D01*
X212248834Y-147946166D01*
X211148167Y-147946166D01*
X211148167Y-145300333D01*
X211068792Y-145300645D01*
X210966921Y-145316230D01*
X210891472Y-145363568D01*
X210846575Y-145427627D01*
X210838709Y-145445950D01*
X210832035Y-145469307D01*
X210826456Y-145501090D01*
X210821875Y-145544695D01*
X210818196Y-145603514D01*
X210815322Y-145680942D01*
X210813154Y-145780372D01*
X210811597Y-145905197D01*
X210810554Y-146058811D01*
X210809926Y-146244608D01*
X210809619Y-146465982D01*
X210809533Y-146723791D01*
X210809500Y-147946166D01*
X209727865Y-147946166D01*
X209734700Y-146670875D01*
X209736150Y-146406552D01*
X209737535Y-146181061D01*
X209738988Y-145990896D01*
X209740643Y-145832557D01*
X209742632Y-145702539D01*
X209745090Y-145597341D01*
X209748150Y-145513460D01*
X209751944Y-145447393D01*
X209756607Y-145395637D01*
X209762272Y-145354690D01*
X209769071Y-145321048D01*
X209777140Y-145291210D01*
X209786610Y-145261673D01*
X209788577Y-145255810D01*
X209860954Y-145103360D01*
X209965740Y-144972376D01*
X210096552Y-144870649D01*
X210110880Y-144862351D01*
X210213726Y-144804538D01*
X210125321Y-144754649D01*
X209996016Y-144664405D01*
X209895774Y-144553363D01*
X209819309Y-144414558D01*
X209776430Y-144294916D01*
X209766313Y-144239116D01*
X209757393Y-144146894D01*
X209749724Y-144024146D01*
X209743357Y-143876768D01*
X209738346Y-143710656D01*
X209734744Y-143531707D01*
X209732603Y-143345815D01*
X209731976Y-143158877D01*
X209732917Y-142976790D01*
X209735477Y-142805449D01*
X209739711Y-142650749D01*
X209745670Y-142518588D01*
X209753408Y-142414861D01*
X209759145Y-142367262D01*
X209794980Y-142178116D01*
X209841282Y-142025671D01*
X209900743Y-141905016D01*
X209976053Y-141811239D01*
X210069904Y-141739428D01*
X210117093Y-141713853D01*
X210177592Y-141685633D01*
X210236629Y-141662032D01*
X210298674Y-141642584D01*
X210368196Y-141626818D01*
X210449667Y-141614267D01*
X210547557Y-141604463D01*
X210666335Y-141596936D01*
X210810472Y-141591219D01*
X210984438Y-141586842D01*
X211192704Y-141583338D01*
X211386292Y-141580857D01*
X212248834Y-141570707D01*
X212248834Y-147946166D01*
X213405034Y-147946166D01*
X213553023Y-147833652D01*
X213838105Y-147569689D01*
X214096596Y-147279153D01*
X214326429Y-146964042D01*
X214525536Y-146626353D01*
X214691850Y-146268085D01*
X214823303Y-145891236D01*
X214917828Y-145497805D01*
X214947360Y-145318746D01*
X214964041Y-145159312D01*
X214974042Y-144972012D01*
X214977364Y-144770784D01*
X214974008Y-144569564D01*
X214963974Y-144382289D01*
X214947321Y-144223308D01*
X214868838Y-143817277D01*
X214751869Y-143426807D01*
X214597990Y-143054043D01*
X214408777Y-142701129D01*
X214185805Y-142370208D01*
X213930652Y-142063423D01*
X213644891Y-141782917D01*
X213330100Y-141530835D01*
X212987854Y-141309320D01*
X212690249Y-141153136D01*
X212315110Y-140998359D01*
X211929223Y-140883496D01*
X211535799Y-140808517D01*
X211138045Y-140773393D01*
X210739169Y-140778093D01*
G36*
X96354167Y-144788567D02*
G01*
X96254773Y-144725533D01*
X96174285Y-144682920D01*
X96097213Y-144664753D01*
X96046237Y-144662499D01*
X95928699Y-144679629D01*
X95835568Y-144731105D01*
X95766738Y-144817061D01*
X95722104Y-144937631D01*
X95701562Y-145092946D01*
X95701216Y-145100446D01*
X95707039Y-145268937D01*
X95739827Y-145406920D01*
X95798890Y-145513425D01*
X95883540Y-145587481D01*
X95993089Y-145628118D01*
X96081430Y-145636166D01*
X96179992Y-145621343D01*
X96266432Y-145581369D01*
X96310676Y-145542312D01*
X96346501Y-145512140D01*
X96368905Y-145521412D01*
X96375334Y-145559818D01*
X96391943Y-145609349D01*
X96433187Y-145633057D01*
X96486196Y-145624749D01*
X96497345Y-145618531D01*
X96505042Y-145604553D01*
X96511018Y-145571104D01*
X96515384Y-145514544D01*
X96518251Y-145431235D01*
X96519730Y-145317535D01*
X96519933Y-145169807D01*
X96518971Y-144984409D01*
X96518797Y-144962132D01*
X96354167Y-144962132D01*
X96354167Y-145146830D01*
X96353464Y-145236337D01*
X96349277Y-145294896D01*
X96338488Y-145333893D01*
X96317978Y-145364711D01*
X96285375Y-145398016D01*
X96192971Y-145468762D01*
X96105308Y-145498396D01*
X96023496Y-145486739D01*
X95964954Y-145449309D01*
X95909167Y-145372672D01*
X95876257Y-145263902D01*
X95867334Y-145150441D01*
X95879505Y-145016525D01*
X95913899Y-144913080D01*
X95967335Y-144842184D01*
X96036632Y-144805913D01*
X96118609Y-144806343D01*
X96210087Y-144845553D01*
X96268307Y-144888638D01*
X96354167Y-144962132D01*
X96518797Y-144962132D01*
X96518511Y-144925647D01*
X96512917Y-144249750D01*
X96433542Y-144243180D01*
X96354167Y-144236611D01*
X96354167Y-144788567D01*
G37*
X96354167Y-144788567D02*
X96254773Y-144725533D01*
X96174285Y-144682920D01*
X96097213Y-144664753D01*
X96046237Y-144662499D01*
X95928699Y-144679629D01*
X95835568Y-144731105D01*
X95766738Y-144817061D01*
X95722104Y-144937631D01*
X95701562Y-145092946D01*
X95701216Y-145100446D01*
X95707039Y-145268937D01*
X95739827Y-145406920D01*
X95798890Y-145513425D01*
X95883540Y-145587481D01*
X95993089Y-145628118D01*
X96081430Y-145636166D01*
X96179992Y-145621343D01*
X96266432Y-145581369D01*
X96310676Y-145542312D01*
X96346501Y-145512140D01*
X96368905Y-145521412D01*
X96375334Y-145559818D01*
X96391943Y-145609349D01*
X96433187Y-145633057D01*
X96486196Y-145624749D01*
X96497345Y-145618531D01*
X96505042Y-145604553D01*
X96511018Y-145571104D01*
X96515384Y-145514544D01*
X96518251Y-145431235D01*
X96519730Y-145317535D01*
X96519933Y-145169807D01*
X96518971Y-144984409D01*
X96518797Y-144962132D01*
X96354167Y-144962132D01*
X96354167Y-145146830D01*
X96353464Y-145236337D01*
X96349277Y-145294896D01*
X96338488Y-145333893D01*
X96317978Y-145364711D01*
X96285375Y-145398016D01*
X96192971Y-145468762D01*
X96105308Y-145498396D01*
X96023496Y-145486739D01*
X95964954Y-145449309D01*
X95909167Y-145372672D01*
X95876257Y-145263902D01*
X95867334Y-145150441D01*
X95879505Y-145016525D01*
X95913899Y-144913080D01*
X95967335Y-144842184D01*
X96036632Y-144805913D01*
X96118609Y-144806343D01*
X96210087Y-144845553D01*
X96268307Y-144888638D01*
X96354167Y-144962132D01*
X96518797Y-144962132D01*
X96518511Y-144925647D01*
X96512917Y-144249750D01*
X96433542Y-144243180D01*
X96354167Y-144236611D01*
X96354167Y-144788567D01*
G36*
X97285500Y-144927747D02*
G01*
X97285673Y-145118038D01*
X97286333Y-145270280D01*
X97287690Y-145388755D01*
X97289957Y-145477747D01*
X97293344Y-145541537D01*
X97298063Y-145584410D01*
X97304324Y-145610648D01*
X97312341Y-145624534D01*
X97320128Y-145629616D01*
X97370696Y-145629274D01*
X97413803Y-145596074D01*
X97433186Y-145554530D01*
X97441478Y-145527803D01*
X97455589Y-145522133D01*
X97486010Y-145538817D01*
X97524502Y-145565830D01*
X97622046Y-145614449D01*
X97730304Y-145634810D01*
X97835745Y-145626075D01*
X97920500Y-145590384D01*
X98006055Y-145508555D01*
X98063208Y-145396192D01*
X98092180Y-145252763D01*
X98096184Y-145162926D01*
X98095162Y-145137029D01*
X97926844Y-145137029D01*
X97917109Y-145276108D01*
X97885116Y-145380550D01*
X97830231Y-145452111D01*
X97807193Y-145468684D01*
X97723695Y-145497524D01*
X97634670Y-145484627D01*
X97555756Y-145441864D01*
X97497532Y-145394133D01*
X97460949Y-145343108D01*
X97441365Y-145277365D01*
X97434139Y-145185475D01*
X97433667Y-145141346D01*
X97434396Y-145057092D01*
X97439430Y-145002421D01*
X97453039Y-144964582D01*
X97479495Y-144930825D01*
X97516203Y-144894930D01*
X97607276Y-144828404D01*
X97694260Y-144801817D01*
X97773094Y-144812778D01*
X97839719Y-144858893D01*
X97890077Y-144937768D01*
X97920108Y-145047012D01*
X97926844Y-145137029D01*
X98095162Y-145137029D01*
X98091597Y-145046771D01*
X98076337Y-144957818D01*
X98053897Y-144894280D01*
X98000150Y-144805103D01*
X97928509Y-144729961D01*
X97850762Y-144680247D01*
X97822359Y-144670466D01*
X97734685Y-144663148D01*
X97636652Y-144676564D01*
X97549498Y-144706984D01*
X97522291Y-144723182D01*
X97477567Y-144752811D01*
X97448757Y-144767861D01*
X97446275Y-144768333D01*
X97441499Y-144748503D01*
X97437553Y-144694357D01*
X97434819Y-144613909D01*
X97433679Y-144515174D01*
X97433667Y-144503750D01*
X97433667Y-144239166D01*
X97285500Y-144239166D01*
X97285500Y-144927747D01*
G37*
X97285500Y-144927747D02*
X97285673Y-145118038D01*
X97286333Y-145270280D01*
X97287690Y-145388755D01*
X97289957Y-145477747D01*
X97293344Y-145541537D01*
X97298063Y-145584410D01*
X97304324Y-145610648D01*
X97312341Y-145624534D01*
X97320128Y-145629616D01*
X97370696Y-145629274D01*
X97413803Y-145596074D01*
X97433186Y-145554530D01*
X97441478Y-145527803D01*
X97455589Y-145522133D01*
X97486010Y-145538817D01*
X97524502Y-145565830D01*
X97622046Y-145614449D01*
X97730304Y-145634810D01*
X97835745Y-145626075D01*
X97920500Y-145590384D01*
X98006055Y-145508555D01*
X98063208Y-145396192D01*
X98092180Y-145252763D01*
X98096184Y-145162926D01*
X98095162Y-145137029D01*
X97926844Y-145137029D01*
X97917109Y-145276108D01*
X97885116Y-145380550D01*
X97830231Y-145452111D01*
X97807193Y-145468684D01*
X97723695Y-145497524D01*
X97634670Y-145484627D01*
X97555756Y-145441864D01*
X97497532Y-145394133D01*
X97460949Y-145343108D01*
X97441365Y-145277365D01*
X97434139Y-145185475D01*
X97433667Y-145141346D01*
X97434396Y-145057092D01*
X97439430Y-145002421D01*
X97453039Y-144964582D01*
X97479495Y-144930825D01*
X97516203Y-144894930D01*
X97607276Y-144828404D01*
X97694260Y-144801817D01*
X97773094Y-144812778D01*
X97839719Y-144858893D01*
X97890077Y-144937768D01*
X97920108Y-145047012D01*
X97926844Y-145137029D01*
X98095162Y-145137029D01*
X98091597Y-145046771D01*
X98076337Y-144957818D01*
X98053897Y-144894280D01*
X98000150Y-144805103D01*
X97928509Y-144729961D01*
X97850762Y-144680247D01*
X97822359Y-144670466D01*
X97734685Y-144663148D01*
X97636652Y-144676564D01*
X97549498Y-144706984D01*
X97522291Y-144723182D01*
X97477567Y-144752811D01*
X97448757Y-144767861D01*
X97446275Y-144768333D01*
X97441499Y-144748503D01*
X97437553Y-144694357D01*
X97434819Y-144613909D01*
X97433679Y-144515174D01*
X97433667Y-144503750D01*
X97433667Y-144239166D01*
X97285500Y-144239166D01*
X97285500Y-144927747D01*
G36*
X98555803Y-144676255D02*
G01*
X98499005Y-144699669D01*
X98481417Y-144709375D01*
X98395556Y-144782008D01*
X98335081Y-144882885D01*
X98304423Y-145003465D01*
X98301500Y-145056099D01*
X98302355Y-145104333D01*
X98308787Y-145139439D01*
X98326602Y-145163511D01*
X98361606Y-145178642D01*
X98419603Y-145186925D01*
X98506399Y-145190452D01*
X98627798Y-145191318D01*
X98676680Y-145191377D01*
X98956609Y-145191666D01*
X98943532Y-145260458D01*
X98906238Y-145372919D01*
X98843537Y-145451539D01*
X98755412Y-145496325D01*
X98641849Y-145507284D01*
X98502831Y-145484423D01*
X98471688Y-145475709D01*
X98393426Y-145457980D01*
X98348218Y-145462807D01*
X98332398Y-145491677D01*
X98337639Y-145530096D01*
X98368190Y-145572507D01*
X98435568Y-145603188D01*
X98541381Y-145622684D01*
X98629584Y-145629525D01*
X98728288Y-145631663D01*
X98799571Y-145625382D01*
X98857827Y-145608876D01*
X98883584Y-145597652D01*
X98982055Y-145534147D01*
X99051385Y-145448699D01*
X99093805Y-145336932D01*
X99111549Y-145194471D01*
X99112400Y-145149333D01*
X99104648Y-145064666D01*
X98953209Y-145064666D01*
X98699173Y-145064666D01*
X98591547Y-145064070D01*
X98519867Y-145061693D01*
X98477755Y-145056648D01*
X98458832Y-145048051D01*
X98456721Y-145035016D01*
X98457986Y-145031185D01*
X98469109Y-144981042D01*
X98470834Y-144955473D01*
X98485135Y-144914245D01*
X98520681Y-144864202D01*
X98532706Y-144851371D01*
X98608812Y-144801476D01*
X98694071Y-144786576D01*
X98779168Y-144803574D01*
X98854788Y-144849372D01*
X98911617Y-144920872D01*
X98935395Y-144985291D01*
X98953209Y-145064666D01*
X99104648Y-145064666D01*
X99097977Y-144991807D01*
X99054702Y-144865044D01*
X98982751Y-144769257D01*
X98882306Y-144704657D01*
X98753544Y-144671456D01*
X98706006Y-144667480D01*
X98618900Y-144666626D01*
X98555803Y-144676255D01*
G37*
X98555803Y-144676255D02*
X98499005Y-144699669D01*
X98481417Y-144709375D01*
X98395556Y-144782008D01*
X98335081Y-144882885D01*
X98304423Y-145003465D01*
X98301500Y-145056099D01*
X98302355Y-145104333D01*
X98308787Y-145139439D01*
X98326602Y-145163511D01*
X98361606Y-145178642D01*
X98419603Y-145186925D01*
X98506399Y-145190452D01*
X98627798Y-145191318D01*
X98676680Y-145191377D01*
X98956609Y-145191666D01*
X98943532Y-145260458D01*
X98906238Y-145372919D01*
X98843537Y-145451539D01*
X98755412Y-145496325D01*
X98641849Y-145507284D01*
X98502831Y-145484423D01*
X98471688Y-145475709D01*
X98393426Y-145457980D01*
X98348218Y-145462807D01*
X98332398Y-145491677D01*
X98337639Y-145530096D01*
X98368190Y-145572507D01*
X98435568Y-145603188D01*
X98541381Y-145622684D01*
X98629584Y-145629525D01*
X98728288Y-145631663D01*
X98799571Y-145625382D01*
X98857827Y-145608876D01*
X98883584Y-145597652D01*
X98982055Y-145534147D01*
X99051385Y-145448699D01*
X99093805Y-145336932D01*
X99111549Y-145194471D01*
X99112400Y-145149333D01*
X99104648Y-145064666D01*
X98953209Y-145064666D01*
X98699173Y-145064666D01*
X98591547Y-145064070D01*
X98519867Y-145061693D01*
X98477755Y-145056648D01*
X98458832Y-145048051D01*
X98456721Y-145035016D01*
X98457986Y-145031185D01*
X98469109Y-144981042D01*
X98470834Y-144955473D01*
X98485135Y-144914245D01*
X98520681Y-144864202D01*
X98532706Y-144851371D01*
X98608812Y-144801476D01*
X98694071Y-144786576D01*
X98779168Y-144803574D01*
X98854788Y-144849372D01*
X98911617Y-144920872D01*
X98935395Y-144985291D01*
X98953209Y-145064666D01*
X99104648Y-145064666D01*
X99097977Y-144991807D01*
X99054702Y-144865044D01*
X98982751Y-144769257D01*
X98882306Y-144704657D01*
X98753544Y-144671456D01*
X98706006Y-144667480D01*
X98618900Y-144666626D01*
X98555803Y-144676255D01*
G36*
X99265120Y-144674981D02*
G01*
X99222846Y-144711875D01*
X99215320Y-144772359D01*
X99215334Y-144772459D01*
X99224398Y-144802734D01*
X99248208Y-144815301D01*
X99299069Y-144815385D01*
X99313943Y-144814335D01*
X99369822Y-144813336D01*
X99410786Y-144825521D01*
X99452620Y-144858145D01*
X99488568Y-144894602D01*
X99571500Y-144981782D01*
X99571500Y-145296126D01*
X99572096Y-145420171D01*
X99574311Y-145508172D01*
X99578787Y-145566405D01*
X99586167Y-145601151D01*
X99597094Y-145618685D01*
X99604982Y-145623318D01*
X99677272Y-145632593D01*
X99714375Y-145622148D01*
X99723603Y-145607667D01*
X99730602Y-145569961D01*
X99735597Y-145505028D01*
X99738813Y-145408864D01*
X99740474Y-145277466D01*
X99740834Y-145149834D01*
X99740530Y-144997070D01*
X99739364Y-144881384D01*
X99736950Y-144797523D01*
X99732904Y-144740236D01*
X99726844Y-144704269D01*
X99718383Y-144684370D01*
X99707139Y-144675287D01*
X99706102Y-144674867D01*
X99646467Y-144668503D01*
X99606185Y-144697327D01*
X99592667Y-144751056D01*
X99592667Y-144815592D01*
X99507940Y-144739046D01*
X99444870Y-144689566D01*
X99389140Y-144666788D01*
X99341198Y-144662500D01*
X99265120Y-144674981D01*
G37*
X99265120Y-144674981D02*
X99222846Y-144711875D01*
X99215320Y-144772359D01*
X99215334Y-144772459D01*
X99224398Y-144802734D01*
X99248208Y-144815301D01*
X99299069Y-144815385D01*
X99313943Y-144814335D01*
X99369822Y-144813336D01*
X99410786Y-144825521D01*
X99452620Y-144858145D01*
X99488568Y-144894602D01*
X99571500Y-144981782D01*
X99571500Y-145296126D01*
X99572096Y-145420171D01*
X99574311Y-145508172D01*
X99578787Y-145566405D01*
X99586167Y-145601151D01*
X99597094Y-145618685D01*
X99604982Y-145623318D01*
X99677272Y-145632593D01*
X99714375Y-145622148D01*
X99723603Y-145607667D01*
X99730602Y-145569961D01*
X99735597Y-145505028D01*
X99738813Y-145408864D01*
X99740474Y-145277466D01*
X99740834Y-145149834D01*
X99740530Y-144997070D01*
X99739364Y-144881384D01*
X99736950Y-144797523D01*
X99732904Y-144740236D01*
X99726844Y-144704269D01*
X99718383Y-144684370D01*
X99707139Y-144675287D01*
X99706102Y-144674867D01*
X99646467Y-144668503D01*
X99606185Y-144697327D01*
X99592667Y-144751056D01*
X99592667Y-144815592D01*
X99507940Y-144739046D01*
X99444870Y-144689566D01*
X99389140Y-144666788D01*
X99341198Y-144662500D01*
X99265120Y-144674981D01*
G36*
X100229387Y-144686747D02*
G01*
X100175930Y-144710484D01*
X100091804Y-144776272D01*
X100036099Y-144864979D01*
X100005543Y-144982568D01*
X100000258Y-145030727D01*
X99996170Y-145087444D01*
X99998060Y-145128912D01*
X100011469Y-145157524D01*
X100041940Y-145175675D01*
X100095013Y-145185756D01*
X100176232Y-145190163D01*
X100291138Y-145191288D01*
X100372224Y-145191377D01*
X100654364Y-145191666D01*
X100639550Y-145260458D01*
X100599023Y-145373973D01*
X100533857Y-145453115D01*
X100444248Y-145497791D01*
X100330395Y-145507911D01*
X100192496Y-145483381D01*
X100172823Y-145477645D01*
X100100756Y-145456495D01*
X100060185Y-145449401D01*
X100042060Y-145458242D01*
X100037333Y-145484891D01*
X100037167Y-145505769D01*
X100049877Y-145558494D01*
X100094695Y-145593223D01*
X100095375Y-145593548D01*
X100154166Y-145610231D01*
X100240614Y-145621739D01*
X100340301Y-145627534D01*
X100438806Y-145627079D01*
X100521710Y-145619839D01*
X100561452Y-145610890D01*
X100654923Y-145558599D01*
X100727046Y-145477196D01*
X100777661Y-145374218D01*
X100806606Y-145257201D01*
X100813721Y-145133683D01*
X100801181Y-145030433D01*
X100641412Y-145030433D01*
X100632475Y-145051029D01*
X100602105Y-145061243D01*
X100544103Y-145064630D01*
X100452266Y-145064743D01*
X100409010Y-145064666D01*
X100164167Y-145064666D01*
X100164167Y-145010698D01*
X100177788Y-144939616D01*
X100212157Y-144869358D01*
X100257538Y-144818476D01*
X100268828Y-144811294D01*
X100316421Y-144796989D01*
X100381407Y-144789726D01*
X100393985Y-144789500D01*
X100476419Y-144806221D01*
X100551652Y-144849955D01*
X100605578Y-144911055D01*
X100619799Y-144943887D01*
X100635120Y-144995904D01*
X100641412Y-145030433D01*
X100801181Y-145030433D01*
X100798845Y-145011202D01*
X100761817Y-144897294D01*
X100702476Y-144799498D01*
X100620661Y-144725349D01*
X100580809Y-144703636D01*
X100466366Y-144670011D01*
X100343955Y-144664470D01*
X100229387Y-144686747D01*
G37*
X100229387Y-144686747D02*
X100175930Y-144710484D01*
X100091804Y-144776272D01*
X100036099Y-144864979D01*
X100005543Y-144982568D01*
X100000258Y-145030727D01*
X99996170Y-145087444D01*
X99998060Y-145128912D01*
X100011469Y-145157524D01*
X100041940Y-145175675D01*
X100095013Y-145185756D01*
X100176232Y-145190163D01*
X100291138Y-145191288D01*
X100372224Y-145191377D01*
X100654364Y-145191666D01*
X100639550Y-145260458D01*
X100599023Y-145373973D01*
X100533857Y-145453115D01*
X100444248Y-145497791D01*
X100330395Y-145507911D01*
X100192496Y-145483381D01*
X100172823Y-145477645D01*
X100100756Y-145456495D01*
X100060185Y-145449401D01*
X100042060Y-145458242D01*
X100037333Y-145484891D01*
X100037167Y-145505769D01*
X100049877Y-145558494D01*
X100094695Y-145593223D01*
X100095375Y-145593548D01*
X100154166Y-145610231D01*
X100240614Y-145621739D01*
X100340301Y-145627534D01*
X100438806Y-145627079D01*
X100521710Y-145619839D01*
X100561452Y-145610890D01*
X100654923Y-145558599D01*
X100727046Y-145477196D01*
X100777661Y-145374218D01*
X100806606Y-145257201D01*
X100813721Y-145133683D01*
X100801181Y-145030433D01*
X100641412Y-145030433D01*
X100632475Y-145051029D01*
X100602105Y-145061243D01*
X100544103Y-145064630D01*
X100452266Y-145064743D01*
X100409010Y-145064666D01*
X100164167Y-145064666D01*
X100164167Y-145010698D01*
X100177788Y-144939616D01*
X100212157Y-144869358D01*
X100257538Y-144818476D01*
X100268828Y-144811294D01*
X100316421Y-144796989D01*
X100381407Y-144789726D01*
X100393985Y-144789500D01*
X100476419Y-144806221D01*
X100551652Y-144849955D01*
X100605578Y-144911055D01*
X100619799Y-144943887D01*
X100635120Y-144995904D01*
X100641412Y-145030433D01*
X100801181Y-145030433D01*
X100798845Y-145011202D01*
X100761817Y-144897294D01*
X100702476Y-144799498D01*
X100620661Y-144725349D01*
X100580809Y-144703636D01*
X100466366Y-144670011D01*
X100343955Y-144664470D01*
X100229387Y-144686747D01*
G36*
X100980896Y-144663598D02*
G01*
X100965209Y-144679466D01*
X100961450Y-144714950D01*
X100969861Y-144774094D01*
X100990685Y-144860946D01*
X101024166Y-144979553D01*
X101070545Y-145133961D01*
X101075663Y-145150745D01*
X101123491Y-145305881D01*
X101162106Y-145424845D01*
X101194167Y-145512101D01*
X101222334Y-145572111D01*
X101249263Y-145609338D01*
X101277615Y-145628245D01*
X101310048Y-145633296D01*
X101349220Y-145628954D01*
X101359428Y-145627102D01*
X101385769Y-145621213D01*
X101406256Y-145610770D01*
X101423885Y-145589576D01*
X101441652Y-145551433D01*
X101462552Y-145490143D01*
X101489582Y-145399509D01*
X101518953Y-145297081D01*
X101550782Y-145188546D01*
X101579508Y-145096008D01*
X101602851Y-145026398D01*
X101618533Y-144986645D01*
X101623222Y-144980000D01*
X101633146Y-144999320D01*
X101651400Y-145052563D01*
X101675781Y-145132649D01*
X101704085Y-145232499D01*
X101719158Y-145288146D01*
X101754428Y-145416246D01*
X101783496Y-145508734D01*
X101809561Y-145571273D01*
X101835817Y-145609528D01*
X101865463Y-145629162D01*
X101901694Y-145635840D01*
X101915563Y-145636166D01*
X101965795Y-145623712D01*
X101990523Y-145609708D01*
X102005480Y-145583560D01*
X102029914Y-145524165D01*
X102061424Y-145438907D01*
X102097605Y-145335172D01*
X102136056Y-145220344D01*
X102174373Y-145101808D01*
X102210154Y-144986948D01*
X102240996Y-144883150D01*
X102264497Y-144797799D01*
X102278252Y-144738279D01*
X102280834Y-144717443D01*
X102263926Y-144680264D01*
X102221273Y-144666248D01*
X102167892Y-144678232D01*
X102148570Y-144692926D01*
X102129015Y-144722503D01*
X102107053Y-144772445D01*
X102080509Y-144848239D01*
X102047208Y-144955366D01*
X102016019Y-145061192D01*
X101981672Y-145176207D01*
X101950578Y-145274443D01*
X101924824Y-145349776D01*
X101906493Y-145396083D01*
X101897992Y-145407802D01*
X101888604Y-145383270D01*
X101870705Y-145324772D01*
X101846317Y-145239348D01*
X101817459Y-145134033D01*
X101793382Y-145043500D01*
X101761882Y-144927510D01*
X101732330Y-144825956D01*
X101706941Y-144745904D01*
X101687930Y-144694419D01*
X101679043Y-144678699D01*
X101624541Y-144663833D01*
X101566298Y-144680043D01*
X101564704Y-144681033D01*
X101549847Y-144706418D01*
X101526283Y-144765619D01*
X101496470Y-144851614D01*
X101462866Y-144957384D01*
X101434647Y-145052418D01*
X101400927Y-145168148D01*
X101370793Y-145269110D01*
X101346326Y-145348521D01*
X101329610Y-145399595D01*
X101323127Y-145415595D01*
X101314549Y-145399478D01*
X101296620Y-145348802D01*
X101271336Y-145269791D01*
X101240696Y-145168671D01*
X101209080Y-145060029D01*
X101171262Y-144929037D01*
X101142137Y-144833020D01*
X101119243Y-144766115D01*
X101100117Y-144722460D01*
X101082294Y-144696192D01*
X101063312Y-144681451D01*
X101047080Y-144674518D01*
X101008267Y-144663297D01*
X100980896Y-144663598D01*
G37*
X100980896Y-144663598D02*
X100965209Y-144679466D01*
X100961450Y-144714950D01*
X100969861Y-144774094D01*
X100990685Y-144860946D01*
X101024166Y-144979553D01*
X101070545Y-145133961D01*
X101075663Y-145150745D01*
X101123491Y-145305881D01*
X101162106Y-145424845D01*
X101194167Y-145512101D01*
X101222334Y-145572111D01*
X101249263Y-145609338D01*
X101277615Y-145628245D01*
X101310048Y-145633296D01*
X101349220Y-145628954D01*
X101359428Y-145627102D01*
X101385769Y-145621213D01*
X101406256Y-145610770D01*
X101423885Y-145589576D01*
X101441652Y-145551433D01*
X101462552Y-145490143D01*
X101489582Y-145399509D01*
X101518953Y-145297081D01*
X101550782Y-145188546D01*
X101579508Y-145096008D01*
X101602851Y-145026398D01*
X101618533Y-144986645D01*
X101623222Y-144980000D01*
X101633146Y-144999320D01*
X101651400Y-145052563D01*
X101675781Y-145132649D01*
X101704085Y-145232499D01*
X101719158Y-145288146D01*
X101754428Y-145416246D01*
X101783496Y-145508734D01*
X101809561Y-145571273D01*
X101835817Y-145609528D01*
X101865463Y-145629162D01*
X101901694Y-145635840D01*
X101915563Y-145636166D01*
X101965795Y-145623712D01*
X101990523Y-145609708D01*
X102005480Y-145583560D01*
X102029914Y-145524165D01*
X102061424Y-145438907D01*
X102097605Y-145335172D01*
X102136056Y-145220344D01*
X102174373Y-145101808D01*
X102210154Y-144986948D01*
X102240996Y-144883150D01*
X102264497Y-144797799D01*
X102278252Y-144738279D01*
X102280834Y-144717443D01*
X102263926Y-144680264D01*
X102221273Y-144666248D01*
X102167892Y-144678232D01*
X102148570Y-144692926D01*
X102129015Y-144722503D01*
X102107053Y-144772445D01*
X102080509Y-144848239D01*
X102047208Y-144955366D01*
X102016019Y-145061192D01*
X101981672Y-145176207D01*
X101950578Y-145274443D01*
X101924824Y-145349776D01*
X101906493Y-145396083D01*
X101897992Y-145407802D01*
X101888604Y-145383270D01*
X101870705Y-145324772D01*
X101846317Y-145239348D01*
X101817459Y-145134033D01*
X101793382Y-145043500D01*
X101761882Y-144927510D01*
X101732330Y-144825956D01*
X101706941Y-144745904D01*
X101687930Y-144694419D01*
X101679043Y-144678699D01*
X101624541Y-144663833D01*
X101566298Y-144680043D01*
X101564704Y-144681033D01*
X101549847Y-144706418D01*
X101526283Y-144765619D01*
X101496470Y-144851614D01*
X101462866Y-144957384D01*
X101434647Y-145052418D01*
X101400927Y-145168148D01*
X101370793Y-145269110D01*
X101346326Y-145348521D01*
X101329610Y-145399595D01*
X101323127Y-145415595D01*
X101314549Y-145399478D01*
X101296620Y-145348802D01*
X101271336Y-145269791D01*
X101240696Y-145168671D01*
X101209080Y-145060029D01*
X101171262Y-144929037D01*
X101142137Y-144833020D01*
X101119243Y-144766115D01*
X101100117Y-144722460D01*
X101082294Y-144696192D01*
X101063312Y-144681451D01*
X101047080Y-144674518D01*
X101008267Y-144663297D01*
X100980896Y-144663598D01*
G36*
X102721695Y-144678635D02*
G01*
X102608612Y-144726595D01*
X102523128Y-144806583D01*
X102465506Y-144918340D01*
X102436013Y-145061604D01*
X102434216Y-145083125D01*
X102438034Y-145245579D01*
X102473076Y-145382616D01*
X102537677Y-145492186D01*
X102630170Y-145572241D01*
X102748893Y-145620732D01*
X102883277Y-145635701D01*
X102995462Y-145625571D01*
X103091180Y-145598751D01*
X103097845Y-145595834D01*
X103196165Y-145529147D01*
X103265612Y-145431505D01*
X103306181Y-145302914D01*
X103318000Y-145159916D01*
X103317671Y-145156556D01*
X103146192Y-145156556D01*
X103137499Y-145264905D01*
X103112373Y-145357365D01*
X103094579Y-145391567D01*
X103028456Y-145456667D01*
X102940956Y-145493186D01*
X102843572Y-145499219D01*
X102747798Y-145472859D01*
X102715055Y-145454503D01*
X102660499Y-145395701D01*
X102622550Y-145308289D01*
X102602807Y-145203239D01*
X102602867Y-145091523D01*
X102624328Y-144984114D01*
X102640454Y-144942161D01*
X102697295Y-144860301D01*
X102773253Y-144810063D01*
X102859584Y-144791198D01*
X102947545Y-144803456D01*
X103028390Y-144846587D01*
X103093377Y-144920342D01*
X103111777Y-144955624D01*
X103137827Y-145048176D01*
X103146192Y-145156556D01*
X103317671Y-145156556D01*
X103302548Y-145002172D01*
X103256888Y-144873056D01*
X103182072Y-144773712D01*
X103079148Y-144705284D01*
X102949166Y-144668916D01*
X102862110Y-144662964D01*
X102721695Y-144678635D01*
G37*
X102721695Y-144678635D02*
X102608612Y-144726595D01*
X102523128Y-144806583D01*
X102465506Y-144918340D01*
X102436013Y-145061604D01*
X102434216Y-145083125D01*
X102438034Y-145245579D01*
X102473076Y-145382616D01*
X102537677Y-145492186D01*
X102630170Y-145572241D01*
X102748893Y-145620732D01*
X102883277Y-145635701D01*
X102995462Y-145625571D01*
X103091180Y-145598751D01*
X103097845Y-145595834D01*
X103196165Y-145529147D01*
X103265612Y-145431505D01*
X103306181Y-145302914D01*
X103318000Y-145159916D01*
X103317671Y-145156556D01*
X103146192Y-145156556D01*
X103137499Y-145264905D01*
X103112373Y-145357365D01*
X103094579Y-145391567D01*
X103028456Y-145456667D01*
X102940956Y-145493186D01*
X102843572Y-145499219D01*
X102747798Y-145472859D01*
X102715055Y-145454503D01*
X102660499Y-145395701D01*
X102622550Y-145308289D01*
X102602807Y-145203239D01*
X102602867Y-145091523D01*
X102624328Y-144984114D01*
X102640454Y-144942161D01*
X102697295Y-144860301D01*
X102773253Y-144810063D01*
X102859584Y-144791198D01*
X102947545Y-144803456D01*
X103028390Y-144846587D01*
X103093377Y-144920342D01*
X103111777Y-144955624D01*
X103137827Y-145048176D01*
X103146192Y-145156556D01*
X103317671Y-145156556D01*
X103302548Y-145002172D01*
X103256888Y-144873056D01*
X103182072Y-144773712D01*
X103079148Y-144705284D01*
X102949166Y-144668916D01*
X102862110Y-144662964D01*
X102721695Y-144678635D01*
G36*
X103796252Y-144350225D02*
G01*
X103741178Y-144356033D01*
X103699279Y-144367362D01*
X103660852Y-144385434D01*
X103648074Y-144392627D01*
X103556597Y-144460154D01*
X103500550Y-144541391D01*
X103473277Y-144646847D01*
X103470607Y-144672753D01*
X103475727Y-144812624D01*
X103515281Y-144928594D01*
X103587896Y-145019349D01*
X103692201Y-145083572D01*
X103826823Y-145119949D01*
X103945576Y-145128166D01*
X104080000Y-145128166D01*
X104080000Y-145369318D01*
X104080918Y-145476571D01*
X104084295Y-145548636D01*
X104091069Y-145592630D01*
X104102181Y-145615672D01*
X104113482Y-145623318D01*
X104179770Y-145634518D01*
X104223201Y-145618516D01*
X104231198Y-145604191D01*
X104237325Y-145570083D01*
X104241707Y-145512415D01*
X104244471Y-145427404D01*
X104245740Y-145311272D01*
X104245639Y-145160236D01*
X104244368Y-144978549D01*
X104239800Y-144472000D01*
X104080000Y-144472000D01*
X104080000Y-145007288D01*
X103941375Y-144994343D01*
X103830829Y-144975678D01*
X103751444Y-144944320D01*
X103741815Y-144938009D01*
X103679623Y-144869854D01*
X103646819Y-144782640D01*
X103644405Y-144688716D01*
X103673383Y-144600430D01*
X103710399Y-144551041D01*
X103771754Y-144506992D01*
X103853460Y-144481583D01*
X103964706Y-144472192D01*
X103987396Y-144472000D01*
X104080000Y-144472000D01*
X104239800Y-144472000D01*
X104238750Y-144355583D01*
X103984750Y-144350293D01*
X103874208Y-144348719D01*
X103796252Y-144350225D01*
G37*
X103796252Y-144350225D02*
X103741178Y-144356033D01*
X103699279Y-144367362D01*
X103660852Y-144385434D01*
X103648074Y-144392627D01*
X103556597Y-144460154D01*
X103500550Y-144541391D01*
X103473277Y-144646847D01*
X103470607Y-144672753D01*
X103475727Y-144812624D01*
X103515281Y-144928594D01*
X103587896Y-145019349D01*
X103692201Y-145083572D01*
X103826823Y-145119949D01*
X103945576Y-145128166D01*
X104080000Y-145128166D01*
X104080000Y-145369318D01*
X104080918Y-145476571D01*
X104084295Y-145548636D01*
X104091069Y-145592630D01*
X104102181Y-145615672D01*
X104113482Y-145623318D01*
X104179770Y-145634518D01*
X104223201Y-145618516D01*
X104231198Y-145604191D01*
X104237325Y-145570083D01*
X104241707Y-145512415D01*
X104244471Y-145427404D01*
X104245740Y-145311272D01*
X104245639Y-145160236D01*
X104244368Y-144978549D01*
X104239800Y-144472000D01*
X104080000Y-144472000D01*
X104080000Y-145007288D01*
X103941375Y-144994343D01*
X103830829Y-144975678D01*
X103751444Y-144944320D01*
X103741815Y-144938009D01*
X103679623Y-144869854D01*
X103646819Y-144782640D01*
X103644405Y-144688716D01*
X103673383Y-144600430D01*
X103710399Y-144551041D01*
X103771754Y-144506992D01*
X103853460Y-144481583D01*
X103964706Y-144472192D01*
X103987396Y-144472000D01*
X104080000Y-144472000D01*
X104239800Y-144472000D01*
X104238750Y-144355583D01*
X103984750Y-144350293D01*
X103874208Y-144348719D01*
X103796252Y-144350225D01*
G36*
X95454698Y-144667474D02*
G01*
X95429120Y-144685347D01*
X95403089Y-144721502D01*
X95373871Y-144781001D01*
X95338735Y-144868905D01*
X95294948Y-144990275D01*
X95275299Y-145046721D01*
X95236453Y-145157402D01*
X95201448Y-145254099D01*
X95172959Y-145329661D01*
X95153659Y-145376932D01*
X95147313Y-145389096D01*
X95133067Y-145378443D01*
X95107704Y-145327406D01*
X95071389Y-145236407D01*
X95024286Y-145105863D01*
X94966559Y-144936195D01*
X94948288Y-144881046D01*
X94918796Y-144799026D01*
X94889969Y-144731408D01*
X94866728Y-144689366D01*
X94860983Y-144682891D01*
X94823757Y-144669783D01*
X94776520Y-144671863D01*
X94737479Y-144686121D01*
X94724334Y-144705481D01*
X94731364Y-144732012D01*
X94750997Y-144792172D01*
X94781047Y-144879922D01*
X94819326Y-144989227D01*
X94863648Y-145114047D01*
X94911827Y-145248347D01*
X94961677Y-145386088D01*
X95011010Y-145521234D01*
X95057640Y-145647746D01*
X95099381Y-145759588D01*
X95134046Y-145850721D01*
X95159448Y-145915109D01*
X95173402Y-145946715D01*
X95174464Y-145948375D01*
X95206292Y-145966403D01*
X95254498Y-145974155D01*
X95302545Y-145971579D01*
X95333900Y-145958620D01*
X95338167Y-145948899D01*
X95330834Y-145917334D01*
X95311560Y-145858926D01*
X95284431Y-145786010D01*
X95282939Y-145782198D01*
X95227711Y-145641431D01*
X95402436Y-145170993D01*
X95459524Y-145016379D01*
X95502275Y-144896824D01*
X95531401Y-144807818D01*
X95547612Y-144744851D01*
X95551619Y-144703412D01*
X95544134Y-144678992D01*
X95525868Y-144667081D01*
X95497530Y-144663169D01*
X95482554Y-144662824D01*
X95454698Y-144667474D01*
G37*
X95454698Y-144667474D02*
X95429120Y-144685347D01*
X95403089Y-144721502D01*
X95373871Y-144781001D01*
X95338735Y-144868905D01*
X95294948Y-144990275D01*
X95275299Y-145046721D01*
X95236453Y-145157402D01*
X95201448Y-145254099D01*
X95172959Y-145329661D01*
X95153659Y-145376932D01*
X95147313Y-145389096D01*
X95133067Y-145378443D01*
X95107704Y-145327406D01*
X95071389Y-145236407D01*
X95024286Y-145105863D01*
X94966559Y-144936195D01*
X94948288Y-144881046D01*
X94918796Y-144799026D01*
X94889969Y-144731408D01*
X94866728Y-144689366D01*
X94860983Y-144682891D01*
X94823757Y-144669783D01*
X94776520Y-144671863D01*
X94737479Y-144686121D01*
X94724334Y-144705481D01*
X94731364Y-144732012D01*
X94750997Y-144792172D01*
X94781047Y-144879922D01*
X94819326Y-144989227D01*
X94863648Y-145114047D01*
X94911827Y-145248347D01*
X94961677Y-145386088D01*
X95011010Y-145521234D01*
X95057640Y-145647746D01*
X95099381Y-145759588D01*
X95134046Y-145850721D01*
X95159448Y-145915109D01*
X95173402Y-145946715D01*
X95174464Y-145948375D01*
X95206292Y-145966403D01*
X95254498Y-145974155D01*
X95302545Y-145971579D01*
X95333900Y-145958620D01*
X95338167Y-145948899D01*
X95330834Y-145917334D01*
X95311560Y-145858926D01*
X95284431Y-145786010D01*
X95282939Y-145782198D01*
X95227711Y-145641431D01*
X95402436Y-145170993D01*
X95459524Y-145016379D01*
X95502275Y-144896824D01*
X95531401Y-144807818D01*
X95547612Y-144744851D01*
X95551619Y-144703412D01*
X95544134Y-144678992D01*
X95525868Y-144667081D01*
X95497530Y-144663169D01*
X95482554Y-144662824D01*
X95454698Y-144667474D01*
G36*
X96869277Y-146261659D02*
G01*
X96812122Y-146301647D01*
X96783464Y-146363857D01*
X96788515Y-146435155D01*
X96794427Y-146450230D01*
X96816516Y-146484451D01*
X96850957Y-146500168D01*
X96912453Y-146503999D01*
X96913885Y-146504000D01*
X96979636Y-146499069D01*
X97017031Y-146481055D01*
X97032061Y-146460619D01*
X97050814Y-146389787D01*
X97035802Y-146325703D01*
X96994420Y-146277410D01*
X96934065Y-146253947D01*
X96869277Y-146261659D01*
G37*
X96869277Y-146261659D02*
X96812122Y-146301647D01*
X96783464Y-146363857D01*
X96788515Y-146435155D01*
X96794427Y-146450230D01*
X96816516Y-146484451D01*
X96850957Y-146500168D01*
X96912453Y-146503999D01*
X96913885Y-146504000D01*
X96979636Y-146499069D01*
X97017031Y-146481055D01*
X97032061Y-146460619D01*
X97050814Y-146389787D01*
X97035802Y-146325703D01*
X96994420Y-146277410D01*
X96934065Y-146253947D01*
X96869277Y-146261659D01*
G36*
X89637331Y-146726556D02*
G01*
X89612584Y-146732470D01*
X89573258Y-146747804D01*
X89553262Y-146773863D01*
X89544499Y-146824154D01*
X89542641Y-146849172D01*
X89536198Y-146948091D01*
X89659057Y-146936892D01*
X89732245Y-146933473D01*
X89787034Y-146942863D01*
X89833946Y-146971044D01*
X89883497Y-147024001D01*
X89937019Y-147094989D01*
X90004167Y-147187684D01*
X90004167Y-147985666D01*
X90100081Y-147985666D01*
X90165532Y-147979932D01*
X90202494Y-147964492D01*
X90206258Y-147958922D01*
X90208734Y-147931490D01*
X90210596Y-147867411D01*
X90211802Y-147772368D01*
X90212309Y-147652046D01*
X90212075Y-147512126D01*
X90211057Y-147358292D01*
X90210886Y-147339797D01*
X90205250Y-146747416D01*
X90035917Y-146747416D01*
X90029326Y-146839056D01*
X90022735Y-146930695D01*
X89920618Y-146835177D01*
X89823796Y-146760744D01*
X89731428Y-146725224D01*
X89637331Y-146726556D01*
G37*
X89637331Y-146726556D02*
X89612584Y-146732470D01*
X89573258Y-146747804D01*
X89553262Y-146773863D01*
X89544499Y-146824154D01*
X89542641Y-146849172D01*
X89536198Y-146948091D01*
X89659057Y-146936892D01*
X89732245Y-146933473D01*
X89787034Y-146942863D01*
X89833946Y-146971044D01*
X89883497Y-147024001D01*
X89937019Y-147094989D01*
X90004167Y-147187684D01*
X90004167Y-147985666D01*
X90100081Y-147985666D01*
X90165532Y-147979932D01*
X90202494Y-147964492D01*
X90206258Y-147958922D01*
X90208734Y-147931490D01*
X90210596Y-147867411D01*
X90211802Y-147772368D01*
X90212309Y-147652046D01*
X90212075Y-147512126D01*
X90211057Y-147358292D01*
X90210886Y-147339797D01*
X90205250Y-146747416D01*
X90035917Y-146747416D01*
X90029326Y-146839056D01*
X90022735Y-146930695D01*
X89920618Y-146835177D01*
X89823796Y-146760744D01*
X89731428Y-146725224D01*
X89637331Y-146726556D01*
G36*
X91763324Y-146738176D02*
G01*
X91750285Y-146747825D01*
X91744264Y-146768357D01*
X91745862Y-146803130D01*
X91755679Y-146855500D01*
X91774316Y-146928824D01*
X91802374Y-147026459D01*
X91840453Y-147151761D01*
X91889153Y-147308086D01*
X91949076Y-147498792D01*
X92007278Y-147684041D01*
X92101897Y-147985666D01*
X92227038Y-147985666D01*
X92302887Y-147982705D01*
X92346923Y-147972065D01*
X92369366Y-147951111D01*
X92370678Y-147948625D01*
X92382014Y-147917360D01*
X92402598Y-147852284D01*
X92430329Y-147760367D01*
X92463109Y-147648582D01*
X92498835Y-147523901D01*
X92501706Y-147513758D01*
X92536925Y-147392670D01*
X92569192Y-147288140D01*
X92596544Y-147206018D01*
X92617018Y-147152157D01*
X92628651Y-147132407D01*
X92629521Y-147132758D01*
X92639515Y-147157706D01*
X92658069Y-147216912D01*
X92683226Y-147303628D01*
X92713026Y-147411106D01*
X92744981Y-147530583D01*
X92777850Y-147653643D01*
X92808356Y-147764247D01*
X92834432Y-147855177D01*
X92854011Y-147919215D01*
X92864739Y-147948625D01*
X92888868Y-147971932D01*
X92936168Y-147983270D01*
X92997403Y-147985666D01*
X93068830Y-147980821D01*
X93118440Y-147968052D01*
X93131129Y-147959208D01*
X93144615Y-147929782D01*
X93167339Y-147866828D01*
X93197410Y-147776656D01*
X93232941Y-147665574D01*
X93272043Y-147539893D01*
X93312827Y-147405922D01*
X93353404Y-147269969D01*
X93391887Y-147138346D01*
X93426385Y-147017360D01*
X93455012Y-146913322D01*
X93475877Y-146832540D01*
X93487094Y-146781325D01*
X93488176Y-146766401D01*
X93461095Y-146746929D01*
X93410234Y-146737710D01*
X93352955Y-146739017D01*
X93306618Y-146751125D01*
X93291541Y-146763291D01*
X93280879Y-146790414D01*
X93260268Y-146852135D01*
X93231608Y-146942410D01*
X93196800Y-147055197D01*
X93157744Y-147184451D01*
X93133474Y-147266000D01*
X93093502Y-147398130D01*
X93056912Y-147513533D01*
X93025475Y-147607065D01*
X93000962Y-147673585D01*
X92985146Y-147707950D01*
X92980323Y-147710500D01*
X92971432Y-147681368D01*
X92953441Y-147617772D01*
X92928127Y-147526158D01*
X92897265Y-147412976D01*
X92862633Y-147284672D01*
X92849109Y-147234250D01*
X92813136Y-147102278D01*
X92779526Y-146983423D01*
X92750176Y-146884050D01*
X92726984Y-146810521D01*
X92711849Y-146769198D01*
X92708626Y-146763291D01*
X92673863Y-146744795D01*
X92619745Y-146736839D01*
X92618250Y-146736833D01*
X92563793Y-146744426D01*
X92527974Y-146762746D01*
X92527510Y-146763291D01*
X92515535Y-146790590D01*
X92494054Y-146852452D01*
X92465032Y-146942691D01*
X92430435Y-147055120D01*
X92392226Y-147183553D01*
X92372876Y-147250125D01*
X92334255Y-147382164D01*
X92298934Y-147499413D01*
X92268727Y-147596135D01*
X92245447Y-147666594D01*
X92230906Y-147705052D01*
X92227386Y-147710500D01*
X92218223Y-147691063D01*
X92199325Y-147636495D01*
X92172458Y-147552403D01*
X92139384Y-147444397D01*
X92101868Y-147318088D01*
X92075973Y-147228958D01*
X91937258Y-146747416D01*
X91838546Y-146740965D01*
X91808055Y-146738103D01*
X91782781Y-146736054D01*
X91763324Y-146738176D01*
G37*
X91763324Y-146738176D02*
X91750285Y-146747825D01*
X91744264Y-146768357D01*
X91745862Y-146803130D01*
X91755679Y-146855500D01*
X91774316Y-146928824D01*
X91802374Y-147026459D01*
X91840453Y-147151761D01*
X91889153Y-147308086D01*
X91949076Y-147498792D01*
X92007278Y-147684041D01*
X92101897Y-147985666D01*
X92227038Y-147985666D01*
X92302887Y-147982705D01*
X92346923Y-147972065D01*
X92369366Y-147951111D01*
X92370678Y-147948625D01*
X92382014Y-147917360D01*
X92402598Y-147852284D01*
X92430329Y-147760367D01*
X92463109Y-147648582D01*
X92498835Y-147523901D01*
X92501706Y-147513758D01*
X92536925Y-147392670D01*
X92569192Y-147288140D01*
X92596544Y-147206018D01*
X92617018Y-147152157D01*
X92628651Y-147132407D01*
X92629521Y-147132758D01*
X92639515Y-147157706D01*
X92658069Y-147216912D01*
X92683226Y-147303628D01*
X92713026Y-147411106D01*
X92744981Y-147530583D01*
X92777850Y-147653643D01*
X92808356Y-147764247D01*
X92834432Y-147855177D01*
X92854011Y-147919215D01*
X92864739Y-147948625D01*
X92888868Y-147971932D01*
X92936168Y-147983270D01*
X92997403Y-147985666D01*
X93068830Y-147980821D01*
X93118440Y-147968052D01*
X93131129Y-147959208D01*
X93144615Y-147929782D01*
X93167339Y-147866828D01*
X93197410Y-147776656D01*
X93232941Y-147665574D01*
X93272043Y-147539893D01*
X93312827Y-147405922D01*
X93353404Y-147269969D01*
X93391887Y-147138346D01*
X93426385Y-147017360D01*
X93455012Y-146913322D01*
X93475877Y-146832540D01*
X93487094Y-146781325D01*
X93488176Y-146766401D01*
X93461095Y-146746929D01*
X93410234Y-146737710D01*
X93352955Y-146739017D01*
X93306618Y-146751125D01*
X93291541Y-146763291D01*
X93280879Y-146790414D01*
X93260268Y-146852135D01*
X93231608Y-146942410D01*
X93196800Y-147055197D01*
X93157744Y-147184451D01*
X93133474Y-147266000D01*
X93093502Y-147398130D01*
X93056912Y-147513533D01*
X93025475Y-147607065D01*
X93000962Y-147673585D01*
X92985146Y-147707950D01*
X92980323Y-147710500D01*
X92971432Y-147681368D01*
X92953441Y-147617772D01*
X92928127Y-147526158D01*
X92897265Y-147412976D01*
X92862633Y-147284672D01*
X92849109Y-147234250D01*
X92813136Y-147102278D01*
X92779526Y-146983423D01*
X92750176Y-146884050D01*
X92726984Y-146810521D01*
X92711849Y-146769198D01*
X92708626Y-146763291D01*
X92673863Y-146744795D01*
X92619745Y-146736839D01*
X92618250Y-146736833D01*
X92563793Y-146744426D01*
X92527974Y-146762746D01*
X92527510Y-146763291D01*
X92515535Y-146790590D01*
X92494054Y-146852452D01*
X92465032Y-146942691D01*
X92430435Y-147055120D01*
X92392226Y-147183553D01*
X92372876Y-147250125D01*
X92334255Y-147382164D01*
X92298934Y-147499413D01*
X92268727Y-147596135D01*
X92245447Y-147666594D01*
X92230906Y-147705052D01*
X92227386Y-147710500D01*
X92218223Y-147691063D01*
X92199325Y-147636495D01*
X92172458Y-147552403D01*
X92139384Y-147444397D01*
X92101868Y-147318088D01*
X92075973Y-147228958D01*
X91937258Y-146747416D01*
X91838546Y-146740965D01*
X91808055Y-146738103D01*
X91782781Y-146736054D01*
X91763324Y-146738176D01*
G36*
X94794857Y-146735696D02*
G01*
X94693382Y-146777158D01*
X94612196Y-146840948D01*
X94581054Y-146883316D01*
X94546083Y-146944248D01*
X94453541Y-146862789D01*
X94335653Y-146780348D01*
X94214330Y-146733975D01*
X94095210Y-146723295D01*
X93983934Y-146747927D01*
X93886144Y-146807496D01*
X93807477Y-146901623D01*
X93804728Y-146906238D01*
X93790866Y-146932674D01*
X93780151Y-146962718D01*
X93772080Y-147002162D01*
X93766151Y-147056800D01*
X93761860Y-147132422D01*
X93758707Y-147234821D01*
X93756186Y-147369788D01*
X93754564Y-147484175D01*
X93747877Y-147988100D01*
X93849814Y-147981591D01*
X93951750Y-147975083D01*
X93962334Y-147520000D01*
X93967732Y-147338647D01*
X93974573Y-147198437D01*
X93982945Y-147098196D01*
X93992935Y-147036757D01*
X93999539Y-147018377D01*
X94061124Y-146946501D01*
X94139016Y-146911677D01*
X94227572Y-146914756D01*
X94321148Y-146956592D01*
X94336830Y-146967388D01*
X94393746Y-147009359D01*
X94436828Y-147046236D01*
X94468001Y-147084579D01*
X94489193Y-147130950D01*
X94502329Y-147191911D01*
X94509336Y-147274022D01*
X94512139Y-147383845D01*
X94512666Y-147527941D01*
X94512667Y-147566347D01*
X94512667Y-147987986D01*
X94613209Y-147981534D01*
X94713750Y-147975083D01*
X94724334Y-147520000D01*
X94729732Y-147338647D01*
X94736573Y-147198437D01*
X94744945Y-147098196D01*
X94754935Y-147036757D01*
X94761539Y-147018377D01*
X94823124Y-146946501D01*
X94901016Y-146911677D01*
X94989572Y-146914756D01*
X95083148Y-146956592D01*
X95098830Y-146967388D01*
X95155809Y-147009412D01*
X95198921Y-147046338D01*
X95230100Y-147084739D01*
X95251278Y-147131189D01*
X95264391Y-147192261D01*
X95271370Y-147274528D01*
X95274151Y-147384566D01*
X95274666Y-147528946D01*
X95274667Y-147565187D01*
X95274667Y-147985666D01*
X95370581Y-147985666D01*
X95436032Y-147979932D01*
X95472994Y-147964492D01*
X95476758Y-147958922D01*
X95479234Y-147931490D01*
X95481096Y-147867411D01*
X95482302Y-147772368D01*
X95482809Y-147652046D01*
X95482575Y-147512126D01*
X95481557Y-147358292D01*
X95481386Y-147339797D01*
X95475750Y-146747416D01*
X95391084Y-146747416D01*
X95336635Y-146749850D01*
X95311317Y-146764800D01*
X95301940Y-146803743D01*
X95299848Y-146826791D01*
X95293475Y-146877823D01*
X95285908Y-146904865D01*
X95284156Y-146906166D01*
X95263736Y-146894382D01*
X95220573Y-146863964D01*
X95180533Y-146834032D01*
X95111511Y-146787528D01*
X95041056Y-146749496D01*
X95009429Y-146736617D01*
X94904309Y-146720777D01*
X94794857Y-146735696D01*
G37*
X94794857Y-146735696D02*
X94693382Y-146777158D01*
X94612196Y-146840948D01*
X94581054Y-146883316D01*
X94546083Y-146944248D01*
X94453541Y-146862789D01*
X94335653Y-146780348D01*
X94214330Y-146733975D01*
X94095210Y-146723295D01*
X93983934Y-146747927D01*
X93886144Y-146807496D01*
X93807477Y-146901623D01*
X93804728Y-146906238D01*
X93790866Y-146932674D01*
X93780151Y-146962718D01*
X93772080Y-147002162D01*
X93766151Y-147056800D01*
X93761860Y-147132422D01*
X93758707Y-147234821D01*
X93756186Y-147369788D01*
X93754564Y-147484175D01*
X93747877Y-147988100D01*
X93849814Y-147981591D01*
X93951750Y-147975083D01*
X93962334Y-147520000D01*
X93967732Y-147338647D01*
X93974573Y-147198437D01*
X93982945Y-147098196D01*
X93992935Y-147036757D01*
X93999539Y-147018377D01*
X94061124Y-146946501D01*
X94139016Y-146911677D01*
X94227572Y-146914756D01*
X94321148Y-146956592D01*
X94336830Y-146967388D01*
X94393746Y-147009359D01*
X94436828Y-147046236D01*
X94468001Y-147084579D01*
X94489193Y-147130950D01*
X94502329Y-147191911D01*
X94509336Y-147274022D01*
X94512139Y-147383845D01*
X94512666Y-147527941D01*
X94512667Y-147566347D01*
X94512667Y-147987986D01*
X94613209Y-147981534D01*
X94713750Y-147975083D01*
X94724334Y-147520000D01*
X94729732Y-147338647D01*
X94736573Y-147198437D01*
X94744945Y-147098196D01*
X94754935Y-147036757D01*
X94761539Y-147018377D01*
X94823124Y-146946501D01*
X94901016Y-146911677D01*
X94989572Y-146914756D01*
X95083148Y-146956592D01*
X95098830Y-146967388D01*
X95155809Y-147009412D01*
X95198921Y-147046338D01*
X95230100Y-147084739D01*
X95251278Y-147131189D01*
X95264391Y-147192261D01*
X95271370Y-147274528D01*
X95274151Y-147384566D01*
X95274666Y-147528946D01*
X95274667Y-147565187D01*
X95274667Y-147985666D01*
X95370581Y-147985666D01*
X95436032Y-147979932D01*
X95472994Y-147964492D01*
X95476758Y-147958922D01*
X95479234Y-147931490D01*
X95481096Y-147867411D01*
X95482302Y-147772368D01*
X95482809Y-147652046D01*
X95482575Y-147512126D01*
X95481557Y-147358292D01*
X95481386Y-147339797D01*
X95475750Y-146747416D01*
X95391084Y-146747416D01*
X95336635Y-146749850D01*
X95311317Y-146764800D01*
X95301940Y-146803743D01*
X95299848Y-146826791D01*
X95293475Y-146877823D01*
X95285908Y-146904865D01*
X95284156Y-146906166D01*
X95263736Y-146894382D01*
X95220573Y-146863964D01*
X95180533Y-146834032D01*
X95111511Y-146787528D01*
X95041056Y-146749496D01*
X95009429Y-146736617D01*
X94904309Y-146720777D01*
X94794857Y-146735696D01*
G36*
X95840802Y-146727028D02*
G01*
X95767322Y-146750848D01*
X95729056Y-146786300D01*
X95719167Y-146832943D01*
X95724782Y-146898527D01*
X95747447Y-146932015D01*
X95795894Y-146940522D01*
X95845620Y-146935991D01*
X95920793Y-146931549D01*
X95980451Y-146944957D01*
X96035541Y-146981857D01*
X96097009Y-147047895D01*
X96121501Y-147078234D01*
X96206000Y-147185134D01*
X96206000Y-147985666D01*
X96301915Y-147985666D01*
X96367365Y-147979932D01*
X96404327Y-147964492D01*
X96408092Y-147958922D01*
X96410568Y-147931490D01*
X96412430Y-147867411D01*
X96413635Y-147772368D01*
X96414142Y-147652046D01*
X96413908Y-147512126D01*
X96412890Y-147358292D01*
X96412719Y-147339797D01*
X96407084Y-146747416D01*
X96322417Y-146747416D01*
X96269468Y-146749517D01*
X96243355Y-146763599D01*
X96231898Y-146801328D01*
X96227167Y-146838654D01*
X96216584Y-146929891D01*
X96133236Y-146844275D01*
X96033965Y-146763832D01*
X95933776Y-146725242D01*
X95840802Y-146727028D01*
G37*
X95840802Y-146727028D02*
X95767322Y-146750848D01*
X95729056Y-146786300D01*
X95719167Y-146832943D01*
X95724782Y-146898527D01*
X95747447Y-146932015D01*
X95795894Y-146940522D01*
X95845620Y-146935991D01*
X95920793Y-146931549D01*
X95980451Y-146944957D01*
X96035541Y-146981857D01*
X96097009Y-147047895D01*
X96121501Y-147078234D01*
X96206000Y-147185134D01*
X96206000Y-147985666D01*
X96301915Y-147985666D01*
X96367365Y-147979932D01*
X96404327Y-147964492D01*
X96408092Y-147958922D01*
X96410568Y-147931490D01*
X96412430Y-147867411D01*
X96413635Y-147772368D01*
X96414142Y-147652046D01*
X96413908Y-147512126D01*
X96412890Y-147358292D01*
X96412719Y-147339797D01*
X96407084Y-146747416D01*
X96322417Y-146747416D01*
X96269468Y-146749517D01*
X96243355Y-146763599D01*
X96231898Y-146801328D01*
X96227167Y-146838654D01*
X96216584Y-146929891D01*
X96133236Y-146844275D01*
X96033965Y-146763832D01*
X95933776Y-146725242D01*
X95840802Y-146727028D01*
G36*
X96860276Y-146744578D02*
G01*
X96824067Y-146762233D01*
X96815721Y-146784050D01*
X96809196Y-146832948D01*
X96804360Y-146911997D01*
X96801082Y-147024265D01*
X96799228Y-147172823D01*
X96798667Y-147353168D01*
X96799133Y-147505088D01*
X96800447Y-147644091D01*
X96802481Y-147764255D01*
X96805108Y-147859655D01*
X96808202Y-147924369D01*
X96811515Y-147952185D01*
X96839508Y-147976509D01*
X96901889Y-147985530D01*
X96913821Y-147985666D01*
X96972490Y-147982590D01*
X97011513Y-147974890D01*
X97017389Y-147971555D01*
X97021076Y-147947494D01*
X97024403Y-147886666D01*
X97027240Y-147794635D01*
X97029455Y-147676969D01*
X97030917Y-147539231D01*
X97031496Y-147386988D01*
X97031500Y-147372538D01*
X97030924Y-147183008D01*
X97029108Y-147032739D01*
X97025928Y-146918676D01*
X97021254Y-146837763D01*
X97014960Y-146786942D01*
X97006919Y-146763157D01*
X97006100Y-146762233D01*
X96967875Y-146744015D01*
X96915084Y-146736833D01*
X96860276Y-146744578D01*
G37*
X96860276Y-146744578D02*
X96824067Y-146762233D01*
X96815721Y-146784050D01*
X96809196Y-146832948D01*
X96804360Y-146911997D01*
X96801082Y-147024265D01*
X96799228Y-147172823D01*
X96798667Y-147353168D01*
X96799133Y-147505088D01*
X96800447Y-147644091D01*
X96802481Y-147764255D01*
X96805108Y-147859655D01*
X96808202Y-147924369D01*
X96811515Y-147952185D01*
X96839508Y-147976509D01*
X96901889Y-147985530D01*
X96913821Y-147985666D01*
X96972490Y-147982590D01*
X97011513Y-147974890D01*
X97017389Y-147971555D01*
X97021076Y-147947494D01*
X97024403Y-147886666D01*
X97027240Y-147794635D01*
X97029455Y-147676969D01*
X97030917Y-147539231D01*
X97031496Y-147386988D01*
X97031500Y-147372538D01*
X97030924Y-147183008D01*
X97029108Y-147032739D01*
X97025928Y-146918676D01*
X97021254Y-146837763D01*
X97014960Y-146786942D01*
X97006919Y-146763157D01*
X97006100Y-146762233D01*
X96967875Y-146744015D01*
X96915084Y-146736833D01*
X96860276Y-146744578D01*
G36*
X97746371Y-146297145D02*
G01*
X97359584Y-146302916D01*
X97353075Y-146392875D01*
X97346566Y-146482833D01*
X98005167Y-146482833D01*
X98005167Y-147054333D01*
X97711426Y-147054333D01*
X97581997Y-147055392D01*
X97489232Y-147059911D01*
X97427489Y-147069905D01*
X97391124Y-147087387D01*
X97374491Y-147114370D01*
X97371949Y-147152870D01*
X97373929Y-147174761D01*
X97380750Y-147234250D01*
X97692959Y-147240107D01*
X98005167Y-147245965D01*
X98005167Y-147985666D01*
X98216834Y-147985666D01*
X98216834Y-147160911D01*
X98216766Y-146952347D01*
X98216431Y-146782096D01*
X98215629Y-146646136D01*
X98214163Y-146540446D01*
X98211833Y-146461006D01*
X98208441Y-146403795D01*
X98203788Y-146364791D01*
X98197676Y-146339974D01*
X98189907Y-146325323D01*
X98180281Y-146316817D01*
X98174996Y-146313765D01*
X98136377Y-146305347D01*
X98059161Y-146299562D01*
X97947010Y-146296552D01*
X97803586Y-146296458D01*
X97746371Y-146297145D01*
G37*
X97746371Y-146297145D02*
X97359584Y-146302916D01*
X97353075Y-146392875D01*
X97346566Y-146482833D01*
X98005167Y-146482833D01*
X98005167Y-147054333D01*
X97711426Y-147054333D01*
X97581997Y-147055392D01*
X97489232Y-147059911D01*
X97427489Y-147069905D01*
X97391124Y-147087387D01*
X97374491Y-147114370D01*
X97371949Y-147152870D01*
X97373929Y-147174761D01*
X97380750Y-147234250D01*
X97692959Y-147240107D01*
X98005167Y-147245965D01*
X98005167Y-147985666D01*
X98216834Y-147985666D01*
X98216834Y-147160911D01*
X98216766Y-146952347D01*
X98216431Y-146782096D01*
X98215629Y-146646136D01*
X98214163Y-146540446D01*
X98211833Y-146461006D01*
X98208441Y-146403795D01*
X98203788Y-146364791D01*
X98197676Y-146339974D01*
X98189907Y-146325323D01*
X98180281Y-146316817D01*
X98174996Y-146313765D01*
X98136377Y-146305347D01*
X98059161Y-146299562D01*
X97947010Y-146296552D01*
X97803586Y-146296458D01*
X97746371Y-146297145D01*
G36*
X99258252Y-146296515D02*
G01*
X99188302Y-146306903D01*
X99155900Y-146327393D01*
X99153010Y-146335219D01*
X99164326Y-146360244D01*
X99199426Y-146412180D01*
X99254428Y-146485892D01*
X99325452Y-146576246D01*
X99408620Y-146678106D01*
X99445027Y-146721646D01*
X99550836Y-146849371D01*
X99633215Y-146953212D01*
X99690783Y-147031307D01*
X99722155Y-147081795D01*
X99727159Y-147101668D01*
X99710189Y-147125431D01*
X99671469Y-147177724D01*
X99614874Y-147253378D01*
X99544275Y-147347225D01*
X99463547Y-147454095D01*
X99420896Y-147510400D01*
X99336833Y-147622623D01*
X99261692Y-147725504D01*
X99199251Y-147813660D01*
X99153288Y-147881709D01*
X99127582Y-147924265D01*
X99123528Y-147934158D01*
X99125088Y-147959349D01*
X99147458Y-147973140D01*
X99200238Y-147980322D01*
X99218603Y-147981601D01*
X99284518Y-147981020D01*
X99334729Y-147972096D01*
X99348133Y-147965427D01*
X99367998Y-147942450D01*
X99408873Y-147890318D01*
X99466893Y-147814132D01*
X99538196Y-147718994D01*
X99618917Y-147610005D01*
X99669280Y-147541427D01*
X99752819Y-147428183D01*
X99828469Y-147327269D01*
X99892566Y-147243441D01*
X99941447Y-147181454D01*
X99971448Y-147146061D01*
X99978959Y-147139560D01*
X99983783Y-147159494D01*
X99988017Y-147215434D01*
X99991424Y-147301057D01*
X99993765Y-147410036D01*
X99994803Y-147536046D01*
X99994834Y-147562333D01*
X99994834Y-147985666D01*
X100206986Y-147985666D01*
X100201452Y-147144291D01*
X100195917Y-146302916D01*
X100005417Y-146302916D01*
X99999637Y-146678625D01*
X99996959Y-146799338D01*
X99993071Y-146903824D01*
X99988352Y-146985382D01*
X99983182Y-147037315D01*
X99978470Y-147053189D01*
X99961466Y-147036991D01*
X99922183Y-146992192D01*
X99864513Y-146923465D01*
X99792349Y-146835484D01*
X99709583Y-146732922D01*
X99660228Y-146671079D01*
X99357372Y-146290114D01*
X99258252Y-146296515D01*
G37*
X99258252Y-146296515D02*
X99188302Y-146306903D01*
X99155900Y-146327393D01*
X99153010Y-146335219D01*
X99164326Y-146360244D01*
X99199426Y-146412180D01*
X99254428Y-146485892D01*
X99325452Y-146576246D01*
X99408620Y-146678106D01*
X99445027Y-146721646D01*
X99550836Y-146849371D01*
X99633215Y-146953212D01*
X99690783Y-147031307D01*
X99722155Y-147081795D01*
X99727159Y-147101668D01*
X99710189Y-147125431D01*
X99671469Y-147177724D01*
X99614874Y-147253378D01*
X99544275Y-147347225D01*
X99463547Y-147454095D01*
X99420896Y-147510400D01*
X99336833Y-147622623D01*
X99261692Y-147725504D01*
X99199251Y-147813660D01*
X99153288Y-147881709D01*
X99127582Y-147924265D01*
X99123528Y-147934158D01*
X99125088Y-147959349D01*
X99147458Y-147973140D01*
X99200238Y-147980322D01*
X99218603Y-147981601D01*
X99284518Y-147981020D01*
X99334729Y-147972096D01*
X99348133Y-147965427D01*
X99367998Y-147942450D01*
X99408873Y-147890318D01*
X99466893Y-147814132D01*
X99538196Y-147718994D01*
X99618917Y-147610005D01*
X99669280Y-147541427D01*
X99752819Y-147428183D01*
X99828469Y-147327269D01*
X99892566Y-147243441D01*
X99941447Y-147181454D01*
X99971448Y-147146061D01*
X99978959Y-147139560D01*
X99983783Y-147159494D01*
X99988017Y-147215434D01*
X99991424Y-147301057D01*
X99993765Y-147410036D01*
X99994803Y-147536046D01*
X99994834Y-147562333D01*
X99994834Y-147985666D01*
X100206986Y-147985666D01*
X100201452Y-147144291D01*
X100195917Y-146302916D01*
X100005417Y-146302916D01*
X99999637Y-146678625D01*
X99996959Y-146799338D01*
X99993071Y-146903824D01*
X99988352Y-146985382D01*
X99983182Y-147037315D01*
X99978470Y-147053189D01*
X99961466Y-147036991D01*
X99922183Y-146992192D01*
X99864513Y-146923465D01*
X99792349Y-146835484D01*
X99709583Y-146732922D01*
X99660228Y-146671079D01*
X99357372Y-146290114D01*
X99258252Y-146296515D01*
G36*
X102255040Y-146297981D02*
G01*
X102176784Y-146316930D01*
X102115260Y-146346696D01*
X102084864Y-146381508D01*
X102015502Y-146559213D01*
X101945700Y-146737045D01*
X101877234Y-146910559D01*
X101811883Y-147075310D01*
X101751426Y-147226854D01*
X101697641Y-147360746D01*
X101652306Y-147472541D01*
X101617200Y-147557794D01*
X101594100Y-147612062D01*
X101585042Y-147630741D01*
X101573796Y-147615762D01*
X101548786Y-147566029D01*
X101512024Y-147486072D01*
X101465519Y-147380421D01*
X101411282Y-147253607D01*
X101351324Y-147110160D01*
X101317322Y-147027491D01*
X101232495Y-146822911D01*
X101159658Y-146653174D01*
X101099325Y-146519404D01*
X101052011Y-146422723D01*
X101018230Y-146364255D01*
X101007416Y-146350541D01*
X100961712Y-146312853D01*
X100910043Y-146295815D01*
X100847174Y-146292333D01*
X100801367Y-146291813D01*
X100763767Y-146292781D01*
X100733568Y-146299027D01*
X100709962Y-146314344D01*
X100692141Y-146342522D01*
X100679299Y-146387353D01*
X100670628Y-146452628D01*
X100665319Y-146542138D01*
X100662567Y-146659675D01*
X100661563Y-146809029D01*
X100661499Y-146993993D01*
X100661584Y-147163740D01*
X100661584Y-147975083D01*
X100873250Y-147975083D01*
X100883834Y-147238052D01*
X100894417Y-146501022D01*
X101191380Y-147238052D01*
X101488343Y-147975083D01*
X101693507Y-147975083D01*
X101971295Y-147251322D01*
X102249084Y-146527562D01*
X102259667Y-147251322D01*
X102270250Y-147975083D01*
X102366289Y-147981350D01*
X102427184Y-147982062D01*
X102469131Y-147976565D01*
X102477414Y-147972531D01*
X102480804Y-147948659D01*
X102483928Y-147887182D01*
X102486698Y-147792828D01*
X102489028Y-147670326D01*
X102490829Y-147524404D01*
X102492014Y-147359791D01*
X102492494Y-147181213D01*
X102492500Y-147158150D01*
X102492324Y-146950168D01*
X102491687Y-146780492D01*
X102490429Y-146645100D01*
X102488389Y-146539965D01*
X102485406Y-146461064D01*
X102481320Y-146404371D01*
X102475970Y-146365862D01*
X102469194Y-146341512D01*
X102460833Y-146327296D01*
X102459239Y-146325595D01*
X102409364Y-146300357D01*
X102336932Y-146291805D01*
X102255040Y-146297981D01*
G37*
X102255040Y-146297981D02*
X102176784Y-146316930D01*
X102115260Y-146346696D01*
X102084864Y-146381508D01*
X102015502Y-146559213D01*
X101945700Y-146737045D01*
X101877234Y-146910559D01*
X101811883Y-147075310D01*
X101751426Y-147226854D01*
X101697641Y-147360746D01*
X101652306Y-147472541D01*
X101617200Y-147557794D01*
X101594100Y-147612062D01*
X101585042Y-147630741D01*
X101573796Y-147615762D01*
X101548786Y-147566029D01*
X101512024Y-147486072D01*
X101465519Y-147380421D01*
X101411282Y-147253607D01*
X101351324Y-147110160D01*
X101317322Y-147027491D01*
X101232495Y-146822911D01*
X101159658Y-146653174D01*
X101099325Y-146519404D01*
X101052011Y-146422723D01*
X101018230Y-146364255D01*
X101007416Y-146350541D01*
X100961712Y-146312853D01*
X100910043Y-146295815D01*
X100847174Y-146292333D01*
X100801367Y-146291813D01*
X100763767Y-146292781D01*
X100733568Y-146299027D01*
X100709962Y-146314344D01*
X100692141Y-146342522D01*
X100679299Y-146387353D01*
X100670628Y-146452628D01*
X100665319Y-146542138D01*
X100662567Y-146659675D01*
X100661563Y-146809029D01*
X100661499Y-146993993D01*
X100661584Y-147163740D01*
X100661584Y-147975083D01*
X100873250Y-147975083D01*
X100883834Y-147238052D01*
X100894417Y-146501022D01*
X101191380Y-147238052D01*
X101488343Y-147975083D01*
X101693507Y-147975083D01*
X101971295Y-147251322D01*
X102249084Y-146527562D01*
X102259667Y-147251322D01*
X102270250Y-147975083D01*
X102366289Y-147981350D01*
X102427184Y-147982062D01*
X102469131Y-147976565D01*
X102477414Y-147972531D01*
X102480804Y-147948659D01*
X102483928Y-147887182D01*
X102486698Y-147792828D01*
X102489028Y-147670326D01*
X102490829Y-147524404D01*
X102492014Y-147359791D01*
X102492494Y-147181213D01*
X102492500Y-147158150D01*
X102492324Y-146950168D01*
X102491687Y-146780492D01*
X102490429Y-146645100D01*
X102488389Y-146539965D01*
X102485406Y-146461064D01*
X102481320Y-146404371D01*
X102475970Y-146365862D01*
X102469194Y-146341512D01*
X102460833Y-146327296D01*
X102459239Y-146325595D01*
X102409364Y-146300357D01*
X102336932Y-146291805D01*
X102255040Y-146297981D01*
G36*
X88669781Y-146743696D02*
G01*
X88666481Y-146744646D01*
X88557138Y-146795061D01*
X88460570Y-146874098D01*
X88387447Y-146971272D01*
X88353838Y-147051842D01*
X88336497Y-147138104D01*
X88328195Y-147226927D01*
X88328902Y-147307004D01*
X88338593Y-147367029D01*
X88354674Y-147394379D01*
X88384613Y-147400424D01*
X88449683Y-147405719D01*
X88542685Y-147409937D01*
X88656421Y-147412754D01*
X88783690Y-147413842D01*
X88784196Y-147413842D01*
X89183474Y-147414166D01*
X89168629Y-147514708D01*
X89132930Y-147639696D01*
X89068420Y-147734626D01*
X88977112Y-147798455D01*
X88861021Y-147830141D01*
X88722162Y-147828641D01*
X88606479Y-147805699D01*
X88505973Y-147778799D01*
X88439552Y-147762617D01*
X88400195Y-147757757D01*
X88380880Y-147764822D01*
X88374586Y-147784415D01*
X88374291Y-147817139D01*
X88374334Y-147825639D01*
X88377599Y-147873022D01*
X88394097Y-147903374D01*
X88433885Y-147928941D01*
X88474606Y-147947735D01*
X88548405Y-147970472D01*
X88647506Y-147987973D01*
X88758039Y-147999184D01*
X88866130Y-148003051D01*
X88957909Y-147998518D01*
X89009471Y-147988400D01*
X89150341Y-147922025D01*
X89262258Y-147824905D01*
X89339105Y-147710500D01*
X89364128Y-147635503D01*
X89380668Y-147531815D01*
X89388274Y-147412306D01*
X89386499Y-147289850D01*
X89381857Y-147244833D01*
X89182031Y-147244833D01*
X88543667Y-147244833D01*
X88543667Y-147180490D01*
X88558475Y-147099301D01*
X88596776Y-147017206D01*
X88649382Y-146950995D01*
X88682537Y-146926645D01*
X88738619Y-146908113D01*
X88813656Y-146897002D01*
X88848497Y-146895583D01*
X88963686Y-146913593D01*
X89055994Y-146966895D01*
X89124177Y-147054393D01*
X89166990Y-147174993D01*
X89167216Y-147176041D01*
X89182031Y-147244833D01*
X89381857Y-147244833D01*
X89374893Y-147177318D01*
X89360083Y-147109275D01*
X89300485Y-146974423D01*
X89210826Y-146864997D01*
X89097015Y-146784104D01*
X88964964Y-146734852D01*
X88820582Y-146720346D01*
X88669781Y-146743696D01*
G37*
X88669781Y-146743696D02*
X88666481Y-146744646D01*
X88557138Y-146795061D01*
X88460570Y-146874098D01*
X88387447Y-146971272D01*
X88353838Y-147051842D01*
X88336497Y-147138104D01*
X88328195Y-147226927D01*
X88328902Y-147307004D01*
X88338593Y-147367029D01*
X88354674Y-147394379D01*
X88384613Y-147400424D01*
X88449683Y-147405719D01*
X88542685Y-147409937D01*
X88656421Y-147412754D01*
X88783690Y-147413842D01*
X88784196Y-147413842D01*
X89183474Y-147414166D01*
X89168629Y-147514708D01*
X89132930Y-147639696D01*
X89068420Y-147734626D01*
X88977112Y-147798455D01*
X88861021Y-147830141D01*
X88722162Y-147828641D01*
X88606479Y-147805699D01*
X88505973Y-147778799D01*
X88439552Y-147762617D01*
X88400195Y-147757757D01*
X88380880Y-147764822D01*
X88374586Y-147784415D01*
X88374291Y-147817139D01*
X88374334Y-147825639D01*
X88377599Y-147873022D01*
X88394097Y-147903374D01*
X88433885Y-147928941D01*
X88474606Y-147947735D01*
X88548405Y-147970472D01*
X88647506Y-147987973D01*
X88758039Y-147999184D01*
X88866130Y-148003051D01*
X88957909Y-147998518D01*
X89009471Y-147988400D01*
X89150341Y-147922025D01*
X89262258Y-147824905D01*
X89339105Y-147710500D01*
X89364128Y-147635503D01*
X89380668Y-147531815D01*
X89388274Y-147412306D01*
X89386499Y-147289850D01*
X89381857Y-147244833D01*
X89182031Y-147244833D01*
X88543667Y-147244833D01*
X88543667Y-147180490D01*
X88558475Y-147099301D01*
X88596776Y-147017206D01*
X88649382Y-146950995D01*
X88682537Y-146926645D01*
X88738619Y-146908113D01*
X88813656Y-146897002D01*
X88848497Y-146895583D01*
X88963686Y-146913593D01*
X89055994Y-146966895D01*
X89124177Y-147054393D01*
X89166990Y-147174993D01*
X89167216Y-147176041D01*
X89182031Y-147244833D01*
X89381857Y-147244833D01*
X89374893Y-147177318D01*
X89360083Y-147109275D01*
X89300485Y-146974423D01*
X89210826Y-146864997D01*
X89097015Y-146784104D01*
X88964964Y-146734852D01*
X88820582Y-146720346D01*
X88669781Y-146743696D01*
G36*
X90996481Y-146726036D02*
G01*
X90960359Y-146731815D01*
X90846453Y-146759748D01*
X90761109Y-146802998D01*
X90691329Y-146868840D01*
X90672225Y-146893097D01*
X90658533Y-146913782D01*
X90647926Y-146938327D01*
X90639921Y-146972259D01*
X90634041Y-147021110D01*
X90629803Y-147090407D01*
X90626728Y-147185681D01*
X90624336Y-147312461D01*
X90622240Y-147468581D01*
X90615897Y-147985666D01*
X90701615Y-147985666D01*
X90756340Y-147983238D01*
X90780837Y-147969995D01*
X90787171Y-147936999D01*
X90787334Y-147922166D01*
X90795358Y-147873838D01*
X90815388Y-147858832D01*
X90841363Y-147881634D01*
X90841595Y-147882008D01*
X90867662Y-147903313D01*
X90919558Y-147933514D01*
X90964553Y-147955885D01*
X91101424Y-147999273D01*
X91236496Y-148002937D01*
X91363874Y-147966829D01*
X91379568Y-147959208D01*
X91474637Y-147895483D01*
X91533841Y-147816158D01*
X91563039Y-147712787D01*
X91565542Y-147691155D01*
X91561166Y-147604452D01*
X91352946Y-147604452D01*
X91348614Y-147687677D01*
X91313155Y-147764715D01*
X91251053Y-147814719D01*
X91169363Y-147836280D01*
X91075141Y-147827987D01*
X90975440Y-147788431D01*
X90943184Y-147768708D01*
X90840250Y-147699916D01*
X90833930Y-147554333D01*
X90827609Y-147408749D01*
X91003728Y-147417993D01*
X91146641Y-147436142D01*
X91252737Y-147473468D01*
X91321633Y-147529671D01*
X91352946Y-147604452D01*
X91561166Y-147604452D01*
X91559338Y-147568246D01*
X91516449Y-147464512D01*
X91438538Y-147381191D01*
X91327265Y-147319521D01*
X91184294Y-147280742D01*
X91011285Y-147266092D01*
X90995159Y-147266000D01*
X90829667Y-147266000D01*
X90829667Y-147172127D01*
X90841272Y-147058210D01*
X90878073Y-146977364D01*
X90943052Y-146926627D01*
X91039188Y-146903036D01*
X91102862Y-146900516D01*
X91231909Y-146916464D01*
X91341556Y-146956833D01*
X91421795Y-146992967D01*
X91471313Y-147008229D01*
X91496717Y-147001716D01*
X91504615Y-146972521D01*
X91502987Y-146934727D01*
X91487478Y-146872963D01*
X91448934Y-146824934D01*
X91381457Y-146786282D01*
X91279145Y-146752644D01*
X91244700Y-146743836D01*
X91152348Y-146724466D01*
X91077129Y-146718851D01*
X90996481Y-146726036D01*
G37*
X90996481Y-146726036D02*
X90960359Y-146731815D01*
X90846453Y-146759748D01*
X90761109Y-146802998D01*
X90691329Y-146868840D01*
X90672225Y-146893097D01*
X90658533Y-146913782D01*
X90647926Y-146938327D01*
X90639921Y-146972259D01*
X90634041Y-147021110D01*
X90629803Y-147090407D01*
X90626728Y-147185681D01*
X90624336Y-147312461D01*
X90622240Y-147468581D01*
X90615897Y-147985666D01*
X90701615Y-147985666D01*
X90756340Y-147983238D01*
X90780837Y-147969995D01*
X90787171Y-147936999D01*
X90787334Y-147922166D01*
X90795358Y-147873838D01*
X90815388Y-147858832D01*
X90841363Y-147881634D01*
X90841595Y-147882008D01*
X90867662Y-147903313D01*
X90919558Y-147933514D01*
X90964553Y-147955885D01*
X91101424Y-147999273D01*
X91236496Y-148002937D01*
X91363874Y-147966829D01*
X91379568Y-147959208D01*
X91474637Y-147895483D01*
X91533841Y-147816158D01*
X91563039Y-147712787D01*
X91565542Y-147691155D01*
X91561166Y-147604452D01*
X91352946Y-147604452D01*
X91348614Y-147687677D01*
X91313155Y-147764715D01*
X91251053Y-147814719D01*
X91169363Y-147836280D01*
X91075141Y-147827987D01*
X90975440Y-147788431D01*
X90943184Y-147768708D01*
X90840250Y-147699916D01*
X90833930Y-147554333D01*
X90827609Y-147408749D01*
X91003728Y-147417993D01*
X91146641Y-147436142D01*
X91252737Y-147473468D01*
X91321633Y-147529671D01*
X91352946Y-147604452D01*
X91561166Y-147604452D01*
X91559338Y-147568246D01*
X91516449Y-147464512D01*
X91438538Y-147381191D01*
X91327265Y-147319521D01*
X91184294Y-147280742D01*
X91011285Y-147266092D01*
X90995159Y-147266000D01*
X90829667Y-147266000D01*
X90829667Y-147172127D01*
X90841272Y-147058210D01*
X90878073Y-146977364D01*
X90943052Y-146926627D01*
X91039188Y-146903036D01*
X91102862Y-146900516D01*
X91231909Y-146916464D01*
X91341556Y-146956833D01*
X91421795Y-146992967D01*
X91471313Y-147008229D01*
X91496717Y-147001716D01*
X91504615Y-146972521D01*
X91502987Y-146934727D01*
X91487478Y-146872963D01*
X91448934Y-146824934D01*
X91381457Y-146786282D01*
X91279145Y-146752644D01*
X91244700Y-146743836D01*
X91152348Y-146724466D01*
X91077129Y-146718851D01*
X90996481Y-146726036D01*
G36*
X103507750Y-146286109D02*
G01*
X103366411Y-146308713D01*
X103293517Y-146331475D01*
X103160602Y-146405792D01*
X103051171Y-146513521D01*
X102966664Y-146651932D01*
X102908521Y-146818299D01*
X102878179Y-147009891D01*
X102873868Y-147127012D01*
X102883893Y-147272929D01*
X102910987Y-147420516D01*
X102951894Y-147558583D01*
X103003358Y-147675941D01*
X103056779Y-147755489D01*
X103071980Y-147780509D01*
X103063297Y-147805209D01*
X103025825Y-147841292D01*
X103018072Y-147847860D01*
X102962256Y-147887914D01*
X102885650Y-147934372D01*
X102815252Y-147971869D01*
X102730289Y-148019499D01*
X102682379Y-148061159D01*
X102668890Y-148087435D01*
X102667570Y-148137549D01*
X102681389Y-148190339D01*
X102704416Y-148229348D01*
X102723741Y-148239666D01*
X102750781Y-148230483D01*
X102805198Y-148205993D01*
X102877006Y-148170784D01*
X102906172Y-148155861D01*
X102995515Y-148106174D01*
X103083134Y-148051707D01*
X103152113Y-148003064D01*
X103160280Y-147996539D01*
X103252438Y-147921022D01*
X103385761Y-147966264D01*
X103468341Y-147990472D01*
X103545508Y-148002427D01*
X103635672Y-148004201D01*
X103699000Y-148001503D01*
X103879608Y-147976343D01*
X104030450Y-147921829D01*
X104153433Y-147836693D01*
X104250467Y-147719667D01*
X104314692Y-147592364D01*
X104334794Y-147537566D01*
X104348700Y-147485104D01*
X104357518Y-147425372D01*
X104362358Y-147348761D01*
X104364173Y-147253831D01*
X104137917Y-147253831D01*
X104112270Y-147427752D01*
X104060719Y-147570917D01*
X103983766Y-147682209D01*
X103881912Y-147760513D01*
X103804061Y-147792748D01*
X103705218Y-147808436D01*
X103588788Y-147805883D01*
X103474496Y-147786836D01*
X103387396Y-147755840D01*
X103287812Y-147685654D01*
X103211382Y-147587073D01*
X103156603Y-147457167D01*
X103121971Y-147293004D01*
X103113941Y-147222754D01*
X103111130Y-147106383D01*
X103121043Y-146980231D01*
X103141525Y-146859500D01*
X103170421Y-146759393D01*
X103184044Y-146728150D01*
X103262498Y-146610914D01*
X103363058Y-146529309D01*
X103488780Y-146481164D01*
X103545871Y-146470910D01*
X103697453Y-146468521D01*
X103829575Y-146502903D01*
X103940555Y-146572408D01*
X104028710Y-146675388D01*
X104092360Y-146810195D01*
X104129821Y-146975180D01*
X104137161Y-147050269D01*
X104137917Y-147253831D01*
X104364173Y-147253831D01*
X104364330Y-147245665D01*
X104364599Y-147160166D01*
X104363903Y-147034905D01*
X104361069Y-146942334D01*
X104354978Y-146872819D01*
X104344511Y-146816729D01*
X104328549Y-146764433D01*
X104314249Y-146726784D01*
X104243146Y-146593829D01*
X104145204Y-146475282D01*
X104030067Y-146381191D01*
X103934600Y-146331269D01*
X103808294Y-146297382D01*
X103660527Y-146282330D01*
X103507750Y-146286109D01*
G37*
X103507750Y-146286109D02*
X103366411Y-146308713D01*
X103293517Y-146331475D01*
X103160602Y-146405792D01*
X103051171Y-146513521D01*
X102966664Y-146651932D01*
X102908521Y-146818299D01*
X102878179Y-147009891D01*
X102873868Y-147127012D01*
X102883893Y-147272929D01*
X102910987Y-147420516D01*
X102951894Y-147558583D01*
X103003358Y-147675941D01*
X103056779Y-147755489D01*
X103071980Y-147780509D01*
X103063297Y-147805209D01*
X103025825Y-147841292D01*
X103018072Y-147847860D01*
X102962256Y-147887914D01*
X102885650Y-147934372D01*
X102815252Y-147971869D01*
X102730289Y-148019499D01*
X102682379Y-148061159D01*
X102668890Y-148087435D01*
X102667570Y-148137549D01*
X102681389Y-148190339D01*
X102704416Y-148229348D01*
X102723741Y-148239666D01*
X102750781Y-148230483D01*
X102805198Y-148205993D01*
X102877006Y-148170784D01*
X102906172Y-148155861D01*
X102995515Y-148106174D01*
X103083134Y-148051707D01*
X103152113Y-148003064D01*
X103160280Y-147996539D01*
X103252438Y-147921022D01*
X103385761Y-147966264D01*
X103468341Y-147990472D01*
X103545508Y-148002427D01*
X103635672Y-148004201D01*
X103699000Y-148001503D01*
X103879608Y-147976343D01*
X104030450Y-147921829D01*
X104153433Y-147836693D01*
X104250467Y-147719667D01*
X104314692Y-147592364D01*
X104334794Y-147537566D01*
X104348700Y-147485104D01*
X104357518Y-147425372D01*
X104362358Y-147348761D01*
X104364173Y-147253831D01*
X104137917Y-147253831D01*
X104112270Y-147427752D01*
X104060719Y-147570917D01*
X103983766Y-147682209D01*
X103881912Y-147760513D01*
X103804061Y-147792748D01*
X103705218Y-147808436D01*
X103588788Y-147805883D01*
X103474496Y-147786836D01*
X103387396Y-147755840D01*
X103287812Y-147685654D01*
X103211382Y-147587073D01*
X103156603Y-147457167D01*
X103121971Y-147293004D01*
X103113941Y-147222754D01*
X103111130Y-147106383D01*
X103121043Y-146980231D01*
X103141525Y-146859500D01*
X103170421Y-146759393D01*
X103184044Y-146728150D01*
X103262498Y-146610914D01*
X103363058Y-146529309D01*
X103488780Y-146481164D01*
X103545871Y-146470910D01*
X103697453Y-146468521D01*
X103829575Y-146502903D01*
X103940555Y-146572408D01*
X104028710Y-146675388D01*
X104092360Y-146810195D01*
X104129821Y-146975180D01*
X104137161Y-147050269D01*
X104137917Y-147253831D01*
X104364173Y-147253831D01*
X104364330Y-147245665D01*
X104364599Y-147160166D01*
X104363903Y-147034905D01*
X104361069Y-146942334D01*
X104354978Y-146872819D01*
X104344511Y-146816729D01*
X104328549Y-146764433D01*
X104314249Y-146726784D01*
X104243146Y-146593829D01*
X104145204Y-146475282D01*
X104030067Y-146381191D01*
X103934600Y-146331269D01*
X103808294Y-146297382D01*
X103660527Y-146282330D01*
X103507750Y-146286109D01*
G36*
X106448533Y-144096136D02*
G01*
X106417227Y-144116083D01*
X106398573Y-144157645D01*
X106389558Y-144227628D01*
X106387168Y-144332835D01*
X106387167Y-144335688D01*
X106387167Y-144529577D01*
X106273451Y-144541313D01*
X106130326Y-144574947D01*
X106006275Y-144641163D01*
X105906303Y-144734688D01*
X105835413Y-144850248D01*
X105798609Y-144982567D01*
X105794500Y-145046161D01*
X105794500Y-145128166D01*
X105597650Y-145128166D01*
X105491575Y-145130155D01*
X105420772Y-145138571D01*
X105378270Y-145157086D01*
X105357099Y-145189375D01*
X105350287Y-145239109D01*
X105350000Y-145258655D01*
X105355342Y-145310681D01*
X105375706Y-145345984D01*
X105417604Y-145367620D01*
X105487545Y-145378643D01*
X105592039Y-145382109D01*
X105613192Y-145382166D01*
X105794500Y-145382166D01*
X105794500Y-145508426D01*
X105794501Y-145634685D01*
X105577542Y-145640717D01*
X105360584Y-145646750D01*
X105360584Y-145858416D01*
X105577542Y-145864448D01*
X105794501Y-145870480D01*
X105794500Y-145996740D01*
X105794500Y-146123000D01*
X105596009Y-146123000D01*
X105488778Y-146125195D01*
X105417283Y-146134304D01*
X105375041Y-146154113D01*
X105355571Y-146188409D01*
X105352390Y-146240978D01*
X105353926Y-146264397D01*
X105360584Y-146345250D01*
X105577542Y-146351282D01*
X105794501Y-146357314D01*
X105794500Y-146493416D01*
X105794500Y-146629519D01*
X105360584Y-146641583D01*
X105360584Y-146853250D01*
X105794500Y-146865314D01*
X105794500Y-147117833D01*
X105596009Y-147117833D01*
X105488778Y-147120028D01*
X105417283Y-147129137D01*
X105375041Y-147148947D01*
X105355571Y-147183243D01*
X105352390Y-147235811D01*
X105353926Y-147259231D01*
X105360584Y-147340083D01*
X105794500Y-147352147D01*
X105794707Y-147451948D01*
X105812906Y-147570417D01*
X105861981Y-147690231D01*
X105934350Y-147795045D01*
X105970765Y-147831453D01*
X106053665Y-147886201D01*
X106158974Y-147931220D01*
X106266831Y-147959089D01*
X106326742Y-147964500D01*
X106385634Y-147964500D01*
X106397750Y-148377250D01*
X106508875Y-148383647D01*
X106620000Y-148390045D01*
X106620000Y-147964500D01*
X106895167Y-147964500D01*
X106895167Y-148390045D01*
X107006292Y-148383647D01*
X107117417Y-148377250D01*
X107129533Y-147964500D01*
X107380468Y-147964500D01*
X107392584Y-148377250D01*
X107503709Y-148383647D01*
X107614834Y-148390045D01*
X107614834Y-147964500D01*
X107890000Y-147964500D01*
X107890000Y-148390045D01*
X108001125Y-148383647D01*
X108112250Y-148377250D01*
X108118309Y-148170875D01*
X108124367Y-147964500D01*
X108375301Y-147964500D01*
X108387417Y-148377250D01*
X108498542Y-148383647D01*
X108609667Y-148390045D01*
X108609667Y-147970328D01*
X108727907Y-147956431D01*
X108857810Y-147929227D01*
X108965579Y-147877025D01*
X109050681Y-147808671D01*
X109126235Y-147722894D01*
X109172982Y-147629321D01*
X109197831Y-147513181D01*
X109200559Y-147488250D01*
X109212917Y-147361250D01*
X109429876Y-147355217D01*
X109646834Y-147349185D01*
X109646834Y-147246357D01*
X109645132Y-147192345D01*
X109635343Y-147156076D01*
X109610443Y-147134021D01*
X109563408Y-147122650D01*
X109487213Y-147118431D01*
X109391103Y-147117833D01*
X109202334Y-147117833D01*
X109202334Y-146865314D01*
X109636250Y-146853250D01*
X109636250Y-146641583D01*
X109418302Y-146635540D01*
X109200353Y-146629497D01*
X109206635Y-146497956D01*
X109212917Y-146366416D01*
X109429875Y-146360384D01*
X109646834Y-146354352D01*
X109646834Y-146251524D01*
X109645132Y-146197511D01*
X109635343Y-146161243D01*
X109610443Y-146139188D01*
X109563408Y-146127816D01*
X109487213Y-146123598D01*
X109391103Y-146122999D01*
X109202334Y-146123000D01*
X109202334Y-145870480D01*
X109636250Y-145858416D01*
X109636250Y-145646750D01*
X109419292Y-145640717D01*
X109202334Y-145634685D01*
X109202334Y-145382166D01*
X109391103Y-145382166D01*
X109498579Y-145381299D01*
X109570749Y-145376374D01*
X109614636Y-145363901D01*
X109637263Y-145340395D01*
X109645651Y-145302366D01*
X109646823Y-145255579D01*
X108486508Y-145255579D01*
X108478163Y-145768664D01*
X108474189Y-145956091D01*
X108468195Y-146107147D01*
X108458941Y-146227787D01*
X108445189Y-146323965D01*
X108425700Y-146401636D01*
X108399235Y-146466756D01*
X108364555Y-146525279D01*
X108320421Y-146583160D01*
X108304884Y-146601603D01*
X108212715Y-146684431D01*
X108091600Y-146757818D01*
X107954768Y-146815975D01*
X107815447Y-146853114D01*
X107705637Y-146863833D01*
X107636000Y-146863833D01*
X107636000Y-147061388D01*
X107634483Y-147149147D01*
X107630413Y-147220376D01*
X107624514Y-147264837D01*
X107620966Y-147273979D01*
X107593038Y-147281239D01*
X107537036Y-147284021D01*
X107488674Y-147282798D01*
X107371417Y-147276583D01*
X107359369Y-146869489D01*
X107244122Y-146855944D01*
X107058381Y-146816131D01*
X106895814Y-146744222D01*
X106759640Y-146642312D01*
X106653079Y-146512498D01*
X106616483Y-146447242D01*
X106545917Y-146303997D01*
X106539624Y-145771844D01*
X106533331Y-145239692D01*
X106597832Y-145226791D01*
X106668298Y-145221444D01*
X106725834Y-145226591D01*
X106789334Y-145239291D01*
X106789334Y-145676698D01*
X106790975Y-145867374D01*
X106796510Y-146021502D01*
X106806860Y-146144763D01*
X106822945Y-146242837D01*
X106845685Y-146321406D01*
X106876000Y-146386150D01*
X106913026Y-146440500D01*
X106997920Y-146519099D01*
X107110141Y-146581059D01*
X107235716Y-146619033D01*
X107259999Y-146622940D01*
X107360248Y-146636673D01*
X107365833Y-145940628D01*
X107371417Y-145244583D01*
X107445500Y-145226725D01*
X107531028Y-145220762D01*
X107577792Y-145231493D01*
X107636000Y-145254118D01*
X107636000Y-146631000D01*
X107685075Y-146631000D01*
X107774817Y-146618284D01*
X107877217Y-146585056D01*
X107973089Y-146538696D01*
X108031413Y-146497799D01*
X108079143Y-146452929D01*
X108116795Y-146407945D01*
X108145700Y-146357128D01*
X108167190Y-146294757D01*
X108182596Y-146215112D01*
X108193249Y-146112472D01*
X108200480Y-145981117D01*
X108205621Y-145815327D01*
X108207305Y-145742000D01*
X108218084Y-145244583D01*
X108292167Y-145226725D01*
X108381444Y-145221270D01*
X108426379Y-145232223D01*
X108486508Y-145255579D01*
X109646823Y-145255579D01*
X109646834Y-145255166D01*
X109645088Y-145201792D01*
X109635170Y-145165951D01*
X109610055Y-145144156D01*
X109562721Y-145132919D01*
X109486145Y-145128753D01*
X109391103Y-145128166D01*
X109202334Y-145128166D01*
X109202334Y-145026489D01*
X109182385Y-144896014D01*
X109126658Y-144777107D01*
X109041334Y-144675711D01*
X108932593Y-144597767D01*
X108806614Y-144549218D01*
X108691673Y-144535500D01*
X108609667Y-144535500D01*
X108609667Y-144326097D01*
X108608520Y-144223728D01*
X108602670Y-144156377D01*
X108588500Y-144116742D01*
X108562396Y-144097522D01*
X108520741Y-144091416D01*
X108493251Y-144091000D01*
X108442559Y-144093315D01*
X108409208Y-144105130D01*
X108389581Y-144133745D01*
X108380064Y-144186462D01*
X108377040Y-144270582D01*
X108376834Y-144326097D01*
X108376834Y-144535500D01*
X108122834Y-144535500D01*
X108122834Y-144337008D01*
X108120639Y-144229777D01*
X108111529Y-144158282D01*
X108091720Y-144116040D01*
X108057424Y-144096570D01*
X108004856Y-144093389D01*
X107981436Y-144094925D01*
X107900584Y-144101583D01*
X107888520Y-144535499D01*
X107751677Y-144535499D01*
X107614834Y-144535500D01*
X107614834Y-144326097D01*
X107613687Y-144223728D01*
X107607837Y-144156377D01*
X107593667Y-144116742D01*
X107567562Y-144097522D01*
X107525908Y-144091416D01*
X107498417Y-144091000D01*
X107447726Y-144093315D01*
X107414374Y-144105130D01*
X107394748Y-144133745D01*
X107385231Y-144186462D01*
X107382207Y-144270582D01*
X107382000Y-144326097D01*
X107382000Y-144535500D01*
X107128000Y-144535500D01*
X107128000Y-144337008D01*
X107125805Y-144229777D01*
X107116696Y-144158282D01*
X107096887Y-144116040D01*
X107062591Y-144096570D01*
X107010022Y-144093389D01*
X106986603Y-144094925D01*
X106905750Y-144101583D01*
X106899718Y-144318541D01*
X106893686Y-144535500D01*
X106620000Y-144535500D01*
X106620000Y-144326097D01*
X106618919Y-144223784D01*
X106613091Y-144156481D01*
X106598644Y-144116871D01*
X106571703Y-144097640D01*
X106528395Y-144091473D01*
X106495503Y-144091000D01*
X106448533Y-144096136D01*
G37*
X106448533Y-144096136D02*
X106417227Y-144116083D01*
X106398573Y-144157645D01*
X106389558Y-144227628D01*
X106387168Y-144332835D01*
X106387167Y-144335688D01*
X106387167Y-144529577D01*
X106273451Y-144541313D01*
X106130326Y-144574947D01*
X106006275Y-144641163D01*
X105906303Y-144734688D01*
X105835413Y-144850248D01*
X105798609Y-144982567D01*
X105794500Y-145046161D01*
X105794500Y-145128166D01*
X105597650Y-145128166D01*
X105491575Y-145130155D01*
X105420772Y-145138571D01*
X105378270Y-145157086D01*
X105357099Y-145189375D01*
X105350287Y-145239109D01*
X105350000Y-145258655D01*
X105355342Y-145310681D01*
X105375706Y-145345984D01*
X105417604Y-145367620D01*
X105487545Y-145378643D01*
X105592039Y-145382109D01*
X105613192Y-145382166D01*
X105794500Y-145382166D01*
X105794500Y-145508426D01*
X105794501Y-145634685D01*
X105577542Y-145640717D01*
X105360584Y-145646750D01*
X105360584Y-145858416D01*
X105577542Y-145864448D01*
X105794501Y-145870480D01*
X105794500Y-145996740D01*
X105794500Y-146123000D01*
X105596009Y-146123000D01*
X105488778Y-146125195D01*
X105417283Y-146134304D01*
X105375041Y-146154113D01*
X105355571Y-146188409D01*
X105352390Y-146240978D01*
X105353926Y-146264397D01*
X105360584Y-146345250D01*
X105577542Y-146351282D01*
X105794501Y-146357314D01*
X105794500Y-146493416D01*
X105794500Y-146629519D01*
X105360584Y-146641583D01*
X105360584Y-146853250D01*
X105794500Y-146865314D01*
X105794500Y-147117833D01*
X105596009Y-147117833D01*
X105488778Y-147120028D01*
X105417283Y-147129137D01*
X105375041Y-147148947D01*
X105355571Y-147183243D01*
X105352390Y-147235811D01*
X105353926Y-147259231D01*
X105360584Y-147340083D01*
X105794500Y-147352147D01*
X105794707Y-147451948D01*
X105812906Y-147570417D01*
X105861981Y-147690231D01*
X105934350Y-147795045D01*
X105970765Y-147831453D01*
X106053665Y-147886201D01*
X106158974Y-147931220D01*
X106266831Y-147959089D01*
X106326742Y-147964500D01*
X106385634Y-147964500D01*
X106397750Y-148377250D01*
X106508875Y-148383647D01*
X106620000Y-148390045D01*
X106620000Y-147964500D01*
X106895167Y-147964500D01*
X106895167Y-148390045D01*
X107006292Y-148383647D01*
X107117417Y-148377250D01*
X107129533Y-147964500D01*
X107380468Y-147964500D01*
X107392584Y-148377250D01*
X107503709Y-148383647D01*
X107614834Y-148390045D01*
X107614834Y-147964500D01*
X107890000Y-147964500D01*
X107890000Y-148390045D01*
X108001125Y-148383647D01*
X108112250Y-148377250D01*
X108118309Y-148170875D01*
X108124367Y-147964500D01*
X108375301Y-147964500D01*
X108387417Y-148377250D01*
X108498542Y-148383647D01*
X108609667Y-148390045D01*
X108609667Y-147970328D01*
X108727907Y-147956431D01*
X108857810Y-147929227D01*
X108965579Y-147877025D01*
X109050681Y-147808671D01*
X109126235Y-147722894D01*
X109172982Y-147629321D01*
X109197831Y-147513181D01*
X109200559Y-147488250D01*
X109212917Y-147361250D01*
X109429876Y-147355217D01*
X109646834Y-147349185D01*
X109646834Y-147246357D01*
X109645132Y-147192345D01*
X109635343Y-147156076D01*
X109610443Y-147134021D01*
X109563408Y-147122650D01*
X109487213Y-147118431D01*
X109391103Y-147117833D01*
X109202334Y-147117833D01*
X109202334Y-146865314D01*
X109636250Y-146853250D01*
X109636250Y-146641583D01*
X109418302Y-146635540D01*
X109200353Y-146629497D01*
X109206635Y-146497956D01*
X109212917Y-146366416D01*
X109429875Y-146360384D01*
X109646834Y-146354352D01*
X109646834Y-146251524D01*
X109645132Y-146197511D01*
X109635343Y-146161243D01*
X109610443Y-146139188D01*
X109563408Y-146127816D01*
X109487213Y-146123598D01*
X109391103Y-146122999D01*
X109202334Y-146123000D01*
X109202334Y-145870480D01*
X109636250Y-145858416D01*
X109636250Y-145646750D01*
X109419292Y-145640717D01*
X109202334Y-145634685D01*
X109202334Y-145382166D01*
X109391103Y-145382166D01*
X109498579Y-145381299D01*
X109570749Y-145376374D01*
X109614636Y-145363901D01*
X109637263Y-145340395D01*
X109645651Y-145302366D01*
X109646823Y-145255579D01*
X108486508Y-145255579D01*
X108478163Y-145768664D01*
X108474189Y-145956091D01*
X108468195Y-146107147D01*
X108458941Y-146227787D01*
X108445189Y-146323965D01*
X108425700Y-146401636D01*
X108399235Y-146466756D01*
X108364555Y-146525279D01*
X108320421Y-146583160D01*
X108304884Y-146601603D01*
X108212715Y-146684431D01*
X108091600Y-146757818D01*
X107954768Y-146815975D01*
X107815447Y-146853114D01*
X107705637Y-146863833D01*
X107636000Y-146863833D01*
X107636000Y-147061388D01*
X107634483Y-147149147D01*
X107630413Y-147220376D01*
X107624514Y-147264837D01*
X107620966Y-147273979D01*
X107593038Y-147281239D01*
X107537036Y-147284021D01*
X107488674Y-147282798D01*
X107371417Y-147276583D01*
X107359369Y-146869489D01*
X107244122Y-146855944D01*
X107058381Y-146816131D01*
X106895814Y-146744222D01*
X106759640Y-146642312D01*
X106653079Y-146512498D01*
X106616483Y-146447242D01*
X106545917Y-146303997D01*
X106539624Y-145771844D01*
X106533331Y-145239692D01*
X106597832Y-145226791D01*
X106668298Y-145221444D01*
X106725834Y-145226591D01*
X106789334Y-145239291D01*
X106789334Y-145676698D01*
X106790975Y-145867374D01*
X106796510Y-146021502D01*
X106806860Y-146144763D01*
X106822945Y-146242837D01*
X106845685Y-146321406D01*
X106876000Y-146386150D01*
X106913026Y-146440500D01*
X106997920Y-146519099D01*
X107110141Y-146581059D01*
X107235716Y-146619033D01*
X107259999Y-146622940D01*
X107360248Y-146636673D01*
X107365833Y-145940628D01*
X107371417Y-145244583D01*
X107445500Y-145226725D01*
X107531028Y-145220762D01*
X107577792Y-145231493D01*
X107636000Y-145254118D01*
X107636000Y-146631000D01*
X107685075Y-146631000D01*
X107774817Y-146618284D01*
X107877217Y-146585056D01*
X107973089Y-146538696D01*
X108031413Y-146497799D01*
X108079143Y-146452929D01*
X108116795Y-146407945D01*
X108145700Y-146357128D01*
X108167190Y-146294757D01*
X108182596Y-146215112D01*
X108193249Y-146112472D01*
X108200480Y-145981117D01*
X108205621Y-145815327D01*
X108207305Y-145742000D01*
X108218084Y-145244583D01*
X108292167Y-145226725D01*
X108381444Y-145221270D01*
X108426379Y-145232223D01*
X108486508Y-145255579D01*
X109646823Y-145255579D01*
X109646834Y-145255166D01*
X109645088Y-145201792D01*
X109635170Y-145165951D01*
X109610055Y-145144156D01*
X109562721Y-145132919D01*
X109486145Y-145128753D01*
X109391103Y-145128166D01*
X109202334Y-145128166D01*
X109202334Y-145026489D01*
X109182385Y-144896014D01*
X109126658Y-144777107D01*
X109041334Y-144675711D01*
X108932593Y-144597767D01*
X108806614Y-144549218D01*
X108691673Y-144535500D01*
X108609667Y-144535500D01*
X108609667Y-144326097D01*
X108608520Y-144223728D01*
X108602670Y-144156377D01*
X108588500Y-144116742D01*
X108562396Y-144097522D01*
X108520741Y-144091416D01*
X108493251Y-144091000D01*
X108442559Y-144093315D01*
X108409208Y-144105130D01*
X108389581Y-144133745D01*
X108380064Y-144186462D01*
X108377040Y-144270582D01*
X108376834Y-144326097D01*
X108376834Y-144535500D01*
X108122834Y-144535500D01*
X108122834Y-144337008D01*
X108120639Y-144229777D01*
X108111529Y-144158282D01*
X108091720Y-144116040D01*
X108057424Y-144096570D01*
X108004856Y-144093389D01*
X107981436Y-144094925D01*
X107900584Y-144101583D01*
X107888520Y-144535499D01*
X107751677Y-144535499D01*
X107614834Y-144535500D01*
X107614834Y-144326097D01*
X107613687Y-144223728D01*
X107607837Y-144156377D01*
X107593667Y-144116742D01*
X107567562Y-144097522D01*
X107525908Y-144091416D01*
X107498417Y-144091000D01*
X107447726Y-144093315D01*
X107414374Y-144105130D01*
X107394748Y-144133745D01*
X107385231Y-144186462D01*
X107382207Y-144270582D01*
X107382000Y-144326097D01*
X107382000Y-144535500D01*
X107128000Y-144535500D01*
X107128000Y-144337008D01*
X107125805Y-144229777D01*
X107116696Y-144158282D01*
X107096887Y-144116040D01*
X107062591Y-144096570D01*
X107010022Y-144093389D01*
X106986603Y-144094925D01*
X106905750Y-144101583D01*
X106899718Y-144318541D01*
X106893686Y-144535500D01*
X106620000Y-144535500D01*
X106620000Y-144326097D01*
X106618919Y-144223784D01*
X106613091Y-144156481D01*
X106598644Y-144116871D01*
X106571703Y-144097640D01*
X106528395Y-144091473D01*
X106495503Y-144091000D01*
X106448533Y-144096136D01*
D10*
X126110000Y-62690000D02*
X126360000Y-62690000D01*
X126110000Y-56690000D02*
X126110000Y-62690000D01*
X126110000Y-56690000D02*
X126360000Y-56690000D01*
X129610000Y-56690000D02*
X129360000Y-56690000D01*
X129610000Y-62690000D02*
X129360000Y-62690000D01*
X129610000Y-56690000D02*
X129610000Y-62690000D01*
D11*
G36*
X93465666Y-56395833D02*
G01*
X122972000Y-56395833D01*
X122972000Y-55506833D01*
X93465666Y-55506833D01*
X93465666Y-56395833D01*
G37*
X93465666Y-56395833D02*
X122972000Y-56395833D01*
X122972000Y-55506833D01*
X93465666Y-55506833D01*
X93465666Y-56395833D01*
G36*
X93529166Y-57454167D02*
G01*
X93973666Y-57454167D01*
X93973666Y-60883167D01*
X94841500Y-60883167D01*
X94841500Y-57454167D01*
X95286000Y-57454167D01*
X95286000Y-56776833D01*
X93529166Y-56776833D01*
X93529166Y-57454167D01*
G37*
X93529166Y-57454167D02*
X93973666Y-57454167D01*
X93973666Y-60883167D01*
X94841500Y-60883167D01*
X94841500Y-57454167D01*
X95286000Y-57454167D01*
X95286000Y-56776833D01*
X93529166Y-56776833D01*
X93529166Y-57454167D01*
G36*
X95540000Y-60883167D02*
G01*
X96407833Y-60883167D01*
X96407833Y-56776833D01*
X95540000Y-56776833D01*
X95540000Y-60883167D01*
G37*
X95540000Y-60883167D02*
X96407833Y-60883167D01*
X96407833Y-56776833D01*
X95540000Y-56776833D01*
X95540000Y-60883167D01*
G36*
X97254500Y-60227000D02*
G01*
X96725333Y-60227000D01*
X96725333Y-60883167D01*
X98122333Y-60883167D01*
X98122333Y-56776833D01*
X97254500Y-56776833D01*
X97254500Y-60227000D01*
G37*
X97254500Y-60227000D02*
X96725333Y-60227000D01*
X96725333Y-60883167D01*
X98122333Y-60883167D01*
X98122333Y-56776833D01*
X97254500Y-56776833D01*
X97254500Y-60227000D01*
G36*
X99725708Y-56782619D02*
G01*
X99507095Y-56786130D01*
X99327080Y-56790226D01*
X99181931Y-56795086D01*
X99067917Y-56800889D01*
X98981304Y-56807817D01*
X98918359Y-56816050D01*
X98884333Y-56823216D01*
X98758560Y-56862898D01*
X98666703Y-56910252D01*
X98600347Y-56972711D01*
X98551074Y-57057709D01*
X98518493Y-57146320D01*
X98506736Y-57185192D01*
X98497125Y-57222848D01*
X98489445Y-57263872D01*
X98483480Y-57312846D01*
X98479012Y-57374353D01*
X98475828Y-57452976D01*
X98473710Y-57553297D01*
X98472444Y-57679899D01*
X98471812Y-57837366D01*
X98471600Y-58030279D01*
X98471583Y-58142083D01*
X98471667Y-58354545D01*
X98472060Y-58529257D01*
X98472981Y-58670801D01*
X98474644Y-58783761D01*
X98477265Y-58872718D01*
X98481060Y-58942256D01*
X98486246Y-58996957D01*
X98493037Y-59041404D01*
X98501650Y-59080180D01*
X98512301Y-59117868D01*
X98518493Y-59137846D01*
X98556509Y-59235426D01*
X98605810Y-59313895D01*
X98671084Y-59375427D01*
X98757017Y-59422199D01*
X98868295Y-59456385D01*
X99009606Y-59480161D01*
X99185635Y-59495702D01*
X99302375Y-59501670D01*
X99582833Y-59513337D01*
X99582833Y-60883167D01*
X100450666Y-60883167D01*
X100450666Y-57433000D01*
X99582833Y-57433000D01*
X99582833Y-58851167D01*
X99502212Y-58851167D01*
X99437566Y-58843380D01*
X99385339Y-58824315D01*
X99380504Y-58821114D01*
X99368832Y-58810698D01*
X99359604Y-58795351D01*
X99352535Y-58770412D01*
X99347338Y-58731227D01*
X99343727Y-58673136D01*
X99341415Y-58591483D01*
X99340117Y-58481610D01*
X99339546Y-58338859D01*
X99339417Y-58158574D01*
X99339416Y-58152485D01*
X99339416Y-57513910D01*
X99389386Y-57473455D01*
X99446513Y-57444631D01*
X99511095Y-57433000D01*
X99582833Y-57433000D01*
X100450666Y-57433000D01*
X100450666Y-56772677D01*
X99725708Y-56782619D01*
G37*
X99725708Y-56782619D02*
X99507095Y-56786130D01*
X99327080Y-56790226D01*
X99181931Y-56795086D01*
X99067917Y-56800889D01*
X98981304Y-56807817D01*
X98918359Y-56816050D01*
X98884333Y-56823216D01*
X98758560Y-56862898D01*
X98666703Y-56910252D01*
X98600347Y-56972711D01*
X98551074Y-57057709D01*
X98518493Y-57146320D01*
X98506736Y-57185192D01*
X98497125Y-57222848D01*
X98489445Y-57263872D01*
X98483480Y-57312846D01*
X98479012Y-57374353D01*
X98475828Y-57452976D01*
X98473710Y-57553297D01*
X98472444Y-57679899D01*
X98471812Y-57837366D01*
X98471600Y-58030279D01*
X98471583Y-58142083D01*
X98471667Y-58354545D01*
X98472060Y-58529257D01*
X98472981Y-58670801D01*
X98474644Y-58783761D01*
X98477265Y-58872718D01*
X98481060Y-58942256D01*
X98486246Y-58996957D01*
X98493037Y-59041404D01*
X98501650Y-59080180D01*
X98512301Y-59117868D01*
X98518493Y-59137846D01*
X98556509Y-59235426D01*
X98605810Y-59313895D01*
X98671084Y-59375427D01*
X98757017Y-59422199D01*
X98868295Y-59456385D01*
X99009606Y-59480161D01*
X99185635Y-59495702D01*
X99302375Y-59501670D01*
X99582833Y-59513337D01*
X99582833Y-60883167D01*
X100450666Y-60883167D01*
X100450666Y-57433000D01*
X99582833Y-57433000D01*
X99582833Y-58851167D01*
X99502212Y-58851167D01*
X99437566Y-58843380D01*
X99385339Y-58824315D01*
X99380504Y-58821114D01*
X99368832Y-58810698D01*
X99359604Y-58795351D01*
X99352535Y-58770412D01*
X99347338Y-58731227D01*
X99343727Y-58673136D01*
X99341415Y-58591483D01*
X99340117Y-58481610D01*
X99339546Y-58338859D01*
X99339417Y-58158574D01*
X99339416Y-58152485D01*
X99339416Y-57513910D01*
X99389386Y-57473455D01*
X99446513Y-57444631D01*
X99511095Y-57433000D01*
X99582833Y-57433000D01*
X100450666Y-57433000D01*
X100450666Y-56772677D01*
X99725708Y-56782619D01*
G36*
X104451166Y-59105167D02*
G01*
X104197166Y-59105167D01*
X104197166Y-59761333D01*
X104451166Y-59761333D01*
X104451166Y-60883167D01*
X105319000Y-60883167D01*
X105319000Y-59761333D01*
X106356166Y-59761333D01*
X106356166Y-59122144D01*
X106344389Y-59078708D01*
X105572852Y-59078708D01*
X105556391Y-59094622D01*
X105504419Y-59103170D01*
X105435416Y-59105167D01*
X105297833Y-59105167D01*
X105299504Y-58454292D01*
X105300180Y-58294376D01*
X105301301Y-58150058D01*
X105302788Y-58026229D01*
X105304564Y-57927779D01*
X105306548Y-57859601D01*
X105308661Y-57826584D01*
X105309669Y-57824583D01*
X105316664Y-57851637D01*
X105330772Y-57913632D01*
X105350654Y-58004194D01*
X105374974Y-58116949D01*
X105402394Y-58245525D01*
X105431576Y-58383548D01*
X105461183Y-58524645D01*
X105489877Y-58662442D01*
X105516322Y-58790566D01*
X105539179Y-58902643D01*
X105557111Y-58992301D01*
X105568780Y-59053166D01*
X105572852Y-59078708D01*
X106344389Y-59078708D01*
X106048258Y-57986530D01*
X105990609Y-57773977D01*
X105936083Y-57573058D01*
X105885721Y-57387602D01*
X105840564Y-57221439D01*
X105801654Y-57078400D01*
X105770032Y-56962314D01*
X105746741Y-56877011D01*
X105732822Y-56826321D01*
X105729332Y-56813875D01*
X105723532Y-56803295D01*
X105710136Y-56794935D01*
X105684641Y-56788536D01*
X105642544Y-56783840D01*
X105579342Y-56780588D01*
X105490533Y-56778520D01*
X105371613Y-56777379D01*
X105218079Y-56776906D01*
X105084740Y-56776833D01*
X104451166Y-56776833D01*
X104451166Y-59105167D01*
G37*
X104451166Y-59105167D02*
X104197166Y-59105167D01*
X104197166Y-59761333D01*
X104451166Y-59761333D01*
X104451166Y-60883167D01*
X105319000Y-60883167D01*
X105319000Y-59761333D01*
X106356166Y-59761333D01*
X106356166Y-59122144D01*
X106344389Y-59078708D01*
X105572852Y-59078708D01*
X105556391Y-59094622D01*
X105504419Y-59103170D01*
X105435416Y-59105167D01*
X105297833Y-59105167D01*
X105299504Y-58454292D01*
X105300180Y-58294376D01*
X105301301Y-58150058D01*
X105302788Y-58026229D01*
X105304564Y-57927779D01*
X105306548Y-57859601D01*
X105308661Y-57826584D01*
X105309669Y-57824583D01*
X105316664Y-57851637D01*
X105330772Y-57913632D01*
X105350654Y-58004194D01*
X105374974Y-58116949D01*
X105402394Y-58245525D01*
X105431576Y-58383548D01*
X105461183Y-58524645D01*
X105489877Y-58662442D01*
X105516322Y-58790566D01*
X105539179Y-58902643D01*
X105557111Y-58992301D01*
X105568780Y-59053166D01*
X105572852Y-59078708D01*
X106344389Y-59078708D01*
X106048258Y-57986530D01*
X105990609Y-57773977D01*
X105936083Y-57573058D01*
X105885721Y-57387602D01*
X105840564Y-57221439D01*
X105801654Y-57078400D01*
X105770032Y-56962314D01*
X105746741Y-56877011D01*
X105732822Y-56826321D01*
X105729332Y-56813875D01*
X105723532Y-56803295D01*
X105710136Y-56794935D01*
X105684641Y-56788536D01*
X105642544Y-56783840D01*
X105579342Y-56780588D01*
X105490533Y-56778520D01*
X105371613Y-56777379D01*
X105218079Y-56776906D01*
X105084740Y-56776833D01*
X104451166Y-56776833D01*
X104451166Y-59105167D01*
G36*
X112412773Y-56877375D02*
G01*
X112403997Y-56919128D01*
X112387730Y-56997525D01*
X112364969Y-57107736D01*
X112336706Y-57244930D01*
X112303937Y-57404277D01*
X112267656Y-57580947D01*
X112228858Y-57770109D01*
X112204684Y-57888083D01*
X112018250Y-58798250D01*
X112012753Y-57787542D01*
X112007256Y-56776833D01*
X111245666Y-56776833D01*
X111245666Y-60884081D01*
X111652508Y-60878332D01*
X112059349Y-60872583D01*
X112263737Y-59927897D01*
X112305936Y-59733366D01*
X112345693Y-59551087D01*
X112382062Y-59385330D01*
X112414094Y-59240363D01*
X112440844Y-59120457D01*
X112461364Y-59029881D01*
X112474709Y-58972906D01*
X112479641Y-58954230D01*
X112482010Y-58968698D01*
X112484285Y-59021495D01*
X112486410Y-59108617D01*
X112488331Y-59226061D01*
X112489991Y-59369822D01*
X112491335Y-59535896D01*
X112492307Y-59720280D01*
X112492829Y-59904208D01*
X112494500Y-60883167D01*
X113235333Y-60883167D01*
X113235333Y-56776833D01*
X112434428Y-56776833D01*
X112412773Y-56877375D01*
G37*
X112412773Y-56877375D02*
X112403997Y-56919128D01*
X112387730Y-56997525D01*
X112364969Y-57107736D01*
X112336706Y-57244930D01*
X112303937Y-57404277D01*
X112267656Y-57580947D01*
X112228858Y-57770109D01*
X112204684Y-57888083D01*
X112018250Y-58798250D01*
X112012753Y-57787542D01*
X112007256Y-56776833D01*
X111245666Y-56776833D01*
X111245666Y-60884081D01*
X111652508Y-60878332D01*
X112059349Y-60872583D01*
X112263737Y-59927897D01*
X112305936Y-59733366D01*
X112345693Y-59551087D01*
X112382062Y-59385330D01*
X112414094Y-59240363D01*
X112440844Y-59120457D01*
X112461364Y-59029881D01*
X112474709Y-58972906D01*
X112479641Y-58954230D01*
X112482010Y-58968698D01*
X112484285Y-59021495D01*
X112486410Y-59108617D01*
X112488331Y-59226061D01*
X112489991Y-59369822D01*
X112491335Y-59535896D01*
X112492307Y-59720280D01*
X112492829Y-59904208D01*
X112494500Y-60883167D01*
X113235333Y-60883167D01*
X113235333Y-56776833D01*
X112434428Y-56776833D01*
X112412773Y-56877375D01*
G36*
X115923500Y-60883167D02*
G01*
X116791333Y-60883167D01*
X116791333Y-56776833D01*
X115923500Y-56776833D01*
X115923500Y-60883167D01*
G37*
X115923500Y-60883167D02*
X116791333Y-60883167D01*
X116791333Y-56776833D01*
X115923500Y-56776833D01*
X115923500Y-60883167D01*
G36*
X118200642Y-56845625D02*
G01*
X118197435Y-56877417D01*
X118191626Y-56946784D01*
X118183551Y-57049067D01*
X118173546Y-57179610D01*
X118161946Y-57333755D01*
X118149088Y-57506844D01*
X118135306Y-57694222D01*
X118120937Y-57891229D01*
X118106317Y-58093210D01*
X118091780Y-58295506D01*
X118077664Y-58493460D01*
X118064303Y-58682416D01*
X118052034Y-58857716D01*
X118041192Y-59014702D01*
X118032113Y-59148717D01*
X118025133Y-59255105D01*
X118020587Y-59329207D01*
X118018811Y-59366366D01*
X118018800Y-59367986D01*
X118014546Y-59396425D01*
X118008363Y-59397918D01*
X118005402Y-59376100D01*
X117999644Y-59316492D01*
X117991434Y-59223521D01*
X117981115Y-59101612D01*
X117969032Y-58955192D01*
X117955529Y-58788689D01*
X117940951Y-58606528D01*
X117925642Y-58413135D01*
X117909947Y-58212938D01*
X117894209Y-58010363D01*
X117878774Y-57809836D01*
X117863985Y-57615784D01*
X117850187Y-57432633D01*
X117837724Y-57264810D01*
X117826941Y-57116742D01*
X117818182Y-56992854D01*
X117811791Y-56897573D01*
X117808112Y-56835327D01*
X117807336Y-56813875D01*
X117804361Y-56801129D01*
X117791805Y-56791679D01*
X117764218Y-56785039D01*
X117716153Y-56780721D01*
X117642160Y-56778239D01*
X117536790Y-56777105D01*
X117394594Y-56776833D01*
X116978470Y-56776833D01*
X116990357Y-56835041D01*
X116994782Y-56864136D01*
X117004272Y-56932174D01*
X117018423Y-57036121D01*
X117036832Y-57172942D01*
X117059096Y-57339603D01*
X117084812Y-57533069D01*
X117113576Y-57750304D01*
X117144985Y-57988275D01*
X117178635Y-58243946D01*
X117214124Y-58514283D01*
X117251049Y-58796250D01*
X117256846Y-58840583D01*
X117293922Y-59123794D01*
X117329604Y-59395643D01*
X117363492Y-59653119D01*
X117395184Y-59893208D01*
X117424279Y-60112896D01*
X117450378Y-60309170D01*
X117473078Y-60479017D01*
X117491980Y-60619423D01*
X117506682Y-60727376D01*
X117516783Y-60799861D01*
X117521884Y-60833866D01*
X117522210Y-60835542D01*
X117532973Y-60883167D01*
X118481303Y-60883167D01*
X118493119Y-60824958D01*
X118497788Y-60794514D01*
X118507329Y-60726043D01*
X118521278Y-60623113D01*
X118539173Y-60489289D01*
X118560552Y-60328136D01*
X118584950Y-60143222D01*
X118611906Y-59938112D01*
X118640956Y-59716371D01*
X118671638Y-59481566D01*
X118703488Y-59237263D01*
X118736045Y-58987028D01*
X118768845Y-58734426D01*
X118801425Y-58483024D01*
X118833323Y-58236388D01*
X118864075Y-57998083D01*
X118893219Y-57771675D01*
X118920292Y-57560731D01*
X118944831Y-57368816D01*
X118966374Y-57199496D01*
X118984457Y-57056338D01*
X118998617Y-56942906D01*
X119008393Y-56862768D01*
X119013320Y-56819489D01*
X119013833Y-56813075D01*
X119010553Y-56800413D01*
X118997036Y-56791076D01*
X118967766Y-56784567D01*
X118917227Y-56780387D01*
X118839905Y-56778038D01*
X118730282Y-56777022D01*
X118612626Y-56776833D01*
X118211418Y-56776833D01*
X118200642Y-56845625D01*
G37*
X118200642Y-56845625D02*
X118197435Y-56877417D01*
X118191626Y-56946784D01*
X118183551Y-57049067D01*
X118173546Y-57179610D01*
X118161946Y-57333755D01*
X118149088Y-57506844D01*
X118135306Y-57694222D01*
X118120937Y-57891229D01*
X118106317Y-58093210D01*
X118091780Y-58295506D01*
X118077664Y-58493460D01*
X118064303Y-58682416D01*
X118052034Y-58857716D01*
X118041192Y-59014702D01*
X118032113Y-59148717D01*
X118025133Y-59255105D01*
X118020587Y-59329207D01*
X118018811Y-59366366D01*
X118018800Y-59367986D01*
X118014546Y-59396425D01*
X118008363Y-59397918D01*
X118005402Y-59376100D01*
X117999644Y-59316492D01*
X117991434Y-59223521D01*
X117981115Y-59101612D01*
X117969032Y-58955192D01*
X117955529Y-58788689D01*
X117940951Y-58606528D01*
X117925642Y-58413135D01*
X117909947Y-58212938D01*
X117894209Y-58010363D01*
X117878774Y-57809836D01*
X117863985Y-57615784D01*
X117850187Y-57432633D01*
X117837724Y-57264810D01*
X117826941Y-57116742D01*
X117818182Y-56992854D01*
X117811791Y-56897573D01*
X117808112Y-56835327D01*
X117807336Y-56813875D01*
X117804361Y-56801129D01*
X117791805Y-56791679D01*
X117764218Y-56785039D01*
X117716153Y-56780721D01*
X117642160Y-56778239D01*
X117536790Y-56777105D01*
X117394594Y-56776833D01*
X116978470Y-56776833D01*
X116990357Y-56835041D01*
X116994782Y-56864136D01*
X117004272Y-56932174D01*
X117018423Y-57036121D01*
X117036832Y-57172942D01*
X117059096Y-57339603D01*
X117084812Y-57533069D01*
X117113576Y-57750304D01*
X117144985Y-57988275D01*
X117178635Y-58243946D01*
X117214124Y-58514283D01*
X117251049Y-58796250D01*
X117256846Y-58840583D01*
X117293922Y-59123794D01*
X117329604Y-59395643D01*
X117363492Y-59653119D01*
X117395184Y-59893208D01*
X117424279Y-60112896D01*
X117450378Y-60309170D01*
X117473078Y-60479017D01*
X117491980Y-60619423D01*
X117506682Y-60727376D01*
X117516783Y-60799861D01*
X117521884Y-60833866D01*
X117522210Y-60835542D01*
X117532973Y-60883167D01*
X118481303Y-60883167D01*
X118493119Y-60824958D01*
X118497788Y-60794514D01*
X118507329Y-60726043D01*
X118521278Y-60623113D01*
X118539173Y-60489289D01*
X118560552Y-60328136D01*
X118584950Y-60143222D01*
X118611906Y-59938112D01*
X118640956Y-59716371D01*
X118671638Y-59481566D01*
X118703488Y-59237263D01*
X118736045Y-58987028D01*
X118768845Y-58734426D01*
X118801425Y-58483024D01*
X118833323Y-58236388D01*
X118864075Y-57998083D01*
X118893219Y-57771675D01*
X118920292Y-57560731D01*
X118944831Y-57368816D01*
X118966374Y-57199496D01*
X118984457Y-57056338D01*
X118998617Y-56942906D01*
X119008393Y-56862768D01*
X119013320Y-56819489D01*
X119013833Y-56813075D01*
X119010553Y-56800413D01*
X118997036Y-56791076D01*
X118967766Y-56784567D01*
X118917227Y-56780387D01*
X118839905Y-56778038D01*
X118730282Y-56777022D01*
X118612626Y-56776833D01*
X118211418Y-56776833D01*
X118200642Y-56845625D01*
G36*
X119183166Y-57431697D02*
G01*
X119701750Y-57443583D01*
X119701750Y-58290250D01*
X119183166Y-58302136D01*
X119183166Y-58955697D01*
X119701750Y-58967583D01*
X119701750Y-60216417D01*
X119183166Y-60228303D01*
X119183166Y-60883167D01*
X120559000Y-60883167D01*
X120559000Y-56776833D01*
X119183166Y-56776833D01*
X119183166Y-57431697D01*
G37*
X119183166Y-57431697D02*
X119701750Y-57443583D01*
X119701750Y-58290250D01*
X119183166Y-58302136D01*
X119183166Y-58955697D01*
X119701750Y-58967583D01*
X119701750Y-60216417D01*
X119183166Y-60228303D01*
X119183166Y-60883167D01*
X120559000Y-60883167D01*
X120559000Y-56776833D01*
X119183166Y-56776833D01*
X119183166Y-57431697D01*
G36*
X122289375Y-56777487D02*
G01*
X122027658Y-56779137D01*
X121804732Y-56784130D01*
X121617125Y-56793425D01*
X121461361Y-56807980D01*
X121333968Y-56828755D01*
X121231469Y-56856706D01*
X121150393Y-56892794D01*
X121087264Y-56937977D01*
X121038608Y-56993212D01*
X121000952Y-57059460D01*
X120970820Y-57137678D01*
X120969533Y-57141660D01*
X120957050Y-57189673D01*
X120947115Y-57250994D01*
X120939299Y-57331381D01*
X120933175Y-57436591D01*
X120928315Y-57572383D01*
X120924291Y-57744512D01*
X120924138Y-57752421D01*
X120921402Y-57981081D01*
X120923549Y-58171880D01*
X120931731Y-58329128D01*
X120947098Y-58457132D01*
X120970804Y-58560201D01*
X121003998Y-58642644D01*
X121047833Y-58708768D01*
X121103461Y-58762883D01*
X121172033Y-58809296D01*
X121212573Y-58831499D01*
X121305230Y-58879420D01*
X121212573Y-58926941D01*
X121108617Y-58990746D01*
X121034349Y-59064433D01*
X120977211Y-59160642D01*
X120974397Y-59166664D01*
X120962880Y-59193242D01*
X120953460Y-59221251D01*
X120945881Y-59255141D01*
X120939890Y-59299361D01*
X120935235Y-59358363D01*
X120931662Y-59436596D01*
X120928917Y-59538511D01*
X120926747Y-59668559D01*
X120924898Y-59831188D01*
X120923118Y-60030851D01*
X120922765Y-60073542D01*
X120916114Y-60883167D01*
X121785159Y-60883167D01*
X121791204Y-60111317D01*
X121792815Y-59902051D01*
X121794551Y-59731130D01*
X121797170Y-59594571D01*
X121801430Y-59488390D01*
X121808086Y-59408604D01*
X121817897Y-59351229D01*
X121831619Y-59312282D01*
X121850009Y-59287780D01*
X121873824Y-59273739D01*
X121903822Y-59266176D01*
X121940759Y-59261107D01*
X121953088Y-59259506D01*
X122040666Y-59247759D01*
X122040666Y-60883167D01*
X122908500Y-60883167D01*
X122908500Y-58491333D01*
X122040666Y-58491333D01*
X121945904Y-58491333D01*
X121880296Y-58486437D01*
X121840378Y-58467516D01*
X121817701Y-58440294D01*
X121806352Y-58417260D01*
X121798086Y-58383971D01*
X121792590Y-58334649D01*
X121789549Y-58263519D01*
X121788650Y-58164804D01*
X121789579Y-58032726D01*
X121790754Y-57943890D01*
X121794399Y-57769167D01*
X121799671Y-57635708D01*
X121806639Y-57542471D01*
X121815372Y-57488415D01*
X121821867Y-57473953D01*
X121856777Y-57456809D01*
X121915899Y-57442402D01*
X121943576Y-57438438D01*
X122040666Y-57427494D01*
X122040666Y-58491333D01*
X122908500Y-58491333D01*
X122908500Y-56776833D01*
X122289375Y-56777487D01*
G37*
X122289375Y-56777487D02*
X122027658Y-56779137D01*
X121804732Y-56784130D01*
X121617125Y-56793425D01*
X121461361Y-56807980D01*
X121333968Y-56828755D01*
X121231469Y-56856706D01*
X121150393Y-56892794D01*
X121087264Y-56937977D01*
X121038608Y-56993212D01*
X121000952Y-57059460D01*
X120970820Y-57137678D01*
X120969533Y-57141660D01*
X120957050Y-57189673D01*
X120947115Y-57250994D01*
X120939299Y-57331381D01*
X120933175Y-57436591D01*
X120928315Y-57572383D01*
X120924291Y-57744512D01*
X120924138Y-57752421D01*
X120921402Y-57981081D01*
X120923549Y-58171880D01*
X120931731Y-58329128D01*
X120947098Y-58457132D01*
X120970804Y-58560201D01*
X121003998Y-58642644D01*
X121047833Y-58708768D01*
X121103461Y-58762883D01*
X121172033Y-58809296D01*
X121212573Y-58831499D01*
X121305230Y-58879420D01*
X121212573Y-58926941D01*
X121108617Y-58990746D01*
X121034349Y-59064433D01*
X120977211Y-59160642D01*
X120974397Y-59166664D01*
X120962880Y-59193242D01*
X120953460Y-59221251D01*
X120945881Y-59255141D01*
X120939890Y-59299361D01*
X120935235Y-59358363D01*
X120931662Y-59436596D01*
X120928917Y-59538511D01*
X120926747Y-59668559D01*
X120924898Y-59831188D01*
X120923118Y-60030851D01*
X120922765Y-60073542D01*
X120916114Y-60883167D01*
X121785159Y-60883167D01*
X121791204Y-60111317D01*
X121792815Y-59902051D01*
X121794551Y-59731130D01*
X121797170Y-59594571D01*
X121801430Y-59488390D01*
X121808086Y-59408604D01*
X121817897Y-59351229D01*
X121831619Y-59312282D01*
X121850009Y-59287780D01*
X121873824Y-59273739D01*
X121903822Y-59266176D01*
X121940759Y-59261107D01*
X121953088Y-59259506D01*
X122040666Y-59247759D01*
X122040666Y-60883167D01*
X122908500Y-60883167D01*
X122908500Y-58491333D01*
X122040666Y-58491333D01*
X121945904Y-58491333D01*
X121880296Y-58486437D01*
X121840378Y-58467516D01*
X121817701Y-58440294D01*
X121806352Y-58417260D01*
X121798086Y-58383971D01*
X121792590Y-58334649D01*
X121789549Y-58263519D01*
X121788650Y-58164804D01*
X121789579Y-58032726D01*
X121790754Y-57943890D01*
X121794399Y-57769167D01*
X121799671Y-57635708D01*
X121806639Y-57542471D01*
X121815372Y-57488415D01*
X121821867Y-57473953D01*
X121856777Y-57456809D01*
X121915899Y-57442402D01*
X121943576Y-57438438D01*
X122040666Y-57427494D01*
X122040666Y-58491333D01*
X122908500Y-58491333D01*
X122908500Y-56776833D01*
X122289375Y-56777487D01*
G36*
X101592032Y-56759471D02*
G01*
X101415343Y-56771350D01*
X101270192Y-56791997D01*
X101151507Y-56822109D01*
X101064500Y-56857197D01*
X100996446Y-56894780D01*
X100941542Y-56936892D01*
X100898421Y-56988298D01*
X100865714Y-57053760D01*
X100842054Y-57138041D01*
X100826070Y-57245904D01*
X100816397Y-57382111D01*
X100811665Y-57551425D01*
X100810500Y-57741397D01*
X100810500Y-58217043D01*
X101667750Y-58205583D01*
X101678333Y-57835937D01*
X101688916Y-57466292D01*
X101744686Y-57435030D01*
X101789331Y-57415563D01*
X101825551Y-57421993D01*
X101854454Y-57439149D01*
X101886297Y-57469306D01*
X101909046Y-57515439D01*
X101923593Y-57583158D01*
X101930832Y-57678076D01*
X101931659Y-57805803D01*
X101929204Y-57908331D01*
X101925435Y-58013505D01*
X101920640Y-58085476D01*
X101912704Y-58133358D01*
X101899509Y-58166268D01*
X101878940Y-58193320D01*
X101858107Y-58214554D01*
X101818736Y-58245043D01*
X101749371Y-58290383D01*
X101657605Y-58345949D01*
X101551030Y-58407111D01*
X101461852Y-58456078D01*
X101312142Y-58537701D01*
X101194999Y-58604873D01*
X101105032Y-58661879D01*
X101036847Y-58713008D01*
X100985051Y-58762545D01*
X100944252Y-58814775D01*
X100909057Y-58873987D01*
X100890614Y-58910107D01*
X100821083Y-59051327D01*
X100821083Y-59782038D01*
X100821401Y-59995907D01*
X100822757Y-60171907D01*
X100825757Y-60314503D01*
X100831007Y-60428156D01*
X100839112Y-60517331D01*
X100850676Y-60586489D01*
X100866307Y-60640094D01*
X100886608Y-60682610D01*
X100912185Y-60718498D01*
X100943645Y-60752223D01*
X100954051Y-60762327D01*
X100997294Y-60799971D01*
X101043126Y-60829596D01*
X101097175Y-60852206D01*
X101165071Y-60868804D01*
X101252442Y-60880395D01*
X101364918Y-60887982D01*
X101508128Y-60892570D01*
X101687702Y-60895163D01*
X101699500Y-60895274D01*
X101844113Y-60896199D01*
X101977724Y-60896271D01*
X102093452Y-60895550D01*
X102184415Y-60894094D01*
X102243732Y-60891961D01*
X102260416Y-60890515D01*
X102354757Y-60871550D01*
X102453592Y-60843592D01*
X102542144Y-60811461D01*
X102605635Y-60779979D01*
X102611627Y-60775937D01*
X102661565Y-60728156D01*
X102702805Y-60660233D01*
X102735926Y-60568917D01*
X102761507Y-60450958D01*
X102780127Y-60303107D01*
X102792365Y-60122112D01*
X102798800Y-59904725D01*
X102800166Y-59717468D01*
X102800166Y-59232167D01*
X101935293Y-59232167D01*
X101928521Y-59699737D01*
X101926199Y-59851920D01*
X101923803Y-59967430D01*
X101920703Y-60051924D01*
X101916266Y-60111059D01*
X101909861Y-60150491D01*
X101900856Y-60175877D01*
X101888619Y-60192875D01*
X101872518Y-60207140D01*
X101871780Y-60207737D01*
X101815754Y-60241883D01*
X101767422Y-60240052D01*
X101714292Y-60201272D01*
X101707890Y-60194981D01*
X101654704Y-60141795D01*
X101661227Y-59720215D01*
X101663808Y-59574625D01*
X101666848Y-59465128D01*
X101670986Y-59385486D01*
X101676858Y-59329458D01*
X101685103Y-59290806D01*
X101696358Y-59263289D01*
X101710083Y-59242227D01*
X101741548Y-59214516D01*
X101803988Y-59170978D01*
X101891004Y-59115671D01*
X101996198Y-59052649D01*
X102113170Y-58985970D01*
X102122833Y-58980606D01*
X102287939Y-58886830D01*
X102419239Y-58806217D01*
X102521573Y-58734652D01*
X102599783Y-58668020D01*
X102658708Y-58602207D01*
X102703190Y-58533097D01*
X102737444Y-58458184D01*
X102754794Y-58410054D01*
X102767843Y-58361886D01*
X102777395Y-58306200D01*
X102784257Y-58235517D01*
X102789231Y-58142357D01*
X102793124Y-58019240D01*
X102795472Y-57918843D01*
X102797612Y-57685306D01*
X102792751Y-57489265D01*
X102780464Y-57326395D01*
X102760320Y-57192372D01*
X102731892Y-57082872D01*
X102706201Y-57017109D01*
X102670139Y-56947320D01*
X102631958Y-56902688D01*
X102576605Y-56868060D01*
X102541678Y-56851522D01*
X102429061Y-56812064D01*
X102287474Y-56783379D01*
X102113292Y-56764996D01*
X101902892Y-56756442D01*
X101805333Y-56755666D01*
X101592032Y-56759471D01*
G37*
X101592032Y-56759471D02*
X101415343Y-56771350D01*
X101270192Y-56791997D01*
X101151507Y-56822109D01*
X101064500Y-56857197D01*
X100996446Y-56894780D01*
X100941542Y-56936892D01*
X100898421Y-56988298D01*
X100865714Y-57053760D01*
X100842054Y-57138041D01*
X100826070Y-57245904D01*
X100816397Y-57382111D01*
X100811665Y-57551425D01*
X100810500Y-57741397D01*
X100810500Y-58217043D01*
X101667750Y-58205583D01*
X101678333Y-57835937D01*
X101688916Y-57466292D01*
X101744686Y-57435030D01*
X101789331Y-57415563D01*
X101825551Y-57421993D01*
X101854454Y-57439149D01*
X101886297Y-57469306D01*
X101909046Y-57515439D01*
X101923593Y-57583158D01*
X101930832Y-57678076D01*
X101931659Y-57805803D01*
X101929204Y-57908331D01*
X101925435Y-58013505D01*
X101920640Y-58085476D01*
X101912704Y-58133358D01*
X101899509Y-58166268D01*
X101878940Y-58193320D01*
X101858107Y-58214554D01*
X101818736Y-58245043D01*
X101749371Y-58290383D01*
X101657605Y-58345949D01*
X101551030Y-58407111D01*
X101461852Y-58456078D01*
X101312142Y-58537701D01*
X101194999Y-58604873D01*
X101105032Y-58661879D01*
X101036847Y-58713008D01*
X100985051Y-58762545D01*
X100944252Y-58814775D01*
X100909057Y-58873987D01*
X100890614Y-58910107D01*
X100821083Y-59051327D01*
X100821083Y-59782038D01*
X100821401Y-59995907D01*
X100822757Y-60171907D01*
X100825757Y-60314503D01*
X100831007Y-60428156D01*
X100839112Y-60517331D01*
X100850676Y-60586489D01*
X100866307Y-60640094D01*
X100886608Y-60682610D01*
X100912185Y-60718498D01*
X100943645Y-60752223D01*
X100954051Y-60762327D01*
X100997294Y-60799971D01*
X101043126Y-60829596D01*
X101097175Y-60852206D01*
X101165071Y-60868804D01*
X101252442Y-60880395D01*
X101364918Y-60887982D01*
X101508128Y-60892570D01*
X101687702Y-60895163D01*
X101699500Y-60895274D01*
X101844113Y-60896199D01*
X101977724Y-60896271D01*
X102093452Y-60895550D01*
X102184415Y-60894094D01*
X102243732Y-60891961D01*
X102260416Y-60890515D01*
X102354757Y-60871550D01*
X102453592Y-60843592D01*
X102542144Y-60811461D01*
X102605635Y-60779979D01*
X102611627Y-60775937D01*
X102661565Y-60728156D01*
X102702805Y-60660233D01*
X102735926Y-60568917D01*
X102761507Y-60450958D01*
X102780127Y-60303107D01*
X102792365Y-60122112D01*
X102798800Y-59904725D01*
X102800166Y-59717468D01*
X102800166Y-59232167D01*
X101935293Y-59232167D01*
X101928521Y-59699737D01*
X101926199Y-59851920D01*
X101923803Y-59967430D01*
X101920703Y-60051924D01*
X101916266Y-60111059D01*
X101909861Y-60150491D01*
X101900856Y-60175877D01*
X101888619Y-60192875D01*
X101872518Y-60207140D01*
X101871780Y-60207737D01*
X101815754Y-60241883D01*
X101767422Y-60240052D01*
X101714292Y-60201272D01*
X101707890Y-60194981D01*
X101654704Y-60141795D01*
X101661227Y-59720215D01*
X101663808Y-59574625D01*
X101666848Y-59465128D01*
X101670986Y-59385486D01*
X101676858Y-59329458D01*
X101685103Y-59290806D01*
X101696358Y-59263289D01*
X101710083Y-59242227D01*
X101741548Y-59214516D01*
X101803988Y-59170978D01*
X101891004Y-59115671D01*
X101996198Y-59052649D01*
X102113170Y-58985970D01*
X102122833Y-58980606D01*
X102287939Y-58886830D01*
X102419239Y-58806217D01*
X102521573Y-58734652D01*
X102599783Y-58668020D01*
X102658708Y-58602207D01*
X102703190Y-58533097D01*
X102737444Y-58458184D01*
X102754794Y-58410054D01*
X102767843Y-58361886D01*
X102777395Y-58306200D01*
X102784257Y-58235517D01*
X102789231Y-58142357D01*
X102793124Y-58019240D01*
X102795472Y-57918843D01*
X102797612Y-57685306D01*
X102792751Y-57489265D01*
X102780464Y-57326395D01*
X102760320Y-57192372D01*
X102731892Y-57082872D01*
X102706201Y-57017109D01*
X102670139Y-56947320D01*
X102631958Y-56902688D01*
X102576605Y-56868060D01*
X102541678Y-56851522D01*
X102429061Y-56812064D01*
X102287474Y-56783379D01*
X102113292Y-56764996D01*
X101902892Y-56756442D01*
X101805333Y-56755666D01*
X101592032Y-56759471D01*
G36*
X107467416Y-56761656D02*
G01*
X107273428Y-56770537D01*
X107116368Y-56784604D01*
X106990987Y-56805393D01*
X106892038Y-56834444D01*
X106814273Y-56873293D01*
X106752443Y-56923478D01*
X106701656Y-56986012D01*
X106671543Y-57038301D01*
X106647880Y-57100293D01*
X106629701Y-57178005D01*
X106616038Y-57277457D01*
X106605923Y-57404666D01*
X106598390Y-57565649D01*
X106595766Y-57644667D01*
X106592266Y-57861605D01*
X106596410Y-58040993D01*
X106608607Y-58186989D01*
X106629264Y-58303752D01*
X106658791Y-58395443D01*
X106672276Y-58424294D01*
X106734765Y-58515212D01*
X106820121Y-58600766D01*
X106911034Y-58663714D01*
X106914254Y-58665371D01*
X106974924Y-58696180D01*
X106857220Y-58762608D01*
X106787474Y-58807278D01*
X106730641Y-58857861D01*
X106685467Y-58918942D01*
X106650701Y-58995104D01*
X106625091Y-59090932D01*
X106607384Y-59211008D01*
X106596328Y-59359918D01*
X106590672Y-59542244D01*
X106589160Y-59743927D01*
X106590781Y-59962745D01*
X106596161Y-60144299D01*
X106605826Y-60293533D01*
X106620301Y-60415393D01*
X106640111Y-60514824D01*
X106665783Y-60596770D01*
X106684368Y-60639916D01*
X106725492Y-60709432D01*
X106778191Y-60765305D01*
X106847112Y-60808981D01*
X106936902Y-60841908D01*
X107052210Y-60865536D01*
X107197683Y-60881310D01*
X107377968Y-60890679D01*
X107499166Y-60893728D01*
X107628163Y-60895530D01*
X107746436Y-60896184D01*
X107845898Y-60895723D01*
X107918464Y-60894179D01*
X107954250Y-60891870D01*
X108124485Y-60863472D01*
X108256514Y-60831103D01*
X108354390Y-60793293D01*
X108422167Y-60748568D01*
X108455580Y-60709761D01*
X108486333Y-60658379D01*
X108510860Y-60606178D01*
X108529964Y-60547539D01*
X108544447Y-60476840D01*
X108555111Y-60388461D01*
X108562758Y-60276780D01*
X108568191Y-60136177D01*
X108572211Y-59961031D01*
X108573555Y-59883042D01*
X108582727Y-59316833D01*
X107710833Y-59316833D01*
X107710833Y-59724873D01*
X107710008Y-59884026D01*
X107706701Y-60005786D01*
X107699669Y-60095072D01*
X107687667Y-60156808D01*
X107669449Y-60195914D01*
X107643772Y-60217312D01*
X107609390Y-60225923D01*
X107583833Y-60227000D01*
X107544725Y-60224099D01*
X107514533Y-60212201D01*
X107492118Y-60186512D01*
X107476341Y-60142238D01*
X107466063Y-60074585D01*
X107460145Y-59978759D01*
X107457449Y-59849967D01*
X107456833Y-59692444D01*
X107457568Y-59512830D01*
X107461321Y-59371070D01*
X107470414Y-59262691D01*
X107487167Y-59183217D01*
X107513902Y-59128175D01*
X107552941Y-59093092D01*
X107606604Y-59073493D01*
X107677214Y-59064905D01*
X107767091Y-59062854D01*
X107783525Y-59062833D01*
X107964833Y-59062833D01*
X107964833Y-58322000D01*
X107766095Y-58322000D01*
X107665540Y-58321352D01*
X107590586Y-58315784D01*
X107537348Y-58299855D01*
X107501940Y-58268126D01*
X107480478Y-58215159D01*
X107469077Y-58135513D01*
X107463852Y-58023750D01*
X107461290Y-57895252D01*
X107459768Y-57745524D01*
X107462120Y-57632739D01*
X107469688Y-57551581D01*
X107483814Y-57496734D01*
X107505841Y-57462885D01*
X107537111Y-57444716D01*
X107576991Y-57437102D01*
X107626342Y-57438265D01*
X107662249Y-57456280D01*
X107686681Y-57496296D01*
X107701608Y-57563459D01*
X107708998Y-57662919D01*
X107710833Y-57786960D01*
X107710833Y-58046833D01*
X108583609Y-58046833D01*
X108573276Y-57628792D01*
X108567201Y-57447455D01*
X108558186Y-57302485D01*
X108545108Y-57187954D01*
X108526841Y-57097934D01*
X108502260Y-57026497D01*
X108470241Y-56967715D01*
X108440271Y-56927894D01*
X108364855Y-56867640D01*
X108250951Y-56820648D01*
X108098178Y-56786853D01*
X107906158Y-56766190D01*
X107674509Y-56758594D01*
X107467416Y-56761656D01*
G37*
X107467416Y-56761656D02*
X107273428Y-56770537D01*
X107116368Y-56784604D01*
X106990987Y-56805393D01*
X106892038Y-56834444D01*
X106814273Y-56873293D01*
X106752443Y-56923478D01*
X106701656Y-56986012D01*
X106671543Y-57038301D01*
X106647880Y-57100293D01*
X106629701Y-57178005D01*
X106616038Y-57277457D01*
X106605923Y-57404666D01*
X106598390Y-57565649D01*
X106595766Y-57644667D01*
X106592266Y-57861605D01*
X106596410Y-58040993D01*
X106608607Y-58186989D01*
X106629264Y-58303752D01*
X106658791Y-58395443D01*
X106672276Y-58424294D01*
X106734765Y-58515212D01*
X106820121Y-58600766D01*
X106911034Y-58663714D01*
X106914254Y-58665371D01*
X106974924Y-58696180D01*
X106857220Y-58762608D01*
X106787474Y-58807278D01*
X106730641Y-58857861D01*
X106685467Y-58918942D01*
X106650701Y-58995104D01*
X106625091Y-59090932D01*
X106607384Y-59211008D01*
X106596328Y-59359918D01*
X106590672Y-59542244D01*
X106589160Y-59743927D01*
X106590781Y-59962745D01*
X106596161Y-60144299D01*
X106605826Y-60293533D01*
X106620301Y-60415393D01*
X106640111Y-60514824D01*
X106665783Y-60596770D01*
X106684368Y-60639916D01*
X106725492Y-60709432D01*
X106778191Y-60765305D01*
X106847112Y-60808981D01*
X106936902Y-60841908D01*
X107052210Y-60865536D01*
X107197683Y-60881310D01*
X107377968Y-60890679D01*
X107499166Y-60893728D01*
X107628163Y-60895530D01*
X107746436Y-60896184D01*
X107845898Y-60895723D01*
X107918464Y-60894179D01*
X107954250Y-60891870D01*
X108124485Y-60863472D01*
X108256514Y-60831103D01*
X108354390Y-60793293D01*
X108422167Y-60748568D01*
X108455580Y-60709761D01*
X108486333Y-60658379D01*
X108510860Y-60606178D01*
X108529964Y-60547539D01*
X108544447Y-60476840D01*
X108555111Y-60388461D01*
X108562758Y-60276780D01*
X108568191Y-60136177D01*
X108572211Y-59961031D01*
X108573555Y-59883042D01*
X108582727Y-59316833D01*
X107710833Y-59316833D01*
X107710833Y-59724873D01*
X107710008Y-59884026D01*
X107706701Y-60005786D01*
X107699669Y-60095072D01*
X107687667Y-60156808D01*
X107669449Y-60195914D01*
X107643772Y-60217312D01*
X107609390Y-60225923D01*
X107583833Y-60227000D01*
X107544725Y-60224099D01*
X107514533Y-60212201D01*
X107492118Y-60186512D01*
X107476341Y-60142238D01*
X107466063Y-60074585D01*
X107460145Y-59978759D01*
X107457449Y-59849967D01*
X107456833Y-59692444D01*
X107457568Y-59512830D01*
X107461321Y-59371070D01*
X107470414Y-59262691D01*
X107487167Y-59183217D01*
X107513902Y-59128175D01*
X107552941Y-59093092D01*
X107606604Y-59073493D01*
X107677214Y-59064905D01*
X107767091Y-59062854D01*
X107783525Y-59062833D01*
X107964833Y-59062833D01*
X107964833Y-58322000D01*
X107766095Y-58322000D01*
X107665540Y-58321352D01*
X107590586Y-58315784D01*
X107537348Y-58299855D01*
X107501940Y-58268126D01*
X107480478Y-58215159D01*
X107469077Y-58135513D01*
X107463852Y-58023750D01*
X107461290Y-57895252D01*
X107459768Y-57745524D01*
X107462120Y-57632739D01*
X107469688Y-57551581D01*
X107483814Y-57496734D01*
X107505841Y-57462885D01*
X107537111Y-57444716D01*
X107576991Y-57437102D01*
X107626342Y-57438265D01*
X107662249Y-57456280D01*
X107686681Y-57496296D01*
X107701608Y-57563459D01*
X107708998Y-57662919D01*
X107710833Y-57786960D01*
X107710833Y-58046833D01*
X108583609Y-58046833D01*
X108573276Y-57628792D01*
X108567201Y-57447455D01*
X108558186Y-57302485D01*
X108545108Y-57187954D01*
X108526841Y-57097934D01*
X108502260Y-57026497D01*
X108470241Y-56967715D01*
X108440271Y-56927894D01*
X108364855Y-56867640D01*
X108250951Y-56820648D01*
X108098178Y-56786853D01*
X107906158Y-56766190D01*
X107674509Y-56758594D01*
X107467416Y-56761656D01*
G36*
X109747092Y-56758930D02*
G01*
X109612048Y-56763583D01*
X109501417Y-56772699D01*
X109488833Y-56774294D01*
X109355123Y-56794327D01*
X109255061Y-56815448D01*
X109180004Y-56840657D01*
X109121309Y-56872958D01*
X109070333Y-56915352D01*
X109063552Y-56922032D01*
X109020310Y-56973296D01*
X108986055Y-57034335D01*
X108959869Y-57110261D01*
X108940839Y-57206186D01*
X108928049Y-57327222D01*
X108920585Y-57478480D01*
X108917530Y-57665071D01*
X108917333Y-57738803D01*
X108917333Y-58173833D01*
X109785166Y-58173833D01*
X109785166Y-57835167D01*
X109785562Y-57707001D01*
X109787261Y-57614259D01*
X109791030Y-57550037D01*
X109797637Y-57507429D01*
X109807849Y-57479529D01*
X109822433Y-57459431D01*
X109827500Y-57454167D01*
X109887715Y-57416639D01*
X109951174Y-57421319D01*
X109987496Y-57441875D01*
X109995806Y-57449098D01*
X110002913Y-57459780D01*
X110008912Y-57477059D01*
X110013896Y-57504071D01*
X110017959Y-57543952D01*
X110021195Y-57599839D01*
X110023698Y-57674869D01*
X110025562Y-57772178D01*
X110026881Y-57894902D01*
X110027748Y-58046180D01*
X110028257Y-58229146D01*
X110028503Y-58446938D01*
X110028579Y-58702692D01*
X110028583Y-58814451D01*
X110028610Y-59093507D01*
X110028514Y-59333215D01*
X110028030Y-59536561D01*
X110026893Y-59706529D01*
X110024839Y-59846105D01*
X110021602Y-59958275D01*
X110016917Y-60046023D01*
X110010520Y-60112335D01*
X110002145Y-60160197D01*
X109991528Y-60192593D01*
X109978404Y-60212509D01*
X109962507Y-60222930D01*
X109943573Y-60226841D01*
X109921337Y-60227228D01*
X109903225Y-60227000D01*
X109862847Y-60225133D01*
X109832899Y-60215872D01*
X109811827Y-60193729D01*
X109798077Y-60153211D01*
X109790094Y-60088831D01*
X109786325Y-59995099D01*
X109785215Y-59866524D01*
X109785166Y-59810017D01*
X109785166Y-59443833D01*
X109933333Y-59443833D01*
X109933333Y-58766500D01*
X108917333Y-58766500D01*
X108917333Y-60883167D01*
X109294292Y-60883167D01*
X109362422Y-60761458D01*
X109398404Y-60697996D01*
X109426065Y-60650714D01*
X109438970Y-60630487D01*
X109457262Y-60638895D01*
X109496160Y-60670143D01*
X109536902Y-60707648D01*
X109611965Y-60775284D01*
X109681972Y-60824436D01*
X109756195Y-60858161D01*
X109843907Y-60879518D01*
X109954381Y-60891565D01*
X110096891Y-60897359D01*
X110113250Y-60897713D01*
X110277936Y-60898167D01*
X110405393Y-60892153D01*
X110493508Y-60879783D01*
X110506115Y-60876587D01*
X110624052Y-60835053D01*
X110711495Y-60781458D01*
X110776326Y-60707625D01*
X110826430Y-60605376D01*
X110856922Y-60512649D01*
X110864360Y-60483609D01*
X110870795Y-60449368D01*
X110876322Y-60406650D01*
X110881040Y-60352185D01*
X110885046Y-60282699D01*
X110888437Y-60194920D01*
X110891310Y-60085576D01*
X110893762Y-59951392D01*
X110895892Y-59789098D01*
X110897797Y-59595420D01*
X110899573Y-59367085D01*
X110901318Y-59100822D01*
X110901932Y-58999333D01*
X110903592Y-58676873D01*
X110904396Y-58393776D01*
X110904211Y-58147078D01*
X110902905Y-57933815D01*
X110900343Y-57751022D01*
X110896394Y-57595736D01*
X110890922Y-57464992D01*
X110883796Y-57355826D01*
X110874882Y-57265274D01*
X110864046Y-57190371D01*
X110851157Y-57128154D01*
X110836079Y-57075659D01*
X110818681Y-57029921D01*
X110812842Y-57016751D01*
X110772156Y-56941045D01*
X110724958Y-56887920D01*
X110660349Y-56849129D01*
X110567429Y-56816424D01*
X110536583Y-56807707D01*
X110455105Y-56791966D01*
X110340884Y-56778864D01*
X110203446Y-56768706D01*
X110052318Y-56761795D01*
X109897024Y-56758435D01*
X109747092Y-56758930D01*
G37*
X109747092Y-56758930D02*
X109612048Y-56763583D01*
X109501417Y-56772699D01*
X109488833Y-56774294D01*
X109355123Y-56794327D01*
X109255061Y-56815448D01*
X109180004Y-56840657D01*
X109121309Y-56872958D01*
X109070333Y-56915352D01*
X109063552Y-56922032D01*
X109020310Y-56973296D01*
X108986055Y-57034335D01*
X108959869Y-57110261D01*
X108940839Y-57206186D01*
X108928049Y-57327222D01*
X108920585Y-57478480D01*
X108917530Y-57665071D01*
X108917333Y-57738803D01*
X108917333Y-58173833D01*
X109785166Y-58173833D01*
X109785166Y-57835167D01*
X109785562Y-57707001D01*
X109787261Y-57614259D01*
X109791030Y-57550037D01*
X109797637Y-57507429D01*
X109807849Y-57479529D01*
X109822433Y-57459431D01*
X109827500Y-57454167D01*
X109887715Y-57416639D01*
X109951174Y-57421319D01*
X109987496Y-57441875D01*
X109995806Y-57449098D01*
X110002913Y-57459780D01*
X110008912Y-57477059D01*
X110013896Y-57504071D01*
X110017959Y-57543952D01*
X110021195Y-57599839D01*
X110023698Y-57674869D01*
X110025562Y-57772178D01*
X110026881Y-57894902D01*
X110027748Y-58046180D01*
X110028257Y-58229146D01*
X110028503Y-58446938D01*
X110028579Y-58702692D01*
X110028583Y-58814451D01*
X110028610Y-59093507D01*
X110028514Y-59333215D01*
X110028030Y-59536561D01*
X110026893Y-59706529D01*
X110024839Y-59846105D01*
X110021602Y-59958275D01*
X110016917Y-60046023D01*
X110010520Y-60112335D01*
X110002145Y-60160197D01*
X109991528Y-60192593D01*
X109978404Y-60212509D01*
X109962507Y-60222930D01*
X109943573Y-60226841D01*
X109921337Y-60227228D01*
X109903225Y-60227000D01*
X109862847Y-60225133D01*
X109832899Y-60215872D01*
X109811827Y-60193729D01*
X109798077Y-60153211D01*
X109790094Y-60088831D01*
X109786325Y-59995099D01*
X109785215Y-59866524D01*
X109785166Y-59810017D01*
X109785166Y-59443833D01*
X109933333Y-59443833D01*
X109933333Y-58766500D01*
X108917333Y-58766500D01*
X108917333Y-60883167D01*
X109294292Y-60883167D01*
X109362422Y-60761458D01*
X109398404Y-60697996D01*
X109426065Y-60650714D01*
X109438970Y-60630487D01*
X109457262Y-60638895D01*
X109496160Y-60670143D01*
X109536902Y-60707648D01*
X109611965Y-60775284D01*
X109681972Y-60824436D01*
X109756195Y-60858161D01*
X109843907Y-60879518D01*
X109954381Y-60891565D01*
X110096891Y-60897359D01*
X110113250Y-60897713D01*
X110277936Y-60898167D01*
X110405393Y-60892153D01*
X110493508Y-60879783D01*
X110506115Y-60876587D01*
X110624052Y-60835053D01*
X110711495Y-60781458D01*
X110776326Y-60707625D01*
X110826430Y-60605376D01*
X110856922Y-60512649D01*
X110864360Y-60483609D01*
X110870795Y-60449368D01*
X110876322Y-60406650D01*
X110881040Y-60352185D01*
X110885046Y-60282699D01*
X110888437Y-60194920D01*
X110891310Y-60085576D01*
X110893762Y-59951392D01*
X110895892Y-59789098D01*
X110897797Y-59595420D01*
X110899573Y-59367085D01*
X110901318Y-59100822D01*
X110901932Y-58999333D01*
X110903592Y-58676873D01*
X110904396Y-58393776D01*
X110904211Y-58147078D01*
X110902905Y-57933815D01*
X110900343Y-57751022D01*
X110896394Y-57595736D01*
X110890922Y-57464992D01*
X110883796Y-57355826D01*
X110874882Y-57265274D01*
X110864046Y-57190371D01*
X110851157Y-57128154D01*
X110836079Y-57075659D01*
X110818681Y-57029921D01*
X110812842Y-57016751D01*
X110772156Y-56941045D01*
X110724958Y-56887920D01*
X110660349Y-56849129D01*
X110567429Y-56816424D01*
X110536583Y-56807707D01*
X110455105Y-56791966D01*
X110340884Y-56778864D01*
X110203446Y-56768706D01*
X110052318Y-56761795D01*
X109897024Y-56758435D01*
X109747092Y-56758930D01*
G36*
X114717000Y-58448004D02*
G01*
X114716818Y-58778985D01*
X114716255Y-59069525D01*
X114715284Y-59321516D01*
X114713877Y-59536847D01*
X114712007Y-59717410D01*
X114709647Y-59865096D01*
X114706770Y-59981796D01*
X114703348Y-60069400D01*
X114699355Y-60129800D01*
X114694763Y-60164887D01*
X114692204Y-60173595D01*
X114649065Y-60225210D01*
X114588714Y-60242258D01*
X114521804Y-60222042D01*
X114515762Y-60218262D01*
X114463000Y-60183691D01*
X114463000Y-56776833D01*
X113595166Y-56776833D01*
X113595326Y-58538958D01*
X113595451Y-58872022D01*
X113595834Y-59165522D01*
X113596586Y-59422226D01*
X113597819Y-59644904D01*
X113599645Y-59836323D01*
X113602173Y-59999254D01*
X113605516Y-60136464D01*
X113609785Y-60250723D01*
X113615090Y-60344799D01*
X113621543Y-60421461D01*
X113629255Y-60483477D01*
X113638337Y-60533618D01*
X113648900Y-60574651D01*
X113661056Y-60609345D01*
X113674915Y-60640469D01*
X113680117Y-60650889D01*
X113718698Y-60715956D01*
X113764318Y-60768351D01*
X113821779Y-60809462D01*
X113895885Y-60840675D01*
X113991437Y-60863378D01*
X114113240Y-60878959D01*
X114266095Y-60888806D01*
X114454806Y-60894306D01*
X114526500Y-60895413D01*
X114672248Y-60896330D01*
X114810910Y-60895406D01*
X114934405Y-60892835D01*
X115034652Y-60888807D01*
X115103570Y-60883515D01*
X115119166Y-60881335D01*
X115235065Y-60851575D01*
X115340589Y-60806915D01*
X115423909Y-60753147D01*
X115462729Y-60713133D01*
X115491063Y-60662113D01*
X115521223Y-60589989D01*
X115536895Y-60543800D01*
X115543167Y-60519974D01*
X115548696Y-60490313D01*
X115553542Y-60452055D01*
X115557767Y-60402436D01*
X115561430Y-60338693D01*
X115564592Y-60258063D01*
X115567314Y-60157782D01*
X115569657Y-60035088D01*
X115571680Y-59887217D01*
X115573444Y-59711406D01*
X115575010Y-59504891D01*
X115576438Y-59264911D01*
X115577789Y-58988701D01*
X115579123Y-58673498D01*
X115579405Y-58602458D01*
X115586595Y-56776833D01*
X114717000Y-56776833D01*
X114717000Y-58448004D01*
G37*
X114717000Y-58448004D02*
X114716818Y-58778985D01*
X114716255Y-59069525D01*
X114715284Y-59321516D01*
X114713877Y-59536847D01*
X114712007Y-59717410D01*
X114709647Y-59865096D01*
X114706770Y-59981796D01*
X114703348Y-60069400D01*
X114699355Y-60129800D01*
X114694763Y-60164887D01*
X114692204Y-60173595D01*
X114649065Y-60225210D01*
X114588714Y-60242258D01*
X114521804Y-60222042D01*
X114515762Y-60218262D01*
X114463000Y-60183691D01*
X114463000Y-56776833D01*
X113595166Y-56776833D01*
X113595326Y-58538958D01*
X113595451Y-58872022D01*
X113595834Y-59165522D01*
X113596586Y-59422226D01*
X113597819Y-59644904D01*
X113599645Y-59836323D01*
X113602173Y-59999254D01*
X113605516Y-60136464D01*
X113609785Y-60250723D01*
X113615090Y-60344799D01*
X113621543Y-60421461D01*
X113629255Y-60483477D01*
X113638337Y-60533618D01*
X113648900Y-60574651D01*
X113661056Y-60609345D01*
X113674915Y-60640469D01*
X113680117Y-60650889D01*
X113718698Y-60715956D01*
X113764318Y-60768351D01*
X113821779Y-60809462D01*
X113895885Y-60840675D01*
X113991437Y-60863378D01*
X114113240Y-60878959D01*
X114266095Y-60888806D01*
X114454806Y-60894306D01*
X114526500Y-60895413D01*
X114672248Y-60896330D01*
X114810910Y-60895406D01*
X114934405Y-60892835D01*
X115034652Y-60888807D01*
X115103570Y-60883515D01*
X115119166Y-60881335D01*
X115235065Y-60851575D01*
X115340589Y-60806915D01*
X115423909Y-60753147D01*
X115462729Y-60713133D01*
X115491063Y-60662113D01*
X115521223Y-60589989D01*
X115536895Y-60543800D01*
X115543167Y-60519974D01*
X115548696Y-60490313D01*
X115553542Y-60452055D01*
X115557767Y-60402436D01*
X115561430Y-60338693D01*
X115564592Y-60258063D01*
X115567314Y-60157782D01*
X115569657Y-60035088D01*
X115571680Y-59887217D01*
X115573444Y-59711406D01*
X115575010Y-59504891D01*
X115576438Y-59264911D01*
X115577789Y-58988701D01*
X115579123Y-58673498D01*
X115579405Y-58602458D01*
X115586595Y-56776833D01*
X114717000Y-56776833D01*
X114717000Y-58448004D01*
G36*
X93465666Y-62153167D02*
G01*
X122972000Y-62153167D01*
X122972000Y-61264167D01*
X93465666Y-61264167D01*
X93465666Y-62153167D01*
G37*
X93465666Y-62153167D02*
X122972000Y-62153167D01*
X122972000Y-61264167D01*
X93465666Y-61264167D01*
X93465666Y-62153167D01*
D10*
X71290000Y-75700000D02*
X70790000Y-76600000D01*
X70790000Y-76600000D02*
X71790000Y-76600000D01*
X71790000Y-76600000D02*
X71290000Y-75700000D01*
X70790000Y-75600000D02*
X71790000Y-75600000D01*
X70540000Y-78800000D02*
X70540000Y-73400000D01*
X70540000Y-73400000D02*
X72040000Y-73400000D01*
X72040000Y-73400000D02*
X72040000Y-78800000D01*
X72040000Y-78800000D02*
X70540000Y-78800000D01*
X91090000Y-78800000D02*
X89590000Y-78800000D01*
X91090000Y-73400000D02*
X91090000Y-78800000D01*
X89590000Y-73400000D02*
X91090000Y-73400000D01*
X89590000Y-78800000D02*
X89590000Y-73400000D01*
X89840000Y-75600000D02*
X90840000Y-75600000D01*
X90840000Y-76600000D02*
X90340000Y-75700000D01*
X89840000Y-76600000D02*
X90840000Y-76600000D01*
X90340000Y-75700000D02*
X89840000Y-76600000D01*
X109390000Y-75700000D02*
X108890000Y-76600000D01*
X108890000Y-76600000D02*
X109890000Y-76600000D01*
X109890000Y-76600000D02*
X109390000Y-75700000D01*
X108890000Y-75600000D02*
X109890000Y-75600000D01*
X108640000Y-78800000D02*
X108640000Y-73400000D01*
X108640000Y-73400000D02*
X110140000Y-73400000D01*
X110140000Y-73400000D02*
X110140000Y-78800000D01*
X110140000Y-78800000D02*
X108640000Y-78800000D01*
X129190000Y-78800000D02*
X127690000Y-78800000D01*
X129190000Y-73400000D02*
X129190000Y-78800000D01*
X127690000Y-73400000D02*
X129190000Y-73400000D01*
X127690000Y-78800000D02*
X127690000Y-73400000D01*
X127940000Y-75600000D02*
X128940000Y-75600000D01*
X128940000Y-76600000D02*
X128440000Y-75700000D01*
X127940000Y-76600000D02*
X128940000Y-76600000D01*
X128440000Y-75700000D02*
X127940000Y-76600000D01*
X148240000Y-78800000D02*
X146740000Y-78800000D01*
X148240000Y-73400000D02*
X148240000Y-78800000D01*
X146740000Y-73400000D02*
X148240000Y-73400000D01*
X146740000Y-78800000D02*
X146740000Y-73400000D01*
X146990000Y-75600000D02*
X147990000Y-75600000D01*
X147990000Y-76600000D02*
X147490000Y-75700000D01*
X146990000Y-76600000D02*
X147990000Y-76600000D01*
X147490000Y-75700000D02*
X146990000Y-76600000D01*
X72040000Y-102875000D02*
X70540000Y-102875000D01*
X72040000Y-97475000D02*
X72040000Y-102875000D01*
X70540000Y-97475000D02*
X72040000Y-97475000D01*
X70540000Y-102875000D02*
X70540000Y-97475000D01*
X70790000Y-99675000D02*
X71790000Y-99675000D01*
X71790000Y-100675000D02*
X71290000Y-99775000D01*
X70790000Y-100675000D02*
X71790000Y-100675000D01*
X71290000Y-99775000D02*
X70790000Y-100675000D01*
X91090000Y-97850000D02*
X89590000Y-97850000D01*
X91090000Y-92450000D02*
X91090000Y-97850000D01*
X89590000Y-92450000D02*
X91090000Y-92450000D01*
X89590000Y-97850000D02*
X89590000Y-92450000D01*
X89840000Y-94650000D02*
X90840000Y-94650000D01*
X90840000Y-95650000D02*
X90340000Y-94750000D01*
X89840000Y-95650000D02*
X90840000Y-95650000D01*
X90340000Y-94750000D02*
X89840000Y-95650000D01*
X110140000Y-97850000D02*
X108640000Y-97850000D01*
X110140000Y-92450000D02*
X110140000Y-97850000D01*
X108640000Y-92450000D02*
X110140000Y-92450000D01*
X108640000Y-97850000D02*
X108640000Y-92450000D01*
X108890000Y-94650000D02*
X109890000Y-94650000D01*
X109890000Y-95650000D02*
X109390000Y-94750000D01*
X108890000Y-95650000D02*
X109890000Y-95650000D01*
X109390000Y-94750000D02*
X108890000Y-95650000D01*
X129190000Y-103550000D02*
X127690000Y-103550000D01*
X129190000Y-98150000D02*
X129190000Y-103550000D01*
X127690000Y-98150000D02*
X129190000Y-98150000D01*
X127690000Y-103550000D02*
X127690000Y-98150000D01*
X127940000Y-100350000D02*
X128940000Y-100350000D01*
X128940000Y-101350000D02*
X128440000Y-100450000D01*
X127940000Y-101350000D02*
X128940000Y-101350000D01*
X128440000Y-100450000D02*
X127940000Y-101350000D01*
X146950000Y-97850000D02*
X145450000Y-97850000D01*
X146950000Y-92450000D02*
X146950000Y-97850000D01*
X145450000Y-92450000D02*
X146950000Y-92450000D01*
X145450000Y-97850000D02*
X145450000Y-92450000D01*
X145700000Y-94650000D02*
X146700000Y-94650000D01*
X146700000Y-95650000D02*
X146200000Y-94750000D01*
X145700000Y-95650000D02*
X146700000Y-95650000D01*
X146200000Y-94750000D02*
X145700000Y-95650000D01*
X71290000Y-113800000D02*
X70790000Y-114700000D01*
X70790000Y-114700000D02*
X71790000Y-114700000D01*
X71790000Y-114700000D02*
X71290000Y-113800000D01*
X70790000Y-113700000D02*
X71790000Y-113700000D01*
X70540000Y-116900000D02*
X70540000Y-111500000D01*
X70540000Y-111500000D02*
X72040000Y-111500000D01*
X72040000Y-111500000D02*
X72040000Y-116900000D01*
X72040000Y-116900000D02*
X70540000Y-116900000D01*
X90340000Y-113800000D02*
X89840000Y-114700000D01*
X89840000Y-114700000D02*
X90840000Y-114700000D01*
X90840000Y-114700000D02*
X90340000Y-113800000D01*
X89840000Y-113700000D02*
X90840000Y-113700000D01*
X89590000Y-116900000D02*
X89590000Y-111500000D01*
X89590000Y-111500000D02*
X91090000Y-111500000D01*
X91090000Y-111500000D02*
X91090000Y-116900000D01*
X91090000Y-116900000D02*
X89590000Y-116900000D01*
X109390000Y-113800000D02*
X108890000Y-114700000D01*
X108890000Y-114700000D02*
X109890000Y-114700000D01*
X109890000Y-114700000D02*
X109390000Y-113800000D01*
X108890000Y-113700000D02*
X109890000Y-113700000D01*
X108640000Y-116900000D02*
X108640000Y-111500000D01*
X108640000Y-111500000D02*
X110140000Y-111500000D01*
X110140000Y-111500000D02*
X110140000Y-116900000D01*
X110140000Y-116900000D02*
X108640000Y-116900000D01*
X128440000Y-113800000D02*
X127940000Y-114700000D01*
X127940000Y-114700000D02*
X128940000Y-114700000D01*
X128940000Y-114700000D02*
X128440000Y-113800000D01*
X127940000Y-113700000D02*
X128940000Y-113700000D01*
X127690000Y-116900000D02*
X127690000Y-111500000D01*
X127690000Y-111500000D02*
X129190000Y-111500000D01*
X129190000Y-111500000D02*
X129190000Y-116900000D01*
X129190000Y-116900000D02*
X127690000Y-116900000D01*
X146200000Y-113800000D02*
X145700000Y-114700000D01*
X145700000Y-114700000D02*
X146700000Y-114700000D01*
X146700000Y-114700000D02*
X146200000Y-113800000D01*
X145700000Y-113700000D02*
X146700000Y-113700000D01*
X145450000Y-116900000D02*
X145450000Y-111500000D01*
X145450000Y-111500000D02*
X146950000Y-111500000D01*
X146950000Y-111500000D02*
X146950000Y-116900000D01*
X146950000Y-116900000D02*
X145450000Y-116900000D01*
X90340000Y-132850000D02*
X89840000Y-133750000D01*
X89840000Y-133750000D02*
X90840000Y-133750000D01*
X90840000Y-133750000D02*
X90340000Y-132850000D01*
X89840000Y-132750000D02*
X90840000Y-132750000D01*
X89590000Y-135950000D02*
X89590000Y-130550000D01*
X89590000Y-130550000D02*
X91090000Y-130550000D01*
X91090000Y-130550000D02*
X91090000Y-135950000D01*
X91090000Y-135950000D02*
X89590000Y-135950000D01*
X109390000Y-132850000D02*
X108890000Y-133750000D01*
X108890000Y-133750000D02*
X109890000Y-133750000D01*
X109890000Y-133750000D02*
X109390000Y-132850000D01*
X108890000Y-132750000D02*
X109890000Y-132750000D01*
X108640000Y-135950000D02*
X108640000Y-130550000D01*
X108640000Y-130550000D02*
X110140000Y-130550000D01*
X110140000Y-130550000D02*
X110140000Y-135950000D01*
X110140000Y-135950000D02*
X108640000Y-135950000D01*
X148240000Y-135950000D02*
X146740000Y-135950000D01*
X148240000Y-130550000D02*
X148240000Y-135950000D01*
X146740000Y-130550000D02*
X148240000Y-130550000D01*
X146740000Y-135950000D02*
X146740000Y-130550000D01*
X146990000Y-132750000D02*
X147990000Y-132750000D01*
X147990000Y-133750000D02*
X147490000Y-132850000D01*
X146990000Y-133750000D02*
X147990000Y-133750000D01*
X147490000Y-132850000D02*
X146990000Y-133750000D01*
X173980000Y-75700000D02*
X173480000Y-76600000D01*
X173480000Y-76600000D02*
X174480000Y-76600000D01*
X174480000Y-76600000D02*
X173980000Y-75700000D01*
X173480000Y-75600000D02*
X174480000Y-75600000D01*
X173230000Y-78800000D02*
X173230000Y-73400000D01*
X173230000Y-73400000D02*
X174730000Y-73400000D01*
X174730000Y-73400000D02*
X174730000Y-78800000D01*
X174730000Y-78800000D02*
X173230000Y-78800000D01*
X193780000Y-78800000D02*
X192280000Y-78800000D01*
X193780000Y-73400000D02*
X193780000Y-78800000D01*
X192280000Y-73400000D02*
X193780000Y-73400000D01*
X192280000Y-78800000D02*
X192280000Y-73400000D01*
X192530000Y-75600000D02*
X193530000Y-75600000D01*
X193530000Y-76600000D02*
X193030000Y-75700000D01*
X192530000Y-76600000D02*
X193530000Y-76600000D01*
X193030000Y-75700000D02*
X192530000Y-76600000D01*
X212080000Y-75700000D02*
X211580000Y-76600000D01*
X211580000Y-76600000D02*
X212580000Y-76600000D01*
X212580000Y-76600000D02*
X212080000Y-75700000D01*
X211580000Y-75600000D02*
X212580000Y-75600000D01*
X211330000Y-78800000D02*
X211330000Y-73400000D01*
X211330000Y-73400000D02*
X212830000Y-73400000D01*
X212830000Y-73400000D02*
X212830000Y-78800000D01*
X212830000Y-78800000D02*
X211330000Y-78800000D01*
X231880000Y-78800000D02*
X230380000Y-78800000D01*
X231880000Y-73400000D02*
X231880000Y-78800000D01*
X230380000Y-73400000D02*
X231880000Y-73400000D01*
X230380000Y-78800000D02*
X230380000Y-73400000D01*
X230630000Y-75600000D02*
X231630000Y-75600000D01*
X231630000Y-76600000D02*
X231130000Y-75700000D01*
X230630000Y-76600000D02*
X231630000Y-76600000D01*
X231130000Y-75700000D02*
X230630000Y-76600000D01*
X173990000Y-100450000D02*
X173490000Y-101350000D01*
X173490000Y-101350000D02*
X174490000Y-101350000D01*
X174490000Y-101350000D02*
X173990000Y-100450000D01*
X173490000Y-100350000D02*
X174490000Y-100350000D01*
X173240000Y-103550000D02*
X173240000Y-98150000D01*
X173240000Y-98150000D02*
X174740000Y-98150000D01*
X174740000Y-98150000D02*
X174740000Y-103550000D01*
X174740000Y-103550000D02*
X173240000Y-103550000D01*
X193780000Y-97850000D02*
X192280000Y-97850000D01*
X193780000Y-92450000D02*
X193780000Y-97850000D01*
X192280000Y-92450000D02*
X193780000Y-92450000D01*
X192280000Y-97850000D02*
X192280000Y-92450000D01*
X192530000Y-94650000D02*
X193530000Y-94650000D01*
X193530000Y-95650000D02*
X193030000Y-94750000D01*
X192530000Y-95650000D02*
X193530000Y-95650000D01*
X193030000Y-94750000D02*
X192530000Y-95650000D01*
X212080000Y-94750000D02*
X211580000Y-95650000D01*
X211580000Y-95650000D02*
X212580000Y-95650000D01*
X212580000Y-95650000D02*
X212080000Y-94750000D01*
X211580000Y-94650000D02*
X212580000Y-94650000D01*
X211330000Y-97850000D02*
X211330000Y-92450000D01*
X211330000Y-92450000D02*
X212830000Y-92450000D01*
X212830000Y-92450000D02*
X212830000Y-97850000D01*
X212830000Y-97850000D02*
X211330000Y-97850000D01*
X231880000Y-103550000D02*
X230380000Y-103550000D01*
X231880000Y-98150000D02*
X231880000Y-103550000D01*
X230380000Y-98150000D02*
X231880000Y-98150000D01*
X230380000Y-103550000D02*
X230380000Y-98150000D01*
X230630000Y-100350000D02*
X231630000Y-100350000D01*
X231630000Y-101350000D02*
X231130000Y-100450000D01*
X230630000Y-101350000D02*
X231630000Y-101350000D01*
X231130000Y-100450000D02*
X230630000Y-101350000D01*
X174780000Y-116900000D02*
X173280000Y-116900000D01*
X174780000Y-111500000D02*
X174780000Y-116900000D01*
X173280000Y-111500000D02*
X174780000Y-111500000D01*
X173280000Y-116900000D02*
X173280000Y-111500000D01*
X173530000Y-113700000D02*
X174530000Y-113700000D01*
X174530000Y-114700000D02*
X174030000Y-113800000D01*
X173530000Y-114700000D02*
X174530000Y-114700000D01*
X174030000Y-113800000D02*
X173530000Y-114700000D01*
X193030000Y-113800000D02*
X192530000Y-114700000D01*
X192530000Y-114700000D02*
X193530000Y-114700000D01*
X193530000Y-114700000D02*
X193030000Y-113800000D01*
X192530000Y-113700000D02*
X193530000Y-113700000D01*
X192280000Y-116900000D02*
X192280000Y-111500000D01*
X192280000Y-111500000D02*
X193780000Y-111500000D01*
X193780000Y-111500000D02*
X193780000Y-116900000D01*
X193780000Y-116900000D02*
X192280000Y-116900000D01*
X212830000Y-116900000D02*
X211330000Y-116900000D01*
X212830000Y-111500000D02*
X212830000Y-116900000D01*
X211330000Y-111500000D02*
X212830000Y-111500000D01*
X211330000Y-116900000D02*
X211330000Y-111500000D01*
X211580000Y-113700000D02*
X212580000Y-113700000D01*
X212580000Y-114700000D02*
X212080000Y-113800000D01*
X211580000Y-114700000D02*
X212580000Y-114700000D01*
X212080000Y-113800000D02*
X211580000Y-114700000D01*
X231130000Y-113800000D02*
X230630000Y-114700000D01*
X230630000Y-114700000D02*
X231630000Y-114700000D01*
X231630000Y-114700000D02*
X231130000Y-113800000D01*
X230630000Y-113700000D02*
X231630000Y-113700000D01*
X230380000Y-116900000D02*
X230380000Y-111500000D01*
X230380000Y-111500000D02*
X231880000Y-111500000D01*
X231880000Y-111500000D02*
X231880000Y-116900000D01*
X231880000Y-116900000D02*
X230380000Y-116900000D01*
X250930000Y-78800000D02*
X249430000Y-78800000D01*
X250930000Y-73400000D02*
X250930000Y-78800000D01*
X249430000Y-73400000D02*
X250930000Y-73400000D01*
X249430000Y-78800000D02*
X249430000Y-73400000D01*
X249680000Y-75600000D02*
X250680000Y-75600000D01*
X250680000Y-76600000D02*
X250180000Y-75700000D01*
X249680000Y-76600000D02*
X250680000Y-76600000D01*
X250180000Y-75700000D02*
X249680000Y-76600000D01*
X248850000Y-94750000D02*
X248350000Y-95650000D01*
X248350000Y-95650000D02*
X249350000Y-95650000D01*
X249350000Y-95650000D02*
X248850000Y-94750000D01*
X248350000Y-94650000D02*
X249350000Y-94650000D01*
X248100000Y-97850000D02*
X248100000Y-92450000D01*
X248100000Y-92450000D02*
X249600000Y-92450000D01*
X249600000Y-92450000D02*
X249600000Y-97850000D01*
X249600000Y-97850000D02*
X248100000Y-97850000D01*
X249600000Y-116900000D02*
X248100000Y-116900000D01*
X249600000Y-111500000D02*
X249600000Y-116900000D01*
X248100000Y-111500000D02*
X249600000Y-111500000D01*
X248100000Y-116900000D02*
X248100000Y-111500000D01*
X248350000Y-113700000D02*
X249350000Y-113700000D01*
X249350000Y-114700000D02*
X248850000Y-113800000D01*
X248350000Y-114700000D02*
X249350000Y-114700000D01*
X248850000Y-113800000D02*
X248350000Y-114700000D01*
X193030000Y-132850000D02*
X192530000Y-133750000D01*
X192530000Y-133750000D02*
X193530000Y-133750000D01*
X193530000Y-133750000D02*
X193030000Y-132850000D01*
X192530000Y-132750000D02*
X193530000Y-132750000D01*
X192280000Y-135950000D02*
X192280000Y-130550000D01*
X192280000Y-130550000D02*
X193780000Y-130550000D01*
X193780000Y-130550000D02*
X193780000Y-135950000D01*
X193780000Y-135950000D02*
X192280000Y-135950000D01*
X135505238Y-67530952D02*
X135600476Y-67483333D01*
X135648095Y-67435714D01*
X135695714Y-67340476D01*
X135695714Y-67292857D01*
X135648095Y-67197619D01*
X135600476Y-67150000D01*
X135505238Y-67102380D01*
X135314761Y-67102380D01*
X135219523Y-67150000D01*
X135171904Y-67197619D01*
X135124285Y-67292857D01*
X135124285Y-67340476D01*
X135171904Y-67435714D01*
X135219523Y-67483333D01*
X135314761Y-67530952D01*
X135505238Y-67530952D01*
X135600476Y-67578571D01*
X135648095Y-67626190D01*
X135695714Y-67721428D01*
X135695714Y-67911904D01*
X135648095Y-68007142D01*
X135600476Y-68054761D01*
X135505238Y-68102380D01*
X135314761Y-68102380D01*
X135219523Y-68054761D01*
X135171904Y-68007142D01*
X135124285Y-67911904D01*
X135124285Y-67721428D01*
X135171904Y-67626190D01*
X135219523Y-67578571D01*
X135314761Y-67530952D01*
X137093333Y-64502380D02*
X136426666Y-64502380D01*
X136855238Y-65502380D01*
X137819523Y-67102380D02*
X138010000Y-67102380D01*
X138105238Y-67150000D01*
X138152857Y-67197619D01*
X138248095Y-67340476D01*
X138295714Y-67530952D01*
X138295714Y-67911904D01*
X138248095Y-68007142D01*
X138200476Y-68054761D01*
X138105238Y-68102380D01*
X137914761Y-68102380D01*
X137819523Y-68054761D01*
X137771904Y-68007142D01*
X137724285Y-67911904D01*
X137724285Y-67673809D01*
X137771904Y-67578571D01*
X137819523Y-67530952D01*
X137914761Y-67483333D01*
X138105238Y-67483333D01*
X138200476Y-67530952D01*
X138248095Y-67578571D01*
X138295714Y-67673809D01*
X138971904Y-64552380D02*
X139448095Y-64552380D01*
X139495714Y-65028571D01*
X139448095Y-64980952D01*
X139352857Y-64933333D01*
X139114761Y-64933333D01*
X139019523Y-64980952D01*
X138971904Y-65028571D01*
X138924285Y-65123809D01*
X138924285Y-65361904D01*
X138971904Y-65457142D01*
X139019523Y-65504761D01*
X139114761Y-65552380D01*
X139352857Y-65552380D01*
X139448095Y-65504761D01*
X139495714Y-65457142D01*
X140219523Y-67385714D02*
X140219523Y-68052380D01*
X140457619Y-67004761D02*
X140695714Y-67719047D01*
X140076666Y-67719047D01*
X142193333Y-64502380D02*
X141574285Y-64502380D01*
X141907619Y-64883333D01*
X141764761Y-64883333D01*
X141669523Y-64930952D01*
X141621904Y-64978571D01*
X141574285Y-65073809D01*
X141574285Y-65311904D01*
X141621904Y-65407142D01*
X141669523Y-65454761D01*
X141764761Y-65502380D01*
X142050476Y-65502380D01*
X142145714Y-65454761D01*
X142193333Y-65407142D01*
X143345714Y-67247619D02*
X143298095Y-67200000D01*
X143202857Y-67152380D01*
X142964761Y-67152380D01*
X142869523Y-67200000D01*
X142821904Y-67247619D01*
X142774285Y-67342857D01*
X142774285Y-67438095D01*
X142821904Y-67580952D01*
X143393333Y-68152380D01*
X142774285Y-68152380D01*
X144124285Y-65502380D02*
X144695714Y-65502380D01*
X144410000Y-65502380D02*
X144410000Y-64502380D01*
X144505238Y-64645238D01*
X144600476Y-64740476D01*
X144695714Y-64788095D01*
X158045238Y-67530952D02*
X158140476Y-67483333D01*
X158188095Y-67435714D01*
X158235714Y-67340476D01*
X158235714Y-67292857D01*
X158188095Y-67197619D01*
X158140476Y-67150000D01*
X158045238Y-67102380D01*
X157854761Y-67102380D01*
X157759523Y-67150000D01*
X157711904Y-67197619D01*
X157664285Y-67292857D01*
X157664285Y-67340476D01*
X157711904Y-67435714D01*
X157759523Y-67483333D01*
X157854761Y-67530952D01*
X158045238Y-67530952D01*
X158140476Y-67578571D01*
X158188095Y-67626190D01*
X158235714Y-67721428D01*
X158235714Y-67911904D01*
X158188095Y-68007142D01*
X158140476Y-68054761D01*
X158045238Y-68102380D01*
X157854761Y-68102380D01*
X157759523Y-68054761D01*
X157711904Y-68007142D01*
X157664285Y-67911904D01*
X157664285Y-67721428D01*
X157711904Y-67626190D01*
X157759523Y-67578571D01*
X157854761Y-67530952D01*
X159633333Y-64502380D02*
X158966666Y-64502380D01*
X159395238Y-65502380D01*
X160359523Y-67102380D02*
X160550000Y-67102380D01*
X160645238Y-67150000D01*
X160692857Y-67197619D01*
X160788095Y-67340476D01*
X160835714Y-67530952D01*
X160835714Y-67911904D01*
X160788095Y-68007142D01*
X160740476Y-68054761D01*
X160645238Y-68102380D01*
X160454761Y-68102380D01*
X160359523Y-68054761D01*
X160311904Y-68007142D01*
X160264285Y-67911904D01*
X160264285Y-67673809D01*
X160311904Y-67578571D01*
X160359523Y-67530952D01*
X160454761Y-67483333D01*
X160645238Y-67483333D01*
X160740476Y-67530952D01*
X160788095Y-67578571D01*
X160835714Y-67673809D01*
X161511904Y-64552380D02*
X161988095Y-64552380D01*
X162035714Y-65028571D01*
X161988095Y-64980952D01*
X161892857Y-64933333D01*
X161654761Y-64933333D01*
X161559523Y-64980952D01*
X161511904Y-65028571D01*
X161464285Y-65123809D01*
X161464285Y-65361904D01*
X161511904Y-65457142D01*
X161559523Y-65504761D01*
X161654761Y-65552380D01*
X161892857Y-65552380D01*
X161988095Y-65504761D01*
X162035714Y-65457142D01*
X162759523Y-67385714D02*
X162759523Y-68052380D01*
X162997619Y-67004761D02*
X163235714Y-67719047D01*
X162616666Y-67719047D01*
X164733333Y-64502380D02*
X164114285Y-64502380D01*
X164447619Y-64883333D01*
X164304761Y-64883333D01*
X164209523Y-64930952D01*
X164161904Y-64978571D01*
X164114285Y-65073809D01*
X164114285Y-65311904D01*
X164161904Y-65407142D01*
X164209523Y-65454761D01*
X164304761Y-65502380D01*
X164590476Y-65502380D01*
X164685714Y-65454761D01*
X164733333Y-65407142D01*
X165885714Y-67247619D02*
X165838095Y-67200000D01*
X165742857Y-67152380D01*
X165504761Y-67152380D01*
X165409523Y-67200000D01*
X165361904Y-67247619D01*
X165314285Y-67342857D01*
X165314285Y-67438095D01*
X165361904Y-67580952D01*
X165933333Y-68152380D01*
X165314285Y-68152380D01*
X166664285Y-65502380D02*
X167235714Y-65502380D01*
X166950000Y-65502380D02*
X166950000Y-64502380D01*
X167045238Y-64645238D01*
X167140476Y-64740476D01*
X167235714Y-64788095D01*
X128312380Y-58237619D02*
X127836190Y-57904285D01*
X128312380Y-57666190D02*
X127312380Y-57666190D01*
X127312380Y-58047142D01*
X127360000Y-58142380D01*
X127407619Y-58190000D01*
X127502857Y-58237619D01*
X127645714Y-58237619D01*
X127740952Y-58190000D01*
X127788571Y-58142380D01*
X127836190Y-58047142D01*
X127836190Y-57666190D01*
X127788571Y-58666190D02*
X127788571Y-58999523D01*
X128312380Y-59142380D02*
X128312380Y-58666190D01*
X127312380Y-58666190D01*
X127312380Y-59142380D01*
X128264761Y-59523333D02*
X128312380Y-59666190D01*
X128312380Y-59904285D01*
X128264761Y-59999523D01*
X128217142Y-60047142D01*
X128121904Y-60094761D01*
X128026666Y-60094761D01*
X127931428Y-60047142D01*
X127883809Y-59999523D01*
X127836190Y-59904285D01*
X127788571Y-59713809D01*
X127740952Y-59618571D01*
X127693333Y-59570952D01*
X127598095Y-59523333D01*
X127502857Y-59523333D01*
X127407619Y-59570952D01*
X127360000Y-59618571D01*
X127312380Y-59713809D01*
X127312380Y-59951904D01*
X127360000Y-60094761D01*
X127788571Y-60523333D02*
X127788571Y-60856666D01*
X128312380Y-60999523D02*
X128312380Y-60523333D01*
X127312380Y-60523333D01*
X127312380Y-60999523D01*
X127312380Y-61285238D02*
X127312380Y-61856666D01*
X128312380Y-61570952D02*
X127312380Y-61570952D01*
M02*
