<svg id="cut" xmlns="http://www.w3.org/2000/svg" viewBox="0 0 1171.04 770.797"><defs><style>.cls-1{fill:none;stroke:#000;stroke-miterlimit:10;stroke-width:0.283px;}</style></defs><path class="cls-1" d="M327.155,14.173H25.512A11.339,11.339,0,0,0,14.173,25.512V745.653a11.339,11.339,0,0,0,11.339,11.339h8.894L45.948,745.37h.012v-8.5H77.209v8.5h0l11.622,11.622H327.155a11.339,11.339,0,0,0,11.339-11.339V25.512A11.339,11.339,0,0,0,327.155,14.173ZM25.813,751.181a5.811,5.811,0,1,1,5.811-5.811A5.811,5.811,0,0,1,25.813,751.181Zm0-235.984a5.811,5.811,0,1,1,5.811-5.811A5.811,5.811,0,0,1,25.813,515.2Zm0-247.607a5.811,5.811,0,1,1,5.811-5.81A5.811,5.811,0,0,1,25.813,267.59Zm0-235.984A5.811,5.811,0,1,1,31.624,25.8,5.811,5.811,0,0,1,25.813,31.606ZM185.642,48.489V42.97h9.921v2.662l5.941,0a4.252,4.252,0,0,1,4.249,4.252v3.705a8.525,8.525,0,0,1,3.893,2.877h39.918v2.592h18.852V55.246a1.418,1.418,0,0,1,1.42-1.417l11.325.022v1.39h4.7V50.657a1.043,1.043,0,0,1,1.043-1.043h16.339a1.043,1.043,0,0,1,1.043,1.043v5a1.043,1.043,0,0,1-1.043,1.043h-7.907v12.25a7.439,7.439,0,0,1,0,12.228v9.5a4.252,4.252,0,0,1-4.252,4.252h-2.557v5.519h-9.922V97.783l-4.547,0-.053,22.071a1.417,1.417,0,0,1-1.418,1.417l-23.023.029v12.084l5.938,0a4.225,4.225,0,0,1,3.171,1.448,8.494,8.494,0,0,1,1.078,16.218v24.867a1.418,1.418,0,0,1-1.42,1.418l-11.325-.022v-1.39H232.831v-13.71a7.439,7.439,0,0,1,0-12.228v-9.5a4.252,4.252,0,0,1,4.252-4.252v-2.07H223.73a2.84,2.84,0,0,0-2.41,4.318,9.211,9.211,0,0,1-15.568,9.825v.607a1.418,1.418,0,0,1-1.42,1.417l-11.325-.022v-1.39H178.832v-13.71a7.439,7.439,0,0,1,0-12.228v-2.306H170.6v-2.662l-5.94,0a4.251,4.251,0,0,1-4.25-4.252V75.48a1.417,1.417,0,0,1,1.42-1.417l11.325.022v1.39h5.674V74.464a7.439,7.439,0,0,1,0-12.228V52.741a4.252,4.252,0,0,1,4.252-4.252ZM298.537,216.816a7.435,7.435,0,0,1-3.2,6.114v9.5a4.252,4.252,0,0,1-4.252,4.252h-2.557V242.2h-9.922v-2.662l-4.6,0v18.162a1.418,1.418,0,0,1-1.418,1.418H255.579a1.418,1.418,0,0,1-1.417-1.418V237.851a1.418,1.418,0,0,1,1.417-1.418h13.015a4.229,4.229,0,0,1-.178-1.154V219.3q-.463.047-.941.047a9.213,9.213,0,1,1,.941-18.377V197a1.418,1.418,0,0,1,1.42-1.417l11.325.022v1.39h4.7v-4.645A1.043,1.043,0,0,1,286.9,191.3h16.339a1.043,1.043,0,0,1,1.043,1.043v5a1.043,1.043,0,0,1-1.043,1.044h-7.907V210.7A7.435,7.435,0,0,1,298.537,216.816Zm-21.849,60.869a9.213,9.213,0,1,1-9.213-9.213A9.213,9.213,0,0,1,276.688,277.685Zm26.555-146.771h-7.907V143.2a7.439,7.439,0,0,1,0,12.227v9.5a4.252,4.252,0,0,1-4.252,4.252h-2.557v5.518h-9.922v-2.661l-5.94,0a4.252,4.252,0,0,1-4.249-4.252V129.5a1.418,1.418,0,0,1,1.42-1.418l11.325.022v1.391h4.7v-4.62a1.044,1.044,0,0,1,1.043-1.044h16.339a1.044,1.044,0,0,1,1.043,1.044v5A1.043,1.043,0,0,1,303.243,130.914Zm-58.7,241.148a7.435,7.435,0,0,1-3.2,6.114v9.5a4.252,4.252,0,0,1-4.252,4.252h-2.557l-.033,8.655h14.757a1.043,1.043,0,0,1,1.043,1.043v5a1.043,1.043,0,0,1-1.043,1.044h-7.915v12.283a7.438,7.438,0,0,1,0,12.228v9.5a4.251,4.251,0,0,1-4.252,4.252h-2.557l-.033,8.655h14.757a1.043,1.043,0,0,1,1.043,1.043v5a1.043,1.043,0,0,1-1.043,1.043h-7.915v12.284a7.438,7.438,0,0,1,0,12.228v9.5a4.252,4.252,0,0,1-4.252,4.252h-2.557l-.033,8.653h14.757a1.043,1.043,0,0,1,1.043,1.043v5a1.043,1.043,0,0,1-1.043,1.043h-7.915v12.286a7.437,7.437,0,0,1,0,12.227v9.5a4.252,4.252,0,0,1-4.252,4.252h-2.557l-.033,8.655h14.766a1.043,1.043,0,0,1,1.043,1.043v5a1.043,1.043,0,0,1-1.043,1.043h-7.924v12.283a7.437,7.437,0,0,1,0,12.227v9.5a4.252,4.252,0,0,1-4.252,4.252h-2.557v5.518h-9.921v-2.661l-5.94,0a4.253,4.253,0,0,1-4.25-4.252V568.244a1.419,1.419,0,0,1,1.42-1.418l8.817.017-.047-10.062-5.94,0a4.253,4.253,0,0,1-4.25-4.252V514.244a1.419,1.419,0,0,1,1.42-1.418l8.817.017-.047-10.062-5.94,0a4.251,4.251,0,0,1-4.25-4.252V460.244a1.417,1.417,0,0,1,1.42-1.417l8.817.017-.047-10.064-5.94,0a4.251,4.251,0,0,1-4.25-4.251V406.243a1.417,1.417,0,0,1,1.42-1.417l8.817.017-.047-10.063-5.94,0a4.252,4.252,0,0,1-4.25-4.252V352.243a1.417,1.417,0,0,1,1.42-1.417l8.817.017-.047-10.064-5.94,0a4.251,4.251,0,0,1-4.25-4.252V298.242a1.417,1.417,0,0,1,1.42-1.417l8.817.017-.047-10.062-5.94,0a4.251,4.251,0,0,1-4.25-4.251V244.243a1.417,1.417,0,0,1,1.42-1.417l8.817.017-.047-10.061-5.94,0a4.251,4.251,0,0,1-4.25-4.252V190.245a1.417,1.417,0,0,1,1.42-1.417l11.325.022v1.39h4.708v-4.622a1.043,1.043,0,0,1,1.043-1.043h16.339a1.043,1.043,0,0,1,1.043,1.043v5a1.043,1.043,0,0,1-1.043,1.043h-7.915V203.95a7.438,7.438,0,0,1,0,12.228v9.5a4.251,4.251,0,0,1-4.252,4.252h-2.557l-.033,8.65h14.757a1.043,1.043,0,0,1,1.043,1.044v5a1.043,1.043,0,0,1-1.043,1.043h-7.915v12.286a7.438,7.438,0,0,1,0,12.228v9.5a4.251,4.251,0,0,1-4.252,4.252h-2.557l-.033,8.651h14.757a1.043,1.043,0,0,1,1.043,1.043v5a1.043,1.043,0,0,1-1.043,1.043h-7.915v12.286a7.438,7.438,0,0,1,0,12.228v9.5a4.252,4.252,0,0,1-4.252,4.252h-2.557l-.033,8.655h14.766a1.043,1.043,0,0,1,1.043,1.043v5a1.043,1.043,0,0,1-1.043,1.043h-7.924v12.285A7.433,7.433,0,0,1,244.54,372.062Zm-31,260.857a9.213,9.213,0,1,1-9.213,9.213A9.212,9.212,0,0,1,213.537,632.919Zm-4.785-449.451v-5a1.043,1.043,0,0,1,1.043-1.044h16.339a1.043,1.043,0,0,1,1.043,1.044v5a1.043,1.043,0,0,1-1.043,1.043H209.8A1.043,1.043,0,0,1,208.752,183.468Zm-18.216,161.6a7.435,7.435,0,0,1-3.2,6.114v9.5a4.252,4.252,0,0,1-4.252,4.252h-2.557l-.021,8.652h14.741a1.043,1.043,0,0,1,1.043,1.043v5a1.043,1.043,0,0,1-1.043,1.043h-7.911v12.287a7.439,7.439,0,0,1,0,12.228v9.5a4.252,4.252,0,0,1-4.252,4.252h-2.557l-.021,8.651h14.741a1.043,1.043,0,0,1,1.043,1.043v5a1.043,1.043,0,0,1-1.043,1.043h-7.911v12.287a7.439,7.439,0,0,1,0,12.228v9.5a4.252,4.252,0,0,1-4.252,4.252h-2.557l-.021,8.65h14.741a1.043,1.043,0,0,1,1.043,1.043v5a1.044,1.044,0,0,1-1.043,1.044h-7.911v12.289a7.439,7.439,0,0,1,0,12.228v9.5a4.252,4.252,0,0,1-4.252,4.252h-2.557l-.021,8.651h14.75a1.043,1.043,0,0,1,1.043,1.044v5a1.043,1.043,0,0,1-1.043,1.043h-7.92v12.286a7.439,7.439,0,0,1,0,12.228v9.5a4.252,4.252,0,0,1-4.252,4.252h-2.557l-.021,8.644h14.73a1.043,1.043,0,0,1,1.043,1.043v5a1.043,1.043,0,0,1-1.043,1.043h-7.9v12.294a7.439,7.439,0,0,1,0,12.228v9.5a4.252,4.252,0,0,1-4.252,4.252h-2.557v5.518h-9.921v-2.662l-5.941,0a4.252,4.252,0,0,1-4.249-4.252V595.247a1.418,1.418,0,0,1,1.42-1.418l8.7.017V583.783l-5.867,0a4.252,4.252,0,0,1-4.249-4.252V541.247a1.418,1.418,0,0,1,1.42-1.418l8.7.017V529.784l-5.867,0a4.251,4.251,0,0,1-4.249-4.252V487.247a1.416,1.416,0,0,1,1.42-1.417l8.7.016V475.783l-5.867,0a4.251,4.251,0,0,1-4.249-4.252V433.246a1.416,1.416,0,0,1,1.42-1.417l8.7.017V421.783l-5.867,0a4.252,4.252,0,0,1-4.249-4.252V379.246a1.416,1.416,0,0,1,1.42-1.417l8.7.016V367.782l-5.867,0a4.251,4.251,0,0,1-4.249-4.252V325.245a1.416,1.416,0,0,1,1.42-1.417l8.7.016V313.783l-5.867,0a4.251,4.251,0,0,1-4.249-4.252V271.246a1.416,1.416,0,0,1,1.42-1.417l8.7.017V259.785l-5.867,0a4.251,4.251,0,0,1-4.249-4.252V217.248a1.416,1.416,0,0,1,1.42-1.417l8.7.017V205.784l-5.867,0a4.251,4.251,0,0,1-4.249-4.252V163.247a1.416,1.416,0,0,1,1.42-1.417l11.325.021v1.391h4.7v-4.625a1.043,1.043,0,0,1,1.043-1.043h16.339a1.043,1.043,0,0,1,1.043,1.043v5a1.043,1.043,0,0,1-1.043,1.043h-7.911v12.291a7.439,7.439,0,0,1,0,12.228v9.5a4.252,4.252,0,0,1-4.252,4.252h-2.557l-.021,8.648h14.741a1.043,1.043,0,0,1,1.043,1.043v5a1.043,1.043,0,0,1-1.043,1.043h-7.911v12.292a7.439,7.439,0,0,1,0,12.228v9.495a4.252,4.252,0,0,1-4.252,4.252h-2.557l-.021,8.645h14.741a1.043,1.043,0,0,1,1.043,1.043v5a1.043,1.043,0,0,1-1.043,1.043h-7.911v12.291a7.439,7.439,0,0,1,0,12.228v9.5a4.252,4.252,0,0,1-4.252,4.252h-2.557l-.021,8.65h14.75a1.043,1.043,0,0,1,1.043,1.043v5a1.043,1.043,0,0,1-1.043,1.043h-7.92V338.95A7.435,7.435,0,0,1,190.536,345.064Zm5.683,308.595v5a1.043,1.043,0,0,1-1.043,1.043H178.837a1.043,1.043,0,0,1-1.043-1.043v-5a1.043,1.043,0,0,1,1.043-1.043h16.339A1.043,1.043,0,0,1,196.219,653.659ZM176.333,19.984a5.811,5.811,0,1,1-5.811,5.811A5.811,5.811,0,0,1,176.333,19.984Zm-21.9,23.678a1.043,1.043,0,0,1,1.043-1.043h16.339a1.043,1.043,0,0,1,1.043,1.043v5a1.043,1.043,0,0,1-1.043,1.043H155.479a1.043,1.043,0,0,1-1.043-1.043Zm5.058,8.714a9.213,9.213,0,1,1-9.213,9.213A9.212,9.212,0,0,1,159.494,52.376Zm-90.45,535.7a7.435,7.435,0,0,1-3.2,6.114v9.5a4.252,4.252,0,0,1-4.252,4.252H59.034v5.519H49.113v-2.662l-5.941,0a4.251,4.251,0,0,1-4.249-4.251V568.255a1.416,1.416,0,0,1,1.42-1.417l11.325.022v1.39h4.7v-4.623a1.043,1.043,0,0,1,1.043-1.043H73.752a1.043,1.043,0,0,1,1.043,1.043v5a1.044,1.044,0,0,1-1.043,1.044H65.843V581.96A7.435,7.435,0,0,1,69.044,588.074Zm4.708-85.911H65.834v12.288a7.438,7.438,0,0,1,0,12.228v9.5a4.252,4.252,0,0,1-4.252,4.252H59.026v5.519H49.1v-2.662l-5.94,0a4.252,4.252,0,0,1-4.249-4.252V500.746a1.416,1.416,0,0,1,1.42-1.417l8.717.016V489.283l-5.888,0a4.252,4.252,0,0,1-4.249-4.252V446.746a1.416,1.416,0,0,1,1.42-1.417l8.717.016V435.283l-5.888,0a4.252,4.252,0,0,1-4.249-4.252V392.746a1.418,1.418,0,0,1,1.42-1.417l8.717.017V381.282l-5.888,0a4.252,4.252,0,0,1-4.249-4.252V338.746a1.418,1.418,0,0,1,1.42-1.418l11.325.022v1.391h4.7v-4.623a1.043,1.043,0,0,1,1.043-1.043H73.743a1.043,1.043,0,0,1,1.043,1.043v5a1.043,1.043,0,0,1-1.043,1.043H65.834V352.45a7.438,7.438,0,0,1,0,12.228v9.5a4.252,4.252,0,0,1-4.252,4.252H59.026v8.647H73.743a1.043,1.043,0,0,1,1.043,1.044v5a1.043,1.043,0,0,1-1.043,1.043H65.834v12.291a7.438,7.438,0,0,1,0,12.228v9.5a4.251,4.251,0,0,1-4.252,4.252H59.026v8.646H73.743a1.043,1.043,0,0,1,1.043,1.043v5a1.043,1.043,0,0,1-1.043,1.043H65.834v12.293a7.438,7.438,0,0,1,0,12.228v9.5a4.252,4.252,0,0,1-4.252,4.252H59.026v8.65H73.752a1.043,1.043,0,0,1,1.043,1.043v5A1.043,1.043,0,0,1,73.752,502.163ZM38.915,41.75a1.416,1.416,0,0,1,1.42-1.417l11.325.021v1.391h4.7V37.12a1.044,1.044,0,0,1,1.044-1.043H73.745a1.043,1.043,0,0,1,1.043,1.043v5a1.043,1.043,0,0,1-1.043,1.043h-7.91V55.455a7.439,7.439,0,0,1,0,12.228v9.495a4.252,4.252,0,0,1-4.252,4.252H59.026v5.519H49.105V84.287l-5.941,0a4.251,4.251,0,0,1-4.249-4.252Zm-.009,229.5a1.417,1.417,0,0,1,1.42-1.417l8.726.017V259.785l-5.9,0a4.251,4.251,0,0,1-4.25-4.252V217.248a1.417,1.417,0,0,1,1.42-1.417l8.726.017V205.784l-5.9,0a4.251,4.251,0,0,1-4.25-4.252V163.247a1.417,1.417,0,0,1,1.42-1.417l8.726.016V151.785l-5.9,0a4.253,4.253,0,0,1-4.25-4.252V109.248a1.419,1.419,0,0,1,1.42-1.418l11.325.022v1.391h4.7v-4.624a1.043,1.043,0,0,1,1.043-1.043H73.734a1.043,1.043,0,0,1,1.043,1.043v5a1.043,1.043,0,0,1-1.043,1.043H65.826v12.29a7.437,7.437,0,0,1,0,12.227v9.5a4.252,4.252,0,0,1-4.252,4.252H59.017l.008,8.648H73.734a1.043,1.043,0,0,1,1.043,1.044v5a1.043,1.043,0,0,1-1.043,1.043H65.826v12.289a7.438,7.438,0,0,1,0,12.228v9.5a4.252,4.252,0,0,1-4.252,4.252H59.025v8.648H73.734a1.043,1.043,0,0,1,1.043,1.043v5a1.043,1.043,0,0,1-1.043,1.043H65.826v12.291a7.438,7.438,0,0,1,0,12.228v9.495a4.252,4.252,0,0,1-4.252,4.252H59.025v8.65H73.743a1.043,1.043,0,0,1,1.043,1.043v5a1.043,1.043,0,0,1-1.043,1.043H65.826v12.287a7.438,7.438,0,0,1,0,12.228v9.5a4.252,4.252,0,0,1-4.252,4.252H59.017v5.519H49.1v-2.662l-5.94,0a4.251,4.251,0,0,1-4.25-4.252Zm103.645,13.876a1.043,1.043,0,0,1-1.043,1.043h-8.172v12.288a7.439,7.439,0,0,1,0,12.228v9.5a4.252,4.252,0,0,1-4.252,4.252h-2.557l-.079,8.652H141.5a1.043,1.043,0,0,1,1.043,1.043v5a1.043,1.043,0,0,1-1.043,1.043h-8.163v12.285a7.439,7.439,0,0,1,0,12.227v9.5a4.252,4.252,0,0,1-4.252,4.252h-2.557l-.013,8.653H141.5a1.043,1.043,0,0,1,1.043,1.044v5a1.043,1.043,0,0,1-1.043,1.043h-8.163v12.285a7.439,7.439,0,0,1,0,12.228v9.5a4.252,4.252,0,0,1-4.252,4.252h-2.557l-.079,8.652H141.5a1.043,1.043,0,0,1,1.043,1.043v5a1.043,1.043,0,0,1-1.043,1.043h-8.163v12.287a7.439,7.439,0,0,1,0,12.228v9.5a4.252,4.252,0,0,1-4.252,4.252h-2.557l-.079,8.654h15.06a1.043,1.043,0,0,1,1.043,1.043v5a1.043,1.043,0,0,1-1.043,1.043h-8.172v12.286a7.439,7.439,0,0,1,0,12.227v9.5a4.252,4.252,0,0,1-4.252,4.252h-2.557l-.079,8.645h15.039a1.043,1.043,0,0,1,1.043,1.043v5a1.043,1.043,0,0,1-1.043,1.043h-8.151v12.293a7.439,7.439,0,0,1,0,12.228v9.5a4.252,4.252,0,0,1-4.252,4.252h-2.557l-.079,8.648H141.5a1.043,1.043,0,0,1,1.043,1.043v5a1.043,1.043,0,0,1-1.043,1.043h-8.16v12.29a7.439,7.439,0,0,1,0,12.228v9.5a4.252,4.252,0,0,1-4.252,4.252h-2.557v5.519h-9.921v-2.662l-3.924,0a5.67,5.67,0,0,0-5.673,5.669v17.9H119.16v1.391h4.954v-4.624a1.043,1.043,0,0,1,1.043-1.043H141.5a1.043,1.043,0,0,1,1.043,1.043v5a1.043,1.043,0,0,1-1.043,1.043h-8.161v12.289a7.439,7.439,0,0,1,0,12.228v9.5a4.252,4.252,0,0,1-4.252,4.252h-2.557v5.518h-9.921v-2.662h-12.1v12.968H99.775a3.514,3.514,0,0,1-6.25,0h-14.5l0-12.832H43.912v8.865a3.969,3.969,0,1,1-7.937,0V645.014a3.969,3.969,0,0,1,3.969-3.969h0V634.7H83.4v6.369a4.085,4.085,0,0,1,3.579,4.12v4.729h13.766a5.669,5.669,0,0,0,5.669-5.669v-35.5a1.416,1.416,0,0,1,1.42-1.417l8.837.017-.067-10.063-5.941,0a4.251,4.251,0,0,1-4.249-4.252V554.748a1.416,1.416,0,0,1,1.42-1.417l8.837.017-.067-10.062-5.941,0a4.252,4.252,0,0,1-4.249-4.252v-4.3H88.584a1.416,1.416,0,0,1-1.417-1.417V513.472a1.417,1.417,0,0,1,1.417-1.417h17.832V500.749a1.418,1.418,0,0,1,1.42-1.418l8.837.017-.067-10.063-5.941,0a4.252,4.252,0,0,1-4.249-4.252V446.748a1.416,1.416,0,0,1,1.42-1.417l8.837.017-.067-10.064-5.941,0a4.252,4.252,0,0,1-4.249-4.252V396.9H88.584a1.417,1.417,0,0,1-1.417-1.417V375.64a1.416,1.416,0,0,1,1.417-1.417h17.832V338.747a1.418,1.418,0,0,1,1.42-1.418l8.837.017-.067-10.061-5.941,0a4.252,4.252,0,0,1-4.249-4.252V284.748a1.418,1.418,0,0,1,1.42-1.418l8.837.017-.067-10.06-5.941,0a4.252,4.252,0,0,1-4.249-4.252v-9.942H88.584a1.416,1.416,0,0,1-1.417-1.417V237.83a1.417,1.417,0,0,1,1.417-1.418h17.832V230.75a1.416,1.416,0,0,1,1.42-1.417l8.837.016-.067-10.063-5.941,0a4.252,4.252,0,0,1-4.249-4.252V176.749a1.418,1.418,0,0,1,1.42-1.418l8.837.017-.067-10.062-5.941,0a4.251,4.251,0,0,1-4.249-4.251V124.516l-3.267-3.268H88.584a1.416,1.416,0,0,1-1.417-1.417V99.988a1.417,1.417,0,0,1,1.417-1.417H102.94l3.714-3.714a4.19,4.19,0,0,1-.234-1.33V55.246a1.417,1.417,0,0,1,1.421-1.417l11.325.021v1.391h4.952V50.617a1.043,1.043,0,0,1,1.043-1.043H141.5a1.043,1.043,0,0,1,1.043,1.043v5A1.043,1.043,0,0,1,141.5,56.66h-8.16V68.951a7.438,7.438,0,0,1,0,12.228v9.5a4.252,4.252,0,0,1-4.252,4.252h-2.556v5.519H116.61V97.783l-5.94,0c-.1,0-.2-.023-.3-.031l-3.358,3.358V118.15l3.2,3.2h8.948v1.39h4.956V118.12a1.043,1.043,0,0,1,1.043-1.043H141.5a1.043,1.043,0,0,1,1.043,1.043v5a1.043,1.043,0,0,1-1.043,1.043h-8.163v12.29a7.439,7.439,0,0,1,0,12.228v9.5a4.252,4.252,0,0,1-4.252,4.252h-2.557l-.079,8.649H141.5a1.043,1.043,0,0,1,1.043,1.043v5a1.043,1.043,0,0,1-1.043,1.043h-8.163v12.29a7.439,7.439,0,0,1,0,12.227v9.5a4.252,4.252,0,0,1-4.252,4.252h-2.557l-.079,8.647H141.5a1.043,1.043,0,0,1,1.043,1.043v5a1.043,1.043,0,0,1-1.043,1.043h-8.163v12.292a7.439,7.439,0,0,1,0,12.228v9.5a4.252,4.252,0,0,1-4.252,4.252h-2.557l-.079,8.649h15.06a1.043,1.043,0,0,1,1.043,1.043ZM87.474,628.34a5.811,5.811,0,1,1,5.811,5.811A5.811,5.811,0,0,1,87.474,628.34Zm62.807-498.93a9.213,9.213,0,1,1,9.213,9.212A9.213,9.213,0,0,1,150.281,129.41Zm4.155,26.882v-5a1.043,1.043,0,0,1,1.043-1.043h16.339a1.043,1.043,0,0,1,1.043,1.043v5a1.043,1.043,0,0,1-1.043,1.043H155.479A1.043,1.043,0,0,1,154.436,156.292Zm21.9,594.889a5.811,5.811,0,1,1,5.811-5.811A5.811,5.811,0,0,1,176.333,751.181Zm37.2-32.015a9.207,9.207,0,0,1-9.181-8.579l-.023,0-11.325-.022v-1.391h-5.674v9.248a4.252,4.252,0,0,1-4.252,4.252h-2.557V728.2H170.6v-2.662l-5.94,0a4.252,4.252,0,0,1-4.25-4.252V683a1.417,1.417,0,0,1,1.42-1.417l11.325.021v1.391h5.674v-9.248a4.252,4.252,0,0,1,4.252-4.252h2.557v-5.519h9.921v2.662l5.941,0a4.252,4.252,0,0,1,4.249,4.252v28.072a2.819,2.819,0,0,0,3.926,2.625,9.213,9.213,0,1,1,3.858,17.578Zm43.385-.709a8.5,8.5,0,1,1,8.5-8.5A8.5,8.5,0,0,1,256.922,718.457Zm47.364-116.088a1.043,1.043,0,0,1-1.043,1.043h-7.909V615.7a7.439,7.439,0,0,1,0,12.228v9.5a4.252,4.252,0,0,1-4.252,4.251h-2.557V647.2H278.6v-2.662l-4.645,0v30.307l7.2.014v1.391h4.7v-4.625a1.043,1.043,0,0,1,1.043-1.043h16.339a1.043,1.043,0,0,1,1.043,1.043v5a1.043,1.043,0,0,1-1.043,1.043h-7.909v12.291a7.439,7.439,0,0,1,0,12.228v9.5a4.252,4.252,0,0,1-4.252,4.252h-2.557v5.519H278.6v-2.662l-5.94,0a4.252,4.252,0,0,1-4.249-4.252V672.612H255.579a1.418,1.418,0,0,1-1.417-1.418V657.417H241.334v12.289a7.439,7.439,0,0,1,0,12.228v9.5a4.252,4.252,0,0,1-4.252,4.252h-2.557V701.2H224.6v-2.662l-5.941,0a4.252,4.252,0,0,1-4.249-4.252V656a1.416,1.416,0,0,1,1.42-1.417l11.325.021V656h4.7v-4.623a1.043,1.043,0,0,1,1.043-1.043l14.03-.018a2.822,2.822,0,0,0,2.507-4.139,8.46,8.46,0,0,1-1.012-4.45,8.709,8.709,0,0,1,8.8-8.094h11.183V602a1.418,1.418,0,0,1,1.42-1.417l11.325.022v1.39h4.7v-4.623a1.043,1.043,0,0,1,1.043-1.043h16.339a1.043,1.043,0,0,1,1.043,1.043Zm0-67.476a1.043,1.043,0,0,1-1.043,1.043h-7.909V548.2a7.437,7.437,0,0,1,0,12.227v9.5a4.252,4.252,0,0,1-4.252,4.252h-2.557V579.7H278.6v-2.661l-5.94,0a4.253,4.253,0,0,1-4.25-4.252V534.754H255.579a1.418,1.418,0,0,1-1.417-1.418V513.494a1.418,1.418,0,0,1,1.417-1.418h17.008a1.418,1.418,0,0,1,1.418,1.418v19.594l7.154.014v1.391h4.7v-4.6a1.043,1.043,0,0,1,1.043-1.044h16.339a1.043,1.043,0,0,1,1.043,1.044ZM258.263,480.35a9.213,9.213,0,1,1,15.432,6.782,9.213,9.213,0,1,1-12.439,0A9.175,9.175,0,0,1,258.263,480.35Zm0-67.821a9.213,9.213,0,1,1,9.212,9.213A9.212,9.212,0,0,1,258.263,412.529Zm28.567,27.7v-9.5a4.252,4.252,0,0,1,4.252-4.252h2.557v-5.519h9.921v2.662l5.941,0a4.251,4.251,0,0,1,4.249,4.252v38.281a1.416,1.416,0,0,1-1.42,1.417l-11.325-.022v-1.39H286.83v-13.71a7.439,7.439,0,0,1,0-12.228Zm-.918-41.244v-5a1.044,1.044,0,0,1,1.043-1.044h16.339a1.044,1.044,0,0,1,1.043,1.044v5a1.043,1.043,0,0,1-1.043,1.043H286.955A1.043,1.043,0,0,1,285.912,398.987Zm33.453,94.927a8.5,8.5,0,1,1-13.619-6.782,8.5,8.5,0,1,1,10.23,0A8.48,8.48,0,0,1,319.365,493.914Zm-8.5-72.881a8.5,8.5,0,1,1,8.5-8.5A8.5,8.5,0,0,1,310.861,421.033Zm0-67.023a8.5,8.5,0,1,1,8.5-8.5A8.5,8.5,0,0,1,310.861,354.01Zm2.892-68.337v45.5a1.417,1.417,0,0,1-1.42,1.417l-11.325-.021v-1.391h-5.674V345.7a7.438,7.438,0,0,1,0,12.228v9.5a4.252,4.252,0,0,1-4.252,4.252h-2.557l0,6.078h14.774a1.043,1.043,0,0,1,1.043,1.043v5a1.043,1.043,0,0,1-1.043,1.043H286.955a1.043,1.043,0,0,1-1.043-1.043l.015-6.6H278.6v-2.662l-4.6,0V395.5a1.417,1.417,0,0,1-1.418,1.417H255.579a1.417,1.417,0,0,1-1.417-1.417V375.661a1.418,1.418,0,0,1,1.417-1.417h10.1a2.869,2.869,0,0,0,2.781-3.365,4.255,4.255,0,0,1-.043-.6V354.671a9.4,9.4,0,0,1-.939.047,9.212,9.212,0,0,1-9.211-9.377,9.212,9.212,0,0,1,10.15-9V332a1.416,1.416,0,0,1,1.42-1.417l11.325.022v1.39h5.665l.01-14.527a7.438,7.438,0,0,1,0-12.228v-9.5a4.252,4.252,0,0,1,4.252-4.252h2.557V285.97h9.921v-3.933a8.5,8.5,0,1,1,10.188,3.636Zm-2.892-67.039a8.5,8.5,0,1,1,8.5-8.5A8.5,8.5,0,0,1,310.861,218.634Zm16.01,532.547a5.811,5.811,0,1,1,5.812-5.811A5.811,5.811,0,0,1,326.871,751.181Zm0-235.984a5.811,5.811,0,1,1,5.812-5.811A5.811,5.811,0,0,1,326.871,515.2Zm0-247.607a5.811,5.811,0,1,1,5.812-5.81A5.811,5.811,0,0,1,326.871,267.59Zm0-235.984a5.811,5.811,0,1,1,5.812-5.811A5.811,5.811,0,0,1,326.871,31.606Z" transform="translate(-14.031 -13.831)"/><path class="cls-1" d="M1025.77,14.173H724.127a11.339,11.339,0,0,0-11.338,11.339V745.653a11.338,11.338,0,0,0,11.338,11.339H1025.77a11.339,11.339,0,0,0,11.339-11.339V25.512A11.339,11.339,0,0,0,1025.77,14.173ZM874.949,22.819a2.977,2.977,0,1,1-2.977,2.976A2.975,2.975,0,0,1,874.949,22.819ZM724.429,748.346a2.976,2.976,0,1,1,2.976-2.976A2.976,2.976,0,0,1,724.429,748.346Zm0-235.984a2.977,2.977,0,1,1,2.976-2.976A2.976,2.976,0,0,1,724.429,512.362Zm0-247.606a2.977,2.977,0,1,1,2.976-2.976A2.977,2.977,0,0,1,724.429,264.756Zm0-235.984a2.977,2.977,0,1,1,2.976-2.977A2.977,2.977,0,0,1,724.429,28.772ZM788.616,616.5H731.781V559.665h56.834Zm0-67.5H731.781V330.165h56.834Zm0-229.5H731.781V100.665h56.834Zm0-229.5H731.781V33.165h56.834Zm86.333,658.346a2.976,2.976,0,1,1,2.976-2.976A2.976,2.976,0,0,1,874.949,748.346ZM1018.117,738H799.282V33.165h218.835Zm7.37,10.346a2.976,2.976,0,1,1,2.976-2.976A2.975,2.975,0,0,1,1025.487,748.346Zm0-235.984a2.977,2.977,0,1,1,2.976-2.976A2.975,2.975,0,0,1,1025.487,512.362Zm0-247.606a2.977,2.977,0,1,1,2.976-2.976A2.976,2.976,0,0,1,1025.487,264.756Zm0-235.984a2.977,2.977,0,1,1,2.976-2.977A2.976,2.976,0,0,1,1025.487,28.772Z" transform="translate(-14.031 -13.831)"/><path class="cls-1" d="M1179.6,19.509l-5.336-5.336V70.8h-56.835V14.174l-9.5,9.5-9.5-9.5V726.449a11.338,11.338,0,0,0,11.338,11.338h8.86l9.2-9.2a1.417,1.417,0,0,0-1-2.42h-9.406V620.975h56.835v97.617l5.337-5.337,5.329,5.329V14.18Zm-69.525,709.633a2.977,2.977,0,1,1,2.977-2.977A2.977,2.977,0,0,1,1110.076,729.142Zm0-235.984a2.977,2.977,0,1,1,2.977-2.977A2.977,2.977,0,0,1,1110.076,493.158Zm0-247.607a2.977,2.977,0,1,1,2.977-2.976A2.976,2.976,0,0,1,1110.076,245.551Zm64.188,351.744h-56.835V540.461h56.835Zm0-67.5h-56.835V310.961h56.835Zm0-229.5h-56.835V81.461h56.835Z" transform="translate(-14.031 -13.831)"/><path class="cls-1" d="M1078.6,460.166h-7.654v0l-9.5,9.5,9.5,9.5v56.834h0l-5.336,5.336,5.336,5.336V765.5H366.109V546.66h0v0l5.327-5.327L366.109,536v-.009h-7.37v-9.4a1.418,1.418,0,0,0-2.42-1l-9.2,9.2V773.148a11.339,11.339,0,0,0,11.338,11.339H1078.6a11.339,11.339,0,0,0,11.338-11.339V471.505A11.339,11.339,0,0,0,1078.6,460.166ZM358.739,775.841a2.977,2.977,0,1,1,2.976-2.976A2.977,2.977,0,0,1,358.739,775.841Zm0-150.538a2.977,2.977,0,1,1,2.976-2.976A2.977,2.977,0,0,1,358.739,625.3ZM594.723,775.841a2.977,2.977,0,1,1,2.976-2.976A2.977,2.977,0,0,1,594.723,775.841Zm247.606,0a2.977,2.977,0,1,1,2.976-2.976A2.976,2.976,0,0,1,842.329,775.841Zm235.984,0a2.977,2.977,0,1,1,2.977-2.976A2.977,2.977,0,0,1,1078.313,775.841Zm0-150.538a2.977,2.977,0,1,1,2.977-2.976A2.977,2.977,0,0,1,1078.313,625.3Zm0-150.52a2.977,2.977,0,1,1,2.977-2.977A2.977,2.977,0,0,1,1078.313,474.783Z" transform="translate(-14.031 -13.831)"/><path class="cls-1" d="M692.946,14.178H391.3a11.338,11.338,0,0,0-11.338,11.338V745.658A11.339,11.339,0,0,0,391.3,757h8.86l9.2-9.2a1.417,1.417,0,0,0-1-2.419h-7.544a9.147,9.147,0,0,0-1.86-5.529V640.185h56.835V742.541a2.835,2.835,0,0,1-2.835,2.835h-6.569a1.417,1.417,0,0,0-1,2.419l9.2,9.2H692.946a11.339,11.339,0,0,0,11.338-11.339V25.516A11.338,11.338,0,0,0,692.946,14.178ZM391.62,19.846a5.953,5.953,0,1,1-5.953,5.953A5.953,5.953,0,0,1,391.62,19.846Zm0,235.984a5.953,5.953,0,1,1-5.953,5.953A5.953,5.953,0,0,1,391.62,255.83Zm0,495.5a5.953,5.953,0,1,1,5.953-5.953A5.953,5.953,0,0,1,391.62,751.326Zm0-235.984a5.953,5.953,0,1,1,5.953-5.953A5.953,5.953,0,0,1,391.62,515.342Zm56.747,92.586H406.414V568.243h41.953Zm0-67.5H406.414V500.743h41.953Zm0-54H406.414V446.743h41.953Zm0-54H406.414V392.743h41.953Zm0-54H406.414V338.743h41.953Zm0-67.5H406.414V271.243h41.953Zm0-54H406.414V217.243h41.953Zm0-54H406.414V163.243h41.953Zm0-54H406.414V109.243h41.953Zm0-67.5H406.414V41.743h41.953ZM692.678,19.846a5.953,5.953,0,1,1-5.952,5.953A5.953,5.953,0,0,1,692.678,19.846Zm0,235.984a5.953,5.953,0,1,1-5.952,5.953A5.953,5.953,0,0,1,692.678,255.83ZM635.914,55.243h41.952V94.928H635.914Zm0,74.25h41.952v39.685H635.914ZM542.14,19.846a5.953,5.953,0,1,1-5.952,5.953A5.953,5.953,0,0,1,542.14,19.846ZM462.491,734.3a4.252,4.252,0,1,1,4.252-4.252A4.252,4.252,0,0,1,462.491,734.3Zm0-18.418a4.252,4.252,0,1,1,4.252-4.252A4.252,4.252,0,0,1,462.491,715.885Zm11.422-593.142,44.319,0v-5.128h1.416v-22.7l-45.735.007V55.243l44.319-.018v-5.3h10.817V48.493h39.685v1.429h6.191v13.9h8.124V61.993h39.685v1.825h6.183V86.957h-6.2v44.558h6.2v23.139h-6.181v21.274H581.913V154.653h-9.69v-13.9h-3.489v8.171H529.049v-8.171H514.733v21.67h-40.82Zm54,404.185V487.243h41.952v39.685Zm41.952,14.315v39.685H527.914V541.243Zm-41.952-68.315V433.243h41.952v39.685Zm0-54V379.243h41.952v39.685Zm0-54V325.243h41.952v39.685Zm0-54V271.243h41.952v39.685Zm0-54V217.243h41.952v39.685Zm0-54V163.243h41.952v39.685Zm-12.048,513H473.914V676.243h41.952Zm0-67.5H473.914V608.743h41.952Zm0-54H473.914V554.743h41.952Zm0-54H473.914V500.743h41.952Zm0-54H473.914V446.743h41.952Zm0-54H473.914V392.743h41.952Zm0-54H473.914V338.743h41.952Zm0-54H473.914V284.743h41.952Zm0-54H473.914V230.743h41.952Zm0-54H473.914V176.743h41.952Zm26.274,534.9a5.953,5.953,0,1,1,5.953-5.953A5.952,5.952,0,0,1,542.14,751.326Zm86.758-97.8h-6.2v44.559h6.2v23.139H609.343v1.131h-13v-1.131l-27.612-.025v1.478H527.913V669.493l45.709-.014V653.528h-1.416v-18.6l-44.293,0V595.243h41.953V630.4l26.478-.007v-1.18h13v1.18H628.9Zm-5.032-85.285v39.685H581.914V568.243Zm-41.952-14.315V514.243h41.952v39.685Zm95.952,162H635.914V676.243h41.952Zm0-74.25H635.914V601.993h41.952Zm0-67.5H635.914V534.493h41.952ZM682.972,221.7h-6.24v14.977H637.072v29.207h13.337v-1.179h13.013v1.179h19.55v23.139h-5.106v44.558h5.106v23.139h-6.24v14.957h-39.66v29.251h13.346v-1.18h13v1.18h19.555v23.138h-5.106v44.558h5.106l0,36.5H663.413v1.131h-13v-1.131H626.275V499.91l-44.363.018V460.243l45.783-.018v-14.3l-45.783.007V406.243l44.367.011v-5.325H627.7v-9l-45.784,0V352.243l44.367,0V337.909l-44.367.019V298.243H627.7v-9.218H626.28v-5.1l-44.367,0V244.243l45.784,0V229.932l-45.784,0V190.243h40.82v8.32h14.315v-1.57h39.685v1.57h6.239Zm9.706,529.625a5.953,5.953,0,1,1,5.953-5.953A5.952,5.952,0,0,1,692.678,751.326Zm0-235.984a5.953,5.953,0,1,1,5.953-5.953A5.952,5.952,0,0,1,692.678,515.342Z" transform="translate(-14.031 -13.831)"/></svg>