G04 #@! TF.GenerationSoftware,KiCad,Pcbnew,(5.1.9-0-10_14)*
G04 #@! TF.CreationDate,2021-12-01T15:47:24+09:00*
G04 #@! TF.ProjectId,slim_bottom_plate,736c696d-5f62-46f7-9474-6f6d5f706c61,1*
G04 #@! TF.SameCoordinates,PX1c9c380PY1c9c380*
G04 #@! TF.FileFunction,Profile,NP*
%FSLAX46Y46*%
G04 Gerber Fmt 4.6, Leading zero omitted, Abs format (unit mm)*
G04 Created by KiCad (PCBNEW (5.1.9-0-10_14)) date 2021-12-01 15:47:24*
%MOMM*%
%LPD*%
G01*
G04 APERTURE LIST*
G04 #@! TA.AperFunction,Profile*
%ADD10C,0.088000*%
G04 #@! TD*
G04 APERTURE END LIST*
D10*
X247592989Y-2012886D02*
X247590386Y-1909966D01*
X247590386Y-1909966D02*
X247582663Y-1808399D01*
X247582663Y-1808399D02*
X247569944Y-1708307D01*
X247569944Y-1708307D02*
X247552356Y-1609818D01*
X247552356Y-1609818D02*
X247530024Y-1513058D01*
X247530024Y-1513058D02*
X247503073Y-1418151D01*
X247503073Y-1418151D02*
X247471630Y-1325223D01*
X247471630Y-1325223D02*
X247435820Y-1234401D01*
X247435820Y-1234401D02*
X247395768Y-1145809D01*
X247395768Y-1145809D02*
X247351601Y-1059573D01*
X247351601Y-1059573D02*
X247303444Y-975820D01*
X247303444Y-975820D02*
X247251423Y-894674D01*
X247251423Y-894674D02*
X247195663Y-816262D01*
X247195663Y-816262D02*
X247136289Y-740709D01*
X247136289Y-740709D02*
X247073429Y-668140D01*
X247073429Y-668140D02*
X247007207Y-598682D01*
X247007207Y-598682D02*
X246937749Y-532460D01*
X246937749Y-532460D02*
X246865180Y-469599D01*
X246865180Y-469599D02*
X246789627Y-410226D01*
X246789627Y-410226D02*
X246711214Y-354466D01*
X246711214Y-354466D02*
X246630069Y-302444D01*
X246630069Y-302444D02*
X246546315Y-254287D01*
X246546315Y-254287D02*
X246460080Y-210120D01*
X246460080Y-210120D02*
X246371488Y-170068D01*
X246371488Y-170068D02*
X246280666Y-134258D01*
X246280666Y-134258D02*
X246187738Y-102815D01*
X246187738Y-102815D02*
X246092831Y-75864D01*
X246092831Y-75864D02*
X245996070Y-53532D01*
X245996070Y-53532D02*
X245897582Y-35944D01*
X245897582Y-35944D02*
X245797490Y-23225D01*
X245797490Y-23225D02*
X245695923Y-15502D01*
X245695923Y-15502D02*
X245593004Y-12900D01*
X247592989Y-98025393D02*
X247592989Y-2012886D01*
X245593004Y-100025400D02*
X245695923Y-100022797D01*
X245695923Y-100022797D02*
X245797490Y-100015074D01*
X245797490Y-100015074D02*
X245897582Y-100002355D01*
X245897582Y-100002355D02*
X245996070Y-99984767D01*
X245996070Y-99984767D02*
X246092831Y-99962435D01*
X246092831Y-99962435D02*
X246187738Y-99935484D01*
X246187738Y-99935484D02*
X246280666Y-99904041D01*
X246280666Y-99904041D02*
X246371488Y-99868231D01*
X246371488Y-99868231D02*
X246460080Y-99828179D01*
X246460080Y-99828179D02*
X246546315Y-99784012D01*
X246546315Y-99784012D02*
X246630069Y-99735854D01*
X246630069Y-99735854D02*
X246711214Y-99683833D01*
X246711214Y-99683833D02*
X246789627Y-99628072D01*
X246789627Y-99628072D02*
X246865180Y-99568699D01*
X246865180Y-99568699D02*
X246937749Y-99505838D01*
X246937749Y-99505838D02*
X247007207Y-99439615D01*
X247007207Y-99439615D02*
X247073429Y-99370156D01*
X247073429Y-99370156D02*
X247136289Y-99297587D01*
X247136289Y-99297587D02*
X247195663Y-99222033D01*
X247195663Y-99222033D02*
X247251423Y-99143620D01*
X247251423Y-99143620D02*
X247303444Y-99062474D01*
X247303444Y-99062474D02*
X247351601Y-98978719D01*
X247351601Y-98978719D02*
X247395768Y-98892483D01*
X247395768Y-98892483D02*
X247435820Y-98803890D01*
X247435820Y-98803890D02*
X247471630Y-98713066D01*
X247471630Y-98713066D02*
X247503073Y-98620137D01*
X247503073Y-98620137D02*
X247530024Y-98525229D01*
X247530024Y-98525229D02*
X247552356Y-98428467D01*
X247552356Y-98428467D02*
X247569944Y-98329976D01*
X247569944Y-98329976D02*
X247582663Y-98229883D01*
X247582663Y-98229883D02*
X247590386Y-98128314D01*
X247590386Y-98128314D02*
X247592989Y-98025393D01*
X1942975Y-100025400D02*
X245593004Y-100025400D01*
X-57011Y-98025393D02*
X-54409Y-98128314D01*
X-54409Y-98128314D02*
X-46686Y-98229883D01*
X-46686Y-98229883D02*
X-33967Y-98329976D01*
X-33967Y-98329976D02*
X-16379Y-98428467D01*
X-16379Y-98428467D02*
X5953Y-98525229D01*
X5953Y-98525229D02*
X32904Y-98620137D01*
X32904Y-98620137D02*
X64347Y-98713066D01*
X64347Y-98713066D02*
X100157Y-98803890D01*
X100157Y-98803890D02*
X140209Y-98892483D01*
X140209Y-98892483D02*
X184376Y-98978719D01*
X184376Y-98978719D02*
X232533Y-99062474D01*
X232533Y-99062474D02*
X284555Y-99143620D01*
X284555Y-99143620D02*
X340315Y-99222033D01*
X340315Y-99222033D02*
X399688Y-99297587D01*
X399688Y-99297587D02*
X462549Y-99370156D01*
X462549Y-99370156D02*
X528771Y-99439615D01*
X528771Y-99439615D02*
X598229Y-99505838D01*
X598229Y-99505838D02*
X670798Y-99568699D01*
X670798Y-99568699D02*
X746351Y-99628072D01*
X746351Y-99628072D02*
X824763Y-99683833D01*
X824763Y-99683833D02*
X905909Y-99735854D01*
X905909Y-99735854D02*
X989662Y-99784012D01*
X989662Y-99784012D02*
X1075898Y-99828179D01*
X1075898Y-99828179D02*
X1164490Y-99868231D01*
X1164490Y-99868231D02*
X1255312Y-99904041D01*
X1255312Y-99904041D02*
X1348240Y-99935484D01*
X1348240Y-99935484D02*
X1443147Y-99962435D01*
X1443147Y-99962435D02*
X1539907Y-99984767D01*
X1539907Y-99984767D02*
X1638396Y-100002355D01*
X1638396Y-100002355D02*
X1738488Y-100015074D01*
X1738488Y-100015074D02*
X1840055Y-100022797D01*
X1840055Y-100022797D02*
X1942975Y-100025400D01*
X-57011Y-2012886D02*
X-57011Y-98025393D01*
X1942975Y-12900D02*
X1840055Y-15502D01*
X1840055Y-15502D02*
X1738488Y-23225D01*
X1738488Y-23225D02*
X1638396Y-35944D01*
X1638396Y-35944D02*
X1539907Y-53532D01*
X1539907Y-53532D02*
X1443147Y-75864D01*
X1443147Y-75864D02*
X1348240Y-102815D01*
X1348240Y-102815D02*
X1255312Y-134258D01*
X1255312Y-134258D02*
X1164490Y-170068D01*
X1164490Y-170068D02*
X1075898Y-210120D01*
X1075898Y-210120D02*
X989662Y-254287D01*
X989662Y-254287D02*
X905909Y-302444D01*
X905909Y-302444D02*
X824763Y-354466D01*
X824763Y-354466D02*
X746351Y-410226D01*
X746351Y-410226D02*
X670798Y-469599D01*
X670798Y-469599D02*
X598229Y-532460D01*
X598229Y-532460D02*
X528771Y-598682D01*
X528771Y-598682D02*
X462549Y-668140D01*
X462549Y-668140D02*
X399688Y-740709D01*
X399688Y-740709D02*
X340315Y-816262D01*
X340315Y-816262D02*
X284555Y-894674D01*
X284555Y-894674D02*
X232533Y-975820D01*
X232533Y-975820D02*
X184376Y-1059573D01*
X184376Y-1059573D02*
X140209Y-1145809D01*
X140209Y-1145809D02*
X100157Y-1234401D01*
X100157Y-1234401D02*
X64347Y-1325223D01*
X64347Y-1325223D02*
X32904Y-1418151D01*
X32904Y-1418151D02*
X5953Y-1513058D01*
X5953Y-1513058D02*
X-16379Y-1609818D01*
X-16379Y-1609818D02*
X-33967Y-1708307D01*
X-33967Y-1708307D02*
X-46686Y-1808399D01*
X-46686Y-1808399D02*
X-54409Y-1909966D01*
X-54409Y-1909966D02*
X-57011Y-2012886D01*
X245593004Y-12900D02*
X1942975Y-12900D01*
X4600005Y-96420000D02*
X4594583Y-96527355D01*
X4594583Y-96527355D02*
X4578672Y-96631610D01*
X4578672Y-96631610D02*
X4552798Y-96732236D01*
X4552798Y-96732236D02*
X4517490Y-96828706D01*
X4517490Y-96828706D02*
X4473274Y-96920491D01*
X4473274Y-96920491D02*
X4420680Y-97007063D01*
X4420680Y-97007063D02*
X4360234Y-97087896D01*
X4360234Y-97087896D02*
X4292465Y-97162461D01*
X4292465Y-97162461D02*
X4217900Y-97230230D01*
X4217900Y-97230230D02*
X4137067Y-97290676D01*
X4137067Y-97290676D02*
X4050495Y-97343270D01*
X4050495Y-97343270D02*
X3958710Y-97387486D01*
X3958710Y-97387486D02*
X3862240Y-97422794D01*
X3862240Y-97422794D02*
X3761614Y-97448668D01*
X3761614Y-97448668D02*
X3657359Y-97464579D01*
X3657359Y-97464579D02*
X3550004Y-97470001D01*
X3550004Y-95370000D02*
X3657359Y-95375421D01*
X3657359Y-95375421D02*
X3761614Y-95391332D01*
X3761614Y-95391332D02*
X3862240Y-95417206D01*
X3862240Y-95417206D02*
X3958710Y-95452514D01*
X3958710Y-95452514D02*
X4050495Y-95496730D01*
X4050495Y-95496730D02*
X4137067Y-95549324D01*
X4137067Y-95549324D02*
X4217900Y-95609770D01*
X4217900Y-95609770D02*
X4292465Y-95677539D01*
X4292465Y-95677539D02*
X4360234Y-95752104D01*
X4360234Y-95752104D02*
X4420680Y-95832936D01*
X4420680Y-95832936D02*
X4473274Y-95919509D01*
X4473274Y-95919509D02*
X4517490Y-96011294D01*
X4517490Y-96011294D02*
X4552798Y-96107763D01*
X4552798Y-96107763D02*
X4578672Y-96208389D01*
X4578672Y-96208389D02*
X4594583Y-96312644D01*
X4594583Y-96312644D02*
X4600005Y-96420000D01*
X2500004Y-96420000D02*
X2505424Y-96312644D01*
X2505424Y-96312644D02*
X2521335Y-96208389D01*
X2521335Y-96208389D02*
X2547208Y-96107763D01*
X2547208Y-96107763D02*
X2582515Y-96011294D01*
X2582515Y-96011294D02*
X2626729Y-95919509D01*
X2626729Y-95919509D02*
X2679322Y-95832936D01*
X2679322Y-95832936D02*
X2739767Y-95752104D01*
X2739767Y-95752104D02*
X2807535Y-95677539D01*
X2807535Y-95677539D02*
X2882099Y-95609770D01*
X2882099Y-95609770D02*
X2962931Y-95549324D01*
X2962931Y-95549324D02*
X3049503Y-95496730D01*
X3049503Y-95496730D02*
X3141289Y-95452514D01*
X3141289Y-95452514D02*
X3237759Y-95417206D01*
X3237759Y-95417206D02*
X3338387Y-95391332D01*
X3338387Y-95391332D02*
X3442644Y-95375421D01*
X3442644Y-95375421D02*
X3550004Y-95370000D01*
X3550004Y-97470001D02*
X3442644Y-97464579D01*
X3442644Y-97464579D02*
X3338387Y-97448668D01*
X3338387Y-97448668D02*
X3237759Y-97422794D01*
X3237759Y-97422794D02*
X3141289Y-97387486D01*
X3141289Y-97387486D02*
X3049503Y-97343270D01*
X3049503Y-97343270D02*
X2962931Y-97290676D01*
X2962931Y-97290676D02*
X2882099Y-97230230D01*
X2882099Y-97230230D02*
X2807535Y-97162461D01*
X2807535Y-97162461D02*
X2739767Y-97087896D01*
X2739767Y-97087896D02*
X2679322Y-97007063D01*
X2679322Y-97007063D02*
X2626729Y-96920491D01*
X2626729Y-96920491D02*
X2582515Y-96828706D01*
X2582515Y-96828706D02*
X2547208Y-96732236D01*
X2547208Y-96732236D02*
X2521335Y-96631610D01*
X2521335Y-96631610D02*
X2505424Y-96527355D01*
X2505424Y-96527355D02*
X2500004Y-96420000D01*
X9431967Y-20279127D02*
X9431967Y-23679135D01*
X8431963Y-19279145D02*
X8534208Y-19284307D01*
X8534208Y-19284307D02*
X8633500Y-19299461D01*
X8633500Y-19299461D02*
X8729335Y-19324102D01*
X8729335Y-19324102D02*
X8821211Y-19357729D01*
X8821211Y-19357729D02*
X8908626Y-19399838D01*
X8908626Y-19399838D02*
X8991076Y-19449927D01*
X8991076Y-19449927D02*
X9068060Y-19507493D01*
X9068060Y-19507493D02*
X9139074Y-19572034D01*
X9139074Y-19572034D02*
X9203616Y-19643047D01*
X9203616Y-19643047D02*
X9261183Y-19720029D01*
X9261183Y-19720029D02*
X9311272Y-19802478D01*
X9311272Y-19802478D02*
X9353382Y-19889890D01*
X9353382Y-19889890D02*
X9387009Y-19981764D01*
X9387009Y-19981764D02*
X9411650Y-20077597D01*
X9411650Y-20077597D02*
X9426804Y-20176885D01*
X9426804Y-20176885D02*
X9431967Y-20279127D01*
X2431963Y-19279145D02*
X8431963Y-19279145D01*
X1431981Y-20279148D02*
X1437140Y-20176902D01*
X1437140Y-20176902D02*
X1452291Y-20077611D01*
X1452291Y-20077611D02*
X1476930Y-19981775D01*
X1476930Y-19981775D02*
X1510556Y-19889899D01*
X1510556Y-19889899D02*
X1552665Y-19802485D01*
X1552665Y-19802485D02*
X1602754Y-19720034D01*
X1602754Y-19720034D02*
X1660321Y-19643051D01*
X1660321Y-19643051D02*
X1724862Y-19572037D01*
X1724862Y-19572037D02*
X1795876Y-19507495D01*
X1795876Y-19507495D02*
X1872860Y-19449928D01*
X1872860Y-19449928D02*
X1955310Y-19399839D01*
X1955310Y-19399839D02*
X2042723Y-19357729D01*
X2042723Y-19357729D02*
X2134598Y-19324102D01*
X2134598Y-19324102D02*
X2230432Y-19299461D01*
X2230432Y-19299461D02*
X2329721Y-19284307D01*
X2329721Y-19284307D02*
X2431963Y-19279145D01*
X1431981Y-23679135D02*
X1431981Y-20279148D01*
X2431963Y-24679138D02*
X2329721Y-24673975D01*
X2329721Y-24673975D02*
X2230433Y-24658821D01*
X2230433Y-24658821D02*
X2134600Y-24634180D01*
X2134600Y-24634180D02*
X2042726Y-24600553D01*
X2042726Y-24600553D02*
X1955314Y-24558444D01*
X1955314Y-24558444D02*
X1872865Y-24508354D01*
X1872865Y-24508354D02*
X1795883Y-24450787D01*
X1795883Y-24450787D02*
X1724870Y-24386246D01*
X1724870Y-24386246D02*
X1660329Y-24315232D01*
X1660329Y-24315232D02*
X1602763Y-24238248D01*
X1602763Y-24238248D02*
X1552674Y-24155798D01*
X1552674Y-24155798D02*
X1510565Y-24068383D01*
X1510565Y-24068383D02*
X1476938Y-23976507D01*
X1476938Y-23976507D02*
X1452297Y-23880672D01*
X1452297Y-23880672D02*
X1437143Y-23781380D01*
X1437143Y-23781380D02*
X1431981Y-23679135D01*
X8431963Y-24679138D02*
X2431963Y-24679138D01*
X9431967Y-23679135D02*
X9426804Y-23781380D01*
X9426804Y-23781380D02*
X9411650Y-23880672D01*
X9411650Y-23880672D02*
X9387009Y-23976507D01*
X9387009Y-23976507D02*
X9353382Y-24068383D01*
X9353382Y-24068383D02*
X9311272Y-24155798D01*
X9311272Y-24155798D02*
X9261183Y-24238248D01*
X9261183Y-24238248D02*
X9203616Y-24315232D01*
X9203616Y-24315232D02*
X9139074Y-24386246D01*
X9139074Y-24386246D02*
X9068060Y-24450787D01*
X9068060Y-24450787D02*
X8991076Y-24508354D01*
X8991076Y-24508354D02*
X8908626Y-24558444D01*
X8908626Y-24558444D02*
X8821211Y-24600553D01*
X8821211Y-24600553D02*
X8729335Y-24634180D01*
X8729335Y-24634180D02*
X8633500Y-24658821D01*
X8633500Y-24658821D02*
X8534208Y-24673975D01*
X8534208Y-24673975D02*
X8431963Y-24679138D01*
X81143675Y-42871998D02*
X81138253Y-42979353D01*
X81138253Y-42979353D02*
X81122342Y-43083608D01*
X81122342Y-43083608D02*
X81096468Y-43184234D01*
X81096468Y-43184234D02*
X81061160Y-43280704D01*
X81061160Y-43280704D02*
X81016944Y-43372489D01*
X81016944Y-43372489D02*
X80964350Y-43459061D01*
X80964350Y-43459061D02*
X80903904Y-43539894D01*
X80903904Y-43539894D02*
X80836135Y-43614459D01*
X80836135Y-43614459D02*
X80761570Y-43682228D01*
X80761570Y-43682228D02*
X80680737Y-43742674D01*
X80680737Y-43742674D02*
X80594165Y-43795268D01*
X80594165Y-43795268D02*
X80502380Y-43839484D01*
X80502380Y-43839484D02*
X80405910Y-43874792D01*
X80405910Y-43874792D02*
X80305284Y-43900666D01*
X80305284Y-43900666D02*
X80201029Y-43916577D01*
X80201029Y-43916577D02*
X80093674Y-43921999D01*
X80093674Y-41821998D02*
X80201029Y-41827419D01*
X80201029Y-41827419D02*
X80305284Y-41843330D01*
X80305284Y-41843330D02*
X80405910Y-41869204D01*
X80405910Y-41869204D02*
X80502380Y-41904512D01*
X80502380Y-41904512D02*
X80594165Y-41948728D01*
X80594165Y-41948728D02*
X80680737Y-42001322D01*
X80680737Y-42001322D02*
X80761570Y-42061768D01*
X80761570Y-42061768D02*
X80836135Y-42129537D01*
X80836135Y-42129537D02*
X80903904Y-42204102D01*
X80903904Y-42204102D02*
X80964350Y-42284934D01*
X80964350Y-42284934D02*
X81016944Y-42371507D01*
X81016944Y-42371507D02*
X81061160Y-42463292D01*
X81061160Y-42463292D02*
X81096468Y-42559761D01*
X81096468Y-42559761D02*
X81122342Y-42660387D01*
X81122342Y-42660387D02*
X81138253Y-42764642D01*
X81138253Y-42764642D02*
X81143675Y-42871998D01*
X79043674Y-42871998D02*
X79049095Y-42764642D01*
X79049095Y-42764642D02*
X79065006Y-42660387D01*
X79065006Y-42660387D02*
X79090880Y-42559761D01*
X79090880Y-42559761D02*
X79126188Y-42463292D01*
X79126188Y-42463292D02*
X79170404Y-42371507D01*
X79170404Y-42371507D02*
X79222998Y-42284934D01*
X79222998Y-42284934D02*
X79283444Y-42204102D01*
X79283444Y-42204102D02*
X79351213Y-42129537D01*
X79351213Y-42129537D02*
X79425778Y-42061768D01*
X79425778Y-42061768D02*
X79506610Y-42001322D01*
X79506610Y-42001322D02*
X79593183Y-41948728D01*
X79593183Y-41948728D02*
X79684968Y-41904512D01*
X79684968Y-41904512D02*
X79781437Y-41869204D01*
X79781437Y-41869204D02*
X79882063Y-41843330D01*
X79882063Y-41843330D02*
X79986318Y-41827419D01*
X79986318Y-41827419D02*
X80093674Y-41821998D01*
X80093674Y-43921999D02*
X79986318Y-43916577D01*
X79986318Y-43916577D02*
X79882063Y-43900666D01*
X79882063Y-43900666D02*
X79781437Y-43874792D01*
X79781437Y-43874792D02*
X79684968Y-43839484D01*
X79684968Y-43839484D02*
X79593183Y-43795268D01*
X79593183Y-43795268D02*
X79506610Y-43742674D01*
X79506610Y-43742674D02*
X79425778Y-43682228D01*
X79425778Y-43682228D02*
X79351213Y-43614459D01*
X79351213Y-43614459D02*
X79283444Y-43539894D01*
X79283444Y-43539894D02*
X79222998Y-43459061D01*
X79222998Y-43459061D02*
X79170404Y-43372489D01*
X79170404Y-43372489D02*
X79126188Y-43280704D01*
X79126188Y-43280704D02*
X79090880Y-43184234D01*
X79090880Y-43184234D02*
X79065006Y-43083608D01*
X79065006Y-43083608D02*
X79049095Y-42979353D01*
X79049095Y-42979353D02*
X79043674Y-42871998D01*
X123590825Y-96420000D02*
X123585403Y-96527355D01*
X123585403Y-96527355D02*
X123569492Y-96631610D01*
X123569492Y-96631610D02*
X123543618Y-96732236D01*
X123543618Y-96732236D02*
X123508310Y-96828706D01*
X123508310Y-96828706D02*
X123464095Y-96920491D01*
X123464095Y-96920491D02*
X123411500Y-97007063D01*
X123411500Y-97007063D02*
X123351055Y-97087896D01*
X123351055Y-97087896D02*
X123283286Y-97162461D01*
X123283286Y-97162461D02*
X123208721Y-97230230D01*
X123208721Y-97230230D02*
X123127888Y-97290676D01*
X123127888Y-97290676D02*
X123041316Y-97343270D01*
X123041316Y-97343270D02*
X122949531Y-97387486D01*
X122949531Y-97387486D02*
X122853061Y-97422794D01*
X122853061Y-97422794D02*
X122752435Y-97448668D01*
X122752435Y-97448668D02*
X122648180Y-97464579D01*
X122648180Y-97464579D02*
X122540825Y-97470001D01*
X122540825Y-95370000D02*
X122648180Y-95375421D01*
X122648180Y-95375421D02*
X122752435Y-95391332D01*
X122752435Y-95391332D02*
X122853061Y-95417206D01*
X122853061Y-95417206D02*
X122949531Y-95452514D01*
X122949531Y-95452514D02*
X123041316Y-95496730D01*
X123041316Y-95496730D02*
X123127888Y-95549324D01*
X123127888Y-95549324D02*
X123208721Y-95609770D01*
X123208721Y-95609770D02*
X123283286Y-95677539D01*
X123283286Y-95677539D02*
X123351055Y-95752104D01*
X123351055Y-95752104D02*
X123411500Y-95832936D01*
X123411500Y-95832936D02*
X123464095Y-95919509D01*
X123464095Y-95919509D02*
X123508310Y-96011294D01*
X123508310Y-96011294D02*
X123543618Y-96107763D01*
X123543618Y-96107763D02*
X123569492Y-96208389D01*
X123569492Y-96208389D02*
X123585403Y-96312644D01*
X123585403Y-96312644D02*
X123590825Y-96420000D01*
X121490824Y-96420000D02*
X121496245Y-96312644D01*
X121496245Y-96312644D02*
X121512156Y-96208389D01*
X121512156Y-96208389D02*
X121538030Y-96107763D01*
X121538030Y-96107763D02*
X121573338Y-96011294D01*
X121573338Y-96011294D02*
X121617554Y-95919509D01*
X121617554Y-95919509D02*
X121670148Y-95832936D01*
X121670148Y-95832936D02*
X121730594Y-95752104D01*
X121730594Y-95752104D02*
X121798363Y-95677539D01*
X121798363Y-95677539D02*
X121872928Y-95609770D01*
X121872928Y-95609770D02*
X121953761Y-95549324D01*
X121953761Y-95549324D02*
X122040333Y-95496730D01*
X122040333Y-95496730D02*
X122132118Y-95452514D01*
X122132118Y-95452514D02*
X122228588Y-95417206D01*
X122228588Y-95417206D02*
X122329214Y-95391332D01*
X122329214Y-95391332D02*
X122433469Y-95375421D01*
X122433469Y-95375421D02*
X122540825Y-95370000D01*
X122540825Y-97470001D02*
X122433469Y-97464579D01*
X122433469Y-97464579D02*
X122329214Y-97448668D01*
X122329214Y-97448668D02*
X122228588Y-97422794D01*
X122228588Y-97422794D02*
X122132118Y-97387486D01*
X122132118Y-97387486D02*
X122040333Y-97343270D01*
X122040333Y-97343270D02*
X121953761Y-97290676D01*
X121953761Y-97290676D02*
X121872928Y-97230230D01*
X121872928Y-97230230D02*
X121798363Y-97162461D01*
X121798363Y-97162461D02*
X121730594Y-97087896D01*
X121730594Y-97087896D02*
X121670148Y-97007063D01*
X121670148Y-97007063D02*
X121617554Y-96920491D01*
X121617554Y-96920491D02*
X121573338Y-96828706D01*
X121573338Y-96828706D02*
X121538030Y-96732236D01*
X121538030Y-96732236D02*
X121512156Y-96631610D01*
X121512156Y-96631610D02*
X121496245Y-96527355D01*
X121496245Y-96527355D02*
X121490824Y-96420000D01*
X168493769Y-42871998D02*
X168488348Y-42979353D01*
X168488348Y-42979353D02*
X168472437Y-43083608D01*
X168472437Y-43083608D02*
X168446564Y-43184234D01*
X168446564Y-43184234D02*
X168411257Y-43280704D01*
X168411257Y-43280704D02*
X168367043Y-43372489D01*
X168367043Y-43372489D02*
X168314450Y-43459061D01*
X168314450Y-43459061D02*
X168254005Y-43539894D01*
X168254005Y-43539894D02*
X168186237Y-43614459D01*
X168186237Y-43614459D02*
X168111673Y-43682228D01*
X168111673Y-43682228D02*
X168030841Y-43742674D01*
X168030841Y-43742674D02*
X167944269Y-43795268D01*
X167944269Y-43795268D02*
X167852483Y-43839484D01*
X167852483Y-43839484D02*
X167756013Y-43874792D01*
X167756013Y-43874792D02*
X167655385Y-43900666D01*
X167655385Y-43900666D02*
X167551128Y-43916577D01*
X167551128Y-43916577D02*
X167443769Y-43921999D01*
X167443769Y-41821998D02*
X167551128Y-41827419D01*
X167551128Y-41827419D02*
X167655385Y-41843330D01*
X167655385Y-41843330D02*
X167756013Y-41869204D01*
X167756013Y-41869204D02*
X167852483Y-41904512D01*
X167852483Y-41904512D02*
X167944269Y-41948728D01*
X167944269Y-41948728D02*
X168030841Y-42001322D01*
X168030841Y-42001322D02*
X168111673Y-42061768D01*
X168111673Y-42061768D02*
X168186237Y-42129537D01*
X168186237Y-42129537D02*
X168254005Y-42204102D01*
X168254005Y-42204102D02*
X168314450Y-42284934D01*
X168314450Y-42284934D02*
X168367043Y-42371507D01*
X168367043Y-42371507D02*
X168411257Y-42463292D01*
X168411257Y-42463292D02*
X168446564Y-42559761D01*
X168446564Y-42559761D02*
X168472437Y-42660387D01*
X168472437Y-42660387D02*
X168488348Y-42764642D01*
X168488348Y-42764642D02*
X168493769Y-42871998D01*
X166393768Y-42871998D02*
X166399189Y-42764642D01*
X166399189Y-42764642D02*
X166415100Y-42660387D01*
X166415100Y-42660387D02*
X166440974Y-42559761D01*
X166440974Y-42559761D02*
X166476282Y-42463292D01*
X166476282Y-42463292D02*
X166520498Y-42371507D01*
X166520498Y-42371507D02*
X166573092Y-42284934D01*
X166573092Y-42284934D02*
X166633538Y-42204102D01*
X166633538Y-42204102D02*
X166701307Y-42129537D01*
X166701307Y-42129537D02*
X166775872Y-42061768D01*
X166775872Y-42061768D02*
X166856705Y-42001322D01*
X166856705Y-42001322D02*
X166943277Y-41948728D01*
X166943277Y-41948728D02*
X167035062Y-41904512D01*
X167035062Y-41904512D02*
X167131532Y-41869204D01*
X167131532Y-41869204D02*
X167232158Y-41843330D01*
X167232158Y-41843330D02*
X167336413Y-41827419D01*
X167336413Y-41827419D02*
X167443769Y-41821998D01*
X167443769Y-43921999D02*
X167336413Y-43916577D01*
X167336413Y-43916577D02*
X167232158Y-43900666D01*
X167232158Y-43900666D02*
X167131532Y-43874792D01*
X167131532Y-43874792D02*
X167035062Y-43839484D01*
X167035062Y-43839484D02*
X166943277Y-43795268D01*
X166943277Y-43795268D02*
X166856705Y-43742674D01*
X166856705Y-43742674D02*
X166775872Y-43682228D01*
X166775872Y-43682228D02*
X166701307Y-43614459D01*
X166701307Y-43614459D02*
X166633538Y-43539894D01*
X166633538Y-43539894D02*
X166573092Y-43459061D01*
X166573092Y-43459061D02*
X166520498Y-43372489D01*
X166520498Y-43372489D02*
X166476282Y-43280704D01*
X166476282Y-43280704D02*
X166440974Y-43184234D01*
X166440974Y-43184234D02*
X166415100Y-43083608D01*
X166415100Y-43083608D02*
X166399189Y-42979353D01*
X166399189Y-42979353D02*
X166393768Y-42871998D01*
X243990001Y-97470001D02*
X243882645Y-97464579D01*
X243882645Y-97464579D02*
X243778390Y-97448668D01*
X243778390Y-97448668D02*
X243677764Y-97422794D01*
X243677764Y-97422794D02*
X243581294Y-97387486D01*
X243581294Y-97387486D02*
X243489509Y-97343270D01*
X243489509Y-97343270D02*
X243402937Y-97290676D01*
X243402937Y-97290676D02*
X243322104Y-97230230D01*
X243322104Y-97230230D02*
X243247539Y-97162461D01*
X243247539Y-97162461D02*
X243179770Y-97087896D01*
X243179770Y-97087896D02*
X243119324Y-97007063D01*
X243119324Y-97007063D02*
X243066730Y-96920491D01*
X243066730Y-96920491D02*
X243022514Y-96828706D01*
X243022514Y-96828706D02*
X242987206Y-96732236D01*
X242987206Y-96732236D02*
X242961332Y-96631610D01*
X242961332Y-96631610D02*
X242945421Y-96527355D01*
X242945421Y-96527355D02*
X242940000Y-96420000D01*
X243990001Y-95370000D02*
X244097356Y-95375421D01*
X244097356Y-95375421D02*
X244201611Y-95391332D01*
X244201611Y-95391332D02*
X244302237Y-95417206D01*
X244302237Y-95417206D02*
X244398707Y-95452514D01*
X244398707Y-95452514D02*
X244490492Y-95496730D01*
X244490492Y-95496730D02*
X244577064Y-95549324D01*
X244577064Y-95549324D02*
X244657897Y-95609770D01*
X244657897Y-95609770D02*
X244732462Y-95677539D01*
X244732462Y-95677539D02*
X244800231Y-95752104D01*
X244800231Y-95752104D02*
X244860676Y-95832936D01*
X244860676Y-95832936D02*
X244913271Y-95919509D01*
X244913271Y-95919509D02*
X244957486Y-96011294D01*
X244957486Y-96011294D02*
X244992794Y-96107763D01*
X244992794Y-96107763D02*
X245018668Y-96208389D01*
X245018668Y-96208389D02*
X245034579Y-96312644D01*
X245034579Y-96312644D02*
X245040001Y-96420000D01*
X245040001Y-96420000D02*
X245034579Y-96527355D01*
X245034579Y-96527355D02*
X245018668Y-96631610D01*
X245018668Y-96631610D02*
X244992794Y-96732236D01*
X244992794Y-96732236D02*
X244957486Y-96828706D01*
X244957486Y-96828706D02*
X244913271Y-96920491D01*
X244913271Y-96920491D02*
X244860676Y-97007063D01*
X244860676Y-97007063D02*
X244800231Y-97087896D01*
X244800231Y-97087896D02*
X244732462Y-97162461D01*
X244732462Y-97162461D02*
X244657897Y-97230230D01*
X244657897Y-97230230D02*
X244577064Y-97290676D01*
X244577064Y-97290676D02*
X244490492Y-97343270D01*
X244490492Y-97343270D02*
X244398707Y-97387486D01*
X244398707Y-97387486D02*
X244302237Y-97422794D01*
X244302237Y-97422794D02*
X244201611Y-97448668D01*
X244201611Y-97448668D02*
X244097356Y-97464579D01*
X244097356Y-97464579D02*
X243990001Y-97470001D01*
X242940000Y-96420000D02*
X242945421Y-96312644D01*
X242945421Y-96312644D02*
X242961332Y-96208389D01*
X242961332Y-96208389D02*
X242987206Y-96107763D01*
X242987206Y-96107763D02*
X243022514Y-96011294D01*
X243022514Y-96011294D02*
X243066730Y-95919509D01*
X243066730Y-95919509D02*
X243119324Y-95832936D01*
X243119324Y-95832936D02*
X243179770Y-95752104D01*
X243179770Y-95752104D02*
X243247539Y-95677539D01*
X243247539Y-95677539D02*
X243322104Y-95609770D01*
X243322104Y-95609770D02*
X243402937Y-95549324D01*
X243402937Y-95549324D02*
X243489509Y-95496730D01*
X243489509Y-95496730D02*
X243581294Y-95452514D01*
X243581294Y-95452514D02*
X243677764Y-95417206D01*
X243677764Y-95417206D02*
X243778390Y-95391332D01*
X243778390Y-95391332D02*
X243882645Y-95375421D01*
X243882645Y-95375421D02*
X243990001Y-95370000D01*
M02*
