<?xml version="1.0" encoding="utf-8"?>
<!-- Generator: Adobe Illustrator 25.2.3, SVG Export Plug-In . SVG Version: 6.00 Build 0)  -->
<svg version="1.1" xmlns="http://www.w3.org/2000/svg" xmlns:xlink="http://www.w3.org/1999/xlink" x="0px" y="0px"
	 viewBox="0 0 283.46 283.46" style="enable-background:new 0 0 283.46 283.46;" xml:space="preserve">
<style type="text/css">
	.st0{fill:#FF0000;}
	.st1{font-family:'ArialMT';}
	.st2{font-size:10px;}
</style>
<g id="cut">
	<path d="M283.06,242.05l-11.07-62.76c-0.24-1.35-1.42-2.34-2.79-2.34h-52.68c-1.57,0-2.83-1.27-2.83-2.83v-8.57
		c0-4.13-2.97-7.66-7.03-8.38l-103.33-18.14c-1.54-0.27-3.01,0.76-3.28,2.3l-8.23,46.66l-9.31-1.64l-8.82-6.79l-14.72-2.6l-44.5,0
		c-1.38,0-2.55,0.99-2.79,2.34l-11.1,62.75c-0.27,1.54,0.76,3.01,2.3,3.29l21.89,3.85l10.28-2.17l25.77,4.69v19.05h21.72l3.28,5.05
		l28.62,7.65h54.83l28.57-7.65l3.27-5.05h21.82V251.7l25.71-4.68l10.23,2.17l21.87-3.85C282.3,245.06,283.33,243.59,283.06,242.05z
		 M66.98,213.64c-1.57,0-2.83-1.27-2.83-2.83c0-1.57,1.27-2.83,2.83-2.83c1.57,0,2.83,1.27,2.83,2.83
		C69.82,212.38,68.55,213.64,66.98,213.64z M124.74,219.83c0,1.83-1.34,3.31-3,3.31h-19.51c-1.66,0-3-1.48-3-3.31V206.6
		c0-1.83,1.34-3.31,3-3.31l19.51,0c1.66,0,3,1.48,3,3.31V219.83z M141.82,274.71c-1.57,0-2.83-1.27-2.83-2.83
		c0-1.57,1.27-2.83,2.83-2.83s2.83,1.27,2.83,2.83C144.65,273.44,143.39,274.71,141.82,274.71z M216.66,213.65
		c-1.57,0-2.83-1.27-2.83-2.83c0-1.57,1.27-2.83,2.83-2.83s2.83,1.27,2.83,2.83C219.49,212.38,218.22,213.65,216.66,213.65z"/>
	<path d="M282.97,86.67l-11.07-62.76c-0.24-1.35-1.42-2.34-2.79-2.34l-52.68,0c-1.57,0-2.83-1.27-2.83-2.83v-8.57
		c0-4.13-2.97-7.66-7.03-8.38l-10-1.76c-1.16-0.2-2.26,0.57-2.46,1.72l-8.46,47.99c-0.14,0.77-0.87,1.29-1.64,1.15L84.11,33.29
		c-1.09-0.19-1.81-1.23-1.62-2.31l-0.06-0.01l-8.82-6.79l-14.72-2.6l-44.5,0c-1.38,0-2.55,0.99-2.79,2.34L0.49,86.67
		c-0.27,1.54,0.76,3.01,2.3,3.29l21.89,3.85l10.28-2.17l25.77,4.69l0,19.05l21.72,0l3.28,5.05l28.62,7.65l54.83,0l28.57-7.65
		l3.27-5.05l21.82,0V96.32l25.71-4.68l10.23,2.17l21.87-3.85C282.21,89.68,283.24,88.21,282.97,86.67z M49.5,78.22l-38.8-6.84
		l6.84-38.8l38.8,6.84L49.5,78.22z M98.68,42.67c1.57,0,2.83,1.27,2.83,2.83s-1.27,2.83-2.83,2.83c-1.57,0-2.83-1.27-2.83-2.83
		S97.11,42.67,98.68,42.67z M64.06,55.43c0-1.57,1.27-2.83,2.83-2.83c1.57,0,2.83,1.27,2.83,2.83c0,1.57-1.27,2.83-2.83,2.83
		C65.33,58.27,64.06,57,64.06,55.43z M68.03,108.08l0-39.4l39.4,0l0,39.4L68.03,108.08z M130.55,48.34c1.57,0,2.83,1.27,2.83,2.83
		c0,1.57-1.27,2.83-2.83,2.83c-1.57,0-2.83-1.27-2.83-2.83C127.72,49.61,128.99,48.34,130.55,48.34z M141.73,119.33
		c-1.57,0-2.83-1.27-2.83-2.83s1.27-2.83,2.83-2.83s2.83,1.27,2.83,2.83S143.3,119.33,141.73,119.33z M161.43,108.08l-39.4,0l0-39.4
		l39.4,0L161.43,108.08z M205.1,7.39c1.57,0,2.83,1.27,2.83,2.83c0,1.57-1.27,2.83-2.83,2.83c-1.57,0-2.83-1.27-2.83-2.83
		C202.26,8.65,203.53,7.39,205.1,7.39z M215.43,108.08l-39.4,0l0-39.4l39.4,0L215.43,108.08z M216.57,58.27
		c-1.57,0-2.83-1.27-2.83-2.83c0-1.57,1.27-2.83,2.83-2.83s2.83,1.27,2.83,2.83C219.4,57,218.13,58.27,216.57,58.27z M234.03,78.42
		l-6.84-38.8l38.8-6.84l6.84,38.8L234.03,78.42z"/>
</g>
<g id="Graving">
	<g>
		<path class="st0" d="M177.45,142.77v-7.71h3.28c0.82,0,1.42,0.07,1.8,0.21c0.37,0.14,0.67,0.38,0.9,0.74
			c0.22,0.35,0.34,0.76,0.34,1.21c0,0.58-0.17,1.06-0.51,1.43c-0.34,0.38-0.85,0.61-1.52,0.71c0.34,0.2,0.61,0.41,0.83,0.65
			c0.22,0.23,0.51,0.65,0.89,1.25l0.94,1.5h-1.86l-1.13-1.68c-0.4-0.6-0.67-0.98-0.82-1.13c-0.15-0.16-0.3-0.26-0.47-0.32
			c-0.16-0.06-0.43-0.09-0.78-0.09H179v3.22H177.45z M179,138.32h1.15c0.75,0,1.21-0.03,1.4-0.09c0.19-0.06,0.33-0.17,0.44-0.33
			c0.11-0.15,0.16-0.35,0.16-0.58c0-0.26-0.07-0.47-0.21-0.63c-0.14-0.16-0.33-0.26-0.59-0.3c-0.13-0.02-0.5-0.03-1.14-0.03H179
			V138.32z"/>
		<path class="st0" d="M188.44,140.99l1.47,0.25c-0.19,0.54-0.49,0.95-0.9,1.23c-0.41,0.28-0.92,0.42-1.53,0.42
			c-0.97,0-1.69-0.32-2.16-0.95c-0.37-0.51-0.55-1.15-0.55-1.92c0-0.93,0.24-1.65,0.73-2.17c0.48-0.52,1.1-0.79,1.83-0.79
			c0.83,0,1.49,0.27,1.97,0.82c0.48,0.55,0.71,1.39,0.69,2.52h-3.7c0.01,0.44,0.13,0.78,0.36,1.02c0.23,0.24,0.51,0.37,0.85,0.37
			c0.23,0,0.43-0.06,0.58-0.19C188.24,141.48,188.36,141.27,188.44,140.99z M188.53,139.5c-0.01-0.43-0.12-0.75-0.33-0.98
			c-0.21-0.22-0.47-0.33-0.77-0.33c-0.32,0-0.59,0.12-0.8,0.35c-0.21,0.23-0.31,0.55-0.31,0.96H188.53z"/>
		<path class="st0" d="M196.32,142.77h-1.37v-0.82c-0.23,0.32-0.5,0.56-0.81,0.71c-0.31,0.16-0.62,0.23-0.94,0.23
			c-0.64,0-1.19-0.26-1.65-0.78c-0.46-0.52-0.69-1.24-0.69-2.16c0-0.95,0.22-1.67,0.67-2.16c0.44-0.49,1.01-0.74,1.69-0.74
			c0.62,0,1.16,0.26,1.62,0.78v-2.78h1.48V142.77z M192.37,139.86c0,0.6,0.08,1.03,0.25,1.29c0.24,0.39,0.57,0.58,1,0.58
			c0.34,0,0.63-0.14,0.87-0.43c0.24-0.29,0.36-0.72,0.36-1.3c0-0.64-0.12-1.1-0.35-1.39c-0.23-0.28-0.53-0.42-0.89-0.42
			c-0.35,0-0.64,0.14-0.88,0.42C192.49,138.89,192.37,139.3,192.37,139.86z"/>
		<path class="st0" d="M201.87,138.89l-1.34-0.24c0.15-0.54,0.41-0.94,0.78-1.2c0.37-0.26,0.91-0.39,1.64-0.39
			c0.66,0,1.15,0.08,1.47,0.23c0.32,0.16,0.55,0.35,0.68,0.59c0.13,0.24,0.2,0.68,0.2,1.32l-0.02,1.72c0,0.49,0.02,0.85,0.07,1.09
			c0.05,0.23,0.14,0.48,0.27,0.75h-1.46c-0.04-0.1-0.09-0.24-0.14-0.44c-0.02-0.09-0.04-0.15-0.05-0.17
			c-0.25,0.25-0.52,0.43-0.81,0.55c-0.29,0.12-0.59,0.18-0.92,0.18c-0.58,0-1.03-0.16-1.36-0.47c-0.33-0.31-0.5-0.71-0.5-1.18
			c0-0.32,0.08-0.6,0.23-0.84c0.15-0.25,0.36-0.44,0.63-0.57c0.27-0.13,0.66-0.25,1.18-0.34c0.69-0.13,1.17-0.25,1.44-0.36v-0.15
			c0-0.28-0.07-0.49-0.21-0.61c-0.14-0.12-0.4-0.18-0.79-0.18c-0.26,0-0.47,0.05-0.62,0.16
			C202.08,138.45,201.96,138.63,201.87,138.89z M203.85,140.09c-0.19,0.06-0.49,0.14-0.9,0.23c-0.41,0.09-0.68,0.17-0.8,0.26
			c-0.19,0.14-0.29,0.31-0.29,0.52c0,0.21,0.08,0.39,0.23,0.54c0.15,0.15,0.35,0.23,0.59,0.23c0.27,0,0.52-0.09,0.76-0.26
			c0.18-0.13,0.3-0.3,0.35-0.49c0.04-0.13,0.06-0.37,0.06-0.72V140.09z"/>
		<path class="st0" d="M208.17,142.77h-1.48v-5.58h1.37v0.79c0.23-0.37,0.45-0.62,0.63-0.74c0.19-0.12,0.4-0.18,0.64-0.18
			c0.34,0,0.66,0.09,0.97,0.28l-0.46,1.29c-0.25-0.16-0.48-0.24-0.69-0.24c-0.21,0-0.38,0.06-0.53,0.17
			c-0.14,0.11-0.26,0.32-0.34,0.62c-0.08,0.3-0.12,0.92-0.12,1.87V142.77z"/>
		<path class="st0" d="M214.18,140.99l1.47,0.25c-0.19,0.54-0.49,0.95-0.9,1.23c-0.41,0.28-0.92,0.42-1.53,0.42
			c-0.97,0-1.69-0.32-2.16-0.95c-0.37-0.51-0.55-1.15-0.55-1.92c0-0.93,0.24-1.65,0.73-2.17c0.48-0.52,1.1-0.79,1.83-0.79
			c0.83,0,1.49,0.27,1.97,0.82c0.48,0.55,0.71,1.39,0.69,2.52h-3.7c0.01,0.44,0.13,0.78,0.36,1.02c0.23,0.24,0.51,0.37,0.85,0.37
			c0.23,0,0.43-0.06,0.58-0.19C213.98,141.48,214.1,141.27,214.18,140.99z M214.26,139.5c-0.01-0.43-0.12-0.75-0.33-0.98
			c-0.21-0.22-0.47-0.33-0.77-0.33c-0.32,0-0.59,0.12-0.8,0.35c-0.21,0.23-0.31,0.55-0.31,0.96H214.26z"/>
		<path class="st0" d="M218.04,138.89l-1.34-0.24c0.15-0.54,0.41-0.94,0.78-1.2c0.37-0.26,0.91-0.39,1.64-0.39
			c0.66,0,1.15,0.08,1.47,0.23c0.32,0.16,0.55,0.35,0.68,0.59c0.13,0.24,0.2,0.68,0.2,1.32l-0.02,1.72c0,0.49,0.02,0.85,0.07,1.09
			c0.05,0.23,0.14,0.48,0.27,0.75h-1.46c-0.04-0.1-0.09-0.24-0.14-0.44c-0.02-0.09-0.04-0.15-0.05-0.17
			c-0.25,0.25-0.52,0.43-0.81,0.55c-0.29,0.12-0.59,0.18-0.92,0.18c-0.58,0-1.03-0.16-1.36-0.47c-0.33-0.31-0.5-0.71-0.5-1.18
			c0-0.32,0.08-0.6,0.23-0.84c0.15-0.25,0.36-0.44,0.63-0.57c0.27-0.13,0.66-0.25,1.18-0.34c0.69-0.13,1.17-0.25,1.44-0.36v-0.15
			c0-0.28-0.07-0.49-0.21-0.61c-0.14-0.12-0.4-0.18-0.79-0.18c-0.26,0-0.47,0.05-0.62,0.16
			C218.25,138.45,218.13,138.63,218.04,138.89z M220.01,140.09c-0.19,0.06-0.49,0.14-0.9,0.23c-0.41,0.09-0.68,0.17-0.8,0.26
			c-0.19,0.14-0.29,0.31-0.29,0.52c0,0.21,0.08,0.39,0.23,0.54c0.15,0.15,0.35,0.23,0.59,0.23c0.27,0,0.52-0.09,0.76-0.26
			c0.18-0.13,0.3-0.3,0.35-0.49c0.04-0.13,0.06-0.37,0.06-0.72V140.09z"/>
		<path class="st0" d="M225.91,136.43v-1.37h1.48v1.37H225.91z M225.91,142.77v-5.58h1.48v5.58H225.91z"/>
		<path class="st0" d="M228.38,141.18l1.48-0.23c0.06,0.29,0.19,0.51,0.38,0.65c0.19,0.15,0.46,0.22,0.81,0.22
			c0.38,0,0.67-0.07,0.86-0.21c0.13-0.1,0.19-0.23,0.19-0.39c0-0.11-0.04-0.21-0.11-0.28c-0.07-0.07-0.24-0.13-0.49-0.19
			c-1.19-0.26-1.95-0.5-2.27-0.72c-0.44-0.3-0.66-0.72-0.66-1.26c0-0.48,0.19-0.89,0.57-1.22c0.38-0.33,0.97-0.49,1.78-0.49
			c0.76,0,1.33,0.12,1.7,0.37c0.37,0.25,0.63,0.62,0.77,1.1l-1.39,0.26c-0.06-0.22-0.17-0.38-0.34-0.5
			c-0.17-0.12-0.4-0.17-0.71-0.17c-0.39,0-0.67,0.05-0.84,0.16c-0.11,0.08-0.17,0.18-0.17,0.3c0,0.11,0.05,0.19,0.15,0.27
			c0.13,0.1,0.59,0.24,1.38,0.42c0.79,0.18,1.34,0.4,1.65,0.66c0.31,0.26,0.46,0.63,0.46,1.1c0,0.51-0.21,0.95-0.64,1.32
			c-0.43,0.37-1.06,0.55-1.9,0.55c-0.76,0-1.36-0.15-1.81-0.46C228.81,142.13,228.52,141.71,228.38,141.18z"/>
		<path class="st0" d="M241.48,139.94v-1.3h3.35v3.07c-0.33,0.32-0.8,0.59-1.42,0.83c-0.62,0.24-1.25,0.36-1.88,0.36
			c-0.81,0-1.51-0.17-2.11-0.51c-0.6-0.34-1.05-0.82-1.35-1.45c-0.3-0.63-0.45-1.31-0.45-2.05c0-0.8,0.17-1.52,0.5-2.14
			c0.34-0.62,0.83-1.1,1.48-1.44c0.49-0.26,1.11-0.38,1.85-0.38c0.96,0,1.7,0.2,2.24,0.6c0.54,0.4,0.88,0.96,1.04,1.66l-1.55,0.29
			c-0.11-0.38-0.31-0.68-0.61-0.9c-0.3-0.22-0.67-0.33-1.12-0.33c-0.68,0-1.22,0.22-1.62,0.65c-0.4,0.43-0.6,1.07-0.6,1.92
			c0,0.91,0.2,1.6,0.61,2.06c0.41,0.46,0.94,0.69,1.6,0.69c0.33,0,0.65-0.06,0.98-0.19c0.33-0.13,0.61-0.28,0.84-0.47v-0.98H241.48z
			"/>
		<path class="st0" d="M247.67,142.77h-1.48v-5.58h1.37v0.79c0.23-0.37,0.45-0.62,0.63-0.74c0.19-0.12,0.4-0.18,0.64-0.18
			c0.34,0,0.66,0.09,0.97,0.28l-0.46,1.29c-0.25-0.16-0.48-0.24-0.69-0.24c-0.21,0-0.38,0.06-0.53,0.17
			c-0.14,0.11-0.26,0.32-0.34,0.62c-0.08,0.3-0.12,0.92-0.12,1.87V142.77z"/>
		<path class="st0" d="M251.55,138.89l-1.34-0.24c0.15-0.54,0.41-0.94,0.78-1.2c0.37-0.26,0.91-0.39,1.64-0.39
			c0.66,0,1.15,0.08,1.47,0.23c0.32,0.16,0.55,0.35,0.68,0.59c0.13,0.24,0.2,0.68,0.2,1.32l-0.02,1.72c0,0.49,0.02,0.85,0.07,1.09
			c0.05,0.23,0.14,0.48,0.27,0.75h-1.46c-0.04-0.1-0.09-0.24-0.14-0.44c-0.02-0.09-0.04-0.15-0.05-0.17
			c-0.25,0.25-0.52,0.43-0.81,0.55c-0.29,0.12-0.59,0.18-0.92,0.18c-0.58,0-1.03-0.16-1.36-0.47c-0.33-0.31-0.5-0.71-0.5-1.18
			c0-0.32,0.08-0.6,0.23-0.84c0.15-0.25,0.36-0.44,0.63-0.57c0.27-0.13,0.66-0.25,1.18-0.34c0.69-0.13,1.17-0.25,1.44-0.36v-0.15
			c0-0.28-0.07-0.49-0.21-0.61c-0.14-0.12-0.4-0.18-0.79-0.18c-0.26,0-0.47,0.05-0.62,0.16
			C251.76,138.45,251.64,138.63,251.55,138.89z M253.53,140.09c-0.19,0.06-0.49,0.14-0.9,0.23c-0.41,0.09-0.68,0.17-0.8,0.26
			c-0.19,0.14-0.29,0.31-0.29,0.52c0,0.21,0.08,0.39,0.23,0.54c0.15,0.15,0.35,0.23,0.59,0.23c0.27,0,0.52-0.09,0.76-0.26
			c0.18-0.13,0.3-0.3,0.35-0.49c0.04-0.13,0.06-0.37,0.06-0.72V140.09z"/>
		<path class="st0" d="M257.97,142.77l-2.25-5.58h1.55l1.05,2.85l0.3,0.95c0.08-0.24,0.13-0.4,0.15-0.48
			c0.05-0.16,0.1-0.32,0.16-0.47l1.06-2.85h1.52l-2.22,5.58H257.97z"/>
		<path class="st0" d="M262.42,136.43v-1.37h1.48v1.37H262.42z M262.42,142.77v-5.58h1.48v5.58H262.42z"/>
		<path class="st0" d="M270.49,142.77h-1.48v-2.85c0-0.6-0.03-0.99-0.09-1.17c-0.06-0.18-0.17-0.31-0.31-0.41
			c-0.14-0.1-0.31-0.15-0.51-0.15c-0.26,0-0.49,0.07-0.69,0.21c-0.2,0.14-0.34,0.33-0.42,0.56c-0.08,0.23-0.11,0.66-0.11,1.28v2.53
			h-1.48v-5.58h1.37v0.82c0.49-0.63,1.1-0.95,1.84-0.95c0.33,0,0.62,0.06,0.89,0.18c0.27,0.12,0.47,0.27,0.61,0.45
			c0.14,0.18,0.23,0.39,0.29,0.62c0.05,0.23,0.08,0.56,0.08,0.99V142.77z"/>
		<path class="st0" d="M271.86,143.14l1.69,0.21c0.03,0.2,0.09,0.33,0.19,0.4c0.14,0.11,0.36,0.16,0.66,0.16
			c0.39,0,0.67-0.06,0.87-0.17c0.13-0.08,0.23-0.2,0.29-0.37c0.05-0.12,0.07-0.35,0.07-0.68v-0.81c-0.44,0.6-1,0.9-1.67,0.9
			c-0.75,0-1.34-0.32-1.78-0.95c-0.34-0.5-0.52-1.13-0.52-1.87c0-0.94,0.23-1.65,0.68-2.15c0.45-0.49,1.01-0.74,1.68-0.74
			c0.69,0,1.26,0.3,1.71,0.91v-0.78h1.38v5.01c0,0.66-0.05,1.15-0.16,1.48c-0.11,0.33-0.26,0.58-0.46,0.77
			c-0.2,0.19-0.46,0.33-0.79,0.44c-0.33,0.11-0.74,0.16-1.24,0.16c-0.95,0-1.62-0.16-2.01-0.49c-0.4-0.32-0.59-0.74-0.59-1.23
			C271.85,143.27,271.85,143.21,271.86,143.14z M273.18,139.86c0,0.59,0.11,1.03,0.34,1.3c0.23,0.28,0.51,0.41,0.85,0.41
			c0.36,0,0.67-0.14,0.91-0.42c0.25-0.28,0.37-0.7,0.37-1.25c0-0.58-0.12-1.01-0.36-1.29c-0.24-0.28-0.54-0.42-0.9-0.42
			c-0.35,0-0.65,0.14-0.88,0.41C273.29,138.88,273.18,139.3,273.18,139.86z"/>
	</g>
	<g>
		<path class="st0" d="M280.61,242.13l-10.83-61.65c-0.09-0.51-0.55-0.87-1.08-0.87l-62.76,0c-0.96,0-1.85,0.48-2.37,1.29
			l-6.42,9.84c-0.62,0.95-0.61,2.18,0.02,3.12l7.64,11.43c0.35,0.82,1.16,1.35,2.06,1.35l27.78,0c0.65,0,1.26-0.28,1.69-0.77
			l7.96-13.82c0.43-0.49,1.04-0.77,1.69-0.77l21.01,0c1.09,0,2.02,0.78,2.21,1.85l3.37,19.13c0.24,1.38-0.82,2.63-2.21,2.63
			l-19.54-0.05c-0.75,0-1.44,0.37-1.86,0.99l-12.18,20.98c-0.42,0.62-1.12,0.99-1.86,0.99l-23.04,0c-0.88,0-1.68,0.51-2.05,1.31
			l-14.26,11.85c-0.36,0.8-1.16,1.31-2.04,1.31l-11.94,0c-0.87,0-1.67-0.51-2.04-1.3l-1.5-3.24c-0.37-0.79-1.16-1.3-2.04-1.3
			l-68.6,0c-0.87,0-1.67,0.51-2.04,1.3l-1.5,3.24c-0.37,0.79-1.16,1.3-2.04,1.3l-11.85,0c-0.87,0-1.67-0.51-2.03-1.3L73.66,239.1
			c-0.37-0.79-1.16-1.3-2.04-1.3l-22.99,0.01c-0.75,0-1.44-0.37-1.86-0.99l-12.14-20.98c-0.42-0.62-1.11-0.99-1.86-0.99H13.15
			c-1.39,0-2.45-1.26-2.21-2.63l3.36-19.07c0.19-1.07,1.12-1.85,2.21-1.85l21.02,0c0.65,0,1.26,0.28,1.69,0.77l7.89,13.83
			c0.43,0.49,1.04,0.77,1.69,0.77l27.63-0.01c0.91,0,1.72-0.55,2.07-1.38l6.24-10.84c0.7-1.22,0.4-2.76-0.7-3.64l-10.53-8.34
			c-0.37-0.3-0.81-0.49-1.28-0.57l-13.27-2.27H14.74c-0.53,0-0.99,0.37-1.08,0.87L2.85,242.11c-0.1,0.57,0.29,1.12,0.89,1.22
			l7.52,1.31c0.92,0.16,1.85-0.28,2.32-1.09l4.47-7.71c0.4-0.69,1.14-1.12,1.94-1.12h8.23c0.8,0,1.54,0.43,1.94,1.12l3.62,7.97
			c0.33,0.58,0.9,0.97,1.56,1.09l27.33,4.8c0.52,0.09,0.9,0.53,0.9,1.04l0,16.91c0,0.58,0.49,1.06,1.09,1.06l18.68,0
			c0.45,0,0.85,0.27,1.02,0.67l2.97,3.81c0.13,0.31,0.4,0.55,0.74,0.64l26.37,7.09l54.52,0l26.57-7.11
			c0.34-0.09,0.61-0.32,0.74-0.64l2.94-3.78c0.16-0.41,0.57-0.67,1.02-0.67l18.68,0c0.6,0,1.09-0.47,1.09-1.06l0-16.96
			c0-0.51,0.38-0.95,0.9-1.04l27.09-4.71c0.66-0.11,1.23-0.51,1.57-1.09l3.71-8c0.4-0.69,1.14-1.12,1.94-1.12h8.23
			c0.8,0,1.54,0.43,1.94,1.12l3.86,7.76c0.47,0.81,1.39,1.25,2.32,1.09l8.15-1.34C280.32,243.25,280.72,242.71,280.61,242.13z
			 M218.87,188.51c-1.55,0-2.8-1.25-2.8-2.8c0-1.55,1.25-2.8,2.8-2.8s2.8,1.25,2.8,2.8C221.67,187.26,220.41,188.51,218.87,188.51z
			 M224.48,194.12c-1.55,0-2.8-1.25-2.8-2.8c0-1.55,1.25-2.8,2.8-2.8c1.55,0,2.8,1.25,2.8,2.8S226.02,194.12,224.48,194.12z
			 M230.08,188.51c-1.55,0-2.8-1.25-2.8-2.8s1.25-2.8,2.8-2.8c1.55,0,2.8,1.25,2.8,2.8S231.63,188.51,230.08,188.51z M235.69,194.12
			c-1.55,0-2.8-1.25-2.8-2.8c0-1.55,1.25-2.8,2.8-2.8c1.55,0,2.8,1.25,2.8,2.8C238.49,192.87,237.24,194.12,235.69,194.12z
			 M241.3,188.51c-1.55,0-2.8-1.25-2.8-2.8s1.25-2.8,2.8-2.8c1.55,0,2.8,1.25,2.8,2.8C244.1,187.26,242.84,188.51,241.3,188.51z
			 M64.79,182.91c1.55,0,2.8,1.25,2.8,2.8c0,1.55-1.25,2.8-2.8,2.8c-1.55,0-2.8-1.25-2.8-2.8
			C61.99,184.16,63.25,182.91,64.79,182.91z M59.19,188.52c1.55,0,2.8,1.25,2.8,2.8c0,1.55-1.25,2.8-2.8,2.8
			c-1.55,0-2.8-1.25-2.8-2.8C56.39,189.77,57.64,188.52,59.19,188.52z M53.58,182.91c1.55,0,2.8,1.25,2.8,2.8
			c0,1.55-1.25,2.8-2.8,2.8s-2.8-1.25-2.8-2.8S52.03,182.91,53.58,182.91z M47.97,188.52c1.55,0,2.8,1.25,2.8,2.8
			c0,1.55-1.25,2.8-2.8,2.8c-1.55,0-2.8-1.25-2.8-2.8C45.17,189.77,46.43,188.52,47.97,188.52z M42.37,182.91
			c1.55,0,2.8,1.25,2.8,2.8s-1.25,2.8-2.8,2.8c-1.55,0-2.8-1.25-2.8-2.8C39.56,184.16,40.82,182.91,42.37,182.91z M13,233.66
			c-0.27,1.52-1.72,2.54-3.25,2.27s-2.54-1.72-2.27-3.25c0.27-1.52,1.72-2.54,3.25-2.27C12.25,230.68,13.26,232.14,13,233.66z
			 M11.7,224.89c-1.52-0.27-2.54-1.72-2.27-3.25c0.27-1.52,1.72-2.54,3.25-2.27s2.54,1.72,2.27,3.25
			C14.67,224.14,13.22,225.16,11.7,224.89z M19.5,229.12c-0.27,1.52-1.72,2.54-3.25,2.27s-2.54-1.72-2.27-3.25
			c0.27-1.52,1.72-2.54,3.25-2.27C18.75,226.14,19.76,227.59,19.5,229.12z M71.39,264.83c-1.09,1.09-2.87,1.09-3.96,0
			c-1.09-1.09-1.09-2.87,0-3.96c1.09-1.09,2.87-1.09,3.96,0C72.48,261.96,72.48,263.73,71.39,264.83z M71.39,256.89
			c-1.09,1.09-2.87,1.09-3.96,0c-1.09-1.09-1.09-2.87,0-3.96c1.09-1.09,2.87-1.09,3.96,0C72.49,254.03,72.49,255.8,71.39,256.89z
			 M79.32,264.82c-1.09,1.09-2.87,1.09-3.96,0c-1.09-1.09-1.09-2.87,0-3.96c1.09-1.09,2.87-1.09,3.96,0
			C80.42,261.95,80.42,263.73,79.32,264.82z M187.78,269.2h-27.84l-1.61,5.95c-0.26,0.98-1.15,1.66-2.16,1.66h-28.65
			c-1.01,0-1.89-0.67-2.16-1.64l-1.65-5.96l-27.85,0c-0.93,0-1.68-0.75-1.68-1.68s0.75-1.68,1.68-1.68l27.33,0l2.56-6.63
			c0.33-0.86,1.16-1.43,2.09-1.43h27.82c0.91,0,1.74,0.55,2.08,1.4l2.69,6.66h27.34c0.93,0,1.68,0.75,1.68,1.68
			S188.71,269.2,187.78,269.2z M208.25,264.82c-1.09,1.09-2.87,1.09-3.96,0c-1.09-1.09-1.09-2.87,0-3.96c1.09-1.09,2.87-1.09,3.96,0
			C209.35,261.95,209.35,263.73,208.25,264.82z M212.22,252.93c1.09-1.09,2.87-1.09,3.96,0c1.09,1.09,1.09,2.87,0,3.96
			c-1.09,1.09-2.87,1.09-3.96,0C211.12,255.8,211.12,254.03,212.22,252.93z M216.18,264.83c-1.09,1.09-2.87,1.09-3.96,0
			c-1.09-1.09-1.09-2.87,0-3.96c1.09-1.09,2.87-1.09,3.96,0C217.28,261.96,217.28,263.73,216.18,264.83z M271,219.37
			c1.52-0.27,2.98,0.75,3.25,2.27c0.27,1.52-0.75,2.98-2.27,3.25s-2.98-0.75-3.25-2.27C268.46,221.09,269.48,219.64,271,219.37z
			 M267.42,231.39c-1.52,0.27-2.98-0.75-3.25-2.27c-0.27-1.52,0.75-2.98,2.27-3.25c1.52-0.27,2.98,0.75,3.25,2.27
			C269.97,229.67,268.95,231.12,267.42,231.39z M273.92,235.93c-1.52,0.27-2.98-0.75-3.25-2.27c-0.27-1.52,0.75-2.98,2.27-3.25
			c1.52-0.27,2.98,0.75,3.25,2.27C276.47,234.21,275.45,235.67,273.92,235.93z"/>
	</g>
</g>
<g id="memo">
	<text transform="matrix(1 0 0 1 6.3932 152.4565)" class="st1 st2">W : 99.683 mm</text>
	<text transform="matrix(1 0 0 1 6.3932 166.6552)" class="st1 st2">H : 50.97 mm</text>
	<text transform="matrix(1 0 0 1 114.9927 14.029)" class="st1 st2">W : 99.683 mm</text>
	<text transform="matrix(1 0 0 1 114.9927 27.2276)" class="st1 st2">H : 45.185 mm</text>
</g>
</svg>
