M48
; DRILL file {KiCad (5.1.9-0-10_14)} date Friday, April 02, 2021 at 11:46:39 AM
; FORMAT={-:-/ absolute / metric / decimal}
; #@! TF.CreationDate,2021-04-02T11:46:39+09:00
; #@! TF.GenerationSoftware,Kicad,Pcbnew,(5.1.9-0-10_14)
FMAT,2
METRIC
T1C0.300
T2C0.500
T3C0.813
T4C1.300
T5C1.470
T6C4.200
T7C1.750
T8C1.800
T9C2.200
T10C3.048
T11C3.988
%
G90
G05
T1
X3.225Y-67.6
X6.75Y-60.75
X9.75Y-42.25
X12.5Y-17.0
X13.175Y-11.375
X14.75Y-15.25
X21.075Y-18.3
X25.75Y-50.946
X27.125Y-36.875
X27.5Y-51.75
X29.75Y-67.0
X31.25Y-18.525
X37.175Y-37.05
X41.3Y-70.8
X48.0Y-24.75
X48.25Y-16.65
X51.85Y-11.1
X54.967Y-78.283
X56.5Y-12.5
X58.6Y-67.8
X59.7Y-18.175
X65.025Y-99.35
X65.55Y-77.0
X68.925Y-24.325
X69.5Y-86.0
X73.0Y-94.25
X78.2Y-24.925
X83.5Y-44.5
X83.75Y-18.5
X85.275Y-21.025
X86.0Y-22.25
X87.325Y-29.925
X88.825Y-104.95
X89.125Y-21.625
X89.875Y-22.875
X92.875Y-12.8
X95.1Y-6.1
X103.0Y-80.175
X107.5Y-68.0
X110.5Y-42.25
X112.0Y-80.125
X112.925Y-12.175
X122.925Y-14.3
X126.95Y-104.95
X127.1Y-21.175
X133.025Y-85.575
X135.3Y-19.675
X135.4Y-82.9
X143.725Y-20.8
X146.1Y-72.55
X147.458Y-68.292
X149.5Y-56.25
X150.675Y-30.175
X150.7Y-99.375
X151.0Y-33.75
X152.625Y-71.2
X153.775Y-62.7
X157.2Y-67.7
X159.008Y-23.992
X160.775Y-28.55
X163.95Y-11.1
X165.648Y-61.602
X165.775Y-21.225
X166.65Y-26.125
X172.825Y-61.4
X174.525Y-70.8
X175.5Y-72.25
X178.348Y-23.902
X185.018Y-61.482
X189.25Y-62.75
X189.75Y-50.25
X190.1Y-39.075
X191.175Y-49.275
X193.3Y-58.975
X195.25Y-52.75
X202.675Y-11.4
X212.625Y-67.625
T2
X28.479Y-66.021
X29.75Y-51.0
X51.241Y-24.759
X54.25Y-13.25
X115.25Y-64.25
X146.5Y-57.0
X149.0Y-35.75
X190.5Y-51.75
X190.5Y-60.5
T3
X94.131Y-17.209
X96.632Y-17.65
X96.774Y-2.22
X99.134Y-18.091
X99.275Y-2.661
X101.635Y-18.532
X101.776Y-3.102
X104.136Y-18.973
X104.278Y-3.543
X106.638Y-19.414
X106.779Y-3.984
X109.139Y-19.855
X109.281Y-4.425
X111.641Y-20.296
X111.782Y-4.867
X114.142Y-20.737
X114.284Y-5.308
X116.643Y-21.179
X116.785Y-5.749
X119.145Y-21.62
X119.286Y-6.19
X121.646Y-22.061
X121.788Y-6.631
X124.289Y-7.072
T4
X134.879Y-11.386
X141.281Y-12.514
T5
X10.909Y-56.767
X14.209Y-37.997
X17.489Y-19.257
X17.604Y-55.368
X20.904Y-36.598
X24.184Y-17.858
X30.279Y-56.597
X33.549Y-37.867
X36.839Y-19.157
X36.974Y-55.198
X40.244Y-36.468
X43.534Y-17.758
X49.629Y-56.517
X52.969Y-37.707
X56.259Y-18.977
X56.324Y-55.118
X59.664Y-36.308
X62.954Y-17.578
X67.769Y-63.247
X71.079Y-44.457
X73.707Y-89.23
X74.419Y-25.707
X74.464Y-61.848
X77.774Y-43.058
X80.498Y-88.42
X81.114Y-24.308
X85.959Y-69.947
X89.249Y-51.227
X92.599Y-32.427
X92.654Y-68.548
X94.58Y-92.96
X95.944Y-49.828
X99.294Y-31.028
X100.93Y-90.42
X105.33Y-100.54
X111.68Y-98.0
X113.62Y-92.96
X115.757Y-33.76
X119.057Y-52.54
X119.97Y-90.42
X121.569Y-30.156
X122.357Y-71.32
X124.869Y-48.936
X128.169Y-67.716
X133.897Y-27.03
X134.752Y-91.193
X137.217Y-45.77
X139.709Y-23.426
X140.229Y-87.096
X140.507Y-64.54
X143.029Y-42.166
X146.319Y-60.936
X152.067Y-20.28
X155.357Y-39.04
X157.879Y-16.676
X158.677Y-57.78
X161.169Y-35.436
X164.489Y-54.176
X171.417Y-20.41
X174.757Y-39.17
X177.229Y-16.806
X178.057Y-57.91
X180.569Y-35.566
X183.869Y-54.306
X190.817Y-20.55
X194.127Y-39.29
X196.629Y-16.946
X197.397Y-58.07
X199.939Y-35.686
X203.209Y-54.466
T6
X22.92Y-65.54
X29.54Y-28.03
X62.02Y-76.97
X85.8Y-37.94
X107.91Y-79.96
X130.02Y-37.94
X153.8Y-76.98
X186.32Y-28.02
X192.91Y-65.53
T7
X9.217Y-59.048
X12.517Y-40.278
X15.797Y-21.538
X19.223Y-60.812
X22.523Y-42.042
X25.803Y-23.302
X28.587Y-58.878
X31.857Y-40.148
X35.147Y-21.438
X38.593Y-60.642
X41.863Y-41.912
X45.153Y-23.202
X47.937Y-58.798
X51.277Y-39.988
X54.567Y-21.258
X57.943Y-60.562
X61.283Y-41.752
X64.573Y-23.022
X66.077Y-65.528
X69.387Y-46.738
X71.823Y-91.355
X72.727Y-27.988
X76.083Y-67.292
X79.393Y-48.502
X81.637Y-93.985
X82.733Y-29.752
X84.267Y-72.228
X87.557Y-53.508
X90.907Y-34.708
X93.31Y-95.5
X94.273Y-73.992
X97.563Y-55.272
X100.913Y-36.472
X114.947Y-36.482
X118.247Y-55.262
X121.547Y-74.042
X122.51Y-95.5
X124.953Y-34.718
X128.253Y-53.498
X131.553Y-72.278
X133.087Y-29.752
X134.183Y-93.975
X136.407Y-48.492
X139.697Y-67.262
X143.093Y-27.988
X143.997Y-91.345
X146.413Y-46.728
X149.703Y-65.498
X151.257Y-23.002
X154.547Y-41.762
X157.867Y-60.502
X161.263Y-21.238
X164.553Y-39.998
X167.873Y-58.738
X170.607Y-23.132
X173.947Y-41.892
X177.247Y-60.632
X180.613Y-21.368
X183.953Y-40.128
X187.253Y-58.868
X190.007Y-23.272
X193.317Y-42.012
X196.587Y-60.792
X200.013Y-21.508
X203.323Y-40.248
X206.593Y-59.028
T9
X92.56Y-22.32
X103.81Y-24.32
X130.11Y-9.87
T10
X95.964Y-102.445
X119.776Y-102.445
T11
X14.22Y-59.93
X17.52Y-41.16
X20.8Y-22.42
X33.59Y-59.76
X36.86Y-41.03
X40.15Y-22.32
X52.94Y-59.68
X56.28Y-40.87
X59.57Y-22.14
X71.08Y-66.41
X74.39Y-47.62
X76.73Y-92.67
X77.73Y-28.87
X89.27Y-73.11
X92.56Y-54.39
X95.91Y-35.59
X95.964Y-87.205
X98.39Y-95.5
X107.87Y-95.46
X117.43Y-95.5
X119.776Y-87.205
X119.95Y-35.6
X123.25Y-54.38
X126.55Y-73.16
X138.09Y-28.87
X139.09Y-92.66
X141.41Y-47.61
X144.7Y-66.38
X156.26Y-22.12
X159.55Y-40.88
X162.87Y-59.62
X175.61Y-22.25
X178.95Y-41.01
X182.25Y-59.75
X195.01Y-22.39
X198.32Y-41.13
X201.59Y-59.91
T8
G00X103.41Y-95.44
M15
G01X102.81Y-95.44
M16
G05
G00X112.93Y-95.44
M15
G01X112.33Y-95.44
M16
G05
T0
M30
