<?xml version="1.0" encoding="utf-8"?>
<!-- Generator: Adobe Illustrator 25.2.3, SVG Export Plug-In . SVG Version: 6.00 Build 0)  -->
<svg version="1.1" xmlns="http://www.w3.org/2000/svg" xmlns:xlink="http://www.w3.org/1999/xlink" x="0px" y="0px"
	 viewBox="0 0 735.14 325.14" style="enable-background:new 0 0 735.14 325.14;" xml:space="preserve">
<style type="text/css">
	.st0{fill:none;stroke:#000000;stroke-width:0.25;stroke-miterlimit:10;}
	.st1{fill:#FF0000;}
	.st2{font-family:'Arial-BoldMT';}
	.st3{font-size:18px;}
</style>
<g id="cut">
	<path class="st0" d="M726.5,201.4L698.78,44.17c-0.72-4.06-4.25-7.03-8.37-7.03H465.73l-26.48-4.64c-0.77-0.13-1.5,0.38-1.64,1.15
		L435.78,44l-6.46,2.35l-5.27-4.42l0.43-2.53c0.21-1.19-0.59-2.33-1.78-2.54l0,0c-1.19-0.21-2.32,0.58-2.54,1.77l-7.11,39.83
		c-0.41,2.31-2.62,3.85-4.93,3.44l-43.56-7.7c-0.77-0.14-1.51,0.38-1.64,1.15l-1.69,9.59l-6.46,2.35l-5.27-4.42l1.69-9.6
		c0.14-0.77-0.38-1.51-1.15-1.64l-17.37-3.07c-0.77-0.14-1.51,0.38-1.64,1.15l-1.69,9.56l-6.46,2.35l-5.27-4.42l1.69-9.57
		c0.14-0.77-0.38-1.51-1.15-1.64l-2.47-0.44c-0.72-0.13-1.36-0.53-1.79-1.11l-1.62-2.21c-0.43-0.59-1.07-0.99-1.79-1.11l-34.91-6.16
		c-0.94-0.17-1.73-0.79-2.11-1.67l-2.34-5.42c-0.38-0.87-1.17-1.5-2.1-1.67l-50.99-9.08l-173.22,0c-4.13,0-7.66,2.96-8.37,7.02
		L8.64,201.4c-0.82,4.63,2.27,9.04,6.9,9.86l53.31,9.38c0.71,0.13,1.44,0.11,2.15-0.04l23.98-5.06c0.71-0.15,1.45-0.16,2.17-0.03
		L196.1,233c2.94,0.52,5.39,2.54,6.46,5.33l22.09,57.51c0.33,0.84,1.04,1.48,1.91,1.71l71.39,19.08h139.43l71.26-19.08
		c0.87-0.23,1.58-0.87,1.91-1.71l22.1-57.51c1.07-2.78,3.52-4.8,6.46-5.32l99.04-17.5c0.72-0.13,1.46-0.12,2.17,0.04l23.86,5.06
		c0.71,0.15,1.44,0.16,2.16,0.04l53.26-9.38C724.23,210.44,727.32,206.03,726.5,201.4z M701.75,146.04l-38.8,6.84l-7.33-41.59
		l38.8-6.84L701.75,146.04z M630.13,50.87l5.5,31.2c0.35,1.99,2.63,3,4.32,1.89c1.34-0.89,2.94-1.4,4.67-1.4
		c0.68,0,1.34,0.08,1.97,0.23c1.97,0.47,3.76-1.26,3.41-3.25l-3.78-21.43l38.8-6.84l7.33,41.59l-38.8,6.84l-0.02-0.13
		c-0.33-1.87-2.48-2.66-4.02-1.56c-1.38,0.98-3.07,1.55-4.9,1.55c-4.14,0-7.59-2.97-8.35-6.89l-37.61,6.63l-7.33-41.59L630.13,50.87
		z M575.23,50.48l7.33,41.59l-38.8,6.84l-7.33-41.59L575.23,50.48z M535.22,134.56c0.35,1.99,2.63,3.01,4.32,1.89
		c1.34-0.89,2.95-1.41,4.68-1.41c0.68,0,1.33,0.08,1.96,0.23c1.97,0.47,3.76-1.26,3.41-3.25l-3.79-21.52l38.8-6.84l7.33,41.59
		l-38.8,6.84l-0.01-0.03c-0.33-1.87-2.47-2.65-4.02-1.56c-1.38,0.98-3.07,1.55-4.89,1.55c-4.18,0-7.64-3.01-8.36-6.98l-37.63,6.63
		l-7.33-41.59l38.8-6.84L535.22,134.56z M494.96,217.19l-38.8,6.84l-7.33-41.59l38.8-6.84L494.96,217.19z M520.33,50.1l7.33,41.59
		l-38.8,6.84l-7.33-41.59L520.33,50.1z M485.58,164.01l-38.8,6.84l-7.33-41.59l38.8-6.84L485.58,164.01z M440.65,46.86l1.23-6.98
		c0.2-1.16,1.31-1.93,2.46-1.72l19.85,3.49c1.16,0.2,1.93,1.31,1.72,2.46l-1.23,6.98c-0.2,1.16-1.31,1.93-2.46,1.72l-19.85-3.49
		C441.21,49.12,440.44,48.02,440.65,46.86z M417.42,88.38l3.84,21.79c0.35,1.99,2.63,3.01,4.32,1.89c1.34-0.89,2.95-1.41,4.68-1.41
		c0.68,0,1.33,0.08,1.97,0.23c1.97,0.47,3.76-1.26,3.41-3.25l-5.56-31.55l38.8-6.84l7.33,41.59l-37.62,6.63
		c0.25,1.23,0.24,2.55-0.12,3.91c-0.8,3.07-3.34,5.48-6.44,6.11c-1.49,0.3-2.92,0.21-4.22-0.18c-1.71-0.52-3.38,0.88-3.07,2.64
		l0.01,0.04l-38.8,6.84l-7.33-41.59L417.42,88.38z M434.13,183.15l-38.8,6.84l-7.33-41.59l38.8-6.84L434.13,183.15z M360.2,182.43
		h14.74c2.35,0,4.25,1.9,4.25,4.25v4.83c-0.51,0.7-0.82,1.56-0.82,2.5c0,0.94,0.31,1.79,0.82,2.5v4.92c0,2.35-1.9,4.25-4.25,4.25
		H360.2c-2.35,0-4.25-1.9-4.25-4.25v-4.95c0.5-0.7,0.8-1.54,0.8-2.46s-0.3-1.77-0.8-2.46v-4.86
		C355.95,184.34,357.85,182.43,360.2,182.43z M374.95,238.26c0,4.07-3.3,7.37-7.37,7.37c-4.07,0-7.37-3.3-7.37-7.37
		s3.3-7.37,7.37-7.37C371.65,230.89,374.95,234.19,374.95,238.26z M266.26,69.23l38.8,6.84l-5.56,31.53
		c-0.35,1.99,1.43,3.71,3.4,3.25c0.61-0.14,1.25-0.22,1.91-0.22c1.74,0,3.36,0.52,4.7,1.42c1.7,1.13,3.99,0.14,4.35-1.87l3.85-21.82
		l38.8,6.84l-7.33,41.59l-38.8-6.84l0-0.02c0.32-1.79-1.38-3.19-3.12-2.66c-1.3,0.39-2.72,0.48-4.2,0.18
		c-3.12-0.62-5.67-3.04-6.47-6.11c-0.35-1.36-0.36-2.69-0.12-3.91l-37.56-6.62L266.26,69.23z M347.15,148.4L339.81,190l-38.8-6.84
		l7.33-41.59L347.15,148.4z M295.69,129.25l-7.33,41.59l-38.8-6.84l7.33-41.59L295.69,129.25z M286.31,182.43l-7.33,41.59
		l-38.8-6.84l7.33-41.59L286.31,182.43z M214.8,50.08l38.8,6.84l-7.33,41.59l-38.8-6.84L214.8,50.08z M159.9,50.48l38.8,6.84
		l-7.33,41.59l-38.8-6.84L159.9,50.48z M189.38,110.5l-3.79,21.51c-0.35,1.99,1.44,3.71,3.4,3.25c0.61-0.14,1.26-0.22,1.91-0.22
		c1.73,0,3.34,0.52,4.68,1.41c1.69,1.12,3.97,0.11,4.32-1.89l5.52-31.3l38.8,6.84l-7.33,41.59l-37.62-6.63
		c-0.72,3.97-4.18,6.99-8.36,6.99c-1.82,0-3.51-0.57-4.89-1.55c-1.52-1.08-3.64-0.28-3.96,1.55l-0.01,0.04l-38.8-6.84l7.33-41.59
		L189.38,110.5z M50.1,51.26l38.8,6.84l-3.78,21.43c-0.35,1.99,1.44,3.72,3.41,3.25c0.63-0.15,1.3-0.23,1.98-0.23
		c1.73,0,3.33,0.52,4.67,1.4c1.69,1.12,3.97,0.1,4.32-1.89l5.5-31.2l38.8,6.84l-7.33,41.59l-37.61-6.63
		c-0.75,3.92-4.2,6.89-8.35,6.89c-1.83,0-3.51-0.58-4.9-1.56c-1.55-1.1-3.7-0.31-4.03,1.56l-0.02,0.13l-38.8-6.84L50.1,51.26z
		 M40.72,104.44l38.8,6.84l-7.33,41.59l-38.8-6.84L40.72,104.44z M117.72,205.67l-38.21-6.74c-0.54,4.18-4.1,7.42-8.43,7.42
		c-1.88,0-3.61-0.61-5.02-1.64c-1.23-0.9-2.96-0.27-3.22,1.23l-0.02,0.12l-38.8-6.84l7.33-41.59l38.8,6.84l-3.84,21.78
		c-0.34,1.95,1.38,3.55,3.34,3.22c0.47-0.08,0.94-0.12,1.43-0.12c1.89,0,3.63,0.61,5.04,1.65c1.7,1.26,4.13,0.32,4.49-1.77
		l5.64-31.99l38.8,6.84L117.72,205.67z M88.29,145.65l7.33-41.59l38.8,6.84l-7.33,41.59L88.29,145.65z M133.82,198.43l0.25-1.4
		l6.84-38.8h0l0.25-1.4l38.8,6.84l-0.25,1.4l-7.09,40.2L133.82,198.43z M188.71,198.04l7.33-41.59l38.8,6.84l-7.33,41.59
		L188.71,198.04z M237.49,237.15c-4.07,0-7.37-3.3-7.37-7.37s3.3-7.37,7.37-7.37s7.37,3.3,7.37,7.37S241.56,237.15,237.49,237.15z
		 M280.89,298.31l-38.06-10.2l10.93-40.8l38.06,10.2L280.89,298.31z M291.63,236.33l7.33-41.59l38.8,6.84l-7.33,41.59L291.63,236.33
		z M413.77,283.6h-0.02l0,20.42l-8.66,0c-0.72,1.33-2.11,2.25-3.73,2.25s-3.01-0.92-3.73-2.25l-6.07,0v-1.37l-48.01,0v1.37l-6.14,0
		c-0.72,1.33-2.11,2.25-3.73,2.25s-3.01-0.92-3.73-2.25l-8.56,0l0.01-51.73l92.35-0.01l0,23.43h0.02V283.6z M404.7,243.18
		l-7.33-41.59l38.8-6.84l7.33,41.59L404.7,243.18z M454.24,298.31l-10.93-40.8l38.06-10.2l10.93,40.8L454.24,298.31z M497.65,237.16
		c-4.07,0-7.37-3.3-7.37-7.37s3.3-7.37,7.37-7.37s7.37,3.3,7.37,7.37S501.72,237.16,497.65,237.16z M507.61,204.88l-7.33-41.59
		l38.8-6.84l7.33,41.59L507.61,204.88z M562.52,205.27l-7.33-41.59l38.8-6.84l7.33,41.59L562.52,205.27z M600.71,110.89l38.8-6.84
		l7.33,41.59l-38.8,6.84L600.71,110.89z M672.32,206.06l-0.02-0.12c-0.26-1.5-2-2.13-3.22-1.23c-1.41,1.03-3.14,1.64-5.01,1.64
		c-4.33,0-7.89-3.23-8.43-7.42l-38.22,6.74l-7.33-41.59l38.8-6.84l5.64,32c0.37,2.09,2.79,3.02,4.5,1.76
		c1.41-1.04,3.15-1.65,5.04-1.65c0.49,0,0.97,0.04,1.43,0.12c1.95,0.33,3.68-1.26,3.33-3.21l-3.84-21.78l38.8-6.84l4.59,26.03
		l2.75,15.57L672.32,206.06z"/>
</g>
<g id="graving">
	<g>
		<path class="st1" d="M8.5,20.15V8.7h4.87c1.22,0,2.11,0.1,2.67,0.31c0.55,0.21,1,0.57,1.33,1.1c0.33,0.53,0.5,1.13,0.5,1.8
			c0,0.86-0.25,1.57-0.76,2.13c-0.51,0.56-1.26,0.91-2.27,1.06c0.5,0.29,0.91,0.61,1.24,0.96c0.33,0.35,0.76,0.97,1.32,1.86
			l1.4,2.23h-2.77l-1.67-2.49c-0.59-0.89-1-1.45-1.22-1.68c-0.22-0.23-0.45-0.39-0.7-0.48c-0.25-0.09-0.63-0.13-1.16-0.13h-0.47
			v4.78H8.5z M10.82,13.54h1.71c1.11,0,1.8-0.05,2.08-0.14c0.28-0.09,0.49-0.25,0.65-0.48c0.16-0.23,0.23-0.52,0.23-0.86
			c0-0.39-0.1-0.7-0.31-0.93c-0.21-0.24-0.5-0.39-0.87-0.45c-0.19-0.03-0.75-0.04-1.69-0.04h-1.8V13.54z"/>
		<path class="st1" d="M24.84,17.51l2.19,0.37c-0.28,0.8-0.73,1.41-1.33,1.83c-0.61,0.42-1.37,0.63-2.28,0.63
			c-1.44,0-2.51-0.47-3.2-1.41c-0.55-0.75-0.82-1.71-0.82-2.86c0-1.37,0.36-2.45,1.08-3.23c0.72-0.78,1.63-1.17,2.73-1.17
			c1.23,0,2.21,0.41,2.92,1.22c0.71,0.82,1.05,2.06,1.02,3.75h-5.5c0.02,0.65,0.19,1.16,0.53,1.52c0.34,0.36,0.76,0.54,1.27,0.54
			c0.34,0,0.63-0.09,0.87-0.28S24.72,17.93,24.84,17.51z M24.96,15.29c-0.02-0.64-0.18-1.12-0.49-1.45c-0.31-0.33-0.69-0.5-1.14-0.5
			c-0.48,0-0.88,0.17-1.19,0.52c-0.31,0.35-0.47,0.82-0.46,1.42H24.96z"/>
		<path class="st1" d="M36.54,20.15H34.5v-1.22c-0.34,0.47-0.74,0.83-1.2,1.06s-0.93,0.35-1.39,0.35c-0.95,0-1.77-0.38-2.45-1.15
			c-0.68-0.77-1.02-1.84-1.02-3.21c0-1.41,0.33-2.48,0.99-3.21c0.66-0.73,1.5-1.1,2.51-1.1c0.93,0,1.73,0.39,2.41,1.16V8.7h2.2
			V20.15z M30.68,15.82c0,0.89,0.12,1.53,0.37,1.92c0.35,0.57,0.85,0.86,1.48,0.86c0.5,0,0.93-0.21,1.29-0.64
			c0.35-0.43,0.53-1.07,0.53-1.93c0-0.95-0.17-1.64-0.52-2.06c-0.34-0.42-0.78-0.63-1.32-0.63c-0.52,0-0.96,0.21-1.31,0.62
			S30.68,15,30.68,15.82z"/>
		<path class="st1" d="M44.79,14.39l-1.99-0.36c0.22-0.8,0.61-1.4,1.16-1.78c0.55-0.39,1.36-0.58,2.44-0.58
			c0.98,0,1.71,0.12,2.19,0.35c0.48,0.23,0.82,0.53,1.01,0.88c0.2,0.36,0.29,1.01,0.29,1.96l-0.02,2.56c0,0.73,0.04,1.27,0.11,1.61
			c0.07,0.35,0.2,0.72,0.39,1.11h-2.17c-0.06-0.15-0.13-0.36-0.21-0.65c-0.04-0.13-0.06-0.22-0.08-0.26
			c-0.38,0.36-0.78,0.64-1.2,0.82c-0.43,0.18-0.88,0.27-1.37,0.27c-0.85,0-1.53-0.23-2.02-0.7c-0.49-0.46-0.74-1.05-0.74-1.76
			c0-0.47,0.11-0.89,0.34-1.25c0.22-0.37,0.54-0.65,0.94-0.84c0.4-0.2,0.99-0.37,1.75-0.51c1.03-0.19,1.74-0.37,2.13-0.54v-0.22
			c0-0.42-0.1-0.72-0.31-0.9c-0.21-0.18-0.6-0.27-1.18-0.27c-0.39,0-0.7,0.08-0.91,0.23C45.11,13.73,44.93,14,44.79,14.39z
			 M47.73,16.17c-0.28,0.09-0.73,0.21-1.34,0.34c-0.61,0.13-1.01,0.26-1.2,0.38c-0.29,0.2-0.43,0.46-0.43,0.77
			c0,0.31,0.11,0.57,0.34,0.8c0.23,0.22,0.52,0.34,0.88,0.34c0.4,0,0.77-0.13,1.13-0.39c0.27-0.2,0.44-0.44,0.52-0.73
			c0.06-0.19,0.09-0.54,0.09-1.07V16.17z"/>
		<path class="st1" d="M54.15,20.15h-2.2v-8.3H54v1.18c0.35-0.56,0.66-0.92,0.94-1.1c0.28-0.18,0.59-0.27,0.95-0.27
			c0.5,0,0.98,0.14,1.45,0.41L56.65,14c-0.37-0.24-0.71-0.36-1.03-0.36c-0.31,0-0.57,0.08-0.78,0.25c-0.21,0.17-0.38,0.48-0.5,0.92
			c-0.12,0.44-0.18,1.37-0.18,2.78V20.15z"/>
		<path class="st1" d="M63.08,17.51l2.19,0.37c-0.28,0.8-0.73,1.41-1.33,1.83c-0.61,0.42-1.37,0.63-2.28,0.63
			c-1.44,0-2.51-0.47-3.2-1.41c-0.55-0.75-0.82-1.71-0.82-2.86c0-1.37,0.36-2.45,1.08-3.23c0.72-0.78,1.63-1.17,2.73-1.17
			c1.23,0,2.21,0.41,2.92,1.22c0.71,0.82,1.05,2.06,1.02,3.75h-5.5c0.02,0.65,0.19,1.16,0.53,1.52c0.34,0.36,0.76,0.54,1.27,0.54
			c0.34,0,0.63-0.09,0.87-0.28S62.96,17.93,63.08,17.51z M63.21,15.29c-0.02-0.64-0.18-1.12-0.49-1.45c-0.31-0.33-0.69-0.5-1.14-0.5
			c-0.48,0-0.88,0.17-1.19,0.52c-0.31,0.35-0.47,0.82-0.46,1.42H63.21z"/>
		<path class="st1" d="M68.82,14.39l-1.99-0.36c0.22-0.8,0.61-1.4,1.16-1.78c0.55-0.39,1.36-0.58,2.44-0.58
			c0.98,0,1.71,0.12,2.19,0.35c0.48,0.23,0.82,0.53,1.01,0.88c0.2,0.36,0.29,1.01,0.29,1.96l-0.02,2.56c0,0.73,0.04,1.27,0.11,1.61
			c0.07,0.35,0.2,0.72,0.39,1.11h-2.17c-0.06-0.15-0.13-0.36-0.21-0.65c-0.04-0.13-0.06-0.22-0.08-0.26
			c-0.38,0.36-0.78,0.64-1.2,0.82c-0.43,0.18-0.88,0.27-1.37,0.27c-0.85,0-1.53-0.23-2.02-0.7c-0.49-0.46-0.74-1.05-0.74-1.76
			c0-0.47,0.11-0.89,0.34-1.25c0.22-0.37,0.54-0.65,0.94-0.84c0.4-0.2,0.99-0.37,1.75-0.51c1.03-0.19,1.74-0.37,2.13-0.54v-0.22
			c0-0.42-0.1-0.72-0.31-0.9c-0.21-0.18-0.6-0.27-1.18-0.27c-0.39,0-0.7,0.08-0.91,0.23C69.13,13.73,68.95,14,68.82,14.39z
			 M71.75,16.17c-0.28,0.09-0.73,0.21-1.34,0.34c-0.61,0.13-1.01,0.26-1.2,0.38c-0.29,0.2-0.43,0.46-0.43,0.77
			c0,0.31,0.11,0.57,0.34,0.8c0.23,0.22,0.52,0.34,0.88,0.34c0.4,0,0.77-0.13,1.13-0.39c0.27-0.2,0.44-0.44,0.52-0.73
			c0.06-0.19,0.09-0.54,0.09-1.07V16.17z"/>
		<path class="st1" d="M80.52,10.73V8.7h2.2v2.03H80.52z M80.52,20.15v-8.3h2.2v8.3H80.52z"/>
		<path class="st1" d="M84.19,17.79l2.2-0.34c0.09,0.43,0.28,0.75,0.57,0.97c0.29,0.22,0.69,0.33,1.2,0.33
			c0.57,0,0.99-0.1,1.28-0.31c0.19-0.15,0.29-0.34,0.29-0.59c0-0.17-0.05-0.3-0.16-0.41c-0.11-0.1-0.35-0.2-0.73-0.29
			c-1.77-0.39-2.89-0.75-3.37-1.07c-0.66-0.45-0.98-1.07-0.98-1.87c0-0.72,0.28-1.32,0.85-1.81c0.57-0.49,1.45-0.73,2.64-0.73
			c1.14,0,1.98,0.19,2.53,0.55c0.55,0.37,0.93,0.92,1.14,1.64l-2.07,0.38c-0.09-0.32-0.26-0.57-0.5-0.74
			c-0.25-0.17-0.6-0.26-1.06-0.26c-0.58,0-0.99,0.08-1.24,0.24c-0.17,0.11-0.25,0.26-0.25,0.45c0,0.16,0.07,0.29,0.22,0.4
			c0.2,0.15,0.88,0.35,2.05,0.62c1.17,0.27,1.99,0.59,2.45,0.98c0.46,0.39,0.69,0.94,0.69,1.63c0,0.76-0.32,1.41-0.95,1.96
			c-0.64,0.55-1.58,0.82-2.82,0.82c-1.13,0-2.02-0.23-2.68-0.69C84.83,19.19,84.39,18.57,84.19,17.79z"/>
		<path class="st1" d="M103.65,15.94v-1.93h4.98v4.56c-0.48,0.47-1.19,0.88-2.11,1.24c-0.92,0.36-1.85,0.54-2.79,0.54
			c-1.2,0-2.24-0.25-3.13-0.75c-0.89-0.5-1.56-1.22-2.01-2.16c-0.45-0.93-0.67-1.95-0.67-3.05c0-1.19,0.25-2.25,0.75-3.18
			c0.5-0.93,1.23-1.64,2.2-2.13c0.73-0.38,1.65-0.57,2.74-0.57c1.42,0,2.53,0.3,3.33,0.89c0.8,0.6,1.31,1.42,1.54,2.47l-2.3,0.43
			c-0.16-0.56-0.46-1.01-0.91-1.33c-0.45-0.33-1-0.49-1.67-0.49c-1.01,0-1.81,0.32-2.41,0.96c-0.6,0.64-0.89,1.59-0.89,2.85
			c0,1.36,0.3,2.38,0.91,3.06c0.6,0.68,1.4,1.02,2.38,1.02c0.48,0,0.97-0.09,1.46-0.29c0.49-0.19,0.9-0.42,1.25-0.69v-1.45H103.65z"
			/>
		<path class="st1" d="M112.86,20.15h-2.2v-8.3h2.04v1.18c0.35-0.56,0.66-0.92,0.94-1.1c0.28-0.18,0.59-0.27,0.95-0.27
			c0.5,0,0.98,0.14,1.45,0.41L115.36,14c-0.37-0.24-0.71-0.36-1.03-0.36c-0.31,0-0.57,0.08-0.78,0.25c-0.21,0.17-0.38,0.48-0.5,0.92
			c-0.12,0.44-0.18,1.37-0.18,2.78V20.15z"/>
		<path class="st1" d="M118.62,14.39l-1.99-0.36c0.22-0.8,0.61-1.4,1.16-1.78c0.55-0.39,1.36-0.58,2.44-0.58
			c0.98,0,1.71,0.12,2.19,0.35c0.48,0.23,0.82,0.53,1.01,0.88c0.2,0.36,0.29,1.01,0.29,1.96l-0.02,2.56c0,0.73,0.04,1.27,0.11,1.61
			c0.07,0.35,0.2,0.72,0.39,1.11h-2.17c-0.06-0.15-0.13-0.36-0.21-0.65c-0.04-0.13-0.06-0.22-0.08-0.26
			c-0.38,0.36-0.78,0.64-1.2,0.82c-0.43,0.18-0.88,0.27-1.37,0.27c-0.85,0-1.53-0.23-2.02-0.7c-0.49-0.46-0.74-1.05-0.74-1.76
			c0-0.47,0.11-0.89,0.34-1.25c0.22-0.37,0.54-0.65,0.94-0.84c0.4-0.2,0.99-0.37,1.75-0.51c1.03-0.19,1.74-0.37,2.13-0.54v-0.22
			c0-0.42-0.1-0.72-0.31-0.9c-0.21-0.18-0.6-0.27-1.18-0.27c-0.39,0-0.7,0.08-0.91,0.23C118.93,13.73,118.76,14,118.62,14.39z
			 M121.56,16.17c-0.28,0.09-0.73,0.21-1.34,0.34c-0.61,0.13-1.01,0.26-1.2,0.38c-0.29,0.2-0.43,0.46-0.43,0.77
			c0,0.31,0.11,0.57,0.34,0.8c0.23,0.22,0.52,0.34,0.88,0.34c0.4,0,0.77-0.13,1.13-0.39c0.27-0.2,0.44-0.44,0.52-0.73
			c0.06-0.19,0.09-0.54,0.09-1.07V16.17z"/>
		<path class="st1" d="M128.16,20.15l-3.34-8.3h2.3l1.56,4.23l0.45,1.41c0.12-0.36,0.2-0.6,0.23-0.71c0.07-0.23,0.15-0.47,0.23-0.7
			l1.58-4.23h2.26l-3.3,8.3H128.16z"/>
		<path class="st1" d="M134.78,10.73V8.7h2.2v2.03H134.78z M134.78,20.15v-8.3h2.2v8.3H134.78z"/>
		<path class="st1" d="M146.77,20.15h-2.2v-4.23c0-0.9-0.05-1.48-0.14-1.74c-0.09-0.26-0.25-0.47-0.46-0.61
			c-0.21-0.15-0.46-0.22-0.76-0.22c-0.38,0-0.72,0.1-1.02,0.31c-0.3,0.21-0.51,0.48-0.62,0.83c-0.11,0.34-0.17,0.98-0.17,1.91v3.76
			h-2.2v-8.3h2.04v1.22c0.72-0.94,1.64-1.41,2.73-1.41c0.48,0,0.93,0.09,1.33,0.26c0.4,0.17,0.7,0.4,0.91,0.67
			c0.21,0.27,0.35,0.58,0.43,0.92c0.08,0.34,0.12,0.84,0.12,1.48V20.15z"/>
		<path class="st1" d="M148.79,20.7l2.51,0.3c0.04,0.29,0.14,0.49,0.29,0.6c0.21,0.16,0.54,0.23,0.98,0.23c0.57,0,1-0.09,1.29-0.26
			c0.19-0.11,0.34-0.3,0.44-0.55c0.07-0.18,0.1-0.52,0.1-1.01v-1.21c-0.66,0.9-1.48,1.34-2.48,1.34c-1.11,0-2-0.47-2.65-1.41
			c-0.51-0.74-0.77-1.67-0.77-2.78c0-1.39,0.33-2.45,1-3.19c0.67-0.73,1.5-1.1,2.5-1.1c1.03,0,1.87,0.45,2.54,1.35v-1.16h2.05v7.45
			c0,0.98-0.08,1.71-0.24,2.2c-0.16,0.48-0.39,0.86-0.68,1.14c-0.29,0.28-0.68,0.49-1.17,0.65c-0.49,0.16-1.1,0.23-1.85,0.23
			c-1.41,0-2.4-0.24-2.99-0.72c-0.59-0.48-0.88-1.09-0.88-1.83C148.79,20.89,148.79,20.8,148.79,20.7z M150.75,15.83
			c0,0.88,0.17,1.52,0.51,1.93c0.34,0.41,0.76,0.61,1.26,0.61c0.54,0,0.99-0.21,1.36-0.63c0.37-0.42,0.55-1.04,0.55-1.86
			c0-0.86-0.18-1.5-0.53-1.91c-0.35-0.42-0.8-0.62-1.34-0.62c-0.53,0-0.96,0.2-1.3,0.61C150.92,14.37,150.75,14.99,150.75,15.83z"/>
	</g>
	<path class="st1" d="M338.87,228.58l10.3,5.98c0.65,0.38,1.39,0.58,2.14,0.58l8.09,0c1.28-3.28,4.45-5.6,8.18-5.6
		c3.73,0,6.9,2.32,8.18,5.6l8.09,0c0.75,0,1.49-0.2,2.14-0.58l10.28-5.98c1.55-0.9,2.37-2.67,2.05-4.44l-20.53-115.02
		c-0.36-2.03-2.13-3.52-4.2-3.52l-12.05,0c-2.07,0-3.84,1.48-4.2,3.52l-20.53,115.01C336.5,225.91,337.32,227.68,338.87,228.58z
		 M359.79,181.66h15.68c2.5,0,4.52,2.03,4.52,4.52v5.14c-0.54,0.75-0.88,1.66-0.88,2.65c0,1,0.33,1.91,0.88,2.65v5.24
		c0,2.5-2.03,4.52-4.52,4.52h-15.68c-2.5,0-4.52-2.03-4.52-4.52l0-5.27c0.53-0.74,0.85-1.64,0.85-2.62c0-0.98-0.32-1.88-0.85-2.62
		v-5.17C355.26,183.69,357.29,181.66,359.79,181.66z"/>
</g>
<g id="note">
	<text transform="matrix(1 0 0 1 8.5039 267.4001)"><tspan x="0" y="0" class="st2 st3">W : 253.341 mm</tspan><tspan x="0" y="24" class="st2 st3">H : 100.245 mm</tspan></text>
</g>
</svg>
