<?xml version="1.0" encoding="utf-8"?>
<!-- Generator: Adobe Illustrator 25.2.3, SVG Export Plug-In . SVG Version: 6.00 Build 0)  -->
<svg version="1.1" id="cut" xmlns="http://www.w3.org/2000/svg" xmlns:xlink="http://www.w3.org/1999/xlink" x="0px" y="0px"
	 viewBox="0 0 736.14 321.52" style="enable-background:new 0 0 736.14 321.52;" xml:space="preserve">
<style type="text/css">
	.st0{fill:none;stroke:#000000;stroke-width:0.25;stroke-miterlimit:10;}
	.st1{font-family:'Arial-BoldMT';}
	.st2{font-size:18px;}
</style>
<path class="st0" d="M727,197.28L699.28,40.05c-0.72-4.06-4.25-7.03-8.37-7.03H468.95l-2.97,16.84c-0.41,2.31-2.61,3.86-4.93,3.45
	l-19.54-3.45c-2.31-0.41-3.86-2.61-3.45-4.93l2.88-16.34l-21.36-3.74l-1.01,5.56c-0.27,1.55-1.75,2.58-3.29,2.31l-80.94-14.27
	c-1.55-0.27-2.58-1.75-2.31-3.29l0.98-5.44l-3.86-0.67c-1.54-0.27-3.01,0.76-3.28,2.3l-7.76,44.04c-0.27,1.54-1.75,2.57-3.29,2.3
	l-38.84-6.92c-0.93-0.17-1.72-0.79-2.1-1.66l-2.35-5.41c-0.38-0.87-1.17-1.5-2.11-1.66l-50.9-9.02l-173.22,0
	c-4.13,0-7.66,2.96-8.37,7.02L9.14,197.28c-0.82,4.63,2.27,9.04,6.9,9.86l53.31,9.38c0.71,0.13,1.44,0.11,2.15-0.04l23.98-5.06
	c0.71-0.15,1.45-0.16,2.17-0.03l98.95,17.49c2.94,0.52,5.39,2.54,6.46,5.33l22.09,57.52c0.33,0.84,1.04,1.48,1.91,1.71l71.39,19.08
	h139.43l71.26-19.08c0.87-0.23,1.58-0.87,1.91-1.71l22.1-57.52c1.07-2.78,3.52-4.8,6.46-5.32l99.04-17.5
	c0.72-0.13,1.46-0.12,2.17,0.04l23.86,5.06c0.71,0.15,1.44,0.16,2.16,0.04l53.26-9.38C724.73,206.32,727.82,201.91,727,197.28z
	 M643.13,79.85l7.77-2.08l-0.79-4.49l-6.06,1.07l-1.97-11.17l6.06-1.07l-1.25-7.09l41.18-7.26l1.97,11.17l-2.37,0.42l2.56,14.5
	c0.14,0.77-0.38,1.51-1.15,1.64l-8.29,1.46l1.36,7.73c0.14,0.77-0.38,1.51-1.15,1.64l-14.74,2.6l-19.47,5.22l0-0.02
	c-0.53,0.12-1.08,0.19-1.65,0.19c-4.07,0-7.37-3.3-7.37-7.37C637.75,83.56,640.03,80.72,643.13,79.85z M595.27,72.85l-6.06,1.07
	l-1.97-11.17l6.06-1.07l-1.25-7.09l41.18-7.26l1.97,11.17l-2.37,0.42l2.8,15.9l-9.69,1.71l1.61,9.12l-23.5,4.21v9.48
	c0,1.57-1.27,2.83-2.83,2.83h-13.04l1.6,9.08l-2.37,0.42l2.56,14.5c0.14,0.77-0.38,1.51-1.15,1.64l-8.29,1.46l1.36,7.73
	c0.14,0.77-0.38,1.51-1.15,1.64L567.3,141l-20.34,5.45c-0.14,0.04-0.28,0.08-0.42,0.11l-0.21,0.06l0,0
	c-0.52,0.11-1.05,0.18-1.6,0.18c-4.07,0-7.37-3.3-7.37-7.37c0-3.3,2.17-6.09,5.16-7.03l0-0.01l8.15-2.18l-0.81-4.6l-6.06,1.07
	l-1.97-11.17l6.06-1.07l-1.25-7.09l32.96-5.81c-0.64-0.52-1.06-1.3-1.06-2.19V85.15c0-1.57,1.27-2.83,2.83-2.83h15.54L595.27,72.85z
	 M537.15,54.24l41.18-7.26l1.97,11.17l-2.37,0.42l2.56,14.5c0.14,0.77-0.38,1.51-1.15,1.64l-8.29,1.46l1.36,7.73
	c0.14,0.77-0.38,1.51-1.15,1.64l-16.75,2.95c-0.77,0.14-1.51-0.38-1.64-1.15l-1.36-7.73l-8.18,1.44c-0.77,0.14-1.51-0.38-1.64-1.15
	l-1.31-7.41l-6.06,1.07l-1.97-11.17l6.06-1.07L537.15,54.24z M430.84,72.96l41.18-7.26l1.97,11.17l-2.37,0.42l0.98,5.53
	c0.24,1.35,1.42,2.34,2.79,2.34h8.97c1.76,0,3.1-1.59,2.79-3.33l-1.73-9.75l-6.06,1.07l-1.97-11.17l6.06-1.07l-1.25-7.09l41.18-7.26
	l1.97,11.17l-2.37,0.42l2.56,14.5c0.14,0.77-0.38,1.51-1.15,1.64l-8.29,1.46l1.36,7.73c0.14,0.77-0.38,1.51-1.15,1.64l-19.57,3.33
	c-1.36,0.23-2.36,1.41-2.36,2.79l0.01,11.81c0,1.76,1.59,3.1,3.33,2.79l35.03-6.18l1.97,11.17l-2.37,0.42l2.56,14.5
	c0.14,0.77-0.38,1.51-1.15,1.64l-8.29,1.46l1.36,7.73c0.14,0.77-0.38,1.51-1.15,1.64l-16.75,2.95c-0.77,0.14-1.51-0.38-1.64-1.15
	l-1.36-7.73l-8.18,1.44c-0.77,0.14-1.51-0.38-1.64-1.15l-1.31-7.41l-6.06,1.07l-1.97-11.17l6.06-1.07l-1.17-6.66
	c-0.24-1.36-1.42-2.35-2.79-2.35h-19.99l-3.92-0.74l-18.15,3.2l-1.61-9.12l-9.57,1.69l-1.55-8.8l-6.06,1.07l-1.97-11.17l6.06-1.07
	L430.84,72.96z M484.8,208.92c0.14,0.77-0.38,1.51-1.15,1.64l-16.75,2.95c-0.77,0.14-1.51-0.38-1.64-1.15l-1.36-7.73l-8.18,1.44
	c-0.77,0.14-1.51-0.38-1.64-1.15l-1.31-7.41l-6.06,1.07l-1.97-11.17l6.06-1.07l-1.25-7.09l41.18-7.26l1.97,11.17l-2.37,0.42
	l2.56,14.5c0.14,0.77-0.38,1.51-1.15,1.64l-8.29,1.46L484.8,208.92z M440.13,126.11l41.18-7.26l1.97,11.17l-2.37,0.42l2.56,14.5
	c0.14,0.77-0.38,1.51-1.15,1.64l-8.29,1.46l1.36,7.73c0.14,0.77-0.38,1.51-1.15,1.64l-16.75,2.95c-0.77,0.14-1.51-0.38-1.64-1.15
	l-1.36-7.73l-8.18,1.44c-0.77,0.14-1.51-0.38-1.64-1.15l-1.31-7.41l-6.06,1.07l-1.97-11.17l6.06-1.07L440.13,126.11z M420.53,84.9
	l1.97,11.17l-2.37,0.42l2.07,11.74l7.91-0.54l0,0.01c0.21-0.02,0.43-0.03,0.65-0.03c4.07,0,7.37,3.3,7.37,7.37
	c0,3.95-3.11,7.17-7.02,7.35l0,0l-18.92,1.29l-15.49,2.73c-0.77,0.14-1.51-0.38-1.64-1.15l-1.36-7.73l-8.18,1.44
	c-0.77,0.14-1.51-0.38-1.64-1.15l-1.31-7.41l-6.06,1.07l-1.97-11.17l6.06-1.07l-1.25-7.09L420.53,84.9z M375.42,234.14
	c0,4.07-3.3,7.37-7.37,7.37c-4.07,0-7.37-3.3-7.37-7.37c0-4.07,3.3-7.37,7.37-7.37C372.12,226.77,375.42,230.07,375.42,234.14z
	 M324.56,57.06l0.49-2.77c0.27-1.55,1.75-2.58,3.29-2.31l80.94,14.27c1.55,0.27,2.58,1.75,2.31,3.29l-0.49,2.77
	c-0.27,1.55-1.75,2.58-3.29,2.31l-80.94-14.27C325.32,60.08,324.28,58.61,324.56,57.06z M310.79,91.35l6.06,1.07l1.25-7.09
	l41.18,7.26l-1.97,11.17l-2.37-0.42l-2.56,14.5c-0.14,0.77-0.87,1.29-1.64,1.15l-8.29-1.46l-1.36,7.73
	c-0.14,0.77-0.87,1.29-1.64,1.15l-15.17-2.68l-19.47-1.33l0-0.03c-3.8-0.3-6.79-3.47-6.79-7.34c0-4.07,3.3-7.37,7.37-7.37
	c0.34,0,0.67,0.03,0.99,0.07l1.59,0.11L310.79,91.35z M244.48,199.86c-0.77-0.14-1.29-0.87-1.15-1.64l1.31-7.41l-6.06-1.07
	l1.97-11.17l6.06,1.07l1.25-7.09l41.18,7.26l-1.97,11.17l-2.37-0.42l-2.56,14.5c-0.14,0.77-0.87,1.29-1.64,1.15l-8.29-1.46
	l-1.36,7.73c-0.14,0.77-0.87,1.29-1.64,1.15l-16.75-2.95c-0.77-0.14-1.29-0.87-1.15-1.64l1.36-7.73L244.48,199.86z M281.56,151.65
	l-1.36,7.73c-0.14,0.77-0.87,1.29-1.64,1.15l-16.75-2.95c-0.77-0.14-1.29-0.87-1.15-1.64l1.36-7.73l-8.18-1.44
	c-0.77-0.14-1.29-0.87-1.15-1.64l1.31-7.41l-6.06-1.07l1.97-11.17l6.06,1.07l1.25-7.09l41.18,7.26l-1.97,11.17l-2.37-0.42
	l-2.56,14.5c-0.14,0.77-0.87,1.29-1.64,1.15L281.56,151.65z M205.8,100.2l32.65,5.76c1.74,0.31,3.33-1.03,3.33-2.79l0-11.67
	c0-1.38-0.99-2.55-2.34-2.79l-19.69-3.49c-0.77-0.14-1.29-0.87-1.15-1.64l1.36-7.73l-8.18-1.44c-0.77-0.14-1.29-0.87-1.15-1.64
	l1.31-7.41l-6.06-1.07l1.97-11.17l6.06,1.07l1.25-7.09l41.18,7.26l-1.97,11.17l-2.37-0.42l-2.97,16.71
	c-0.31,1.74,1.03,3.33,2.79,3.33h2.89c1.38,0,2.56-0.99,2.79-2.35l1.83-10.48l6.06,1.07l1.25-7.09l41.18,7.26l-1.97,11.17
	l-2.37-0.42l-2.56,14.5c-0.14,0.77-0.87,1.29-1.64,1.15l-8.29-1.46l-1.36,7.73c-0.14,0.77-0.87,1.29-1.64,1.15l-16.75-2.95
	l-6.78,0.58h-15.01c-1.36,0-2.47,1.1-2.47,2.47v0l-1.97,11.17l-2.37-0.42l-2.56,14.5c-0.14,0.77-0.87,1.29-1.64,1.15l-8.29-1.46
	l-1.36,7.73c-0.14,0.77-0.87,1.29-1.64,1.15l-16.75-2.95c-0.77-0.14-1.29-0.87-1.15-1.64l1.36-7.73l-8.18-1.44
	c-0.77-0.14-1.29-0.87-1.15-1.64l1.31-7.41l-6.06-1.07l1.97-11.17l6.06,1.07L205.8,100.2z M152.94,53.48l6.06,1.07l1.25-7.09
	l41.18,7.26l-1.97,11.17l-2.37-0.42l-2.56,14.5c-0.14,0.77-0.87,1.29-1.64,1.15l-8.29-1.46l-1.36,7.73
	c-0.14,0.77-0.87,1.29-1.64,1.15l-16.75-2.95c-0.77-0.14-1.29-0.87-1.15-1.64l1.36-7.73l-8.18-1.44c-0.77-0.14-1.29-0.87-1.15-1.64
	l1.31-7.41l-6.06-1.07L152.94,53.48z M98.11,53.96l6.06,1.07l1.25-7.09l41.18,7.26l-1.97,11.17l-2.37-0.42l-2.89,16.36h15.42
	c1.57,0,2.83,1.27,2.83,2.83v14.17c0,0.91-0.44,1.71-1.11,2.23l35.56,6.27l-1.97,11.17l-2.37-0.42l-2.06,11.67l7.99,2.14l-0.01,0.03
	c2.97,0.95,5.12,3.73,5.12,7.02c0,4.07-3.3,7.37-7.37,7.37c-0.82,0-1.61-0.14-2.35-0.39l-19.78-5.3l-13.78-2.43
	c-0.77-0.14-1.29-0.87-1.15-1.64l1.36-7.73l-8.18-1.44c-0.77-0.14-1.29-0.87-1.15-1.64l1.31-7.41l-6.06-1.07l1.97-11.17l6.06,1.07
	l0.97-5.5h-15.68c-1.57,0-2.83-1.27-2.83-2.83v-9.37l-22.1-3.89c-0.77-0.14-1.29-0.87-1.15-1.64l1.36-7.73l-8.18-1.44
	c-0.77-0.14-1.29-0.87-1.15-1.64l1.31-7.41l-6.06-1.07L98.11,53.96z M43.26,54.26l5.95,1.07l1.25-7.09l41.18,7.26l-1.97,11.17
	l-2.37-0.42l-2.03,11.51l7.95,2.13l0,0.01c3,0.93,5.18,3.73,5.18,7.04c0,4.07-3.3,7.37-7.37,7.37c-0.56,0-1.1-0.07-1.62-0.18l0,0.01
	l-18.67-5l-15.67-2.76c-0.77-0.14-1.29-0.87-1.15-1.64L55.26,77l-8.18-1.44c-0.77-0.14-1.29-0.87-1.15-1.64l1.31-7.41l-5.95-1.07
	L43.26,54.26z M71.58,201.09c-0.56,0-1.11-0.07-1.63-0.19l0,0.01l-24.29-6.51l-9.44-1.66c-0.77-0.14-1.29-0.87-1.15-1.64l1.36-7.73
	l-8.18-1.44c-0.77-0.14-1.29-0.87-1.15-1.64l1.31-7.41l-6.07-1.09l1.97-11.17l6.07,1.09l1.25-7.09l41.18,7.26l-1.97,11.17
	l-2.37-0.42l-2.13,12.05l7.43,1.99l0,0c3.01,0.93,5.19,3.73,5.19,7.04C78.95,197.79,75.65,201.09,71.58,201.09z M125.79,172.56
	l-2.37-0.42l-2.56,14.5c-0.14,0.77-0.87,1.29-1.64,1.15l-8.29-1.46l-1.36,7.73c-0.14,0.77-0.87,1.29-1.64,1.15l-16.75-2.95
	c-0.77-0.14-1.29-0.87-1.15-1.64l1.36-7.73l-8.18-1.44c-0.77-0.14-1.29-0.87-1.15-1.64l1.31-7.41l-6.06-1.07l1.97-11.17l6.06,1.07
	l0.74-4.61c0.31-1.74-1.03-3.33-2.79-3.33l-12.37-0.01c-1.56,0-2.83-1.27-2.83-2.83l0-4.63c0-1.37-0.98-2.54-2.32-2.79l-3.37-0.62
	l-16.75-2.95c-0.77-0.14-1.29-0.87-1.15-1.64l1.36-7.73l-8.18-1.44c-0.77-0.14-1.29-0.87-1.15-1.64l1.31-7.41l-6-1.07l1.97-11.17
	l6,1.07l1.25-7.09l41.18,7.26l-1.97,11.17l-2.37-0.42l-1.92,10.77c-0.31,1.74,1.03,3.33,2.79,3.33h11.69c1.57,0,2.83,1.27,2.83,2.83
	v16.66c0,1.38,0.99,2.56,2.34,2.79l32.14,5.66L125.79,172.56z M128.52,134.63l-8.29-1.46l-1.36,7.73c-0.14,0.77-0.87,1.29-1.64,1.15
	l-16.75-2.95c-0.77-0.14-1.29-0.87-1.15-1.64l1.36-7.73l-8.18-1.44c-0.77-0.14-1.29-0.87-1.15-1.64l1.31-7.41l-6.06-1.07L88.57,107
	l6.06,1.07l1.25-7.09l41.18,7.26l-1.97,11.17l-2.37-0.42l-2.56,14.5C130.02,134.26,129.29,134.77,128.52,134.63z M193.82,205.52
	c0,1.57-1.27,2.83-2.83,2.83h-19.84c-1.57,0-2.83-1.27-2.83-2.83v-9.6l-22.3-3.97c-0.77-0.14-1.29-0.87-1.15-1.64l1.36-7.73
	l-9.57-1.69l1.55-8.8l-6.06-1.07l1.97-11.17l6.06,1.07l1.25-7.09l41.18,7.26l-1.97,11.17l-2.37-0.42l-2.9,16.67h15.63
	c1.57,0,2.83,1.27,2.83,2.83V205.52z M229.01,187.08l-8.29-1.46l-1.36,7.73c-0.14,0.77-0.87,1.29-1.64,1.15l-16.75-2.95
	c-0.77-0.14-1.29-0.87-1.15-1.64l1.36-7.73l-8.18-1.44c-0.77-0.14-1.29-0.87-1.15-1.64l1.31-7.41l-6.06-1.07l1.97-11.17l6.06,1.07
	l1.25-7.09l41.18,7.26l-1.97,11.17l-2.37-0.42l-2.56,14.5C230.51,186.71,229.78,187.22,229.01,187.08z M238,233.06
	c-4.07,0-7.37-3.3-7.37-7.37c0-4.07,3.3-7.37,7.37-7.37c4.07,0,7.37,3.3,7.37,7.37C245.37,229.76,242.07,233.06,238,233.06z
	 M320.09,263.72c0,1.57-1.27,2.83-2.83,2.83h-22.68l-4.62,1.31c-0.96,0.27-1.7,1.03-1.96,1.99l-2.66,9.92c-0.2,0.76-0.98,1.2-1.74,1
	l-8.13-2.18l-2.03,7.58c-0.2,0.76-0.98,1.2-1.74,1l-16.43-4.4c-0.76-0.2-1.2-0.98-1-1.74l2.03-7.58l-8.02-2.15
	c-0.76-0.2-1.2-0.98-1-1.74l1.95-7.27l-5.95-1.59l2.93-10.95l5.91,1.59l1.94-7.24L291.1,254c1.8,0.48,3.56-0.87,3.57-2.73
	l-0.09-1.73c0-1.57,1.27-2.83,2.83-2.83h19.84c1.57,0,2.83,1.27,2.83,2.83V263.72z M322.26,231.62c-0.14,0.77-0.87,1.29-1.64,1.15
	l-16.75-2.95c-0.77-0.14-1.29-0.87-1.15-1.64l1.36-7.73l-8.18-1.44c-0.77-0.14-1.29-0.87-1.15-1.64l1.31-7.41l-6.06-1.07l1.97-11.17
	l6.06,1.07l1.25-7.09l41.18,7.26l-1.97,11.17l-2.37-0.42l-2.56,14.5c-0.14,0.77-0.87,1.29-1.64,1.15l-8.29-1.46L322.26,231.62z
	 M340.06,251.7v3.89c0,3.23-2.62,5.85-5.85,5.85s-5.85-2.62-5.85-5.85v-3.89c0-3.23,2.62-5.85,5.85-5.85S340.06,248.47,340.06,251.7
	z M336.82,302.32h-5.23c-2.47,0-4.47-2-4.47-4.47s2-4.47,4.47-4.47h5.23c2.47,0,4.47,2,4.47,4.47S339.29,302.32,336.82,302.32z
	 M341.27,172.14l-8.29-1.46l-1.36,7.73c-0.14,0.77-0.87,1.29-1.64,1.15l-16.75-2.95c-0.77-0.14-1.29-0.87-1.15-1.64l1.36-7.73
	l-8.18-1.44c-0.77-0.14-1.29-0.87-1.15-1.64l1.31-7.41l-6.06-1.07l1.97-11.17l6.06,1.07l1.25-7.09l41.18,7.26l-1.97,11.17
	l-2.37-0.42l-2.56,14.5C342.78,171.76,342.05,172.28,341.27,172.14z M390.18,269.33h-2.41v14.72c0,0.78-0.63,1.42-1.42,1.42h-8.42
	v7.84c0,0.78-0.63,1.42-1.42,1.42h-17.01c-0.78,0-1.42-0.63-1.42-1.42v-7.84h-8.3c-0.78,0-1.42-0.63-1.42-1.42v-7.52h-6.16V265.2
	h6.16V258h41.81V269.33z M391.87,163.51l-6.06,1.07l-1.97-11.17l6.06-1.07l-1.25-7.09l41.18-7.26l1.97,11.17l-2.37,0.42l2.56,14.5
	c0.14,0.77-0.38,1.51-1.15,1.64l-8.29,1.46l1.36,7.73c0.14,0.77-0.38,1.51-1.15,1.64L406,179.5c-0.77,0.14-1.51-0.38-1.64-1.15
	l-1.36-7.73l-8.18,1.44c-0.77,0.14-1.51-0.38-1.64-1.15L391.87,163.51z M404.5,302.32h-5.23c-2.47,0-4.47-2-4.47-4.47
	s2-4.47,4.47-4.47h5.23c2.47,0,4.47,2,4.47,4.47S406.97,302.32,404.5,302.32z M396.04,255.6v-3.89c0-3.23,2.62-5.85,5.85-5.85
	s5.85,2.62,5.85,5.85v3.89c0,3.23-2.62,5.85-5.85,5.85S396.04,258.83,396.04,255.6z M413.83,231.53l-1.36-7.73l-8.18,1.44
	c-0.77,0.14-1.51-0.38-1.64-1.15l-1.31-7.41l-6.06,1.07l-1.97-11.17l6.06-1.07l-1.25-7.09l41.18-7.26l1.97,11.17l-2.37,0.42
	l2.56,14.5c0.14,0.77-0.38,1.51-1.15,1.64l-8.29,1.46l1.36,7.73c0.14,0.77-0.38,1.51-1.15,1.64l-16.75,2.95
	C414.7,232.81,413.97,232.3,413.83,231.53z M487.85,271.19l-7.31,1.99l2.03,7.58c0.2,0.76-0.25,1.53-1,1.74l-17.25,4.59
	c-0.76,0.2-1.53-0.25-1.74-1l-2.03-7.58l-8.02,2.15c-0.76,0.2-1.53-0.25-1.74-1l-1.95-7.27l-5.95,1.59l-1.48-5.3
	c-0.34-1.22-1.45-2.06-2.72-2.07L419,266.53c-1.57,0-2.83-1.27-2.83-2.83v-14.17c0-1.57,1.27-2.83,2.83-2.83h21.25
	c0.9,0,1.74,0.43,2.28,1.15l0.86,3.77c0.36,1.57,1.95,2.52,3.5,2.11l37.54-10.06l2.93,10.95l-2.33,0.62l3.81,14.22
	C489.05,270.21,488.6,270.99,487.85,271.19z M498.16,233.05c-4.07,0-7.37-3.3-7.37-7.37c0-4.07,3.3-7.37,7.37-7.37
	c4.07,0,7.37,3.3,7.37,7.37C505.53,229.75,502.23,233.05,498.16,233.05z M536.22,189.91c0.14,0.77-0.38,1.51-1.15,1.64l-16.75,2.95
	c-0.77,0.14-1.51-0.38-1.64-1.15l-1.36-7.73l-8.18,1.44c-0.77,0.14-1.51-0.38-1.64-1.15l-1.31-7.41l-6.06,1.07l-1.97-11.17
	l6.06-1.07l-1.25-7.09l41.18-7.26l1.97,11.17l-2.37,0.42l2.56,14.5c0.14,0.77-0.38,1.51-1.15,1.64l-8.29,1.46L536.22,189.91z
	 M598.11,181.02l-8.29,1.46l1.36,7.73c0.14,0.77-0.38,1.51-1.15,1.64l-22.09,3.84v9.83c0,1.57-1.27,2.83-2.83,2.83h-19.84
	c-1.57,0-2.83-1.27-2.83-2.83v-14.17c0-1.57,1.27-2.83,2.83-2.83h15.58l-1.69-9.7l-6.06,1.07l-1.97-11.17l6.06-1.07l-1.25-7.09
	l41.18-7.26l1.97,11.17l-2.37,0.42l2.56,14.5C599.39,180.15,598.88,180.89,598.11,181.02z M604.63,126.07l-6.06,1.07l-1.97-11.17
	l6.06-1.07l-1.25-7.09l41.18-7.26l1.97,11.17l-2.37,0.42l2.56,14.5c0.14,0.77-0.38,1.51-1.15,1.64l-8.29,1.46l1.36,7.73
	c0.14,0.77-0.38,1.51-1.15,1.64l-16.75,2.95c-0.77,0.14-1.51-0.38-1.64-1.15l-1.36-7.73l-8.18,1.44c-0.77,0.14-1.51-0.38-1.64-1.15
	L604.63,126.07z M652.48,156.62l1.45,8.24l-2.37,0.42l2.56,14.5c0.14,0.77-0.38,1.51-1.15,1.64l-8.29,1.46l1.36,7.73
	c0.14,0.77-0.38,1.51-1.15,1.64l-16.75,2.95c-0.77,0.14-1.51-0.38-1.64-1.15l-1.36-7.73l-8.18,1.44c-0.77,0.14-1.51-0.38-1.64-1.15
	l-1.31-7.41l-6.06,1.07l-1.97-11.17l6.06-1.07l-1.25-7.09l30.08-5.2c1.36-0.23,2.35-1.41,2.35-2.79l0.01-16.69
	c0-1.57,1.27-2.83,2.83-2.83h5.24c1.73-0.04,3.03-1.61,2.73-3.32l-2.45-13.86l6.06-1.07l-1.25-7.09l41.18-7.26l1.97,11.17
	l-2.37,0.42l2.56,14.5c0.14,0.77-0.38,1.51-1.15,1.64l-8.29,1.46l1.36,7.72c0.14,0.77-0.38,1.51-1.15,1.64l-19.72,3.49
	c-1.35,0.24-2.34,1.42-2.34,2.79v4.77c0,1.56-1.27,2.83-2.83,2.83l-10.32,0.01C653.51,153.29,652.17,154.88,652.48,156.62z
	 M707.87,181.85l-8.29,1.46l1.36,7.73c0.14,0.77-0.38,1.51-1.15,1.64l-8.31,1.47l-25.25,6.77l-0.02-0.08
	c-0.51,0.11-1.04,0.18-1.59,0.18c-4.07,0-7.37-3.3-7.37-7.37c0-3.75,2.8-6.84,6.42-7.3l6.13-1.64l-0.89-5.05l-6.06,1.07l-1.97-11.17
	l6.06-1.07l-1.25-7.09l41.18-7.26l1.97,11.17l-2.37,0.42l2.56,14.5C709.16,180.98,708.64,181.71,707.87,181.85z"/>
<text transform="matrix(1 0 0 1 9.0037 265.6694)"><tspan x="0" y="0" class="st1 st2">W : 253.34 mm</tspan><tspan x="0" y="24" class="st1 st2">H : 107.073 mm</tspan></text>
</svg>
