G04 #@! TF.GenerationSoftware,KiCad,Pcbnew,(5.1.9-0-10_14)*
G04 #@! TF.CreationDate,2021-05-25T11:07:59+09:00*
G04 #@! TF.ProjectId,pcb-top-plate,7063622d-746f-4702-9d70-6c6174652e6b,1.3*
G04 #@! TF.SameCoordinates,PX2faf080PY2faf080*
G04 #@! TF.FileFunction,Soldermask,Top*
G04 #@! TF.FilePolarity,Negative*
%FSLAX46Y46*%
G04 Gerber Fmt 4.6, Leading zero omitted, Abs format (unit mm)*
G04 Created by KiCad (PCBNEW (5.1.9-0-10_14)) date 2021-05-25 11:07:59*
%MOMM*%
%LPD*%
G01*
G04 APERTURE LIST*
%ADD10C,0.200000*%
%ADD11C,2.200000*%
%ADD12C,4.400000*%
G04 APERTURE END LIST*
D10*
X167786288Y-63021331D02*
X167375329Y-62610258D01*
X167223540Y-63120559D02*
X167049892Y-62135751D01*
X167425057Y-62069599D01*
X167527117Y-62099957D01*
X167582282Y-62138584D01*
X167645715Y-62224106D01*
X167670522Y-62364793D01*
X167640165Y-62466853D01*
X167601538Y-62522017D01*
X167516016Y-62585451D01*
X167140851Y-62651603D01*
X168117390Y-62431059D02*
X168445659Y-62373176D01*
X168677304Y-62864221D02*
X168208348Y-62946911D01*
X168034700Y-61962103D01*
X168503656Y-61879413D01*
X168785030Y-61829799D02*
X169286947Y-62756724D01*
X169441568Y-61714034D01*
X169943486Y-62640959D02*
X169769837Y-61656151D01*
X170238794Y-61573462D02*
X170379366Y-62370687D01*
X170442799Y-62456209D01*
X170497964Y-62494836D01*
X170600024Y-62525194D01*
X170787607Y-62492118D01*
X170873129Y-62428684D01*
X170911755Y-62373520D01*
X170942113Y-62271459D01*
X170801541Y-61474234D01*
X171444145Y-62376352D02*
X171270497Y-61391544D01*
X172006892Y-62277125D01*
X171833244Y-61292317D01*
X172826321Y-61165564D02*
X172724261Y-61135207D01*
X172583574Y-61160014D01*
X172451156Y-61231716D01*
X172373903Y-61342045D01*
X172343545Y-61444105D01*
X172329725Y-61639957D01*
X172354532Y-61780644D01*
X172434504Y-61959957D01*
X172497937Y-62045479D01*
X172608266Y-62122733D01*
X172757222Y-62144821D01*
X172851013Y-62128283D01*
X172983431Y-62056581D01*
X173022058Y-62001416D01*
X172964175Y-61673147D01*
X172776593Y-61706223D01*
X173766951Y-61289828D02*
X173882717Y-61946366D01*
X173466321Y-60956008D02*
X173355878Y-61700787D01*
X173965521Y-61593290D01*
X174914420Y-61764449D02*
X174351673Y-61863677D01*
X174633046Y-61814063D02*
X174459398Y-60829255D01*
X174390414Y-60986480D01*
X174313161Y-61096809D01*
X174227638Y-61160243D01*
X176086810Y-61557725D02*
X175971045Y-60901187D01*
X176004121Y-61088769D02*
X176034478Y-60986709D01*
X176073105Y-60931544D01*
X176158627Y-60868111D01*
X176252418Y-60851573D01*
X177063349Y-61337181D02*
X176977827Y-61400615D01*
X176790244Y-61433691D01*
X176688184Y-61403333D01*
X176624751Y-61317811D01*
X176558599Y-60942646D01*
X176588957Y-60840586D01*
X176674479Y-60777152D01*
X176862061Y-60744076D01*
X176964121Y-60774434D01*
X177027555Y-60859956D01*
X177044093Y-60953748D01*
X176591675Y-61130228D01*
X177331017Y-60661387D02*
X177681261Y-61276580D01*
X177799973Y-60578697D01*
X178806755Y-61078125D02*
X178244008Y-61177353D01*
X178525382Y-61127739D02*
X178351734Y-60142931D01*
X178282749Y-60300156D01*
X178205496Y-60410485D01*
X178119974Y-60473919D01*
X179212278Y-60909914D02*
X179267443Y-60948540D01*
X179228816Y-61003705D01*
X179173651Y-60965078D01*
X179212278Y-60909914D01*
X179228816Y-61003705D01*
X179430333Y-59952745D02*
X180039975Y-59845249D01*
X179777858Y-60278296D01*
X179918545Y-60253490D01*
X180020605Y-60283847D01*
X180075769Y-60322474D01*
X180139203Y-60407996D01*
X180180548Y-60642474D01*
X180150190Y-60744534D01*
X180111563Y-60799699D01*
X180026041Y-60863132D01*
X179744668Y-60912746D01*
X179642607Y-60882388D01*
X179587443Y-60843762D01*
X181736486Y-59594462D02*
X181634426Y-59564104D01*
X181493739Y-59588911D01*
X181361321Y-59660614D01*
X181284068Y-59770943D01*
X181253710Y-59873003D01*
X181239891Y-60068854D01*
X181264698Y-60209541D01*
X181344669Y-60388854D01*
X181408103Y-60474377D01*
X181518432Y-60551630D01*
X181667387Y-60573719D01*
X181761179Y-60557181D01*
X181893597Y-60485478D01*
X181932223Y-60430314D01*
X181874340Y-60102045D01*
X181686758Y-60135120D01*
X182370822Y-60449684D02*
X182197173Y-59464877D01*
X182279863Y-59933833D02*
X182842610Y-59834605D01*
X182933569Y-60350457D02*
X182759921Y-59365649D01*
D11*
X94750000Y-31260000D03*
X92080000Y-34010000D03*
X97420000Y-34010000D03*
X89440000Y-64270000D03*
X94750000Y-64280000D03*
X100080000Y-64280000D03*
X102750000Y-61520000D03*
X97430000Y-61520000D03*
X92080000Y-61520000D03*
X86740000Y-61520000D03*
X100080000Y-58770000D03*
X94760000Y-58770000D03*
X89440000Y-58770000D03*
X97420000Y-56010000D03*
X92080000Y-56020000D03*
X100070000Y-53270000D03*
X89440000Y-53270000D03*
X97420000Y-50510000D03*
X92090000Y-50510000D03*
X100070000Y-47770000D03*
X94750000Y-47770000D03*
X89440000Y-47770000D03*
X97420000Y-45010000D03*
X92080000Y-45010000D03*
X100070000Y-42270000D03*
X94760000Y-42270000D03*
X89440000Y-42270000D03*
X97420000Y-39510000D03*
X92080000Y-39510000D03*
X94760000Y-36770000D03*
X117000000Y1230000D03*
X90700000Y-13230000D03*
X79450000Y-11220000D03*
X199400000Y-54610000D03*
X192540000Y-16940000D03*
X157120000Y-35450000D03*
X140650000Y-65890000D03*
X116910000Y-26840000D03*
X48880000Y-65880000D03*
X72690000Y-26850000D03*
X32480000Y-35450000D03*
X-9800000Y-54610000D03*
X-2950000Y-16950000D03*
D12*
X94800000Y-68860000D03*
M02*
