M48
; DRILL file {KiCad (5.1.9-0-10_14)} date Tuesday, May 25, 2021 at 11:08:02 AM
; FORMAT={-:-/ absolute / metric / decimal}
; #@! TF.CreationDate,2021-05-25T11:08:02+09:00
; #@! TF.GenerationSoftware,Kicad,Pcbnew,(5.1.9-0-10_14)
FMAT,2
METRIC
T1C2.200
T2C2.200
%
G90
G05
T1
X94.8Y-68.86
T2
X-9.8Y-54.61
X-2.95Y-16.95
X32.48Y-35.45
X48.88Y-65.88
X72.69Y-26.85
X79.45Y-11.22
X86.74Y-61.52
X89.44Y-42.27
X89.44Y-47.77
X89.44Y-53.27
X89.44Y-58.77
X89.44Y-64.27
X90.7Y-13.23
X92.08Y-34.01
X92.08Y-39.51
X92.08Y-45.01
X92.08Y-56.02
X92.08Y-61.52
X92.09Y-50.51
X94.75Y-31.26
X94.75Y-47.77
X94.75Y-64.28
X94.76Y-36.77
X94.76Y-42.27
X94.76Y-58.77
X97.42Y-34.01
X97.42Y-39.51
X97.42Y-45.01
X97.42Y-50.51
X97.42Y-56.01
X97.43Y-61.52
X100.07Y-42.27
X100.07Y-47.77
X100.07Y-53.27
X100.08Y-58.77
X100.08Y-64.28
X102.75Y-61.52
X116.91Y-26.84
X117.0Y1.23
X140.65Y-65.89
X157.12Y-35.45
X192.54Y-16.94
X199.4Y-54.61
T0
M30
