<?xml version="1.0" encoding="utf-8"?>
<!-- Generator: Adobe Illustrator 24.0.1, SVG Export Plug-In . SVG Version: 6.00 Build 0)  -->
<svg version="1.1" xmlns="http://www.w3.org/2000/svg" xmlns:xlink="http://www.w3.org/1999/xlink" x="0px" y="0px"
	 viewBox="0 0 483.7 151.48" style="enable-background:new 0 0 483.7 151.48;" xml:space="preserve">
<style type="text/css">
	.st0{fill:none;stroke:#000000;stroke-width:0.7087;stroke-miterlimit:10;}
	.st1{fill:#FF0000;}
</style>
<g id="cut">
	<path class="st0" d="M2.83,55.5C1.27,55.5,0,56.77,0,58.33L0,64c0,1.57,1.27,2.83,2.83,2.83l19.25,0l0,3.18
		c0,0.68,0.24,1.34,0.69,1.85l3.38,3.92c0.54,0.62,1.32,0.98,2.15,0.98h7.24c0.78,0,1.42,0.63,1.42,1.42v24.11
		c0,0.78-0.63,1.42-1.42,1.42l-7.25,0c-0.82,0-1.6,0.36-2.14,0.97l-3.37,3.87c-0.45,0.52-0.7,1.18-0.7,1.86l0,11.69
		c0,1.57,1.27,2.83,2.83,2.83l29.05,0c1.25,0,2.24,1.07,2.11,2.35c-0.11,1.11-1.12,1.91-2.24,1.91l-28.93,0
		c-1.57,0-2.83,1.27-2.83,2.83v2.14c0,0.46,0.22,0.88,0.59,1.15l3.2,2.31c0.47,0.34,1.12,0,1.12-0.57v-2.16l26.97,0
		c1.25,0,2.24,1.07,2.11,2.35c-0.11,1.11-1.12,1.91-2.24,1.91l-14.06,0c-1.57,0-2.83,1.27-2.83,2.83v6.67
		c0,1.57,1.27,2.83,2.83,2.83h68.38c1.8,0,3.58-0.34,5.25-1.01l25.07-10c2.34-0.93,4.84-1.41,7.36-1.41l39.77,0
		c3.03,0,5.99,0.97,8.43,2.78l9.29,6.87c2.44,1.8,5.39,2.78,8.43,2.78h60.56c3.03,0,5.99-0.97,8.43-2.78l9.29-6.87
		c2.44-1.8,5.39-2.78,8.43-2.78l39.19,0c2.5,0,4.98,0.47,7.3,1.39l25.36,10.04c1.66,0.66,3.43,0.99,5.22,0.99h68.37
		c1.57,0,2.83-1.27,2.83-2.83v-6.67c0-1.57-1.27-2.83-2.83-2.83h-14.19c-1.25,0-2.24-1.07-2.11-2.35c0.11-1.11,1.12-1.91,2.24-1.91
		l26.84,0v2.16c0,0.58,0.65,0.91,1.12,0.57l3.2-2.31c0.37-0.27,0.59-0.69,0.59-1.15v-2.14c0-1.57-1.27-2.83-2.83-2.83l-28.93,0
		c-1.11,0-2.13-0.8-2.24-1.91c-0.13-1.27,0.87-2.35,2.11-2.35l29.05,0.02c1.57,0,2.84-1.27,2.84-2.83l0-11.71
		c0-0.68-0.25-1.35-0.7-1.86l-3.37-3.87c-0.54-0.62-1.32-0.97-2.14-0.97l-7.24,0c-0.78,0-1.42-0.63-1.42-1.42l0-24.11
		c0-0.78,0.63-1.42,1.42-1.42l7.23,0c0.82,0,1.61-0.36,2.15-0.98l3.38-3.92c0.44-0.51,0.69-1.17,0.69-1.85l0-3.18l19.25,0
		c1.57,0,2.83-1.27,2.83-2.83v-5.7c0-1.57-1.27-2.83-2.83-2.83l-19.26,0h-31.89c-1.25,0-2.24-1.07-2.11-2.35
		c0.11-1.11,1.12-1.91,2.24-1.91l28.93,0c1.57,0,2.83-1.27,2.83-2.83l0-2.08c0-0.46-0.22-0.88-0.59-1.15l-3.2-2.3
		c-0.47-0.34-1.14,0-1.13,0.58l0.01,2.14l-26.97,0c-1.25,0-2.24-1.07-2.11-2.35c0.11-1.11,1.12-1.91,2.24-1.91l14.06,0
		c1.57,0,2.83-1.27,2.83-2.83l0-14.73c0-1.57-1.27-2.83-2.83-2.83h-40.56c-0.54,0-1.07,0.15-1.52,0.44l-28.76,23.74
		c-0.31,0.2-0.66,0.34-1.03,0.4l-77.02,13.44c-0.94,0.17-1.91-0.15-2.56-0.85l-12.93-13.8c-1.61-1.72-3.85-2.69-6.21-2.69h-62.57
		c-2.33,0-4.55,0.95-6.15,2.64l-13.24,13.88c-0.66,0.69-1.61,1-2.55,0.83l-77.17-13.44c-0.37-0.06-0.71-0.2-1.03-0.4L81.84,21.38
		c-0.46-0.29-0.98-0.44-1.52-0.44H39.8c-1.57,0-2.83,1.27-2.83,2.83l0,14.73c0,1.57,1.27,2.83,2.83,2.83h14.18
		c1.25,0,2.24,1.07,2.11,2.35c-0.11,1.11-1.12,1.91-2.24,1.91l-26.85,0l0.01-2.14c0-0.58-0.66-0.92-1.13-0.58l-3.2,2.3
		c-0.37,0.27-0.59,0.69-0.59,1.15l0,2.08c0,1.57,1.27,2.83,2.83,2.83h29.05c1.25,0,2.24,1.07,2.11,2.35
		c-0.11,1.11-1.12,1.91-2.24,1.91L2.83,55.5z M224.89,130.93v-22.68c0-0.78,0.63-1.42,1.42-1.42h31.18c0.78,0,1.42,0.63,1.42,1.42
		v22.68c0,0.78-0.63,1.42-1.42,1.42h-31.18C225.52,132.35,224.89,131.71,224.89,130.93z"/>
</g>
<g id="graving">
	<g>
		<path class="st1" d="M65.17,82.06h4.42c2.95,0,4.94,0.11,5.98,0.34s1.89,0.81,2.55,1.74c0.66,0.93,0.99,2.42,0.99,4.47
			c0,1.87-0.23,3.12-0.7,3.77c-0.46,0.64-1.38,1.03-2.74,1.16c1.24,0.31,2.07,0.72,2.49,1.23c0.43,0.51,0.69,0.99,0.79,1.42
			c0.1,0.43,0.16,1.61,0.16,3.55v6.33h-5.8v-7.98c0-1.28-0.1-2.08-0.3-2.39c-0.2-0.31-0.73-0.46-1.59-0.46v10.82h-6.24V82.06z
			 M71.41,86.17v5.34c0.7,0,1.19-0.1,1.48-0.29c0.28-0.19,0.42-0.82,0.42-1.88v-1.32c0-0.76-0.14-1.26-0.41-1.5
			S72.13,86.17,71.41,86.17z"/>
		<path class="st1" d="M81.47,82.06h10.41v4.8h-4.17v4.55h3.9v4.57h-3.9v5.28h4.58v4.8H81.47V82.06z"/>
		<path class="st1" d="M109.61,82.06l-3.18,24h-9.48l-3.61-24h6.58c0.77,6.61,1.31,12.21,1.64,16.78c0.32-4.63,0.66-8.73,1.03-12.32
			l0.43-4.46H109.61z"/>
		<path class="st1" d="M117.45,82.06v24h-6.24v-24H117.45z"/>
		<path class="st1" d="M134.11,82.06V98.1c0,1.82-0.06,3.1-0.18,3.83c-0.12,0.74-0.47,1.49-1.05,2.27s-1.35,1.36-2.31,1.76
			c-0.95,0.4-2.08,0.6-3.37,0.6c-1.43,0-2.7-0.24-3.8-0.71c-1.1-0.47-1.92-1.09-2.46-1.85c-0.54-0.76-0.86-1.56-0.96-2.41
			c-0.1-0.85-0.15-2.62-0.15-5.33v-14.2h6.24v18c0,1.05,0.06,1.72,0.17,2.01s0.34,0.44,0.69,0.44c0.4,0,0.65-0.16,0.76-0.48
			c0.11-0.32,0.17-1.08,0.17-2.28V82.06H134.11z"/>
		<path class="st1" d="M150.44,82.06v24h-5.47l-3.25-10.91v10.91h-5.22v-24h5.22l3.5,10.81V82.06H150.44z"/>
		<path class="st1" d="M167.23,90.9h-6.24v-2.18c0-1.37-0.06-2.23-0.18-2.58c-0.12-0.35-0.4-0.52-0.85-0.52
			c-0.39,0-0.65,0.15-0.79,0.44c-0.14,0.3-0.21,1.06-0.21,2.28v11.52c0,1.08,0.07,1.79,0.21,2.13s0.42,0.51,0.83,0.51
			c0.45,0,0.76-0.19,0.93-0.58c0.16-0.39,0.24-1.14,0.24-2.25v-2.85h-1.26v-3.65h7.31v12.88h-3.92l-0.58-1.72
			c-0.43,0.74-0.96,1.3-1.61,1.67c-0.65,0.37-1.41,0.56-2.29,0.56c-1.05,0-2.03-0.25-2.95-0.76s-1.61-1.14-2.09-1.89
			s-0.77-1.54-0.89-2.36c-0.12-0.83-0.18-2.06-0.18-3.71v-7.13c0-2.29,0.12-3.96,0.37-5c0.25-1.04,0.96-1.99,2.13-2.85
			c1.17-0.86,2.69-1.3,4.54-1.3c1.83,0,3.35,0.38,4.55,1.13s1.99,1.64,2.36,2.68c0.37,1.03,0.55,2.53,0.55,4.5V90.9z"/>
	</g>
	<g>
		<g>
			<g>
				<circle class="st1" cx="368.23" cy="120.63" r="3.77"/>
				<circle class="st1" cx="399.41" cy="120.63" r="3.77"/>
				<circle class="st1" cx="383.59" cy="120.63" r="3.77"/>
				<circle class="st1" cx="415.01" cy="120.63" r="3.77"/>
			</g>
			<g>
				<circle class="st1" cx="368.23" cy="135.7" r="3.77"/>
				<circle class="st1" cx="383.82" cy="135.7" r="3.77"/>
				<circle class="st1" cx="399.41" cy="135.7" r="3.77"/>
				<circle class="st1" cx="415.01" cy="135.7" r="3.77"/>
			</g>
			<g>
				<circle class="st1" cx="360.41" cy="128.18" r="3.77"/>
				<circle class="st1" cx="376.01" cy="128.18" r="3.77"/>
				<circle class="st1" cx="391.6" cy="128.18" r="3.77"/>
				<circle class="st1" cx="407.19" cy="128.18" r="3.77"/>
			</g>
			<g>
				<circle class="st1" cx="407.19" cy="143.29" r="3.77"/>
			</g>
			<g>
				<circle class="st1" cx="391.91" cy="143.29" r="3.77"/>
			</g>
			<g>
				<circle class="st1" cx="376.61" cy="143.29" r="3.77"/>
			</g>
		</g>
		<g>
			<g>
				<circle class="st1" cx="115.56" cy="120.63" r="3.77"/>
				<circle class="st1" cx="84.38" cy="120.63" r="3.77"/>
				<circle class="st1" cx="100.2" cy="120.63" r="3.77"/>
				<circle class="st1" cx="68.79" cy="120.63" r="3.77"/>
			</g>
			<g>
				<circle class="st1" cx="115.56" cy="135.7" r="3.77"/>
				<circle class="st1" cx="99.97" cy="135.7" r="3.77"/>
				<circle class="st1" cx="84.38" cy="135.7" r="3.77"/>
				<circle class="st1" cx="68.79" cy="135.7" r="3.77"/>
			</g>
			<g>
				<circle class="st1" cx="123.38" cy="128.18" r="3.77"/>
				<circle class="st1" cx="107.79" cy="128.18" r="3.77"/>
				<circle class="st1" cx="92.19" cy="128.18" r="3.77"/>
				<circle class="st1" cx="76.6" cy="128.18" r="3.77"/>
			</g>
			<g>
				<circle class="st1" cx="76.6" cy="143.29" r="3.77"/>
			</g>
			<g>
				<circle class="st1" cx="91.88" cy="143.29" r="3.77"/>
			</g>
			<g>
				<circle class="st1" cx="107.15" cy="143.29" r="3.77"/>
			</g>
		</g>
	</g>
	<g>
		<g>
			<g>
				<circle class="st1" cx="368.39" cy="66.92" r="3.77"/>
				<circle class="st1" cx="399.58" cy="66.92" r="3.77"/>
				<circle class="st1" cx="383.76" cy="66.92" r="3.77"/>
				<circle class="st1" cx="415.17" cy="66.92" r="3.77"/>
			</g>
			<g>
				<circle class="st1" cx="383.98" cy="51.85" r="3.77"/>
				<circle class="st1" cx="399.58" cy="51.85" r="3.77"/>
				<circle class="st1" cx="415.17" cy="51.85" r="3.77"/>
			</g>
			<g>
				<circle class="st1" cx="376.17" cy="59.36" r="3.77"/>
				<circle class="st1" cx="391.76" cy="59.36" r="3.77"/>
				<circle class="st1" cx="407.35" cy="59.36" r="3.77"/>
			</g>
			<g>
				<circle class="st1" cx="407.35" cy="44.25" r="3.77"/>
			</g>
			<g>
				<circle class="st1" cx="391.42" cy="44.25" r="3.77"/>
			</g>
		</g>
		<g>
			<g>
				<circle class="st1" cx="115.43" cy="66.92" r="3.77"/>
				<circle class="st1" cx="84.24" cy="66.92" r="3.77"/>
				<circle class="st1" cx="100.06" cy="66.92" r="3.77"/>
				<circle class="st1" cx="68.65" cy="66.92" r="3.77"/>
			</g>
			<g>
				<circle class="st1" cx="99.84" cy="51.85" r="3.77"/>
				<circle class="st1" cx="84.24" cy="51.85" r="3.77"/>
				<circle class="st1" cx="68.65" cy="51.85" r="3.77"/>
			</g>
			<g>
				<circle class="st1" cx="107.65" cy="59.36" r="3.77"/>
				<circle class="st1" cx="92.06" cy="59.36" r="3.77"/>
				<circle class="st1" cx="76.47" cy="59.36" r="3.77"/>
			</g>
			<g>
				<circle class="st1" cx="76.47" cy="44.25" r="3.77"/>
			</g>
			<g>
				<circle class="st1" cx="91.89" cy="44.25" r="3.77"/>
			</g>
		</g>
	</g>
	<g>
		<path class="st1" d="M404.08,24h1.75c1.16,0,1.95,0.04,2.36,0.13s0.75,0.32,1.01,0.69s0.39,0.96,0.39,1.77
			c0,0.74-0.09,1.23-0.28,1.49s-0.54,0.41-1.08,0.46c0.49,0.12,0.82,0.28,0.98,0.49s0.27,0.39,0.31,0.56s0.06,0.64,0.06,1.4v2.5
			h-2.29v-3.15c0-0.51-0.04-0.82-0.12-0.94s-0.29-0.18-0.63-0.18v4.28h-2.47V24z M406.55,25.62v2.11c0.28,0,0.47-0.04,0.58-0.11
			s0.17-0.32,0.17-0.74v-0.52c0-0.3-0.05-0.5-0.16-0.59S406.83,25.62,406.55,25.62z"/>
		<path class="st1" d="M410.52,24h4.11v1.9h-1.65v1.8h1.54v1.8h-1.54v2.09h1.81v1.9h-4.28V24z"/>
		<path class="st1" d="M421.64,24l-1.26,9.49h-3.75L415.21,24h2.6c0.3,2.61,0.52,4.82,0.65,6.63c0.13-1.83,0.26-3.45,0.41-4.87
			l0.17-1.76H421.64z"/>
		<path class="st1" d="M424.74,24v9.49h-2.47V24H424.74z"/>
		<path class="st1" d="M431.33,24v6.34c0,0.72-0.02,1.22-0.07,1.51s-0.19,0.59-0.42,0.9s-0.53,0.54-0.91,0.7s-0.82,0.24-1.33,0.24
			c-0.57,0-1.07-0.09-1.5-0.28s-0.76-0.43-0.97-0.73s-0.34-0.62-0.38-0.95s-0.06-1.04-0.06-2.11V24h2.47v7.11
			c0,0.41,0.02,0.68,0.07,0.79s0.14,0.17,0.27,0.17c0.16,0,0.26-0.06,0.3-0.19s0.07-0.43,0.07-0.9V24H431.33z"/>
		<path class="st1" d="M437.78,24v9.49h-2.16l-1.28-4.31v4.31h-2.06V24h2.06l1.38,4.27V24H437.78z"/>
		<path class="st1" d="M444.41,27.49h-2.47v-0.86c0-0.54-0.02-0.88-0.07-1.02s-0.16-0.21-0.33-0.21c-0.15,0-0.26,0.06-0.31,0.18
			s-0.08,0.42-0.08,0.9v4.55c0,0.43,0.03,0.71,0.08,0.84s0.16,0.2,0.33,0.2c0.18,0,0.3-0.08,0.37-0.23s0.1-0.45,0.1-0.89v-1.13h-0.5
			v-1.44h2.89v5.09h-1.55l-0.23-0.68c-0.17,0.29-0.38,0.51-0.64,0.66c-0.26,0.15-0.56,0.22-0.91,0.22c-0.42,0-0.8-0.1-1.16-0.3
			s-0.64-0.45-0.82-0.75s-0.3-0.61-0.35-0.93s-0.07-0.82-0.07-1.47v-2.82c0-0.91,0.05-1.56,0.15-1.97s0.38-0.79,0.84-1.13
			s1.06-0.51,1.8-0.51c0.72,0,1.32,0.15,1.8,0.45s0.79,0.65,0.93,1.06s0.22,1,0.22,1.78V27.49z"/>
	</g>
	<g>
		<path class="st1" d="M331.03,11.65V0.2h4.87c1.22,0,2.11,0.1,2.67,0.31c0.55,0.21,1,0.57,1.33,1.1c0.33,0.53,0.5,1.13,0.5,1.8
			c0,0.86-0.25,1.57-0.76,2.13c-0.51,0.56-1.26,0.91-2.27,1.06c0.5,0.29,0.91,0.61,1.24,0.96c0.33,0.35,0.76,0.97,1.32,1.86
			l1.4,2.23h-2.77l-1.67-2.49c-0.59-0.89-1-1.45-1.22-1.68c-0.22-0.23-0.45-0.39-0.7-0.48c-0.25-0.09-0.63-0.13-1.16-0.13h-0.47
			v4.78H331.03z M333.34,5.04h1.71c1.11,0,1.8-0.05,2.08-0.14c0.28-0.09,0.49-0.25,0.65-0.48c0.16-0.23,0.23-0.52,0.23-0.86
			c0-0.39-0.1-0.7-0.31-0.93c-0.21-0.24-0.5-0.39-0.87-0.45c-0.19-0.03-0.75-0.04-1.69-0.04h-1.8V5.04z"/>
		<path class="st1" d="M347.36,9.01l2.19,0.37c-0.28,0.8-0.73,1.41-1.33,1.83c-0.61,0.42-1.37,0.63-2.28,0.63
			c-1.44,0-2.51-0.47-3.2-1.41c-0.55-0.75-0.82-1.71-0.82-2.86c0-1.38,0.36-2.45,1.08-3.23c0.72-0.78,1.63-1.17,2.73-1.17
			c1.23,0,2.21,0.41,2.92,1.22c0.71,0.82,1.05,2.06,1.02,3.75h-5.5c0.02,0.65,0.19,1.16,0.53,1.52c0.34,0.36,0.76,0.54,1.27,0.54
			c0.34,0,0.63-0.09,0.87-0.28S347.24,9.42,347.36,9.01z M347.49,6.79c-0.02-0.64-0.18-1.12-0.49-1.45c-0.31-0.33-0.69-0.5-1.14-0.5
			c-0.48,0-0.88,0.17-1.19,0.52c-0.31,0.35-0.47,0.82-0.46,1.42H347.49z"/>
		<path class="st1" d="M359.07,11.65h-2.04v-1.22c-0.34,0.47-0.74,0.83-1.2,1.06s-0.93,0.35-1.39,0.35c-0.95,0-1.77-0.38-2.45-1.15
			c-0.68-0.77-1.02-1.84-1.02-3.21c0-1.41,0.33-2.48,0.99-3.21c0.66-0.73,1.5-1.1,2.51-1.1c0.93,0,1.73,0.39,2.41,1.16V0.2h2.2
			V11.65z M353.21,7.32c0,0.89,0.12,1.53,0.37,1.92c0.35,0.57,0.85,0.86,1.48,0.86c0.5,0,0.93-0.21,1.29-0.64
			c0.35-0.43,0.53-1.07,0.53-1.93c0-0.95-0.17-1.64-0.52-2.06c-0.34-0.42-0.78-0.63-1.32-0.63c-0.52,0-0.96,0.21-1.31,0.62
			S353.21,6.5,353.21,7.32z"/>
		<path class="st1" d="M367.32,5.88l-1.99-0.36c0.22-0.8,0.61-1.4,1.16-1.78c0.55-0.39,1.36-0.58,2.44-0.58
			c0.98,0,1.71,0.12,2.19,0.35c0.48,0.23,0.82,0.53,1.01,0.88c0.2,0.36,0.29,1.01,0.29,1.96l-0.02,2.56c0,0.73,0.04,1.27,0.11,1.61
			c0.07,0.35,0.2,0.72,0.39,1.11h-2.17c-0.06-0.15-0.13-0.36-0.21-0.65c-0.04-0.13-0.06-0.22-0.08-0.26
			c-0.38,0.36-0.78,0.64-1.2,0.82c-0.43,0.18-0.88,0.27-1.37,0.27c-0.85,0-1.53-0.23-2.02-0.7c-0.49-0.46-0.74-1.05-0.74-1.76
			c0-0.47,0.11-0.89,0.34-1.25c0.22-0.37,0.54-0.65,0.94-0.84c0.4-0.2,0.99-0.37,1.75-0.51c1.03-0.19,1.74-0.37,2.13-0.54V6.02
			c0-0.42-0.1-0.72-0.31-0.9c-0.21-0.18-0.6-0.27-1.18-0.27c-0.39,0-0.7,0.08-0.91,0.23C367.63,5.23,367.45,5.5,367.32,5.88z
			 M370.25,7.66c-0.28,0.09-0.73,0.21-1.34,0.34c-0.61,0.13-1.01,0.26-1.2,0.38c-0.29,0.2-0.43,0.46-0.43,0.77
			c0,0.31,0.11,0.57,0.34,0.8c0.23,0.22,0.52,0.34,0.88,0.34c0.4,0,0.77-0.13,1.13-0.39c0.27-0.2,0.44-0.44,0.52-0.73
			c0.06-0.19,0.09-0.54,0.09-1.07V7.66z"/>
		<path class="st1" d="M376.68,11.65h-2.2v-8.3h2.04v1.18c0.35-0.56,0.66-0.92,0.94-1.1c0.28-0.18,0.59-0.27,0.95-0.27
			c0.5,0,0.98,0.14,1.45,0.41l-0.68,1.91c-0.37-0.24-0.71-0.36-1.03-0.36c-0.31,0-0.57,0.08-0.78,0.25
			c-0.21,0.17-0.38,0.48-0.5,0.92c-0.12,0.44-0.18,1.37-0.18,2.78V11.65z"/>
		<path class="st1" d="M385.61,9.01l2.19,0.37c-0.28,0.8-0.73,1.41-1.33,1.83c-0.61,0.42-1.37,0.63-2.28,0.63
			c-1.44,0-2.51-0.47-3.2-1.41c-0.55-0.75-0.82-1.71-0.82-2.86c0-1.38,0.36-2.45,1.08-3.23c0.72-0.78,1.63-1.17,2.73-1.17
			c1.23,0,2.21,0.41,2.92,1.22c0.71,0.82,1.05,2.06,1.02,3.75h-5.5c0.02,0.65,0.19,1.16,0.53,1.52c0.34,0.36,0.76,0.54,1.27,0.54
			c0.34,0,0.63-0.09,0.87-0.28S385.49,9.42,385.61,9.01z M385.73,6.79c-0.02-0.64-0.18-1.12-0.49-1.45c-0.31-0.33-0.69-0.5-1.14-0.5
			c-0.48,0-0.88,0.17-1.19,0.52c-0.31,0.35-0.47,0.82-0.46,1.42H385.73z"/>
		<path class="st1" d="M391.34,5.88l-1.99-0.36c0.22-0.8,0.61-1.4,1.16-1.78c0.55-0.39,1.36-0.58,2.44-0.58
			c0.98,0,1.71,0.12,2.19,0.35c0.48,0.23,0.82,0.53,1.01,0.88c0.2,0.36,0.29,1.01,0.29,1.96l-0.02,2.56c0,0.73,0.04,1.27,0.11,1.61
			c0.07,0.35,0.2,0.72,0.39,1.11h-2.17c-0.06-0.15-0.13-0.36-0.21-0.65c-0.04-0.13-0.06-0.22-0.08-0.26
			c-0.38,0.36-0.78,0.64-1.2,0.82c-0.43,0.18-0.88,0.27-1.37,0.27c-0.85,0-1.53-0.23-2.02-0.7c-0.49-0.46-0.74-1.05-0.74-1.76
			c0-0.47,0.11-0.89,0.34-1.25c0.22-0.37,0.54-0.65,0.94-0.84c0.4-0.2,0.99-0.37,1.75-0.51c1.03-0.19,1.74-0.37,2.13-0.54V6.02
			c0-0.42-0.1-0.72-0.31-0.9c-0.21-0.18-0.6-0.27-1.18-0.27c-0.39,0-0.7,0.08-0.91,0.23C391.65,5.23,391.48,5.5,391.34,5.88z
			 M394.28,7.66C394,7.76,393.55,7.87,392.94,8c-0.61,0.13-1.01,0.26-1.2,0.38c-0.29,0.2-0.43,0.46-0.43,0.77
			c0,0.31,0.11,0.57,0.34,0.8c0.23,0.22,0.52,0.34,0.88,0.34c0.4,0,0.77-0.13,1.13-0.39c0.27-0.2,0.44-0.44,0.52-0.73
			c0.06-0.19,0.09-0.54,0.09-1.07V7.66z"/>
		<path class="st1" d="M403.04,2.23V0.2h2.2v2.03H403.04z M403.04,11.65v-8.3h2.2v8.3H403.04z"/>
		<path class="st1" d="M406.71,9.28l2.2-0.34c0.09,0.43,0.28,0.75,0.57,0.97c0.29,0.22,0.69,0.33,1.2,0.33
			c0.57,0,0.99-0.1,1.28-0.31c0.19-0.15,0.29-0.34,0.29-0.59c0-0.17-0.05-0.3-0.16-0.41c-0.11-0.1-0.35-0.2-0.73-0.29
			c-1.77-0.39-2.89-0.75-3.37-1.07c-0.66-0.45-0.98-1.07-0.98-1.87c0-0.72,0.28-1.32,0.85-1.81c0.57-0.49,1.45-0.73,2.64-0.73
			c1.14,0,1.98,0.19,2.53,0.55c0.55,0.37,0.93,0.92,1.14,1.64l-2.07,0.38c-0.09-0.32-0.26-0.57-0.5-0.74
			c-0.25-0.17-0.6-0.26-1.06-0.26c-0.58,0-0.99,0.08-1.24,0.24c-0.17,0.11-0.25,0.26-0.25,0.45c0,0.16,0.07,0.29,0.22,0.4
			c0.2,0.15,0.88,0.35,2.05,0.62c1.17,0.27,1.99,0.59,2.45,0.98c0.46,0.39,0.69,0.94,0.69,1.63c0,0.76-0.32,1.41-0.95,1.96
			c-0.64,0.55-1.58,0.82-2.82,0.82c-1.13,0-2.02-0.23-2.68-0.69C407.35,10.69,406.92,10.07,406.71,9.28z"/>
		<path class="st1" d="M426.18,7.44V5.51h4.98v4.56c-0.48,0.47-1.19,0.88-2.11,1.24c-0.92,0.36-1.85,0.54-2.79,0.54
			c-1.2,0-2.24-0.25-3.13-0.75c-0.89-0.5-1.56-1.22-2.01-2.16c-0.45-0.93-0.67-1.95-0.67-3.05c0-1.19,0.25-2.25,0.75-3.18
			c0.5-0.93,1.23-1.64,2.2-2.13c0.73-0.38,1.65-0.57,2.74-0.57c1.42,0,2.53,0.3,3.33,0.89c0.8,0.6,1.31,1.42,1.54,2.47l-2.3,0.43
			c-0.16-0.56-0.46-1.01-0.91-1.33c-0.45-0.33-1-0.49-1.67-0.49c-1.01,0-1.81,0.32-2.41,0.96c-0.6,0.64-0.89,1.59-0.89,2.85
			c0,1.36,0.3,2.38,0.91,3.06c0.6,0.68,1.4,1.02,2.38,1.02c0.48,0,0.97-0.09,1.46-0.29c0.49-0.19,0.9-0.42,1.25-0.69V7.44H426.18z"
			/>
		<path class="st1" d="M435.38,11.65h-2.2v-8.3h2.04v1.18c0.35-0.56,0.66-0.92,0.94-1.1c0.28-0.18,0.59-0.27,0.95-0.27
			c0.5,0,0.98,0.14,1.45,0.41l-0.68,1.91c-0.37-0.24-0.71-0.36-1.03-0.36c-0.31,0-0.57,0.08-0.78,0.25
			c-0.21,0.17-0.38,0.48-0.5,0.92c-0.12,0.44-0.18,1.37-0.18,2.78V11.65z"/>
		<path class="st1" d="M441.14,5.88l-1.99-0.36c0.22-0.8,0.61-1.4,1.16-1.78c0.55-0.39,1.36-0.58,2.44-0.58
			c0.98,0,1.71,0.12,2.19,0.35c0.48,0.23,0.82,0.53,1.01,0.88c0.2,0.36,0.29,1.01,0.29,1.96l-0.02,2.56c0,0.73,0.04,1.27,0.11,1.61
			c0.07,0.35,0.2,0.72,0.39,1.11h-2.17c-0.06-0.15-0.13-0.36-0.21-0.65c-0.04-0.13-0.06-0.22-0.08-0.26
			c-0.38,0.36-0.78,0.64-1.2,0.82c-0.43,0.18-0.88,0.27-1.37,0.27c-0.85,0-1.53-0.23-2.02-0.7c-0.49-0.46-0.74-1.05-0.74-1.76
			c0-0.47,0.11-0.89,0.34-1.25c0.22-0.37,0.54-0.65,0.94-0.84c0.4-0.2,0.99-0.37,1.75-0.51c1.03-0.19,1.74-0.37,2.13-0.54V6.02
			c0-0.42-0.1-0.72-0.31-0.9c-0.21-0.18-0.6-0.27-1.18-0.27c-0.39,0-0.7,0.08-0.91,0.23C441.46,5.23,441.28,5.5,441.14,5.88z
			 M444.08,7.66c-0.28,0.09-0.73,0.21-1.34,0.34c-0.61,0.13-1.01,0.26-1.2,0.38c-0.29,0.2-0.43,0.46-0.43,0.77
			c0,0.31,0.11,0.57,0.34,0.8c0.23,0.22,0.52,0.34,0.88,0.34c0.4,0,0.77-0.13,1.13-0.39c0.27-0.2,0.44-0.44,0.52-0.73
			c0.06-0.19,0.09-0.54,0.09-1.07V7.66z"/>
		<path class="st1" d="M450.68,11.65l-3.34-8.3h2.3l1.56,4.23L451.66,9c0.12-0.36,0.2-0.6,0.23-0.71c0.07-0.23,0.15-0.47,0.23-0.7
			l1.58-4.23h2.26l-3.3,8.3H450.68z"/>
		<path class="st1" d="M457.3,2.23V0.2h2.2v2.03H457.3z M457.3,11.65v-8.3h2.2v8.3H457.3z"/>
		<path class="st1" d="M469.29,11.65h-2.2V7.41c0-0.9-0.05-1.48-0.14-1.74c-0.09-0.26-0.25-0.47-0.46-0.61
			c-0.21-0.15-0.46-0.22-0.76-0.22c-0.38,0-0.72,0.1-1.02,0.31c-0.3,0.21-0.51,0.48-0.62,0.83c-0.11,0.34-0.17,0.98-0.17,1.91v3.76
			h-2.2v-8.3h2.04v1.22c0.72-0.94,1.64-1.41,2.73-1.41c0.48,0,0.93,0.09,1.33,0.26c0.4,0.17,0.7,0.4,0.91,0.67
			c0.21,0.27,0.35,0.58,0.43,0.92c0.08,0.34,0.12,0.84,0.12,1.48V11.65z"/>
		<path class="st1" d="M471.32,12.2l2.51,0.3c0.04,0.29,0.14,0.49,0.29,0.6c0.21,0.16,0.54,0.23,0.98,0.23c0.57,0,1-0.09,1.29-0.26
			c0.19-0.11,0.34-0.3,0.44-0.55c0.07-0.18,0.1-0.52,0.1-1.01V10.3c-0.66,0.9-1.48,1.34-2.48,1.34c-1.11,0-2-0.47-2.65-1.41
			c-0.51-0.74-0.77-1.67-0.77-2.78c0-1.39,0.33-2.45,1-3.19c0.67-0.73,1.5-1.1,2.5-1.1c1.03,0,1.87,0.45,2.54,1.35V3.35h2.05v7.45
			c0,0.98-0.08,1.71-0.24,2.2c-0.16,0.48-0.39,0.86-0.68,1.14c-0.29,0.28-0.68,0.49-1.17,0.65c-0.49,0.16-1.1,0.23-1.85,0.23
			c-1.41,0-2.4-0.24-2.99-0.72c-0.59-0.48-0.88-1.09-0.88-1.83C471.31,12.39,471.31,12.3,471.32,12.2z M473.28,7.33
			c0,0.88,0.17,1.52,0.51,1.93c0.34,0.41,0.76,0.61,1.26,0.61c0.54,0,0.99-0.21,1.36-0.63c0.37-0.42,0.55-1.04,0.55-1.86
			c0-0.86-0.18-1.5-0.53-1.91c-0.35-0.42-0.8-0.63-1.34-0.63c-0.53,0-0.96,0.2-1.3,0.61C473.45,5.87,473.28,6.49,473.28,7.33z"/>
	</g>
</g>
</svg>
