<?xml version="1.0" encoding="utf-8"?>
<!-- Generator: Adobe Illustrator 24.0.1, SVG Export Plug-In . SVG Version: 6.00 Build 0)  -->
<svg version="1.1" xmlns="http://www.w3.org/2000/svg" xmlns:xlink="http://www.w3.org/1999/xlink" x="0px" y="0px"
	 viewBox="0 0 377.11 316.68" style="enable-background:new 0 0 377.11 316.68;" xml:space="preserve">
<style type="text/css">
	.st0{fill:none;stroke:#000000;stroke-width:0.7087;stroke-miterlimit:10;}
	.st1{fill:#FF0000;}
</style>
<g id="cut">
	<path class="st0" d="M119.67,166.89h-17.24c-1.66,0-2.97,1.42-2.82,3.08l1.3,14.93c0.06,0.73,0.68,1.29,1.41,1.29h14.89
		c0.78,0,1.42,0.63,1.42,1.42v64.49c0,1.17-0.95,2.13-2.13,2.13h-7.99c-0.83,0-1.48,0.71-1.41,1.54l1.73,19.85
		c0.06,0.73,0.68,1.29,1.41,1.29h6.97c0.78,0,1.42,0.63,1.42,1.42v18.9c0,0.78-0.63,1.42-1.42,1.42h-4.82
		c-0.83,0-1.48,0.71-1.41,1.54l1.32,15.16c0.06,0.73,0.68,1.29,1.41,1.29l8.78,0c1.57,0,2.83-1.27,2.83-2.83l0-141.24
		C125.34,169.43,122.81,166.89,119.67,166.89z M116.66,268.78c-1.72,0-3.12-1.4-3.12-3.12c0-1.72,1.4-3.12,3.12-3.12
		c1.72,0,3.12,1.4,3.12,3.12C119.78,267.39,118.38,268.78,116.66,268.78z M116.66,179.88c-1.72,0-3.12-1.4-3.12-3.12
		c0-1.72,1.4-3.12,3.12-3.12c1.72,0,3.12,1.4,3.12,3.12C119.78,178.48,118.38,179.88,116.66,179.88z"/>
	<path class="st0" d="M150.48,166.89h-17.24c-1.66,0-2.97,1.42-2.82,3.08l1.3,14.93c0.06,0.73,0.68,1.29,1.41,1.29h14.89
		c0.78,0,1.42,0.63,1.42,1.42v64.49c0,1.17-0.95,2.13-2.13,2.13h-7.99c-0.83,0-1.48,0.71-1.41,1.54l1.73,19.85
		c0.06,0.73,0.68,1.29,1.41,1.29h6.97c0.78,0,1.42,0.63,1.42,1.42v18.9c0,0.78-0.63,1.42-1.42,1.42h-4.82
		c-0.83,0-1.48,0.71-1.41,1.54l1.32,15.16c0.06,0.73,0.68,1.29,1.41,1.29l8.78,0c1.57,0,2.83-1.27,2.83-2.83l0-141.24
		C156.15,169.43,153.61,166.89,150.48,166.89z M147.46,268.78c-1.72,0-3.12-1.4-3.12-3.12c0-1.72,1.4-3.12,3.12-3.12
		c1.72,0,3.12,1.4,3.12,3.12C150.58,267.39,149.19,268.78,147.46,268.78z M147.46,179.88c-1.72,0-3.12-1.4-3.12-3.12
		c0-1.72,1.4-3.12,3.12-3.12c1.72,0,3.12,1.4,3.12,3.12C150.58,178.48,149.19,179.88,147.46,179.88z"/>
	<path class="st0" d="M79.65,229.3h9.4c1.17,0,2.13,0.95,2.13,2.13v64.49c0,0.78-0.63,1.42-1.42,1.42H79.65
		c-0.78,0-1.42,0.63-1.42,1.42l0,15.05c0,1.57,1.27,2.83,2.83,2.83h20.07c1.66,0,2.97-1.42,2.82-3.08l-9.23-105.64
		c-0.06-0.73-0.68-1.29-1.41-1.29h-6.98c-0.78,0-1.42-0.63-1.42-1.42v-18.9c0-0.78,0.63-1.42,1.42-1.42h4.83
		c0.83,0,1.48-0.71,1.41-1.54l-1.32-15.16c-0.06-0.73-0.68-1.29-1.41-1.29l-8.78,0c-1.57,0-2.83,1.27-2.83,2.83l0,58.16
		C78.23,228.67,78.87,229.3,79.65,229.3z M86.92,309.89c-1.72,0-3.12-1.4-3.12-3.12c0-1.72,1.4-3.12,3.12-3.12
		c1.72,0,3.12,1.4,3.12,3.12C90.04,308.49,88.64,309.89,86.92,309.89z M86.92,214.75c1.72,0,3.12,1.4,3.12,3.12
		c0,1.72-1.4,3.12-3.12,3.12c-1.72,0-3.12-1.4-3.12-3.12C83.8,216.14,85.2,214.75,86.92,214.75z"/>
	<g>
		<path class="st0" d="M45.32,181.48l-3.87,44.18c-0.07,0.78-0.76,1.36-1.54,1.29l-29.46-2.56c-1-0.09-1.81,0.88-1.47,1.83
			c0.26,0.74,0.41,1.54,0.41,2.37c0,2.35-1.15,4.43-2.92,5.72l-5.94,4.75c-0.73,0.59-0.7,1.71,0.06,2.26l39.95,28.57l3.6,43.34
			c0.15,1.86,2.04,3.07,3.79,2.43l16.27-5.9c1.12-0.41,1.87-1.47,1.87-2.66l0-125.39c0-1.57-1.27-2.83-2.83-2.83H48.14
			C46.67,178.9,45.45,180.02,45.32,181.48z M57.74,301.08c0,1.72-1.4,3.12-3.12,3.12c-1.72,0-3.12-1.4-3.12-3.12
			c0-1.72,1.4-3.12,3.12-3.12C56.34,297.96,57.74,299.36,57.74,301.08z M60.47,183.68v36.85h-6.24v-36.85H60.47z"/>
	</g>
	<path class="st0" d="M0.68,208.56c0,1.19,0.75,2.26,1.87,2.66l16.27,5.9c1.76,0.64,3.64-0.57,3.79-2.43l3.6-43.34l21.81-15.6
		l-0.81-9.2c-0.87-7.68,6.7-13.45,10.03-18.49c0.65-0.99-0.13-2.29-1.31-2.19l-29.1,2.53c-0.78,0.07-1.47-0.51-1.54-1.29
		l-3.87-44.18c-0.13-1.46-1.35-2.59-2.82-2.59H3.52c-1.57,0-2.83,1.27-2.83,2.83L0.68,208.56z M15.25,202.52
		c0,1.72-1.4,3.12-3.12,3.12c-1.72,0-3.12-1.4-3.12-3.12c0-1.72,1.4-3.12,3.12-3.12C13.85,199.4,15.25,200.8,15.25,202.52z
		 M6.28,85.12h6.24v36.85H6.28V85.12z"/>
	<path class="st0" d="M197.76,312.51l3.27-39.36l21.84-15.62l-0.38-4.4l-0.16-1.78l-0.27-3.11c-0.26-3.03,1.11-5.96,3.59-7.71v0
		c2.49-1.74,5.72-2.03,8.47-0.74h0c1.96,0.91,3.46,2.53,4.25,4.47c0.35,0.86,1.39,1.18,2.14,0.64l3.5-2.5
		c1.63-1.17,2.53-3.11,2.35-5.11l-0.98-10.89l-8.16-4.63c-0.99-0.56-2.21,0.22-2.11,1.36l0.24,2.67c0.07,0.78-0.51,1.47-1.29,1.54
		l-32.4,2.84c-0.78,0.07-1.47-0.51-1.54-1.29L183.88,43.8c-0.07-0.78,0.51-1.47,1.29-1.54l23-2.03c0.54-0.05,1-0.4,1.2-0.9l0.15-0.4
		c0-1.07-0.6-2.05-1.56-2.53l-2.78-1.4c-8.33-4.19-17.52-6.37-26.84-6.36c-1.56,0-2.83,1.27-2.83,2.84l0.04,162.09
		c0,1.57,1.27,2.83,2.83,2.83l7.37,0c1.57,0,2.83,1.27,2.83,2.83v11.34c0,1.57-1.27,2.83-2.83,2.83l-7.37,0
		c-1.57,0-2.84,1.27-2.83,2.84l0.03,94.12c0,1.19,0.75,2.26,1.87,2.66l9.45,3.44L197.76,312.51z M182.35,175.12
		c0-1.72,1.4-3.12,3.12-3.12c1.72,0,3.12,1.4,3.12,3.12s-1.4,3.12-3.12,3.12C183.74,178.23,182.35,176.84,182.35,175.12z
		 M236.39,232.92c-0.59-1.62,0.25-3.41,1.86-4c1.62-0.59,3.41,0.25,4,1.86s-0.25,3.41-1.86,4
		C238.77,235.38,236.98,234.54,236.39,232.92z M181.11,304.29c0-3.25,2.63-5.88,5.88-5.88s5.88,2.63,5.88,5.88s-2.63,5.88-5.88,5.88
		S181.11,307.54,181.11,304.29z"/>
	<path class="st0" d="M375.15,312.79c1.12-0.41,1.86-1.47,1.87-2.66l0.03-94.12c0-1.57-1.27-2.84-2.83-2.84l-7.37,0
		c-1.57,0-2.83-1.27-2.83-2.83V199c0-1.57,1.27-2.83,2.83-2.83l7.37,0c1.57,0,2.83-1.27,2.83-2.83l0.04-162.09
		c0-1.57-1.27-2.84-2.83-2.84c-9.32,0-18.51,2.18-26.83,6.36l-2.78,1.4c-0.96,0.48-1.56,1.46-1.56,2.53l0.15,0.4
		c0.2,0.5,0.66,0.85,1.2,0.9l23,2.03c0.78,0.07,1.36,0.76,1.29,1.54l-16.24,185.11c-0.07,0.78-0.76,1.36-1.54,1.29l-32.4-2.84
		c-0.78-0.07-1.36-0.76-1.29-1.54l0.24-2.67c0.1-1.14-1.12-1.92-2.11-1.36l-8.16,4.63l-0.98,10.89c-0.18,2,0.72,3.94,2.35,5.11
		l42.98,30.74l3.27,39.36l10.87,3.96L375.15,312.79z M364.01,174.88c0-1.72,1.4-3.12,3.12-3.12c1.72,0,3.12,1.4,3.12,3.12
		c0,1.72-1.4,3.12-3.12,3.12C365.41,177.99,364.01,176.6,364.01,174.88z M312.21,234.55c-1.62-0.59-2.45-2.38-1.86-4
		s2.38-2.45,4-1.86c1.62,0.59,2.45,2.38,1.86,4S313.83,235.14,312.21,234.55z M359.73,304.05c0-3.25,2.63-5.88,5.88-5.88
		s5.88,2.63,5.88,5.88s-2.63,5.88-5.88,5.88S359.73,307.3,359.73,304.05z"/>
	<path class="st0" d="M148,12.73c-5.48,0-9.92,4.44-9.92,9.92c0,2,0.6,3.85,1.61,5.41l4.24,128.31c0.07,2.19,1.87,3.93,4.06,3.93
		c2.19,0,3.99-1.74,4.06-3.93l4.27-128.33c1.01-1.55,1.6-3.4,1.6-5.39C157.92,17.17,153.47,12.73,148,12.73z M148,16.77
		c3.25,0,5.88,2.63,5.88,5.88s-2.63,5.88-5.88,5.88s-5.88-2.63-5.88-5.88S144.75,16.77,148,16.77z"/>
	<path class="st0" d="M131.39,150.38c0-1.99-0.59-3.84-1.6-5.39l-4.27-128.33c-0.07-2.19-1.87-3.93-4.06-3.93
		c-2.19,0-3.99,1.74-4.06,3.93l-4.24,128.31c-1.01,1.56-1.61,3.41-1.61,5.41c0,5.48,4.44,9.92,9.92,9.92
		S131.39,155.86,131.39,150.38z M115.59,150.37c0-3.25,2.63-5.88,5.88-5.88s5.88,2.63,5.88,5.88s-2.63,5.88-5.88,5.88
		S115.59,153.62,115.59,150.37z"/>
	<g>
		<path class="st0" d="M310.94,309.79l3.86-1.94c0.48-0.24,0.78-0.73,0.78-1.27l-0.25-1.16c-0.13-0.61-0.64-1.06-1.26-1.11
			l-23.06-2.02c-0.78-0.07-1.36-0.76-1.29-1.54l16.46-188.17c0.07-0.78,0.76-1.36,1.54-1.29l32.49,2.82
			c0.78,0.07,1.36,0.76,1.29,1.54l-0.24,2.68c-0.1,1.14,1.12,1.92,2.11,1.36l8.13-4.6l0.92-10.9c0.18-2-0.72-3.94-2.35-5.11
			L307.1,68.33l-3.6-43.34c-0.15-1.86-2.04-3.07-3.79-2.43l-16.27,5.9c-1.12,0.41-1.87,1.47-1.87,2.66l0,282.04
			c0,1.57,1.27,2.83,2.83,2.83h0.34C293.84,316,302.81,313.87,310.94,309.79z M287.46,121.96h5.67v31.75h-5.67V121.96z M295,39.66
			c-3.15,2.03-6.5-1.32-4.48-4.48c0.13-0.21,0.32-0.39,0.53-0.53c3.15-2.03,6.5,1.32,4.48,4.48C295.39,39.34,295.21,39.53,295,39.66
			z M287.46,211.27v-31.75h5.67v31.75H287.46z"/>
	</g>
	<path class="st0" d="M270.58,30.95c0-1.19-0.75-2.26-1.87-2.66l-16.27-5.9c-1.76-0.64-3.64,0.57-3.79,2.43l-3.6,43.34l-21.83,15.61
		l0.78,8.94c0.38,4.4-2.52,8.55-6.87,9.35c-4.11,0.76-7.94-1.51-9.43-5.08c-0.35-0.84-1.38-1.14-2.12-0.61l-3.51,2.51
		c-1.63,1.17-2.53,3.11-2.35,5.11l0.92,10.9l8.13,4.6c0.99,0.56,2.21-0.22,2.11-1.36l-0.24-2.68c-0.07-0.78,0.51-1.47,1.29-1.54
		l32.49-2.82c0.78-0.07,1.47,0.51,1.54,1.29l16.46,188.17c0.07,0.78-0.51,1.47-1.29,1.54l-23.06,2.02c-0.62,0.05-1.13,0.5-1.26,1.11
		l-0.25,1.16c0,0.54,0.3,1.03,0.78,1.27l3.86,1.94c8.13,4.09,17.1,6.21,26.2,6.21h0.34c1.57,0,2.83-1.27,2.83-2.83L270.58,30.95z
		 M256.63,38.97c-2.03-3.15,1.33-6.5,4.48-4.48c0.21,0.13,0.39,0.32,0.53,0.53c2.03,3.15-1.32,6.5-4.48,4.48
		C256.95,39.36,256.76,39.17,256.63,38.97z M264.7,211.1h-5.67v-31.75h5.67V211.1z M264.7,153.54h-5.67v-31.75h5.67V153.54z"/>
	<path class="st0" d="M92.58,21.52c0-4.31-3.49-7.8-7.8-7.8s-7.8,3.49-7.8,7.8c0,4.31,3.49,7.8,7.8,7.8S92.58,25.83,92.58,21.52z
		 M81.67,21.52c0-1.72,1.4-3.12,3.12-3.12s3.12,1.4,3.12,3.12c0,1.72-1.4,3.12-3.12,3.12S81.67,23.24,81.67,21.52z"/>
	<path class="st0" d="M92.58,46.22c0-4.31-3.49-7.8-7.8-7.8s-7.8,3.49-7.8,7.8c0,4.31,3.49,7.8,7.8,7.8S92.58,50.53,92.58,46.22z
		 M81.67,46.22c0-1.72,1.4-3.12,3.12-3.12s3.12,1.4,3.12,3.12c0,1.72-1.4,3.12-3.12,3.12S81.67,47.94,81.67,46.22z"/>
	<path class="st0" d="M92.58,70.92c0-4.31-3.49-7.8-7.8-7.8s-7.8,3.49-7.8,7.8c0,4.31,3.49,7.8,7.8,7.8S92.58,75.23,92.58,70.92z
		 M81.67,70.92c0-1.72,1.4-3.12,3.12-3.12s3.12,1.4,3.12,3.12c0,1.72-1.4,3.12-3.12,3.12S81.67,72.64,81.67,70.92z"/>
	<path class="st0" d="M92.58,95.62c0-4.31-3.49-7.8-7.8-7.8s-7.8,3.49-7.8,7.8c0,4.31,3.49,7.8,7.8,7.8S92.58,99.92,92.58,95.62z
		 M81.67,95.62c0-1.72,1.4-3.12,3.12-3.12s3.12,1.4,3.12,3.12c0,1.72-1.4,3.12-3.12,3.12S81.67,97.34,81.67,95.62z"/>
</g>
<g id="graving">
	<g>
		<path class="st1" d="M227.75,11.65V0.2h4.87c1.22,0,2.11,0.1,2.67,0.31c0.55,0.21,1,0.57,1.33,1.1c0.33,0.53,0.5,1.13,0.5,1.8
			c0,0.86-0.25,1.57-0.76,2.13c-0.51,0.56-1.26,0.91-2.27,1.06c0.5,0.29,0.91,0.61,1.24,0.96c0.33,0.35,0.76,0.97,1.32,1.86
			l1.4,2.23h-2.77l-1.67-2.49c-0.59-0.89-1-1.45-1.22-1.68c-0.22-0.23-0.45-0.39-0.7-0.48c-0.25-0.09-0.63-0.13-1.16-0.13h-0.47
			v4.78H227.75z M230.07,5.04h1.71c1.11,0,1.8-0.05,2.08-0.14c0.28-0.09,0.49-0.25,0.65-0.48c0.16-0.23,0.23-0.52,0.23-0.86
			c0-0.39-0.1-0.7-0.31-0.93c-0.21-0.24-0.5-0.39-0.87-0.45c-0.19-0.03-0.75-0.04-1.69-0.04h-1.8V5.04z"/>
		<path class="st1" d="M244.09,9.01l2.19,0.37c-0.28,0.8-0.73,1.41-1.33,1.83c-0.61,0.42-1.37,0.63-2.28,0.63
			c-1.44,0-2.51-0.47-3.2-1.41c-0.55-0.75-0.82-1.71-0.82-2.86c0-1.38,0.36-2.45,1.08-3.23c0.72-0.78,1.63-1.17,2.73-1.17
			c1.23,0,2.21,0.41,2.92,1.22c0.71,0.82,1.05,2.06,1.02,3.75h-5.5c0.02,0.65,0.19,1.16,0.53,1.52c0.34,0.36,0.76,0.54,1.27,0.54
			c0.34,0,0.63-0.09,0.87-0.28S243.97,9.42,244.09,9.01z M244.21,6.79c-0.02-0.64-0.18-1.12-0.49-1.45c-0.31-0.33-0.69-0.5-1.14-0.5
			c-0.48,0-0.88,0.17-1.19,0.52c-0.31,0.35-0.47,0.82-0.46,1.42H244.21z"/>
		<path class="st1" d="M255.79,11.65h-2.04v-1.22c-0.34,0.47-0.74,0.83-1.2,1.06s-0.93,0.35-1.39,0.35c-0.95,0-1.77-0.38-2.45-1.15
			c-0.68-0.77-1.02-1.84-1.02-3.21c0-1.41,0.33-2.48,0.99-3.21c0.66-0.73,1.5-1.1,2.51-1.1c0.93,0,1.73,0.39,2.41,1.16V0.2h2.2
			V11.65z M249.93,7.32c0,0.89,0.12,1.53,0.37,1.92c0.35,0.57,0.85,0.86,1.48,0.86c0.5,0,0.93-0.21,1.29-0.64
			c0.35-0.43,0.53-1.07,0.53-1.93c0-0.95-0.17-1.64-0.52-2.06c-0.34-0.42-0.78-0.63-1.32-0.63c-0.52,0-0.96,0.21-1.31,0.62
			S249.93,6.5,249.93,7.32z"/>
		<path class="st1" d="M264.04,5.88l-1.99-0.36c0.22-0.8,0.61-1.4,1.16-1.78c0.55-0.39,1.36-0.58,2.44-0.58
			c0.98,0,1.71,0.12,2.19,0.35c0.48,0.23,0.82,0.53,1.01,0.88c0.2,0.36,0.29,1.01,0.29,1.96l-0.02,2.56c0,0.73,0.04,1.27,0.11,1.61
			c0.07,0.35,0.2,0.72,0.39,1.11h-2.17c-0.06-0.15-0.13-0.36-0.21-0.65c-0.04-0.13-0.06-0.22-0.08-0.26
			c-0.38,0.36-0.78,0.64-1.2,0.82c-0.43,0.18-0.88,0.27-1.37,0.27c-0.85,0-1.53-0.23-2.02-0.7c-0.49-0.46-0.74-1.05-0.74-1.76
			c0-0.47,0.11-0.89,0.34-1.25c0.22-0.37,0.54-0.65,0.94-0.84c0.4-0.2,0.99-0.37,1.75-0.51c1.03-0.19,1.74-0.37,2.13-0.54V6.02
			c0-0.42-0.1-0.72-0.31-0.9c-0.21-0.18-0.6-0.27-1.18-0.27c-0.39,0-0.7,0.08-0.91,0.23C264.35,5.23,264.18,5.5,264.04,5.88z
			 M266.98,7.66c-0.28,0.09-0.73,0.21-1.34,0.34c-0.61,0.13-1.01,0.26-1.2,0.38c-0.29,0.2-0.43,0.46-0.43,0.77
			c0,0.31,0.11,0.57,0.34,0.8c0.23,0.22,0.52,0.34,0.88,0.34c0.4,0,0.77-0.13,1.13-0.39c0.27-0.2,0.44-0.44,0.52-0.73
			c0.06-0.19,0.09-0.54,0.09-1.07V7.66z"/>
		<path class="st1" d="M273.4,11.65h-2.2v-8.3h2.04v1.18c0.35-0.56,0.66-0.92,0.94-1.1c0.28-0.18,0.59-0.27,0.95-0.27
			c0.5,0,0.98,0.14,1.45,0.41l-0.68,1.91c-0.37-0.24-0.71-0.36-1.03-0.36c-0.31,0-0.57,0.08-0.78,0.25
			c-0.21,0.17-0.38,0.48-0.5,0.92c-0.12,0.44-0.18,1.37-0.18,2.78V11.65z"/>
		<path class="st1" d="M282.33,9.01l2.19,0.37c-0.28,0.8-0.73,1.41-1.33,1.83c-0.61,0.42-1.37,0.63-2.28,0.63
			c-1.44,0-2.51-0.47-3.2-1.41c-0.55-0.75-0.82-1.71-0.82-2.86c0-1.38,0.36-2.45,1.08-3.23c0.72-0.78,1.63-1.17,2.73-1.17
			c1.23,0,2.21,0.41,2.92,1.22c0.71,0.82,1.05,2.06,1.02,3.75h-5.5c0.02,0.65,0.19,1.16,0.53,1.52c0.34,0.36,0.76,0.54,1.27,0.54
			c0.34,0,0.63-0.09,0.87-0.28S282.21,9.42,282.33,9.01z M282.46,6.79c-0.02-0.64-0.18-1.12-0.49-1.45c-0.31-0.33-0.69-0.5-1.14-0.5
			c-0.48,0-0.88,0.17-1.19,0.52c-0.31,0.35-0.47,0.82-0.46,1.42H282.46z"/>
		<path class="st1" d="M288.07,5.88l-1.99-0.36c0.22-0.8,0.61-1.4,1.16-1.78c0.55-0.39,1.36-0.58,2.44-0.58
			c0.98,0,1.71,0.12,2.19,0.35c0.48,0.23,0.82,0.53,1.01,0.88c0.2,0.36,0.29,1.01,0.29,1.96l-0.02,2.56c0,0.73,0.04,1.27,0.11,1.61
			c0.07,0.35,0.2,0.72,0.39,1.11h-2.17c-0.06-0.15-0.13-0.36-0.21-0.65c-0.04-0.13-0.06-0.22-0.08-0.26
			c-0.38,0.36-0.78,0.64-1.2,0.82c-0.43,0.18-0.88,0.27-1.37,0.27c-0.85,0-1.53-0.23-2.02-0.7c-0.49-0.46-0.74-1.05-0.74-1.76
			c0-0.47,0.11-0.89,0.34-1.25c0.22-0.37,0.54-0.65,0.94-0.84c0.4-0.2,0.99-0.37,1.75-0.51c1.03-0.19,1.74-0.37,2.13-0.54V6.02
			c0-0.42-0.1-0.72-0.31-0.9c-0.21-0.18-0.6-0.27-1.18-0.27c-0.39,0-0.7,0.08-0.91,0.23C288.38,5.23,288.2,5.5,288.07,5.88z
			 M291,7.66c-0.28,0.09-0.73,0.21-1.34,0.34c-0.61,0.13-1.01,0.26-1.2,0.38c-0.29,0.2-0.43,0.46-0.43,0.77
			c0,0.31,0.11,0.57,0.34,0.8c0.23,0.22,0.52,0.34,0.88,0.34c0.4,0,0.77-0.13,1.13-0.39c0.27-0.2,0.44-0.44,0.52-0.73
			C290.97,8.98,291,8.63,291,8.1V7.66z"/>
		<path class="st1" d="M299.77,2.23V0.2h2.2v2.03H299.77z M299.77,11.65v-8.3h2.2v8.3H299.77z"/>
		<path class="st1" d="M303.44,9.28l2.2-0.34c0.09,0.43,0.28,0.75,0.57,0.97c0.29,0.22,0.69,0.33,1.2,0.33
			c0.57,0,0.99-0.1,1.28-0.31c0.19-0.15,0.29-0.34,0.29-0.59c0-0.17-0.05-0.3-0.16-0.41c-0.11-0.1-0.35-0.2-0.73-0.29
			c-1.77-0.39-2.89-0.75-3.37-1.07c-0.66-0.45-0.98-1.07-0.98-1.87c0-0.72,0.28-1.32,0.85-1.81c0.57-0.49,1.45-0.73,2.64-0.73
			c1.14,0,1.98,0.19,2.53,0.55c0.55,0.37,0.93,0.92,1.14,1.64l-2.07,0.38c-0.09-0.32-0.26-0.57-0.5-0.74
			c-0.25-0.17-0.6-0.26-1.06-0.26c-0.58,0-0.99,0.08-1.24,0.24c-0.17,0.11-0.25,0.26-0.25,0.45c0,0.16,0.07,0.29,0.22,0.4
			c0.2,0.15,0.88,0.35,2.05,0.62c1.17,0.27,1.99,0.59,2.45,0.98c0.46,0.39,0.69,0.94,0.69,1.63c0,0.76-0.32,1.41-0.95,1.96
			c-0.64,0.55-1.58,0.82-2.82,0.82c-1.13,0-2.02-0.23-2.68-0.69C304.07,10.69,303.64,10.07,303.44,9.28z"/>
		<path class="st1" d="M322.9,7.44V5.51h4.98v4.56c-0.48,0.47-1.19,0.88-2.11,1.24c-0.92,0.36-1.85,0.54-2.79,0.54
			c-1.2,0-2.24-0.25-3.13-0.75c-0.89-0.5-1.56-1.22-2.01-2.16c-0.45-0.93-0.67-1.95-0.67-3.05c0-1.19,0.25-2.25,0.75-3.18
			c0.5-0.93,1.23-1.64,2.2-2.13c0.73-0.38,1.65-0.57,2.74-0.57c1.42,0,2.53,0.3,3.33,0.89c0.8,0.6,1.31,1.42,1.54,2.47l-2.3,0.43
			c-0.16-0.56-0.46-1.01-0.91-1.33c-0.45-0.33-1-0.49-1.67-0.49c-1.01,0-1.81,0.32-2.41,0.96c-0.6,0.64-0.89,1.59-0.89,2.85
			c0,1.36,0.3,2.38,0.91,3.06c0.6,0.68,1.4,1.02,2.38,1.02c0.48,0,0.97-0.09,1.46-0.29c0.49-0.19,0.9-0.42,1.25-0.69V7.44H322.9z"/>
		<path class="st1" d="M332.1,11.65h-2.2v-8.3h2.04v1.18c0.35-0.56,0.66-0.92,0.94-1.1c0.28-0.18,0.59-0.27,0.95-0.27
			c0.5,0,0.98,0.14,1.45,0.41l-0.68,1.91c-0.37-0.24-0.71-0.36-1.03-0.36c-0.31,0-0.57,0.08-0.78,0.25
			c-0.21,0.17-0.38,0.48-0.5,0.92c-0.12,0.44-0.18,1.37-0.18,2.78V11.65z"/>
		<path class="st1" d="M337.87,5.88l-1.99-0.36c0.22-0.8,0.61-1.4,1.16-1.78c0.55-0.39,1.36-0.58,2.44-0.58
			c0.98,0,1.71,0.12,2.19,0.35c0.48,0.23,0.82,0.53,1.01,0.88c0.2,0.36,0.29,1.01,0.29,1.96l-0.02,2.56c0,0.73,0.04,1.27,0.11,1.61
			c0.07,0.35,0.2,0.72,0.39,1.11h-2.17c-0.06-0.15-0.13-0.36-0.21-0.65c-0.04-0.13-0.06-0.22-0.08-0.26
			c-0.38,0.36-0.78,0.64-1.2,0.82c-0.43,0.18-0.88,0.27-1.37,0.27c-0.85,0-1.53-0.23-2.02-0.7c-0.49-0.46-0.74-1.05-0.74-1.76
			c0-0.47,0.11-0.89,0.34-1.25c0.22-0.37,0.54-0.65,0.94-0.84c0.4-0.2,0.99-0.37,1.75-0.51c1.03-0.19,1.74-0.37,2.13-0.54V6.02
			c0-0.42-0.1-0.72-0.31-0.9c-0.21-0.18-0.6-0.27-1.18-0.27c-0.39,0-0.7,0.08-0.91,0.23C338.18,5.23,338.01,5.5,337.87,5.88z
			 M340.81,7.66c-0.28,0.09-0.73,0.21-1.34,0.34c-0.61,0.13-1.01,0.26-1.2,0.38c-0.29,0.2-0.43,0.46-0.43,0.77
			c0,0.31,0.11,0.57,0.34,0.8c0.23,0.22,0.52,0.34,0.88,0.34c0.4,0,0.77-0.13,1.13-0.39c0.27-0.2,0.44-0.44,0.52-0.73
			c0.06-0.19,0.09-0.54,0.09-1.07V7.66z"/>
		<path class="st1" d="M347.41,11.65l-3.34-8.3h2.3l1.56,4.23L348.39,9c0.12-0.36,0.2-0.6,0.23-0.71c0.07-0.23,0.15-0.47,0.23-0.7
			l1.58-4.23h2.26l-3.3,8.3H347.41z"/>
		<path class="st1" d="M354.03,2.23V0.2h2.2v2.03H354.03z M354.03,11.65v-8.3h2.2v8.3H354.03z"/>
		<path class="st1" d="M366.02,11.65h-2.2V7.41c0-0.9-0.05-1.48-0.14-1.74c-0.09-0.26-0.25-0.47-0.46-0.61
			c-0.21-0.15-0.46-0.22-0.76-0.22c-0.38,0-0.72,0.1-1.02,0.31c-0.3,0.21-0.51,0.48-0.62,0.83c-0.11,0.34-0.17,0.98-0.17,1.91v3.76
			h-2.2v-8.3h2.04v1.22c0.72-0.94,1.64-1.41,2.73-1.41c0.48,0,0.93,0.09,1.33,0.26c0.4,0.17,0.7,0.4,0.91,0.67
			c0.21,0.27,0.35,0.58,0.43,0.92c0.08,0.34,0.12,0.84,0.12,1.48V11.65z"/>
		<path class="st1" d="M368.04,12.2l2.51,0.3c0.04,0.29,0.14,0.49,0.29,0.6c0.21,0.16,0.54,0.23,0.98,0.23c0.57,0,1-0.09,1.29-0.26
			c0.19-0.11,0.34-0.3,0.44-0.55c0.07-0.18,0.1-0.52,0.1-1.01V10.3c-0.66,0.9-1.48,1.34-2.48,1.34c-1.11,0-2-0.47-2.65-1.41
			c-0.51-0.74-0.77-1.67-0.77-2.78c0-1.39,0.33-2.45,1-3.19c0.67-0.73,1.5-1.1,2.5-1.1c1.03,0,1.87,0.45,2.54,1.35V3.35h2.05v7.45
			c0,0.98-0.08,1.71-0.24,2.2c-0.16,0.48-0.39,0.86-0.68,1.14c-0.29,0.28-0.68,0.49-1.17,0.65c-0.49,0.16-1.1,0.23-1.85,0.23
			c-1.41,0-2.4-0.24-2.99-0.72c-0.59-0.48-0.88-1.09-0.88-1.83C368.03,12.39,368.04,12.3,368.04,12.2z M370,7.33
			c0,0.88,0.17,1.52,0.51,1.93c0.34,0.41,0.76,0.61,1.26,0.61c0.54,0,0.99-0.21,1.36-0.63c0.37-0.42,0.55-1.04,0.55-1.86
			c0-0.86-0.18-1.5-0.53-1.91c-0.35-0.42-0.8-0.63-1.34-0.63c-0.53,0-0.96,0.2-1.3,0.61C370.17,5.87,370,6.49,370,7.33z"/>
	</g>
	<g>
		<path class="st1" d="M16.84,192.72H9.25v1.5h-1.9v-3.97h9.49V192.72z"/>
	</g>
	<g>
		<path class="st1" d="M49.53,293.65v-1.75c0-1.16,0.04-1.95,0.13-2.36s0.32-0.75,0.69-1.01s0.96-0.39,1.77-0.39
			c0.74,0,1.23,0.09,1.49,0.28s0.41,0.54,0.46,1.08c0.12-0.49,0.28-0.82,0.49-0.98s0.39-0.27,0.56-0.31s0.64-0.06,1.4-0.06h2.5v2.29
			h-3.15c-0.51,0-0.82,0.04-0.94,0.12s-0.18,0.29-0.18,0.63h4.28v2.47H49.53z M51.16,291.19h2.11c0-0.28-0.04-0.47-0.11-0.58
			s-0.32-0.17-0.74-0.17h-0.52c-0.3,0-0.5,0.05-0.59,0.16S51.16,290.9,51.16,291.19z"/>
	</g>
	<g>
		<path class="st1" d="M191.58,294.6h-7.59v1.5h-1.9v-3.97h9.49V294.6z"/>
	</g>
	<g>
		<path class="st1" d="M360.41,296.75V295c0-1.16,0.04-1.95,0.13-2.36s0.32-0.75,0.69-1.01s0.96-0.39,1.77-0.39
			c0.74,0,1.23,0.09,1.49,0.28s0.41,0.54,0.46,1.08c0.12-0.49,0.28-0.82,0.49-0.98s0.39-0.27,0.56-0.31s0.64-0.06,1.4-0.06h2.5v2.29
			h-3.15c-0.51,0-0.82,0.04-0.94,0.12s-0.18,0.29-0.18,0.63h4.28v2.47H360.41z M362.03,294.28h2.11c0-0.28-0.04-0.47-0.11-0.58
			s-0.32-0.17-0.74-0.17h-0.52c-0.3,0-0.5,0.05-0.59,0.16S362.03,294,362.03,294.28z"/>
	</g>
	<g>
		<path class="st1" d="M254.26,47.02h7.59v-1.5h1.9v3.97h-9.49V47.02z"/>
	</g>
	<g>
		<path class="st1" d="M298.19,44.92v1.75c0,1.16-0.04,1.95-0.13,2.36s-0.32,0.75-0.69,1.01s-0.96,0.39-1.77,0.39
			c-0.74,0-1.23-0.09-1.49-0.28s-0.41-0.54-0.46-1.08c-0.12,0.49-0.28,0.82-0.49,0.98s-0.39,0.27-0.56,0.31s-0.64,0.06-1.4,0.06
			h-2.5v-2.29h3.15c0.51,0,0.82-0.04,0.94-0.12s0.18-0.29,0.18-0.63h-4.28v-2.47H298.19z M296.56,47.39h-2.11
			c0,0.28,0.04,0.47,0.11,0.58s0.32,0.17,0.74,0.17h0.52c0.3,0,0.5-0.05,0.59-0.16S296.56,47.67,296.56,47.39z"/>
	</g>
</g>
</svg>
