G04 #@! TF.GenerationSoftware,KiCad,Pcbnew,(5.1.9-0-10_14)*
G04 #@! TF.CreationDate,2021-12-01T15:45:57+09:00*
G04 #@! TF.ProjectId,slim_top_plate,736c696d-5f74-46f7-905f-706c6174652e,rev?*
G04 #@! TF.SameCoordinates,PX136f960PY1ca38b0*
G04 #@! TF.FileFunction,Legend,Top*
G04 #@! TF.FilePolarity,Positive*
%FSLAX46Y46*%
G04 Gerber Fmt 4.6, Leading zero omitted, Abs format (unit mm)*
G04 Created by KiCad (PCBNEW (5.1.9-0-10_14)) date 2021-12-01 15:45:57*
%MOMM*%
%LPD*%
G01*
G04 APERTURE LIST*
%ADD10C,0.200000*%
%ADD11C,0.600000*%
%ADD12C,4.400000*%
G04 APERTURE END LIST*
%LPC*%
D10*
X234000000Y-86765476D02*
X233583333Y-86170238D01*
X233285714Y-86765476D02*
X233285714Y-85515476D01*
X233761904Y-85515476D01*
X233880952Y-85575000D01*
X233940476Y-85634523D01*
X234000000Y-85753571D01*
X234000000Y-85932142D01*
X233940476Y-86051190D01*
X233880952Y-86110714D01*
X233761904Y-86170238D01*
X233285714Y-86170238D01*
X234535714Y-86110714D02*
X234952380Y-86110714D01*
X235130952Y-86765476D02*
X234535714Y-86765476D01*
X234535714Y-85515476D01*
X235130952Y-85515476D01*
X235488095Y-85515476D02*
X235904761Y-86765476D01*
X236321428Y-85515476D01*
X236738095Y-86765476D02*
X236738095Y-85515476D01*
X237333333Y-85515476D02*
X237333333Y-86527380D01*
X237392857Y-86646428D01*
X237452380Y-86705952D01*
X237571428Y-86765476D01*
X237809523Y-86765476D01*
X237928571Y-86705952D01*
X237988095Y-86646428D01*
X238047619Y-86527380D01*
X238047619Y-85515476D01*
X238642857Y-86765476D02*
X238642857Y-85515476D01*
X239357142Y-86765476D01*
X239357142Y-85515476D01*
X240607142Y-85575000D02*
X240488095Y-85515476D01*
X240309523Y-85515476D01*
X240130952Y-85575000D01*
X240011904Y-85694047D01*
X239952380Y-85813095D01*
X239892857Y-86051190D01*
X239892857Y-86229761D01*
X239952380Y-86467857D01*
X240011904Y-86586904D01*
X240130952Y-86705952D01*
X240309523Y-86765476D01*
X240428571Y-86765476D01*
X240607142Y-86705952D01*
X240666666Y-86646428D01*
X240666666Y-86229761D01*
X240428571Y-86229761D01*
X241797619Y-85515476D02*
X241202380Y-85515476D01*
X241142857Y-86110714D01*
X241202380Y-86051190D01*
X241321428Y-85991666D01*
X241619047Y-85991666D01*
X241738095Y-86051190D01*
X241797619Y-86110714D01*
X241857142Y-86229761D01*
X241857142Y-86527380D01*
X241797619Y-86646428D01*
X241738095Y-86705952D01*
X241619047Y-86765476D01*
X241321428Y-86765476D01*
X241202380Y-86705952D01*
X241142857Y-86646428D01*
X242273809Y-85515476D02*
X243047619Y-85515476D01*
X242630952Y-85991666D01*
X242809523Y-85991666D01*
X242928571Y-86051190D01*
X242988095Y-86110714D01*
X243047619Y-86229761D01*
X243047619Y-86527380D01*
X242988095Y-86646428D01*
X242928571Y-86705952D01*
X242809523Y-86765476D01*
X242452380Y-86765476D01*
X242333333Y-86705952D01*
X242273809Y-86646428D01*
X244535714Y-86765476D02*
X244535714Y-85932142D01*
X244535714Y-86170238D02*
X244595238Y-86051190D01*
X244654761Y-85991666D01*
X244773809Y-85932142D01*
X244892857Y-85932142D01*
X245785714Y-86705952D02*
X245666666Y-86765476D01*
X245428571Y-86765476D01*
X245309523Y-86705952D01*
X245250000Y-86586904D01*
X245250000Y-86110714D01*
X245309523Y-85991666D01*
X245428571Y-85932142D01*
X245666666Y-85932142D01*
X245785714Y-85991666D01*
X245845238Y-86110714D01*
X245845238Y-86229761D01*
X245250000Y-86348809D01*
X246261904Y-85932142D02*
X246559523Y-86765476D01*
X246857142Y-85932142D01*
X247988095Y-86765476D02*
X247273809Y-86765476D01*
X247630952Y-86765476D02*
X247630952Y-85515476D01*
X247511904Y-85694047D01*
X247392857Y-85813095D01*
X247273809Y-85872619D01*
X248523809Y-86646428D02*
X248583333Y-86705952D01*
X248523809Y-86765476D01*
X248464285Y-86705952D01*
X248523809Y-86646428D01*
X248523809Y-86765476D01*
X249357142Y-85515476D02*
X249476190Y-85515476D01*
X249595238Y-85575000D01*
X249654761Y-85634523D01*
X249714285Y-85753571D01*
X249773809Y-85991666D01*
X249773809Y-86289285D01*
X249714285Y-86527380D01*
X249654761Y-86646428D01*
X249595238Y-86705952D01*
X249476190Y-86765476D01*
X249357142Y-86765476D01*
X249238095Y-86705952D01*
X249178571Y-86646428D01*
X249119047Y-86527380D01*
X249059523Y-86289285D01*
X249059523Y-85991666D01*
X249119047Y-85753571D01*
X249178571Y-85634523D01*
X249238095Y-85575000D01*
X249357142Y-85515476D01*
D11*
X33945000Y-24360000D03*
X33095000Y-24360000D03*
X32270000Y-24360000D03*
X31445000Y-24360000D03*
X34770000Y-24360000D03*
X35595000Y-24360000D03*
X13675000Y-24360000D03*
X12825000Y-24360000D03*
X12000000Y-24360000D03*
X11175000Y-24360000D03*
X14500000Y-24360000D03*
X15325000Y-24360000D03*
D12*
X47400000Y-11760000D03*
M02*
