G04 #@! TF.GenerationSoftware,KiCad,Pcbnew,(5.1.9-0-10_14)*
G04 #@! TF.CreationDate,2021-12-01T15:45:57+09:00*
G04 #@! TF.ProjectId,slim_top_plate,736c696d-5f74-46f7-905f-706c6174652e,rev?*
G04 #@! TF.SameCoordinates,PX136f960PY1ca38b0*
G04 #@! TF.FileFunction,Soldermask,Bot*
G04 #@! TF.FilePolarity,Negative*
%FSLAX46Y46*%
G04 Gerber Fmt 4.6, Leading zero omitted, Abs format (unit mm)*
G04 Created by KiCad (PCBNEW (5.1.9-0-10_14)) date 2021-12-01 15:45:57*
%MOMM*%
%LPD*%
G01*
G04 APERTURE LIST*
%ADD10C,0.150000*%
%ADD11C,0.600000*%
%ADD12C,4.400000*%
G04 APERTURE END LIST*
D10*
X248752380Y-27452380D02*
X249085714Y-26976190D01*
X249323809Y-27452380D02*
X249323809Y-26452380D01*
X248942857Y-26452380D01*
X248847619Y-26500000D01*
X248800000Y-26547619D01*
X248752380Y-26642857D01*
X248752380Y-26785714D01*
X248800000Y-26880952D01*
X248847619Y-26928571D01*
X248942857Y-26976190D01*
X249323809Y-26976190D01*
X248323809Y-26928571D02*
X247990476Y-26928571D01*
X247847619Y-27452380D02*
X248323809Y-27452380D01*
X248323809Y-26452380D01*
X247847619Y-26452380D01*
X247561904Y-26452380D02*
X247228571Y-27452380D01*
X246895238Y-26452380D01*
X246561904Y-27452380D02*
X246561904Y-26452380D01*
X246085714Y-26452380D02*
X246085714Y-27261904D01*
X246038095Y-27357142D01*
X245990476Y-27404761D01*
X245895238Y-27452380D01*
X245704761Y-27452380D01*
X245609523Y-27404761D01*
X245561904Y-27357142D01*
X245514285Y-27261904D01*
X245514285Y-26452380D01*
X245038095Y-27452380D02*
X245038095Y-26452380D01*
X244466666Y-27452380D01*
X244466666Y-26452380D01*
X243466666Y-26500000D02*
X243561904Y-26452380D01*
X243704761Y-26452380D01*
X243847619Y-26500000D01*
X243942857Y-26595238D01*
X243990476Y-26690476D01*
X244038095Y-26880952D01*
X244038095Y-27023809D01*
X243990476Y-27214285D01*
X243942857Y-27309523D01*
X243847619Y-27404761D01*
X243704761Y-27452380D01*
X243609523Y-27452380D01*
X243466666Y-27404761D01*
X243419047Y-27357142D01*
X243419047Y-27023809D01*
X243609523Y-27023809D01*
X242514285Y-26452380D02*
X242990476Y-26452380D01*
X243038095Y-26928571D01*
X242990476Y-26880952D01*
X242895238Y-26833333D01*
X242657142Y-26833333D01*
X242561904Y-26880952D01*
X242514285Y-26928571D01*
X242466666Y-27023809D01*
X242466666Y-27261904D01*
X242514285Y-27357142D01*
X242561904Y-27404761D01*
X242657142Y-27452380D01*
X242895238Y-27452380D01*
X242990476Y-27404761D01*
X243038095Y-27357142D01*
X242133333Y-26452380D02*
X241514285Y-26452380D01*
X241847619Y-26833333D01*
X241704761Y-26833333D01*
X241609523Y-26880952D01*
X241561904Y-26928571D01*
X241514285Y-27023809D01*
X241514285Y-27261904D01*
X241561904Y-27357142D01*
X241609523Y-27404761D01*
X241704761Y-27452380D01*
X241990476Y-27452380D01*
X242085714Y-27404761D01*
X242133333Y-27357142D01*
X240323809Y-27452380D02*
X240323809Y-26785714D01*
X240323809Y-26976190D02*
X240276190Y-26880952D01*
X240228571Y-26833333D01*
X240133333Y-26785714D01*
X240038095Y-26785714D01*
X239323809Y-27404761D02*
X239419047Y-27452380D01*
X239609523Y-27452380D01*
X239704761Y-27404761D01*
X239752380Y-27309523D01*
X239752380Y-26928571D01*
X239704761Y-26833333D01*
X239609523Y-26785714D01*
X239419047Y-26785714D01*
X239323809Y-26833333D01*
X239276190Y-26928571D01*
X239276190Y-27023809D01*
X239752380Y-27119047D01*
X238942857Y-26785714D02*
X238704761Y-27452380D01*
X238466666Y-26785714D01*
X237561904Y-27452380D02*
X238133333Y-27452380D01*
X237847619Y-27452380D02*
X237847619Y-26452380D01*
X237942857Y-26595238D01*
X238038095Y-26690476D01*
X238133333Y-26738095D01*
X237133333Y-27357142D02*
X237085714Y-27404761D01*
X237133333Y-27452380D01*
X237180952Y-27404761D01*
X237133333Y-27357142D01*
X237133333Y-27452380D01*
X236466666Y-26452380D02*
X236371428Y-26452380D01*
X236276190Y-26500000D01*
X236228571Y-26547619D01*
X236180952Y-26642857D01*
X236133333Y-26833333D01*
X236133333Y-27071428D01*
X236180952Y-27261904D01*
X236228571Y-27357142D01*
X236276190Y-27404761D01*
X236371428Y-27452380D01*
X236466666Y-27452380D01*
X236561904Y-27404761D01*
X236609523Y-27357142D01*
X236657142Y-27261904D01*
X236704761Y-27071428D01*
X236704761Y-26833333D01*
X236657142Y-26642857D01*
X236609523Y-26547619D01*
X236561904Y-26500000D01*
X236466666Y-26452380D01*
X234942857Y-27452380D02*
X234942857Y-26452380D01*
X234704761Y-26452380D01*
X234561904Y-26500000D01*
X234466666Y-26595238D01*
X234419047Y-26690476D01*
X234371428Y-26880952D01*
X234371428Y-27023809D01*
X234419047Y-27214285D01*
X234466666Y-27309523D01*
X234561904Y-27404761D01*
X234704761Y-27452380D01*
X234942857Y-27452380D01*
X233561904Y-27404761D02*
X233657142Y-27452380D01*
X233847619Y-27452380D01*
X233942857Y-27404761D01*
X233990476Y-27309523D01*
X233990476Y-26928571D01*
X233942857Y-26833333D01*
X233847619Y-26785714D01*
X233657142Y-26785714D01*
X233561904Y-26833333D01*
X233514285Y-26928571D01*
X233514285Y-27023809D01*
X233990476Y-27119047D01*
X233133333Y-27404761D02*
X233038095Y-27452380D01*
X232847619Y-27452380D01*
X232752380Y-27404761D01*
X232704761Y-27309523D01*
X232704761Y-27261904D01*
X232752380Y-27166666D01*
X232847619Y-27119047D01*
X232990476Y-27119047D01*
X233085714Y-27071428D01*
X233133333Y-26976190D01*
X233133333Y-26928571D01*
X233085714Y-26833333D01*
X232990476Y-26785714D01*
X232847619Y-26785714D01*
X232752380Y-26833333D01*
X232276190Y-27452380D02*
X232276190Y-26785714D01*
X232276190Y-26452380D02*
X232323809Y-26500000D01*
X232276190Y-26547619D01*
X232228571Y-26500000D01*
X232276190Y-26452380D01*
X232276190Y-26547619D01*
X231371428Y-26785714D02*
X231371428Y-27595238D01*
X231419047Y-27690476D01*
X231466666Y-27738095D01*
X231561904Y-27785714D01*
X231704761Y-27785714D01*
X231800000Y-27738095D01*
X231371428Y-27404761D02*
X231466666Y-27452380D01*
X231657142Y-27452380D01*
X231752380Y-27404761D01*
X231800000Y-27357142D01*
X231847619Y-27261904D01*
X231847619Y-26976190D01*
X231800000Y-26880952D01*
X231752380Y-26833333D01*
X231657142Y-26785714D01*
X231466666Y-26785714D01*
X231371428Y-26833333D01*
X230895238Y-26785714D02*
X230895238Y-27452380D01*
X230895238Y-26880952D02*
X230847619Y-26833333D01*
X230752380Y-26785714D01*
X230609523Y-26785714D01*
X230514285Y-26833333D01*
X230466666Y-26928571D01*
X230466666Y-27452380D01*
X229609523Y-27404761D02*
X229704761Y-27452380D01*
X229895238Y-27452380D01*
X229990476Y-27404761D01*
X230038095Y-27309523D01*
X230038095Y-26928571D01*
X229990476Y-26833333D01*
X229895238Y-26785714D01*
X229704761Y-26785714D01*
X229609523Y-26833333D01*
X229561904Y-26928571D01*
X229561904Y-27023809D01*
X230038095Y-27119047D01*
X228704761Y-27452380D02*
X228704761Y-26452380D01*
X228704761Y-27404761D02*
X228800000Y-27452380D01*
X228990476Y-27452380D01*
X229085714Y-27404761D01*
X229133333Y-27357142D01*
X229180952Y-27261904D01*
X229180952Y-26976190D01*
X229133333Y-26880952D01*
X229085714Y-26833333D01*
X228990476Y-26785714D01*
X228800000Y-26785714D01*
X228704761Y-26833333D01*
X227466666Y-27452380D02*
X227466666Y-26452380D01*
X227466666Y-26833333D02*
X227371428Y-26785714D01*
X227180952Y-26785714D01*
X227085714Y-26833333D01*
X227038095Y-26880952D01*
X226990476Y-26976190D01*
X226990476Y-27261904D01*
X227038095Y-27357142D01*
X227085714Y-27404761D01*
X227180952Y-27452380D01*
X227371428Y-27452380D01*
X227466666Y-27404761D01*
X226657142Y-26785714D02*
X226419047Y-27452380D01*
X226180952Y-26785714D02*
X226419047Y-27452380D01*
X226514285Y-27690476D01*
X226561904Y-27738095D01*
X226657142Y-27785714D01*
X224609523Y-26785714D02*
X224609523Y-27595238D01*
X224657142Y-27690476D01*
X224704761Y-27738095D01*
X224800000Y-27785714D01*
X224942857Y-27785714D01*
X225038095Y-27738095D01*
X224609523Y-27404761D02*
X224704761Y-27452380D01*
X224895238Y-27452380D01*
X224990476Y-27404761D01*
X225038095Y-27357142D01*
X225085714Y-27261904D01*
X225085714Y-26976190D01*
X225038095Y-26880952D01*
X224990476Y-26833333D01*
X224895238Y-26785714D01*
X224704761Y-26785714D01*
X224609523Y-26833333D01*
X224276190Y-26785714D02*
X223895238Y-26785714D01*
X224133333Y-26452380D02*
X224133333Y-27309523D01*
X224085714Y-27404761D01*
X223990476Y-27452380D01*
X223895238Y-27452380D01*
X223561904Y-27452380D02*
X223561904Y-26785714D01*
X223561904Y-26452380D02*
X223609523Y-26500000D01*
X223561904Y-26547619D01*
X223514285Y-26500000D01*
X223561904Y-26452380D01*
X223561904Y-26547619D01*
X223085714Y-26785714D02*
X223085714Y-27785714D01*
X223085714Y-26833333D02*
X222990476Y-26785714D01*
X222800000Y-26785714D01*
X222704761Y-26833333D01*
X222657142Y-26880952D01*
X222609523Y-26976190D01*
X222609523Y-27261904D01*
X222657142Y-27357142D01*
X222704761Y-27404761D01*
X222800000Y-27452380D01*
X222990476Y-27452380D01*
X223085714Y-27404761D01*
X222228571Y-27404761D02*
X222133333Y-27452380D01*
X221942857Y-27452380D01*
X221847619Y-27404761D01*
X221800000Y-27309523D01*
X221800000Y-27261904D01*
X221847619Y-27166666D01*
X221942857Y-27119047D01*
X222085714Y-27119047D01*
X222180952Y-27071428D01*
X222228571Y-26976190D01*
X222228571Y-26928571D01*
X222180952Y-26833333D01*
X222085714Y-26785714D01*
X221942857Y-26785714D01*
X221847619Y-26833333D01*
X220657142Y-26547619D02*
X220609523Y-26500000D01*
X220514285Y-26452380D01*
X220276190Y-26452380D01*
X220180952Y-26500000D01*
X220133333Y-26547619D01*
X220085714Y-26642857D01*
X220085714Y-26738095D01*
X220133333Y-26880952D01*
X220704761Y-27452380D01*
X220085714Y-27452380D01*
X219466666Y-26452380D02*
X219371428Y-26452380D01*
X219276190Y-26500000D01*
X219228571Y-26547619D01*
X219180952Y-26642857D01*
X219133333Y-26833333D01*
X219133333Y-27071428D01*
X219180952Y-27261904D01*
X219228571Y-27357142D01*
X219276190Y-27404761D01*
X219371428Y-27452380D01*
X219466666Y-27452380D01*
X219561904Y-27404761D01*
X219609523Y-27357142D01*
X219657142Y-27261904D01*
X219704761Y-27071428D01*
X219704761Y-26833333D01*
X219657142Y-26642857D01*
X219609523Y-26547619D01*
X219561904Y-26500000D01*
X219466666Y-26452380D01*
X218752380Y-26547619D02*
X218704761Y-26500000D01*
X218609523Y-26452380D01*
X218371428Y-26452380D01*
X218276190Y-26500000D01*
X218228571Y-26547619D01*
X218180952Y-26642857D01*
X218180952Y-26738095D01*
X218228571Y-26880952D01*
X218800000Y-27452380D01*
X218180952Y-27452380D01*
X217228571Y-27452380D02*
X217800000Y-27452380D01*
X217514285Y-27452380D02*
X217514285Y-26452380D01*
X217609523Y-26595238D01*
X217704761Y-26690476D01*
X217800000Y-26738095D01*
D11*
X33945000Y-24360000D03*
X33095000Y-24360000D03*
X32270000Y-24360000D03*
X31445000Y-24360000D03*
X34770000Y-24360000D03*
X35595000Y-24360000D03*
X13675000Y-24360000D03*
X12825000Y-24360000D03*
X12000000Y-24360000D03*
X11175000Y-24360000D03*
X14500000Y-24360000D03*
X15325000Y-24360000D03*
D12*
X47400000Y-11760000D03*
M02*
