<?xml version="1.0" encoding="utf-8"?>
<!-- Generator: Adobe Illustrator 24.2.3, SVG Export Plug-In . SVG Version: 6.00 Build 0)  -->
<svg version="1.1" xmlns="http://www.w3.org/2000/svg" xmlns:xlink="http://www.w3.org/1999/xlink" x="0px" y="0px"
	 viewBox="0 0 735.18 321.49" style="enable-background:new 0 0 735.18 321.49;" xml:space="preserve">
<style type="text/css">
	.st0{fill:#FF0000;}
</style>
<g id="cut">
	<path d="M15.57,207.6l53.26,9.38c0.72,0.13,1.45,0.11,2.16-0.04l23.86-5.06c0.72-0.15,1.45-0.16,2.17-0.04l99.04,17.5
		c2.94,0.52,5.39,2.54,6.46,5.32l22.1,57.52c0.33,0.84,1.04,1.48,1.91,1.71l71.26,19.08h139.43l71.39-19.08
		c0.87-0.23,1.58-0.87,1.91-1.71l22.09-57.52c1.07-2.79,3.52-4.81,6.46-5.33l98.95-17.49c0.72-0.13,1.45-0.12,2.17,0.03l23.98,5.06
		c0.71,0.15,1.44,0.16,2.15,0.04l53.31-9.38c4.63-0.81,7.72-5.23,6.9-9.86L698.74,40.51c-0.72-4.06-4.25-7.02-8.37-7.02l-173.22,0
		l-50.9,9.02c-0.94,0.17-1.73,0.79-2.11,1.66l-2.35,5.41c-0.38,0.87-1.17,1.49-2.1,1.66l-38.84,6.92c-1.54,0.27-3.02-0.75-3.29-2.3
		l-7.76-44.05c-0.27-1.54-1.74-2.57-3.28-2.3L294.73,29.06l2.88,16.34c0.41,2.31-1.14,4.52-3.45,4.93l-19.54,3.45
		c-2.31,0.41-4.52-1.14-4.93-3.45l-2.97-16.84H44.77c-4.13,0-7.66,2.96-8.37,7.03L8.67,197.75C7.86,202.37,10.95,206.78,15.57,207.6
		z M660.98,194.19c0-1.72,1.4-3.12,3.12-3.12s3.12,1.4,3.12,3.12c0,1.72-1.4,3.12-3.12,3.12S660.98,195.91,660.98,194.19z
		 M641.54,87.41c0-1.72,1.4-3.12,3.12-3.12c1.72,0,3.12,1.4,3.12,3.12c0,1.72-1.4,3.12-3.12,3.12
		C642.94,90.53,641.54,89.13,641.54,87.41z M541.15,139.89c0-1.72,1.4-3.12,3.12-3.12c1.72,0,3.12,1.4,3.12,3.12
		c0,1.72-1.4,3.12-3.12,3.12C542.55,143.01,541.15,141.61,541.15,139.89z M494.56,226.15c0-1.72,1.4-3.12,3.12-3.12
		c1.72,0,3.12,1.4,3.12,3.12c0,1.72-1.4,3.12-3.12,3.12C495.95,229.27,494.56,227.87,494.56,226.15z M427.15,115.5
		c0-1.72,1.4-3.12,3.12-3.12s3.12,1.4,3.12,3.12s-1.4,3.12-3.12,3.12S427.15,117.22,427.15,115.5z M364.5,234.61
		c0-1.72,1.4-3.12,3.12-3.12s3.12,1.4,3.12,3.12c0,1.72-1.4,3.12-3.12,3.12S364.5,236.33,364.5,234.61z M301.8,115.5
		c0-1.72,1.4-3.12,3.12-3.12c1.72,0,3.12,1.4,3.12,3.12c0,1.72-1.4,3.12-3.12,3.12C303.19,118.62,301.8,117.23,301.8,115.5z
		 M234.4,226.14c0-1.72,1.4-3.12,3.12-3.12c1.72,0,3.12,1.4,3.12,3.12c0,1.72-1.4,3.12-3.12,3.12
		C235.8,229.26,234.4,227.87,234.4,226.14z M187.83,139.89c0-1.72,1.4-3.12,3.12-3.12c1.72,0,3.12,1.4,3.12,3.12
		s-1.4,3.12-3.12,3.12C189.22,143.01,187.83,141.61,187.83,139.89z M87.43,87.41c0-1.72,1.4-3.12,3.12-3.12
		c1.72,0,3.12,1.4,3.12,3.12c0,1.72-1.4,3.12-3.12,3.12C88.83,90.53,87.43,89.13,87.43,87.41z M67.99,194.18
		c0-1.72,1.4-3.12,3.12-3.12c1.72,0,3.12,1.4,3.12,3.12c0,1.72-1.4,3.12-3.12,3.12C69.39,197.3,67.99,195.91,67.99,194.18z"/>
</g>
<g id="graving">
	<g>
		<path class="st0" d="M8.5,20.15V8.7h4.87c1.22,0,2.11,0.1,2.67,0.31c0.55,0.21,1,0.57,1.33,1.1c0.33,0.53,0.5,1.13,0.5,1.8
			c0,0.86-0.25,1.57-0.76,2.13c-0.51,0.56-1.26,0.91-2.27,1.06c0.5,0.29,0.91,0.61,1.24,0.96c0.33,0.35,0.76,0.97,1.32,1.86
			l1.4,2.23h-2.77l-1.67-2.49c-0.59-0.89-1-1.45-1.22-1.68c-0.22-0.23-0.45-0.39-0.7-0.48c-0.25-0.09-0.63-0.13-1.16-0.13h-0.47
			v4.78H8.5z M10.82,13.54h1.71c1.11,0,1.8-0.05,2.08-0.14c0.28-0.09,0.49-0.25,0.65-0.48c0.16-0.23,0.23-0.52,0.23-0.86
			c0-0.39-0.1-0.7-0.31-0.93c-0.21-0.24-0.5-0.39-0.87-0.45c-0.19-0.03-0.75-0.04-1.69-0.04h-1.8V13.54z"/>
		<path class="st0" d="M24.84,17.51l2.19,0.37c-0.28,0.8-0.73,1.41-1.33,1.83c-0.61,0.42-1.37,0.63-2.28,0.63
			c-1.44,0-2.51-0.47-3.2-1.41c-0.55-0.75-0.82-1.71-0.82-2.86c0-1.37,0.36-2.45,1.08-3.23c0.72-0.78,1.63-1.17,2.73-1.17
			c1.23,0,2.21,0.41,2.92,1.22c0.71,0.82,1.05,2.06,1.02,3.75h-5.5c0.02,0.65,0.19,1.16,0.53,1.52c0.34,0.36,0.76,0.54,1.27,0.54
			c0.34,0,0.63-0.09,0.87-0.28S24.72,17.93,24.84,17.51z M24.96,15.29c-0.02-0.64-0.18-1.12-0.49-1.45c-0.31-0.33-0.69-0.5-1.14-0.5
			c-0.48,0-0.88,0.17-1.19,0.52c-0.31,0.35-0.47,0.82-0.46,1.42H24.96z"/>
		<path class="st0" d="M36.54,20.15H34.5v-1.22c-0.34,0.47-0.74,0.83-1.2,1.06s-0.93,0.35-1.39,0.35c-0.95,0-1.77-0.38-2.45-1.15
			c-0.68-0.77-1.02-1.84-1.02-3.21c0-1.41,0.33-2.48,0.99-3.21c0.66-0.73,1.5-1.1,2.51-1.1c0.93,0,1.73,0.39,2.41,1.16V8.7h2.2
			V20.15z M30.68,15.82c0,0.89,0.12,1.53,0.37,1.92c0.35,0.57,0.85,0.86,1.48,0.86c0.5,0,0.93-0.21,1.29-0.64
			c0.35-0.43,0.53-1.07,0.53-1.93c0-0.95-0.17-1.64-0.52-2.06c-0.34-0.42-0.78-0.63-1.32-0.63c-0.52,0-0.96,0.21-1.31,0.62
			S30.68,15,30.68,15.82z"/>
		<path class="st0" d="M44.79,14.39l-1.99-0.36c0.22-0.8,0.61-1.4,1.16-1.78c0.55-0.39,1.36-0.58,2.44-0.58
			c0.98,0,1.71,0.12,2.19,0.35c0.48,0.23,0.82,0.53,1.01,0.88c0.2,0.36,0.29,1.01,0.29,1.96l-0.02,2.56c0,0.73,0.04,1.27,0.11,1.61
			c0.07,0.35,0.2,0.72,0.39,1.11h-2.17c-0.06-0.15-0.13-0.36-0.21-0.65c-0.04-0.13-0.06-0.22-0.08-0.26
			c-0.38,0.36-0.78,0.64-1.2,0.82c-0.43,0.18-0.88,0.27-1.37,0.27c-0.85,0-1.53-0.23-2.02-0.7c-0.49-0.46-0.74-1.05-0.74-1.76
			c0-0.47,0.11-0.89,0.34-1.25c0.22-0.37,0.54-0.65,0.94-0.84c0.4-0.2,0.99-0.37,1.75-0.51c1.03-0.19,1.74-0.37,2.13-0.54v-0.22
			c0-0.42-0.1-0.72-0.31-0.9c-0.21-0.18-0.6-0.27-1.18-0.27c-0.39,0-0.7,0.08-0.91,0.23C45.11,13.73,44.93,14,44.79,14.39z
			 M47.73,16.17c-0.28,0.09-0.73,0.21-1.34,0.34c-0.61,0.13-1.01,0.26-1.2,0.38c-0.29,0.2-0.43,0.46-0.43,0.77
			c0,0.31,0.11,0.57,0.34,0.8c0.23,0.22,0.52,0.34,0.88,0.34c0.4,0,0.77-0.13,1.13-0.39c0.27-0.2,0.44-0.44,0.52-0.73
			c0.06-0.19,0.09-0.54,0.09-1.07V16.17z"/>
		<path class="st0" d="M54.15,20.15h-2.2v-8.3H54v1.18c0.35-0.56,0.66-0.92,0.94-1.1c0.28-0.18,0.59-0.27,0.95-0.27
			c0.5,0,0.98,0.14,1.45,0.41L56.65,14c-0.37-0.24-0.71-0.36-1.03-0.36c-0.31,0-0.57,0.08-0.78,0.25c-0.21,0.17-0.38,0.48-0.5,0.92
			c-0.12,0.44-0.18,1.37-0.18,2.78V20.15z"/>
		<path class="st0" d="M63.08,17.51l2.19,0.37c-0.28,0.8-0.73,1.41-1.33,1.83c-0.61,0.42-1.37,0.63-2.28,0.63
			c-1.44,0-2.51-0.47-3.2-1.41c-0.55-0.75-0.82-1.71-0.82-2.86c0-1.37,0.36-2.45,1.08-3.23c0.72-0.78,1.63-1.17,2.73-1.17
			c1.23,0,2.21,0.41,2.92,1.22c0.71,0.82,1.05,2.06,1.02,3.75h-5.5c0.02,0.65,0.19,1.16,0.53,1.52c0.34,0.36,0.76,0.54,1.27,0.54
			c0.34,0,0.63-0.09,0.87-0.28S62.96,17.93,63.08,17.51z M63.21,15.29c-0.02-0.64-0.18-1.12-0.49-1.45c-0.31-0.33-0.69-0.5-1.14-0.5
			c-0.48,0-0.88,0.17-1.19,0.52c-0.31,0.35-0.47,0.82-0.46,1.42H63.21z"/>
		<path class="st0" d="M68.82,14.39l-1.99-0.36c0.22-0.8,0.61-1.4,1.16-1.78c0.55-0.39,1.36-0.58,2.44-0.58
			c0.98,0,1.71,0.12,2.19,0.35c0.48,0.23,0.82,0.53,1.01,0.88c0.2,0.36,0.29,1.01,0.29,1.96l-0.02,2.56c0,0.73,0.04,1.27,0.11,1.61
			c0.07,0.35,0.2,0.72,0.39,1.11h-2.17c-0.06-0.15-0.13-0.36-0.21-0.65c-0.04-0.13-0.06-0.22-0.08-0.26
			c-0.38,0.36-0.78,0.64-1.2,0.82c-0.43,0.18-0.88,0.27-1.37,0.27c-0.85,0-1.53-0.23-2.02-0.7c-0.49-0.46-0.74-1.05-0.74-1.76
			c0-0.47,0.11-0.89,0.34-1.25c0.22-0.37,0.54-0.65,0.94-0.84c0.4-0.2,0.99-0.37,1.75-0.51c1.03-0.19,1.74-0.37,2.13-0.54v-0.22
			c0-0.42-0.1-0.72-0.31-0.9c-0.21-0.18-0.6-0.27-1.18-0.27c-0.39,0-0.7,0.08-0.91,0.23C69.13,13.73,68.95,14,68.82,14.39z
			 M71.75,16.17c-0.28,0.09-0.73,0.21-1.34,0.34c-0.61,0.13-1.01,0.26-1.2,0.38c-0.29,0.2-0.43,0.46-0.43,0.77
			c0,0.31,0.11,0.57,0.34,0.8c0.23,0.22,0.52,0.34,0.88,0.34c0.4,0,0.77-0.13,1.13-0.39c0.27-0.2,0.44-0.44,0.52-0.73
			c0.06-0.19,0.09-0.54,0.09-1.07V16.17z"/>
		<path class="st0" d="M80.52,10.73V8.7h2.2v2.03H80.52z M80.52,20.15v-8.3h2.2v8.3H80.52z"/>
		<path class="st0" d="M84.19,17.79l2.2-0.34c0.09,0.43,0.28,0.75,0.57,0.97c0.29,0.22,0.69,0.33,1.2,0.33
			c0.57,0,0.99-0.1,1.28-0.31c0.19-0.15,0.29-0.34,0.29-0.59c0-0.17-0.05-0.3-0.16-0.41c-0.11-0.1-0.35-0.2-0.73-0.29
			c-1.77-0.39-2.89-0.75-3.37-1.07c-0.66-0.45-0.98-1.07-0.98-1.87c0-0.72,0.28-1.32,0.85-1.81c0.57-0.49,1.45-0.73,2.64-0.73
			c1.14,0,1.98,0.19,2.53,0.55c0.55,0.37,0.93,0.92,1.14,1.64l-2.07,0.38c-0.09-0.32-0.26-0.57-0.5-0.74
			c-0.25-0.17-0.6-0.26-1.06-0.26c-0.58,0-0.99,0.08-1.24,0.24c-0.17,0.11-0.25,0.26-0.25,0.45c0,0.16,0.07,0.29,0.22,0.4
			c0.2,0.15,0.88,0.35,2.05,0.62c1.17,0.27,1.99,0.59,2.45,0.98c0.46,0.39,0.69,0.94,0.69,1.63c0,0.76-0.32,1.41-0.95,1.96
			c-0.64,0.55-1.58,0.82-2.82,0.82c-1.13,0-2.02-0.23-2.68-0.69C84.83,19.19,84.39,18.57,84.19,17.79z"/>
		<path class="st0" d="M103.65,15.94v-1.93h4.98v4.56c-0.48,0.47-1.19,0.88-2.11,1.24c-0.92,0.36-1.85,0.54-2.79,0.54
			c-1.2,0-2.24-0.25-3.13-0.75c-0.89-0.5-1.56-1.22-2.01-2.16c-0.45-0.93-0.67-1.95-0.67-3.05c0-1.19,0.25-2.25,0.75-3.18
			c0.5-0.93,1.23-1.64,2.2-2.13c0.73-0.38,1.65-0.57,2.74-0.57c1.42,0,2.53,0.3,3.33,0.89c0.8,0.6,1.31,1.42,1.54,2.47l-2.3,0.43
			c-0.16-0.56-0.46-1.01-0.91-1.33c-0.45-0.33-1-0.49-1.67-0.49c-1.01,0-1.81,0.32-2.41,0.96c-0.6,0.64-0.89,1.59-0.89,2.85
			c0,1.36,0.3,2.38,0.91,3.06c0.6,0.68,1.4,1.02,2.38,1.02c0.48,0,0.97-0.09,1.46-0.29c0.49-0.19,0.9-0.42,1.25-0.69v-1.45H103.65z"
			/>
		<path class="st0" d="M112.86,20.15h-2.2v-8.3h2.04v1.18c0.35-0.56,0.66-0.92,0.94-1.1c0.28-0.18,0.59-0.27,0.95-0.27
			c0.5,0,0.98,0.14,1.45,0.41L115.36,14c-0.37-0.24-0.71-0.36-1.03-0.36c-0.31,0-0.57,0.08-0.78,0.25c-0.21,0.17-0.38,0.48-0.5,0.92
			c-0.12,0.44-0.18,1.37-0.18,2.78V20.15z"/>
		<path class="st0" d="M118.62,14.39l-1.99-0.36c0.22-0.8,0.61-1.4,1.16-1.78c0.55-0.39,1.36-0.58,2.44-0.58
			c0.98,0,1.71,0.12,2.19,0.35c0.48,0.23,0.82,0.53,1.01,0.88c0.2,0.36,0.29,1.01,0.29,1.96l-0.02,2.56c0,0.73,0.04,1.27,0.11,1.61
			c0.07,0.35,0.2,0.72,0.39,1.11h-2.17c-0.06-0.15-0.13-0.36-0.21-0.65c-0.04-0.13-0.06-0.22-0.08-0.26
			c-0.38,0.36-0.78,0.64-1.2,0.82c-0.43,0.18-0.88,0.27-1.37,0.27c-0.85,0-1.53-0.23-2.02-0.7c-0.49-0.46-0.74-1.05-0.74-1.76
			c0-0.47,0.11-0.89,0.34-1.25c0.22-0.37,0.54-0.65,0.94-0.84c0.4-0.2,0.99-0.37,1.75-0.51c1.03-0.19,1.74-0.37,2.13-0.54v-0.22
			c0-0.42-0.1-0.72-0.31-0.9c-0.21-0.18-0.6-0.27-1.18-0.27c-0.39,0-0.7,0.08-0.91,0.23C118.93,13.73,118.76,14,118.62,14.39z
			 M121.56,16.17c-0.28,0.09-0.73,0.21-1.34,0.34c-0.61,0.13-1.01,0.26-1.2,0.38c-0.29,0.2-0.43,0.46-0.43,0.77
			c0,0.31,0.11,0.57,0.34,0.8c0.23,0.22,0.52,0.34,0.88,0.34c0.4,0,0.77-0.13,1.13-0.39c0.27-0.2,0.44-0.44,0.52-0.73
			c0.06-0.19,0.09-0.54,0.09-1.07V16.17z"/>
		<path class="st0" d="M128.16,20.15l-3.34-8.3h2.3l1.56,4.23l0.45,1.41c0.12-0.36,0.2-0.6,0.23-0.71c0.07-0.23,0.15-0.47,0.23-0.7
			l1.58-4.23h2.26l-3.3,8.3H128.16z"/>
		<path class="st0" d="M134.78,10.73V8.7h2.2v2.03H134.78z M134.78,20.15v-8.3h2.2v8.3H134.78z"/>
		<path class="st0" d="M146.77,20.15h-2.2v-4.23c0-0.9-0.05-1.48-0.14-1.74c-0.09-0.26-0.25-0.47-0.46-0.61
			c-0.21-0.15-0.46-0.22-0.76-0.22c-0.38,0-0.72,0.1-1.02,0.31c-0.3,0.21-0.51,0.48-0.62,0.83c-0.11,0.34-0.17,0.98-0.17,1.91v3.76
			h-2.2v-8.3h2.04v1.22c0.72-0.94,1.64-1.41,2.73-1.41c0.48,0,0.93,0.09,1.33,0.26c0.4,0.17,0.7,0.4,0.91,0.67
			c0.21,0.27,0.35,0.58,0.43,0.92c0.08,0.34,0.12,0.84,0.12,1.48V20.15z"/>
		<path class="st0" d="M148.79,20.7l2.51,0.3c0.04,0.29,0.14,0.49,0.29,0.6c0.21,0.16,0.54,0.23,0.98,0.23c0.57,0,1-0.09,1.29-0.26
			c0.19-0.11,0.34-0.3,0.44-0.55c0.07-0.18,0.1-0.52,0.1-1.01v-1.21c-0.66,0.9-1.48,1.34-2.48,1.34c-1.11,0-2-0.47-2.65-1.41
			c-0.51-0.74-0.77-1.67-0.77-2.78c0-1.39,0.33-2.45,1-3.19c0.67-0.73,1.5-1.1,2.5-1.1c1.03,0,1.87,0.45,2.54,1.35v-1.16h2.05v7.45
			c0,0.98-0.08,1.71-0.24,2.2c-0.16,0.48-0.39,0.86-0.68,1.14c-0.29,0.28-0.68,0.49-1.17,0.65c-0.49,0.16-1.1,0.23-1.85,0.23
			c-1.41,0-2.4-0.24-2.99-0.72c-0.59-0.48-0.88-1.09-0.88-1.83C148.79,20.89,148.79,20.8,148.79,20.7z M150.75,15.83
			c0,0.88,0.17,1.52,0.51,1.93c0.34,0.41,0.76,0.61,1.26,0.61c0.54,0,0.99-0.21,1.36-0.63c0.37-0.42,0.55-1.04,0.55-1.86
			c0-0.86-0.18-1.5-0.53-1.91c-0.35-0.42-0.8-0.62-1.34-0.62c-0.53,0-0.96,0.2-1.3,0.61C150.92,14.37,150.75,14.99,150.75,15.83z"/>
	</g>
	<path class="st0" d="M18.44,200.77l19.02,3.3c2.34,0.4,4.68-0.7,5.86-2.75l11.3-19.49c1.01-1.75,2.88-2.83,4.91-2.83h20.81
		c2.03,0,3.9,1.08,4.91,2.83l9.16,20.17c0.84,1.46,2.28,2.46,3.94,2.75l102.5,18.15c2.93,0.52,5.37,2.53,6.44,5.3l22.56,58.14
		c0.32,0.79,1.01,1.39,1.86,1.61l66.69,17.93l137.88,0l67.2-17.99c0.85-0.22,1.54-0.82,1.86-1.61l22.53-58.22
		c1.07-2.78,3.52-4.79,6.46-5.31l101.83-17.93c1.67-0.28,3.12-1.29,3.97-2.76l9.39-20.24c1.01-1.75,2.88-2.83,4.91-2.83h20.81
		c2.03,0,3.9,1.08,4.91,2.83l9.76,19.63c1.19,2.05,3.52,3.15,5.86,2.75l20.6-3.38c1.5-0.26,2.51-1.64,2.24-3.1l-6.66-38.41
		l0.08-0.01l-17.05-96.72c-0.01-0.04-0.01-0.07-0.01-0.11l-0.18-1.02l-2.44-13.82l-0.07,0.01l-1.06-5.82
		c-0.23-1.28-1.38-2.21-2.72-2.21l-162.59,0c-0.32,0-0.64,0.03-0.95,0.08l-50.33,8.94c-1.85,0.33-3.42,1.55-4.18,3.27l-1.79,3.83
		c-0.39,0.84-1.17,1.43-2.08,1.59l-18.53,3.2c-3.62,0.62-5.71,4.47-4.25,7.84l20.77,36.21c0.9,2.07,2.94,3.42,5.2,3.42h23.76
		c2.03,0,3.9-1.08,4.91-2.83l19.03-33.04c1.01-1.75,2.88-2.83,4.91-2.83h27.28c2.03,0,3.9,1.08,4.91,2.83l19.37,33.04
		c1.01,1.75,2.88,2.83,4.91,2.83h23.54c1.64,0,3.19-0.71,4.27-1.94l20.14-34.95c1.08-1.23,2.63-1.94,4.27-1.94h53.14
		c2.75,0,5.11,1.98,5.58,4.68l8.53,48.37c0.61,3.48-2.07,6.66-5.6,6.65l-49.43-0.13c-1.88,0-3.64,0.94-4.7,2.5l-30.8,53.07
		c-1.06,1.57-2.82,2.5-4.71,2.5l-58.25,0c-2.23-0.01-4.25,1.29-5.17,3.32l-36.06,62.52c-0.92,2.02-2.94,3.32-5.16,3.32h-39.39
		c-2.21,0-4.22-1.29-5.15-3.29l-3.79-8.2c-0.93-2.01-2.94-3.29-5.15-3.29h-69.92c-1.82,2.03-4.45,3.32-7.39,3.32
		s-5.57-1.29-7.39-3.32H290.4c-2.21,0-4.22,1.29-5.15,3.29l-3.79,8.2c-0.93,2.01-2.94,3.29-5.15,3.29h-39.7
		c-2.21,0-4.22-1.28-5.14-3.29l-36.21-62.62c-0.93-2-2.94-3.29-5.15-3.29l-58.14,0.04c-1.89,0-3.65-0.94-4.71-2.5l-30.7-53.06
		c-1.05-1.57-2.82-2.5-4.7-2.5H42.23c-3.52,0-6.2-3.18-5.58-6.65l8.5-48.23c0.48-2.71,2.83-4.68,5.58-4.68h53.16
		c1.64,0,3.19,0.71,4.27,1.94l19.95,34.97c1.08,1.23,2.63,1.94,4.27,1.94h23.9c2.03,0,3.9-1.08,4.91-2.83l18.92-33.05
		c1.01-1.75,2.88-2.83,4.91-2.83h28.3c2.03,0,3.9,1.08,4.91,2.83l18.92,33.04c1.01,1.75,2.88,2.83,4.91,2.83h22.94
		c2.29,0,4.36-1.38,5.24-3.5l20.15-35.03c1.3-3.14-0.44-6.72-3.72-7.63l-6.79-3.02l-8.43,1.49c-3.08,0.54-6.02-1.52-6.57-4.6
		l-0.68-3.85l-27.09-12.03c-0.49-0.14-1.01-0.21-1.52-0.21l-189.34,0c-1.34,0-2.49,0.93-2.72,2.21l-1.74,10.27L27.5,133.13
		c-0.02,0.09-0.06,0.17-0.07,0.27l-3.11,17.78l-1.37,7.76l0.01,0l-6.77,38.74C15.93,199.13,16.93,200.51,18.44,200.77z
		 M165.75,55.05c0-3.91,3.17-7.09,7.09-7.09s7.09,3.17,7.09,7.09s-3.17,7.09-7.09,7.09S165.75,58.97,165.75,55.05z M151.57,69.24
		c0-3.91,3.17-7.09,7.09-7.09s7.09,3.17,7.09,7.09s-3.17,7.09-7.09,7.09S151.57,73.16,151.57,69.24z M137.39,55.05
		c0-3.91,3.17-7.09,7.09-7.09s7.09,3.17,7.09,7.09s-3.17,7.09-7.09,7.09S137.39,58.97,137.39,55.05z M123.21,69.24
		c0-3.91,3.17-7.09,7.09-7.09s7.09,3.17,7.09,7.09s-3.17,7.09-7.09,7.09S123.21,73.16,123.21,69.24z M109.03,55.05
		c0-3.91,3.17-7.09,7.09-7.09c3.91,0,7.09,3.17,7.09,7.09s-3.17,7.09-7.09,7.09C112.21,62.14,109.03,58.97,109.03,55.05z
		 M569.54,55.05c0,3.91-3.17,7.09-7.09,7.09s-7.09-3.17-7.09-7.09s3.17-7.09,7.09-7.09S569.54,51.14,569.54,55.05z M583.72,69.24
		c0,3.91-3.17,7.09-7.09,7.09s-7.09-3.17-7.09-7.09s3.17-7.09,7.09-7.09S583.72,65.33,583.72,69.24z M597.9,55.05
		c0,3.91-3.17,7.09-7.09,7.09s-7.09-3.17-7.09-7.09s3.17-7.09,7.09-7.09S597.9,51.14,597.9,55.05z M612.08,69.24
		c0,3.91-3.17,7.09-7.09,7.09s-7.09-3.17-7.09-7.09s3.17-7.09,7.09-7.09S612.08,65.33,612.08,69.24z M626.26,55.05
		c0,3.91-3.17,7.09-7.09,7.09s-7.09-3.17-7.09-7.09s3.17-7.09,7.09-7.09S626.26,51.14,626.26,55.05z M696.76,154.14
		c-3.85,0.68-7.53-1.89-8.21-5.75s1.89-7.53,5.75-8.21s7.53,1.89,8.21,5.75S700.62,153.46,696.76,154.14z M699.23,168.11
		c3.85-0.68,7.53,1.89,8.21,5.75s-1.89,7.53-5.75,8.21s-7.53-1.89-8.21-5.75S695.37,168.79,699.23,168.11z M682.79,156.61
		c3.85-0.68,7.53,1.89,8.21,5.75s-1.89,7.53-5.75,8.21s-7.53-1.89-8.21-5.75S678.93,157.29,682.79,156.61z M247.14,274.76
		c0-2.35,1.9-4.25,4.25-4.25h69.11l6.48-16.77c0.84-2.18,2.95-3.62,5.29-3.62h70.35c2.31,0,4.39,1.4,5.26,3.55l6.81,16.85h69.14
		c2.35,0,4.25,1.9,4.25,4.25c0,2.35-1.9,4.25-4.25,4.25h-70.39l-4.07,15.04c-0.67,2.47-2.91,4.19-5.47,4.19h-72.44
		c-2.55,0-4.79-1.7-5.46-4.16l-4.16-15.07H251.4C249.05,279.01,247.14,277.11,247.14,274.76z M44.33,162.36
		c0.68-3.85,4.36-6.43,8.21-5.75s6.43,4.36,5.75,8.21s-4.36,6.43-8.21,5.75S43.65,166.21,44.33,162.36z M38.56,154.14
		c-3.85-0.68-6.43-4.36-5.75-8.21s4.36-6.43,8.21-5.75s6.43,4.36,5.75,8.21S42.41,154.82,38.56,154.14z M27.89,173.85
		c0.68-3.85,4.36-6.43,8.21-5.75c3.85,0.68,6.43,4.36,5.75,8.21s-4.36,6.43-8.21,5.75S27.21,177.71,27.89,173.85z"/>
</g>
<g id="note">
	<g>
		<path d="M11.68,274.18L8.6,261.29h2.66l1.94,8.85l2.36-8.85h3.09l2.26,9l1.98-9h2.62l-3.13,12.88h-2.76l-2.57-9.63l-2.56,9.63
			H11.68z"/>
		<path d="M32.3,267.31v-2.47h2.47v2.47H32.3z M32.3,274.18v-2.47h2.47v2.47H32.3z"/>
		<path d="M50.63,271.88v2.29h-8.66c0.09-0.87,0.38-1.69,0.84-2.46s1.39-1.81,2.78-3.09c1.11-1.04,1.8-1.74,2.05-2.11
			c0.34-0.51,0.51-1.01,0.51-1.51c0-0.55-0.15-0.97-0.44-1.27s-0.7-0.44-1.23-0.44c-0.52,0-0.93,0.16-1.23,0.47
			s-0.48,0.83-0.53,1.55l-2.46-0.25c0.15-1.36,0.61-2.33,1.38-2.93s1.74-0.89,2.9-0.89c1.27,0,2.27,0.34,3,1.03s1.09,1.54,1.09,2.56
			c0,0.58-0.1,1.13-0.31,1.66c-0.21,0.53-0.54,1.07-0.99,1.65c-0.3,0.38-0.84,0.93-1.62,1.64s-1.27,1.19-1.48,1.42
			s-0.38,0.46-0.51,0.69H50.63z"/>
		<path d="M52.34,270.86l2.46-0.25c0.07,0.56,0.28,1,0.62,1.32c0.35,0.33,0.74,0.49,1.2,0.49c0.52,0,0.95-0.21,1.31-0.63
			c0.36-0.42,0.54-1.05,0.54-1.89c0-0.79-0.18-1.38-0.53-1.78c-0.35-0.39-0.82-0.59-1.38-0.59c-0.71,0-1.34,0.31-1.91,0.94l-2-0.29
			l1.27-6.71h6.53v2.31h-4.66l-0.39,2.19c0.55-0.28,1.11-0.41,1.69-0.41c1.1,0,2.02,0.4,2.79,1.2s1.14,1.83,1.14,3.1
			c0,1.06-0.31,2.01-0.92,2.84c-0.84,1.14-2,1.71-3.49,1.71c-1.19,0-2.16-0.32-2.91-0.96S52.49,271.94,52.34,270.86z"/>
		<path d="M62.23,270.76l2.39-0.29c0.08,0.61,0.28,1.08,0.62,1.4s0.74,0.48,1.21,0.48c0.51,0,0.94-0.19,1.29-0.58
			s0.52-0.91,0.52-1.56c0-0.62-0.17-1.11-0.5-1.48s-0.74-0.54-1.22-0.54c-0.32,0-0.69,0.06-1.13,0.18l0.27-2.01
			c0.67,0.02,1.18-0.13,1.53-0.44c0.35-0.31,0.53-0.72,0.53-1.23c0-0.43-0.13-0.78-0.39-1.04s-0.6-0.39-1.03-0.39
			c-0.42,0-0.78,0.15-1.08,0.44s-0.48,0.72-0.54,1.28l-2.28-0.39c0.16-0.78,0.4-1.4,0.72-1.87c0.32-0.46,0.76-0.83,1.34-1.1
			c0.57-0.27,1.21-0.4,1.92-0.4c1.21,0,2.19,0.39,2.92,1.16c0.6,0.63,0.91,1.35,0.91,2.14c0,1.13-0.62,2.03-1.85,2.71
			c0.74,0.16,1.33,0.51,1.77,1.06s0.66,1.22,0.66,2c0,1.13-0.41,2.09-1.24,2.89s-1.85,1.2-3.08,1.2c-1.17,0-2.13-0.33-2.9-1.01
			C62.79,272.72,62.35,271.84,62.23,270.76z"/>
		<path d="M72.85,274.18v-2.47h2.47v2.47H72.85z"/>
		<path d="M77.24,270.76l2.39-0.29c0.08,0.61,0.28,1.08,0.62,1.4s0.74,0.48,1.21,0.48c0.51,0,0.94-0.19,1.29-0.58
			s0.52-0.91,0.52-1.56c0-0.62-0.17-1.11-0.5-1.48s-0.74-0.54-1.22-0.54c-0.32,0-0.69,0.06-1.13,0.18l0.27-2.01
			c0.67,0.02,1.18-0.13,1.53-0.44c0.35-0.31,0.53-0.72,0.53-1.23c0-0.43-0.13-0.78-0.39-1.04s-0.6-0.39-1.03-0.39
			c-0.42,0-0.78,0.15-1.08,0.44s-0.48,0.72-0.54,1.28l-2.28-0.39c0.16-0.78,0.4-1.4,0.72-1.87c0.32-0.46,0.76-0.83,1.34-1.1
			s1.21-0.4,1.92-0.4c1.21,0,2.19,0.39,2.92,1.16c0.6,0.63,0.91,1.35,0.91,2.14c0,1.13-0.62,2.03-1.85,2.71
			c0.74,0.16,1.33,0.51,1.77,1.06s0.66,1.22,0.66,2c0,1.13-0.41,2.09-1.24,2.89s-1.85,1.2-3.08,1.2c-1.17,0-2.13-0.33-2.9-1.01
			C77.81,272.72,77.36,271.84,77.24,270.76z"/>
		<path d="M92.18,274.18v-2.59h-5.27v-2.16l5.59-8.18h2.07v8.17h1.6v2.17h-1.6v2.59H92.18z M92.18,269.41v-4.4l-2.96,4.4H92.18z"/>
		<path d="M102.69,264.84h2.28v1.27c0.81-0.99,1.78-1.49,2.91-1.49c0.6,0,1.12,0.12,1.56,0.37s0.8,0.62,1.08,1.12
			c0.41-0.5,0.85-0.87,1.33-1.12s0.98-0.37,1.52-0.37c0.69,0,1.27,0.14,1.74,0.42s0.83,0.69,1.06,1.23c0.17,0.4,0.25,1.04,0.25,1.93
			v5.97h-2.47v-5.33c0-0.93-0.08-1.52-0.25-1.79c-0.23-0.35-0.58-0.53-1.05-0.53c-0.35,0-0.67,0.11-0.98,0.32s-0.52,0.52-0.66,0.93
			c-0.13,0.41-0.2,1.05-0.2,1.93v4.48h-2.47v-5.12c0-0.91-0.04-1.49-0.13-1.76s-0.22-0.46-0.41-0.59s-0.44-0.19-0.75-0.19
			c-0.38,0-0.72,0.1-1.03,0.31s-0.52,0.5-0.65,0.89s-0.2,1.03-0.2,1.92v4.54h-2.47V264.84z"/>
		<path d="M118.7,264.84h2.28v1.27c0.81-0.99,1.78-1.49,2.91-1.49c0.6,0,1.12,0.12,1.56,0.37s0.8,0.62,1.08,1.12
			c0.41-0.5,0.85-0.87,1.33-1.12c0.47-0.25,0.98-0.37,1.52-0.37c0.69,0,1.27,0.14,1.74,0.42s0.83,0.69,1.06,1.23
			c0.17,0.4,0.25,1.04,0.25,1.93v5.97h-2.47v-5.33c0-0.93-0.08-1.52-0.25-1.79c-0.23-0.35-0.58-0.53-1.05-0.53
			c-0.35,0-0.67,0.11-0.98,0.32s-0.52,0.52-0.66,0.93c-0.13,0.41-0.2,1.05-0.2,1.93v4.48h-2.47v-5.12c0-0.91-0.04-1.49-0.13-1.76
			s-0.22-0.46-0.41-0.59s-0.44-0.19-0.75-0.19c-0.38,0-0.72,0.1-1.03,0.31s-0.52,0.5-0.65,0.89s-0.2,1.03-0.2,1.92v4.54h-2.47
			V264.84z"/>
		<path d="M9.86,298.18v-12.88h2.6v5.07h5.1v-5.07h2.6v12.88h-2.6v-5.63h-5.1v5.63H9.86z"/>
		<path d="M28.31,291.31v-2.47h2.47v2.47H28.31z M28.31,298.18v-2.47h2.47v2.47H28.31z"/>
		<path d="M44.62,298.18h-2.47v-9.31c-0.9,0.84-1.97,1.47-3.19,1.87v-2.24c0.64-0.21,1.34-0.61,2.1-1.2
			c0.76-0.59,1.27-1.28,1.56-2.06h2V298.18z"/>
		<path d="M52.49,285.24c1.25,0,2.22,0.45,2.93,1.34c0.84,1.05,1.26,2.8,1.26,5.25c0,2.44-0.42,4.19-1.27,5.26
			c-0.7,0.88-1.67,1.32-2.92,1.32c-1.25,0-2.26-0.48-3.03-1.45c-0.77-0.96-1.15-2.68-1.15-5.15c0-2.43,0.42-4.17,1.27-5.24
			C50.27,285.68,51.24,285.24,52.49,285.24z M52.49,287.29c-0.3,0-0.57,0.1-0.8,0.29s-0.42,0.53-0.54,1.02
			c-0.17,0.64-0.25,1.71-0.25,3.23s0.08,2.55,0.23,3.12s0.34,0.94,0.58,1.13s0.5,0.28,0.8,0.28s0.57-0.09,0.8-0.29
			s0.42-0.53,0.54-1.02c0.17-0.63,0.25-1.71,0.25-3.22s-0.08-2.55-0.23-3.12c-0.15-0.56-0.34-0.94-0.58-1.13
			S52.79,287.29,52.49,287.29z"/>
		<path d="M58.32,287.76v-2.29h8.45v1.79c-0.7,0.69-1.41,1.67-2.13,2.95c-0.72,1.28-1.27,2.65-1.65,4.09s-0.56,2.73-0.56,3.87h-2.38
			c0.04-1.78,0.41-3.6,1.1-5.45s1.62-3.51,2.78-4.97H58.32z"/>
		<path d="M68.86,298.18v-2.47h2.47v2.47H68.86z"/>
		<path d="M77.51,285.24c1.25,0,2.22,0.45,2.93,1.34c0.84,1.05,1.26,2.8,1.26,5.25c0,2.44-0.42,4.19-1.27,5.26
			c-0.7,0.88-1.67,1.32-2.92,1.32c-1.25,0-2.26-0.48-3.03-1.45c-0.77-0.96-1.15-2.68-1.15-5.15c0-2.43,0.42-4.17,1.27-5.24
			C75.29,285.68,76.26,285.24,77.51,285.24z M77.51,287.29c-0.3,0-0.57,0.1-0.8,0.29s-0.42,0.53-0.54,1.02
			c-0.17,0.64-0.25,1.71-0.25,3.23s0.08,2.55,0.23,3.12s0.34,0.94,0.58,1.13s0.5,0.28,0.8,0.28s0.57-0.09,0.8-0.29
			s0.42-0.53,0.54-1.02c0.17-0.63,0.25-1.71,0.25-3.22s-0.08-2.55-0.23-3.12c-0.15-0.56-0.34-0.94-0.58-1.13
			S77.81,287.29,77.51,287.29z"/>
		<path d="M83.35,287.76v-2.29h8.45v1.79c-0.7,0.69-1.41,1.67-2.13,2.95s-1.27,2.65-1.65,4.09s-0.56,2.73-0.56,3.87h-2.38
			c0.04-1.78,0.41-3.6,1.1-5.45s1.62-3.51,2.78-4.97H83.35z"/>
		<path d="M93.27,294.76l2.39-0.29c0.08,0.61,0.28,1.08,0.62,1.4s0.74,0.48,1.21,0.48c0.51,0,0.94-0.19,1.29-0.58
			s0.52-0.91,0.52-1.56c0-0.62-0.17-1.11-0.5-1.48s-0.74-0.54-1.22-0.54c-0.32,0-0.69,0.06-1.13,0.18l0.27-2.01
			c0.67,0.02,1.18-0.13,1.53-0.44c0.35-0.31,0.53-0.72,0.53-1.23c0-0.43-0.13-0.78-0.39-1.04s-0.6-0.39-1.03-0.39
			c-0.42,0-0.78,0.15-1.08,0.44s-0.48,0.72-0.54,1.28l-2.28-0.39c0.16-0.78,0.4-1.4,0.72-1.87c0.32-0.46,0.76-0.83,1.34-1.1
			s1.21-0.4,1.92-0.4c1.21,0,2.19,0.39,2.92,1.16c0.6,0.63,0.91,1.35,0.91,2.14c0,1.13-0.62,2.03-1.85,2.71
			c0.74,0.16,1.33,0.51,1.77,1.06s0.66,1.22,0.66,2c0,1.13-0.41,2.09-1.24,2.89s-1.85,1.2-3.08,1.2c-1.17,0-2.13-0.33-2.9-1.01
			C93.84,296.72,93.39,295.84,93.27,294.76z"/>
		<path d="M108.71,288.84h2.28v1.27c0.81-0.99,1.78-1.49,2.91-1.49c0.6,0,1.12,0.12,1.56,0.37s0.8,0.62,1.08,1.12
			c0.41-0.5,0.85-0.87,1.33-1.12s0.98-0.37,1.52-0.37c0.69,0,1.27,0.14,1.74,0.42s0.83,0.69,1.06,1.23c0.17,0.4,0.25,1.04,0.25,1.93
			v5.97h-2.47v-5.33c0-0.93-0.08-1.52-0.25-1.79c-0.23-0.35-0.58-0.53-1.05-0.53c-0.35,0-0.67,0.11-0.98,0.32s-0.52,0.52-0.66,0.93
			c-0.13,0.41-0.2,1.05-0.2,1.93v4.48h-2.47v-5.12c0-0.91-0.04-1.49-0.13-1.76s-0.22-0.46-0.41-0.59s-0.44-0.19-0.75-0.19
			c-0.38,0-0.72,0.1-1.03,0.31s-0.52,0.5-0.65,0.89s-0.2,1.03-0.2,1.92v4.54h-2.47V288.84z"/>
		<path d="M124.72,288.84h2.28v1.27c0.81-0.99,1.78-1.49,2.91-1.49c0.6,0,1.12,0.12,1.56,0.37s0.8,0.62,1.08,1.12
			c0.41-0.5,0.85-0.87,1.33-1.12s0.98-0.37,1.52-0.37c0.69,0,1.27,0.14,1.74,0.42s0.83,0.69,1.06,1.23c0.17,0.4,0.25,1.04,0.25,1.93
			v5.97h-2.47v-5.33c0-0.93-0.08-1.52-0.25-1.79c-0.23-0.35-0.58-0.53-1.05-0.53c-0.35,0-0.67,0.11-0.98,0.32s-0.52,0.52-0.66,0.93
			c-0.13,0.41-0.2,1.05-0.2,1.93v4.48h-2.47v-5.12c0-0.91-0.04-1.49-0.13-1.76s-0.22-0.46-0.41-0.59s-0.44-0.19-0.75-0.19
			c-0.38,0-0.72,0.1-1.03,0.31c-0.3,0.21-0.52,0.5-0.65,0.89s-0.2,1.03-0.2,1.92v4.54h-2.47V288.84z"/>
	</g>
	<g>
	</g>
	<g>
	</g>
	<g>
	</g>
	<g>
	</g>
	<g>
	</g>
	<g>
	</g>
</g>
</svg>
