G04 #@! TF.GenerationSoftware,KiCad,Pcbnew,(5.1.9-0-10_14)*
G04 #@! TF.CreationDate,2021-12-01T15:47:24+09:00*
G04 #@! TF.ProjectId,slim_bottom_plate,736c696d-5f62-46f7-9474-6f6d5f706c61,1*
G04 #@! TF.SameCoordinates,PX1c9c380PY1c9c380*
G04 #@! TF.FileFunction,Soldermask,Bot*
G04 #@! TF.FilePolarity,Negative*
%FSLAX46Y46*%
G04 Gerber Fmt 4.6, Leading zero omitted, Abs format (unit mm)*
G04 Created by KiCad (PCBNEW (5.1.9-0-10_14)) date 2021-12-01 15:47:24*
%MOMM*%
%LPD*%
G01*
G04 APERTURE LIST*
%ADD10C,0.150000*%
%ADD11C,2.200000*%
%ADD12C,4.400000*%
G04 APERTURE END LIST*
D10*
X20380952Y-97452380D02*
X20714285Y-96976190D01*
X20952380Y-97452380D02*
X20952380Y-96452380D01*
X20571428Y-96452380D01*
X20476190Y-96500000D01*
X20428571Y-96547619D01*
X20380952Y-96642857D01*
X20380952Y-96785714D01*
X20428571Y-96880952D01*
X20476190Y-96928571D01*
X20571428Y-96976190D01*
X20952380Y-96976190D01*
X19952380Y-96928571D02*
X19619047Y-96928571D01*
X19476190Y-97452380D02*
X19952380Y-97452380D01*
X19952380Y-96452380D01*
X19476190Y-96452380D01*
X19190476Y-96452380D02*
X18857142Y-97452380D01*
X18523809Y-96452380D01*
X18190476Y-97452380D02*
X18190476Y-96452380D01*
X17714285Y-96452380D02*
X17714285Y-97261904D01*
X17666666Y-97357142D01*
X17619047Y-97404761D01*
X17523809Y-97452380D01*
X17333333Y-97452380D01*
X17238095Y-97404761D01*
X17190476Y-97357142D01*
X17142857Y-97261904D01*
X17142857Y-96452380D01*
X16666666Y-97452380D02*
X16666666Y-96452380D01*
X16095238Y-97452380D01*
X16095238Y-96452380D01*
X15095238Y-96500000D02*
X15190476Y-96452380D01*
X15333333Y-96452380D01*
X15476190Y-96500000D01*
X15571428Y-96595238D01*
X15619047Y-96690476D01*
X15666666Y-96880952D01*
X15666666Y-97023809D01*
X15619047Y-97214285D01*
X15571428Y-97309523D01*
X15476190Y-97404761D01*
X15333333Y-97452380D01*
X15238095Y-97452380D01*
X15095238Y-97404761D01*
X15047619Y-97357142D01*
X15047619Y-97023809D01*
X15238095Y-97023809D01*
X14142857Y-96452380D02*
X14619047Y-96452380D01*
X14666666Y-96928571D01*
X14619047Y-96880952D01*
X14523809Y-96833333D01*
X14285714Y-96833333D01*
X14190476Y-96880952D01*
X14142857Y-96928571D01*
X14095238Y-97023809D01*
X14095238Y-97261904D01*
X14142857Y-97357142D01*
X14190476Y-97404761D01*
X14285714Y-97452380D01*
X14523809Y-97452380D01*
X14619047Y-97404761D01*
X14666666Y-97357142D01*
X13761904Y-96452380D02*
X13142857Y-96452380D01*
X13476190Y-96833333D01*
X13333333Y-96833333D01*
X13238095Y-96880952D01*
X13190476Y-96928571D01*
X13142857Y-97023809D01*
X13142857Y-97261904D01*
X13190476Y-97357142D01*
X13238095Y-97404761D01*
X13333333Y-97452380D01*
X13619047Y-97452380D01*
X13714285Y-97404761D01*
X13761904Y-97357142D01*
X11952380Y-97452380D02*
X11952380Y-96785714D01*
X11952380Y-96976190D02*
X11904761Y-96880952D01*
X11857142Y-96833333D01*
X11761904Y-96785714D01*
X11666666Y-96785714D01*
X10952380Y-97404761D02*
X11047619Y-97452380D01*
X11238095Y-97452380D01*
X11333333Y-97404761D01*
X11380952Y-97309523D01*
X11380952Y-96928571D01*
X11333333Y-96833333D01*
X11238095Y-96785714D01*
X11047619Y-96785714D01*
X10952380Y-96833333D01*
X10904761Y-96928571D01*
X10904761Y-97023809D01*
X11380952Y-97119047D01*
X10571428Y-96785714D02*
X10333333Y-97452380D01*
X10095238Y-96785714D01*
X8428571Y-97452380D02*
X9000000Y-97452380D01*
X8714285Y-97452380D02*
X8714285Y-96452380D01*
X8809523Y-96595238D01*
X8904761Y-96690476D01*
X9000000Y-96738095D01*
X8000000Y-97357142D02*
X7952380Y-97404761D01*
X8000000Y-97452380D01*
X8047619Y-97404761D01*
X8000000Y-97357142D01*
X8000000Y-97452380D01*
X7333333Y-96452380D02*
X7238095Y-96452380D01*
X7142857Y-96500000D01*
X7095238Y-96547619D01*
X7047619Y-96642857D01*
X7000000Y-96833333D01*
X7000000Y-97071428D01*
X7047619Y-97261904D01*
X7095238Y-97357142D01*
X7142857Y-97404761D01*
X7238095Y-97452380D01*
X7333333Y-97452380D01*
X7428571Y-97404761D01*
X7476190Y-97357142D01*
X7523809Y-97261904D01*
X7571428Y-97071428D01*
X7571428Y-96833333D01*
X7523809Y-96642857D01*
X7476190Y-96547619D01*
X7428571Y-96500000D01*
X7333333Y-96452380D01*
D11*
X226160000Y-6600000D03*
D12*
X38140000Y-6620000D03*
M02*
