<svg xmlns="http://www.w3.org/2000/svg" viewBox="0 0 607.535 284.156"><defs><style>.cls-1{font-size:18px;font-family:Arial-BoldMT, Arial;font-weight:700;}</style></defs><g id="cut"><path d="M622.535,182.078l-27.6-156.566a8.5,8.5,0,0,0-8.375-7.027H417.1l-26.475-4.636A1.418,1.418,0,0,0,388.983,15l-1.841,10.352L380.683,27.7l-7.277-6.129a1.418,1.418,0,0,0-2.309.835l-6.917,38.8A2.835,2.835,0,0,1,360.9,63.5l-44.952-7.945A1.418,1.418,0,0,0,314.3,56.7l-1.7,9.591-6.459,2.351-5.266-4.418,1.7-9.594a1.417,1.417,0,0,0-1.149-1.643l-17.375-3.071a1.418,1.418,0,0,0-1.643,1.148l-1.694,9.558-6.459,2.351-5.265-4.418,1.7-9.559a1.417,1.417,0,0,0-1.149-1.644l-2.486-.439a2.839,2.839,0,0,1-1.8-1.122l-1.6-2.2a2.84,2.84,0,0,0-1.793-1.121l-35-6.237a2.833,2.833,0,0,1-2.1-1.661l-2.352-5.413A2.837,2.837,0,0,0,220.3,27.5l-50.9-9.019H51.339a8.5,8.5,0,0,0-8.374,7.023l-27.7,156.55a8.5,8.5,0,0,0,6.9,9.856l53.963,9.38a8.471,8.471,0,0,0,1.713.122l28.705-.868a8.494,8.494,0,0,1,3.308.561l52.57,20.2a8.507,8.507,0,0,1,4.671,4.375l24.756,53.642a2.832,2.832,0,0,0,1.911,1.712l63.419,16.945H380.664l63.469-17.007a2.832,2.832,0,0,0,1.91-1.715l24.758-53.58a8.506,8.506,0,0,1,4.669-4.371l52.55-20.2a8.5,8.5,0,0,1,3.309-.562l28.7.871a8.415,8.415,0,0,0,1.714-.122l53.888-9.368A8.5,8.5,0,0,0,622.535,182.078ZM598.212,126.99l-38.8,6.842-7.334-41.595,38.8-6.842ZM526.6,31.822l6.094,34.562,14.377-2.535L542.7,39.057l38.8-6.842,7.335,41.6-38.726,6.828h0l-.077.014,0-.012-7.375.134a8.735,8.735,0,0,1-8.762-7.217l-.023-.13-38.741,6.831L487.8,38.664Zm-38.19,94.383-38.8,6.842-7.334-41.594,38.8-6.842ZM446.327,198.53l-38.8,6.842-7.334-41.6,38.8-6.842Zm25.37-167.1,7.334,41.6-38.8,6.842-7.334-41.595ZM436.95,145.35l-38.8,6.842-7.334-41.6,38.8-6.842ZM392.014,28.206l1.23-6.979a2.126,2.126,0,0,1,2.463-1.724L415.557,23a2.126,2.126,0,0,1,1.725,2.463l-1.231,6.979a2.127,2.127,0,0,1-2.462,1.725l-19.851-3.493A2.126,2.126,0,0,1,392.014,28.206ZM200.92,145.35l7.334-41.594,38.8,6.842-7.334,41.594Zm36.76,18.427-7.334,41.6-38.8-6.842,7.334-41.595ZM166.168,31.425l38.8,6.842-7.335,41.595-38.8-6.842Zm29.426,60.022-7.335,41.6-38.8-6.843,7.335-41.594ZM56.37,32.215l38.8,6.843L90.8,63.877l14.377,2.535,6.1-34.59,38.8,6.842-7.334,41.6L104.03,73.433l-.028.159a8.736,8.736,0,0,1-8.762,7.217l-7.454-.137,0-.028L49.035,73.81ZM46.993,85.4l38.8,6.842-7.335,41.6-38.8-6.842Zm76.994,101.223-38.7-6.824-.021.119A8.735,8.735,0,0,1,76.5,187.13l-7.416-.136,0,.017-38.8-6.842,7.334-41.594,38.8,6.842-4.37,24.78,14.377,2.535,6.092-34.551,38.8,6.842ZM94.561,126.6,101.9,85l38.8,6.842-7.334,41.594ZM140.1,179.379l7.334-41.594,38.8,6.842L178.9,186.221Zm48.76,39.114a7.37,7.37,0,1,1,7.37-7.37A7.37,7.37,0,0,1,188.858,218.493Zm55.283,62.622-38.059-10.2,10.931-40.8,38.059,10.2Zm112.314,4.256a4.216,4.216,0,0,1-7.456,0l-6.071,0V284H294.92v1.373h-6.145a4.216,4.216,0,0,1-7.455,0h-9.09l.007-51.733,93.4-.01v51.739Zm-.388-60.852-3.1-17.607-15.587,9a4.262,4.262,0,0,1-2.145.578h-9.61a7.37,7.37,0,1,1-13.344,0h-9.585a4.275,4.275,0,0,1-2.142-.576l-15.638-9.026L281.8,224.519,243,217.677l7.334-41.594,38.8,6.84,2.043-11.585-38.8-6.84,7.334-41.595,38.793,6.84,2.042-11.585-38.792-6.84,0-.013-6.968-2.449a8.736,8.736,0,0,1-5.765-9.779l.013-.076L210.3,92.17l7.334-41.594,38.8,6.842-6.085,34.507,14.377,2.535,4.362-24.737,38.8,6.836-1.834,10.4h25.754l-1.833-10.395,38.8-6.843,4.371,24.788,14.377-2.535-6.094-34.558,38.8-6.842,7.334,41.594L388.836,99l.022.126a8.736,8.736,0,0,1-5.765,9.779l-6.979,2.4,0,.016-38.792,6.84,2.043,11.585,38.791-6.84,7.334,41.595-38.791,6.84,2.043,11.584,38.791-6.839,7.334,41.594Zm37.634,56.6-10.931-40.8,38.059-10.2,10.931,40.8Zm55.326-62.622a7.37,7.37,0,1,1,7.37-7.37A7.37,7.37,0,0,1,449.027,218.493Zm9.955-32.266-7.334-41.595,38.8-6.842,7.334,41.6Zm38.19-94.384L535.975,85l7.334,41.6-38.8,6.842Zm71.605,95.121-7.382.135a8.737,8.737,0,0,1-8.762-7.217l-.016-.094-38.734,6.83-7.334-41.595,38.8-6.842,6.088,34.526,14.376-2.535-4.364-24.755,38.8-6.842,7.335,41.594Z" transform="translate(-15.13 -13.827)"/></g><g id="note"><text class="cls-1" transform="translate(4.067 246.908)">W : 214.325 mm<tspan x="0" y="24">H : 100.244 mm</tspan></text></g></svg>