G04 #@! TF.GenerationSoftware,KiCad,Pcbnew,(5.1.6-0-10_14)*
G04 #@! TF.CreationDate,2020-10-19T11:22:08+09:00*
G04 #@! TF.ProjectId,reviung34-split-BOTTOM,72657669-756e-4673-9334-2d73706c6974,2.0*
G04 #@! TF.SameCoordinates,Original*
G04 #@! TF.FileFunction,Legend,Top*
G04 #@! TF.FilePolarity,Positive*
%FSLAX46Y46*%
G04 Gerber Fmt 4.6, Leading zero omitted, Abs format (unit mm)*
G04 Created by KiCad (PCBNEW (5.1.6-0-10_14)) date 2020-10-19 11:22:08*
%MOMM*%
%LPD*%
G01*
G04 APERTURE LIST*
%ADD10C,0.150000*%
%ADD11C,0.010000*%
G04 APERTURE END LIST*
D10*
X128457023Y-145327380D02*
X128123690Y-144851190D01*
X127885595Y-145327380D02*
X127885595Y-144327380D01*
X128266547Y-144327380D01*
X128361785Y-144375000D01*
X128409404Y-144422619D01*
X128457023Y-144517857D01*
X128457023Y-144660714D01*
X128409404Y-144755952D01*
X128361785Y-144803571D01*
X128266547Y-144851190D01*
X127885595Y-144851190D01*
X128885595Y-144803571D02*
X129218928Y-144803571D01*
X129361785Y-145327380D02*
X128885595Y-145327380D01*
X128885595Y-144327380D01*
X129361785Y-144327380D01*
X129647500Y-144327380D02*
X129980833Y-145327380D01*
X130314166Y-144327380D01*
X130647500Y-145327380D02*
X130647500Y-144327380D01*
X131123690Y-144327380D02*
X131123690Y-145136904D01*
X131171309Y-145232142D01*
X131218928Y-145279761D01*
X131314166Y-145327380D01*
X131504642Y-145327380D01*
X131599880Y-145279761D01*
X131647500Y-145232142D01*
X131695119Y-145136904D01*
X131695119Y-144327380D01*
X132171309Y-145327380D02*
X132171309Y-144327380D01*
X132742738Y-145327380D01*
X132742738Y-144327380D01*
X133742738Y-144375000D02*
X133647500Y-144327380D01*
X133504642Y-144327380D01*
X133361785Y-144375000D01*
X133266547Y-144470238D01*
X133218928Y-144565476D01*
X133171309Y-144755952D01*
X133171309Y-144898809D01*
X133218928Y-145089285D01*
X133266547Y-145184523D01*
X133361785Y-145279761D01*
X133504642Y-145327380D01*
X133599880Y-145327380D01*
X133742738Y-145279761D01*
X133790357Y-145232142D01*
X133790357Y-144898809D01*
X133599880Y-144898809D01*
X134123690Y-144327380D02*
X134742738Y-144327380D01*
X134409404Y-144708333D01*
X134552261Y-144708333D01*
X134647500Y-144755952D01*
X134695119Y-144803571D01*
X134742738Y-144898809D01*
X134742738Y-145136904D01*
X134695119Y-145232142D01*
X134647500Y-145279761D01*
X134552261Y-145327380D01*
X134266547Y-145327380D01*
X134171309Y-145279761D01*
X134123690Y-145232142D01*
X135599880Y-144660714D02*
X135599880Y-145327380D01*
X135361785Y-144279761D02*
X135123690Y-144994047D01*
X135742738Y-144994047D01*
X136837976Y-145279761D02*
X136980833Y-145327380D01*
X137218928Y-145327380D01*
X137314166Y-145279761D01*
X137361785Y-145232142D01*
X137409404Y-145136904D01*
X137409404Y-145041666D01*
X137361785Y-144946428D01*
X137314166Y-144898809D01*
X137218928Y-144851190D01*
X137028452Y-144803571D01*
X136933214Y-144755952D01*
X136885595Y-144708333D01*
X136837976Y-144613095D01*
X136837976Y-144517857D01*
X136885595Y-144422619D01*
X136933214Y-144375000D01*
X137028452Y-144327380D01*
X137266547Y-144327380D01*
X137409404Y-144375000D01*
X137837976Y-145327380D02*
X137837976Y-144327380D01*
X138218928Y-144327380D01*
X138314166Y-144375000D01*
X138361785Y-144422619D01*
X138409404Y-144517857D01*
X138409404Y-144660714D01*
X138361785Y-144755952D01*
X138314166Y-144803571D01*
X138218928Y-144851190D01*
X137837976Y-144851190D01*
X139314166Y-145327380D02*
X138837976Y-145327380D01*
X138837976Y-144327380D01*
X139647500Y-145327380D02*
X139647500Y-144327380D01*
X139980833Y-144327380D02*
X140552261Y-144327380D01*
X140266547Y-145327380D02*
X140266547Y-144327380D01*
X141647500Y-145327380D02*
X141647500Y-144660714D01*
X141647500Y-144851190D02*
X141695119Y-144755952D01*
X141742738Y-144708333D01*
X141837976Y-144660714D01*
X141933214Y-144660714D01*
X142647500Y-145279761D02*
X142552261Y-145327380D01*
X142361785Y-145327380D01*
X142266547Y-145279761D01*
X142218928Y-145184523D01*
X142218928Y-144803571D01*
X142266547Y-144708333D01*
X142361785Y-144660714D01*
X142552261Y-144660714D01*
X142647500Y-144708333D01*
X142695119Y-144803571D01*
X142695119Y-144898809D01*
X142218928Y-144994047D01*
X143028452Y-144660714D02*
X143266547Y-145327380D01*
X143504642Y-144660714D01*
X144599880Y-144422619D02*
X144647500Y-144375000D01*
X144742738Y-144327380D01*
X144980833Y-144327380D01*
X145076071Y-144375000D01*
X145123690Y-144422619D01*
X145171309Y-144517857D01*
X145171309Y-144613095D01*
X145123690Y-144755952D01*
X144552261Y-145327380D01*
X145171309Y-145327380D01*
X145599880Y-145232142D02*
X145647500Y-145279761D01*
X145599880Y-145327380D01*
X145552261Y-145279761D01*
X145599880Y-145232142D01*
X145599880Y-145327380D01*
X146266547Y-144327380D02*
X146361785Y-144327380D01*
X146457023Y-144375000D01*
X146504642Y-144422619D01*
X146552261Y-144517857D01*
X146599880Y-144708333D01*
X146599880Y-144946428D01*
X146552261Y-145136904D01*
X146504642Y-145232142D01*
X146457023Y-145279761D01*
X146361785Y-145327380D01*
X146266547Y-145327380D01*
X146171309Y-145279761D01*
X146123690Y-145232142D01*
X146076071Y-145136904D01*
X146028452Y-144946428D01*
X146028452Y-144708333D01*
X146076071Y-144517857D01*
X146123690Y-144422619D01*
X146171309Y-144375000D01*
X146266547Y-144327380D01*
X127885595Y-146977380D02*
X127885595Y-145977380D01*
X128123690Y-145977380D01*
X128266547Y-146025000D01*
X128361785Y-146120238D01*
X128409404Y-146215476D01*
X128457023Y-146405952D01*
X128457023Y-146548809D01*
X128409404Y-146739285D01*
X128361785Y-146834523D01*
X128266547Y-146929761D01*
X128123690Y-146977380D01*
X127885595Y-146977380D01*
X129266547Y-146929761D02*
X129171309Y-146977380D01*
X128980833Y-146977380D01*
X128885595Y-146929761D01*
X128837976Y-146834523D01*
X128837976Y-146453571D01*
X128885595Y-146358333D01*
X128980833Y-146310714D01*
X129171309Y-146310714D01*
X129266547Y-146358333D01*
X129314166Y-146453571D01*
X129314166Y-146548809D01*
X128837976Y-146644047D01*
X129695119Y-146929761D02*
X129790357Y-146977380D01*
X129980833Y-146977380D01*
X130076071Y-146929761D01*
X130123690Y-146834523D01*
X130123690Y-146786904D01*
X130076071Y-146691666D01*
X129980833Y-146644047D01*
X129837976Y-146644047D01*
X129742738Y-146596428D01*
X129695119Y-146501190D01*
X129695119Y-146453571D01*
X129742738Y-146358333D01*
X129837976Y-146310714D01*
X129980833Y-146310714D01*
X130076071Y-146358333D01*
X130552261Y-146977380D02*
X130552261Y-146310714D01*
X130552261Y-145977380D02*
X130504642Y-146025000D01*
X130552261Y-146072619D01*
X130599880Y-146025000D01*
X130552261Y-145977380D01*
X130552261Y-146072619D01*
X131457023Y-146310714D02*
X131457023Y-147120238D01*
X131409404Y-147215476D01*
X131361785Y-147263095D01*
X131266547Y-147310714D01*
X131123690Y-147310714D01*
X131028452Y-147263095D01*
X131457023Y-146929761D02*
X131361785Y-146977380D01*
X131171309Y-146977380D01*
X131076071Y-146929761D01*
X131028452Y-146882142D01*
X130980833Y-146786904D01*
X130980833Y-146501190D01*
X131028452Y-146405952D01*
X131076071Y-146358333D01*
X131171309Y-146310714D01*
X131361785Y-146310714D01*
X131457023Y-146358333D01*
X131933214Y-146310714D02*
X131933214Y-146977380D01*
X131933214Y-146405952D02*
X131980833Y-146358333D01*
X132076071Y-146310714D01*
X132218928Y-146310714D01*
X132314166Y-146358333D01*
X132361785Y-146453571D01*
X132361785Y-146977380D01*
X133218928Y-146929761D02*
X133123690Y-146977380D01*
X132933214Y-146977380D01*
X132837976Y-146929761D01*
X132790357Y-146834523D01*
X132790357Y-146453571D01*
X132837976Y-146358333D01*
X132933214Y-146310714D01*
X133123690Y-146310714D01*
X133218928Y-146358333D01*
X133266547Y-146453571D01*
X133266547Y-146548809D01*
X132790357Y-146644047D01*
X134123690Y-146977380D02*
X134123690Y-145977380D01*
X134123690Y-146929761D02*
X134028452Y-146977380D01*
X133837976Y-146977380D01*
X133742738Y-146929761D01*
X133695119Y-146882142D01*
X133647500Y-146786904D01*
X133647500Y-146501190D01*
X133695119Y-146405952D01*
X133742738Y-146358333D01*
X133837976Y-146310714D01*
X134028452Y-146310714D01*
X134123690Y-146358333D01*
X135361785Y-146977380D02*
X135361785Y-145977380D01*
X135361785Y-146358333D02*
X135457023Y-146310714D01*
X135647500Y-146310714D01*
X135742738Y-146358333D01*
X135790357Y-146405952D01*
X135837976Y-146501190D01*
X135837976Y-146786904D01*
X135790357Y-146882142D01*
X135742738Y-146929761D01*
X135647500Y-146977380D01*
X135457023Y-146977380D01*
X135361785Y-146929761D01*
X136171309Y-146310714D02*
X136409404Y-146977380D01*
X136647500Y-146310714D02*
X136409404Y-146977380D01*
X136314166Y-147215476D01*
X136266547Y-147263095D01*
X136171309Y-147310714D01*
X138218928Y-146310714D02*
X138218928Y-147120238D01*
X138171309Y-147215476D01*
X138123690Y-147263095D01*
X138028452Y-147310714D01*
X137885595Y-147310714D01*
X137790357Y-147263095D01*
X138218928Y-146929761D02*
X138123690Y-146977380D01*
X137933214Y-146977380D01*
X137837976Y-146929761D01*
X137790357Y-146882142D01*
X137742738Y-146786904D01*
X137742738Y-146501190D01*
X137790357Y-146405952D01*
X137837976Y-146358333D01*
X137933214Y-146310714D01*
X138123690Y-146310714D01*
X138218928Y-146358333D01*
X138552261Y-146310714D02*
X138933214Y-146310714D01*
X138695119Y-145977380D02*
X138695119Y-146834523D01*
X138742738Y-146929761D01*
X138837976Y-146977380D01*
X138933214Y-146977380D01*
X139266547Y-146977380D02*
X139266547Y-146310714D01*
X139266547Y-145977380D02*
X139218928Y-146025000D01*
X139266547Y-146072619D01*
X139314166Y-146025000D01*
X139266547Y-145977380D01*
X139266547Y-146072619D01*
X139742738Y-146310714D02*
X139742738Y-147310714D01*
X139742738Y-146358333D02*
X139837976Y-146310714D01*
X140028452Y-146310714D01*
X140123690Y-146358333D01*
X140171309Y-146405952D01*
X140218928Y-146501190D01*
X140218928Y-146786904D01*
X140171309Y-146882142D01*
X140123690Y-146929761D01*
X140028452Y-146977380D01*
X139837976Y-146977380D01*
X139742738Y-146929761D01*
X140599880Y-146929761D02*
X140695119Y-146977380D01*
X140885595Y-146977380D01*
X140980833Y-146929761D01*
X141028452Y-146834523D01*
X141028452Y-146786904D01*
X140980833Y-146691666D01*
X140885595Y-146644047D01*
X140742738Y-146644047D01*
X140647500Y-146596428D01*
X140599880Y-146501190D01*
X140599880Y-146453571D01*
X140647500Y-146358333D01*
X140742738Y-146310714D01*
X140885595Y-146310714D01*
X140980833Y-146358333D01*
X142171309Y-146072619D02*
X142218928Y-146025000D01*
X142314166Y-145977380D01*
X142552261Y-145977380D01*
X142647500Y-146025000D01*
X142695119Y-146072619D01*
X142742738Y-146167857D01*
X142742738Y-146263095D01*
X142695119Y-146405952D01*
X142123690Y-146977380D01*
X142742738Y-146977380D01*
X143361785Y-145977380D02*
X143457023Y-145977380D01*
X143552261Y-146025000D01*
X143599880Y-146072619D01*
X143647500Y-146167857D01*
X143695119Y-146358333D01*
X143695119Y-146596428D01*
X143647500Y-146786904D01*
X143599880Y-146882142D01*
X143552261Y-146929761D01*
X143457023Y-146977380D01*
X143361785Y-146977380D01*
X143266547Y-146929761D01*
X143218928Y-146882142D01*
X143171309Y-146786904D01*
X143123690Y-146596428D01*
X143123690Y-146358333D01*
X143171309Y-146167857D01*
X143218928Y-146072619D01*
X143266547Y-146025000D01*
X143361785Y-145977380D01*
X144076071Y-146072619D02*
X144123690Y-146025000D01*
X144218928Y-145977380D01*
X144457023Y-145977380D01*
X144552261Y-146025000D01*
X144599880Y-146072619D01*
X144647500Y-146167857D01*
X144647500Y-146263095D01*
X144599880Y-146405952D01*
X144028452Y-146977380D01*
X144647500Y-146977380D01*
X145266547Y-145977380D02*
X145361785Y-145977380D01*
X145457023Y-146025000D01*
X145504642Y-146072619D01*
X145552261Y-146167857D01*
X145599880Y-146358333D01*
X145599880Y-146596428D01*
X145552261Y-146786904D01*
X145504642Y-146882142D01*
X145457023Y-146929761D01*
X145361785Y-146977380D01*
X145266547Y-146977380D01*
X145171309Y-146929761D01*
X145123690Y-146882142D01*
X145076071Y-146786904D01*
X145028452Y-146596428D01*
X145028452Y-146358333D01*
X145076071Y-146167857D01*
X145123690Y-146072619D01*
X145171309Y-146025000D01*
X145266547Y-145977380D01*
D11*
G36*
X122594685Y-141431922D02*
G01*
X122669655Y-141460525D01*
X122712313Y-141503908D01*
X122717647Y-141535791D01*
X122722379Y-141604282D01*
X122726485Y-141703663D01*
X122729938Y-141828214D01*
X122732713Y-141972213D01*
X122734784Y-142129941D01*
X122736128Y-142295678D01*
X122736717Y-142463703D01*
X122736527Y-142628298D01*
X122735532Y-142783741D01*
X122733708Y-142924312D01*
X122731028Y-143044292D01*
X122727467Y-143137960D01*
X122722999Y-143199596D01*
X122719918Y-143218658D01*
X122680637Y-143298116D01*
X122612790Y-143347645D01*
X122514832Y-143368247D01*
X122487551Y-143369000D01*
X122401833Y-143369000D01*
X122401833Y-141421666D01*
X122496087Y-141421666D01*
X122594685Y-141431922D01*
G37*
X122594685Y-141431922D02*
X122669655Y-141460525D01*
X122712313Y-141503908D01*
X122717647Y-141535791D01*
X122722379Y-141604282D01*
X122726485Y-141703663D01*
X122729938Y-141828214D01*
X122732713Y-141972213D01*
X122734784Y-142129941D01*
X122736128Y-142295678D01*
X122736717Y-142463703D01*
X122736527Y-142628298D01*
X122735532Y-142783741D01*
X122733708Y-142924312D01*
X122731028Y-143044292D01*
X122727467Y-143137960D01*
X122722999Y-143199596D01*
X122719918Y-143218658D01*
X122680637Y-143298116D01*
X122612790Y-143347645D01*
X122514832Y-143368247D01*
X122487551Y-143369000D01*
X122401833Y-143369000D01*
X122401833Y-141421666D01*
X122496087Y-141421666D01*
X122594685Y-141431922D01*
G36*
X122810831Y-139778093D02*
G01*
X123207619Y-139822589D01*
X123599113Y-139906850D01*
X123982102Y-140030847D01*
X124334792Y-140185247D01*
X124690065Y-140384243D01*
X125016316Y-140612008D01*
X125312983Y-140865973D01*
X125579506Y-141143568D01*
X125815324Y-141442224D01*
X126019875Y-141759373D01*
X126192599Y-142092446D01*
X126332936Y-142438873D01*
X126440325Y-142796087D01*
X126514204Y-143161517D01*
X126554013Y-143532596D01*
X126559192Y-143906754D01*
X126529179Y-144281422D01*
X126463413Y-144654032D01*
X126361335Y-145022014D01*
X126222382Y-145382799D01*
X126045995Y-145733819D01*
X125831612Y-146072505D01*
X125667447Y-146290000D01*
X125563860Y-146409791D01*
X125437277Y-146543066D01*
X125298426Y-146679468D01*
X125158035Y-146808642D01*
X125026834Y-146920231D01*
X124963000Y-146969968D01*
X124624835Y-147196517D01*
X124267158Y-147386755D01*
X123893354Y-147539746D01*
X123506806Y-147654554D01*
X123110900Y-147730244D01*
X122709020Y-147765881D01*
X122304551Y-147760528D01*
X122150100Y-147747471D01*
X121748890Y-147684916D01*
X121361865Y-147583797D01*
X120991094Y-147446113D01*
X120638644Y-147273861D01*
X120306583Y-147069042D01*
X120144966Y-146946166D01*
X121301166Y-146946166D01*
X122401833Y-146946166D01*
X122401833Y-144300333D01*
X122481208Y-144300645D01*
X122583079Y-144316230D01*
X122658528Y-144363568D01*
X122703425Y-144427627D01*
X122711291Y-144445950D01*
X122717965Y-144469307D01*
X122723544Y-144501090D01*
X122728125Y-144544695D01*
X122731804Y-144603514D01*
X122734678Y-144680942D01*
X122736846Y-144780372D01*
X122738403Y-144905197D01*
X122739446Y-145058811D01*
X122740074Y-145244608D01*
X122740381Y-145465982D01*
X122740467Y-145723791D01*
X122740500Y-146946166D01*
X123822135Y-146946166D01*
X123815300Y-145670875D01*
X123813850Y-145406552D01*
X123812465Y-145181061D01*
X123811012Y-144990896D01*
X123809357Y-144832557D01*
X123807368Y-144702539D01*
X123804910Y-144597341D01*
X123801850Y-144513460D01*
X123798056Y-144447393D01*
X123793393Y-144395637D01*
X123787728Y-144354690D01*
X123780929Y-144321048D01*
X123772860Y-144291210D01*
X123763390Y-144261673D01*
X123761423Y-144255810D01*
X123689046Y-144103360D01*
X123584260Y-143972376D01*
X123453448Y-143870649D01*
X123439120Y-143862351D01*
X123336274Y-143804538D01*
X123424679Y-143754649D01*
X123553984Y-143664405D01*
X123654226Y-143553363D01*
X123730691Y-143414558D01*
X123773570Y-143294916D01*
X123783687Y-143239116D01*
X123792607Y-143146894D01*
X123800276Y-143024146D01*
X123806643Y-142876768D01*
X123811654Y-142710656D01*
X123815256Y-142531707D01*
X123817397Y-142345815D01*
X123818024Y-142158877D01*
X123817083Y-141976790D01*
X123814523Y-141805449D01*
X123810289Y-141650749D01*
X123804330Y-141518588D01*
X123796592Y-141414861D01*
X123790855Y-141367262D01*
X123755020Y-141178116D01*
X123708718Y-141025671D01*
X123649257Y-140905016D01*
X123573947Y-140811239D01*
X123480096Y-140739428D01*
X123432907Y-140713853D01*
X123372408Y-140685633D01*
X123313371Y-140662032D01*
X123251326Y-140642584D01*
X123181804Y-140626818D01*
X123100333Y-140614267D01*
X123002443Y-140604463D01*
X122883665Y-140596936D01*
X122739528Y-140591219D01*
X122565562Y-140586842D01*
X122357296Y-140583338D01*
X122163708Y-140580857D01*
X121301166Y-140570707D01*
X121301166Y-146946166D01*
X120144966Y-146946166D01*
X119996977Y-146833652D01*
X119711895Y-146569689D01*
X119453404Y-146279153D01*
X119223571Y-145964042D01*
X119024464Y-145626353D01*
X118858150Y-145268085D01*
X118726697Y-144891236D01*
X118632172Y-144497805D01*
X118602640Y-144318746D01*
X118585959Y-144159312D01*
X118575958Y-143972012D01*
X118572636Y-143770784D01*
X118575992Y-143569564D01*
X118586026Y-143382289D01*
X118602679Y-143223308D01*
X118681162Y-142817277D01*
X118798131Y-142426807D01*
X118952010Y-142054043D01*
X119141223Y-141701129D01*
X119364195Y-141370208D01*
X119619348Y-141063423D01*
X119905109Y-140782917D01*
X120219900Y-140530835D01*
X120562146Y-140309320D01*
X120859751Y-140153136D01*
X121234890Y-139998359D01*
X121620777Y-139883496D01*
X122014201Y-139808517D01*
X122411955Y-139773393D01*
X122810831Y-139778093D01*
G37*
X122810831Y-139778093D02*
X123207619Y-139822589D01*
X123599113Y-139906850D01*
X123982102Y-140030847D01*
X124334792Y-140185247D01*
X124690065Y-140384243D01*
X125016316Y-140612008D01*
X125312983Y-140865973D01*
X125579506Y-141143568D01*
X125815324Y-141442224D01*
X126019875Y-141759373D01*
X126192599Y-142092446D01*
X126332936Y-142438873D01*
X126440325Y-142796087D01*
X126514204Y-143161517D01*
X126554013Y-143532596D01*
X126559192Y-143906754D01*
X126529179Y-144281422D01*
X126463413Y-144654032D01*
X126361335Y-145022014D01*
X126222382Y-145382799D01*
X126045995Y-145733819D01*
X125831612Y-146072505D01*
X125667447Y-146290000D01*
X125563860Y-146409791D01*
X125437277Y-146543066D01*
X125298426Y-146679468D01*
X125158035Y-146808642D01*
X125026834Y-146920231D01*
X124963000Y-146969968D01*
X124624835Y-147196517D01*
X124267158Y-147386755D01*
X123893354Y-147539746D01*
X123506806Y-147654554D01*
X123110900Y-147730244D01*
X122709020Y-147765881D01*
X122304551Y-147760528D01*
X122150100Y-147747471D01*
X121748890Y-147684916D01*
X121361865Y-147583797D01*
X120991094Y-147446113D01*
X120638644Y-147273861D01*
X120306583Y-147069042D01*
X120144966Y-146946166D01*
X121301166Y-146946166D01*
X122401833Y-146946166D01*
X122401833Y-144300333D01*
X122481208Y-144300645D01*
X122583079Y-144316230D01*
X122658528Y-144363568D01*
X122703425Y-144427627D01*
X122711291Y-144445950D01*
X122717965Y-144469307D01*
X122723544Y-144501090D01*
X122728125Y-144544695D01*
X122731804Y-144603514D01*
X122734678Y-144680942D01*
X122736846Y-144780372D01*
X122738403Y-144905197D01*
X122739446Y-145058811D01*
X122740074Y-145244608D01*
X122740381Y-145465982D01*
X122740467Y-145723791D01*
X122740500Y-146946166D01*
X123822135Y-146946166D01*
X123815300Y-145670875D01*
X123813850Y-145406552D01*
X123812465Y-145181061D01*
X123811012Y-144990896D01*
X123809357Y-144832557D01*
X123807368Y-144702539D01*
X123804910Y-144597341D01*
X123801850Y-144513460D01*
X123798056Y-144447393D01*
X123793393Y-144395637D01*
X123787728Y-144354690D01*
X123780929Y-144321048D01*
X123772860Y-144291210D01*
X123763390Y-144261673D01*
X123761423Y-144255810D01*
X123689046Y-144103360D01*
X123584260Y-143972376D01*
X123453448Y-143870649D01*
X123439120Y-143862351D01*
X123336274Y-143804538D01*
X123424679Y-143754649D01*
X123553984Y-143664405D01*
X123654226Y-143553363D01*
X123730691Y-143414558D01*
X123773570Y-143294916D01*
X123783687Y-143239116D01*
X123792607Y-143146894D01*
X123800276Y-143024146D01*
X123806643Y-142876768D01*
X123811654Y-142710656D01*
X123815256Y-142531707D01*
X123817397Y-142345815D01*
X123818024Y-142158877D01*
X123817083Y-141976790D01*
X123814523Y-141805449D01*
X123810289Y-141650749D01*
X123804330Y-141518588D01*
X123796592Y-141414861D01*
X123790855Y-141367262D01*
X123755020Y-141178116D01*
X123708718Y-141025671D01*
X123649257Y-140905016D01*
X123573947Y-140811239D01*
X123480096Y-140739428D01*
X123432907Y-140713853D01*
X123372408Y-140685633D01*
X123313371Y-140662032D01*
X123251326Y-140642584D01*
X123181804Y-140626818D01*
X123100333Y-140614267D01*
X123002443Y-140604463D01*
X122883665Y-140596936D01*
X122739528Y-140591219D01*
X122565562Y-140586842D01*
X122357296Y-140583338D01*
X122163708Y-140580857D01*
X121301166Y-140570707D01*
X121301166Y-146946166D01*
X120144966Y-146946166D01*
X119996977Y-146833652D01*
X119711895Y-146569689D01*
X119453404Y-146279153D01*
X119223571Y-145964042D01*
X119024464Y-145626353D01*
X118858150Y-145268085D01*
X118726697Y-144891236D01*
X118632172Y-144497805D01*
X118602640Y-144318746D01*
X118585959Y-144159312D01*
X118575958Y-143972012D01*
X118572636Y-143770784D01*
X118575992Y-143569564D01*
X118586026Y-143382289D01*
X118602679Y-143223308D01*
X118681162Y-142817277D01*
X118798131Y-142426807D01*
X118952010Y-142054043D01*
X119141223Y-141701129D01*
X119364195Y-141370208D01*
X119619348Y-141063423D01*
X119905109Y-140782917D01*
X120219900Y-140530835D01*
X120562146Y-140309320D01*
X120859751Y-140153136D01*
X121234890Y-139998359D01*
X121620777Y-139883496D01*
X122014201Y-139808517D01*
X122411955Y-139773393D01*
X122810831Y-139778093D01*
M02*
