G04 #@! TF.GenerationSoftware,KiCad,Pcbnew,(5.1.6-0-10_14)*
G04 #@! TF.CreationDate,2020-10-19T11:22:08+09:00*
G04 #@! TF.ProjectId,reviung34-split-BOTTOM,72657669-756e-4673-9334-2d73706c6974,2.0*
G04 #@! TF.SameCoordinates,Original*
G04 #@! TF.FileFunction,Legend,Bot*
G04 #@! TF.FilePolarity,Positive*
%FSLAX46Y46*%
G04 Gerber Fmt 4.6, Leading zero omitted, Abs format (unit mm)*
G04 Created by KiCad (PCBNEW (5.1.6-0-10_14)) date 2020-10-19 11:22:08*
%MOMM*%
%LPD*%
G01*
G04 APERTURE LIST*
%ADD10C,0.010000*%
G04 APERTURE END LIST*
D10*
G36*
X241716867Y-97751048D02*
G01*
X241617466Y-97763787D01*
X241550965Y-97783232D01*
X241507960Y-97814560D01*
X241479045Y-97862944D01*
X241469737Y-97887045D01*
X241462501Y-97928950D01*
X241456233Y-98007600D01*
X241450930Y-98117844D01*
X241446589Y-98254525D01*
X241443207Y-98412492D01*
X241440781Y-98586588D01*
X241439308Y-98771661D01*
X241438784Y-98962557D01*
X241439208Y-99154120D01*
X241440575Y-99341198D01*
X241442884Y-99518637D01*
X241446130Y-99681281D01*
X241450311Y-99823978D01*
X241455424Y-99941573D01*
X241461466Y-100028912D01*
X241468434Y-100080841D01*
X241471024Y-100089539D01*
X241519079Y-100159063D01*
X241595155Y-100202003D01*
X241702624Y-100220023D01*
X241736866Y-100220833D01*
X241854334Y-100220833D01*
X241854334Y-97738211D01*
X241716867Y-97751048D01*
G37*
X241716867Y-97751048D02*
X241617466Y-97763787D01*
X241550965Y-97783232D01*
X241507960Y-97814560D01*
X241479045Y-97862944D01*
X241469737Y-97887045D01*
X241462501Y-97928950D01*
X241456233Y-98007600D01*
X241450930Y-98117844D01*
X241446589Y-98254525D01*
X241443207Y-98412492D01*
X241440781Y-98586588D01*
X241439308Y-98771661D01*
X241438784Y-98962557D01*
X241439208Y-99154120D01*
X241440575Y-99341198D01*
X241442884Y-99518637D01*
X241446130Y-99681281D01*
X241450311Y-99823978D01*
X241455424Y-99941573D01*
X241461466Y-100028912D01*
X241468434Y-100080841D01*
X241471024Y-100089539D01*
X241519079Y-100159063D01*
X241595155Y-100202003D01*
X241702624Y-100220023D01*
X241736866Y-100220833D01*
X241854334Y-100220833D01*
X241854334Y-97738211D01*
X241716867Y-97751048D01*
G36*
X155346167Y-94717500D02*
G01*
X250575000Y-94717500D01*
X250575000Y-94209500D01*
X155346167Y-94209500D01*
X155346167Y-94717500D01*
G37*
X155346167Y-94717500D02*
X250575000Y-94717500D01*
X250575000Y-94209500D01*
X155346167Y-94209500D01*
X155346167Y-94717500D01*
G36*
X230776654Y-95606517D02*
G01*
X230030210Y-95606570D01*
X229295410Y-95606656D01*
X228573371Y-95606775D01*
X227865212Y-95606927D01*
X227172051Y-95607109D01*
X226495005Y-95607322D01*
X225835194Y-95607563D01*
X225193734Y-95607833D01*
X224571744Y-95608130D01*
X223970342Y-95608453D01*
X223390646Y-95608802D01*
X222833775Y-95609175D01*
X222300846Y-95609572D01*
X221792976Y-95609991D01*
X221311286Y-95610432D01*
X220856891Y-95610893D01*
X220430912Y-95611374D01*
X220034464Y-95611874D01*
X219668667Y-95612392D01*
X219334639Y-95612926D01*
X219033498Y-95613477D01*
X218766361Y-95614042D01*
X218534347Y-95614622D01*
X218338574Y-95615214D01*
X218180160Y-95615819D01*
X218060224Y-95616435D01*
X217979882Y-95617061D01*
X217940253Y-95617697D01*
X217936000Y-95617985D01*
X217943408Y-95640473D01*
X217963951Y-95695705D01*
X217995111Y-95777093D01*
X218034371Y-95878048D01*
X218071518Y-95972527D01*
X218316621Y-96647681D01*
X218522761Y-97334176D01*
X218690376Y-98034017D01*
X218819906Y-98749206D01*
X218911790Y-99481749D01*
X218953483Y-99998583D01*
X218962073Y-100181377D01*
X218967237Y-100395052D01*
X218969126Y-100630395D01*
X218967891Y-100878193D01*
X218963683Y-101129235D01*
X218956654Y-101374309D01*
X218946954Y-101604203D01*
X218934736Y-101809704D01*
X218921071Y-101972588D01*
X218828342Y-102708938D01*
X218700774Y-103422818D01*
X218537811Y-104116591D01*
X218338899Y-104792622D01*
X218103481Y-105453276D01*
X218102360Y-105456162D01*
X218055390Y-105577474D01*
X218013327Y-105686945D01*
X217978746Y-105777804D01*
X217954222Y-105843281D01*
X217942332Y-105876606D01*
X217942020Y-105877625D01*
X217942581Y-105880101D01*
X217946400Y-105882466D01*
X217954438Y-105884720D01*
X217967654Y-105886867D01*
X217987007Y-105888908D01*
X218013456Y-105890848D01*
X218047961Y-105892688D01*
X218091481Y-105894431D01*
X218144976Y-105896080D01*
X218209404Y-105897637D01*
X218285725Y-105899105D01*
X218374898Y-105900487D01*
X218477883Y-105901784D01*
X218595639Y-105903000D01*
X218729125Y-105904138D01*
X218879300Y-105905199D01*
X219047124Y-105906187D01*
X219233556Y-105907105D01*
X219439556Y-105907954D01*
X219666082Y-105908737D01*
X219914094Y-105909457D01*
X220184552Y-105910117D01*
X220478414Y-105910720D01*
X220796640Y-105911267D01*
X221140189Y-105911761D01*
X221510020Y-105912206D01*
X221907094Y-105912603D01*
X222332368Y-105912956D01*
X222786803Y-105913267D01*
X223271358Y-105913538D01*
X223786992Y-105913772D01*
X224334664Y-105913972D01*
X224915333Y-105914141D01*
X225529960Y-105914280D01*
X226179503Y-105914393D01*
X226864921Y-105914483D01*
X227587174Y-105914551D01*
X228347221Y-105914601D01*
X229146022Y-105914634D01*
X229984536Y-105914655D01*
X230863721Y-105914664D01*
X231533399Y-105914666D01*
X245135735Y-105914666D01*
X245101993Y-105835291D01*
X244845822Y-105180195D01*
X244624953Y-104504607D01*
X244440206Y-103812591D01*
X244292403Y-103108213D01*
X244182361Y-102395538D01*
X244110903Y-101678631D01*
X244078847Y-100961558D01*
X244077039Y-100754473D01*
X244093605Y-100119700D01*
X244143177Y-99475491D01*
X244224508Y-98828168D01*
X244336350Y-98184056D01*
X244477458Y-97549477D01*
X244646583Y-96930756D01*
X244733908Y-96664833D01*
X243272500Y-96664833D01*
X243272500Y-104835166D01*
X241854334Y-104835166D01*
X241854334Y-101443568D01*
X241716193Y-101452364D01*
X241605512Y-101470366D01*
X241527387Y-101510810D01*
X241476141Y-101577961D01*
X241451195Y-101651541D01*
X241448052Y-101685921D01*
X241445055Y-101759084D01*
X241442248Y-101867479D01*
X241439673Y-102007555D01*
X241437374Y-102175762D01*
X241435392Y-102368549D01*
X241433771Y-102582366D01*
X241432553Y-102813661D01*
X241431782Y-103058885D01*
X241431505Y-103284708D01*
X241431000Y-104835166D01*
X240032274Y-104835166D01*
X240039072Y-103210625D01*
X240040352Y-102901830D01*
X240041476Y-102652845D01*
X239416369Y-102652845D01*
X239416311Y-102987497D01*
X239416148Y-103300611D01*
X239415884Y-103590123D01*
X239415519Y-103853966D01*
X239415058Y-104090074D01*
X239414502Y-104296382D01*
X239413854Y-104470824D01*
X239413115Y-104611335D01*
X239412289Y-104715847D01*
X239411378Y-104782297D01*
X239410384Y-104808617D01*
X239410314Y-104808895D01*
X239399829Y-104814961D01*
X239371486Y-104819991D01*
X239322429Y-104824041D01*
X239249801Y-104827162D01*
X239150746Y-104829411D01*
X239022407Y-104830838D01*
X238861926Y-104831500D01*
X238666449Y-104831448D01*
X238433116Y-104830737D01*
X238283051Y-104830062D01*
X237165917Y-104824583D01*
X237165917Y-103745083D01*
X237583959Y-103739344D01*
X238002000Y-103733605D01*
X238002000Y-100899061D01*
X237583959Y-100893322D01*
X237165917Y-100887583D01*
X237165917Y-99808083D01*
X237583959Y-99802344D01*
X238002000Y-99796605D01*
X238002000Y-97745228D01*
X237583959Y-97739489D01*
X237165917Y-97733750D01*
X237165917Y-96680708D01*
X236673961Y-96680708D01*
X236672217Y-96702300D01*
X236666197Y-96763507D01*
X236656168Y-96861854D01*
X236642394Y-96994866D01*
X236625139Y-97160070D01*
X236604669Y-97354990D01*
X236581249Y-97577152D01*
X236555143Y-97824081D01*
X236526617Y-98093303D01*
X236495934Y-98382343D01*
X236463361Y-98688726D01*
X236429161Y-99009979D01*
X236393600Y-99343626D01*
X236356943Y-99687193D01*
X236319455Y-100038206D01*
X236281400Y-100394189D01*
X236243043Y-100752669D01*
X236204649Y-101111170D01*
X236166483Y-101467219D01*
X236128811Y-101818340D01*
X236091896Y-102162059D01*
X236056003Y-102495902D01*
X236021398Y-102817394D01*
X235988346Y-103124059D01*
X235957111Y-103413425D01*
X235927958Y-103683016D01*
X235901152Y-103930358D01*
X235876958Y-104152976D01*
X235855641Y-104348395D01*
X235837465Y-104514141D01*
X235822696Y-104647740D01*
X235811599Y-104746717D01*
X235804438Y-104808597D01*
X235801653Y-104830126D01*
X235781025Y-104831222D01*
X235722656Y-104831963D01*
X235631132Y-104832350D01*
X235511045Y-104832383D01*
X235366984Y-104832062D01*
X235203537Y-104831386D01*
X235025294Y-104830355D01*
X234991084Y-104830126D01*
X234181500Y-104824583D01*
X233754728Y-100845250D01*
X233711043Y-100437738D01*
X233668522Y-100040732D01*
X233627391Y-99656346D01*
X233587874Y-99286696D01*
X233550196Y-98933896D01*
X233514582Y-98600062D01*
X233481257Y-98287309D01*
X233450446Y-97997750D01*
X233422373Y-97733502D01*
X233397264Y-97496679D01*
X233375343Y-97289397D01*
X233356836Y-97113769D01*
X233341967Y-96971912D01*
X233330960Y-96865939D01*
X233324042Y-96797967D01*
X233321471Y-96770666D01*
X233314986Y-96675416D01*
X233974401Y-96669825D01*
X234563064Y-96664833D01*
X232816167Y-96664833D01*
X232816167Y-104835166D01*
X231398000Y-104835166D01*
X231398000Y-96664833D01*
X232816167Y-96664833D01*
X234563064Y-96664833D01*
X234630515Y-96664261D01*
X230785330Y-96664261D01*
X230778681Y-100278755D01*
X230777832Y-100737081D01*
X230777032Y-101155045D01*
X230776254Y-101534619D01*
X230775470Y-101877775D01*
X230774655Y-102186483D01*
X230773781Y-102462715D01*
X230772822Y-102708443D01*
X230771752Y-102925638D01*
X230770544Y-103116271D01*
X230769171Y-103282315D01*
X230767606Y-103425741D01*
X230765823Y-103548519D01*
X230763796Y-103652623D01*
X230761497Y-103740022D01*
X230758900Y-103812689D01*
X230755978Y-103872596D01*
X230752705Y-103921712D01*
X230749054Y-103962011D01*
X230744999Y-103995464D01*
X230740512Y-104024042D01*
X230735568Y-104049716D01*
X230730139Y-104074458D01*
X230727225Y-104087135D01*
X230674663Y-104279133D01*
X230611653Y-104434195D01*
X230533127Y-104557372D01*
X230434017Y-104653717D01*
X230309255Y-104728283D01*
X230153773Y-104786123D01*
X229984249Y-104827875D01*
X229883909Y-104846021D01*
X229765579Y-104863633D01*
X229653493Y-104877132D01*
X229644864Y-104877992D01*
X229529965Y-104885554D01*
X229386382Y-104889440D01*
X229223876Y-104889907D01*
X229052204Y-104887214D01*
X228881126Y-104881620D01*
X228720400Y-104873383D01*
X228579784Y-104862762D01*
X228469037Y-104850017D01*
X228445250Y-104846197D01*
X228244727Y-104804901D01*
X228080869Y-104754891D01*
X227948786Y-104691351D01*
X227843586Y-104609469D01*
X227760376Y-104504429D01*
X227694266Y-104371416D01*
X227640364Y-104205618D01*
X227595266Y-104009666D01*
X227590629Y-103984071D01*
X227586390Y-103954227D01*
X227582525Y-103918176D01*
X227579011Y-103873959D01*
X227575827Y-103819618D01*
X227572949Y-103753195D01*
X227570354Y-103672732D01*
X227568021Y-103576270D01*
X227565925Y-103461851D01*
X227564045Y-103327516D01*
X227562358Y-103171307D01*
X227560840Y-102991267D01*
X227559471Y-102785435D01*
X227558225Y-102551855D01*
X227557082Y-102288568D01*
X227556018Y-101993615D01*
X227555011Y-101665038D01*
X227554038Y-101300879D01*
X227553075Y-100899180D01*
X227552102Y-100457982D01*
X227551656Y-100247291D01*
X227544164Y-96664833D01*
X226931834Y-96664833D01*
X226931834Y-104835166D01*
X225701832Y-104835166D01*
X225716947Y-102750250D01*
X225719461Y-102386576D01*
X225721421Y-102063437D01*
X225722820Y-101779034D01*
X225723650Y-101531573D01*
X225723902Y-101319255D01*
X225723568Y-101140286D01*
X225722640Y-100992868D01*
X225721110Y-100875206D01*
X225718971Y-100785503D01*
X225716213Y-100721962D01*
X225712828Y-100682788D01*
X225708810Y-100666183D01*
X225707531Y-100665333D01*
X225684275Y-100670552D01*
X225683000Y-100672979D01*
X225679248Y-100694416D01*
X225668335Y-100754675D01*
X225650776Y-100850946D01*
X225627088Y-100980418D01*
X225597786Y-101140283D01*
X225563387Y-101327729D01*
X225524405Y-101539949D01*
X225481357Y-101774130D01*
X225434759Y-102027464D01*
X225385127Y-102297142D01*
X225332975Y-102580351D01*
X225302000Y-102748490D01*
X225248628Y-103038262D01*
X225197477Y-103316149D01*
X225149065Y-103579340D01*
X225103907Y-103825020D01*
X225062518Y-104050376D01*
X225025416Y-104252597D01*
X224993116Y-104428868D01*
X224966133Y-104576377D01*
X224944985Y-104692311D01*
X224930186Y-104773857D01*
X224922253Y-104818202D01*
X224921000Y-104825761D01*
X224900704Y-104828136D01*
X224843291Y-104830291D01*
X224753980Y-104832147D01*
X224637988Y-104833625D01*
X224500533Y-104834648D01*
X224346832Y-104835136D01*
X224296584Y-104835166D01*
X223672167Y-104835166D01*
X223672167Y-102122120D01*
X223055282Y-102122120D01*
X223055144Y-102407435D01*
X223054552Y-102661329D01*
X223053465Y-102885983D01*
X223051839Y-103083580D01*
X223049632Y-103256303D01*
X223046799Y-103406332D01*
X223043299Y-103535852D01*
X223039089Y-103647043D01*
X223034125Y-103742088D01*
X223028365Y-103823169D01*
X223021766Y-103892469D01*
X223014284Y-103952170D01*
X223005878Y-104004454D01*
X222996504Y-104051503D01*
X222986119Y-104095499D01*
X222983712Y-104104916D01*
X222939946Y-104242114D01*
X222882544Y-104375643D01*
X222818009Y-104491868D01*
X222764535Y-104564463D01*
X222642660Y-104673538D01*
X222487321Y-104763793D01*
X222304176Y-104832579D01*
X222098885Y-104877247D01*
X222095250Y-104877780D01*
X221987974Y-104887352D01*
X221854341Y-104890328D01*
X221707634Y-104887272D01*
X221561135Y-104878748D01*
X221428128Y-104865321D01*
X221321894Y-104847555D01*
X221308319Y-104844360D01*
X221126894Y-104785331D01*
X220966900Y-104701118D01*
X220816171Y-104584785D01*
X220759396Y-104531307D01*
X220605933Y-104380083D01*
X220493837Y-104608176D01*
X220381742Y-104836270D01*
X220084913Y-104830426D01*
X219788084Y-104824583D01*
X219788084Y-100591250D01*
X220597709Y-100585706D01*
X221407334Y-100580163D01*
X221407334Y-101681333D01*
X221195667Y-101681333D01*
X221196589Y-102596791D01*
X221197201Y-102793379D01*
X221198573Y-102979887D01*
X221200612Y-103151395D01*
X221203224Y-103302981D01*
X221206315Y-103429722D01*
X221209793Y-103526695D01*
X221213563Y-103588981D01*
X221215741Y-103606731D01*
X221246662Y-103695929D01*
X221300800Y-103750820D01*
X221382469Y-103774972D01*
X221421224Y-103776833D01*
X221514848Y-103759099D01*
X221583705Y-103707829D01*
X221624302Y-103625918D01*
X221629005Y-103604573D01*
X221630508Y-103575100D01*
X221631871Y-103505817D01*
X221633090Y-103399244D01*
X221634157Y-103257906D01*
X221635068Y-103084323D01*
X221635816Y-102881017D01*
X221636396Y-102650512D01*
X221636802Y-102395329D01*
X221637028Y-102117990D01*
X221637068Y-101821018D01*
X221636917Y-101506935D01*
X221636569Y-101178263D01*
X221636018Y-100837524D01*
X221635699Y-100679373D01*
X221629584Y-97825329D01*
X221570195Y-97774248D01*
X221503791Y-97734956D01*
X221420098Y-97723167D01*
X221419082Y-97723166D01*
X221326806Y-97737020D01*
X221263179Y-97780771D01*
X221224279Y-97857700D01*
X221215741Y-97893268D01*
X221211431Y-97936418D01*
X221207432Y-98016290D01*
X221203871Y-98127273D01*
X221200876Y-98263755D01*
X221198575Y-98420126D01*
X221197096Y-98590773D01*
X221196589Y-98734160D01*
X221195667Y-99480570D01*
X220491875Y-99474993D01*
X219788084Y-99469416D01*
X219789117Y-98654500D01*
X219789969Y-98407707D01*
X219792088Y-98198172D01*
X219795834Y-98020831D01*
X219801567Y-97870617D01*
X219809648Y-97742465D01*
X219820436Y-97631310D01*
X219834292Y-97532086D01*
X219851575Y-97439729D01*
X219872647Y-97349172D01*
X219885394Y-97300470D01*
X219938305Y-97139996D01*
X220004907Y-97009313D01*
X220090205Y-96904228D01*
X220199205Y-96820549D01*
X220336913Y-96754083D01*
X220508335Y-96700638D01*
X220636145Y-96671716D01*
X220703378Y-96659597D01*
X220775008Y-96650219D01*
X220857438Y-96643262D01*
X220957070Y-96638406D01*
X221080308Y-96635334D01*
X221233552Y-96633724D01*
X221407334Y-96633261D01*
X221616220Y-96634036D01*
X221789316Y-96636946D01*
X221933137Y-96642657D01*
X222054202Y-96651838D01*
X222159026Y-96665155D01*
X222254127Y-96683276D01*
X222346021Y-96706867D01*
X222441226Y-96736595D01*
X222451989Y-96740204D01*
X222604402Y-96803064D01*
X222722882Y-96880658D01*
X222814617Y-96980243D01*
X222886795Y-97109080D01*
X222930496Y-97223452D01*
X222945914Y-97269976D01*
X222959858Y-97313635D01*
X222972410Y-97356682D01*
X222983649Y-97401369D01*
X222993657Y-97449950D01*
X223002514Y-97504677D01*
X223010300Y-97567802D01*
X223017097Y-97641579D01*
X223022985Y-97728260D01*
X223028044Y-97830097D01*
X223032356Y-97949344D01*
X223036000Y-98088253D01*
X223039058Y-98249077D01*
X223041609Y-98434068D01*
X223043736Y-98645480D01*
X223045517Y-98885565D01*
X223047035Y-99156575D01*
X223048369Y-99460764D01*
X223049600Y-99800383D01*
X223050809Y-100177687D01*
X223052076Y-100594927D01*
X223052161Y-100623000D01*
X223053406Y-101055823D01*
X223054370Y-101448496D01*
X223055010Y-101803201D01*
X223055282Y-102122120D01*
X223672167Y-102122120D01*
X223672167Y-96664184D01*
X224884897Y-96675416D01*
X224881356Y-98495750D01*
X224880664Y-98775128D01*
X224879705Y-99046245D01*
X224878509Y-99305565D01*
X224877104Y-99549553D01*
X224875521Y-99774674D01*
X224873787Y-99977393D01*
X224871933Y-100154176D01*
X224869988Y-100301486D01*
X224867980Y-100415790D01*
X224865939Y-100493552D01*
X224864632Y-100522458D01*
X224859423Y-100619255D01*
X224859096Y-100681029D01*
X224864240Y-100714872D01*
X224875444Y-100727877D01*
X224881783Y-100728833D01*
X224888699Y-100719942D01*
X224898583Y-100691981D01*
X224911826Y-100643014D01*
X224928820Y-100571104D01*
X224949953Y-100474318D01*
X224975616Y-100350720D01*
X225006200Y-100198374D01*
X225042095Y-100015345D01*
X225083691Y-99799698D01*
X225131379Y-99549497D01*
X225185550Y-99262808D01*
X225246592Y-98937694D01*
X225291638Y-98696833D01*
X225671157Y-96664833D01*
X226931834Y-96664833D01*
X227544164Y-96664833D01*
X228963834Y-96664833D01*
X228965029Y-100130875D01*
X228965268Y-100607479D01*
X228965649Y-101043215D01*
X228966184Y-101439545D01*
X228966882Y-101797935D01*
X228967756Y-102119849D01*
X228968816Y-102406750D01*
X228970074Y-102660102D01*
X228971539Y-102881371D01*
X228973223Y-103072019D01*
X228975137Y-103233511D01*
X228977292Y-103367312D01*
X228979698Y-103474885D01*
X228982368Y-103557694D01*
X228985310Y-103617204D01*
X228988538Y-103654879D01*
X228991487Y-103670751D01*
X229034436Y-103738683D01*
X229100527Y-103780300D01*
X229178111Y-103793405D01*
X229255536Y-103775800D01*
X229315470Y-103731866D01*
X229320615Y-103725176D01*
X229325309Y-103715715D01*
X229329580Y-103701562D01*
X229333454Y-103680796D01*
X229336959Y-103651495D01*
X229340123Y-103611738D01*
X229342972Y-103559605D01*
X229345534Y-103493174D01*
X229347837Y-103410524D01*
X229349907Y-103309734D01*
X229351773Y-103188883D01*
X229353461Y-103046049D01*
X229354999Y-102879313D01*
X229356414Y-102686752D01*
X229357733Y-102466445D01*
X229358984Y-102216472D01*
X229360194Y-101934911D01*
X229361391Y-101619841D01*
X229362602Y-101269341D01*
X229363853Y-100881490D01*
X229365174Y-100454367D01*
X229366000Y-100181571D01*
X229376584Y-96675416D01*
X230080957Y-96669838D01*
X230785330Y-96664261D01*
X234630515Y-96664261D01*
X234633817Y-96664233D01*
X234645390Y-96754491D01*
X234648099Y-96786633D01*
X234653178Y-96858399D01*
X234660463Y-96967158D01*
X234669788Y-97110275D01*
X234680988Y-97285120D01*
X234693897Y-97489059D01*
X234708352Y-97719459D01*
X234724186Y-97973689D01*
X234741234Y-98249115D01*
X234759332Y-98543105D01*
X234778314Y-98853026D01*
X234798015Y-99176245D01*
X234818269Y-99510131D01*
X234818367Y-99511750D01*
X234838531Y-99843929D01*
X234858096Y-100164322D01*
X234876903Y-100470399D01*
X234894792Y-100759632D01*
X234911602Y-101029492D01*
X234927173Y-101277450D01*
X234941344Y-101500976D01*
X234953955Y-101697543D01*
X234964846Y-101864620D01*
X234973856Y-101999680D01*
X234980825Y-102100193D01*
X234985592Y-102163630D01*
X234987998Y-102187463D01*
X234988052Y-102187569D01*
X235005545Y-102187177D01*
X235007829Y-102165283D01*
X235012211Y-102103694D01*
X235018542Y-102004986D01*
X235026675Y-101871739D01*
X235036463Y-101706529D01*
X235047758Y-101511936D01*
X235060413Y-101290536D01*
X235074279Y-101044908D01*
X235089210Y-100777629D01*
X235105058Y-100491278D01*
X235121675Y-100188433D01*
X235138914Y-99871671D01*
X235153235Y-99606608D01*
X235171037Y-99276557D01*
X235188392Y-98955776D01*
X235205145Y-98647082D01*
X235221140Y-98353295D01*
X235236224Y-98077231D01*
X235250239Y-97821708D01*
X235263032Y-97589544D01*
X235274447Y-97383556D01*
X235284329Y-97206563D01*
X235292523Y-97061382D01*
X235298873Y-96950830D01*
X235303225Y-96877726D01*
X235305021Y-96850041D01*
X235318328Y-96664833D01*
X235992165Y-96664833D01*
X236156669Y-96665313D01*
X236307141Y-96666674D01*
X236438478Y-96668798D01*
X236545580Y-96671565D01*
X236623343Y-96674857D01*
X236666667Y-96678555D01*
X236673961Y-96680708D01*
X237165917Y-96680708D01*
X237165917Y-96675416D01*
X239409584Y-96675416D01*
X239415014Y-100728833D01*
X239415512Y-101140183D01*
X239415895Y-101540326D01*
X239416164Y-101927194D01*
X239416321Y-102298722D01*
X239416369Y-102652845D01*
X240041476Y-102652845D01*
X240041570Y-102632253D01*
X240042930Y-102398778D01*
X240044637Y-102198288D01*
X240046896Y-102027669D01*
X240049912Y-101883805D01*
X240053889Y-101763580D01*
X240059031Y-101663879D01*
X240065544Y-101581587D01*
X240073632Y-101513587D01*
X240083499Y-101456765D01*
X240095351Y-101408005D01*
X240109391Y-101364191D01*
X240125825Y-101322209D01*
X240144857Y-101278941D01*
X240166691Y-101231274D01*
X240169473Y-101225190D01*
X240231921Y-101122670D01*
X240322025Y-101018420D01*
X240427534Y-100924821D01*
X240536191Y-100854258D01*
X240536969Y-100853856D01*
X240641977Y-100799749D01*
X240538585Y-100741630D01*
X240421400Y-100660257D01*
X240310276Y-100555356D01*
X240218139Y-100440288D01*
X240173527Y-100364282D01*
X240146568Y-100307481D01*
X240123645Y-100253395D01*
X240104433Y-100198159D01*
X240088607Y-100137904D01*
X240075840Y-100068764D01*
X240065808Y-99986873D01*
X240058184Y-99888363D01*
X240052644Y-99769367D01*
X240048863Y-99626018D01*
X240046514Y-99454450D01*
X240045272Y-99250795D01*
X240044812Y-99011187D01*
X240044779Y-98834416D01*
X240044890Y-98589013D01*
X240045224Y-98381872D01*
X240045926Y-98208924D01*
X240047138Y-98066096D01*
X240049006Y-97949319D01*
X240051671Y-97854523D01*
X240055279Y-97777635D01*
X240059972Y-97714586D01*
X240065894Y-97661304D01*
X240073189Y-97613720D01*
X240082001Y-97567763D01*
X240090951Y-97526215D01*
X240144380Y-97327472D01*
X240209852Y-97165427D01*
X240290468Y-97035402D01*
X240389326Y-96932716D01*
X240509526Y-96852690D01*
X240550708Y-96832169D01*
X240629070Y-96797615D01*
X240707223Y-96768076D01*
X240789102Y-96743173D01*
X240878647Y-96722524D01*
X240979793Y-96705750D01*
X241096479Y-96692469D01*
X241232642Y-96682302D01*
X241392219Y-96674868D01*
X241579147Y-96669786D01*
X241797363Y-96666676D01*
X242050805Y-96665157D01*
X242282404Y-96664833D01*
X243272500Y-96664833D01*
X244733908Y-96664833D01*
X244842480Y-96334215D01*
X245057583Y-95781125D01*
X245131246Y-95606500D01*
X231533623Y-95606500D01*
X230776654Y-95606517D01*
G37*
X230776654Y-95606517D02*
X230030210Y-95606570D01*
X229295410Y-95606656D01*
X228573371Y-95606775D01*
X227865212Y-95606927D01*
X227172051Y-95607109D01*
X226495005Y-95607322D01*
X225835194Y-95607563D01*
X225193734Y-95607833D01*
X224571744Y-95608130D01*
X223970342Y-95608453D01*
X223390646Y-95608802D01*
X222833775Y-95609175D01*
X222300846Y-95609572D01*
X221792976Y-95609991D01*
X221311286Y-95610432D01*
X220856891Y-95610893D01*
X220430912Y-95611374D01*
X220034464Y-95611874D01*
X219668667Y-95612392D01*
X219334639Y-95612926D01*
X219033498Y-95613477D01*
X218766361Y-95614042D01*
X218534347Y-95614622D01*
X218338574Y-95615214D01*
X218180160Y-95615819D01*
X218060224Y-95616435D01*
X217979882Y-95617061D01*
X217940253Y-95617697D01*
X217936000Y-95617985D01*
X217943408Y-95640473D01*
X217963951Y-95695705D01*
X217995111Y-95777093D01*
X218034371Y-95878048D01*
X218071518Y-95972527D01*
X218316621Y-96647681D01*
X218522761Y-97334176D01*
X218690376Y-98034017D01*
X218819906Y-98749206D01*
X218911790Y-99481749D01*
X218953483Y-99998583D01*
X218962073Y-100181377D01*
X218967237Y-100395052D01*
X218969126Y-100630395D01*
X218967891Y-100878193D01*
X218963683Y-101129235D01*
X218956654Y-101374309D01*
X218946954Y-101604203D01*
X218934736Y-101809704D01*
X218921071Y-101972588D01*
X218828342Y-102708938D01*
X218700774Y-103422818D01*
X218537811Y-104116591D01*
X218338899Y-104792622D01*
X218103481Y-105453276D01*
X218102360Y-105456162D01*
X218055390Y-105577474D01*
X218013327Y-105686945D01*
X217978746Y-105777804D01*
X217954222Y-105843281D01*
X217942332Y-105876606D01*
X217942020Y-105877625D01*
X217942581Y-105880101D01*
X217946400Y-105882466D01*
X217954438Y-105884720D01*
X217967654Y-105886867D01*
X217987007Y-105888908D01*
X218013456Y-105890848D01*
X218047961Y-105892688D01*
X218091481Y-105894431D01*
X218144976Y-105896080D01*
X218209404Y-105897637D01*
X218285725Y-105899105D01*
X218374898Y-105900487D01*
X218477883Y-105901784D01*
X218595639Y-105903000D01*
X218729125Y-105904138D01*
X218879300Y-105905199D01*
X219047124Y-105906187D01*
X219233556Y-105907105D01*
X219439556Y-105907954D01*
X219666082Y-105908737D01*
X219914094Y-105909457D01*
X220184552Y-105910117D01*
X220478414Y-105910720D01*
X220796640Y-105911267D01*
X221140189Y-105911761D01*
X221510020Y-105912206D01*
X221907094Y-105912603D01*
X222332368Y-105912956D01*
X222786803Y-105913267D01*
X223271358Y-105913538D01*
X223786992Y-105913772D01*
X224334664Y-105913972D01*
X224915333Y-105914141D01*
X225529960Y-105914280D01*
X226179503Y-105914393D01*
X226864921Y-105914483D01*
X227587174Y-105914551D01*
X228347221Y-105914601D01*
X229146022Y-105914634D01*
X229984536Y-105914655D01*
X230863721Y-105914664D01*
X231533399Y-105914666D01*
X245135735Y-105914666D01*
X245101993Y-105835291D01*
X244845822Y-105180195D01*
X244624953Y-104504607D01*
X244440206Y-103812591D01*
X244292403Y-103108213D01*
X244182361Y-102395538D01*
X244110903Y-101678631D01*
X244078847Y-100961558D01*
X244077039Y-100754473D01*
X244093605Y-100119700D01*
X244143177Y-99475491D01*
X244224508Y-98828168D01*
X244336350Y-98184056D01*
X244477458Y-97549477D01*
X244646583Y-96930756D01*
X244733908Y-96664833D01*
X243272500Y-96664833D01*
X243272500Y-104835166D01*
X241854334Y-104835166D01*
X241854334Y-101443568D01*
X241716193Y-101452364D01*
X241605512Y-101470366D01*
X241527387Y-101510810D01*
X241476141Y-101577961D01*
X241451195Y-101651541D01*
X241448052Y-101685921D01*
X241445055Y-101759084D01*
X241442248Y-101867479D01*
X241439673Y-102007555D01*
X241437374Y-102175762D01*
X241435392Y-102368549D01*
X241433771Y-102582366D01*
X241432553Y-102813661D01*
X241431782Y-103058885D01*
X241431505Y-103284708D01*
X241431000Y-104835166D01*
X240032274Y-104835166D01*
X240039072Y-103210625D01*
X240040352Y-102901830D01*
X240041476Y-102652845D01*
X239416369Y-102652845D01*
X239416311Y-102987497D01*
X239416148Y-103300611D01*
X239415884Y-103590123D01*
X239415519Y-103853966D01*
X239415058Y-104090074D01*
X239414502Y-104296382D01*
X239413854Y-104470824D01*
X239413115Y-104611335D01*
X239412289Y-104715847D01*
X239411378Y-104782297D01*
X239410384Y-104808617D01*
X239410314Y-104808895D01*
X239399829Y-104814961D01*
X239371486Y-104819991D01*
X239322429Y-104824041D01*
X239249801Y-104827162D01*
X239150746Y-104829411D01*
X239022407Y-104830838D01*
X238861926Y-104831500D01*
X238666449Y-104831448D01*
X238433116Y-104830737D01*
X238283051Y-104830062D01*
X237165917Y-104824583D01*
X237165917Y-103745083D01*
X237583959Y-103739344D01*
X238002000Y-103733605D01*
X238002000Y-100899061D01*
X237583959Y-100893322D01*
X237165917Y-100887583D01*
X237165917Y-99808083D01*
X237583959Y-99802344D01*
X238002000Y-99796605D01*
X238002000Y-97745228D01*
X237583959Y-97739489D01*
X237165917Y-97733750D01*
X237165917Y-96680708D01*
X236673961Y-96680708D01*
X236672217Y-96702300D01*
X236666197Y-96763507D01*
X236656168Y-96861854D01*
X236642394Y-96994866D01*
X236625139Y-97160070D01*
X236604669Y-97354990D01*
X236581249Y-97577152D01*
X236555143Y-97824081D01*
X236526617Y-98093303D01*
X236495934Y-98382343D01*
X236463361Y-98688726D01*
X236429161Y-99009979D01*
X236393600Y-99343626D01*
X236356943Y-99687193D01*
X236319455Y-100038206D01*
X236281400Y-100394189D01*
X236243043Y-100752669D01*
X236204649Y-101111170D01*
X236166483Y-101467219D01*
X236128811Y-101818340D01*
X236091896Y-102162059D01*
X236056003Y-102495902D01*
X236021398Y-102817394D01*
X235988346Y-103124059D01*
X235957111Y-103413425D01*
X235927958Y-103683016D01*
X235901152Y-103930358D01*
X235876958Y-104152976D01*
X235855641Y-104348395D01*
X235837465Y-104514141D01*
X235822696Y-104647740D01*
X235811599Y-104746717D01*
X235804438Y-104808597D01*
X235801653Y-104830126D01*
X235781025Y-104831222D01*
X235722656Y-104831963D01*
X235631132Y-104832350D01*
X235511045Y-104832383D01*
X235366984Y-104832062D01*
X235203537Y-104831386D01*
X235025294Y-104830355D01*
X234991084Y-104830126D01*
X234181500Y-104824583D01*
X233754728Y-100845250D01*
X233711043Y-100437738D01*
X233668522Y-100040732D01*
X233627391Y-99656346D01*
X233587874Y-99286696D01*
X233550196Y-98933896D01*
X233514582Y-98600062D01*
X233481257Y-98287309D01*
X233450446Y-97997750D01*
X233422373Y-97733502D01*
X233397264Y-97496679D01*
X233375343Y-97289397D01*
X233356836Y-97113769D01*
X233341967Y-96971912D01*
X233330960Y-96865939D01*
X233324042Y-96797967D01*
X233321471Y-96770666D01*
X233314986Y-96675416D01*
X233974401Y-96669825D01*
X234563064Y-96664833D01*
X232816167Y-96664833D01*
X232816167Y-104835166D01*
X231398000Y-104835166D01*
X231398000Y-96664833D01*
X232816167Y-96664833D01*
X234563064Y-96664833D01*
X234630515Y-96664261D01*
X230785330Y-96664261D01*
X230778681Y-100278755D01*
X230777832Y-100737081D01*
X230777032Y-101155045D01*
X230776254Y-101534619D01*
X230775470Y-101877775D01*
X230774655Y-102186483D01*
X230773781Y-102462715D01*
X230772822Y-102708443D01*
X230771752Y-102925638D01*
X230770544Y-103116271D01*
X230769171Y-103282315D01*
X230767606Y-103425741D01*
X230765823Y-103548519D01*
X230763796Y-103652623D01*
X230761497Y-103740022D01*
X230758900Y-103812689D01*
X230755978Y-103872596D01*
X230752705Y-103921712D01*
X230749054Y-103962011D01*
X230744999Y-103995464D01*
X230740512Y-104024042D01*
X230735568Y-104049716D01*
X230730139Y-104074458D01*
X230727225Y-104087135D01*
X230674663Y-104279133D01*
X230611653Y-104434195D01*
X230533127Y-104557372D01*
X230434017Y-104653717D01*
X230309255Y-104728283D01*
X230153773Y-104786123D01*
X229984249Y-104827875D01*
X229883909Y-104846021D01*
X229765579Y-104863633D01*
X229653493Y-104877132D01*
X229644864Y-104877992D01*
X229529965Y-104885554D01*
X229386382Y-104889440D01*
X229223876Y-104889907D01*
X229052204Y-104887214D01*
X228881126Y-104881620D01*
X228720400Y-104873383D01*
X228579784Y-104862762D01*
X228469037Y-104850017D01*
X228445250Y-104846197D01*
X228244727Y-104804901D01*
X228080869Y-104754891D01*
X227948786Y-104691351D01*
X227843586Y-104609469D01*
X227760376Y-104504429D01*
X227694266Y-104371416D01*
X227640364Y-104205618D01*
X227595266Y-104009666D01*
X227590629Y-103984071D01*
X227586390Y-103954227D01*
X227582525Y-103918176D01*
X227579011Y-103873959D01*
X227575827Y-103819618D01*
X227572949Y-103753195D01*
X227570354Y-103672732D01*
X227568021Y-103576270D01*
X227565925Y-103461851D01*
X227564045Y-103327516D01*
X227562358Y-103171307D01*
X227560840Y-102991267D01*
X227559471Y-102785435D01*
X227558225Y-102551855D01*
X227557082Y-102288568D01*
X227556018Y-101993615D01*
X227555011Y-101665038D01*
X227554038Y-101300879D01*
X227553075Y-100899180D01*
X227552102Y-100457982D01*
X227551656Y-100247291D01*
X227544164Y-96664833D01*
X226931834Y-96664833D01*
X226931834Y-104835166D01*
X225701832Y-104835166D01*
X225716947Y-102750250D01*
X225719461Y-102386576D01*
X225721421Y-102063437D01*
X225722820Y-101779034D01*
X225723650Y-101531573D01*
X225723902Y-101319255D01*
X225723568Y-101140286D01*
X225722640Y-100992868D01*
X225721110Y-100875206D01*
X225718971Y-100785503D01*
X225716213Y-100721962D01*
X225712828Y-100682788D01*
X225708810Y-100666183D01*
X225707531Y-100665333D01*
X225684275Y-100670552D01*
X225683000Y-100672979D01*
X225679248Y-100694416D01*
X225668335Y-100754675D01*
X225650776Y-100850946D01*
X225627088Y-100980418D01*
X225597786Y-101140283D01*
X225563387Y-101327729D01*
X225524405Y-101539949D01*
X225481357Y-101774130D01*
X225434759Y-102027464D01*
X225385127Y-102297142D01*
X225332975Y-102580351D01*
X225302000Y-102748490D01*
X225248628Y-103038262D01*
X225197477Y-103316149D01*
X225149065Y-103579340D01*
X225103907Y-103825020D01*
X225062518Y-104050376D01*
X225025416Y-104252597D01*
X224993116Y-104428868D01*
X224966133Y-104576377D01*
X224944985Y-104692311D01*
X224930186Y-104773857D01*
X224922253Y-104818202D01*
X224921000Y-104825761D01*
X224900704Y-104828136D01*
X224843291Y-104830291D01*
X224753980Y-104832147D01*
X224637988Y-104833625D01*
X224500533Y-104834648D01*
X224346832Y-104835136D01*
X224296584Y-104835166D01*
X223672167Y-104835166D01*
X223672167Y-102122120D01*
X223055282Y-102122120D01*
X223055144Y-102407435D01*
X223054552Y-102661329D01*
X223053465Y-102885983D01*
X223051839Y-103083580D01*
X223049632Y-103256303D01*
X223046799Y-103406332D01*
X223043299Y-103535852D01*
X223039089Y-103647043D01*
X223034125Y-103742088D01*
X223028365Y-103823169D01*
X223021766Y-103892469D01*
X223014284Y-103952170D01*
X223005878Y-104004454D01*
X222996504Y-104051503D01*
X222986119Y-104095499D01*
X222983712Y-104104916D01*
X222939946Y-104242114D01*
X222882544Y-104375643D01*
X222818009Y-104491868D01*
X222764535Y-104564463D01*
X222642660Y-104673538D01*
X222487321Y-104763793D01*
X222304176Y-104832579D01*
X222098885Y-104877247D01*
X222095250Y-104877780D01*
X221987974Y-104887352D01*
X221854341Y-104890328D01*
X221707634Y-104887272D01*
X221561135Y-104878748D01*
X221428128Y-104865321D01*
X221321894Y-104847555D01*
X221308319Y-104844360D01*
X221126894Y-104785331D01*
X220966900Y-104701118D01*
X220816171Y-104584785D01*
X220759396Y-104531307D01*
X220605933Y-104380083D01*
X220493837Y-104608176D01*
X220381742Y-104836270D01*
X220084913Y-104830426D01*
X219788084Y-104824583D01*
X219788084Y-100591250D01*
X220597709Y-100585706D01*
X221407334Y-100580163D01*
X221407334Y-101681333D01*
X221195667Y-101681333D01*
X221196589Y-102596791D01*
X221197201Y-102793379D01*
X221198573Y-102979887D01*
X221200612Y-103151395D01*
X221203224Y-103302981D01*
X221206315Y-103429722D01*
X221209793Y-103526695D01*
X221213563Y-103588981D01*
X221215741Y-103606731D01*
X221246662Y-103695929D01*
X221300800Y-103750820D01*
X221382469Y-103774972D01*
X221421224Y-103776833D01*
X221514848Y-103759099D01*
X221583705Y-103707829D01*
X221624302Y-103625918D01*
X221629005Y-103604573D01*
X221630508Y-103575100D01*
X221631871Y-103505817D01*
X221633090Y-103399244D01*
X221634157Y-103257906D01*
X221635068Y-103084323D01*
X221635816Y-102881017D01*
X221636396Y-102650512D01*
X221636802Y-102395329D01*
X221637028Y-102117990D01*
X221637068Y-101821018D01*
X221636917Y-101506935D01*
X221636569Y-101178263D01*
X221636018Y-100837524D01*
X221635699Y-100679373D01*
X221629584Y-97825329D01*
X221570195Y-97774248D01*
X221503791Y-97734956D01*
X221420098Y-97723167D01*
X221419082Y-97723166D01*
X221326806Y-97737020D01*
X221263179Y-97780771D01*
X221224279Y-97857700D01*
X221215741Y-97893268D01*
X221211431Y-97936418D01*
X221207432Y-98016290D01*
X221203871Y-98127273D01*
X221200876Y-98263755D01*
X221198575Y-98420126D01*
X221197096Y-98590773D01*
X221196589Y-98734160D01*
X221195667Y-99480570D01*
X220491875Y-99474993D01*
X219788084Y-99469416D01*
X219789117Y-98654500D01*
X219789969Y-98407707D01*
X219792088Y-98198172D01*
X219795834Y-98020831D01*
X219801567Y-97870617D01*
X219809648Y-97742465D01*
X219820436Y-97631310D01*
X219834292Y-97532086D01*
X219851575Y-97439729D01*
X219872647Y-97349172D01*
X219885394Y-97300470D01*
X219938305Y-97139996D01*
X220004907Y-97009313D01*
X220090205Y-96904228D01*
X220199205Y-96820549D01*
X220336913Y-96754083D01*
X220508335Y-96700638D01*
X220636145Y-96671716D01*
X220703378Y-96659597D01*
X220775008Y-96650219D01*
X220857438Y-96643262D01*
X220957070Y-96638406D01*
X221080308Y-96635334D01*
X221233552Y-96633724D01*
X221407334Y-96633261D01*
X221616220Y-96634036D01*
X221789316Y-96636946D01*
X221933137Y-96642657D01*
X222054202Y-96651838D01*
X222159026Y-96665155D01*
X222254127Y-96683276D01*
X222346021Y-96706867D01*
X222441226Y-96736595D01*
X222451989Y-96740204D01*
X222604402Y-96803064D01*
X222722882Y-96880658D01*
X222814617Y-96980243D01*
X222886795Y-97109080D01*
X222930496Y-97223452D01*
X222945914Y-97269976D01*
X222959858Y-97313635D01*
X222972410Y-97356682D01*
X222983649Y-97401369D01*
X222993657Y-97449950D01*
X223002514Y-97504677D01*
X223010300Y-97567802D01*
X223017097Y-97641579D01*
X223022985Y-97728260D01*
X223028044Y-97830097D01*
X223032356Y-97949344D01*
X223036000Y-98088253D01*
X223039058Y-98249077D01*
X223041609Y-98434068D01*
X223043736Y-98645480D01*
X223045517Y-98885565D01*
X223047035Y-99156575D01*
X223048369Y-99460764D01*
X223049600Y-99800383D01*
X223050809Y-100177687D01*
X223052076Y-100594927D01*
X223052161Y-100623000D01*
X223053406Y-101055823D01*
X223054370Y-101448496D01*
X223055010Y-101803201D01*
X223055282Y-102122120D01*
X223672167Y-102122120D01*
X223672167Y-96664184D01*
X224884897Y-96675416D01*
X224881356Y-98495750D01*
X224880664Y-98775128D01*
X224879705Y-99046245D01*
X224878509Y-99305565D01*
X224877104Y-99549553D01*
X224875521Y-99774674D01*
X224873787Y-99977393D01*
X224871933Y-100154176D01*
X224869988Y-100301486D01*
X224867980Y-100415790D01*
X224865939Y-100493552D01*
X224864632Y-100522458D01*
X224859423Y-100619255D01*
X224859096Y-100681029D01*
X224864240Y-100714872D01*
X224875444Y-100727877D01*
X224881783Y-100728833D01*
X224888699Y-100719942D01*
X224898583Y-100691981D01*
X224911826Y-100643014D01*
X224928820Y-100571104D01*
X224949953Y-100474318D01*
X224975616Y-100350720D01*
X225006200Y-100198374D01*
X225042095Y-100015345D01*
X225083691Y-99799698D01*
X225131379Y-99549497D01*
X225185550Y-99262808D01*
X225246592Y-98937694D01*
X225291638Y-98696833D01*
X225671157Y-96664833D01*
X226931834Y-96664833D01*
X227544164Y-96664833D01*
X228963834Y-96664833D01*
X228965029Y-100130875D01*
X228965268Y-100607479D01*
X228965649Y-101043215D01*
X228966184Y-101439545D01*
X228966882Y-101797935D01*
X228967756Y-102119849D01*
X228968816Y-102406750D01*
X228970074Y-102660102D01*
X228971539Y-102881371D01*
X228973223Y-103072019D01*
X228975137Y-103233511D01*
X228977292Y-103367312D01*
X228979698Y-103474885D01*
X228982368Y-103557694D01*
X228985310Y-103617204D01*
X228988538Y-103654879D01*
X228991487Y-103670751D01*
X229034436Y-103738683D01*
X229100527Y-103780300D01*
X229178111Y-103793405D01*
X229255536Y-103775800D01*
X229315470Y-103731866D01*
X229320615Y-103725176D01*
X229325309Y-103715715D01*
X229329580Y-103701562D01*
X229333454Y-103680796D01*
X229336959Y-103651495D01*
X229340123Y-103611738D01*
X229342972Y-103559605D01*
X229345534Y-103493174D01*
X229347837Y-103410524D01*
X229349907Y-103309734D01*
X229351773Y-103188883D01*
X229353461Y-103046049D01*
X229354999Y-102879313D01*
X229356414Y-102686752D01*
X229357733Y-102466445D01*
X229358984Y-102216472D01*
X229360194Y-101934911D01*
X229361391Y-101619841D01*
X229362602Y-101269341D01*
X229363853Y-100881490D01*
X229365174Y-100454367D01*
X229366000Y-100181571D01*
X229376584Y-96675416D01*
X230080957Y-96669838D01*
X230785330Y-96664261D01*
X234630515Y-96664261D01*
X234633817Y-96664233D01*
X234645390Y-96754491D01*
X234648099Y-96786633D01*
X234653178Y-96858399D01*
X234660463Y-96967158D01*
X234669788Y-97110275D01*
X234680988Y-97285120D01*
X234693897Y-97489059D01*
X234708352Y-97719459D01*
X234724186Y-97973689D01*
X234741234Y-98249115D01*
X234759332Y-98543105D01*
X234778314Y-98853026D01*
X234798015Y-99176245D01*
X234818269Y-99510131D01*
X234818367Y-99511750D01*
X234838531Y-99843929D01*
X234858096Y-100164322D01*
X234876903Y-100470399D01*
X234894792Y-100759632D01*
X234911602Y-101029492D01*
X234927173Y-101277450D01*
X234941344Y-101500976D01*
X234953955Y-101697543D01*
X234964846Y-101864620D01*
X234973856Y-101999680D01*
X234980825Y-102100193D01*
X234985592Y-102163630D01*
X234987998Y-102187463D01*
X234988052Y-102187569D01*
X235005545Y-102187177D01*
X235007829Y-102165283D01*
X235012211Y-102103694D01*
X235018542Y-102004986D01*
X235026675Y-101871739D01*
X235036463Y-101706529D01*
X235047758Y-101511936D01*
X235060413Y-101290536D01*
X235074279Y-101044908D01*
X235089210Y-100777629D01*
X235105058Y-100491278D01*
X235121675Y-100188433D01*
X235138914Y-99871671D01*
X235153235Y-99606608D01*
X235171037Y-99276557D01*
X235188392Y-98955776D01*
X235205145Y-98647082D01*
X235221140Y-98353295D01*
X235236224Y-98077231D01*
X235250239Y-97821708D01*
X235263032Y-97589544D01*
X235274447Y-97383556D01*
X235284329Y-97206563D01*
X235292523Y-97061382D01*
X235298873Y-96950830D01*
X235303225Y-96877726D01*
X235305021Y-96850041D01*
X235318328Y-96664833D01*
X235992165Y-96664833D01*
X236156669Y-96665313D01*
X236307141Y-96666674D01*
X236438478Y-96668798D01*
X236545580Y-96671565D01*
X236623343Y-96674857D01*
X236666667Y-96678555D01*
X236673961Y-96680708D01*
X237165917Y-96680708D01*
X237165917Y-96675416D01*
X239409584Y-96675416D01*
X239415014Y-100728833D01*
X239415512Y-101140183D01*
X239415895Y-101540326D01*
X239416164Y-101927194D01*
X239416321Y-102298722D01*
X239416369Y-102652845D01*
X240041476Y-102652845D01*
X240041570Y-102632253D01*
X240042930Y-102398778D01*
X240044637Y-102198288D01*
X240046896Y-102027669D01*
X240049912Y-101883805D01*
X240053889Y-101763580D01*
X240059031Y-101663879D01*
X240065544Y-101581587D01*
X240073632Y-101513587D01*
X240083499Y-101456765D01*
X240095351Y-101408005D01*
X240109391Y-101364191D01*
X240125825Y-101322209D01*
X240144857Y-101278941D01*
X240166691Y-101231274D01*
X240169473Y-101225190D01*
X240231921Y-101122670D01*
X240322025Y-101018420D01*
X240427534Y-100924821D01*
X240536191Y-100854258D01*
X240536969Y-100853856D01*
X240641977Y-100799749D01*
X240538585Y-100741630D01*
X240421400Y-100660257D01*
X240310276Y-100555356D01*
X240218139Y-100440288D01*
X240173527Y-100364282D01*
X240146568Y-100307481D01*
X240123645Y-100253395D01*
X240104433Y-100198159D01*
X240088607Y-100137904D01*
X240075840Y-100068764D01*
X240065808Y-99986873D01*
X240058184Y-99888363D01*
X240052644Y-99769367D01*
X240048863Y-99626018D01*
X240046514Y-99454450D01*
X240045272Y-99250795D01*
X240044812Y-99011187D01*
X240044779Y-98834416D01*
X240044890Y-98589013D01*
X240045224Y-98381872D01*
X240045926Y-98208924D01*
X240047138Y-98066096D01*
X240049006Y-97949319D01*
X240051671Y-97854523D01*
X240055279Y-97777635D01*
X240059972Y-97714586D01*
X240065894Y-97661304D01*
X240073189Y-97613720D01*
X240082001Y-97567763D01*
X240090951Y-97526215D01*
X240144380Y-97327472D01*
X240209852Y-97165427D01*
X240290468Y-97035402D01*
X240389326Y-96932716D01*
X240509526Y-96852690D01*
X240550708Y-96832169D01*
X240629070Y-96797615D01*
X240707223Y-96768076D01*
X240789102Y-96743173D01*
X240878647Y-96722524D01*
X240979793Y-96705750D01*
X241096479Y-96692469D01*
X241232642Y-96682302D01*
X241392219Y-96674868D01*
X241579147Y-96669786D01*
X241797363Y-96666676D01*
X242050805Y-96665157D01*
X242282404Y-96664833D01*
X243272500Y-96664833D01*
X244733908Y-96664833D01*
X244842480Y-96334215D01*
X245057583Y-95781125D01*
X245131246Y-95606500D01*
X231533623Y-95606500D01*
X230776654Y-95606517D01*
G36*
X155346167Y-107290500D02*
G01*
X250575000Y-107290500D01*
X250575000Y-106803666D01*
X155346167Y-106803666D01*
X155346167Y-107290500D01*
G37*
X155346167Y-107290500D02*
X250575000Y-107290500D01*
X250575000Y-106803666D01*
X155346167Y-106803666D01*
X155346167Y-107290500D01*
G36*
X52275000Y-94696334D02*
G01*
X147525000Y-94696334D01*
X147525000Y-94209500D01*
X52275000Y-94209500D01*
X52275000Y-94696334D01*
G37*
X52275000Y-94696334D02*
X147525000Y-94696334D01*
X147525000Y-94209500D01*
X52275000Y-94209500D01*
X52275000Y-94696334D01*
G36*
X53375667Y-103755667D02*
G01*
X53649381Y-103755667D01*
X53622805Y-105787667D01*
X54158834Y-105787667D01*
X54158834Y-103755667D01*
X54412834Y-103755667D01*
X54412834Y-103353500D01*
X53375667Y-103353500D01*
X53375667Y-103755667D01*
G37*
X53375667Y-103755667D02*
X53649381Y-103755667D01*
X53622805Y-105787667D01*
X54158834Y-105787667D01*
X54158834Y-103755667D01*
X54412834Y-103755667D01*
X54412834Y-103353500D01*
X53375667Y-103353500D01*
X53375667Y-103755667D01*
G36*
X54582167Y-105787667D02*
G01*
X55090167Y-105787667D01*
X55090167Y-103353500D01*
X54582167Y-103353500D01*
X54582167Y-105787667D01*
G37*
X54582167Y-105787667D02*
X55090167Y-105787667D01*
X55090167Y-103353500D01*
X54582167Y-103353500D01*
X54582167Y-105787667D01*
G36*
X55555834Y-105406667D02*
G01*
X55238334Y-105406667D01*
X55238334Y-105808834D01*
X56063834Y-105808834D01*
X56063834Y-103374667D01*
X55555834Y-103374667D01*
X55555834Y-105406667D01*
G37*
X55555834Y-105406667D02*
X55238334Y-105406667D01*
X55238334Y-105808834D01*
X56063834Y-105808834D01*
X56063834Y-103374667D01*
X55555834Y-103374667D01*
X55555834Y-105406667D01*
G36*
X56979292Y-103378169D02*
G01*
X56803649Y-103381788D01*
X56665006Y-103387551D01*
X56558037Y-103396856D01*
X56477417Y-103411101D01*
X56417818Y-103431685D01*
X56373915Y-103460004D01*
X56340382Y-103497458D01*
X56311892Y-103545445D01*
X56307250Y-103554584D01*
X56294070Y-103583814D01*
X56283934Y-103615987D01*
X56276447Y-103656833D01*
X56271214Y-103712078D01*
X56267840Y-103787451D01*
X56265929Y-103888678D01*
X56265087Y-104021488D01*
X56264917Y-104168417D01*
X56265729Y-104371549D01*
X56269675Y-104536504D01*
X56279017Y-104667432D01*
X56296017Y-104768479D01*
X56322940Y-104843793D01*
X56362047Y-104897523D01*
X56415603Y-104933818D01*
X56485869Y-104956823D01*
X56575109Y-104970689D01*
X56685585Y-104979562D01*
X56708198Y-104980967D01*
X56921084Y-104993917D01*
X56926833Y-105401375D01*
X56932581Y-105808834D01*
X57439667Y-105808834D01*
X57439667Y-104179000D01*
X56931667Y-104179000D01*
X56931473Y-104322901D01*
X56930544Y-104429912D01*
X56928358Y-104505477D01*
X56924392Y-104555039D01*
X56918124Y-104584040D01*
X56909033Y-104597925D01*
X56896596Y-104602137D01*
X56891065Y-104602334D01*
X56837914Y-104595617D01*
X56816982Y-104589486D01*
X56804983Y-104579894D01*
X56796183Y-104557904D01*
X56790109Y-104517860D01*
X56786291Y-104454106D01*
X56784256Y-104360986D01*
X56783532Y-104232844D01*
X56783500Y-104188064D01*
X56783774Y-104050396D01*
X56784994Y-103949047D01*
X56787761Y-103878003D01*
X56792675Y-103831251D01*
X56800334Y-103802776D01*
X56811340Y-103786566D01*
X56824442Y-103777578D01*
X56859574Y-103759848D01*
X56886049Y-103752387D01*
X56905090Y-103759780D01*
X56917924Y-103786611D01*
X56925774Y-103837466D01*
X56929865Y-103916927D01*
X56931421Y-104029580D01*
X56931667Y-104179000D01*
X57439667Y-104179000D01*
X57439667Y-103371088D01*
X56979292Y-103378169D01*
G37*
X56979292Y-103378169D02*
X56803649Y-103381788D01*
X56665006Y-103387551D01*
X56558037Y-103396856D01*
X56477417Y-103411101D01*
X56417818Y-103431685D01*
X56373915Y-103460004D01*
X56340382Y-103497458D01*
X56311892Y-103545445D01*
X56307250Y-103554584D01*
X56294070Y-103583814D01*
X56283934Y-103615987D01*
X56276447Y-103656833D01*
X56271214Y-103712078D01*
X56267840Y-103787451D01*
X56265929Y-103888678D01*
X56265087Y-104021488D01*
X56264917Y-104168417D01*
X56265729Y-104371549D01*
X56269675Y-104536504D01*
X56279017Y-104667432D01*
X56296017Y-104768479D01*
X56322940Y-104843793D01*
X56362047Y-104897523D01*
X56415603Y-104933818D01*
X56485869Y-104956823D01*
X56575109Y-104970689D01*
X56685585Y-104979562D01*
X56708198Y-104980967D01*
X56921084Y-104993917D01*
X56926833Y-105401375D01*
X56932581Y-105808834D01*
X57439667Y-105808834D01*
X57439667Y-104179000D01*
X56931667Y-104179000D01*
X56931473Y-104322901D01*
X56930544Y-104429912D01*
X56928358Y-104505477D01*
X56924392Y-104555039D01*
X56918124Y-104584040D01*
X56909033Y-104597925D01*
X56896596Y-104602137D01*
X56891065Y-104602334D01*
X56837914Y-104595617D01*
X56816982Y-104589486D01*
X56804983Y-104579894D01*
X56796183Y-104557904D01*
X56790109Y-104517860D01*
X56786291Y-104454106D01*
X56784256Y-104360986D01*
X56783532Y-104232844D01*
X56783500Y-104188064D01*
X56783774Y-104050396D01*
X56784994Y-103949047D01*
X56787761Y-103878003D01*
X56792675Y-103831251D01*
X56800334Y-103802776D01*
X56811340Y-103786566D01*
X56824442Y-103777578D01*
X56859574Y-103759848D01*
X56886049Y-103752387D01*
X56905090Y-103759780D01*
X56917924Y-103786611D01*
X56925774Y-103837466D01*
X56929865Y-103916927D01*
X56931421Y-104029580D01*
X56931667Y-104179000D01*
X57439667Y-104179000D01*
X57439667Y-103371088D01*
X56979292Y-103378169D01*
G36*
X59768000Y-104750500D02*
G01*
X59619834Y-104750500D01*
X59619834Y-105152667D01*
X59768000Y-105152667D01*
X59768000Y-105808834D01*
X60276000Y-105808834D01*
X60276000Y-105152667D01*
X60889834Y-105152667D01*
X60890168Y-104956875D01*
X60889525Y-104900613D01*
X60886654Y-104846764D01*
X60880445Y-104789991D01*
X60869789Y-104724959D01*
X60869598Y-104724028D01*
X60424167Y-104724028D01*
X60404407Y-104742744D01*
X60348633Y-104750402D01*
X60339500Y-104750500D01*
X60254834Y-104750500D01*
X60254834Y-104365972D01*
X60255365Y-104244539D01*
X60256842Y-104139994D01*
X60259088Y-104058749D01*
X60261929Y-104007221D01*
X60265076Y-103991687D01*
X60272509Y-104014557D01*
X60286602Y-104070657D01*
X60305563Y-104151735D01*
X60327600Y-104249541D01*
X60350920Y-104355824D01*
X60373730Y-104462332D01*
X60394240Y-104560814D01*
X60410655Y-104643020D01*
X60421183Y-104700698D01*
X60424167Y-104724028D01*
X60869598Y-104724028D01*
X60853576Y-104646333D01*
X60830696Y-104548777D01*
X60800039Y-104426956D01*
X60760496Y-104275533D01*
X60710957Y-104089173D01*
X60705268Y-104067875D01*
X60520034Y-103374667D01*
X59768000Y-103374667D01*
X59768000Y-104750500D01*
G37*
X59768000Y-104750500D02*
X59619834Y-104750500D01*
X59619834Y-105152667D01*
X59768000Y-105152667D01*
X59768000Y-105808834D01*
X60276000Y-105808834D01*
X60276000Y-105152667D01*
X60889834Y-105152667D01*
X60890168Y-104956875D01*
X60889525Y-104900613D01*
X60886654Y-104846764D01*
X60880445Y-104789991D01*
X60869789Y-104724959D01*
X60869598Y-104724028D01*
X60424167Y-104724028D01*
X60404407Y-104742744D01*
X60348633Y-104750402D01*
X60339500Y-104750500D01*
X60254834Y-104750500D01*
X60254834Y-104365972D01*
X60255365Y-104244539D01*
X60256842Y-104139994D01*
X60259088Y-104058749D01*
X60261929Y-104007221D01*
X60265076Y-103991687D01*
X60272509Y-104014557D01*
X60286602Y-104070657D01*
X60305563Y-104151735D01*
X60327600Y-104249541D01*
X60350920Y-104355824D01*
X60373730Y-104462332D01*
X60394240Y-104560814D01*
X60410655Y-104643020D01*
X60421183Y-104700698D01*
X60424167Y-104724028D01*
X60869598Y-104724028D01*
X60853576Y-104646333D01*
X60830696Y-104548777D01*
X60800039Y-104426956D01*
X60760496Y-104275533D01*
X60710957Y-104089173D01*
X60705268Y-104067875D01*
X60520034Y-103374667D01*
X59768000Y-103374667D01*
X59768000Y-104750500D01*
G36*
X58047244Y-103367189D02*
G01*
X57928721Y-103374109D01*
X57839783Y-103387555D01*
X57774113Y-103409204D01*
X57725397Y-103440737D01*
X57687320Y-103483833D01*
X57673043Y-103505685D01*
X57656385Y-103537247D01*
X57644664Y-103573437D01*
X57637035Y-103622015D01*
X57632653Y-103690738D01*
X57630673Y-103787363D01*
X57630246Y-103898542D01*
X57630167Y-104221334D01*
X58117000Y-104221334D01*
X58119110Y-104046709D01*
X58122729Y-103929236D01*
X58131373Y-103847832D01*
X58146710Y-103796365D01*
X58170407Y-103768704D01*
X58197209Y-103759491D01*
X58239631Y-103770505D01*
X58268201Y-103818681D01*
X58283397Y-103905237D01*
X58286334Y-103986720D01*
X58284282Y-104074721D01*
X58274392Y-104141425D01*
X58251062Y-104194300D01*
X58208693Y-104240813D01*
X58141682Y-104288435D01*
X58044430Y-104344632D01*
X57999518Y-104369172D01*
X57870701Y-104442490D01*
X57775913Y-104505489D01*
X57709720Y-104563169D01*
X57666689Y-104620532D01*
X57641385Y-104682579D01*
X57636301Y-104703498D01*
X57631053Y-104749185D01*
X57626479Y-104829048D01*
X57622859Y-104934935D01*
X57620468Y-105058690D01*
X57619584Y-105192159D01*
X57619584Y-105195000D01*
X57620503Y-105357142D01*
X57624185Y-105482622D01*
X57632018Y-105577087D01*
X57645390Y-105646186D01*
X57665691Y-105695566D01*
X57694307Y-105730878D01*
X57732628Y-105757768D01*
X57761526Y-105772526D01*
X57817368Y-105788585D01*
X57905125Y-105801994D01*
X58014429Y-105812172D01*
X58134912Y-105818535D01*
X58256207Y-105820503D01*
X58367945Y-105817492D01*
X58445084Y-105810910D01*
X58545505Y-105794848D01*
X58623925Y-105771366D01*
X58683175Y-105735465D01*
X58726086Y-105682145D01*
X58755489Y-105606405D01*
X58774215Y-105503247D01*
X58785096Y-105367670D01*
X58790836Y-105200292D01*
X58799136Y-104835167D01*
X58265167Y-104835167D01*
X58265167Y-105107742D01*
X58264268Y-105224694D01*
X58261047Y-105306354D01*
X58254723Y-105359736D01*
X58244512Y-105391855D01*
X58231643Y-105408139D01*
X58190884Y-105424522D01*
X58162851Y-105413759D01*
X58147326Y-105397219D01*
X58136454Y-105365722D01*
X58129165Y-105312069D01*
X58124390Y-105229060D01*
X58121656Y-105136448D01*
X58119900Y-105020588D01*
X58124341Y-104934791D01*
X58140223Y-104870599D01*
X58172793Y-104819550D01*
X58227293Y-104773183D01*
X58308969Y-104723038D01*
X58413334Y-104665910D01*
X58550352Y-104585661D01*
X58651013Y-104511317D01*
X58720032Y-104438519D01*
X58762120Y-104362903D01*
X58771502Y-104334457D01*
X58783699Y-104263017D01*
X58791346Y-104160896D01*
X58794593Y-104039486D01*
X58793596Y-103910176D01*
X58788504Y-103784357D01*
X58779472Y-103673421D01*
X58766652Y-103588757D01*
X58761233Y-103567221D01*
X58737818Y-103499612D01*
X58709901Y-103458132D01*
X58664540Y-103427424D01*
X58628941Y-103410237D01*
X58586071Y-103392524D01*
X58541810Y-103380072D01*
X58487766Y-103371994D01*
X58415544Y-103367404D01*
X58316752Y-103365416D01*
X58201667Y-103365114D01*
X58047244Y-103367189D01*
G37*
X58047244Y-103367189D02*
X57928721Y-103374109D01*
X57839783Y-103387555D01*
X57774113Y-103409204D01*
X57725397Y-103440737D01*
X57687320Y-103483833D01*
X57673043Y-103505685D01*
X57656385Y-103537247D01*
X57644664Y-103573437D01*
X57637035Y-103622015D01*
X57632653Y-103690738D01*
X57630673Y-103787363D01*
X57630246Y-103898542D01*
X57630167Y-104221334D01*
X58117000Y-104221334D01*
X58119110Y-104046709D01*
X58122729Y-103929236D01*
X58131373Y-103847832D01*
X58146710Y-103796365D01*
X58170407Y-103768704D01*
X58197209Y-103759491D01*
X58239631Y-103770505D01*
X58268201Y-103818681D01*
X58283397Y-103905237D01*
X58286334Y-103986720D01*
X58284282Y-104074721D01*
X58274392Y-104141425D01*
X58251062Y-104194300D01*
X58208693Y-104240813D01*
X58141682Y-104288435D01*
X58044430Y-104344632D01*
X57999518Y-104369172D01*
X57870701Y-104442490D01*
X57775913Y-104505489D01*
X57709720Y-104563169D01*
X57666689Y-104620532D01*
X57641385Y-104682579D01*
X57636301Y-104703498D01*
X57631053Y-104749185D01*
X57626479Y-104829048D01*
X57622859Y-104934935D01*
X57620468Y-105058690D01*
X57619584Y-105192159D01*
X57619584Y-105195000D01*
X57620503Y-105357142D01*
X57624185Y-105482622D01*
X57632018Y-105577087D01*
X57645390Y-105646186D01*
X57665691Y-105695566D01*
X57694307Y-105730878D01*
X57732628Y-105757768D01*
X57761526Y-105772526D01*
X57817368Y-105788585D01*
X57905125Y-105801994D01*
X58014429Y-105812172D01*
X58134912Y-105818535D01*
X58256207Y-105820503D01*
X58367945Y-105817492D01*
X58445084Y-105810910D01*
X58545505Y-105794848D01*
X58623925Y-105771366D01*
X58683175Y-105735465D01*
X58726086Y-105682145D01*
X58755489Y-105606405D01*
X58774215Y-105503247D01*
X58785096Y-105367670D01*
X58790836Y-105200292D01*
X58799136Y-104835167D01*
X58265167Y-104835167D01*
X58265167Y-105107742D01*
X58264268Y-105224694D01*
X58261047Y-105306354D01*
X58254723Y-105359736D01*
X58244512Y-105391855D01*
X58231643Y-105408139D01*
X58190884Y-105424522D01*
X58162851Y-105413759D01*
X58147326Y-105397219D01*
X58136454Y-105365722D01*
X58129165Y-105312069D01*
X58124390Y-105229060D01*
X58121656Y-105136448D01*
X58119900Y-105020588D01*
X58124341Y-104934791D01*
X58140223Y-104870599D01*
X58172793Y-104819550D01*
X58227293Y-104773183D01*
X58308969Y-104723038D01*
X58413334Y-104665910D01*
X58550352Y-104585661D01*
X58651013Y-104511317D01*
X58720032Y-104438519D01*
X58762120Y-104362903D01*
X58771502Y-104334457D01*
X58783699Y-104263017D01*
X58791346Y-104160896D01*
X58794593Y-104039486D01*
X58793596Y-103910176D01*
X58788504Y-103784357D01*
X58779472Y-103673421D01*
X58766652Y-103588757D01*
X58761233Y-103567221D01*
X58737818Y-103499612D01*
X58709901Y-103458132D01*
X58664540Y-103427424D01*
X58628941Y-103410237D01*
X58586071Y-103392524D01*
X58541810Y-103380072D01*
X58487766Y-103371994D01*
X58415544Y-103367404D01*
X58316752Y-103365416D01*
X58201667Y-103365114D01*
X58047244Y-103367189D01*
G36*
X61522341Y-103385884D02*
G01*
X61427148Y-103388336D01*
X61358235Y-103393427D01*
X61307580Y-103401980D01*
X61267163Y-103414819D01*
X61239084Y-103427584D01*
X61178057Y-103465979D01*
X61132834Y-103515810D01*
X61100966Y-103583656D01*
X61080004Y-103676098D01*
X61067501Y-103799717D01*
X61062689Y-103901704D01*
X61060207Y-104062664D01*
X61065930Y-104188437D01*
X61081345Y-104285634D01*
X61107939Y-104360864D01*
X61147196Y-104420738D01*
X61188630Y-104461947D01*
X61272916Y-104534094D01*
X61200282Y-104578984D01*
X61159378Y-104607590D01*
X61127961Y-104640279D01*
X61104800Y-104682757D01*
X61088667Y-104740730D01*
X61078330Y-104819902D01*
X61072560Y-104925978D01*
X61070127Y-105064665D01*
X61069750Y-105184417D01*
X61070716Y-105364043D01*
X61076173Y-105505887D01*
X61089959Y-105614493D01*
X61115913Y-105694409D01*
X61157874Y-105750178D01*
X61219681Y-105786349D01*
X61305172Y-105807464D01*
X61418186Y-105818072D01*
X61562562Y-105822717D01*
X61609500Y-105823574D01*
X61753938Y-105824773D01*
X61863791Y-105822379D01*
X61946692Y-105815918D01*
X62010275Y-105804912D01*
X62039817Y-105796736D01*
X62098778Y-105772713D01*
X62144351Y-105739168D01*
X62178470Y-105690656D01*
X62203066Y-105621728D01*
X62220073Y-105526937D01*
X62231422Y-105400837D01*
X62239048Y-105237978D01*
X62239156Y-105234877D01*
X62250823Y-104898667D01*
X61716637Y-104898667D01*
X61710694Y-105157959D01*
X61704750Y-105417250D01*
X61577750Y-105417250D01*
X61571825Y-105134043D01*
X61570264Y-104997853D01*
X61573856Y-104898248D01*
X61585199Y-104829558D01*
X61606892Y-104786114D01*
X61641532Y-104762243D01*
X61691719Y-104752276D01*
X61747572Y-104750500D01*
X61863500Y-104750500D01*
X61863500Y-104306000D01*
X61735977Y-104306000D01*
X61664197Y-104304425D01*
X61623040Y-104296849D01*
X61600830Y-104278991D01*
X61587810Y-104251706D01*
X61577505Y-104203633D01*
X61570106Y-104129115D01*
X61567170Y-104044016D01*
X61567167Y-104041417D01*
X61571967Y-103921023D01*
X61587024Y-103838852D01*
X61613325Y-103791816D01*
X61651834Y-103776834D01*
X61693568Y-103795502D01*
X61721107Y-103852100D01*
X61734771Y-103947517D01*
X61736500Y-104011045D01*
X61736500Y-104136667D01*
X62250216Y-104136667D01*
X62240115Y-103874467D01*
X62231209Y-103727789D01*
X62213963Y-103613474D01*
X62183612Y-103527558D01*
X62135390Y-103466078D01*
X62064532Y-103425073D01*
X61966273Y-103400577D01*
X61835846Y-103388630D01*
X61668487Y-103385267D01*
X61651834Y-103385250D01*
X61522341Y-103385884D01*
G37*
X61522341Y-103385884D02*
X61427148Y-103388336D01*
X61358235Y-103393427D01*
X61307580Y-103401980D01*
X61267163Y-103414819D01*
X61239084Y-103427584D01*
X61178057Y-103465979D01*
X61132834Y-103515810D01*
X61100966Y-103583656D01*
X61080004Y-103676098D01*
X61067501Y-103799717D01*
X61062689Y-103901704D01*
X61060207Y-104062664D01*
X61065930Y-104188437D01*
X61081345Y-104285634D01*
X61107939Y-104360864D01*
X61147196Y-104420738D01*
X61188630Y-104461947D01*
X61272916Y-104534094D01*
X61200282Y-104578984D01*
X61159378Y-104607590D01*
X61127961Y-104640279D01*
X61104800Y-104682757D01*
X61088667Y-104740730D01*
X61078330Y-104819902D01*
X61072560Y-104925978D01*
X61070127Y-105064665D01*
X61069750Y-105184417D01*
X61070716Y-105364043D01*
X61076173Y-105505887D01*
X61089959Y-105614493D01*
X61115913Y-105694409D01*
X61157874Y-105750178D01*
X61219681Y-105786349D01*
X61305172Y-105807464D01*
X61418186Y-105818072D01*
X61562562Y-105822717D01*
X61609500Y-105823574D01*
X61753938Y-105824773D01*
X61863791Y-105822379D01*
X61946692Y-105815918D01*
X62010275Y-105804912D01*
X62039817Y-105796736D01*
X62098778Y-105772713D01*
X62144351Y-105739168D01*
X62178470Y-105690656D01*
X62203066Y-105621728D01*
X62220073Y-105526937D01*
X62231422Y-105400837D01*
X62239048Y-105237978D01*
X62239156Y-105234877D01*
X62250823Y-104898667D01*
X61716637Y-104898667D01*
X61710694Y-105157959D01*
X61704750Y-105417250D01*
X61577750Y-105417250D01*
X61571825Y-105134043D01*
X61570264Y-104997853D01*
X61573856Y-104898248D01*
X61585199Y-104829558D01*
X61606892Y-104786114D01*
X61641532Y-104762243D01*
X61691719Y-104752276D01*
X61747572Y-104750500D01*
X61863500Y-104750500D01*
X61863500Y-104306000D01*
X61735977Y-104306000D01*
X61664197Y-104304425D01*
X61623040Y-104296849D01*
X61600830Y-104278991D01*
X61587810Y-104251706D01*
X61577505Y-104203633D01*
X61570106Y-104129115D01*
X61567170Y-104044016D01*
X61567167Y-104041417D01*
X61571967Y-103921023D01*
X61587024Y-103838852D01*
X61613325Y-103791816D01*
X61651834Y-103776834D01*
X61693568Y-103795502D01*
X61721107Y-103852100D01*
X61734771Y-103947517D01*
X61736500Y-104011045D01*
X61736500Y-104136667D01*
X62250216Y-104136667D01*
X62240115Y-103874467D01*
X62231209Y-103727789D01*
X62213963Y-103613474D01*
X62183612Y-103527558D01*
X62135390Y-103466078D01*
X62064532Y-103425073D01*
X61966273Y-103400577D01*
X61835846Y-103388630D01*
X61668487Y-103385267D01*
X61651834Y-103385250D01*
X61522341Y-103385884D01*
G36*
X64362335Y-103951459D02*
G01*
X64331202Y-104101152D01*
X64302079Y-104238758D01*
X64276260Y-104358353D01*
X64255038Y-104454013D01*
X64239708Y-104519813D01*
X64231724Y-104549417D01*
X64227575Y-104540280D01*
X64223731Y-104493649D01*
X64220346Y-104414364D01*
X64217569Y-104307265D01*
X64215553Y-104177190D01*
X64214449Y-104028980D01*
X64214342Y-103993792D01*
X64213000Y-103395834D01*
X63768500Y-103395834D01*
X63768500Y-105830000D01*
X64247606Y-105830000D01*
X64360732Y-105306125D01*
X64392373Y-105160887D01*
X64421911Y-105027731D01*
X64447946Y-104912776D01*
X64469078Y-104822142D01*
X64483907Y-104761948D01*
X64490254Y-104739917D01*
X64494606Y-104748731D01*
X64498622Y-104794932D01*
X64502134Y-104873576D01*
X64504974Y-104979715D01*
X64506974Y-105108405D01*
X64507968Y-105254700D01*
X64507992Y-105263792D01*
X64509334Y-105830000D01*
X64953834Y-105830000D01*
X64953834Y-103395834D01*
X64476905Y-103395834D01*
X64362335Y-103951459D01*
G37*
X64362335Y-103951459D02*
X64331202Y-104101152D01*
X64302079Y-104238758D01*
X64276260Y-104358353D01*
X64255038Y-104454013D01*
X64239708Y-104519813D01*
X64231724Y-104549417D01*
X64227575Y-104540280D01*
X64223731Y-104493649D01*
X64220346Y-104414364D01*
X64217569Y-104307265D01*
X64215553Y-104177190D01*
X64214449Y-104028980D01*
X64214342Y-103993792D01*
X64213000Y-103395834D01*
X63768500Y-103395834D01*
X63768500Y-105830000D01*
X64247606Y-105830000D01*
X64360732Y-105306125D01*
X64392373Y-105160887D01*
X64421911Y-105027731D01*
X64447946Y-104912776D01*
X64469078Y-104822142D01*
X64483907Y-104761948D01*
X64490254Y-104739917D01*
X64494606Y-104748731D01*
X64498622Y-104794932D01*
X64502134Y-104873576D01*
X64504974Y-104979715D01*
X64506974Y-105108405D01*
X64507968Y-105254700D01*
X64507992Y-105263792D01*
X64509334Y-105830000D01*
X64953834Y-105830000D01*
X64953834Y-103395834D01*
X64476905Y-103395834D01*
X64362335Y-103951459D01*
G36*
X66499000Y-105830000D02*
G01*
X67007000Y-105830000D01*
X67007000Y-103395834D01*
X66499000Y-103395834D01*
X66499000Y-105830000D01*
G37*
X66499000Y-105830000D02*
X67007000Y-105830000D01*
X67007000Y-103395834D01*
X66499000Y-103395834D01*
X66499000Y-105830000D01*
G36*
X62844632Y-103387646D02*
G01*
X62709658Y-103396747D01*
X62607411Y-103417295D01*
X62533139Y-103453524D01*
X62482093Y-103509667D01*
X62449522Y-103589958D01*
X62430674Y-103698629D01*
X62420799Y-103839914D01*
X62417878Y-103919709D01*
X62408502Y-104221334D01*
X62921834Y-104221334D01*
X62921834Y-104040025D01*
X62925499Y-103923732D01*
X62937514Y-103844468D01*
X62959407Y-103797482D01*
X62992706Y-103778024D01*
X63006500Y-103776834D01*
X63028116Y-103778960D01*
X63045694Y-103787881D01*
X63059550Y-103807408D01*
X63070001Y-103841354D01*
X63077363Y-103893531D01*
X63081952Y-103967751D01*
X63084084Y-104067826D01*
X63084076Y-104197568D01*
X63082244Y-104360790D01*
X63078903Y-104561304D01*
X63077573Y-104633693D01*
X63073488Y-104844836D01*
X63069525Y-105017263D01*
X63065175Y-105154588D01*
X63059927Y-105260422D01*
X63053274Y-105338380D01*
X63044705Y-105392073D01*
X63033711Y-105425114D01*
X63019783Y-105441118D01*
X63002412Y-105443696D01*
X62981088Y-105436461D01*
X62965520Y-105428558D01*
X62945864Y-105414509D01*
X62933158Y-105392082D01*
X62925912Y-105352918D01*
X62922635Y-105288660D01*
X62921836Y-105190949D01*
X62921834Y-105183672D01*
X62921834Y-104962167D01*
X62974750Y-104962167D01*
X62999800Y-104960650D01*
X63015354Y-104950668D01*
X63023674Y-104924076D01*
X63027023Y-104872726D01*
X63027665Y-104788473D01*
X63027667Y-104771667D01*
X63027667Y-104581167D01*
X62413834Y-104581167D01*
X62413834Y-105830000D01*
X62525437Y-105830000D01*
X62591915Y-105827966D01*
X62630910Y-105817034D01*
X62657242Y-105789956D01*
X62676937Y-105755917D01*
X62708744Y-105702906D01*
X62733709Y-105685789D01*
X62762266Y-105701816D01*
X62786262Y-105727088D01*
X62835528Y-105768217D01*
X62892606Y-105800298D01*
X62969831Y-105821935D01*
X63071658Y-105835924D01*
X63180849Y-105841054D01*
X63280163Y-105836115D01*
X63317724Y-105830142D01*
X63409268Y-105804974D01*
X63471190Y-105769876D01*
X63516195Y-105715483D01*
X63542950Y-105664148D01*
X63553708Y-105639773D01*
X63562628Y-105614754D01*
X63569881Y-105585086D01*
X63575640Y-105546762D01*
X63580077Y-105495777D01*
X63583364Y-105428124D01*
X63585674Y-105339798D01*
X63587178Y-105226792D01*
X63588048Y-105085101D01*
X63588458Y-104910718D01*
X63588578Y-104699638D01*
X63588584Y-104602334D01*
X63588533Y-104358683D01*
X63588060Y-104153760D01*
X63586685Y-103983958D01*
X63583928Y-103845671D01*
X63579309Y-103735292D01*
X63572350Y-103649216D01*
X63562569Y-103583835D01*
X63549486Y-103535545D01*
X63532623Y-103500739D01*
X63511499Y-103475810D01*
X63485635Y-103457153D01*
X63454550Y-103441161D01*
X63432743Y-103431139D01*
X63388958Y-103413314D01*
X63342936Y-103400844D01*
X63286073Y-103392790D01*
X63209767Y-103388212D01*
X63105416Y-103386171D01*
X63017084Y-103385758D01*
X62844632Y-103387646D01*
G37*
X62844632Y-103387646D02*
X62709658Y-103396747D01*
X62607411Y-103417295D01*
X62533139Y-103453524D01*
X62482093Y-103509667D01*
X62449522Y-103589958D01*
X62430674Y-103698629D01*
X62420799Y-103839914D01*
X62417878Y-103919709D01*
X62408502Y-104221334D01*
X62921834Y-104221334D01*
X62921834Y-104040025D01*
X62925499Y-103923732D01*
X62937514Y-103844468D01*
X62959407Y-103797482D01*
X62992706Y-103778024D01*
X63006500Y-103776834D01*
X63028116Y-103778960D01*
X63045694Y-103787881D01*
X63059550Y-103807408D01*
X63070001Y-103841354D01*
X63077363Y-103893531D01*
X63081952Y-103967751D01*
X63084084Y-104067826D01*
X63084076Y-104197568D01*
X63082244Y-104360790D01*
X63078903Y-104561304D01*
X63077573Y-104633693D01*
X63073488Y-104844836D01*
X63069525Y-105017263D01*
X63065175Y-105154588D01*
X63059927Y-105260422D01*
X63053274Y-105338380D01*
X63044705Y-105392073D01*
X63033711Y-105425114D01*
X63019783Y-105441118D01*
X63002412Y-105443696D01*
X62981088Y-105436461D01*
X62965520Y-105428558D01*
X62945864Y-105414509D01*
X62933158Y-105392082D01*
X62925912Y-105352918D01*
X62922635Y-105288660D01*
X62921836Y-105190949D01*
X62921834Y-105183672D01*
X62921834Y-104962167D01*
X62974750Y-104962167D01*
X62999800Y-104960650D01*
X63015354Y-104950668D01*
X63023674Y-104924076D01*
X63027023Y-104872726D01*
X63027665Y-104788473D01*
X63027667Y-104771667D01*
X63027667Y-104581167D01*
X62413834Y-104581167D01*
X62413834Y-105830000D01*
X62525437Y-105830000D01*
X62591915Y-105827966D01*
X62630910Y-105817034D01*
X62657242Y-105789956D01*
X62676937Y-105755917D01*
X62708744Y-105702906D01*
X62733709Y-105685789D01*
X62762266Y-105701816D01*
X62786262Y-105727088D01*
X62835528Y-105768217D01*
X62892606Y-105800298D01*
X62969831Y-105821935D01*
X63071658Y-105835924D01*
X63180849Y-105841054D01*
X63280163Y-105836115D01*
X63317724Y-105830142D01*
X63409268Y-105804974D01*
X63471190Y-105769876D01*
X63516195Y-105715483D01*
X63542950Y-105664148D01*
X63553708Y-105639773D01*
X63562628Y-105614754D01*
X63569881Y-105585086D01*
X63575640Y-105546762D01*
X63580077Y-105495777D01*
X63583364Y-105428124D01*
X63585674Y-105339798D01*
X63587178Y-105226792D01*
X63588048Y-105085101D01*
X63588458Y-104910718D01*
X63588578Y-104699638D01*
X63588584Y-104602334D01*
X63588533Y-104358683D01*
X63588060Y-104153760D01*
X63586685Y-103983958D01*
X63583928Y-103845671D01*
X63579309Y-103735292D01*
X63572350Y-103649216D01*
X63562569Y-103583835D01*
X63549486Y-103535545D01*
X63532623Y-103500739D01*
X63511499Y-103475810D01*
X63485635Y-103457153D01*
X63454550Y-103441161D01*
X63432743Y-103431139D01*
X63388958Y-103413314D01*
X63342936Y-103400844D01*
X63286073Y-103392790D01*
X63209767Y-103388212D01*
X63105416Y-103386171D01*
X63017084Y-103385758D01*
X62844632Y-103387646D01*
G36*
X65787401Y-104404289D02*
G01*
X65782951Y-104638769D01*
X65778909Y-104834471D01*
X65775091Y-104994945D01*
X65771309Y-105123743D01*
X65767380Y-105224415D01*
X65763117Y-105300511D01*
X65758333Y-105355583D01*
X65752845Y-105393182D01*
X65746464Y-105416858D01*
X65739007Y-105430162D01*
X65733483Y-105434937D01*
X65691800Y-105444568D01*
X65664691Y-105429306D01*
X65656860Y-105419113D01*
X65650333Y-105400307D01*
X65644995Y-105369324D01*
X65640731Y-105322600D01*
X65637424Y-105256572D01*
X65634958Y-105167678D01*
X65633218Y-105052352D01*
X65632087Y-104907033D01*
X65631450Y-104728157D01*
X65631191Y-104512160D01*
X65631167Y-104398658D01*
X65631167Y-103395834D01*
X65121410Y-103395834D01*
X65127580Y-104512375D01*
X65129034Y-104769343D01*
X65130567Y-104987360D01*
X65132541Y-105169805D01*
X65135315Y-105320059D01*
X65139250Y-105441502D01*
X65144705Y-105537516D01*
X65152042Y-105611481D01*
X65161621Y-105666776D01*
X65173801Y-105706784D01*
X65188943Y-105734883D01*
X65207407Y-105754455D01*
X65229554Y-105768881D01*
X65255745Y-105781540D01*
X65263205Y-105784934D01*
X65348213Y-105811449D01*
X65464503Y-105830522D01*
X65601570Y-105841476D01*
X65748905Y-105843636D01*
X65896003Y-105836324D01*
X65959250Y-105829771D01*
X66078208Y-105810126D01*
X66162338Y-105780663D01*
X66219052Y-105734420D01*
X66255758Y-105664433D01*
X66279867Y-105563737D01*
X66286353Y-105522364D01*
X66290814Y-105470284D01*
X66294963Y-105380761D01*
X66298706Y-105258685D01*
X66301951Y-105108946D01*
X66304603Y-104936435D01*
X66306570Y-104746041D01*
X66307758Y-104542654D01*
X66308081Y-104385375D01*
X66308500Y-103395834D01*
X65806052Y-103395834D01*
X65787401Y-104404289D01*
G37*
X65787401Y-104404289D02*
X65782951Y-104638769D01*
X65778909Y-104834471D01*
X65775091Y-104994945D01*
X65771309Y-105123743D01*
X65767380Y-105224415D01*
X65763117Y-105300511D01*
X65758333Y-105355583D01*
X65752845Y-105393182D01*
X65746464Y-105416858D01*
X65739007Y-105430162D01*
X65733483Y-105434937D01*
X65691800Y-105444568D01*
X65664691Y-105429306D01*
X65656860Y-105419113D01*
X65650333Y-105400307D01*
X65644995Y-105369324D01*
X65640731Y-105322600D01*
X65637424Y-105256572D01*
X65634958Y-105167678D01*
X65633218Y-105052352D01*
X65632087Y-104907033D01*
X65631450Y-104728157D01*
X65631191Y-104512160D01*
X65631167Y-104398658D01*
X65631167Y-103395834D01*
X65121410Y-103395834D01*
X65127580Y-104512375D01*
X65129034Y-104769343D01*
X65130567Y-104987360D01*
X65132541Y-105169805D01*
X65135315Y-105320059D01*
X65139250Y-105441502D01*
X65144705Y-105537516D01*
X65152042Y-105611481D01*
X65161621Y-105666776D01*
X65173801Y-105706784D01*
X65188943Y-105734883D01*
X65207407Y-105754455D01*
X65229554Y-105768881D01*
X65255745Y-105781540D01*
X65263205Y-105784934D01*
X65348213Y-105811449D01*
X65464503Y-105830522D01*
X65601570Y-105841476D01*
X65748905Y-105843636D01*
X65896003Y-105836324D01*
X65959250Y-105829771D01*
X66078208Y-105810126D01*
X66162338Y-105780663D01*
X66219052Y-105734420D01*
X66255758Y-105664433D01*
X66279867Y-105563737D01*
X66286353Y-105522364D01*
X66290814Y-105470284D01*
X66294963Y-105380761D01*
X66298706Y-105258685D01*
X66301951Y-105108946D01*
X66304603Y-104936435D01*
X66306570Y-104746041D01*
X66307758Y-104542654D01*
X66308081Y-104385375D01*
X66308500Y-103395834D01*
X65806052Y-103395834D01*
X65787401Y-104404289D01*
G36*
X67813748Y-104089042D02*
G01*
X67797357Y-104309427D01*
X67782302Y-104498757D01*
X67768750Y-104655458D01*
X67756868Y-104777956D01*
X67746823Y-104864678D01*
X67738781Y-104914051D01*
X67732909Y-104924501D01*
X67729373Y-104894454D01*
X67729115Y-104888084D01*
X67726393Y-104833014D01*
X67721178Y-104745607D01*
X67713923Y-104632272D01*
X67705084Y-104499421D01*
X67695113Y-104353465D01*
X67684465Y-104200814D01*
X67673594Y-104047878D01*
X67662955Y-103901069D01*
X67653001Y-103766797D01*
X67644186Y-103651473D01*
X67636965Y-103561507D01*
X67631792Y-103503310D01*
X67629781Y-103485792D01*
X67618916Y-103417000D01*
X67387041Y-103417000D01*
X67285602Y-103417361D01*
X67219121Y-103419453D01*
X67180223Y-103424792D01*
X67161536Y-103434893D01*
X67155683Y-103451272D01*
X67155264Y-103464625D01*
X67157918Y-103494115D01*
X67165512Y-103561585D01*
X67177554Y-103663034D01*
X67193551Y-103794458D01*
X67213008Y-103951855D01*
X67235432Y-104131222D01*
X67260331Y-104328557D01*
X67287210Y-104539858D01*
X67303334Y-104665834D01*
X67331045Y-104882135D01*
X67357070Y-105085796D01*
X67380921Y-105272955D01*
X67402108Y-105439749D01*
X67420142Y-105582317D01*
X67434534Y-105696799D01*
X67444796Y-105779332D01*
X67450439Y-105826054D01*
X67451404Y-105835292D01*
X67471316Y-105841112D01*
X67525818Y-105845974D01*
X67607169Y-105849445D01*
X67707629Y-105851091D01*
X67735390Y-105851167D01*
X68019279Y-105851167D01*
X68032138Y-105771792D01*
X68039110Y-105725073D01*
X68050610Y-105643610D01*
X68066009Y-105532116D01*
X68084682Y-105395305D01*
X68106002Y-105237888D01*
X68129342Y-105064580D01*
X68154076Y-104880093D01*
X68179575Y-104689141D01*
X68205215Y-104496437D01*
X68230367Y-104306693D01*
X68254406Y-104124623D01*
X68276704Y-103954940D01*
X68296635Y-103802357D01*
X68313571Y-103671587D01*
X68326887Y-103567344D01*
X68335955Y-103494340D01*
X68340148Y-103457288D01*
X68340364Y-103454042D01*
X68336382Y-103437914D01*
X68319573Y-103427245D01*
X68282856Y-103420937D01*
X68219150Y-103417892D01*
X68121375Y-103417013D01*
X68101399Y-103417000D01*
X67862297Y-103417000D01*
X67813748Y-104089042D01*
G37*
X67813748Y-104089042D02*
X67797357Y-104309427D01*
X67782302Y-104498757D01*
X67768750Y-104655458D01*
X67756868Y-104777956D01*
X67746823Y-104864678D01*
X67738781Y-104914051D01*
X67732909Y-104924501D01*
X67729373Y-104894454D01*
X67729115Y-104888084D01*
X67726393Y-104833014D01*
X67721178Y-104745607D01*
X67713923Y-104632272D01*
X67705084Y-104499421D01*
X67695113Y-104353465D01*
X67684465Y-104200814D01*
X67673594Y-104047878D01*
X67662955Y-103901069D01*
X67653001Y-103766797D01*
X67644186Y-103651473D01*
X67636965Y-103561507D01*
X67631792Y-103503310D01*
X67629781Y-103485792D01*
X67618916Y-103417000D01*
X67387041Y-103417000D01*
X67285602Y-103417361D01*
X67219121Y-103419453D01*
X67180223Y-103424792D01*
X67161536Y-103434893D01*
X67155683Y-103451272D01*
X67155264Y-103464625D01*
X67157918Y-103494115D01*
X67165512Y-103561585D01*
X67177554Y-103663034D01*
X67193551Y-103794458D01*
X67213008Y-103951855D01*
X67235432Y-104131222D01*
X67260331Y-104328557D01*
X67287210Y-104539858D01*
X67303334Y-104665834D01*
X67331045Y-104882135D01*
X67357070Y-105085796D01*
X67380921Y-105272955D01*
X67402108Y-105439749D01*
X67420142Y-105582317D01*
X67434534Y-105696799D01*
X67444796Y-105779332D01*
X67450439Y-105826054D01*
X67451404Y-105835292D01*
X67471316Y-105841112D01*
X67525818Y-105845974D01*
X67607169Y-105849445D01*
X67707629Y-105851091D01*
X67735390Y-105851167D01*
X68019279Y-105851167D01*
X68032138Y-105771792D01*
X68039110Y-105725073D01*
X68050610Y-105643610D01*
X68066009Y-105532116D01*
X68084682Y-105395305D01*
X68106002Y-105237888D01*
X68129342Y-105064580D01*
X68154076Y-104880093D01*
X68179575Y-104689141D01*
X68205215Y-104496437D01*
X68230367Y-104306693D01*
X68254406Y-104124623D01*
X68276704Y-103954940D01*
X68296635Y-103802357D01*
X68313571Y-103671587D01*
X68326887Y-103567344D01*
X68335955Y-103494340D01*
X68340148Y-103457288D01*
X68340364Y-103454042D01*
X68336382Y-103437914D01*
X68319573Y-103427245D01*
X68282856Y-103420937D01*
X68219150Y-103417892D01*
X68121375Y-103417013D01*
X68101399Y-103417000D01*
X67862297Y-103417000D01*
X67813748Y-104089042D01*
G36*
X68467500Y-103798000D02*
G01*
X68785000Y-103798000D01*
X68785000Y-104304146D01*
X68478084Y-104316584D01*
X68471998Y-104512375D01*
X68465912Y-104708167D01*
X68785000Y-104708167D01*
X68785000Y-105449000D01*
X68467500Y-105449000D01*
X68467500Y-105851167D01*
X69293000Y-105851167D01*
X69293000Y-103417000D01*
X68467500Y-103417000D01*
X68467500Y-103798000D01*
G37*
X68467500Y-103798000D02*
X68785000Y-103798000D01*
X68785000Y-104304146D01*
X68478084Y-104316584D01*
X68471998Y-104512375D01*
X68465912Y-104708167D01*
X68785000Y-104708167D01*
X68785000Y-105449000D01*
X68467500Y-105449000D01*
X68467500Y-105851167D01*
X69293000Y-105851167D01*
X69293000Y-103417000D01*
X68467500Y-103417000D01*
X68467500Y-103798000D01*
G36*
X70187292Y-103420503D02*
G01*
X70011642Y-103424122D01*
X69872994Y-103429885D01*
X69766023Y-103439191D01*
X69685402Y-103453435D01*
X69625809Y-103474018D01*
X69581916Y-103502337D01*
X69548400Y-103539789D01*
X69519935Y-103587772D01*
X69515295Y-103596917D01*
X69499728Y-103632307D01*
X69488491Y-103671456D01*
X69480908Y-103721694D01*
X69476303Y-103790351D01*
X69474002Y-103884755D01*
X69473327Y-104012236D01*
X69473334Y-104052000D01*
X69474785Y-104212103D01*
X69479867Y-104335820D01*
X69490150Y-104429051D01*
X69507207Y-104497693D01*
X69532607Y-104547644D01*
X69567923Y-104584803D01*
X69614725Y-104615069D01*
X69624732Y-104620364D01*
X69705750Y-104662259D01*
X69652834Y-104682967D01*
X69573509Y-104734707D01*
X69511781Y-104814913D01*
X69482238Y-104891329D01*
X69476457Y-104937108D01*
X69471340Y-105017365D01*
X69467180Y-105124245D01*
X69464269Y-105249894D01*
X69462899Y-105386458D01*
X69462839Y-105411959D01*
X69462334Y-105851167D01*
X69991500Y-105851167D01*
X69991500Y-105386245D01*
X69991656Y-105234411D01*
X69992452Y-105119426D01*
X69994383Y-105035807D01*
X69997941Y-104978070D01*
X70003622Y-104940733D01*
X70011918Y-104918311D01*
X70023323Y-104905320D01*
X70035488Y-104897782D01*
X70067455Y-104882423D01*
X70092119Y-104877688D01*
X70110425Y-104887898D01*
X70123317Y-104917372D01*
X70131740Y-104970430D01*
X70136638Y-105051393D01*
X70138957Y-105164580D01*
X70139640Y-105314311D01*
X70139667Y-105374253D01*
X70139667Y-105851167D01*
X70647667Y-105851167D01*
X70647667Y-104116841D01*
X70139667Y-104116841D01*
X70139667Y-104435682D01*
X70070875Y-104429050D01*
X70002084Y-104422417D01*
X69996142Y-104136858D01*
X69994308Y-104019773D01*
X69994976Y-103937823D01*
X69998843Y-103883848D01*
X70006612Y-103850688D01*
X70018979Y-103831184D01*
X70026646Y-103824650D01*
X70074749Y-103802289D01*
X70101379Y-103798000D01*
X70116112Y-103801036D01*
X70126509Y-103814290D01*
X70133315Y-103843979D01*
X70137278Y-103896319D01*
X70139144Y-103977529D01*
X70139660Y-104093825D01*
X70139667Y-104116841D01*
X70647667Y-104116841D01*
X70647667Y-103413422D01*
X70187292Y-103420503D01*
G37*
X70187292Y-103420503D02*
X70011642Y-103424122D01*
X69872994Y-103429885D01*
X69766023Y-103439191D01*
X69685402Y-103453435D01*
X69625809Y-103474018D01*
X69581916Y-103502337D01*
X69548400Y-103539789D01*
X69519935Y-103587772D01*
X69515295Y-103596917D01*
X69499728Y-103632307D01*
X69488491Y-103671456D01*
X69480908Y-103721694D01*
X69476303Y-103790351D01*
X69474002Y-103884755D01*
X69473327Y-104012236D01*
X69473334Y-104052000D01*
X69474785Y-104212103D01*
X69479867Y-104335820D01*
X69490150Y-104429051D01*
X69507207Y-104497693D01*
X69532607Y-104547644D01*
X69567923Y-104584803D01*
X69614725Y-104615069D01*
X69624732Y-104620364D01*
X69705750Y-104662259D01*
X69652834Y-104682967D01*
X69573509Y-104734707D01*
X69511781Y-104814913D01*
X69482238Y-104891329D01*
X69476457Y-104937108D01*
X69471340Y-105017365D01*
X69467180Y-105124245D01*
X69464269Y-105249894D01*
X69462899Y-105386458D01*
X69462839Y-105411959D01*
X69462334Y-105851167D01*
X69991500Y-105851167D01*
X69991500Y-105386245D01*
X69991656Y-105234411D01*
X69992452Y-105119426D01*
X69994383Y-105035807D01*
X69997941Y-104978070D01*
X70003622Y-104940733D01*
X70011918Y-104918311D01*
X70023323Y-104905320D01*
X70035488Y-104897782D01*
X70067455Y-104882423D01*
X70092119Y-104877688D01*
X70110425Y-104887898D01*
X70123317Y-104917372D01*
X70131740Y-104970430D01*
X70136638Y-105051393D01*
X70138957Y-105164580D01*
X70139640Y-105314311D01*
X70139667Y-105374253D01*
X70139667Y-105851167D01*
X70647667Y-105851167D01*
X70647667Y-104116841D01*
X70139667Y-104116841D01*
X70139667Y-104435682D01*
X70070875Y-104429050D01*
X70002084Y-104422417D01*
X69996142Y-104136858D01*
X69994308Y-104019773D01*
X69994976Y-103937823D01*
X69998843Y-103883848D01*
X70006612Y-103850688D01*
X70018979Y-103831184D01*
X70026646Y-103824650D01*
X70074749Y-103802289D01*
X70101379Y-103798000D01*
X70116112Y-103801036D01*
X70126509Y-103814290D01*
X70133315Y-103843979D01*
X70137278Y-103896319D01*
X70139144Y-103977529D01*
X70139660Y-104093825D01*
X70139667Y-104116841D01*
X70647667Y-104116841D01*
X70647667Y-103413422D01*
X70187292Y-103420503D01*
G36*
X52275000Y-107290500D02*
G01*
X147525000Y-107290500D01*
X147525000Y-106803667D01*
X52275000Y-106803667D01*
X52275000Y-107290500D01*
G37*
X52275000Y-107290500D02*
X147525000Y-107290500D01*
X147525000Y-106803667D01*
X52275000Y-106803667D01*
X52275000Y-107290500D01*
M02*
