%TF.GenerationSoftware,KiCad,Pcbnew,(5.1.9-0-10_14)*%
%TF.CreationDate,2021-06-24T13:30:28+09:00*%
%TF.ProjectId,reviung5,72657669-756e-4673-952e-6b696361645f,1*%
%TF.SameCoordinates,PX1c9c380PY1c9c380*%
%TF.FileFunction,Copper,L1,Top*%
%TF.FilePolarity,Positive*%
%FSLAX46Y46*%
G04 Gerber Fmt 4.6, Leading zero omitted, Abs format (unit mm)*
G04 Created by KiCad (PCBNEW (5.1.9-0-10_14)) date 2021-06-24 13:30:28*
%MOMM*%
%LPD*%
G01*
G04 APERTURE LIST*
%TA.AperFunction,ComponentPad*%
%ADD10C,2.250000*%
%TD*%
%TA.AperFunction,ComponentPad*%
%ADD11C,4.500000*%
%TD*%
%TA.AperFunction,ComponentPad*%
%ADD12C,0.100000*%
%TD*%
%TA.AperFunction,ComponentPad*%
%ADD13C,2.000000*%
%TD*%
%TA.AperFunction,ComponentPad*%
%ADD14C,1.397000*%
%TD*%
%TA.AperFunction,ComponentPad*%
%ADD15R,1.397000X1.397000*%
%TD*%
%TA.AperFunction,ComponentPad*%
%ADD16C,1.524000*%
%TD*%
%TA.AperFunction,ViaPad*%
%ADD17C,0.900000*%
%TD*%
%TA.AperFunction,ViaPad*%
%ADD18C,0.600000*%
%TD*%
%TA.AperFunction,Conductor*%
%ADD19C,0.200000*%
%TD*%
%TA.AperFunction,Conductor*%
%ADD20C,0.600000*%
%TD*%
%TA.AperFunction,Conductor*%
%ADD21C,0.254000*%
%TD*%
%TA.AperFunction,Conductor*%
%ADD22C,0.100000*%
%TD*%
G04 APERTURE END LIST*
D10*
%TO.P,SW5,2*%
%TO.N,Net-(D5-Pad2)*%
X89669279Y-20166110D03*
%TO.P,SW5,1*%
%TO.N,col4*%
X83856816Y-23770188D03*
%TD*%
%TO.P,SW1,2*%
%TO.N,Net-(D1-Pad2)*%
X15103544Y-21058243D03*
%TO.P,SW1,1*%
%TO.N,col0*%
X8408949Y-22456989D03*
%TD*%
D11*
%TO.P,REF\u002A\u002A,1*%
%TO.N,N/C*%
X76260000Y-25570000D03*
%TD*%
%TO.P,REF\u002A\u002A,1*%
%TO.N,N/C*%
X49860000Y-47110000D03*
%TD*%
%TO.P,REF\u002A\u002A,1*%
%TO.N,N/C*%
X23460000Y-25570000D03*
%TD*%
%TA.AperFunction,ComponentPad*%
D12*
%TO.P,RESW2,A*%
%TO.N,padA*%
G36*
X88068456Y-34291160D02*
G01*
X86098840Y-34638456D01*
X85751544Y-32668840D01*
X87721160Y-32321544D01*
X88068456Y-34291160D01*
G37*
%TD.AperFunction*%
D13*
%TO.P,RESW2,C*%
%TO.N,GND*%
X89372019Y-33045880D03*
%TO.P,RESW2,B*%
%TO.N,padB*%
X91834039Y-32611759D03*
%TO.P,RESW2,MP*%
%TO.N,N/C*%
%TA.AperFunction,ComponentPad*%
G36*
G01*
X83093284Y-27958888D02*
X82502400Y-28063076D01*
G75*
G02*
X80880562Y-26927452I-243107J1378731D01*
G01*
X80880562Y-26927452D01*
G75*
G02*
X82016186Y-25305614I1378731J243107D01*
G01*
X82607070Y-25201426D01*
G75*
G02*
X84228908Y-26337050I243107J-1378731D01*
G01*
X84228908Y-26337050D01*
G75*
G02*
X83093284Y-27958888I-1378731J-243107D01*
G01*
G37*
%TD.AperFunction*%
%TA.AperFunction,ComponentPad*%
G36*
G01*
X94123129Y-26014029D02*
X93532245Y-26118217D01*
G75*
G02*
X91910407Y-24982593I-243107J1378731D01*
G01*
X91910407Y-24982593D01*
G75*
G02*
X93046031Y-23360755I1378731J243107D01*
G01*
X93636915Y-23256567D01*
G75*
G02*
X95258753Y-24392191I243107J-1378731D01*
G01*
X95258753Y-24392191D01*
G75*
G02*
X94123129Y-26014029I-1378731J-243107D01*
G01*
G37*
%TD.AperFunction*%
%TO.P,RESW2,S1*%
%TO.N,col4*%
X84392101Y-19200288D03*
%TO.P,RESW2,S2*%
%TO.N,Net-(D5-Pad2)*%
X89316140Y-18332047D03*
%TD*%
%TA.AperFunction,ComponentPad*%
D12*
%TO.P,RESW1,A*%
%TO.N,padA*%
G36*
X8781160Y-33778456D02*
G01*
X6811544Y-33431160D01*
X7158840Y-31461544D01*
X9128456Y-31808840D01*
X8781160Y-33778456D01*
G37*
%TD.AperFunction*%
D13*
%TO.P,RESW1,C*%
%TO.N,GND*%
X10432019Y-33054120D03*
%TO.P,RESW1,B*%
%TO.N,padB*%
X12894039Y-33488241D03*
%TO.P,RESW1,MP*%
%TO.N,N/C*%
%TA.AperFunction,ComponentPad*%
G36*
G01*
X6271792Y-26126458D02*
X5680908Y-26022270D01*
G75*
G02*
X4545284Y-24400432I243107J1378731D01*
G01*
X4545284Y-24400432D01*
G75*
G02*
X6167122Y-23264808I1378731J-243107D01*
G01*
X6758006Y-23368996D01*
G75*
G02*
X7893630Y-24990834I-243107J-1378731D01*
G01*
X7893630Y-24990834D01*
G75*
G02*
X6271792Y-26126458I-1378731J243107D01*
G01*
G37*
%TD.AperFunction*%
%TA.AperFunction,ComponentPad*%
G36*
G01*
X17301639Y-28071317D02*
X16710755Y-27967129D01*
G75*
G02*
X15575131Y-26345291I243107J1378731D01*
G01*
X15575131Y-26345291D01*
G75*
G02*
X17196969Y-25209667I1378731J-243107D01*
G01*
X17787853Y-25313855D01*
G75*
G02*
X18923477Y-26935693I-243107J-1378731D01*
G01*
X18923477Y-26935693D01*
G75*
G02*
X17301639Y-28071317I-1378731J243107D01*
G01*
G37*
%TD.AperFunction*%
%TO.P,RESW1,S1*%
%TO.N,col0*%
X10487899Y-18340288D03*
%TO.P,RESW1,S2*%
%TO.N,Net-(D1-Pad2)*%
X15411937Y-19208528D03*
%TD*%
%TA.AperFunction,ComponentPad*%
D12*
%TO.P,D1,1*%
%TO.N,row0*%
G36*
X9038701Y-15704995D02*
G01*
X9281287Y-14329219D01*
X10657063Y-14571805D01*
X10414477Y-15947581D01*
X9038701Y-15704995D01*
G37*
%TD.AperFunction*%
D14*
%TO.P,D1,2*%
%TO.N,Net-(D1-Pad2)*%
X17352118Y-16461600D03*
%TD*%
%TO.P,D2,2*%
%TO.N,Net-(D2-Pad2)*%
X34610000Y-45250000D03*
D15*
%TO.P,D2,1*%
%TO.N,row0*%
X26990000Y-45250000D03*
%TD*%
%TO.P,D3,1*%
%TO.N,row0*%
X48690000Y-28920000D03*
D14*
%TO.P,D3,2*%
%TO.N,Net-(D3-Pad2)*%
X56310000Y-28920000D03*
%TD*%
%TO.P,D4,2*%
%TO.N,Net-(D4-Pad2)*%
X72710000Y-45250000D03*
D15*
%TO.P,D4,1*%
%TO.N,row0*%
X65090000Y-45250000D03*
%TD*%
%TA.AperFunction,ComponentPad*%
D12*
%TO.P,D5,1*%
%TO.N,row0*%
G36*
X82161287Y-17360781D02*
G01*
X81918701Y-15985005D01*
X83294477Y-15742419D01*
X83537063Y-17118195D01*
X82161287Y-17360781D01*
G37*
%TD.AperFunction*%
D14*
%TO.P,D5,2*%
%TO.N,Net-(D5-Pad2)*%
X90232118Y-15228400D03*
%TD*%
D13*
%TO.P,reset1,1*%
%TO.N,reset*%
X42610000Y-25250000D03*
%TO.P,reset1,2*%
%TO.N,GND*%
X36110000Y-25250000D03*
%TD*%
D10*
%TO.P,SW2,1*%
%TO.N,col1*%
X26990000Y-34760000D03*
%TO.P,SW2,2*%
%TO.N,Net-(D2-Pad2)*%
X33340000Y-32220000D03*
%TD*%
%TO.P,SW3,2*%
%TO.N,Net-(D3-Pad2)*%
X52390000Y-32220000D03*
%TO.P,SW3,1*%
%TO.N,col2*%
X46040000Y-34760000D03*
%TD*%
%TO.P,SW4,1*%
%TO.N,col3*%
X65090000Y-34760000D03*
%TO.P,SW4,2*%
%TO.N,Net-(D4-Pad2)*%
X71440000Y-32220000D03*
%TD*%
D16*
%TO.P,U1,1*%
%TO.N,LED*%
X38823659Y-2020156D03*
%TO.P,U1,2*%
%TO.N,Net-(U1-Pad2)*%
X41325071Y-2461222D03*
%TO.P,U1,3*%
%TO.N,GND*%
X43826482Y-2902289D03*
%TO.P,U1,4*%
X46327894Y-3343355D03*
%TO.P,U1,5*%
%TO.N,padB*%
X48829306Y-3784421D03*
%TO.P,U1,6*%
%TO.N,padA*%
X51330718Y-4225488D03*
%TO.P,U1,7*%
%TO.N,col0*%
X53832129Y-4666554D03*
%TO.P,U1,8*%
%TO.N,col1*%
X56333541Y-5107621D03*
%TO.P,U1,9*%
%TO.N,col2*%
X58834953Y-5548687D03*
%TO.P,U1,10*%
%TO.N,col3*%
X61336364Y-5989753D03*
%TO.P,U1,11*%
%TO.N,col4*%
X63837776Y-6430820D03*
%TO.P,U1,12*%
%TO.N,Net-(U1-Pad12)*%
X66339188Y-6871886D03*
%TO.P,U1,13*%
%TO.N,Net-(U1-Pad13)*%
X63696262Y-21860660D03*
%TO.P,U1,14*%
%TO.N,Net-(U1-Pad14)*%
X61194851Y-21419594D03*
%TO.P,U1,15*%
%TO.N,Net-(U1-Pad15)*%
X58693439Y-20978527D03*
%TO.P,U1,16*%
%TO.N,Net-(U1-Pad16)*%
X56192027Y-20537461D03*
%TO.P,U1,17*%
%TO.N,Net-(U1-Pad17)*%
X53690616Y-20096395D03*
%TO.P,U1,18*%
%TO.N,Net-(U1-Pad18)*%
X51189204Y-19655328D03*
%TO.P,U1,19*%
%TO.N,Net-(U1-Pad19)*%
X48687792Y-19214262D03*
%TO.P,U1,20*%
%TO.N,row0*%
X46186381Y-18773195D03*
%TO.P,U1,21*%
%TO.N,VCC*%
X43684969Y-18332129D03*
%TO.P,U1,22*%
%TO.N,reset*%
X41183557Y-17891063D03*
%TO.P,U1,23*%
%TO.N,GND*%
X38682146Y-17449996D03*
%TO.P,U1,24*%
%TO.N,Net-(U1-Pad24)*%
X36180734Y-17008930D03*
%TD*%
D17*
%TO.N,GND*%
X28800000Y-29400000D03*
X21400000Y-37700000D03*
X82100000Y-37000000D03*
D18*
X5450000Y-15100000D03*
X1700000Y-36400000D03*
X22500000Y-45500000D03*
X77150000Y-45450000D03*
X98350000Y-36550000D03*
X94450000Y-14900000D03*
X36500000Y-9250000D03*
X20550000Y-14850000D03*
X62000000Y-11250000D03*
X69250000Y-11250000D03*
X63250000Y-29000000D03*
X82500000Y-21250000D03*
X23800000Y-31550000D03*
%TO.N,col0*%
X10700000Y-30300000D03*
X18600000Y-30300000D03*
%TO.N,col2*%
X45100000Y-10800000D03*
%TD*%
D19*
%TO.N,row0*%
X48690000Y-21276814D02*
X46186381Y-18773195D01*
X48690000Y-28920000D02*
X48690000Y-21276814D01*
X50900000Y-31130000D02*
X48690000Y-28920000D01*
X50900000Y-35009002D02*
X50900000Y-31130000D01*
X26990000Y-45250000D02*
X27050000Y-45250000D01*
X28048501Y-46248501D02*
X37651499Y-46248501D01*
X27050000Y-45250000D02*
X28048501Y-46248501D01*
X37651499Y-46248501D02*
X40500000Y-43400000D01*
X40500000Y-43400000D02*
X40500000Y-31500000D01*
X43080000Y-28920000D02*
X48690000Y-28920000D01*
X40500000Y-31500000D02*
X43080000Y-28920000D01*
X17709992Y-35229996D02*
X22489998Y-40010002D01*
X22489998Y-42989998D02*
X24750000Y-45250000D01*
X22489998Y-40010002D02*
X22489998Y-42989998D01*
X8156114Y-35200010D02*
X17709992Y-35200010D01*
X4127556Y-31171452D02*
X8156114Y-35200010D01*
X17709992Y-35200010D02*
X17709992Y-35229996D01*
X4127556Y-20149450D02*
X4127556Y-31171452D01*
X24750000Y-45250000D02*
X26990000Y-45250000D01*
X9138607Y-15138400D02*
X4127556Y-20149450D01*
X9847882Y-15138400D02*
X9138607Y-15138400D01*
X65090000Y-45250000D02*
X61140998Y-45250000D01*
X60810499Y-44919501D02*
X50900000Y-35009002D01*
X61140998Y-45250000D02*
X60810499Y-44919501D01*
X60900998Y-45010000D02*
X60810499Y-44919501D01*
X80270499Y-18979501D02*
X82698400Y-16551600D01*
X80270499Y-29270499D02*
X80270499Y-18979501D01*
X65090000Y-44450998D02*
X80270499Y-29270499D01*
X82698400Y-16551600D02*
X82727882Y-16551600D01*
X65090000Y-45250000D02*
X65090000Y-44450998D01*
%TO.N,Net-(D2-Pad2)*%
X34610000Y-33490000D02*
X33340000Y-32220000D01*
X34610000Y-45250000D02*
X34610000Y-33490000D01*
D20*
%TO.N,GND*%
X38682146Y-22677854D02*
X36110000Y-25250000D01*
X38682146Y-17449996D02*
X38682146Y-22677854D01*
X28800000Y-29400000D02*
X21400000Y-36800000D01*
X21400000Y-36800000D02*
X21400000Y-37700000D01*
X21400000Y-37700000D02*
X21400000Y-37700000D01*
X89372019Y-34460093D02*
X89372019Y-33045880D01*
X86832112Y-37000000D02*
X89372019Y-34460093D01*
X82100000Y-37000000D02*
X86832112Y-37000000D01*
D19*
%TO.N,reset*%
X42597770Y-25237770D02*
X42610000Y-25250000D01*
X42597770Y-25237770D02*
X42279558Y-24886678D01*
X42279558Y-24886678D02*
X41997293Y-24506086D01*
X41997293Y-24506086D02*
X41753691Y-24099661D01*
X41753691Y-24099661D02*
X41551098Y-23671315D01*
X41551098Y-23671315D02*
X41391467Y-23225175D01*
X41391467Y-23225175D02*
X41276333Y-22765536D01*
X41276333Y-22765536D02*
X41206806Y-22296825D01*
X41206806Y-22296825D02*
X41183557Y-21823557D01*
X41183557Y-21823557D02*
X41183557Y-17891063D01*
%TO.N,col0*%
X10487899Y-18340288D02*
X10919660Y-17908527D01*
X8408949Y-20419238D02*
X10487899Y-18340288D01*
X8408949Y-22456989D02*
X8408949Y-20419238D01*
X8408949Y-22456989D02*
X8435204Y-22483244D01*
X8408949Y-22456989D02*
X8408949Y-28008949D01*
X8408949Y-28008949D02*
X10700000Y-30300000D01*
X10700000Y-30300000D02*
X10700000Y-30300000D01*
X53211194Y-5287489D02*
X53832129Y-4666554D01*
X44817900Y-6800002D02*
X44831396Y-6800002D01*
X35852213Y-15199990D02*
X36417912Y-15199990D01*
X31933951Y-25156047D02*
X31933951Y-19683951D01*
X46250000Y-5381398D02*
X46250000Y-5367900D01*
X44831396Y-6800002D02*
X46250000Y-5381398D01*
X34043270Y-17008933D02*
X35852213Y-15199990D01*
X26789998Y-30300000D02*
X31933951Y-25156047D01*
X36417912Y-15199990D02*
X44817900Y-6800002D01*
X46250000Y-5367900D02*
X46330411Y-5287489D01*
X31933951Y-19683951D02*
X34043270Y-17574631D01*
X46330411Y-5287489D02*
X53211194Y-5287489D01*
X34043270Y-17574631D02*
X34043270Y-17008933D01*
X18600000Y-30300000D02*
X26789998Y-30300000D01*
%TO.N,padB*%
X14500000Y-25246300D02*
X20846309Y-18899990D01*
X20846309Y-18899990D02*
X31586514Y-18899990D01*
X14500000Y-31882280D02*
X14500000Y-25246300D01*
X12894039Y-33488241D02*
X14500000Y-31882280D01*
X44118252Y-6368252D02*
X44486523Y-5999982D01*
X44486523Y-5999982D02*
X44500018Y-5999982D01*
X46081148Y-4405356D02*
X48208371Y-4405356D01*
X48208371Y-4405356D02*
X48829306Y-3784421D01*
X44118252Y-6368252D02*
X46081148Y-4405356D01*
X33243250Y-16677555D02*
X35520835Y-14399970D01*
X33243250Y-17206750D02*
X33243250Y-16677555D01*
X31586514Y-18863486D02*
X33243250Y-17206750D01*
X31586514Y-18899990D02*
X31586514Y-18863486D01*
X35520835Y-14399970D02*
X36086536Y-14399970D01*
X36086536Y-14399968D02*
X39743252Y-10743252D01*
X36086536Y-14399970D02*
X36086536Y-14399968D01*
X39743252Y-10743252D02*
X44118252Y-6368252D01*
X36943252Y-13543252D02*
X39743252Y-10743252D01*
%TO.N,padA*%
X44652212Y-6399992D02*
X44665707Y-6399992D01*
X21011998Y-19300000D02*
X31752204Y-19300000D01*
X33643260Y-16843244D02*
X35686524Y-14799980D01*
X31752204Y-19300000D02*
X33643260Y-17408944D01*
X14900010Y-32047969D02*
X14900010Y-25411988D01*
X36252224Y-14799980D02*
X44652212Y-6399992D01*
X10150000Y-34800000D02*
X13500000Y-34800000D01*
X14900000Y-33400000D02*
X14900000Y-32047979D01*
X14900010Y-25411988D02*
X21011998Y-19300000D01*
X14900000Y-32047979D02*
X14900010Y-32047969D01*
X50709784Y-4846422D02*
X51330718Y-4225488D01*
X13500000Y-34800000D02*
X14900000Y-33400000D01*
X45850000Y-5202202D02*
X46205780Y-4846422D01*
X45850000Y-5215699D02*
X45850000Y-5202202D01*
X44665707Y-6399992D02*
X45850000Y-5215699D01*
X33643260Y-17408944D02*
X33643260Y-16843244D01*
X46205780Y-4846422D02*
X50709784Y-4846422D01*
X35686524Y-14799980D02*
X36252224Y-14799980D01*
X7970000Y-32620000D02*
X10150000Y-34800000D01*
%TO.N,col1*%
X29550001Y-32199999D02*
X26990000Y-34760000D01*
X29550001Y-29262001D02*
X29550001Y-32199999D01*
X26990000Y-34760000D02*
X29552848Y-32197152D01*
X55691162Y-5750000D02*
X56333541Y-5107621D01*
X36017902Y-15600000D02*
X36583600Y-15600000D01*
X46447096Y-5750000D02*
X55691162Y-5750000D01*
X34443280Y-17740320D02*
X34443280Y-17174622D01*
X44983590Y-7200010D02*
X44997086Y-7200010D01*
X36583600Y-15600000D02*
X44983590Y-7200010D01*
X34443280Y-17174622D02*
X36017902Y-15600000D01*
X44997086Y-7200010D02*
X46447096Y-5750000D01*
X32333961Y-19849639D02*
X34443280Y-17740320D01*
X32333961Y-25321736D02*
X32333961Y-19849639D01*
X29550001Y-32199999D02*
X29550001Y-28105695D01*
X29550001Y-28105695D02*
X32333961Y-25321736D01*
%TO.N,col2*%
X45100000Y-10800000D02*
X45100000Y-10800000D01*
X45100000Y-10800000D02*
X49749990Y-6150010D01*
X58214018Y-6169622D02*
X58834953Y-5548687D01*
X55823780Y-6169622D02*
X58214018Y-6169622D01*
X55804168Y-6150010D02*
X55823780Y-6169622D01*
X49749990Y-6150010D02*
X55804168Y-6150010D01*
%TO.N,col3*%
X65090000Y-9743389D02*
X61336364Y-5989753D01*
X65090000Y-34760000D02*
X65090000Y-9743389D01*
%TD*%
D21*
%TO.N,GND*%
X72602810Y-7323552D02*
X72713551Y-7345563D01*
X72814735Y-7370433D01*
X72913845Y-7399545D01*
X73010858Y-7432798D01*
X73105675Y-7470074D01*
X73198265Y-7511282D01*
X73288528Y-7556307D01*
X73376434Y-7605072D01*
X73461841Y-7657442D01*
X73544696Y-7713332D01*
X73624894Y-7772626D01*
X73702357Y-7835231D01*
X73776969Y-7901024D01*
X73848638Y-7969893D01*
X73917252Y-8041717D01*
X73982731Y-8116397D01*
X74044957Y-8193797D01*
X74103831Y-8273796D01*
X74159263Y-8356285D01*
X74211170Y-8441167D01*
X74259428Y-8528274D01*
X74303968Y-8617532D01*
X74344687Y-8708801D01*
X74381494Y-8801971D01*
X74414323Y-8896985D01*
X74443064Y-8993685D01*
X74467639Y-9092003D01*
X74487960Y-9191852D01*
X74503934Y-9293142D01*
X74515468Y-9395788D01*
X74522466Y-9499748D01*
X74524996Y-9612658D01*
X74524996Y-12630018D01*
X74526219Y-12642493D01*
X74525452Y-12655003D01*
X74525867Y-12664559D01*
X74531029Y-12766799D01*
X74535437Y-12796324D01*
X74536623Y-12826147D01*
X74538000Y-12835611D01*
X74553154Y-12934900D01*
X74562531Y-12971746D01*
X74568765Y-13009257D01*
X74571311Y-13018476D01*
X74611674Y-13160772D01*
X74628447Y-13203491D01*
X74642563Y-13247155D01*
X74646440Y-13255899D01*
X74706455Y-13388721D01*
X74728928Y-13427779D01*
X74748866Y-13468199D01*
X74753971Y-13476287D01*
X74831940Y-13597942D01*
X74859480Y-13632869D01*
X74884672Y-13669526D01*
X74890883Y-13676799D01*
X74985112Y-13785588D01*
X75017212Y-13816052D01*
X75047234Y-13848583D01*
X75054420Y-13854895D01*
X75163210Y-13949122D01*
X75199518Y-13974826D01*
X75234046Y-14002842D01*
X75242062Y-14008059D01*
X75363720Y-14086028D01*
X75403853Y-14106526D01*
X75442603Y-14129547D01*
X75451291Y-14133546D01*
X75584119Y-14193560D01*
X75627576Y-14208281D01*
X75670055Y-14225648D01*
X75679238Y-14228322D01*
X75821537Y-14268685D01*
X75858951Y-14275441D01*
X75895669Y-14285333D01*
X75905114Y-14286842D01*
X76004406Y-14301996D01*
X76034210Y-14303598D01*
X76063660Y-14308416D01*
X76073208Y-14308965D01*
X76175454Y-14314128D01*
X76187976Y-14313535D01*
X76200436Y-14314933D01*
X76210000Y-14315000D01*
X89259664Y-14315000D01*
X89196321Y-14378343D01*
X89050386Y-14596751D01*
X88949864Y-14839432D01*
X88898618Y-15097062D01*
X88898618Y-15359738D01*
X88949864Y-15617368D01*
X89050386Y-15860049D01*
X89196321Y-16078457D01*
X89382061Y-16264197D01*
X89600469Y-16410132D01*
X89843150Y-16510654D01*
X90100780Y-16561900D01*
X90363456Y-16561900D01*
X90621086Y-16510654D01*
X90863767Y-16410132D01*
X91082175Y-16264197D01*
X91267915Y-16078457D01*
X91413850Y-15860049D01*
X91514372Y-15617368D01*
X91565618Y-15359738D01*
X91565618Y-15097062D01*
X91514372Y-14839432D01*
X91413850Y-14596751D01*
X91267915Y-14378343D01*
X91204572Y-14315000D01*
X94777392Y-14315000D01*
X94814043Y-14316639D01*
X94862669Y-14324291D01*
X94901532Y-14335828D01*
X94938375Y-14352249D01*
X94972852Y-14373315D01*
X95004418Y-14398674D01*
X95032450Y-14427824D01*
X95056448Y-14460257D01*
X95076069Y-14495594D01*
X95091102Y-14533787D01*
X95106885Y-14597880D01*
X99003799Y-36696861D01*
X99010046Y-36746946D01*
X99010577Y-36769914D01*
X99005056Y-36823915D01*
X98993918Y-36867558D01*
X98976505Y-36909270D01*
X98953166Y-36948266D01*
X98924498Y-36983533D01*
X98891250Y-37014161D01*
X98854051Y-37039545D01*
X98805180Y-37063201D01*
X98783422Y-37070553D01*
X98734211Y-37081810D01*
X91165890Y-38415092D01*
X87686402Y-37677110D01*
X87625309Y-37670285D01*
X87564333Y-37662498D01*
X87558926Y-37662869D01*
X87553539Y-37662267D01*
X87492261Y-37667440D01*
X87430957Y-37671643D01*
X87421536Y-37673291D01*
X78350040Y-39325515D01*
X78347286Y-39326301D01*
X78344426Y-39326561D01*
X78282976Y-39344647D01*
X78221480Y-39362190D01*
X78218929Y-39363497D01*
X78216176Y-39364307D01*
X78159430Y-39393973D01*
X78102493Y-39423137D01*
X78100244Y-39424914D01*
X78097701Y-39426244D01*
X78047778Y-39466384D01*
X77997610Y-39506036D01*
X77995750Y-39508215D01*
X77993513Y-39510014D01*
X77952336Y-39559087D01*
X77910826Y-39607727D01*
X77909425Y-39610226D01*
X77907579Y-39612426D01*
X77876709Y-39668578D01*
X77845446Y-39724339D01*
X77844557Y-39727062D01*
X77843174Y-39729578D01*
X77823799Y-39790657D01*
X77803962Y-39851428D01*
X77803619Y-39854272D01*
X77802751Y-39857008D01*
X77795616Y-39920615D01*
X77787952Y-39984155D01*
X77788168Y-39987017D01*
X77787849Y-39989864D01*
X77787782Y-39999428D01*
X77787782Y-46038092D01*
X73787201Y-46038092D01*
X73891732Y-45881649D01*
X73992254Y-45638968D01*
X74043500Y-45381338D01*
X74043500Y-45118662D01*
X73992254Y-44861032D01*
X73891732Y-44618351D01*
X73745797Y-44399943D01*
X73560057Y-44214203D01*
X73341649Y-44068268D01*
X73098968Y-43967746D01*
X72841338Y-43916500D01*
X72578662Y-43916500D01*
X72321032Y-43967746D01*
X72078351Y-44068268D01*
X71859943Y-44214203D01*
X71674203Y-44399943D01*
X71528268Y-44618351D01*
X71427746Y-44861032D01*
X71376500Y-45118662D01*
X71376500Y-45381338D01*
X71427746Y-45638968D01*
X71528268Y-45881649D01*
X71632799Y-46038092D01*
X70774328Y-46038092D01*
X70772798Y-46038242D01*
X70771258Y-46038098D01*
X70706190Y-46044773D01*
X70641277Y-46051138D01*
X70639800Y-46051584D01*
X70638268Y-46051741D01*
X70575794Y-46070909D01*
X70513295Y-46089778D01*
X70511936Y-46090500D01*
X70510458Y-46090954D01*
X70452841Y-46121922D01*
X70395255Y-46152541D01*
X70394060Y-46153515D01*
X70392701Y-46154246D01*
X70342221Y-46195794D01*
X70291654Y-46237036D01*
X70290672Y-46238223D01*
X70289480Y-46239204D01*
X70248043Y-46289752D01*
X70206437Y-46340045D01*
X70205704Y-46341402D01*
X70204726Y-46342594D01*
X70199469Y-46350584D01*
X69187423Y-47912385D01*
X59449863Y-50519580D01*
X40287343Y-50519580D01*
X30531178Y-47912128D01*
X29928015Y-46983501D01*
X37615394Y-46983501D01*
X37651499Y-46987057D01*
X37687604Y-46983501D01*
X37795584Y-46972866D01*
X37934132Y-46930838D01*
X38061819Y-46862588D01*
X38106581Y-46825852D01*
X46975000Y-46825852D01*
X46975000Y-47394148D01*
X47085869Y-47951523D01*
X47303346Y-48476560D01*
X47619074Y-48949080D01*
X48020920Y-49350926D01*
X48493440Y-49666654D01*
X49018477Y-49884131D01*
X49575852Y-49995000D01*
X50144148Y-49995000D01*
X50701523Y-49884131D01*
X51226560Y-49666654D01*
X51699080Y-49350926D01*
X52100926Y-48949080D01*
X52416654Y-48476560D01*
X52634131Y-47951523D01*
X52745000Y-47394148D01*
X52745000Y-46825852D01*
X52634131Y-46268477D01*
X52416654Y-45743440D01*
X52100926Y-45270920D01*
X51699080Y-44869074D01*
X51226560Y-44553346D01*
X50701523Y-44335869D01*
X50144148Y-44225000D01*
X49575852Y-44225000D01*
X49018477Y-44335869D01*
X48493440Y-44553346D01*
X48020920Y-44869074D01*
X47619074Y-45270920D01*
X47303346Y-45743440D01*
X47085869Y-46268477D01*
X46975000Y-46825852D01*
X38106581Y-46825852D01*
X38173737Y-46770739D01*
X38196758Y-46742688D01*
X40994197Y-43945250D01*
X41022237Y-43922238D01*
X41045250Y-43894197D01*
X41045253Y-43894194D01*
X41114087Y-43810320D01*
X41182337Y-43682634D01*
X41224365Y-43544085D01*
X41238556Y-43400000D01*
X41235000Y-43363895D01*
X41235000Y-37151278D01*
X43260000Y-37151278D01*
X43260000Y-37448722D01*
X43318029Y-37740451D01*
X43431856Y-38015253D01*
X43597107Y-38262569D01*
X43807431Y-38472893D01*
X44054747Y-38638144D01*
X44329549Y-38751971D01*
X44621278Y-38810000D01*
X44918722Y-38810000D01*
X45210451Y-38751971D01*
X45485253Y-38638144D01*
X45732569Y-38472893D01*
X45942893Y-38262569D01*
X46108144Y-38015253D01*
X46221971Y-37740451D01*
X46280000Y-37448722D01*
X46280000Y-37151278D01*
X46221971Y-36859549D01*
X46108144Y-36584747D01*
X46064882Y-36520000D01*
X46213345Y-36520000D01*
X46553373Y-36452364D01*
X46873673Y-36319692D01*
X47161935Y-36127081D01*
X47407081Y-35881935D01*
X47599692Y-35593673D01*
X47732364Y-35273373D01*
X47800000Y-34933345D01*
X47800000Y-34586655D01*
X47732364Y-34246627D01*
X47599692Y-33926327D01*
X47407081Y-33638065D01*
X47161935Y-33392919D01*
X46873673Y-33200308D01*
X46553373Y-33067636D01*
X46213345Y-33000000D01*
X45866655Y-33000000D01*
X45526627Y-33067636D01*
X45206327Y-33200308D01*
X44918065Y-33392919D01*
X44672919Y-33638065D01*
X44480308Y-33926327D01*
X44347636Y-34246627D01*
X44280000Y-34586655D01*
X44280000Y-34933345D01*
X44347636Y-35273373D01*
X44480308Y-35593673D01*
X44612638Y-35791719D01*
X44329549Y-35848029D01*
X44054747Y-35961856D01*
X43807431Y-36127107D01*
X43597107Y-36337431D01*
X43431856Y-36584747D01*
X43318029Y-36859549D01*
X43260000Y-37151278D01*
X41235000Y-37151278D01*
X41235000Y-31804446D01*
X43384447Y-29655000D01*
X47357023Y-29655000D01*
X47365688Y-29742982D01*
X47401998Y-29862680D01*
X47460963Y-29972994D01*
X47540315Y-30069685D01*
X47637006Y-30149037D01*
X47747320Y-30208002D01*
X47867018Y-30244312D01*
X47991500Y-30256572D01*
X48987126Y-30256572D01*
X50165001Y-31434448D01*
X50165000Y-34682254D01*
X50108924Y-34671100D01*
X49591076Y-34671100D01*
X49083178Y-34772127D01*
X48604749Y-34970299D01*
X48174174Y-35258000D01*
X47808000Y-35624174D01*
X47520299Y-36054749D01*
X47322127Y-36533178D01*
X47221100Y-37041076D01*
X47221100Y-37558924D01*
X47322127Y-38066822D01*
X47520299Y-38545251D01*
X47808000Y-38975826D01*
X48174174Y-39342000D01*
X48604749Y-39629701D01*
X49083178Y-39827873D01*
X49591076Y-39928900D01*
X50108924Y-39928900D01*
X50616822Y-39827873D01*
X51095251Y-39629701D01*
X51525826Y-39342000D01*
X51892000Y-38975826D01*
X52179701Y-38545251D01*
X52377873Y-38066822D01*
X52467548Y-37615996D01*
X60316305Y-45464754D01*
X60316311Y-45464759D01*
X60595739Y-45744187D01*
X60618760Y-45772238D01*
X60730678Y-45864087D01*
X60858365Y-45932337D01*
X60954884Y-45961616D01*
X60996912Y-45974365D01*
X61011130Y-45975765D01*
X61104893Y-45985000D01*
X61104900Y-45985000D01*
X61140997Y-45988555D01*
X61177094Y-45985000D01*
X63757023Y-45985000D01*
X63765688Y-46072982D01*
X63801998Y-46192680D01*
X63860963Y-46302994D01*
X63940315Y-46399685D01*
X64037006Y-46479037D01*
X64147320Y-46538002D01*
X64267018Y-46574312D01*
X64391500Y-46586572D01*
X65788500Y-46586572D01*
X65912982Y-46574312D01*
X66032680Y-46538002D01*
X66142994Y-46479037D01*
X66239685Y-46399685D01*
X66319037Y-46302994D01*
X66378002Y-46192680D01*
X66414312Y-46072982D01*
X66426572Y-45948500D01*
X66426572Y-44551500D01*
X66414312Y-44427018D01*
X66378002Y-44307320D01*
X66341470Y-44238974D01*
X72619401Y-37961043D01*
X72641856Y-38015253D01*
X72807107Y-38262569D01*
X73017431Y-38472893D01*
X73264747Y-38638144D01*
X73539549Y-38751971D01*
X73831278Y-38810000D01*
X74128722Y-38810000D01*
X74420451Y-38751971D01*
X74695253Y-38638144D01*
X74942569Y-38472893D01*
X75152893Y-38262569D01*
X75318144Y-38015253D01*
X75431971Y-37740451D01*
X75490000Y-37448722D01*
X75490000Y-37151278D01*
X75431971Y-36859549D01*
X75318144Y-36584747D01*
X75152893Y-36337431D01*
X74942569Y-36127107D01*
X74695253Y-35961856D01*
X74641043Y-35939401D01*
X77925524Y-32654920D01*
X85113624Y-32654920D01*
X85123166Y-32779640D01*
X85470462Y-34749256D01*
X85504152Y-34869717D01*
X85560695Y-34981292D01*
X85637920Y-35079691D01*
X85732857Y-35161134D01*
X85841858Y-35222491D01*
X85960736Y-35261403D01*
X86084920Y-35276376D01*
X86209640Y-35266834D01*
X88179256Y-34919538D01*
X88299717Y-34885848D01*
X88411292Y-34829305D01*
X88509691Y-34752080D01*
X88591134Y-34657143D01*
X88652491Y-34548142D01*
X88689076Y-34436374D01*
X88768116Y-34573773D01*
X89077797Y-34662231D01*
X89398785Y-34688573D01*
X89718744Y-34651787D01*
X90025379Y-34553287D01*
X90306905Y-34396858D01*
X90462072Y-34275083D01*
X90510469Y-33998070D01*
X89403207Y-33222757D01*
X88700365Y-34226518D01*
X88696834Y-34180360D01*
X88654910Y-33942597D01*
X89357878Y-33239629D01*
X89178270Y-33060021D01*
X89175192Y-33063099D01*
X88404702Y-32523596D01*
X88349538Y-32210744D01*
X88337069Y-32166162D01*
X89340831Y-32869003D01*
X89352644Y-32852131D01*
X89386160Y-32852131D01*
X89565768Y-33031739D01*
X89568846Y-33028661D01*
X90656157Y-33790005D01*
X90684018Y-33773977D01*
X90791787Y-33881746D01*
X91059576Y-34060677D01*
X91357127Y-34183927D01*
X91673006Y-34246759D01*
X91995072Y-34246759D01*
X92310951Y-34183927D01*
X92608502Y-34060677D01*
X92876291Y-33881746D01*
X93104026Y-33654011D01*
X93282957Y-33386222D01*
X93406207Y-33088671D01*
X93469039Y-32772792D01*
X93469039Y-32450726D01*
X93406207Y-32134847D01*
X93282957Y-31837296D01*
X93104026Y-31569507D01*
X92876291Y-31341772D01*
X92608502Y-31162841D01*
X92310951Y-31039591D01*
X91995072Y-30976759D01*
X91673006Y-30976759D01*
X91357127Y-31039591D01*
X91059576Y-31162841D01*
X90791787Y-31341772D01*
X90564052Y-31569507D01*
X90385121Y-31837296D01*
X90373896Y-31864395D01*
X90329872Y-31908419D01*
X90324209Y-31907430D01*
X90308672Y-31929619D01*
X89386160Y-32852131D01*
X89352644Y-32852131D01*
X90116144Y-31761742D01*
X89975922Y-31517987D01*
X89666241Y-31429529D01*
X89345253Y-31403187D01*
X89025294Y-31439973D01*
X88718659Y-31538473D01*
X88437133Y-31694902D01*
X88281966Y-31816677D01*
X88254686Y-31972822D01*
X88182080Y-31880309D01*
X88087143Y-31798866D01*
X87978142Y-31737509D01*
X87859264Y-31698597D01*
X87735080Y-31683624D01*
X87610360Y-31693166D01*
X85640744Y-32040462D01*
X85520283Y-32074152D01*
X85408708Y-32130695D01*
X85310309Y-32207920D01*
X85228866Y-32302857D01*
X85167509Y-32411858D01*
X85128597Y-32530736D01*
X85113624Y-32654920D01*
X77925524Y-32654920D01*
X80764697Y-29815748D01*
X80792736Y-29792737D01*
X80815749Y-29764696D01*
X80815752Y-29764693D01*
X80884586Y-29680819D01*
X80952836Y-29553133D01*
X80994864Y-29414584D01*
X81009055Y-29270499D01*
X81005499Y-29234394D01*
X81005499Y-28289967D01*
X81086416Y-28359382D01*
X81435736Y-28556014D01*
X81816705Y-28680719D01*
X82214682Y-28728704D01*
X82514214Y-28705788D01*
X83301998Y-28566881D01*
X83591304Y-28485970D01*
X83948869Y-28304763D01*
X84264212Y-28057281D01*
X84525214Y-27753034D01*
X84721846Y-27403714D01*
X84846550Y-27022745D01*
X84894536Y-26624769D01*
X84863957Y-26225076D01*
X84755990Y-25839030D01*
X84574783Y-25481465D01*
X84513389Y-25403237D01*
X84639317Y-25351076D01*
X85421100Y-25351076D01*
X85421100Y-25868924D01*
X85522127Y-26376822D01*
X85720299Y-26855251D01*
X86008000Y-27285826D01*
X86374174Y-27652000D01*
X86804749Y-27939701D01*
X87283178Y-28137873D01*
X87791076Y-28238900D01*
X88308924Y-28238900D01*
X88816822Y-28137873D01*
X89295251Y-27939701D01*
X89725826Y-27652000D01*
X90092000Y-27285826D01*
X90379701Y-26855251D01*
X90577873Y-26376822D01*
X90678900Y-25868924D01*
X90678900Y-25351076D01*
X90577873Y-24843178D01*
X90516444Y-24694875D01*
X91244779Y-24694875D01*
X91275358Y-25094567D01*
X91383325Y-25480613D01*
X91564532Y-25838178D01*
X91812014Y-26153522D01*
X92116261Y-26414523D01*
X92465581Y-26611155D01*
X92846550Y-26735860D01*
X93244527Y-26783845D01*
X93544059Y-26760929D01*
X94331843Y-26622022D01*
X94621149Y-26541111D01*
X94978714Y-26359904D01*
X95294057Y-26112422D01*
X95555059Y-25808175D01*
X95751691Y-25458855D01*
X95876395Y-25077886D01*
X95924381Y-24679910D01*
X95893802Y-24280217D01*
X95785835Y-23894171D01*
X95604628Y-23536606D01*
X95357146Y-23221262D01*
X95052899Y-22960261D01*
X94703579Y-22763629D01*
X94322610Y-22638924D01*
X93924632Y-22590939D01*
X93625100Y-22613855D01*
X92837317Y-22752762D01*
X92548011Y-22833673D01*
X92190446Y-23014880D01*
X91875102Y-23262362D01*
X91614101Y-23566609D01*
X91417469Y-23915929D01*
X91292764Y-24296898D01*
X91244779Y-24694875D01*
X90516444Y-24694875D01*
X90379701Y-24364749D01*
X90092000Y-23934174D01*
X89725826Y-23568000D01*
X89295251Y-23280299D01*
X88816822Y-23082127D01*
X88308924Y-22981100D01*
X87791076Y-22981100D01*
X87283178Y-23082127D01*
X86804749Y-23280299D01*
X86374174Y-23568000D01*
X86008000Y-23934174D01*
X85720299Y-24364749D01*
X85522127Y-24843178D01*
X85421100Y-25351076D01*
X84639317Y-25351076D01*
X84690489Y-25329880D01*
X84978751Y-25137269D01*
X85223897Y-24892123D01*
X85416508Y-24603861D01*
X85549180Y-24283561D01*
X85616816Y-23943533D01*
X85616816Y-23596843D01*
X85549180Y-23256815D01*
X85416508Y-22936515D01*
X85223897Y-22648253D01*
X84978751Y-22403107D01*
X84690489Y-22210496D01*
X84370189Y-22077824D01*
X84030161Y-22010188D01*
X83683471Y-22010188D01*
X83343443Y-22077824D01*
X83023143Y-22210496D01*
X82734881Y-22403107D01*
X82489735Y-22648253D01*
X82297124Y-22936515D01*
X82164452Y-23256815D01*
X82096816Y-23596843D01*
X82096816Y-23943533D01*
X82164452Y-24283561D01*
X82297124Y-24603861D01*
X82301560Y-24610500D01*
X81807472Y-24697621D01*
X81518166Y-24778532D01*
X81160601Y-24959739D01*
X81005499Y-25081463D01*
X81005499Y-19283947D01*
X82306325Y-17983122D01*
X83616555Y-17752093D01*
X83349849Y-17930301D01*
X83122114Y-18158036D01*
X82943183Y-18425825D01*
X82819933Y-18723376D01*
X82757101Y-19039255D01*
X82757101Y-19361321D01*
X82819933Y-19677200D01*
X82943183Y-19974751D01*
X83122114Y-20242540D01*
X83349849Y-20470275D01*
X83617638Y-20649206D01*
X83915189Y-20772456D01*
X84231068Y-20835288D01*
X84553134Y-20835288D01*
X84869013Y-20772456D01*
X85166564Y-20649206D01*
X85434353Y-20470275D01*
X85662088Y-20242540D01*
X85841019Y-19974751D01*
X85964269Y-19677200D01*
X86027101Y-19361321D01*
X86027101Y-19039255D01*
X85964269Y-18723376D01*
X85841019Y-18425825D01*
X85670760Y-18171014D01*
X87681140Y-18171014D01*
X87681140Y-18493080D01*
X87743972Y-18808959D01*
X87867222Y-19106510D01*
X88046153Y-19374299D01*
X88078747Y-19406893D01*
X87976915Y-19652737D01*
X87909279Y-19992765D01*
X87909279Y-20339455D01*
X87976915Y-20679483D01*
X88109587Y-20999783D01*
X88302198Y-21288045D01*
X88547344Y-21533191D01*
X88835606Y-21725802D01*
X89155906Y-21858474D01*
X89495934Y-21926110D01*
X89842624Y-21926110D01*
X90182652Y-21858474D01*
X90502952Y-21725802D01*
X90791214Y-21533191D01*
X91036360Y-21288045D01*
X91228971Y-20999783D01*
X91361643Y-20679483D01*
X91429279Y-20339455D01*
X91429279Y-19992765D01*
X91361643Y-19652737D01*
X91228971Y-19332437D01*
X91036360Y-19044175D01*
X90862778Y-18870593D01*
X90888308Y-18808959D01*
X90951140Y-18493080D01*
X90951140Y-18171014D01*
X90888308Y-17855135D01*
X90765058Y-17557584D01*
X90586127Y-17289795D01*
X90358392Y-17062060D01*
X90090603Y-16883129D01*
X89793052Y-16759879D01*
X89477173Y-16697047D01*
X89155107Y-16697047D01*
X88839228Y-16759879D01*
X88541677Y-16883129D01*
X88273888Y-17062060D01*
X88046153Y-17289795D01*
X87867222Y-17557584D01*
X87743972Y-17855135D01*
X87681140Y-18171014D01*
X85670760Y-18171014D01*
X85662088Y-18158036D01*
X85434353Y-17930301D01*
X85166564Y-17751370D01*
X84869013Y-17628120D01*
X84553134Y-17565288D01*
X84231068Y-17565288D01*
X83916083Y-17627942D01*
X83978298Y-17579115D01*
X84059741Y-17484178D01*
X84121098Y-17375177D01*
X84160010Y-17256299D01*
X84174983Y-17132115D01*
X84165441Y-17007395D01*
X83922855Y-15631619D01*
X83889165Y-15511158D01*
X83832622Y-15399583D01*
X83755397Y-15301184D01*
X83660460Y-15219741D01*
X83551459Y-15158384D01*
X83432581Y-15119472D01*
X83308397Y-15104499D01*
X83183677Y-15114041D01*
X81807901Y-15356627D01*
X81687440Y-15390317D01*
X81575865Y-15446860D01*
X81477466Y-15524085D01*
X81396023Y-15619022D01*
X81334666Y-15728023D01*
X81295754Y-15846901D01*
X81280781Y-15971085D01*
X81290323Y-16095805D01*
X81413901Y-16796652D01*
X79776307Y-18434247D01*
X79748262Y-18457263D01*
X79656413Y-18569181D01*
X79620910Y-18635603D01*
X79588163Y-18696868D01*
X79546134Y-18835416D01*
X79531943Y-18979501D01*
X79535500Y-19015616D01*
X79535499Y-28966052D01*
X71517548Y-36984004D01*
X71427873Y-36533178D01*
X71229701Y-36054749D01*
X70942000Y-35624174D01*
X70575826Y-35258000D01*
X70145251Y-34970299D01*
X69666822Y-34772127D01*
X69158924Y-34671100D01*
X68641076Y-34671100D01*
X68133178Y-34772127D01*
X67654749Y-34970299D01*
X67224174Y-35258000D01*
X66858000Y-35624174D01*
X66570299Y-36054749D01*
X66372127Y-36533178D01*
X66271100Y-37041076D01*
X66271100Y-37558924D01*
X66372127Y-38066822D01*
X66570299Y-38545251D01*
X66858000Y-38975826D01*
X67224174Y-39342000D01*
X67654749Y-39629701D01*
X68133178Y-39827873D01*
X68584004Y-39917548D01*
X64595808Y-43905744D01*
X64586445Y-43913428D01*
X64391500Y-43913428D01*
X64267018Y-43925688D01*
X64147320Y-43961998D01*
X64037006Y-44020963D01*
X63940315Y-44100315D01*
X63860963Y-44197006D01*
X63801998Y-44307320D01*
X63765688Y-44427018D01*
X63757023Y-44515000D01*
X61445444Y-44515000D01*
X61355757Y-44425313D01*
X61355752Y-44425307D01*
X55591043Y-38660599D01*
X55645253Y-38638144D01*
X55892569Y-38472893D01*
X56102893Y-38262569D01*
X56268144Y-38015253D01*
X56381971Y-37740451D01*
X56440000Y-37448722D01*
X56440000Y-37151278D01*
X56381971Y-36859549D01*
X56268144Y-36584747D01*
X56102893Y-36337431D01*
X55892569Y-36127107D01*
X55645253Y-35961856D01*
X55370451Y-35848029D01*
X55078722Y-35790000D01*
X54781278Y-35790000D01*
X54489549Y-35848029D01*
X54214747Y-35961856D01*
X53967431Y-36127107D01*
X53757107Y-36337431D01*
X53591856Y-36584747D01*
X53569401Y-36638957D01*
X51635000Y-34704556D01*
X51635000Y-33812279D01*
X51876627Y-33912364D01*
X52216655Y-33980000D01*
X52563345Y-33980000D01*
X52903373Y-33912364D01*
X53223673Y-33779692D01*
X53511935Y-33587081D01*
X53757081Y-33341935D01*
X53949692Y-33053673D01*
X54082364Y-32733373D01*
X54150000Y-32393345D01*
X54150000Y-32046655D01*
X54082364Y-31706627D01*
X53949692Y-31386327D01*
X53757081Y-31098065D01*
X53511935Y-30852919D01*
X53223673Y-30660308D01*
X52903373Y-30527636D01*
X52563345Y-30460000D01*
X52216655Y-30460000D01*
X51876627Y-30527636D01*
X51556327Y-30660308D01*
X51497578Y-30699563D01*
X51422238Y-30607762D01*
X51394193Y-30584746D01*
X50026572Y-29217126D01*
X50026572Y-28788662D01*
X54976500Y-28788662D01*
X54976500Y-29051338D01*
X55027746Y-29308968D01*
X55128268Y-29551649D01*
X55274203Y-29770057D01*
X55459943Y-29955797D01*
X55678351Y-30101732D01*
X55921032Y-30202254D01*
X56178662Y-30253500D01*
X56441338Y-30253500D01*
X56698968Y-30202254D01*
X56941649Y-30101732D01*
X57160057Y-29955797D01*
X57345797Y-29770057D01*
X57491732Y-29551649D01*
X57592254Y-29308968D01*
X57643500Y-29051338D01*
X57643500Y-28788662D01*
X57592254Y-28531032D01*
X57491732Y-28288351D01*
X57345797Y-28069943D01*
X57160057Y-27884203D01*
X56941649Y-27738268D01*
X56698968Y-27637746D01*
X56441338Y-27586500D01*
X56178662Y-27586500D01*
X55921032Y-27637746D01*
X55678351Y-27738268D01*
X55459943Y-27884203D01*
X55274203Y-28069943D01*
X55128268Y-28288351D01*
X55027746Y-28531032D01*
X54976500Y-28788662D01*
X50026572Y-28788662D01*
X50026572Y-28221500D01*
X50014312Y-28097018D01*
X49978002Y-27977320D01*
X49919037Y-27867006D01*
X49839685Y-27770315D01*
X49742994Y-27690963D01*
X49632680Y-27631998D01*
X49512982Y-27595688D01*
X49425000Y-27587023D01*
X49425000Y-21312919D01*
X49428556Y-21276814D01*
X49414365Y-21132729D01*
X49400157Y-21085891D01*
X49372337Y-20994181D01*
X49304087Y-20866494D01*
X49212238Y-20754576D01*
X49184193Y-20731560D01*
X49024323Y-20571691D01*
X49095282Y-20557576D01*
X49349519Y-20452267D01*
X49578327Y-20299382D01*
X49772912Y-20104797D01*
X49835583Y-20011003D01*
X49845890Y-20062818D01*
X49951199Y-20317055D01*
X50104084Y-20545863D01*
X50298669Y-20740448D01*
X50527477Y-20893333D01*
X50781714Y-20998642D01*
X51051612Y-21052328D01*
X51326796Y-21052328D01*
X51596694Y-20998642D01*
X51850931Y-20893333D01*
X52079739Y-20740448D01*
X52274324Y-20545863D01*
X52336995Y-20452069D01*
X52347302Y-20503885D01*
X52452611Y-20758122D01*
X52605496Y-20986930D01*
X52800081Y-21181515D01*
X53028889Y-21334400D01*
X53283126Y-21439709D01*
X53553024Y-21493395D01*
X53828208Y-21493395D01*
X54098106Y-21439709D01*
X54352343Y-21334400D01*
X54581151Y-21181515D01*
X54775736Y-20986930D01*
X54838407Y-20893137D01*
X54848713Y-20944951D01*
X54954022Y-21199188D01*
X55106907Y-21427996D01*
X55301492Y-21622581D01*
X55530300Y-21775466D01*
X55784537Y-21880775D01*
X56054435Y-21934461D01*
X56329619Y-21934461D01*
X56599517Y-21880775D01*
X56853754Y-21775466D01*
X57082562Y-21622581D01*
X57277147Y-21427996D01*
X57339818Y-21334202D01*
X57350125Y-21386017D01*
X57455434Y-21640254D01*
X57608319Y-21869062D01*
X57802904Y-22063647D01*
X58031712Y-22216532D01*
X58285949Y-22321841D01*
X58555847Y-22375527D01*
X58831031Y-22375527D01*
X59100929Y-22321841D01*
X59355166Y-22216532D01*
X59583974Y-22063647D01*
X59778559Y-21869062D01*
X59841230Y-21775268D01*
X59851537Y-21827084D01*
X59956846Y-22081321D01*
X60109731Y-22310129D01*
X60304316Y-22504714D01*
X60533124Y-22657599D01*
X60787361Y-22762908D01*
X61057259Y-22816594D01*
X61332443Y-22816594D01*
X61602341Y-22762908D01*
X61856578Y-22657599D01*
X62085386Y-22504714D01*
X62279971Y-22310129D01*
X62342642Y-22216336D01*
X62352948Y-22268150D01*
X62458257Y-22522387D01*
X62611142Y-22751195D01*
X62805727Y-22945780D01*
X63034535Y-23098665D01*
X63288772Y-23203974D01*
X63558670Y-23257660D01*
X63833854Y-23257660D01*
X64103752Y-23203974D01*
X64355000Y-23099903D01*
X64355000Y-33159436D01*
X64256327Y-33200308D01*
X63968065Y-33392919D01*
X63722919Y-33638065D01*
X63530308Y-33926327D01*
X63397636Y-34246627D01*
X63330000Y-34586655D01*
X63330000Y-34933345D01*
X63397636Y-35273373D01*
X63530308Y-35593673D01*
X63662638Y-35791719D01*
X63379549Y-35848029D01*
X63104747Y-35961856D01*
X62857431Y-36127107D01*
X62647107Y-36337431D01*
X62481856Y-36584747D01*
X62368029Y-36859549D01*
X62310000Y-37151278D01*
X62310000Y-37448722D01*
X62368029Y-37740451D01*
X62481856Y-38015253D01*
X62647107Y-38262569D01*
X62857431Y-38472893D01*
X63104747Y-38638144D01*
X63379549Y-38751971D01*
X63671278Y-38810000D01*
X63968722Y-38810000D01*
X64260451Y-38751971D01*
X64535253Y-38638144D01*
X64782569Y-38472893D01*
X64992893Y-38262569D01*
X65158144Y-38015253D01*
X65271971Y-37740451D01*
X65330000Y-37448722D01*
X65330000Y-37151278D01*
X65271971Y-36859549D01*
X65158144Y-36584747D01*
X65114882Y-36520000D01*
X65263345Y-36520000D01*
X65603373Y-36452364D01*
X65923673Y-36319692D01*
X66211935Y-36127081D01*
X66457081Y-35881935D01*
X66649692Y-35593673D01*
X66782364Y-35273373D01*
X66850000Y-34933345D01*
X66850000Y-34586655D01*
X66782364Y-34246627D01*
X66649692Y-33926327D01*
X66457081Y-33638065D01*
X66211935Y-33392919D01*
X65923673Y-33200308D01*
X65825000Y-33159436D01*
X65825000Y-32046655D01*
X69680000Y-32046655D01*
X69680000Y-32393345D01*
X69747636Y-32733373D01*
X69880308Y-33053673D01*
X70072919Y-33341935D01*
X70318065Y-33587081D01*
X70606327Y-33779692D01*
X70926627Y-33912364D01*
X71266655Y-33980000D01*
X71613345Y-33980000D01*
X71953373Y-33912364D01*
X72273673Y-33779692D01*
X72561935Y-33587081D01*
X72807081Y-33341935D01*
X72999692Y-33053673D01*
X73132364Y-32733373D01*
X73200000Y-32393345D01*
X73200000Y-32046655D01*
X73132364Y-31706627D01*
X72999692Y-31386327D01*
X72807081Y-31098065D01*
X72561935Y-30852919D01*
X72273673Y-30660308D01*
X71953373Y-30527636D01*
X71613345Y-30460000D01*
X71266655Y-30460000D01*
X70926627Y-30527636D01*
X70606327Y-30660308D01*
X70318065Y-30852919D01*
X70072919Y-31098065D01*
X69880308Y-31386327D01*
X69747636Y-31706627D01*
X69680000Y-32046655D01*
X65825000Y-32046655D01*
X65825000Y-25285852D01*
X73375000Y-25285852D01*
X73375000Y-25854148D01*
X73485869Y-26411523D01*
X73703346Y-26936560D01*
X74019074Y-27409080D01*
X74420920Y-27810926D01*
X74893440Y-28126654D01*
X75418477Y-28344131D01*
X75975852Y-28455000D01*
X76544148Y-28455000D01*
X77101523Y-28344131D01*
X77626560Y-28126654D01*
X78099080Y-27810926D01*
X78500926Y-27409080D01*
X78816654Y-26936560D01*
X79034131Y-26411523D01*
X79145000Y-25854148D01*
X79145000Y-25285852D01*
X79034131Y-24728477D01*
X78816654Y-24203440D01*
X78500926Y-23730920D01*
X78099080Y-23329074D01*
X77626560Y-23013346D01*
X77101523Y-22795869D01*
X76544148Y-22685000D01*
X75975852Y-22685000D01*
X75418477Y-22795869D01*
X74893440Y-23013346D01*
X74420920Y-23329074D01*
X74019074Y-23730920D01*
X73703346Y-24203440D01*
X73485869Y-24728477D01*
X73375000Y-25285852D01*
X65825000Y-25285852D01*
X65825000Y-9779494D01*
X65828556Y-9743389D01*
X65814365Y-9599304D01*
X65809843Y-9584397D01*
X65772337Y-9460756D01*
X65766116Y-9449117D01*
X70475000Y-9449117D01*
X70475000Y-9790883D01*
X70541675Y-10126081D01*
X70672463Y-10441831D01*
X70862337Y-10725998D01*
X71104002Y-10967663D01*
X71388169Y-11157537D01*
X71703919Y-11288325D01*
X72039117Y-11355000D01*
X72380883Y-11355000D01*
X72716081Y-11288325D01*
X73031831Y-11157537D01*
X73315998Y-10967663D01*
X73557663Y-10725998D01*
X73747537Y-10441831D01*
X73878325Y-10126081D01*
X73945000Y-9790883D01*
X73945000Y-9449117D01*
X73878325Y-9113919D01*
X73747537Y-8798169D01*
X73557663Y-8514002D01*
X73315998Y-8272337D01*
X73031831Y-8082463D01*
X72716081Y-7951675D01*
X72380883Y-7885000D01*
X72039117Y-7885000D01*
X71703919Y-7951675D01*
X71388169Y-8082463D01*
X71104002Y-8272337D01*
X70862337Y-8514002D01*
X70672463Y-8798169D01*
X70541675Y-9113919D01*
X70475000Y-9449117D01*
X65766116Y-9449117D01*
X65704087Y-9333069D01*
X65612238Y-9221151D01*
X65584193Y-9198135D01*
X64174306Y-7788249D01*
X64245266Y-7774134D01*
X64499503Y-7668825D01*
X64728311Y-7515940D01*
X64922896Y-7321355D01*
X64985567Y-7227561D01*
X64995874Y-7279376D01*
X65101183Y-7533613D01*
X65254068Y-7762421D01*
X65448653Y-7957006D01*
X65677461Y-8109891D01*
X65931698Y-8215200D01*
X66201596Y-8268886D01*
X66476780Y-8268886D01*
X66746678Y-8215200D01*
X67000915Y-8109891D01*
X67229723Y-7957006D01*
X67424308Y-7762421D01*
X67577193Y-7533613D01*
X67682502Y-7279376D01*
X67736188Y-7009478D01*
X67736188Y-6734294D01*
X67682502Y-6464396D01*
X67680382Y-6459279D01*
X72602810Y-7323552D01*
%TA.AperFunction,Conductor*%
D22*
G36*
X72602810Y-7323552D02*
G01*
X72713551Y-7345563D01*
X72814735Y-7370433D01*
X72913845Y-7399545D01*
X73010858Y-7432798D01*
X73105675Y-7470074D01*
X73198265Y-7511282D01*
X73288528Y-7556307D01*
X73376434Y-7605072D01*
X73461841Y-7657442D01*
X73544696Y-7713332D01*
X73624894Y-7772626D01*
X73702357Y-7835231D01*
X73776969Y-7901024D01*
X73848638Y-7969893D01*
X73917252Y-8041717D01*
X73982731Y-8116397D01*
X74044957Y-8193797D01*
X74103831Y-8273796D01*
X74159263Y-8356285D01*
X74211170Y-8441167D01*
X74259428Y-8528274D01*
X74303968Y-8617532D01*
X74344687Y-8708801D01*
X74381494Y-8801971D01*
X74414323Y-8896985D01*
X74443064Y-8993685D01*
X74467639Y-9092003D01*
X74487960Y-9191852D01*
X74503934Y-9293142D01*
X74515468Y-9395788D01*
X74522466Y-9499748D01*
X74524996Y-9612658D01*
X74524996Y-12630018D01*
X74526219Y-12642493D01*
X74525452Y-12655003D01*
X74525867Y-12664559D01*
X74531029Y-12766799D01*
X74535437Y-12796324D01*
X74536623Y-12826147D01*
X74538000Y-12835611D01*
X74553154Y-12934900D01*
X74562531Y-12971746D01*
X74568765Y-13009257D01*
X74571311Y-13018476D01*
X74611674Y-13160772D01*
X74628447Y-13203491D01*
X74642563Y-13247155D01*
X74646440Y-13255899D01*
X74706455Y-13388721D01*
X74728928Y-13427779D01*
X74748866Y-13468199D01*
X74753971Y-13476287D01*
X74831940Y-13597942D01*
X74859480Y-13632869D01*
X74884672Y-13669526D01*
X74890883Y-13676799D01*
X74985112Y-13785588D01*
X75017212Y-13816052D01*
X75047234Y-13848583D01*
X75054420Y-13854895D01*
X75163210Y-13949122D01*
X75199518Y-13974826D01*
X75234046Y-14002842D01*
X75242062Y-14008059D01*
X75363720Y-14086028D01*
X75403853Y-14106526D01*
X75442603Y-14129547D01*
X75451291Y-14133546D01*
X75584119Y-14193560D01*
X75627576Y-14208281D01*
X75670055Y-14225648D01*
X75679238Y-14228322D01*
X75821537Y-14268685D01*
X75858951Y-14275441D01*
X75895669Y-14285333D01*
X75905114Y-14286842D01*
X76004406Y-14301996D01*
X76034210Y-14303598D01*
X76063660Y-14308416D01*
X76073208Y-14308965D01*
X76175454Y-14314128D01*
X76187976Y-14313535D01*
X76200436Y-14314933D01*
X76210000Y-14315000D01*
X89259664Y-14315000D01*
X89196321Y-14378343D01*
X89050386Y-14596751D01*
X88949864Y-14839432D01*
X88898618Y-15097062D01*
X88898618Y-15359738D01*
X88949864Y-15617368D01*
X89050386Y-15860049D01*
X89196321Y-16078457D01*
X89382061Y-16264197D01*
X89600469Y-16410132D01*
X89843150Y-16510654D01*
X90100780Y-16561900D01*
X90363456Y-16561900D01*
X90621086Y-16510654D01*
X90863767Y-16410132D01*
X91082175Y-16264197D01*
X91267915Y-16078457D01*
X91413850Y-15860049D01*
X91514372Y-15617368D01*
X91565618Y-15359738D01*
X91565618Y-15097062D01*
X91514372Y-14839432D01*
X91413850Y-14596751D01*
X91267915Y-14378343D01*
X91204572Y-14315000D01*
X94777392Y-14315000D01*
X94814043Y-14316639D01*
X94862669Y-14324291D01*
X94901532Y-14335828D01*
X94938375Y-14352249D01*
X94972852Y-14373315D01*
X95004418Y-14398674D01*
X95032450Y-14427824D01*
X95056448Y-14460257D01*
X95076069Y-14495594D01*
X95091102Y-14533787D01*
X95106885Y-14597880D01*
X99003799Y-36696861D01*
X99010046Y-36746946D01*
X99010577Y-36769914D01*
X99005056Y-36823915D01*
X98993918Y-36867558D01*
X98976505Y-36909270D01*
X98953166Y-36948266D01*
X98924498Y-36983533D01*
X98891250Y-37014161D01*
X98854051Y-37039545D01*
X98805180Y-37063201D01*
X98783422Y-37070553D01*
X98734211Y-37081810D01*
X91165890Y-38415092D01*
X87686402Y-37677110D01*
X87625309Y-37670285D01*
X87564333Y-37662498D01*
X87558926Y-37662869D01*
X87553539Y-37662267D01*
X87492261Y-37667440D01*
X87430957Y-37671643D01*
X87421536Y-37673291D01*
X78350040Y-39325515D01*
X78347286Y-39326301D01*
X78344426Y-39326561D01*
X78282976Y-39344647D01*
X78221480Y-39362190D01*
X78218929Y-39363497D01*
X78216176Y-39364307D01*
X78159430Y-39393973D01*
X78102493Y-39423137D01*
X78100244Y-39424914D01*
X78097701Y-39426244D01*
X78047778Y-39466384D01*
X77997610Y-39506036D01*
X77995750Y-39508215D01*
X77993513Y-39510014D01*
X77952336Y-39559087D01*
X77910826Y-39607727D01*
X77909425Y-39610226D01*
X77907579Y-39612426D01*
X77876709Y-39668578D01*
X77845446Y-39724339D01*
X77844557Y-39727062D01*
X77843174Y-39729578D01*
X77823799Y-39790657D01*
X77803962Y-39851428D01*
X77803619Y-39854272D01*
X77802751Y-39857008D01*
X77795616Y-39920615D01*
X77787952Y-39984155D01*
X77788168Y-39987017D01*
X77787849Y-39989864D01*
X77787782Y-39999428D01*
X77787782Y-46038092D01*
X73787201Y-46038092D01*
X73891732Y-45881649D01*
X73992254Y-45638968D01*
X74043500Y-45381338D01*
X74043500Y-45118662D01*
X73992254Y-44861032D01*
X73891732Y-44618351D01*
X73745797Y-44399943D01*
X73560057Y-44214203D01*
X73341649Y-44068268D01*
X73098968Y-43967746D01*
X72841338Y-43916500D01*
X72578662Y-43916500D01*
X72321032Y-43967746D01*
X72078351Y-44068268D01*
X71859943Y-44214203D01*
X71674203Y-44399943D01*
X71528268Y-44618351D01*
X71427746Y-44861032D01*
X71376500Y-45118662D01*
X71376500Y-45381338D01*
X71427746Y-45638968D01*
X71528268Y-45881649D01*
X71632799Y-46038092D01*
X70774328Y-46038092D01*
X70772798Y-46038242D01*
X70771258Y-46038098D01*
X70706190Y-46044773D01*
X70641277Y-46051138D01*
X70639800Y-46051584D01*
X70638268Y-46051741D01*
X70575794Y-46070909D01*
X70513295Y-46089778D01*
X70511936Y-46090500D01*
X70510458Y-46090954D01*
X70452841Y-46121922D01*
X70395255Y-46152541D01*
X70394060Y-46153515D01*
X70392701Y-46154246D01*
X70342221Y-46195794D01*
X70291654Y-46237036D01*
X70290672Y-46238223D01*
X70289480Y-46239204D01*
X70248043Y-46289752D01*
X70206437Y-46340045D01*
X70205704Y-46341402D01*
X70204726Y-46342594D01*
X70199469Y-46350584D01*
X69187423Y-47912385D01*
X59449863Y-50519580D01*
X40287343Y-50519580D01*
X30531178Y-47912128D01*
X29928015Y-46983501D01*
X37615394Y-46983501D01*
X37651499Y-46987057D01*
X37687604Y-46983501D01*
X37795584Y-46972866D01*
X37934132Y-46930838D01*
X38061819Y-46862588D01*
X38106581Y-46825852D01*
X46975000Y-46825852D01*
X46975000Y-47394148D01*
X47085869Y-47951523D01*
X47303346Y-48476560D01*
X47619074Y-48949080D01*
X48020920Y-49350926D01*
X48493440Y-49666654D01*
X49018477Y-49884131D01*
X49575852Y-49995000D01*
X50144148Y-49995000D01*
X50701523Y-49884131D01*
X51226560Y-49666654D01*
X51699080Y-49350926D01*
X52100926Y-48949080D01*
X52416654Y-48476560D01*
X52634131Y-47951523D01*
X52745000Y-47394148D01*
X52745000Y-46825852D01*
X52634131Y-46268477D01*
X52416654Y-45743440D01*
X52100926Y-45270920D01*
X51699080Y-44869074D01*
X51226560Y-44553346D01*
X50701523Y-44335869D01*
X50144148Y-44225000D01*
X49575852Y-44225000D01*
X49018477Y-44335869D01*
X48493440Y-44553346D01*
X48020920Y-44869074D01*
X47619074Y-45270920D01*
X47303346Y-45743440D01*
X47085869Y-46268477D01*
X46975000Y-46825852D01*
X38106581Y-46825852D01*
X38173737Y-46770739D01*
X38196758Y-46742688D01*
X40994197Y-43945250D01*
X41022237Y-43922238D01*
X41045250Y-43894197D01*
X41045253Y-43894194D01*
X41114087Y-43810320D01*
X41182337Y-43682634D01*
X41224365Y-43544085D01*
X41238556Y-43400000D01*
X41235000Y-43363895D01*
X41235000Y-37151278D01*
X43260000Y-37151278D01*
X43260000Y-37448722D01*
X43318029Y-37740451D01*
X43431856Y-38015253D01*
X43597107Y-38262569D01*
X43807431Y-38472893D01*
X44054747Y-38638144D01*
X44329549Y-38751971D01*
X44621278Y-38810000D01*
X44918722Y-38810000D01*
X45210451Y-38751971D01*
X45485253Y-38638144D01*
X45732569Y-38472893D01*
X45942893Y-38262569D01*
X46108144Y-38015253D01*
X46221971Y-37740451D01*
X46280000Y-37448722D01*
X46280000Y-37151278D01*
X46221971Y-36859549D01*
X46108144Y-36584747D01*
X46064882Y-36520000D01*
X46213345Y-36520000D01*
X46553373Y-36452364D01*
X46873673Y-36319692D01*
X47161935Y-36127081D01*
X47407081Y-35881935D01*
X47599692Y-35593673D01*
X47732364Y-35273373D01*
X47800000Y-34933345D01*
X47800000Y-34586655D01*
X47732364Y-34246627D01*
X47599692Y-33926327D01*
X47407081Y-33638065D01*
X47161935Y-33392919D01*
X46873673Y-33200308D01*
X46553373Y-33067636D01*
X46213345Y-33000000D01*
X45866655Y-33000000D01*
X45526627Y-33067636D01*
X45206327Y-33200308D01*
X44918065Y-33392919D01*
X44672919Y-33638065D01*
X44480308Y-33926327D01*
X44347636Y-34246627D01*
X44280000Y-34586655D01*
X44280000Y-34933345D01*
X44347636Y-35273373D01*
X44480308Y-35593673D01*
X44612638Y-35791719D01*
X44329549Y-35848029D01*
X44054747Y-35961856D01*
X43807431Y-36127107D01*
X43597107Y-36337431D01*
X43431856Y-36584747D01*
X43318029Y-36859549D01*
X43260000Y-37151278D01*
X41235000Y-37151278D01*
X41235000Y-31804446D01*
X43384447Y-29655000D01*
X47357023Y-29655000D01*
X47365688Y-29742982D01*
X47401998Y-29862680D01*
X47460963Y-29972994D01*
X47540315Y-30069685D01*
X47637006Y-30149037D01*
X47747320Y-30208002D01*
X47867018Y-30244312D01*
X47991500Y-30256572D01*
X48987126Y-30256572D01*
X50165001Y-31434448D01*
X50165000Y-34682254D01*
X50108924Y-34671100D01*
X49591076Y-34671100D01*
X49083178Y-34772127D01*
X48604749Y-34970299D01*
X48174174Y-35258000D01*
X47808000Y-35624174D01*
X47520299Y-36054749D01*
X47322127Y-36533178D01*
X47221100Y-37041076D01*
X47221100Y-37558924D01*
X47322127Y-38066822D01*
X47520299Y-38545251D01*
X47808000Y-38975826D01*
X48174174Y-39342000D01*
X48604749Y-39629701D01*
X49083178Y-39827873D01*
X49591076Y-39928900D01*
X50108924Y-39928900D01*
X50616822Y-39827873D01*
X51095251Y-39629701D01*
X51525826Y-39342000D01*
X51892000Y-38975826D01*
X52179701Y-38545251D01*
X52377873Y-38066822D01*
X52467548Y-37615996D01*
X60316305Y-45464754D01*
X60316311Y-45464759D01*
X60595739Y-45744187D01*
X60618760Y-45772238D01*
X60730678Y-45864087D01*
X60858365Y-45932337D01*
X60954884Y-45961616D01*
X60996912Y-45974365D01*
X61011130Y-45975765D01*
X61104893Y-45985000D01*
X61104900Y-45985000D01*
X61140997Y-45988555D01*
X61177094Y-45985000D01*
X63757023Y-45985000D01*
X63765688Y-46072982D01*
X63801998Y-46192680D01*
X63860963Y-46302994D01*
X63940315Y-46399685D01*
X64037006Y-46479037D01*
X64147320Y-46538002D01*
X64267018Y-46574312D01*
X64391500Y-46586572D01*
X65788500Y-46586572D01*
X65912982Y-46574312D01*
X66032680Y-46538002D01*
X66142994Y-46479037D01*
X66239685Y-46399685D01*
X66319037Y-46302994D01*
X66378002Y-46192680D01*
X66414312Y-46072982D01*
X66426572Y-45948500D01*
X66426572Y-44551500D01*
X66414312Y-44427018D01*
X66378002Y-44307320D01*
X66341470Y-44238974D01*
X72619401Y-37961043D01*
X72641856Y-38015253D01*
X72807107Y-38262569D01*
X73017431Y-38472893D01*
X73264747Y-38638144D01*
X73539549Y-38751971D01*
X73831278Y-38810000D01*
X74128722Y-38810000D01*
X74420451Y-38751971D01*
X74695253Y-38638144D01*
X74942569Y-38472893D01*
X75152893Y-38262569D01*
X75318144Y-38015253D01*
X75431971Y-37740451D01*
X75490000Y-37448722D01*
X75490000Y-37151278D01*
X75431971Y-36859549D01*
X75318144Y-36584747D01*
X75152893Y-36337431D01*
X74942569Y-36127107D01*
X74695253Y-35961856D01*
X74641043Y-35939401D01*
X77925524Y-32654920D01*
X85113624Y-32654920D01*
X85123166Y-32779640D01*
X85470462Y-34749256D01*
X85504152Y-34869717D01*
X85560695Y-34981292D01*
X85637920Y-35079691D01*
X85732857Y-35161134D01*
X85841858Y-35222491D01*
X85960736Y-35261403D01*
X86084920Y-35276376D01*
X86209640Y-35266834D01*
X88179256Y-34919538D01*
X88299717Y-34885848D01*
X88411292Y-34829305D01*
X88509691Y-34752080D01*
X88591134Y-34657143D01*
X88652491Y-34548142D01*
X88689076Y-34436374D01*
X88768116Y-34573773D01*
X89077797Y-34662231D01*
X89398785Y-34688573D01*
X89718744Y-34651787D01*
X90025379Y-34553287D01*
X90306905Y-34396858D01*
X90462072Y-34275083D01*
X90510469Y-33998070D01*
X89403207Y-33222757D01*
X88700365Y-34226518D01*
X88696834Y-34180360D01*
X88654910Y-33942597D01*
X89357878Y-33239629D01*
X89178270Y-33060021D01*
X89175192Y-33063099D01*
X88404702Y-32523596D01*
X88349538Y-32210744D01*
X88337069Y-32166162D01*
X89340831Y-32869003D01*
X89352644Y-32852131D01*
X89386160Y-32852131D01*
X89565768Y-33031739D01*
X89568846Y-33028661D01*
X90656157Y-33790005D01*
X90684018Y-33773977D01*
X90791787Y-33881746D01*
X91059576Y-34060677D01*
X91357127Y-34183927D01*
X91673006Y-34246759D01*
X91995072Y-34246759D01*
X92310951Y-34183927D01*
X92608502Y-34060677D01*
X92876291Y-33881746D01*
X93104026Y-33654011D01*
X93282957Y-33386222D01*
X93406207Y-33088671D01*
X93469039Y-32772792D01*
X93469039Y-32450726D01*
X93406207Y-32134847D01*
X93282957Y-31837296D01*
X93104026Y-31569507D01*
X92876291Y-31341772D01*
X92608502Y-31162841D01*
X92310951Y-31039591D01*
X91995072Y-30976759D01*
X91673006Y-30976759D01*
X91357127Y-31039591D01*
X91059576Y-31162841D01*
X90791787Y-31341772D01*
X90564052Y-31569507D01*
X90385121Y-31837296D01*
X90373896Y-31864395D01*
X90329872Y-31908419D01*
X90324209Y-31907430D01*
X90308672Y-31929619D01*
X89386160Y-32852131D01*
X89352644Y-32852131D01*
X90116144Y-31761742D01*
X89975922Y-31517987D01*
X89666241Y-31429529D01*
X89345253Y-31403187D01*
X89025294Y-31439973D01*
X88718659Y-31538473D01*
X88437133Y-31694902D01*
X88281966Y-31816677D01*
X88254686Y-31972822D01*
X88182080Y-31880309D01*
X88087143Y-31798866D01*
X87978142Y-31737509D01*
X87859264Y-31698597D01*
X87735080Y-31683624D01*
X87610360Y-31693166D01*
X85640744Y-32040462D01*
X85520283Y-32074152D01*
X85408708Y-32130695D01*
X85310309Y-32207920D01*
X85228866Y-32302857D01*
X85167509Y-32411858D01*
X85128597Y-32530736D01*
X85113624Y-32654920D01*
X77925524Y-32654920D01*
X80764697Y-29815748D01*
X80792736Y-29792737D01*
X80815749Y-29764696D01*
X80815752Y-29764693D01*
X80884586Y-29680819D01*
X80952836Y-29553133D01*
X80994864Y-29414584D01*
X81009055Y-29270499D01*
X81005499Y-29234394D01*
X81005499Y-28289967D01*
X81086416Y-28359382D01*
X81435736Y-28556014D01*
X81816705Y-28680719D01*
X82214682Y-28728704D01*
X82514214Y-28705788D01*
X83301998Y-28566881D01*
X83591304Y-28485970D01*
X83948869Y-28304763D01*
X84264212Y-28057281D01*
X84525214Y-27753034D01*
X84721846Y-27403714D01*
X84846550Y-27022745D01*
X84894536Y-26624769D01*
X84863957Y-26225076D01*
X84755990Y-25839030D01*
X84574783Y-25481465D01*
X84513389Y-25403237D01*
X84639317Y-25351076D01*
X85421100Y-25351076D01*
X85421100Y-25868924D01*
X85522127Y-26376822D01*
X85720299Y-26855251D01*
X86008000Y-27285826D01*
X86374174Y-27652000D01*
X86804749Y-27939701D01*
X87283178Y-28137873D01*
X87791076Y-28238900D01*
X88308924Y-28238900D01*
X88816822Y-28137873D01*
X89295251Y-27939701D01*
X89725826Y-27652000D01*
X90092000Y-27285826D01*
X90379701Y-26855251D01*
X90577873Y-26376822D01*
X90678900Y-25868924D01*
X90678900Y-25351076D01*
X90577873Y-24843178D01*
X90516444Y-24694875D01*
X91244779Y-24694875D01*
X91275358Y-25094567D01*
X91383325Y-25480613D01*
X91564532Y-25838178D01*
X91812014Y-26153522D01*
X92116261Y-26414523D01*
X92465581Y-26611155D01*
X92846550Y-26735860D01*
X93244527Y-26783845D01*
X93544059Y-26760929D01*
X94331843Y-26622022D01*
X94621149Y-26541111D01*
X94978714Y-26359904D01*
X95294057Y-26112422D01*
X95555059Y-25808175D01*
X95751691Y-25458855D01*
X95876395Y-25077886D01*
X95924381Y-24679910D01*
X95893802Y-24280217D01*
X95785835Y-23894171D01*
X95604628Y-23536606D01*
X95357146Y-23221262D01*
X95052899Y-22960261D01*
X94703579Y-22763629D01*
X94322610Y-22638924D01*
X93924632Y-22590939D01*
X93625100Y-22613855D01*
X92837317Y-22752762D01*
X92548011Y-22833673D01*
X92190446Y-23014880D01*
X91875102Y-23262362D01*
X91614101Y-23566609D01*
X91417469Y-23915929D01*
X91292764Y-24296898D01*
X91244779Y-24694875D01*
X90516444Y-24694875D01*
X90379701Y-24364749D01*
X90092000Y-23934174D01*
X89725826Y-23568000D01*
X89295251Y-23280299D01*
X88816822Y-23082127D01*
X88308924Y-22981100D01*
X87791076Y-22981100D01*
X87283178Y-23082127D01*
X86804749Y-23280299D01*
X86374174Y-23568000D01*
X86008000Y-23934174D01*
X85720299Y-24364749D01*
X85522127Y-24843178D01*
X85421100Y-25351076D01*
X84639317Y-25351076D01*
X84690489Y-25329880D01*
X84978751Y-25137269D01*
X85223897Y-24892123D01*
X85416508Y-24603861D01*
X85549180Y-24283561D01*
X85616816Y-23943533D01*
X85616816Y-23596843D01*
X85549180Y-23256815D01*
X85416508Y-22936515D01*
X85223897Y-22648253D01*
X84978751Y-22403107D01*
X84690489Y-22210496D01*
X84370189Y-22077824D01*
X84030161Y-22010188D01*
X83683471Y-22010188D01*
X83343443Y-22077824D01*
X83023143Y-22210496D01*
X82734881Y-22403107D01*
X82489735Y-22648253D01*
X82297124Y-22936515D01*
X82164452Y-23256815D01*
X82096816Y-23596843D01*
X82096816Y-23943533D01*
X82164452Y-24283561D01*
X82297124Y-24603861D01*
X82301560Y-24610500D01*
X81807472Y-24697621D01*
X81518166Y-24778532D01*
X81160601Y-24959739D01*
X81005499Y-25081463D01*
X81005499Y-19283947D01*
X82306325Y-17983122D01*
X83616555Y-17752093D01*
X83349849Y-17930301D01*
X83122114Y-18158036D01*
X82943183Y-18425825D01*
X82819933Y-18723376D01*
X82757101Y-19039255D01*
X82757101Y-19361321D01*
X82819933Y-19677200D01*
X82943183Y-19974751D01*
X83122114Y-20242540D01*
X83349849Y-20470275D01*
X83617638Y-20649206D01*
X83915189Y-20772456D01*
X84231068Y-20835288D01*
X84553134Y-20835288D01*
X84869013Y-20772456D01*
X85166564Y-20649206D01*
X85434353Y-20470275D01*
X85662088Y-20242540D01*
X85841019Y-19974751D01*
X85964269Y-19677200D01*
X86027101Y-19361321D01*
X86027101Y-19039255D01*
X85964269Y-18723376D01*
X85841019Y-18425825D01*
X85670760Y-18171014D01*
X87681140Y-18171014D01*
X87681140Y-18493080D01*
X87743972Y-18808959D01*
X87867222Y-19106510D01*
X88046153Y-19374299D01*
X88078747Y-19406893D01*
X87976915Y-19652737D01*
X87909279Y-19992765D01*
X87909279Y-20339455D01*
X87976915Y-20679483D01*
X88109587Y-20999783D01*
X88302198Y-21288045D01*
X88547344Y-21533191D01*
X88835606Y-21725802D01*
X89155906Y-21858474D01*
X89495934Y-21926110D01*
X89842624Y-21926110D01*
X90182652Y-21858474D01*
X90502952Y-21725802D01*
X90791214Y-21533191D01*
X91036360Y-21288045D01*
X91228971Y-20999783D01*
X91361643Y-20679483D01*
X91429279Y-20339455D01*
X91429279Y-19992765D01*
X91361643Y-19652737D01*
X91228971Y-19332437D01*
X91036360Y-19044175D01*
X90862778Y-18870593D01*
X90888308Y-18808959D01*
X90951140Y-18493080D01*
X90951140Y-18171014D01*
X90888308Y-17855135D01*
X90765058Y-17557584D01*
X90586127Y-17289795D01*
X90358392Y-17062060D01*
X90090603Y-16883129D01*
X89793052Y-16759879D01*
X89477173Y-16697047D01*
X89155107Y-16697047D01*
X88839228Y-16759879D01*
X88541677Y-16883129D01*
X88273888Y-17062060D01*
X88046153Y-17289795D01*
X87867222Y-17557584D01*
X87743972Y-17855135D01*
X87681140Y-18171014D01*
X85670760Y-18171014D01*
X85662088Y-18158036D01*
X85434353Y-17930301D01*
X85166564Y-17751370D01*
X84869013Y-17628120D01*
X84553134Y-17565288D01*
X84231068Y-17565288D01*
X83916083Y-17627942D01*
X83978298Y-17579115D01*
X84059741Y-17484178D01*
X84121098Y-17375177D01*
X84160010Y-17256299D01*
X84174983Y-17132115D01*
X84165441Y-17007395D01*
X83922855Y-15631619D01*
X83889165Y-15511158D01*
X83832622Y-15399583D01*
X83755397Y-15301184D01*
X83660460Y-15219741D01*
X83551459Y-15158384D01*
X83432581Y-15119472D01*
X83308397Y-15104499D01*
X83183677Y-15114041D01*
X81807901Y-15356627D01*
X81687440Y-15390317D01*
X81575865Y-15446860D01*
X81477466Y-15524085D01*
X81396023Y-15619022D01*
X81334666Y-15728023D01*
X81295754Y-15846901D01*
X81280781Y-15971085D01*
X81290323Y-16095805D01*
X81413901Y-16796652D01*
X79776307Y-18434247D01*
X79748262Y-18457263D01*
X79656413Y-18569181D01*
X79620910Y-18635603D01*
X79588163Y-18696868D01*
X79546134Y-18835416D01*
X79531943Y-18979501D01*
X79535500Y-19015616D01*
X79535499Y-28966052D01*
X71517548Y-36984004D01*
X71427873Y-36533178D01*
X71229701Y-36054749D01*
X70942000Y-35624174D01*
X70575826Y-35258000D01*
X70145251Y-34970299D01*
X69666822Y-34772127D01*
X69158924Y-34671100D01*
X68641076Y-34671100D01*
X68133178Y-34772127D01*
X67654749Y-34970299D01*
X67224174Y-35258000D01*
X66858000Y-35624174D01*
X66570299Y-36054749D01*
X66372127Y-36533178D01*
X66271100Y-37041076D01*
X66271100Y-37558924D01*
X66372127Y-38066822D01*
X66570299Y-38545251D01*
X66858000Y-38975826D01*
X67224174Y-39342000D01*
X67654749Y-39629701D01*
X68133178Y-39827873D01*
X68584004Y-39917548D01*
X64595808Y-43905744D01*
X64586445Y-43913428D01*
X64391500Y-43913428D01*
X64267018Y-43925688D01*
X64147320Y-43961998D01*
X64037006Y-44020963D01*
X63940315Y-44100315D01*
X63860963Y-44197006D01*
X63801998Y-44307320D01*
X63765688Y-44427018D01*
X63757023Y-44515000D01*
X61445444Y-44515000D01*
X61355757Y-44425313D01*
X61355752Y-44425307D01*
X55591043Y-38660599D01*
X55645253Y-38638144D01*
X55892569Y-38472893D01*
X56102893Y-38262569D01*
X56268144Y-38015253D01*
X56381971Y-37740451D01*
X56440000Y-37448722D01*
X56440000Y-37151278D01*
X56381971Y-36859549D01*
X56268144Y-36584747D01*
X56102893Y-36337431D01*
X55892569Y-36127107D01*
X55645253Y-35961856D01*
X55370451Y-35848029D01*
X55078722Y-35790000D01*
X54781278Y-35790000D01*
X54489549Y-35848029D01*
X54214747Y-35961856D01*
X53967431Y-36127107D01*
X53757107Y-36337431D01*
X53591856Y-36584747D01*
X53569401Y-36638957D01*
X51635000Y-34704556D01*
X51635000Y-33812279D01*
X51876627Y-33912364D01*
X52216655Y-33980000D01*
X52563345Y-33980000D01*
X52903373Y-33912364D01*
X53223673Y-33779692D01*
X53511935Y-33587081D01*
X53757081Y-33341935D01*
X53949692Y-33053673D01*
X54082364Y-32733373D01*
X54150000Y-32393345D01*
X54150000Y-32046655D01*
X54082364Y-31706627D01*
X53949692Y-31386327D01*
X53757081Y-31098065D01*
X53511935Y-30852919D01*
X53223673Y-30660308D01*
X52903373Y-30527636D01*
X52563345Y-30460000D01*
X52216655Y-30460000D01*
X51876627Y-30527636D01*
X51556327Y-30660308D01*
X51497578Y-30699563D01*
X51422238Y-30607762D01*
X51394193Y-30584746D01*
X50026572Y-29217126D01*
X50026572Y-28788662D01*
X54976500Y-28788662D01*
X54976500Y-29051338D01*
X55027746Y-29308968D01*
X55128268Y-29551649D01*
X55274203Y-29770057D01*
X55459943Y-29955797D01*
X55678351Y-30101732D01*
X55921032Y-30202254D01*
X56178662Y-30253500D01*
X56441338Y-30253500D01*
X56698968Y-30202254D01*
X56941649Y-30101732D01*
X57160057Y-29955797D01*
X57345797Y-29770057D01*
X57491732Y-29551649D01*
X57592254Y-29308968D01*
X57643500Y-29051338D01*
X57643500Y-28788662D01*
X57592254Y-28531032D01*
X57491732Y-28288351D01*
X57345797Y-28069943D01*
X57160057Y-27884203D01*
X56941649Y-27738268D01*
X56698968Y-27637746D01*
X56441338Y-27586500D01*
X56178662Y-27586500D01*
X55921032Y-27637746D01*
X55678351Y-27738268D01*
X55459943Y-27884203D01*
X55274203Y-28069943D01*
X55128268Y-28288351D01*
X55027746Y-28531032D01*
X54976500Y-28788662D01*
X50026572Y-28788662D01*
X50026572Y-28221500D01*
X50014312Y-28097018D01*
X49978002Y-27977320D01*
X49919037Y-27867006D01*
X49839685Y-27770315D01*
X49742994Y-27690963D01*
X49632680Y-27631998D01*
X49512982Y-27595688D01*
X49425000Y-27587023D01*
X49425000Y-21312919D01*
X49428556Y-21276814D01*
X49414365Y-21132729D01*
X49400157Y-21085891D01*
X49372337Y-20994181D01*
X49304087Y-20866494D01*
X49212238Y-20754576D01*
X49184193Y-20731560D01*
X49024323Y-20571691D01*
X49095282Y-20557576D01*
X49349519Y-20452267D01*
X49578327Y-20299382D01*
X49772912Y-20104797D01*
X49835583Y-20011003D01*
X49845890Y-20062818D01*
X49951199Y-20317055D01*
X50104084Y-20545863D01*
X50298669Y-20740448D01*
X50527477Y-20893333D01*
X50781714Y-20998642D01*
X51051612Y-21052328D01*
X51326796Y-21052328D01*
X51596694Y-20998642D01*
X51850931Y-20893333D01*
X52079739Y-20740448D01*
X52274324Y-20545863D01*
X52336995Y-20452069D01*
X52347302Y-20503885D01*
X52452611Y-20758122D01*
X52605496Y-20986930D01*
X52800081Y-21181515D01*
X53028889Y-21334400D01*
X53283126Y-21439709D01*
X53553024Y-21493395D01*
X53828208Y-21493395D01*
X54098106Y-21439709D01*
X54352343Y-21334400D01*
X54581151Y-21181515D01*
X54775736Y-20986930D01*
X54838407Y-20893137D01*
X54848713Y-20944951D01*
X54954022Y-21199188D01*
X55106907Y-21427996D01*
X55301492Y-21622581D01*
X55530300Y-21775466D01*
X55784537Y-21880775D01*
X56054435Y-21934461D01*
X56329619Y-21934461D01*
X56599517Y-21880775D01*
X56853754Y-21775466D01*
X57082562Y-21622581D01*
X57277147Y-21427996D01*
X57339818Y-21334202D01*
X57350125Y-21386017D01*
X57455434Y-21640254D01*
X57608319Y-21869062D01*
X57802904Y-22063647D01*
X58031712Y-22216532D01*
X58285949Y-22321841D01*
X58555847Y-22375527D01*
X58831031Y-22375527D01*
X59100929Y-22321841D01*
X59355166Y-22216532D01*
X59583974Y-22063647D01*
X59778559Y-21869062D01*
X59841230Y-21775268D01*
X59851537Y-21827084D01*
X59956846Y-22081321D01*
X60109731Y-22310129D01*
X60304316Y-22504714D01*
X60533124Y-22657599D01*
X60787361Y-22762908D01*
X61057259Y-22816594D01*
X61332443Y-22816594D01*
X61602341Y-22762908D01*
X61856578Y-22657599D01*
X62085386Y-22504714D01*
X62279971Y-22310129D01*
X62342642Y-22216336D01*
X62352948Y-22268150D01*
X62458257Y-22522387D01*
X62611142Y-22751195D01*
X62805727Y-22945780D01*
X63034535Y-23098665D01*
X63288772Y-23203974D01*
X63558670Y-23257660D01*
X63833854Y-23257660D01*
X64103752Y-23203974D01*
X64355000Y-23099903D01*
X64355000Y-33159436D01*
X64256327Y-33200308D01*
X63968065Y-33392919D01*
X63722919Y-33638065D01*
X63530308Y-33926327D01*
X63397636Y-34246627D01*
X63330000Y-34586655D01*
X63330000Y-34933345D01*
X63397636Y-35273373D01*
X63530308Y-35593673D01*
X63662638Y-35791719D01*
X63379549Y-35848029D01*
X63104747Y-35961856D01*
X62857431Y-36127107D01*
X62647107Y-36337431D01*
X62481856Y-36584747D01*
X62368029Y-36859549D01*
X62310000Y-37151278D01*
X62310000Y-37448722D01*
X62368029Y-37740451D01*
X62481856Y-38015253D01*
X62647107Y-38262569D01*
X62857431Y-38472893D01*
X63104747Y-38638144D01*
X63379549Y-38751971D01*
X63671278Y-38810000D01*
X63968722Y-38810000D01*
X64260451Y-38751971D01*
X64535253Y-38638144D01*
X64782569Y-38472893D01*
X64992893Y-38262569D01*
X65158144Y-38015253D01*
X65271971Y-37740451D01*
X65330000Y-37448722D01*
X65330000Y-37151278D01*
X65271971Y-36859549D01*
X65158144Y-36584747D01*
X65114882Y-36520000D01*
X65263345Y-36520000D01*
X65603373Y-36452364D01*
X65923673Y-36319692D01*
X66211935Y-36127081D01*
X66457081Y-35881935D01*
X66649692Y-35593673D01*
X66782364Y-35273373D01*
X66850000Y-34933345D01*
X66850000Y-34586655D01*
X66782364Y-34246627D01*
X66649692Y-33926327D01*
X66457081Y-33638065D01*
X66211935Y-33392919D01*
X65923673Y-33200308D01*
X65825000Y-33159436D01*
X65825000Y-32046655D01*
X69680000Y-32046655D01*
X69680000Y-32393345D01*
X69747636Y-32733373D01*
X69880308Y-33053673D01*
X70072919Y-33341935D01*
X70318065Y-33587081D01*
X70606327Y-33779692D01*
X70926627Y-33912364D01*
X71266655Y-33980000D01*
X71613345Y-33980000D01*
X71953373Y-33912364D01*
X72273673Y-33779692D01*
X72561935Y-33587081D01*
X72807081Y-33341935D01*
X72999692Y-33053673D01*
X73132364Y-32733373D01*
X73200000Y-32393345D01*
X73200000Y-32046655D01*
X73132364Y-31706627D01*
X72999692Y-31386327D01*
X72807081Y-31098065D01*
X72561935Y-30852919D01*
X72273673Y-30660308D01*
X71953373Y-30527636D01*
X71613345Y-30460000D01*
X71266655Y-30460000D01*
X70926627Y-30527636D01*
X70606327Y-30660308D01*
X70318065Y-30852919D01*
X70072919Y-31098065D01*
X69880308Y-31386327D01*
X69747636Y-31706627D01*
X69680000Y-32046655D01*
X65825000Y-32046655D01*
X65825000Y-25285852D01*
X73375000Y-25285852D01*
X73375000Y-25854148D01*
X73485869Y-26411523D01*
X73703346Y-26936560D01*
X74019074Y-27409080D01*
X74420920Y-27810926D01*
X74893440Y-28126654D01*
X75418477Y-28344131D01*
X75975852Y-28455000D01*
X76544148Y-28455000D01*
X77101523Y-28344131D01*
X77626560Y-28126654D01*
X78099080Y-27810926D01*
X78500926Y-27409080D01*
X78816654Y-26936560D01*
X79034131Y-26411523D01*
X79145000Y-25854148D01*
X79145000Y-25285852D01*
X79034131Y-24728477D01*
X78816654Y-24203440D01*
X78500926Y-23730920D01*
X78099080Y-23329074D01*
X77626560Y-23013346D01*
X77101523Y-22795869D01*
X76544148Y-22685000D01*
X75975852Y-22685000D01*
X75418477Y-22795869D01*
X74893440Y-23013346D01*
X74420920Y-23329074D01*
X74019074Y-23730920D01*
X73703346Y-24203440D01*
X73485869Y-24728477D01*
X73375000Y-25285852D01*
X65825000Y-25285852D01*
X65825000Y-9779494D01*
X65828556Y-9743389D01*
X65814365Y-9599304D01*
X65809843Y-9584397D01*
X65772337Y-9460756D01*
X65766116Y-9449117D01*
X70475000Y-9449117D01*
X70475000Y-9790883D01*
X70541675Y-10126081D01*
X70672463Y-10441831D01*
X70862337Y-10725998D01*
X71104002Y-10967663D01*
X71388169Y-11157537D01*
X71703919Y-11288325D01*
X72039117Y-11355000D01*
X72380883Y-11355000D01*
X72716081Y-11288325D01*
X73031831Y-11157537D01*
X73315998Y-10967663D01*
X73557663Y-10725998D01*
X73747537Y-10441831D01*
X73878325Y-10126081D01*
X73945000Y-9790883D01*
X73945000Y-9449117D01*
X73878325Y-9113919D01*
X73747537Y-8798169D01*
X73557663Y-8514002D01*
X73315998Y-8272337D01*
X73031831Y-8082463D01*
X72716081Y-7951675D01*
X72380883Y-7885000D01*
X72039117Y-7885000D01*
X71703919Y-7951675D01*
X71388169Y-8082463D01*
X71104002Y-8272337D01*
X70862337Y-8514002D01*
X70672463Y-8798169D01*
X70541675Y-9113919D01*
X70475000Y-9449117D01*
X65766116Y-9449117D01*
X65704087Y-9333069D01*
X65612238Y-9221151D01*
X65584193Y-9198135D01*
X64174306Y-7788249D01*
X64245266Y-7774134D01*
X64499503Y-7668825D01*
X64728311Y-7515940D01*
X64922896Y-7321355D01*
X64985567Y-7227561D01*
X64995874Y-7279376D01*
X65101183Y-7533613D01*
X65254068Y-7762421D01*
X65448653Y-7957006D01*
X65677461Y-8109891D01*
X65931698Y-8215200D01*
X66201596Y-8268886D01*
X66476780Y-8268886D01*
X66746678Y-8215200D01*
X67000915Y-8109891D01*
X67229723Y-7957006D01*
X67424308Y-7762421D01*
X67577193Y-7533613D01*
X67682502Y-7279376D01*
X67736188Y-7009478D01*
X67736188Y-6734294D01*
X67682502Y-6464396D01*
X67680382Y-6459279D01*
X72602810Y-7323552D01*
G37*
%TD.AperFunction*%
D21*
X21967761Y-43512236D02*
X21995806Y-43535252D01*
X24204746Y-45744193D01*
X24227762Y-45772238D01*
X24339680Y-45864087D01*
X24467367Y-45932337D01*
X24605915Y-45974365D01*
X24713895Y-45985000D01*
X24713904Y-45985000D01*
X24749999Y-45988555D01*
X24786094Y-45985000D01*
X25657023Y-45985000D01*
X25662252Y-46038092D01*
X21965106Y-46038092D01*
X21965106Y-43509001D01*
X21967761Y-43512236D01*
%TA.AperFunction,Conductor*%
D22*
G36*
X21967761Y-43512236D02*
G01*
X21995806Y-43535252D01*
X24204746Y-45744193D01*
X24227762Y-45772238D01*
X24339680Y-45864087D01*
X24467367Y-45932337D01*
X24605915Y-45974365D01*
X24713895Y-45985000D01*
X24713904Y-45985000D01*
X24749999Y-45988555D01*
X24786094Y-45985000D01*
X25657023Y-45985000D01*
X25662252Y-46038092D01*
X21965106Y-46038092D01*
X21965106Y-43509001D01*
X21967761Y-43512236D01*
G37*
%TD.AperFunction*%
D21*
X59993050Y-6397243D02*
X60098359Y-6651480D01*
X60251244Y-6880288D01*
X60445829Y-7074873D01*
X60674637Y-7227758D01*
X60928874Y-7333067D01*
X61198772Y-7386753D01*
X61473956Y-7386753D01*
X61657424Y-7350259D01*
X64355001Y-10047837D01*
X64355001Y-20621417D01*
X64103752Y-20517346D01*
X63833854Y-20463660D01*
X63558670Y-20463660D01*
X63288772Y-20517346D01*
X63034535Y-20622655D01*
X62805727Y-20775540D01*
X62611142Y-20970125D01*
X62548471Y-21063918D01*
X62538165Y-21012104D01*
X62432856Y-20757867D01*
X62279971Y-20529059D01*
X62085386Y-20334474D01*
X61856578Y-20181589D01*
X61602341Y-20076280D01*
X61332443Y-20022594D01*
X61057259Y-20022594D01*
X60787361Y-20076280D01*
X60533124Y-20181589D01*
X60304316Y-20334474D01*
X60109731Y-20529059D01*
X60047060Y-20622853D01*
X60036753Y-20571037D01*
X59931444Y-20316800D01*
X59778559Y-20087992D01*
X59583974Y-19893407D01*
X59355166Y-19740522D01*
X59100929Y-19635213D01*
X58831031Y-19581527D01*
X58555847Y-19581527D01*
X58285949Y-19635213D01*
X58031712Y-19740522D01*
X57802904Y-19893407D01*
X57608319Y-20087992D01*
X57545648Y-20181786D01*
X57535341Y-20129971D01*
X57430032Y-19875734D01*
X57277147Y-19646926D01*
X57082562Y-19452341D01*
X56853754Y-19299456D01*
X56599517Y-19194147D01*
X56329619Y-19140461D01*
X56054435Y-19140461D01*
X55784537Y-19194147D01*
X55530300Y-19299456D01*
X55301492Y-19452341D01*
X55106907Y-19646926D01*
X55044236Y-19740719D01*
X55033930Y-19688905D01*
X54928621Y-19434668D01*
X54775736Y-19205860D01*
X54581151Y-19011275D01*
X54352343Y-18858390D01*
X54098106Y-18753081D01*
X53828208Y-18699395D01*
X53553024Y-18699395D01*
X53283126Y-18753081D01*
X53028889Y-18858390D01*
X52800081Y-19011275D01*
X52605496Y-19205860D01*
X52542825Y-19299654D01*
X52532518Y-19247838D01*
X52427209Y-18993601D01*
X52274324Y-18764793D01*
X52079739Y-18570208D01*
X51850931Y-18417323D01*
X51596694Y-18312014D01*
X51326796Y-18258328D01*
X51051612Y-18258328D01*
X50781714Y-18312014D01*
X50527477Y-18417323D01*
X50298669Y-18570208D01*
X50104084Y-18764793D01*
X50041413Y-18858587D01*
X50031106Y-18806772D01*
X49925797Y-18552535D01*
X49772912Y-18323727D01*
X49578327Y-18129142D01*
X49349519Y-17976257D01*
X49095282Y-17870948D01*
X48825384Y-17817262D01*
X48550200Y-17817262D01*
X48280302Y-17870948D01*
X48026065Y-17976257D01*
X47797257Y-18129142D01*
X47602672Y-18323727D01*
X47540002Y-18417520D01*
X47529695Y-18365705D01*
X47424386Y-18111468D01*
X47271501Y-17882660D01*
X47076916Y-17688075D01*
X46848108Y-17535190D01*
X46593871Y-17429881D01*
X46323973Y-17376195D01*
X46048789Y-17376195D01*
X45778891Y-17429881D01*
X45524654Y-17535190D01*
X45295846Y-17688075D01*
X45101261Y-17882660D01*
X45038590Y-17976454D01*
X45028283Y-17924639D01*
X44922974Y-17670402D01*
X44770089Y-17441594D01*
X44575504Y-17247009D01*
X44346696Y-17094124D01*
X44092459Y-16988815D01*
X43822561Y-16935129D01*
X43547377Y-16935129D01*
X43277479Y-16988815D01*
X43023242Y-17094124D01*
X42794434Y-17247009D01*
X42599849Y-17441594D01*
X42537178Y-17535388D01*
X42526871Y-17483573D01*
X42421562Y-17229336D01*
X42268677Y-17000528D01*
X42074092Y-16805943D01*
X41845284Y-16653058D01*
X41591047Y-16547749D01*
X41321149Y-16494063D01*
X41045965Y-16494063D01*
X40776067Y-16547749D01*
X40521830Y-16653058D01*
X40293022Y-16805943D01*
X40098437Y-17000528D01*
X40037829Y-17091234D01*
X40035238Y-17076256D01*
X39994335Y-16951299D01*
X39769522Y-16843645D01*
X38859023Y-17481184D01*
X39496561Y-18391684D01*
X39744636Y-18367413D01*
X39829887Y-18246491D01*
X39840243Y-18298553D01*
X39945552Y-18552790D01*
X40098437Y-18781598D01*
X40293022Y-18976183D01*
X40448558Y-19080109D01*
X40448557Y-21805523D01*
X40447671Y-21823558D01*
X40448557Y-21841594D01*
X40448557Y-21859661D01*
X40450328Y-21877640D01*
X40474463Y-22368949D01*
X40474464Y-22368955D01*
X40474464Y-22368958D01*
X40538667Y-22801774D01*
X40538667Y-22801776D01*
X40554588Y-22909104D01*
X40687267Y-23438788D01*
X40695186Y-23460919D01*
X40867868Y-23943533D01*
X40871230Y-23952930D01*
X41070736Y-24374749D01*
X41104699Y-24446558D01*
X41145139Y-24514027D01*
X41037832Y-24773088D01*
X40975000Y-25088967D01*
X40975000Y-25411033D01*
X41037832Y-25726912D01*
X41161082Y-26024463D01*
X41340013Y-26292252D01*
X41567748Y-26519987D01*
X41835537Y-26698918D01*
X42133088Y-26822168D01*
X42448967Y-26885000D01*
X42771033Y-26885000D01*
X43086912Y-26822168D01*
X43384463Y-26698918D01*
X43652252Y-26519987D01*
X43879987Y-26292252D01*
X44058918Y-26024463D01*
X44182168Y-25726912D01*
X44245000Y-25411033D01*
X44245000Y-25088967D01*
X44182168Y-24773088D01*
X44058918Y-24475537D01*
X43879987Y-24207748D01*
X43652252Y-23980013D01*
X43531183Y-23899117D01*
X44175000Y-23899117D01*
X44175000Y-24240883D01*
X44241675Y-24576081D01*
X44372463Y-24891831D01*
X44562337Y-25175998D01*
X44804002Y-25417663D01*
X45088169Y-25607537D01*
X45403919Y-25738325D01*
X45739117Y-25805000D01*
X46080883Y-25805000D01*
X46416081Y-25738325D01*
X46731831Y-25607537D01*
X47015998Y-25417663D01*
X47257663Y-25175998D01*
X47447537Y-24891831D01*
X47578325Y-24576081D01*
X47645000Y-24240883D01*
X47645000Y-23899117D01*
X47578325Y-23563919D01*
X47447537Y-23248169D01*
X47257663Y-22964002D01*
X47015998Y-22722337D01*
X46731831Y-22532463D01*
X46416081Y-22401675D01*
X46080883Y-22335000D01*
X45739117Y-22335000D01*
X45403919Y-22401675D01*
X45088169Y-22532463D01*
X44804002Y-22722337D01*
X44562337Y-22964002D01*
X44372463Y-23248169D01*
X44241675Y-23563919D01*
X44175000Y-23899117D01*
X43531183Y-23899117D01*
X43384463Y-23801082D01*
X43086912Y-23677832D01*
X42771033Y-23615000D01*
X42448967Y-23615000D01*
X42347108Y-23635261D01*
X42230969Y-23389707D01*
X42095667Y-23011563D01*
X41998080Y-22621975D01*
X41939149Y-22224703D01*
X41918557Y-21805520D01*
X41918557Y-19080108D01*
X42074092Y-18976183D01*
X42268677Y-18781598D01*
X42331348Y-18687804D01*
X42341655Y-18739619D01*
X42446964Y-18993856D01*
X42599849Y-19222664D01*
X42794434Y-19417249D01*
X43023242Y-19570134D01*
X43277479Y-19675443D01*
X43547377Y-19729129D01*
X43822561Y-19729129D01*
X44092459Y-19675443D01*
X44346696Y-19570134D01*
X44575504Y-19417249D01*
X44770089Y-19222664D01*
X44832760Y-19128870D01*
X44843067Y-19180685D01*
X44948376Y-19434922D01*
X45101261Y-19663730D01*
X45295846Y-19858315D01*
X45524654Y-20011200D01*
X45778891Y-20116509D01*
X46048789Y-20170195D01*
X46323973Y-20170195D01*
X46507441Y-20133701D01*
X47955001Y-21581262D01*
X47955000Y-27587023D01*
X47867018Y-27595688D01*
X47747320Y-27631998D01*
X47637006Y-27690963D01*
X47540315Y-27770315D01*
X47460963Y-27867006D01*
X47401998Y-27977320D01*
X47365688Y-28097018D01*
X47357023Y-28185000D01*
X43116105Y-28185000D01*
X43080000Y-28181444D01*
X42935914Y-28195635D01*
X42893886Y-28208384D01*
X42797367Y-28237663D01*
X42669680Y-28305913D01*
X42557762Y-28397762D01*
X42534746Y-28425807D01*
X40005808Y-30954746D01*
X39977763Y-30977762D01*
X39885914Y-31089680D01*
X39864363Y-31130000D01*
X39817664Y-31217367D01*
X39775635Y-31355915D01*
X39761444Y-31500000D01*
X39765001Y-31536115D01*
X39765000Y-43095553D01*
X37347053Y-45513501D01*
X35917211Y-45513501D01*
X35943500Y-45381338D01*
X35943500Y-45118662D01*
X35892254Y-44861032D01*
X35791732Y-44618351D01*
X35645797Y-44399943D01*
X35460057Y-44214203D01*
X35345000Y-44137325D01*
X35345000Y-38712807D01*
X35439549Y-38751971D01*
X35731278Y-38810000D01*
X36028722Y-38810000D01*
X36320451Y-38751971D01*
X36595253Y-38638144D01*
X36842569Y-38472893D01*
X37052893Y-38262569D01*
X37218144Y-38015253D01*
X37331971Y-37740451D01*
X37390000Y-37448722D01*
X37390000Y-37151278D01*
X37331971Y-36859549D01*
X37218144Y-36584747D01*
X37052893Y-36337431D01*
X36842569Y-36127107D01*
X36595253Y-35961856D01*
X36320451Y-35848029D01*
X36028722Y-35790000D01*
X35731278Y-35790000D01*
X35439549Y-35848029D01*
X35345000Y-35887193D01*
X35345000Y-33526094D01*
X35348555Y-33489999D01*
X35345000Y-33453904D01*
X35345000Y-33453895D01*
X35334365Y-33345915D01*
X35292337Y-33207367D01*
X35224087Y-33079680D01*
X35132238Y-32967762D01*
X35104193Y-32944746D01*
X34991493Y-32832046D01*
X35032364Y-32733373D01*
X35100000Y-32393345D01*
X35100000Y-32046655D01*
X35032364Y-31706627D01*
X34899692Y-31386327D01*
X34707081Y-31098065D01*
X34461935Y-30852919D01*
X34173673Y-30660308D01*
X33853373Y-30527636D01*
X33513345Y-30460000D01*
X33166655Y-30460000D01*
X32826627Y-30527636D01*
X32506327Y-30660308D01*
X32218065Y-30852919D01*
X31972919Y-31098065D01*
X31780308Y-31386327D01*
X31647636Y-31706627D01*
X31580000Y-32046655D01*
X31580000Y-32393345D01*
X31647636Y-32733373D01*
X31780308Y-33053673D01*
X31972919Y-33341935D01*
X32218065Y-33587081D01*
X32506327Y-33779692D01*
X32826627Y-33912364D01*
X33166655Y-33980000D01*
X33513345Y-33980000D01*
X33853373Y-33912364D01*
X33875001Y-33903405D01*
X33875000Y-44137325D01*
X33759943Y-44214203D01*
X33574203Y-44399943D01*
X33428268Y-44618351D01*
X33327746Y-44861032D01*
X33276500Y-45118662D01*
X33276500Y-45381338D01*
X33302789Y-45513501D01*
X28352948Y-45513501D01*
X28326572Y-45487125D01*
X28326572Y-44551500D01*
X28314312Y-44427018D01*
X28278002Y-44307320D01*
X28219037Y-44197006D01*
X28139685Y-44100315D01*
X28042994Y-44020963D01*
X27932680Y-43961998D01*
X27812982Y-43925688D01*
X27688500Y-43913428D01*
X26291500Y-43913428D01*
X26167018Y-43925688D01*
X26047320Y-43961998D01*
X25937006Y-44020963D01*
X25840315Y-44100315D01*
X25760963Y-44197006D01*
X25701998Y-44307320D01*
X25665688Y-44427018D01*
X25657023Y-44515000D01*
X25054447Y-44515000D01*
X23224998Y-42685552D01*
X23224998Y-40046096D01*
X23228553Y-40010001D01*
X23224998Y-39973906D01*
X23224998Y-39973897D01*
X23214363Y-39865917D01*
X23172335Y-39727369D01*
X23104085Y-39599682D01*
X23087512Y-39579489D01*
X23035251Y-39515808D01*
X23035248Y-39515805D01*
X23012235Y-39487764D01*
X22984195Y-39464753D01*
X18341242Y-34821800D01*
X18324079Y-34789690D01*
X18232230Y-34677772D01*
X18120312Y-34585923D01*
X17992625Y-34517673D01*
X17854077Y-34475645D01*
X17746097Y-34465010D01*
X17709992Y-34461454D01*
X17673887Y-34465010D01*
X14874437Y-34465010D01*
X15394197Y-33945250D01*
X15422237Y-33922238D01*
X15445250Y-33894197D01*
X15445253Y-33894194D01*
X15470117Y-33863897D01*
X15514087Y-33810320D01*
X15582337Y-33682633D01*
X15624365Y-33544085D01*
X15635000Y-33436105D01*
X15635000Y-33436104D01*
X15638556Y-33400000D01*
X15635000Y-33363895D01*
X15635000Y-32084176D01*
X15635010Y-32084074D01*
X15635010Y-32084067D01*
X15638565Y-32047970D01*
X15635010Y-32011873D01*
X15635010Y-28140222D01*
X15855170Y-28313004D01*
X16212735Y-28494211D01*
X16502041Y-28575122D01*
X17289824Y-28714029D01*
X17589356Y-28736945D01*
X17987334Y-28688960D01*
X18368303Y-28564255D01*
X18717623Y-28367623D01*
X19021870Y-28106622D01*
X19269352Y-27791278D01*
X19450559Y-27433713D01*
X19558526Y-27047667D01*
X19589105Y-26647974D01*
X19541119Y-26249998D01*
X19416415Y-25869029D01*
X19219783Y-25519709D01*
X19019166Y-25285852D01*
X20575000Y-25285852D01*
X20575000Y-25854148D01*
X20685869Y-26411523D01*
X20903346Y-26936560D01*
X21219074Y-27409080D01*
X21620920Y-27810926D01*
X22093440Y-28126654D01*
X22618477Y-28344131D01*
X23175852Y-28455000D01*
X23744148Y-28455000D01*
X24301523Y-28344131D01*
X24826560Y-28126654D01*
X25299080Y-27810926D01*
X25700926Y-27409080D01*
X26016654Y-26936560D01*
X26234131Y-26411523D01*
X26345000Y-25854148D01*
X26345000Y-25285852D01*
X26234131Y-24728477D01*
X26016654Y-24203440D01*
X25700926Y-23730920D01*
X25299080Y-23329074D01*
X24826560Y-23013346D01*
X24301523Y-22795869D01*
X23744148Y-22685000D01*
X23175852Y-22685000D01*
X22618477Y-22795869D01*
X22093440Y-23013346D01*
X21620920Y-23329074D01*
X21219074Y-23730920D01*
X20903346Y-24203440D01*
X20685869Y-24728477D01*
X20575000Y-25285852D01*
X19019166Y-25285852D01*
X18958781Y-25215462D01*
X18643438Y-24967980D01*
X18285873Y-24786773D01*
X17996567Y-24705862D01*
X17208783Y-24566955D01*
X16909251Y-24544039D01*
X16793442Y-24558002D01*
X21316445Y-20035000D01*
X31198952Y-20035000D01*
X31198951Y-24851600D01*
X26485552Y-29565000D01*
X19182951Y-29565000D01*
X19042889Y-29471414D01*
X18872729Y-29400932D01*
X18692089Y-29365000D01*
X18507911Y-29365000D01*
X18327271Y-29400932D01*
X18157111Y-29471414D01*
X18003972Y-29573738D01*
X17873738Y-29703972D01*
X17771414Y-29857111D01*
X17700932Y-30027271D01*
X17665000Y-30207911D01*
X17665000Y-30392089D01*
X17700932Y-30572729D01*
X17771414Y-30742889D01*
X17873738Y-30896028D01*
X18003972Y-31026262D01*
X18157111Y-31128586D01*
X18327271Y-31199068D01*
X18507911Y-31235000D01*
X18692089Y-31235000D01*
X18872729Y-31199068D01*
X19042889Y-31128586D01*
X19182951Y-31035000D01*
X26753893Y-31035000D01*
X26789998Y-31038556D01*
X26826103Y-31035000D01*
X26934083Y-31024365D01*
X27072631Y-30982337D01*
X27200318Y-30914087D01*
X27312236Y-30822238D01*
X27335257Y-30794187D01*
X28815001Y-29314443D01*
X28815001Y-31895552D01*
X27602046Y-33108508D01*
X27503373Y-33067636D01*
X27163345Y-33000000D01*
X26816655Y-33000000D01*
X26476627Y-33067636D01*
X26156327Y-33200308D01*
X25868065Y-33392919D01*
X25622919Y-33638065D01*
X25430308Y-33926327D01*
X25297636Y-34246627D01*
X25230000Y-34586655D01*
X25230000Y-34933345D01*
X25297636Y-35273373D01*
X25430308Y-35593673D01*
X25562638Y-35791719D01*
X25279549Y-35848029D01*
X25004747Y-35961856D01*
X24757431Y-36127107D01*
X24547107Y-36337431D01*
X24381856Y-36584747D01*
X24268029Y-36859549D01*
X24210000Y-37151278D01*
X24210000Y-37448722D01*
X24268029Y-37740451D01*
X24381856Y-38015253D01*
X24547107Y-38262569D01*
X24757431Y-38472893D01*
X25004747Y-38638144D01*
X25279549Y-38751971D01*
X25571278Y-38810000D01*
X25868722Y-38810000D01*
X26160451Y-38751971D01*
X26435253Y-38638144D01*
X26682569Y-38472893D01*
X26892893Y-38262569D01*
X27058144Y-38015253D01*
X27171971Y-37740451D01*
X27230000Y-37448722D01*
X27230000Y-37151278D01*
X27208080Y-37041076D01*
X28171100Y-37041076D01*
X28171100Y-37558924D01*
X28272127Y-38066822D01*
X28470299Y-38545251D01*
X28758000Y-38975826D01*
X29124174Y-39342000D01*
X29554749Y-39629701D01*
X30033178Y-39827873D01*
X30541076Y-39928900D01*
X31058924Y-39928900D01*
X31566822Y-39827873D01*
X32045251Y-39629701D01*
X32475826Y-39342000D01*
X32842000Y-38975826D01*
X33129701Y-38545251D01*
X33327873Y-38066822D01*
X33428900Y-37558924D01*
X33428900Y-37041076D01*
X33327873Y-36533178D01*
X33129701Y-36054749D01*
X32842000Y-35624174D01*
X32475826Y-35258000D01*
X32045251Y-34970299D01*
X31566822Y-34772127D01*
X31058924Y-34671100D01*
X30541076Y-34671100D01*
X30033178Y-34772127D01*
X29554749Y-34970299D01*
X29124174Y-35258000D01*
X28758000Y-35624174D01*
X28470299Y-36054749D01*
X28272127Y-36533178D01*
X28171100Y-37041076D01*
X27208080Y-37041076D01*
X27171971Y-36859549D01*
X27058144Y-36584747D01*
X27014882Y-36520000D01*
X27163345Y-36520000D01*
X27503373Y-36452364D01*
X27823673Y-36319692D01*
X28111935Y-36127081D01*
X28357081Y-35881935D01*
X28549692Y-35593673D01*
X28682364Y-35273373D01*
X28750000Y-34933345D01*
X28750000Y-34586655D01*
X28682364Y-34246627D01*
X28641492Y-34147954D01*
X30044194Y-32745253D01*
X30072239Y-32722237D01*
X30095255Y-32694192D01*
X30098101Y-32691346D01*
X30166934Y-32607473D01*
X30235184Y-32479786D01*
X30277212Y-32341238D01*
X30291403Y-32197153D01*
X30285001Y-32132152D01*
X30285001Y-28410141D01*
X32309730Y-26385413D01*
X35154192Y-26385413D01*
X35249956Y-26649814D01*
X35539571Y-26790704D01*
X35851108Y-26872384D01*
X36172595Y-26891718D01*
X36491675Y-26847961D01*
X36796088Y-26742795D01*
X36970044Y-26649814D01*
X37065808Y-26385413D01*
X36110000Y-25429605D01*
X35154192Y-26385413D01*
X32309730Y-26385413D01*
X32828158Y-25866986D01*
X32856198Y-25843974D01*
X32879211Y-25815933D01*
X32879214Y-25815930D01*
X32948047Y-25732057D01*
X32948048Y-25732056D01*
X33016298Y-25604369D01*
X33058326Y-25465821D01*
X33068961Y-25357841D01*
X33068961Y-25357832D01*
X33072516Y-25321737D01*
X33071616Y-25312595D01*
X34468282Y-25312595D01*
X34512039Y-25631675D01*
X34617205Y-25936088D01*
X34710186Y-26110044D01*
X34974587Y-26205808D01*
X35930395Y-25250000D01*
X36289605Y-25250000D01*
X37245413Y-26205808D01*
X37509814Y-26110044D01*
X37650704Y-25820429D01*
X37732384Y-25508892D01*
X37751718Y-25187405D01*
X37707961Y-24868325D01*
X37602795Y-24563912D01*
X37509814Y-24389956D01*
X37245413Y-24294192D01*
X36289605Y-25250000D01*
X35930395Y-25250000D01*
X34974587Y-24294192D01*
X34710186Y-24389956D01*
X34569296Y-24679571D01*
X34487616Y-24991108D01*
X34468282Y-25312595D01*
X33071616Y-25312595D01*
X33068961Y-25285642D01*
X33068961Y-24114587D01*
X35154192Y-24114587D01*
X36110000Y-25070395D01*
X37065808Y-24114587D01*
X36970044Y-23850186D01*
X36680429Y-23709296D01*
X36368892Y-23627616D01*
X36047405Y-23608282D01*
X35728325Y-23652039D01*
X35423912Y-23757205D01*
X35249956Y-23850186D01*
X35154192Y-24114587D01*
X33068961Y-24114587D01*
X33068961Y-22738524D01*
X33132463Y-22891831D01*
X33322337Y-23175998D01*
X33564002Y-23417663D01*
X33848169Y-23607537D01*
X34163919Y-23738325D01*
X34499117Y-23805000D01*
X34840883Y-23805000D01*
X35176081Y-23738325D01*
X35491831Y-23607537D01*
X35775998Y-23417663D01*
X36017663Y-23175998D01*
X36207537Y-22891831D01*
X36338325Y-22576081D01*
X36405000Y-22240883D01*
X36405000Y-21899117D01*
X36338325Y-21563919D01*
X36207537Y-21248169D01*
X36017663Y-20964002D01*
X35775998Y-20722337D01*
X35491831Y-20532463D01*
X35176081Y-20401675D01*
X34840883Y-20335000D01*
X34499117Y-20335000D01*
X34163919Y-20401675D01*
X33848169Y-20532463D01*
X33564002Y-20722337D01*
X33322337Y-20964002D01*
X33132463Y-21248169D01*
X33068961Y-21401476D01*
X33068961Y-20154085D01*
X34937477Y-18285570D01*
X34965517Y-18262558D01*
X34988530Y-18234517D01*
X34988533Y-18234514D01*
X35057367Y-18150640D01*
X35125617Y-18022954D01*
X35147375Y-17951226D01*
X35290199Y-18094050D01*
X35519007Y-18246935D01*
X35773244Y-18352244D01*
X36043142Y-18405930D01*
X36318326Y-18405930D01*
X36588224Y-18352244D01*
X36800270Y-18264411D01*
X37740458Y-18264411D01*
X37764729Y-18512486D01*
X37989639Y-18671050D01*
X38241161Y-18782689D01*
X38509630Y-18843113D01*
X38784729Y-18850001D01*
X39055886Y-18803088D01*
X39180843Y-18762185D01*
X39288497Y-18537372D01*
X38650958Y-17626873D01*
X37740458Y-18264411D01*
X36800270Y-18264411D01*
X36842461Y-18246935D01*
X37071269Y-18094050D01*
X37265854Y-17899465D01*
X37326463Y-17808758D01*
X37329054Y-17823736D01*
X37369957Y-17948693D01*
X37594770Y-18056347D01*
X38505269Y-17418808D01*
X37867731Y-16508308D01*
X37619656Y-16532579D01*
X37534404Y-16653502D01*
X37524048Y-16601440D01*
X37425125Y-16362620D01*
X38075795Y-16362620D01*
X38713334Y-17273119D01*
X39623834Y-16635581D01*
X39599563Y-16387506D01*
X39374653Y-16228942D01*
X39123131Y-16117303D01*
X38854662Y-16056879D01*
X38579563Y-16049991D01*
X38308406Y-16096904D01*
X38183449Y-16137807D01*
X38075795Y-16362620D01*
X37425125Y-16362620D01*
X37418739Y-16347203D01*
X37265854Y-16118395D01*
X37185253Y-16037794D01*
X45416016Y-7807031D01*
X45519324Y-7722248D01*
X45542344Y-7694198D01*
X46751543Y-6485000D01*
X48375553Y-6485000D01*
X44992486Y-9868068D01*
X44827271Y-9900932D01*
X44657111Y-9971414D01*
X44503972Y-10073738D01*
X44373738Y-10203972D01*
X44271414Y-10357111D01*
X44200932Y-10527271D01*
X44165000Y-10707911D01*
X44165000Y-10892089D01*
X44200932Y-11072729D01*
X44271414Y-11242889D01*
X44373738Y-11396028D01*
X44503972Y-11526262D01*
X44657111Y-11628586D01*
X44827271Y-11699068D01*
X45007911Y-11735000D01*
X45192089Y-11735000D01*
X45372729Y-11699068D01*
X45542889Y-11628586D01*
X45696028Y-11526262D01*
X45826262Y-11396028D01*
X45928586Y-11242889D01*
X45999068Y-11072729D01*
X46031932Y-10907514D01*
X50054437Y-6885010D01*
X55650102Y-6885010D01*
X55679695Y-6893987D01*
X55787675Y-6904622D01*
X55823780Y-6908178D01*
X55859885Y-6904622D01*
X58177913Y-6904622D01*
X58214018Y-6908178D01*
X58250123Y-6904622D01*
X58356083Y-6894186D01*
X58358103Y-6893987D01*
X58369634Y-6890489D01*
X58400909Y-6881002D01*
X58427463Y-6892001D01*
X58697361Y-6945687D01*
X58972545Y-6945687D01*
X59242443Y-6892001D01*
X59496680Y-6786692D01*
X59725488Y-6633807D01*
X59920073Y-6439222D01*
X59982744Y-6345429D01*
X59993050Y-6397243D01*
%TA.AperFunction,Conductor*%
D22*
G36*
X59993050Y-6397243D02*
G01*
X60098359Y-6651480D01*
X60251244Y-6880288D01*
X60445829Y-7074873D01*
X60674637Y-7227758D01*
X60928874Y-7333067D01*
X61198772Y-7386753D01*
X61473956Y-7386753D01*
X61657424Y-7350259D01*
X64355001Y-10047837D01*
X64355001Y-20621417D01*
X64103752Y-20517346D01*
X63833854Y-20463660D01*
X63558670Y-20463660D01*
X63288772Y-20517346D01*
X63034535Y-20622655D01*
X62805727Y-20775540D01*
X62611142Y-20970125D01*
X62548471Y-21063918D01*
X62538165Y-21012104D01*
X62432856Y-20757867D01*
X62279971Y-20529059D01*
X62085386Y-20334474D01*
X61856578Y-20181589D01*
X61602341Y-20076280D01*
X61332443Y-20022594D01*
X61057259Y-20022594D01*
X60787361Y-20076280D01*
X60533124Y-20181589D01*
X60304316Y-20334474D01*
X60109731Y-20529059D01*
X60047060Y-20622853D01*
X60036753Y-20571037D01*
X59931444Y-20316800D01*
X59778559Y-20087992D01*
X59583974Y-19893407D01*
X59355166Y-19740522D01*
X59100929Y-19635213D01*
X58831031Y-19581527D01*
X58555847Y-19581527D01*
X58285949Y-19635213D01*
X58031712Y-19740522D01*
X57802904Y-19893407D01*
X57608319Y-20087992D01*
X57545648Y-20181786D01*
X57535341Y-20129971D01*
X57430032Y-19875734D01*
X57277147Y-19646926D01*
X57082562Y-19452341D01*
X56853754Y-19299456D01*
X56599517Y-19194147D01*
X56329619Y-19140461D01*
X56054435Y-19140461D01*
X55784537Y-19194147D01*
X55530300Y-19299456D01*
X55301492Y-19452341D01*
X55106907Y-19646926D01*
X55044236Y-19740719D01*
X55033930Y-19688905D01*
X54928621Y-19434668D01*
X54775736Y-19205860D01*
X54581151Y-19011275D01*
X54352343Y-18858390D01*
X54098106Y-18753081D01*
X53828208Y-18699395D01*
X53553024Y-18699395D01*
X53283126Y-18753081D01*
X53028889Y-18858390D01*
X52800081Y-19011275D01*
X52605496Y-19205860D01*
X52542825Y-19299654D01*
X52532518Y-19247838D01*
X52427209Y-18993601D01*
X52274324Y-18764793D01*
X52079739Y-18570208D01*
X51850931Y-18417323D01*
X51596694Y-18312014D01*
X51326796Y-18258328D01*
X51051612Y-18258328D01*
X50781714Y-18312014D01*
X50527477Y-18417323D01*
X50298669Y-18570208D01*
X50104084Y-18764793D01*
X50041413Y-18858587D01*
X50031106Y-18806772D01*
X49925797Y-18552535D01*
X49772912Y-18323727D01*
X49578327Y-18129142D01*
X49349519Y-17976257D01*
X49095282Y-17870948D01*
X48825384Y-17817262D01*
X48550200Y-17817262D01*
X48280302Y-17870948D01*
X48026065Y-17976257D01*
X47797257Y-18129142D01*
X47602672Y-18323727D01*
X47540002Y-18417520D01*
X47529695Y-18365705D01*
X47424386Y-18111468D01*
X47271501Y-17882660D01*
X47076916Y-17688075D01*
X46848108Y-17535190D01*
X46593871Y-17429881D01*
X46323973Y-17376195D01*
X46048789Y-17376195D01*
X45778891Y-17429881D01*
X45524654Y-17535190D01*
X45295846Y-17688075D01*
X45101261Y-17882660D01*
X45038590Y-17976454D01*
X45028283Y-17924639D01*
X44922974Y-17670402D01*
X44770089Y-17441594D01*
X44575504Y-17247009D01*
X44346696Y-17094124D01*
X44092459Y-16988815D01*
X43822561Y-16935129D01*
X43547377Y-16935129D01*
X43277479Y-16988815D01*
X43023242Y-17094124D01*
X42794434Y-17247009D01*
X42599849Y-17441594D01*
X42537178Y-17535388D01*
X42526871Y-17483573D01*
X42421562Y-17229336D01*
X42268677Y-17000528D01*
X42074092Y-16805943D01*
X41845284Y-16653058D01*
X41591047Y-16547749D01*
X41321149Y-16494063D01*
X41045965Y-16494063D01*
X40776067Y-16547749D01*
X40521830Y-16653058D01*
X40293022Y-16805943D01*
X40098437Y-17000528D01*
X40037829Y-17091234D01*
X40035238Y-17076256D01*
X39994335Y-16951299D01*
X39769522Y-16843645D01*
X38859023Y-17481184D01*
X39496561Y-18391684D01*
X39744636Y-18367413D01*
X39829887Y-18246491D01*
X39840243Y-18298553D01*
X39945552Y-18552790D01*
X40098437Y-18781598D01*
X40293022Y-18976183D01*
X40448558Y-19080109D01*
X40448557Y-21805523D01*
X40447671Y-21823558D01*
X40448557Y-21841594D01*
X40448557Y-21859661D01*
X40450328Y-21877640D01*
X40474463Y-22368949D01*
X40474464Y-22368955D01*
X40474464Y-22368958D01*
X40538667Y-22801774D01*
X40538667Y-22801776D01*
X40554588Y-22909104D01*
X40687267Y-23438788D01*
X40695186Y-23460919D01*
X40867868Y-23943533D01*
X40871230Y-23952930D01*
X41070736Y-24374749D01*
X41104699Y-24446558D01*
X41145139Y-24514027D01*
X41037832Y-24773088D01*
X40975000Y-25088967D01*
X40975000Y-25411033D01*
X41037832Y-25726912D01*
X41161082Y-26024463D01*
X41340013Y-26292252D01*
X41567748Y-26519987D01*
X41835537Y-26698918D01*
X42133088Y-26822168D01*
X42448967Y-26885000D01*
X42771033Y-26885000D01*
X43086912Y-26822168D01*
X43384463Y-26698918D01*
X43652252Y-26519987D01*
X43879987Y-26292252D01*
X44058918Y-26024463D01*
X44182168Y-25726912D01*
X44245000Y-25411033D01*
X44245000Y-25088967D01*
X44182168Y-24773088D01*
X44058918Y-24475537D01*
X43879987Y-24207748D01*
X43652252Y-23980013D01*
X43531183Y-23899117D01*
X44175000Y-23899117D01*
X44175000Y-24240883D01*
X44241675Y-24576081D01*
X44372463Y-24891831D01*
X44562337Y-25175998D01*
X44804002Y-25417663D01*
X45088169Y-25607537D01*
X45403919Y-25738325D01*
X45739117Y-25805000D01*
X46080883Y-25805000D01*
X46416081Y-25738325D01*
X46731831Y-25607537D01*
X47015998Y-25417663D01*
X47257663Y-25175998D01*
X47447537Y-24891831D01*
X47578325Y-24576081D01*
X47645000Y-24240883D01*
X47645000Y-23899117D01*
X47578325Y-23563919D01*
X47447537Y-23248169D01*
X47257663Y-22964002D01*
X47015998Y-22722337D01*
X46731831Y-22532463D01*
X46416081Y-22401675D01*
X46080883Y-22335000D01*
X45739117Y-22335000D01*
X45403919Y-22401675D01*
X45088169Y-22532463D01*
X44804002Y-22722337D01*
X44562337Y-22964002D01*
X44372463Y-23248169D01*
X44241675Y-23563919D01*
X44175000Y-23899117D01*
X43531183Y-23899117D01*
X43384463Y-23801082D01*
X43086912Y-23677832D01*
X42771033Y-23615000D01*
X42448967Y-23615000D01*
X42347108Y-23635261D01*
X42230969Y-23389707D01*
X42095667Y-23011563D01*
X41998080Y-22621975D01*
X41939149Y-22224703D01*
X41918557Y-21805520D01*
X41918557Y-19080108D01*
X42074092Y-18976183D01*
X42268677Y-18781598D01*
X42331348Y-18687804D01*
X42341655Y-18739619D01*
X42446964Y-18993856D01*
X42599849Y-19222664D01*
X42794434Y-19417249D01*
X43023242Y-19570134D01*
X43277479Y-19675443D01*
X43547377Y-19729129D01*
X43822561Y-19729129D01*
X44092459Y-19675443D01*
X44346696Y-19570134D01*
X44575504Y-19417249D01*
X44770089Y-19222664D01*
X44832760Y-19128870D01*
X44843067Y-19180685D01*
X44948376Y-19434922D01*
X45101261Y-19663730D01*
X45295846Y-19858315D01*
X45524654Y-20011200D01*
X45778891Y-20116509D01*
X46048789Y-20170195D01*
X46323973Y-20170195D01*
X46507441Y-20133701D01*
X47955001Y-21581262D01*
X47955000Y-27587023D01*
X47867018Y-27595688D01*
X47747320Y-27631998D01*
X47637006Y-27690963D01*
X47540315Y-27770315D01*
X47460963Y-27867006D01*
X47401998Y-27977320D01*
X47365688Y-28097018D01*
X47357023Y-28185000D01*
X43116105Y-28185000D01*
X43080000Y-28181444D01*
X42935914Y-28195635D01*
X42893886Y-28208384D01*
X42797367Y-28237663D01*
X42669680Y-28305913D01*
X42557762Y-28397762D01*
X42534746Y-28425807D01*
X40005808Y-30954746D01*
X39977763Y-30977762D01*
X39885914Y-31089680D01*
X39864363Y-31130000D01*
X39817664Y-31217367D01*
X39775635Y-31355915D01*
X39761444Y-31500000D01*
X39765001Y-31536115D01*
X39765000Y-43095553D01*
X37347053Y-45513501D01*
X35917211Y-45513501D01*
X35943500Y-45381338D01*
X35943500Y-45118662D01*
X35892254Y-44861032D01*
X35791732Y-44618351D01*
X35645797Y-44399943D01*
X35460057Y-44214203D01*
X35345000Y-44137325D01*
X35345000Y-38712807D01*
X35439549Y-38751971D01*
X35731278Y-38810000D01*
X36028722Y-38810000D01*
X36320451Y-38751971D01*
X36595253Y-38638144D01*
X36842569Y-38472893D01*
X37052893Y-38262569D01*
X37218144Y-38015253D01*
X37331971Y-37740451D01*
X37390000Y-37448722D01*
X37390000Y-37151278D01*
X37331971Y-36859549D01*
X37218144Y-36584747D01*
X37052893Y-36337431D01*
X36842569Y-36127107D01*
X36595253Y-35961856D01*
X36320451Y-35848029D01*
X36028722Y-35790000D01*
X35731278Y-35790000D01*
X35439549Y-35848029D01*
X35345000Y-35887193D01*
X35345000Y-33526094D01*
X35348555Y-33489999D01*
X35345000Y-33453904D01*
X35345000Y-33453895D01*
X35334365Y-33345915D01*
X35292337Y-33207367D01*
X35224087Y-33079680D01*
X35132238Y-32967762D01*
X35104193Y-32944746D01*
X34991493Y-32832046D01*
X35032364Y-32733373D01*
X35100000Y-32393345D01*
X35100000Y-32046655D01*
X35032364Y-31706627D01*
X34899692Y-31386327D01*
X34707081Y-31098065D01*
X34461935Y-30852919D01*
X34173673Y-30660308D01*
X33853373Y-30527636D01*
X33513345Y-30460000D01*
X33166655Y-30460000D01*
X32826627Y-30527636D01*
X32506327Y-30660308D01*
X32218065Y-30852919D01*
X31972919Y-31098065D01*
X31780308Y-31386327D01*
X31647636Y-31706627D01*
X31580000Y-32046655D01*
X31580000Y-32393345D01*
X31647636Y-32733373D01*
X31780308Y-33053673D01*
X31972919Y-33341935D01*
X32218065Y-33587081D01*
X32506327Y-33779692D01*
X32826627Y-33912364D01*
X33166655Y-33980000D01*
X33513345Y-33980000D01*
X33853373Y-33912364D01*
X33875001Y-33903405D01*
X33875000Y-44137325D01*
X33759943Y-44214203D01*
X33574203Y-44399943D01*
X33428268Y-44618351D01*
X33327746Y-44861032D01*
X33276500Y-45118662D01*
X33276500Y-45381338D01*
X33302789Y-45513501D01*
X28352948Y-45513501D01*
X28326572Y-45487125D01*
X28326572Y-44551500D01*
X28314312Y-44427018D01*
X28278002Y-44307320D01*
X28219037Y-44197006D01*
X28139685Y-44100315D01*
X28042994Y-44020963D01*
X27932680Y-43961998D01*
X27812982Y-43925688D01*
X27688500Y-43913428D01*
X26291500Y-43913428D01*
X26167018Y-43925688D01*
X26047320Y-43961998D01*
X25937006Y-44020963D01*
X25840315Y-44100315D01*
X25760963Y-44197006D01*
X25701998Y-44307320D01*
X25665688Y-44427018D01*
X25657023Y-44515000D01*
X25054447Y-44515000D01*
X23224998Y-42685552D01*
X23224998Y-40046096D01*
X23228553Y-40010001D01*
X23224998Y-39973906D01*
X23224998Y-39973897D01*
X23214363Y-39865917D01*
X23172335Y-39727369D01*
X23104085Y-39599682D01*
X23087512Y-39579489D01*
X23035251Y-39515808D01*
X23035248Y-39515805D01*
X23012235Y-39487764D01*
X22984195Y-39464753D01*
X18341242Y-34821800D01*
X18324079Y-34789690D01*
X18232230Y-34677772D01*
X18120312Y-34585923D01*
X17992625Y-34517673D01*
X17854077Y-34475645D01*
X17746097Y-34465010D01*
X17709992Y-34461454D01*
X17673887Y-34465010D01*
X14874437Y-34465010D01*
X15394197Y-33945250D01*
X15422237Y-33922238D01*
X15445250Y-33894197D01*
X15445253Y-33894194D01*
X15470117Y-33863897D01*
X15514087Y-33810320D01*
X15582337Y-33682633D01*
X15624365Y-33544085D01*
X15635000Y-33436105D01*
X15635000Y-33436104D01*
X15638556Y-33400000D01*
X15635000Y-33363895D01*
X15635000Y-32084176D01*
X15635010Y-32084074D01*
X15635010Y-32084067D01*
X15638565Y-32047970D01*
X15635010Y-32011873D01*
X15635010Y-28140222D01*
X15855170Y-28313004D01*
X16212735Y-28494211D01*
X16502041Y-28575122D01*
X17289824Y-28714029D01*
X17589356Y-28736945D01*
X17987334Y-28688960D01*
X18368303Y-28564255D01*
X18717623Y-28367623D01*
X19021870Y-28106622D01*
X19269352Y-27791278D01*
X19450559Y-27433713D01*
X19558526Y-27047667D01*
X19589105Y-26647974D01*
X19541119Y-26249998D01*
X19416415Y-25869029D01*
X19219783Y-25519709D01*
X19019166Y-25285852D01*
X20575000Y-25285852D01*
X20575000Y-25854148D01*
X20685869Y-26411523D01*
X20903346Y-26936560D01*
X21219074Y-27409080D01*
X21620920Y-27810926D01*
X22093440Y-28126654D01*
X22618477Y-28344131D01*
X23175852Y-28455000D01*
X23744148Y-28455000D01*
X24301523Y-28344131D01*
X24826560Y-28126654D01*
X25299080Y-27810926D01*
X25700926Y-27409080D01*
X26016654Y-26936560D01*
X26234131Y-26411523D01*
X26345000Y-25854148D01*
X26345000Y-25285852D01*
X26234131Y-24728477D01*
X26016654Y-24203440D01*
X25700926Y-23730920D01*
X25299080Y-23329074D01*
X24826560Y-23013346D01*
X24301523Y-22795869D01*
X23744148Y-22685000D01*
X23175852Y-22685000D01*
X22618477Y-22795869D01*
X22093440Y-23013346D01*
X21620920Y-23329074D01*
X21219074Y-23730920D01*
X20903346Y-24203440D01*
X20685869Y-24728477D01*
X20575000Y-25285852D01*
X19019166Y-25285852D01*
X18958781Y-25215462D01*
X18643438Y-24967980D01*
X18285873Y-24786773D01*
X17996567Y-24705862D01*
X17208783Y-24566955D01*
X16909251Y-24544039D01*
X16793442Y-24558002D01*
X21316445Y-20035000D01*
X31198952Y-20035000D01*
X31198951Y-24851600D01*
X26485552Y-29565000D01*
X19182951Y-29565000D01*
X19042889Y-29471414D01*
X18872729Y-29400932D01*
X18692089Y-29365000D01*
X18507911Y-29365000D01*
X18327271Y-29400932D01*
X18157111Y-29471414D01*
X18003972Y-29573738D01*
X17873738Y-29703972D01*
X17771414Y-29857111D01*
X17700932Y-30027271D01*
X17665000Y-30207911D01*
X17665000Y-30392089D01*
X17700932Y-30572729D01*
X17771414Y-30742889D01*
X17873738Y-30896028D01*
X18003972Y-31026262D01*
X18157111Y-31128586D01*
X18327271Y-31199068D01*
X18507911Y-31235000D01*
X18692089Y-31235000D01*
X18872729Y-31199068D01*
X19042889Y-31128586D01*
X19182951Y-31035000D01*
X26753893Y-31035000D01*
X26789998Y-31038556D01*
X26826103Y-31035000D01*
X26934083Y-31024365D01*
X27072631Y-30982337D01*
X27200318Y-30914087D01*
X27312236Y-30822238D01*
X27335257Y-30794187D01*
X28815001Y-29314443D01*
X28815001Y-31895552D01*
X27602046Y-33108508D01*
X27503373Y-33067636D01*
X27163345Y-33000000D01*
X26816655Y-33000000D01*
X26476627Y-33067636D01*
X26156327Y-33200308D01*
X25868065Y-33392919D01*
X25622919Y-33638065D01*
X25430308Y-33926327D01*
X25297636Y-34246627D01*
X25230000Y-34586655D01*
X25230000Y-34933345D01*
X25297636Y-35273373D01*
X25430308Y-35593673D01*
X25562638Y-35791719D01*
X25279549Y-35848029D01*
X25004747Y-35961856D01*
X24757431Y-36127107D01*
X24547107Y-36337431D01*
X24381856Y-36584747D01*
X24268029Y-36859549D01*
X24210000Y-37151278D01*
X24210000Y-37448722D01*
X24268029Y-37740451D01*
X24381856Y-38015253D01*
X24547107Y-38262569D01*
X24757431Y-38472893D01*
X25004747Y-38638144D01*
X25279549Y-38751971D01*
X25571278Y-38810000D01*
X25868722Y-38810000D01*
X26160451Y-38751971D01*
X26435253Y-38638144D01*
X26682569Y-38472893D01*
X26892893Y-38262569D01*
X27058144Y-38015253D01*
X27171971Y-37740451D01*
X27230000Y-37448722D01*
X27230000Y-37151278D01*
X27208080Y-37041076D01*
X28171100Y-37041076D01*
X28171100Y-37558924D01*
X28272127Y-38066822D01*
X28470299Y-38545251D01*
X28758000Y-38975826D01*
X29124174Y-39342000D01*
X29554749Y-39629701D01*
X30033178Y-39827873D01*
X30541076Y-39928900D01*
X31058924Y-39928900D01*
X31566822Y-39827873D01*
X32045251Y-39629701D01*
X32475826Y-39342000D01*
X32842000Y-38975826D01*
X33129701Y-38545251D01*
X33327873Y-38066822D01*
X33428900Y-37558924D01*
X33428900Y-37041076D01*
X33327873Y-36533178D01*
X33129701Y-36054749D01*
X32842000Y-35624174D01*
X32475826Y-35258000D01*
X32045251Y-34970299D01*
X31566822Y-34772127D01*
X31058924Y-34671100D01*
X30541076Y-34671100D01*
X30033178Y-34772127D01*
X29554749Y-34970299D01*
X29124174Y-35258000D01*
X28758000Y-35624174D01*
X28470299Y-36054749D01*
X28272127Y-36533178D01*
X28171100Y-37041076D01*
X27208080Y-37041076D01*
X27171971Y-36859549D01*
X27058144Y-36584747D01*
X27014882Y-36520000D01*
X27163345Y-36520000D01*
X27503373Y-36452364D01*
X27823673Y-36319692D01*
X28111935Y-36127081D01*
X28357081Y-35881935D01*
X28549692Y-35593673D01*
X28682364Y-35273373D01*
X28750000Y-34933345D01*
X28750000Y-34586655D01*
X28682364Y-34246627D01*
X28641492Y-34147954D01*
X30044194Y-32745253D01*
X30072239Y-32722237D01*
X30095255Y-32694192D01*
X30098101Y-32691346D01*
X30166934Y-32607473D01*
X30235184Y-32479786D01*
X30277212Y-32341238D01*
X30291403Y-32197153D01*
X30285001Y-32132152D01*
X30285001Y-28410141D01*
X32309730Y-26385413D01*
X35154192Y-26385413D01*
X35249956Y-26649814D01*
X35539571Y-26790704D01*
X35851108Y-26872384D01*
X36172595Y-26891718D01*
X36491675Y-26847961D01*
X36796088Y-26742795D01*
X36970044Y-26649814D01*
X37065808Y-26385413D01*
X36110000Y-25429605D01*
X35154192Y-26385413D01*
X32309730Y-26385413D01*
X32828158Y-25866986D01*
X32856198Y-25843974D01*
X32879211Y-25815933D01*
X32879214Y-25815930D01*
X32948047Y-25732057D01*
X32948048Y-25732056D01*
X33016298Y-25604369D01*
X33058326Y-25465821D01*
X33068961Y-25357841D01*
X33068961Y-25357832D01*
X33072516Y-25321737D01*
X33071616Y-25312595D01*
X34468282Y-25312595D01*
X34512039Y-25631675D01*
X34617205Y-25936088D01*
X34710186Y-26110044D01*
X34974587Y-26205808D01*
X35930395Y-25250000D01*
X36289605Y-25250000D01*
X37245413Y-26205808D01*
X37509814Y-26110044D01*
X37650704Y-25820429D01*
X37732384Y-25508892D01*
X37751718Y-25187405D01*
X37707961Y-24868325D01*
X37602795Y-24563912D01*
X37509814Y-24389956D01*
X37245413Y-24294192D01*
X36289605Y-25250000D01*
X35930395Y-25250000D01*
X34974587Y-24294192D01*
X34710186Y-24389956D01*
X34569296Y-24679571D01*
X34487616Y-24991108D01*
X34468282Y-25312595D01*
X33071616Y-25312595D01*
X33068961Y-25285642D01*
X33068961Y-24114587D01*
X35154192Y-24114587D01*
X36110000Y-25070395D01*
X37065808Y-24114587D01*
X36970044Y-23850186D01*
X36680429Y-23709296D01*
X36368892Y-23627616D01*
X36047405Y-23608282D01*
X35728325Y-23652039D01*
X35423912Y-23757205D01*
X35249956Y-23850186D01*
X35154192Y-24114587D01*
X33068961Y-24114587D01*
X33068961Y-22738524D01*
X33132463Y-22891831D01*
X33322337Y-23175998D01*
X33564002Y-23417663D01*
X33848169Y-23607537D01*
X34163919Y-23738325D01*
X34499117Y-23805000D01*
X34840883Y-23805000D01*
X35176081Y-23738325D01*
X35491831Y-23607537D01*
X35775998Y-23417663D01*
X36017663Y-23175998D01*
X36207537Y-22891831D01*
X36338325Y-22576081D01*
X36405000Y-22240883D01*
X36405000Y-21899117D01*
X36338325Y-21563919D01*
X36207537Y-21248169D01*
X36017663Y-20964002D01*
X35775998Y-20722337D01*
X35491831Y-20532463D01*
X35176081Y-20401675D01*
X34840883Y-20335000D01*
X34499117Y-20335000D01*
X34163919Y-20401675D01*
X33848169Y-20532463D01*
X33564002Y-20722337D01*
X33322337Y-20964002D01*
X33132463Y-21248169D01*
X33068961Y-21401476D01*
X33068961Y-20154085D01*
X34937477Y-18285570D01*
X34965517Y-18262558D01*
X34988530Y-18234517D01*
X34988533Y-18234514D01*
X35057367Y-18150640D01*
X35125617Y-18022954D01*
X35147375Y-17951226D01*
X35290199Y-18094050D01*
X35519007Y-18246935D01*
X35773244Y-18352244D01*
X36043142Y-18405930D01*
X36318326Y-18405930D01*
X36588224Y-18352244D01*
X36800270Y-18264411D01*
X37740458Y-18264411D01*
X37764729Y-18512486D01*
X37989639Y-18671050D01*
X38241161Y-18782689D01*
X38509630Y-18843113D01*
X38784729Y-18850001D01*
X39055886Y-18803088D01*
X39180843Y-18762185D01*
X39288497Y-18537372D01*
X38650958Y-17626873D01*
X37740458Y-18264411D01*
X36800270Y-18264411D01*
X36842461Y-18246935D01*
X37071269Y-18094050D01*
X37265854Y-17899465D01*
X37326463Y-17808758D01*
X37329054Y-17823736D01*
X37369957Y-17948693D01*
X37594770Y-18056347D01*
X38505269Y-17418808D01*
X37867731Y-16508308D01*
X37619656Y-16532579D01*
X37534404Y-16653502D01*
X37524048Y-16601440D01*
X37425125Y-16362620D01*
X38075795Y-16362620D01*
X38713334Y-17273119D01*
X39623834Y-16635581D01*
X39599563Y-16387506D01*
X39374653Y-16228942D01*
X39123131Y-16117303D01*
X38854662Y-16056879D01*
X38579563Y-16049991D01*
X38308406Y-16096904D01*
X38183449Y-16137807D01*
X38075795Y-16362620D01*
X37425125Y-16362620D01*
X37418739Y-16347203D01*
X37265854Y-16118395D01*
X37185253Y-16037794D01*
X45416016Y-7807031D01*
X45519324Y-7722248D01*
X45542344Y-7694198D01*
X46751543Y-6485000D01*
X48375553Y-6485000D01*
X44992486Y-9868068D01*
X44827271Y-9900932D01*
X44657111Y-9971414D01*
X44503972Y-10073738D01*
X44373738Y-10203972D01*
X44271414Y-10357111D01*
X44200932Y-10527271D01*
X44165000Y-10707911D01*
X44165000Y-10892089D01*
X44200932Y-11072729D01*
X44271414Y-11242889D01*
X44373738Y-11396028D01*
X44503972Y-11526262D01*
X44657111Y-11628586D01*
X44827271Y-11699068D01*
X45007911Y-11735000D01*
X45192089Y-11735000D01*
X45372729Y-11699068D01*
X45542889Y-11628586D01*
X45696028Y-11526262D01*
X45826262Y-11396028D01*
X45928586Y-11242889D01*
X45999068Y-11072729D01*
X46031932Y-10907514D01*
X50054437Y-6885010D01*
X55650102Y-6885010D01*
X55679695Y-6893987D01*
X55787675Y-6904622D01*
X55823780Y-6908178D01*
X55859885Y-6904622D01*
X58177913Y-6904622D01*
X58214018Y-6908178D01*
X58250123Y-6904622D01*
X58356083Y-6894186D01*
X58358103Y-6893987D01*
X58369634Y-6890489D01*
X58400909Y-6881002D01*
X58427463Y-6892001D01*
X58697361Y-6945687D01*
X58972545Y-6945687D01*
X59242443Y-6892001D01*
X59496680Y-6786692D01*
X59725488Y-6633807D01*
X59920073Y-6439222D01*
X59982744Y-6345429D01*
X59993050Y-6397243D01*
G37*
%TD.AperFunction*%
D21*
X3392557Y-31135337D02*
X3389000Y-31171452D01*
X3403191Y-31315537D01*
X3440939Y-31439973D01*
X3445220Y-31454085D01*
X3513470Y-31581772D01*
X3605319Y-31693690D01*
X3633364Y-31716706D01*
X7610860Y-35694203D01*
X7633876Y-35722248D01*
X7745794Y-35814097D01*
X7873481Y-35882347D01*
X8012029Y-35924375D01*
X8120009Y-35935010D01*
X8120018Y-35935010D01*
X8156113Y-35938565D01*
X8192208Y-35935010D01*
X17375560Y-35935010D01*
X20628913Y-39188364D01*
X12312799Y-37674166D01*
X12251942Y-37669142D01*
X12191191Y-37663087D01*
X12185381Y-37663647D01*
X12179564Y-37663167D01*
X12118903Y-37670058D01*
X12058119Y-37675919D01*
X12048747Y-37677827D01*
X8552232Y-38415175D01*
X976534Y-37081749D01*
X927281Y-37070491D01*
X905508Y-37063136D01*
X856616Y-37039472D01*
X819404Y-37014079D01*
X786147Y-36983438D01*
X757473Y-36948155D01*
X734130Y-36909137D01*
X716719Y-36867402D01*
X705594Y-36823754D01*
X700089Y-36769715D01*
X700629Y-36746748D01*
X706904Y-36696631D01*
X3392556Y-21509827D01*
X3392557Y-31135337D01*
%TA.AperFunction,Conductor*%
D22*
G36*
X3392557Y-31135337D02*
G01*
X3389000Y-31171452D01*
X3403191Y-31315537D01*
X3440939Y-31439973D01*
X3445220Y-31454085D01*
X3513470Y-31581772D01*
X3605319Y-31693690D01*
X3633364Y-31716706D01*
X7610860Y-35694203D01*
X7633876Y-35722248D01*
X7745794Y-35814097D01*
X7873481Y-35882347D01*
X8012029Y-35924375D01*
X8120009Y-35935010D01*
X8120018Y-35935010D01*
X8156113Y-35938565D01*
X8192208Y-35935010D01*
X17375560Y-35935010D01*
X20628913Y-39188364D01*
X12312799Y-37674166D01*
X12251942Y-37669142D01*
X12191191Y-37663087D01*
X12185381Y-37663647D01*
X12179564Y-37663167D01*
X12118903Y-37670058D01*
X12058119Y-37675919D01*
X12048747Y-37677827D01*
X8552232Y-38415175D01*
X976534Y-37081749D01*
X927281Y-37070491D01*
X905508Y-37063136D01*
X856616Y-37039472D01*
X819404Y-37014079D01*
X786147Y-36983438D01*
X757473Y-36948155D01*
X734130Y-36909137D01*
X716719Y-36867402D01*
X705594Y-36823754D01*
X700089Y-36769715D01*
X700629Y-36746748D01*
X706904Y-36696631D01*
X3392556Y-21509827D01*
X3392557Y-31135337D01*
G37*
%TD.AperFunction*%
D21*
X9192127Y-26386822D02*
X9390299Y-26865251D01*
X9678000Y-27295826D01*
X10044174Y-27662000D01*
X10474749Y-27949701D01*
X10953178Y-28147873D01*
X11461076Y-28248900D01*
X11978924Y-28248900D01*
X12486822Y-28147873D01*
X12965251Y-27949701D01*
X13395826Y-27662000D01*
X13762000Y-27295826D01*
X13765001Y-27291335D01*
X13765000Y-31577833D01*
X13410414Y-31932419D01*
X13370951Y-31916073D01*
X13055072Y-31853241D01*
X12733006Y-31853241D01*
X12417127Y-31916073D01*
X12119576Y-32039323D01*
X11851787Y-32218254D01*
X11744018Y-32326023D01*
X11716157Y-32309995D01*
X10628846Y-33071339D01*
X10625768Y-33068261D01*
X10446160Y-33247869D01*
X11263291Y-34065000D01*
X10984807Y-34065000D01*
X10414800Y-33250947D01*
X10417878Y-33247869D01*
X10238270Y-33068261D01*
X9847989Y-33458542D01*
X9759459Y-33370013D01*
X10235192Y-33036901D01*
X10238270Y-33039979D01*
X10417878Y-32860371D01*
X9714910Y-32157403D01*
X9756834Y-31919640D01*
X9760365Y-31873482D01*
X10463207Y-32877243D01*
X11570469Y-32101930D01*
X11522072Y-31824917D01*
X11261322Y-31635877D01*
X10968702Y-31501339D01*
X10655457Y-31426474D01*
X10333625Y-31414159D01*
X10015575Y-31464866D01*
X9828116Y-31526227D01*
X9749076Y-31663626D01*
X9712491Y-31551858D01*
X9651134Y-31442857D01*
X9569691Y-31347920D01*
X9471292Y-31270695D01*
X9359717Y-31214152D01*
X9239256Y-31180462D01*
X7269640Y-30833166D01*
X7144920Y-30823624D01*
X7020736Y-30838597D01*
X6901858Y-30877509D01*
X6792857Y-30938866D01*
X6697920Y-31020309D01*
X6620695Y-31118708D01*
X6564152Y-31230283D01*
X6530462Y-31350744D01*
X6352960Y-32357410D01*
X4862556Y-30867006D01*
X4862556Y-26387014D01*
X5182888Y-26549352D01*
X5472194Y-26630263D01*
X6259977Y-26769170D01*
X6559509Y-26792086D01*
X6957487Y-26744101D01*
X7338456Y-26619396D01*
X7673950Y-26430547D01*
X7673950Y-27972834D01*
X7670393Y-28008949D01*
X7684584Y-28153034D01*
X7713932Y-28249779D01*
X7726613Y-28291582D01*
X7794863Y-28419269D01*
X7886712Y-28531187D01*
X7914757Y-28554203D01*
X9768069Y-30407515D01*
X9800932Y-30572729D01*
X9871414Y-30742889D01*
X9973738Y-30896028D01*
X10103972Y-31026262D01*
X10257111Y-31128586D01*
X10427271Y-31199068D01*
X10607911Y-31235000D01*
X10792089Y-31235000D01*
X10972729Y-31199068D01*
X11142889Y-31128586D01*
X11296028Y-31026262D01*
X11426262Y-30896028D01*
X11528586Y-30742889D01*
X11599068Y-30572729D01*
X11635000Y-30392089D01*
X11635000Y-30207911D01*
X11599068Y-30027271D01*
X11528586Y-29857111D01*
X11426262Y-29703972D01*
X11296028Y-29573738D01*
X11142889Y-29471414D01*
X10972729Y-29400932D01*
X10807515Y-29368069D01*
X9143949Y-27704503D01*
X9143949Y-26144614D01*
X9192127Y-26386822D01*
%TA.AperFunction,Conductor*%
D22*
G36*
X9192127Y-26386822D02*
G01*
X9390299Y-26865251D01*
X9678000Y-27295826D01*
X10044174Y-27662000D01*
X10474749Y-27949701D01*
X10953178Y-28147873D01*
X11461076Y-28248900D01*
X11978924Y-28248900D01*
X12486822Y-28147873D01*
X12965251Y-27949701D01*
X13395826Y-27662000D01*
X13762000Y-27295826D01*
X13765001Y-27291335D01*
X13765000Y-31577833D01*
X13410414Y-31932419D01*
X13370951Y-31916073D01*
X13055072Y-31853241D01*
X12733006Y-31853241D01*
X12417127Y-31916073D01*
X12119576Y-32039323D01*
X11851787Y-32218254D01*
X11744018Y-32326023D01*
X11716157Y-32309995D01*
X10628846Y-33071339D01*
X10625768Y-33068261D01*
X10446160Y-33247869D01*
X11263291Y-34065000D01*
X10984807Y-34065000D01*
X10414800Y-33250947D01*
X10417878Y-33247869D01*
X10238270Y-33068261D01*
X9847989Y-33458542D01*
X9759459Y-33370013D01*
X10235192Y-33036901D01*
X10238270Y-33039979D01*
X10417878Y-32860371D01*
X9714910Y-32157403D01*
X9756834Y-31919640D01*
X9760365Y-31873482D01*
X10463207Y-32877243D01*
X11570469Y-32101930D01*
X11522072Y-31824917D01*
X11261322Y-31635877D01*
X10968702Y-31501339D01*
X10655457Y-31426474D01*
X10333625Y-31414159D01*
X10015575Y-31464866D01*
X9828116Y-31526227D01*
X9749076Y-31663626D01*
X9712491Y-31551858D01*
X9651134Y-31442857D01*
X9569691Y-31347920D01*
X9471292Y-31270695D01*
X9359717Y-31214152D01*
X9239256Y-31180462D01*
X7269640Y-30833166D01*
X7144920Y-30823624D01*
X7020736Y-30838597D01*
X6901858Y-30877509D01*
X6792857Y-30938866D01*
X6697920Y-31020309D01*
X6620695Y-31118708D01*
X6564152Y-31230283D01*
X6530462Y-31350744D01*
X6352960Y-32357410D01*
X4862556Y-30867006D01*
X4862556Y-26387014D01*
X5182888Y-26549352D01*
X5472194Y-26630263D01*
X6259977Y-26769170D01*
X6559509Y-26792086D01*
X6957487Y-26744101D01*
X7338456Y-26619396D01*
X7673950Y-26430547D01*
X7673950Y-27972834D01*
X7670393Y-28008949D01*
X7684584Y-28153034D01*
X7713932Y-28249779D01*
X7726613Y-28291582D01*
X7794863Y-28419269D01*
X7886712Y-28531187D01*
X7914757Y-28554203D01*
X9768069Y-30407515D01*
X9800932Y-30572729D01*
X9871414Y-30742889D01*
X9973738Y-30896028D01*
X10103972Y-31026262D01*
X10257111Y-31128586D01*
X10427271Y-31199068D01*
X10607911Y-31235000D01*
X10792089Y-31235000D01*
X10972729Y-31199068D01*
X11142889Y-31128586D01*
X11296028Y-31026262D01*
X11426262Y-30896028D01*
X11528586Y-30742889D01*
X11599068Y-30572729D01*
X11635000Y-30392089D01*
X11635000Y-30207911D01*
X11599068Y-30027271D01*
X11528586Y-29857111D01*
X11426262Y-29703972D01*
X11296028Y-29573738D01*
X11142889Y-29471414D01*
X10972729Y-29400932D01*
X10807515Y-29368069D01*
X9143949Y-27704503D01*
X9143949Y-26144614D01*
X9192127Y-26386822D01*
G37*
%TD.AperFunction*%
D21*
X20569439Y-14315000D02*
X25538862Y-15191225D01*
X28515953Y-17484639D01*
X28538340Y-17498633D01*
X28558907Y-17515169D01*
X28594883Y-17533977D01*
X28629317Y-17555501D01*
X28653992Y-17564879D01*
X28677381Y-17577106D01*
X28716327Y-17588569D01*
X28754285Y-17602994D01*
X28780314Y-17607401D01*
X28805631Y-17614852D01*
X28815038Y-17616579D01*
X31347440Y-18063113D01*
X31245564Y-18164990D01*
X20882413Y-18164990D01*
X20846308Y-18161434D01*
X20702223Y-18175625D01*
X20660195Y-18188374D01*
X20563676Y-18217653D01*
X20435989Y-18285903D01*
X20324071Y-18377752D01*
X20301055Y-18405797D01*
X14132415Y-24574439D01*
X14049701Y-24374749D01*
X13762000Y-23944174D01*
X13395826Y-23578000D01*
X12965251Y-23290299D01*
X12486822Y-23092127D01*
X11978924Y-22991100D01*
X11461076Y-22991100D01*
X10953178Y-23092127D01*
X10474749Y-23290299D01*
X10044174Y-23578000D01*
X9678000Y-23944174D01*
X9390299Y-24374749D01*
X9192127Y-24853178D01*
X9143949Y-25095386D01*
X9143949Y-24057553D01*
X9242622Y-24016681D01*
X9530884Y-23824070D01*
X9776030Y-23578924D01*
X9968641Y-23290662D01*
X10101313Y-22970362D01*
X10168949Y-22630334D01*
X10168949Y-22283644D01*
X10101313Y-21943616D01*
X9968641Y-21623316D01*
X9776030Y-21335054D01*
X9530884Y-21089908D01*
X9242622Y-20897297D01*
X9212689Y-20884898D01*
X13343544Y-20884898D01*
X13343544Y-21231588D01*
X13411180Y-21571616D01*
X13543852Y-21891916D01*
X13736463Y-22180178D01*
X13981609Y-22425324D01*
X14269871Y-22617935D01*
X14590171Y-22750607D01*
X14930199Y-22818243D01*
X15276889Y-22818243D01*
X15616917Y-22750607D01*
X15937217Y-22617935D01*
X16225479Y-22425324D01*
X16470625Y-22180178D01*
X16663236Y-21891916D01*
X16795908Y-21571616D01*
X16863544Y-21231588D01*
X16863544Y-20884898D01*
X16795908Y-20544870D01*
X16676386Y-20256318D01*
X16681924Y-20250780D01*
X16860855Y-19982991D01*
X16984105Y-19685440D01*
X17046937Y-19369561D01*
X17046937Y-19047495D01*
X16984105Y-18731616D01*
X16860855Y-18434065D01*
X16681924Y-18166276D01*
X16454189Y-17938541D01*
X16186400Y-17759610D01*
X15888849Y-17636360D01*
X15572970Y-17573528D01*
X15250904Y-17573528D01*
X14935025Y-17636360D01*
X14637474Y-17759610D01*
X14369685Y-17938541D01*
X14141950Y-18166276D01*
X13963019Y-18434065D01*
X13839769Y-18731616D01*
X13776937Y-19047495D01*
X13776937Y-19369561D01*
X13839769Y-19685440D01*
X13882989Y-19789782D01*
X13736463Y-19936308D01*
X13543852Y-20224570D01*
X13411180Y-20544870D01*
X13343544Y-20884898D01*
X9212689Y-20884898D01*
X9143949Y-20856425D01*
X9143949Y-20723684D01*
X9971524Y-19896110D01*
X10010987Y-19912456D01*
X10326866Y-19975288D01*
X10648932Y-19975288D01*
X10964811Y-19912456D01*
X11262362Y-19789206D01*
X11530151Y-19610275D01*
X11757886Y-19382540D01*
X11936817Y-19114751D01*
X12060067Y-18817200D01*
X12122899Y-18501321D01*
X12122899Y-18179255D01*
X12060067Y-17863376D01*
X11936817Y-17565825D01*
X11757886Y-17298036D01*
X11530151Y-17070301D01*
X11262362Y-16891370D01*
X10964811Y-16768120D01*
X10648932Y-16705288D01*
X10326866Y-16705288D01*
X10010987Y-16768120D01*
X9713436Y-16891370D01*
X9445647Y-17070301D01*
X9217912Y-17298036D01*
X9038981Y-17565825D01*
X8915731Y-17863376D01*
X8852899Y-18179255D01*
X8852899Y-18501321D01*
X8915731Y-18817200D01*
X8932077Y-18856663D01*
X7914757Y-19873984D01*
X7886712Y-19897000D01*
X7794863Y-20008918D01*
X7752597Y-20087992D01*
X7726613Y-20136605D01*
X7684584Y-20275153D01*
X7670393Y-20419238D01*
X7673950Y-20455353D01*
X7673950Y-20856425D01*
X7575276Y-20897297D01*
X7287014Y-21089908D01*
X7041868Y-21335054D01*
X6849257Y-21623316D01*
X6716585Y-21943616D01*
X6648949Y-22283644D01*
X6648949Y-22630334D01*
X6664335Y-22707685D01*
X6178936Y-22622096D01*
X5879404Y-22599180D01*
X5481427Y-22647165D01*
X5100458Y-22771870D01*
X4862556Y-22905785D01*
X4862556Y-20453896D01*
X8974810Y-16341644D01*
X10303677Y-16575959D01*
X10428397Y-16585501D01*
X10552581Y-16570528D01*
X10671459Y-16531616D01*
X10780460Y-16470259D01*
X10875397Y-16388816D01*
X10921351Y-16330262D01*
X16018618Y-16330262D01*
X16018618Y-16592938D01*
X16069864Y-16850568D01*
X16170386Y-17093249D01*
X16316321Y-17311657D01*
X16502061Y-17497397D01*
X16720469Y-17643332D01*
X16963150Y-17743854D01*
X17220780Y-17795100D01*
X17483456Y-17795100D01*
X17741086Y-17743854D01*
X17983767Y-17643332D01*
X18202175Y-17497397D01*
X18387915Y-17311657D01*
X18533850Y-17093249D01*
X18634372Y-16850568D01*
X18685618Y-16592938D01*
X18685618Y-16330262D01*
X18634372Y-16072632D01*
X18533850Y-15829951D01*
X18387915Y-15611543D01*
X18202175Y-15425803D01*
X17983767Y-15279868D01*
X17741086Y-15179346D01*
X17483456Y-15128100D01*
X17220780Y-15128100D01*
X16963150Y-15179346D01*
X16720469Y-15279868D01*
X16502061Y-15425803D01*
X16316321Y-15611543D01*
X16170386Y-15829951D01*
X16069864Y-16072632D01*
X16018618Y-16330262D01*
X10921351Y-16330262D01*
X10952622Y-16290417D01*
X11009165Y-16178842D01*
X11042855Y-16058381D01*
X11285441Y-14682605D01*
X11294983Y-14557885D01*
X11280010Y-14433701D01*
X11241148Y-14314974D01*
X20569439Y-14315000D01*
%TA.AperFunction,Conductor*%
D22*
G36*
X20569439Y-14315000D02*
G01*
X25538862Y-15191225D01*
X28515953Y-17484639D01*
X28538340Y-17498633D01*
X28558907Y-17515169D01*
X28594883Y-17533977D01*
X28629317Y-17555501D01*
X28653992Y-17564879D01*
X28677381Y-17577106D01*
X28716327Y-17588569D01*
X28754285Y-17602994D01*
X28780314Y-17607401D01*
X28805631Y-17614852D01*
X28815038Y-17616579D01*
X31347440Y-18063113D01*
X31245564Y-18164990D01*
X20882413Y-18164990D01*
X20846308Y-18161434D01*
X20702223Y-18175625D01*
X20660195Y-18188374D01*
X20563676Y-18217653D01*
X20435989Y-18285903D01*
X20324071Y-18377752D01*
X20301055Y-18405797D01*
X14132415Y-24574439D01*
X14049701Y-24374749D01*
X13762000Y-23944174D01*
X13395826Y-23578000D01*
X12965251Y-23290299D01*
X12486822Y-23092127D01*
X11978924Y-22991100D01*
X11461076Y-22991100D01*
X10953178Y-23092127D01*
X10474749Y-23290299D01*
X10044174Y-23578000D01*
X9678000Y-23944174D01*
X9390299Y-24374749D01*
X9192127Y-24853178D01*
X9143949Y-25095386D01*
X9143949Y-24057553D01*
X9242622Y-24016681D01*
X9530884Y-23824070D01*
X9776030Y-23578924D01*
X9968641Y-23290662D01*
X10101313Y-22970362D01*
X10168949Y-22630334D01*
X10168949Y-22283644D01*
X10101313Y-21943616D01*
X9968641Y-21623316D01*
X9776030Y-21335054D01*
X9530884Y-21089908D01*
X9242622Y-20897297D01*
X9212689Y-20884898D01*
X13343544Y-20884898D01*
X13343544Y-21231588D01*
X13411180Y-21571616D01*
X13543852Y-21891916D01*
X13736463Y-22180178D01*
X13981609Y-22425324D01*
X14269871Y-22617935D01*
X14590171Y-22750607D01*
X14930199Y-22818243D01*
X15276889Y-22818243D01*
X15616917Y-22750607D01*
X15937217Y-22617935D01*
X16225479Y-22425324D01*
X16470625Y-22180178D01*
X16663236Y-21891916D01*
X16795908Y-21571616D01*
X16863544Y-21231588D01*
X16863544Y-20884898D01*
X16795908Y-20544870D01*
X16676386Y-20256318D01*
X16681924Y-20250780D01*
X16860855Y-19982991D01*
X16984105Y-19685440D01*
X17046937Y-19369561D01*
X17046937Y-19047495D01*
X16984105Y-18731616D01*
X16860855Y-18434065D01*
X16681924Y-18166276D01*
X16454189Y-17938541D01*
X16186400Y-17759610D01*
X15888849Y-17636360D01*
X15572970Y-17573528D01*
X15250904Y-17573528D01*
X14935025Y-17636360D01*
X14637474Y-17759610D01*
X14369685Y-17938541D01*
X14141950Y-18166276D01*
X13963019Y-18434065D01*
X13839769Y-18731616D01*
X13776937Y-19047495D01*
X13776937Y-19369561D01*
X13839769Y-19685440D01*
X13882989Y-19789782D01*
X13736463Y-19936308D01*
X13543852Y-20224570D01*
X13411180Y-20544870D01*
X13343544Y-20884898D01*
X9212689Y-20884898D01*
X9143949Y-20856425D01*
X9143949Y-20723684D01*
X9971524Y-19896110D01*
X10010987Y-19912456D01*
X10326866Y-19975288D01*
X10648932Y-19975288D01*
X10964811Y-19912456D01*
X11262362Y-19789206D01*
X11530151Y-19610275D01*
X11757886Y-19382540D01*
X11936817Y-19114751D01*
X12060067Y-18817200D01*
X12122899Y-18501321D01*
X12122899Y-18179255D01*
X12060067Y-17863376D01*
X11936817Y-17565825D01*
X11757886Y-17298036D01*
X11530151Y-17070301D01*
X11262362Y-16891370D01*
X10964811Y-16768120D01*
X10648932Y-16705288D01*
X10326866Y-16705288D01*
X10010987Y-16768120D01*
X9713436Y-16891370D01*
X9445647Y-17070301D01*
X9217912Y-17298036D01*
X9038981Y-17565825D01*
X8915731Y-17863376D01*
X8852899Y-18179255D01*
X8852899Y-18501321D01*
X8915731Y-18817200D01*
X8932077Y-18856663D01*
X7914757Y-19873984D01*
X7886712Y-19897000D01*
X7794863Y-20008918D01*
X7752597Y-20087992D01*
X7726613Y-20136605D01*
X7684584Y-20275153D01*
X7670393Y-20419238D01*
X7673950Y-20455353D01*
X7673950Y-20856425D01*
X7575276Y-20897297D01*
X7287014Y-21089908D01*
X7041868Y-21335054D01*
X6849257Y-21623316D01*
X6716585Y-21943616D01*
X6648949Y-22283644D01*
X6648949Y-22630334D01*
X6664335Y-22707685D01*
X6178936Y-22622096D01*
X5879404Y-22599180D01*
X5481427Y-22647165D01*
X5100458Y-22771870D01*
X4862556Y-22905785D01*
X4862556Y-20453896D01*
X8974810Y-16341644D01*
X10303677Y-16575959D01*
X10428397Y-16585501D01*
X10552581Y-16570528D01*
X10671459Y-16531616D01*
X10780460Y-16470259D01*
X10875397Y-16388816D01*
X10921351Y-16330262D01*
X16018618Y-16330262D01*
X16018618Y-16592938D01*
X16069864Y-16850568D01*
X16170386Y-17093249D01*
X16316321Y-17311657D01*
X16502061Y-17497397D01*
X16720469Y-17643332D01*
X16963150Y-17743854D01*
X17220780Y-17795100D01*
X17483456Y-17795100D01*
X17741086Y-17743854D01*
X17983767Y-17643332D01*
X18202175Y-17497397D01*
X18387915Y-17311657D01*
X18533850Y-17093249D01*
X18634372Y-16850568D01*
X18685618Y-16592938D01*
X18685618Y-16330262D01*
X18634372Y-16072632D01*
X18533850Y-15829951D01*
X18387915Y-15611543D01*
X18202175Y-15425803D01*
X17983767Y-15279868D01*
X17741086Y-15179346D01*
X17483456Y-15128100D01*
X17220780Y-15128100D01*
X16963150Y-15179346D01*
X16720469Y-15279868D01*
X16502061Y-15425803D01*
X16316321Y-15611543D01*
X16170386Y-15829951D01*
X16069864Y-16072632D01*
X16018618Y-16330262D01*
X10921351Y-16330262D01*
X10952622Y-16290417D01*
X11009165Y-16178842D01*
X11042855Y-16058381D01*
X11285441Y-14682605D01*
X11294983Y-14557885D01*
X11280010Y-14433701D01*
X11241148Y-14314974D01*
X20569439Y-14315000D01*
G37*
%TD.AperFunction*%
D21*
X8635885Y-14314967D02*
X8574508Y-14663052D01*
X3750214Y-19487346D01*
X4616236Y-14590172D01*
X4624229Y-14554376D01*
X4640227Y-14507829D01*
X4658342Y-14471581D01*
X4680916Y-14438166D01*
X4707653Y-14407884D01*
X4738097Y-14381224D01*
X4771661Y-14358697D01*
X4807758Y-14340708D01*
X4845946Y-14327533D01*
X4886162Y-14319366D01*
X4951995Y-14314957D01*
X8635885Y-14314967D01*
%TA.AperFunction,Conductor*%
D22*
G36*
X8635885Y-14314967D02*
G01*
X8574508Y-14663052D01*
X3750214Y-19487346D01*
X4616236Y-14590172D01*
X4624229Y-14554376D01*
X4640227Y-14507829D01*
X4658342Y-14471581D01*
X4680916Y-14438166D01*
X4707653Y-14407884D01*
X4738097Y-14381224D01*
X4771661Y-14358697D01*
X4807758Y-14340708D01*
X4845946Y-14327533D01*
X4886162Y-14319366D01*
X4951995Y-14314957D01*
X8635885Y-14314967D01*
G37*
%TD.AperFunction*%
D21*
X36125676Y-921503D02*
X36176017Y-927781D01*
X37695179Y-1194514D01*
X37585654Y-1358429D01*
X37480345Y-1612666D01*
X37426659Y-1882564D01*
X37426659Y-2157748D01*
X37480345Y-2427646D01*
X37585654Y-2681883D01*
X37738539Y-2910691D01*
X37933124Y-3105276D01*
X38161932Y-3258161D01*
X38416169Y-3363470D01*
X38686067Y-3417156D01*
X38961251Y-3417156D01*
X39231149Y-3363470D01*
X39485386Y-3258161D01*
X39714194Y-3105276D01*
X39908779Y-2910691D01*
X39971450Y-2816897D01*
X39981757Y-2868712D01*
X40087066Y-3122949D01*
X40239951Y-3351757D01*
X40434536Y-3546342D01*
X40663344Y-3699227D01*
X40917581Y-3804536D01*
X41187479Y-3858222D01*
X41462663Y-3858222D01*
X41732561Y-3804536D01*
X41944605Y-3716704D01*
X42884794Y-3716704D01*
X42909065Y-3964779D01*
X43133975Y-4123343D01*
X43385497Y-4234982D01*
X43653966Y-4295406D01*
X43929065Y-4302294D01*
X44200222Y-4255381D01*
X44325179Y-4214478D01*
X44432833Y-3989665D01*
X43795294Y-3079166D01*
X42884794Y-3716704D01*
X41944605Y-3716704D01*
X41986798Y-3699227D01*
X42215606Y-3546342D01*
X42410191Y-3351757D01*
X42470799Y-3261051D01*
X42473390Y-3276029D01*
X42514293Y-3400986D01*
X42739106Y-3508640D01*
X43629655Y-2885070D01*
X43632733Y-2888148D01*
X43812341Y-2708540D01*
X43278655Y-2174854D01*
X43499290Y-2213593D01*
X43843701Y-2705462D01*
X43840623Y-2708540D01*
X44020231Y-2888148D01*
X44516233Y-2392146D01*
X44724288Y-2428676D01*
X44003359Y-2933477D01*
X44640897Y-3843977D01*
X44888972Y-3819706D01*
X44972144Y-3701733D01*
X44974802Y-3717095D01*
X45015705Y-3842052D01*
X45240518Y-3949706D01*
X46131067Y-3326136D01*
X46134145Y-3329214D01*
X46313753Y-3149606D01*
X45777797Y-2613650D01*
X45999208Y-2652525D01*
X46345113Y-3146528D01*
X46342035Y-3149606D01*
X46521643Y-3329214D01*
X47019237Y-2831620D01*
X47227837Y-2868246D01*
X46524721Y-3360574D01*
X46521643Y-3357496D01*
X46342035Y-3537104D01*
X46475287Y-3670356D01*
X46401824Y-3670356D01*
X46310675Y-3540182D01*
X46313753Y-3537104D01*
X46134145Y-3357496D01*
X45734297Y-3757344D01*
X45670828Y-3791269D01*
X45558910Y-3883118D01*
X45535894Y-3911163D01*
X43992330Y-5454728D01*
X43964285Y-5477744D01*
X43941270Y-5505788D01*
X43624064Y-5822994D01*
X43624058Y-5822999D01*
X39249064Y-10197994D01*
X39249058Y-10197999D01*
X35782088Y-13664970D01*
X35556940Y-13664970D01*
X35520835Y-13661414D01*
X35376750Y-13675605D01*
X35238201Y-13717633D01*
X35131177Y-13774839D01*
X35110515Y-13785883D01*
X34998597Y-13877732D01*
X34975583Y-13905775D01*
X33244789Y-15636570D01*
X35790817Y-1197299D01*
X35802078Y-1148092D01*
X35809434Y-1126330D01*
X35833091Y-1077472D01*
X35858480Y-1040274D01*
X35889105Y-1007034D01*
X35924368Y-978373D01*
X35963366Y-955036D01*
X36005072Y-937627D01*
X36048706Y-926493D01*
X36102706Y-920973D01*
X36125676Y-921503D01*
%TA.AperFunction,Conductor*%
D22*
G36*
X36125676Y-921503D02*
G01*
X36176017Y-927781D01*
X37695179Y-1194514D01*
X37585654Y-1358429D01*
X37480345Y-1612666D01*
X37426659Y-1882564D01*
X37426659Y-2157748D01*
X37480345Y-2427646D01*
X37585654Y-2681883D01*
X37738539Y-2910691D01*
X37933124Y-3105276D01*
X38161932Y-3258161D01*
X38416169Y-3363470D01*
X38686067Y-3417156D01*
X38961251Y-3417156D01*
X39231149Y-3363470D01*
X39485386Y-3258161D01*
X39714194Y-3105276D01*
X39908779Y-2910691D01*
X39971450Y-2816897D01*
X39981757Y-2868712D01*
X40087066Y-3122949D01*
X40239951Y-3351757D01*
X40434536Y-3546342D01*
X40663344Y-3699227D01*
X40917581Y-3804536D01*
X41187479Y-3858222D01*
X41462663Y-3858222D01*
X41732561Y-3804536D01*
X41944605Y-3716704D01*
X42884794Y-3716704D01*
X42909065Y-3964779D01*
X43133975Y-4123343D01*
X43385497Y-4234982D01*
X43653966Y-4295406D01*
X43929065Y-4302294D01*
X44200222Y-4255381D01*
X44325179Y-4214478D01*
X44432833Y-3989665D01*
X43795294Y-3079166D01*
X42884794Y-3716704D01*
X41944605Y-3716704D01*
X41986798Y-3699227D01*
X42215606Y-3546342D01*
X42410191Y-3351757D01*
X42470799Y-3261051D01*
X42473390Y-3276029D01*
X42514293Y-3400986D01*
X42739106Y-3508640D01*
X43629655Y-2885070D01*
X43632733Y-2888148D01*
X43812341Y-2708540D01*
X43278655Y-2174854D01*
X43499290Y-2213593D01*
X43843701Y-2705462D01*
X43840623Y-2708540D01*
X44020231Y-2888148D01*
X44516233Y-2392146D01*
X44724288Y-2428676D01*
X44003359Y-2933477D01*
X44640897Y-3843977D01*
X44888972Y-3819706D01*
X44972144Y-3701733D01*
X44974802Y-3717095D01*
X45015705Y-3842052D01*
X45240518Y-3949706D01*
X46131067Y-3326136D01*
X46134145Y-3329214D01*
X46313753Y-3149606D01*
X45777797Y-2613650D01*
X45999208Y-2652525D01*
X46345113Y-3146528D01*
X46342035Y-3149606D01*
X46521643Y-3329214D01*
X47019237Y-2831620D01*
X47227837Y-2868246D01*
X46524721Y-3360574D01*
X46521643Y-3357496D01*
X46342035Y-3537104D01*
X46475287Y-3670356D01*
X46401824Y-3670356D01*
X46310675Y-3540182D01*
X46313753Y-3537104D01*
X46134145Y-3357496D01*
X45734297Y-3757344D01*
X45670828Y-3791269D01*
X45558910Y-3883118D01*
X45535894Y-3911163D01*
X43992330Y-5454728D01*
X43964285Y-5477744D01*
X43941270Y-5505788D01*
X43624064Y-5822994D01*
X43624058Y-5822999D01*
X39249064Y-10197994D01*
X39249058Y-10197999D01*
X35782088Y-13664970D01*
X35556940Y-13664970D01*
X35520835Y-13661414D01*
X35376750Y-13675605D01*
X35238201Y-13717633D01*
X35131177Y-13774839D01*
X35110515Y-13785883D01*
X34998597Y-13877732D01*
X34975583Y-13905775D01*
X33244789Y-15636570D01*
X35790817Y-1197299D01*
X35802078Y-1148092D01*
X35809434Y-1126330D01*
X35833091Y-1077472D01*
X35858480Y-1040274D01*
X35889105Y-1007034D01*
X35924368Y-978373D01*
X35963366Y-955036D01*
X36005072Y-937627D01*
X36048706Y-926493D01*
X36102706Y-920973D01*
X36125676Y-921503D01*
G37*
%TD.AperFunction*%
%TD*%
M02*
