M48
; DRILL file {KiCad (5.1.9-0-10_14)} date Thursday, June 24, 2021 at 01:30:37 PM
; FORMAT={-:-/ absolute / metric / decimal}
; #@! TF.CreationDate,2021-06-24T13:30:37+09:00
; #@! TF.GenerationSoftware,Kicad,Pcbnew,(5.1.9-0-10_14)
FMAT,2
METRIC
T1C0.300
T2C0.500
T3C0.813
T4C1.000
T5C1.300
T6C1.470
T7C2.200
T8C4.200
T9C1.750
T10C2.200
T11C3.988
%
G90
G05
T1
X1.7Y-36.4
X5.45Y-15.1
X10.7Y-30.3
X18.6Y-30.3
X20.55Y-14.85
X22.5Y-45.5
X23.8Y-31.55
X36.5Y-9.25
X45.1Y-10.8
X62.0Y-11.25
X63.25Y-29.0
X69.25Y-11.25
X77.15Y-45.45
X82.5Y-21.25
X94.45Y-14.9
X98.35Y-36.55
T2
X21.4Y-37.7
X28.8Y-29.4
X82.1Y-37.0
T3
X9.848Y-15.138
X17.352Y-16.462
X26.99Y-45.25
X34.61Y-45.25
X36.181Y-17.009
X38.682Y-17.45
X38.824Y-2.02
X41.184Y-17.891
X41.325Y-2.461
X43.685Y-18.332
X43.826Y-2.902
X46.186Y-18.773
X46.328Y-3.343
X48.688Y-19.214
X48.69Y-28.92
X48.829Y-3.784
X51.189Y-19.655
X51.331Y-4.225
X53.691Y-20.096
X53.832Y-4.667
X56.192Y-20.537
X56.31Y-28.92
X56.334Y-5.108
X58.693Y-20.979
X58.835Y-5.549
X61.195Y-21.42
X61.336Y-5.99
X63.696Y-21.861
X63.838Y-6.431
X65.09Y-45.25
X66.339Y-6.872
X72.71Y-45.25
X82.728Y-16.552
X90.232Y-15.228
T4
X7.97Y-32.62
X10.432Y-33.054
X10.488Y-18.34
X12.894Y-33.488
X15.412Y-19.209
X84.392Y-19.2
X86.91Y-33.48
X89.316Y-18.332
X89.372Y-33.046
X91.834Y-32.612
T5
X36.11Y-25.25
X42.61Y-25.25
T6
X8.409Y-22.457
X15.104Y-21.058
X26.99Y-34.76
X33.34Y-32.22
X46.04Y-34.76
X52.39Y-32.22
X65.09Y-34.76
X71.44Y-32.22
X83.857Y-23.77
X89.669Y-20.166
T8
X23.46Y-25.57
X49.86Y-47.11
X76.26Y-25.57
T9
X25.72Y-37.3
X35.88Y-37.3
X44.77Y-37.3
X54.93Y-37.3
X63.82Y-37.3
X73.98Y-37.3
T10
X34.67Y-22.07
X45.91Y-24.07
X72.21Y-9.62
T11
X11.72Y-25.62
X30.8Y-37.3
X49.85Y-37.3
X68.9Y-37.3
X88.05Y-25.61
T7
G00X5.924Y-24.644
M15
G01X6.515Y-24.748
M16
G05
G00X16.954Y-26.588
M15
G01X17.545Y-26.693
M16
G05
G00X82.259Y-26.684
M15
G01X82.85Y-26.58
M16
G05
G00X93.289Y-24.739
M15
G01X93.88Y-24.635
M16
G05
T0
M30
