%TF.GenerationSoftware,KiCad,Pcbnew,(5.1.9-0-10_14)*%
%TF.CreationDate,2021-06-24T13:30:28+09:00*%
%TF.ProjectId,reviung5,72657669-756e-4673-952e-6b696361645f,1*%
%TF.SameCoordinates,PX1c9c380PY1c9c380*%
%TF.FileFunction,Soldermask,Top*%
%TF.FilePolarity,Negative*%
%FSLAX46Y46*%
G04 Gerber Fmt 4.6, Leading zero omitted, Abs format (unit mm)*
G04 Created by KiCad (PCBNEW (5.1.9-0-10_14)) date 2021-06-24 13:30:28*
%MOMM*%
%LPD*%
G01*
G04 APERTURE LIST*
%ADD10C,3.987800*%
%ADD11C,4.500000*%
%ADD12C,2.200000*%
%ADD13C,0.100000*%
%ADD14C,2.000000*%
%ADD15C,1.397000*%
%ADD16R,1.397000X1.397000*%
%ADD17C,1.750000*%
%ADD18C,1.524000*%
%ADD19C,0.900000*%
%ADD20C,0.600000*%
G04 APERTURE END LIST*
D10*
%TO.C,SW5*%
X88050000Y-25610000D03*
%TD*%
%TO.C,SW1*%
X11720000Y-25620000D03*
%TD*%
D11*
%TO.C,REF\u002A\u002A*%
X76260000Y-25570000D03*
%TD*%
%TO.C,REF\u002A\u002A*%
X49860000Y-47110000D03*
%TD*%
%TO.C,REF\u002A\u002A*%
X23460000Y-25570000D03*
%TD*%
D12*
%TO.C,Ref\u002A\u002A*%
X34670000Y-22070000D03*
%TD*%
%TO.C,Ref\u002A\u002A*%
X45910000Y-24070000D03*
%TD*%
%TO.C,Ref\u002A\u002A*%
X72210000Y-9620000D03*
%TD*%
D13*
%TO.C,RESW2*%
G36*
X88068456Y-34291160D02*
G01*
X86098840Y-34638456D01*
X85751544Y-32668840D01*
X87721160Y-32321544D01*
X88068456Y-34291160D01*
G37*
D14*
X89372019Y-33045880D03*
X91834039Y-32611759D03*
G36*
G01*
X83093284Y-27958888D02*
X82502400Y-28063076D01*
G75*
G02*
X80880562Y-26927452I-243107J1378731D01*
G01*
X80880562Y-26927452D01*
G75*
G02*
X82016186Y-25305614I1378731J243107D01*
G01*
X82607070Y-25201426D01*
G75*
G02*
X84228908Y-26337050I243107J-1378731D01*
G01*
X84228908Y-26337050D01*
G75*
G02*
X83093284Y-27958888I-1378731J-243107D01*
G01*
G37*
G36*
G01*
X94123129Y-26014029D02*
X93532245Y-26118217D01*
G75*
G02*
X91910407Y-24982593I-243107J1378731D01*
G01*
X91910407Y-24982593D01*
G75*
G02*
X93046031Y-23360755I1378731J243107D01*
G01*
X93636915Y-23256567D01*
G75*
G02*
X95258753Y-24392191I243107J-1378731D01*
G01*
X95258753Y-24392191D01*
G75*
G02*
X94123129Y-26014029I-1378731J-243107D01*
G01*
G37*
X84392101Y-19200288D03*
X89316140Y-18332047D03*
%TD*%
D13*
%TO.C,RESW1*%
G36*
X8781160Y-33778456D02*
G01*
X6811544Y-33431160D01*
X7158840Y-31461544D01*
X9128456Y-31808840D01*
X8781160Y-33778456D01*
G37*
D14*
X10432019Y-33054120D03*
X12894039Y-33488241D03*
G36*
G01*
X6271792Y-26126458D02*
X5680908Y-26022270D01*
G75*
G02*
X4545284Y-24400432I243107J1378731D01*
G01*
X4545284Y-24400432D01*
G75*
G02*
X6167122Y-23264808I1378731J-243107D01*
G01*
X6758006Y-23368996D01*
G75*
G02*
X7893630Y-24990834I-243107J-1378731D01*
G01*
X7893630Y-24990834D01*
G75*
G02*
X6271792Y-26126458I-1378731J243107D01*
G01*
G37*
G36*
G01*
X17301639Y-28071317D02*
X16710755Y-27967129D01*
G75*
G02*
X15575131Y-26345291I243107J1378731D01*
G01*
X15575131Y-26345291D01*
G75*
G02*
X17196969Y-25209667I1378731J-243107D01*
G01*
X17787853Y-25313855D01*
G75*
G02*
X18923477Y-26935693I-243107J-1378731D01*
G01*
X18923477Y-26935693D01*
G75*
G02*
X17301639Y-28071317I-1378731J243107D01*
G01*
G37*
X10487899Y-18340288D03*
X15411937Y-19208528D03*
%TD*%
D13*
%TO.C,D1*%
G36*
X9038701Y-15704995D02*
G01*
X9281287Y-14329219D01*
X10657063Y-14571805D01*
X10414477Y-15947581D01*
X9038701Y-15704995D01*
G37*
D15*
X17352118Y-16461600D03*
%TD*%
%TO.C,D2*%
X34610000Y-45250000D03*
D16*
X26990000Y-45250000D03*
%TD*%
%TO.C,D3*%
X48690000Y-28920000D03*
D15*
X56310000Y-28920000D03*
%TD*%
%TO.C,D4*%
X72710000Y-45250000D03*
D16*
X65090000Y-45250000D03*
%TD*%
D13*
%TO.C,D5*%
G36*
X82161287Y-17360781D02*
G01*
X81918701Y-15985005D01*
X83294477Y-15742419D01*
X83537063Y-17118195D01*
X82161287Y-17360781D01*
G37*
D15*
X90232118Y-15228400D03*
%TD*%
D14*
%TO.C,reset1*%
X42610000Y-25250000D03*
X36110000Y-25250000D03*
%TD*%
D17*
%TO.C,SW2*%
X35880000Y-37300000D03*
X25720000Y-37300000D03*
D10*
X30800000Y-37300000D03*
%TD*%
%TO.C,SW3*%
X49850000Y-37300000D03*
D17*
X44770000Y-37300000D03*
X54930000Y-37300000D03*
%TD*%
%TO.C,SW4*%
X73980000Y-37300000D03*
X63820000Y-37300000D03*
D10*
X68900000Y-37300000D03*
%TD*%
D18*
%TO.C,U1*%
X38823659Y-2020156D03*
X41325071Y-2461222D03*
X43826482Y-2902289D03*
X46327894Y-3343355D03*
X48829306Y-3784421D03*
X51330718Y-4225488D03*
X53832129Y-4666554D03*
X56333541Y-5107621D03*
X58834953Y-5548687D03*
X61336364Y-5989753D03*
X63837776Y-6430820D03*
X66339188Y-6871886D03*
X63696262Y-21860660D03*
X61194851Y-21419594D03*
X58693439Y-20978527D03*
X56192027Y-20537461D03*
X53690616Y-20096395D03*
X51189204Y-19655328D03*
X48687792Y-19214262D03*
X46186381Y-18773195D03*
X43684969Y-18332129D03*
X41183557Y-17891063D03*
X38682146Y-17449996D03*
X36180734Y-17008930D03*
%TD*%
D19*
X28800000Y-29400000D03*
X21400000Y-37700000D03*
X82100000Y-37000000D03*
D20*
X5450000Y-15100000D03*
X1700000Y-36400000D03*
X22500000Y-45500000D03*
X77150000Y-45450000D03*
X98350000Y-36550000D03*
X94450000Y-14900000D03*
X36500000Y-9250000D03*
X20550000Y-14850000D03*
X62000000Y-11250000D03*
X69250000Y-11250000D03*
X63250000Y-29000000D03*
X82500000Y-21250000D03*
X23800000Y-31550000D03*
X10700000Y-30300000D03*
X18600000Y-30300000D03*
X45100000Y-10800000D03*
M02*
