%TF.GenerationSoftware,KiCad,Pcbnew,(5.1.9-0-10_14)*%
%TF.CreationDate,2021-06-24T13:30:28+09:00*%
%TF.ProjectId,reviung5,72657669-756e-4673-952e-6b696361645f,1*%
%TF.SameCoordinates,PX1c9c380PY1c9c380*%
%TF.FileFunction,Legend,Top*%
%TF.FilePolarity,Positive*%
%FSLAX46Y46*%
G04 Gerber Fmt 4.6, Leading zero omitted, Abs format (unit mm)*
G04 Created by KiCad (PCBNEW (5.1.9-0-10_14)) date 2021-06-24 13:30:28*
%MOMM*%
%LPD*%
G01*
G04 APERTURE LIST*
%ADD10C,0.150000*%
%ADD11C,0.010000*%
%ADD12C,0.120000*%
%ADD13C,0.125000*%
G04 APERTURE END LIST*
D10*
X17514285Y-30474285D02*
X18200000Y-30474285D01*
X19314285Y-30817142D02*
X19314285Y-29917142D01*
X19614285Y-30560000D01*
X19914285Y-29917142D01*
X19914285Y-30817142D01*
X20257142Y-29917142D02*
X20857142Y-30817142D01*
X20857142Y-29917142D02*
X20257142Y-30817142D01*
X21842857Y-30774285D02*
X21971428Y-30817142D01*
X22185714Y-30817142D01*
X22271428Y-30774285D01*
X22314285Y-30731428D01*
X22357142Y-30645714D01*
X22357142Y-30560000D01*
X22314285Y-30474285D01*
X22271428Y-30431428D01*
X22185714Y-30388571D01*
X22014285Y-30345714D01*
X21928571Y-30302857D01*
X21885714Y-30260000D01*
X21842857Y-30174285D01*
X21842857Y-30088571D01*
X21885714Y-30002857D01*
X21928571Y-29960000D01*
X22014285Y-29917142D01*
X22228571Y-29917142D01*
X22357142Y-29960000D01*
X22657142Y-30217142D02*
X22828571Y-30817142D01*
X23000000Y-30388571D01*
X23171428Y-30817142D01*
X23342857Y-30217142D01*
X23685714Y-30817142D02*
X23685714Y-30217142D01*
X23685714Y-29917142D02*
X23642857Y-29960000D01*
X23685714Y-30002857D01*
X23728571Y-29960000D01*
X23685714Y-29917142D01*
X23685714Y-30002857D01*
X23985714Y-30217142D02*
X24328571Y-30217142D01*
X24114285Y-29917142D02*
X24114285Y-30688571D01*
X24157142Y-30774285D01*
X24242857Y-30817142D01*
X24328571Y-30817142D01*
X25014285Y-30774285D02*
X24928571Y-30817142D01*
X24757142Y-30817142D01*
X24671428Y-30774285D01*
X24628571Y-30731428D01*
X24585714Y-30645714D01*
X24585714Y-30388571D01*
X24628571Y-30302857D01*
X24671428Y-30260000D01*
X24757142Y-30217142D01*
X24928571Y-30217142D01*
X25014285Y-30260000D01*
X25400000Y-30817142D02*
X25400000Y-29917142D01*
X25785714Y-30817142D02*
X25785714Y-30345714D01*
X25742857Y-30260000D01*
X25657142Y-30217142D01*
X25528571Y-30217142D01*
X25442857Y-30260000D01*
X25400000Y-30302857D01*
X27028571Y-30817142D02*
X26942857Y-30774285D01*
X26900000Y-30731428D01*
X26857142Y-30645714D01*
X26857142Y-30388571D01*
X26900000Y-30302857D01*
X26942857Y-30260000D01*
X27028571Y-30217142D01*
X27157142Y-30217142D01*
X27242857Y-30260000D01*
X27285714Y-30302857D01*
X27328571Y-30388571D01*
X27328571Y-30645714D01*
X27285714Y-30731428D01*
X27242857Y-30774285D01*
X27157142Y-30817142D01*
X27028571Y-30817142D01*
X27714285Y-30817142D02*
X27714285Y-30217142D01*
X27714285Y-30388571D02*
X27757142Y-30302857D01*
X27800000Y-30260000D01*
X27885714Y-30217142D01*
X27971428Y-30217142D01*
X29471428Y-30817142D02*
X29171428Y-30388571D01*
X28957142Y-30817142D02*
X28957142Y-29917142D01*
X29300000Y-29917142D01*
X29385714Y-29960000D01*
X29428571Y-30002857D01*
X29471428Y-30088571D01*
X29471428Y-30217142D01*
X29428571Y-30302857D01*
X29385714Y-30345714D01*
X29300000Y-30388571D01*
X28957142Y-30388571D01*
X29985714Y-30817142D02*
X29900000Y-30774285D01*
X29857142Y-30731428D01*
X29814285Y-30645714D01*
X29814285Y-30388571D01*
X29857142Y-30302857D01*
X29900000Y-30260000D01*
X29985714Y-30217142D01*
X30114285Y-30217142D01*
X30200000Y-30260000D01*
X30242857Y-30302857D01*
X30285714Y-30388571D01*
X30285714Y-30645714D01*
X30242857Y-30731428D01*
X30200000Y-30774285D01*
X30114285Y-30817142D01*
X29985714Y-30817142D01*
X30542857Y-30217142D02*
X30885714Y-30217142D01*
X30671428Y-29917142D02*
X30671428Y-30688571D01*
X30714285Y-30774285D01*
X30800000Y-30817142D01*
X30885714Y-30817142D01*
X31571428Y-30817142D02*
X31571428Y-30345714D01*
X31528571Y-30260000D01*
X31442857Y-30217142D01*
X31271428Y-30217142D01*
X31185714Y-30260000D01*
X31571428Y-30774285D02*
X31485714Y-30817142D01*
X31271428Y-30817142D01*
X31185714Y-30774285D01*
X31142857Y-30688571D01*
X31142857Y-30602857D01*
X31185714Y-30517142D01*
X31271428Y-30474285D01*
X31485714Y-30474285D01*
X31571428Y-30431428D01*
X32000000Y-30817142D02*
X32000000Y-30217142D01*
X32000000Y-30388571D02*
X32042857Y-30302857D01*
X32085714Y-30260000D01*
X32171428Y-30217142D01*
X32257142Y-30217142D01*
X32471428Y-30217142D02*
X32685714Y-30817142D01*
X32900000Y-30217142D02*
X32685714Y-30817142D01*
X32600000Y-31031428D01*
X32557142Y-31074285D01*
X32471428Y-31117142D01*
X33928571Y-30345714D02*
X34228571Y-30345714D01*
X34357142Y-30817142D02*
X33928571Y-30817142D01*
X33928571Y-29917142D01*
X34357142Y-29917142D01*
X34742857Y-30217142D02*
X34742857Y-30817142D01*
X34742857Y-30302857D02*
X34785714Y-30260000D01*
X34871428Y-30217142D01*
X35000000Y-30217142D01*
X35085714Y-30260000D01*
X35128571Y-30345714D01*
X35128571Y-30817142D01*
X35942857Y-30774285D02*
X35857142Y-30817142D01*
X35685714Y-30817142D01*
X35600000Y-30774285D01*
X35557142Y-30731428D01*
X35514285Y-30645714D01*
X35514285Y-30388571D01*
X35557142Y-30302857D01*
X35600000Y-30260000D01*
X35685714Y-30217142D01*
X35857142Y-30217142D01*
X35942857Y-30260000D01*
X36457142Y-30817142D02*
X36371428Y-30774285D01*
X36328571Y-30731428D01*
X36285714Y-30645714D01*
X36285714Y-30388571D01*
X36328571Y-30302857D01*
X36371428Y-30260000D01*
X36457142Y-30217142D01*
X36585714Y-30217142D01*
X36671428Y-30260000D01*
X36714285Y-30302857D01*
X36757142Y-30388571D01*
X36757142Y-30645714D01*
X36714285Y-30731428D01*
X36671428Y-30774285D01*
X36585714Y-30817142D01*
X36457142Y-30817142D01*
X37528571Y-30817142D02*
X37528571Y-29917142D01*
X37528571Y-30774285D02*
X37442857Y-30817142D01*
X37271428Y-30817142D01*
X37185714Y-30774285D01*
X37142857Y-30731428D01*
X37100000Y-30645714D01*
X37100000Y-30388571D01*
X37142857Y-30302857D01*
X37185714Y-30260000D01*
X37271428Y-30217142D01*
X37442857Y-30217142D01*
X37528571Y-30260000D01*
X38300000Y-30774285D02*
X38214285Y-30817142D01*
X38042857Y-30817142D01*
X37957142Y-30774285D01*
X37914285Y-30688571D01*
X37914285Y-30345714D01*
X37957142Y-30260000D01*
X38042857Y-30217142D01*
X38214285Y-30217142D01*
X38300000Y-30260000D01*
X38342857Y-30345714D01*
X38342857Y-30431428D01*
X37914285Y-30517142D01*
X38728571Y-30817142D02*
X38728571Y-30217142D01*
X38728571Y-30388571D02*
X38771428Y-30302857D01*
X38814285Y-30260000D01*
X38900000Y-30217142D01*
X38985714Y-30217142D01*
X39285714Y-30731428D02*
X39328571Y-30774285D01*
X39285714Y-30817142D01*
X39242857Y-30774285D01*
X39285714Y-30731428D01*
X39285714Y-30817142D01*
X40914285Y-30817142D02*
X40614285Y-30388571D01*
X40400000Y-30817142D02*
X40400000Y-29917142D01*
X40742857Y-29917142D01*
X40828571Y-29960000D01*
X40871428Y-30002857D01*
X40914285Y-30088571D01*
X40914285Y-30217142D01*
X40871428Y-30302857D01*
X40828571Y-30345714D01*
X40742857Y-30388571D01*
X40400000Y-30388571D01*
X41428571Y-30817142D02*
X41342857Y-30774285D01*
X41300000Y-30731428D01*
X41257142Y-30645714D01*
X41257142Y-30388571D01*
X41300000Y-30302857D01*
X41342857Y-30260000D01*
X41428571Y-30217142D01*
X41557142Y-30217142D01*
X41642857Y-30260000D01*
X41685714Y-30302857D01*
X41728571Y-30388571D01*
X41728571Y-30645714D01*
X41685714Y-30731428D01*
X41642857Y-30774285D01*
X41557142Y-30817142D01*
X41428571Y-30817142D01*
X41985714Y-30217142D02*
X42328571Y-30217142D01*
X42114285Y-29917142D02*
X42114285Y-30688571D01*
X42157142Y-30774285D01*
X42242857Y-30817142D01*
X42328571Y-30817142D01*
X43014285Y-30817142D02*
X43014285Y-30345714D01*
X42971428Y-30260000D01*
X42885714Y-30217142D01*
X42714285Y-30217142D01*
X42628571Y-30260000D01*
X43014285Y-30774285D02*
X42928571Y-30817142D01*
X42714285Y-30817142D01*
X42628571Y-30774285D01*
X42585714Y-30688571D01*
X42585714Y-30602857D01*
X42628571Y-30517142D01*
X42714285Y-30474285D01*
X42928571Y-30474285D01*
X43014285Y-30431428D01*
X43442857Y-30817142D02*
X43442857Y-30217142D01*
X43442857Y-30388571D02*
X43485714Y-30302857D01*
X43528571Y-30260000D01*
X43614285Y-30217142D01*
X43700000Y-30217142D01*
X43914285Y-30217142D02*
X44128571Y-30817142D01*
X44342857Y-30217142D02*
X44128571Y-30817142D01*
X44042857Y-31031428D01*
X44000000Y-31074285D01*
X43914285Y-31117142D01*
X45371428Y-30345714D02*
X45671428Y-30345714D01*
X45800000Y-30817142D02*
X45371428Y-30817142D01*
X45371428Y-29917142D01*
X45800000Y-29917142D01*
X46185714Y-30217142D02*
X46185714Y-30817142D01*
X46185714Y-30302857D02*
X46228571Y-30260000D01*
X46314285Y-30217142D01*
X46442857Y-30217142D01*
X46528571Y-30260000D01*
X46571428Y-30345714D01*
X46571428Y-30817142D01*
X47385714Y-30774285D02*
X47300000Y-30817142D01*
X47128571Y-30817142D01*
X47042857Y-30774285D01*
X47000000Y-30731428D01*
X46957142Y-30645714D01*
X46957142Y-30388571D01*
X47000000Y-30302857D01*
X47042857Y-30260000D01*
X47128571Y-30217142D01*
X47300000Y-30217142D01*
X47385714Y-30260000D01*
X47900000Y-30817142D02*
X47814285Y-30774285D01*
X47771428Y-30731428D01*
X47728571Y-30645714D01*
X47728571Y-30388571D01*
X47771428Y-30302857D01*
X47814285Y-30260000D01*
X47900000Y-30217142D01*
X48028571Y-30217142D01*
X48114285Y-30260000D01*
X48157142Y-30302857D01*
X48200000Y-30388571D01*
X48200000Y-30645714D01*
X48157142Y-30731428D01*
X48114285Y-30774285D01*
X48028571Y-30817142D01*
X47900000Y-30817142D01*
X48971428Y-30817142D02*
X48971428Y-29917142D01*
X48971428Y-30774285D02*
X48885714Y-30817142D01*
X48714285Y-30817142D01*
X48628571Y-30774285D01*
X48585714Y-30731428D01*
X48542857Y-30645714D01*
X48542857Y-30388571D01*
X48585714Y-30302857D01*
X48628571Y-30260000D01*
X48714285Y-30217142D01*
X48885714Y-30217142D01*
X48971428Y-30260000D01*
X49742857Y-30774285D02*
X49657142Y-30817142D01*
X49485714Y-30817142D01*
X49400000Y-30774285D01*
X49357142Y-30688571D01*
X49357142Y-30345714D01*
X49400000Y-30260000D01*
X49485714Y-30217142D01*
X49657142Y-30217142D01*
X49742857Y-30260000D01*
X49785714Y-30345714D01*
X49785714Y-30431428D01*
X49357142Y-30517142D01*
X50171428Y-30817142D02*
X50171428Y-30217142D01*
X50171428Y-30388571D02*
X50214285Y-30302857D01*
X50257142Y-30260000D01*
X50342857Y-30217142D01*
X50428571Y-30217142D01*
X51328571Y-30217142D02*
X51500000Y-30817142D01*
X51671428Y-30388571D01*
X51842857Y-30817142D01*
X52014285Y-30217142D01*
X52485714Y-30817142D02*
X52400000Y-30774285D01*
X52357142Y-30731428D01*
X52314285Y-30645714D01*
X52314285Y-30388571D01*
X52357142Y-30302857D01*
X52400000Y-30260000D01*
X52485714Y-30217142D01*
X52614285Y-30217142D01*
X52700000Y-30260000D01*
X52742857Y-30302857D01*
X52785714Y-30388571D01*
X52785714Y-30645714D01*
X52742857Y-30731428D01*
X52700000Y-30774285D01*
X52614285Y-30817142D01*
X52485714Y-30817142D01*
X53171428Y-30817142D02*
X53171428Y-30217142D01*
X53171428Y-30388571D02*
X53214285Y-30302857D01*
X53257142Y-30260000D01*
X53342857Y-30217142D01*
X53428571Y-30217142D01*
X53728571Y-30817142D02*
X53728571Y-29917142D01*
X53814285Y-30474285D02*
X54071428Y-30817142D01*
X54071428Y-30217142D02*
X53728571Y-30560000D01*
X54414285Y-30774285D02*
X54500000Y-30817142D01*
X54671428Y-30817142D01*
X54757142Y-30774285D01*
X54800000Y-30688571D01*
X54800000Y-30645714D01*
X54757142Y-30560000D01*
X54671428Y-30517142D01*
X54542857Y-30517142D01*
X54457142Y-30474285D01*
X54414285Y-30388571D01*
X54414285Y-30345714D01*
X54457142Y-30260000D01*
X54542857Y-30217142D01*
X54671428Y-30217142D01*
X54757142Y-30260000D01*
X56000000Y-30817142D02*
X55914285Y-30774285D01*
X55871428Y-30731428D01*
X55828571Y-30645714D01*
X55828571Y-30388571D01*
X55871428Y-30302857D01*
X55914285Y-30260000D01*
X56000000Y-30217142D01*
X56128571Y-30217142D01*
X56214285Y-30260000D01*
X56257142Y-30302857D01*
X56300000Y-30388571D01*
X56300000Y-30645714D01*
X56257142Y-30731428D01*
X56214285Y-30774285D01*
X56128571Y-30817142D01*
X56000000Y-30817142D01*
X56685714Y-30217142D02*
X56685714Y-30817142D01*
X56685714Y-30302857D02*
X56728571Y-30260000D01*
X56814285Y-30217142D01*
X56942857Y-30217142D01*
X57028571Y-30260000D01*
X57071428Y-30345714D01*
X57071428Y-30817142D01*
X57628571Y-30817142D02*
X57542857Y-30774285D01*
X57500000Y-30688571D01*
X57500000Y-29917142D01*
X57885714Y-30217142D02*
X58100000Y-30817142D01*
X58314285Y-30217142D02*
X58100000Y-30817142D01*
X58014285Y-31031428D01*
X57971428Y-31074285D01*
X57885714Y-31117142D01*
X59342857Y-30817142D02*
X59342857Y-30217142D01*
X59342857Y-29917142D02*
X59300000Y-29960000D01*
X59342857Y-30002857D01*
X59385714Y-29960000D01*
X59342857Y-29917142D01*
X59342857Y-30002857D01*
X59771428Y-30217142D02*
X59771428Y-30817142D01*
X59771428Y-30302857D02*
X59814285Y-30260000D01*
X59900000Y-30217142D01*
X60028571Y-30217142D01*
X60114285Y-30260000D01*
X60157142Y-30345714D01*
X60157142Y-30817142D01*
X61400000Y-30817142D02*
X61314285Y-30774285D01*
X61271428Y-30731428D01*
X61228571Y-30645714D01*
X61228571Y-30388571D01*
X61271428Y-30302857D01*
X61314285Y-30260000D01*
X61400000Y-30217142D01*
X61528571Y-30217142D01*
X61614285Y-30260000D01*
X61657142Y-30302857D01*
X61700000Y-30388571D01*
X61700000Y-30645714D01*
X61657142Y-30731428D01*
X61614285Y-30774285D01*
X61528571Y-30817142D01*
X61400000Y-30817142D01*
X62085714Y-30217142D02*
X62085714Y-30817142D01*
X62085714Y-30302857D02*
X62128571Y-30260000D01*
X62214285Y-30217142D01*
X62342857Y-30217142D01*
X62428571Y-30260000D01*
X62471428Y-30345714D01*
X62471428Y-30817142D01*
X63242857Y-30774285D02*
X63157142Y-30817142D01*
X62985714Y-30817142D01*
X62900000Y-30774285D01*
X62857142Y-30688571D01*
X62857142Y-30345714D01*
X62900000Y-30260000D01*
X62985714Y-30217142D01*
X63157142Y-30217142D01*
X63242857Y-30260000D01*
X63285714Y-30345714D01*
X63285714Y-30431428D01*
X62857142Y-30517142D01*
X64357142Y-30217142D02*
X64357142Y-31117142D01*
X64357142Y-30260000D02*
X64442857Y-30217142D01*
X64614285Y-30217142D01*
X64700000Y-30260000D01*
X64742857Y-30302857D01*
X64785714Y-30388571D01*
X64785714Y-30645714D01*
X64742857Y-30731428D01*
X64700000Y-30774285D01*
X64614285Y-30817142D01*
X64442857Y-30817142D01*
X64357142Y-30774285D01*
X65300000Y-30817142D02*
X65214285Y-30774285D01*
X65171428Y-30688571D01*
X65171428Y-29917142D01*
X66028571Y-30817142D02*
X66028571Y-30345714D01*
X65985714Y-30260000D01*
X65900000Y-30217142D01*
X65728571Y-30217142D01*
X65642857Y-30260000D01*
X66028571Y-30774285D02*
X65942857Y-30817142D01*
X65728571Y-30817142D01*
X65642857Y-30774285D01*
X65600000Y-30688571D01*
X65600000Y-30602857D01*
X65642857Y-30517142D01*
X65728571Y-30474285D01*
X65942857Y-30474285D01*
X66028571Y-30431428D01*
X66842857Y-30774285D02*
X66757142Y-30817142D01*
X66585714Y-30817142D01*
X66500000Y-30774285D01*
X66457142Y-30731428D01*
X66414285Y-30645714D01*
X66414285Y-30388571D01*
X66457142Y-30302857D01*
X66500000Y-30260000D01*
X66585714Y-30217142D01*
X66757142Y-30217142D01*
X66842857Y-30260000D01*
X67571428Y-30774285D02*
X67485714Y-30817142D01*
X67314285Y-30817142D01*
X67228571Y-30774285D01*
X67185714Y-30688571D01*
X67185714Y-30345714D01*
X67228571Y-30260000D01*
X67314285Y-30217142D01*
X67485714Y-30217142D01*
X67571428Y-30260000D01*
X67614285Y-30345714D01*
X67614285Y-30431428D01*
X67185714Y-30517142D01*
X68042857Y-30774285D02*
X68042857Y-30817142D01*
X68000000Y-30902857D01*
X67957142Y-30945714D01*
X69242857Y-30817142D02*
X69157142Y-30774285D01*
X69114285Y-30688571D01*
X69114285Y-29917142D01*
X69928571Y-30774285D02*
X69842857Y-30817142D01*
X69671428Y-30817142D01*
X69585714Y-30774285D01*
X69542857Y-30688571D01*
X69542857Y-30345714D01*
X69585714Y-30260000D01*
X69671428Y-30217142D01*
X69842857Y-30217142D01*
X69928571Y-30260000D01*
X69971428Y-30345714D01*
X69971428Y-30431428D01*
X69542857Y-30517142D01*
X70228571Y-30217142D02*
X70571428Y-30217142D01*
X70357142Y-30817142D02*
X70357142Y-30045714D01*
X70400000Y-29960000D01*
X70485714Y-29917142D01*
X70571428Y-29917142D01*
X70742857Y-30217142D02*
X71085714Y-30217142D01*
X70871428Y-29917142D02*
X70871428Y-30688571D01*
X70914285Y-30774285D01*
X71000000Y-30817142D01*
X71085714Y-30817142D01*
X72200000Y-30817142D02*
X72114285Y-30774285D01*
X72071428Y-30731428D01*
X72028571Y-30645714D01*
X72028571Y-30388571D01*
X72071428Y-30302857D01*
X72114285Y-30260000D01*
X72200000Y-30217142D01*
X72328571Y-30217142D01*
X72414285Y-30260000D01*
X72457142Y-30302857D01*
X72500000Y-30388571D01*
X72500000Y-30645714D01*
X72457142Y-30731428D01*
X72414285Y-30774285D01*
X72328571Y-30817142D01*
X72200000Y-30817142D01*
X72885714Y-30817142D02*
X72885714Y-30217142D01*
X72885714Y-30388571D02*
X72928571Y-30302857D01*
X72971428Y-30260000D01*
X73057142Y-30217142D01*
X73142857Y-30217142D01*
X74128571Y-30817142D02*
X74128571Y-30217142D01*
X74128571Y-30388571D02*
X74171428Y-30302857D01*
X74214285Y-30260000D01*
X74300000Y-30217142D01*
X74385714Y-30217142D01*
X74685714Y-30817142D02*
X74685714Y-30217142D01*
X74685714Y-29917142D02*
X74642857Y-29960000D01*
X74685714Y-30002857D01*
X74728571Y-29960000D01*
X74685714Y-29917142D01*
X74685714Y-30002857D01*
X75500000Y-30217142D02*
X75500000Y-30945714D01*
X75457142Y-31031428D01*
X75414285Y-31074285D01*
X75328571Y-31117142D01*
X75200000Y-31117142D01*
X75114285Y-31074285D01*
X75500000Y-30774285D02*
X75414285Y-30817142D01*
X75242857Y-30817142D01*
X75157142Y-30774285D01*
X75114285Y-30731428D01*
X75071428Y-30645714D01*
X75071428Y-30388571D01*
X75114285Y-30302857D01*
X75157142Y-30260000D01*
X75242857Y-30217142D01*
X75414285Y-30217142D01*
X75500000Y-30260000D01*
X75928571Y-30817142D02*
X75928571Y-29917142D01*
X76314285Y-30817142D02*
X76314285Y-30345714D01*
X76271428Y-30260000D01*
X76185714Y-30217142D01*
X76057142Y-30217142D01*
X75971428Y-30260000D01*
X75928571Y-30302857D01*
X76614285Y-30217142D02*
X76957142Y-30217142D01*
X76742857Y-29917142D02*
X76742857Y-30688571D01*
X76785714Y-30774285D01*
X76871428Y-30817142D01*
X76957142Y-30817142D01*
X77900000Y-30774285D02*
X77985714Y-30817142D01*
X78157142Y-30817142D01*
X78242857Y-30774285D01*
X78285714Y-30688571D01*
X78285714Y-30645714D01*
X78242857Y-30560000D01*
X78157142Y-30517142D01*
X78028571Y-30517142D01*
X77942857Y-30474285D01*
X77900000Y-30388571D01*
X77900000Y-30345714D01*
X77942857Y-30260000D01*
X78028571Y-30217142D01*
X78157142Y-30217142D01*
X78242857Y-30260000D01*
X78671428Y-30817142D02*
X78671428Y-30217142D01*
X78671428Y-29917142D02*
X78628571Y-29960000D01*
X78671428Y-30002857D01*
X78714285Y-29960000D01*
X78671428Y-29917142D01*
X78671428Y-30002857D01*
X79485714Y-30817142D02*
X79485714Y-29917142D01*
X79485714Y-30774285D02*
X79400000Y-30817142D01*
X79228571Y-30817142D01*
X79142857Y-30774285D01*
X79100000Y-30731428D01*
X79057142Y-30645714D01*
X79057142Y-30388571D01*
X79100000Y-30302857D01*
X79142857Y-30260000D01*
X79228571Y-30217142D01*
X79400000Y-30217142D01*
X79485714Y-30260000D01*
X80257142Y-30774285D02*
X80171428Y-30817142D01*
X80000000Y-30817142D01*
X79914285Y-30774285D01*
X79871428Y-30688571D01*
X79871428Y-30345714D01*
X79914285Y-30260000D01*
X80000000Y-30217142D01*
X80171428Y-30217142D01*
X80257142Y-30260000D01*
X80300000Y-30345714D01*
X80300000Y-30431428D01*
X79871428Y-30517142D01*
X80685714Y-30731428D02*
X80728571Y-30774285D01*
X80685714Y-30817142D01*
X80642857Y-30774285D01*
X80685714Y-30731428D01*
X80685714Y-30817142D01*
X81800000Y-30474285D02*
X82485714Y-30474285D01*
D11*
%TO.C,G\u002A\u002A\u002A*%
G36*
X52525833Y-40798567D02*
G01*
X52625227Y-40735533D01*
X52705715Y-40692920D01*
X52782787Y-40674753D01*
X52833763Y-40672499D01*
X52951301Y-40689629D01*
X53044432Y-40741105D01*
X53113262Y-40827061D01*
X53157896Y-40947631D01*
X53178438Y-41102946D01*
X53178784Y-41110446D01*
X53172961Y-41278937D01*
X53140173Y-41416920D01*
X53081110Y-41523425D01*
X52996460Y-41597481D01*
X52886911Y-41638118D01*
X52798570Y-41646166D01*
X52700008Y-41631343D01*
X52613568Y-41591369D01*
X52569324Y-41552312D01*
X52533499Y-41522140D01*
X52511095Y-41531412D01*
X52504666Y-41569818D01*
X52488057Y-41619349D01*
X52446813Y-41643057D01*
X52393804Y-41634749D01*
X52382655Y-41628531D01*
X52374958Y-41614553D01*
X52368982Y-41581104D01*
X52364616Y-41524544D01*
X52361749Y-41441235D01*
X52360270Y-41327535D01*
X52360067Y-41179807D01*
X52361029Y-40994409D01*
X52361203Y-40972132D01*
X52525833Y-40972132D01*
X52525833Y-41156830D01*
X52526536Y-41246337D01*
X52530723Y-41304896D01*
X52541512Y-41343893D01*
X52562022Y-41374711D01*
X52594625Y-41408016D01*
X52687029Y-41478762D01*
X52774692Y-41508396D01*
X52856504Y-41496739D01*
X52915046Y-41459309D01*
X52970833Y-41382672D01*
X53003743Y-41273902D01*
X53012666Y-41160441D01*
X53000495Y-41026525D01*
X52966101Y-40923080D01*
X52912665Y-40852184D01*
X52843368Y-40815913D01*
X52761391Y-40816343D01*
X52669913Y-40855553D01*
X52611693Y-40898638D01*
X52525833Y-40972132D01*
X52361203Y-40972132D01*
X52361489Y-40935647D01*
X52367083Y-40259750D01*
X52446458Y-40253180D01*
X52525833Y-40246611D01*
X52525833Y-40798567D01*
G37*
X52525833Y-40798567D02*
X52625227Y-40735533D01*
X52705715Y-40692920D01*
X52782787Y-40674753D01*
X52833763Y-40672499D01*
X52951301Y-40689629D01*
X53044432Y-40741105D01*
X53113262Y-40827061D01*
X53157896Y-40947631D01*
X53178438Y-41102946D01*
X53178784Y-41110446D01*
X53172961Y-41278937D01*
X53140173Y-41416920D01*
X53081110Y-41523425D01*
X52996460Y-41597481D01*
X52886911Y-41638118D01*
X52798570Y-41646166D01*
X52700008Y-41631343D01*
X52613568Y-41591369D01*
X52569324Y-41552312D01*
X52533499Y-41522140D01*
X52511095Y-41531412D01*
X52504666Y-41569818D01*
X52488057Y-41619349D01*
X52446813Y-41643057D01*
X52393804Y-41634749D01*
X52382655Y-41628531D01*
X52374958Y-41614553D01*
X52368982Y-41581104D01*
X52364616Y-41524544D01*
X52361749Y-41441235D01*
X52360270Y-41327535D01*
X52360067Y-41179807D01*
X52361029Y-40994409D01*
X52361203Y-40972132D01*
X52525833Y-40972132D01*
X52525833Y-41156830D01*
X52526536Y-41246337D01*
X52530723Y-41304896D01*
X52541512Y-41343893D01*
X52562022Y-41374711D01*
X52594625Y-41408016D01*
X52687029Y-41478762D01*
X52774692Y-41508396D01*
X52856504Y-41496739D01*
X52915046Y-41459309D01*
X52970833Y-41382672D01*
X53003743Y-41273902D01*
X53012666Y-41160441D01*
X53000495Y-41026525D01*
X52966101Y-40923080D01*
X52912665Y-40852184D01*
X52843368Y-40815913D01*
X52761391Y-40816343D01*
X52669913Y-40855553D01*
X52611693Y-40898638D01*
X52525833Y-40972132D01*
X52361203Y-40972132D01*
X52361489Y-40935647D01*
X52367083Y-40259750D01*
X52446458Y-40253180D01*
X52525833Y-40246611D01*
X52525833Y-40798567D01*
G36*
X51594500Y-40937747D02*
G01*
X51594327Y-41128038D01*
X51593667Y-41280280D01*
X51592310Y-41398755D01*
X51590043Y-41487747D01*
X51586656Y-41551537D01*
X51581937Y-41594410D01*
X51575676Y-41620648D01*
X51567659Y-41634534D01*
X51559872Y-41639616D01*
X51509304Y-41639274D01*
X51466197Y-41606074D01*
X51446814Y-41564530D01*
X51438522Y-41537803D01*
X51424411Y-41532133D01*
X51393990Y-41548817D01*
X51355498Y-41575830D01*
X51257954Y-41624449D01*
X51149696Y-41644810D01*
X51044255Y-41636075D01*
X50959500Y-41600384D01*
X50873945Y-41518555D01*
X50816792Y-41406192D01*
X50787820Y-41262763D01*
X50783816Y-41172926D01*
X50784838Y-41147029D01*
X50953156Y-41147029D01*
X50962891Y-41286108D01*
X50994884Y-41390550D01*
X51049769Y-41462111D01*
X51072807Y-41478684D01*
X51156305Y-41507524D01*
X51245330Y-41494627D01*
X51324244Y-41451864D01*
X51382468Y-41404133D01*
X51419051Y-41353108D01*
X51438635Y-41287365D01*
X51445861Y-41195475D01*
X51446333Y-41151346D01*
X51445604Y-41067092D01*
X51440570Y-41012421D01*
X51426961Y-40974582D01*
X51400505Y-40940825D01*
X51363797Y-40904930D01*
X51272724Y-40838404D01*
X51185740Y-40811817D01*
X51106906Y-40822778D01*
X51040281Y-40868893D01*
X50989923Y-40947768D01*
X50959892Y-41057012D01*
X50953156Y-41147029D01*
X50784838Y-41147029D01*
X50788403Y-41056771D01*
X50803663Y-40967818D01*
X50826103Y-40904280D01*
X50879850Y-40815103D01*
X50951491Y-40739961D01*
X51029238Y-40690247D01*
X51057641Y-40680466D01*
X51145315Y-40673148D01*
X51243348Y-40686564D01*
X51330502Y-40716984D01*
X51357709Y-40733182D01*
X51402433Y-40762811D01*
X51431243Y-40777861D01*
X51433725Y-40778333D01*
X51438501Y-40758503D01*
X51442447Y-40704357D01*
X51445181Y-40623909D01*
X51446321Y-40525174D01*
X51446333Y-40513750D01*
X51446333Y-40249166D01*
X51594500Y-40249166D01*
X51594500Y-40937747D01*
G37*
X51594500Y-40937747D02*
X51594327Y-41128038D01*
X51593667Y-41280280D01*
X51592310Y-41398755D01*
X51590043Y-41487747D01*
X51586656Y-41551537D01*
X51581937Y-41594410D01*
X51575676Y-41620648D01*
X51567659Y-41634534D01*
X51559872Y-41639616D01*
X51509304Y-41639274D01*
X51466197Y-41606074D01*
X51446814Y-41564530D01*
X51438522Y-41537803D01*
X51424411Y-41532133D01*
X51393990Y-41548817D01*
X51355498Y-41575830D01*
X51257954Y-41624449D01*
X51149696Y-41644810D01*
X51044255Y-41636075D01*
X50959500Y-41600384D01*
X50873945Y-41518555D01*
X50816792Y-41406192D01*
X50787820Y-41262763D01*
X50783816Y-41172926D01*
X50784838Y-41147029D01*
X50953156Y-41147029D01*
X50962891Y-41286108D01*
X50994884Y-41390550D01*
X51049769Y-41462111D01*
X51072807Y-41478684D01*
X51156305Y-41507524D01*
X51245330Y-41494627D01*
X51324244Y-41451864D01*
X51382468Y-41404133D01*
X51419051Y-41353108D01*
X51438635Y-41287365D01*
X51445861Y-41195475D01*
X51446333Y-41151346D01*
X51445604Y-41067092D01*
X51440570Y-41012421D01*
X51426961Y-40974582D01*
X51400505Y-40940825D01*
X51363797Y-40904930D01*
X51272724Y-40838404D01*
X51185740Y-40811817D01*
X51106906Y-40822778D01*
X51040281Y-40868893D01*
X50989923Y-40947768D01*
X50959892Y-41057012D01*
X50953156Y-41147029D01*
X50784838Y-41147029D01*
X50788403Y-41056771D01*
X50803663Y-40967818D01*
X50826103Y-40904280D01*
X50879850Y-40815103D01*
X50951491Y-40739961D01*
X51029238Y-40690247D01*
X51057641Y-40680466D01*
X51145315Y-40673148D01*
X51243348Y-40686564D01*
X51330502Y-40716984D01*
X51357709Y-40733182D01*
X51402433Y-40762811D01*
X51431243Y-40777861D01*
X51433725Y-40778333D01*
X51438501Y-40758503D01*
X51442447Y-40704357D01*
X51445181Y-40623909D01*
X51446321Y-40525174D01*
X51446333Y-40513750D01*
X51446333Y-40249166D01*
X51594500Y-40249166D01*
X51594500Y-40937747D01*
G36*
X50324197Y-40686255D02*
G01*
X50380995Y-40709669D01*
X50398583Y-40719375D01*
X50484444Y-40792008D01*
X50544919Y-40892885D01*
X50575577Y-41013465D01*
X50578500Y-41066099D01*
X50577645Y-41114333D01*
X50571213Y-41149439D01*
X50553398Y-41173511D01*
X50518394Y-41188642D01*
X50460397Y-41196925D01*
X50373601Y-41200452D01*
X50252202Y-41201318D01*
X50203320Y-41201377D01*
X49923391Y-41201666D01*
X49936468Y-41270458D01*
X49973762Y-41382919D01*
X50036463Y-41461539D01*
X50124588Y-41506325D01*
X50238151Y-41517284D01*
X50377169Y-41494423D01*
X50408312Y-41485709D01*
X50486574Y-41467980D01*
X50531782Y-41472807D01*
X50547602Y-41501677D01*
X50542361Y-41540096D01*
X50511810Y-41582507D01*
X50444432Y-41613188D01*
X50338619Y-41632684D01*
X50250416Y-41639525D01*
X50151712Y-41641663D01*
X50080429Y-41635382D01*
X50022173Y-41618876D01*
X49996416Y-41607652D01*
X49897945Y-41544147D01*
X49828615Y-41458699D01*
X49786195Y-41346932D01*
X49768451Y-41204471D01*
X49767600Y-41159333D01*
X49775352Y-41074666D01*
X49926791Y-41074666D01*
X50180827Y-41074666D01*
X50288453Y-41074070D01*
X50360133Y-41071693D01*
X50402245Y-41066648D01*
X50421168Y-41058051D01*
X50423279Y-41045016D01*
X50422014Y-41041185D01*
X50410891Y-40991042D01*
X50409166Y-40965473D01*
X50394865Y-40924245D01*
X50359319Y-40874202D01*
X50347294Y-40861371D01*
X50271188Y-40811476D01*
X50185929Y-40796576D01*
X50100832Y-40813574D01*
X50025212Y-40859372D01*
X49968383Y-40930872D01*
X49944605Y-40995291D01*
X49926791Y-41074666D01*
X49775352Y-41074666D01*
X49782023Y-41001807D01*
X49825298Y-40875044D01*
X49897249Y-40779257D01*
X49997694Y-40714657D01*
X50126456Y-40681456D01*
X50173994Y-40677480D01*
X50261100Y-40676626D01*
X50324197Y-40686255D01*
G37*
X50324197Y-40686255D02*
X50380995Y-40709669D01*
X50398583Y-40719375D01*
X50484444Y-40792008D01*
X50544919Y-40892885D01*
X50575577Y-41013465D01*
X50578500Y-41066099D01*
X50577645Y-41114333D01*
X50571213Y-41149439D01*
X50553398Y-41173511D01*
X50518394Y-41188642D01*
X50460397Y-41196925D01*
X50373601Y-41200452D01*
X50252202Y-41201318D01*
X50203320Y-41201377D01*
X49923391Y-41201666D01*
X49936468Y-41270458D01*
X49973762Y-41382919D01*
X50036463Y-41461539D01*
X50124588Y-41506325D01*
X50238151Y-41517284D01*
X50377169Y-41494423D01*
X50408312Y-41485709D01*
X50486574Y-41467980D01*
X50531782Y-41472807D01*
X50547602Y-41501677D01*
X50542361Y-41540096D01*
X50511810Y-41582507D01*
X50444432Y-41613188D01*
X50338619Y-41632684D01*
X50250416Y-41639525D01*
X50151712Y-41641663D01*
X50080429Y-41635382D01*
X50022173Y-41618876D01*
X49996416Y-41607652D01*
X49897945Y-41544147D01*
X49828615Y-41458699D01*
X49786195Y-41346932D01*
X49768451Y-41204471D01*
X49767600Y-41159333D01*
X49775352Y-41074666D01*
X49926791Y-41074666D01*
X50180827Y-41074666D01*
X50288453Y-41074070D01*
X50360133Y-41071693D01*
X50402245Y-41066648D01*
X50421168Y-41058051D01*
X50423279Y-41045016D01*
X50422014Y-41041185D01*
X50410891Y-40991042D01*
X50409166Y-40965473D01*
X50394865Y-40924245D01*
X50359319Y-40874202D01*
X50347294Y-40861371D01*
X50271188Y-40811476D01*
X50185929Y-40796576D01*
X50100832Y-40813574D01*
X50025212Y-40859372D01*
X49968383Y-40930872D01*
X49944605Y-40995291D01*
X49926791Y-41074666D01*
X49775352Y-41074666D01*
X49782023Y-41001807D01*
X49825298Y-40875044D01*
X49897249Y-40779257D01*
X49997694Y-40714657D01*
X50126456Y-40681456D01*
X50173994Y-40677480D01*
X50261100Y-40676626D01*
X50324197Y-40686255D01*
G36*
X49614880Y-40684981D02*
G01*
X49657154Y-40721875D01*
X49664680Y-40782359D01*
X49664666Y-40782459D01*
X49655602Y-40812734D01*
X49631792Y-40825301D01*
X49580931Y-40825385D01*
X49566057Y-40824335D01*
X49510178Y-40823336D01*
X49469214Y-40835521D01*
X49427380Y-40868145D01*
X49391432Y-40904602D01*
X49308500Y-40991782D01*
X49308500Y-41306126D01*
X49307904Y-41430171D01*
X49305689Y-41518172D01*
X49301213Y-41576405D01*
X49293833Y-41611151D01*
X49282906Y-41628685D01*
X49275018Y-41633318D01*
X49202728Y-41642593D01*
X49165625Y-41632148D01*
X49156397Y-41617667D01*
X49149398Y-41579961D01*
X49144403Y-41515028D01*
X49141187Y-41418864D01*
X49139526Y-41287466D01*
X49139166Y-41159834D01*
X49139470Y-41007070D01*
X49140636Y-40891384D01*
X49143050Y-40807523D01*
X49147096Y-40750236D01*
X49153156Y-40714269D01*
X49161617Y-40694370D01*
X49172861Y-40685287D01*
X49173898Y-40684867D01*
X49233533Y-40678503D01*
X49273815Y-40707327D01*
X49287333Y-40761056D01*
X49287333Y-40825592D01*
X49372060Y-40749046D01*
X49435130Y-40699566D01*
X49490860Y-40676788D01*
X49538802Y-40672500D01*
X49614880Y-40684981D01*
G37*
X49614880Y-40684981D02*
X49657154Y-40721875D01*
X49664680Y-40782359D01*
X49664666Y-40782459D01*
X49655602Y-40812734D01*
X49631792Y-40825301D01*
X49580931Y-40825385D01*
X49566057Y-40824335D01*
X49510178Y-40823336D01*
X49469214Y-40835521D01*
X49427380Y-40868145D01*
X49391432Y-40904602D01*
X49308500Y-40991782D01*
X49308500Y-41306126D01*
X49307904Y-41430171D01*
X49305689Y-41518172D01*
X49301213Y-41576405D01*
X49293833Y-41611151D01*
X49282906Y-41628685D01*
X49275018Y-41633318D01*
X49202728Y-41642593D01*
X49165625Y-41632148D01*
X49156397Y-41617667D01*
X49149398Y-41579961D01*
X49144403Y-41515028D01*
X49141187Y-41418864D01*
X49139526Y-41287466D01*
X49139166Y-41159834D01*
X49139470Y-41007070D01*
X49140636Y-40891384D01*
X49143050Y-40807523D01*
X49147096Y-40750236D01*
X49153156Y-40714269D01*
X49161617Y-40694370D01*
X49172861Y-40685287D01*
X49173898Y-40684867D01*
X49233533Y-40678503D01*
X49273815Y-40707327D01*
X49287333Y-40761056D01*
X49287333Y-40825592D01*
X49372060Y-40749046D01*
X49435130Y-40699566D01*
X49490860Y-40676788D01*
X49538802Y-40672500D01*
X49614880Y-40684981D01*
G36*
X48650613Y-40696747D02*
G01*
X48704070Y-40720484D01*
X48788196Y-40786272D01*
X48843901Y-40874979D01*
X48874457Y-40992568D01*
X48879742Y-41040727D01*
X48883830Y-41097444D01*
X48881940Y-41138912D01*
X48868531Y-41167524D01*
X48838060Y-41185675D01*
X48784987Y-41195756D01*
X48703768Y-41200163D01*
X48588862Y-41201288D01*
X48507776Y-41201377D01*
X48225636Y-41201666D01*
X48240450Y-41270458D01*
X48280977Y-41383973D01*
X48346143Y-41463115D01*
X48435752Y-41507791D01*
X48549605Y-41517911D01*
X48687504Y-41493381D01*
X48707177Y-41487645D01*
X48779244Y-41466495D01*
X48819815Y-41459401D01*
X48837940Y-41468242D01*
X48842667Y-41494891D01*
X48842833Y-41515769D01*
X48830123Y-41568494D01*
X48785305Y-41603223D01*
X48784625Y-41603548D01*
X48725834Y-41620231D01*
X48639386Y-41631739D01*
X48539699Y-41637534D01*
X48441194Y-41637079D01*
X48358290Y-41629839D01*
X48318548Y-41620890D01*
X48225077Y-41568599D01*
X48152954Y-41487196D01*
X48102339Y-41384218D01*
X48073394Y-41267201D01*
X48066279Y-41143683D01*
X48078819Y-41040433D01*
X48238588Y-41040433D01*
X48247525Y-41061029D01*
X48277895Y-41071243D01*
X48335897Y-41074630D01*
X48427734Y-41074743D01*
X48470990Y-41074666D01*
X48715833Y-41074666D01*
X48715833Y-41020698D01*
X48702212Y-40949616D01*
X48667843Y-40879358D01*
X48622462Y-40828476D01*
X48611172Y-40821294D01*
X48563579Y-40806989D01*
X48498593Y-40799726D01*
X48486015Y-40799500D01*
X48403581Y-40816221D01*
X48328348Y-40859955D01*
X48274422Y-40921055D01*
X48260201Y-40953887D01*
X48244880Y-41005904D01*
X48238588Y-41040433D01*
X48078819Y-41040433D01*
X48081155Y-41021202D01*
X48118183Y-40907294D01*
X48177524Y-40809498D01*
X48259339Y-40735349D01*
X48299191Y-40713636D01*
X48413634Y-40680011D01*
X48536045Y-40674470D01*
X48650613Y-40696747D01*
G37*
X48650613Y-40696747D02*
X48704070Y-40720484D01*
X48788196Y-40786272D01*
X48843901Y-40874979D01*
X48874457Y-40992568D01*
X48879742Y-41040727D01*
X48883830Y-41097444D01*
X48881940Y-41138912D01*
X48868531Y-41167524D01*
X48838060Y-41185675D01*
X48784987Y-41195756D01*
X48703768Y-41200163D01*
X48588862Y-41201288D01*
X48507776Y-41201377D01*
X48225636Y-41201666D01*
X48240450Y-41270458D01*
X48280977Y-41383973D01*
X48346143Y-41463115D01*
X48435752Y-41507791D01*
X48549605Y-41517911D01*
X48687504Y-41493381D01*
X48707177Y-41487645D01*
X48779244Y-41466495D01*
X48819815Y-41459401D01*
X48837940Y-41468242D01*
X48842667Y-41494891D01*
X48842833Y-41515769D01*
X48830123Y-41568494D01*
X48785305Y-41603223D01*
X48784625Y-41603548D01*
X48725834Y-41620231D01*
X48639386Y-41631739D01*
X48539699Y-41637534D01*
X48441194Y-41637079D01*
X48358290Y-41629839D01*
X48318548Y-41620890D01*
X48225077Y-41568599D01*
X48152954Y-41487196D01*
X48102339Y-41384218D01*
X48073394Y-41267201D01*
X48066279Y-41143683D01*
X48078819Y-41040433D01*
X48238588Y-41040433D01*
X48247525Y-41061029D01*
X48277895Y-41071243D01*
X48335897Y-41074630D01*
X48427734Y-41074743D01*
X48470990Y-41074666D01*
X48715833Y-41074666D01*
X48715833Y-41020698D01*
X48702212Y-40949616D01*
X48667843Y-40879358D01*
X48622462Y-40828476D01*
X48611172Y-40821294D01*
X48563579Y-40806989D01*
X48498593Y-40799726D01*
X48486015Y-40799500D01*
X48403581Y-40816221D01*
X48328348Y-40859955D01*
X48274422Y-40921055D01*
X48260201Y-40953887D01*
X48244880Y-41005904D01*
X48238588Y-41040433D01*
X48078819Y-41040433D01*
X48081155Y-41021202D01*
X48118183Y-40907294D01*
X48177524Y-40809498D01*
X48259339Y-40735349D01*
X48299191Y-40713636D01*
X48413634Y-40680011D01*
X48536045Y-40674470D01*
X48650613Y-40696747D01*
G36*
X47899104Y-40673598D02*
G01*
X47914791Y-40689466D01*
X47918550Y-40724950D01*
X47910139Y-40784094D01*
X47889315Y-40870946D01*
X47855834Y-40989553D01*
X47809455Y-41143961D01*
X47804337Y-41160745D01*
X47756509Y-41315881D01*
X47717894Y-41434845D01*
X47685833Y-41522101D01*
X47657666Y-41582111D01*
X47630737Y-41619338D01*
X47602385Y-41638245D01*
X47569952Y-41643296D01*
X47530780Y-41638954D01*
X47520572Y-41637102D01*
X47494231Y-41631213D01*
X47473744Y-41620770D01*
X47456115Y-41599576D01*
X47438348Y-41561433D01*
X47417448Y-41500143D01*
X47390418Y-41409509D01*
X47361047Y-41307081D01*
X47329218Y-41198546D01*
X47300492Y-41106008D01*
X47277149Y-41036398D01*
X47261467Y-40996645D01*
X47256778Y-40990000D01*
X47246854Y-41009320D01*
X47228600Y-41062563D01*
X47204219Y-41142649D01*
X47175915Y-41242499D01*
X47160842Y-41298146D01*
X47125572Y-41426246D01*
X47096504Y-41518734D01*
X47070439Y-41581273D01*
X47044183Y-41619528D01*
X47014537Y-41639162D01*
X46978306Y-41645840D01*
X46964437Y-41646166D01*
X46914205Y-41633712D01*
X46889477Y-41619708D01*
X46874520Y-41593560D01*
X46850086Y-41534165D01*
X46818576Y-41448907D01*
X46782395Y-41345172D01*
X46743944Y-41230344D01*
X46705627Y-41111808D01*
X46669846Y-40996948D01*
X46639004Y-40893150D01*
X46615503Y-40807799D01*
X46601748Y-40748279D01*
X46599166Y-40727443D01*
X46616074Y-40690264D01*
X46658727Y-40676248D01*
X46712108Y-40688232D01*
X46731430Y-40702926D01*
X46750985Y-40732503D01*
X46772947Y-40782445D01*
X46799491Y-40858239D01*
X46832792Y-40965366D01*
X46863981Y-41071192D01*
X46898328Y-41186207D01*
X46929422Y-41284443D01*
X46955176Y-41359776D01*
X46973507Y-41406083D01*
X46982008Y-41417802D01*
X46991396Y-41393270D01*
X47009295Y-41334772D01*
X47033683Y-41249348D01*
X47062541Y-41144033D01*
X47086618Y-41053500D01*
X47118118Y-40937510D01*
X47147670Y-40835956D01*
X47173059Y-40755904D01*
X47192070Y-40704419D01*
X47200957Y-40688699D01*
X47255459Y-40673833D01*
X47313702Y-40690043D01*
X47315296Y-40691033D01*
X47330153Y-40716418D01*
X47353717Y-40775619D01*
X47383530Y-40861614D01*
X47417134Y-40967384D01*
X47445353Y-41062418D01*
X47479073Y-41178148D01*
X47509207Y-41279110D01*
X47533674Y-41358521D01*
X47550390Y-41409595D01*
X47556873Y-41425595D01*
X47565451Y-41409478D01*
X47583380Y-41358802D01*
X47608664Y-41279791D01*
X47639304Y-41178671D01*
X47670920Y-41070029D01*
X47708738Y-40939037D01*
X47737863Y-40843020D01*
X47760757Y-40776115D01*
X47779883Y-40732460D01*
X47797706Y-40706192D01*
X47816688Y-40691451D01*
X47832920Y-40684518D01*
X47871733Y-40673297D01*
X47899104Y-40673598D01*
G37*
X47899104Y-40673598D02*
X47914791Y-40689466D01*
X47918550Y-40724950D01*
X47910139Y-40784094D01*
X47889315Y-40870946D01*
X47855834Y-40989553D01*
X47809455Y-41143961D01*
X47804337Y-41160745D01*
X47756509Y-41315881D01*
X47717894Y-41434845D01*
X47685833Y-41522101D01*
X47657666Y-41582111D01*
X47630737Y-41619338D01*
X47602385Y-41638245D01*
X47569952Y-41643296D01*
X47530780Y-41638954D01*
X47520572Y-41637102D01*
X47494231Y-41631213D01*
X47473744Y-41620770D01*
X47456115Y-41599576D01*
X47438348Y-41561433D01*
X47417448Y-41500143D01*
X47390418Y-41409509D01*
X47361047Y-41307081D01*
X47329218Y-41198546D01*
X47300492Y-41106008D01*
X47277149Y-41036398D01*
X47261467Y-40996645D01*
X47256778Y-40990000D01*
X47246854Y-41009320D01*
X47228600Y-41062563D01*
X47204219Y-41142649D01*
X47175915Y-41242499D01*
X47160842Y-41298146D01*
X47125572Y-41426246D01*
X47096504Y-41518734D01*
X47070439Y-41581273D01*
X47044183Y-41619528D01*
X47014537Y-41639162D01*
X46978306Y-41645840D01*
X46964437Y-41646166D01*
X46914205Y-41633712D01*
X46889477Y-41619708D01*
X46874520Y-41593560D01*
X46850086Y-41534165D01*
X46818576Y-41448907D01*
X46782395Y-41345172D01*
X46743944Y-41230344D01*
X46705627Y-41111808D01*
X46669846Y-40996948D01*
X46639004Y-40893150D01*
X46615503Y-40807799D01*
X46601748Y-40748279D01*
X46599166Y-40727443D01*
X46616074Y-40690264D01*
X46658727Y-40676248D01*
X46712108Y-40688232D01*
X46731430Y-40702926D01*
X46750985Y-40732503D01*
X46772947Y-40782445D01*
X46799491Y-40858239D01*
X46832792Y-40965366D01*
X46863981Y-41071192D01*
X46898328Y-41186207D01*
X46929422Y-41284443D01*
X46955176Y-41359776D01*
X46973507Y-41406083D01*
X46982008Y-41417802D01*
X46991396Y-41393270D01*
X47009295Y-41334772D01*
X47033683Y-41249348D01*
X47062541Y-41144033D01*
X47086618Y-41053500D01*
X47118118Y-40937510D01*
X47147670Y-40835956D01*
X47173059Y-40755904D01*
X47192070Y-40704419D01*
X47200957Y-40688699D01*
X47255459Y-40673833D01*
X47313702Y-40690043D01*
X47315296Y-40691033D01*
X47330153Y-40716418D01*
X47353717Y-40775619D01*
X47383530Y-40861614D01*
X47417134Y-40967384D01*
X47445353Y-41062418D01*
X47479073Y-41178148D01*
X47509207Y-41279110D01*
X47533674Y-41358521D01*
X47550390Y-41409595D01*
X47556873Y-41425595D01*
X47565451Y-41409478D01*
X47583380Y-41358802D01*
X47608664Y-41279791D01*
X47639304Y-41178671D01*
X47670920Y-41070029D01*
X47708738Y-40939037D01*
X47737863Y-40843020D01*
X47760757Y-40776115D01*
X47779883Y-40732460D01*
X47797706Y-40706192D01*
X47816688Y-40691451D01*
X47832920Y-40684518D01*
X47871733Y-40673297D01*
X47899104Y-40673598D01*
G36*
X46158305Y-40688635D02*
G01*
X46271388Y-40736595D01*
X46356872Y-40816583D01*
X46414494Y-40928340D01*
X46443987Y-41071604D01*
X46445784Y-41093125D01*
X46441966Y-41255579D01*
X46406924Y-41392616D01*
X46342323Y-41502186D01*
X46249830Y-41582241D01*
X46131107Y-41630732D01*
X45996723Y-41645701D01*
X45884538Y-41635571D01*
X45788820Y-41608751D01*
X45782155Y-41605834D01*
X45683835Y-41539147D01*
X45614388Y-41441505D01*
X45573819Y-41312914D01*
X45562000Y-41169916D01*
X45562329Y-41166556D01*
X45733808Y-41166556D01*
X45742501Y-41274905D01*
X45767627Y-41367365D01*
X45785421Y-41401567D01*
X45851544Y-41466667D01*
X45939044Y-41503186D01*
X46036428Y-41509219D01*
X46132202Y-41482859D01*
X46164945Y-41464503D01*
X46219501Y-41405701D01*
X46257450Y-41318289D01*
X46277193Y-41213239D01*
X46277133Y-41101523D01*
X46255672Y-40994114D01*
X46239546Y-40952161D01*
X46182705Y-40870301D01*
X46106747Y-40820063D01*
X46020416Y-40801198D01*
X45932455Y-40813456D01*
X45851610Y-40856587D01*
X45786623Y-40930342D01*
X45768223Y-40965624D01*
X45742173Y-41058176D01*
X45733808Y-41166556D01*
X45562329Y-41166556D01*
X45577452Y-41012172D01*
X45623112Y-40883056D01*
X45697928Y-40783712D01*
X45800852Y-40715284D01*
X45930834Y-40678916D01*
X46017890Y-40672964D01*
X46158305Y-40688635D01*
G37*
X46158305Y-40688635D02*
X46271388Y-40736595D01*
X46356872Y-40816583D01*
X46414494Y-40928340D01*
X46443987Y-41071604D01*
X46445784Y-41093125D01*
X46441966Y-41255579D01*
X46406924Y-41392616D01*
X46342323Y-41502186D01*
X46249830Y-41582241D01*
X46131107Y-41630732D01*
X45996723Y-41645701D01*
X45884538Y-41635571D01*
X45788820Y-41608751D01*
X45782155Y-41605834D01*
X45683835Y-41539147D01*
X45614388Y-41441505D01*
X45573819Y-41312914D01*
X45562000Y-41169916D01*
X45562329Y-41166556D01*
X45733808Y-41166556D01*
X45742501Y-41274905D01*
X45767627Y-41367365D01*
X45785421Y-41401567D01*
X45851544Y-41466667D01*
X45939044Y-41503186D01*
X46036428Y-41509219D01*
X46132202Y-41482859D01*
X46164945Y-41464503D01*
X46219501Y-41405701D01*
X46257450Y-41318289D01*
X46277193Y-41213239D01*
X46277133Y-41101523D01*
X46255672Y-40994114D01*
X46239546Y-40952161D01*
X46182705Y-40870301D01*
X46106747Y-40820063D01*
X46020416Y-40801198D01*
X45932455Y-40813456D01*
X45851610Y-40856587D01*
X45786623Y-40930342D01*
X45768223Y-40965624D01*
X45742173Y-41058176D01*
X45733808Y-41166556D01*
X45562329Y-41166556D01*
X45577452Y-41012172D01*
X45623112Y-40883056D01*
X45697928Y-40783712D01*
X45800852Y-40715284D01*
X45930834Y-40678916D01*
X46017890Y-40672964D01*
X46158305Y-40688635D01*
G36*
X45083748Y-40360225D02*
G01*
X45138822Y-40366033D01*
X45180721Y-40377362D01*
X45219148Y-40395434D01*
X45231926Y-40402627D01*
X45323403Y-40470154D01*
X45379450Y-40551391D01*
X45406723Y-40656847D01*
X45409393Y-40682753D01*
X45404273Y-40822624D01*
X45364719Y-40938594D01*
X45292104Y-41029349D01*
X45187799Y-41093572D01*
X45053177Y-41129949D01*
X44934424Y-41138166D01*
X44800000Y-41138166D01*
X44800000Y-41379318D01*
X44799082Y-41486571D01*
X44795705Y-41558636D01*
X44788931Y-41602630D01*
X44777819Y-41625672D01*
X44766518Y-41633318D01*
X44700230Y-41644518D01*
X44656799Y-41628516D01*
X44648802Y-41614191D01*
X44642675Y-41580083D01*
X44638293Y-41522415D01*
X44635529Y-41437404D01*
X44634260Y-41321272D01*
X44634361Y-41170236D01*
X44635632Y-40988549D01*
X44640200Y-40482000D01*
X44800000Y-40482000D01*
X44800000Y-41017288D01*
X44938625Y-41004343D01*
X45049171Y-40985678D01*
X45128556Y-40954320D01*
X45138185Y-40948009D01*
X45200377Y-40879854D01*
X45233181Y-40792640D01*
X45235595Y-40698716D01*
X45206617Y-40610430D01*
X45169601Y-40561041D01*
X45108246Y-40516992D01*
X45026540Y-40491583D01*
X44915294Y-40482192D01*
X44892604Y-40482000D01*
X44800000Y-40482000D01*
X44640200Y-40482000D01*
X44641250Y-40365583D01*
X44895250Y-40360293D01*
X45005792Y-40358719D01*
X45083748Y-40360225D01*
G37*
X45083748Y-40360225D02*
X45138822Y-40366033D01*
X45180721Y-40377362D01*
X45219148Y-40395434D01*
X45231926Y-40402627D01*
X45323403Y-40470154D01*
X45379450Y-40551391D01*
X45406723Y-40656847D01*
X45409393Y-40682753D01*
X45404273Y-40822624D01*
X45364719Y-40938594D01*
X45292104Y-41029349D01*
X45187799Y-41093572D01*
X45053177Y-41129949D01*
X44934424Y-41138166D01*
X44800000Y-41138166D01*
X44800000Y-41379318D01*
X44799082Y-41486571D01*
X44795705Y-41558636D01*
X44788931Y-41602630D01*
X44777819Y-41625672D01*
X44766518Y-41633318D01*
X44700230Y-41644518D01*
X44656799Y-41628516D01*
X44648802Y-41614191D01*
X44642675Y-41580083D01*
X44638293Y-41522415D01*
X44635529Y-41437404D01*
X44634260Y-41321272D01*
X44634361Y-41170236D01*
X44635632Y-40988549D01*
X44640200Y-40482000D01*
X44800000Y-40482000D01*
X44800000Y-41017288D01*
X44938625Y-41004343D01*
X45049171Y-40985678D01*
X45128556Y-40954320D01*
X45138185Y-40948009D01*
X45200377Y-40879854D01*
X45233181Y-40792640D01*
X45235595Y-40698716D01*
X45206617Y-40610430D01*
X45169601Y-40561041D01*
X45108246Y-40516992D01*
X45026540Y-40491583D01*
X44915294Y-40482192D01*
X44892604Y-40482000D01*
X44800000Y-40482000D01*
X44640200Y-40482000D01*
X44641250Y-40365583D01*
X44895250Y-40360293D01*
X45005792Y-40358719D01*
X45083748Y-40360225D01*
G36*
X53425302Y-40677474D02*
G01*
X53450880Y-40695347D01*
X53476911Y-40731502D01*
X53506129Y-40791001D01*
X53541265Y-40878905D01*
X53585052Y-41000275D01*
X53604701Y-41056721D01*
X53643547Y-41167402D01*
X53678552Y-41264099D01*
X53707041Y-41339661D01*
X53726341Y-41386932D01*
X53732687Y-41399096D01*
X53746933Y-41388443D01*
X53772296Y-41337406D01*
X53808611Y-41246407D01*
X53855714Y-41115863D01*
X53913441Y-40946195D01*
X53931712Y-40891046D01*
X53961204Y-40809026D01*
X53990031Y-40741408D01*
X54013272Y-40699366D01*
X54019017Y-40692891D01*
X54056243Y-40679783D01*
X54103480Y-40681863D01*
X54142521Y-40696121D01*
X54155666Y-40715481D01*
X54148636Y-40742012D01*
X54129003Y-40802172D01*
X54098953Y-40889922D01*
X54060674Y-40999227D01*
X54016352Y-41124047D01*
X53968173Y-41258347D01*
X53918323Y-41396088D01*
X53868990Y-41531234D01*
X53822360Y-41657746D01*
X53780619Y-41769588D01*
X53745954Y-41860721D01*
X53720552Y-41925109D01*
X53706598Y-41956715D01*
X53705536Y-41958375D01*
X53673708Y-41976403D01*
X53625502Y-41984155D01*
X53577455Y-41981579D01*
X53546100Y-41968620D01*
X53541833Y-41958899D01*
X53549166Y-41927334D01*
X53568440Y-41868926D01*
X53595569Y-41796010D01*
X53597061Y-41792198D01*
X53652289Y-41651431D01*
X53477564Y-41180993D01*
X53420476Y-41026379D01*
X53377725Y-40906824D01*
X53348599Y-40817818D01*
X53332388Y-40754851D01*
X53328381Y-40713412D01*
X53335866Y-40688992D01*
X53354132Y-40677081D01*
X53382470Y-40673169D01*
X53397446Y-40672824D01*
X53425302Y-40677474D01*
G37*
X53425302Y-40677474D02*
X53450880Y-40695347D01*
X53476911Y-40731502D01*
X53506129Y-40791001D01*
X53541265Y-40878905D01*
X53585052Y-41000275D01*
X53604701Y-41056721D01*
X53643547Y-41167402D01*
X53678552Y-41264099D01*
X53707041Y-41339661D01*
X53726341Y-41386932D01*
X53732687Y-41399096D01*
X53746933Y-41388443D01*
X53772296Y-41337406D01*
X53808611Y-41246407D01*
X53855714Y-41115863D01*
X53913441Y-40946195D01*
X53931712Y-40891046D01*
X53961204Y-40809026D01*
X53990031Y-40741408D01*
X54013272Y-40699366D01*
X54019017Y-40692891D01*
X54056243Y-40679783D01*
X54103480Y-40681863D01*
X54142521Y-40696121D01*
X54155666Y-40715481D01*
X54148636Y-40742012D01*
X54129003Y-40802172D01*
X54098953Y-40889922D01*
X54060674Y-40999227D01*
X54016352Y-41124047D01*
X53968173Y-41258347D01*
X53918323Y-41396088D01*
X53868990Y-41531234D01*
X53822360Y-41657746D01*
X53780619Y-41769588D01*
X53745954Y-41860721D01*
X53720552Y-41925109D01*
X53706598Y-41956715D01*
X53705536Y-41958375D01*
X53673708Y-41976403D01*
X53625502Y-41984155D01*
X53577455Y-41981579D01*
X53546100Y-41968620D01*
X53541833Y-41958899D01*
X53549166Y-41927334D01*
X53568440Y-41868926D01*
X53595569Y-41796010D01*
X53597061Y-41792198D01*
X53652289Y-41651431D01*
X53477564Y-41180993D01*
X53420476Y-41026379D01*
X53377725Y-40906824D01*
X53348599Y-40817818D01*
X53332388Y-40754851D01*
X53328381Y-40713412D01*
X53335866Y-40688992D01*
X53354132Y-40677081D01*
X53382470Y-40673169D01*
X53397446Y-40672824D01*
X53425302Y-40677474D01*
G36*
X52010723Y-42271659D02*
G01*
X52067878Y-42311647D01*
X52096536Y-42373857D01*
X52091485Y-42445155D01*
X52085573Y-42460230D01*
X52063484Y-42494451D01*
X52029043Y-42510168D01*
X51967547Y-42513999D01*
X51966115Y-42514000D01*
X51900364Y-42509069D01*
X51862969Y-42491055D01*
X51847939Y-42470619D01*
X51829186Y-42399787D01*
X51844198Y-42335703D01*
X51885580Y-42287410D01*
X51945935Y-42263947D01*
X52010723Y-42271659D01*
G37*
X52010723Y-42271659D02*
X52067878Y-42311647D01*
X52096536Y-42373857D01*
X52091485Y-42445155D01*
X52085573Y-42460230D01*
X52063484Y-42494451D01*
X52029043Y-42510168D01*
X51967547Y-42513999D01*
X51966115Y-42514000D01*
X51900364Y-42509069D01*
X51862969Y-42491055D01*
X51847939Y-42470619D01*
X51829186Y-42399787D01*
X51844198Y-42335703D01*
X51885580Y-42287410D01*
X51945935Y-42263947D01*
X52010723Y-42271659D01*
G36*
X59242669Y-42736556D02*
G01*
X59267416Y-42742470D01*
X59306742Y-42757804D01*
X59326738Y-42783863D01*
X59335501Y-42834154D01*
X59337359Y-42859172D01*
X59343802Y-42958091D01*
X59220943Y-42946892D01*
X59147755Y-42943473D01*
X59092966Y-42952863D01*
X59046054Y-42981044D01*
X58996503Y-43034001D01*
X58942981Y-43104989D01*
X58875833Y-43197684D01*
X58875833Y-43995666D01*
X58779919Y-43995666D01*
X58714468Y-43989932D01*
X58677506Y-43974492D01*
X58673742Y-43968922D01*
X58671266Y-43941490D01*
X58669404Y-43877411D01*
X58668198Y-43782368D01*
X58667691Y-43662046D01*
X58667925Y-43522126D01*
X58668943Y-43368292D01*
X58669114Y-43349797D01*
X58674750Y-42757416D01*
X58844083Y-42757416D01*
X58850674Y-42849056D01*
X58857265Y-42940695D01*
X58959382Y-42845177D01*
X59056204Y-42770744D01*
X59148572Y-42735224D01*
X59242669Y-42736556D01*
G37*
X59242669Y-42736556D02*
X59267416Y-42742470D01*
X59306742Y-42757804D01*
X59326738Y-42783863D01*
X59335501Y-42834154D01*
X59337359Y-42859172D01*
X59343802Y-42958091D01*
X59220943Y-42946892D01*
X59147755Y-42943473D01*
X59092966Y-42952863D01*
X59046054Y-42981044D01*
X58996503Y-43034001D01*
X58942981Y-43104989D01*
X58875833Y-43197684D01*
X58875833Y-43995666D01*
X58779919Y-43995666D01*
X58714468Y-43989932D01*
X58677506Y-43974492D01*
X58673742Y-43968922D01*
X58671266Y-43941490D01*
X58669404Y-43877411D01*
X58668198Y-43782368D01*
X58667691Y-43662046D01*
X58667925Y-43522126D01*
X58668943Y-43368292D01*
X58669114Y-43349797D01*
X58674750Y-42757416D01*
X58844083Y-42757416D01*
X58850674Y-42849056D01*
X58857265Y-42940695D01*
X58959382Y-42845177D01*
X59056204Y-42770744D01*
X59148572Y-42735224D01*
X59242669Y-42736556D01*
G36*
X57116676Y-42748176D02*
G01*
X57129715Y-42757825D01*
X57135736Y-42778357D01*
X57134138Y-42813130D01*
X57124321Y-42865500D01*
X57105684Y-42938824D01*
X57077626Y-43036459D01*
X57039547Y-43161761D01*
X56990847Y-43318086D01*
X56930924Y-43508792D01*
X56872722Y-43694041D01*
X56778103Y-43995666D01*
X56652962Y-43995666D01*
X56577113Y-43992705D01*
X56533077Y-43982065D01*
X56510634Y-43961111D01*
X56509322Y-43958625D01*
X56497986Y-43927360D01*
X56477402Y-43862284D01*
X56449671Y-43770367D01*
X56416891Y-43658582D01*
X56381165Y-43533901D01*
X56378294Y-43523758D01*
X56343075Y-43402670D01*
X56310808Y-43298140D01*
X56283456Y-43216018D01*
X56262982Y-43162157D01*
X56251349Y-43142407D01*
X56250479Y-43142758D01*
X56240485Y-43167706D01*
X56221931Y-43226912D01*
X56196774Y-43313628D01*
X56166974Y-43421106D01*
X56135019Y-43540583D01*
X56102150Y-43663643D01*
X56071644Y-43774247D01*
X56045568Y-43865177D01*
X56025989Y-43929215D01*
X56015261Y-43958625D01*
X55991132Y-43981932D01*
X55943832Y-43993270D01*
X55882597Y-43995666D01*
X55811170Y-43990821D01*
X55761560Y-43978052D01*
X55748871Y-43969208D01*
X55735385Y-43939782D01*
X55712661Y-43876828D01*
X55682590Y-43786656D01*
X55647059Y-43675574D01*
X55607957Y-43549893D01*
X55567173Y-43415922D01*
X55526596Y-43279969D01*
X55488113Y-43148346D01*
X55453615Y-43027360D01*
X55424988Y-42923322D01*
X55404123Y-42842540D01*
X55392906Y-42791325D01*
X55391824Y-42776401D01*
X55418905Y-42756929D01*
X55469766Y-42747710D01*
X55527045Y-42749017D01*
X55573382Y-42761125D01*
X55588459Y-42773291D01*
X55599121Y-42800414D01*
X55619732Y-42862135D01*
X55648392Y-42952410D01*
X55683200Y-43065197D01*
X55722256Y-43194451D01*
X55746526Y-43276000D01*
X55786498Y-43408130D01*
X55823088Y-43523533D01*
X55854525Y-43617065D01*
X55879038Y-43683585D01*
X55894854Y-43717950D01*
X55899677Y-43720500D01*
X55908568Y-43691368D01*
X55926559Y-43627772D01*
X55951873Y-43536158D01*
X55982735Y-43422976D01*
X56017367Y-43294672D01*
X56030891Y-43244250D01*
X56066864Y-43112278D01*
X56100474Y-42993423D01*
X56129824Y-42894050D01*
X56153016Y-42820521D01*
X56168151Y-42779198D01*
X56171374Y-42773291D01*
X56206137Y-42754795D01*
X56260255Y-42746839D01*
X56261750Y-42746833D01*
X56316207Y-42754426D01*
X56352026Y-42772746D01*
X56352490Y-42773291D01*
X56364465Y-42800590D01*
X56385946Y-42862452D01*
X56414968Y-42952691D01*
X56449565Y-43065120D01*
X56487774Y-43193553D01*
X56507124Y-43260125D01*
X56545745Y-43392164D01*
X56581066Y-43509413D01*
X56611273Y-43606135D01*
X56634553Y-43676594D01*
X56649094Y-43715052D01*
X56652614Y-43720500D01*
X56661777Y-43701063D01*
X56680675Y-43646495D01*
X56707542Y-43562403D01*
X56740616Y-43454397D01*
X56778132Y-43328088D01*
X56804027Y-43238958D01*
X56942742Y-42757416D01*
X57041454Y-42750965D01*
X57071945Y-42748103D01*
X57097219Y-42746054D01*
X57116676Y-42748176D01*
G37*
X57116676Y-42748176D02*
X57129715Y-42757825D01*
X57135736Y-42778357D01*
X57134138Y-42813130D01*
X57124321Y-42865500D01*
X57105684Y-42938824D01*
X57077626Y-43036459D01*
X57039547Y-43161761D01*
X56990847Y-43318086D01*
X56930924Y-43508792D01*
X56872722Y-43694041D01*
X56778103Y-43995666D01*
X56652962Y-43995666D01*
X56577113Y-43992705D01*
X56533077Y-43982065D01*
X56510634Y-43961111D01*
X56509322Y-43958625D01*
X56497986Y-43927360D01*
X56477402Y-43862284D01*
X56449671Y-43770367D01*
X56416891Y-43658582D01*
X56381165Y-43533901D01*
X56378294Y-43523758D01*
X56343075Y-43402670D01*
X56310808Y-43298140D01*
X56283456Y-43216018D01*
X56262982Y-43162157D01*
X56251349Y-43142407D01*
X56250479Y-43142758D01*
X56240485Y-43167706D01*
X56221931Y-43226912D01*
X56196774Y-43313628D01*
X56166974Y-43421106D01*
X56135019Y-43540583D01*
X56102150Y-43663643D01*
X56071644Y-43774247D01*
X56045568Y-43865177D01*
X56025989Y-43929215D01*
X56015261Y-43958625D01*
X55991132Y-43981932D01*
X55943832Y-43993270D01*
X55882597Y-43995666D01*
X55811170Y-43990821D01*
X55761560Y-43978052D01*
X55748871Y-43969208D01*
X55735385Y-43939782D01*
X55712661Y-43876828D01*
X55682590Y-43786656D01*
X55647059Y-43675574D01*
X55607957Y-43549893D01*
X55567173Y-43415922D01*
X55526596Y-43279969D01*
X55488113Y-43148346D01*
X55453615Y-43027360D01*
X55424988Y-42923322D01*
X55404123Y-42842540D01*
X55392906Y-42791325D01*
X55391824Y-42776401D01*
X55418905Y-42756929D01*
X55469766Y-42747710D01*
X55527045Y-42749017D01*
X55573382Y-42761125D01*
X55588459Y-42773291D01*
X55599121Y-42800414D01*
X55619732Y-42862135D01*
X55648392Y-42952410D01*
X55683200Y-43065197D01*
X55722256Y-43194451D01*
X55746526Y-43276000D01*
X55786498Y-43408130D01*
X55823088Y-43523533D01*
X55854525Y-43617065D01*
X55879038Y-43683585D01*
X55894854Y-43717950D01*
X55899677Y-43720500D01*
X55908568Y-43691368D01*
X55926559Y-43627772D01*
X55951873Y-43536158D01*
X55982735Y-43422976D01*
X56017367Y-43294672D01*
X56030891Y-43244250D01*
X56066864Y-43112278D01*
X56100474Y-42993423D01*
X56129824Y-42894050D01*
X56153016Y-42820521D01*
X56168151Y-42779198D01*
X56171374Y-42773291D01*
X56206137Y-42754795D01*
X56260255Y-42746839D01*
X56261750Y-42746833D01*
X56316207Y-42754426D01*
X56352026Y-42772746D01*
X56352490Y-42773291D01*
X56364465Y-42800590D01*
X56385946Y-42862452D01*
X56414968Y-42952691D01*
X56449565Y-43065120D01*
X56487774Y-43193553D01*
X56507124Y-43260125D01*
X56545745Y-43392164D01*
X56581066Y-43509413D01*
X56611273Y-43606135D01*
X56634553Y-43676594D01*
X56649094Y-43715052D01*
X56652614Y-43720500D01*
X56661777Y-43701063D01*
X56680675Y-43646495D01*
X56707542Y-43562403D01*
X56740616Y-43454397D01*
X56778132Y-43328088D01*
X56804027Y-43238958D01*
X56942742Y-42757416D01*
X57041454Y-42750965D01*
X57071945Y-42748103D01*
X57097219Y-42746054D01*
X57116676Y-42748176D01*
G36*
X54085143Y-42745696D02*
G01*
X54186618Y-42787158D01*
X54267804Y-42850948D01*
X54298946Y-42893316D01*
X54333917Y-42954248D01*
X54426459Y-42872789D01*
X54544347Y-42790348D01*
X54665670Y-42743975D01*
X54784790Y-42733295D01*
X54896066Y-42757927D01*
X54993856Y-42817496D01*
X55072523Y-42911623D01*
X55075272Y-42916238D01*
X55089134Y-42942674D01*
X55099849Y-42972718D01*
X55107920Y-43012162D01*
X55113849Y-43066800D01*
X55118140Y-43142422D01*
X55121293Y-43244821D01*
X55123814Y-43379788D01*
X55125436Y-43494175D01*
X55132123Y-43998100D01*
X55030186Y-43991591D01*
X54928250Y-43985083D01*
X54917666Y-43530000D01*
X54912268Y-43348647D01*
X54905427Y-43208437D01*
X54897055Y-43108196D01*
X54887065Y-43046757D01*
X54880461Y-43028377D01*
X54818876Y-42956501D01*
X54740984Y-42921677D01*
X54652428Y-42924756D01*
X54558852Y-42966592D01*
X54543170Y-42977388D01*
X54486254Y-43019359D01*
X54443172Y-43056236D01*
X54411999Y-43094579D01*
X54390807Y-43140950D01*
X54377671Y-43201911D01*
X54370664Y-43284022D01*
X54367861Y-43393845D01*
X54367334Y-43537941D01*
X54367333Y-43576347D01*
X54367333Y-43997986D01*
X54266791Y-43991534D01*
X54166250Y-43985083D01*
X54155666Y-43530000D01*
X54150268Y-43348647D01*
X54143427Y-43208437D01*
X54135055Y-43108196D01*
X54125065Y-43046757D01*
X54118461Y-43028377D01*
X54056876Y-42956501D01*
X53978984Y-42921677D01*
X53890428Y-42924756D01*
X53796852Y-42966592D01*
X53781170Y-42977388D01*
X53724191Y-43019412D01*
X53681079Y-43056338D01*
X53649900Y-43094739D01*
X53628722Y-43141189D01*
X53615609Y-43202261D01*
X53608630Y-43284528D01*
X53605849Y-43394566D01*
X53605334Y-43538946D01*
X53605333Y-43575187D01*
X53605333Y-43995666D01*
X53509419Y-43995666D01*
X53443968Y-43989932D01*
X53407006Y-43974492D01*
X53403242Y-43968922D01*
X53400766Y-43941490D01*
X53398904Y-43877411D01*
X53397698Y-43782368D01*
X53397191Y-43662046D01*
X53397425Y-43522126D01*
X53398443Y-43368292D01*
X53398614Y-43349797D01*
X53404250Y-42757416D01*
X53488916Y-42757416D01*
X53543365Y-42759850D01*
X53568683Y-42774800D01*
X53578060Y-42813743D01*
X53580152Y-42836791D01*
X53586525Y-42887823D01*
X53594092Y-42914865D01*
X53595844Y-42916166D01*
X53616264Y-42904382D01*
X53659427Y-42873964D01*
X53699467Y-42844032D01*
X53768489Y-42797528D01*
X53838944Y-42759496D01*
X53870571Y-42746617D01*
X53975691Y-42730777D01*
X54085143Y-42745696D01*
G37*
X54085143Y-42745696D02*
X54186618Y-42787158D01*
X54267804Y-42850948D01*
X54298946Y-42893316D01*
X54333917Y-42954248D01*
X54426459Y-42872789D01*
X54544347Y-42790348D01*
X54665670Y-42743975D01*
X54784790Y-42733295D01*
X54896066Y-42757927D01*
X54993856Y-42817496D01*
X55072523Y-42911623D01*
X55075272Y-42916238D01*
X55089134Y-42942674D01*
X55099849Y-42972718D01*
X55107920Y-43012162D01*
X55113849Y-43066800D01*
X55118140Y-43142422D01*
X55121293Y-43244821D01*
X55123814Y-43379788D01*
X55125436Y-43494175D01*
X55132123Y-43998100D01*
X55030186Y-43991591D01*
X54928250Y-43985083D01*
X54917666Y-43530000D01*
X54912268Y-43348647D01*
X54905427Y-43208437D01*
X54897055Y-43108196D01*
X54887065Y-43046757D01*
X54880461Y-43028377D01*
X54818876Y-42956501D01*
X54740984Y-42921677D01*
X54652428Y-42924756D01*
X54558852Y-42966592D01*
X54543170Y-42977388D01*
X54486254Y-43019359D01*
X54443172Y-43056236D01*
X54411999Y-43094579D01*
X54390807Y-43140950D01*
X54377671Y-43201911D01*
X54370664Y-43284022D01*
X54367861Y-43393845D01*
X54367334Y-43537941D01*
X54367333Y-43576347D01*
X54367333Y-43997986D01*
X54266791Y-43991534D01*
X54166250Y-43985083D01*
X54155666Y-43530000D01*
X54150268Y-43348647D01*
X54143427Y-43208437D01*
X54135055Y-43108196D01*
X54125065Y-43046757D01*
X54118461Y-43028377D01*
X54056876Y-42956501D01*
X53978984Y-42921677D01*
X53890428Y-42924756D01*
X53796852Y-42966592D01*
X53781170Y-42977388D01*
X53724191Y-43019412D01*
X53681079Y-43056338D01*
X53649900Y-43094739D01*
X53628722Y-43141189D01*
X53615609Y-43202261D01*
X53608630Y-43284528D01*
X53605849Y-43394566D01*
X53605334Y-43538946D01*
X53605333Y-43575187D01*
X53605333Y-43995666D01*
X53509419Y-43995666D01*
X53443968Y-43989932D01*
X53407006Y-43974492D01*
X53403242Y-43968922D01*
X53400766Y-43941490D01*
X53398904Y-43877411D01*
X53397698Y-43782368D01*
X53397191Y-43662046D01*
X53397425Y-43522126D01*
X53398443Y-43368292D01*
X53398614Y-43349797D01*
X53404250Y-42757416D01*
X53488916Y-42757416D01*
X53543365Y-42759850D01*
X53568683Y-42774800D01*
X53578060Y-42813743D01*
X53580152Y-42836791D01*
X53586525Y-42887823D01*
X53594092Y-42914865D01*
X53595844Y-42916166D01*
X53616264Y-42904382D01*
X53659427Y-42873964D01*
X53699467Y-42844032D01*
X53768489Y-42797528D01*
X53838944Y-42759496D01*
X53870571Y-42746617D01*
X53975691Y-42730777D01*
X54085143Y-42745696D01*
G36*
X53039198Y-42737028D02*
G01*
X53112678Y-42760848D01*
X53150944Y-42796300D01*
X53160833Y-42842943D01*
X53155218Y-42908527D01*
X53132553Y-42942015D01*
X53084106Y-42950522D01*
X53034380Y-42945991D01*
X52959207Y-42941549D01*
X52899549Y-42954957D01*
X52844459Y-42991857D01*
X52782991Y-43057895D01*
X52758499Y-43088234D01*
X52674000Y-43195134D01*
X52674000Y-43995666D01*
X52578085Y-43995666D01*
X52512635Y-43989932D01*
X52475673Y-43974492D01*
X52471908Y-43968922D01*
X52469432Y-43941490D01*
X52467570Y-43877411D01*
X52466365Y-43782368D01*
X52465858Y-43662046D01*
X52466092Y-43522126D01*
X52467110Y-43368292D01*
X52467281Y-43349797D01*
X52472916Y-42757416D01*
X52557583Y-42757416D01*
X52610532Y-42759517D01*
X52636645Y-42773599D01*
X52648102Y-42811328D01*
X52652833Y-42848654D01*
X52663416Y-42939891D01*
X52746764Y-42854275D01*
X52846035Y-42773832D01*
X52946224Y-42735242D01*
X53039198Y-42737028D01*
G37*
X53039198Y-42737028D02*
X53112678Y-42760848D01*
X53150944Y-42796300D01*
X53160833Y-42842943D01*
X53155218Y-42908527D01*
X53132553Y-42942015D01*
X53084106Y-42950522D01*
X53034380Y-42945991D01*
X52959207Y-42941549D01*
X52899549Y-42954957D01*
X52844459Y-42991857D01*
X52782991Y-43057895D01*
X52758499Y-43088234D01*
X52674000Y-43195134D01*
X52674000Y-43995666D01*
X52578085Y-43995666D01*
X52512635Y-43989932D01*
X52475673Y-43974492D01*
X52471908Y-43968922D01*
X52469432Y-43941490D01*
X52467570Y-43877411D01*
X52466365Y-43782368D01*
X52465858Y-43662046D01*
X52466092Y-43522126D01*
X52467110Y-43368292D01*
X52467281Y-43349797D01*
X52472916Y-42757416D01*
X52557583Y-42757416D01*
X52610532Y-42759517D01*
X52636645Y-42773599D01*
X52648102Y-42811328D01*
X52652833Y-42848654D01*
X52663416Y-42939891D01*
X52746764Y-42854275D01*
X52846035Y-42773832D01*
X52946224Y-42735242D01*
X53039198Y-42737028D01*
G36*
X52019724Y-42754578D02*
G01*
X52055933Y-42772233D01*
X52064279Y-42794050D01*
X52070804Y-42842948D01*
X52075640Y-42921997D01*
X52078918Y-43034265D01*
X52080772Y-43182823D01*
X52081333Y-43363168D01*
X52080867Y-43515088D01*
X52079553Y-43654091D01*
X52077519Y-43774255D01*
X52074892Y-43869655D01*
X52071798Y-43934369D01*
X52068485Y-43962185D01*
X52040492Y-43986509D01*
X51978111Y-43995530D01*
X51966179Y-43995666D01*
X51907510Y-43992590D01*
X51868487Y-43984890D01*
X51862611Y-43981555D01*
X51858924Y-43957494D01*
X51855597Y-43896666D01*
X51852760Y-43804635D01*
X51850545Y-43686969D01*
X51849083Y-43549231D01*
X51848504Y-43396988D01*
X51848500Y-43382538D01*
X51849076Y-43193008D01*
X51850892Y-43042739D01*
X51854072Y-42928676D01*
X51858746Y-42847763D01*
X51865040Y-42796942D01*
X51873081Y-42773157D01*
X51873900Y-42772233D01*
X51912125Y-42754015D01*
X51964916Y-42746833D01*
X52019724Y-42754578D01*
G37*
X52019724Y-42754578D02*
X52055933Y-42772233D01*
X52064279Y-42794050D01*
X52070804Y-42842948D01*
X52075640Y-42921997D01*
X52078918Y-43034265D01*
X52080772Y-43182823D01*
X52081333Y-43363168D01*
X52080867Y-43515088D01*
X52079553Y-43654091D01*
X52077519Y-43774255D01*
X52074892Y-43869655D01*
X52071798Y-43934369D01*
X52068485Y-43962185D01*
X52040492Y-43986509D01*
X51978111Y-43995530D01*
X51966179Y-43995666D01*
X51907510Y-43992590D01*
X51868487Y-43984890D01*
X51862611Y-43981555D01*
X51858924Y-43957494D01*
X51855597Y-43896666D01*
X51852760Y-43804635D01*
X51850545Y-43686969D01*
X51849083Y-43549231D01*
X51848504Y-43396988D01*
X51848500Y-43382538D01*
X51849076Y-43193008D01*
X51850892Y-43042739D01*
X51854072Y-42928676D01*
X51858746Y-42847763D01*
X51865040Y-42796942D01*
X51873081Y-42773157D01*
X51873900Y-42772233D01*
X51912125Y-42754015D01*
X51964916Y-42746833D01*
X52019724Y-42754578D01*
G36*
X51133629Y-42307145D02*
G01*
X51520416Y-42312916D01*
X51526925Y-42402875D01*
X51533434Y-42492833D01*
X50874833Y-42492833D01*
X50874833Y-43064333D01*
X51168574Y-43064333D01*
X51298003Y-43065392D01*
X51390768Y-43069911D01*
X51452511Y-43079905D01*
X51488876Y-43097387D01*
X51505509Y-43124370D01*
X51508051Y-43162870D01*
X51506071Y-43184761D01*
X51499250Y-43244250D01*
X51187041Y-43250107D01*
X50874833Y-43255965D01*
X50874833Y-43995666D01*
X50663166Y-43995666D01*
X50663166Y-43170911D01*
X50663234Y-42962347D01*
X50663569Y-42792096D01*
X50664371Y-42656136D01*
X50665837Y-42550446D01*
X50668167Y-42471006D01*
X50671559Y-42413795D01*
X50676212Y-42374791D01*
X50682324Y-42349974D01*
X50690093Y-42335323D01*
X50699719Y-42326817D01*
X50705004Y-42323765D01*
X50743623Y-42315347D01*
X50820839Y-42309562D01*
X50932990Y-42306552D01*
X51076414Y-42306458D01*
X51133629Y-42307145D01*
G37*
X51133629Y-42307145D02*
X51520416Y-42312916D01*
X51526925Y-42402875D01*
X51533434Y-42492833D01*
X50874833Y-42492833D01*
X50874833Y-43064333D01*
X51168574Y-43064333D01*
X51298003Y-43065392D01*
X51390768Y-43069911D01*
X51452511Y-43079905D01*
X51488876Y-43097387D01*
X51505509Y-43124370D01*
X51508051Y-43162870D01*
X51506071Y-43184761D01*
X51499250Y-43244250D01*
X51187041Y-43250107D01*
X50874833Y-43255965D01*
X50874833Y-43995666D01*
X50663166Y-43995666D01*
X50663166Y-43170911D01*
X50663234Y-42962347D01*
X50663569Y-42792096D01*
X50664371Y-42656136D01*
X50665837Y-42550446D01*
X50668167Y-42471006D01*
X50671559Y-42413795D01*
X50676212Y-42374791D01*
X50682324Y-42349974D01*
X50690093Y-42335323D01*
X50699719Y-42326817D01*
X50705004Y-42323765D01*
X50743623Y-42315347D01*
X50820839Y-42309562D01*
X50932990Y-42306552D01*
X51076414Y-42306458D01*
X51133629Y-42307145D01*
G36*
X49621748Y-42306515D02*
G01*
X49691698Y-42316903D01*
X49724100Y-42337393D01*
X49726990Y-42345219D01*
X49715674Y-42370244D01*
X49680574Y-42422180D01*
X49625572Y-42495892D01*
X49554548Y-42586246D01*
X49471380Y-42688106D01*
X49434973Y-42731646D01*
X49329164Y-42859371D01*
X49246785Y-42963212D01*
X49189217Y-43041307D01*
X49157845Y-43091795D01*
X49152841Y-43111668D01*
X49169811Y-43135431D01*
X49208531Y-43187724D01*
X49265126Y-43263378D01*
X49335725Y-43357225D01*
X49416453Y-43464095D01*
X49459104Y-43520400D01*
X49543167Y-43632623D01*
X49618308Y-43735504D01*
X49680749Y-43823660D01*
X49726712Y-43891709D01*
X49752418Y-43934265D01*
X49756472Y-43944158D01*
X49754912Y-43969349D01*
X49732542Y-43983140D01*
X49679762Y-43990322D01*
X49661397Y-43991601D01*
X49595482Y-43991020D01*
X49545271Y-43982096D01*
X49531867Y-43975427D01*
X49512002Y-43952450D01*
X49471127Y-43900318D01*
X49413107Y-43824132D01*
X49341804Y-43728994D01*
X49261083Y-43620005D01*
X49210720Y-43551427D01*
X49127181Y-43438183D01*
X49051531Y-43337269D01*
X48987434Y-43253441D01*
X48938553Y-43191454D01*
X48908552Y-43156061D01*
X48901041Y-43149560D01*
X48896217Y-43169494D01*
X48891983Y-43225434D01*
X48888576Y-43311057D01*
X48886235Y-43420036D01*
X48885197Y-43546046D01*
X48885166Y-43572333D01*
X48885166Y-43995666D01*
X48673014Y-43995666D01*
X48678548Y-43154291D01*
X48684083Y-42312916D01*
X48874583Y-42312916D01*
X48880363Y-42688625D01*
X48883041Y-42809338D01*
X48886929Y-42913824D01*
X48891648Y-42995382D01*
X48896818Y-43047315D01*
X48901530Y-43063189D01*
X48918534Y-43046991D01*
X48957817Y-43002192D01*
X49015487Y-42933465D01*
X49087651Y-42845484D01*
X49170417Y-42742922D01*
X49219772Y-42681079D01*
X49522628Y-42300114D01*
X49621748Y-42306515D01*
G37*
X49621748Y-42306515D02*
X49691698Y-42316903D01*
X49724100Y-42337393D01*
X49726990Y-42345219D01*
X49715674Y-42370244D01*
X49680574Y-42422180D01*
X49625572Y-42495892D01*
X49554548Y-42586246D01*
X49471380Y-42688106D01*
X49434973Y-42731646D01*
X49329164Y-42859371D01*
X49246785Y-42963212D01*
X49189217Y-43041307D01*
X49157845Y-43091795D01*
X49152841Y-43111668D01*
X49169811Y-43135431D01*
X49208531Y-43187724D01*
X49265126Y-43263378D01*
X49335725Y-43357225D01*
X49416453Y-43464095D01*
X49459104Y-43520400D01*
X49543167Y-43632623D01*
X49618308Y-43735504D01*
X49680749Y-43823660D01*
X49726712Y-43891709D01*
X49752418Y-43934265D01*
X49756472Y-43944158D01*
X49754912Y-43969349D01*
X49732542Y-43983140D01*
X49679762Y-43990322D01*
X49661397Y-43991601D01*
X49595482Y-43991020D01*
X49545271Y-43982096D01*
X49531867Y-43975427D01*
X49512002Y-43952450D01*
X49471127Y-43900318D01*
X49413107Y-43824132D01*
X49341804Y-43728994D01*
X49261083Y-43620005D01*
X49210720Y-43551427D01*
X49127181Y-43438183D01*
X49051531Y-43337269D01*
X48987434Y-43253441D01*
X48938553Y-43191454D01*
X48908552Y-43156061D01*
X48901041Y-43149560D01*
X48896217Y-43169494D01*
X48891983Y-43225434D01*
X48888576Y-43311057D01*
X48886235Y-43420036D01*
X48885197Y-43546046D01*
X48885166Y-43572333D01*
X48885166Y-43995666D01*
X48673014Y-43995666D01*
X48678548Y-43154291D01*
X48684083Y-42312916D01*
X48874583Y-42312916D01*
X48880363Y-42688625D01*
X48883041Y-42809338D01*
X48886929Y-42913824D01*
X48891648Y-42995382D01*
X48896818Y-43047315D01*
X48901530Y-43063189D01*
X48918534Y-43046991D01*
X48957817Y-43002192D01*
X49015487Y-42933465D01*
X49087651Y-42845484D01*
X49170417Y-42742922D01*
X49219772Y-42681079D01*
X49522628Y-42300114D01*
X49621748Y-42306515D01*
G36*
X46624960Y-42307981D02*
G01*
X46703216Y-42326930D01*
X46764740Y-42356696D01*
X46795136Y-42391508D01*
X46864498Y-42569213D01*
X46934300Y-42747045D01*
X47002766Y-42920559D01*
X47068117Y-43085310D01*
X47128574Y-43236854D01*
X47182359Y-43370746D01*
X47227694Y-43482541D01*
X47262800Y-43567794D01*
X47285900Y-43622062D01*
X47294958Y-43640741D01*
X47306204Y-43625762D01*
X47331214Y-43576029D01*
X47367976Y-43496072D01*
X47414481Y-43390421D01*
X47468718Y-43263607D01*
X47528676Y-43120160D01*
X47562678Y-43037491D01*
X47647505Y-42832911D01*
X47720342Y-42663174D01*
X47780675Y-42529404D01*
X47827989Y-42432723D01*
X47861770Y-42374255D01*
X47872584Y-42360541D01*
X47918288Y-42322853D01*
X47969957Y-42305815D01*
X48032826Y-42302333D01*
X48078633Y-42301813D01*
X48116233Y-42302781D01*
X48146432Y-42309027D01*
X48170038Y-42324344D01*
X48187859Y-42352522D01*
X48200701Y-42397353D01*
X48209372Y-42462628D01*
X48214681Y-42552138D01*
X48217433Y-42669675D01*
X48218437Y-42819029D01*
X48218501Y-43003993D01*
X48218416Y-43173740D01*
X48218416Y-43985083D01*
X48006750Y-43985083D01*
X47996166Y-43248052D01*
X47985583Y-42511022D01*
X47688620Y-43248052D01*
X47391657Y-43985083D01*
X47186493Y-43985083D01*
X46908705Y-43261322D01*
X46630916Y-42537562D01*
X46620333Y-43261322D01*
X46609750Y-43985083D01*
X46513711Y-43991350D01*
X46452816Y-43992062D01*
X46410869Y-43986565D01*
X46402586Y-43982531D01*
X46399196Y-43958659D01*
X46396072Y-43897182D01*
X46393302Y-43802828D01*
X46390972Y-43680326D01*
X46389171Y-43534404D01*
X46387986Y-43369791D01*
X46387506Y-43191213D01*
X46387500Y-43168150D01*
X46387676Y-42960168D01*
X46388313Y-42790492D01*
X46389571Y-42655100D01*
X46391611Y-42549965D01*
X46394594Y-42471064D01*
X46398680Y-42414371D01*
X46404030Y-42375862D01*
X46410806Y-42351512D01*
X46419167Y-42337296D01*
X46420761Y-42335595D01*
X46470636Y-42310357D01*
X46543068Y-42301805D01*
X46624960Y-42307981D01*
G37*
X46624960Y-42307981D02*
X46703216Y-42326930D01*
X46764740Y-42356696D01*
X46795136Y-42391508D01*
X46864498Y-42569213D01*
X46934300Y-42747045D01*
X47002766Y-42920559D01*
X47068117Y-43085310D01*
X47128574Y-43236854D01*
X47182359Y-43370746D01*
X47227694Y-43482541D01*
X47262800Y-43567794D01*
X47285900Y-43622062D01*
X47294958Y-43640741D01*
X47306204Y-43625762D01*
X47331214Y-43576029D01*
X47367976Y-43496072D01*
X47414481Y-43390421D01*
X47468718Y-43263607D01*
X47528676Y-43120160D01*
X47562678Y-43037491D01*
X47647505Y-42832911D01*
X47720342Y-42663174D01*
X47780675Y-42529404D01*
X47827989Y-42432723D01*
X47861770Y-42374255D01*
X47872584Y-42360541D01*
X47918288Y-42322853D01*
X47969957Y-42305815D01*
X48032826Y-42302333D01*
X48078633Y-42301813D01*
X48116233Y-42302781D01*
X48146432Y-42309027D01*
X48170038Y-42324344D01*
X48187859Y-42352522D01*
X48200701Y-42397353D01*
X48209372Y-42462628D01*
X48214681Y-42552138D01*
X48217433Y-42669675D01*
X48218437Y-42819029D01*
X48218501Y-43003993D01*
X48218416Y-43173740D01*
X48218416Y-43985083D01*
X48006750Y-43985083D01*
X47996166Y-43248052D01*
X47985583Y-42511022D01*
X47688620Y-43248052D01*
X47391657Y-43985083D01*
X47186493Y-43985083D01*
X46908705Y-43261322D01*
X46630916Y-42537562D01*
X46620333Y-43261322D01*
X46609750Y-43985083D01*
X46513711Y-43991350D01*
X46452816Y-43992062D01*
X46410869Y-43986565D01*
X46402586Y-43982531D01*
X46399196Y-43958659D01*
X46396072Y-43897182D01*
X46393302Y-43802828D01*
X46390972Y-43680326D01*
X46389171Y-43534404D01*
X46387986Y-43369791D01*
X46387506Y-43191213D01*
X46387500Y-43168150D01*
X46387676Y-42960168D01*
X46388313Y-42790492D01*
X46389571Y-42655100D01*
X46391611Y-42549965D01*
X46394594Y-42471064D01*
X46398680Y-42414371D01*
X46404030Y-42375862D01*
X46410806Y-42351512D01*
X46419167Y-42337296D01*
X46420761Y-42335595D01*
X46470636Y-42310357D01*
X46543068Y-42301805D01*
X46624960Y-42307981D01*
G36*
X60210219Y-42753696D02*
G01*
X60213519Y-42754646D01*
X60322862Y-42805061D01*
X60419430Y-42884098D01*
X60492553Y-42981272D01*
X60526162Y-43061842D01*
X60543503Y-43148104D01*
X60551805Y-43236927D01*
X60551098Y-43317004D01*
X60541407Y-43377029D01*
X60525326Y-43404379D01*
X60495387Y-43410424D01*
X60430317Y-43415719D01*
X60337315Y-43419937D01*
X60223579Y-43422754D01*
X60096310Y-43423842D01*
X60095804Y-43423842D01*
X59696526Y-43424166D01*
X59711371Y-43524708D01*
X59747070Y-43649696D01*
X59811580Y-43744626D01*
X59902888Y-43808455D01*
X60018979Y-43840141D01*
X60157838Y-43838641D01*
X60273521Y-43815699D01*
X60374027Y-43788799D01*
X60440448Y-43772617D01*
X60479805Y-43767757D01*
X60499120Y-43774822D01*
X60505414Y-43794415D01*
X60505709Y-43827139D01*
X60505666Y-43835639D01*
X60502401Y-43883022D01*
X60485903Y-43913374D01*
X60446115Y-43938941D01*
X60405394Y-43957735D01*
X60331595Y-43980472D01*
X60232494Y-43997973D01*
X60121961Y-44009184D01*
X60013870Y-44013051D01*
X59922091Y-44008518D01*
X59870529Y-43998400D01*
X59729659Y-43932025D01*
X59617742Y-43834905D01*
X59540895Y-43720500D01*
X59515872Y-43645503D01*
X59499332Y-43541815D01*
X59491726Y-43422306D01*
X59493501Y-43299850D01*
X59498143Y-43254833D01*
X59697969Y-43254833D01*
X60336333Y-43254833D01*
X60336333Y-43190490D01*
X60321525Y-43109301D01*
X60283224Y-43027206D01*
X60230618Y-42960995D01*
X60197463Y-42936645D01*
X60141381Y-42918113D01*
X60066344Y-42907002D01*
X60031503Y-42905583D01*
X59916314Y-42923593D01*
X59824006Y-42976895D01*
X59755823Y-43064393D01*
X59713010Y-43184993D01*
X59712784Y-43186041D01*
X59697969Y-43254833D01*
X59498143Y-43254833D01*
X59505107Y-43187318D01*
X59519917Y-43119275D01*
X59579515Y-42984423D01*
X59669174Y-42874997D01*
X59782985Y-42794104D01*
X59915036Y-42744852D01*
X60059418Y-42730346D01*
X60210219Y-42753696D01*
G37*
X60210219Y-42753696D02*
X60213519Y-42754646D01*
X60322862Y-42805061D01*
X60419430Y-42884098D01*
X60492553Y-42981272D01*
X60526162Y-43061842D01*
X60543503Y-43148104D01*
X60551805Y-43236927D01*
X60551098Y-43317004D01*
X60541407Y-43377029D01*
X60525326Y-43404379D01*
X60495387Y-43410424D01*
X60430317Y-43415719D01*
X60337315Y-43419937D01*
X60223579Y-43422754D01*
X60096310Y-43423842D01*
X60095804Y-43423842D01*
X59696526Y-43424166D01*
X59711371Y-43524708D01*
X59747070Y-43649696D01*
X59811580Y-43744626D01*
X59902888Y-43808455D01*
X60018979Y-43840141D01*
X60157838Y-43838641D01*
X60273521Y-43815699D01*
X60374027Y-43788799D01*
X60440448Y-43772617D01*
X60479805Y-43767757D01*
X60499120Y-43774822D01*
X60505414Y-43794415D01*
X60505709Y-43827139D01*
X60505666Y-43835639D01*
X60502401Y-43883022D01*
X60485903Y-43913374D01*
X60446115Y-43938941D01*
X60405394Y-43957735D01*
X60331595Y-43980472D01*
X60232494Y-43997973D01*
X60121961Y-44009184D01*
X60013870Y-44013051D01*
X59922091Y-44008518D01*
X59870529Y-43998400D01*
X59729659Y-43932025D01*
X59617742Y-43834905D01*
X59540895Y-43720500D01*
X59515872Y-43645503D01*
X59499332Y-43541815D01*
X59491726Y-43422306D01*
X59493501Y-43299850D01*
X59498143Y-43254833D01*
X59697969Y-43254833D01*
X60336333Y-43254833D01*
X60336333Y-43190490D01*
X60321525Y-43109301D01*
X60283224Y-43027206D01*
X60230618Y-42960995D01*
X60197463Y-42936645D01*
X60141381Y-42918113D01*
X60066344Y-42907002D01*
X60031503Y-42905583D01*
X59916314Y-42923593D01*
X59824006Y-42976895D01*
X59755823Y-43064393D01*
X59713010Y-43184993D01*
X59712784Y-43186041D01*
X59697969Y-43254833D01*
X59498143Y-43254833D01*
X59505107Y-43187318D01*
X59519917Y-43119275D01*
X59579515Y-42984423D01*
X59669174Y-42874997D01*
X59782985Y-42794104D01*
X59915036Y-42744852D01*
X60059418Y-42730346D01*
X60210219Y-42753696D01*
G36*
X57883519Y-42736036D02*
G01*
X57919641Y-42741815D01*
X58033547Y-42769748D01*
X58118891Y-42812998D01*
X58188671Y-42878840D01*
X58207775Y-42903097D01*
X58221467Y-42923782D01*
X58232074Y-42948327D01*
X58240079Y-42982259D01*
X58245959Y-43031110D01*
X58250197Y-43100407D01*
X58253272Y-43195681D01*
X58255664Y-43322461D01*
X58257760Y-43478581D01*
X58264103Y-43995666D01*
X58178385Y-43995666D01*
X58123660Y-43993238D01*
X58099163Y-43979995D01*
X58092829Y-43946999D01*
X58092666Y-43932166D01*
X58084642Y-43883838D01*
X58064612Y-43868832D01*
X58038637Y-43891634D01*
X58038405Y-43892008D01*
X58012338Y-43913313D01*
X57960442Y-43943514D01*
X57915447Y-43965885D01*
X57778576Y-44009273D01*
X57643504Y-44012937D01*
X57516126Y-43976829D01*
X57500432Y-43969208D01*
X57405363Y-43905483D01*
X57346159Y-43826158D01*
X57316961Y-43722787D01*
X57314458Y-43701155D01*
X57318834Y-43614452D01*
X57527054Y-43614452D01*
X57531386Y-43697677D01*
X57566845Y-43774715D01*
X57628947Y-43824719D01*
X57710637Y-43846280D01*
X57804859Y-43837987D01*
X57904560Y-43798431D01*
X57936816Y-43778708D01*
X58039750Y-43709916D01*
X58046070Y-43564333D01*
X58052391Y-43418749D01*
X57876272Y-43427993D01*
X57733359Y-43446142D01*
X57627263Y-43483468D01*
X57558367Y-43539671D01*
X57527054Y-43614452D01*
X57318834Y-43614452D01*
X57320662Y-43578246D01*
X57363551Y-43474512D01*
X57441462Y-43391191D01*
X57552735Y-43329521D01*
X57695706Y-43290742D01*
X57868715Y-43276092D01*
X57884841Y-43276000D01*
X58050333Y-43276000D01*
X58050333Y-43182127D01*
X58038728Y-43068210D01*
X58001927Y-42987364D01*
X57936948Y-42936627D01*
X57840812Y-42913036D01*
X57777138Y-42910516D01*
X57648091Y-42926464D01*
X57538444Y-42966833D01*
X57458205Y-43002967D01*
X57408687Y-43018229D01*
X57383283Y-43011716D01*
X57375385Y-42982521D01*
X57377013Y-42944727D01*
X57392522Y-42882963D01*
X57431066Y-42834934D01*
X57498543Y-42796282D01*
X57600855Y-42762644D01*
X57635300Y-42753836D01*
X57727652Y-42734466D01*
X57802871Y-42728851D01*
X57883519Y-42736036D01*
G37*
X57883519Y-42736036D02*
X57919641Y-42741815D01*
X58033547Y-42769748D01*
X58118891Y-42812998D01*
X58188671Y-42878840D01*
X58207775Y-42903097D01*
X58221467Y-42923782D01*
X58232074Y-42948327D01*
X58240079Y-42982259D01*
X58245959Y-43031110D01*
X58250197Y-43100407D01*
X58253272Y-43195681D01*
X58255664Y-43322461D01*
X58257760Y-43478581D01*
X58264103Y-43995666D01*
X58178385Y-43995666D01*
X58123660Y-43993238D01*
X58099163Y-43979995D01*
X58092829Y-43946999D01*
X58092666Y-43932166D01*
X58084642Y-43883838D01*
X58064612Y-43868832D01*
X58038637Y-43891634D01*
X58038405Y-43892008D01*
X58012338Y-43913313D01*
X57960442Y-43943514D01*
X57915447Y-43965885D01*
X57778576Y-44009273D01*
X57643504Y-44012937D01*
X57516126Y-43976829D01*
X57500432Y-43969208D01*
X57405363Y-43905483D01*
X57346159Y-43826158D01*
X57316961Y-43722787D01*
X57314458Y-43701155D01*
X57318834Y-43614452D01*
X57527054Y-43614452D01*
X57531386Y-43697677D01*
X57566845Y-43774715D01*
X57628947Y-43824719D01*
X57710637Y-43846280D01*
X57804859Y-43837987D01*
X57904560Y-43798431D01*
X57936816Y-43778708D01*
X58039750Y-43709916D01*
X58046070Y-43564333D01*
X58052391Y-43418749D01*
X57876272Y-43427993D01*
X57733359Y-43446142D01*
X57627263Y-43483468D01*
X57558367Y-43539671D01*
X57527054Y-43614452D01*
X57318834Y-43614452D01*
X57320662Y-43578246D01*
X57363551Y-43474512D01*
X57441462Y-43391191D01*
X57552735Y-43329521D01*
X57695706Y-43290742D01*
X57868715Y-43276092D01*
X57884841Y-43276000D01*
X58050333Y-43276000D01*
X58050333Y-43182127D01*
X58038728Y-43068210D01*
X58001927Y-42987364D01*
X57936948Y-42936627D01*
X57840812Y-42913036D01*
X57777138Y-42910516D01*
X57648091Y-42926464D01*
X57538444Y-42966833D01*
X57458205Y-43002967D01*
X57408687Y-43018229D01*
X57383283Y-43011716D01*
X57375385Y-42982521D01*
X57377013Y-42944727D01*
X57392522Y-42882963D01*
X57431066Y-42834934D01*
X57498543Y-42796282D01*
X57600855Y-42762644D01*
X57635300Y-42753836D01*
X57727652Y-42734466D01*
X57802871Y-42728851D01*
X57883519Y-42736036D01*
G36*
X45372250Y-42296109D02*
G01*
X45513589Y-42318713D01*
X45586483Y-42341475D01*
X45719398Y-42415792D01*
X45828829Y-42523521D01*
X45913336Y-42661932D01*
X45971479Y-42828299D01*
X46001821Y-43019891D01*
X46006132Y-43137012D01*
X45996107Y-43282929D01*
X45969013Y-43430516D01*
X45928106Y-43568583D01*
X45876642Y-43685941D01*
X45823221Y-43765489D01*
X45808020Y-43790509D01*
X45816703Y-43815209D01*
X45854175Y-43851292D01*
X45861928Y-43857860D01*
X45917744Y-43897914D01*
X45994350Y-43944372D01*
X46064748Y-43981869D01*
X46149711Y-44029499D01*
X46197621Y-44071159D01*
X46211110Y-44097435D01*
X46212430Y-44147549D01*
X46198611Y-44200339D01*
X46175584Y-44239348D01*
X46156259Y-44249666D01*
X46129219Y-44240483D01*
X46074802Y-44215993D01*
X46002994Y-44180784D01*
X45973828Y-44165861D01*
X45884485Y-44116174D01*
X45796866Y-44061707D01*
X45727887Y-44013064D01*
X45719720Y-44006539D01*
X45627562Y-43931022D01*
X45494239Y-43976264D01*
X45411659Y-44000472D01*
X45334492Y-44012427D01*
X45244328Y-44014201D01*
X45181000Y-44011503D01*
X45000392Y-43986343D01*
X44849550Y-43931829D01*
X44726567Y-43846693D01*
X44629533Y-43729667D01*
X44565308Y-43602364D01*
X44545206Y-43547566D01*
X44531300Y-43495104D01*
X44522482Y-43435372D01*
X44517642Y-43358761D01*
X44515827Y-43263831D01*
X44742083Y-43263831D01*
X44767730Y-43437752D01*
X44819281Y-43580917D01*
X44896234Y-43692209D01*
X44998088Y-43770513D01*
X45075939Y-43802748D01*
X45174782Y-43818436D01*
X45291212Y-43815883D01*
X45405504Y-43796836D01*
X45492604Y-43765840D01*
X45592188Y-43695654D01*
X45668618Y-43597073D01*
X45723397Y-43467167D01*
X45758029Y-43303004D01*
X45766059Y-43232754D01*
X45768870Y-43116383D01*
X45758957Y-42990231D01*
X45738475Y-42869500D01*
X45709579Y-42769393D01*
X45695956Y-42738150D01*
X45617502Y-42620914D01*
X45516942Y-42539309D01*
X45391220Y-42491164D01*
X45334129Y-42480910D01*
X45182547Y-42478521D01*
X45050425Y-42512903D01*
X44939445Y-42582408D01*
X44851290Y-42685388D01*
X44787640Y-42820195D01*
X44750179Y-42985180D01*
X44742839Y-43060269D01*
X44742083Y-43263831D01*
X44515827Y-43263831D01*
X44515670Y-43255665D01*
X44515401Y-43170166D01*
X44516097Y-43044905D01*
X44518931Y-42952334D01*
X44525022Y-42882819D01*
X44535489Y-42826729D01*
X44551451Y-42774433D01*
X44565751Y-42736784D01*
X44636854Y-42603829D01*
X44734796Y-42485282D01*
X44849933Y-42391191D01*
X44945400Y-42341269D01*
X45071706Y-42307382D01*
X45219473Y-42292330D01*
X45372250Y-42296109D01*
G37*
X45372250Y-42296109D02*
X45513589Y-42318713D01*
X45586483Y-42341475D01*
X45719398Y-42415792D01*
X45828829Y-42523521D01*
X45913336Y-42661932D01*
X45971479Y-42828299D01*
X46001821Y-43019891D01*
X46006132Y-43137012D01*
X45996107Y-43282929D01*
X45969013Y-43430516D01*
X45928106Y-43568583D01*
X45876642Y-43685941D01*
X45823221Y-43765489D01*
X45808020Y-43790509D01*
X45816703Y-43815209D01*
X45854175Y-43851292D01*
X45861928Y-43857860D01*
X45917744Y-43897914D01*
X45994350Y-43944372D01*
X46064748Y-43981869D01*
X46149711Y-44029499D01*
X46197621Y-44071159D01*
X46211110Y-44097435D01*
X46212430Y-44147549D01*
X46198611Y-44200339D01*
X46175584Y-44239348D01*
X46156259Y-44249666D01*
X46129219Y-44240483D01*
X46074802Y-44215993D01*
X46002994Y-44180784D01*
X45973828Y-44165861D01*
X45884485Y-44116174D01*
X45796866Y-44061707D01*
X45727887Y-44013064D01*
X45719720Y-44006539D01*
X45627562Y-43931022D01*
X45494239Y-43976264D01*
X45411659Y-44000472D01*
X45334492Y-44012427D01*
X45244328Y-44014201D01*
X45181000Y-44011503D01*
X45000392Y-43986343D01*
X44849550Y-43931829D01*
X44726567Y-43846693D01*
X44629533Y-43729667D01*
X44565308Y-43602364D01*
X44545206Y-43547566D01*
X44531300Y-43495104D01*
X44522482Y-43435372D01*
X44517642Y-43358761D01*
X44515827Y-43263831D01*
X44742083Y-43263831D01*
X44767730Y-43437752D01*
X44819281Y-43580917D01*
X44896234Y-43692209D01*
X44998088Y-43770513D01*
X45075939Y-43802748D01*
X45174782Y-43818436D01*
X45291212Y-43815883D01*
X45405504Y-43796836D01*
X45492604Y-43765840D01*
X45592188Y-43695654D01*
X45668618Y-43597073D01*
X45723397Y-43467167D01*
X45758029Y-43303004D01*
X45766059Y-43232754D01*
X45768870Y-43116383D01*
X45758957Y-42990231D01*
X45738475Y-42869500D01*
X45709579Y-42769393D01*
X45695956Y-42738150D01*
X45617502Y-42620914D01*
X45516942Y-42539309D01*
X45391220Y-42491164D01*
X45334129Y-42480910D01*
X45182547Y-42478521D01*
X45050425Y-42512903D01*
X44939445Y-42582408D01*
X44851290Y-42685388D01*
X44787640Y-42820195D01*
X44750179Y-42985180D01*
X44742839Y-43060269D01*
X44742083Y-43263831D01*
X44515827Y-43263831D01*
X44515670Y-43255665D01*
X44515401Y-43170166D01*
X44516097Y-43044905D01*
X44518931Y-42952334D01*
X44525022Y-42882819D01*
X44535489Y-42826729D01*
X44551451Y-42774433D01*
X44565751Y-42736784D01*
X44636854Y-42603829D01*
X44734796Y-42485282D01*
X44849933Y-42391191D01*
X44945400Y-42341269D01*
X45071706Y-42307382D01*
X45219473Y-42292330D01*
X45372250Y-42296109D01*
G36*
X42431467Y-40106136D02*
G01*
X42462773Y-40126083D01*
X42481427Y-40167645D01*
X42490442Y-40237628D01*
X42492832Y-40342835D01*
X42492833Y-40345688D01*
X42492833Y-40539577D01*
X42606549Y-40551313D01*
X42749674Y-40584947D01*
X42873725Y-40651163D01*
X42973697Y-40744688D01*
X43044587Y-40860248D01*
X43081391Y-40992567D01*
X43085500Y-41056161D01*
X43085500Y-41138166D01*
X43282350Y-41138166D01*
X43388425Y-41140155D01*
X43459228Y-41148571D01*
X43501730Y-41167086D01*
X43522901Y-41199375D01*
X43529713Y-41249109D01*
X43530000Y-41268655D01*
X43524658Y-41320681D01*
X43504294Y-41355984D01*
X43462396Y-41377620D01*
X43392455Y-41388643D01*
X43287961Y-41392109D01*
X43266808Y-41392166D01*
X43085500Y-41392166D01*
X43085500Y-41518426D01*
X43085499Y-41644685D01*
X43302458Y-41650717D01*
X43519416Y-41656750D01*
X43519416Y-41868416D01*
X43302458Y-41874448D01*
X43085499Y-41880480D01*
X43085500Y-42006740D01*
X43085500Y-42133000D01*
X43283991Y-42133000D01*
X43391222Y-42135195D01*
X43462717Y-42144304D01*
X43504959Y-42164113D01*
X43524429Y-42198409D01*
X43527610Y-42250978D01*
X43526074Y-42274397D01*
X43519416Y-42355250D01*
X43302458Y-42361282D01*
X43085499Y-42367314D01*
X43085500Y-42503416D01*
X43085500Y-42639519D01*
X43519416Y-42651583D01*
X43519416Y-42863250D01*
X43085500Y-42875314D01*
X43085500Y-43127833D01*
X43283991Y-43127833D01*
X43391222Y-43130028D01*
X43462717Y-43139137D01*
X43504959Y-43158947D01*
X43524429Y-43193243D01*
X43527610Y-43245811D01*
X43526074Y-43269231D01*
X43519416Y-43350083D01*
X43085500Y-43362147D01*
X43085293Y-43461948D01*
X43067094Y-43580417D01*
X43018019Y-43700231D01*
X42945650Y-43805045D01*
X42909235Y-43841453D01*
X42826335Y-43896201D01*
X42721026Y-43941220D01*
X42613169Y-43969089D01*
X42553258Y-43974500D01*
X42494366Y-43974500D01*
X42482250Y-44387250D01*
X42371125Y-44393647D01*
X42260000Y-44400045D01*
X42260000Y-43974500D01*
X41984833Y-43974500D01*
X41984833Y-44400045D01*
X41873708Y-44393647D01*
X41762583Y-44387250D01*
X41750467Y-43974500D01*
X41499532Y-43974500D01*
X41487416Y-44387250D01*
X41376291Y-44393647D01*
X41265166Y-44400045D01*
X41265166Y-43974500D01*
X40990000Y-43974500D01*
X40990000Y-44400045D01*
X40878875Y-44393647D01*
X40767750Y-44387250D01*
X40761691Y-44180875D01*
X40755633Y-43974500D01*
X40504699Y-43974500D01*
X40492583Y-44387250D01*
X40381458Y-44393647D01*
X40270333Y-44400045D01*
X40270333Y-43980328D01*
X40152093Y-43966431D01*
X40022190Y-43939227D01*
X39914421Y-43887025D01*
X39829319Y-43818671D01*
X39753765Y-43732894D01*
X39707018Y-43639321D01*
X39682169Y-43523181D01*
X39679441Y-43498250D01*
X39667083Y-43371250D01*
X39450124Y-43365217D01*
X39233166Y-43359185D01*
X39233166Y-43256357D01*
X39234868Y-43202345D01*
X39244657Y-43166076D01*
X39269557Y-43144021D01*
X39316592Y-43132650D01*
X39392787Y-43128431D01*
X39488897Y-43127833D01*
X39677666Y-43127833D01*
X39677666Y-42875314D01*
X39243750Y-42863250D01*
X39243750Y-42651583D01*
X39461698Y-42645540D01*
X39679647Y-42639497D01*
X39673365Y-42507956D01*
X39667083Y-42376416D01*
X39450125Y-42370384D01*
X39233166Y-42364352D01*
X39233166Y-42261524D01*
X39234868Y-42207511D01*
X39244657Y-42171243D01*
X39269557Y-42149188D01*
X39316592Y-42137816D01*
X39392787Y-42133598D01*
X39488897Y-42132999D01*
X39677666Y-42133000D01*
X39677666Y-41880480D01*
X39243750Y-41868416D01*
X39243750Y-41656750D01*
X39460708Y-41650717D01*
X39677666Y-41644685D01*
X39677666Y-41392166D01*
X39488897Y-41392166D01*
X39381421Y-41391299D01*
X39309251Y-41386374D01*
X39265364Y-41373901D01*
X39242737Y-41350395D01*
X39234349Y-41312366D01*
X39233177Y-41265579D01*
X40393492Y-41265579D01*
X40401837Y-41778664D01*
X40405811Y-41966091D01*
X40411805Y-42117147D01*
X40421059Y-42237787D01*
X40434811Y-42333965D01*
X40454300Y-42411636D01*
X40480765Y-42476756D01*
X40515445Y-42535279D01*
X40559579Y-42593160D01*
X40575116Y-42611603D01*
X40667285Y-42694431D01*
X40788400Y-42767818D01*
X40925232Y-42825975D01*
X41064553Y-42863114D01*
X41174363Y-42873833D01*
X41244000Y-42873833D01*
X41244000Y-43071388D01*
X41245517Y-43159147D01*
X41249587Y-43230376D01*
X41255486Y-43274837D01*
X41259034Y-43283979D01*
X41286962Y-43291239D01*
X41342964Y-43294021D01*
X41391326Y-43292798D01*
X41508583Y-43286583D01*
X41520631Y-42879489D01*
X41635878Y-42865944D01*
X41821619Y-42826131D01*
X41984186Y-42754222D01*
X42120360Y-42652312D01*
X42226921Y-42522498D01*
X42263517Y-42457242D01*
X42334083Y-42313997D01*
X42340376Y-41781844D01*
X42346669Y-41249692D01*
X42282168Y-41236791D01*
X42211702Y-41231444D01*
X42154166Y-41236591D01*
X42090666Y-41249291D01*
X42090666Y-41686698D01*
X42089025Y-41877374D01*
X42083490Y-42031502D01*
X42073140Y-42154763D01*
X42057055Y-42252837D01*
X42034315Y-42331406D01*
X42004000Y-42396150D01*
X41966974Y-42450500D01*
X41882080Y-42529099D01*
X41769859Y-42591059D01*
X41644284Y-42629033D01*
X41620001Y-42632940D01*
X41519752Y-42646673D01*
X41514167Y-41950628D01*
X41508583Y-41254583D01*
X41434500Y-41236725D01*
X41348972Y-41230762D01*
X41302208Y-41241493D01*
X41244000Y-41264118D01*
X41244000Y-42641000D01*
X41194925Y-42641000D01*
X41105183Y-42628284D01*
X41002783Y-42595056D01*
X40906911Y-42548696D01*
X40848587Y-42507799D01*
X40800857Y-42462929D01*
X40763205Y-42417945D01*
X40734300Y-42367128D01*
X40712810Y-42304757D01*
X40697404Y-42225112D01*
X40686751Y-42122472D01*
X40679520Y-41991117D01*
X40674379Y-41825327D01*
X40672695Y-41752000D01*
X40661916Y-41254583D01*
X40587833Y-41236725D01*
X40498556Y-41231270D01*
X40453621Y-41242223D01*
X40393492Y-41265579D01*
X39233177Y-41265579D01*
X39233166Y-41265166D01*
X39234912Y-41211792D01*
X39244830Y-41175951D01*
X39269945Y-41154156D01*
X39317279Y-41142919D01*
X39393855Y-41138753D01*
X39488897Y-41138166D01*
X39677666Y-41138166D01*
X39677666Y-41036489D01*
X39697615Y-40906014D01*
X39753342Y-40787107D01*
X39838666Y-40685711D01*
X39947407Y-40607767D01*
X40073386Y-40559218D01*
X40188327Y-40545500D01*
X40270333Y-40545500D01*
X40270333Y-40336097D01*
X40271480Y-40233728D01*
X40277330Y-40166377D01*
X40291500Y-40126742D01*
X40317604Y-40107522D01*
X40359259Y-40101416D01*
X40386749Y-40101000D01*
X40437441Y-40103315D01*
X40470792Y-40115130D01*
X40490419Y-40143745D01*
X40499936Y-40196462D01*
X40502960Y-40280582D01*
X40503166Y-40336097D01*
X40503166Y-40545500D01*
X40757166Y-40545500D01*
X40757166Y-40347008D01*
X40759361Y-40239777D01*
X40768471Y-40168282D01*
X40788280Y-40126040D01*
X40822576Y-40106570D01*
X40875144Y-40103389D01*
X40898564Y-40104925D01*
X40979416Y-40111583D01*
X40991480Y-40545499D01*
X41128323Y-40545499D01*
X41265166Y-40545500D01*
X41265166Y-40336097D01*
X41266313Y-40233728D01*
X41272163Y-40166377D01*
X41286333Y-40126742D01*
X41312438Y-40107522D01*
X41354092Y-40101416D01*
X41381583Y-40101000D01*
X41432274Y-40103315D01*
X41465626Y-40115130D01*
X41485252Y-40143745D01*
X41494769Y-40196462D01*
X41497793Y-40280582D01*
X41498000Y-40336097D01*
X41498000Y-40545500D01*
X41752000Y-40545500D01*
X41752000Y-40347008D01*
X41754195Y-40239777D01*
X41763304Y-40168282D01*
X41783113Y-40126040D01*
X41817409Y-40106570D01*
X41869978Y-40103389D01*
X41893397Y-40104925D01*
X41974250Y-40111583D01*
X41980282Y-40328541D01*
X41986314Y-40545500D01*
X42260000Y-40545500D01*
X42260000Y-40336097D01*
X42261081Y-40233784D01*
X42266909Y-40166481D01*
X42281356Y-40126871D01*
X42308297Y-40107640D01*
X42351605Y-40101473D01*
X42384497Y-40101000D01*
X42431467Y-40106136D01*
G37*
X42431467Y-40106136D02*
X42462773Y-40126083D01*
X42481427Y-40167645D01*
X42490442Y-40237628D01*
X42492832Y-40342835D01*
X42492833Y-40345688D01*
X42492833Y-40539577D01*
X42606549Y-40551313D01*
X42749674Y-40584947D01*
X42873725Y-40651163D01*
X42973697Y-40744688D01*
X43044587Y-40860248D01*
X43081391Y-40992567D01*
X43085500Y-41056161D01*
X43085500Y-41138166D01*
X43282350Y-41138166D01*
X43388425Y-41140155D01*
X43459228Y-41148571D01*
X43501730Y-41167086D01*
X43522901Y-41199375D01*
X43529713Y-41249109D01*
X43530000Y-41268655D01*
X43524658Y-41320681D01*
X43504294Y-41355984D01*
X43462396Y-41377620D01*
X43392455Y-41388643D01*
X43287961Y-41392109D01*
X43266808Y-41392166D01*
X43085500Y-41392166D01*
X43085500Y-41518426D01*
X43085499Y-41644685D01*
X43302458Y-41650717D01*
X43519416Y-41656750D01*
X43519416Y-41868416D01*
X43302458Y-41874448D01*
X43085499Y-41880480D01*
X43085500Y-42006740D01*
X43085500Y-42133000D01*
X43283991Y-42133000D01*
X43391222Y-42135195D01*
X43462717Y-42144304D01*
X43504959Y-42164113D01*
X43524429Y-42198409D01*
X43527610Y-42250978D01*
X43526074Y-42274397D01*
X43519416Y-42355250D01*
X43302458Y-42361282D01*
X43085499Y-42367314D01*
X43085500Y-42503416D01*
X43085500Y-42639519D01*
X43519416Y-42651583D01*
X43519416Y-42863250D01*
X43085500Y-42875314D01*
X43085500Y-43127833D01*
X43283991Y-43127833D01*
X43391222Y-43130028D01*
X43462717Y-43139137D01*
X43504959Y-43158947D01*
X43524429Y-43193243D01*
X43527610Y-43245811D01*
X43526074Y-43269231D01*
X43519416Y-43350083D01*
X43085500Y-43362147D01*
X43085293Y-43461948D01*
X43067094Y-43580417D01*
X43018019Y-43700231D01*
X42945650Y-43805045D01*
X42909235Y-43841453D01*
X42826335Y-43896201D01*
X42721026Y-43941220D01*
X42613169Y-43969089D01*
X42553258Y-43974500D01*
X42494366Y-43974500D01*
X42482250Y-44387250D01*
X42371125Y-44393647D01*
X42260000Y-44400045D01*
X42260000Y-43974500D01*
X41984833Y-43974500D01*
X41984833Y-44400045D01*
X41873708Y-44393647D01*
X41762583Y-44387250D01*
X41750467Y-43974500D01*
X41499532Y-43974500D01*
X41487416Y-44387250D01*
X41376291Y-44393647D01*
X41265166Y-44400045D01*
X41265166Y-43974500D01*
X40990000Y-43974500D01*
X40990000Y-44400045D01*
X40878875Y-44393647D01*
X40767750Y-44387250D01*
X40761691Y-44180875D01*
X40755633Y-43974500D01*
X40504699Y-43974500D01*
X40492583Y-44387250D01*
X40381458Y-44393647D01*
X40270333Y-44400045D01*
X40270333Y-43980328D01*
X40152093Y-43966431D01*
X40022190Y-43939227D01*
X39914421Y-43887025D01*
X39829319Y-43818671D01*
X39753765Y-43732894D01*
X39707018Y-43639321D01*
X39682169Y-43523181D01*
X39679441Y-43498250D01*
X39667083Y-43371250D01*
X39450124Y-43365217D01*
X39233166Y-43359185D01*
X39233166Y-43256357D01*
X39234868Y-43202345D01*
X39244657Y-43166076D01*
X39269557Y-43144021D01*
X39316592Y-43132650D01*
X39392787Y-43128431D01*
X39488897Y-43127833D01*
X39677666Y-43127833D01*
X39677666Y-42875314D01*
X39243750Y-42863250D01*
X39243750Y-42651583D01*
X39461698Y-42645540D01*
X39679647Y-42639497D01*
X39673365Y-42507956D01*
X39667083Y-42376416D01*
X39450125Y-42370384D01*
X39233166Y-42364352D01*
X39233166Y-42261524D01*
X39234868Y-42207511D01*
X39244657Y-42171243D01*
X39269557Y-42149188D01*
X39316592Y-42137816D01*
X39392787Y-42133598D01*
X39488897Y-42132999D01*
X39677666Y-42133000D01*
X39677666Y-41880480D01*
X39243750Y-41868416D01*
X39243750Y-41656750D01*
X39460708Y-41650717D01*
X39677666Y-41644685D01*
X39677666Y-41392166D01*
X39488897Y-41392166D01*
X39381421Y-41391299D01*
X39309251Y-41386374D01*
X39265364Y-41373901D01*
X39242737Y-41350395D01*
X39234349Y-41312366D01*
X39233177Y-41265579D01*
X40393492Y-41265579D01*
X40401837Y-41778664D01*
X40405811Y-41966091D01*
X40411805Y-42117147D01*
X40421059Y-42237787D01*
X40434811Y-42333965D01*
X40454300Y-42411636D01*
X40480765Y-42476756D01*
X40515445Y-42535279D01*
X40559579Y-42593160D01*
X40575116Y-42611603D01*
X40667285Y-42694431D01*
X40788400Y-42767818D01*
X40925232Y-42825975D01*
X41064553Y-42863114D01*
X41174363Y-42873833D01*
X41244000Y-42873833D01*
X41244000Y-43071388D01*
X41245517Y-43159147D01*
X41249587Y-43230376D01*
X41255486Y-43274837D01*
X41259034Y-43283979D01*
X41286962Y-43291239D01*
X41342964Y-43294021D01*
X41391326Y-43292798D01*
X41508583Y-43286583D01*
X41520631Y-42879489D01*
X41635878Y-42865944D01*
X41821619Y-42826131D01*
X41984186Y-42754222D01*
X42120360Y-42652312D01*
X42226921Y-42522498D01*
X42263517Y-42457242D01*
X42334083Y-42313997D01*
X42340376Y-41781844D01*
X42346669Y-41249692D01*
X42282168Y-41236791D01*
X42211702Y-41231444D01*
X42154166Y-41236591D01*
X42090666Y-41249291D01*
X42090666Y-41686698D01*
X42089025Y-41877374D01*
X42083490Y-42031502D01*
X42073140Y-42154763D01*
X42057055Y-42252837D01*
X42034315Y-42331406D01*
X42004000Y-42396150D01*
X41966974Y-42450500D01*
X41882080Y-42529099D01*
X41769859Y-42591059D01*
X41644284Y-42629033D01*
X41620001Y-42632940D01*
X41519752Y-42646673D01*
X41514167Y-41950628D01*
X41508583Y-41254583D01*
X41434500Y-41236725D01*
X41348972Y-41230762D01*
X41302208Y-41241493D01*
X41244000Y-41264118D01*
X41244000Y-42641000D01*
X41194925Y-42641000D01*
X41105183Y-42628284D01*
X41002783Y-42595056D01*
X40906911Y-42548696D01*
X40848587Y-42507799D01*
X40800857Y-42462929D01*
X40763205Y-42417945D01*
X40734300Y-42367128D01*
X40712810Y-42304757D01*
X40697404Y-42225112D01*
X40686751Y-42122472D01*
X40679520Y-41991117D01*
X40674379Y-41825327D01*
X40672695Y-41752000D01*
X40661916Y-41254583D01*
X40587833Y-41236725D01*
X40498556Y-41231270D01*
X40453621Y-41242223D01*
X40393492Y-41265579D01*
X39233177Y-41265579D01*
X39233166Y-41265166D01*
X39234912Y-41211792D01*
X39244830Y-41175951D01*
X39269945Y-41154156D01*
X39317279Y-41142919D01*
X39393855Y-41138753D01*
X39488897Y-41138166D01*
X39677666Y-41138166D01*
X39677666Y-41036489D01*
X39697615Y-40906014D01*
X39753342Y-40787107D01*
X39838666Y-40685711D01*
X39947407Y-40607767D01*
X40073386Y-40559218D01*
X40188327Y-40545500D01*
X40270333Y-40545500D01*
X40270333Y-40336097D01*
X40271480Y-40233728D01*
X40277330Y-40166377D01*
X40291500Y-40126742D01*
X40317604Y-40107522D01*
X40359259Y-40101416D01*
X40386749Y-40101000D01*
X40437441Y-40103315D01*
X40470792Y-40115130D01*
X40490419Y-40143745D01*
X40499936Y-40196462D01*
X40502960Y-40280582D01*
X40503166Y-40336097D01*
X40503166Y-40545500D01*
X40757166Y-40545500D01*
X40757166Y-40347008D01*
X40759361Y-40239777D01*
X40768471Y-40168282D01*
X40788280Y-40126040D01*
X40822576Y-40106570D01*
X40875144Y-40103389D01*
X40898564Y-40104925D01*
X40979416Y-40111583D01*
X40991480Y-40545499D01*
X41128323Y-40545499D01*
X41265166Y-40545500D01*
X41265166Y-40336097D01*
X41266313Y-40233728D01*
X41272163Y-40166377D01*
X41286333Y-40126742D01*
X41312438Y-40107522D01*
X41354092Y-40101416D01*
X41381583Y-40101000D01*
X41432274Y-40103315D01*
X41465626Y-40115130D01*
X41485252Y-40143745D01*
X41494769Y-40196462D01*
X41497793Y-40280582D01*
X41498000Y-40336097D01*
X41498000Y-40545500D01*
X41752000Y-40545500D01*
X41752000Y-40347008D01*
X41754195Y-40239777D01*
X41763304Y-40168282D01*
X41783113Y-40126040D01*
X41817409Y-40106570D01*
X41869978Y-40103389D01*
X41893397Y-40104925D01*
X41974250Y-40111583D01*
X41980282Y-40328541D01*
X41986314Y-40545500D01*
X42260000Y-40545500D01*
X42260000Y-40336097D01*
X42261081Y-40233784D01*
X42266909Y-40166481D01*
X42281356Y-40126871D01*
X42308297Y-40107640D01*
X42351605Y-40101473D01*
X42384497Y-40101000D01*
X42431467Y-40106136D01*
D12*
%TO.C,RESW2*%
X91069658Y-25659821D02*
G75*
G03*
X91069658Y-25659821I-3000000J0D01*
G01*
X81552802Y-24981151D02*
X80701926Y-20155593D01*
X93110504Y-17967626D02*
X93961380Y-22793184D01*
X94586514Y-26338492D02*
X95437390Y-31164050D01*
X95437390Y-31164050D02*
X92679928Y-31650265D01*
X82195301Y-28624940D02*
X83028812Y-33352017D01*
X83028812Y-33352017D02*
X85490831Y-32917896D01*
X85629750Y-33705743D02*
X85386402Y-34053279D01*
X85386402Y-34053279D02*
X85282213Y-33462395D01*
X85282213Y-33462395D02*
X85629750Y-33705743D01*
X80701926Y-20155593D02*
X83262427Y-19704108D01*
X85625965Y-19287352D02*
X88186465Y-18835867D01*
X90550004Y-18419111D02*
X93110504Y-17967626D01*
X87577254Y-25746645D02*
X88562062Y-25572997D01*
X88156482Y-26152225D02*
X87982834Y-25167418D01*
%TO.C,RESW1*%
X14734381Y-25668062D02*
G75*
G03*
X14734381Y-25668062I-3000000J0D01*
G01*
X5842659Y-22801425D02*
X6693535Y-17975867D01*
X19102112Y-20163834D02*
X18251236Y-24989392D01*
X17626103Y-28534700D02*
X16775227Y-33360258D01*
X16775227Y-33360258D02*
X14017765Y-32874043D01*
X5200160Y-26445214D02*
X4366649Y-31172291D01*
X4366649Y-31172291D02*
X6828668Y-31606411D01*
X6689750Y-32394257D02*
X6342213Y-32637605D01*
X6342213Y-32637605D02*
X6446402Y-32046721D01*
X6446402Y-32046721D02*
X6689750Y-32394257D01*
X6693535Y-17975867D02*
X9254035Y-18427352D01*
X11617573Y-18844108D02*
X14178074Y-19295593D01*
X16541612Y-19712349D02*
X19102112Y-20163834D01*
X11241977Y-25581238D02*
X12226785Y-25754886D01*
X11647557Y-26160466D02*
X11821205Y-25175658D01*
D10*
%TO.C,U1*%
X67831383Y-5826522D02*
X67655998Y-6821177D01*
X64740446Y-23356100D02*
X64914094Y-22371292D01*
X66846575Y-5652873D02*
X67831383Y-5826522D01*
X63706397Y-23173769D02*
X64740446Y-23356100D01*
X35283487Y-87449D02*
X35118521Y-1023017D01*
X32192549Y-17617027D02*
X32366198Y-16632220D01*
X35283487Y-87449D02*
X36268295Y-261098D01*
X32192549Y-17617027D02*
X33177357Y-17790676D01*
X30427857Y-12076417D02*
X32791395Y-12493173D01*
X32800078Y-12443933D02*
X34093756Y-5107115D01*
X34093756Y-5107115D02*
X31730218Y-4690359D01*
X31730218Y-4690359D02*
X30427857Y-12076417D01*
D12*
X31691985Y-9452496D02*
X32289904Y-9557925D01*
X32366449Y-9535157D01*
X32407823Y-9506187D01*
X32455398Y-9442045D01*
X32480205Y-9301358D01*
X32457437Y-9224813D01*
X32428467Y-9183440D01*
X32364325Y-9135865D01*
X31766406Y-9030435D01*
X32525656Y-8837925D02*
X32579432Y-8738611D01*
X32610441Y-8562753D01*
X32587673Y-8486207D01*
X32558703Y-8444834D01*
X32494561Y-8397259D01*
X32424218Y-8384855D01*
X32347673Y-8407624D01*
X32306299Y-8436594D01*
X32258724Y-8500735D01*
X32198745Y-8635220D01*
X32151170Y-8699362D01*
X32109797Y-8728332D01*
X32033252Y-8751100D01*
X31962908Y-8738697D01*
X31898767Y-8691122D01*
X31869797Y-8649748D01*
X31847028Y-8573203D01*
X31878037Y-8397345D01*
X31931814Y-8298031D01*
X32347587Y-7791100D02*
X32401364Y-7691786D01*
X32442737Y-7662816D01*
X32519282Y-7640048D01*
X32624797Y-7658653D01*
X32688939Y-7706228D01*
X32717909Y-7747602D01*
X32740677Y-7824147D01*
X32691063Y-8105520D01*
X31952458Y-7975284D01*
X31995870Y-7729082D01*
X32043445Y-7664941D01*
X32084818Y-7635971D01*
X32161363Y-7613202D01*
X32231707Y-7625606D01*
X32295848Y-7673181D01*
X32324818Y-7714554D01*
X32347587Y-7791100D01*
X32304175Y-8037301D01*
D13*
X62996744Y-10189469D02*
X63048536Y-10101410D01*
X63089248Y-10076192D01*
X63165132Y-10057175D01*
X63270647Y-10075780D01*
X63335450Y-10119604D01*
X63365082Y-10157226D01*
X63389173Y-10226267D01*
X63344851Y-10477628D01*
X62606245Y-10347392D01*
X62645027Y-10127451D01*
X62691279Y-10070813D01*
X62731991Y-10045595D01*
X62807875Y-10026578D01*
X62878218Y-10038981D01*
X62943021Y-10082805D01*
X62972653Y-10120427D01*
X62996744Y-10189469D01*
X62957963Y-10409409D01*
X63018654Y-9448202D02*
X63511057Y-9535026D01*
X62709579Y-9555689D02*
X63209453Y-9805815D01*
X63281476Y-9397354D01*
X62881325Y-8581667D02*
X63731238Y-9314674D01*
X63288444Y-8329484D02*
X63242192Y-8386122D01*
X63201480Y-8411340D01*
X63125597Y-8430357D01*
X63090425Y-8424155D01*
X63025622Y-8380332D01*
X62995990Y-8342710D01*
X62971899Y-8273668D01*
X62994060Y-8147988D01*
X63040312Y-8091349D01*
X63081024Y-8066131D01*
X63156907Y-8047114D01*
X63192079Y-8053316D01*
X63256882Y-8097140D01*
X63286514Y-8134761D01*
X63310605Y-8203803D01*
X63288444Y-8329484D01*
X63312536Y-8398525D01*
X63342167Y-8436147D01*
X63406970Y-8479971D01*
X63547657Y-8504778D01*
X63623541Y-8485761D01*
X63664253Y-8460543D01*
X63710505Y-8403904D01*
X63732666Y-8278224D01*
X63708574Y-8209182D01*
X63678943Y-8171560D01*
X63614140Y-8127737D01*
X63473453Y-8102930D01*
X63397569Y-8121947D01*
X63356857Y-8147165D01*
X63310605Y-8203803D01*
X40780635Y-7721569D02*
X40042029Y-7591333D01*
X40069730Y-7434233D01*
X40121523Y-7346174D01*
X40202946Y-7295738D01*
X40278830Y-7276721D01*
X40425057Y-7270108D01*
X40530572Y-7288713D01*
X40665719Y-7344940D01*
X40730522Y-7388763D01*
X40789785Y-7464007D01*
X40808336Y-7564469D01*
X40780635Y-7721569D01*
X40223177Y-6975335D02*
X40193545Y-6937713D01*
X40169454Y-6868672D01*
X40197155Y-6711571D01*
X40243407Y-6654933D01*
X40284119Y-6629715D01*
X40360003Y-6610698D01*
X40430346Y-6623101D01*
X40530321Y-6673127D01*
X40885899Y-7124588D01*
X40957922Y-6716127D01*
X40317109Y-5825608D02*
X41167021Y-6558616D01*
X41196150Y-5365065D02*
X40805652Y-5522988D01*
X41129668Y-5742106D02*
X40391062Y-5611869D01*
X40435384Y-5360509D01*
X40481636Y-5303871D01*
X40522348Y-5278652D01*
X40598231Y-5259636D01*
X40703746Y-5278241D01*
X40768550Y-5322064D01*
X40798181Y-5359686D01*
X40822272Y-5428728D01*
X40777951Y-5680088D01*
X40496326Y-5014888D02*
X41312495Y-4705244D01*
X40573889Y-4575007D02*
X41234932Y-5145124D01*
X41417759Y-4108263D02*
X41351276Y-4485303D01*
X41384517Y-4296783D02*
X40645911Y-4166547D01*
X40740346Y-4247992D01*
X40799609Y-4323236D01*
X40823700Y-4392277D01*
X65458764Y-10623589D02*
X65510556Y-10535530D01*
X65551268Y-10510312D01*
X65627152Y-10491295D01*
X65732667Y-10509900D01*
X65797470Y-10553724D01*
X65827102Y-10591346D01*
X65851193Y-10660387D01*
X65806871Y-10911748D01*
X65068265Y-10781512D01*
X65107047Y-10561571D01*
X65153299Y-10504933D01*
X65194011Y-10479715D01*
X65269895Y-10460698D01*
X65340238Y-10473101D01*
X65405041Y-10516925D01*
X65434673Y-10554547D01*
X65458764Y-10623589D01*
X65419983Y-10843529D01*
X65240012Y-9807490D02*
X65184610Y-10121691D01*
X65530787Y-10215128D01*
X65501155Y-10177506D01*
X65477064Y-10108464D01*
X65504765Y-9951364D01*
X65551017Y-9894726D01*
X65591729Y-9869507D01*
X65667612Y-9850491D01*
X65843471Y-9881499D01*
X65908274Y-9925323D01*
X65937906Y-9962944D01*
X65961997Y-10031986D01*
X65934296Y-10189087D01*
X65888044Y-10245725D01*
X65847332Y-10270943D01*
X65343345Y-9015787D02*
X66193258Y-9748794D01*
X66161444Y-8900864D02*
X66183605Y-8775184D01*
X66159514Y-8706142D01*
X66129882Y-8668520D01*
X66035448Y-8587075D01*
X65900301Y-8530848D01*
X65618927Y-8481234D01*
X65543044Y-8500251D01*
X65502332Y-8525469D01*
X65456080Y-8582108D01*
X65433919Y-8707788D01*
X65458010Y-8776830D01*
X65487642Y-8814452D01*
X65552445Y-8858275D01*
X65728303Y-8889284D01*
X65804187Y-8870267D01*
X65844899Y-8845049D01*
X65891151Y-8788410D01*
X65913312Y-8662730D01*
X65889221Y-8593688D01*
X65859589Y-8556067D01*
X65794786Y-8512243D01*
X55807211Y-8759775D02*
X55836843Y-8797397D01*
X55855394Y-8897858D01*
X55844313Y-8960699D01*
X55792521Y-9048757D01*
X55711097Y-9099194D01*
X55635214Y-9118210D01*
X55488987Y-9124823D01*
X55383472Y-9106218D01*
X55248325Y-9049991D01*
X55183522Y-9006168D01*
X55124259Y-8930924D01*
X55105708Y-8830462D01*
X55116788Y-8767622D01*
X55168580Y-8679564D01*
X55209292Y-8654346D01*
X55238673Y-8076381D02*
X55216512Y-8202061D01*
X55240603Y-8271103D01*
X55270235Y-8308725D01*
X55364669Y-8390170D01*
X55499816Y-8446397D01*
X55781190Y-8496011D01*
X55857073Y-8476994D01*
X55897785Y-8451776D01*
X55944037Y-8395138D01*
X55966198Y-8269457D01*
X55942107Y-8200415D01*
X55912475Y-8162794D01*
X55847672Y-8118970D01*
X55671813Y-8087962D01*
X55595930Y-8106978D01*
X55555218Y-8132197D01*
X55508966Y-8188835D01*
X55486805Y-8314515D01*
X55510896Y-8383557D01*
X55540528Y-8421179D01*
X55605331Y-8465002D01*
X55347546Y-7253258D02*
X56197459Y-7986265D01*
X55476901Y-6725319D02*
X55421499Y-7039519D01*
X55767676Y-7132956D01*
X55738045Y-7095335D01*
X55713953Y-7026293D01*
X55741654Y-6869193D01*
X55787906Y-6812554D01*
X55828618Y-6787336D01*
X55904502Y-6768319D01*
X56080361Y-6799328D01*
X56145164Y-6843151D01*
X56174795Y-6880773D01*
X56198887Y-6949815D01*
X56171186Y-7106915D01*
X56124933Y-7163554D01*
X56084221Y-7188772D01*
X50358413Y-10785327D02*
X50410206Y-10697268D01*
X50437907Y-10540168D01*
X50413815Y-10471126D01*
X50384184Y-10433504D01*
X50319381Y-10389681D01*
X50249037Y-10377277D01*
X50173154Y-10396294D01*
X50132442Y-10421512D01*
X50086189Y-10478151D01*
X50028857Y-10597629D01*
X49982605Y-10654267D01*
X49941893Y-10679486D01*
X49866009Y-10698502D01*
X49795666Y-10686099D01*
X49730863Y-10642276D01*
X49701231Y-10604654D01*
X49677140Y-10535612D01*
X49704841Y-10378512D01*
X49756633Y-10290453D01*
X50506068Y-9742263D02*
X50535700Y-9779885D01*
X50554251Y-9880347D01*
X50543170Y-9943187D01*
X50491378Y-10031245D01*
X50409954Y-10081682D01*
X50334071Y-10100698D01*
X50187844Y-10107312D01*
X50082329Y-10088706D01*
X49947182Y-10032480D01*
X49882379Y-9988656D01*
X49823116Y-9913412D01*
X49804565Y-9812951D01*
X49815645Y-9750110D01*
X49867437Y-9662052D01*
X49908149Y-9636834D01*
X50681676Y-9157685D02*
X50626273Y-9471886D01*
X49887668Y-9341650D01*
X50029782Y-8330006D02*
X50879695Y-9063014D01*
X50842341Y-8246504D02*
X50103736Y-8116268D01*
X50131437Y-7959167D01*
X50183229Y-7871109D01*
X50264653Y-7820672D01*
X50340536Y-7801655D01*
X50486763Y-7795042D01*
X50592279Y-7813647D01*
X50727425Y-7869874D01*
X50792228Y-7913698D01*
X50851491Y-7988941D01*
X50870042Y-8089403D01*
X50842341Y-8246504D01*
X50242241Y-7330766D02*
X50253321Y-7267926D01*
X50299573Y-7211288D01*
X50340285Y-7186069D01*
X50416169Y-7167053D01*
X50562396Y-7160439D01*
X50738254Y-7191448D01*
X50873401Y-7247675D01*
X50938204Y-7291498D01*
X50967836Y-7329120D01*
X50991927Y-7398162D01*
X50980847Y-7461002D01*
X50934594Y-7517641D01*
X50893882Y-7542859D01*
X50817999Y-7561876D01*
X50671772Y-7568489D01*
X50495913Y-7537480D01*
X50360767Y-7481253D01*
X50295963Y-7437430D01*
X50266332Y-7399808D01*
X50242241Y-7330766D01*
X50378815Y-6350543D02*
X51228728Y-7083550D01*
X50441688Y-6199644D02*
X50513711Y-5791183D01*
X50756303Y-6060737D01*
X50772924Y-5966477D01*
X50819176Y-5909839D01*
X50859888Y-5884621D01*
X50935771Y-5865604D01*
X51111630Y-5896613D01*
X51176433Y-5940436D01*
X51206064Y-5978058D01*
X51230156Y-6047100D01*
X51196914Y-6235620D01*
X51150662Y-6292258D01*
X51109950Y-6317477D01*
X47893623Y-10366916D02*
X47945415Y-10278857D01*
X47973116Y-10121757D01*
X47949025Y-10052715D01*
X47919394Y-10015093D01*
X47854590Y-9971270D01*
X47784247Y-9958866D01*
X47708363Y-9977883D01*
X47667651Y-10003101D01*
X47621399Y-10059740D01*
X47564067Y-10179218D01*
X47517815Y-10235857D01*
X47477103Y-10261075D01*
X47401219Y-10280091D01*
X47330876Y-10267688D01*
X47266073Y-10223865D01*
X47236441Y-10186243D01*
X47212350Y-10117201D01*
X47240051Y-9960101D01*
X47291843Y-9872042D01*
X48045139Y-9713296D02*
X47306533Y-9583060D01*
X47334234Y-9425960D01*
X47386027Y-9337901D01*
X47467450Y-9287465D01*
X47543334Y-9268448D01*
X47689561Y-9261835D01*
X47795076Y-9280440D01*
X47930223Y-9336667D01*
X47995026Y-9380490D01*
X48054289Y-9455734D01*
X48072840Y-9556196D01*
X48045139Y-9713296D01*
X47944913Y-9047685D02*
X48000315Y-8733484D01*
X48144863Y-9147735D02*
X47445038Y-8797559D01*
X48222426Y-8707854D01*
X47570533Y-7880175D02*
X48420445Y-8613183D01*
X48383092Y-7796673D02*
X47644486Y-7666436D01*
X47672187Y-7509336D01*
X47723979Y-7421278D01*
X47805403Y-7370841D01*
X47881286Y-7351824D01*
X48027513Y-7345211D01*
X48133029Y-7363816D01*
X48268175Y-7420043D01*
X48332978Y-7463867D01*
X48392241Y-7539110D01*
X48410793Y-7639572D01*
X48383092Y-7796673D01*
X48560378Y-6791231D02*
X48493896Y-7168271D01*
X48527137Y-6979751D02*
X47788531Y-6849515D01*
X47882966Y-6930960D01*
X47942229Y-7006204D01*
X47966320Y-7075246D01*
X47919565Y-5900712D02*
X48769478Y-6633719D01*
X48058322Y-5730796D02*
X48028690Y-5693175D01*
X48004599Y-5624133D01*
X48032300Y-5467033D01*
X48078552Y-5410394D01*
X48119264Y-5385176D01*
X48195148Y-5366159D01*
X48265491Y-5378563D01*
X48365466Y-5428588D01*
X48721044Y-5880049D01*
X48793067Y-5471588D01*
X53299812Y-8706416D02*
X52561206Y-8576180D01*
X52588907Y-8419080D01*
X52640700Y-8331021D01*
X52722124Y-8280584D01*
X52798007Y-8261568D01*
X52944234Y-8254955D01*
X53049749Y-8273560D01*
X53184896Y-8329787D01*
X53249699Y-8373610D01*
X53308962Y-8448854D01*
X53327513Y-8549316D01*
X53299812Y-8706416D01*
X52973615Y-7676990D02*
X53466018Y-7763814D01*
X52664540Y-7784477D02*
X53164414Y-8034603D01*
X53236437Y-7626142D01*
X52836286Y-6810455D02*
X53686199Y-7543462D01*
X53206303Y-6357348D02*
X53698707Y-6444172D01*
X52897228Y-6464834D02*
X53397103Y-6714960D01*
X53469126Y-6306500D01*
X38283226Y-7200217D02*
X37544620Y-7069981D01*
X37572321Y-6912881D01*
X37624113Y-6824822D01*
X37705537Y-6774385D01*
X37781421Y-6755369D01*
X37927648Y-6748756D01*
X38033163Y-6767361D01*
X38168309Y-6823588D01*
X38233113Y-6867411D01*
X38292376Y-6942655D01*
X38310927Y-7043117D01*
X38283226Y-7200217D01*
X37649884Y-6473000D02*
X37721906Y-6064539D01*
X37964499Y-6334093D01*
X37981119Y-6239833D01*
X38027371Y-6183195D01*
X38068083Y-6157976D01*
X38143967Y-6138960D01*
X38319825Y-6169968D01*
X38384629Y-6213792D01*
X38414260Y-6251414D01*
X38438351Y-6320455D01*
X38405110Y-6508976D01*
X38358858Y-6565614D01*
X38318146Y-6590832D01*
X37819699Y-5304256D02*
X38669612Y-6037263D01*
X37877032Y-5184777D02*
X37943514Y-4807737D01*
X38648879Y-5126493D02*
X37910273Y-4996257D01*
X37971215Y-4650636D02*
X38787384Y-4340992D01*
X38048778Y-4210756D02*
X38709821Y-4780873D01*
X38115261Y-3833715D02*
X38126341Y-3770875D01*
X38172593Y-3714236D01*
X38213305Y-3689018D01*
X38289189Y-3670001D01*
X38435416Y-3663388D01*
X38611274Y-3694397D01*
X38746421Y-3750624D01*
X38811224Y-3794447D01*
X38840856Y-3832069D01*
X38864947Y-3901111D01*
X38853867Y-3963951D01*
X38807614Y-4020589D01*
X38766903Y-4045808D01*
X38691019Y-4064824D01*
X38544792Y-4071438D01*
X38368933Y-4040429D01*
X38233787Y-3984202D01*
X38168984Y-3940379D01*
X38139352Y-3902757D01*
X38115261Y-3833715D01*
X45367306Y-6389707D02*
X45321054Y-6446346D01*
X45304434Y-6540606D01*
X45322985Y-6641068D01*
X45382248Y-6716311D01*
X45447051Y-6760135D01*
X45582198Y-6816362D01*
X45687713Y-6834967D01*
X45833940Y-6828354D01*
X45909823Y-6809337D01*
X45991247Y-6758900D01*
X46043039Y-6670842D01*
X46054120Y-6608002D01*
X46035569Y-6507540D01*
X46005937Y-6469918D01*
X45759735Y-6426506D01*
X45737574Y-6552186D01*
X46126142Y-6199541D02*
X45387537Y-6069305D01*
X46192625Y-5822501D01*
X45454019Y-5692264D01*
X46248027Y-5508300D02*
X45509421Y-5378064D01*
X45537122Y-5220964D01*
X45588914Y-5132905D01*
X45670338Y-5082468D01*
X45746222Y-5063452D01*
X45892449Y-5056839D01*
X45997964Y-5075444D01*
X46133111Y-5131671D01*
X46197914Y-5175494D01*
X46257177Y-5250738D01*
X46275728Y-5351200D01*
X46248027Y-5508300D01*
X42954527Y-5964269D02*
X42908275Y-6020908D01*
X42891655Y-6115168D01*
X42910206Y-6215630D01*
X42969469Y-6290873D01*
X43034272Y-6334697D01*
X43169419Y-6390924D01*
X43274934Y-6409529D01*
X43421161Y-6402916D01*
X43497044Y-6383899D01*
X43578468Y-6333462D01*
X43630260Y-6245404D01*
X43641341Y-6182564D01*
X43622790Y-6082102D01*
X43593158Y-6044480D01*
X43346956Y-6001068D01*
X43324795Y-6126748D01*
X43713363Y-5774103D02*
X42974758Y-5643867D01*
X43779846Y-5397063D01*
X43041240Y-5266826D01*
X43835248Y-5082862D02*
X43096642Y-4952626D01*
X43124343Y-4795526D01*
X43176135Y-4707467D01*
X43257559Y-4657030D01*
X43333443Y-4638014D01*
X43479670Y-4631401D01*
X43585185Y-4650006D01*
X43720332Y-4706233D01*
X43785135Y-4750056D01*
X43844398Y-4825300D01*
X43862949Y-4925762D01*
X43835248Y-5082862D01*
X58322332Y-9592022D02*
X57583726Y-9461786D01*
X57611427Y-9304686D01*
X57663220Y-9216627D01*
X57744644Y-9166190D01*
X57820527Y-9147174D01*
X57966754Y-9140561D01*
X58072269Y-9159166D01*
X58207416Y-9215393D01*
X58272219Y-9259216D01*
X58331482Y-9334460D01*
X58350033Y-9434922D01*
X58322332Y-9592022D01*
X57688990Y-8864805D02*
X57766553Y-8424924D01*
X58455297Y-8837941D01*
X57858806Y-7696061D02*
X58708719Y-8429068D01*
X57982621Y-7199542D02*
X57960460Y-7325222D01*
X57984552Y-7394264D01*
X58014183Y-7431886D01*
X58108618Y-7513331D01*
X58243764Y-7569558D01*
X58525138Y-7619172D01*
X58601022Y-7600155D01*
X58641734Y-7574937D01*
X58687986Y-7518298D01*
X58710147Y-7392618D01*
X58686055Y-7323576D01*
X58656424Y-7285954D01*
X58591621Y-7242131D01*
X58415762Y-7211122D01*
X58339878Y-7230139D01*
X58299166Y-7255357D01*
X58252914Y-7311996D01*
X58230754Y-7437676D01*
X58254845Y-7506718D01*
X58284476Y-7544339D01*
X58349280Y-7588163D01*
X60452244Y-9935186D02*
X60491025Y-9715246D01*
X60894535Y-9689204D02*
X60839132Y-10003405D01*
X60100527Y-9873169D01*
X60155929Y-9558968D01*
X60255652Y-8993407D02*
X60233492Y-9119087D01*
X60257583Y-9188129D01*
X60287214Y-9225751D01*
X60381649Y-9307196D01*
X60516796Y-9363423D01*
X60798169Y-9413037D01*
X60874053Y-9394020D01*
X60914765Y-9368802D01*
X60961017Y-9312164D01*
X60983178Y-9186483D01*
X60959086Y-9117442D01*
X60929455Y-9079820D01*
X60864652Y-9035996D01*
X60688793Y-9004988D01*
X60612910Y-9024004D01*
X60572198Y-9049223D01*
X60525946Y-9105861D01*
X60503785Y-9231541D01*
X60527876Y-9300583D01*
X60557508Y-9338205D01*
X60622311Y-9382028D01*
X60364526Y-8170284D02*
X61214438Y-8903291D01*
X60427399Y-8019385D02*
X60504962Y-7579505D01*
X61193706Y-7992521D01*
X61917914Y-19434006D02*
X61851432Y-19811047D01*
X61884673Y-19622526D02*
X61146067Y-19492290D01*
X61240502Y-19573735D01*
X61299765Y-19648979D01*
X61323856Y-19718021D01*
X61279032Y-18738209D02*
X61256872Y-18863889D01*
X61280963Y-18932931D01*
X61310594Y-18970553D01*
X61405029Y-19051998D01*
X61540176Y-19108225D01*
X61821549Y-19157839D01*
X61897433Y-19138822D01*
X61938145Y-19113604D01*
X61984397Y-19056965D01*
X62006558Y-18931285D01*
X61982466Y-18862243D01*
X61952835Y-18824621D01*
X61888032Y-18780798D01*
X61712173Y-18749789D01*
X61636290Y-18768806D01*
X61595578Y-18794024D01*
X61549326Y-18850663D01*
X61527165Y-18976343D01*
X61551256Y-19045385D01*
X61580888Y-19083006D01*
X61645691Y-19126830D01*
X61387906Y-17915086D02*
X62237818Y-18648093D01*
X61852358Y-17543424D02*
X61904150Y-17455365D01*
X61944862Y-17430147D01*
X62020745Y-17411130D01*
X62126260Y-17429735D01*
X62191064Y-17473559D01*
X62220695Y-17511181D01*
X62244786Y-17580223D01*
X62200465Y-17831583D01*
X61461859Y-17701347D01*
X61500640Y-17481406D01*
X61546893Y-17424768D01*
X61587604Y-17399550D01*
X61663488Y-17380533D01*
X61733832Y-17392937D01*
X61798635Y-17436760D01*
X61828266Y-17474382D01*
X61852358Y-17543424D01*
X61813576Y-17763364D01*
X61643007Y-17085349D02*
X61613375Y-17047727D01*
X61589284Y-16978686D01*
X61616985Y-16821585D01*
X61663237Y-16764947D01*
X61703949Y-16739729D01*
X61779832Y-16720712D01*
X61850176Y-16733115D01*
X61950151Y-16783141D01*
X62305729Y-17234602D01*
X62377751Y-16826141D01*
X64379934Y-19868126D02*
X64313452Y-20245167D01*
X64346693Y-20056646D02*
X63608087Y-19926410D01*
X63702522Y-20007855D01*
X63761785Y-20083099D01*
X63785876Y-20152141D01*
X63713351Y-19329429D02*
X63724432Y-19266589D01*
X63770684Y-19209950D01*
X63811396Y-19184732D01*
X63887279Y-19165716D01*
X64033506Y-19159102D01*
X64209365Y-19190111D01*
X64344512Y-19246338D01*
X64409315Y-19290161D01*
X64438946Y-19327783D01*
X64463038Y-19396825D01*
X64451957Y-19459665D01*
X64405705Y-19516304D01*
X64364993Y-19541522D01*
X64289109Y-19560538D01*
X64142882Y-19567152D01*
X63967024Y-19536143D01*
X63831877Y-19479916D01*
X63767074Y-19436093D01*
X63737443Y-19398471D01*
X63713351Y-19329429D01*
X63849926Y-18349206D02*
X64699838Y-19082213D01*
X64314378Y-17977544D02*
X64366170Y-17889485D01*
X64406882Y-17864267D01*
X64482765Y-17845250D01*
X64588280Y-17863855D01*
X64653084Y-17907679D01*
X64682715Y-17945301D01*
X64706806Y-18014343D01*
X64662485Y-18265703D01*
X63923879Y-18135467D01*
X63962660Y-17915526D01*
X64008913Y-17858888D01*
X64049624Y-17833670D01*
X64125508Y-17814653D01*
X64195852Y-17827057D01*
X64260655Y-17870880D01*
X64290286Y-17908502D01*
X64314378Y-17977544D01*
X64275596Y-18197484D01*
X64090085Y-17192865D02*
X64067924Y-17318545D01*
X64092016Y-17387587D01*
X64121647Y-17425209D01*
X64216082Y-17506654D01*
X64351228Y-17562881D01*
X64632602Y-17612495D01*
X64708486Y-17593478D01*
X64749198Y-17568260D01*
X64795450Y-17511622D01*
X64817611Y-17385941D01*
X64793519Y-17316900D01*
X64763888Y-17279278D01*
X64699085Y-17235454D01*
X64523226Y-17204446D01*
X64447342Y-17223462D01*
X64406631Y-17248681D01*
X64360378Y-17305319D01*
X64338218Y-17430999D01*
X64362309Y-17500041D01*
X64391940Y-17537663D01*
X64456744Y-17581486D01*
X59406654Y-18991203D02*
X59340172Y-19368244D01*
X59373413Y-19179723D02*
X58634807Y-19049487D01*
X58729242Y-19130932D01*
X58788505Y-19206176D01*
X58812596Y-19275218D01*
X59013974Y-18338818D02*
X59506378Y-18425642D01*
X58704900Y-18446304D02*
X59204774Y-18696430D01*
X59276797Y-18287970D01*
X58876646Y-17472283D02*
X59726558Y-18205290D01*
X59341098Y-17100621D02*
X59392890Y-17012562D01*
X59433602Y-16987344D01*
X59509485Y-16968327D01*
X59615000Y-16986932D01*
X59679804Y-17030756D01*
X59709435Y-17068378D01*
X59733526Y-17137420D01*
X59689205Y-17388780D01*
X58950599Y-17258544D01*
X58989380Y-17038603D01*
X59035633Y-16981965D01*
X59076344Y-16956747D01*
X59152228Y-16937730D01*
X59222572Y-16950134D01*
X59287375Y-16993957D01*
X59317006Y-17031579D01*
X59341098Y-17100621D01*
X59302316Y-17320561D01*
X59055863Y-16661563D02*
X59127886Y-16253102D01*
X59370478Y-16522656D01*
X59387098Y-16428396D01*
X59433351Y-16371758D01*
X59474062Y-16346539D01*
X59549946Y-16327523D01*
X59725805Y-16358531D01*
X59790608Y-16402355D01*
X59820239Y-16439977D01*
X59844331Y-16509018D01*
X59811089Y-16697539D01*
X59764837Y-16754177D01*
X59724125Y-16779395D01*
X56895395Y-18548400D02*
X56828913Y-18925441D01*
X56862154Y-18736920D02*
X56123548Y-18606684D01*
X56217983Y-18688129D01*
X56277246Y-18763373D01*
X56301337Y-18832415D01*
X56262054Y-17821183D02*
X56206651Y-18135383D01*
X56552828Y-18228820D01*
X56523197Y-18191199D01*
X56499106Y-18122157D01*
X56526807Y-17965057D01*
X56573059Y-17908418D01*
X56613771Y-17883200D01*
X56689654Y-17864183D01*
X56865513Y-17895192D01*
X56930316Y-17939015D01*
X56959947Y-17976637D01*
X56984039Y-18045679D01*
X56956338Y-18202779D01*
X56910086Y-18259418D01*
X56869374Y-18284636D01*
X56365387Y-17029480D02*
X57215299Y-17762487D01*
X56829839Y-16657818D02*
X56881631Y-16569759D01*
X56922343Y-16544541D01*
X56998226Y-16525524D01*
X57103741Y-16544129D01*
X57168545Y-16587953D01*
X57198176Y-16625575D01*
X57222267Y-16694617D01*
X57177946Y-16945977D01*
X56439340Y-16815741D01*
X56478121Y-16595800D01*
X56524374Y-16539162D01*
X56565085Y-16513944D01*
X56640969Y-16494927D01*
X56711313Y-16507331D01*
X56776116Y-16551154D01*
X56805747Y-16588776D01*
X56829839Y-16657818D01*
X56791057Y-16877758D01*
X57355232Y-15940535D02*
X57288750Y-16317576D01*
X57321991Y-16129055D02*
X56583385Y-15998819D01*
X56677820Y-16080265D01*
X56737083Y-16155508D01*
X56761174Y-16224550D01*
X54120473Y-18366877D02*
X54175875Y-18052677D01*
X54320423Y-18466928D02*
X53620599Y-18116751D01*
X54397986Y-18027047D01*
X53720322Y-17551190D02*
X53731403Y-17488350D01*
X53777655Y-17431711D01*
X53818367Y-17406493D01*
X53894250Y-17387477D01*
X54040477Y-17380863D01*
X54216336Y-17411872D01*
X54351483Y-17468099D01*
X54416286Y-17511922D01*
X54445917Y-17549544D01*
X54470009Y-17618586D01*
X54458928Y-17681426D01*
X54412676Y-17738064D01*
X54371964Y-17763283D01*
X54296081Y-17782299D01*
X54149854Y-17788913D01*
X53973995Y-17757904D01*
X53838848Y-17701677D01*
X53774045Y-17657854D01*
X53744414Y-17620232D01*
X53720322Y-17551190D01*
X53856897Y-16570966D02*
X54706809Y-17303974D01*
X54321349Y-16199305D02*
X54282567Y-16419245D01*
X54669456Y-16487464D02*
X53930850Y-16357228D01*
X53986252Y-16043027D01*
X54019493Y-15854507D02*
X54097056Y-15414626D01*
X54785800Y-15827643D01*
X51609213Y-17924074D02*
X51664615Y-17609874D01*
X51809163Y-18024125D02*
X51109339Y-17673948D01*
X51886726Y-17584244D01*
X51986450Y-17018683D02*
X51919967Y-17395723D01*
X51953208Y-17207203D02*
X51214603Y-17076967D01*
X51309037Y-17158412D01*
X51368300Y-17233656D01*
X51392392Y-17302698D01*
X51345637Y-16128163D02*
X52195549Y-16861171D01*
X51810089Y-15756502D02*
X51771307Y-15976442D01*
X52158196Y-16044661D02*
X51419590Y-15914425D01*
X51474992Y-15600224D01*
X51569176Y-15066083D02*
X51547015Y-15191763D01*
X51571106Y-15260805D01*
X51600738Y-15298427D01*
X51695172Y-15379872D01*
X51830319Y-15436099D01*
X52111693Y-15485713D01*
X52187576Y-15466696D01*
X52228288Y-15441478D01*
X52274540Y-15384840D01*
X52296701Y-15259160D01*
X52272610Y-15190118D01*
X52242978Y-15152496D01*
X52178175Y-15108672D01*
X52002317Y-15077664D01*
X51926433Y-15096680D01*
X51885721Y-15121899D01*
X51839469Y-15178537D01*
X51817308Y-15304217D01*
X51841399Y-15373259D01*
X51871031Y-15410881D01*
X51935834Y-15454704D01*
X49147194Y-17489954D02*
X49202596Y-17175754D01*
X49347144Y-17590005D02*
X48647320Y-17239828D01*
X49424707Y-17150124D01*
X48789686Y-16843771D02*
X48760054Y-16806149D01*
X48735963Y-16737107D01*
X48763664Y-16580007D01*
X48809916Y-16523368D01*
X48850628Y-16498150D01*
X48926512Y-16479133D01*
X48996855Y-16491537D01*
X49096830Y-16541562D01*
X49452408Y-16993023D01*
X49524431Y-16584563D01*
X48883618Y-15694043D02*
X49733530Y-16427051D01*
X49348070Y-15322382D02*
X49309288Y-15542322D01*
X49696177Y-15610541D02*
X48957571Y-15480305D01*
X49012973Y-15166104D01*
X49112697Y-14600543D02*
X49057295Y-14914744D01*
X49403472Y-15008181D01*
X49373840Y-14970559D01*
X49349749Y-14901517D01*
X49377450Y-14744417D01*
X49423702Y-14687779D01*
X49464414Y-14662560D01*
X49540298Y-14643544D01*
X49716156Y-14674552D01*
X49780959Y-14718376D01*
X49810591Y-14755998D01*
X49834682Y-14825040D01*
X49806981Y-14982140D01*
X49760729Y-15038778D01*
X49720017Y-15063997D01*
X46685174Y-17055833D02*
X46740576Y-16741633D01*
X46885124Y-17155884D02*
X46185300Y-16805707D01*
X46962687Y-16716003D01*
X46251782Y-16428666D02*
X46323805Y-16020206D01*
X46566397Y-16289760D01*
X46583018Y-16195500D01*
X46629270Y-16138861D01*
X46669982Y-16113643D01*
X46745865Y-16094626D01*
X46921724Y-16125635D01*
X46986527Y-16169458D01*
X47016159Y-16207080D01*
X47040250Y-16276122D01*
X47007009Y-16464642D01*
X46960756Y-16521281D01*
X46920045Y-16546499D01*
X46421598Y-15259922D02*
X47271510Y-15992930D01*
X46886050Y-14888261D02*
X46847268Y-15108201D01*
X47234157Y-15176420D02*
X46495551Y-15046184D01*
X46550953Y-14731983D01*
X46891339Y-14241254D02*
X47383742Y-14328078D01*
X46582264Y-14348741D02*
X47082138Y-14598867D01*
X47154161Y-14190406D01*
X43488612Y-16550701D02*
X44265999Y-16460997D01*
X43566175Y-16110821D01*
X44339701Y-15631672D02*
X44369333Y-15669294D01*
X44387884Y-15769756D01*
X44376803Y-15832596D01*
X44325011Y-15920654D01*
X44243587Y-15971091D01*
X44167704Y-15990108D01*
X44021477Y-15996721D01*
X43915962Y-15978116D01*
X43780815Y-15921889D01*
X43716012Y-15878065D01*
X43656749Y-15802822D01*
X43638198Y-15702360D01*
X43649278Y-15639520D01*
X43701070Y-15551461D01*
X43741782Y-15526243D01*
X44456046Y-14971851D02*
X44485677Y-15009473D01*
X44504228Y-15109935D01*
X44493148Y-15172775D01*
X44441355Y-15260833D01*
X44359932Y-15311270D01*
X44284048Y-15330286D01*
X44137821Y-15336900D01*
X44032306Y-15318294D01*
X43897159Y-15262068D01*
X43832356Y-15218244D01*
X43773093Y-15143000D01*
X43754542Y-15042539D01*
X43765622Y-14979698D01*
X43817415Y-14891640D01*
X43858127Y-14866422D01*
X41905852Y-15737069D02*
X41515354Y-15894992D01*
X41839370Y-16114109D02*
X41100764Y-15983873D01*
X41145086Y-15732513D01*
X41191338Y-15675874D01*
X41232050Y-15650656D01*
X41307933Y-15631639D01*
X41413448Y-15650244D01*
X41478252Y-15694068D01*
X41507883Y-15731690D01*
X41531974Y-15800732D01*
X41487653Y-16052092D01*
X41915002Y-15479506D02*
X41966795Y-15391448D01*
X41994496Y-15234348D01*
X41970404Y-15165306D01*
X41940773Y-15127684D01*
X41875970Y-15083860D01*
X41805626Y-15071457D01*
X41729743Y-15090474D01*
X41689031Y-15115692D01*
X41642779Y-15172330D01*
X41585446Y-15291809D01*
X41539194Y-15348447D01*
X41498482Y-15373666D01*
X41422598Y-15392682D01*
X41352255Y-15380279D01*
X41287452Y-15336455D01*
X41257820Y-15298834D01*
X41233729Y-15229792D01*
X41261430Y-15072691D01*
X41313222Y-14984633D01*
X41311292Y-14789911D02*
X41377774Y-14412870D01*
X42083139Y-14731627D02*
X41344533Y-14601391D01*
X38666228Y-15311621D02*
X38619976Y-15368260D01*
X38603356Y-15462520D01*
X38621907Y-15562982D01*
X38681170Y-15638225D01*
X38745973Y-15682049D01*
X38881120Y-15738276D01*
X38986635Y-15756881D01*
X39132862Y-15750268D01*
X39208745Y-15731251D01*
X39290169Y-15680814D01*
X39341961Y-15592756D01*
X39353042Y-15529916D01*
X39334491Y-15429454D01*
X39304859Y-15391832D01*
X39058657Y-15348420D01*
X39036496Y-15474100D01*
X39425064Y-15121455D02*
X38686459Y-14991219D01*
X39491547Y-14744415D01*
X38752941Y-14614178D01*
X39546949Y-14430214D02*
X38808343Y-14299978D01*
X38836044Y-14142878D01*
X38887836Y-14054819D01*
X38969260Y-14004382D01*
X39045144Y-13985366D01*
X39191371Y-13978753D01*
X39296886Y-13997358D01*
X39432033Y-14053585D01*
X39496836Y-14097408D01*
X39556099Y-14172652D01*
X39574650Y-14273114D01*
X39546949Y-14430214D01*
X36866713Y-14945723D02*
X36476214Y-15103646D01*
X36800230Y-15322763D02*
X36061624Y-15192527D01*
X36105946Y-14941167D01*
X36152198Y-14884528D01*
X36192910Y-14859310D01*
X36268794Y-14840293D01*
X36374309Y-14858899D01*
X36439112Y-14902722D01*
X36468744Y-14940344D01*
X36492835Y-15009386D01*
X36448513Y-15260746D01*
X36700004Y-14657152D02*
X36755406Y-14342951D01*
X36899954Y-14757202D02*
X36200130Y-14407026D01*
X36977517Y-14317322D01*
X36266612Y-14029985D02*
X37032919Y-14003121D01*
X36527504Y-13784415D01*
X37077240Y-13751761D01*
X36366336Y-13464424D01*
D10*
%TD*%
M02*
