%TF.GenerationSoftware,KiCad,Pcbnew,(5.1.9-0-10_14)*%
%TF.CreationDate,2021-06-24T13:30:28+09:00*%
%TF.ProjectId,reviung5,72657669-756e-4673-952e-6b696361645f,1*%
%TF.SameCoordinates,PX1c9c380PY1c9c380*%
%TF.FileFunction,Legend,Bot*%
%TF.FilePolarity,Positive*%
%FSLAX46Y46*%
G04 Gerber Fmt 4.6, Leading zero omitted, Abs format (unit mm)*
G04 Created by KiCad (PCBNEW (5.1.9-0-10_14)) date 2021-06-24 13:30:28*
%MOMM*%
%LPD*%
G01*
G04 APERTURE LIST*
%ADD10C,0.150000*%
%ADD11C,0.010000*%
%ADD12C,0.100000*%
%ADD13C,0.120000*%
G04 APERTURE END LIST*
D10*
X62333102Y-24611486D02*
X62702965Y-24241520D01*
X62839574Y-24700791D02*
X62995857Y-23814464D01*
X62658209Y-23754928D01*
X62566355Y-23782250D01*
X62516707Y-23817013D01*
X62459617Y-23893984D01*
X62437290Y-24020602D01*
X62464612Y-24112456D01*
X62499376Y-24162104D01*
X62576346Y-24219194D01*
X62913995Y-24278731D01*
X62035110Y-24080241D02*
X61739667Y-24028147D01*
X61531187Y-24470087D02*
X61953247Y-24544508D01*
X62109530Y-23658181D01*
X61687470Y-23583760D01*
X61434234Y-23539108D02*
X60982508Y-24373340D01*
X60843349Y-23434919D01*
X60391623Y-24269151D02*
X60547907Y-23382824D01*
X60125846Y-23308404D02*
X59999331Y-24025906D01*
X59942241Y-24102877D01*
X59892593Y-24137641D01*
X59800739Y-24164962D01*
X59631915Y-24135194D01*
X59554945Y-24078104D01*
X59520181Y-24028456D01*
X59492859Y-23936602D01*
X59619374Y-23219099D01*
X59041030Y-24031005D02*
X59197313Y-23144678D01*
X58534557Y-23941700D01*
X58690841Y-23055374D01*
X57797072Y-22941296D02*
X57888926Y-22913974D01*
X58015544Y-22936300D01*
X58134720Y-23000833D01*
X58204248Y-23100129D01*
X58231570Y-23191983D01*
X58244008Y-23368249D01*
X58221682Y-23494867D01*
X58149707Y-23656250D01*
X58092617Y-23733220D01*
X57993321Y-23802748D01*
X57859261Y-23822627D01*
X57774848Y-23807743D01*
X57655672Y-23743211D01*
X57620908Y-23693563D01*
X57673003Y-23398121D01*
X57841827Y-23427889D01*
X56960393Y-22750249D02*
X57382453Y-22824669D01*
X57350239Y-23254172D01*
X57315475Y-23204524D01*
X57238505Y-23147434D01*
X57027474Y-23110223D01*
X56935620Y-23137545D01*
X56885972Y-23172309D01*
X56828882Y-23249279D01*
X56791672Y-23460310D01*
X56818994Y-23552164D01*
X56853758Y-23601812D01*
X56930728Y-23658902D01*
X57141758Y-23696112D01*
X57233612Y-23668790D01*
X57283260Y-23634026D01*
X55706752Y-23443082D02*
X55810941Y-22852197D01*
X55781173Y-23021022D02*
X55753851Y-22929168D01*
X55719087Y-22879519D01*
X55642117Y-22822429D01*
X55557705Y-22807545D01*
X54827867Y-23244593D02*
X54904837Y-23301683D01*
X55073662Y-23331451D01*
X55165516Y-23304129D01*
X55222606Y-23227159D01*
X55282142Y-22889511D01*
X55254820Y-22797657D01*
X55177850Y-22740567D01*
X55009026Y-22710798D01*
X54917172Y-22738120D01*
X54860082Y-22815090D01*
X54845198Y-22899502D01*
X55252374Y-23058335D01*
X54586966Y-22636378D02*
X54271747Y-23190052D01*
X54164905Y-22561957D01*
X53258802Y-23011442D02*
X53765274Y-23100747D01*
X53512038Y-23056095D02*
X53668321Y-22169768D01*
X53730407Y-22311270D01*
X53799935Y-22410566D01*
X53876905Y-22467656D01*
X52893831Y-22860052D02*
X52844183Y-22894816D01*
X52878947Y-22944464D01*
X52928595Y-22909700D01*
X52893831Y-22860052D01*
X52878947Y-22944464D01*
X52444346Y-21953948D02*
X52359934Y-21939064D01*
X52268080Y-21966386D01*
X52218431Y-22001150D01*
X52161341Y-22078120D01*
X52089367Y-22239502D01*
X52052157Y-22450532D01*
X52064594Y-22626798D01*
X52091916Y-22718652D01*
X52126680Y-22768301D01*
X52203650Y-22825391D01*
X52288062Y-22840275D01*
X52379917Y-22812953D01*
X52429565Y-22778189D01*
X52486655Y-22701219D01*
X52558629Y-22539837D01*
X52595840Y-22328807D01*
X52583402Y-22152540D01*
X52556080Y-22060686D01*
X52521316Y-22011038D01*
X52444346Y-21953948D01*
X50937469Y-22602129D02*
X51093752Y-21715802D01*
X50882722Y-21678592D01*
X50748662Y-21698471D01*
X50649366Y-21767999D01*
X50592275Y-21844969D01*
X50520301Y-22006351D01*
X50497975Y-22132970D01*
X50510413Y-22309236D01*
X50537735Y-22401090D01*
X50607263Y-22500386D01*
X50726439Y-22564919D01*
X50937469Y-22602129D01*
X49720936Y-22344103D02*
X49797906Y-22401193D01*
X49966730Y-22430961D01*
X50058584Y-22403639D01*
X50115674Y-22326669D01*
X50175211Y-21989021D01*
X50147889Y-21897167D01*
X50070919Y-21840077D01*
X49902095Y-21810308D01*
X49810240Y-21837630D01*
X49753150Y-21914600D01*
X49738266Y-21999012D01*
X50145442Y-22157845D01*
X49341081Y-22277124D02*
X49249227Y-22304446D01*
X49080403Y-22274678D01*
X49003433Y-22217588D01*
X48976111Y-22125734D01*
X48983553Y-22083528D01*
X49040643Y-22006558D01*
X49132497Y-21979236D01*
X49259116Y-22001562D01*
X49350970Y-21974240D01*
X49408060Y-21897270D01*
X49415502Y-21855064D01*
X49388180Y-21763210D01*
X49311210Y-21706120D01*
X49184592Y-21683793D01*
X49092738Y-21711115D01*
X48573930Y-22185373D02*
X48678119Y-21594489D01*
X48730214Y-21299046D02*
X48764978Y-21348694D01*
X48715330Y-21383458D01*
X48680566Y-21333810D01*
X48730214Y-21299046D01*
X48715330Y-21383458D01*
X47876204Y-21453089D02*
X47749689Y-22170592D01*
X47777011Y-22262446D01*
X47811775Y-22312094D01*
X47888745Y-22369185D01*
X48015363Y-22391511D01*
X48107217Y-22364189D01*
X47779458Y-22001768D02*
X47856428Y-22058858D01*
X48025252Y-22088626D01*
X48117106Y-22061304D01*
X48166754Y-22026540D01*
X48223844Y-21949570D01*
X48268497Y-21696334D01*
X48241175Y-21604480D01*
X48206411Y-21554832D01*
X48129441Y-21497742D01*
X47960616Y-21467973D01*
X47868762Y-21495295D01*
X47454144Y-21378669D02*
X47349955Y-21969553D01*
X47439260Y-21463081D02*
X47404496Y-21413433D01*
X47327526Y-21356342D01*
X47200908Y-21334016D01*
X47109053Y-21361338D01*
X47051963Y-21438308D01*
X46970101Y-21902575D01*
X46217834Y-21726412D02*
X46294804Y-21783502D01*
X46463628Y-21813270D01*
X46555482Y-21785948D01*
X46612572Y-21708978D01*
X46672109Y-21371330D01*
X46644787Y-21279475D01*
X46567817Y-21222385D01*
X46398993Y-21192617D01*
X46307139Y-21219939D01*
X46250048Y-21296909D01*
X46235164Y-21381321D01*
X46642341Y-21540154D01*
X45408477Y-21627218D02*
X45564760Y-20740891D01*
X45415919Y-21585012D02*
X45492889Y-21642102D01*
X45661713Y-21671871D01*
X45753567Y-21644549D01*
X45803215Y-21609785D01*
X45860306Y-21532815D01*
X45904958Y-21279579D01*
X45877636Y-21187724D01*
X45842872Y-21138076D01*
X45765902Y-21080986D01*
X45597078Y-21051218D01*
X45505224Y-21078540D01*
X44311120Y-21433725D02*
X44467403Y-20547398D01*
X44407866Y-20885046D02*
X44330896Y-20827956D01*
X44162072Y-20798188D01*
X44070218Y-20825510D01*
X44020570Y-20860274D01*
X43963480Y-20937244D01*
X43918827Y-21190480D01*
X43946149Y-21282334D01*
X43980913Y-21331982D01*
X44057883Y-21389072D01*
X44226708Y-21418841D01*
X44318562Y-21391519D01*
X43697806Y-20716325D02*
X43382587Y-21269999D01*
X43275745Y-20641904D02*
X43382587Y-21269999D01*
X43429788Y-21495914D01*
X43464552Y-21545562D01*
X43541522Y-21602652D01*
X41882946Y-20396316D02*
X41756431Y-21113819D01*
X41783753Y-21205673D01*
X41818517Y-21255321D01*
X41895487Y-21312411D01*
X42022105Y-21334738D01*
X42113959Y-21307416D01*
X41786199Y-20944995D02*
X41863169Y-21002085D01*
X42031993Y-21031853D01*
X42123847Y-21004531D01*
X42173495Y-20969767D01*
X42230586Y-20892797D01*
X42275238Y-20639561D01*
X42247916Y-20547707D01*
X42213152Y-20498059D01*
X42136182Y-20440969D01*
X41967358Y-20411200D01*
X41875504Y-20438522D01*
X41587503Y-20344222D02*
X41249855Y-20284685D01*
X41512980Y-20026453D02*
X41379023Y-20786162D01*
X41321932Y-20863132D01*
X41230078Y-20890454D01*
X41145666Y-20875570D01*
X40850224Y-20823475D02*
X40954413Y-20232591D01*
X41006507Y-19937148D02*
X41041271Y-19986796D01*
X40991623Y-20021560D01*
X40956859Y-19971912D01*
X41006507Y-19937148D01*
X40991623Y-20021560D01*
X40532352Y-20158170D02*
X40376069Y-21044497D01*
X40524910Y-20200376D02*
X40447940Y-20143286D01*
X40279116Y-20113518D01*
X40187262Y-20140840D01*
X40137614Y-20175604D01*
X40080524Y-20252574D01*
X40035871Y-20505810D01*
X40063193Y-20597664D01*
X40097957Y-20647312D01*
X40174927Y-20704402D01*
X40343751Y-20734171D01*
X40435605Y-20706849D01*
X39675897Y-20572891D02*
X39584042Y-20600213D01*
X39415218Y-20570445D01*
X39338248Y-20513355D01*
X39310926Y-20421501D01*
X39318368Y-20379295D01*
X39375459Y-20302325D01*
X39467313Y-20275003D01*
X39593931Y-20297329D01*
X39685785Y-20270007D01*
X39742875Y-20193037D01*
X39750317Y-20150831D01*
X39722995Y-20058977D01*
X39646025Y-20001887D01*
X39519407Y-19979560D01*
X39427553Y-20006882D01*
X38417054Y-19567595D02*
X38382290Y-19517946D01*
X38305320Y-19460856D01*
X38094290Y-19423646D01*
X38002436Y-19450968D01*
X37952788Y-19485732D01*
X37895698Y-19562702D01*
X37880813Y-19647114D01*
X37900693Y-19781174D01*
X38317861Y-20376951D01*
X37769182Y-20280205D01*
X37376787Y-19297131D02*
X37292375Y-19282247D01*
X37200521Y-19309569D01*
X37150873Y-19344333D01*
X37093783Y-19421303D01*
X37021808Y-19582685D01*
X36984598Y-19793715D01*
X36997036Y-19969981D01*
X37024358Y-20061835D01*
X37059122Y-20111483D01*
X37136092Y-20168574D01*
X37220504Y-20183458D01*
X37312358Y-20156136D01*
X37362006Y-20121372D01*
X37419096Y-20044402D01*
X37491071Y-19883020D01*
X37528281Y-19671989D01*
X37515843Y-19495723D01*
X37488521Y-19403869D01*
X37453757Y-19354221D01*
X37376787Y-19297131D01*
X36728812Y-19269912D02*
X36694048Y-19220264D01*
X36617078Y-19163174D01*
X36406048Y-19125963D01*
X36314194Y-19153285D01*
X36264546Y-19188049D01*
X36207456Y-19265019D01*
X36192572Y-19349431D01*
X36212451Y-19483492D01*
X36629619Y-20079269D01*
X36080941Y-19982522D01*
X35236820Y-19833681D02*
X35743292Y-19922986D01*
X35490056Y-19878333D02*
X35646339Y-18992006D01*
X35708425Y-19133508D01*
X35777953Y-19232805D01*
X35854923Y-19289895D01*
D11*
%TO.C,G\u002A\u002A\u002A*%
G36*
X42885860Y-6869915D02*
G01*
X42559226Y-6842663D01*
X42337028Y-6848688D01*
X42303490Y-6856526D01*
X42131960Y-6935761D01*
X42000202Y-7064939D01*
X41893164Y-7274510D01*
X41795798Y-7594922D01*
X41693054Y-8056626D01*
X41681088Y-8115804D01*
X41501122Y-9011572D01*
X42080595Y-9140230D01*
X42660066Y-9268887D01*
X42773752Y-8624144D01*
X42857884Y-8230589D01*
X42946450Y-7992797D01*
X43029841Y-7898208D01*
X43154577Y-7868126D01*
X43228180Y-7988154D01*
X43228606Y-7989456D01*
X43229772Y-8123503D01*
X43201958Y-8401119D01*
X43150020Y-8794060D01*
X43078813Y-9274081D01*
X42993192Y-9812939D01*
X42898014Y-10382390D01*
X42798133Y-10954189D01*
X42698405Y-11500093D01*
X42603683Y-11991857D01*
X42518824Y-12401239D01*
X42448684Y-12699992D01*
X42398116Y-12859874D01*
X42388718Y-12875273D01*
X42241627Y-12929834D01*
X42162237Y-12905314D01*
X42105361Y-12838176D01*
X42085504Y-12705244D01*
X42103254Y-12473751D01*
X42159203Y-12110926D01*
X42178569Y-11999595D01*
X42255991Y-11611014D01*
X42329470Y-11334937D01*
X42391534Y-11197439D01*
X42411395Y-11187065D01*
X42472806Y-11116922D01*
X42540073Y-10919909D01*
X42582481Y-10724680D01*
X42666712Y-10246980D01*
X41363893Y-10017258D01*
X40720671Y-13665149D01*
X40934753Y-13702898D01*
X41163900Y-13668577D01*
X41275207Y-13579794D01*
X41401581Y-13418942D01*
X41657646Y-13647228D01*
X41955677Y-13835810D01*
X42367570Y-13955268D01*
X42409556Y-13962945D01*
X42716570Y-14004398D01*
X42927271Y-13987327D01*
X43115293Y-13900457D01*
X43204047Y-13841260D01*
X43502696Y-13632144D01*
X44017681Y-10711521D01*
X44166695Y-9859766D01*
X44284311Y-9164195D01*
X44371297Y-8607564D01*
X44428427Y-8172625D01*
X44456469Y-7842133D01*
X44456196Y-7598842D01*
X44428376Y-7425507D01*
X44373784Y-7304880D01*
X44293186Y-7219716D01*
X44187356Y-7152770D01*
X44176979Y-7147239D01*
X43962488Y-7069104D01*
X43640480Y-6991358D01*
X43263941Y-6922220D01*
X42885860Y-6869915D01*
G37*
X42885860Y-6869915D02*
X42559226Y-6842663D01*
X42337028Y-6848688D01*
X42303490Y-6856526D01*
X42131960Y-6935761D01*
X42000202Y-7064939D01*
X41893164Y-7274510D01*
X41795798Y-7594922D01*
X41693054Y-8056626D01*
X41681088Y-8115804D01*
X41501122Y-9011572D01*
X42080595Y-9140230D01*
X42660066Y-9268887D01*
X42773752Y-8624144D01*
X42857884Y-8230589D01*
X42946450Y-7992797D01*
X43029841Y-7898208D01*
X43154577Y-7868126D01*
X43228180Y-7988154D01*
X43228606Y-7989456D01*
X43229772Y-8123503D01*
X43201958Y-8401119D01*
X43150020Y-8794060D01*
X43078813Y-9274081D01*
X42993192Y-9812939D01*
X42898014Y-10382390D01*
X42798133Y-10954189D01*
X42698405Y-11500093D01*
X42603683Y-11991857D01*
X42518824Y-12401239D01*
X42448684Y-12699992D01*
X42398116Y-12859874D01*
X42388718Y-12875273D01*
X42241627Y-12929834D01*
X42162237Y-12905314D01*
X42105361Y-12838176D01*
X42085504Y-12705244D01*
X42103254Y-12473751D01*
X42159203Y-12110926D01*
X42178569Y-11999595D01*
X42255991Y-11611014D01*
X42329470Y-11334937D01*
X42391534Y-11197439D01*
X42411395Y-11187065D01*
X42472806Y-11116922D01*
X42540073Y-10919909D01*
X42582481Y-10724680D01*
X42666712Y-10246980D01*
X41363893Y-10017258D01*
X40720671Y-13665149D01*
X40934753Y-13702898D01*
X41163900Y-13668577D01*
X41275207Y-13579794D01*
X41401581Y-13418942D01*
X41657646Y-13647228D01*
X41955677Y-13835810D01*
X42367570Y-13955268D01*
X42409556Y-13962945D01*
X42716570Y-14004398D01*
X42927271Y-13987327D01*
X43115293Y-13900457D01*
X43204047Y-13841260D01*
X43502696Y-13632144D01*
X44017681Y-10711521D01*
X44166695Y-9859766D01*
X44284311Y-9164195D01*
X44371297Y-8607564D01*
X44428427Y-8172625D01*
X44456469Y-7842133D01*
X44456196Y-7598842D01*
X44428376Y-7425507D01*
X44373784Y-7304880D01*
X44293186Y-7219716D01*
X44187356Y-7152770D01*
X44176979Y-7147239D01*
X43962488Y-7069104D01*
X43640480Y-6991358D01*
X43263941Y-6922220D01*
X42885860Y-6869915D01*
G36*
X47125678Y-7636974D02*
G01*
X46957257Y-7638344D01*
X46867265Y-7693551D01*
X46821728Y-7778030D01*
X46765316Y-7920274D01*
X46658301Y-8195997D01*
X46512781Y-8573814D01*
X46340852Y-9022333D01*
X46199558Y-9392258D01*
X45655537Y-10818768D01*
X45926759Y-9142658D01*
X46197980Y-7466548D01*
X45159475Y-7283432D01*
X43934291Y-14231797D01*
X45028956Y-14424816D01*
X45607892Y-12847742D01*
X45794341Y-12346816D01*
X45965907Y-11898872D01*
X46111443Y-11531998D01*
X46219803Y-11274277D01*
X46279841Y-11153796D01*
X46280562Y-11152864D01*
X46292290Y-11198391D01*
X46271297Y-11393106D01*
X46221321Y-11713612D01*
X46146098Y-12136517D01*
X46049364Y-12638425D01*
X46019724Y-12786027D01*
X45665149Y-14536994D01*
X46713637Y-14721871D01*
X47938822Y-7773506D01*
X47419349Y-7681909D01*
X47125678Y-7636974D01*
G37*
X47125678Y-7636974D02*
X46957257Y-7638344D01*
X46867265Y-7693551D01*
X46821728Y-7778030D01*
X46765316Y-7920274D01*
X46658301Y-8195997D01*
X46512781Y-8573814D01*
X46340852Y-9022333D01*
X46199558Y-9392258D01*
X45655537Y-10818768D01*
X45926759Y-9142658D01*
X46197980Y-7466548D01*
X45159475Y-7283432D01*
X43934291Y-14231797D01*
X45028956Y-14424816D01*
X45607892Y-12847742D01*
X45794341Y-12346816D01*
X45965907Y-11898872D01*
X46111443Y-11531998D01*
X46219803Y-11274277D01*
X46279841Y-11153796D01*
X46280562Y-11152864D01*
X46292290Y-11198391D01*
X46271297Y-11393106D01*
X46221321Y-11713612D01*
X46146098Y-12136517D01*
X46049364Y-12638425D01*
X46019724Y-12786027D01*
X45665149Y-14536994D01*
X46713637Y-14721871D01*
X47938822Y-7773506D01*
X47419349Y-7681909D01*
X47125678Y-7636974D01*
G36*
X49493848Y-11143912D02*
G01*
X49351939Y-11946025D01*
X49236215Y-12590913D01*
X49142867Y-13095171D01*
X49068088Y-13475393D01*
X49008067Y-13748176D01*
X48958996Y-13930114D01*
X48917068Y-14037801D01*
X48878471Y-14087834D01*
X48839400Y-14096807D01*
X48817526Y-14090715D01*
X48779810Y-14065209D01*
X48755267Y-14010453D01*
X48745918Y-13909125D01*
X48753790Y-13743908D01*
X48780908Y-13497483D01*
X48829294Y-13152528D01*
X48900975Y-12691726D01*
X48997975Y-12097758D01*
X49122318Y-11353304D01*
X49172160Y-11057032D01*
X49673632Y-8079400D01*
X48459949Y-7865395D01*
X47955909Y-10754222D01*
X47833678Y-11466768D01*
X47721832Y-12141822D01*
X47624105Y-12755042D01*
X47544227Y-13282084D01*
X47485936Y-13698604D01*
X47452961Y-13980259D01*
X47446891Y-14073443D01*
X47458268Y-14379853D01*
X47519307Y-14597831D01*
X47657924Y-14751854D01*
X47902037Y-14866403D01*
X48279564Y-14965954D01*
X48522897Y-15016915D01*
X48906985Y-15085887D01*
X49242942Y-15131275D01*
X49481920Y-15147175D01*
X49553300Y-15141455D01*
X49669541Y-15112107D01*
X49767399Y-15072577D01*
X49851943Y-15006463D01*
X49928248Y-14897362D01*
X50001383Y-14728872D01*
X50076421Y-14484592D01*
X50158432Y-14148120D01*
X50252490Y-13703053D01*
X50363666Y-13132991D01*
X50497031Y-12421531D01*
X50649561Y-11596157D01*
X51247200Y-8356862D01*
X50023332Y-8141061D01*
X49493848Y-11143912D01*
G37*
X49493848Y-11143912D02*
X49351939Y-11946025D01*
X49236215Y-12590913D01*
X49142867Y-13095171D01*
X49068088Y-13475393D01*
X49008067Y-13748176D01*
X48958996Y-13930114D01*
X48917068Y-14037801D01*
X48878471Y-14087834D01*
X48839400Y-14096807D01*
X48817526Y-14090715D01*
X48779810Y-14065209D01*
X48755267Y-14010453D01*
X48745918Y-13909125D01*
X48753790Y-13743908D01*
X48780908Y-13497483D01*
X48829294Y-13152528D01*
X48900975Y-12691726D01*
X48997975Y-12097758D01*
X49122318Y-11353304D01*
X49172160Y-11057032D01*
X49673632Y-8079400D01*
X48459949Y-7865395D01*
X47955909Y-10754222D01*
X47833678Y-11466768D01*
X47721832Y-12141822D01*
X47624105Y-12755042D01*
X47544227Y-13282084D01*
X47485936Y-13698604D01*
X47452961Y-13980259D01*
X47446891Y-14073443D01*
X47458268Y-14379853D01*
X47519307Y-14597831D01*
X47657924Y-14751854D01*
X47902037Y-14866403D01*
X48279564Y-14965954D01*
X48522897Y-15016915D01*
X48906985Y-15085887D01*
X49242942Y-15131275D01*
X49481920Y-15147175D01*
X49553300Y-15141455D01*
X49669541Y-15112107D01*
X49767399Y-15072577D01*
X49851943Y-15006463D01*
X49928248Y-14897362D01*
X50001383Y-14728872D01*
X50076421Y-14484592D01*
X50158432Y-14148120D01*
X50252490Y-13703053D01*
X50363666Y-13132991D01*
X50497031Y-12421531D01*
X50649561Y-11596157D01*
X51247200Y-8356862D01*
X50023332Y-8141061D01*
X49493848Y-11143912D01*
G36*
X50535239Y-15395723D02*
G01*
X51751203Y-15610130D01*
X52976387Y-8661764D01*
X51760423Y-8447357D01*
X50535239Y-15395723D01*
G37*
X50535239Y-15395723D02*
X51751203Y-15610130D01*
X52976387Y-8661764D01*
X51760423Y-8447357D01*
X50535239Y-15395723D01*
G36*
X54974950Y-9484328D02*
G01*
X54906994Y-9815962D01*
X54834431Y-10129002D01*
X54806192Y-10237031D01*
X54759948Y-10421223D01*
X54684482Y-10742186D01*
X54587965Y-11164314D01*
X54478561Y-11651995D01*
X54395721Y-12026797D01*
X54288072Y-12509439D01*
X54192605Y-12923200D01*
X54115795Y-13241150D01*
X54064122Y-13436354D01*
X54044839Y-13485705D01*
X54037268Y-13370216D01*
X54054119Y-13080886D01*
X54095308Y-12618554D01*
X54160754Y-11984058D01*
X54250373Y-11178236D01*
X54364084Y-10201926D01*
X54387173Y-10007573D01*
X54515161Y-8933092D01*
X53962910Y-8835715D01*
X53657034Y-8788907D01*
X53483818Y-8786771D01*
X53404361Y-8832990D01*
X53384607Y-8890466D01*
X53372955Y-9010686D01*
X53351190Y-9286357D01*
X53320780Y-9696925D01*
X53283199Y-10221832D01*
X53239916Y-10840521D01*
X53192403Y-11532437D01*
X53142129Y-12277024D01*
X53139953Y-12309536D01*
X53089800Y-13054079D01*
X53042603Y-13745249D01*
X52999795Y-14362784D01*
X52962808Y-14886414D01*
X52933073Y-15295875D01*
X52912024Y-15570901D01*
X52901093Y-15691226D01*
X52900832Y-15692851D01*
X52936645Y-15762627D01*
X53087026Y-15827075D01*
X53376531Y-15894898D01*
X53575148Y-15931741D01*
X53899423Y-15981183D01*
X54146468Y-16004187D01*
X54274370Y-15997338D01*
X54283165Y-15989417D01*
X54311807Y-15884870D01*
X54380782Y-15644993D01*
X54480286Y-15303570D01*
X54600518Y-14894386D01*
X54623065Y-14817970D01*
X54762197Y-14345729D01*
X54898277Y-13882113D01*
X55015532Y-13480956D01*
X55097067Y-13200004D01*
X55167804Y-12954819D01*
X55277161Y-12576288D01*
X55414705Y-12100495D01*
X55570006Y-11563524D01*
X55732630Y-11001460D01*
X55743701Y-10963205D01*
X56243053Y-9237766D01*
X55060897Y-9029320D01*
X54974950Y-9484328D01*
G37*
X54974950Y-9484328D02*
X54906994Y-9815962D01*
X54834431Y-10129002D01*
X54806192Y-10237031D01*
X54759948Y-10421223D01*
X54684482Y-10742186D01*
X54587965Y-11164314D01*
X54478561Y-11651995D01*
X54395721Y-12026797D01*
X54288072Y-12509439D01*
X54192605Y-12923200D01*
X54115795Y-13241150D01*
X54064122Y-13436354D01*
X54044839Y-13485705D01*
X54037268Y-13370216D01*
X54054119Y-13080886D01*
X54095308Y-12618554D01*
X54160754Y-11984058D01*
X54250373Y-11178236D01*
X54364084Y-10201926D01*
X54387173Y-10007573D01*
X54515161Y-8933092D01*
X53962910Y-8835715D01*
X53657034Y-8788907D01*
X53483818Y-8786771D01*
X53404361Y-8832990D01*
X53384607Y-8890466D01*
X53372955Y-9010686D01*
X53351190Y-9286357D01*
X53320780Y-9696925D01*
X53283199Y-10221832D01*
X53239916Y-10840521D01*
X53192403Y-11532437D01*
X53142129Y-12277024D01*
X53139953Y-12309536D01*
X53089800Y-13054079D01*
X53042603Y-13745249D01*
X52999795Y-14362784D01*
X52962808Y-14886414D01*
X52933073Y-15295875D01*
X52912024Y-15570901D01*
X52901093Y-15691226D01*
X52900832Y-15692851D01*
X52936645Y-15762627D01*
X53087026Y-15827075D01*
X53376531Y-15894898D01*
X53575148Y-15931741D01*
X53899423Y-15981183D01*
X54146468Y-16004187D01*
X54274370Y-15997338D01*
X54283165Y-15989417D01*
X54311807Y-15884870D01*
X54380782Y-15644993D01*
X54480286Y-15303570D01*
X54600518Y-14894386D01*
X54623065Y-14817970D01*
X54762197Y-14345729D01*
X54898277Y-13882113D01*
X55015532Y-13480956D01*
X55097067Y-13200004D01*
X55167804Y-12954819D01*
X55277161Y-12576288D01*
X55414705Y-12100495D01*
X55570006Y-11563524D01*
X55732630Y-11001460D01*
X55743701Y-10963205D01*
X56243053Y-9237766D01*
X55060897Y-9029320D01*
X54974950Y-9484328D01*
G36*
X56547705Y-9739259D02*
G01*
X56516532Y-10040262D01*
X56555111Y-10187798D01*
X56578292Y-10200656D01*
X56738324Y-10239366D01*
X56943595Y-10287458D01*
X57201737Y-10347134D01*
X56895441Y-12084226D01*
X56589063Y-12044164D01*
X56364962Y-12016280D01*
X56223708Y-12001278D01*
X56216102Y-12000789D01*
X56164033Y-12077296D01*
X56104660Y-12276261D01*
X56073827Y-12426757D01*
X55998134Y-12856036D01*
X56362556Y-12947831D01*
X56726978Y-13039626D01*
X56525304Y-14235447D01*
X56323629Y-15431267D01*
X55567558Y-15297951D01*
X55399095Y-16253352D01*
X57309895Y-16590277D01*
X58535079Y-9641912D01*
X56624279Y-9304986D01*
X56547705Y-9739259D01*
G37*
X56547705Y-9739259D02*
X56516532Y-10040262D01*
X56555111Y-10187798D01*
X56578292Y-10200656D01*
X56738324Y-10239366D01*
X56943595Y-10287458D01*
X57201737Y-10347134D01*
X56895441Y-12084226D01*
X56589063Y-12044164D01*
X56364962Y-12016280D01*
X56223708Y-12001278D01*
X56216102Y-12000789D01*
X56164033Y-12077296D01*
X56104660Y-12276261D01*
X56073827Y-12426757D01*
X55998134Y-12856036D01*
X56362556Y-12947831D01*
X56726978Y-13039626D01*
X56525304Y-14235447D01*
X56323629Y-15431267D01*
X55567558Y-15297951D01*
X55399095Y-16253352D01*
X57309895Y-16590277D01*
X58535079Y-9641912D01*
X56624279Y-9304986D01*
X56547705Y-9739259D01*
G36*
X60696104Y-10038230D02*
G01*
X60229718Y-9969424D01*
X59903692Y-9928351D01*
X59684087Y-9915675D01*
X59536963Y-9932066D01*
X59428381Y-9978192D01*
X59324401Y-10054718D01*
X59311250Y-10065460D01*
X59128885Y-10301378D01*
X58961878Y-10681789D01*
X58819883Y-11174892D01*
X58712554Y-11748883D01*
X58661110Y-12207204D01*
X58641782Y-12579977D01*
X58661715Y-12830777D01*
X58727846Y-13011031D01*
X58780212Y-13090519D01*
X58891347Y-13252060D01*
X58891050Y-13339522D01*
X58774139Y-13419617D01*
X58753771Y-13430935D01*
X58607705Y-13551254D01*
X58479142Y-13751699D01*
X58360805Y-14053132D01*
X58245422Y-14476408D01*
X58125714Y-15042390D01*
X58051331Y-15444854D01*
X57831023Y-16682166D01*
X59042684Y-16895815D01*
X59315220Y-15489741D01*
X59419021Y-14963128D01*
X59499153Y-14585784D01*
X59563047Y-14333353D01*
X59618133Y-14181477D01*
X59671842Y-14105802D01*
X59731604Y-14081969D01*
X59744898Y-14081281D01*
X59800750Y-14092711D01*
X59833133Y-14145174D01*
X59840417Y-14262878D01*
X59820973Y-14470027D01*
X59773174Y-14790826D01*
X59695390Y-15249483D01*
X59648222Y-15518364D01*
X59394405Y-16957833D01*
X60610369Y-17172240D01*
X61490970Y-12178102D01*
X60275006Y-11963695D01*
X60197279Y-12374053D01*
X60123146Y-12711340D01*
X60060508Y-12943042D01*
X60017269Y-13036646D01*
X60014088Y-13037125D01*
X59908346Y-12962422D01*
X59858757Y-12902270D01*
X59832400Y-12756212D01*
X59844232Y-12487417D01*
X59885898Y-12143284D01*
X59949035Y-11771212D01*
X60025290Y-11418599D01*
X60106303Y-11132848D01*
X60183717Y-10961355D01*
X60204871Y-10939356D01*
X60348682Y-10870429D01*
X60396957Y-10865761D01*
X60408932Y-10951767D01*
X60391505Y-11177774D01*
X60348367Y-11510525D01*
X60283215Y-11916767D01*
X60275006Y-11963695D01*
X61490970Y-12178102D01*
X61837987Y-10210069D01*
X60696104Y-10038230D01*
G37*
X60696104Y-10038230D02*
X60229718Y-9969424D01*
X59903692Y-9928351D01*
X59684087Y-9915675D01*
X59536963Y-9932066D01*
X59428381Y-9978192D01*
X59324401Y-10054718D01*
X59311250Y-10065460D01*
X59128885Y-10301378D01*
X58961878Y-10681789D01*
X58819883Y-11174892D01*
X58712554Y-11748883D01*
X58661110Y-12207204D01*
X58641782Y-12579977D01*
X58661715Y-12830777D01*
X58727846Y-13011031D01*
X58780212Y-13090519D01*
X58891347Y-13252060D01*
X58891050Y-13339522D01*
X58774139Y-13419617D01*
X58753771Y-13430935D01*
X58607705Y-13551254D01*
X58479142Y-13751699D01*
X58360805Y-14053132D01*
X58245422Y-14476408D01*
X58125714Y-15042390D01*
X58051331Y-15444854D01*
X57831023Y-16682166D01*
X59042684Y-16895815D01*
X59315220Y-15489741D01*
X59419021Y-14963128D01*
X59499153Y-14585784D01*
X59563047Y-14333353D01*
X59618133Y-14181477D01*
X59671842Y-14105802D01*
X59731604Y-14081969D01*
X59744898Y-14081281D01*
X59800750Y-14092711D01*
X59833133Y-14145174D01*
X59840417Y-14262878D01*
X59820973Y-14470027D01*
X59773174Y-14790826D01*
X59695390Y-15249483D01*
X59648222Y-15518364D01*
X59394405Y-16957833D01*
X60610369Y-17172240D01*
X61490970Y-12178102D01*
X60275006Y-11963695D01*
X60197279Y-12374053D01*
X60123146Y-12711340D01*
X60060508Y-12943042D01*
X60017269Y-13036646D01*
X60014088Y-13037125D01*
X59908346Y-12962422D01*
X59858757Y-12902270D01*
X59832400Y-12756212D01*
X59844232Y-12487417D01*
X59885898Y-12143284D01*
X59949035Y-11771212D01*
X60025290Y-11418599D01*
X60106303Y-11132848D01*
X60183717Y-10961355D01*
X60204871Y-10939356D01*
X60348682Y-10870429D01*
X60396957Y-10865761D01*
X60408932Y-10951767D01*
X60391505Y-11177774D01*
X60348367Y-11510525D01*
X60283215Y-11916767D01*
X60275006Y-11963695D01*
X61490970Y-12178102D01*
X61837987Y-10210069D01*
X60696104Y-10038230D01*
G36*
X50287110Y-6038864D02*
G01*
X48472172Y-5720669D01*
X46821582Y-5432666D01*
X45336235Y-5175004D01*
X44017031Y-4947837D01*
X42864865Y-4751316D01*
X41880633Y-4585592D01*
X41065232Y-4450817D01*
X40419561Y-4347144D01*
X39944515Y-4274725D01*
X39640991Y-4233710D01*
X39509885Y-4224252D01*
X39504299Y-4226366D01*
X39481966Y-4325437D01*
X39432595Y-4583422D01*
X39358841Y-4985362D01*
X39263357Y-5516301D01*
X39148797Y-6161280D01*
X39017817Y-6905341D01*
X38873068Y-7733527D01*
X38717206Y-8630880D01*
X38552884Y-9582440D01*
X38518194Y-9784009D01*
X37576332Y-15260038D01*
X63022160Y-19746824D01*
X63236567Y-18530860D01*
X61999909Y-18312804D01*
X50502026Y-16285417D01*
X49103931Y-16038600D01*
X47754641Y-15799826D01*
X46464257Y-15570907D01*
X45242879Y-15353663D01*
X44100607Y-15149906D01*
X43047542Y-14961454D01*
X42093785Y-14790122D01*
X41249435Y-14637727D01*
X40524595Y-14506084D01*
X39929363Y-14397008D01*
X39473840Y-14312316D01*
X39168127Y-14253824D01*
X39022325Y-14223348D01*
X39010927Y-14219543D01*
X39053297Y-14130244D01*
X39161317Y-13922649D01*
X39315882Y-13633159D01*
X39409056Y-13460969D01*
X39947093Y-12298127D01*
X40354229Y-11046707D01*
X40624362Y-9742248D01*
X40751390Y-8420285D01*
X40729212Y-7116360D01*
X40635530Y-6317933D01*
X40591336Y-5988180D01*
X40572042Y-5727542D01*
X40580738Y-5583129D01*
X40586592Y-5571769D01*
X40679122Y-5578634D01*
X40935207Y-5614647D01*
X41344733Y-5678093D01*
X41897589Y-5767259D01*
X42583661Y-5880431D01*
X43392835Y-6015894D01*
X44314998Y-6171936D01*
X45340039Y-6346843D01*
X46457843Y-6538899D01*
X47658297Y-6746393D01*
X48931289Y-6967610D01*
X50266705Y-7200835D01*
X51654431Y-7444356D01*
X52114279Y-7525300D01*
X53812717Y-7824791D01*
X55344803Y-8095618D01*
X56717993Y-8339168D01*
X57939746Y-8556827D01*
X59017518Y-8749987D01*
X59958766Y-8920032D01*
X60770949Y-9068349D01*
X61461524Y-9196326D01*
X62037947Y-9305350D01*
X62507677Y-9396810D01*
X62878171Y-9472091D01*
X63156886Y-9532581D01*
X63351279Y-9579669D01*
X63468808Y-9614739D01*
X63516931Y-9639181D01*
X63518147Y-9646760D01*
X63450079Y-9765267D01*
X63320993Y-9998984D01*
X63153062Y-10307582D01*
X63057797Y-10484166D01*
X62506470Y-11690510D01*
X62101982Y-12974560D01*
X61848707Y-14310017D01*
X61751019Y-15670579D01*
X61813297Y-17029945D01*
X61881740Y-17553138D01*
X61999909Y-18312804D01*
X63236567Y-18530860D01*
X64982455Y-8629438D01*
X52265498Y-6387096D01*
X50287110Y-6038864D01*
G37*
X50287110Y-6038864D02*
X48472172Y-5720669D01*
X46821582Y-5432666D01*
X45336235Y-5175004D01*
X44017031Y-4947837D01*
X42864865Y-4751316D01*
X41880633Y-4585592D01*
X41065232Y-4450817D01*
X40419561Y-4347144D01*
X39944515Y-4274725D01*
X39640991Y-4233710D01*
X39509885Y-4224252D01*
X39504299Y-4226366D01*
X39481966Y-4325437D01*
X39432595Y-4583422D01*
X39358841Y-4985362D01*
X39263357Y-5516301D01*
X39148797Y-6161280D01*
X39017817Y-6905341D01*
X38873068Y-7733527D01*
X38717206Y-8630880D01*
X38552884Y-9582440D01*
X38518194Y-9784009D01*
X37576332Y-15260038D01*
X63022160Y-19746824D01*
X63236567Y-18530860D01*
X61999909Y-18312804D01*
X50502026Y-16285417D01*
X49103931Y-16038600D01*
X47754641Y-15799826D01*
X46464257Y-15570907D01*
X45242879Y-15353663D01*
X44100607Y-15149906D01*
X43047542Y-14961454D01*
X42093785Y-14790122D01*
X41249435Y-14637727D01*
X40524595Y-14506084D01*
X39929363Y-14397008D01*
X39473840Y-14312316D01*
X39168127Y-14253824D01*
X39022325Y-14223348D01*
X39010927Y-14219543D01*
X39053297Y-14130244D01*
X39161317Y-13922649D01*
X39315882Y-13633159D01*
X39409056Y-13460969D01*
X39947093Y-12298127D01*
X40354229Y-11046707D01*
X40624362Y-9742248D01*
X40751390Y-8420285D01*
X40729212Y-7116360D01*
X40635530Y-6317933D01*
X40591336Y-5988180D01*
X40572042Y-5727542D01*
X40580738Y-5583129D01*
X40586592Y-5571769D01*
X40679122Y-5578634D01*
X40935207Y-5614647D01*
X41344733Y-5678093D01*
X41897589Y-5767259D01*
X42583661Y-5880431D01*
X43392835Y-6015894D01*
X44314998Y-6171936D01*
X45340039Y-6346843D01*
X46457843Y-6538899D01*
X47658297Y-6746393D01*
X48931289Y-6967610D01*
X50266705Y-7200835D01*
X51654431Y-7444356D01*
X52114279Y-7525300D01*
X53812717Y-7824791D01*
X55344803Y-8095618D01*
X56717993Y-8339168D01*
X57939746Y-8556827D01*
X59017518Y-8749987D01*
X59958766Y-8920032D01*
X60770949Y-9068349D01*
X61461524Y-9196326D01*
X62037947Y-9305350D01*
X62507677Y-9396810D01*
X62878171Y-9472091D01*
X63156886Y-9532581D01*
X63351279Y-9579669D01*
X63468808Y-9614739D01*
X63516931Y-9639181D01*
X63518147Y-9646760D01*
X63450079Y-9765267D01*
X63320993Y-9998984D01*
X63153062Y-10307582D01*
X63057797Y-10484166D01*
X62506470Y-11690510D01*
X62101982Y-12974560D01*
X61848707Y-14310017D01*
X61751019Y-15670579D01*
X61813297Y-17029945D01*
X61881740Y-17553138D01*
X61999909Y-18312804D01*
X63236567Y-18530860D01*
X64982455Y-8629438D01*
X52265498Y-6387096D01*
X50287110Y-6038864D01*
D12*
%TO.C,RGB4*%
G36*
X73188100Y-21239998D02*
G01*
X72585703Y-20818195D01*
X72676000Y-21330295D01*
X73188100Y-21239998D01*
G37*
X73188100Y-21239998D02*
X72585703Y-20818195D01*
X72676000Y-21330295D01*
X73188100Y-21239998D01*
D13*
X77277054Y-18630312D02*
X77606985Y-20501447D01*
X77007899Y-17103860D02*
X77042629Y-17300822D01*
X77876140Y-22027899D02*
X77841410Y-21830937D01*
D12*
G36*
X72917371Y-22699178D02*
G01*
X73902179Y-22525530D01*
X73763261Y-21737684D01*
X74921717Y-22548843D01*
X72952101Y-22896140D01*
X72917371Y-22699178D01*
G37*
X72917371Y-22699178D02*
X73902179Y-22525530D01*
X73763261Y-21737684D01*
X74921717Y-22548843D01*
X72952101Y-22896140D01*
X72917371Y-22699178D01*
D13*
X72674264Y-21320447D02*
X72353015Y-19498553D01*
X72952101Y-22896140D02*
X72919108Y-22709026D01*
X72083860Y-17972101D02*
X72118590Y-18169063D01*
X72952101Y-22896140D02*
X77876140Y-22027899D01*
X77007899Y-17103860D02*
X72083860Y-17972101D01*
D12*
%TO.C,RGB3*%
G36*
X57420000Y-42550000D02*
G01*
X56900000Y-42030000D01*
X56900000Y-42550000D01*
X57420000Y-42550000D01*
G37*
X57420000Y-42550000D02*
X56900000Y-42030000D01*
X56900000Y-42550000D01*
X57420000Y-42550000D01*
D13*
X61900000Y-40690000D02*
X61900000Y-42590000D01*
X61900000Y-39140000D02*
X61900000Y-39340000D01*
X61900000Y-44140000D02*
X61900000Y-43940000D01*
D12*
G36*
X56900000Y-43940000D02*
G01*
X57900000Y-43940000D01*
X57900000Y-43140000D01*
X58900000Y-44140000D01*
X56900000Y-44140000D01*
X56900000Y-43940000D01*
G37*
X56900000Y-43940000D02*
X57900000Y-43940000D01*
X57900000Y-43140000D01*
X58900000Y-44140000D01*
X56900000Y-44140000D01*
X56900000Y-43940000D01*
D13*
X56900000Y-42540000D02*
X56900000Y-40690000D01*
X56900000Y-44140000D02*
X56900000Y-43950000D01*
X56900000Y-39140000D02*
X56900000Y-39340000D01*
X56900000Y-44140000D02*
X61900000Y-44140000D01*
X61900000Y-39140000D02*
X56900000Y-39140000D01*
D12*
%TO.C,RGB2*%
G36*
X38350000Y-42550000D02*
G01*
X37830000Y-42030000D01*
X37830000Y-42550000D01*
X38350000Y-42550000D01*
G37*
X38350000Y-42550000D02*
X37830000Y-42030000D01*
X37830000Y-42550000D01*
X38350000Y-42550000D01*
D13*
X42830000Y-40690000D02*
X42830000Y-42590000D01*
X42830000Y-39140000D02*
X42830000Y-39340000D01*
X42830000Y-44140000D02*
X42830000Y-43940000D01*
D12*
G36*
X37830000Y-43940000D02*
G01*
X38830000Y-43940000D01*
X38830000Y-43140000D01*
X39830000Y-44140000D01*
X37830000Y-44140000D01*
X37830000Y-43940000D01*
G37*
X37830000Y-43940000D02*
X38830000Y-43940000D01*
X38830000Y-43140000D01*
X39830000Y-44140000D01*
X37830000Y-44140000D01*
X37830000Y-43940000D01*
D13*
X37830000Y-42540000D02*
X37830000Y-40690000D01*
X37830000Y-44140000D02*
X37830000Y-43950000D01*
X37830000Y-39140000D02*
X37830000Y-39340000D01*
X37830000Y-44140000D02*
X42830000Y-44140000D01*
X42830000Y-39140000D02*
X37830000Y-39140000D01*
D12*
%TO.C,RGB1*%
G36*
X22662061Y-20552352D02*
G01*
X22240258Y-19949955D01*
X22149961Y-20462055D01*
X22662061Y-20552352D01*
G37*
X22662061Y-20552352D02*
X22240258Y-19949955D01*
X22149961Y-20462055D01*
X22662061Y-20552352D01*
D13*
X27396985Y-19498553D02*
X27067054Y-21369688D01*
X27666140Y-17972101D02*
X27631410Y-18169063D01*
X26797899Y-22896140D02*
X26832629Y-22699178D01*
D12*
G36*
X21908590Y-21830937D02*
G01*
X22893398Y-22004586D01*
X23032316Y-21216739D01*
X23843476Y-22375195D01*
X21873860Y-22027899D01*
X21908590Y-21830937D01*
G37*
X21908590Y-21830937D02*
X22893398Y-22004586D01*
X23032316Y-21216739D01*
X23843476Y-22375195D01*
X21873860Y-22027899D01*
X21908590Y-21830937D01*
D13*
X22151697Y-20452207D02*
X22472946Y-18630312D01*
X21873860Y-22027899D02*
X21906853Y-21840785D01*
X22742101Y-17103860D02*
X22707371Y-17300822D01*
X21873860Y-22027899D02*
X26797899Y-22896140D01*
X27666140Y-17972101D02*
X22742101Y-17103860D01*
D10*
%TO.C,D1*%
X16389217Y-15530244D02*
X16128745Y-17007456D01*
X11071255Y-14592544D02*
X16389217Y-15530244D01*
X10810783Y-16069756D02*
X11071255Y-14592544D01*
X16128745Y-17007456D02*
X10810783Y-16069756D01*
X13020772Y-16205580D02*
X13194420Y-15220772D01*
X14179228Y-15394420D02*
X13206077Y-15730541D01*
X14005580Y-16379228D02*
X14179228Y-15394420D01*
X13206077Y-15730541D02*
X14005580Y-16379228D01*
%TO.C,D2*%
X30400000Y-45250000D02*
X31300000Y-45750000D01*
X31300000Y-45750000D02*
X31300000Y-44750000D01*
X31300000Y-44750000D02*
X30400000Y-45250000D01*
X30300000Y-45750000D02*
X30300000Y-44750000D01*
X33500000Y-46000000D02*
X28100000Y-46000000D01*
X28100000Y-46000000D02*
X28100000Y-44500000D01*
X28100000Y-44500000D02*
X33500000Y-44500000D01*
X33500000Y-44500000D02*
X33500000Y-46000000D01*
%TO.C,D3*%
X55200000Y-28170000D02*
X55200000Y-29670000D01*
X49800000Y-28170000D02*
X55200000Y-28170000D01*
X49800000Y-29670000D02*
X49800000Y-28170000D01*
X55200000Y-29670000D02*
X49800000Y-29670000D01*
X52000000Y-29420000D02*
X52000000Y-28420000D01*
X53000000Y-28420000D02*
X52100000Y-28920000D01*
X53000000Y-29420000D02*
X53000000Y-28420000D01*
X52100000Y-28920000D02*
X53000000Y-29420000D01*
%TO.C,D4*%
X68500000Y-45250000D02*
X69400000Y-45750000D01*
X69400000Y-45750000D02*
X69400000Y-44750000D01*
X69400000Y-44750000D02*
X68500000Y-45250000D01*
X68400000Y-45750000D02*
X68400000Y-44750000D01*
X71600000Y-46000000D02*
X66200000Y-46000000D01*
X66200000Y-46000000D02*
X66200000Y-44500000D01*
X66200000Y-44500000D02*
X71600000Y-44500000D01*
X71600000Y-44500000D02*
X71600000Y-46000000D01*
%TO.C,D5*%
X89008745Y-14682544D02*
X89269217Y-16159756D01*
X83690783Y-15620244D02*
X89008745Y-14682544D01*
X83951255Y-17097456D02*
X83690783Y-15620244D01*
X89269217Y-16159756D02*
X83951255Y-17097456D01*
X86074420Y-16469228D02*
X85900772Y-15484420D01*
X86885580Y-15310772D02*
X86086077Y-15959459D01*
X87059228Y-16295580D02*
X86885580Y-15310772D01*
X86086077Y-15959459D02*
X87059228Y-16295580D01*
D13*
%TO.C,reset1*%
X37360000Y-26350000D02*
X41360000Y-26350000D01*
D10*
X42280000Y-29400000D02*
X42280000Y-29150000D01*
X36280000Y-29400000D02*
X42280000Y-29400000D01*
X36280000Y-29400000D02*
X36280000Y-29150000D01*
X36360000Y-23500000D02*
X36360000Y-23750000D01*
X42360000Y-23500000D02*
X42360000Y-23750000D01*
X36360000Y-23500000D02*
X42360000Y-23500000D01*
%TO.C,RGB4*%
X75310219Y-16833843D02*
X75494403Y-16438713D01*
X75732279Y-16759422D02*
X75602043Y-16020816D01*
X75320669Y-16070430D01*
X75256528Y-16118005D01*
X75227558Y-16159378D01*
X75204789Y-16235924D01*
X75223395Y-16341439D01*
X75270970Y-16405580D01*
X75312343Y-16434550D01*
X75388888Y-16457319D01*
X75670262Y-16407705D01*
X74482750Y-16254443D02*
X74546892Y-16206868D01*
X74652407Y-16188263D01*
X74764124Y-16204829D01*
X74846871Y-16262769D01*
X74894446Y-16326911D01*
X74954424Y-16461396D01*
X74973030Y-16566911D01*
X74962665Y-16713800D01*
X74939896Y-16790345D01*
X74881956Y-16873091D01*
X74782643Y-16926868D01*
X74712300Y-16939272D01*
X74600583Y-16922705D01*
X74559209Y-16893735D01*
X74515797Y-16647533D01*
X74656484Y-16622726D01*
X73940647Y-16676417D02*
X73841333Y-16730194D01*
X73812363Y-16771568D01*
X73789595Y-16848113D01*
X73808200Y-16953628D01*
X73855775Y-17017770D01*
X73897149Y-17046740D01*
X73973694Y-17069508D01*
X74255067Y-17019894D01*
X74124831Y-16281288D01*
X73878629Y-16324700D01*
X73814488Y-16372276D01*
X73785518Y-16413649D01*
X73762749Y-16490194D01*
X73775153Y-16560538D01*
X73822728Y-16624679D01*
X73864101Y-16653649D01*
X73940647Y-16676417D01*
X74186849Y-16633005D01*
X73113092Y-16713542D02*
X73199916Y-17205946D01*
X73239337Y-16401160D02*
X73508221Y-16897727D01*
X73050989Y-16978349D01*
D12*
X81440146Y-20830104D02*
X81309910Y-20091498D01*
X81134052Y-20122506D01*
X81034738Y-20176283D01*
X80976798Y-20259030D01*
X80954030Y-20335575D01*
X80943665Y-20482464D01*
X80962270Y-20587979D01*
X81022249Y-20722464D01*
X81069824Y-20786606D01*
X81152571Y-20844546D01*
X81264288Y-20861112D01*
X81440146Y-20830104D01*
X80430618Y-20246541D02*
X80289931Y-20271348D01*
X80225789Y-20318923D01*
X80167849Y-20401670D01*
X80157484Y-20548558D01*
X80200896Y-20794760D01*
X80260875Y-20929245D01*
X80343622Y-20987185D01*
X80420167Y-21009954D01*
X80560854Y-20985147D01*
X80624995Y-20937571D01*
X80682935Y-20854825D01*
X80693300Y-20707936D01*
X80649888Y-20461734D01*
X80589910Y-20327249D01*
X80507163Y-20269309D01*
X80430618Y-20246541D01*
X79797527Y-20358172D02*
X79902956Y-20956091D01*
X79880188Y-21032636D01*
X79851218Y-21074009D01*
X79787076Y-21121584D01*
X79646389Y-21146391D01*
X79569844Y-21123623D01*
X79528471Y-21094653D01*
X79480896Y-21030511D01*
X79375466Y-20432592D01*
X79129265Y-20476004D02*
X78707204Y-20550425D01*
X79048470Y-21251821D02*
X78918234Y-20513215D01*
X80055967Y-17114008D02*
X79940002Y-17896026D01*
X79563564Y-17200832D01*
X79447598Y-17982850D02*
X79317362Y-17244244D01*
X79141503Y-17275252D01*
X79042190Y-17329029D01*
X78984250Y-17411776D01*
X78961481Y-17488321D01*
X78951117Y-17635210D01*
X78969722Y-17740725D01*
X79029700Y-17875210D01*
X79077276Y-17939352D01*
X79160022Y-17997292D01*
X79271739Y-18013858D01*
X79447598Y-17982850D01*
X78708992Y-18113086D02*
X78578756Y-17374480D01*
X78402897Y-17405489D01*
X78303584Y-17459265D01*
X78245644Y-17542012D01*
X78222876Y-17618557D01*
X78212511Y-17765446D01*
X78231116Y-17870961D01*
X78291095Y-18005446D01*
X78338670Y-18069588D01*
X78421417Y-18127528D01*
X78533133Y-18144094D01*
X78708992Y-18113086D01*
X71291280Y-19421029D02*
X71161043Y-18682423D01*
X70985185Y-18713431D01*
X70885871Y-18767208D01*
X70827931Y-18849955D01*
X70805163Y-18926500D01*
X70794798Y-19073389D01*
X70813404Y-19178904D01*
X70873382Y-19313389D01*
X70920957Y-19377531D01*
X71003704Y-19435471D01*
X71115421Y-19452037D01*
X71291280Y-19421029D01*
X70552674Y-19551265D02*
X70422438Y-18812659D01*
X70200957Y-19613282D02*
X70070721Y-18874676D01*
X69778896Y-19687703D01*
X69648660Y-18949097D01*
X71281537Y-21936653D02*
X71345678Y-21889078D01*
X71451194Y-21870473D01*
X71562910Y-21887039D01*
X71645657Y-21944979D01*
X71693232Y-22009121D01*
X71753211Y-22143606D01*
X71771816Y-22249121D01*
X71761451Y-22396010D01*
X71738683Y-22472555D01*
X71680743Y-22555302D01*
X71581430Y-22609079D01*
X71511086Y-22621482D01*
X71399369Y-22604915D01*
X71357996Y-22575945D01*
X71314584Y-22329744D01*
X71455271Y-22304937D01*
X71053854Y-22702104D02*
X70923618Y-21963499D01*
X70631794Y-22776525D01*
X70501557Y-22037919D01*
X70280077Y-22838542D02*
X70149840Y-22099936D01*
X69973982Y-22130945D01*
X69874669Y-22184722D01*
X69816729Y-22267469D01*
X69793960Y-22344014D01*
X69783595Y-22490902D01*
X69802201Y-22596418D01*
X69862179Y-22730903D01*
X69909754Y-22795044D01*
X69992501Y-22852984D01*
X70104218Y-22869551D01*
X70280077Y-22838542D01*
%TO.C,RGB3*%
D10*
X60275000Y-38579285D02*
X60525000Y-38222142D01*
X60703571Y-38579285D02*
X60703571Y-37829285D01*
X60417857Y-37829285D01*
X60346428Y-37865000D01*
X60310714Y-37900714D01*
X60275000Y-37972142D01*
X60275000Y-38079285D01*
X60310714Y-38150714D01*
X60346428Y-38186428D01*
X60417857Y-38222142D01*
X60703571Y-38222142D01*
X59560714Y-37865000D02*
X59632142Y-37829285D01*
X59739285Y-37829285D01*
X59846428Y-37865000D01*
X59917857Y-37936428D01*
X59953571Y-38007857D01*
X59989285Y-38150714D01*
X59989285Y-38257857D01*
X59953571Y-38400714D01*
X59917857Y-38472142D01*
X59846428Y-38543571D01*
X59739285Y-38579285D01*
X59667857Y-38579285D01*
X59560714Y-38543571D01*
X59525000Y-38507857D01*
X59525000Y-38257857D01*
X59667857Y-38257857D01*
X58953571Y-38186428D02*
X58846428Y-38222142D01*
X58810714Y-38257857D01*
X58775000Y-38329285D01*
X58775000Y-38436428D01*
X58810714Y-38507857D01*
X58846428Y-38543571D01*
X58917857Y-38579285D01*
X59203571Y-38579285D01*
X59203571Y-37829285D01*
X58953571Y-37829285D01*
X58882142Y-37865000D01*
X58846428Y-37900714D01*
X58810714Y-37972142D01*
X58810714Y-38043571D01*
X58846428Y-38115000D01*
X58882142Y-38150714D01*
X58953571Y-38186428D01*
X59203571Y-38186428D01*
X58525000Y-37829285D02*
X58060714Y-37829285D01*
X58310714Y-38115000D01*
X58203571Y-38115000D01*
X58132142Y-38150714D01*
X58096428Y-38186428D01*
X58060714Y-38257857D01*
X58060714Y-38436428D01*
X58096428Y-38507857D01*
X58132142Y-38543571D01*
X58203571Y-38579285D01*
X58417857Y-38579285D01*
X58489285Y-38543571D01*
X58525000Y-38507857D01*
D12*
X65617857Y-43579285D02*
X65617857Y-42829285D01*
X65439285Y-42829285D01*
X65332142Y-42865000D01*
X65260714Y-42936428D01*
X65225000Y-43007857D01*
X65189285Y-43150714D01*
X65189285Y-43257857D01*
X65225000Y-43400714D01*
X65260714Y-43472142D01*
X65332142Y-43543571D01*
X65439285Y-43579285D01*
X65617857Y-43579285D01*
X64725000Y-42829285D02*
X64582142Y-42829285D01*
X64510714Y-42865000D01*
X64439285Y-42936428D01*
X64403571Y-43079285D01*
X64403571Y-43329285D01*
X64439285Y-43472142D01*
X64510714Y-43543571D01*
X64582142Y-43579285D01*
X64725000Y-43579285D01*
X64796428Y-43543571D01*
X64867857Y-43472142D01*
X64903571Y-43329285D01*
X64903571Y-43079285D01*
X64867857Y-42936428D01*
X64796428Y-42865000D01*
X64725000Y-42829285D01*
X64082142Y-42829285D02*
X64082142Y-43436428D01*
X64046428Y-43507857D01*
X64010714Y-43543571D01*
X63939285Y-43579285D01*
X63796428Y-43579285D01*
X63725000Y-43543571D01*
X63689285Y-43507857D01*
X63653571Y-43436428D01*
X63653571Y-42829285D01*
X63403571Y-42829285D02*
X62975000Y-42829285D01*
X63189285Y-43579285D02*
X63189285Y-42829285D01*
X64900000Y-39679285D02*
X64650000Y-40429285D01*
X64400000Y-39679285D01*
X64150000Y-40429285D02*
X64150000Y-39679285D01*
X63971428Y-39679285D01*
X63864285Y-39715000D01*
X63792857Y-39786428D01*
X63757142Y-39857857D01*
X63721428Y-40000714D01*
X63721428Y-40107857D01*
X63757142Y-40250714D01*
X63792857Y-40322142D01*
X63864285Y-40393571D01*
X63971428Y-40429285D01*
X64150000Y-40429285D01*
X63400000Y-40429285D02*
X63400000Y-39679285D01*
X63221428Y-39679285D01*
X63114285Y-39715000D01*
X63042857Y-39786428D01*
X63007142Y-39857857D01*
X62971428Y-40000714D01*
X62971428Y-40107857D01*
X63007142Y-40250714D01*
X63042857Y-40322142D01*
X63114285Y-40393571D01*
X63221428Y-40429285D01*
X63400000Y-40429285D01*
X55867857Y-40429285D02*
X55867857Y-39679285D01*
X55689285Y-39679285D01*
X55582142Y-39715000D01*
X55510714Y-39786428D01*
X55475000Y-39857857D01*
X55439285Y-40000714D01*
X55439285Y-40107857D01*
X55475000Y-40250714D01*
X55510714Y-40322142D01*
X55582142Y-40393571D01*
X55689285Y-40429285D01*
X55867857Y-40429285D01*
X55117857Y-40429285D02*
X55117857Y-39679285D01*
X54760714Y-40429285D02*
X54760714Y-39679285D01*
X54332142Y-40429285D01*
X54332142Y-39679285D01*
X55421428Y-42905000D02*
X55492857Y-42869285D01*
X55600000Y-42869285D01*
X55707142Y-42905000D01*
X55778571Y-42976428D01*
X55814285Y-43047857D01*
X55850000Y-43190714D01*
X55850000Y-43297857D01*
X55814285Y-43440714D01*
X55778571Y-43512142D01*
X55707142Y-43583571D01*
X55600000Y-43619285D01*
X55528571Y-43619285D01*
X55421428Y-43583571D01*
X55385714Y-43547857D01*
X55385714Y-43297857D01*
X55528571Y-43297857D01*
X55064285Y-43619285D02*
X55064285Y-42869285D01*
X54635714Y-43619285D01*
X54635714Y-42869285D01*
X54278571Y-43619285D02*
X54278571Y-42869285D01*
X54100000Y-42869285D01*
X53992857Y-42905000D01*
X53921428Y-42976428D01*
X53885714Y-43047857D01*
X53850000Y-43190714D01*
X53850000Y-43297857D01*
X53885714Y-43440714D01*
X53921428Y-43512142D01*
X53992857Y-43583571D01*
X54100000Y-43619285D01*
X54278571Y-43619285D01*
%TO.C,RGB2*%
D10*
X41205000Y-38579285D02*
X41455000Y-38222142D01*
X41633571Y-38579285D02*
X41633571Y-37829285D01*
X41347857Y-37829285D01*
X41276428Y-37865000D01*
X41240714Y-37900714D01*
X41205000Y-37972142D01*
X41205000Y-38079285D01*
X41240714Y-38150714D01*
X41276428Y-38186428D01*
X41347857Y-38222142D01*
X41633571Y-38222142D01*
X40490714Y-37865000D02*
X40562142Y-37829285D01*
X40669285Y-37829285D01*
X40776428Y-37865000D01*
X40847857Y-37936428D01*
X40883571Y-38007857D01*
X40919285Y-38150714D01*
X40919285Y-38257857D01*
X40883571Y-38400714D01*
X40847857Y-38472142D01*
X40776428Y-38543571D01*
X40669285Y-38579285D01*
X40597857Y-38579285D01*
X40490714Y-38543571D01*
X40455000Y-38507857D01*
X40455000Y-38257857D01*
X40597857Y-38257857D01*
X39883571Y-38186428D02*
X39776428Y-38222142D01*
X39740714Y-38257857D01*
X39705000Y-38329285D01*
X39705000Y-38436428D01*
X39740714Y-38507857D01*
X39776428Y-38543571D01*
X39847857Y-38579285D01*
X40133571Y-38579285D01*
X40133571Y-37829285D01*
X39883571Y-37829285D01*
X39812142Y-37865000D01*
X39776428Y-37900714D01*
X39740714Y-37972142D01*
X39740714Y-38043571D01*
X39776428Y-38115000D01*
X39812142Y-38150714D01*
X39883571Y-38186428D01*
X40133571Y-38186428D01*
X39419285Y-37900714D02*
X39383571Y-37865000D01*
X39312142Y-37829285D01*
X39133571Y-37829285D01*
X39062142Y-37865000D01*
X39026428Y-37900714D01*
X38990714Y-37972142D01*
X38990714Y-38043571D01*
X39026428Y-38150714D01*
X39455000Y-38579285D01*
X38990714Y-38579285D01*
D12*
X46547857Y-43579285D02*
X46547857Y-42829285D01*
X46369285Y-42829285D01*
X46262142Y-42865000D01*
X46190714Y-42936428D01*
X46155000Y-43007857D01*
X46119285Y-43150714D01*
X46119285Y-43257857D01*
X46155000Y-43400714D01*
X46190714Y-43472142D01*
X46262142Y-43543571D01*
X46369285Y-43579285D01*
X46547857Y-43579285D01*
X45655000Y-42829285D02*
X45512142Y-42829285D01*
X45440714Y-42865000D01*
X45369285Y-42936428D01*
X45333571Y-43079285D01*
X45333571Y-43329285D01*
X45369285Y-43472142D01*
X45440714Y-43543571D01*
X45512142Y-43579285D01*
X45655000Y-43579285D01*
X45726428Y-43543571D01*
X45797857Y-43472142D01*
X45833571Y-43329285D01*
X45833571Y-43079285D01*
X45797857Y-42936428D01*
X45726428Y-42865000D01*
X45655000Y-42829285D01*
X45012142Y-42829285D02*
X45012142Y-43436428D01*
X44976428Y-43507857D01*
X44940714Y-43543571D01*
X44869285Y-43579285D01*
X44726428Y-43579285D01*
X44655000Y-43543571D01*
X44619285Y-43507857D01*
X44583571Y-43436428D01*
X44583571Y-42829285D01*
X44333571Y-42829285D02*
X43905000Y-42829285D01*
X44119285Y-43579285D02*
X44119285Y-42829285D01*
X45830000Y-39679285D02*
X45580000Y-40429285D01*
X45330000Y-39679285D01*
X45080000Y-40429285D02*
X45080000Y-39679285D01*
X44901428Y-39679285D01*
X44794285Y-39715000D01*
X44722857Y-39786428D01*
X44687142Y-39857857D01*
X44651428Y-40000714D01*
X44651428Y-40107857D01*
X44687142Y-40250714D01*
X44722857Y-40322142D01*
X44794285Y-40393571D01*
X44901428Y-40429285D01*
X45080000Y-40429285D01*
X44330000Y-40429285D02*
X44330000Y-39679285D01*
X44151428Y-39679285D01*
X44044285Y-39715000D01*
X43972857Y-39786428D01*
X43937142Y-39857857D01*
X43901428Y-40000714D01*
X43901428Y-40107857D01*
X43937142Y-40250714D01*
X43972857Y-40322142D01*
X44044285Y-40393571D01*
X44151428Y-40429285D01*
X44330000Y-40429285D01*
X36797857Y-40429285D02*
X36797857Y-39679285D01*
X36619285Y-39679285D01*
X36512142Y-39715000D01*
X36440714Y-39786428D01*
X36405000Y-39857857D01*
X36369285Y-40000714D01*
X36369285Y-40107857D01*
X36405000Y-40250714D01*
X36440714Y-40322142D01*
X36512142Y-40393571D01*
X36619285Y-40429285D01*
X36797857Y-40429285D01*
X36047857Y-40429285D02*
X36047857Y-39679285D01*
X35690714Y-40429285D02*
X35690714Y-39679285D01*
X35262142Y-40429285D01*
X35262142Y-39679285D01*
X36351428Y-42905000D02*
X36422857Y-42869285D01*
X36530000Y-42869285D01*
X36637142Y-42905000D01*
X36708571Y-42976428D01*
X36744285Y-43047857D01*
X36780000Y-43190714D01*
X36780000Y-43297857D01*
X36744285Y-43440714D01*
X36708571Y-43512142D01*
X36637142Y-43583571D01*
X36530000Y-43619285D01*
X36458571Y-43619285D01*
X36351428Y-43583571D01*
X36315714Y-43547857D01*
X36315714Y-43297857D01*
X36458571Y-43297857D01*
X35994285Y-43619285D02*
X35994285Y-42869285D01*
X35565714Y-43619285D01*
X35565714Y-42869285D01*
X35208571Y-43619285D02*
X35208571Y-42869285D01*
X35030000Y-42869285D01*
X34922857Y-42905000D01*
X34851428Y-42976428D01*
X34815714Y-43047857D01*
X34780000Y-43190714D01*
X34780000Y-43297857D01*
X34815714Y-43440714D01*
X34851428Y-43512142D01*
X34922857Y-43583571D01*
X35030000Y-43619285D01*
X35208571Y-43619285D01*
%TO.C,RGB1*%
D10*
X26163194Y-17137727D02*
X26471413Y-16829422D01*
X26585254Y-17212148D02*
X26715491Y-16473542D01*
X26434117Y-16423928D01*
X26357572Y-16446696D01*
X26316198Y-16475666D01*
X26268623Y-16539808D01*
X26250018Y-16645323D01*
X26272786Y-16721868D01*
X26301756Y-16763242D01*
X26365898Y-16810817D01*
X26647272Y-16860430D01*
X25583794Y-16310258D02*
X25660339Y-16287490D01*
X25765854Y-16306095D01*
X25865168Y-16359872D01*
X25923108Y-16442619D01*
X25945876Y-16519164D01*
X25956241Y-16666053D01*
X25937636Y-16771568D01*
X25877657Y-16906053D01*
X25830082Y-16970195D01*
X25747335Y-17028135D01*
X25635618Y-17044701D01*
X25565275Y-17032298D01*
X25465962Y-16978521D01*
X25436992Y-16937147D01*
X25480404Y-16690945D01*
X25621090Y-16715752D01*
X24930060Y-16521374D02*
X24818343Y-16537941D01*
X24776969Y-16566911D01*
X24729394Y-16631053D01*
X24710789Y-16736568D01*
X24733557Y-16813113D01*
X24762527Y-16854486D01*
X24826669Y-16902061D01*
X25108043Y-16951675D01*
X25238279Y-16213069D01*
X24992077Y-16169657D01*
X24915532Y-16192426D01*
X24874158Y-16221396D01*
X24826583Y-16285537D01*
X24814180Y-16355881D01*
X24836948Y-16432426D01*
X24865918Y-16473799D01*
X24930060Y-16521374D01*
X25176262Y-16564786D01*
X23982548Y-16753220D02*
X24404609Y-16827641D01*
X24193578Y-16790431D02*
X24323815Y-16051825D01*
X24375553Y-16169743D01*
X24433493Y-16252490D01*
X24497634Y-16300065D01*
D12*
X30556640Y-22989543D02*
X30686876Y-22250937D01*
X30511017Y-22219928D01*
X30399300Y-22236495D01*
X30316554Y-22294435D01*
X30268978Y-22358577D01*
X30209000Y-22493062D01*
X30190395Y-22598577D01*
X30200760Y-22745465D01*
X30223528Y-22822010D01*
X30281468Y-22904757D01*
X30380781Y-22958534D01*
X30556640Y-22989543D01*
X29807583Y-22095894D02*
X29666896Y-22071087D01*
X29590351Y-22093855D01*
X29507604Y-22151795D01*
X29447626Y-22286280D01*
X29404214Y-22532482D01*
X29414579Y-22679371D01*
X29472519Y-22762118D01*
X29536660Y-22809693D01*
X29677347Y-22834500D01*
X29753892Y-22811732D01*
X29836639Y-22753792D01*
X29896618Y-22619306D01*
X29940030Y-22373104D01*
X29929665Y-22226216D01*
X29871725Y-22143469D01*
X29807583Y-22095894D01*
X29174492Y-21984263D02*
X29069063Y-22582182D01*
X29021488Y-22646324D01*
X28980115Y-22675294D01*
X28903570Y-22698062D01*
X28762883Y-22673255D01*
X28698741Y-22625680D01*
X28669771Y-22584306D01*
X28647003Y-22507761D01*
X28752432Y-21909842D01*
X28506230Y-21866430D02*
X28084170Y-21792010D01*
X28164964Y-22567826D02*
X28295200Y-21829220D01*
X30526917Y-19024138D02*
X30150479Y-19719332D01*
X30034513Y-18937314D01*
X29658075Y-19632508D02*
X29788311Y-18893902D01*
X29612453Y-18862893D01*
X29500736Y-18879460D01*
X29417989Y-18937400D01*
X29370414Y-19001542D01*
X29310435Y-19136027D01*
X29291830Y-19241542D01*
X29302195Y-19388430D01*
X29324963Y-19464975D01*
X29382903Y-19547722D01*
X29482217Y-19601499D01*
X29658075Y-19632508D01*
X28919469Y-19502272D02*
X29049705Y-18763666D01*
X28873847Y-18732657D01*
X28762130Y-18749224D01*
X28679383Y-18807164D01*
X28631808Y-18871305D01*
X28571829Y-19005790D01*
X28553224Y-19111306D01*
X28563589Y-19258194D01*
X28586357Y-19334739D01*
X28644297Y-19417486D01*
X28743611Y-19471263D01*
X28919469Y-19502272D01*
X21501756Y-18194329D02*
X21631992Y-17455723D01*
X21456133Y-17424714D01*
X21344417Y-17441281D01*
X21261670Y-17499221D01*
X21214095Y-17563362D01*
X21154116Y-17697848D01*
X21135511Y-17803363D01*
X21145876Y-17950251D01*
X21168644Y-18026796D01*
X21226584Y-18109543D01*
X21325897Y-18163320D01*
X21501756Y-18194329D01*
X20763150Y-18064093D02*
X20893386Y-17325487D01*
X20411433Y-18002075D02*
X20541669Y-17263470D01*
X19989372Y-17927655D01*
X20119609Y-17189049D01*
X20632207Y-20554910D02*
X20708752Y-20532142D01*
X20814267Y-20550747D01*
X20913580Y-20604524D01*
X20971520Y-20687271D01*
X20994289Y-20763816D01*
X21004654Y-20910704D01*
X20986048Y-21016220D01*
X20926070Y-21150705D01*
X20878495Y-21214846D01*
X20795748Y-21272786D01*
X20684031Y-21289353D01*
X20613688Y-21276949D01*
X20514374Y-21223173D01*
X20485404Y-21181799D01*
X20528816Y-20935597D01*
X20669503Y-20960404D01*
X20156455Y-21196327D02*
X20286692Y-20457721D01*
X19734395Y-21121906D01*
X19864631Y-20383301D01*
X19382678Y-21059889D02*
X19512914Y-20321283D01*
X19337055Y-20290275D01*
X19225339Y-20306841D01*
X19142592Y-20364781D01*
X19095017Y-20428923D01*
X19035038Y-20563408D01*
X19016433Y-20668923D01*
X19026798Y-20815812D01*
X19049566Y-20892357D01*
X19107506Y-20975104D01*
X19206819Y-21028881D01*
X19382678Y-21059889D01*
%TO.C,reset1*%
D10*
X40169523Y-24702380D02*
X39598095Y-24702380D01*
X39883809Y-25702380D02*
X39883809Y-24702380D01*
X39264761Y-25702380D02*
X39264761Y-24702380D01*
X39264761Y-25178571D02*
X38693333Y-25178571D01*
X38693333Y-25702380D02*
X38693333Y-24702380D01*
D13*
X40581428Y-28114285D02*
X40452857Y-28157142D01*
X40238571Y-28157142D01*
X40152857Y-28114285D01*
X40110000Y-28071428D01*
X40067142Y-27985714D01*
X40067142Y-27900000D01*
X40110000Y-27814285D01*
X40152857Y-27771428D01*
X40238571Y-27728571D01*
X40410000Y-27685714D01*
X40495714Y-27642857D01*
X40538571Y-27600000D01*
X40581428Y-27514285D01*
X40581428Y-27428571D01*
X40538571Y-27342857D01*
X40495714Y-27300000D01*
X40410000Y-27257142D01*
X40195714Y-27257142D01*
X40067142Y-27300000D01*
X39681428Y-28157142D02*
X39681428Y-27257142D01*
X39381428Y-27900000D01*
X39081428Y-27257142D01*
X39081428Y-28157142D01*
X38652857Y-28157142D02*
X38652857Y-27257142D01*
X38438571Y-27257142D01*
X38310000Y-27300000D01*
X38224285Y-27385714D01*
X38181428Y-27471428D01*
X38138571Y-27642857D01*
X38138571Y-27771428D01*
X38181428Y-27942857D01*
X38224285Y-28028571D01*
X38310000Y-28114285D01*
X38438571Y-28157142D01*
X38652857Y-28157142D01*
D10*
X40812380Y-30702380D02*
X41145714Y-30226190D01*
X41383809Y-30702380D02*
X41383809Y-29702380D01*
X41002857Y-29702380D01*
X40907619Y-29750000D01*
X40860000Y-29797619D01*
X40812380Y-29892857D01*
X40812380Y-30035714D01*
X40860000Y-30130952D01*
X40907619Y-30178571D01*
X41002857Y-30226190D01*
X41383809Y-30226190D01*
X40383809Y-30178571D02*
X40050476Y-30178571D01*
X39907619Y-30702380D02*
X40383809Y-30702380D01*
X40383809Y-29702380D01*
X39907619Y-29702380D01*
X39526666Y-30654761D02*
X39383809Y-30702380D01*
X39145714Y-30702380D01*
X39050476Y-30654761D01*
X39002857Y-30607142D01*
X38955238Y-30511904D01*
X38955238Y-30416666D01*
X39002857Y-30321428D01*
X39050476Y-30273809D01*
X39145714Y-30226190D01*
X39336190Y-30178571D01*
X39431428Y-30130952D01*
X39479047Y-30083333D01*
X39526666Y-29988095D01*
X39526666Y-29892857D01*
X39479047Y-29797619D01*
X39431428Y-29750000D01*
X39336190Y-29702380D01*
X39098095Y-29702380D01*
X38955238Y-29750000D01*
X38526666Y-30178571D02*
X38193333Y-30178571D01*
X38050476Y-30702380D02*
X38526666Y-30702380D01*
X38526666Y-29702380D01*
X38050476Y-29702380D01*
X37764761Y-29702380D02*
X37193333Y-29702380D01*
X37479047Y-30702380D02*
X37479047Y-29702380D01*
%TO.C,U1*%
%TD*%
M02*
