<?xml version="1.0" encoding="utf-8"?>
<!-- Generator: Adobe Illustrator 24.0.1, SVG Export Plug-In . SVG Version: 6.00 Build 0)  -->
<svg version="1.1" id="cut" xmlns="http://www.w3.org/2000/svg" xmlns:xlink="http://www.w3.org/1999/xlink" x="0px" y="0px"
	 viewBox="0 0 703.34 296.92" style="enable-background:new 0 0 703.34 296.92;" xml:space="preserve">
<style type="text/css">
	.st0{fill:none;stroke:#000000;stroke-width:0.7087;stroke-miterlimit:10;}
</style>
<path class="st0" d="M702.95,188.37L675.52,32.78c-0.22-1.34-1.41-2.35-2.82-2.35l-162.17,0l-27.46,0l-30.52-5.38l-2.89,16.41
	c-0.41,2.3-2.62,3.86-4.93,3.45l-19.54-3.45c-2.3-0.41-3.86-2.62-3.45-4.93l2.89-16.41L312.77,0.39c0,0-0.32-0.04-0.48-0.04
	c-1.41,0-2.58,1.02-2.8,2.37l-8.25,46.81L192.81,30.42l-162.2,0c-1.43,0-2.6,1.06-2.8,2.43L0.39,188.35c0,0-0.04,0.32-0.04,0.48
	c0,1.4,1.02,2.56,2.35,2.79l0,0l192.93,34.02l27.76,60.22c0.38,0.81,1.13,1.4,2.03,1.57l51.75,9.13h148.95l51.72-9.12
	c0.95-0.17,1.74-0.81,2.11-1.67l27.72-60.13l192.93-34.02c1.34-0.22,2.36-1.39,2.36-2.79C702.99,188.67,702.95,188.37,702.95,188.37
	z M55.17,191.73c-1.72,0-3.12-1.4-3.12-3.12s1.4-3.12,3.12-3.12c1.72,0,3.12,1.4,3.12,3.12S56.89,191.73,55.17,191.73z M74.61,81.55
	c-1.72,0-3.12-1.4-3.12-3.12c0-1.72,1.4-3.12,3.12-3.12s3.12,1.4,3.12,3.12C77.73,80.15,76.33,81.55,74.61,81.55z M175,134.03
	c-1.72,0-3.12-1.4-3.12-3.12c0-1.72,1.4-3.12,3.12-3.12c1.72,0,3.12,1.4,3.12,3.12C178.12,132.63,176.72,134.03,175,134.03z
	 M216,228.74c-1.72,0-3.12-1.4-3.12-3.12s1.4-3.12,3.12-3.12s3.12,1.4,3.12,3.12S217.72,228.74,216,228.74z M288.99,109.63
	c-1.72,0-3.12-1.4-3.12-3.12s1.4-3.12,3.12-3.12s3.12,1.4,3.12,3.12S290.71,109.63,288.99,109.63z M351.65,228.74
	c-1.72,0-3.12-1.4-3.12-3.12s1.4-3.12,3.12-3.12c1.72,0,3.12,1.4,3.12,3.12S353.37,228.74,351.65,228.74z M414.35,109.64
	c-1.72,0-3.12-1.4-3.12-3.12s1.4-3.12,3.12-3.12c1.72,0,3.12,1.4,3.12,3.12S416.07,109.64,414.35,109.64z M487.33,228.74
	c-1.72,0-3.12-1.4-3.12-3.12s1.4-3.12,3.12-3.12c1.72,0,3.12,1.4,3.12,3.12S489.05,228.74,487.33,228.74z M528.32,134.03
	c-1.72,0-3.12-1.4-3.12-3.12c0-1.72,1.4-3.12,3.12-3.12s3.12,1.4,3.12,3.12C531.44,132.63,530.04,134.03,528.32,134.03z
	 M628.72,81.55c-1.72,0-3.12-1.4-3.12-3.12c0-1.72,1.4-3.12,3.12-3.12c1.72,0,3.12,1.4,3.12,3.12
	C631.84,80.15,630.44,81.55,628.72,81.55z M648.16,191.72c-1.72,0-3.12-1.4-3.12-3.12s1.4-3.12,3.12-3.12c1.72,0,3.12,1.4,3.12,3.12
	S649.88,191.72,648.16,191.72z"/>
</svg>
