G04 #@! TF.GenerationSoftware,KiCad,Pcbnew,(5.1.9-0-10_14)*
G04 #@! TF.CreationDate,2021-12-01T15:49:55+09:00*
G04 #@! TF.ProjectId,reviung53,72657669-756e-4673-9533-2e6b69636164,1*
G04 #@! TF.SameCoordinates,PX1c9c380PY1c9c380*
G04 #@! TF.FileFunction,Legend,Top*
G04 #@! TF.FilePolarity,Positive*
%FSLAX46Y46*%
G04 Gerber Fmt 4.6, Leading zero omitted, Abs format (unit mm)*
G04 Created by KiCad (PCBNEW (5.1.9-0-10_14)) date 2021-12-01 15:49:55*
%MOMM*%
%LPD*%
G01*
G04 APERTURE LIST*
%ADD10C,0.150000*%
%ADD11C,0.250000*%
%ADD12C,0.120000*%
%ADD13C,0.125000*%
%ADD14C,4.500000*%
%ADD15C,2.200000*%
%ADD16C,3.000000*%
%ADD17C,3.987800*%
%ADD18C,1.750000*%
%ADD19C,3.048000*%
%ADD20C,0.600000*%
%ADD21C,1.524000*%
%ADD22C,2.000000*%
%ADD23C,0.900000*%
G04 APERTURE END LIST*
D10*
X224120000Y-42987619D02*
X224167619Y-42940000D01*
X224262857Y-42892380D01*
X224500952Y-42892380D01*
X224596190Y-42940000D01*
X224643809Y-42987619D01*
X224691428Y-43082857D01*
X224691428Y-43178095D01*
X224643809Y-43320952D01*
X224072380Y-43892380D01*
X224691428Y-43892380D01*
X225120000Y-43797142D02*
X225167619Y-43844761D01*
X225120000Y-43892380D01*
X225072380Y-43844761D01*
X225120000Y-43797142D01*
X225120000Y-43892380D01*
X225548571Y-42987619D02*
X225596190Y-42940000D01*
X225691428Y-42892380D01*
X225929523Y-42892380D01*
X226024761Y-42940000D01*
X226072380Y-42987619D01*
X226120000Y-43082857D01*
X226120000Y-43178095D01*
X226072380Y-43320952D01*
X225500952Y-43892380D01*
X226120000Y-43892380D01*
X227024761Y-42892380D02*
X226548571Y-42892380D01*
X226500952Y-43368571D01*
X226548571Y-43320952D01*
X226643809Y-43273333D01*
X226881904Y-43273333D01*
X226977142Y-43320952D01*
X227024761Y-43368571D01*
X227072380Y-43463809D01*
X227072380Y-43701904D01*
X227024761Y-43797142D01*
X226977142Y-43844761D01*
X226881904Y-43892380D01*
X226643809Y-43892380D01*
X226548571Y-43844761D01*
X226500952Y-43797142D01*
X227500952Y-42892380D02*
X227500952Y-43701904D01*
X227548571Y-43797142D01*
X227596190Y-43844761D01*
X227691428Y-43892380D01*
X227881904Y-43892380D01*
X227977142Y-43844761D01*
X228024761Y-43797142D01*
X228072380Y-43701904D01*
X228072380Y-42892380D01*
X147980000Y-81107619D02*
X148027619Y-81060000D01*
X148122857Y-81012380D01*
X148360952Y-81012380D01*
X148456190Y-81060000D01*
X148503809Y-81107619D01*
X148551428Y-81202857D01*
X148551428Y-81298095D01*
X148503809Y-81440952D01*
X147932380Y-82012380D01*
X148551428Y-82012380D01*
X148980000Y-81917142D02*
X149027619Y-81964761D01*
X148980000Y-82012380D01*
X148932380Y-81964761D01*
X148980000Y-81917142D01*
X148980000Y-82012380D01*
X149408571Y-81107619D02*
X149456190Y-81060000D01*
X149551428Y-81012380D01*
X149789523Y-81012380D01*
X149884761Y-81060000D01*
X149932380Y-81107619D01*
X149980000Y-81202857D01*
X149980000Y-81298095D01*
X149932380Y-81440952D01*
X149360952Y-82012380D01*
X149980000Y-82012380D01*
X150884761Y-81012380D02*
X150408571Y-81012380D01*
X150360952Y-81488571D01*
X150408571Y-81440952D01*
X150503809Y-81393333D01*
X150741904Y-81393333D01*
X150837142Y-81440952D01*
X150884761Y-81488571D01*
X150932380Y-81583809D01*
X150932380Y-81821904D01*
X150884761Y-81917142D01*
X150837142Y-81964761D01*
X150741904Y-82012380D01*
X150503809Y-82012380D01*
X150408571Y-81964761D01*
X150360952Y-81917142D01*
X151360952Y-81012380D02*
X151360952Y-81821904D01*
X151408571Y-81917142D01*
X151456190Y-81964761D01*
X151551428Y-82012380D01*
X151741904Y-82012380D01*
X151837142Y-81964761D01*
X151884761Y-81917142D01*
X151932380Y-81821904D01*
X151932380Y-81012380D01*
X100400000Y-81057619D02*
X100447619Y-81010000D01*
X100542857Y-80962380D01*
X100780952Y-80962380D01*
X100876190Y-81010000D01*
X100923809Y-81057619D01*
X100971428Y-81152857D01*
X100971428Y-81248095D01*
X100923809Y-81390952D01*
X100352380Y-81962380D01*
X100971428Y-81962380D01*
X101400000Y-81867142D02*
X101447619Y-81914761D01*
X101400000Y-81962380D01*
X101352380Y-81914761D01*
X101400000Y-81867142D01*
X101400000Y-81962380D01*
X101780952Y-80962380D02*
X102447619Y-80962380D01*
X102019047Y-81962380D01*
X103304761Y-80962380D02*
X102828571Y-80962380D01*
X102780952Y-81438571D01*
X102828571Y-81390952D01*
X102923809Y-81343333D01*
X103161904Y-81343333D01*
X103257142Y-81390952D01*
X103304761Y-81438571D01*
X103352380Y-81533809D01*
X103352380Y-81771904D01*
X103304761Y-81867142D01*
X103257142Y-81914761D01*
X103161904Y-81962380D01*
X102923809Y-81962380D01*
X102828571Y-81914761D01*
X102780952Y-81867142D01*
X103780952Y-80962380D02*
X103780952Y-81771904D01*
X103828571Y-81867142D01*
X103876190Y-81914761D01*
X103971428Y-81962380D01*
X104161904Y-81962380D01*
X104257142Y-81914761D01*
X104304761Y-81867142D01*
X104352380Y-81771904D01*
X104352380Y-80962380D01*
X219357976Y-62027619D02*
X219405595Y-61980000D01*
X219500833Y-61932380D01*
X219738928Y-61932380D01*
X219834166Y-61980000D01*
X219881785Y-62027619D01*
X219929404Y-62122857D01*
X219929404Y-62218095D01*
X219881785Y-62360952D01*
X219310357Y-62932380D01*
X219929404Y-62932380D01*
X220357976Y-62837142D02*
X220405595Y-62884761D01*
X220357976Y-62932380D01*
X220310357Y-62884761D01*
X220357976Y-62837142D01*
X220357976Y-62932380D01*
X220738928Y-61932380D02*
X221405595Y-61932380D01*
X220977023Y-62932380D01*
X222262738Y-61932380D02*
X221786547Y-61932380D01*
X221738928Y-62408571D01*
X221786547Y-62360952D01*
X221881785Y-62313333D01*
X222119880Y-62313333D01*
X222215119Y-62360952D01*
X222262738Y-62408571D01*
X222310357Y-62503809D01*
X222310357Y-62741904D01*
X222262738Y-62837142D01*
X222215119Y-62884761D01*
X222119880Y-62932380D01*
X221881785Y-62932380D01*
X221786547Y-62884761D01*
X221738928Y-62837142D01*
X222738928Y-61932380D02*
X222738928Y-62741904D01*
X222786547Y-62837142D01*
X222834166Y-62884761D01*
X222929404Y-62932380D01*
X223119880Y-62932380D01*
X223215119Y-62884761D01*
X223262738Y-62837142D01*
X223310357Y-62741904D01*
X223310357Y-61932380D01*
D11*
X36018000Y-63215000D02*
G75*
G03*
X36018000Y-63215000I-2750000J0D01*
G01*
D12*
X9392000Y-65965000D02*
X9392000Y-76205000D01*
X11642000Y-78455000D02*
X30980000Y-78470000D01*
X12180000Y-63470000D02*
X30560000Y-63460000D01*
D11*
X11642000Y-78455000D02*
G75*
G03*
X11642000Y-78455000I-2250000J0D01*
G01*
D12*
X33268000Y-76205000D02*
X33268000Y-65965000D01*
D11*
X12142000Y-63215000D02*
G75*
G03*
X12142000Y-63215000I-2750000J0D01*
G01*
X35518000Y-78455000D02*
G75*
G03*
X35518000Y-78455000I-2250000J0D01*
G01*
D10*
X19380000Y-62077619D02*
X19427619Y-62030000D01*
X19522857Y-61982380D01*
X19760952Y-61982380D01*
X19856190Y-62030000D01*
X19903809Y-62077619D01*
X19951428Y-62172857D01*
X19951428Y-62268095D01*
X19903809Y-62410952D01*
X19332380Y-62982380D01*
X19951428Y-62982380D01*
X20380000Y-62887142D02*
X20427619Y-62934761D01*
X20380000Y-62982380D01*
X20332380Y-62934761D01*
X20380000Y-62887142D01*
X20380000Y-62982380D01*
X20808571Y-62077619D02*
X20856190Y-62030000D01*
X20951428Y-61982380D01*
X21189523Y-61982380D01*
X21284761Y-62030000D01*
X21332380Y-62077619D01*
X21380000Y-62172857D01*
X21380000Y-62268095D01*
X21332380Y-62410952D01*
X20760952Y-62982380D01*
X21380000Y-62982380D01*
X22284761Y-61982380D02*
X21808571Y-61982380D01*
X21760952Y-62458571D01*
X21808571Y-62410952D01*
X21903809Y-62363333D01*
X22141904Y-62363333D01*
X22237142Y-62410952D01*
X22284761Y-62458571D01*
X22332380Y-62553809D01*
X22332380Y-62791904D01*
X22284761Y-62887142D01*
X22237142Y-62934761D01*
X22141904Y-62982380D01*
X21903809Y-62982380D01*
X21808571Y-62934761D01*
X21760952Y-62887142D01*
X22760952Y-61982380D02*
X22760952Y-62791904D01*
X22808571Y-62887142D01*
X22856190Y-62934761D01*
X22951428Y-62982380D01*
X23141904Y-62982380D01*
X23237142Y-62934761D01*
X23284761Y-62887142D01*
X23332380Y-62791904D01*
X23332380Y-61982380D01*
D12*
X33328000Y-76235000D02*
X33328000Y-65995000D01*
D11*
X187922000Y-97475000D02*
G75*
G03*
X187922000Y-97475000I-2250000J0D01*
G01*
X188422000Y-82235000D02*
G75*
G03*
X188422000Y-82235000I-2750000J0D01*
G01*
D12*
X185672000Y-84985000D02*
X185672000Y-95225000D01*
D10*
X187127619Y-88366190D02*
X187127619Y-88175714D01*
X187080000Y-88080476D01*
X187032380Y-88032857D01*
X186889523Y-87937619D01*
X186699047Y-87890000D01*
X186318095Y-87890000D01*
X186222857Y-87937619D01*
X186175238Y-87985238D01*
X186127619Y-88080476D01*
X186127619Y-88270952D01*
X186175238Y-88366190D01*
X186222857Y-88413809D01*
X186318095Y-88461428D01*
X186556190Y-88461428D01*
X186651428Y-88413809D01*
X186699047Y-88366190D01*
X186746666Y-88270952D01*
X186746666Y-88080476D01*
X186699047Y-87985238D01*
X186651428Y-87937619D01*
X186556190Y-87890000D01*
X186222857Y-88890000D02*
X186175238Y-88937619D01*
X186127619Y-88890000D01*
X186175238Y-88842380D01*
X186222857Y-88890000D01*
X186127619Y-88890000D01*
X187032380Y-89318571D02*
X187080000Y-89366190D01*
X187127619Y-89461428D01*
X187127619Y-89699523D01*
X187080000Y-89794761D01*
X187032380Y-89842380D01*
X186937142Y-89890000D01*
X186841904Y-89890000D01*
X186699047Y-89842380D01*
X186127619Y-89270952D01*
X186127619Y-89890000D01*
X187127619Y-90794761D02*
X187127619Y-90318571D01*
X186651428Y-90270952D01*
X186699047Y-90318571D01*
X186746666Y-90413809D01*
X186746666Y-90651904D01*
X186699047Y-90747142D01*
X186651428Y-90794761D01*
X186556190Y-90842380D01*
X186318095Y-90842380D01*
X186222857Y-90794761D01*
X186175238Y-90747142D01*
X186127619Y-90651904D01*
X186127619Y-90413809D01*
X186175238Y-90318571D01*
X186222857Y-90270952D01*
X187127619Y-91270952D02*
X186318095Y-91270952D01*
X186222857Y-91318571D01*
X186175238Y-91366190D01*
X186127619Y-91461428D01*
X186127619Y-91651904D01*
X186175238Y-91747142D01*
X186222857Y-91794761D01*
X186318095Y-91842380D01*
X187127619Y-91842380D01*
X84192380Y-91433809D02*
X84192380Y-91624285D01*
X84240000Y-91719523D01*
X84287619Y-91767142D01*
X84430476Y-91862380D01*
X84620952Y-91910000D01*
X85001904Y-91910000D01*
X85097142Y-91862380D01*
X85144761Y-91814761D01*
X85192380Y-91719523D01*
X85192380Y-91529047D01*
X85144761Y-91433809D01*
X85097142Y-91386190D01*
X85001904Y-91338571D01*
X84763809Y-91338571D01*
X84668571Y-91386190D01*
X84620952Y-91433809D01*
X84573333Y-91529047D01*
X84573333Y-91719523D01*
X84620952Y-91814761D01*
X84668571Y-91862380D01*
X84763809Y-91910000D01*
X85097142Y-90910000D02*
X85144761Y-90862380D01*
X85192380Y-90910000D01*
X85144761Y-90957619D01*
X85097142Y-90910000D01*
X85192380Y-90910000D01*
X84287619Y-90481428D02*
X84240000Y-90433809D01*
X84192380Y-90338571D01*
X84192380Y-90100476D01*
X84240000Y-90005238D01*
X84287619Y-89957619D01*
X84382857Y-89910000D01*
X84478095Y-89910000D01*
X84620952Y-89957619D01*
X85192380Y-90529047D01*
X85192380Y-89910000D01*
X84192380Y-89005238D02*
X84192380Y-89481428D01*
X84668571Y-89529047D01*
X84620952Y-89481428D01*
X84573333Y-89386190D01*
X84573333Y-89148095D01*
X84620952Y-89052857D01*
X84668571Y-89005238D01*
X84763809Y-88957619D01*
X85001904Y-88957619D01*
X85097142Y-89005238D01*
X85144761Y-89052857D01*
X85192380Y-89148095D01*
X85192380Y-89386190D01*
X85144761Y-89481428D01*
X85097142Y-89529047D01*
X84192380Y-88529047D02*
X85001904Y-88529047D01*
X85097142Y-88481428D01*
X85144761Y-88433809D01*
X85192380Y-88338571D01*
X85192380Y-88148095D01*
X85144761Y-88052857D01*
X85097142Y-88005238D01*
X85001904Y-87957619D01*
X84192380Y-87957619D01*
D11*
X88432000Y-82255000D02*
G75*
G03*
X88432000Y-82255000I-2750000J0D01*
G01*
X87932000Y-97495000D02*
G75*
G03*
X87932000Y-97495000I-2250000J0D01*
G01*
D12*
X85682000Y-85005000D02*
X85682000Y-95245000D01*
D11*
X92682000Y-97495000D02*
G75*
G03*
X92682000Y-97495000I-2250000J0D01*
G01*
X116558000Y-97495000D02*
G75*
G03*
X116558000Y-97495000I-2250000J0D01*
G01*
D12*
X93220000Y-82510000D02*
X111530000Y-82510000D01*
D11*
X93182000Y-82255000D02*
G75*
G03*
X93182000Y-82255000I-2750000J0D01*
G01*
X117058000Y-82255000D02*
G75*
G03*
X117058000Y-82255000I-2750000J0D01*
G01*
D12*
X90432000Y-85005000D02*
X90432000Y-95245000D01*
X92682000Y-97495000D02*
X112020000Y-97510000D01*
X114308000Y-95245000D02*
X114308000Y-85005000D01*
D11*
X140242000Y-97495000D02*
G75*
G03*
X140242000Y-97495000I-2250000J0D01*
G01*
X164118000Y-97495000D02*
G75*
G03*
X164118000Y-97495000I-2250000J0D01*
G01*
D12*
X140780000Y-82510000D02*
X159100000Y-82510000D01*
D11*
X140742000Y-82255000D02*
G75*
G03*
X140742000Y-82255000I-2750000J0D01*
G01*
X164618000Y-82255000D02*
G75*
G03*
X164618000Y-82255000I-2750000J0D01*
G01*
D12*
X137992000Y-85005000D02*
X137992000Y-95245000D01*
X140242000Y-97495000D02*
X159580000Y-97510000D01*
X161868000Y-95245000D02*
X161868000Y-85005000D01*
D11*
X211632000Y-78455000D02*
G75*
G03*
X211632000Y-78455000I-2250000J0D01*
G01*
X235508000Y-78455000D02*
G75*
G03*
X235508000Y-78455000I-2250000J0D01*
G01*
D12*
X212170000Y-63470000D02*
X230450000Y-63460000D01*
D11*
X212132000Y-63215000D02*
G75*
G03*
X212132000Y-63215000I-2750000J0D01*
G01*
X236008000Y-63215000D02*
G75*
G03*
X236008000Y-63215000I-2750000J0D01*
G01*
D12*
X209382000Y-65965000D02*
X209382000Y-76205000D01*
X211632000Y-78455000D02*
X230970000Y-78470000D01*
X233258000Y-76205000D02*
X233258000Y-65965000D01*
X214212000Y-46895000D02*
X214212000Y-57135000D01*
X238088000Y-57135000D02*
X238088000Y-46895000D01*
X216462000Y-59385000D02*
X235800000Y-59400000D01*
X217000000Y-44400000D02*
X235280000Y-44400000D01*
D11*
X216462000Y-59385000D02*
G75*
G03*
X216462000Y-59385000I-2250000J0D01*
G01*
X240338000Y-59385000D02*
G75*
G03*
X240338000Y-59385000I-2250000J0D01*
G01*
X240838000Y-44145000D02*
G75*
G03*
X240838000Y-44145000I-2750000J0D01*
G01*
X216962000Y-44145000D02*
G75*
G03*
X216962000Y-44145000I-2750000J0D01*
G01*
D10*
X32940000Y-610000D02*
X32940000Y-1620000D01*
X32940000Y-18410000D02*
X32940000Y-17410000D01*
X31940000Y-610000D02*
X32940000Y-610000D01*
X31890000Y-18410000D02*
X32940000Y-18410000D01*
X-110000Y-610000D02*
X-110000Y-1560000D01*
X-110000Y-18410000D02*
X-110000Y-17410000D01*
X-110000Y-610000D02*
X890000Y-610000D01*
X-110000Y-18410000D02*
X890000Y-18410000D01*
X-2810000Y-13260000D02*
X-410000Y-13260000D01*
X-410000Y-13210000D02*
X-410000Y-5760000D01*
X-410000Y-5760000D02*
X-2810000Y-5760000D01*
X-2810000Y-5760000D02*
X-2810000Y-13260000D01*
D13*
X2539285Y-17462619D02*
X2182142Y-17685952D01*
X2539285Y-17845476D02*
X1789285Y-17845476D01*
X1789285Y-17590238D01*
X1825000Y-17526428D01*
X1860714Y-17494523D01*
X1932142Y-17462619D01*
X2039285Y-17462619D01*
X2110714Y-17494523D01*
X2146428Y-17526428D01*
X2182142Y-17590238D01*
X2182142Y-17845476D01*
X2325000Y-17207380D02*
X2325000Y-16888333D01*
X2539285Y-17271190D02*
X1789285Y-17047857D01*
X2539285Y-16824523D01*
X1789285Y-16665000D02*
X2539285Y-16505476D01*
X2003571Y-16377857D01*
X2539285Y-16250238D01*
X1789285Y-16090714D01*
X5865000Y-19710476D02*
X5829285Y-19774285D01*
X5829285Y-19870000D01*
X5865000Y-19965714D01*
X5936428Y-20029523D01*
X6007857Y-20061428D01*
X6150714Y-20093333D01*
X6257857Y-20093333D01*
X6400714Y-20061428D01*
X6472142Y-20029523D01*
X6543571Y-19965714D01*
X6579285Y-19870000D01*
X6579285Y-19806190D01*
X6543571Y-19710476D01*
X6507857Y-19678571D01*
X6257857Y-19678571D01*
X6257857Y-19806190D01*
X6579285Y-19391428D02*
X5829285Y-19391428D01*
X6579285Y-19008571D01*
X5829285Y-19008571D01*
X6579285Y-18689523D02*
X5829285Y-18689523D01*
X5829285Y-18530000D01*
X5865000Y-18434285D01*
X5936428Y-18370476D01*
X6007857Y-18338571D01*
X6150714Y-18306666D01*
X6257857Y-18306666D01*
X6400714Y-18338571D01*
X6472142Y-18370476D01*
X6543571Y-18434285D01*
X6579285Y-18530000D01*
X6579285Y-18689523D01*
X9129285Y-14871904D02*
X8772142Y-15095238D01*
X9129285Y-15254761D02*
X8379285Y-15254761D01*
X8379285Y-14999523D01*
X8415000Y-14935714D01*
X8450714Y-14903809D01*
X8522142Y-14871904D01*
X8629285Y-14871904D01*
X8700714Y-14903809D01*
X8736428Y-14935714D01*
X8772142Y-14999523D01*
X8772142Y-15254761D01*
X9093571Y-14616666D02*
X9129285Y-14520952D01*
X9129285Y-14361428D01*
X9093571Y-14297619D01*
X9057857Y-14265714D01*
X8986428Y-14233809D01*
X8915000Y-14233809D01*
X8843571Y-14265714D01*
X8807857Y-14297619D01*
X8772142Y-14361428D01*
X8736428Y-14489047D01*
X8700714Y-14552857D01*
X8665000Y-14584761D01*
X8593571Y-14616666D01*
X8522142Y-14616666D01*
X8450714Y-14584761D01*
X8415000Y-14552857D01*
X8379285Y-14489047D01*
X8379285Y-14329523D01*
X8415000Y-14233809D01*
X8379285Y-14042380D02*
X8379285Y-13659523D01*
X9129285Y-13850952D02*
X8379285Y-13850952D01*
X10829285Y-15398333D02*
X11579285Y-15175000D01*
X10829285Y-14951666D01*
X11507857Y-14345476D02*
X11543571Y-14377380D01*
X11579285Y-14473095D01*
X11579285Y-14536904D01*
X11543571Y-14632619D01*
X11472142Y-14696428D01*
X11400714Y-14728333D01*
X11257857Y-14760238D01*
X11150714Y-14760238D01*
X11007857Y-14728333D01*
X10936428Y-14696428D01*
X10865000Y-14632619D01*
X10829285Y-14536904D01*
X10829285Y-14473095D01*
X10865000Y-14377380D01*
X10900714Y-14345476D01*
X11507857Y-13675476D02*
X11543571Y-13707380D01*
X11579285Y-13803095D01*
X11579285Y-13866904D01*
X11543571Y-13962619D01*
X11472142Y-14026428D01*
X11400714Y-14058333D01*
X11257857Y-14090238D01*
X11150714Y-14090238D01*
X11007857Y-14058333D01*
X10936428Y-14026428D01*
X10865000Y-13962619D01*
X10829285Y-13866904D01*
X10829285Y-13803095D01*
X10865000Y-13707380D01*
X10900714Y-13675476D01*
X14065000Y-15340714D02*
X14065000Y-15021666D01*
X14279285Y-15404523D02*
X13529285Y-15181190D01*
X14279285Y-14957857D01*
X13529285Y-14798333D02*
X13529285Y-14383571D01*
X13815000Y-14606904D01*
X13815000Y-14511190D01*
X13850714Y-14447380D01*
X13886428Y-14415476D01*
X13957857Y-14383571D01*
X14136428Y-14383571D01*
X14207857Y-14415476D01*
X14243571Y-14447380D01*
X14279285Y-14511190D01*
X14279285Y-14702619D01*
X14243571Y-14766428D01*
X14207857Y-14798333D01*
X13493571Y-13617857D02*
X14457857Y-14192142D01*
X13886428Y-13171190D02*
X13886428Y-13394523D01*
X14279285Y-13394523D02*
X13529285Y-13394523D01*
X13529285Y-13075476D01*
X13779285Y-12533095D02*
X14279285Y-12533095D01*
X13493571Y-12692619D02*
X14029285Y-12852142D01*
X14029285Y-12437380D01*
X16565000Y-15340714D02*
X16565000Y-15021666D01*
X16779285Y-15404523D02*
X16029285Y-15181190D01*
X16779285Y-14957857D01*
X16100714Y-14766428D02*
X16065000Y-14734523D01*
X16029285Y-14670714D01*
X16029285Y-14511190D01*
X16065000Y-14447380D01*
X16100714Y-14415476D01*
X16172142Y-14383571D01*
X16243571Y-14383571D01*
X16350714Y-14415476D01*
X16779285Y-14798333D01*
X16779285Y-14383571D01*
X15993571Y-13617857D02*
X16957857Y-14192142D01*
X16386428Y-13171190D02*
X16386428Y-13394523D01*
X16779285Y-13394523D02*
X16029285Y-13394523D01*
X16029285Y-13075476D01*
X16029285Y-12501190D02*
X16029285Y-12820238D01*
X16386428Y-12852142D01*
X16350714Y-12820238D01*
X16315000Y-12756428D01*
X16315000Y-12596904D01*
X16350714Y-12533095D01*
X16386428Y-12501190D01*
X16457857Y-12469285D01*
X16636428Y-12469285D01*
X16707857Y-12501190D01*
X16743571Y-12533095D01*
X16779285Y-12596904D01*
X16779285Y-12756428D01*
X16743571Y-12820238D01*
X16707857Y-12852142D01*
X19065000Y-15340714D02*
X19065000Y-15021666D01*
X19279285Y-15404523D02*
X18529285Y-15181190D01*
X19279285Y-14957857D01*
X19279285Y-14383571D02*
X19279285Y-14766428D01*
X19279285Y-14575000D02*
X18529285Y-14575000D01*
X18636428Y-14638809D01*
X18707857Y-14702619D01*
X18743571Y-14766428D01*
X18493571Y-13617857D02*
X19457857Y-14192142D01*
X18886428Y-13171190D02*
X18886428Y-13394523D01*
X19279285Y-13394523D02*
X18529285Y-13394523D01*
X18529285Y-13075476D01*
X18529285Y-12533095D02*
X18529285Y-12660714D01*
X18565000Y-12724523D01*
X18600714Y-12756428D01*
X18707857Y-12820238D01*
X18850714Y-12852142D01*
X19136428Y-12852142D01*
X19207857Y-12820238D01*
X19243571Y-12788333D01*
X19279285Y-12724523D01*
X19279285Y-12596904D01*
X19243571Y-12533095D01*
X19207857Y-12501190D01*
X19136428Y-12469285D01*
X18957857Y-12469285D01*
X18886428Y-12501190D01*
X18850714Y-12533095D01*
X18815000Y-12596904D01*
X18815000Y-12724523D01*
X18850714Y-12788333D01*
X18886428Y-12820238D01*
X18957857Y-12852142D01*
X21615000Y-15340714D02*
X21615000Y-15021666D01*
X21829285Y-15404523D02*
X21079285Y-15181190D01*
X21829285Y-14957857D01*
X21079285Y-14606904D02*
X21079285Y-14543095D01*
X21115000Y-14479285D01*
X21150714Y-14447380D01*
X21222142Y-14415476D01*
X21365000Y-14383571D01*
X21543571Y-14383571D01*
X21686428Y-14415476D01*
X21757857Y-14447380D01*
X21793571Y-14479285D01*
X21829285Y-14543095D01*
X21829285Y-14606904D01*
X21793571Y-14670714D01*
X21757857Y-14702619D01*
X21686428Y-14734523D01*
X21543571Y-14766428D01*
X21365000Y-14766428D01*
X21222142Y-14734523D01*
X21150714Y-14702619D01*
X21115000Y-14670714D01*
X21079285Y-14606904D01*
X21043571Y-13617857D02*
X22007857Y-14192142D01*
X21436428Y-13171190D02*
X21436428Y-13394523D01*
X21829285Y-13394523D02*
X21079285Y-13394523D01*
X21079285Y-13075476D01*
X21079285Y-12884047D02*
X21079285Y-12437380D01*
X21829285Y-12724523D01*
X24379285Y-15037619D02*
X24379285Y-15420476D01*
X24379285Y-15229047D02*
X23629285Y-15229047D01*
X23736428Y-15292857D01*
X23807857Y-15356666D01*
X23843571Y-15420476D01*
X23629285Y-14431428D02*
X23629285Y-14750476D01*
X23986428Y-14782380D01*
X23950714Y-14750476D01*
X23915000Y-14686666D01*
X23915000Y-14527142D01*
X23950714Y-14463333D01*
X23986428Y-14431428D01*
X24057857Y-14399523D01*
X24236428Y-14399523D01*
X24307857Y-14431428D01*
X24343571Y-14463333D01*
X24379285Y-14527142D01*
X24379285Y-14686666D01*
X24343571Y-14750476D01*
X24307857Y-14782380D01*
X23593571Y-13633809D02*
X24557857Y-14208095D01*
X23986428Y-13187142D02*
X24022142Y-13091428D01*
X24057857Y-13059523D01*
X24129285Y-13027619D01*
X24236428Y-13027619D01*
X24307857Y-13059523D01*
X24343571Y-13091428D01*
X24379285Y-13155238D01*
X24379285Y-13410476D01*
X23629285Y-13410476D01*
X23629285Y-13187142D01*
X23665000Y-13123333D01*
X23700714Y-13091428D01*
X23772142Y-13059523D01*
X23843571Y-13059523D01*
X23915000Y-13091428D01*
X23950714Y-13123333D01*
X23986428Y-13187142D01*
X23986428Y-13410476D01*
X24379285Y-12389523D02*
X24379285Y-12772380D01*
X24379285Y-12580952D02*
X23629285Y-12580952D01*
X23736428Y-12644761D01*
X23807857Y-12708571D01*
X23843571Y-12772380D01*
X26929285Y-15037619D02*
X26929285Y-15420476D01*
X26929285Y-15229047D02*
X26179285Y-15229047D01*
X26286428Y-15292857D01*
X26357857Y-15356666D01*
X26393571Y-15420476D01*
X26429285Y-14463333D02*
X26929285Y-14463333D01*
X26143571Y-14622857D02*
X26679285Y-14782380D01*
X26679285Y-14367619D01*
X26143571Y-13633809D02*
X27107857Y-14208095D01*
X26536428Y-13187142D02*
X26572142Y-13091428D01*
X26607857Y-13059523D01*
X26679285Y-13027619D01*
X26786428Y-13027619D01*
X26857857Y-13059523D01*
X26893571Y-13091428D01*
X26929285Y-13155238D01*
X26929285Y-13410476D01*
X26179285Y-13410476D01*
X26179285Y-13187142D01*
X26215000Y-13123333D01*
X26250714Y-13091428D01*
X26322142Y-13059523D01*
X26393571Y-13059523D01*
X26465000Y-13091428D01*
X26500714Y-13123333D01*
X26536428Y-13187142D01*
X26536428Y-13410476D01*
X26179285Y-12804285D02*
X26179285Y-12389523D01*
X26465000Y-12612857D01*
X26465000Y-12517142D01*
X26500714Y-12453333D01*
X26536428Y-12421428D01*
X26607857Y-12389523D01*
X26786428Y-12389523D01*
X26857857Y-12421428D01*
X26893571Y-12453333D01*
X26929285Y-12517142D01*
X26929285Y-12708571D01*
X26893571Y-12772380D01*
X26857857Y-12804285D01*
X31979285Y-15037619D02*
X31979285Y-15420476D01*
X31979285Y-15229047D02*
X31229285Y-15229047D01*
X31336428Y-15292857D01*
X31407857Y-15356666D01*
X31443571Y-15420476D01*
X31229285Y-14622857D02*
X31229285Y-14559047D01*
X31265000Y-14495238D01*
X31300714Y-14463333D01*
X31372142Y-14431428D01*
X31515000Y-14399523D01*
X31693571Y-14399523D01*
X31836428Y-14431428D01*
X31907857Y-14463333D01*
X31943571Y-14495238D01*
X31979285Y-14559047D01*
X31979285Y-14622857D01*
X31943571Y-14686666D01*
X31907857Y-14718571D01*
X31836428Y-14750476D01*
X31693571Y-14782380D01*
X31515000Y-14782380D01*
X31372142Y-14750476D01*
X31300714Y-14718571D01*
X31265000Y-14686666D01*
X31229285Y-14622857D01*
X31193571Y-13633809D02*
X32157857Y-14208095D01*
X31586428Y-13187142D02*
X31622142Y-13091428D01*
X31657857Y-13059523D01*
X31729285Y-13027619D01*
X31836428Y-13027619D01*
X31907857Y-13059523D01*
X31943571Y-13091428D01*
X31979285Y-13155238D01*
X31979285Y-13410476D01*
X31229285Y-13410476D01*
X31229285Y-13187142D01*
X31265000Y-13123333D01*
X31300714Y-13091428D01*
X31372142Y-13059523D01*
X31443571Y-13059523D01*
X31515000Y-13091428D01*
X31550714Y-13123333D01*
X31586428Y-13187142D01*
X31586428Y-13410476D01*
X31229285Y-12453333D02*
X31229285Y-12580952D01*
X31265000Y-12644761D01*
X31300714Y-12676666D01*
X31407857Y-12740476D01*
X31550714Y-12772380D01*
X31836428Y-12772380D01*
X31907857Y-12740476D01*
X31943571Y-12708571D01*
X31979285Y-12644761D01*
X31979285Y-12517142D01*
X31943571Y-12453333D01*
X31907857Y-12421428D01*
X31836428Y-12389523D01*
X31657857Y-12389523D01*
X31586428Y-12421428D01*
X31550714Y-12453333D01*
X31515000Y-12517142D01*
X31515000Y-12644761D01*
X31550714Y-12708571D01*
X31586428Y-12740476D01*
X31657857Y-12772380D01*
X29479285Y-15037619D02*
X29479285Y-15420476D01*
X29479285Y-15229047D02*
X28729285Y-15229047D01*
X28836428Y-15292857D01*
X28907857Y-15356666D01*
X28943571Y-15420476D01*
X28729285Y-14463333D02*
X28729285Y-14590952D01*
X28765000Y-14654761D01*
X28800714Y-14686666D01*
X28907857Y-14750476D01*
X29050714Y-14782380D01*
X29336428Y-14782380D01*
X29407857Y-14750476D01*
X29443571Y-14718571D01*
X29479285Y-14654761D01*
X29479285Y-14527142D01*
X29443571Y-14463333D01*
X29407857Y-14431428D01*
X29336428Y-14399523D01*
X29157857Y-14399523D01*
X29086428Y-14431428D01*
X29050714Y-14463333D01*
X29015000Y-14527142D01*
X29015000Y-14654761D01*
X29050714Y-14718571D01*
X29086428Y-14750476D01*
X29157857Y-14782380D01*
X28693571Y-13633809D02*
X29657857Y-14208095D01*
X29086428Y-13187142D02*
X29122142Y-13091428D01*
X29157857Y-13059523D01*
X29229285Y-13027619D01*
X29336428Y-13027619D01*
X29407857Y-13059523D01*
X29443571Y-13091428D01*
X29479285Y-13155238D01*
X29479285Y-13410476D01*
X28729285Y-13410476D01*
X28729285Y-13187142D01*
X28765000Y-13123333D01*
X28800714Y-13091428D01*
X28872142Y-13059523D01*
X28943571Y-13059523D01*
X29015000Y-13091428D01*
X29050714Y-13123333D01*
X29086428Y-13187142D01*
X29086428Y-13410476D01*
X28800714Y-12772380D02*
X28765000Y-12740476D01*
X28729285Y-12676666D01*
X28729285Y-12517142D01*
X28765000Y-12453333D01*
X28800714Y-12421428D01*
X28872142Y-12389523D01*
X28943571Y-12389523D01*
X29050714Y-12421428D01*
X29479285Y-12804285D01*
X29479285Y-12389523D01*
X26386428Y-5937619D02*
X26386428Y-5714285D01*
X26779285Y-5618571D02*
X26779285Y-5937619D01*
X26029285Y-5937619D01*
X26029285Y-5618571D01*
X26029285Y-5044285D02*
X26029285Y-5171904D01*
X26065000Y-5235714D01*
X26100714Y-5267619D01*
X26207857Y-5331428D01*
X26350714Y-5363333D01*
X26636428Y-5363333D01*
X26707857Y-5331428D01*
X26743571Y-5299523D01*
X26779285Y-5235714D01*
X26779285Y-5108095D01*
X26743571Y-5044285D01*
X26707857Y-5012380D01*
X26636428Y-4980476D01*
X26457857Y-4980476D01*
X26386428Y-5012380D01*
X26350714Y-5044285D01*
X26315000Y-5108095D01*
X26315000Y-5235714D01*
X26350714Y-5299523D01*
X26386428Y-5331428D01*
X26457857Y-5363333D01*
X25993571Y-4214761D02*
X26957857Y-4789047D01*
X26029285Y-4055238D02*
X26029285Y-3608571D01*
X26779285Y-3895714D01*
X24229285Y-5969523D02*
X23479285Y-5969523D01*
X23479285Y-5810000D01*
X23515000Y-5714285D01*
X23586428Y-5650476D01*
X23657857Y-5618571D01*
X23800714Y-5586666D01*
X23907857Y-5586666D01*
X24050714Y-5618571D01*
X24122142Y-5650476D01*
X24193571Y-5714285D01*
X24229285Y-5810000D01*
X24229285Y-5969523D01*
X23479285Y-5363333D02*
X23479285Y-4916666D01*
X24229285Y-5203809D01*
X23443571Y-4182857D02*
X24407857Y-4757142D01*
X23479285Y-3672380D02*
X23479285Y-3800000D01*
X23515000Y-3863809D01*
X23550714Y-3895714D01*
X23657857Y-3959523D01*
X23800714Y-3991428D01*
X24086428Y-3991428D01*
X24157857Y-3959523D01*
X24193571Y-3927619D01*
X24229285Y-3863809D01*
X24229285Y-3736190D01*
X24193571Y-3672380D01*
X24157857Y-3640476D01*
X24086428Y-3608571D01*
X23907857Y-3608571D01*
X23836428Y-3640476D01*
X23800714Y-3672380D01*
X23765000Y-3736190D01*
X23765000Y-3863809D01*
X23800714Y-3927619D01*
X23836428Y-3959523D01*
X23907857Y-3991428D01*
X8465000Y-5065476D02*
X8429285Y-5129285D01*
X8429285Y-5225000D01*
X8465000Y-5320714D01*
X8536428Y-5384523D01*
X8607857Y-5416428D01*
X8750714Y-5448333D01*
X8857857Y-5448333D01*
X9000714Y-5416428D01*
X9072142Y-5384523D01*
X9143571Y-5320714D01*
X9179285Y-5225000D01*
X9179285Y-5161190D01*
X9143571Y-5065476D01*
X9107857Y-5033571D01*
X8857857Y-5033571D01*
X8857857Y-5161190D01*
X9179285Y-4746428D02*
X8429285Y-4746428D01*
X9179285Y-4363571D01*
X8429285Y-4363571D01*
X9179285Y-4044523D02*
X8429285Y-4044523D01*
X8429285Y-3885000D01*
X8465000Y-3789285D01*
X8536428Y-3725476D01*
X8607857Y-3693571D01*
X8750714Y-3661666D01*
X8857857Y-3661666D01*
X9000714Y-3693571D01*
X9072142Y-3725476D01*
X9143571Y-3789285D01*
X9179285Y-3885000D01*
X9179285Y-4044523D01*
X10915000Y-5065476D02*
X10879285Y-5129285D01*
X10879285Y-5225000D01*
X10915000Y-5320714D01*
X10986428Y-5384523D01*
X11057857Y-5416428D01*
X11200714Y-5448333D01*
X11307857Y-5448333D01*
X11450714Y-5416428D01*
X11522142Y-5384523D01*
X11593571Y-5320714D01*
X11629285Y-5225000D01*
X11629285Y-5161190D01*
X11593571Y-5065476D01*
X11557857Y-5033571D01*
X11307857Y-5033571D01*
X11307857Y-5161190D01*
X11629285Y-4746428D02*
X10879285Y-4746428D01*
X11629285Y-4363571D01*
X10879285Y-4363571D01*
X11629285Y-4044523D02*
X10879285Y-4044523D01*
X10879285Y-3885000D01*
X10915000Y-3789285D01*
X10986428Y-3725476D01*
X11057857Y-3693571D01*
X11200714Y-3661666D01*
X11307857Y-3661666D01*
X11450714Y-3693571D01*
X11522142Y-3725476D01*
X11593571Y-3789285D01*
X11629285Y-3885000D01*
X11629285Y-4044523D01*
X2539285Y-3738809D02*
X1789285Y-3738809D01*
X1789285Y-3579285D01*
X1825000Y-3483571D01*
X1896428Y-3419761D01*
X1967857Y-3387857D01*
X2110714Y-3355952D01*
X2217857Y-3355952D01*
X2360714Y-3387857D01*
X2432142Y-3419761D01*
X2503571Y-3483571D01*
X2539285Y-3579285D01*
X2539285Y-3738809D01*
X1789285Y-3132619D02*
X1789285Y-2717857D01*
X2075000Y-2941190D01*
X2075000Y-2845476D01*
X2110714Y-2781666D01*
X2146428Y-2749761D01*
X2217857Y-2717857D01*
X2396428Y-2717857D01*
X2467857Y-2749761D01*
X2503571Y-2781666D01*
X2539285Y-2845476D01*
X2539285Y-3036904D01*
X2503571Y-3100714D01*
X2467857Y-3132619D01*
X1753571Y-1952142D02*
X2717857Y-2526428D01*
X1789285Y-1824523D02*
X1789285Y-1441666D01*
X2539285Y-1633095D02*
X1789285Y-1633095D01*
X1789285Y-1282142D02*
X2539285Y-835476D01*
X1789285Y-835476D02*
X2539285Y-1282142D01*
X1789285Y-452619D02*
X1789285Y-388809D01*
X1825000Y-325000D01*
X1860714Y-293095D01*
X1932142Y-261190D01*
X2075000Y-229285D01*
X2253571Y-229285D01*
X2396428Y-261190D01*
X2467857Y-293095D01*
X2503571Y-325000D01*
X2539285Y-388809D01*
X2539285Y-452619D01*
X2503571Y-516428D01*
X2467857Y-548333D01*
X2396428Y-580238D01*
X2253571Y-612142D01*
X2075000Y-612142D01*
X1932142Y-580238D01*
X1860714Y-548333D01*
X1825000Y-516428D01*
X1789285Y-452619D01*
X19129285Y-5969523D02*
X18379285Y-5969523D01*
X18379285Y-5810000D01*
X18415000Y-5714285D01*
X18486428Y-5650476D01*
X18557857Y-5618571D01*
X18700714Y-5586666D01*
X18807857Y-5586666D01*
X18950714Y-5618571D01*
X19022142Y-5650476D01*
X19093571Y-5714285D01*
X19129285Y-5810000D01*
X19129285Y-5969523D01*
X18629285Y-5012380D02*
X19129285Y-5012380D01*
X18343571Y-5171904D02*
X18879285Y-5331428D01*
X18879285Y-4916666D01*
X18343571Y-4182857D02*
X19307857Y-4757142D01*
X18629285Y-3672380D02*
X19129285Y-3672380D01*
X18343571Y-3831904D02*
X18879285Y-3991428D01*
X18879285Y-3576666D01*
X14093571Y-8543571D02*
X14129285Y-8447857D01*
X14129285Y-8288333D01*
X14093571Y-8224523D01*
X14057857Y-8192619D01*
X13986428Y-8160714D01*
X13915000Y-8160714D01*
X13843571Y-8192619D01*
X13807857Y-8224523D01*
X13772142Y-8288333D01*
X13736428Y-8415952D01*
X13700714Y-8479761D01*
X13665000Y-8511666D01*
X13593571Y-8543571D01*
X13522142Y-8543571D01*
X13450714Y-8511666D01*
X13415000Y-8479761D01*
X13379285Y-8415952D01*
X13379285Y-8256428D01*
X13415000Y-8160714D01*
X14129285Y-7873571D02*
X13379285Y-7873571D01*
X13379285Y-7714047D01*
X13415000Y-7618333D01*
X13486428Y-7554523D01*
X13557857Y-7522619D01*
X13700714Y-7490714D01*
X13807857Y-7490714D01*
X13950714Y-7522619D01*
X14022142Y-7554523D01*
X14093571Y-7618333D01*
X14129285Y-7714047D01*
X14129285Y-7873571D01*
X13915000Y-7235476D02*
X13915000Y-6916428D01*
X14129285Y-7299285D02*
X13379285Y-7075952D01*
X14129285Y-6852619D01*
X13343571Y-6150714D02*
X14307857Y-6725000D01*
X14129285Y-5927380D02*
X13379285Y-5927380D01*
X13379285Y-5767857D01*
X13415000Y-5672142D01*
X13486428Y-5608333D01*
X13557857Y-5576428D01*
X13700714Y-5544523D01*
X13807857Y-5544523D01*
X13950714Y-5576428D01*
X14022142Y-5608333D01*
X14093571Y-5672142D01*
X14129285Y-5767857D01*
X14129285Y-5927380D01*
X14129285Y-4906428D02*
X14129285Y-5289285D01*
X14129285Y-5097857D02*
X13379285Y-5097857D01*
X13486428Y-5161666D01*
X13557857Y-5225476D01*
X13593571Y-5289285D01*
X13343571Y-4140714D02*
X14307857Y-4715000D01*
X13450714Y-3949285D02*
X13415000Y-3917380D01*
X13379285Y-3853571D01*
X13379285Y-3694047D01*
X13415000Y-3630238D01*
X13450714Y-3598333D01*
X13522142Y-3566428D01*
X13593571Y-3566428D01*
X13700714Y-3598333D01*
X14129285Y-3981190D01*
X14129285Y-3566428D01*
X16593571Y-8527619D02*
X16629285Y-8431904D01*
X16629285Y-8272380D01*
X16593571Y-8208571D01*
X16557857Y-8176666D01*
X16486428Y-8144761D01*
X16415000Y-8144761D01*
X16343571Y-8176666D01*
X16307857Y-8208571D01*
X16272142Y-8272380D01*
X16236428Y-8400000D01*
X16200714Y-8463809D01*
X16165000Y-8495714D01*
X16093571Y-8527619D01*
X16022142Y-8527619D01*
X15950714Y-8495714D01*
X15915000Y-8463809D01*
X15879285Y-8400000D01*
X15879285Y-8240476D01*
X15915000Y-8144761D01*
X16557857Y-7474761D02*
X16593571Y-7506666D01*
X16629285Y-7602380D01*
X16629285Y-7666190D01*
X16593571Y-7761904D01*
X16522142Y-7825714D01*
X16450714Y-7857619D01*
X16307857Y-7889523D01*
X16200714Y-7889523D01*
X16057857Y-7857619D01*
X15986428Y-7825714D01*
X15915000Y-7761904D01*
X15879285Y-7666190D01*
X15879285Y-7602380D01*
X15915000Y-7506666D01*
X15950714Y-7474761D01*
X16629285Y-6868571D02*
X16629285Y-7187619D01*
X15879285Y-7187619D01*
X15843571Y-6166666D02*
X16807857Y-6740952D01*
X16629285Y-5943333D02*
X15879285Y-5943333D01*
X15879285Y-5783809D01*
X15915000Y-5688095D01*
X15986428Y-5624285D01*
X16057857Y-5592380D01*
X16200714Y-5560476D01*
X16307857Y-5560476D01*
X16450714Y-5592380D01*
X16522142Y-5624285D01*
X16593571Y-5688095D01*
X16629285Y-5783809D01*
X16629285Y-5943333D01*
X15879285Y-5145714D02*
X15879285Y-5081904D01*
X15915000Y-5018095D01*
X15950714Y-4986190D01*
X16022142Y-4954285D01*
X16165000Y-4922380D01*
X16343571Y-4922380D01*
X16486428Y-4954285D01*
X16557857Y-4986190D01*
X16593571Y-5018095D01*
X16629285Y-5081904D01*
X16629285Y-5145714D01*
X16593571Y-5209523D01*
X16557857Y-5241428D01*
X16486428Y-5273333D01*
X16343571Y-5305238D01*
X16165000Y-5305238D01*
X16022142Y-5273333D01*
X15950714Y-5241428D01*
X15915000Y-5209523D01*
X15879285Y-5145714D01*
X15843571Y-4156666D02*
X16807857Y-4730952D01*
X15879285Y-3997142D02*
X15879285Y-3582380D01*
X16165000Y-3805714D01*
X16165000Y-3710000D01*
X16200714Y-3646190D01*
X16236428Y-3614285D01*
X16307857Y-3582380D01*
X16486428Y-3582380D01*
X16557857Y-3614285D01*
X16593571Y-3646190D01*
X16629285Y-3710000D01*
X16629285Y-3901428D01*
X16593571Y-3965238D01*
X16557857Y-3997142D01*
X21607857Y-5586666D02*
X21643571Y-5618571D01*
X21679285Y-5714285D01*
X21679285Y-5778095D01*
X21643571Y-5873809D01*
X21572142Y-5937619D01*
X21500714Y-5969523D01*
X21357857Y-6001428D01*
X21250714Y-6001428D01*
X21107857Y-5969523D01*
X21036428Y-5937619D01*
X20965000Y-5873809D01*
X20929285Y-5778095D01*
X20929285Y-5714285D01*
X20965000Y-5618571D01*
X21000714Y-5586666D01*
X20929285Y-5012380D02*
X20929285Y-5140000D01*
X20965000Y-5203809D01*
X21000714Y-5235714D01*
X21107857Y-5299523D01*
X21250714Y-5331428D01*
X21536428Y-5331428D01*
X21607857Y-5299523D01*
X21643571Y-5267619D01*
X21679285Y-5203809D01*
X21679285Y-5076190D01*
X21643571Y-5012380D01*
X21607857Y-4980476D01*
X21536428Y-4948571D01*
X21357857Y-4948571D01*
X21286428Y-4980476D01*
X21250714Y-5012380D01*
X21215000Y-5076190D01*
X21215000Y-5203809D01*
X21250714Y-5267619D01*
X21286428Y-5299523D01*
X21357857Y-5331428D01*
X20893571Y-4182857D02*
X21857857Y-4757142D01*
X20929285Y-3640476D02*
X20929285Y-3959523D01*
X21286428Y-3991428D01*
X21250714Y-3959523D01*
X21215000Y-3895714D01*
X21215000Y-3736190D01*
X21250714Y-3672380D01*
X21286428Y-3640476D01*
X21357857Y-3608571D01*
X21536428Y-3608571D01*
X21607857Y-3640476D01*
X21643571Y-3672380D01*
X21679285Y-3736190D01*
X21679285Y-3895714D01*
X21643571Y-3959523D01*
X21607857Y-3991428D01*
X31436428Y-5746190D02*
X31472142Y-5650476D01*
X31507857Y-5618571D01*
X31579285Y-5586666D01*
X31686428Y-5586666D01*
X31757857Y-5618571D01*
X31793571Y-5650476D01*
X31829285Y-5714285D01*
X31829285Y-5969523D01*
X31079285Y-5969523D01*
X31079285Y-5746190D01*
X31115000Y-5682380D01*
X31150714Y-5650476D01*
X31222142Y-5618571D01*
X31293571Y-5618571D01*
X31365000Y-5650476D01*
X31400714Y-5682380D01*
X31436428Y-5746190D01*
X31436428Y-5969523D01*
X31079285Y-4980476D02*
X31079285Y-5299523D01*
X31436428Y-5331428D01*
X31400714Y-5299523D01*
X31365000Y-5235714D01*
X31365000Y-5076190D01*
X31400714Y-5012380D01*
X31436428Y-4980476D01*
X31507857Y-4948571D01*
X31686428Y-4948571D01*
X31757857Y-4980476D01*
X31793571Y-5012380D01*
X31829285Y-5076190D01*
X31829285Y-5235714D01*
X31793571Y-5299523D01*
X31757857Y-5331428D01*
X31043571Y-4182857D02*
X32007857Y-4757142D01*
X31829285Y-3927619D02*
X31829285Y-3800000D01*
X31793571Y-3736190D01*
X31757857Y-3704285D01*
X31650714Y-3640476D01*
X31507857Y-3608571D01*
X31222142Y-3608571D01*
X31150714Y-3640476D01*
X31115000Y-3672380D01*
X31079285Y-3736190D01*
X31079285Y-3863809D01*
X31115000Y-3927619D01*
X31150714Y-3959523D01*
X31222142Y-3991428D01*
X31400714Y-3991428D01*
X31472142Y-3959523D01*
X31507857Y-3927619D01*
X31543571Y-3863809D01*
X31543571Y-3736190D01*
X31507857Y-3672380D01*
X31472142Y-3640476D01*
X31400714Y-3608571D01*
X8218571Y-2860714D02*
X8218571Y-3610714D01*
X8059047Y-3610714D01*
X7963333Y-3575000D01*
X7899523Y-3503571D01*
X7867619Y-3432142D01*
X7835714Y-3289285D01*
X7835714Y-3182142D01*
X7867619Y-3039285D01*
X7899523Y-2967857D01*
X7963333Y-2896428D01*
X8059047Y-2860714D01*
X8218571Y-2860714D01*
X7580476Y-3539285D02*
X7548571Y-3575000D01*
X7484761Y-3610714D01*
X7325238Y-3610714D01*
X7261428Y-3575000D01*
X7229523Y-3539285D01*
X7197619Y-3467857D01*
X7197619Y-3396428D01*
X7229523Y-3289285D01*
X7612380Y-2860714D01*
X7197619Y-2860714D01*
X6431904Y-3646428D02*
X7006190Y-2682142D01*
X5825714Y-2860714D02*
X6049047Y-3217857D01*
X6208571Y-2860714D02*
X6208571Y-3610714D01*
X5953333Y-3610714D01*
X5889523Y-3575000D01*
X5857619Y-3539285D01*
X5825714Y-3467857D01*
X5825714Y-3360714D01*
X5857619Y-3289285D01*
X5889523Y-3253571D01*
X5953333Y-3217857D01*
X6208571Y-3217857D01*
X5602380Y-3610714D02*
X5155714Y-2860714D01*
X5155714Y-3610714D02*
X5602380Y-2860714D01*
X4549523Y-2860714D02*
X4932380Y-2860714D01*
X4740952Y-2860714D02*
X4740952Y-3610714D01*
X4804761Y-3503571D01*
X4868571Y-3432142D01*
X4932380Y-3396428D01*
X28936428Y-5746190D02*
X28972142Y-5650476D01*
X29007857Y-5618571D01*
X29079285Y-5586666D01*
X29186428Y-5586666D01*
X29257857Y-5618571D01*
X29293571Y-5650476D01*
X29329285Y-5714285D01*
X29329285Y-5969523D01*
X28579285Y-5969523D01*
X28579285Y-5746190D01*
X28615000Y-5682380D01*
X28650714Y-5650476D01*
X28722142Y-5618571D01*
X28793571Y-5618571D01*
X28865000Y-5650476D01*
X28900714Y-5682380D01*
X28936428Y-5746190D01*
X28936428Y-5969523D01*
X28829285Y-5012380D02*
X29329285Y-5012380D01*
X28543571Y-5171904D02*
X29079285Y-5331428D01*
X29079285Y-4916666D01*
X28543571Y-4182857D02*
X29507857Y-4757142D01*
X28900714Y-3863809D02*
X28865000Y-3927619D01*
X28829285Y-3959523D01*
X28757857Y-3991428D01*
X28722142Y-3991428D01*
X28650714Y-3959523D01*
X28615000Y-3927619D01*
X28579285Y-3863809D01*
X28579285Y-3736190D01*
X28615000Y-3672380D01*
X28650714Y-3640476D01*
X28722142Y-3608571D01*
X28757857Y-3608571D01*
X28829285Y-3640476D01*
X28865000Y-3672380D01*
X28900714Y-3736190D01*
X28900714Y-3863809D01*
X28936428Y-3927619D01*
X28972142Y-3959523D01*
X29043571Y-3991428D01*
X29186428Y-3991428D01*
X29257857Y-3959523D01*
X29293571Y-3927619D01*
X29329285Y-3863809D01*
X29329285Y-3736190D01*
X29293571Y-3672380D01*
X29257857Y-3640476D01*
X29186428Y-3608571D01*
X29043571Y-3608571D01*
X28972142Y-3640476D01*
X28936428Y-3672380D01*
X28900714Y-3736190D01*
D12*
X-2020715Y-10456428D02*
X-1413572Y-10456428D01*
X-1342143Y-10420714D01*
X-1306429Y-10385000D01*
X-1270715Y-10313571D01*
X-1270715Y-10170714D01*
X-1306429Y-10099285D01*
X-1342143Y-10063571D01*
X-1413572Y-10027857D01*
X-2020715Y-10027857D01*
X-1306429Y-9706428D02*
X-1270715Y-9599285D01*
X-1270715Y-9420714D01*
X-1306429Y-9349285D01*
X-1342143Y-9313571D01*
X-1413572Y-9277857D01*
X-1485000Y-9277857D01*
X-1556429Y-9313571D01*
X-1592143Y-9349285D01*
X-1627858Y-9420714D01*
X-1663572Y-9563571D01*
X-1699286Y-9635000D01*
X-1735000Y-9670714D01*
X-1806429Y-9706428D01*
X-1877858Y-9706428D01*
X-1949286Y-9670714D01*
X-1985000Y-9635000D01*
X-2020715Y-9563571D01*
X-2020715Y-9385000D01*
X-1985000Y-9277857D01*
X-1663572Y-8706428D02*
X-1627858Y-8599285D01*
X-1592143Y-8563571D01*
X-1520715Y-8527857D01*
X-1413572Y-8527857D01*
X-1342143Y-8563571D01*
X-1306429Y-8599285D01*
X-1270715Y-8670714D01*
X-1270715Y-8956428D01*
X-2020715Y-8956428D01*
X-2020715Y-8706428D01*
X-1985000Y-8635000D01*
X-1949286Y-8599285D01*
X-1877858Y-8563571D01*
X-1806429Y-8563571D01*
X-1735000Y-8599285D01*
X-1699286Y-8635000D01*
X-1663572Y-8706428D01*
X-1663572Y-8956428D01*
%LPC*%
D14*
X80130000Y-42880000D03*
X3590000Y-96420000D03*
X244030000Y-96420000D03*
X226200000Y-6600000D03*
X38180000Y-6600000D03*
D15*
X17540000Y-21690000D03*
D14*
X122590000Y-96420000D03*
X167500000Y-42870000D03*
D16*
X99816250Y-95592500D03*
D17*
X102356250Y-90512500D03*
D16*
X106166250Y-93052500D03*
D18*
X107436250Y-90512500D03*
X97276250Y-90512500D03*
D19*
X90418250Y-97497500D03*
X114294250Y-97497500D03*
D17*
X90418250Y-82257500D03*
X114294250Y-82257500D03*
D20*
X248190000Y-64700000D03*
X248200000Y-58100000D03*
X248200000Y-63875000D03*
X248200000Y-61400000D03*
X248200000Y-60575000D03*
X248200000Y-59750000D03*
X248200000Y-58925000D03*
X248200000Y-62225000D03*
X248200000Y-63050000D03*
X-590000Y-35300000D03*
X-600000Y-41900000D03*
X-600000Y-36125000D03*
X-600000Y-38600000D03*
X-600000Y-39425000D03*
X-600000Y-40250000D03*
X-600000Y-41075000D03*
X-600000Y-37775000D03*
X-600000Y-36950000D03*
X50300000Y-100610000D03*
X43700000Y-100600000D03*
X49475000Y-100600000D03*
X47000000Y-100600000D03*
X46175000Y-100600000D03*
X45350000Y-100600000D03*
X44525000Y-100600000D03*
X47825000Y-100600000D03*
X48650000Y-100600000D03*
X203900000Y-100610000D03*
X197300000Y-100600000D03*
X203075000Y-100600000D03*
X200600000Y-100600000D03*
X199775000Y-100600000D03*
X198950000Y-100600000D03*
X198125000Y-100600000D03*
X201425000Y-100600000D03*
X202250000Y-100600000D03*
X203900000Y590000D03*
X197300000Y600000D03*
X203075000Y600000D03*
X200600000Y600000D03*
X199775000Y600000D03*
X198950000Y600000D03*
X198125000Y600000D03*
X201425000Y600000D03*
X202250000Y600000D03*
X50300000Y590000D03*
X43700000Y600000D03*
X49475000Y600000D03*
X47000000Y600000D03*
X46175000Y600000D03*
X45350000Y600000D03*
X44525000Y600000D03*
X47825000Y600000D03*
X48650000Y600000D03*
D16*
X112040000Y-66382500D03*
D17*
X109500000Y-71462500D03*
D16*
X105690000Y-68922500D03*
D18*
X104420000Y-71462500D03*
X114580000Y-71462500D03*
D14*
X250720000Y3080000D03*
X250730000Y-103120000D03*
X-3120000Y-103120000D03*
X-3120000Y3080000D03*
D15*
X38160000Y-20720000D03*
D21*
X3712000Y-17118600D03*
X6252000Y-17118600D03*
X8792000Y-17118600D03*
X11332000Y-17118600D03*
X13872000Y-17118600D03*
X16412000Y-17118600D03*
X18952000Y-17118600D03*
X21492000Y-17118600D03*
X24032000Y-17118600D03*
X26572000Y-17118600D03*
X29112000Y-17118600D03*
X31652000Y-17118600D03*
X31652000Y-1898600D03*
X29112000Y-1898600D03*
X26572000Y-1898600D03*
X24032000Y-1898600D03*
X21492000Y-1898600D03*
X18952000Y-1898600D03*
X16412000Y-1898600D03*
X13872000Y-1898600D03*
X11332000Y-1898600D03*
X8792000Y-1898600D03*
X6252000Y-1898600D03*
X3712000Y-1898600D03*
D22*
X2350000Y-22000000D03*
X8850000Y-22000000D03*
D16*
X54890000Y-4470000D03*
D17*
X52350000Y-9550000D03*
D16*
X48540000Y-7010000D03*
D18*
X47270000Y-9550000D03*
X57430000Y-9550000D03*
D16*
X78702500Y-4470000D03*
D17*
X76162500Y-9550000D03*
D16*
X72352500Y-7010000D03*
D18*
X71082500Y-9550000D03*
X81242500Y-9550000D03*
D16*
X97752500Y-4470000D03*
D17*
X95212500Y-9550000D03*
D16*
X91402500Y-7010000D03*
D18*
X90132500Y-9550000D03*
X100292500Y-9550000D03*
D16*
X116802500Y-4470000D03*
D17*
X114262500Y-9550000D03*
D16*
X110452500Y-7010000D03*
D18*
X109182500Y-9550000D03*
X119342500Y-9550000D03*
D16*
X135852500Y-4470000D03*
D17*
X133312500Y-9550000D03*
D16*
X129502500Y-7010000D03*
D18*
X128232500Y-9550000D03*
X138392500Y-9550000D03*
D16*
X159665000Y-4470000D03*
D17*
X157125000Y-9550000D03*
D16*
X153315000Y-7010000D03*
D18*
X152045000Y-9550000D03*
X162205000Y-9550000D03*
D16*
X16790000Y-28282500D03*
D17*
X14250000Y-33362500D03*
D16*
X10440000Y-30822500D03*
D18*
X9170000Y-33362500D03*
X19330000Y-33362500D03*
D16*
X40602500Y-28282500D03*
D17*
X38062500Y-33362500D03*
D16*
X34252500Y-30822500D03*
D18*
X32982500Y-33362500D03*
X43142500Y-33362500D03*
D16*
X59652500Y-28282500D03*
D17*
X57112500Y-33362500D03*
D16*
X53302500Y-30822500D03*
D18*
X52032500Y-33362500D03*
X62192500Y-33362500D03*
D16*
X78702500Y-28282500D03*
D17*
X76162500Y-33362500D03*
D16*
X72352500Y-30822500D03*
D18*
X71082500Y-33362500D03*
X81242500Y-33362500D03*
D16*
X97752500Y-28282500D03*
D17*
X95212500Y-33362500D03*
D16*
X91402500Y-30822500D03*
D18*
X90132500Y-33362500D03*
X100292500Y-33362500D03*
D16*
X116802500Y-28282500D03*
D17*
X114262500Y-33362500D03*
D16*
X110452500Y-30822500D03*
D18*
X109182500Y-33362500D03*
X119342500Y-33362500D03*
D16*
X135852500Y-28282500D03*
D17*
X133312500Y-33362500D03*
D16*
X129502500Y-30822500D03*
D18*
X128232500Y-33362500D03*
X138392500Y-33362500D03*
D16*
X154902500Y-28282500D03*
D17*
X152362500Y-33362500D03*
D16*
X148552500Y-30822500D03*
D18*
X147282500Y-33362500D03*
X157442500Y-33362500D03*
D16*
X14091250Y-57492500D03*
D17*
X16631250Y-52412500D03*
D16*
X20441250Y-54952500D03*
D18*
X21711250Y-52412500D03*
X11551250Y-52412500D03*
D16*
X45365000Y-47332500D03*
D17*
X42825000Y-52412500D03*
D16*
X39015000Y-49872500D03*
D18*
X37745000Y-52412500D03*
X47905000Y-52412500D03*
D16*
X64415000Y-47332500D03*
D17*
X61875000Y-52412500D03*
D16*
X58065000Y-49872500D03*
D18*
X56795000Y-52412500D03*
X66955000Y-52412500D03*
D16*
X83465000Y-47332500D03*
D17*
X80925000Y-52412500D03*
D16*
X77115000Y-49872500D03*
D18*
X75845000Y-52412500D03*
X86005000Y-52412500D03*
D16*
X102515000Y-47332500D03*
D17*
X99975000Y-52412500D03*
D16*
X96165000Y-49872500D03*
D18*
X94895000Y-52412500D03*
X105055000Y-52412500D03*
D16*
X121565000Y-47332500D03*
D17*
X119025000Y-52412500D03*
D16*
X115215000Y-49872500D03*
D18*
X113945000Y-52412500D03*
X124105000Y-52412500D03*
D16*
X140615000Y-47332500D03*
D17*
X138075000Y-52412500D03*
D16*
X134265000Y-49872500D03*
D18*
X132995000Y-52412500D03*
X143155000Y-52412500D03*
D16*
X159665000Y-47332500D03*
D17*
X157125000Y-52412500D03*
D16*
X153315000Y-49872500D03*
D18*
X152045000Y-52412500D03*
X162205000Y-52412500D03*
D16*
X23933750Y-66382500D03*
D17*
X21393750Y-71462500D03*
D16*
X17583750Y-68922500D03*
D18*
X16313750Y-71462500D03*
X26473750Y-71462500D03*
D19*
X33331750Y-78447500D03*
X9455750Y-78447500D03*
D17*
X33331750Y-63207500D03*
X9455750Y-63207500D03*
D16*
X54890000Y-66382500D03*
D17*
X52350000Y-71462500D03*
D16*
X48540000Y-68922500D03*
D18*
X47270000Y-71462500D03*
X57430000Y-71462500D03*
D16*
X73940000Y-66382500D03*
D17*
X71400000Y-71462500D03*
D16*
X67590000Y-68922500D03*
D18*
X66320000Y-71462500D03*
X76480000Y-71462500D03*
D16*
X92990000Y-66382500D03*
D17*
X90450000Y-71462500D03*
D16*
X86640000Y-68922500D03*
D18*
X85370000Y-71462500D03*
X95530000Y-71462500D03*
D16*
X131090000Y-66382500D03*
D17*
X128550000Y-71462500D03*
D16*
X124740000Y-68922500D03*
D18*
X123470000Y-71462500D03*
X133630000Y-71462500D03*
D16*
X150140000Y-66382500D03*
D17*
X147600000Y-71462500D03*
D16*
X143790000Y-68922500D03*
D18*
X142520000Y-71462500D03*
X152680000Y-71462500D03*
D16*
X169190000Y-66382500D03*
D17*
X166650000Y-71462500D03*
D16*
X162840000Y-68922500D03*
D18*
X161570000Y-71462500D03*
X171730000Y-71462500D03*
D16*
X178715000Y-4470000D03*
D17*
X176175000Y-9550000D03*
D16*
X172365000Y-7010000D03*
D18*
X171095000Y-9550000D03*
X181255000Y-9550000D03*
D16*
X197765000Y-4470000D03*
D17*
X195225000Y-9550000D03*
D16*
X191415000Y-7010000D03*
D18*
X190145000Y-9550000D03*
X200305000Y-9550000D03*
D16*
X216815000Y-4470000D03*
D17*
X214275000Y-9550000D03*
D16*
X210465000Y-7010000D03*
D18*
X209195000Y-9550000D03*
X219355000Y-9550000D03*
D16*
X240627500Y-4470000D03*
D17*
X238087500Y-9550000D03*
D16*
X234277500Y-7010000D03*
D18*
X233007500Y-9550000D03*
X243167500Y-9550000D03*
D16*
X173952500Y-28282500D03*
D17*
X171412500Y-33362500D03*
D16*
X167602500Y-30822500D03*
D18*
X166332500Y-33362500D03*
X176492500Y-33362500D03*
D16*
X193002500Y-28282500D03*
D17*
X190462500Y-33362500D03*
D16*
X186652500Y-30822500D03*
D18*
X185382500Y-33362500D03*
X195542500Y-33362500D03*
D16*
X212052500Y-28282500D03*
D17*
X209512500Y-33362500D03*
D16*
X205702500Y-30822500D03*
D18*
X204432500Y-33362500D03*
X214592500Y-33362500D03*
D16*
X235865000Y-28282500D03*
D17*
X233325000Y-33362500D03*
D16*
X229515000Y-30822500D03*
D18*
X228245000Y-33362500D03*
X238405000Y-33362500D03*
D16*
X178715000Y-47332500D03*
D17*
X176175000Y-52412500D03*
D16*
X172365000Y-49872500D03*
D18*
X171095000Y-52412500D03*
X181255000Y-52412500D03*
D16*
X197765000Y-47332500D03*
D17*
X195225000Y-52412500D03*
D16*
X191415000Y-49872500D03*
D18*
X190145000Y-52412500D03*
X200305000Y-52412500D03*
D16*
X211735000Y-57492500D03*
D17*
X214275000Y-52412500D03*
D16*
X218085000Y-54952500D03*
D18*
X219355000Y-52412500D03*
X209195000Y-52412500D03*
D16*
X228721250Y-47332500D03*
D17*
X226181250Y-52412500D03*
D16*
X222371250Y-49872500D03*
D18*
X221101250Y-52412500D03*
X231261250Y-52412500D03*
D19*
X238119250Y-59397500D03*
X214243250Y-59397500D03*
D17*
X238119250Y-44157500D03*
X214243250Y-44157500D03*
D16*
X233166250Y-57492500D03*
D17*
X235706250Y-52412500D03*
D16*
X239516250Y-54952500D03*
D18*
X240786250Y-52412500D03*
X230626250Y-52412500D03*
D16*
X138233750Y-85432500D03*
D17*
X135693750Y-90512500D03*
D16*
X131883750Y-87972500D03*
D18*
X130613750Y-90512500D03*
X140773750Y-90512500D03*
D19*
X185693650Y-97497500D03*
X85693850Y-97497500D03*
D17*
X185693650Y-82257500D03*
X85693850Y-82257500D03*
D16*
X147441250Y-95592500D03*
D17*
X149981250Y-90512500D03*
D16*
X153791250Y-93052500D03*
D18*
X155061250Y-90512500D03*
X144901250Y-90512500D03*
D19*
X138043250Y-97497500D03*
X161919250Y-97497500D03*
D17*
X138043250Y-82257500D03*
X161919250Y-82257500D03*
D16*
X188240000Y-66382500D03*
D17*
X185700000Y-71462500D03*
D16*
X181890000Y-68922500D03*
D18*
X180620000Y-71462500D03*
X190780000Y-71462500D03*
D16*
X202210000Y-76542500D03*
D17*
X204750000Y-71462500D03*
D16*
X208560000Y-74002500D03*
D18*
X209830000Y-71462500D03*
X199670000Y-71462500D03*
D16*
X228403750Y-76542500D03*
D17*
X230943750Y-71462500D03*
D16*
X234753750Y-74002500D03*
D18*
X236023750Y-71462500D03*
X225863750Y-71462500D03*
D16*
X16790000Y-85432500D03*
D17*
X14250000Y-90512500D03*
D16*
X10440000Y-87972500D03*
D18*
X9170000Y-90512500D03*
X19330000Y-90512500D03*
D16*
X42983750Y-85432500D03*
D17*
X40443750Y-90512500D03*
D16*
X36633750Y-87972500D03*
D18*
X35363750Y-90512500D03*
X45523750Y-90512500D03*
D16*
X66796250Y-85432500D03*
D17*
X64256250Y-90512500D03*
D16*
X60446250Y-87972500D03*
D18*
X59176250Y-90512500D03*
X69336250Y-90512500D03*
D16*
X185858750Y-85432500D03*
D17*
X183318750Y-90512500D03*
D16*
X179508750Y-87972500D03*
D18*
X178238750Y-90512500D03*
X188398750Y-90512500D03*
D16*
X209671250Y-85432500D03*
D17*
X207131250Y-90512500D03*
D16*
X203321250Y-87972500D03*
D18*
X202051250Y-90512500D03*
X212211250Y-90512500D03*
D16*
X235865000Y-85432500D03*
D17*
X233325000Y-90512500D03*
D16*
X229515000Y-87972500D03*
D18*
X228245000Y-90512500D03*
X238405000Y-90512500D03*
D16*
X223958750Y-66382500D03*
D17*
X221418750Y-71462500D03*
D16*
X217608750Y-68922500D03*
D18*
X216338750Y-71462500D03*
X226498750Y-71462500D03*
D19*
X233356750Y-78447500D03*
X209480750Y-78447500D03*
D17*
X233356750Y-63207500D03*
X209480750Y-63207500D03*
D18*
X16948750Y-52412500D03*
X6788750Y-52412500D03*
D16*
X8058750Y-49872500D03*
D17*
X11868750Y-52412500D03*
D16*
X14408750Y-47332500D03*
D20*
X169600000Y-87200000D03*
X16400000Y-12200000D03*
X23800000Y-34000000D03*
X26400000Y-54000000D03*
X24800000Y-73200000D03*
X245950000Y-16550000D03*
X28025001Y-37625001D03*
X246000000Y-35000000D03*
X28200000Y-58200000D03*
X203000000Y-58000000D03*
X201000000Y-66600000D03*
X236575000Y-65225000D03*
X228000000Y-73638000D03*
X17400000Y-92800000D03*
X138800000Y-88200000D03*
X138800000Y-92200000D03*
X125350000Y-85900000D03*
X125350000Y-88050000D03*
X133160000Y-82710000D03*
X132800000Y-92000000D03*
X156000000Y-84400000D03*
X144600000Y-86600000D03*
X143400000Y-80000000D03*
X165400000Y-84400000D03*
X170400000Y-92200000D03*
X193600000Y-84400000D03*
X175400000Y-85200000D03*
X214800000Y-73200000D03*
X217400000Y-52400000D03*
X206800000Y-54800000D03*
X181800000Y-23800000D03*
X133000000Y-24000000D03*
X84600000Y-24000000D03*
X108400000Y-97000000D03*
X99800000Y-92600000D03*
X122800000Y-91600000D03*
X118000000Y-88600000D03*
X36400000Y-23800000D03*
X201500000Y-79500000D03*
X140500000Y-81000000D03*
X150065000Y-9665000D03*
X145265000Y-28335000D03*
X145265000Y-33465000D03*
X150015000Y-47415000D03*
X150015000Y-52585000D03*
X159565000Y-66435000D03*
X159565000Y-71835000D03*
X166400000Y-91400000D03*
X226215000Y-27815000D03*
X226200000Y-16800000D03*
X148700000Y-15700000D03*
D23*
X11400000Y-22800000D03*
X245000000Y-78800000D03*
X241599999Y-24800001D03*
D20*
X10000000Y-20200000D03*
X10000000Y-4600000D03*
X246000000Y-77800000D03*
X239000000Y-18750000D03*
X57165000Y-85435000D03*
X64315000Y-71715000D03*
X64315000Y-66485000D03*
X54765000Y-52765000D03*
X54765000Y-47435000D03*
X50015000Y-33585000D03*
X50015000Y-28415000D03*
X45265000Y-9665000D03*
X21000000Y-12600000D03*
X207215000Y-9815000D03*
X205400000Y-14800000D03*
X219065000Y-46935000D03*
X69065000Y-9935000D03*
X83365000Y-71765000D03*
X83365000Y-66435000D03*
X73815000Y-52585000D03*
X73800000Y-47400000D03*
X69065000Y-33665000D03*
X69065000Y-28465000D03*
X231015000Y-10185000D03*
X228600000Y-15400000D03*
X67100000Y-15300000D03*
X242835000Y-51435000D03*
X109400000Y-89400000D03*
X109400000Y-76000000D03*
X84600000Y-76000000D03*
X102415000Y-66415000D03*
X92865000Y-52665000D03*
X92865000Y-47465000D03*
X88115000Y-33715000D03*
X88115000Y-28315000D03*
X88115000Y-9915000D03*
X102415000Y-71985000D03*
X157035000Y-90035000D03*
X159000000Y-76000000D03*
X178615000Y-66415000D03*
X164365000Y-33965000D03*
X85800000Y-15800000D03*
X102415000Y-84665000D03*
X121465000Y-66465000D03*
X111915000Y-52715000D03*
X111915000Y-47285000D03*
X107165000Y-33765000D03*
X107165000Y-28435000D03*
X107165000Y-9765000D03*
X132700000Y-73900000D03*
X183365000Y-33765000D03*
X104800000Y-15800000D03*
X180400000Y-83200000D03*
X188800000Y-74800000D03*
X136975000Y-87775000D03*
X126215000Y-9985000D03*
X126215000Y-28415000D03*
X126215000Y-33585000D03*
X130965000Y-47435000D03*
X130965000Y-52565000D03*
X140515000Y-66485000D03*
X140515000Y-71715000D03*
X123600000Y-16200000D03*
X145200000Y-83600000D03*
X238035000Y-76965000D03*
X232000000Y-85000000D03*
X202415000Y-34185000D03*
X195400000Y-86000000D03*
X7165000Y-33565000D03*
X14315000Y-71485000D03*
X7135000Y-84865000D03*
X14315000Y-63915000D03*
X23735000Y-57735000D03*
X169115000Y-9915000D03*
X162200000Y-40000000D03*
X11600000Y-28000000D03*
X4835000Y-47635000D03*
X4835000Y-52565000D03*
X33365000Y-85435000D03*
X45265000Y-71735000D03*
X45265000Y-66535000D03*
X35715000Y-52715000D03*
X35715000Y-47285000D03*
X30965000Y-33965000D03*
X188115000Y-47485000D03*
X180200000Y-14200000D03*
X15200000Y-25800000D03*
M02*
