G04 #@! TF.GenerationSoftware,KiCad,Pcbnew,(5.1.9-0-10_14)*
G04 #@! TF.CreationDate,2021-12-01T15:49:55+09:00*
G04 #@! TF.ProjectId,reviung53,72657669-756e-4673-9533-2e6b69636164,1*
G04 #@! TF.SameCoordinates,PX1c9c380PY1c9c380*
G04 #@! TF.FileFunction,Soldermask,Bot*
G04 #@! TF.FilePolarity,Negative*
%FSLAX46Y46*%
G04 Gerber Fmt 4.6, Leading zero omitted, Abs format (unit mm)*
G04 Created by KiCad (PCBNEW (5.1.9-0-10_14)) date 2021-12-01 15:49:55*
%MOMM*%
%LPD*%
G01*
G04 APERTURE LIST*
%ADD10C,4.500000*%
%ADD11C,2.200000*%
%ADD12C,3.000000*%
%ADD13C,3.987800*%
%ADD14C,1.750000*%
%ADD15R,2.550000X2.500000*%
%ADD16C,3.048000*%
%ADD17C,0.600000*%
%ADD18C,1.524000*%
%ADD19R,0.950000X1.300000*%
%ADD20C,2.000000*%
%ADD21R,2.000000X1.500000*%
%ADD22C,0.900000*%
G04 APERTURE END LIST*
D10*
X80130000Y-42880000D03*
X3590000Y-96420000D03*
X244030000Y-96420000D03*
X226200000Y-6600000D03*
X38180000Y-6600000D03*
D11*
X17540000Y-21690000D03*
D10*
X122590000Y-96420000D03*
X167500000Y-42870000D03*
D12*
X99816250Y-95592500D03*
D13*
X102356250Y-90512500D03*
D12*
X106166250Y-93052500D03*
D14*
X107436250Y-90512500D03*
X97276250Y-90512500D03*
D15*
X109441250Y-93052500D03*
X96514250Y-95592500D03*
D16*
X90418250Y-97497500D03*
X114294250Y-97497500D03*
D13*
X90418250Y-82257500D03*
X114294250Y-82257500D03*
D17*
X248190000Y-64700000D03*
X248200000Y-58100000D03*
X248200000Y-63875000D03*
X248200000Y-61400000D03*
X248200000Y-60575000D03*
X248200000Y-59750000D03*
X248200000Y-58925000D03*
X248200000Y-62225000D03*
X248200000Y-63050000D03*
X-590000Y-35300000D03*
X-600000Y-41900000D03*
X-600000Y-36125000D03*
X-600000Y-38600000D03*
X-600000Y-39425000D03*
X-600000Y-40250000D03*
X-600000Y-41075000D03*
X-600000Y-37775000D03*
X-600000Y-36950000D03*
X50300000Y-100610000D03*
X43700000Y-100600000D03*
X49475000Y-100600000D03*
X47000000Y-100600000D03*
X46175000Y-100600000D03*
X45350000Y-100600000D03*
X44525000Y-100600000D03*
X47825000Y-100600000D03*
X48650000Y-100600000D03*
X203900000Y-100610000D03*
X197300000Y-100600000D03*
X203075000Y-100600000D03*
X200600000Y-100600000D03*
X199775000Y-100600000D03*
X198950000Y-100600000D03*
X198125000Y-100600000D03*
X201425000Y-100600000D03*
X202250000Y-100600000D03*
X203900000Y590000D03*
X197300000Y600000D03*
X203075000Y600000D03*
X200600000Y600000D03*
X199775000Y600000D03*
X198950000Y600000D03*
X198125000Y600000D03*
X201425000Y600000D03*
X202250000Y600000D03*
X50300000Y590000D03*
X43700000Y600000D03*
X49475000Y600000D03*
X47000000Y600000D03*
X46175000Y600000D03*
X45350000Y600000D03*
X44525000Y600000D03*
X47825000Y600000D03*
X48650000Y600000D03*
D12*
X112040000Y-66382500D03*
D13*
X109500000Y-71462500D03*
D12*
X105690000Y-68922500D03*
D14*
X104420000Y-71462500D03*
X114580000Y-71462500D03*
D15*
X102415000Y-68922500D03*
X115342000Y-66382500D03*
D10*
X250720000Y3080000D03*
X250730000Y-103120000D03*
X-3120000Y-103120000D03*
X-3120000Y3080000D03*
D11*
X38160000Y-20720000D03*
D18*
X3712000Y-17118600D03*
X6252000Y-17118600D03*
X8792000Y-17118600D03*
X11332000Y-17118600D03*
X13872000Y-17118600D03*
X16412000Y-17118600D03*
X18952000Y-17118600D03*
X21492000Y-17118600D03*
X24032000Y-17118600D03*
X26572000Y-17118600D03*
X29112000Y-17118600D03*
X31652000Y-17118600D03*
X31652000Y-1898600D03*
X29112000Y-1898600D03*
X26572000Y-1898600D03*
X24032000Y-1898600D03*
X21492000Y-1898600D03*
X18952000Y-1898600D03*
X16412000Y-1898600D03*
X13872000Y-1898600D03*
X11332000Y-1898600D03*
X8792000Y-1898600D03*
X6252000Y-1898600D03*
X3712000Y-1898600D03*
D19*
X60150000Y-9225000D03*
X60150000Y-12775000D03*
X84000000Y-9225000D03*
X84000000Y-12775000D03*
X103100000Y-9225000D03*
X103100000Y-12775000D03*
X122100000Y-9225000D03*
X122100000Y-12775000D03*
X141150000Y-9225000D03*
X141150000Y-12775000D03*
X165000000Y-9225000D03*
X165000000Y-12775000D03*
X22100000Y-33125000D03*
X22100000Y-36675000D03*
X45950000Y-33125000D03*
X45950000Y-36675000D03*
X64950000Y-33125000D03*
X64950000Y-36675000D03*
X84000000Y-33125000D03*
X84000000Y-36675000D03*
X103000000Y-33125000D03*
X103000000Y-36675000D03*
X122100000Y-33125000D03*
X122100000Y-36675000D03*
X141100000Y-33125000D03*
X141100000Y-36675000D03*
X160200000Y-33125000D03*
X160200000Y-36675000D03*
X50650000Y-52075000D03*
X50650000Y-55625000D03*
X69700000Y-52075000D03*
X69700000Y-55625000D03*
X88700000Y-52075000D03*
X88700000Y-55625000D03*
X107750000Y-52075000D03*
X107750000Y-55625000D03*
X126850000Y-52075000D03*
X126850000Y-55625000D03*
X145900000Y-52075000D03*
X145900000Y-55625000D03*
X164950000Y-52075000D03*
X164950000Y-55625000D03*
X28380000Y-52075000D03*
X28380000Y-55625000D03*
X29150000Y-71175000D03*
X29150000Y-74725000D03*
X60100000Y-71175000D03*
X60100000Y-74725000D03*
X79200000Y-71175000D03*
X79200000Y-74725000D03*
X98200000Y-71175000D03*
X98200000Y-74725000D03*
X117250000Y-71175000D03*
X117250000Y-74725000D03*
X136300000Y-71175000D03*
X136300000Y-74725000D03*
X155400000Y-71175000D03*
X155400000Y-74725000D03*
X174450000Y-71175000D03*
X174450000Y-74725000D03*
X184000000Y-9225000D03*
X184000000Y-12775000D03*
X203100000Y-9225000D03*
X203100000Y-12775000D03*
X222100000Y-9225000D03*
X222100000Y-12775000D03*
X245950000Y-9225000D03*
X245950000Y-12775000D03*
X179250000Y-33125000D03*
X179250000Y-36675000D03*
X198350000Y-33125000D03*
X198350000Y-36675000D03*
X217350000Y-33125000D03*
X217350000Y-36675000D03*
X241250000Y-33125000D03*
X241250000Y-36675000D03*
X184000000Y-52075000D03*
X184000000Y-55625000D03*
X203000000Y-52075000D03*
X203000000Y-55625000D03*
X243600000Y-43825000D03*
X243600000Y-47375000D03*
X193550000Y-71175000D03*
X193550000Y-74725000D03*
X238800000Y-65225000D03*
X238800000Y-68775000D03*
X205600000Y-43825000D03*
X205600000Y-47375000D03*
X196000000Y-63025000D03*
X196000000Y-66575000D03*
X22130000Y-90225000D03*
X22130000Y-93775000D03*
X48290000Y-90225000D03*
X48290000Y-93775000D03*
X72000000Y-90225000D03*
X72000000Y-93775000D03*
X120000000Y-90225000D03*
X120000000Y-93775000D03*
X191200000Y-90225000D03*
X191200000Y-93775000D03*
X214950000Y-90225000D03*
X214950000Y-93775000D03*
X241100000Y-90225000D03*
X241100000Y-93775000D03*
X125350000Y-90225000D03*
X125350000Y-93775000D03*
D20*
X2350000Y-22000000D03*
X8850000Y-22000000D03*
D21*
X29250000Y-20450000D03*
X29250000Y-23650000D03*
X23850000Y-20450000D03*
X23850000Y-23650000D03*
X77850000Y-20450000D03*
X77850000Y-23650000D03*
X72450000Y-20450000D03*
X72450000Y-23650000D03*
X126500000Y-20450000D03*
X126500000Y-23650000D03*
X121100000Y-20450000D03*
X121100000Y-23650000D03*
X175100000Y-20450000D03*
X175100000Y-23650000D03*
X169700000Y-20450000D03*
X169700000Y-23650000D03*
X223700000Y-20450000D03*
X223700000Y-23650000D03*
X218300000Y-20450000D03*
X218300000Y-23650000D03*
X223750000Y-79400000D03*
X223750000Y-82600000D03*
X218350000Y-79400000D03*
X218350000Y-82600000D03*
X175150000Y-79400000D03*
X175150000Y-82600000D03*
X169750000Y-79400000D03*
X169750000Y-82600000D03*
X126500000Y-79400000D03*
X126500000Y-82600000D03*
X121100000Y-79400000D03*
X121100000Y-82600000D03*
X77900000Y-79400000D03*
X77900000Y-82600000D03*
X72500000Y-79400000D03*
X72500000Y-82600000D03*
X29250000Y-79400000D03*
X29250000Y-82600000D03*
X23850000Y-79400000D03*
X23850000Y-82600000D03*
D12*
X54890000Y-4470000D03*
D13*
X52350000Y-9550000D03*
D12*
X48540000Y-7010000D03*
D14*
X47270000Y-9550000D03*
X57430000Y-9550000D03*
D15*
X45265000Y-7010000D03*
X58192000Y-4470000D03*
D12*
X78702500Y-4470000D03*
D13*
X76162500Y-9550000D03*
D12*
X72352500Y-7010000D03*
D14*
X71082500Y-9550000D03*
X81242500Y-9550000D03*
D15*
X69077500Y-7010000D03*
X82004500Y-4470000D03*
D12*
X97752500Y-4470000D03*
D13*
X95212500Y-9550000D03*
D12*
X91402500Y-7010000D03*
D14*
X90132500Y-9550000D03*
X100292500Y-9550000D03*
D15*
X88127500Y-7010000D03*
X101054500Y-4470000D03*
D12*
X116802500Y-4470000D03*
D13*
X114262500Y-9550000D03*
D12*
X110452500Y-7010000D03*
D14*
X109182500Y-9550000D03*
X119342500Y-9550000D03*
D15*
X107177500Y-7010000D03*
X120104500Y-4470000D03*
D12*
X135852500Y-4470000D03*
D13*
X133312500Y-9550000D03*
D12*
X129502500Y-7010000D03*
D14*
X128232500Y-9550000D03*
X138392500Y-9550000D03*
D15*
X126227500Y-7010000D03*
X139154500Y-4470000D03*
D12*
X159665000Y-4470000D03*
D13*
X157125000Y-9550000D03*
D12*
X153315000Y-7010000D03*
D14*
X152045000Y-9550000D03*
X162205000Y-9550000D03*
D15*
X150040000Y-7010000D03*
X162967000Y-4470000D03*
D12*
X16790000Y-28282500D03*
D13*
X14250000Y-33362500D03*
D12*
X10440000Y-30822500D03*
D14*
X9170000Y-33362500D03*
X19330000Y-33362500D03*
D15*
X7165000Y-30822500D03*
X20092000Y-28282500D03*
D12*
X40602500Y-28282500D03*
D13*
X38062500Y-33362500D03*
D12*
X34252500Y-30822500D03*
D14*
X32982500Y-33362500D03*
X43142500Y-33362500D03*
D15*
X30977500Y-30822500D03*
X43904500Y-28282500D03*
D12*
X59652500Y-28282500D03*
D13*
X57112500Y-33362500D03*
D12*
X53302500Y-30822500D03*
D14*
X52032500Y-33362500D03*
X62192500Y-33362500D03*
D15*
X50027500Y-30822500D03*
X62954500Y-28282500D03*
D12*
X78702500Y-28282500D03*
D13*
X76162500Y-33362500D03*
D12*
X72352500Y-30822500D03*
D14*
X71082500Y-33362500D03*
X81242500Y-33362500D03*
D15*
X69077500Y-30822500D03*
X82004500Y-28282500D03*
D12*
X97752500Y-28282500D03*
D13*
X95212500Y-33362500D03*
D12*
X91402500Y-30822500D03*
D14*
X90132500Y-33362500D03*
X100292500Y-33362500D03*
D15*
X88127500Y-30822500D03*
X101054500Y-28282500D03*
D12*
X116802500Y-28282500D03*
D13*
X114262500Y-33362500D03*
D12*
X110452500Y-30822500D03*
D14*
X109182500Y-33362500D03*
X119342500Y-33362500D03*
D15*
X107177500Y-30822500D03*
X120104500Y-28282500D03*
D12*
X135852500Y-28282500D03*
D13*
X133312500Y-33362500D03*
D12*
X129502500Y-30822500D03*
D14*
X128232500Y-33362500D03*
X138392500Y-33362500D03*
D15*
X126227500Y-30822500D03*
X139154500Y-28282500D03*
D12*
X154902500Y-28282500D03*
D13*
X152362500Y-33362500D03*
D12*
X148552500Y-30822500D03*
D14*
X147282500Y-33362500D03*
X157442500Y-33362500D03*
D15*
X145277500Y-30822500D03*
X158204500Y-28282500D03*
D12*
X14091250Y-57492500D03*
D13*
X16631250Y-52412500D03*
D12*
X20441250Y-54952500D03*
D14*
X21711250Y-52412500D03*
X11551250Y-52412500D03*
D15*
X23716250Y-54952500D03*
X10789250Y-57492500D03*
D12*
X45365000Y-47332500D03*
D13*
X42825000Y-52412500D03*
D12*
X39015000Y-49872500D03*
D14*
X37745000Y-52412500D03*
X47905000Y-52412500D03*
D15*
X35740000Y-49872500D03*
X48667000Y-47332500D03*
D12*
X64415000Y-47332500D03*
D13*
X61875000Y-52412500D03*
D12*
X58065000Y-49872500D03*
D14*
X56795000Y-52412500D03*
X66955000Y-52412500D03*
D15*
X54790000Y-49872500D03*
X67717000Y-47332500D03*
D12*
X83465000Y-47332500D03*
D13*
X80925000Y-52412500D03*
D12*
X77115000Y-49872500D03*
D14*
X75845000Y-52412500D03*
X86005000Y-52412500D03*
D15*
X73840000Y-49872500D03*
X86767000Y-47332500D03*
D12*
X102515000Y-47332500D03*
D13*
X99975000Y-52412500D03*
D12*
X96165000Y-49872500D03*
D14*
X94895000Y-52412500D03*
X105055000Y-52412500D03*
D15*
X92890000Y-49872500D03*
X105817000Y-47332500D03*
D12*
X121565000Y-47332500D03*
D13*
X119025000Y-52412500D03*
D12*
X115215000Y-49872500D03*
D14*
X113945000Y-52412500D03*
X124105000Y-52412500D03*
D15*
X111940000Y-49872500D03*
X124867000Y-47332500D03*
D12*
X140615000Y-47332500D03*
D13*
X138075000Y-52412500D03*
D12*
X134265000Y-49872500D03*
D14*
X132995000Y-52412500D03*
X143155000Y-52412500D03*
D15*
X130990000Y-49872500D03*
X143917000Y-47332500D03*
D12*
X159665000Y-47332500D03*
D13*
X157125000Y-52412500D03*
D12*
X153315000Y-49872500D03*
D14*
X152045000Y-52412500D03*
X162205000Y-52412500D03*
D15*
X150040000Y-49872500D03*
X162967000Y-47332500D03*
D12*
X23933750Y-66382500D03*
D13*
X21393750Y-71462500D03*
D12*
X17583750Y-68922500D03*
D14*
X16313750Y-71462500D03*
X26473750Y-71462500D03*
D15*
X14308750Y-68922500D03*
X27235750Y-66382500D03*
D16*
X33331750Y-78447500D03*
X9455750Y-78447500D03*
D13*
X33331750Y-63207500D03*
X9455750Y-63207500D03*
D12*
X54890000Y-66382500D03*
D13*
X52350000Y-71462500D03*
D12*
X48540000Y-68922500D03*
D14*
X47270000Y-71462500D03*
X57430000Y-71462500D03*
D15*
X45265000Y-68922500D03*
X58192000Y-66382500D03*
D12*
X73940000Y-66382500D03*
D13*
X71400000Y-71462500D03*
D12*
X67590000Y-68922500D03*
D14*
X66320000Y-71462500D03*
X76480000Y-71462500D03*
D15*
X64315000Y-68922500D03*
X77242000Y-66382500D03*
D12*
X92990000Y-66382500D03*
D13*
X90450000Y-71462500D03*
D12*
X86640000Y-68922500D03*
D14*
X85370000Y-71462500D03*
X95530000Y-71462500D03*
D15*
X83365000Y-68922500D03*
X96292000Y-66382500D03*
D12*
X131090000Y-66382500D03*
D13*
X128550000Y-71462500D03*
D12*
X124740000Y-68922500D03*
D14*
X123470000Y-71462500D03*
X133630000Y-71462500D03*
D15*
X121465000Y-68922500D03*
X134392000Y-66382500D03*
D12*
X150140000Y-66382500D03*
D13*
X147600000Y-71462500D03*
D12*
X143790000Y-68922500D03*
D14*
X142520000Y-71462500D03*
X152680000Y-71462500D03*
D15*
X140515000Y-68922500D03*
X153442000Y-66382500D03*
D12*
X169190000Y-66382500D03*
D13*
X166650000Y-71462500D03*
D12*
X162840000Y-68922500D03*
D14*
X161570000Y-71462500D03*
X171730000Y-71462500D03*
D15*
X159565000Y-68922500D03*
X172492000Y-66382500D03*
D12*
X178715000Y-4470000D03*
D13*
X176175000Y-9550000D03*
D12*
X172365000Y-7010000D03*
D14*
X171095000Y-9550000D03*
X181255000Y-9550000D03*
D15*
X169090000Y-7010000D03*
X182017000Y-4470000D03*
D12*
X197765000Y-4470000D03*
D13*
X195225000Y-9550000D03*
D12*
X191415000Y-7010000D03*
D14*
X190145000Y-9550000D03*
X200305000Y-9550000D03*
D15*
X188140000Y-7010000D03*
X201067000Y-4470000D03*
D12*
X216815000Y-4470000D03*
D13*
X214275000Y-9550000D03*
D12*
X210465000Y-7010000D03*
D14*
X209195000Y-9550000D03*
X219355000Y-9550000D03*
D15*
X207190000Y-7010000D03*
X220117000Y-4470000D03*
D12*
X240627500Y-4470000D03*
D13*
X238087500Y-9550000D03*
D12*
X234277500Y-7010000D03*
D14*
X233007500Y-9550000D03*
X243167500Y-9550000D03*
D15*
X231002500Y-7010000D03*
X243929500Y-4470000D03*
D12*
X173952500Y-28282500D03*
D13*
X171412500Y-33362500D03*
D12*
X167602500Y-30822500D03*
D14*
X166332500Y-33362500D03*
X176492500Y-33362500D03*
D15*
X164327500Y-30822500D03*
X177254500Y-28282500D03*
D12*
X193002500Y-28282500D03*
D13*
X190462500Y-33362500D03*
D12*
X186652500Y-30822500D03*
D14*
X185382500Y-33362500D03*
X195542500Y-33362500D03*
D15*
X183377500Y-30822500D03*
X196304500Y-28282500D03*
D12*
X212052500Y-28282500D03*
D13*
X209512500Y-33362500D03*
D12*
X205702500Y-30822500D03*
D14*
X204432500Y-33362500D03*
X214592500Y-33362500D03*
D15*
X202427500Y-30822500D03*
X215354500Y-28282500D03*
D12*
X235865000Y-28282500D03*
D13*
X233325000Y-33362500D03*
D12*
X229515000Y-30822500D03*
D14*
X228245000Y-33362500D03*
X238405000Y-33362500D03*
D15*
X226240000Y-30822500D03*
X239167000Y-28282500D03*
D12*
X178715000Y-47332500D03*
D13*
X176175000Y-52412500D03*
D12*
X172365000Y-49872500D03*
D14*
X171095000Y-52412500D03*
X181255000Y-52412500D03*
D15*
X169090000Y-49872500D03*
X182017000Y-47332500D03*
D12*
X197765000Y-47332500D03*
D13*
X195225000Y-52412500D03*
D12*
X191415000Y-49872500D03*
D14*
X190145000Y-52412500D03*
X200305000Y-52412500D03*
D15*
X188140000Y-49872500D03*
X201067000Y-47332500D03*
D12*
X211735000Y-57492500D03*
D13*
X214275000Y-52412500D03*
D12*
X218085000Y-54952500D03*
D14*
X219355000Y-52412500D03*
X209195000Y-52412500D03*
D15*
X221360000Y-54952500D03*
X208433000Y-57492500D03*
D12*
X228721250Y-47332500D03*
D13*
X226181250Y-52412500D03*
D12*
X222371250Y-49872500D03*
D14*
X221101250Y-52412500D03*
X231261250Y-52412500D03*
D15*
X219096250Y-49872500D03*
X232023250Y-47332500D03*
D16*
X238119250Y-59397500D03*
X214243250Y-59397500D03*
D13*
X238119250Y-44157500D03*
X214243250Y-44157500D03*
D12*
X233166250Y-57492500D03*
D13*
X235706250Y-52412500D03*
D12*
X239516250Y-54952500D03*
D14*
X240786250Y-52412500D03*
X230626250Y-52412500D03*
D15*
X242791250Y-54952500D03*
X229864250Y-57492500D03*
D12*
X138233750Y-85432500D03*
D13*
X135693750Y-90512500D03*
D12*
X131883750Y-87972500D03*
D14*
X130613750Y-90512500D03*
X140773750Y-90512500D03*
D15*
X128608750Y-87972500D03*
X141535750Y-85432500D03*
D16*
X185693650Y-97497500D03*
X85693850Y-97497500D03*
D13*
X185693650Y-82257500D03*
X85693850Y-82257500D03*
D12*
X147441250Y-95592500D03*
D13*
X149981250Y-90512500D03*
D12*
X153791250Y-93052500D03*
D14*
X155061250Y-90512500D03*
X144901250Y-90512500D03*
D15*
X157066250Y-93052500D03*
X144139250Y-95592500D03*
D16*
X138043250Y-97497500D03*
X161919250Y-97497500D03*
D13*
X138043250Y-82257500D03*
X161919250Y-82257500D03*
D12*
X188240000Y-66382500D03*
D13*
X185700000Y-71462500D03*
D12*
X181890000Y-68922500D03*
D14*
X180620000Y-71462500D03*
X190780000Y-71462500D03*
D15*
X178615000Y-68922500D03*
X191542000Y-66382500D03*
D12*
X202210000Y-76542500D03*
D13*
X204750000Y-71462500D03*
D12*
X208560000Y-74002500D03*
D14*
X209830000Y-71462500D03*
X199670000Y-71462500D03*
D15*
X211835000Y-74002500D03*
X198908000Y-76542500D03*
D12*
X228403750Y-76542500D03*
D13*
X230943750Y-71462500D03*
D12*
X234753750Y-74002500D03*
D14*
X236023750Y-71462500D03*
X225863750Y-71462500D03*
D15*
X238028750Y-74002500D03*
X225101750Y-76542500D03*
D12*
X16790000Y-85432500D03*
D13*
X14250000Y-90512500D03*
D12*
X10440000Y-87972500D03*
D14*
X9170000Y-90512500D03*
X19330000Y-90512500D03*
D15*
X7165000Y-87972500D03*
X20092000Y-85432500D03*
D12*
X42983750Y-85432500D03*
D13*
X40443750Y-90512500D03*
D12*
X36633750Y-87972500D03*
D14*
X35363750Y-90512500D03*
X45523750Y-90512500D03*
D15*
X33358750Y-87972500D03*
X46285750Y-85432500D03*
D12*
X66796250Y-85432500D03*
D13*
X64256250Y-90512500D03*
D12*
X60446250Y-87972500D03*
D14*
X59176250Y-90512500D03*
X69336250Y-90512500D03*
D15*
X57171250Y-87972500D03*
X70098250Y-85432500D03*
D12*
X185858750Y-85432500D03*
D13*
X183318750Y-90512500D03*
D12*
X179508750Y-87972500D03*
D14*
X178238750Y-90512500D03*
X188398750Y-90512500D03*
D15*
X176233750Y-87972500D03*
X189160750Y-85432500D03*
D12*
X209671250Y-85432500D03*
D13*
X207131250Y-90512500D03*
D12*
X203321250Y-87972500D03*
D14*
X202051250Y-90512500D03*
X212211250Y-90512500D03*
D15*
X200046250Y-87972500D03*
X212973250Y-85432500D03*
D12*
X235865000Y-85432500D03*
D13*
X233325000Y-90512500D03*
D12*
X229515000Y-87972500D03*
D14*
X228245000Y-90512500D03*
X238405000Y-90512500D03*
D15*
X226240000Y-87972500D03*
X239167000Y-85432500D03*
D12*
X223958750Y-66382500D03*
D13*
X221418750Y-71462500D03*
D12*
X217608750Y-68922500D03*
D14*
X216338750Y-71462500D03*
X226498750Y-71462500D03*
D15*
X214333750Y-68922500D03*
X227260750Y-66382500D03*
D16*
X233356750Y-78447500D03*
X209480750Y-78447500D03*
D13*
X233356750Y-63207500D03*
X209480750Y-63207500D03*
D15*
X17710750Y-47332500D03*
X4783750Y-49872500D03*
D14*
X16948750Y-52412500D03*
X6788750Y-52412500D03*
D12*
X8058750Y-49872500D03*
D13*
X11868750Y-52412500D03*
D12*
X14408750Y-47332500D03*
D17*
X169600000Y-87200000D03*
X16400000Y-12200000D03*
X23800000Y-34000000D03*
X26400000Y-54000000D03*
X24800000Y-73200000D03*
X245950000Y-16550000D03*
X28025001Y-37625001D03*
X246000000Y-35000000D03*
X28200000Y-58200000D03*
X203000000Y-58000000D03*
X201000000Y-66600000D03*
X236575000Y-65225000D03*
X228000000Y-73638000D03*
X17400000Y-92800000D03*
X138800000Y-88200000D03*
X138800000Y-92200000D03*
X125350000Y-85900000D03*
X125350000Y-88050000D03*
X133160000Y-82710000D03*
X132800000Y-92000000D03*
X156000000Y-84400000D03*
X144600000Y-86600000D03*
X143400000Y-80000000D03*
X165400000Y-84400000D03*
X170400000Y-92200000D03*
X193600000Y-84400000D03*
X175400000Y-85200000D03*
X214800000Y-73200000D03*
X217400000Y-52400000D03*
X206800000Y-54800000D03*
X181800000Y-23800000D03*
X133000000Y-24000000D03*
X84600000Y-24000000D03*
X108400000Y-97000000D03*
X99800000Y-92600000D03*
X122800000Y-91600000D03*
X118000000Y-88600000D03*
X36400000Y-23800000D03*
X201500000Y-79500000D03*
X140500000Y-81000000D03*
X150065000Y-9665000D03*
X145265000Y-28335000D03*
X145265000Y-33465000D03*
X150015000Y-47415000D03*
X150015000Y-52585000D03*
X159565000Y-66435000D03*
X159565000Y-71835000D03*
X166400000Y-91400000D03*
X226215000Y-27815000D03*
X226200000Y-16800000D03*
X148700000Y-15700000D03*
D22*
X11400000Y-22800000D03*
X245000000Y-78800000D03*
X241599999Y-24800001D03*
D17*
X10000000Y-20200000D03*
X10000000Y-4600000D03*
X246000000Y-77800000D03*
X239000000Y-18750000D03*
X57165000Y-85435000D03*
X64315000Y-71715000D03*
X64315000Y-66485000D03*
X54765000Y-52765000D03*
X54765000Y-47435000D03*
X50015000Y-33585000D03*
X50015000Y-28415000D03*
X45265000Y-9665000D03*
X21000000Y-12600000D03*
X207215000Y-9815000D03*
X205400000Y-14800000D03*
X219065000Y-46935000D03*
X69065000Y-9935000D03*
X83365000Y-71765000D03*
X83365000Y-66435000D03*
X73815000Y-52585000D03*
X73800000Y-47400000D03*
X69065000Y-33665000D03*
X69065000Y-28465000D03*
X231015000Y-10185000D03*
X228600000Y-15400000D03*
X67100000Y-15300000D03*
X242835000Y-51435000D03*
X109400000Y-89400000D03*
X109400000Y-76000000D03*
X84600000Y-76000000D03*
X102415000Y-66415000D03*
X92865000Y-52665000D03*
X92865000Y-47465000D03*
X88115000Y-33715000D03*
X88115000Y-28315000D03*
X88115000Y-9915000D03*
X102415000Y-71985000D03*
X157035000Y-90035000D03*
X159000000Y-76000000D03*
X178615000Y-66415000D03*
X164365000Y-33965000D03*
X85800000Y-15800000D03*
X102415000Y-84665000D03*
X121465000Y-66465000D03*
X111915000Y-52715000D03*
X111915000Y-47285000D03*
X107165000Y-33765000D03*
X107165000Y-28435000D03*
X107165000Y-9765000D03*
X132700000Y-73900000D03*
X183365000Y-33765000D03*
X104800000Y-15800000D03*
X180400000Y-83200000D03*
X188800000Y-74800000D03*
X136975000Y-87775000D03*
X126215000Y-9985000D03*
X126215000Y-28415000D03*
X126215000Y-33585000D03*
X130965000Y-47435000D03*
X130965000Y-52565000D03*
X140515000Y-66485000D03*
X140515000Y-71715000D03*
X123600000Y-16200000D03*
X145200000Y-83600000D03*
X238035000Y-76965000D03*
X232000000Y-85000000D03*
X202415000Y-34185000D03*
X195400000Y-86000000D03*
X7165000Y-33565000D03*
X14315000Y-71485000D03*
X7135000Y-84865000D03*
X14315000Y-63915000D03*
X23735000Y-57735000D03*
X169115000Y-9915000D03*
X162200000Y-40000000D03*
X11600000Y-28000000D03*
X4835000Y-47635000D03*
X4835000Y-52565000D03*
X33365000Y-85435000D03*
X45265000Y-71735000D03*
X45265000Y-66535000D03*
X35715000Y-52715000D03*
X35715000Y-47285000D03*
X30965000Y-33965000D03*
X188115000Y-47485000D03*
X180200000Y-14200000D03*
X15200000Y-25800000D03*
M02*
