G04 #@! TF.GenerationSoftware,KiCad,Pcbnew,(5.1.6-0-10_14)*
G04 #@! TF.CreationDate,2020-07-16T16:36:52+09:00*
G04 #@! TF.ProjectId,reviung61-top-plate,72657669-756e-4673-9631-2d746f702d70,1.0*
G04 #@! TF.SameCoordinates,Original*
G04 #@! TF.FileFunction,Profile,NP*
%FSLAX46Y46*%
G04 Gerber Fmt 4.6, Leading zero omitted, Abs format (unit mm)*
G04 Created by KiCad (PCBNEW (5.1.6-0-10_14)) date 2020-07-16 16:36:52*
%MOMM*%
%LPD*%
G01*
G04 APERTURE LIST*
G04 #@! TA.AperFunction,Profile*
%ADD10C,0.100000*%
G04 #@! TD*
G04 APERTURE END LIST*
D10*
X301878000Y-37429993D02*
X295128003Y-37429993D01*
X301878000Y-23429986D02*
X301878000Y-37429993D01*
X295565014Y-23429986D02*
X301878000Y-23429986D01*
X295565014Y-23029989D02*
X295565014Y-23429986D01*
X277565014Y-23029989D02*
X295565014Y-23029989D01*
X277565014Y-23429986D02*
X277565014Y-23029989D01*
X271252006Y-23429986D02*
X277565014Y-23429986D01*
X271252006Y-37429993D02*
X271252006Y-23429986D01*
X278002003Y-37429993D02*
X271252006Y-37429993D01*
X278002003Y-35830004D02*
X278002003Y-37429993D01*
X295128003Y-35830004D02*
X278002003Y-35830004D01*
X295128003Y-37429993D02*
X295128003Y-35830004D01*
X299077504Y-42079989D02*
X299077504Y-54880004D01*
X283577503Y-42079989D02*
X299077504Y-42079989D01*
X283577503Y-46353005D02*
X283577503Y-42079989D01*
X278799672Y-46353005D02*
X283577503Y-46353005D01*
X277799668Y-47353009D02*
X277804830Y-47250763D01*
X277804830Y-47250763D02*
X277819984Y-47151471D01*
X277819984Y-47151471D02*
X277860347Y-47009172D01*
X277860347Y-47009172D02*
X277920362Y-46876345D01*
X277920362Y-46876345D02*
X277998331Y-46754688D01*
X277998331Y-46754688D02*
X278092560Y-46645897D01*
X278092560Y-46645897D02*
X278201351Y-46551668D01*
X278201351Y-46551668D02*
X278323008Y-46473699D01*
X278323008Y-46473699D02*
X278455835Y-46413684D01*
X278455835Y-46413684D02*
X278598134Y-46373321D01*
X278598134Y-46373321D02*
X278697426Y-46358167D01*
X278697426Y-46358167D02*
X278799672Y-46353005D01*
X277799668Y-49352994D02*
X277799668Y-47353009D01*
X278799672Y-50352998D02*
X278697426Y-50347835D01*
X278697426Y-50347835D02*
X278598134Y-50332681D01*
X278598134Y-50332681D02*
X278455835Y-50292318D01*
X278455835Y-50292318D02*
X278323008Y-50232303D01*
X278323008Y-50232303D02*
X278201351Y-50154334D01*
X278201351Y-50154334D02*
X278092560Y-50060105D01*
X278092560Y-50060105D02*
X277998331Y-49951314D01*
X277998331Y-49951314D02*
X277920362Y-49829657D01*
X277920362Y-49829657D02*
X277860347Y-49696830D01*
X277860347Y-49696830D02*
X277819984Y-49554531D01*
X277819984Y-49554531D02*
X277804830Y-49455239D01*
X277804830Y-49455239D02*
X277799668Y-49352994D01*
X283577503Y-50352998D02*
X278799672Y-50352998D01*
X283577503Y-54880004D02*
X283577503Y-50352998D01*
X299077504Y-54880004D02*
X283577503Y-54880004D01*
X275254087Y-42079989D02*
X275254087Y-54880004D01*
X259754086Y-42079989D02*
X275254087Y-42079989D01*
X259754086Y-54880004D02*
X259754086Y-42079989D01*
X275254087Y-54880004D02*
X259754086Y-54880004D01*
X264108256Y-80579986D02*
X270421264Y-80579986D01*
X264108256Y-94579993D02*
X264108256Y-80579986D01*
X270858253Y-94579993D02*
X264108256Y-94579993D01*
X270858253Y-92980004D02*
X270858253Y-94579993D01*
X287984253Y-92980004D02*
X270858253Y-92980004D01*
X287984253Y-94579993D02*
X287984253Y-92980004D01*
X294734250Y-94579993D02*
X287984253Y-94579993D01*
X294734250Y-80579986D02*
X294734250Y-94579993D01*
X288421264Y-80579986D02*
X294734250Y-80579986D01*
X288421264Y-80179989D02*
X288421264Y-80579986D01*
X270421264Y-80179989D02*
X288421264Y-80179989D01*
X270421264Y-80579986D02*
X270421264Y-80179989D01*
X285958753Y-99229989D02*
X301458754Y-99229989D01*
X285958753Y-112030004D02*
X285958753Y-99229989D01*
X301458754Y-112030004D02*
X285958753Y-112030004D01*
X301458754Y-99229989D02*
X301458754Y-112030004D01*
X277646254Y-99229989D02*
X277646254Y-112030004D01*
X262146253Y-99229989D02*
X277646254Y-99229989D01*
X262146253Y-112030004D02*
X262146253Y-99229989D01*
X277646254Y-112030004D02*
X262146253Y-112030004D01*
X260989239Y-61129989D02*
X260989239Y-73930004D01*
X245489237Y-61129989D02*
X260989239Y-61129989D01*
X245489237Y-73930004D02*
X245489237Y-61129989D01*
X260989239Y-73930004D02*
X245489237Y-73930004D01*
X253833754Y-99229989D02*
X253833754Y-112030004D01*
X238333753Y-99229989D02*
X253833754Y-99229989D01*
X238333753Y-112030004D02*
X238333753Y-99229989D01*
X253833754Y-112030004D02*
X238333753Y-112030004D01*
X235939153Y-92980004D02*
X235939153Y-80179989D01*
X251439154Y-92980004D02*
X235939153Y-92980004D01*
X251439154Y-80179989D02*
X251439154Y-92980004D01*
X235939153Y-80179989D02*
X251439154Y-80179989D01*
X232389154Y-80179989D02*
X232389154Y-92980004D01*
X216889153Y-80179989D02*
X232389154Y-80179989D01*
X216889153Y-92980004D02*
X216889153Y-80179989D01*
X232389154Y-92980004D02*
X216889153Y-92980004D01*
X230021254Y-99229989D02*
X230021254Y-112030004D01*
X214521253Y-99229989D02*
X230021254Y-99229989D01*
X214521253Y-112030004D02*
X214521253Y-99229989D01*
X230021254Y-112030004D02*
X214521253Y-112030004D01*
X213339154Y-80179989D02*
X213339154Y-92980004D01*
X197839153Y-80179989D02*
X213339154Y-80179989D01*
X197839153Y-92980004D02*
X197839153Y-80179989D01*
X213339154Y-92980004D02*
X197839153Y-92980004D01*
X204583856Y-111635584D02*
X197084095Y-111635584D01*
X204583617Y-97635577D02*
X204583856Y-111635584D01*
X197083856Y-97635577D02*
X204583617Y-97635577D01*
X197084095Y-111635584D02*
X197083856Y-97635577D01*
X203839239Y-73930004D02*
X188339237Y-73930004D01*
X203839239Y-61129989D02*
X203839239Y-73930004D01*
X188339237Y-61129989D02*
X203839239Y-61129989D01*
X188339237Y-73930004D02*
X188339237Y-61129989D01*
X194289154Y-80179989D02*
X194289154Y-92980004D01*
X178789153Y-80179989D02*
X194289154Y-80179989D01*
X178789153Y-92980004D02*
X178789153Y-80179989D01*
X194289154Y-92980004D02*
X178789153Y-92980004D01*
X175239154Y-80179989D02*
X175239154Y-92980004D01*
X159739153Y-80179989D02*
X175239154Y-80179989D01*
X159739153Y-92980004D02*
X159739153Y-80179989D01*
X175239154Y-92980004D02*
X159739153Y-92980004D01*
X158583754Y-99229989D02*
X158583754Y-112030004D01*
X143083753Y-99229989D02*
X158583754Y-99229989D01*
X143083753Y-112030004D02*
X143083753Y-99229989D01*
X158583754Y-112030004D02*
X143083753Y-112030004D01*
X140689153Y-92980004D02*
X140689153Y-80179989D01*
X156189154Y-92980004D02*
X140689153Y-92980004D01*
X156189154Y-80179989D02*
X156189154Y-92980004D01*
X140689153Y-80179989D02*
X156189154Y-80179989D01*
X137139154Y-80179989D02*
X137139154Y-92980004D01*
X121639153Y-80179989D02*
X137139154Y-80179989D01*
X121639153Y-92980004D02*
X121639153Y-80179989D01*
X137139154Y-92980004D02*
X121639153Y-92980004D01*
X118089154Y-80179989D02*
X118089154Y-92980004D01*
X102589153Y-80179989D02*
X118089154Y-80179989D01*
X102589153Y-92980004D02*
X102589153Y-80179989D01*
X118089154Y-92980004D02*
X102589153Y-92980004D01*
X104583758Y-111635584D02*
X97083758Y-111635584D01*
X104583758Y-97635577D02*
X104583758Y-111635584D01*
X97083758Y-97635577D02*
X104583758Y-97635577D01*
X97083758Y-111635584D02*
X97083758Y-97635577D01*
X99039154Y-92980004D02*
X83539153Y-92980004D01*
X99039154Y-80179989D02*
X99039154Y-92980004D01*
X83539153Y-80179989D02*
X99039154Y-80179989D01*
X83539153Y-92980004D02*
X83539153Y-80179989D01*
X87146254Y-99229989D02*
X87146254Y-112030004D01*
X71646253Y-99229989D02*
X87146254Y-99229989D01*
X71646253Y-112030004D02*
X71646253Y-99229989D01*
X87146254Y-112030004D02*
X71646253Y-112030004D01*
X64489153Y-92980004D02*
X64489153Y-80179989D01*
X79989154Y-92980004D02*
X64489153Y-92980004D01*
X79989154Y-80179989D02*
X79989154Y-92980004D01*
X64489153Y-80179989D02*
X79989154Y-80179989D01*
X63333754Y-99229989D02*
X63333754Y-112030004D01*
X47833753Y-99229989D02*
X63333754Y-99229989D01*
X47833753Y-112030004D02*
X47833753Y-99229989D01*
X63333754Y-112030004D02*
X47833753Y-112030004D01*
X39521254Y-99229989D02*
X39521254Y-112030004D01*
X24021253Y-99229989D02*
X39521254Y-99229989D01*
X24021253Y-112030004D02*
X24021253Y-99229989D01*
X39521254Y-112030004D02*
X24021253Y-112030004D01*
X25983256Y-94579993D02*
X25983256Y-80579986D01*
X32733253Y-94579993D02*
X25983256Y-94579993D01*
X32733253Y-92980004D02*
X32733253Y-94579993D01*
X49859253Y-92980004D02*
X32733253Y-92980004D01*
X49859253Y-94579993D02*
X49859253Y-92980004D01*
X56609251Y-94579993D02*
X49859253Y-94579993D01*
X56609251Y-80579986D02*
X56609251Y-94579993D01*
X50296264Y-80579986D02*
X56609251Y-80579986D01*
X50296264Y-80179989D02*
X50296264Y-80579986D01*
X32296264Y-80179989D02*
X50296264Y-80179989D01*
X32296264Y-80579986D02*
X32296264Y-80179989D01*
X25983256Y-80579986D02*
X32296264Y-80579986D01*
X26402503Y-54880004D02*
X26402503Y-42079989D01*
X41902504Y-54880004D02*
X26402503Y-54880004D01*
X41902504Y-42079989D02*
X41902504Y-54880004D01*
X26402503Y-42079989D02*
X41902504Y-42079989D01*
X28783753Y-61129989D02*
X44283754Y-61129989D01*
X28783753Y-73930004D02*
X28783753Y-61129989D01*
X44283754Y-73930004D02*
X28783753Y-73930004D01*
X44283754Y-61129989D02*
X44283754Y-73930004D01*
X40690003Y-35830004D02*
X40690003Y-23029989D01*
X56190004Y-35830004D02*
X40690003Y-35830004D01*
X56190004Y-23029989D02*
X56190004Y-35830004D01*
X40690003Y-23029989D02*
X56190004Y-23029989D01*
X59740003Y-35830004D02*
X59740003Y-23029989D01*
X75240004Y-35830004D02*
X59740003Y-35830004D01*
X75240004Y-23029989D02*
X75240004Y-35830004D01*
X59740003Y-23029989D02*
X75240004Y-23029989D01*
X78790003Y-35830004D02*
X78790003Y-23029989D01*
X94290004Y-35830004D02*
X78790003Y-35830004D01*
X94290004Y-23029989D02*
X94290004Y-35830004D01*
X78790003Y-23029989D02*
X94290004Y-23029989D01*
X97840003Y-35830004D02*
X97840003Y-23029989D01*
X113340004Y-35830004D02*
X97840003Y-35830004D01*
X113340004Y-23029989D02*
X113340004Y-35830004D01*
X97840003Y-23029989D02*
X113340004Y-23029989D01*
X116890003Y-35830004D02*
X116890003Y-23029989D01*
X132390004Y-35830004D02*
X116890003Y-35830004D01*
X132390004Y-23029989D02*
X132390004Y-35830004D01*
X116890003Y-23029989D02*
X132390004Y-23029989D01*
X135940003Y-35830004D02*
X135940003Y-23029989D01*
X151440004Y-35830004D02*
X135940003Y-35830004D01*
X151440004Y-23029989D02*
X151440004Y-35830004D01*
X135940003Y-23029989D02*
X151440004Y-23029989D01*
X154990003Y-35830004D02*
X154990003Y-23029989D01*
X170490004Y-35830004D02*
X154990003Y-35830004D01*
X170490004Y-23029989D02*
X170490004Y-35830004D01*
X154990003Y-23029989D02*
X170490004Y-23029989D01*
X174040003Y-35830004D02*
X174040003Y-23029989D01*
X189540004Y-35830004D02*
X174040003Y-35830004D01*
X189540004Y-23029989D02*
X189540004Y-35830004D01*
X174040003Y-23029989D02*
X189540004Y-23029989D01*
X199054087Y-54880004D02*
X183554086Y-54880004D01*
X199054087Y-42079989D02*
X199054087Y-54880004D01*
X183554086Y-42079989D02*
X199054087Y-42079989D01*
X183554086Y-54880004D02*
X183554086Y-42079989D01*
X169289237Y-73930004D02*
X169289237Y-61129989D01*
X184789239Y-73930004D02*
X169289237Y-73930004D01*
X184789239Y-61129989D02*
X184789239Y-73930004D01*
X169289237Y-61129989D02*
X184789239Y-61129989D01*
X180004087Y-54880004D02*
X164504086Y-54880004D01*
X180004087Y-42079989D02*
X180004087Y-54880004D01*
X164504086Y-42079989D02*
X180004087Y-42079989D01*
X164504086Y-54880004D02*
X164504086Y-42079989D01*
X160954087Y-54880004D02*
X145454086Y-54880004D01*
X160954087Y-42079989D02*
X160954087Y-54880004D01*
X145454086Y-42079989D02*
X160954087Y-42079989D01*
X145454086Y-54880004D02*
X145454086Y-42079989D01*
X141904087Y-54880004D02*
X126404086Y-54880004D01*
X141904087Y-42079989D02*
X141904087Y-54880004D01*
X126404086Y-42079989D02*
X141904087Y-42079989D01*
X126404086Y-54880004D02*
X126404086Y-42079989D01*
X112139237Y-73930004D02*
X112139237Y-61129989D01*
X127639239Y-73930004D02*
X112139237Y-73930004D01*
X127639239Y-61129989D02*
X127639239Y-73930004D01*
X112139237Y-61129989D02*
X127639239Y-61129989D01*
X122854087Y-54880004D02*
X107354086Y-54880004D01*
X122854087Y-42079989D02*
X122854087Y-54880004D01*
X107354086Y-42079989D02*
X122854087Y-42079989D01*
X107354086Y-54880004D02*
X107354086Y-42079989D01*
X93089237Y-73930004D02*
X93089237Y-61129989D01*
X108589239Y-73930004D02*
X93089237Y-73930004D01*
X108589239Y-61129989D02*
X108589239Y-73930004D01*
X93089237Y-61129989D02*
X108589239Y-61129989D01*
X103804087Y-54880004D02*
X88304086Y-54880004D01*
X103804087Y-42079989D02*
X103804087Y-54880004D01*
X88304086Y-42079989D02*
X103804087Y-42079989D01*
X88304086Y-54880004D02*
X88304086Y-42079989D01*
X74039237Y-73930004D02*
X74039237Y-61129989D01*
X89539239Y-73930004D02*
X74039237Y-73930004D01*
X89539239Y-61129989D02*
X89539239Y-73930004D01*
X74039237Y-61129989D02*
X89539239Y-61129989D01*
X84754087Y-54880004D02*
X69254086Y-54880004D01*
X84754087Y-42079989D02*
X84754087Y-54880004D01*
X69254086Y-42079989D02*
X84754087Y-42079989D01*
X69254086Y-54880004D02*
X69254086Y-42079989D01*
X65704087Y-54880004D02*
X50204086Y-54880004D01*
X65704087Y-42079989D02*
X65704087Y-54880004D01*
X50204086Y-42079989D02*
X65704087Y-42079989D01*
X50204086Y-54880004D02*
X50204086Y-42079989D01*
X54989237Y-73930004D02*
X54989237Y-61129989D01*
X70489239Y-73930004D02*
X54989237Y-73930004D01*
X70489239Y-61129989D02*
X70489239Y-73930004D01*
X54989237Y-61129989D02*
X70489239Y-61129989D01*
X150239237Y-69463330D02*
X146689239Y-69463330D01*
X150239237Y-73930004D02*
X150239237Y-69463330D01*
X165739239Y-73930004D02*
X150239237Y-73930004D01*
X165739239Y-61129989D02*
X165739239Y-73930004D01*
X150239237Y-61129989D02*
X165739239Y-61129989D01*
X150239237Y-65463338D02*
X150239237Y-61129989D01*
X146689239Y-65463338D02*
X150239237Y-65463338D01*
X146689239Y-61129989D02*
X146689239Y-65463338D01*
X131189237Y-61129989D02*
X146689239Y-61129989D01*
X131189237Y-73930004D02*
X131189237Y-61129989D01*
X146689239Y-73930004D02*
X131189237Y-73930004D01*
X146689239Y-69463330D02*
X146689239Y-73930004D01*
X193090003Y-35830004D02*
X193090003Y-23029989D01*
X208590004Y-35830004D02*
X193090003Y-35830004D01*
X208590004Y-23029989D02*
X208590004Y-35830004D01*
X193090003Y-23029989D02*
X208590004Y-23029989D01*
X212140003Y-35830004D02*
X212140003Y-23029989D01*
X227640004Y-35830004D02*
X212140003Y-35830004D01*
X227640004Y-23029989D02*
X227640004Y-35830004D01*
X212140003Y-23029989D02*
X227640004Y-23029989D01*
X231190003Y-35830004D02*
X231190003Y-23029989D01*
X246690004Y-35830004D02*
X231190003Y-35830004D01*
X246690004Y-23029989D02*
X246690004Y-35830004D01*
X231190003Y-23029989D02*
X246690004Y-23029989D01*
X256204087Y-54880004D02*
X240704086Y-54880004D01*
X256204087Y-42079989D02*
X256204087Y-54880004D01*
X240704086Y-42079989D02*
X256204087Y-42079989D01*
X240704086Y-54880004D02*
X240704086Y-42079989D01*
X226439237Y-73930004D02*
X226439237Y-61129989D01*
X241939239Y-73930004D02*
X226439237Y-73930004D01*
X241939239Y-61129989D02*
X241939239Y-73930004D01*
X226439237Y-61129989D02*
X241939239Y-61129989D01*
X237154087Y-54880004D02*
X221654086Y-54880004D01*
X237154087Y-42079989D02*
X237154087Y-54880004D01*
X221654086Y-42079989D02*
X237154087Y-42079989D01*
X221654086Y-54880004D02*
X221654086Y-42079989D01*
X218104087Y-54880004D02*
X202604086Y-54880004D01*
X218104087Y-42079989D02*
X218104087Y-54880004D01*
X202604086Y-42079989D02*
X218104087Y-42079989D01*
X202604086Y-54880004D02*
X202604086Y-42079989D01*
X207389237Y-73930004D02*
X207389237Y-61129989D01*
X222889239Y-73930004D02*
X207389237Y-73930004D01*
X222889239Y-61129989D02*
X222889239Y-73930004D01*
X207389237Y-61129989D02*
X222889239Y-61129989D01*
X250240003Y-35830004D02*
X250240003Y-23029989D01*
X265740004Y-35830004D02*
X250240003Y-35830004D01*
X265740004Y-23029989D02*
X265740004Y-35830004D01*
X250240003Y-23029989D02*
X265740004Y-23029989D01*
X299496750Y-73990336D02*
X299501912Y-74092581D01*
X299501912Y-74092581D02*
X299517066Y-74191873D01*
X299517066Y-74191873D02*
X299557429Y-74334172D01*
X299557429Y-74334172D02*
X299617444Y-74466999D01*
X299617444Y-74466999D02*
X299695413Y-74588656D01*
X299695413Y-74588656D02*
X299789642Y-74697447D01*
X299789642Y-74697447D02*
X299898433Y-74791676D01*
X299898433Y-74791676D02*
X300020090Y-74869645D01*
X300020090Y-74869645D02*
X300152917Y-74929660D01*
X300152917Y-74929660D02*
X300295216Y-74970023D01*
X300295216Y-74970023D02*
X300394508Y-74985177D01*
X300394508Y-74985177D02*
X300496754Y-74990340D01*
X299496750Y-61529986D02*
X299496750Y-73990336D01*
X293183764Y-61529986D02*
X299496750Y-61529986D01*
X293183764Y-61129989D02*
X293183764Y-61529986D01*
X275183764Y-61129989D02*
X293183764Y-61129989D01*
X275183764Y-61529986D02*
X275183764Y-61129989D01*
X268870756Y-61529986D02*
X275183764Y-61529986D01*
X268870756Y-75529993D02*
X268870756Y-61529986D01*
X275620753Y-75529993D02*
X268870756Y-75529993D01*
X275620753Y-73930004D02*
X275620753Y-75529993D01*
X292746753Y-73930004D02*
X275620753Y-73930004D01*
X292746753Y-75529993D02*
X292746753Y-73930004D01*
X296490000Y-75529993D02*
X292746753Y-75529993D01*
X297490004Y-76529996D02*
X297484841Y-76427750D01*
X297484841Y-76427750D02*
X297469687Y-76328458D01*
X297469687Y-76328458D02*
X297429324Y-76186159D01*
X297429324Y-76186159D02*
X297369309Y-76053332D01*
X297369309Y-76053332D02*
X297291340Y-75931675D01*
X297291340Y-75931675D02*
X297197111Y-75822885D01*
X297197111Y-75822885D02*
X297088320Y-75728656D01*
X297088320Y-75728656D02*
X296966663Y-75650686D01*
X296966663Y-75650686D02*
X296833836Y-75590672D01*
X296833836Y-75590672D02*
X296691537Y-75550309D01*
X296691537Y-75550309D02*
X296592245Y-75535155D01*
X296592245Y-75535155D02*
X296490000Y-75529993D01*
X297490004Y-77990329D02*
X297490004Y-76529996D01*
X298490007Y-78990333D02*
X298387761Y-78985170D01*
X298387761Y-78985170D02*
X298288470Y-78970016D01*
X298288470Y-78970016D02*
X298146170Y-78929653D01*
X298146170Y-78929653D02*
X298013344Y-78869638D01*
X298013344Y-78869638D02*
X297891687Y-78791669D01*
X297891687Y-78791669D02*
X297782896Y-78697440D01*
X297782896Y-78697440D02*
X297688667Y-78588649D01*
X297688667Y-78588649D02*
X297610698Y-78466992D01*
X297610698Y-78466992D02*
X297550683Y-78334165D01*
X297550683Y-78334165D02*
X297510320Y-78191866D01*
X297510320Y-78191866D02*
X297495166Y-78092574D01*
X297495166Y-78092574D02*
X297490004Y-77990329D01*
X305490011Y-78990333D02*
X298490007Y-78990333D01*
X305490011Y-112030004D02*
X305490011Y-78990333D01*
X302490000Y-115029993D02*
X302644379Y-115026089D01*
X302644379Y-115026089D02*
X302796732Y-115014504D01*
X302796732Y-115014504D02*
X302946870Y-114995426D01*
X302946870Y-114995426D02*
X303094605Y-114969044D01*
X303094605Y-114969044D02*
X303239747Y-114935545D01*
X303239747Y-114935545D02*
X303382109Y-114895119D01*
X303382109Y-114895119D02*
X303521501Y-114847955D01*
X303521501Y-114847955D02*
X303657737Y-114794239D01*
X303657737Y-114794239D02*
X303790626Y-114734162D01*
X303790626Y-114734162D02*
X303919980Y-114667911D01*
X303919980Y-114667911D02*
X304045612Y-114595675D01*
X304045612Y-114595675D02*
X304167331Y-114517643D01*
X304167331Y-114517643D02*
X304284951Y-114434003D01*
X304284951Y-114434003D02*
X304398282Y-114344943D01*
X304398282Y-114344943D02*
X304507137Y-114250652D01*
X304507137Y-114250652D02*
X304611325Y-114151318D01*
X304611325Y-114151318D02*
X304710660Y-114047131D01*
X304710660Y-114047131D02*
X304804952Y-113938278D01*
X304804952Y-113938278D02*
X304894013Y-113824947D01*
X304894013Y-113824947D02*
X304977654Y-113707328D01*
X304977654Y-113707328D02*
X305055687Y-113585610D01*
X305055687Y-113585610D02*
X305127924Y-113459979D01*
X305127924Y-113459979D02*
X305194176Y-113330625D01*
X305194176Y-113330625D02*
X305254254Y-113197737D01*
X305254254Y-113197737D02*
X305307970Y-113061503D01*
X305307970Y-113061503D02*
X305355135Y-112922111D01*
X305355135Y-112922111D02*
X305395562Y-112779749D01*
X305395562Y-112779749D02*
X305429061Y-112634608D01*
X305429061Y-112634608D02*
X305455443Y-112486874D01*
X305455443Y-112486874D02*
X305474522Y-112336736D01*
X305474522Y-112336736D02*
X305486107Y-112184383D01*
X305486107Y-112184383D02*
X305490011Y-112030004D01*
X22990006Y-115029993D02*
X302490000Y-115029993D01*
X19990017Y-112030004D02*
X19993920Y-112184383D01*
X19993920Y-112184383D02*
X20005505Y-112336736D01*
X20005505Y-112336736D02*
X20024583Y-112486874D01*
X20024583Y-112486874D02*
X20050965Y-112634608D01*
X20050965Y-112634608D02*
X20084464Y-112779749D01*
X20084464Y-112779749D02*
X20124890Y-112922111D01*
X20124890Y-112922111D02*
X20172054Y-113061503D01*
X20172054Y-113061503D02*
X20225770Y-113197737D01*
X20225770Y-113197737D02*
X20285847Y-113330625D01*
X20285847Y-113330625D02*
X20352098Y-113459979D01*
X20352098Y-113459979D02*
X20424334Y-113585610D01*
X20424334Y-113585610D02*
X20502366Y-113707328D01*
X20502366Y-113707328D02*
X20586006Y-113824947D01*
X20586006Y-113824947D02*
X20675066Y-113938278D01*
X20675066Y-113938278D02*
X20769357Y-114047131D01*
X20769357Y-114047131D02*
X20868691Y-114151318D01*
X20868691Y-114151318D02*
X20972878Y-114250652D01*
X20972878Y-114250652D02*
X21081731Y-114344943D01*
X21081731Y-114344943D02*
X21195062Y-114434003D01*
X21195062Y-114434003D02*
X21312681Y-114517643D01*
X21312681Y-114517643D02*
X21434399Y-114595675D01*
X21434399Y-114595675D02*
X21560030Y-114667911D01*
X21560030Y-114667911D02*
X21689384Y-114734162D01*
X21689384Y-114734162D02*
X21822272Y-114794239D01*
X21822272Y-114794239D02*
X21958506Y-114847955D01*
X21958506Y-114847955D02*
X22097898Y-114895119D01*
X22097898Y-114895119D02*
X22240260Y-114935545D01*
X22240260Y-114935545D02*
X22385401Y-114969044D01*
X22385401Y-114969044D02*
X22533135Y-114995426D01*
X22533135Y-114995426D02*
X22683273Y-115014504D01*
X22683273Y-115014504D02*
X22835626Y-115026089D01*
X22835626Y-115026089D02*
X22990006Y-115029993D01*
X19990017Y-79007989D02*
X19990017Y-112030004D01*
X24035184Y-79007989D02*
X19990017Y-79007989D01*
X19990017Y-35830004D02*
X19990017Y-75007996D01*
X37140004Y-35830004D02*
X19990017Y-35830004D01*
X37140004Y-23029989D02*
X37140004Y-35830004D01*
X19990017Y-23029989D02*
X37140004Y-23029989D01*
X25435184Y-77608010D02*
X25427955Y-77751149D01*
X25427955Y-77751149D02*
X25406740Y-77890154D01*
X25406740Y-77890154D02*
X25372241Y-78024320D01*
X25372241Y-78024320D02*
X25325163Y-78152944D01*
X25325163Y-78152944D02*
X25266209Y-78275323D01*
X25266209Y-78275323D02*
X25196082Y-78390751D01*
X25196082Y-78390751D02*
X25115488Y-78498526D01*
X25115488Y-78498526D02*
X25025129Y-78597944D01*
X25025129Y-78597944D02*
X24925709Y-78688301D01*
X24925709Y-78688301D02*
X24817932Y-78768894D01*
X24817932Y-78768894D02*
X24702501Y-78839019D01*
X24702501Y-78839019D02*
X24580122Y-78897971D01*
X24580122Y-78897971D02*
X24451496Y-78945048D01*
X24451496Y-78945048D02*
X24317329Y-78979546D01*
X24317329Y-78979546D02*
X24178323Y-79000761D01*
X24178323Y-79000761D02*
X24035184Y-79007989D01*
X25435184Y-76407997D02*
X25435184Y-77608010D01*
X305490011Y-23029989D02*
X305486107Y-22875609D01*
X305486107Y-22875609D02*
X305474522Y-22723256D01*
X305474522Y-22723256D02*
X305455443Y-22573118D01*
X305455443Y-22573118D02*
X305429061Y-22425384D01*
X305429061Y-22425384D02*
X305395562Y-22280243D01*
X305395562Y-22280243D02*
X305355135Y-22137881D01*
X305355135Y-22137881D02*
X305307970Y-21998489D01*
X305307970Y-21998489D02*
X305254254Y-21862255D01*
X305254254Y-21862255D02*
X305194176Y-21729367D01*
X305194176Y-21729367D02*
X305127924Y-21600013D01*
X305127924Y-21600013D02*
X305055687Y-21474382D01*
X305055687Y-21474382D02*
X304977654Y-21352664D01*
X304977654Y-21352664D02*
X304894013Y-21235045D01*
X304894013Y-21235045D02*
X304804952Y-21121714D01*
X304804952Y-21121714D02*
X304710660Y-21012861D01*
X304710660Y-21012861D02*
X304611325Y-20908674D01*
X304611325Y-20908674D02*
X304507137Y-20809340D01*
X304507137Y-20809340D02*
X304398282Y-20715049D01*
X304398282Y-20715049D02*
X304284951Y-20625989D01*
X304284951Y-20625989D02*
X304167331Y-20542349D01*
X304167331Y-20542349D02*
X304045612Y-20464317D01*
X304045612Y-20464317D02*
X303919980Y-20392081D01*
X303919980Y-20392081D02*
X303790626Y-20325830D01*
X303790626Y-20325830D02*
X303657737Y-20265753D01*
X303657737Y-20265753D02*
X303521501Y-20212037D01*
X303521501Y-20212037D02*
X303382109Y-20164873D01*
X303382109Y-20164873D02*
X303239747Y-20124447D01*
X303239747Y-20124447D02*
X303094605Y-20090948D01*
X303094605Y-20090948D02*
X302946870Y-20064566D01*
X302946870Y-20064566D02*
X302796732Y-20045488D01*
X302796732Y-20045488D02*
X302644379Y-20033903D01*
X302644379Y-20033903D02*
X302490000Y-20030000D01*
X300496754Y-74990340D02*
X305490011Y-74990340D01*
X305490011Y-74990340D02*
X305490011Y-23029989D01*
X24035184Y-75007996D02*
X24178323Y-75015223D01*
X24178323Y-75015223D02*
X24317329Y-75036438D01*
X24317329Y-75036438D02*
X24451496Y-75070936D01*
X24451496Y-75070936D02*
X24580122Y-75118013D01*
X24580122Y-75118013D02*
X24702501Y-75176966D01*
X24702501Y-75176966D02*
X24817932Y-75247091D01*
X24817932Y-75247091D02*
X24925709Y-75327685D01*
X24925709Y-75327685D02*
X25025129Y-75418043D01*
X25025129Y-75418043D02*
X25115488Y-75517462D01*
X25115488Y-75517462D02*
X25196082Y-75625238D01*
X25196082Y-75625238D02*
X25266209Y-75740669D01*
X25266209Y-75740669D02*
X25325163Y-75863049D01*
X25325163Y-75863049D02*
X25372241Y-75991675D01*
X25372241Y-75991675D02*
X25406740Y-76125845D01*
X25406740Y-76125845D02*
X25427955Y-76264853D01*
X25427955Y-76264853D02*
X25435184Y-76407997D01*
X19990017Y-75007996D02*
X24035184Y-75007996D01*
X22990006Y-20030000D02*
X22835626Y-20033903D01*
X22835626Y-20033903D02*
X22683273Y-20045488D01*
X22683273Y-20045488D02*
X22533135Y-20064566D01*
X22533135Y-20064566D02*
X22385401Y-20090948D01*
X22385401Y-20090948D02*
X22240260Y-20124447D01*
X22240260Y-20124447D02*
X22097898Y-20164873D01*
X22097898Y-20164873D02*
X21958506Y-20212037D01*
X21958506Y-20212037D02*
X21822272Y-20265753D01*
X21822272Y-20265753D02*
X21689384Y-20325830D01*
X21689384Y-20325830D02*
X21560030Y-20392081D01*
X21560030Y-20392081D02*
X21434399Y-20464317D01*
X21434399Y-20464317D02*
X21312681Y-20542349D01*
X21312681Y-20542349D02*
X21195062Y-20625989D01*
X21195062Y-20625989D02*
X21081731Y-20715049D01*
X21081731Y-20715049D02*
X20972878Y-20809340D01*
X20972878Y-20809340D02*
X20868691Y-20908674D01*
X20868691Y-20908674D02*
X20769357Y-21012861D01*
X20769357Y-21012861D02*
X20675066Y-21121714D01*
X20675066Y-21121714D02*
X20586006Y-21235045D01*
X20586006Y-21235045D02*
X20502366Y-21352664D01*
X20502366Y-21352664D02*
X20424334Y-21474382D01*
X20424334Y-21474382D02*
X20352098Y-21600013D01*
X20352098Y-21600013D02*
X20285847Y-21729367D01*
X20285847Y-21729367D02*
X20225770Y-21862255D01*
X20225770Y-21862255D02*
X20172054Y-21998489D01*
X20172054Y-21998489D02*
X20124890Y-22137881D01*
X20124890Y-22137881D02*
X20084464Y-22280243D01*
X20084464Y-22280243D02*
X20050965Y-22425384D01*
X20050965Y-22425384D02*
X20024583Y-22573118D01*
X20024583Y-22573118D02*
X20005505Y-22723256D01*
X20005505Y-22723256D02*
X19993920Y-22875609D01*
X19993920Y-22875609D02*
X19990017Y-23029989D01*
X302490000Y-20030000D02*
X22990006Y-20030000D01*
M02*
