%TF.GenerationSoftware,KiCad,Pcbnew,(5.1.9-0-10_14)*%
%TF.CreationDate,2021-04-02T11:56:41+09:00*%
%TF.ProjectId,pcb-top-plate-rev1,7063622d-746f-4702-9d70-6c6174652d72,rev?*%
%TF.SameCoordinates,Original*%
%TF.FileFunction,Soldermask,Top*%
%TF.FilePolarity,Negative*%
%FSLAX46Y46*%
G04 Gerber Fmt 4.6, Leading zero omitted, Abs format (unit mm)*
G04 Created by KiCad (PCBNEW (5.1.9-0-10_14)) date 2021-04-02 11:56:41*
%MOMM*%
%LPD*%
G01*
G04 APERTURE LIST*
%ADD10C,0.200000*%
%ADD11C,2.200000*%
%ADD12C,4.400000*%
G04 APERTURE END LIST*
D10*
X183349881Y-98292663D02*
X182778564Y-97892504D01*
X182705520Y-98527191D02*
X182295096Y-97399560D01*
X182724670Y-97243208D01*
X182851607Y-97257817D01*
X182924848Y-97291970D01*
X183017633Y-97379819D01*
X183076265Y-97540909D01*
X183061656Y-97667847D01*
X183027503Y-97741087D01*
X182939654Y-97833872D01*
X182510080Y-97990224D01*
X183618167Y-97526103D02*
X183994044Y-97389295D01*
X184370118Y-97921327D02*
X183833151Y-98116767D01*
X183422727Y-96989136D01*
X183959694Y-96793696D01*
X184281875Y-96676432D02*
X185068176Y-97667255D01*
X185033629Y-96402816D01*
X185819930Y-97393639D02*
X185409506Y-96266008D01*
X185946473Y-96070568D02*
X186278721Y-96983412D01*
X186371506Y-97071261D01*
X186444747Y-97105414D01*
X186571684Y-97120023D01*
X186786471Y-97041847D01*
X186874320Y-96949062D01*
X186908473Y-96875821D01*
X186923082Y-96748884D01*
X186590834Y-95836040D01*
X187538225Y-96768231D02*
X187127801Y-95640600D01*
X188182586Y-96533703D01*
X187772161Y-95406072D01*
X188919337Y-95049344D02*
X188792399Y-95034735D01*
X188631309Y-95093367D01*
X188489763Y-95205696D01*
X188421457Y-95352178D01*
X188406849Y-95479115D01*
X188431328Y-95713446D01*
X188489960Y-95874536D01*
X188621833Y-96069779D01*
X188714618Y-96157628D01*
X188861099Y-96225934D01*
X189041733Y-96220999D01*
X189149127Y-96181910D01*
X189290673Y-96069582D01*
X189324825Y-95996341D01*
X189188017Y-95620464D01*
X188973231Y-95698640D01*
X189329366Y-94839295D02*
X190027424Y-94585223D01*
X189807899Y-95151605D01*
X189968989Y-95092973D01*
X190095926Y-95107582D01*
X190169167Y-95141734D01*
X190261952Y-95229584D01*
X190359672Y-95498067D01*
X190345063Y-95625005D01*
X190310910Y-95698246D01*
X190223061Y-95791030D01*
X189900881Y-95908294D01*
X189773943Y-95893686D01*
X189700703Y-95859533D01*
X191130773Y-94609308D02*
X191404389Y-95361062D01*
X190705937Y-94277454D02*
X190730614Y-95180625D01*
X191428671Y-94926553D01*
X192473191Y-94120708D02*
X193015291Y-94774742D01*
X193010158Y-93925268D01*
X194123378Y-94310621D02*
X194035528Y-94403406D01*
X193820741Y-94481582D01*
X193693804Y-94466973D01*
X193601019Y-94379124D01*
X193444667Y-93949550D01*
X193459276Y-93822612D01*
X193547125Y-93729828D01*
X193761912Y-93651652D01*
X193888850Y-93666260D01*
X193981634Y-93754110D01*
X194020722Y-93861503D01*
X193522843Y-94164337D01*
X194679889Y-94168878D02*
X194406273Y-93417124D01*
X194484449Y-93631910D02*
X194499058Y-93504973D01*
X194533210Y-93431732D01*
X194621060Y-93338948D01*
X194728453Y-93299860D01*
X195968610Y-93699821D02*
X195324250Y-93934350D01*
X195646430Y-93817086D02*
X195236006Y-92689454D01*
X195187244Y-92889633D01*
X195118939Y-93036114D01*
X195031089Y-93128899D01*
X196412793Y-93416532D02*
X196486033Y-93450685D01*
X196451881Y-93523925D01*
X196378640Y-93489773D01*
X196412793Y-93416532D01*
X196451881Y-93523925D01*
X196793211Y-92122678D02*
X196900604Y-92083590D01*
X197027541Y-92098199D01*
X197100782Y-92132352D01*
X197193567Y-92220201D01*
X197325440Y-92415444D01*
X197423160Y-92683927D01*
X197447639Y-92918258D01*
X197433030Y-93045196D01*
X197398878Y-93118437D01*
X197311028Y-93211221D01*
X197203635Y-93250309D01*
X197076697Y-93235701D01*
X197003457Y-93201548D01*
X196910672Y-93113698D01*
X196778799Y-92918456D01*
X196681079Y-92649972D01*
X196656600Y-92415641D01*
X196671208Y-92288704D01*
X196705361Y-92215463D01*
X196793211Y-92122678D01*
D11*
%TO.C,Ref\u002A\u002A*%
X132650000Y-96310000D03*
%TD*%
%TO.C,Ref\u002A\u002A*%
X127330000Y-96310000D03*
%TD*%
%TO.C,Ref\u002A\u002A*%
X122010000Y-96310000D03*
%TD*%
%TO.C,Ref\u002A\u002A*%
X135330000Y-93550000D03*
%TD*%
%TO.C,Ref\u002A\u002A*%
X130000000Y-93550000D03*
%TD*%
%TO.C,Ref\u002A\u002A*%
X124660000Y-93550000D03*
%TD*%
%TO.C,Ref\u002A\u002A*%
X119310000Y-93550000D03*
%TD*%
%TO.C,Ref\u002A\u002A*%
X132650000Y-90810000D03*
%TD*%
%TO.C,Ref\u002A\u002A*%
X127330000Y-90810000D03*
%TD*%
%TO.C,Ref\u002A\u002A*%
X122010000Y-90810000D03*
%TD*%
%TO.C,Ref\u002A\u002A*%
X130000000Y-88050000D03*
%TD*%
%TO.C,Ref\u002A\u002A*%
X124660000Y-88050000D03*
%TD*%
%TO.C,Ref\u002A\u002A*%
X132650000Y-85310000D03*
%TD*%
%TO.C,Ref\u002A\u002A*%
X122020000Y-85310000D03*
%TD*%
%TO.C,Ref\u002A\u002A*%
X130000000Y-82550000D03*
%TD*%
%TO.C,Ref\u002A\u002A*%
X124660000Y-82550000D03*
%TD*%
%TO.C,Ref\u002A\u002A*%
X132650000Y-79810000D03*
%TD*%
%TO.C,Ref\u002A\u002A*%
X127330000Y-79810000D03*
%TD*%
%TO.C,Ref\u002A\u002A*%
X122010000Y-79810000D03*
%TD*%
%TO.C,Ref\u002A\u002A*%
X130000000Y-77050000D03*
%TD*%
%TO.C,Ref\u002A\u002A*%
X124660000Y-77050000D03*
%TD*%
%TO.C,Ref\u002A\u002A*%
X132650000Y-74300000D03*
%TD*%
%TO.C,Ref\u002A\u002A*%
X127340000Y-74310000D03*
%TD*%
%TO.C,Ref\u002A\u002A*%
X122010000Y-74310000D03*
%TD*%
%TO.C,Ref\u002A\u002A*%
X130000000Y-71550000D03*
%TD*%
%TO.C,Ref\u002A\u002A*%
X124660000Y-71550000D03*
%TD*%
%TO.C,Ref\u002A\u002A*%
X127330000Y-68800000D03*
%TD*%
%TO.C,Ref\u002A\u002A*%
X130000000Y-66050000D03*
%TD*%
%TO.C,Ref\u002A\u002A*%
X124660000Y-66050000D03*
%TD*%
%TO.C,Ref\u002A\u002A*%
X127330000Y-63310000D03*
%TD*%
%TO.C,Ref\u002A\u002A*%
X149540000Y-30820000D03*
%TD*%
%TO.C,Ref\u002A\u002A*%
X123230000Y-45270000D03*
%TD*%
%TO.C,Ref\u002A\u002A*%
X111990000Y-43270000D03*
%TD*%
%TO.C,H8*%
X212330000Y-86490000D03*
%TD*%
%TO.C,H7*%
X205730000Y-48980000D03*
%TD*%
%TO.C,H6*%
X173220000Y-97930000D03*
%TD*%
%TO.C,H5*%
X149450000Y-58890000D03*
%TD*%
%TO.C,H3*%
X81440000Y-97930000D03*
%TD*%
%TO.C,H4*%
X105220000Y-58900000D03*
%TD*%
%TO.C,H2*%
X42320000Y-86490000D03*
%TD*%
%TO.C,H9*%
X48940000Y-48990000D03*
%TD*%
D12*
%TO.C,H1*%
X127340000Y-100910000D03*
%TD*%
M02*
