<?xml version="1.0" encoding="utf-8"?>
<!-- Generator: Adobe Illustrator 24.2.3, SVG Export Plug-In . SVG Version: 6.00 Build 0)  -->
<svg version="1.1" xmlns="http://www.w3.org/2000/svg" xmlns:xlink="http://www.w3.org/1999/xlink" x="0px" y="0px"
	 viewBox="0 0 599.53 795.4" style="enable-background:new 0 0 599.53 795.4;" xml:space="preserve">
<style type="text/css">
	.st0{fill:#FF0000;}
</style>
<g id="note">
	<g>
		<path d="M266.49,123.42v-7.58h-2.83v-1.01h6.81v1.01h-2.84v7.58H266.49z"/>
		<path d="M271.11,120.31c0-1.15,0.32-2.01,0.96-2.56c0.54-0.46,1.19-0.69,1.96-0.69c0.86,0,1.55,0.28,2.1,0.84s0.81,1.33,0.81,2.32
			c0,0.8-0.12,1.43-0.36,1.89s-0.59,0.82-1.05,1.07s-0.96,0.38-1.5,0.38c-0.87,0-1.58-0.28-2.11-0.84S271.11,121.36,271.11,120.31z
			 M272.19,120.31c0,0.8,0.17,1.39,0.52,1.79s0.79,0.59,1.31,0.59c0.52,0,0.96-0.2,1.31-0.6s0.52-1.01,0.52-1.82
			c0-0.77-0.17-1.35-0.52-1.75s-0.78-0.59-1.3-0.59c-0.53,0-0.96,0.2-1.31,0.59S272.19,119.52,272.19,120.31z"/>
		<path d="M278.18,125.81v-8.61h0.96v0.81c0.23-0.32,0.48-0.55,0.77-0.71s0.63-0.24,1.04-0.24c0.53,0,1,0.14,1.41,0.41
			s0.71,0.66,0.92,1.16s0.31,1.04,0.31,1.64c0,0.64-0.11,1.21-0.34,1.72s-0.56,0.9-1,1.17s-0.89,0.41-1.37,0.41
			c-0.35,0-0.67-0.07-0.95-0.22s-0.51-0.34-0.69-0.56v3.03H278.18z M279.13,120.35c0,0.8,0.16,1.39,0.49,1.78s0.72,0.57,1.18,0.57
			c0.47,0,0.87-0.2,1.2-0.59s0.5-1.01,0.5-1.84c0-0.79-0.16-1.39-0.49-1.78s-0.72-0.59-1.17-0.59c-0.45,0-0.85,0.21-1.19,0.63
			S279.13,119.55,279.13,120.35z"/>
		<path d="M288.16,123.42v-8.59h1.05v8.59H288.16z"/>
		<path d="M294.91,122.66c-0.39,0.33-0.77,0.57-1.13,0.7s-0.75,0.21-1.16,0.21c-0.68,0-1.21-0.17-1.58-0.5s-0.55-0.76-0.55-1.28
			c0-0.3,0.07-0.58,0.21-0.83s0.32-0.45,0.54-0.61s0.48-0.27,0.76-0.35c0.21-0.05,0.52-0.11,0.94-0.16c0.85-0.1,1.48-0.22,1.88-0.36
			c0-0.14,0.01-0.24,0.01-0.28c0-0.43-0.1-0.73-0.3-0.91c-0.27-0.24-0.67-0.36-1.2-0.36c-0.5,0-0.86,0.09-1.1,0.26
			s-0.41,0.48-0.52,0.92l-1.03-0.14c0.09-0.44,0.25-0.8,0.46-1.07s0.53-0.48,0.93-0.63s0.88-0.22,1.41-0.22
			c0.53,0,0.96,0.06,1.29,0.19s0.58,0.28,0.73,0.47s0.27,0.43,0.33,0.72c0.04,0.18,0.05,0.5,0.05,0.97v1.41
			c0,0.98,0.02,1.6,0.07,1.86s0.13,0.51,0.27,0.75h-1.1C295.01,123.2,294.94,122.95,294.91,122.66z M294.82,120.3
			c-0.38,0.16-0.96,0.29-1.72,0.4c-0.43,0.06-0.74,0.13-0.92,0.21s-0.32,0.19-0.42,0.34s-0.15,0.32-0.15,0.5
			c0,0.28,0.11,0.52,0.32,0.7s0.52,0.28,0.93,0.28c0.41,0,0.77-0.09,1.08-0.27s0.55-0.42,0.7-0.73c0.11-0.24,0.17-0.59,0.17-1.05
			V120.3z"/>
		<path d="M297.48,125.82l-0.12-0.99c0.23,0.06,0.43,0.09,0.6,0.09c0.23,0,0.42-0.04,0.56-0.12s0.26-0.19,0.35-0.33
			c0.07-0.11,0.17-0.37,0.32-0.79c0.02-0.06,0.05-0.14,0.09-0.26l-2.36-6.23h1.14l1.29,3.6c0.17,0.46,0.32,0.94,0.45,1.44
			c0.12-0.48,0.27-0.96,0.43-1.42l1.33-3.63h1.05l-2.37,6.33c-0.25,0.68-0.45,1.15-0.59,1.41c-0.19,0.35-0.4,0.6-0.64,0.76
			s-0.53,0.24-0.87,0.24C297.95,125.95,297.73,125.91,297.48,125.82z"/>
		<path d="M307.78,121.42l1.09,0.13c-0.17,0.64-0.49,1.13-0.96,1.48s-1.06,0.53-1.78,0.53c-0.91,0-1.63-0.28-2.17-0.84
			s-0.8-1.35-0.8-2.36c0-1.05,0.27-1.86,0.81-2.44s1.24-0.87,2.1-0.87c0.83,0,1.51,0.28,2.04,0.85s0.79,1.36,0.79,2.39
			c0,0.06,0,0.16-0.01,0.28h-4.64c0.04,0.68,0.23,1.21,0.58,1.57s0.78,0.54,1.3,0.54c0.39,0,0.72-0.1,0.99-0.3
			S307.62,121.86,307.78,121.42z M304.32,119.71h3.47c-0.05-0.52-0.18-0.92-0.4-1.18c-0.34-0.41-0.77-0.61-1.31-0.61
			c-0.48,0-0.89,0.16-1.22,0.49S304.35,119.17,304.32,119.71z"/>
		<path d="M310.19,123.42v-6.22h0.95v0.94c0.24-0.44,0.47-0.73,0.67-0.87s0.43-0.21,0.68-0.21c0.36,0,0.72,0.11,1.08,0.34
			l-0.36,0.98c-0.26-0.15-0.52-0.23-0.77-0.23c-0.23,0-0.44,0.07-0.62,0.21s-0.31,0.33-0.39,0.58c-0.12,0.38-0.18,0.79-0.18,1.23
			v3.26H310.19z"/>
		<path d="M265.81,144.42l-2.28-8.59h1.17l1.31,5.63c0.14,0.59,0.26,1.18,0.36,1.76c0.22-0.92,0.35-1.45,0.39-1.59l1.63-5.8h1.37
			l1.23,4.35c0.31,1.08,0.53,2.09,0.67,3.04c0.11-0.54,0.25-1.17,0.43-1.87l1.35-5.52h1.14l-2.36,8.59h-1.1l-1.81-6.54
			c-0.15-0.55-0.24-0.88-0.27-1.01c-0.09,0.39-0.17,0.73-0.25,1.01l-1.82,6.54H265.81z"/>
		<path d="M279.12,139.4v-1.2h1.2v1.2H279.12z M279.12,144.42v-1.2h1.2v1.2H279.12z"/>
		<path d="M290.75,143.41v1.01h-5.68c-0.01-0.25,0.03-0.5,0.12-0.73c0.14-0.39,0.38-0.77,0.69-1.14s0.78-0.81,1.38-1.3
			c0.93-0.77,1.56-1.37,1.89-1.82s0.49-0.87,0.49-1.27c0-0.42-0.15-0.77-0.45-1.06s-0.69-0.43-1.17-0.43
			c-0.51,0-0.91,0.15-1.22,0.46s-0.46,0.73-0.46,1.27l-1.08-0.11c0.07-0.81,0.35-1.42,0.84-1.85s1.13-0.64,1.95-0.64
			c0.82,0,1.48,0.23,1.96,0.69s0.72,1.02,0.72,1.7c0,0.34-0.07,0.68-0.21,1.01s-0.37,0.68-0.7,1.05s-0.87,0.87-1.63,1.51
			c-0.63,0.53-1.04,0.89-1.22,1.08s-0.33,0.38-0.45,0.57H290.75z"/>
		<path d="M291.88,140.19c0-1.02,0.1-1.83,0.31-2.45s0.52-1.1,0.93-1.43s0.93-0.5,1.56-0.5c0.46,0,0.87,0.09,1.21,0.28
			s0.63,0.45,0.86,0.8s0.4,0.78,0.53,1.28s0.19,1.18,0.19,2.03c0,1.01-0.1,1.82-0.31,2.44s-0.52,1.1-0.93,1.44s-0.93,0.51-1.56,0.51
			c-0.83,0-1.48-0.3-1.95-0.89C292.16,142.96,291.88,141.8,291.88,140.19z M292.96,140.19c0,1.41,0.17,2.35,0.5,2.82
			s0.74,0.7,1.22,0.7s0.89-0.23,1.22-0.7s0.5-1.41,0.5-2.81c0-1.41-0.17-2.35-0.5-2.82s-0.74-0.7-1.23-0.7
			c-0.48,0-0.87,0.21-1.16,0.62C293.15,137.81,292.96,138.78,292.96,140.19z"/>
		<path d="M298.56,142.16l1.05-0.14c0.12,0.6,0.33,1.03,0.62,1.29s0.65,0.4,1.06,0.4c0.5,0,0.92-0.17,1.26-0.52s0.51-0.77,0.51-1.28
			c0-0.48-0.16-0.88-0.47-1.2s-0.72-0.47-1.21-0.47c-0.2,0-0.45,0.04-0.74,0.12l0.12-0.93c0.07,0.01,0.13,0.01,0.17,0.01
			c0.45,0,0.85-0.12,1.21-0.35s0.54-0.6,0.54-1.08c0-0.39-0.13-0.71-0.39-0.96s-0.6-0.38-1.01-0.38c-0.41,0-0.75,0.13-1.02,0.39
			s-0.45,0.64-0.53,1.16l-1.05-0.19c0.13-0.71,0.42-1.25,0.88-1.64s1.02-0.58,1.7-0.58c0.47,0,0.9,0.1,1.29,0.3s0.7,0.48,0.91,0.82
			s0.31,0.72,0.31,1.11c0,0.37-0.1,0.71-0.3,1.01s-0.49,0.55-0.88,0.73c0.51,0.12,0.9,0.36,1.18,0.73s0.42,0.83,0.42,1.39
			c0,0.75-0.27,1.39-0.82,1.91s-1.24,0.78-2.07,0.78c-0.75,0-1.38-0.22-1.88-0.67S298.63,142.87,298.56,142.16z"/>
		<path d="M305.82,144.42v-1.2h1.2v1.2H305.82z"/>
		<path d="M308.56,142.17l1.11-0.09c0.08,0.54,0.27,0.94,0.57,1.22s0.66,0.41,1.08,0.41c0.51,0,0.94-0.19,1.29-0.57
			s0.53-0.89,0.53-1.52c0-0.6-0.17-1.08-0.51-1.42s-0.78-0.52-1.33-0.52c-0.34,0-0.65,0.08-0.92,0.23s-0.49,0.35-0.64,0.6
			l-0.99-0.13l0.83-4.41h4.27v1.01h-3.43l-0.46,2.31c0.52-0.36,1.06-0.54,1.62-0.54c0.75,0,1.38,0.26,1.9,0.78s0.77,1.19,0.77,2
			c0,0.78-0.23,1.45-0.68,2.02c-0.55,0.7-1.3,1.04-2.26,1.04c-0.78,0-1.42-0.22-1.91-0.66S308.63,142.9,308.56,142.17z"/>
		<path d="M318.86,144.42v-6.22h0.94v0.87c0.2-0.3,0.46-0.55,0.78-0.74s0.69-0.28,1.11-0.28c0.46,0,0.84,0.1,1.13,0.29
			s0.5,0.46,0.62,0.8c0.49-0.73,1.13-1.09,1.92-1.09c0.62,0,1.09,0.17,1.42,0.51s0.5,0.87,0.5,1.58v4.27h-1.05v-3.92
			c0-0.42-0.03-0.73-0.1-0.91s-0.19-0.33-0.37-0.45s-0.39-0.17-0.63-0.17c-0.44,0-0.8,0.15-1.09,0.44s-0.43,0.76-0.43,1.4v3.62
			h-1.05v-4.04c0-0.47-0.09-0.82-0.26-1.05s-0.45-0.35-0.84-0.35c-0.3,0-0.57,0.08-0.82,0.23s-0.43,0.38-0.55,0.69
			s-0.17,0.73-0.17,1.3v3.23H318.86z"/>
		<path d="M328.86,144.42v-6.22h0.94v0.87c0.2-0.3,0.46-0.55,0.78-0.74s0.69-0.28,1.11-0.28c0.46,0,0.84,0.1,1.13,0.29
			s0.5,0.46,0.62,0.8c0.49-0.73,1.13-1.09,1.92-1.09c0.62,0,1.09,0.17,1.42,0.51s0.5,0.87,0.5,1.58v4.27h-1.05v-3.92
			c0-0.42-0.03-0.73-0.1-0.91s-0.19-0.33-0.37-0.45s-0.39-0.17-0.63-0.17c-0.44,0-0.8,0.15-1.09,0.44s-0.43,0.76-0.43,1.4v3.62
			h-1.05v-4.04c0-0.47-0.09-0.82-0.26-1.05s-0.45-0.35-0.84-0.35c-0.3,0-0.57,0.08-0.82,0.23s-0.43,0.38-0.55,0.69
			s-0.17,0.73-0.17,1.3v3.23H328.86z"/>
		<path d="M264.34,165.42v-8.59h1.14v3.53h4.46v-3.53h1.14v8.59h-1.14v-4.05h-4.46v4.05H264.34z"/>
		<path d="M276.46,160.4v-1.2h1.2v1.2H276.46z M276.46,165.42v-1.2h1.2v1.2H276.46z"/>
		<path d="M284.17,160.77c-0.44-0.16-0.76-0.39-0.97-0.69s-0.32-0.65-0.32-1.07c0-0.62,0.22-1.15,0.67-1.58s1.05-0.64,1.79-0.64
			c0.75,0,1.35,0.22,1.81,0.65s0.69,0.97,0.69,1.59c0,0.4-0.1,0.75-0.31,1.04s-0.53,0.52-0.95,0.68c0.53,0.17,0.93,0.45,1.2,0.83
			s0.41,0.84,0.41,1.37c0,0.73-0.26,1.35-0.78,1.85s-1.2,0.75-2.05,0.75s-1.53-0.25-2.05-0.75s-0.78-1.13-0.78-1.88
			c0-0.56,0.14-1.03,0.42-1.4S283.65,160.9,284.17,160.77z M283.62,162.94c0,0.3,0.07,0.59,0.21,0.87s0.35,0.5,0.64,0.65
			s0.58,0.23,0.91,0.23c0.5,0,0.92-0.16,1.25-0.49s0.49-0.74,0.49-1.24c0-0.51-0.17-0.93-0.51-1.26s-0.76-0.5-1.27-0.5
			c-0.5,0-0.91,0.16-1.23,0.49S283.62,162.45,283.62,162.94z M283.96,158.98c0,0.41,0.13,0.74,0.39,1s0.6,0.39,1.02,0.39
			c0.41,0,0.74-0.13,1-0.38s0.39-0.57,0.39-0.94c0-0.39-0.13-0.71-0.4-0.98s-0.6-0.4-1-0.4c-0.4,0-0.74,0.13-1,0.39
			S283.96,158.62,283.96,158.98z"/>
		<path d="M294.69,158.94l-1.05,0.08c-0.09-0.41-0.23-0.71-0.4-0.9c-0.29-0.3-0.64-0.45-1.05-0.45c-0.34,0-0.63,0.09-0.88,0.28
			c-0.33,0.24-0.59,0.6-0.79,1.06s-0.29,1.13-0.3,1.99c0.25-0.39,0.56-0.67,0.93-0.86s0.75-0.28,1.15-0.28c0.7,0,1.3,0.26,1.8,0.78
			s0.74,1.19,0.74,2.01c0,0.54-0.12,1.04-0.35,1.5s-0.55,0.82-0.96,1.06s-0.87,0.37-1.38,0.37c-0.88,0-1.6-0.32-2.15-0.97
			s-0.83-1.71-0.83-3.2c0-1.66,0.31-2.87,0.92-3.62c0.54-0.66,1.26-0.98,2.16-0.98c0.68,0,1.23,0.19,1.66,0.57
			S294.61,158.27,294.69,158.94z M290.39,162.64c0,0.36,0.08,0.71,0.23,1.04s0.37,0.58,0.65,0.76s0.57,0.26,0.87,0.26
			c0.45,0,0.83-0.18,1.15-0.54s0.48-0.85,0.48-1.46c0-0.59-0.16-1.06-0.47-1.4s-0.71-0.51-1.2-0.51c-0.48,0-0.88,0.17-1.21,0.51
			S290.39,162.09,290.39,162.64z"/>
		<path d="M296.49,165.42v-1.2h1.2v1.2H296.49z"/>
		<path d="M304.77,164.41v1.01h-5.68c-0.01-0.25,0.03-0.5,0.12-0.73c0.14-0.39,0.38-0.77,0.69-1.14s0.78-0.81,1.38-1.3
			c0.93-0.77,1.56-1.37,1.89-1.82s0.49-0.87,0.49-1.27c0-0.42-0.15-0.77-0.45-1.06s-0.69-0.43-1.17-0.43
			c-0.51,0-0.91,0.15-1.22,0.46c-0.3,0.3-0.46,0.73-0.46,1.27l-1.08-0.11c0.07-0.81,0.35-1.42,0.84-1.85
			c0.48-0.42,1.13-0.64,1.95-0.64c0.82,0,1.48,0.23,1.96,0.69s0.72,1.02,0.72,1.7c0,0.34-0.07,0.68-0.21,1.01s-0.37,0.68-0.7,1.05
			s-0.87,0.87-1.63,1.51c-0.63,0.53-1.04,0.89-1.22,1.08s-0.33,0.38-0.44,0.57H304.77z"/>
		<path d="M309.53,165.42v-6.22h0.94v0.87c0.2-0.3,0.46-0.55,0.78-0.74s0.69-0.28,1.11-0.28c0.46,0,0.84,0.1,1.13,0.29
			s0.5,0.46,0.62,0.8c0.49-0.73,1.13-1.09,1.92-1.09c0.62,0,1.09,0.17,1.42,0.51s0.5,0.87,0.5,1.58v4.27h-1.05v-3.92
			c0-0.42-0.03-0.73-0.1-0.91s-0.19-0.33-0.37-0.45s-0.39-0.17-0.63-0.17c-0.44,0-0.8,0.15-1.09,0.44s-0.43,0.76-0.43,1.4v3.62
			h-1.05v-4.04c0-0.47-0.09-0.82-0.26-1.05s-0.45-0.35-0.84-0.35c-0.3,0-0.57,0.08-0.82,0.23s-0.43,0.38-0.55,0.69
			s-0.17,0.73-0.17,1.3v3.23H309.53z"/>
		<path d="M319.52,165.42v-6.22h0.94v0.87c0.2-0.3,0.46-0.55,0.78-0.74s0.69-0.28,1.11-0.28c0.46,0,0.84,0.1,1.13,0.29
			s0.5,0.46,0.62,0.8c0.49-0.73,1.13-1.09,1.92-1.09c0.62,0,1.09,0.17,1.42,0.51s0.5,0.87,0.5,1.58v4.27h-1.05v-3.92
			c0-0.42-0.03-0.73-0.1-0.91s-0.19-0.33-0.37-0.45s-0.39-0.17-0.63-0.17c-0.44,0-0.8,0.15-1.09,0.44s-0.43,0.76-0.43,1.4v3.62
			h-1.05v-4.04c0-0.47-0.09-0.82-0.26-1.05s-0.45-0.35-0.84-0.35c-0.3,0-0.57,0.08-0.82,0.23s-0.43,0.38-0.55,0.69
			s-0.17,0.73-0.17,1.3v3.23H319.52z"/>
	</g>
	<g>
		<path d="M268.21,387.61v-0.79c-0.39,0.62-0.97,0.93-1.74,0.93c-0.5,0-0.95-0.14-1.37-0.41s-0.74-0.66-0.97-1.15
			s-0.34-1.05-0.34-1.69c0-0.62,0.1-1.18,0.31-1.69s0.52-0.89,0.93-1.16s0.88-0.4,1.39-0.4c0.38,0,0.71,0.08,1,0.24
			s0.53,0.36,0.71,0.62v-3.08h1.05v8.59H268.21z M264.87,384.51c0,0.8,0.17,1.39,0.5,1.79s0.73,0.59,1.19,0.59
			c0.46,0,0.85-0.19,1.17-0.57s0.48-0.95,0.48-1.73c0-0.85-0.16-1.48-0.49-1.88s-0.73-0.6-1.21-0.6c-0.47,0-0.86,0.19-1.17,0.57
			S264.87,383.68,264.87,384.51z"/>
		<path d="M270.85,380.24v-1.21h1.05v1.21H270.85z M270.85,387.61v-6.22h1.05v6.22H270.85z"/>
		<path d="M273.5,387.61v-6.22h0.95v0.94c0.24-0.44,0.47-0.73,0.67-0.87s0.43-0.21,0.68-0.21c0.36,0,0.72,0.11,1.08,0.34l-0.36,0.98
			c-0.26-0.15-0.52-0.23-0.77-0.23c-0.23,0-0.44,0.07-0.62,0.21s-0.31,0.33-0.39,0.58c-0.12,0.38-0.18,0.79-0.18,1.23v3.26H273.5z"
			/>
		<path d="M281.77,385.61l1.09,0.13c-0.17,0.64-0.49,1.13-0.96,1.48s-1.06,0.53-1.78,0.53c-0.91,0-1.63-0.28-2.17-0.84
			s-0.8-1.35-0.8-2.36c0-1.05,0.27-1.86,0.81-2.44s1.24-0.87,2.1-0.87c0.83,0,1.51,0.28,2.04,0.85s0.79,1.36,0.79,2.39
			c0,0.06,0,0.16-0.01,0.28h-4.64c0.04,0.68,0.23,1.21,0.58,1.57s0.78,0.54,1.3,0.54c0.39,0,0.72-0.1,0.99-0.3
			S281.61,386.05,281.77,385.61z M278.3,383.9h3.47c-0.05-0.52-0.18-0.92-0.4-1.18c-0.34-0.41-0.77-0.61-1.31-0.61
			c-0.48,0-0.89,0.16-1.22,0.49S278.34,383.36,278.3,383.9z"/>
		<path d="M288.24,385.33l1.04,0.13c-0.11,0.71-0.4,1.27-0.87,1.68s-1.04,0.61-1.72,0.61c-0.85,0-1.54-0.28-2.05-0.83
			s-0.78-1.35-0.78-2.39c0-0.67,0.11-1.26,0.33-1.76s0.56-0.88,1.02-1.13s0.95-0.38,1.49-0.38c0.68,0,1.23,0.17,1.66,0.51
			s0.71,0.83,0.83,1.46l-1.03,0.16c-0.1-0.42-0.27-0.73-0.52-0.94s-0.55-0.32-0.9-0.32c-0.53,0-0.96,0.19-1.29,0.57
			s-0.5,0.98-0.5,1.81c0,0.84,0.16,1.44,0.48,1.82s0.74,0.57,1.25,0.57c0.41,0,0.76-0.13,1.04-0.38S288.17,385.86,288.24,385.33z"/>
		<path d="M292.48,386.67l0.15,0.93c-0.3,0.06-0.56,0.09-0.8,0.09c-0.38,0-0.68-0.06-0.89-0.18s-0.36-0.28-0.45-0.48
			s-0.13-0.61-0.13-1.25v-3.58h-0.77v-0.82h0.77v-1.54l1.05-0.63v2.17h1.06v0.82h-1.06v3.64c0,0.3,0.02,0.49,0.06,0.58
			s0.1,0.15,0.18,0.21s0.2,0.08,0.36,0.08C292.14,386.71,292.29,386.7,292.48,386.67z"/>
		<path d="M293.49,387.61v-8.59h1.05v8.59H293.49z"/>
		<path d="M296.13,390.01l-0.12-0.99c0.23,0.06,0.43,0.09,0.6,0.09c0.23,0,0.42-0.04,0.56-0.12s0.26-0.19,0.35-0.33
			c0.07-0.11,0.17-0.37,0.32-0.79c0.02-0.06,0.05-0.14,0.09-0.26l-2.36-6.23h1.14l1.29,3.6c0.17,0.46,0.32,0.94,0.45,1.44
			c0.12-0.48,0.27-0.96,0.43-1.42l1.33-3.63h1.05l-2.37,6.33c-0.25,0.68-0.45,1.15-0.59,1.41c-0.19,0.35-0.4,0.6-0.64,0.76
			s-0.53,0.24-0.87,0.24C296.61,390.14,296.38,390.09,296.13,390.01z"/>
		<path d="M309.59,387.61v-0.91c-0.48,0.7-1.14,1.05-1.97,1.05c-0.37,0-0.71-0.07-1.03-0.21s-0.55-0.32-0.71-0.53
			s-0.26-0.47-0.33-0.78c-0.04-0.21-0.06-0.54-0.06-0.98v-3.86h1.05v3.45c0,0.55,0.02,0.92,0.06,1.11c0.07,0.28,0.21,0.5,0.42,0.65
			s0.48,0.24,0.8,0.24s0.61-0.08,0.89-0.24s0.47-0.38,0.59-0.66s0.17-0.68,0.17-1.22v-3.33h1.05v6.22H309.59z"/>
		<path d="M312.19,387.61v-6.22h0.95v0.88c0.46-0.68,1.12-1.03,1.98-1.03c0.38,0,0.72,0.07,1.03,0.2s0.55,0.31,0.71,0.53
			s0.27,0.48,0.33,0.78c0.04,0.2,0.06,0.54,0.06,1.03v3.83h-1.05v-3.79c0-0.43-0.04-0.75-0.12-0.96s-0.23-0.38-0.44-0.51
			s-0.45-0.19-0.74-0.19c-0.45,0-0.84,0.14-1.16,0.43s-0.49,0.83-0.49,1.62v3.4H312.19z"/>
		<path d="M322.9,387.61v-0.79c-0.39,0.62-0.97,0.93-1.74,0.93c-0.5,0-0.95-0.14-1.37-0.41s-0.74-0.66-0.97-1.15
			s-0.34-1.05-0.34-1.69c0-0.62,0.1-1.18,0.31-1.69s0.52-0.89,0.93-1.16s0.88-0.4,1.39-0.4c0.38,0,0.71,0.08,1,0.24
			s0.53,0.36,0.71,0.62v-3.08h1.05v8.59H322.9z M319.57,384.51c0,0.8,0.17,1.39,0.5,1.79s0.73,0.59,1.19,0.59
			c0.46,0,0.85-0.19,1.17-0.57s0.48-0.95,0.48-1.73c0-0.85-0.16-1.48-0.49-1.88s-0.73-0.6-1.21-0.6c-0.47,0-0.86,0.19-1.17,0.57
			S319.57,383.68,319.57,384.51z"/>
		<path d="M329.8,385.61l1.09,0.13c-0.17,0.64-0.49,1.13-0.96,1.48s-1.06,0.53-1.78,0.53c-0.91,0-1.63-0.28-2.17-0.84
			s-0.8-1.35-0.8-2.36c0-1.05,0.27-1.86,0.81-2.44s1.24-0.87,2.1-0.87c0.83,0,1.51,0.28,2.04,0.85s0.79,1.36,0.79,2.39
			c0,0.06,0,0.16-0.01,0.28h-4.64c0.04,0.68,0.23,1.21,0.58,1.57s0.78,0.54,1.3,0.54c0.39,0,0.72-0.1,0.99-0.3
			S329.64,386.05,329.8,385.61z M326.33,383.9h3.47c-0.05-0.52-0.18-0.92-0.4-1.18c-0.34-0.41-0.77-0.61-1.31-0.61
			c-0.48,0-0.89,0.16-1.22,0.49S326.37,383.36,326.33,383.9z"/>
		<path d="M332.2,387.61v-6.22h0.95v0.94c0.24-0.44,0.47-0.73,0.67-0.87s0.43-0.21,0.68-0.21c0.36,0,0.72,0.11,1.08,0.34l-0.36,0.98
			c-0.26-0.15-0.52-0.23-0.77-0.23c-0.23,0-0.44,0.07-0.62,0.21s-0.31,0.33-0.39,0.58c-0.12,0.38-0.18,0.79-0.18,1.23v3.26H332.2z"
			/>
		<path d="M339.54,390v-8.61h0.96v0.81c0.23-0.32,0.48-0.55,0.77-0.71s0.63-0.24,1.04-0.24c0.53,0,1,0.14,1.41,0.41
			s0.71,0.66,0.92,1.16s0.31,1.04,0.31,1.64c0,0.64-0.11,1.21-0.34,1.72s-0.56,0.9-1,1.17s-0.89,0.41-1.37,0.41
			c-0.35,0-0.67-0.07-0.95-0.22s-0.51-0.34-0.69-0.56V390H339.54z M340.5,384.54c0,0.8,0.16,1.39,0.49,1.78s0.72,0.57,1.18,0.57
			c0.47,0,0.87-0.2,1.2-0.59s0.5-1.01,0.5-1.84c0-0.79-0.16-1.39-0.49-1.78s-0.72-0.59-1.17-0.59c-0.45,0-0.85,0.21-1.19,0.63
			S340.5,383.74,340.5,384.54z"/>
		<path d="M350.27,385.33l1.04,0.13c-0.11,0.71-0.4,1.27-0.87,1.68s-1.04,0.61-1.72,0.61c-0.85,0-1.54-0.28-2.05-0.83
			s-0.78-1.35-0.78-2.39c0-0.67,0.11-1.26,0.33-1.76s0.56-0.88,1.02-1.13s0.95-0.38,1.49-0.38c0.68,0,1.23,0.17,1.66,0.51
			c0.43,0.34,0.71,0.83,0.83,1.46l-1.03,0.16c-0.1-0.42-0.27-0.73-0.52-0.94s-0.55-0.32-0.9-0.32c-0.53,0-0.96,0.19-1.29,0.57
			s-0.5,0.98-0.5,1.81c0,0.84,0.16,1.44,0.48,1.82s0.74,0.57,1.25,0.57c0.41,0,0.76-0.13,1.04-0.38S350.2,385.86,350.27,385.33z"/>
		<path d="M353.19,387.61h-0.98v-8.59h1.05v3.06c0.45-0.56,1.01-0.84,1.71-0.84c0.38,0,0.75,0.08,1.09,0.23s0.62,0.37,0.84,0.65
			s0.39,0.62,0.52,1.01s0.19,0.82,0.19,1.27c0,1.07-0.26,1.89-0.79,2.47s-1.16,0.87-1.9,0.87c-0.73,0-1.31-0.31-1.73-0.92V387.61z
			 M353.18,384.45c0,0.75,0.1,1.29,0.3,1.62c0.33,0.54,0.78,0.81,1.35,0.81c0.46,0,0.86-0.2,1.2-0.6s0.5-1,0.5-1.79
			c0-0.81-0.16-1.41-0.48-1.8s-0.71-0.58-1.17-0.58c-0.46,0-0.86,0.2-1.2,0.6S353.18,383.7,353.18,384.45z"/>
		<path d="M265.81,408.61l-2.28-8.59h1.17l1.31,5.63c0.14,0.59,0.26,1.18,0.36,1.76c0.22-0.92,0.35-1.45,0.39-1.59l1.63-5.8h1.37
			l1.23,4.35c0.31,1.08,0.53,2.09,0.67,3.04c0.11-0.54,0.25-1.17,0.43-1.87l1.35-5.52h1.14l-2.36,8.59h-1.1l-1.81-6.54
			c-0.15-0.55-0.24-0.88-0.27-1.01c-0.09,0.39-0.17,0.73-0.25,1.01l-1.82,6.54H265.81z"/>
		<path d="M279.12,403.59v-1.2h1.2v1.2H279.12z M279.12,408.61v-1.2h1.2v1.2H279.12z"/>
		<path d="M290.75,407.6v1.01h-5.68c-0.01-0.25,0.03-0.5,0.12-0.73c0.14-0.39,0.38-0.77,0.69-1.14s0.78-0.81,1.38-1.3
			c0.93-0.77,1.56-1.37,1.89-1.82s0.49-0.87,0.49-1.27c0-0.42-0.15-0.77-0.45-1.06s-0.69-0.43-1.17-0.43
			c-0.51,0-0.91,0.15-1.22,0.46s-0.46,0.73-0.46,1.27l-1.08-0.11c0.07-0.81,0.35-1.42,0.84-1.85s1.13-0.64,1.95-0.64
			c0.82,0,1.48,0.23,1.96,0.69s0.72,1.02,0.72,1.7c0,0.34-0.07,0.68-0.21,1.01s-0.37,0.68-0.7,1.05s-0.87,0.87-1.63,1.51
			c-0.63,0.53-1.04,0.89-1.22,1.08s-0.33,0.38-0.45,0.57H290.75z"/>
		<path d="M291.88,404.38c0-1.02,0.1-1.83,0.31-2.45s0.52-1.1,0.93-1.43s0.93-0.5,1.56-0.5c0.46,0,0.87,0.09,1.21,0.28
			s0.63,0.45,0.86,0.8s0.4,0.78,0.53,1.28s0.19,1.18,0.19,2.03c0,1.01-0.1,1.82-0.31,2.44s-0.52,1.1-0.93,1.44s-0.93,0.51-1.56,0.51
			c-0.83,0-1.48-0.3-1.95-0.89C292.16,407.15,291.88,405.99,291.88,404.38z M292.96,404.38c0,1.41,0.17,2.35,0.5,2.82
			s0.74,0.7,1.22,0.7s0.89-0.23,1.22-0.7s0.5-1.41,0.5-2.81c0-1.41-0.17-2.35-0.5-2.82s-0.74-0.7-1.23-0.7
			c-0.48,0-0.87,0.21-1.16,0.62C293.15,402,292.96,402.97,292.96,404.38z"/>
		<path d="M298.55,406.36l1.11-0.09c0.08,0.54,0.27,0.94,0.57,1.22s0.66,0.41,1.08,0.41c0.51,0,0.94-0.19,1.29-0.57
			s0.53-0.89,0.53-1.52c0-0.6-0.17-1.08-0.51-1.42s-0.78-0.52-1.33-0.52c-0.34,0-0.65,0.08-0.92,0.23s-0.49,0.35-0.64,0.6
			l-0.99-0.13l0.83-4.41h4.27v1.01h-3.43l-0.46,2.31c0.52-0.36,1.06-0.54,1.62-0.54c0.75,0,1.38,0.26,1.9,0.78s0.77,1.19,0.77,2
			c0,0.78-0.23,1.45-0.68,2.02c-0.55,0.7-1.3,1.04-2.26,1.04c-0.78,0-1.42-0.22-1.91-0.66S298.62,407.08,298.55,406.36z"/>
		<path d="M305.82,408.61v-1.2h1.2v1.2H305.82z"/>
		<path d="M308.56,406.36l1.11-0.09c0.08,0.54,0.27,0.94,0.57,1.22s0.66,0.41,1.08,0.41c0.51,0,0.94-0.19,1.29-0.57
			s0.53-0.89,0.53-1.52c0-0.6-0.17-1.08-0.51-1.42s-0.78-0.52-1.33-0.52c-0.34,0-0.65,0.08-0.92,0.23s-0.49,0.35-0.64,0.6
			l-0.99-0.13l0.83-4.41h4.27v1.01h-3.43l-0.46,2.31c0.52-0.36,1.06-0.54,1.62-0.54c0.75,0,1.38,0.26,1.9,0.78s0.77,1.19,0.77,2
			c0,0.78-0.23,1.45-0.68,2.02c-0.55,0.7-1.3,1.04-2.26,1.04c-0.78,0-1.42-0.22-1.91-0.66S308.63,407.08,308.56,406.36z"/>
		<path d="M318.86,408.61v-6.22h0.94v0.87c0.2-0.3,0.46-0.55,0.78-0.74s0.69-0.28,1.11-0.28c0.46,0,0.84,0.1,1.13,0.29
			s0.5,0.46,0.62,0.8c0.49-0.73,1.13-1.09,1.92-1.09c0.62,0,1.09,0.17,1.42,0.51s0.5,0.87,0.5,1.58v4.27h-1.05v-3.92
			c0-0.42-0.03-0.73-0.1-0.91s-0.19-0.33-0.37-0.45s-0.39-0.17-0.63-0.17c-0.44,0-0.8,0.15-1.09,0.44s-0.43,0.76-0.43,1.4v3.62
			h-1.05v-4.04c0-0.47-0.09-0.82-0.26-1.05s-0.45-0.35-0.84-0.35c-0.3,0-0.57,0.08-0.82,0.23s-0.43,0.38-0.55,0.69
			s-0.17,0.73-0.17,1.3v3.23H318.86z"/>
		<path d="M328.86,408.61v-6.22h0.94v0.87c0.2-0.3,0.46-0.55,0.78-0.74s0.69-0.28,1.11-0.28c0.46,0,0.84,0.1,1.13,0.29
			s0.5,0.46,0.62,0.8c0.49-0.73,1.13-1.09,1.92-1.09c0.62,0,1.09,0.17,1.42,0.51s0.5,0.87,0.5,1.58v4.27h-1.05v-3.92
			c0-0.42-0.03-0.73-0.1-0.91s-0.19-0.33-0.37-0.45s-0.39-0.17-0.63-0.17c-0.44,0-0.8,0.15-1.09,0.44s-0.43,0.76-0.43,1.4v3.62
			h-1.05v-4.04c0-0.47-0.09-0.82-0.26-1.05s-0.45-0.35-0.84-0.35c-0.3,0-0.57,0.08-0.82,0.23s-0.43,0.38-0.55,0.69
			s-0.17,0.73-0.17,1.3v3.23H328.86z"/>
		<path d="M264.34,429.61v-8.59h1.14v3.53h4.46v-3.53h1.14v8.59h-1.14v-4.05h-4.46v4.05H264.34z"/>
		<path d="M276.46,424.59v-1.2h1.2v1.2H276.46z M276.46,429.61v-1.2h1.2v1.2H276.46z"/>
		<path d="M284.17,424.95c-0.44-0.16-0.76-0.39-0.97-0.69s-0.32-0.65-0.32-1.07c0-0.62,0.22-1.15,0.67-1.58s1.05-0.64,1.79-0.64
			c0.75,0,1.35,0.22,1.81,0.65s0.69,0.97,0.69,1.59c0,0.4-0.1,0.75-0.31,1.04s-0.53,0.52-0.95,0.68c0.53,0.17,0.93,0.45,1.2,0.83
			s0.41,0.84,0.41,1.37c0,0.73-0.26,1.35-0.78,1.85s-1.2,0.75-2.05,0.75s-1.53-0.25-2.05-0.75s-0.78-1.13-0.78-1.88
			c0-0.56,0.14-1.03,0.42-1.4S283.65,425.09,284.17,424.95z M283.62,427.13c0,0.3,0.07,0.59,0.21,0.87s0.35,0.5,0.64,0.65
			s0.58,0.23,0.91,0.23c0.5,0,0.92-0.16,1.25-0.49s0.49-0.74,0.49-1.24c0-0.51-0.17-0.93-0.51-1.26s-0.76-0.5-1.27-0.5
			c-0.5,0-0.91,0.16-1.23,0.49S283.62,426.64,283.62,427.13z M283.96,423.17c0,0.41,0.13,0.74,0.39,1s0.6,0.39,1.02,0.39
			c0.41,0,0.74-0.13,1-0.38s0.39-0.57,0.39-0.94c0-0.39-0.13-0.71-0.4-0.98s-0.6-0.4-1-0.4c-0.4,0-0.74,0.13-1,0.39
			S283.96,422.81,283.96,423.17z"/>
		<path d="M290.84,424.95c-0.44-0.16-0.76-0.39-0.97-0.69s-0.32-0.65-0.32-1.07c0-0.62,0.22-1.15,0.67-1.58s1.05-0.64,1.79-0.64
			c0.75,0,1.35,0.22,1.81,0.65s0.69,0.97,0.69,1.59c0,0.4-0.1,0.75-0.31,1.04s-0.53,0.52-0.95,0.68c0.53,0.17,0.93,0.45,1.2,0.83
			s0.41,0.84,0.41,1.37c0,0.73-0.26,1.35-0.78,1.85s-1.2,0.75-2.05,0.75s-1.53-0.25-2.05-0.75s-0.78-1.13-0.78-1.88
			c0-0.56,0.14-1.03,0.42-1.4S290.32,425.09,290.84,424.95z M290.29,427.13c0,0.3,0.07,0.59,0.21,0.87s0.35,0.5,0.64,0.65
			s0.58,0.23,0.91,0.23c0.5,0,0.92-0.16,1.25-0.49s0.49-0.74,0.49-1.24c0-0.51-0.17-0.93-0.51-1.26s-0.76-0.5-1.27-0.5
			c-0.5,0-0.91,0.16-1.23,0.49S290.29,426.64,290.29,427.13z M290.63,423.17c0,0.41,0.13,0.74,0.39,1s0.6,0.39,1.02,0.39
			c0.41,0,0.74-0.13,1-0.38s0.39-0.57,0.39-0.94c0-0.39-0.13-0.71-0.4-0.98s-0.6-0.4-1-0.4c-0.4,0-0.74,0.13-1,0.39
			S290.63,422.81,290.63,423.17z"/>
		<path d="M296.49,429.61v-1.2h1.2v1.2H296.49z"/>
		<path d="M304.77,428.6v1.01h-5.68c-0.01-0.25,0.03-0.5,0.12-0.73c0.14-0.39,0.38-0.77,0.69-1.14s0.78-0.81,1.38-1.3
			c0.93-0.77,1.56-1.37,1.89-1.82s0.49-0.87,0.49-1.27c0-0.42-0.15-0.77-0.45-1.06s-0.69-0.43-1.17-0.43
			c-0.51,0-0.91,0.15-1.22,0.46s-0.46,0.73-0.46,1.27l-1.08-0.11c0.07-0.81,0.35-1.42,0.84-1.85s1.13-0.64,1.95-0.64
			c0.82,0,1.48,0.23,1.96,0.69s0.72,1.02,0.72,1.7c0,0.34-0.07,0.68-0.21,1.01s-0.37,0.68-0.7,1.05s-0.87,0.87-1.63,1.51
			c-0.63,0.53-1.04,0.89-1.22,1.08s-0.33,0.38-0.45,0.57H304.77z"/>
		<path d="M309.53,429.61v-6.22h0.94v0.87c0.2-0.3,0.46-0.55,0.78-0.74s0.69-0.28,1.11-0.28c0.46,0,0.84,0.1,1.13,0.29
			s0.5,0.46,0.62,0.8c0.49-0.73,1.13-1.09,1.92-1.09c0.62,0,1.09,0.17,1.42,0.51s0.5,0.87,0.5,1.58v4.27h-1.05v-3.92
			c0-0.42-0.03-0.73-0.1-0.91s-0.19-0.33-0.37-0.45s-0.39-0.17-0.63-0.17c-0.44,0-0.8,0.15-1.09,0.44s-0.43,0.76-0.43,1.4v3.62
			h-1.05v-4.04c0-0.47-0.09-0.82-0.26-1.05s-0.45-0.35-0.84-0.35c-0.3,0-0.57,0.08-0.82,0.23s-0.43,0.38-0.55,0.69
			s-0.17,0.73-0.17,1.3v3.23H309.53z"/>
		<path d="M319.52,429.61v-6.22h0.94v0.87c0.2-0.3,0.46-0.55,0.78-0.74s0.69-0.28,1.11-0.28c0.46,0,0.84,0.1,1.13,0.29
			s0.5,0.46,0.62,0.8c0.49-0.73,1.13-1.09,1.92-1.09c0.62,0,1.09,0.17,1.42,0.51s0.5,0.87,0.5,1.58v4.27h-1.05v-3.92
			c0-0.42-0.03-0.73-0.1-0.91s-0.19-0.33-0.37-0.45s-0.39-0.17-0.63-0.17c-0.44,0-0.8,0.15-1.09,0.44s-0.43,0.76-0.43,1.4v3.62
			h-1.05v-4.04c0-0.47-0.09-0.82-0.26-1.05s-0.45-0.35-0.84-0.35c-0.3,0-0.57,0.08-0.82,0.23s-0.43,0.38-0.55,0.69
			s-0.17,0.73-0.17,1.3v3.23H319.52z"/>
	</g>
</g>
<g id="cut">
	<path d="M582.52,269.86H17.01c-4.7,0-8.5,3.81-8.5,8.5v80.99c0,1.67,0.74,3.26,2.01,4.33l6.49,5.48v142.2c0,4.7,3.81,8.5,8.5,8.5
		h557.01c4.7,0,8.5-3.81,8.5-8.5V278.36C591.02,273.67,587.22,269.86,582.52,269.86z M580.6,274.57c3.13,0,5.67,2.54,5.67,5.67
		c0,3.13-2.54,5.67-5.67,5.67c-3.13,0-5.67-2.54-5.67-5.67C574.94,277.1,577.47,274.57,580.6,274.57z M412.02,274.11
		c3.13,0,5.67,2.54,5.67,5.67s-2.54,5.67-5.67,5.67c-3.13,0-5.67-2.54-5.67-5.67S408.88,274.11,412.02,274.11z M196.02,274.11
		c3.13,0,5.67,2.54,5.67,5.67s-2.54,5.67-5.67,5.67c-3.13,0-5.67-2.54-5.67-5.67S192.88,274.11,196.02,274.11z M18.88,285.9
		c-3.13,0-5.67-2.54-5.67-5.67c0-3.13,2.54-5.67,5.67-5.67s5.67,2.54,5.67,5.67C24.55,283.37,22.01,285.9,18.88,285.9z M26.93,389.2
		c3.13,0,5.67,2.54,5.67,5.67c0,3.13-2.54,5.67-5.67,5.67c-3.13,0-5.67-2.54-5.67-5.67C21.26,391.74,23.8,389.2,26.93,389.2z
		 M27.37,515.17c-3.13,0-5.67-2.54-5.67-5.67c0-3.13,2.54-5.67,5.67-5.67c3.13,0,5.67,2.54,5.67,5.67
		C33.04,512.63,30.5,515.17,27.37,515.17z M196.02,515.83c-3.13,0-5.67-2.54-5.67-5.67c0-3.13,2.54-5.67,5.67-5.67
		c3.13,0,5.67,2.54,5.67,5.67C201.68,513.29,199.15,515.83,196.02,515.83z M412.02,515.64c-3.13,0-5.67-2.54-5.67-5.67
		c0-3.13,2.54-5.67,5.67-5.67c3.13,0,5.67,2.54,5.67,5.67C417.69,513.11,415.15,515.64,412.02,515.64z M566.93,504.28H420.13
		c-1.79-2.56-4.76-4.23-8.12-4.23s-6.32,1.67-8.12,4.23h-199.9c-1.81-2.45-4.7-4.04-7.98-4.04c-3.28,0-6.17,1.59-7.98,4.04H41.1
		c-4.7,0-8.5-3.81-8.5-8.5V403c2.57-1.79,4.25-4.77,4.25-8.14s-1.68-6.34-4.25-8.14v-95.61c0-3.13,2.54-5.67,5.67-5.67h149.61
		c1.79,2.57,4.77,4.25,8.14,4.25s6.34-1.68,8.14-4.25h199.73c1.79,2.57,4.77,4.25,8.14,4.25s6.34-1.68,8.14-4.25h146.78
		c4.7,0,8.5,3.81,8.5,8.5v92.78c-2.57,1.79-4.25,4.77-4.25,8.14s1.68,6.34,4.25,8.14v92.78
		C575.43,500.48,571.63,504.28,566.93,504.28z M580.6,515.17c-3.13,0-5.67-2.54-5.67-5.67c0-3.13,2.54-5.67,5.67-5.67
		c3.13,0,5.67,2.54,5.67,5.67C586.27,512.63,583.74,515.17,580.6,515.17z M581.1,400.54c-3.13,0-5.67-2.54-5.67-5.67
		c0-3.13,2.54-5.67,5.67-5.67c3.13,0,5.67,2.54,5.67,5.67C586.77,398,584.23,400.54,581.1,400.54z"/>
	<path d="M579.69,8.5H19.84c-4.7,0-8.5,3.81-8.5,8.5v78.15c0,1.67,0.74,3.26,2.01,4.33l6.49,5.48v139.37c0,4.7,3.81,8.5,8.5,8.5
		h551.34c4.7,0,8.5-3.81,8.5-8.5V17.01C588.19,12.31,584.38,8.5,579.69,8.5z M18.88,18.88c-1.57,0-2.83-1.27-2.83-2.83
		c0-1.57,1.27-2.83,2.83-2.83c1.57,0,2.83,1.27,2.83,2.83C21.72,17.61,20.45,18.88,18.88,18.88z M580.6,13.21
		c1.57,0,2.83,1.27,2.83,2.83c0,1.57-1.27,2.83-2.83,2.83c-1.57,0-2.83-1.27-2.83-2.83C577.77,14.48,579.04,13.21,580.6,13.21z
		 M412.02,12.76c1.57,0,2.83,1.27,2.83,2.83s-1.27,2.83-2.83,2.83c-1.57,0-2.83-1.27-2.83-2.83S410.45,12.76,412.02,12.76z
		 M196.02,12.76c1.57,0,2.83,1.27,2.83,2.83s-1.27,2.83-2.83,2.83c-1.57,0-2.83-1.27-2.83-2.83S194.45,12.76,196.02,12.76z
		 M26.93,127.84c1.57,0,2.83,1.27,2.83,2.83c0,1.57-1.27,2.83-2.83,2.83c-1.57,0-2.83-1.27-2.83-2.83
		C24.1,129.11,25.36,127.84,26.93,127.84z M27.37,248.14c-1.57,0-2.83-1.27-2.83-2.83c0-1.57,1.27-2.83,2.83-2.83
		c1.57,0,2.83,1.27,2.83,2.83C30.21,246.87,28.94,248.14,27.37,248.14z M196.02,248.81c-1.57,0-2.83-1.27-2.83-2.83
		c0-1.57,1.27-2.83,2.83-2.83c1.57,0,2.83,1.27,2.83,2.83C198.85,247.54,197.58,248.81,196.02,248.81z M412.02,248.62
		c-1.57,0-2.83-1.27-2.83-2.83c0-1.57,1.27-2.83,2.83-2.83c1.57,0,2.83,1.27,2.83,2.83C414.85,247.35,413.58,248.62,412.02,248.62z
		 M575.43,238.68c0,0.78-0.63,1.42-1.42,1.42h-53.82c-0.78,0-1.42-0.63-1.42-1.42v-49.61c0-1.57-1.27-2.83-2.83-2.83h-39.12
		c-1.57,0-2.83,1.27-2.83,2.83v49.61c0,0.78-0.63,1.42-1.42,1.42H135.44c-0.78,0-1.42-0.63-1.42-1.42v-49.61
		c0-1.57-1.27-2.83-2.83-2.83H92.07c-1.57,0-2.83,1.27-2.83,2.83v49.61c0,0.78-0.63,1.42-1.42,1.42H34.02
		c-0.78,0-1.42-0.63-1.42-1.42v-216c0-0.78,0.63-1.42,1.42-1.42h540c0.78,0,1.42,0.63,1.42,1.42V238.68z M580.6,248.14
		c-1.57,0-2.83-1.27-2.83-2.83c0-1.57,1.27-2.83,2.83-2.83c1.57,0,2.83,1.27,2.83,2.83C583.44,246.87,582.17,248.14,580.6,248.14z
		 M581.1,133.51c-1.57,0-2.83-1.27-2.83-2.83c0-1.57,1.27-2.83,2.83-2.83c1.57,0,2.83,1.27,2.83,2.83
		C583.94,132.24,582.67,133.51,581.1,133.51z"/>
</g>
<g id="graving">
	<g>
		<path class="st0" d="M225.72,487.2v-11.45h4.87c1.22,0,2.11,0.1,2.67,0.31c0.55,0.21,1,0.57,1.33,1.1c0.33,0.53,0.5,1.13,0.5,1.8
			c0,0.86-0.25,1.57-0.76,2.13c-0.51,0.56-1.26,0.91-2.27,1.06c0.5,0.29,0.91,0.61,1.24,0.96c0.33,0.35,0.76,0.97,1.32,1.86
			l1.4,2.23h-2.77l-1.67-2.49c-0.59-0.89-1-1.45-1.22-1.68c-0.22-0.23-0.45-0.39-0.7-0.48c-0.25-0.09-0.63-0.13-1.16-0.13h-0.47
			v4.78H225.72z M228.03,480.59h1.71c1.11,0,1.8-0.05,2.08-0.14c0.28-0.09,0.49-0.25,0.65-0.48c0.16-0.23,0.23-0.52,0.23-0.86
			c0-0.39-0.1-0.7-0.31-0.93c-0.21-0.24-0.5-0.39-0.87-0.45c-0.19-0.03-0.75-0.04-1.69-0.04h-1.8V480.59z"/>
		<path class="st0" d="M242.05,484.56l2.19,0.37c-0.28,0.8-0.73,1.41-1.33,1.83c-0.61,0.42-1.37,0.63-2.28,0.63
			c-1.44,0-2.51-0.47-3.2-1.41c-0.55-0.75-0.82-1.71-0.82-2.86c0-1.38,0.36-2.45,1.08-3.23c0.72-0.78,1.63-1.17,2.73-1.17
			c1.23,0,2.21,0.41,2.92,1.22c0.71,0.82,1.05,2.06,1.02,3.75h-5.5c0.02,0.65,0.19,1.16,0.53,1.52c0.34,0.36,0.76,0.54,1.27,0.54
			c0.34,0,0.63-0.09,0.87-0.28S241.93,484.98,242.05,484.56z M242.18,482.34c-0.02-0.64-0.18-1.12-0.49-1.45
			c-0.31-0.33-0.69-0.5-1.14-0.5c-0.48,0-0.88,0.17-1.19,0.52c-0.31,0.35-0.47,0.82-0.46,1.42H242.18z"/>
		<path class="st0" d="M253.76,487.2h-2.04v-1.22c-0.34,0.47-0.74,0.83-1.2,1.06s-0.93,0.35-1.39,0.35c-0.95,0-1.77-0.38-2.45-1.15
			c-0.68-0.77-1.02-1.84-1.02-3.21c0-1.41,0.33-2.48,0.99-3.21c0.66-0.73,1.5-1.1,2.51-1.1c0.93,0,1.73,0.39,2.41,1.16v-4.12h2.2
			V487.2z M247.9,482.87c0,0.89,0.12,1.53,0.37,1.92c0.35,0.57,0.85,0.86,1.48,0.86c0.5,0,0.93-0.21,1.29-0.64
			c0.35-0.43,0.53-1.07,0.53-1.93c0-0.95-0.17-1.64-0.52-2.06c-0.34-0.42-0.78-0.63-1.32-0.63c-0.52,0-0.96,0.21-1.31,0.62
			S247.9,482.05,247.9,482.87z"/>
		<path class="st0" d="M262.01,481.43l-1.99-0.36c0.22-0.8,0.61-1.4,1.16-1.78c0.55-0.39,1.36-0.58,2.44-0.58
			c0.98,0,1.71,0.12,2.19,0.35c0.48,0.23,0.82,0.53,1.01,0.88c0.2,0.36,0.29,1.01,0.29,1.96l-0.02,2.56c0,0.73,0.04,1.27,0.11,1.61
			c0.07,0.35,0.2,0.72,0.39,1.11h-2.17c-0.06-0.15-0.13-0.36-0.21-0.65c-0.04-0.13-0.06-0.22-0.08-0.26
			c-0.38,0.36-0.78,0.64-1.2,0.82c-0.43,0.18-0.88,0.27-1.37,0.27c-0.85,0-1.53-0.23-2.02-0.7c-0.49-0.46-0.74-1.05-0.74-1.76
			c0-0.47,0.11-0.89,0.34-1.25c0.22-0.37,0.54-0.65,0.94-0.84c0.4-0.2,0.99-0.37,1.75-0.51c1.03-0.19,1.74-0.37,2.13-0.54v-0.22
			c0-0.42-0.1-0.72-0.31-0.9c-0.21-0.18-0.6-0.27-1.18-0.27c-0.39,0-0.7,0.08-0.91,0.23C262.32,480.78,262.14,481.05,262.01,481.43z
			 M264.94,483.21c-0.28,0.09-0.73,0.21-1.34,0.34c-0.61,0.13-1.01,0.26-1.2,0.38c-0.29,0.2-0.43,0.46-0.43,0.77
			c0,0.31,0.11,0.57,0.34,0.8c0.23,0.22,0.52,0.34,0.88,0.34c0.4,0,0.77-0.13,1.13-0.39c0.27-0.2,0.44-0.44,0.52-0.73
			c0.06-0.19,0.09-0.54,0.09-1.07V483.21z"/>
		<path class="st0" d="M271.37,487.2h-2.2v-8.3h2.04v1.18c0.35-0.56,0.66-0.92,0.94-1.1c0.28-0.18,0.59-0.27,0.95-0.27
			c0.5,0,0.98,0.14,1.45,0.41l-0.68,1.91c-0.37-0.24-0.71-0.36-1.03-0.36c-0.31,0-0.57,0.08-0.78,0.25
			c-0.21,0.17-0.38,0.48-0.5,0.92c-0.12,0.44-0.18,1.37-0.18,2.78V487.2z"/>
		<path class="st0" d="M280.3,484.56l2.19,0.37c-0.28,0.8-0.73,1.41-1.33,1.83c-0.61,0.42-1.37,0.63-2.28,0.63
			c-1.44,0-2.51-0.47-3.2-1.41c-0.55-0.75-0.82-1.71-0.82-2.86c0-1.38,0.36-2.45,1.08-3.23c0.72-0.78,1.63-1.17,2.73-1.17
			c1.23,0,2.21,0.41,2.92,1.22c0.71,0.82,1.05,2.06,1.02,3.75h-5.5c0.02,0.65,0.19,1.16,0.53,1.52c0.34,0.36,0.76,0.54,1.27,0.54
			c0.34,0,0.63-0.09,0.87-0.28S280.17,484.98,280.3,484.56z M280.42,482.34c-0.02-0.64-0.18-1.12-0.49-1.45
			c-0.31-0.33-0.69-0.5-1.14-0.5c-0.48,0-0.88,0.17-1.19,0.52c-0.31,0.35-0.47,0.82-0.46,1.42H280.42z"/>
		<path class="st0" d="M286.03,481.43l-1.99-0.36c0.22-0.8,0.61-1.4,1.16-1.78c0.55-0.39,1.36-0.58,2.44-0.58
			c0.98,0,1.71,0.12,2.19,0.35c0.48,0.23,0.82,0.53,1.01,0.88c0.2,0.36,0.29,1.01,0.29,1.96l-0.02,2.56c0,0.73,0.04,1.27,0.11,1.61
			c0.07,0.35,0.2,0.72,0.39,1.11h-2.17c-0.06-0.15-0.13-0.36-0.21-0.65c-0.04-0.13-0.06-0.22-0.08-0.26
			c-0.38,0.36-0.78,0.64-1.2,0.82c-0.43,0.18-0.88,0.27-1.37,0.27c-0.85,0-1.53-0.23-2.02-0.7c-0.49-0.46-0.74-1.05-0.74-1.76
			c0-0.47,0.11-0.89,0.34-1.25c0.22-0.37,0.54-0.65,0.94-0.84c0.4-0.2,0.99-0.37,1.75-0.51c1.03-0.19,1.74-0.37,2.13-0.54v-0.22
			c0-0.42-0.1-0.72-0.31-0.9c-0.21-0.18-0.6-0.27-1.18-0.27c-0.39,0-0.7,0.08-0.91,0.23C286.34,480.78,286.16,481.05,286.03,481.43z
			 M288.97,483.21c-0.28,0.09-0.73,0.21-1.34,0.34c-0.61,0.13-1.01,0.26-1.2,0.38c-0.29,0.2-0.43,0.46-0.43,0.77
			c0,0.31,0.11,0.57,0.34,0.8c0.23,0.22,0.52,0.34,0.88,0.34c0.4,0,0.77-0.13,1.13-0.39c0.27-0.2,0.44-0.44,0.52-0.73
			c0.06-0.19,0.09-0.54,0.09-1.07V483.21z"/>
		<path class="st0" d="M297.73,477.78v-2.03h2.2v2.03H297.73z M297.73,487.2v-8.3h2.2v8.3H297.73z"/>
		<path class="st0" d="M301.4,484.83l2.2-0.34c0.09,0.43,0.28,0.75,0.57,0.97c0.29,0.22,0.69,0.33,1.2,0.33
			c0.57,0,0.99-0.1,1.28-0.31c0.19-0.15,0.29-0.34,0.29-0.59c0-0.17-0.05-0.3-0.16-0.41c-0.11-0.1-0.35-0.2-0.73-0.29
			c-1.77-0.39-2.89-0.75-3.37-1.07c-0.66-0.45-0.98-1.07-0.98-1.87c0-0.72,0.28-1.32,0.85-1.81c0.57-0.49,1.45-0.73,2.64-0.73
			c1.14,0,1.98,0.19,2.53,0.55c0.55,0.37,0.93,0.92,1.14,1.64l-2.07,0.38c-0.09-0.32-0.26-0.57-0.5-0.74
			c-0.25-0.17-0.6-0.26-1.06-0.26c-0.58,0-0.99,0.08-1.24,0.24c-0.17,0.11-0.25,0.26-0.25,0.45c0,0.16,0.07,0.29,0.22,0.4
			c0.2,0.15,0.88,0.35,2.05,0.62c1.17,0.27,1.99,0.59,2.45,0.98c0.46,0.39,0.69,0.94,0.69,1.63c0,0.76-0.32,1.41-0.95,1.96
			c-0.64,0.55-1.58,0.82-2.82,0.82c-1.13,0-2.02-0.23-2.68-0.69C302.04,486.24,301.61,485.62,301.4,484.83z"/>
		<path class="st0" d="M320.87,482.99v-1.93h4.98v4.56c-0.48,0.47-1.19,0.88-2.11,1.24c-0.92,0.36-1.85,0.54-2.79,0.54
			c-1.2,0-2.24-0.25-3.13-0.75c-0.89-0.5-1.56-1.22-2.01-2.16c-0.45-0.93-0.67-1.95-0.67-3.05c0-1.19,0.25-2.25,0.75-3.18
			c0.5-0.93,1.23-1.64,2.2-2.13c0.73-0.38,1.65-0.57,2.74-0.57c1.42,0,2.53,0.3,3.33,0.89c0.8,0.6,1.31,1.42,1.54,2.47l-2.3,0.43
			c-0.16-0.56-0.46-1.01-0.91-1.33c-0.45-0.33-1-0.49-1.67-0.49c-1.01,0-1.81,0.32-2.41,0.96c-0.6,0.64-0.89,1.59-0.89,2.85
			c0,1.36,0.3,2.38,0.91,3.06c0.6,0.68,1.4,1.02,2.38,1.02c0.48,0,0.97-0.09,1.46-0.29c0.49-0.19,0.9-0.42,1.25-0.69v-1.45H320.87z"
			/>
		<path class="st0" d="M330.07,487.2h-2.2v-8.3h2.04v1.18c0.35-0.56,0.66-0.92,0.94-1.1c0.28-0.18,0.59-0.27,0.95-0.27
			c0.5,0,0.98,0.14,1.45,0.41l-0.68,1.91c-0.37-0.24-0.71-0.36-1.03-0.36c-0.31,0-0.57,0.08-0.78,0.25
			c-0.21,0.17-0.38,0.48-0.5,0.92c-0.12,0.44-0.18,1.37-0.18,2.78V487.2z"/>
		<path class="st0" d="M335.83,481.43l-1.99-0.36c0.22-0.8,0.61-1.4,1.16-1.78c0.55-0.39,1.36-0.58,2.44-0.58
			c0.98,0,1.71,0.12,2.19,0.35c0.48,0.23,0.82,0.53,1.01,0.88c0.2,0.36,0.29,1.01,0.29,1.96l-0.02,2.56c0,0.73,0.04,1.27,0.11,1.61
			c0.07,0.35,0.2,0.72,0.39,1.11h-2.17c-0.06-0.15-0.13-0.36-0.21-0.65c-0.04-0.13-0.06-0.22-0.08-0.26
			c-0.38,0.36-0.78,0.64-1.2,0.82c-0.43,0.18-0.88,0.27-1.37,0.27c-0.85,0-1.53-0.23-2.02-0.7c-0.49-0.46-0.74-1.05-0.74-1.76
			c0-0.47,0.11-0.89,0.34-1.25c0.22-0.37,0.54-0.65,0.94-0.84c0.4-0.2,0.99-0.37,1.75-0.51c1.03-0.19,1.74-0.37,2.13-0.54v-0.22
			c0-0.42-0.1-0.72-0.31-0.9c-0.21-0.18-0.6-0.27-1.18-0.27c-0.39,0-0.7,0.08-0.91,0.23C336.15,480.78,335.97,481.05,335.83,481.43z
			 M338.77,483.21c-0.28,0.09-0.73,0.21-1.34,0.34c-0.61,0.13-1.01,0.26-1.2,0.38c-0.29,0.2-0.43,0.46-0.43,0.77
			c0,0.31,0.11,0.57,0.34,0.8c0.23,0.22,0.52,0.34,0.88,0.34c0.4,0,0.77-0.13,1.13-0.39c0.27-0.2,0.44-0.44,0.52-0.73
			c0.06-0.19,0.09-0.54,0.09-1.07V483.21z"/>
		<path class="st0" d="M345.37,487.2l-3.34-8.3h2.3l1.56,4.23l0.45,1.41c0.12-0.36,0.2-0.6,0.23-0.71c0.07-0.23,0.15-0.47,0.23-0.7
			l1.58-4.23h2.26l-3.3,8.3H345.37z"/>
		<path class="st0" d="M351.99,477.78v-2.03h2.2v2.03H351.99z M351.99,487.2v-8.3h2.2v8.3H351.99z"/>
		<path class="st0" d="M363.98,487.2h-2.2v-4.23c0-0.9-0.05-1.48-0.14-1.74c-0.09-0.26-0.25-0.47-0.46-0.61
			c-0.21-0.15-0.46-0.22-0.76-0.22c-0.38,0-0.72,0.1-1.02,0.31c-0.3,0.21-0.51,0.48-0.62,0.83c-0.11,0.34-0.17,0.98-0.17,1.91v3.76
			h-2.2v-8.3h2.04v1.22c0.72-0.94,1.64-1.41,2.73-1.41c0.48,0,0.93,0.09,1.33,0.26c0.4,0.17,0.7,0.4,0.91,0.67
			c0.21,0.27,0.35,0.58,0.43,0.92c0.08,0.34,0.12,0.84,0.12,1.48V487.2z"/>
		<path class="st0" d="M366.01,487.75l2.51,0.3c0.04,0.29,0.14,0.49,0.29,0.6c0.21,0.16,0.54,0.23,0.98,0.23
			c0.57,0,1-0.09,1.29-0.26c0.19-0.11,0.34-0.3,0.44-0.55c0.07-0.18,0.1-0.52,0.1-1.01v-1.21c-0.66,0.9-1.48,1.34-2.48,1.34
			c-1.11,0-2-0.47-2.65-1.41c-0.51-0.74-0.77-1.67-0.77-2.78c0-1.39,0.33-2.45,1-3.19c0.67-0.73,1.5-1.1,2.5-1.1
			c1.03,0,1.87,0.45,2.54,1.35v-1.16h2.05v7.45c0,0.98-0.08,1.71-0.24,2.2c-0.16,0.48-0.39,0.86-0.68,1.14
			c-0.29,0.28-0.68,0.49-1.17,0.65c-0.49,0.16-1.1,0.23-1.85,0.23c-1.41,0-2.4-0.24-2.99-0.72c-0.59-0.48-0.88-1.09-0.88-1.83
			C366,487.94,366,487.85,366.01,487.75z M367.97,482.88c0,0.88,0.17,1.52,0.51,1.93c0.34,0.41,0.76,0.61,1.26,0.61
			c0.54,0,0.99-0.21,1.36-0.63c0.37-0.42,0.55-1.04,0.55-1.86c0-0.86-0.18-1.5-0.53-1.91c-0.35-0.42-0.8-0.62-1.34-0.62
			c-0.53,0-0.96,0.2-1.3,0.61C368.14,481.42,367.97,482.04,367.97,482.88z"/>
	</g>
	<g>
		<path d="M8.5,545.39v233.01c0,4.7,3.81,8.5,8.5,8.5h557.01c4.7,0,8.5-3.81,8.5-8.5v-142.2l6.49-5.48
			c1.28-1.08,2.01-2.66,2.01-4.33v-80.99c0-4.7-3.81-8.5-8.5-8.5H17.01C12.31,536.88,8.5,540.69,8.5,545.39z M21.76,547.26
			c0,1.57-1.27,2.83-2.83,2.83c-1.57,0-2.83-1.27-2.83-2.83c0-1.57,1.27-2.83,2.83-2.83C20.49,544.42,21.76,545.69,21.76,547.26z
			 M577.81,547.26c0-1.57,1.27-2.83,2.83-2.83c1.57,0,2.83,1.27,2.83,2.83c0,1.57-1.27,2.83-2.83,2.83
			C579.08,550.09,577.81,548.82,577.81,547.26z M575.43,661.89c0,1.57-1.27,2.83-2.83,2.83c-1.57,0-2.83-1.27-2.83-2.83
			c0-1.57,1.27-2.83,2.83-2.83C574.16,659.06,575.43,660.32,575.43,661.89z M569.32,776.52c0-1.57,1.27-2.83,2.83-2.83
			c1.57,0,2.83,1.27,2.83,2.83c0,1.57-1.27,2.83-2.83,2.83C570.59,779.36,569.32,778.09,569.32,776.52z M400.68,777.19
			c0-1.57,1.27-2.83,2.83-2.83c1.57,0,2.83,1.27,2.83,2.83c0,1.57-1.27,2.83-2.83,2.83C401.95,780.02,400.68,778.75,400.68,777.19z
			 M400.68,546.8c0-1.57,1.27-2.83,2.83-2.83c1.57,0,2.83,1.27,2.83,2.83s-1.27,2.83-2.83,2.83
			C401.95,549.64,400.68,548.37,400.68,546.8z M234.43,742.89c0-3.91,3.17-7.09,7.09-7.09h0c3.91,0,7.09,3.17,7.09,7.09
			s-3.17,7.09-7.09,7.09h0C237.6,749.98,234.43,746.8,234.43,742.89z M190.35,546.8c0,1.57-1.27,2.83-2.83,2.83
			c-1.57,0-2.83-1.27-2.83-2.83s1.27-2.83,2.83-2.83C189.08,543.97,190.35,545.24,190.35,546.8z M184.68,777
			c0-1.57,1.27-2.83,2.83-2.83c1.57,0,2.83,1.27,2.83,2.83c0,1.57-1.27,2.83-2.83,2.83C185.95,779.83,184.68,778.56,184.68,777z
			 M16.09,776.52c0-1.57,1.27-2.83,2.83-2.83c1.57,0,2.83,1.27,2.83,2.83c0,1.57-1.27,2.83-2.83,2.83
			C17.36,779.36,16.09,778.09,16.09,776.52z M15.59,661.89c0-1.57,1.27-2.83,2.83-2.83c1.57,0,2.83,1.27,2.83,2.83
			c0,1.57-1.27,2.83-2.83,2.83C16.86,664.72,15.59,663.46,15.59,661.89z"/>
		<g>
			<g>
				<path class="st0" d="M492.92,574.82h3.69c1.32,0,2.19,0.22,2.63,0.66c0.44,0.44,0.65,1.42,0.65,2.92v2.3
					c0,0.99-0.1,1.69-0.3,2.09c-0.2,0.4-0.56,0.72-1.07,0.96c0.5,0.19,0.85,0.49,1.06,0.89c0.21,0.4,0.31,1.01,0.31,1.83v6h-3v-6.54
					c0-0.29-0.05-0.5-0.16-0.62c-0.11-0.12-0.29-0.19-0.55-0.19c-0.03,0-0.07,0-0.12,0.01c-0.05,0.01-0.09,0.01-0.12,0.01v7.32
					h-3.01V574.82z M495.94,577.12v5.39c0.04,0,0.08,0,0.14,0.01c0.06,0.01,0.1,0.01,0.12,0.01c0.27,0,0.45-0.06,0.55-0.19
					c0.1-0.12,0.14-0.37,0.14-0.73v-3.39c0-0.53-0.05-0.85-0.15-0.96c-0.1-0.11-0.3-0.16-0.61-0.16H495.94z"/>
				<path class="st0" d="M501.27,574.82h4.82v2.3h-1.8v4.5h1.8v2.32h-1.8v6.2h1.8v2.32h-4.82V574.82z"/>
				<path class="st0" d="M507.18,574.82h2.92l0.65,11.95h0.12l0.73-11.95h2.84l-1.89,17.65h-3.47L507.18,574.82z"/>
				<path class="st0" d="M515.57,574.82h3.01v17.65h-3.01V574.82z"/>
				<path class="st0" d="M519.94,574.82h3.01v14.67c0,0.28,0.04,0.47,0.11,0.59c0.07,0.12,0.2,0.18,0.37,0.18
					c0.17,0,0.29-0.05,0.36-0.16c0.07-0.11,0.1-0.31,0.1-0.6v-14.67h3.03v14.27c0,1.54-0.21,2.5-0.62,2.91
					c-0.41,0.4-1.36,0.61-2.84,0.61c-1.51,0-2.48-0.2-2.89-0.61c-0.41-0.41-0.62-1.37-0.62-2.9V574.82z"/>
				<path class="st0" d="M528.29,574.82h2.7l1.65,8.8h0.14l-0.05-8.8h2.61v17.65h-2.67l-1.67-9.04h-0.14l0.06,9.04h-2.62V574.82z"/>
				<path class="st0" d="M536.7,578.26c0-1.56,0.22-2.55,0.65-2.95c0.43-0.4,1.4-0.6,2.9-0.6c1.47,0,2.42,0.21,2.84,0.62
					c0.42,0.41,0.64,1.39,0.64,2.93v2.6h-3.03v-3.04c0-0.3-0.04-0.51-0.11-0.61c-0.07-0.1-0.2-0.15-0.39-0.15
					c-0.18,0-0.3,0.05-0.38,0.16c-0.08,0.11-0.12,0.31-0.12,0.61v11.66c0,0.28,0.04,0.47,0.12,0.58c0.08,0.11,0.21,0.16,0.4,0.16
					c0.18,0,0.3-0.05,0.37-0.15c0.07-0.1,0.11-0.3,0.11-0.59v-3.84h-0.46v-2.32h3.48v9.15h-1.26l-0.5-1.02
					c-0.32,0.42-0.67,0.72-1.05,0.89c-0.38,0.17-0.9,0.25-1.54,0.25c-0.96,0-1.64-0.23-2.05-0.69c-0.41-0.46-0.62-1.24-0.62-2.35
					V578.26z"/>
			</g>
			<path class="st0" d="M550.8,569.48h-64.96v28.35h64.96V569.48z M488.86,594.81c1.47-3.42,2.28-7.2,2.28-11.16
				c0-3.96-0.82-7.73-2.28-11.16h58.92c-1.47,3.43-2.28,7.2-2.28,11.16c0,3.96,0.82,7.73,2.28,11.16H488.86z"/>
		</g>
		<path class="st0" d="M11.35,545.25v233.27c0,3.06,2.51,5.54,5.61,5.54h557.11c3.09,0,5.59-2.47,5.59-5.52V634.69l6.53-5.53
			c1.26-1.05,1.99-2.6,1.99-4.23v-79.68c0-3.06-2.51-5.54-5.61-5.54H16.96C13.86,539.72,11.35,542.19,11.35,545.25z M22.61,547.26
			c0,2.04-1.65,3.68-3.69,3.68c-2.04,0-3.68-1.65-3.68-3.68c0-2.04,1.65-3.69,3.68-3.69C20.96,543.57,22.61,545.22,22.61,547.26z
			 M191.2,546.8c0,2.04-1.65,3.69-3.69,3.69c-2.04,0-3.69-1.65-3.69-3.69c0-2.04,1.65-3.69,3.69-3.69
			C189.55,543.12,191.2,544.77,191.2,546.8z M407.2,546.8c0,2.04-1.65,3.69-3.69,3.69c-2.04,0-3.68-1.65-3.68-3.69
			s1.65-3.68,3.68-3.68C405.55,543.12,407.2,544.77,407.2,546.8z M576.97,547.26c0-2.04,1.65-3.69,3.69-3.69
			c2.04,0,3.68,1.65,3.68,3.69c0,2.04-1.65,3.68-3.68,3.68C578.62,550.94,576.97,549.29,576.97,547.26z M576.29,661.89
			c0,2.04-1.65,3.68-3.69,3.68c-2.04,0-3.69-1.65-3.69-3.68c0-2.04,1.65-3.69,3.69-3.69C574.64,658.2,576.29,659.85,576.29,661.89z
			 M568.47,776.52c0-2.04,1.65-3.69,3.68-3.69c2.04,0,3.69,1.65,3.69,3.69c0,2.04-1.65,3.68-3.69,3.68
			C570.12,780.21,568.47,778.56,568.47,776.52z M399.83,777c0-2.04,1.65-3.69,3.68-3.69c2.04,0,3.69,1.65,3.69,3.69
			c0,2.04-1.65,3.68-3.69,3.68C401.48,780.68,399.83,779.03,399.83,777z M183.83,777c0-2.04,1.65-3.69,3.69-3.69
			c2.04,0,3.69,1.65,3.69,3.69c0,2.04-1.65,3.68-3.69,3.68C185.48,780.68,183.83,779.03,183.83,777z M32.6,692.11
			c0-3.13,2.54-5.67,5.67-5.67h27.6c0.51,0,0.97-0.27,1.23-0.71l5.17-8.96c0.25-0.44,0.72-0.71,1.23-0.71h93.04
			c0.5,0,0.97,0.27,1.22,0.7l5.18,8.97c0.25,0.44,0.72,0.7,1.22,0.7h26.72c0.5,0,0.97-0.27,1.22-0.7l5.18-8.97
			c0.25-0.44,0.72-0.7,1.22-0.7h66.05c0.5,0,0.97,0.27,1.22,0.7l5.18,8.97c0.25,0.44,0.72,0.7,1.22,0.7h26.72
			c0.5,0,0.97-0.27,1.22-0.7l5.18-8.97c0.25-0.44,0.72-0.7,1.22-0.7h66.05c0.5,0,0.97,0.27,1.22,0.7l5.18,8.97
			c0.25,0.44,0.72,0.7,1.22,0.7h26.72c0.5,0,0.97-0.27,1.22-0.7l5.18-8.97c0.25-0.44,0.72-0.7,1.22-0.7h93.04
			c0.51,0,0.97,0.27,1.23,0.71l5.17,8.96c0.25,0.44,0.72,0.71,1.23,0.71h28.47c3.13,0,5.67,2.54,5.67,5.67v65.97
			c0,2.61-2.36,4.72-5.26,4.72H476.9c-0.5,0-0.97-0.27-1.22-0.7l-3.54-6.13c-0.25-0.44-0.72-0.7-1.22-0.7H444.2
			c-0.5,0-0.97,0.27-1.22,0.7l-3.54,6.13c-0.25,0.44-0.72,0.7-1.22,0.7H368.9c-0.5,0-0.97-0.27-1.22-0.7l-3.54-6.13
			c-0.25-0.44-0.72-0.7-1.22-0.7H336.2c-0.5,0-0.97,0.27-1.22,0.7l-3.54,6.13c-0.25,0.44-0.72,0.7-1.22,0.7H260.9
			c-0.5,0-0.97-0.27-1.22-0.7l-3.54-6.13c-0.25-0.44-0.72-0.7-1.22-0.7H228.2c-0.5,0-0.97,0.27-1.22,0.7l-3.54,6.13
			c-0.25,0.44-0.72,0.7-1.22,0.7H152.9c-0.5,0-0.97-0.27-1.22-0.7l-3.54-6.13c-0.25-0.44-0.72-0.7-1.22-0.7H120.2
			c-0.5,0-0.97,0.27-1.22,0.7l-3.54,6.13c-0.25,0.44-0.72,0.7-1.22,0.7H37.88c-2.92,0-5.28-2.12-5.28-4.74V692.11z M32.6,565.71
			c0-2.62,2.36-4.74,5.28-4.74h76.41c0.5,0,0.97,0.27,1.22,0.7l3.54,6.13c0.25,0.44,0.72,0.7,1.22,0.7h26.72
			c0.5,0,0.97-0.27,1.22-0.7l3.54-6.13c0.25-0.44,0.72-0.7,1.22-0.7h69.25c0.5,0,0.97,0.27,1.22,0.7l3.54,6.13
			c0.25,0.44,0.72,0.7,1.22,0.7h26.72c0.5,0,0.97-0.27,1.22-0.7l3.54-6.13c0.25-0.44,0.72-0.7,1.22-0.7h69.33
			c0.5,0,0.97,0.27,1.22,0.7l3.54,6.13c0.25,0.44,0.72,0.7,1.22,0.7h26.72c0.5,0,0.97-0.27,1.22-0.7l3.54-6.13
			c0.25-0.44,0.72-0.7,1.22-0.7h69.31c0.5,0,0.97,0.27,1.22,0.7l3.54,6.13c0.25,0.44,0.72,0.7,1.22,0.7h26.72
			c0.5,0,0.97-0.27,1.22-0.7l3.54-6.13c0.25-0.44,0.72-0.7,1.22-0.7h77.12c2.92,0,5.28,2.12,5.28,4.74v65.99
			c0,3.13-2.54,5.67-5.67,5.67h-28.47c-0.51,0-0.97,0.27-1.23,0.71l-5.15,8.93c-0.25,0.44-0.72,0.71-1.23,0.71h-93.06
			c-0.5,0-0.97-0.27-1.22-0.7l-5.18-8.97c-0.25-0.44-0.72-0.7-1.22-0.7h-26.72c-0.5,0-0.97,0.27-1.22,0.7l-5.18,8.97
			c-0.25,0.44-0.72,0.7-1.22,0.7h-66.05c-0.5,0-0.97-0.27-1.22-0.7l-5.18-8.97c-0.25-0.44-0.72-0.7-1.22-0.7h-26.72
			c-0.5,0-0.97,0.27-1.22,0.7l-5.18,8.97c-0.25,0.44-0.72,0.7-1.22,0.7h-66.05c-0.5,0-0.97-0.27-1.22-0.7l-5.18-8.97
			c-0.25-0.44-0.72-0.7-1.22-0.7h-26.72c-0.5,0-0.97,0.27-1.22,0.7l-5.18,8.97c-0.25,0.44-0.72,0.7-1.22,0.7H73.48
			c-0.51,0-0.97-0.27-1.23-0.71l-5.15-8.93c-0.25-0.44-0.72-0.71-1.23-0.71h-27.6c-3.13,0-5.67-2.54-5.67-5.67V565.71z
			 M15.24,776.52c0-2.04,1.65-3.69,3.68-3.69c2.04,0,3.69,1.65,3.69,3.69c0,2.04-1.65,3.68-3.69,3.68
			C16.89,780.21,15.24,778.56,15.24,776.52z M14.74,661.89c0-2.04,1.65-3.68,3.68-3.68c2.04,0,3.69,1.65,3.69,3.68
			c0,2.04-1.65,3.69-3.69,3.69C16.39,665.57,14.74,663.92,14.74,661.89z"/>
		<g>
			<path class="st0" d="M47.87,743.36l-1.63,4.92l1.78,5.98h-2.93l-1.15-4.68v4.68h-2.84l0-10.91h2.84l0,4.24l1.26-4.24H47.87z"/>
			<path class="st0" d="M53.54,748.09c0.41,0.14,0.72,0.37,0.92,0.68c0.2,0.32,0.3,1.06,0.3,2.23c0,0.87-0.1,1.54-0.3,2.02
				c-0.2,0.48-0.54,0.84-1.02,1.09c-0.49,0.25-1.11,0.37-1.87,0.37c-0.86,0-1.54-0.14-2.03-0.43c-0.49-0.29-0.82-0.64-0.97-1.06
				c-0.16-0.42-0.23-1.15-0.23-2.19v-0.86h2.72v1.77c0,0.47,0.03,0.77,0.08,0.9c0.06,0.13,0.18,0.19,0.37,0.19
				c0.21,0,0.35-0.08,0.42-0.24c0.07-0.16,0.1-0.58,0.1-1.27v-0.75c0-0.42-0.05-0.72-0.14-0.92s-0.23-0.32-0.42-0.38
				c-0.18-0.06-0.54-0.1-1.07-0.1v-1.58c0.65,0,1.05-0.02,1.2-0.07c0.15-0.05,0.26-0.16,0.33-0.32c0.07-0.17,0.1-0.43,0.1-0.78
				v-0.61c0-0.38-0.04-0.63-0.12-0.75s-0.2-0.18-0.37-0.18c-0.19,0-0.32,0.06-0.39,0.19c-0.07,0.13-0.1,0.4-0.1,0.82v0.9h-2.72
				v-0.93c0-1.04,0.24-1.75,0.71-2.11c0.48-0.37,1.23-0.55,2.27-0.55c1.3,0,2.18,0.25,2.64,0.76c0.46,0.51,0.69,1.21,0.69,2.11
				c0,0.61-0.08,1.05-0.25,1.32C54.25,747.61,53.96,747.86,53.54,748.09z"/>
			<path class="st0" d="M60.86,748.09c0.41,0.14,0.72,0.37,0.92,0.68c0.2,0.32,0.3,1.06,0.3,2.23c0,0.87-0.1,1.54-0.3,2.02
				c-0.2,0.48-0.54,0.84-1.02,1.09c-0.49,0.25-1.11,0.37-1.87,0.37c-0.86,0-1.54-0.14-2.03-0.43c-0.49-0.29-0.82-0.64-0.97-1.06
				c-0.16-0.42-0.23-1.15-0.23-2.19v-0.86h2.72v1.77c0,0.47,0.03,0.77,0.08,0.9c0.06,0.13,0.18,0.19,0.37,0.19
				c0.21,0,0.35-0.08,0.42-0.24c0.07-0.16,0.1-0.58,0.1-1.27v-0.75c0-0.42-0.05-0.72-0.14-0.92c-0.09-0.19-0.23-0.32-0.42-0.38
				c-0.18-0.06-0.54-0.1-1.07-0.1v-1.58c0.65,0,1.05-0.02,1.2-0.07c0.15-0.05,0.26-0.16,0.33-0.32c0.07-0.17,0.1-0.43,0.1-0.78
				v-0.61c0-0.38-0.04-0.63-0.12-0.75c-0.08-0.12-0.2-0.18-0.37-0.18c-0.19,0-0.32,0.06-0.39,0.19c-0.07,0.13-0.1,0.4-0.1,0.82v0.9
				h-2.72v-0.93c0-1.04,0.24-1.75,0.71-2.11c0.48-0.37,1.23-0.55,2.27-0.55c1.3,0,2.18,0.25,2.64,0.76
				c0.46,0.51,0.69,1.21,0.69,2.11c0,0.61-0.08,1.05-0.25,1.32C61.57,747.61,61.28,747.86,60.86,748.09z"/>
			<path class="st0" d="M63.14,743.36h2.83c0.89,0,1.57,0.07,2.03,0.21s0.83,0.42,1.12,0.84c0.28,0.42,0.42,1.11,0.42,2.05
				c0,0.64-0.1,1.08-0.3,1.33c-0.2,0.25-0.59,0.44-1.18,0.58c0.66,0.15,1.1,0.39,1.33,0.74s0.35,0.87,0.35,1.58v1.01
				c0,0.74-0.08,1.28-0.25,1.64c-0.17,0.35-0.44,0.6-0.81,0.73c-0.37,0.13-1.12,0.2-2.26,0.2h-3.28L63.14,743.36z M65.98,745.23
				v2.43c0.12,0,0.22-0.01,0.28-0.01c0.28,0,0.46-0.07,0.53-0.21c0.08-0.14,0.12-0.53,0.12-1.18c0-0.34-0.03-0.58-0.09-0.72
				c-0.06-0.14-0.14-0.22-0.25-0.26C66.47,745.25,66.27,745.23,65.98,745.23z M65.98,749.35v3.05c0.4-0.01,0.65-0.08,0.77-0.19
				c0.11-0.11,0.16-0.39,0.16-0.83v-1.02c0-0.47-0.05-0.75-0.15-0.85C66.66,749.42,66.4,749.36,65.98,749.35z"/>
		</g>
	</g>
	<g>
	</g>
	<g>
	</g>
	<g>
	</g>
	<g>
	</g>
	<g>
	</g>
	<g>
	</g>
</g>
</svg>
