<?xml version="1.0" encoding="utf-8"?>
<!-- Generator: Adobe Illustrator 24.2.3, SVG Export Plug-In . SVG Version: 6.00 Build 0)  -->
<svg version="1.1" xmlns="http://www.w3.org/2000/svg" xmlns:xlink="http://www.w3.org/1999/xlink" x="0px" y="0px"
	 viewBox="0 0 599.53 528.38" style="enable-background:new 0 0 599.53 528.38;" xml:space="preserve">
<style type="text/css">
	.st0{fill:#FF0000;}
</style>
<g id="note">
	<g>
		<path d="M253.21,123.78l-3.04-11.45h1.55l1.74,7.51c0.19,0.79,0.35,1.57,0.48,2.34c0.29-1.22,0.46-1.93,0.52-2.12l2.18-7.73h1.83
			l1.64,5.8c0.41,1.44,0.71,2.79,0.89,4.05c0.15-0.72,0.34-1.55,0.57-2.49l1.8-7.36h1.52l-3.14,11.45h-1.46l-2.41-8.73
			c-0.2-0.73-0.32-1.18-0.36-1.34c-0.12,0.53-0.23,0.97-0.34,1.34l-2.43,8.73H253.21z"/>
		<path d="M270.97,117.08v-1.6h1.6v1.6H270.97z M270.97,123.78v-1.6h1.6v1.6H270.97z"/>
		<path d="M286.47,122.43v1.35h-7.57c-0.01-0.34,0.04-0.66,0.16-0.98c0.19-0.52,0.5-1.02,0.93-1.52s1.04-1.08,1.84-1.73
			c1.25-1.02,2.09-1.83,2.52-2.43c0.44-0.6,0.66-1.16,0.66-1.69c0-0.56-0.2-1.03-0.6-1.41s-0.92-0.57-1.56-0.57
			c-0.68,0-1.22,0.2-1.62,0.61s-0.61,0.97-0.62,1.69l-1.45-0.15c0.1-1.08,0.47-1.9,1.12-2.46c0.65-0.56,1.51-0.85,2.6-0.85
			c1.1,0,1.97,0.3,2.61,0.91s0.96,1.36,0.96,2.27c0,0.46-0.09,0.91-0.28,1.35c-0.19,0.44-0.5,0.91-0.93,1.4
			c-0.43,0.49-1.16,1.16-2.17,2.02c-0.84,0.71-1.39,1.19-1.62,1.44c-0.24,0.25-0.44,0.51-0.59,0.76H286.47z"/>
		<path d="M287.97,118.13c0-1.35,0.14-2.44,0.42-3.27c0.28-0.83,0.69-1.46,1.24-1.91c0.55-0.45,1.24-0.67,2.07-0.67
			c0.61,0,1.15,0.12,1.62,0.37c0.46,0.25,0.85,0.6,1.15,1.07c0.3,0.47,0.54,1.03,0.71,1.7c0.17,0.67,0.26,1.57,0.26,2.71
			c0,1.34-0.14,2.43-0.41,3.25c-0.28,0.83-0.69,1.46-1.24,1.91c-0.55,0.45-1.24,0.68-2.08,0.68c-1.1,0-1.97-0.4-2.6-1.19
			C288.35,121.83,287.97,120.28,287.97,118.13z M289.42,118.13c0,1.88,0.22,3.13,0.66,3.75c0.44,0.62,0.98,0.93,1.63,0.93
			s1.19-0.31,1.63-0.94s0.66-1.88,0.66-3.75c0-1.89-0.22-3.14-0.66-3.76c-0.44-0.62-0.99-0.93-1.64-0.93
			c-0.65,0-1.16,0.27-1.55,0.82C289.66,114.96,289.42,116.25,289.42,118.13z"/>
		<path d="M296.87,120.78l1.48-0.12c0.11,0.72,0.36,1.26,0.76,1.62c0.4,0.36,0.88,0.54,1.44,0.54c0.68,0,1.25-0.25,1.72-0.77
			c0.47-0.51,0.7-1.19,0.7-2.03c0-0.8-0.23-1.43-0.68-1.9c-0.45-0.46-1.04-0.7-1.77-0.7c-0.45,0-0.86,0.1-1.23,0.31
			c-0.36,0.21-0.65,0.47-0.86,0.8l-1.32-0.17l1.11-5.88h5.7v1.34h-4.57l-0.62,3.08c0.69-0.48,1.41-0.72,2.16-0.72
			c1,0,1.84,0.35,2.53,1.04c0.69,0.69,1.03,1.58,1.03,2.67c0,1.04-0.3,1.93-0.91,2.69c-0.73,0.93-1.74,1.39-3.01,1.39
			c-1.04,0-1.89-0.29-2.55-0.87C297.34,122.52,296.97,121.74,296.87,120.78z"/>
		<path d="M306.56,123.78v-1.6h1.6v1.6H306.56z"/>
		<path d="M310.22,120.78l1.48-0.12c0.11,0.72,0.36,1.26,0.76,1.62c0.4,0.36,0.88,0.54,1.44,0.54c0.68,0,1.25-0.25,1.72-0.77
			c0.47-0.51,0.7-1.19,0.7-2.03c0-0.8-0.23-1.43-0.68-1.9c-0.45-0.46-1.04-0.7-1.77-0.7c-0.45,0-0.86,0.1-1.23,0.31
			c-0.36,0.21-0.65,0.47-0.86,0.8l-1.32-0.17l1.11-5.88h5.7v1.34h-4.57l-0.62,3.08c0.69-0.48,1.41-0.72,2.16-0.72
			c1,0,1.84,0.35,2.53,1.04c0.69,0.69,1.03,1.58,1.03,2.67c0,1.04-0.3,1.93-0.91,2.69c-0.73,0.93-1.74,1.39-3.01,1.39
			c-1.04,0-1.89-0.29-2.55-0.87C310.69,122.52,310.31,121.74,310.22,120.78z"/>
		<path d="M323.95,123.78v-8.3h1.26v1.16c0.26-0.41,0.61-0.73,1.04-0.98c0.43-0.25,0.92-0.37,1.48-0.37c0.61,0,1.12,0.13,1.51,0.38
			c0.39,0.26,0.67,0.61,0.83,1.07c0.66-0.97,1.51-1.45,2.56-1.45c0.82,0,1.46,0.23,1.9,0.68c0.44,0.46,0.66,1.16,0.66,2.11v5.7h-1.4
			v-5.23c0-0.56-0.05-0.97-0.14-1.21c-0.09-0.25-0.26-0.45-0.5-0.6c-0.24-0.15-0.52-0.23-0.84-0.23c-0.58,0-1.07,0.19-1.45,0.58
			c-0.39,0.39-0.58,1.01-0.58,1.86v4.82h-1.41v-5.39c0-0.62-0.11-1.09-0.34-1.41s-0.6-0.47-1.12-0.47c-0.4,0-0.76,0.1-1.1,0.31
			c-0.34,0.21-0.58,0.51-0.73,0.91c-0.15,0.4-0.23,0.98-0.23,1.73v4.3H323.95z"/>
		<path d="M337.28,123.78v-8.3h1.26v1.16c0.26-0.41,0.61-0.73,1.04-0.98c0.43-0.25,0.92-0.37,1.48-0.37c0.61,0,1.12,0.13,1.51,0.38
			c0.39,0.26,0.67,0.61,0.83,1.07c0.66-0.97,1.51-1.45,2.56-1.45c0.82,0,1.46,0.23,1.9,0.68c0.44,0.46,0.66,1.16,0.66,2.11v5.7h-1.4
			v-5.23c0-0.56-0.05-0.97-0.14-1.21c-0.09-0.25-0.26-0.45-0.5-0.6c-0.24-0.15-0.52-0.23-0.84-0.23c-0.58,0-1.07,0.19-1.45,0.58
			c-0.39,0.39-0.58,1.01-0.58,1.86v4.82h-1.41v-5.39c0-0.62-0.11-1.09-0.34-1.41s-0.6-0.47-1.12-0.47c-0.4,0-0.76,0.1-1.1,0.31
			c-0.34,0.21-0.58,0.51-0.73,0.91c-0.15,0.4-0.23,0.98-0.23,1.73v4.3H337.28z"/>
		<path d="M251.26,151.78v-11.45h1.52v4.7h5.95v-4.7h1.52v11.45h-1.52v-5.4h-5.95v5.4H251.26z"/>
		<path d="M267.42,145.08v-1.6h1.6v1.6H267.42z M267.42,151.78v-1.6h1.6v1.6H267.42z"/>
		<path d="M277.69,145.57c-0.58-0.21-1.02-0.52-1.3-0.91c-0.28-0.4-0.42-0.87-0.42-1.42c0-0.83,0.3-1.53,0.9-2.1
			c0.6-0.57,1.4-0.85,2.39-0.85c1,0,1.8,0.29,2.41,0.87c0.61,0.58,0.91,1.29,0.91,2.12c0,0.53-0.14,0.99-0.42,1.39
			c-0.28,0.39-0.7,0.7-1.27,0.91c0.7,0.23,1.24,0.6,1.61,1.11c0.37,0.51,0.55,1.12,0.55,1.83c0,0.98-0.35,1.8-1.04,2.47
			c-0.69,0.67-1.6,1-2.73,1s-2.04-0.33-2.73-1c-0.69-0.67-1.04-1.5-1.04-2.5c0-0.74,0.19-1.37,0.57-1.87
			C276.46,146.09,276.99,145.75,277.69,145.57z M276.96,148.47c0,0.4,0.09,0.79,0.29,1.16s0.47,0.67,0.85,0.87
			c0.38,0.21,0.78,0.31,1.21,0.31c0.67,0,1.23-0.22,1.66-0.65c0.44-0.43,0.66-0.98,0.66-1.65c0-0.68-0.23-1.24-0.68-1.68
			c-0.45-0.44-1.01-0.66-1.69-0.66c-0.66,0-1.21,0.22-1.64,0.66S276.96,147.82,276.96,148.47z M277.41,143.19
			c0,0.54,0.17,0.98,0.52,1.33s0.8,0.52,1.36,0.52c0.54,0,0.99-0.17,1.33-0.51c0.35-0.34,0.52-0.76,0.52-1.25
			c0-0.52-0.18-0.95-0.54-1.3s-0.8-0.53-1.33-0.53c-0.54,0-0.98,0.17-1.34,0.52S277.41,142.71,277.41,143.19z"/>
		<path d="M286.59,145.57c-0.58-0.21-1.02-0.52-1.3-0.91c-0.28-0.4-0.42-0.87-0.42-1.42c0-0.83,0.3-1.53,0.9-2.1
			c0.6-0.57,1.4-0.85,2.39-0.85c1,0,1.8,0.29,2.41,0.87c0.61,0.58,0.91,1.29,0.91,2.12c0,0.53-0.14,0.99-0.42,1.39
			c-0.28,0.39-0.7,0.7-1.27,0.91c0.7,0.23,1.24,0.6,1.61,1.11c0.37,0.51,0.55,1.12,0.55,1.83c0,0.98-0.35,1.8-1.04,2.47
			c-0.69,0.67-1.6,1-2.73,1s-2.04-0.33-2.73-1c-0.69-0.67-1.04-1.5-1.04-2.5c0-0.74,0.19-1.37,0.57-1.87
			C285.36,146.09,285.89,145.75,286.59,145.57z M285.86,148.47c0,0.4,0.09,0.79,0.29,1.16s0.47,0.67,0.85,0.87
			c0.38,0.21,0.78,0.31,1.21,0.31c0.67,0,1.23-0.22,1.66-0.65c0.44-0.43,0.66-0.98,0.66-1.65c0-0.68-0.23-1.24-0.68-1.68
			c-0.45-0.44-1.01-0.66-1.69-0.66c-0.66,0-1.21,0.22-1.64,0.66S285.86,147.82,285.86,148.47z M286.31,143.19
			c0,0.54,0.17,0.98,0.52,1.33s0.8,0.52,1.36,0.52c0.54,0,0.99-0.17,1.33-0.51c0.35-0.34,0.52-0.76,0.52-1.25
			c0-0.52-0.18-0.95-0.54-1.3s-0.8-0.53-1.33-0.53c-0.54,0-0.98,0.17-1.34,0.52S286.31,142.71,286.31,143.19z"/>
		<path d="M294.11,151.78v-1.6h1.6v1.6H294.11z"/>
		<path d="M305.16,150.43v1.35h-7.57c-0.01-0.34,0.04-0.66,0.16-0.98c0.19-0.52,0.5-1.02,0.93-1.52s1.04-1.08,1.84-1.73
			c1.25-1.02,2.09-1.83,2.52-2.43s0.66-1.16,0.66-1.69c0-0.56-0.2-1.03-0.6-1.41s-0.92-0.57-1.56-0.57c-0.68,0-1.22,0.2-1.62,0.61
			s-0.61,0.97-0.62,1.69l-1.45-0.15c0.1-1.08,0.47-1.9,1.12-2.46c0.65-0.56,1.51-0.85,2.6-0.85c1.1,0,1.97,0.3,2.61,0.91
			s0.96,1.36,0.96,2.27c0,0.46-0.09,0.91-0.28,1.35c-0.19,0.44-0.5,0.91-0.93,1.4c-0.43,0.49-1.16,1.16-2.17,2.02
			c-0.84,0.71-1.39,1.19-1.62,1.44c-0.24,0.25-0.44,0.51-0.59,0.76H305.16z"/>
		<path d="M311.51,151.78v-8.3h1.26v1.16c0.26-0.41,0.61-0.73,1.04-0.98c0.43-0.25,0.92-0.37,1.48-0.37c0.61,0,1.12,0.13,1.51,0.38
			c0.39,0.26,0.67,0.61,0.83,1.07c0.66-0.97,1.51-1.45,2.56-1.45c0.82,0,1.46,0.23,1.9,0.68c0.44,0.46,0.66,1.16,0.66,2.1v5.7h-1.4
			v-5.23c0-0.56-0.05-0.97-0.14-1.21c-0.09-0.25-0.26-0.45-0.5-0.6c-0.24-0.15-0.52-0.23-0.84-0.23c-0.58,0-1.07,0.19-1.45,0.58
			c-0.39,0.39-0.58,1.01-0.58,1.86v4.82h-1.41v-5.39c0-0.62-0.11-1.09-0.34-1.41s-0.6-0.47-1.12-0.47c-0.4,0-0.76,0.1-1.1,0.31
			c-0.34,0.21-0.58,0.51-0.73,0.91c-0.15,0.4-0.23,0.98-0.23,1.73v4.3H311.51z"/>
		<path d="M324.83,151.78v-8.3h1.26v1.16c0.26-0.41,0.61-0.73,1.04-0.98c0.43-0.25,0.92-0.37,1.48-0.37c0.61,0,1.12,0.13,1.51,0.38
			c0.39,0.26,0.67,0.61,0.83,1.07c0.66-0.97,1.51-1.45,2.56-1.45c0.82,0,1.46,0.23,1.9,0.68c0.44,0.46,0.66,1.16,0.66,2.1v5.7h-1.4
			v-5.23c0-0.56-0.05-0.97-0.14-1.21c-0.09-0.25-0.26-0.45-0.5-0.6c-0.24-0.15-0.52-0.23-0.84-0.23c-0.58,0-1.07,0.19-1.45,0.58
			c-0.39,0.39-0.58,1.01-0.58,1.86v4.82h-1.41v-5.39c0-0.62-0.11-1.09-0.34-1.41s-0.6-0.47-1.12-0.47c-0.4,0-0.76,0.1-1.1,0.31
			c-0.34,0.21-0.58,0.51-0.73,0.91c-0.15,0.4-0.23,0.98-0.23,1.73v4.3H324.83z"/>
	</g>
	<g>
		<path d="M244.31,385.13l-3.04-11.45h1.55l1.74,7.51c0.19,0.79,0.35,1.57,0.48,2.34c0.29-1.22,0.46-1.93,0.52-2.12l2.18-7.73h1.83
			l1.64,5.8c0.41,1.44,0.71,2.79,0.89,4.05c0.15-0.72,0.34-1.55,0.57-2.49l1.8-7.36H256l-3.14,11.45h-1.46l-2.41-8.73
			c-0.2-0.73-0.32-1.18-0.36-1.34c-0.12,0.53-0.23,0.97-0.34,1.34l-2.43,8.73H244.31z"/>
		<path d="M262.07,378.44v-1.6h1.6v1.6H262.07z M262.07,385.13v-1.6h1.6v1.6H262.07z"/>
		<path d="M277.57,383.78v1.35H270c-0.01-0.34,0.04-0.66,0.16-0.98c0.19-0.52,0.5-1.02,0.93-1.52s1.04-1.08,1.84-1.73
			c1.25-1.02,2.09-1.83,2.52-2.43c0.44-0.6,0.66-1.16,0.66-1.69c0-0.56-0.2-1.03-0.6-1.41s-0.92-0.57-1.56-0.57
			c-0.68,0-1.22,0.2-1.62,0.61s-0.61,0.97-0.62,1.69l-1.45-0.15c0.1-1.08,0.47-1.9,1.12-2.46c0.65-0.56,1.51-0.85,2.6-0.85
			c1.1,0,1.97,0.3,2.61,0.91s0.96,1.36,0.96,2.27c0,0.46-0.09,0.91-0.28,1.35c-0.19,0.44-0.5,0.91-0.93,1.4
			c-0.43,0.49-1.16,1.16-2.17,2.02c-0.84,0.71-1.39,1.19-1.62,1.44c-0.24,0.25-0.44,0.51-0.59,0.76H277.57z"/>
		<path d="M279.08,379.49c0-1.35,0.14-2.44,0.42-3.27c0.28-0.83,0.69-1.46,1.24-1.91c0.55-0.45,1.24-0.67,2.07-0.67
			c0.61,0,1.15,0.12,1.62,0.37c0.46,0.25,0.85,0.6,1.15,1.07c0.3,0.47,0.54,1.03,0.71,1.7c0.17,0.67,0.26,1.57,0.26,2.71
			c0,1.34-0.14,2.43-0.41,3.25c-0.28,0.83-0.69,1.46-1.24,1.91c-0.55,0.45-1.24,0.68-2.08,0.68c-1.1,0-1.97-0.4-2.6-1.19
			C279.45,383.19,279.08,381.64,279.08,379.49z M280.52,379.49c0,1.88,0.22,3.13,0.66,3.75c0.44,0.62,0.98,0.93,1.63,0.93
			s1.19-0.31,1.63-0.94s0.66-1.88,0.66-3.75c0-1.89-0.22-3.14-0.66-3.76c-0.44-0.62-0.99-0.93-1.64-0.93
			c-0.65,0-1.16,0.27-1.55,0.82C280.76,376.32,280.52,377.61,280.52,379.49z"/>
		<path d="M287.97,382.13l1.48-0.12c0.11,0.72,0.36,1.26,0.76,1.62c0.4,0.36,0.88,0.54,1.44,0.54c0.68,0,1.25-0.25,1.72-0.77
			c0.47-0.51,0.7-1.19,0.7-2.03c0-0.8-0.23-1.43-0.68-1.9c-0.45-0.46-1.04-0.7-1.77-0.7c-0.45,0-0.86,0.1-1.23,0.31
			c-0.36,0.21-0.65,0.47-0.86,0.8l-1.32-0.17l1.11-5.88h5.7v1.34h-4.57l-0.62,3.08c0.69-0.48,1.41-0.72,2.16-0.72
			c1,0,1.84,0.35,2.53,1.04c0.69,0.69,1.03,1.58,1.03,2.67c0,1.04-0.3,1.93-0.91,2.69c-0.73,0.93-1.74,1.39-3.01,1.39
			c-1.04,0-1.89-0.29-2.55-0.87C288.44,383.87,288.07,383.1,287.97,382.13z"/>
		<path d="M297.66,385.13v-1.6h1.6v1.6H297.66z"/>
		<path d="M305.83,385.13v-2.74h-4.97v-1.29l5.23-7.42h1.15v7.42h1.55v1.29h-1.55v2.74H305.83z M305.83,381.1v-5.16l-3.59,5.16
			H305.83z"/>
		<path d="M312.38,378.92c-0.58-0.21-1.02-0.52-1.3-0.91c-0.28-0.4-0.42-0.87-0.42-1.42c0-0.83,0.3-1.53,0.9-2.1
			c0.6-0.57,1.4-0.85,2.39-0.85c1,0,1.8,0.29,2.41,0.87c0.61,0.58,0.91,1.29,0.91,2.12c0,0.53-0.14,0.99-0.42,1.39
			c-0.28,0.39-0.7,0.7-1.27,0.91c0.7,0.23,1.24,0.6,1.61,1.11c0.37,0.51,0.55,1.12,0.55,1.83c0,0.98-0.35,1.8-1.04,2.47
			c-0.69,0.67-1.6,1-2.73,1s-2.04-0.33-2.73-1c-0.69-0.67-1.04-1.5-1.04-2.5c0-0.74,0.19-1.37,0.57-1.87
			C311.15,379.45,311.68,379.11,312.38,378.92z M311.65,381.83c0,0.4,0.09,0.79,0.29,1.16s0.47,0.67,0.85,0.87
			c0.38,0.21,0.78,0.31,1.21,0.31c0.67,0,1.23-0.22,1.66-0.65c0.44-0.43,0.66-0.98,0.66-1.65c0-0.68-0.23-1.24-0.68-1.68
			c-0.45-0.44-1.01-0.66-1.69-0.66c-0.66,0-1.21,0.22-1.64,0.66S311.65,381.17,311.65,381.83z M312.1,376.54
			c0,0.54,0.17,0.98,0.52,1.33s0.8,0.52,1.36,0.52c0.54,0,0.99-0.17,1.33-0.51c0.35-0.34,0.52-0.76,0.52-1.25
			c0-0.52-0.18-0.95-0.54-1.3s-0.8-0.53-1.33-0.53c-0.54,0-0.98,0.17-1.34,0.52S312.1,376.06,312.1,376.54z"/>
		<path d="M319.12,382.13l1.48-0.12c0.11,0.72,0.36,1.26,0.76,1.62c0.4,0.36,0.88,0.54,1.44,0.54c0.68,0,1.25-0.25,1.72-0.77
			c0.47-0.51,0.7-1.19,0.7-2.03c0-0.8-0.23-1.43-0.68-1.9c-0.45-0.46-1.04-0.7-1.77-0.7c-0.45,0-0.86,0.1-1.23,0.31
			c-0.36,0.21-0.65,0.47-0.86,0.8l-1.32-0.17l1.11-5.88h5.7v1.34h-4.57l-0.62,3.08c0.69-0.48,1.41-0.72,2.16-0.72
			c1,0,1.84,0.35,2.53,1.04c0.69,0.69,1.03,1.58,1.03,2.67c0,1.04-0.3,1.93-0.91,2.69c-0.73,0.93-1.74,1.39-3.01,1.39
			c-1.04,0-1.89-0.29-2.55-0.87C319.59,383.87,319.21,383.1,319.12,382.13z"/>
		<path d="M332.85,385.13v-8.3h1.26V378c0.26-0.41,0.61-0.73,1.04-0.98c0.43-0.25,0.92-0.37,1.48-0.37c0.61,0,1.12,0.13,1.51,0.38
			c0.39,0.26,0.67,0.61,0.83,1.07c0.66-0.97,1.51-1.45,2.56-1.45c0.82,0,1.46,0.23,1.9,0.68c0.44,0.46,0.66,1.16,0.66,2.11v5.7h-1.4
			v-5.23c0-0.56-0.05-0.97-0.14-1.21c-0.09-0.25-0.26-0.45-0.5-0.6c-0.24-0.15-0.52-0.23-0.84-0.23c-0.58,0-1.07,0.19-1.45,0.58
			c-0.39,0.39-0.58,1.01-0.58,1.86v4.82h-1.41v-5.39c0-0.62-0.11-1.09-0.34-1.41s-0.6-0.47-1.12-0.47c-0.4,0-0.76,0.1-1.1,0.31
			c-0.34,0.21-0.58,0.51-0.73,0.91c-0.15,0.4-0.23,0.98-0.23,1.73v4.3H332.85z"/>
		<path d="M346.18,385.13v-8.3h1.26V378c0.26-0.41,0.61-0.73,1.04-0.98c0.43-0.25,0.92-0.37,1.48-0.37c0.61,0,1.12,0.13,1.51,0.38
			c0.39,0.26,0.67,0.61,0.83,1.07c0.66-0.97,1.51-1.45,2.56-1.45c0.82,0,1.46,0.23,1.9,0.68c0.44,0.46,0.66,1.16,0.66,2.11v5.7h-1.4
			v-5.23c0-0.56-0.05-0.97-0.14-1.21c-0.09-0.25-0.26-0.45-0.5-0.6c-0.24-0.15-0.52-0.23-0.84-0.23c-0.58,0-1.07,0.19-1.45,0.58
			c-0.39,0.39-0.58,1.01-0.58,1.86v4.82h-1.41v-5.39c0-0.62-0.11-1.09-0.34-1.41s-0.6-0.47-1.12-0.47c-0.4,0-0.76,0.1-1.1,0.31
			c-0.34,0.21-0.58,0.51-0.73,0.91c-0.15,0.4-0.23,0.98-0.23,1.73v4.3H346.18z"/>
		<path d="M242.36,413.13v-11.45h1.52v4.7h5.95v-4.7h1.52v11.45h-1.52v-5.4h-5.95v5.4H242.36z"/>
		<path d="M258.52,406.44v-1.6h1.6v1.6H258.52z M258.52,413.13v-1.6h1.6v1.6H258.52z"/>
		<path d="M268.79,406.92c-0.58-0.21-1.02-0.52-1.3-0.91c-0.28-0.4-0.42-0.87-0.42-1.42c0-0.83,0.3-1.53,0.9-2.1
			c0.6-0.57,1.4-0.85,2.39-0.85c1,0,1.8,0.29,2.41,0.87c0.61,0.58,0.91,1.29,0.91,2.12c0,0.53-0.14,0.99-0.42,1.39
			c-0.28,0.39-0.7,0.7-1.27,0.91c0.7,0.23,1.24,0.6,1.61,1.11c0.37,0.51,0.55,1.12,0.55,1.83c0,0.98-0.35,1.8-1.04,2.47
			c-0.69,0.67-1.6,1-2.73,1s-2.04-0.33-2.73-1c-0.69-0.67-1.04-1.5-1.04-2.5c0-0.74,0.19-1.37,0.57-1.87
			C267.56,407.45,268.1,407.1,268.79,406.92z M268.06,409.83c0,0.4,0.09,0.79,0.29,1.16s0.47,0.67,0.85,0.87
			c0.38,0.21,0.78,0.31,1.21,0.31c0.67,0,1.23-0.22,1.66-0.65c0.44-0.43,0.66-0.98,0.66-1.65c0-0.68-0.23-1.24-0.68-1.68
			c-0.45-0.44-1.01-0.66-1.69-0.66c-0.66,0-1.21,0.22-1.64,0.66S268.06,409.17,268.06,409.83z M268.51,404.54
			c0,0.54,0.17,0.98,0.52,1.33s0.8,0.52,1.36,0.52c0.54,0,0.99-0.17,1.33-0.51c0.35-0.34,0.52-0.76,0.52-1.25
			c0-0.52-0.18-0.95-0.54-1.3s-0.8-0.53-1.33-0.53c-0.54,0-0.98,0.17-1.34,0.52S268.51,404.06,268.51,404.54z"/>
		<path d="M277.69,406.92c-0.58-0.21-1.02-0.52-1.3-0.91c-0.28-0.4-0.42-0.87-0.42-1.42c0-0.83,0.3-1.53,0.9-2.1
			c0.6-0.57,1.4-0.85,2.39-0.85c1,0,1.8,0.29,2.41,0.87c0.61,0.58,0.91,1.29,0.91,2.12c0,0.53-0.14,0.99-0.42,1.39
			c-0.28,0.39-0.7,0.7-1.27,0.91c0.7,0.23,1.24,0.6,1.61,1.11c0.37,0.51,0.55,1.12,0.55,1.83c0,0.98-0.35,1.8-1.04,2.47
			c-0.69,0.67-1.6,1-2.73,1s-2.04-0.33-2.73-1c-0.69-0.67-1.04-1.5-1.04-2.5c0-0.74,0.19-1.37,0.57-1.87
			C276.46,407.45,277,407.1,277.69,406.92z M276.96,409.83c0,0.4,0.09,0.79,0.29,1.16s0.47,0.67,0.85,0.87
			c0.38,0.21,0.78,0.31,1.21,0.31c0.67,0,1.23-0.22,1.66-0.65c0.44-0.43,0.66-0.98,0.66-1.65c0-0.68-0.23-1.24-0.68-1.68
			c-0.45-0.44-1.01-0.66-1.69-0.66c-0.66,0-1.21,0.22-1.64,0.66S276.96,409.17,276.96,409.83z M277.41,404.54
			c0,0.54,0.17,0.98,0.52,1.33s0.8,0.52,1.36,0.52c0.54,0,0.99-0.17,1.33-0.51c0.35-0.34,0.52-0.76,0.52-1.25
			c0-0.52-0.18-0.95-0.54-1.3s-0.8-0.53-1.33-0.53c-0.54,0-0.98,0.17-1.34,0.52S277.41,404.06,277.41,404.54z"/>
		<path d="M285.22,413.13v-1.6h1.6v1.6H285.22z"/>
		<path d="M296.26,411.78v1.35h-7.57c-0.01-0.34,0.04-0.66,0.16-0.98c0.19-0.52,0.5-1.02,0.93-1.52s1.04-1.08,1.84-1.73
			c1.25-1.02,2.09-1.83,2.52-2.43s0.66-1.16,0.66-1.69c0-0.56-0.2-1.03-0.6-1.41s-0.92-0.57-1.56-0.57c-0.68,0-1.22,0.2-1.62,0.61
			s-0.61,0.97-0.62,1.69l-1.45-0.15c0.1-1.08,0.47-1.9,1.12-2.46c0.65-0.56,1.51-0.85,2.6-0.85c1.1,0,1.97,0.3,2.61,0.91
			s0.96,1.36,0.96,2.27c0,0.46-0.09,0.91-0.28,1.35c-0.19,0.44-0.5,0.91-0.93,1.4c-0.43,0.49-1.16,1.16-2.17,2.02
			c-0.84,0.71-1.39,1.19-1.62,1.44c-0.24,0.25-0.44,0.51-0.59,0.76H296.26z"/>
		<path d="M302.61,413.13v-8.3h1.26V406c0.26-0.41,0.61-0.73,1.04-0.98c0.43-0.25,0.92-0.37,1.48-0.37c0.61,0,1.12,0.13,1.51,0.38
			c0.39,0.26,0.67,0.61,0.83,1.07c0.66-0.97,1.51-1.45,2.56-1.45c0.82,0,1.46,0.23,1.9,0.68c0.44,0.46,0.66,1.16,0.66,2.1v5.7h-1.4
			v-5.23c0-0.56-0.05-0.97-0.14-1.21c-0.09-0.25-0.26-0.45-0.5-0.6c-0.24-0.15-0.52-0.23-0.84-0.23c-0.58,0-1.07,0.19-1.45,0.58
			c-0.39,0.39-0.58,1.01-0.58,1.86v4.82h-1.41v-5.39c0-0.62-0.11-1.09-0.34-1.41s-0.6-0.47-1.12-0.47c-0.4,0-0.76,0.1-1.1,0.31
			c-0.34,0.21-0.58,0.51-0.73,0.91c-0.15,0.4-0.23,0.98-0.23,1.73v4.3H302.61z"/>
		<path d="M315.94,413.13v-8.3h1.26V406c0.26-0.41,0.61-0.73,1.04-0.98c0.43-0.25,0.92-0.37,1.48-0.37c0.61,0,1.12,0.13,1.51,0.38
			c0.39,0.26,0.67,0.61,0.83,1.07c0.66-0.97,1.51-1.45,2.56-1.45c0.82,0,1.46,0.23,1.9,0.68c0.44,0.46,0.66,1.16,0.66,2.1v5.7h-1.4
			v-5.23c0-0.56-0.05-0.97-0.14-1.21c-0.09-0.25-0.26-0.45-0.5-0.6c-0.24-0.15-0.52-0.23-0.84-0.23c-0.58,0-1.07,0.19-1.45,0.58
			c-0.39,0.39-0.58,1.01-0.58,1.86v4.82h-1.41v-5.39c0-0.62-0.11-1.09-0.34-1.41s-0.6-0.47-1.12-0.47c-0.4,0-0.76,0.1-1.1,0.31
			c-0.34,0.21-0.58,0.51-0.73,0.91c-0.15,0.4-0.23,0.98-0.23,1.73v4.3H315.94z"/>
	</g>
</g>
<g id="cut">
	<path d="M582.5,269.86l-565.47,0c-4.7,0-8.5,3.81-8.5,8.5l0,30.33h4.96l0-13.32h19.13l0-4.25c0-3.13,2.54-5.67,5.67-5.67l149.61,0
		c1.79,2.57,4.77,4.25,8.14,4.25s6.34-1.68,8.14-4.25l199.73,0c1.79,2.57,4.77,4.25,8.14,4.25s6.34-1.68,8.14-4.25l146.74,0
		c4.7,0,8.5,3.81,8.5,8.5l0,92.78c-2.57,1.79-4.25,4.77-4.25,8.14s1.68,6.34,4.25,8.14v92.78c0,4.7-3.81,8.5-8.5,8.5l-146.79,0
		c-1.79-2.56-4.76-4.23-8.12-4.23s-6.32,1.67-8.12,4.23l-199.86,0c-1.81-2.45-4.7-4.04-7.98-4.04c-3.28,0-6.17,1.59-7.98,4.04
		l-146.93,0c-4.7,0-8.5-3.81-8.5-8.5l0-92.78c2.57-1.79,4.25-4.77,4.25-8.14c0-3.37-1.68-6.34-4.25-8.14l0-40.34H13.49l0-13.32H8.52
		l0,26.28c0,1.67,0.74,3.26,2.01,4.33l6.49,5.48l0,142.2c0,4.7,3.81,8.5,8.5,8.5l556.97,0c4.7,0,8.5-3.81,8.5-8.5l0-233.01
		C591,273.67,587.2,269.86,582.5,269.86z M18.9,285.9c-3.13,0-5.67-2.54-5.67-5.67c0-3.13,2.54-5.67,5.67-5.67s5.67,2.54,5.67,5.67
		C24.57,283.37,22.03,285.9,18.9,285.9z M196.04,285.45c-3.13,0-5.67-2.54-5.67-5.67s2.54-5.67,5.67-5.67
		c3.13,0,5.67,2.54,5.67,5.67S199.17,285.45,196.04,285.45z M412.04,285.45c-3.13,0-5.67-2.54-5.67-5.67s2.54-5.67,5.67-5.67
		c3.13,0,5.67,2.54,5.67,5.67S415.17,285.45,412.04,285.45z M26.95,389.2c3.13,0,5.67,2.54,5.67,5.67c0,3.13-2.54,5.67-5.67,5.67
		c-3.13,0-5.67-2.54-5.67-5.67C21.28,391.74,23.82,389.2,26.95,389.2z M27.39,515.17c-3.13,0-5.67-2.54-5.67-5.67
		c0-3.13,2.54-5.67,5.67-5.67c3.13,0,5.67,2.54,5.67,5.67C33.06,512.63,30.52,515.17,27.39,515.17z M196.04,515.83
		c-3.13,0-5.67-2.54-5.67-5.67c0-3.13,2.54-5.67,5.67-5.67c3.13,0,5.67,2.54,5.67,5.67C201.71,513.29,199.17,515.83,196.04,515.83z
		 M417.52,511.27c-0.46,2.08-2.14,3.77-4.23,4.23c-4.14,0.92-7.74-2.69-6.82-6.82c0.46-2.08,2.14-3.77,4.23-4.23
		C414.83,503.53,418.44,507.14,417.52,511.27z M574.96,280.24c0-3.13,2.54-5.67,5.67-5.67c3.13,0,5.67,2.54,5.67,5.67
		c0,3.13-2.54,5.67-5.67,5.67C577.49,285.9,574.96,283.37,574.96,280.24z M580.63,515.17c-3.13,0-5.67-2.54-5.67-5.67
		c0-3.13,2.54-5.67,5.67-5.67c3.13,0,5.67,2.54,5.67,5.67C586.29,512.63,583.76,515.17,580.63,515.17z M586.61,396.16
		c-0.46,2.08-2.14,3.77-4.23,4.23c-4.14,0.92-7.74-2.69-6.82-6.82c0.46-2.08,2.14-3.77,4.23-4.23
		C583.92,388.42,587.52,392.03,586.61,396.16z"/>
</g>
<g id="graving">
	<g>
		<path class="st0" d="M225.72,58.44V46.99h4.87c1.22,0,2.11,0.1,2.67,0.31c0.55,0.21,1,0.57,1.33,1.1c0.33,0.53,0.5,1.13,0.5,1.8
			c0,0.86-0.25,1.57-0.76,2.13c-0.51,0.56-1.26,0.91-2.27,1.06c0.5,0.29,0.91,0.61,1.24,0.96c0.33,0.35,0.76,0.97,1.32,1.86
			l1.4,2.23h-2.77l-1.67-2.49c-0.59-0.89-1-1.45-1.22-1.68c-0.22-0.23-0.45-0.39-0.7-0.48c-0.25-0.09-0.63-0.13-1.16-0.13h-0.47
			v4.78H225.72z M228.03,51.84h1.71c1.11,0,1.8-0.05,2.08-0.14c0.28-0.09,0.49-0.25,0.65-0.48c0.16-0.23,0.23-0.52,0.23-0.86
			c0-0.39-0.1-0.7-0.31-0.93c-0.21-0.24-0.5-0.39-0.87-0.45c-0.19-0.03-0.75-0.04-1.69-0.04h-1.8V51.84z"/>
		<path class="st0" d="M242.05,55.8l2.19,0.37c-0.28,0.8-0.73,1.41-1.33,1.83c-0.61,0.42-1.37,0.63-2.28,0.63
			c-1.44,0-2.51-0.47-3.2-1.41c-0.55-0.75-0.82-1.71-0.82-2.86c0-1.38,0.36-2.45,1.08-3.23c0.72-0.78,1.63-1.17,2.73-1.17
			c1.23,0,2.21,0.41,2.92,1.22c0.71,0.82,1.05,2.06,1.02,3.75h-5.5c0.02,0.65,0.19,1.16,0.53,1.52c0.34,0.36,0.76,0.54,1.27,0.54
			c0.34,0,0.63-0.09,0.87-0.28S241.93,56.22,242.05,55.8z M242.18,53.59c-0.02-0.64-0.18-1.12-0.49-1.45
			c-0.31-0.33-0.69-0.5-1.14-0.5c-0.48,0-0.88,0.17-1.19,0.52c-0.31,0.35-0.47,0.82-0.46,1.42H242.18z"/>
		<path class="st0" d="M253.76,58.44h-2.04v-1.22c-0.34,0.47-0.74,0.83-1.2,1.06s-0.93,0.35-1.39,0.35c-0.95,0-1.77-0.38-2.45-1.15
			c-0.68-0.77-1.02-1.84-1.02-3.21c0-1.41,0.33-2.48,0.99-3.21c0.66-0.73,1.5-1.1,2.51-1.1c0.93,0,1.73,0.39,2.41,1.16v-4.12h2.2
			V58.44z M247.9,54.12c0,0.89,0.12,1.53,0.37,1.92c0.35,0.57,0.85,0.86,1.48,0.86c0.5,0,0.93-0.21,1.29-0.64
			c0.35-0.43,0.53-1.07,0.53-1.93c0-0.95-0.17-1.64-0.52-2.06c-0.34-0.42-0.78-0.63-1.32-0.63c-0.52,0-0.96,0.21-1.31,0.62
			S247.9,53.29,247.9,54.12z"/>
		<path class="st0" d="M262.01,52.68l-1.99-0.36c0.22-0.8,0.61-1.4,1.16-1.78c0.55-0.39,1.36-0.58,2.44-0.58
			c0.98,0,1.71,0.12,2.19,0.35c0.48,0.23,0.82,0.53,1.01,0.88c0.2,0.36,0.29,1.01,0.29,1.96l-0.02,2.56c0,0.73,0.04,1.27,0.11,1.61
			c0.07,0.35,0.2,0.72,0.39,1.11h-2.17c-0.06-0.15-0.13-0.36-0.21-0.65c-0.04-0.13-0.06-0.22-0.08-0.26
			c-0.38,0.36-0.78,0.64-1.2,0.82c-0.43,0.18-0.88,0.27-1.37,0.27c-0.85,0-1.53-0.23-2.02-0.7c-0.49-0.46-0.74-1.05-0.74-1.76
			c0-0.47,0.11-0.89,0.34-1.25c0.22-0.37,0.54-0.65,0.94-0.84c0.4-0.2,0.99-0.37,1.75-0.51c1.03-0.19,1.74-0.37,2.13-0.54v-0.22
			c0-0.42-0.1-0.72-0.31-0.9c-0.21-0.18-0.6-0.27-1.18-0.27c-0.39,0-0.7,0.08-0.91,0.23C262.32,52.02,262.14,52.29,262.01,52.68z
			 M264.94,54.46c-0.28,0.09-0.73,0.21-1.34,0.34c-0.61,0.13-1.01,0.26-1.2,0.38c-0.29,0.2-0.43,0.46-0.43,0.77
			c0,0.31,0.11,0.57,0.34,0.8c0.23,0.22,0.52,0.34,0.88,0.34c0.4,0,0.77-0.13,1.13-0.39c0.27-0.2,0.44-0.44,0.52-0.73
			c0.06-0.19,0.09-0.54,0.09-1.07V54.46z"/>
		<path class="st0" d="M271.37,58.44h-2.2v-8.3h2.04v1.18c0.35-0.56,0.66-0.92,0.94-1.1c0.28-0.18,0.59-0.27,0.95-0.27
			c0.5,0,0.98,0.14,1.45,0.41l-0.68,1.91c-0.37-0.24-0.71-0.36-1.03-0.36c-0.31,0-0.57,0.08-0.78,0.25
			c-0.21,0.17-0.38,0.48-0.5,0.92c-0.12,0.44-0.18,1.37-0.18,2.78V58.44z"/>
		<path class="st0" d="M280.3,55.8l2.19,0.37c-0.28,0.8-0.73,1.41-1.33,1.83c-0.61,0.42-1.37,0.63-2.28,0.63
			c-1.44,0-2.51-0.47-3.2-1.41c-0.55-0.75-0.82-1.71-0.82-2.86c0-1.38,0.36-2.45,1.08-3.23c0.72-0.78,1.63-1.17,2.73-1.17
			c1.23,0,2.21,0.41,2.92,1.22c0.71,0.82,1.05,2.06,1.02,3.75h-5.5c0.02,0.65,0.19,1.16,0.53,1.52c0.34,0.36,0.76,0.54,1.27,0.54
			c0.34,0,0.63-0.09,0.87-0.28S280.17,56.22,280.3,55.8z M280.42,53.59c-0.02-0.64-0.18-1.12-0.49-1.45
			c-0.31-0.33-0.69-0.5-1.14-0.5c-0.48,0-0.88,0.17-1.19,0.52c-0.31,0.35-0.47,0.82-0.46,1.42H280.42z"/>
		<path class="st0" d="M286.03,52.68l-1.99-0.36c0.22-0.8,0.61-1.4,1.16-1.78c0.55-0.39,1.36-0.58,2.44-0.58
			c0.98,0,1.71,0.12,2.19,0.35c0.48,0.23,0.82,0.53,1.01,0.88c0.2,0.36,0.29,1.01,0.29,1.96l-0.02,2.56c0,0.73,0.04,1.27,0.11,1.61
			c0.07,0.35,0.2,0.72,0.39,1.11h-2.17c-0.06-0.15-0.13-0.36-0.21-0.65c-0.04-0.13-0.06-0.22-0.08-0.26
			c-0.38,0.36-0.78,0.64-1.2,0.82c-0.43,0.18-0.88,0.27-1.37,0.27c-0.85,0-1.53-0.23-2.02-0.7c-0.49-0.46-0.74-1.05-0.74-1.76
			c0-0.47,0.11-0.89,0.34-1.25c0.22-0.37,0.54-0.65,0.94-0.84c0.4-0.2,0.99-0.37,1.75-0.51c1.03-0.19,1.74-0.37,2.13-0.54v-0.22
			c0-0.42-0.1-0.72-0.31-0.9c-0.21-0.18-0.6-0.27-1.18-0.27c-0.39,0-0.7,0.08-0.91,0.23C286.34,52.02,286.16,52.29,286.03,52.68z
			 M288.97,54.46c-0.28,0.09-0.73,0.21-1.34,0.34c-0.61,0.13-1.01,0.26-1.2,0.38c-0.29,0.2-0.43,0.46-0.43,0.77
			c0,0.31,0.11,0.57,0.34,0.8c0.23,0.22,0.52,0.34,0.88,0.34c0.4,0,0.77-0.13,1.13-0.39c0.27-0.2,0.44-0.44,0.52-0.73
			c0.06-0.19,0.09-0.54,0.09-1.07V54.46z"/>
		<path class="st0" d="M297.73,49.02v-2.03h2.2v2.03H297.73z M297.73,58.44v-8.3h2.2v8.3H297.73z"/>
		<path class="st0" d="M301.4,56.08l2.2-0.34c0.09,0.43,0.28,0.75,0.57,0.97c0.29,0.22,0.69,0.33,1.2,0.33
			c0.57,0,0.99-0.1,1.28-0.31c0.19-0.15,0.29-0.34,0.29-0.59c0-0.17-0.05-0.3-0.16-0.41c-0.11-0.1-0.35-0.2-0.73-0.29
			c-1.77-0.39-2.89-0.75-3.37-1.07c-0.66-0.45-0.98-1.07-0.98-1.87c0-0.72,0.28-1.32,0.85-1.81c0.57-0.49,1.45-0.73,2.64-0.73
			c1.14,0,1.98,0.19,2.53,0.55c0.55,0.37,0.93,0.92,1.14,1.64l-2.07,0.38c-0.09-0.32-0.26-0.57-0.5-0.74
			c-0.25-0.17-0.6-0.26-1.06-0.26c-0.58,0-0.99,0.08-1.24,0.24c-0.17,0.11-0.25,0.26-0.25,0.45c0,0.16,0.07,0.29,0.22,0.4
			c0.2,0.15,0.88,0.35,2.05,0.62c1.17,0.27,1.99,0.59,2.45,0.98c0.46,0.39,0.69,0.94,0.69,1.63c0,0.76-0.32,1.41-0.95,1.96
			c-0.64,0.55-1.58,0.82-2.82,0.82c-1.13,0-2.02-0.23-2.68-0.69C302.04,57.49,301.61,56.86,301.4,56.08z"/>
		<path class="st0" d="M320.87,54.23V52.3h4.98v4.56c-0.48,0.47-1.19,0.88-2.11,1.24c-0.92,0.36-1.85,0.54-2.79,0.54
			c-1.2,0-2.24-0.25-3.13-0.75c-0.89-0.5-1.56-1.22-2.01-2.16c-0.45-0.93-0.67-1.95-0.67-3.05c0-1.19,0.25-2.25,0.75-3.18
			c0.5-0.93,1.23-1.64,2.2-2.13c0.73-0.38,1.65-0.57,2.74-0.57c1.42,0,2.53,0.3,3.33,0.89c0.8,0.6,1.31,1.42,1.54,2.47l-2.3,0.43
			c-0.16-0.56-0.46-1.01-0.91-1.33c-0.45-0.33-1-0.49-1.67-0.49c-1.01,0-1.81,0.32-2.41,0.96c-0.6,0.64-0.89,1.59-0.89,2.85
			c0,1.36,0.3,2.38,0.91,3.06c0.6,0.68,1.4,1.02,2.38,1.02c0.48,0,0.97-0.09,1.46-0.29c0.49-0.19,0.9-0.42,1.25-0.69v-1.45H320.87z"
			/>
		<path class="st0" d="M330.07,58.44h-2.2v-8.3h2.04v1.18c0.35-0.56,0.66-0.92,0.94-1.1c0.28-0.18,0.59-0.27,0.95-0.27
			c0.5,0,0.98,0.14,1.45,0.41l-0.68,1.91c-0.37-0.24-0.71-0.36-1.03-0.36c-0.31,0-0.57,0.08-0.78,0.25
			c-0.21,0.17-0.38,0.48-0.5,0.92c-0.12,0.44-0.18,1.37-0.18,2.78V58.44z"/>
		<path class="st0" d="M335.83,52.68l-1.99-0.36c0.22-0.8,0.61-1.4,1.16-1.78c0.55-0.39,1.36-0.58,2.44-0.58
			c0.98,0,1.71,0.12,2.19,0.35c0.48,0.23,0.82,0.53,1.01,0.88c0.2,0.36,0.29,1.01,0.29,1.96l-0.02,2.56c0,0.73,0.04,1.27,0.11,1.61
			c0.07,0.35,0.2,0.72,0.39,1.11h-2.17c-0.06-0.15-0.13-0.36-0.21-0.65c-0.04-0.13-0.06-0.22-0.08-0.26
			c-0.38,0.36-0.78,0.64-1.2,0.82c-0.43,0.18-0.88,0.27-1.37,0.27c-0.85,0-1.53-0.23-2.02-0.7c-0.49-0.46-0.74-1.05-0.74-1.76
			c0-0.47,0.11-0.89,0.34-1.25c0.22-0.37,0.54-0.65,0.94-0.84c0.4-0.2,0.99-0.37,1.75-0.51c1.03-0.19,1.74-0.37,2.13-0.54v-0.22
			c0-0.42-0.1-0.72-0.31-0.9c-0.21-0.18-0.6-0.27-1.18-0.27c-0.39,0-0.7,0.08-0.91,0.23C336.15,52.02,335.97,52.29,335.83,52.68z
			 M338.77,54.46c-0.28,0.09-0.73,0.21-1.34,0.34c-0.61,0.13-1.01,0.26-1.2,0.38c-0.29,0.2-0.43,0.46-0.43,0.77
			c0,0.31,0.11,0.57,0.34,0.8c0.23,0.22,0.52,0.34,0.88,0.34c0.4,0,0.77-0.13,1.13-0.39c0.27-0.2,0.44-0.44,0.52-0.73
			c0.06-0.19,0.09-0.54,0.09-1.07V54.46z"/>
		<path class="st0" d="M345.37,58.44l-3.34-8.3h2.3l1.56,4.23l0.45,1.41c0.12-0.36,0.2-0.6,0.23-0.71c0.07-0.23,0.15-0.47,0.23-0.7
			l1.58-4.23h2.26l-3.3,8.3H345.37z"/>
		<path class="st0" d="M351.99,49.02v-2.03h2.2v2.03H351.99z M351.99,58.44v-8.3h2.2v8.3H351.99z"/>
		<path class="st0" d="M363.98,58.44h-2.2v-4.23c0-0.9-0.05-1.48-0.14-1.74c-0.09-0.26-0.25-0.47-0.46-0.61
			c-0.21-0.15-0.46-0.22-0.76-0.22c-0.38,0-0.72,0.1-1.02,0.31c-0.3,0.21-0.51,0.48-0.62,0.83c-0.11,0.34-0.17,0.98-0.17,1.91v3.76
			h-2.2v-8.3h2.04v1.22c0.72-0.94,1.64-1.41,2.73-1.41c0.48,0,0.93,0.09,1.33,0.26c0.4,0.17,0.7,0.4,0.91,0.67
			c0.21,0.27,0.35,0.58,0.43,0.92c0.08,0.34,0.12,0.84,0.12,1.48V58.44z"/>
		<path class="st0" d="M366.01,58.99l2.51,0.3c0.04,0.29,0.14,0.49,0.29,0.6c0.21,0.16,0.54,0.23,0.98,0.23c0.57,0,1-0.09,1.29-0.26
			c0.19-0.11,0.34-0.3,0.44-0.55c0.07-0.18,0.1-0.52,0.1-1.01V57.1c-0.66,0.9-1.48,1.34-2.48,1.34c-1.11,0-2-0.47-2.65-1.41
			c-0.51-0.74-0.77-1.67-0.77-2.78c0-1.39,0.33-2.45,1-3.19c0.67-0.73,1.5-1.1,2.5-1.1c1.03,0,1.87,0.45,2.54,1.35v-1.16h2.05v7.45
			c0,0.98-0.08,1.71-0.24,2.2c-0.16,0.48-0.39,0.86-0.68,1.14c-0.29,0.28-0.68,0.49-1.17,0.65c-0.49,0.16-1.1,0.23-1.85,0.23
			c-1.41,0-2.4-0.24-2.99-0.72C366.29,60.61,366,60,366,59.26C366,59.18,366,59.1,366.01,58.99z M367.97,54.12
			c0,0.88,0.17,1.52,0.51,1.93c0.34,0.41,0.76,0.61,1.26,0.61c0.54,0,0.99-0.21,1.36-0.63c0.37-0.42,0.55-1.04,0.55-1.86
			c0-0.86-0.18-1.5-0.53-1.91c-0.35-0.42-0.8-0.62-1.34-0.62c-0.53,0-0.96,0.2-1.3,0.61C368.14,52.66,367.97,53.29,367.97,54.12z"/>
	</g>
	<g>
		<path d="M582.52,8.5H17.01c-4.7,0-8.5,3.81-8.5,8.5V98c0,1.67,0.74,3.26,2.01,4.33l6.49,5.48v142.2c0,4.7,3.81,8.5,8.5,8.5h557.01
			c4.7,0,8.5-3.81,8.5-8.5V17.01C591.02,12.31,587.22,8.5,582.52,8.5z M580.6,16.05c1.57,0,2.83,1.27,2.83,2.83
			c0,1.57-1.27,2.83-2.83,2.83c-1.57,0-2.83-1.27-2.83-2.83C577.77,17.32,579.04,16.05,580.6,16.05z M412.02,15.59
			c1.57,0,2.83,1.27,2.83,2.83s-1.27,2.83-2.83,2.83c-1.57,0-2.83-1.27-2.83-2.83S410.45,15.59,412.02,15.59z M196.02,15.59
			c1.57,0,2.83,1.27,2.83,2.83s-1.27,2.83-2.83,2.83c-1.57,0-2.83-1.27-2.83-2.83S194.45,15.59,196.02,15.59z M18.88,21.72
			c-1.57,0-2.83-1.27-2.83-2.83c0-1.57,1.27-2.83,2.83-2.83c1.57,0,2.83,1.27,2.83,2.83C21.72,20.45,20.45,21.72,18.88,21.72z
			 M26.93,130.68c1.57,0,2.83,1.27,2.83,2.83c0,1.57-1.27,2.83-2.83,2.83c-1.57,0-2.83-1.27-2.83-2.83
			C24.09,131.95,25.36,130.68,26.93,130.68z M27.37,250.98c-1.57,0-2.83-1.27-2.83-2.83c0-1.57,1.27-2.83,2.83-2.83
			c1.57,0,2.83,1.27,2.83,2.83C30.21,249.71,28.94,250.98,27.37,250.98z M196.02,251.64c-1.57,0-2.83-1.27-2.83-2.83
			c0-1.57,1.27-2.83,2.83-2.83c1.57,0,2.83,1.27,2.83,2.83C198.85,250.37,197.58,251.64,196.02,251.64z M412.02,251.46
			c-1.57,0-2.83-1.27-2.83-2.83c0-1.57,1.27-2.83,2.83-2.83c1.57,0,2.83,1.27,2.83,2.83C414.85,250.19,413.58,251.46,412.02,251.46z
			 M575.43,241.51c0,0.78-0.63,1.42-1.42,1.42h-53.82c-0.78,0-1.42-0.63-1.42-1.42v-49.61c0-1.57-1.27-2.83-2.83-2.83h-39.12
			c-1.57,0-2.83,1.27-2.83,2.83v49.61c0,0.78-0.63,1.42-1.42,1.42H135.44c-0.78,0-1.42-0.63-1.42-1.42v-49.61
			c0-1.57-1.27-2.83-2.83-2.83H92.07c-1.57,0-2.83,1.27-2.83,2.83v49.61c0,0.78-0.63,1.42-1.42,1.42H34.02
			c-0.78,0-1.42-0.63-1.42-1.42v-216c0-0.78,0.63-1.42,1.42-1.42h540c0.78,0,1.42,0.63,1.42,1.42V241.51z M580.6,250.98
			c-1.57,0-2.83-1.27-2.83-2.83c0-1.57,1.27-2.83,2.83-2.83c1.57,0,2.83,1.27,2.83,2.83C583.44,249.71,582.17,250.98,580.6,250.98z
			 M581.1,136.35c-1.57,0-2.83-1.27-2.83-2.83c0-1.57,1.27-2.83,2.83-2.83c1.57,0,2.83,1.27,2.83,2.83
			C583.94,135.08,582.67,136.35,581.1,136.35z"/>
		<g>
			<path class="st0" d="M15.96,47.28h3.59c2.4,0,4.02,0.09,4.87,0.28c0.85,0.19,1.54,0.66,2.07,1.42c0.54,0.76,0.8,1.97,0.8,3.64
				c0,1.52-0.19,2.54-0.57,3.06s-1.12,0.84-2.23,0.94c1,0.25,1.68,0.58,2.03,1c0.35,0.42,0.56,0.8,0.64,1.15
				c0.09,0.35,0.13,1.31,0.13,2.89v5.15h-4.72v-6.49c0-1.05-0.08-1.69-0.25-1.94c-0.17-0.25-0.6-0.37-1.3-0.37v8.81h-5.08V47.28z
				 M21.04,50.62v4.34c0.57,0,0.97-0.08,1.2-0.24c0.23-0.16,0.34-0.67,0.34-1.53v-1.07c0-0.62-0.11-1.03-0.33-1.22
				C22.03,50.72,21.63,50.62,21.04,50.62z"/>
		</g>
		<g>
			<path class="st0" d="M20.24,72.75c0.34,0.11,0.59,0.3,0.76,0.56c0.17,0.26,0.25,0.87,0.25,1.83c0,0.71-0.08,1.27-0.24,1.66
				c-0.16,0.39-0.44,0.69-0.84,0.9c-0.4,0.21-0.91,0.31-1.54,0.31c-0.71,0-1.27-0.12-1.67-0.36c-0.41-0.24-0.67-0.53-0.8-0.88
				c-0.13-0.35-0.19-0.95-0.19-1.8v-0.71h2.24v1.46c0,0.39,0.02,0.64,0.07,0.74c0.05,0.11,0.15,0.16,0.31,0.16
				c0.17,0,0.29-0.07,0.34-0.2c0.06-0.13,0.08-0.48,0.08-1.04v-0.62c0-0.34-0.04-0.6-0.12-0.75c-0.08-0.16-0.19-0.26-0.34-0.31
				c-0.15-0.05-0.45-0.08-0.88-0.09v-1.3c0.53,0,0.86-0.02,0.99-0.06c0.13-0.04,0.22-0.13,0.27-0.27s0.08-0.35,0.08-0.64v-0.5
				c0-0.31-0.03-0.52-0.1-0.62c-0.06-0.1-0.16-0.15-0.3-0.15c-0.16,0-0.26,0.05-0.32,0.16c-0.06,0.11-0.09,0.33-0.09,0.67v0.74
				h-2.24v-0.77c0-0.86,0.2-1.44,0.59-1.74s1.02-0.45,1.87-0.45c1.07,0,1.79,0.21,2.17,0.63s0.57,1,0.57,1.74
				c0,0.5-0.07,0.87-0.21,1.09C20.82,72.36,20.58,72.56,20.24,72.75z"/>
			<path class="st0" d="M26.29,72.75c0.34,0.11,0.59,0.3,0.76,0.56c0.17,0.26,0.25,0.87,0.25,1.83c0,0.71-0.08,1.27-0.24,1.66
				c-0.16,0.39-0.44,0.69-0.84,0.9c-0.4,0.21-0.91,0.31-1.54,0.31c-0.71,0-1.27-0.12-1.67-0.36c-0.41-0.24-0.67-0.53-0.8-0.88
				c-0.13-0.35-0.19-0.95-0.19-1.8v-0.71h2.24v1.46c0,0.39,0.02,0.64,0.07,0.74c0.05,0.11,0.15,0.16,0.31,0.16
				c0.17,0,0.29-0.07,0.34-0.2c0.06-0.13,0.08-0.48,0.08-1.04v-0.62c0-0.34-0.04-0.6-0.12-0.75s-0.19-0.26-0.34-0.31
				c-0.15-0.05-0.45-0.08-0.88-0.09v-1.3c0.53,0,0.86-0.02,0.99-0.06c0.13-0.04,0.22-0.13,0.27-0.27c0.06-0.14,0.08-0.35,0.08-0.64
				v-0.5c0-0.31-0.03-0.52-0.1-0.62c-0.06-0.1-0.16-0.15-0.3-0.15c-0.16,0-0.26,0.05-0.32,0.16c-0.06,0.11-0.09,0.33-0.09,0.67v0.74
				h-2.24v-0.77c0-0.86,0.2-1.44,0.59-1.74c0.39-0.3,1.02-0.45,1.87-0.45c1.07,0,1.79,0.21,2.17,0.63c0.38,0.42,0.57,1,0.57,1.74
				c0,0.5-0.07,0.87-0.21,1.09C26.87,72.36,26.63,72.56,26.29,72.75z"/>
		</g>
	</g>
	<g>
	</g>
	<g>
	</g>
	<g>
	</g>
	<g>
	</g>
	<g>
	</g>
	<g>
	</g>
</g>
</svg>
