G04 #@! TF.GenerationSoftware,KiCad,Pcbnew,8.0.3*
G04 #@! TF.CreationDate,2024-07-31T18:51:57+09:00*
G04 #@! TF.ProjectId,reviung46,72657669-756e-4673-9436-2e6b69636164,ver 0.1*
G04 #@! TF.SameCoordinates,Original*
G04 #@! TF.FileFunction,Paste,Bot*
G04 #@! TF.FilePolarity,Positive*
%FSLAX46Y46*%
G04 Gerber Fmt 4.6, Leading zero omitted, Abs format (unit mm)*
G04 Created by KiCad (PCBNEW 8.0.3) date 2024-07-31 18:51:57*
%MOMM*%
%LPD*%
G01*
G04 APERTURE LIST*
%ADD10R,2.550000X2.500000*%
%ADD11R,0.950000X1.300000*%
G04 APERTURE END LIST*
D10*
X208347500Y-60480000D03*
X221274500Y-57940000D03*
X146435000Y-41430000D03*
X159362000Y-38890000D03*
X163103750Y-98580000D03*
X176030750Y-96040000D03*
X179772500Y-79530000D03*
X192699500Y-76990000D03*
X279667500Y-65560000D03*
X266740500Y-68100000D03*
X160722500Y-79530000D03*
X173649500Y-76990000D03*
X277403750Y-60480000D03*
X290330750Y-57940000D03*
X284547500Y-98580000D03*
X297474500Y-96040000D03*
X22610000Y-103342500D03*
X35537000Y-100802500D03*
X189297500Y-60480000D03*
X202224500Y-57940000D03*
X258353750Y-98580000D03*
X271280750Y-96040000D03*
X284547500Y-41430000D03*
X297474500Y-38890000D03*
X60710000Y-103342500D03*
X73637000Y-100802500D03*
X260735000Y-41430000D03*
X273662000Y-38890000D03*
X217872500Y-79530000D03*
X230799500Y-76990000D03*
X227397500Y-60480000D03*
X240324500Y-57940000D03*
X241685000Y-41430000D03*
X254612000Y-38890000D03*
X65472500Y-41430000D03*
X78399500Y-38890000D03*
X82023750Y-65560000D03*
X69096750Y-68100000D03*
X41660000Y-103342500D03*
X54587000Y-100802500D03*
X236922500Y-79530000D03*
X249849500Y-76990000D03*
X115478750Y-98580000D03*
X128405750Y-96040000D03*
X89285000Y-41430000D03*
X102212000Y-38890000D03*
X122622500Y-79530000D03*
X135549500Y-76990000D03*
X113097500Y-60480000D03*
X126024500Y-57940000D03*
X63091250Y-60480000D03*
X76018250Y-57940000D03*
X141672500Y-79530000D03*
X154599500Y-76990000D03*
X41660000Y-84292500D03*
X54587000Y-81752500D03*
X74997500Y-79530000D03*
X87924500Y-76990000D03*
X89285000Y-98580000D03*
X102212000Y-96040000D03*
X234541250Y-98580000D03*
X247468250Y-96040000D03*
X246447500Y-60480000D03*
X259374500Y-57940000D03*
X108335000Y-41430000D03*
X121262000Y-38890000D03*
X162986250Y-103660000D03*
X150059250Y-106200000D03*
X272641250Y-79530000D03*
X285568250Y-76990000D03*
X196441250Y-98580000D03*
X209368250Y-96040000D03*
X296336250Y-84610000D03*
X283409250Y-87150000D03*
X127385000Y-41430000D03*
X140312000Y-38890000D03*
X170247500Y-60480000D03*
X183174500Y-57940000D03*
X184535000Y-41430000D03*
X197462000Y-38890000D03*
X94047500Y-60480000D03*
X106974500Y-57940000D03*
X132147500Y-60480000D03*
X145074500Y-57940000D03*
X151197500Y-60480000D03*
X164124500Y-57940000D03*
X270142500Y-84610000D03*
X257215500Y-87150000D03*
X165485000Y-41430000D03*
X178412000Y-38890000D03*
X103572500Y-79530000D03*
X116499500Y-76990000D03*
X198822500Y-79530000D03*
X211749500Y-76990000D03*
X301098750Y-65560000D03*
X288171750Y-68100000D03*
X222635000Y-41430000D03*
X235562000Y-38890000D03*
X203585000Y-41430000D03*
X216512000Y-38890000D03*
D11*
X274238750Y-89945000D03*
X274238750Y-93495000D03*
X228900000Y-89945000D03*
X228900000Y-93495000D03*
X131363750Y-89945000D03*
X131363750Y-93495000D03*
X157557500Y-70895000D03*
X157557500Y-74445000D03*
X205182500Y-51845000D03*
X205182500Y-55395000D03*
X282170000Y-32755000D03*
X282170000Y-36305000D03*
X224232500Y-51845000D03*
X224232500Y-55395000D03*
X148032500Y-51845000D03*
X148032500Y-55395000D03*
X178750000Y-89945000D03*
X178750000Y-93495000D03*
X128982500Y-51845000D03*
X128982500Y-55395000D03*
X233757500Y-70895000D03*
X233757500Y-74445000D03*
X276620000Y-32795000D03*
X276620000Y-36345000D03*
X167082500Y-51845000D03*
X167082500Y-55395000D03*
X257570000Y-32795000D03*
X257570000Y-36345000D03*
X138507500Y-70895000D03*
X138507500Y-74445000D03*
X266300000Y-51845000D03*
X266300000Y-55395000D03*
X262332500Y-51845000D03*
X262332500Y-55395000D03*
X109932500Y-51845000D03*
X109932500Y-55395000D03*
X100250000Y-70895000D03*
X100250000Y-74445000D03*
X278100000Y-51845000D03*
X278100000Y-55395000D03*
X256000000Y-70895000D03*
X256000000Y-74445000D03*
X143270000Y-32795000D03*
X143270000Y-36345000D03*
X238520000Y-32795000D03*
X238520000Y-36345000D03*
X186132500Y-51845000D03*
X186132500Y-55395000D03*
X243282500Y-51845000D03*
X243282500Y-55395000D03*
X261300000Y-70895000D03*
X261300000Y-74445000D03*
X176607500Y-70895000D03*
X176607500Y-74445000D03*
X119457500Y-70895000D03*
X119457500Y-74445000D03*
X124220000Y-32795000D03*
X124220000Y-36345000D03*
X214707500Y-70895000D03*
X214707500Y-74445000D03*
X252807500Y-70895000D03*
X252807500Y-74445000D03*
X181370000Y-32795000D03*
X181370000Y-36345000D03*
X200420000Y-32795000D03*
X200420000Y-36345000D03*
X195657500Y-70895000D03*
X195657500Y-74445000D03*
X162320000Y-32795000D03*
X162320000Y-36345000D03*
X105170000Y-89945000D03*
X105170000Y-93495000D03*
X38495000Y-94707500D03*
X38495000Y-98257500D03*
X250426250Y-89945000D03*
X250426250Y-93495000D03*
X79200000Y-51845000D03*
X79200000Y-55395000D03*
X57545000Y-94707500D03*
X57545000Y-98257500D03*
X57545000Y-75657500D03*
X57545000Y-79207500D03*
X105170000Y-32795000D03*
X105170000Y-36345000D03*
X81357500Y-32795000D03*
X81357500Y-36345000D03*
X219470000Y-32795000D03*
X219470000Y-36345000D03*
X76595000Y-94707500D03*
X76595000Y-98257500D03*
X278100000Y-89945000D03*
X278100000Y-93495000D03*
M02*
