M48
; DRILL file {KiCad 8.0.3} date 2024-07-31T18:51:42+0900
; FORMAT={-:-/ absolute / metric / decimal}
; #@! TF.CreationDate,2024-07-31T18:51:42+09:00
; #@! TF.GenerationSoftware,Kicad,Pcbnew,8.0.3
; #@! TF.FileFunction,NonPlated,1,2,NPTH
FMAT,2
METRIC
; #@! TA.AperFunction,NonPlated,NPTH,ComponentDrill
T1C1.750
; #@! TA.AperFunction,NonPlated,NPTH,ComponentDrill
T2C2.200
; #@! TA.AperFunction,NonPlated,NPTH,ComponentDrill
T3C3.000
; #@! TA.AperFunction,NonPlated,NPTH,ComponentDrill
T4C3.048
; #@! TA.AperFunction,NonPlated,NPTH,ComponentDrill
T5C3.988
%
G90
G05
T1
X24.615Y-105.882
X34.775Y-105.882
X43.665Y-86.832
X43.665Y-105.882
X53.825Y-86.832
X53.825Y-105.882
X62.715Y-105.882
X65.096Y-63.02
X67.477Y-43.97
X69.859Y-63.02
X72.875Y-105.882
X75.256Y-63.02
X77.002Y-82.07
X77.638Y-43.97
X80.019Y-63.02
X87.162Y-82.07
X91.29Y-43.97
X91.29Y-101.12
X96.052Y-63.02
X101.45Y-43.97
X101.45Y-101.12
X105.578Y-82.07
X106.212Y-63.02
X110.34Y-43.97
X115.102Y-63.02
X115.737Y-82.07
X117.484Y-101.12
X120.5Y-43.97
X124.627Y-82.07
X125.262Y-63.02
X127.644Y-101.12
X129.39Y-43.97
X134.153Y-63.02
X134.787Y-82.07
X139.55Y-43.97
X143.677Y-82.07
X144.312Y-63.02
X148.44Y-43.97
X150.821Y-101.12
X153.202Y-63.02
X153.838Y-82.07
X158.6Y-43.97
X160.981Y-101.12
X162.727Y-82.07
X163.362Y-63.02
X165.109Y-101.12
X167.49Y-43.97
X172.252Y-63.02
X172.887Y-82.07
X175.269Y-101.12
X177.65Y-43.97
X181.778Y-82.07
X182.412Y-63.02
X186.54Y-43.97
X191.302Y-63.02
X191.938Y-82.07
X196.7Y-43.97
X198.446Y-101.12
X200.827Y-82.07
X201.462Y-63.02
X205.59Y-43.97
X208.606Y-101.12
X210.352Y-63.02
X210.987Y-82.07
X215.75Y-43.97
X219.877Y-82.07
X220.512Y-63.02
X224.64Y-43.97
X229.403Y-63.02
X230.037Y-82.07
X234.8Y-43.97
X236.546Y-101.12
X238.927Y-82.07
X239.562Y-63.02
X243.69Y-43.97
X246.706Y-101.12
X248.452Y-63.02
X249.087Y-82.07
X253.85Y-43.97
X257.977Y-82.07
X258.613Y-63.02
X260.359Y-101.12
X262.74Y-43.97
X267.502Y-63.02
X268.137Y-82.07
X270.519Y-101.12
X272.9Y-43.97
X274.646Y-82.07
X277.662Y-63.02
X279.409Y-63.02
X284.171Y-82.07
X284.806Y-82.07
X286.553Y-43.97
X286.553Y-101.12
X288.934Y-63.02
X289.569Y-63.02
X294.331Y-82.07
X296.712Y-43.97
X296.712Y-101.12
X299.094Y-63.02
T3
X25.885Y-103.343
X32.235Y-100.802
X44.935Y-84.292
X44.935Y-103.343
X51.285Y-81.752
X51.285Y-100.802
X63.985Y-103.343
X66.366Y-60.48
X68.748Y-41.43
X70.335Y-100.802
X72.399Y-68.1
X72.716Y-57.94
X75.097Y-38.89
X78.272Y-79.53
X78.749Y-65.56
X84.623Y-76.99
X92.56Y-41.43
X92.56Y-98.58
X97.322Y-60.48
X98.91Y-38.89
X98.91Y-96.04
X103.672Y-57.94
X106.847Y-79.53
X111.61Y-41.43
X113.197Y-76.99
X116.372Y-60.48
X117.96Y-38.89
X118.754Y-98.58
X122.722Y-57.94
X125.104Y-96.04
X125.897Y-79.53
X130.66Y-41.43
X132.248Y-76.99
X135.422Y-60.48
X137.01Y-38.89
X141.772Y-57.94
X144.947Y-79.53
X149.71Y-41.43
X151.297Y-76.99
X153.361Y-106.2
X154.472Y-60.48
X156.06Y-38.89
X159.711Y-103.66
X160.822Y-57.94
X163.998Y-79.53
X166.379Y-98.58
X168.76Y-41.43
X170.347Y-76.99
X172.729Y-96.04
X173.522Y-60.48
X175.11Y-38.89
X179.873Y-57.94
X183.047Y-79.53
X187.81Y-41.43
X189.397Y-76.99
X192.572Y-60.48
X194.16Y-38.89
X198.922Y-57.94
X199.716Y-98.58
X202.097Y-79.53
X206.066Y-96.04
X206.86Y-41.43
X208.447Y-76.99
X211.623Y-60.48
X213.21Y-38.89
X217.972Y-57.94
X221.147Y-79.53
X225.91Y-41.43
X227.498Y-76.99
X230.672Y-60.48
X232.26Y-38.89
X237.022Y-57.94
X237.816Y-98.58
X240.197Y-79.53
X244.166Y-96.04
X244.96Y-41.43
X246.547Y-76.99
X249.722Y-60.48
X251.31Y-38.89
X256.072Y-57.94
X260.517Y-87.15
X261.629Y-98.58
X264.01Y-41.43
X266.868Y-84.61
X267.979Y-96.04
X270.042Y-68.1
X270.36Y-38.89
X275.916Y-79.53
X276.392Y-65.56
X280.679Y-60.48
X282.266Y-76.99
X286.711Y-87.15
X287.029Y-57.94
X287.822Y-41.43
X287.822Y-98.58
X291.474Y-68.1
X293.061Y-84.61
X294.173Y-38.89
X294.173Y-96.04
X297.824Y-65.56
T4
X70.144Y-89.055
X94.02Y-89.055
X120.189Y-108.105
X143.963Y-108.105
X167.839Y-108.105
X191.588Y-108.105
X215.464Y-108.105
X220.189Y-108.105
X267.788Y-89.055
X272.551Y-70.005
X291.664Y-89.055
X296.427Y-70.005
T5
X29.695Y-105.882
X48.745Y-86.832
X48.745Y-105.882
X67.795Y-105.882
X70.144Y-73.815
X70.176Y-63.02
X72.557Y-43.97
X74.939Y-63.02
X82.082Y-82.07
X94.02Y-73.815
X96.37Y-43.97
X96.37Y-101.12
X101.132Y-63.02
X110.657Y-82.07
X115.42Y-43.97
X120.182Y-63.02
X120.189Y-92.865
X122.564Y-101.12
X129.707Y-82.07
X134.47Y-43.97
X139.232Y-63.02
X143.963Y-92.865
X148.757Y-82.07
X153.52Y-43.97
X155.901Y-101.12
X158.282Y-63.02
X167.808Y-82.07
X167.839Y-92.865
X170.189Y-101.12
X172.57Y-43.97
X177.332Y-63.02
X186.857Y-82.07
X191.588Y-92.865
X191.62Y-43.97
X196.382Y-63.02
X203.526Y-101.12
X205.907Y-82.07
X210.67Y-43.97
X215.432Y-63.02
X215.464Y-92.865
X220.189Y-92.865
X224.957Y-82.07
X229.72Y-43.97
X234.482Y-63.02
X241.626Y-101.12
X244.007Y-82.07
X248.77Y-43.97
X253.532Y-63.02
X263.058Y-82.07
X265.439Y-101.12
X267.788Y-73.815
X267.82Y-43.97
X272.551Y-54.765
X272.582Y-63.02
X279.726Y-82.07
X284.489Y-63.02
X289.251Y-82.07
X291.632Y-43.97
X291.632Y-101.12
X291.664Y-73.815
X294.014Y-63.02
X296.427Y-54.765
T2
X147.375Y-67.725G85X150.175Y-67.725
G05
X209.635Y-105.935G85X212.435Y-105.935
G05
X279.21Y-48.615G85X282.01Y-48.615
G05
M30
