M48
; DRILL file {KiCad 8.0.3} date 2024-07-31T18:51:42+0900
; FORMAT={-:-/ absolute / metric / decimal}
; #@! TF.CreationDate,2024-07-31T18:51:42+09:00
; #@! TF.GenerationSoftware,Kicad,Pcbnew,8.0.3
; #@! TF.FileFunction,Plated,1,2,PTH
FMAT,2
METRIC
; #@! TA.AperFunction,Plated,PTH,ViaDrill
T1C0.300
; #@! TA.AperFunction,Plated,PTH,ViaDrill
T2C0.500
; #@! TA.AperFunction,Plated,PTH,ComponentDrill
T3C0.813
; #@! TA.AperFunction,Plated,PTH,ComponentDrill
T4C1.300
; #@! TA.AperFunction,Plated,PTH,ComponentDrill
T5C2.200
%
G90
G05
T1
X22.4Y-113.7
X22.6Y-85.6
X22.6Y-98.9
X26.9Y-63.4
X26.9Y-65.1
X31.4Y-94.0
X33.0Y-94.75
X34.0Y-90.0
X35.05Y-95.65
X41.65Y-98.8
X42.4Y-110.0
X43.8Y-111.4
X47.4Y-93.05
X52.0Y-60.0
X52.3Y-70.3
X52.3Y-75.7
X52.5Y-39.4
X54.0Y-23.0
X54.1Y-37.1
X54.75Y-40.85
X54.9Y-56.9
X55.5Y-40.05
X55.75Y-52.75
X56.25Y-54.0
X58.0Y-107.0
X58.0Y-113.7
X60.7Y-98.9
X61.4Y-110.0
X63.1Y-50.5
X63.1Y-56.1
X63.2Y-111.8
X66.5Y-93.05
X72.0Y-25.0
X75.1Y-69.0
X79.5Y-70.05
X82.0Y-68.5
X82.0Y-103.0
X85.25Y-71.85
X86.9Y-32.1
X87.0Y-62.4
X89.3Y-37.05
X89.3Y-94.1
X90.0Y-110.0
X91.6Y-91.8
X92.4Y-112.4
X94.1Y-50.5
X94.1Y-56.1
X103.6Y-69.4
X103.6Y-75.1
X107.3Y-31.8
X108.0Y-25.0
X108.0Y-100.0
X108.35Y-37.0
X112.8Y-96.4
X113.1Y-50.5
X113.1Y-56.1
X115.5Y-94.15
X117.35Y-88.2
X120.15Y-112.75
X122.6Y-75.1
X122.611Y-69.382
X125.5Y-31.5
X127.45Y-37.0
X132.2Y-50.5
X132.2Y-56.1
X133.0Y-101.0
X133.9Y-87.8
X137.5Y-80.7
X140.6Y-87.8
X141.7Y-69.4
X141.7Y-75.1
X144.3Y-31.1
X146.0Y-25.0
X146.27Y-100.01
X146.45Y-37.05
X151.2Y-50.5
X151.2Y-56.1
X160.7Y-69.4
X160.7Y-75.2
X160.7Y-85.7
X163.0Y-30.2
X163.0Y-107.5
X163.1Y-94.15
X165.0Y-25.0
X165.5Y-37.0
X166.0Y-112.75
X170.3Y-50.5
X170.3Y-56.1
X171.7Y-114.2
X176.45Y-113.2
X179.8Y-69.4
X179.8Y-75.1
X183.3Y-103.8
X189.3Y-50.5
X189.3Y-56.1
X194.6Y-87.9
X196.4Y-102.65
X196.45Y-94.15
X196.5Y-109.2
X198.843Y-75.102
X198.85Y-69.35
X203.0Y-25.0
X204.0Y-106.0
X208.3Y-50.5
X208.3Y-56.0
X217.94Y-75.132
X217.95Y-69.4
X223.0Y-25.0
X227.4Y-50.5
X227.4Y-56.0
X229.0Y-106.0
X230.9Y-87.95
X234.55Y-94.1
X234.55Y-102.7
X234.6Y-109.25
X237.0Y-69.4
X237.0Y-75.1
X246.4Y-87.95
X246.5Y-50.5
X246.5Y-56.0
X247.6Y-87.3
X253.0Y-100.0
X254.0Y-103.8
X255.05Y-95.25
X261.0Y-25.0
X261.2Y-108.2
X263.0Y-49.6
X263.5Y-95.2
X264.4Y-69.4
X268.0Y-79.0
X272.65Y-87.3
X275.2Y-47.3
X275.2Y-58.5
X276.25Y-90.85
X279.55Y-101.305
X283.56Y-111.4
X284.6Y-103.1
X285.0Y-25.0
X286.2Y-111.4
X293.9Y-112.3
X297.1Y-111.4
X300.6Y-85.8
X301.25Y-104.6
X302.0Y-93.6
X303.7Y-80.4
X303.7Y-84.8
T2
X39.6Y-112.2
X106.05Y-113.0
X118.2Y-113.55
X175.45Y-114.0
X189.2Y-105.4
X246.7Y-105.75
X260.55Y-109.78
X298.61Y-81.47
X301.9Y-89.8
X302.05Y-103.65
T3
X27.37Y-25.735
X27.384Y-33.374
X27.384Y-43.538
X27.385Y-30.834
X27.385Y-46.077
X27.386Y-51.156
X27.386Y-35.914
X27.386Y-53.7
X27.386Y-38.454
X27.387Y-28.294
X27.388Y-40.997
X27.389Y-48.616
X50.173Y-33.376
X50.174Y-38.452
X50.175Y-30.836
X50.175Y-40.996
X50.176Y-53.695
X50.176Y-51.154
X50.176Y-43.54
X50.177Y-46.077
X50.177Y-48.616
X50.178Y-25.75
X50.178Y-35.916
X50.18Y-28.291
T4
X48.275Y-64.75
X48.275Y-71.25
T5
X83.6Y-111.3
X89.0Y-26.68
X182.37Y-100.17
X195.5Y-26.68
X301.245Y-26.68
X302.0Y-111.3
M30
