M48
; DRILL file {KiCad (5.1.6-0-10_14)} date Thursday, August 27, 2020 at 09:33:29 AM
; FORMAT={-:-/ absolute / inch / decimal}
; #@! TF.CreationDate,2020-08-27T09:33:29+09:00
; #@! TF.GenerationSoftware,Kicad,Pcbnew,(5.1.6-0-10_14)
; #@! TF.FileFunction,NonPlated,1,2,NPTH
FMAT,2
INCH
T1C0.0866
%
G90
G05
T1
X5.9083Y-3.8492
X5.6988Y-3.8492
X5.4898Y-4.2823
X5.8039Y-3.9571
X5.5394Y-2.4894
X3.8929Y-4.5622
X5.6992Y-3.4161
X5.4898Y-3.8492
X1.5827Y-4.1185
X9.8189Y-4.1185
X5.8039Y-3.7406
X5.6992Y-4.2823
X5.4898Y-4.4988
X5.5937Y-4.3906
X5.6992Y-3.6327
X5.3835Y-4.3906
X5.5937Y-3.7406
X5.9083Y-4.0657
X5.8039Y-3.3075
X6.5748Y-1.9201
X7.5059Y-4.5626
X6.0138Y-4.3906
X3.2472Y-3.3642
X5.8039Y-4.1736
X5.5941Y-3.9571
X5.6988Y-3.1992
X5.0965Y-2.4102
X1.8524Y-2.6358
X9.5488Y-2.6354
X5.5937Y-3.524
X5.6988Y-4.4992
X5.9087Y-4.2823
X5.4898Y-3.6327
X5.8039Y-3.524
X5.4898Y-4.0657
X6.5713Y-3.0252
X5.9083Y-3.6327
X5.8043Y-4.3906
X4.8303Y-3.0256
X5.5937Y-4.174
X5.5937Y-3.3075
X8.1543Y-3.3642
X5.9087Y-4.4992
T0
M30
