G04 #@! TF.GenerationSoftware,KiCad,Pcbnew,(5.1.6-0-10_14)*
G04 #@! TF.CreationDate,2020-08-27T09:33:25+09:00*
G04 #@! TF.ProjectId,pcb-top-plate,7063622d-746f-4702-9d70-6c6174652e6b,2.0*
G04 #@! TF.SameCoordinates,Original*
G04 #@! TF.FileFunction,Soldermask,Bot*
G04 #@! TF.FilePolarity,Negative*
%FSLAX46Y46*%
G04 Gerber Fmt 4.6, Leading zero omitted, Abs format (unit mm)*
G04 Created by KiCad (PCBNEW (5.1.6-0-10_14)) date 2020-08-27 09:33:25*
%MOMM*%
%LPD*%
G01*
G04 APERTURE LIST*
%ADD10C,0.100000*%
G04 APERTURE END LIST*
D10*
G36*
X145075880Y-116619776D02*
G01*
X145456593Y-116695504D01*
X145866249Y-116865189D01*
X146234929Y-117111534D01*
X146548466Y-117425071D01*
X146794811Y-117793751D01*
X146964496Y-118203407D01*
X147051000Y-118638296D01*
X147051000Y-119081704D01*
X146964496Y-119516593D01*
X146794811Y-119926249D01*
X146548466Y-120294929D01*
X146234929Y-120608466D01*
X145866249Y-120854811D01*
X145456593Y-121024496D01*
X145075880Y-121100224D01*
X145021705Y-121111000D01*
X144578295Y-121111000D01*
X144524120Y-121100224D01*
X144143407Y-121024496D01*
X143733751Y-120854811D01*
X143365071Y-120608466D01*
X143051534Y-120294929D01*
X142805189Y-119926249D01*
X142635504Y-119516593D01*
X142549000Y-119081704D01*
X142549000Y-118638296D01*
X142635504Y-118203407D01*
X142805189Y-117793751D01*
X143051534Y-117425071D01*
X143365071Y-117111534D01*
X143733751Y-116865189D01*
X144143407Y-116695504D01*
X144524120Y-116619776D01*
X144578295Y-116609000D01*
X145021705Y-116609000D01*
X145075880Y-116619776D01*
G37*
G36*
X190874549Y-114761116D02*
G01*
X190985734Y-114783232D01*
X191087056Y-114825201D01*
X191171059Y-114859996D01*
X191195203Y-114869997D01*
X191383720Y-114995960D01*
X191544040Y-115156280D01*
X191670003Y-115344797D01*
X191756768Y-115554266D01*
X191801000Y-115776636D01*
X191801000Y-116003364D01*
X191756768Y-116225734D01*
X191670003Y-116435203D01*
X191544040Y-116623720D01*
X191383720Y-116784040D01*
X191195203Y-116910003D01*
X190985734Y-116996768D01*
X190874549Y-117018884D01*
X190763365Y-117041000D01*
X190536635Y-117041000D01*
X190425451Y-117018884D01*
X190314266Y-116996768D01*
X190104797Y-116910003D01*
X189916280Y-116784040D01*
X189755960Y-116623720D01*
X189629997Y-116435203D01*
X189543232Y-116225734D01*
X189499000Y-116003364D01*
X189499000Y-115776636D01*
X189543232Y-115554266D01*
X189629997Y-115344797D01*
X189755960Y-115156280D01*
X189916280Y-114995960D01*
X190104797Y-114869997D01*
X190128942Y-114859996D01*
X190212944Y-114825201D01*
X190314266Y-114783232D01*
X190425451Y-114761116D01*
X190536635Y-114739000D01*
X190763365Y-114739000D01*
X190874549Y-114761116D01*
G37*
G36*
X99043638Y-114739000D02*
G01*
X99215734Y-114773232D01*
X99425203Y-114859997D01*
X99613720Y-114985960D01*
X99774040Y-115146280D01*
X99900003Y-115334797D01*
X99986768Y-115544266D01*
X100031000Y-115766636D01*
X100031000Y-115993364D01*
X99986768Y-116215734D01*
X99900003Y-116425203D01*
X99774040Y-116613720D01*
X99613720Y-116774040D01*
X99425203Y-116900003D01*
X99425202Y-116900004D01*
X99425201Y-116900004D01*
X99363850Y-116925416D01*
X99215734Y-116986768D01*
X99165460Y-116996768D01*
X98993365Y-117031000D01*
X98766635Y-117031000D01*
X98594540Y-116996768D01*
X98544266Y-116986768D01*
X98396150Y-116925416D01*
X98334799Y-116900004D01*
X98334798Y-116900004D01*
X98334797Y-116900003D01*
X98146280Y-116774040D01*
X97985960Y-116613720D01*
X97859997Y-116425203D01*
X97773232Y-116215734D01*
X97729000Y-115993364D01*
X97729000Y-115766636D01*
X97773232Y-115544266D01*
X97859997Y-115334797D01*
X97985960Y-115146280D01*
X98146280Y-114985960D01*
X98334797Y-114859997D01*
X98544266Y-114773232D01*
X98716362Y-114739000D01*
X98766635Y-114729000D01*
X98993365Y-114729000D01*
X99043638Y-114739000D01*
G37*
G36*
X150304549Y-113151116D02*
G01*
X150415734Y-113173232D01*
X150563850Y-113234584D01*
X150601059Y-113249996D01*
X150625203Y-113259997D01*
X150813720Y-113385960D01*
X150974040Y-113546280D01*
X151100003Y-113734797D01*
X151186768Y-113944266D01*
X151231000Y-114166636D01*
X151231000Y-114393364D01*
X151186768Y-114615734D01*
X151100003Y-114825203D01*
X150974040Y-115013720D01*
X150813720Y-115174040D01*
X150625203Y-115300003D01*
X150415734Y-115386768D01*
X150304549Y-115408884D01*
X150193365Y-115431000D01*
X149966635Y-115431000D01*
X149855451Y-115408884D01*
X149744266Y-115386768D01*
X149534797Y-115300003D01*
X149346280Y-115174040D01*
X149185960Y-115013720D01*
X149059997Y-114825203D01*
X148973232Y-114615734D01*
X148929000Y-114393364D01*
X148929000Y-114166636D01*
X148973232Y-113944266D01*
X149059997Y-113734797D01*
X149185960Y-113546280D01*
X149346280Y-113385960D01*
X149534797Y-113259997D01*
X149558942Y-113249996D01*
X149596150Y-113234584D01*
X149744266Y-113173232D01*
X149855451Y-113151116D01*
X149966635Y-113129000D01*
X150193365Y-113129000D01*
X150304549Y-113151116D01*
G37*
G36*
X144974549Y-113151116D02*
G01*
X145085734Y-113173232D01*
X145233850Y-113234584D01*
X145271059Y-113249996D01*
X145295203Y-113259997D01*
X145483720Y-113385960D01*
X145644040Y-113546280D01*
X145770003Y-113734797D01*
X145856768Y-113944266D01*
X145901000Y-114166636D01*
X145901000Y-114393364D01*
X145856768Y-114615734D01*
X145770003Y-114825203D01*
X145644040Y-115013720D01*
X145483720Y-115174040D01*
X145295203Y-115300003D01*
X145085734Y-115386768D01*
X144974549Y-115408884D01*
X144863365Y-115431000D01*
X144636635Y-115431000D01*
X144525451Y-115408884D01*
X144414266Y-115386768D01*
X144204797Y-115300003D01*
X144016280Y-115174040D01*
X143855960Y-115013720D01*
X143729997Y-114825203D01*
X143643232Y-114615734D01*
X143599000Y-114393364D01*
X143599000Y-114166636D01*
X143643232Y-113944266D01*
X143729997Y-113734797D01*
X143855960Y-113546280D01*
X144016280Y-113385960D01*
X144204797Y-113259997D01*
X144228942Y-113249996D01*
X144266150Y-113234584D01*
X144414266Y-113173232D01*
X144525451Y-113151116D01*
X144636635Y-113129000D01*
X144863365Y-113129000D01*
X144974549Y-113151116D01*
G37*
G36*
X139603638Y-113129000D02*
G01*
X139775734Y-113163232D01*
X139985203Y-113249997D01*
X140173720Y-113375960D01*
X140334040Y-113536280D01*
X140460003Y-113724797D01*
X140546768Y-113934266D01*
X140591000Y-114156636D01*
X140591000Y-114383364D01*
X140546768Y-114605734D01*
X140460003Y-114815203D01*
X140334040Y-115003720D01*
X140173720Y-115164040D01*
X139985203Y-115290003D01*
X139985202Y-115290004D01*
X139985201Y-115290004D01*
X139923850Y-115315416D01*
X139775734Y-115376768D01*
X139725460Y-115386768D01*
X139553365Y-115421000D01*
X139326635Y-115421000D01*
X139154540Y-115386768D01*
X139104266Y-115376768D01*
X138956150Y-115315416D01*
X138894799Y-115290004D01*
X138894798Y-115290004D01*
X138894797Y-115290003D01*
X138706280Y-115164040D01*
X138545960Y-115003720D01*
X138419997Y-114815203D01*
X138333232Y-114605734D01*
X138289000Y-114383364D01*
X138289000Y-114156636D01*
X138333232Y-113934266D01*
X138419997Y-113724797D01*
X138545960Y-113536280D01*
X138706280Y-113375960D01*
X138894797Y-113249997D01*
X139104266Y-113163232D01*
X139276362Y-113129000D01*
X139326635Y-113119000D01*
X139553365Y-113119000D01*
X139603638Y-113129000D01*
G37*
G36*
X152974549Y-110391116D02*
G01*
X153085734Y-110413232D01*
X153295203Y-110499997D01*
X153483720Y-110625960D01*
X153644040Y-110786280D01*
X153770003Y-110974797D01*
X153856768Y-111184266D01*
X153901000Y-111406636D01*
X153901000Y-111633364D01*
X153856768Y-111855734D01*
X153770003Y-112065203D01*
X153644040Y-112253720D01*
X153483720Y-112414040D01*
X153295203Y-112540003D01*
X153085734Y-112626768D01*
X152974549Y-112648884D01*
X152863365Y-112671000D01*
X152636635Y-112671000D01*
X152525451Y-112648884D01*
X152414266Y-112626768D01*
X152204797Y-112540003D01*
X152016280Y-112414040D01*
X151855960Y-112253720D01*
X151729997Y-112065203D01*
X151643232Y-111855734D01*
X151599000Y-111633364D01*
X151599000Y-111406636D01*
X151643232Y-111184266D01*
X151729997Y-110974797D01*
X151855960Y-110786280D01*
X152016280Y-110625960D01*
X152204797Y-110499997D01*
X152414266Y-110413232D01*
X152525451Y-110391116D01*
X152636635Y-110369000D01*
X152863365Y-110369000D01*
X152974549Y-110391116D01*
G37*
G36*
X147654549Y-110391116D02*
G01*
X147765734Y-110413232D01*
X147975203Y-110499997D01*
X148163720Y-110625960D01*
X148324040Y-110786280D01*
X148450003Y-110974797D01*
X148536768Y-111184266D01*
X148581000Y-111406636D01*
X148581000Y-111633364D01*
X148536768Y-111855734D01*
X148450003Y-112065203D01*
X148324040Y-112253720D01*
X148163720Y-112414040D01*
X147975203Y-112540003D01*
X147765734Y-112626768D01*
X147654549Y-112648884D01*
X147543365Y-112671000D01*
X147316635Y-112671000D01*
X147205451Y-112648884D01*
X147094266Y-112626768D01*
X146884797Y-112540003D01*
X146696280Y-112414040D01*
X146535960Y-112253720D01*
X146409997Y-112065203D01*
X146323232Y-111855734D01*
X146279000Y-111633364D01*
X146279000Y-111406636D01*
X146323232Y-111184266D01*
X146409997Y-110974797D01*
X146535960Y-110786280D01*
X146696280Y-110625960D01*
X146884797Y-110499997D01*
X147094266Y-110413232D01*
X147205451Y-110391116D01*
X147316635Y-110369000D01*
X147543365Y-110369000D01*
X147654549Y-110391116D01*
G37*
G36*
X142304549Y-110391116D02*
G01*
X142415734Y-110413232D01*
X142625203Y-110499997D01*
X142813720Y-110625960D01*
X142974040Y-110786280D01*
X143100003Y-110974797D01*
X143186768Y-111184266D01*
X143231000Y-111406636D01*
X143231000Y-111633364D01*
X143186768Y-111855734D01*
X143100003Y-112065203D01*
X142974040Y-112253720D01*
X142813720Y-112414040D01*
X142625203Y-112540003D01*
X142415734Y-112626768D01*
X142304549Y-112648884D01*
X142193365Y-112671000D01*
X141966635Y-112671000D01*
X141855451Y-112648884D01*
X141744266Y-112626768D01*
X141534797Y-112540003D01*
X141346280Y-112414040D01*
X141185960Y-112253720D01*
X141059997Y-112065203D01*
X140973232Y-111855734D01*
X140929000Y-111633364D01*
X140929000Y-111406636D01*
X140973232Y-111184266D01*
X141059997Y-110974797D01*
X141185960Y-110786280D01*
X141346280Y-110625960D01*
X141534797Y-110499997D01*
X141744266Y-110413232D01*
X141855451Y-110391116D01*
X141966635Y-110369000D01*
X142193365Y-110369000D01*
X142304549Y-110391116D01*
G37*
G36*
X136964549Y-110391116D02*
G01*
X137075734Y-110413232D01*
X137285203Y-110499997D01*
X137473720Y-110625960D01*
X137634040Y-110786280D01*
X137760003Y-110974797D01*
X137846768Y-111184266D01*
X137891000Y-111406636D01*
X137891000Y-111633364D01*
X137846768Y-111855734D01*
X137760003Y-112065203D01*
X137634040Y-112253720D01*
X137473720Y-112414040D01*
X137285203Y-112540003D01*
X137075734Y-112626768D01*
X136964549Y-112648884D01*
X136853365Y-112671000D01*
X136626635Y-112671000D01*
X136515451Y-112648884D01*
X136404266Y-112626768D01*
X136194797Y-112540003D01*
X136006280Y-112414040D01*
X135845960Y-112253720D01*
X135719997Y-112065203D01*
X135633232Y-111855734D01*
X135589000Y-111633364D01*
X135589000Y-111406636D01*
X135633232Y-111184266D01*
X135719997Y-110974797D01*
X135845960Y-110786280D01*
X136006280Y-110625960D01*
X136194797Y-110499997D01*
X136404266Y-110413232D01*
X136515451Y-110391116D01*
X136626635Y-110369000D01*
X136853365Y-110369000D01*
X136964549Y-110391116D01*
G37*
G36*
X144984549Y-107641116D02*
G01*
X145095734Y-107663232D01*
X145305203Y-107749997D01*
X145493720Y-107875960D01*
X145654040Y-108036280D01*
X145780003Y-108224797D01*
X145866768Y-108434266D01*
X145911000Y-108656636D01*
X145911000Y-108883364D01*
X145866768Y-109105734D01*
X145780003Y-109315203D01*
X145654040Y-109503720D01*
X145493720Y-109664040D01*
X145305203Y-109790003D01*
X145095734Y-109876768D01*
X144984549Y-109898884D01*
X144873365Y-109921000D01*
X144646635Y-109921000D01*
X144535451Y-109898884D01*
X144424266Y-109876768D01*
X144214797Y-109790003D01*
X144026280Y-109664040D01*
X143865960Y-109503720D01*
X143739997Y-109315203D01*
X143653232Y-109105734D01*
X143609000Y-108883364D01*
X143609000Y-108656636D01*
X143653232Y-108434266D01*
X143739997Y-108224797D01*
X143865960Y-108036280D01*
X144026280Y-107875960D01*
X144214797Y-107749997D01*
X144424266Y-107663232D01*
X144535451Y-107641116D01*
X144646635Y-107619000D01*
X144873365Y-107619000D01*
X144984549Y-107641116D01*
G37*
G36*
X139664549Y-107641116D02*
G01*
X139775734Y-107663232D01*
X139985203Y-107749997D01*
X140173720Y-107875960D01*
X140334040Y-108036280D01*
X140460003Y-108224797D01*
X140546768Y-108434266D01*
X140591000Y-108656636D01*
X140591000Y-108883364D01*
X140546768Y-109105734D01*
X140460003Y-109315203D01*
X140334040Y-109503720D01*
X140173720Y-109664040D01*
X139985203Y-109790003D01*
X139775734Y-109876768D01*
X139664549Y-109898884D01*
X139553365Y-109921000D01*
X139326635Y-109921000D01*
X139215451Y-109898884D01*
X139104266Y-109876768D01*
X138894797Y-109790003D01*
X138706280Y-109664040D01*
X138545960Y-109503720D01*
X138419997Y-109315203D01*
X138333232Y-109105734D01*
X138289000Y-108883364D01*
X138289000Y-108656636D01*
X138333232Y-108434266D01*
X138419997Y-108224797D01*
X138545960Y-108036280D01*
X138706280Y-107875960D01*
X138894797Y-107749997D01*
X139104266Y-107663232D01*
X139215451Y-107641116D01*
X139326635Y-107619000D01*
X139553365Y-107619000D01*
X139664549Y-107641116D01*
G37*
G36*
X150304549Y-107641116D02*
G01*
X150415734Y-107663232D01*
X150625203Y-107749997D01*
X150813720Y-107875960D01*
X150974040Y-108036280D01*
X151100003Y-108224797D01*
X151186768Y-108434266D01*
X151231000Y-108656636D01*
X151231000Y-108883364D01*
X151186768Y-109105734D01*
X151100003Y-109315203D01*
X150974040Y-109503720D01*
X150813720Y-109664040D01*
X150625203Y-109790003D01*
X150415734Y-109876768D01*
X150304549Y-109898884D01*
X150193365Y-109921000D01*
X149966635Y-109921000D01*
X149855451Y-109898884D01*
X149744266Y-109876768D01*
X149534797Y-109790003D01*
X149346280Y-109664040D01*
X149185960Y-109503720D01*
X149059997Y-109315203D01*
X148973232Y-109105734D01*
X148929000Y-108883364D01*
X148929000Y-108656636D01*
X148973232Y-108434266D01*
X149059997Y-108224797D01*
X149185960Y-108036280D01*
X149346280Y-107875960D01*
X149534797Y-107749997D01*
X149744266Y-107663232D01*
X149855451Y-107641116D01*
X149966635Y-107619000D01*
X150193365Y-107619000D01*
X150304549Y-107641116D01*
G37*
G36*
X142304549Y-104891116D02*
G01*
X142415734Y-104913232D01*
X142563850Y-104974584D01*
X142601059Y-104989996D01*
X142625203Y-104999997D01*
X142813720Y-105125960D01*
X142974040Y-105286280D01*
X143100003Y-105474797D01*
X143186768Y-105684266D01*
X143231000Y-105906636D01*
X143231000Y-106133364D01*
X143186768Y-106355734D01*
X143100003Y-106565203D01*
X142974040Y-106753720D01*
X142813720Y-106914040D01*
X142625203Y-107040003D01*
X142415734Y-107126768D01*
X142304549Y-107148884D01*
X142193365Y-107171000D01*
X141966635Y-107171000D01*
X141855451Y-107148884D01*
X141744266Y-107126768D01*
X141534797Y-107040003D01*
X141346280Y-106914040D01*
X141185960Y-106753720D01*
X141059997Y-106565203D01*
X140973232Y-106355734D01*
X140929000Y-106133364D01*
X140929000Y-105906636D01*
X140973232Y-105684266D01*
X141059997Y-105474797D01*
X141185960Y-105286280D01*
X141346280Y-105125960D01*
X141534797Y-104999997D01*
X141558942Y-104989996D01*
X141596150Y-104974584D01*
X141744266Y-104913232D01*
X141855451Y-104891116D01*
X141966635Y-104869000D01*
X142193365Y-104869000D01*
X142304549Y-104891116D01*
G37*
G36*
X147583638Y-104869000D02*
G01*
X147755734Y-104903232D01*
X147965203Y-104989997D01*
X148153720Y-105115960D01*
X148314040Y-105276280D01*
X148440003Y-105464797D01*
X148526768Y-105674266D01*
X148571000Y-105896636D01*
X148571000Y-106123364D01*
X148526768Y-106345734D01*
X148440003Y-106555203D01*
X148314040Y-106743720D01*
X148153720Y-106904040D01*
X147965203Y-107030003D01*
X147965202Y-107030004D01*
X147965201Y-107030004D01*
X147903850Y-107055416D01*
X147755734Y-107116768D01*
X147705460Y-107126768D01*
X147533365Y-107161000D01*
X147306635Y-107161000D01*
X147134540Y-107126768D01*
X147084266Y-107116768D01*
X146936150Y-107055416D01*
X146874799Y-107030004D01*
X146874798Y-107030004D01*
X146874797Y-107030003D01*
X146686280Y-106904040D01*
X146525960Y-106743720D01*
X146399997Y-106555203D01*
X146313232Y-106345734D01*
X146269000Y-106123364D01*
X146269000Y-105896636D01*
X146313232Y-105674266D01*
X146399997Y-105464797D01*
X146525960Y-105276280D01*
X146686280Y-105115960D01*
X146874797Y-104989997D01*
X147084266Y-104903232D01*
X147256362Y-104869000D01*
X147306635Y-104859000D01*
X147533365Y-104859000D01*
X147583638Y-104869000D01*
G37*
G36*
X249624549Y-103481116D02*
G01*
X249735734Y-103503232D01*
X249945203Y-103589997D01*
X250133720Y-103715960D01*
X250294040Y-103876280D01*
X250420003Y-104064797D01*
X250506768Y-104274266D01*
X250551000Y-104496636D01*
X250551000Y-104723364D01*
X250506768Y-104945734D01*
X250420003Y-105155203D01*
X250294040Y-105343720D01*
X250133720Y-105504040D01*
X249945203Y-105630003D01*
X249735734Y-105716768D01*
X249624549Y-105738884D01*
X249513365Y-105761000D01*
X249286635Y-105761000D01*
X249175451Y-105738884D01*
X249064266Y-105716768D01*
X248854797Y-105630003D01*
X248666280Y-105504040D01*
X248505960Y-105343720D01*
X248379997Y-105155203D01*
X248293232Y-104945734D01*
X248249000Y-104723364D01*
X248249000Y-104496636D01*
X248293232Y-104274266D01*
X248379997Y-104064797D01*
X248505960Y-103876280D01*
X248666280Y-103715960D01*
X248854797Y-103589997D01*
X249064266Y-103503232D01*
X249175451Y-103481116D01*
X249286635Y-103459000D01*
X249513365Y-103459000D01*
X249624549Y-103481116D01*
G37*
G36*
X40424549Y-103481116D02*
G01*
X40535734Y-103503232D01*
X40745203Y-103589997D01*
X40933720Y-103715960D01*
X41094040Y-103876280D01*
X41220003Y-104064797D01*
X41306768Y-104274266D01*
X41351000Y-104496636D01*
X41351000Y-104723364D01*
X41306768Y-104945734D01*
X41220003Y-105155203D01*
X41094040Y-105343720D01*
X40933720Y-105504040D01*
X40745203Y-105630003D01*
X40535734Y-105716768D01*
X40424549Y-105738884D01*
X40313365Y-105761000D01*
X40086635Y-105761000D01*
X39975451Y-105738884D01*
X39864266Y-105716768D01*
X39654797Y-105630003D01*
X39466280Y-105504040D01*
X39305960Y-105343720D01*
X39179997Y-105155203D01*
X39093232Y-104945734D01*
X39049000Y-104723364D01*
X39049000Y-104496636D01*
X39093232Y-104274266D01*
X39179997Y-104064797D01*
X39305960Y-103876280D01*
X39466280Y-103715960D01*
X39654797Y-103589997D01*
X39864266Y-103503232D01*
X39975451Y-103481116D01*
X40086635Y-103459000D01*
X40313365Y-103459000D01*
X40424549Y-103481116D01*
G37*
G36*
X150294549Y-102141116D02*
G01*
X150405734Y-102163232D01*
X150615203Y-102249997D01*
X150803720Y-102375960D01*
X150964040Y-102536280D01*
X151090003Y-102724797D01*
X151176768Y-102934266D01*
X151221000Y-103156636D01*
X151221000Y-103383364D01*
X151176768Y-103605734D01*
X151090003Y-103815203D01*
X150964040Y-104003720D01*
X150803720Y-104164040D01*
X150615203Y-104290003D01*
X150405734Y-104376768D01*
X150294549Y-104398884D01*
X150183365Y-104421000D01*
X149956635Y-104421000D01*
X149845451Y-104398884D01*
X149734266Y-104376768D01*
X149524797Y-104290003D01*
X149336280Y-104164040D01*
X149175960Y-104003720D01*
X149049997Y-103815203D01*
X148963232Y-103605734D01*
X148919000Y-103383364D01*
X148919000Y-103156636D01*
X148963232Y-102934266D01*
X149049997Y-102724797D01*
X149175960Y-102536280D01*
X149336280Y-102375960D01*
X149524797Y-102249997D01*
X149734266Y-102163232D01*
X149845451Y-102141116D01*
X149956635Y-102119000D01*
X150183365Y-102119000D01*
X150294549Y-102141116D01*
G37*
G36*
X139664549Y-102141116D02*
G01*
X139775734Y-102163232D01*
X139985203Y-102249997D01*
X140173720Y-102375960D01*
X140334040Y-102536280D01*
X140460003Y-102724797D01*
X140546768Y-102934266D01*
X140591000Y-103156636D01*
X140591000Y-103383364D01*
X140546768Y-103605734D01*
X140460003Y-103815203D01*
X140334040Y-104003720D01*
X140173720Y-104164040D01*
X139985203Y-104290003D01*
X139775734Y-104376768D01*
X139664549Y-104398884D01*
X139553365Y-104421000D01*
X139326635Y-104421000D01*
X139215451Y-104398884D01*
X139104266Y-104376768D01*
X138894797Y-104290003D01*
X138706280Y-104164040D01*
X138545960Y-104003720D01*
X138419997Y-103815203D01*
X138333232Y-103605734D01*
X138289000Y-103383364D01*
X138289000Y-103156636D01*
X138333232Y-102934266D01*
X138419997Y-102724797D01*
X138545960Y-102536280D01*
X138706280Y-102375960D01*
X138894797Y-102249997D01*
X139104266Y-102163232D01*
X139215451Y-102141116D01*
X139326635Y-102119000D01*
X139553365Y-102119000D01*
X139664549Y-102141116D01*
G37*
G36*
X147644549Y-99381116D02*
G01*
X147755734Y-99403232D01*
X147965203Y-99489997D01*
X148153720Y-99615960D01*
X148314040Y-99776280D01*
X148440003Y-99964797D01*
X148526768Y-100174266D01*
X148571000Y-100396636D01*
X148571000Y-100623364D01*
X148526768Y-100845734D01*
X148440003Y-101055203D01*
X148314040Y-101243720D01*
X148153720Y-101404040D01*
X147965203Y-101530003D01*
X147755734Y-101616768D01*
X147644549Y-101638884D01*
X147533365Y-101661000D01*
X147306635Y-101661000D01*
X147195451Y-101638884D01*
X147084266Y-101616768D01*
X146874797Y-101530003D01*
X146686280Y-101404040D01*
X146525960Y-101243720D01*
X146399997Y-101055203D01*
X146313232Y-100845734D01*
X146269000Y-100623364D01*
X146269000Y-100396636D01*
X146313232Y-100174266D01*
X146399997Y-99964797D01*
X146525960Y-99776280D01*
X146686280Y-99615960D01*
X146874797Y-99489997D01*
X147084266Y-99403232D01*
X147195451Y-99381116D01*
X147306635Y-99359000D01*
X147533365Y-99359000D01*
X147644549Y-99381116D01*
G37*
G36*
X142314549Y-99381116D02*
G01*
X142425734Y-99403232D01*
X142635203Y-99489997D01*
X142823720Y-99615960D01*
X142984040Y-99776280D01*
X143110003Y-99964797D01*
X143196768Y-100174266D01*
X143241000Y-100396636D01*
X143241000Y-100623364D01*
X143196768Y-100845734D01*
X143110003Y-101055203D01*
X142984040Y-101243720D01*
X142823720Y-101404040D01*
X142635203Y-101530003D01*
X142425734Y-101616768D01*
X142314549Y-101638884D01*
X142203365Y-101661000D01*
X141976635Y-101661000D01*
X141865451Y-101638884D01*
X141754266Y-101616768D01*
X141544797Y-101530003D01*
X141356280Y-101404040D01*
X141195960Y-101243720D01*
X141069997Y-101055203D01*
X140983232Y-100845734D01*
X140939000Y-100623364D01*
X140939000Y-100396636D01*
X140983232Y-100174266D01*
X141069997Y-99964797D01*
X141195960Y-99776280D01*
X141356280Y-99615960D01*
X141544797Y-99489997D01*
X141754266Y-99403232D01*
X141865451Y-99381116D01*
X141976635Y-99359000D01*
X142203365Y-99359000D01*
X142314549Y-99381116D01*
G37*
G36*
X150294549Y-96641116D02*
G01*
X150405734Y-96663232D01*
X150615203Y-96749997D01*
X150803720Y-96875960D01*
X150964040Y-97036280D01*
X151090003Y-97224797D01*
X151176768Y-97434266D01*
X151221000Y-97656636D01*
X151221000Y-97883364D01*
X151176768Y-98105734D01*
X151090003Y-98315203D01*
X150964040Y-98503720D01*
X150803720Y-98664040D01*
X150615203Y-98790003D01*
X150405734Y-98876768D01*
X150294549Y-98898884D01*
X150183365Y-98921000D01*
X149956635Y-98921000D01*
X149845451Y-98898884D01*
X149734266Y-98876768D01*
X149524797Y-98790003D01*
X149336280Y-98664040D01*
X149175960Y-98503720D01*
X149049997Y-98315203D01*
X148963232Y-98105734D01*
X148919000Y-97883364D01*
X148919000Y-97656636D01*
X148963232Y-97434266D01*
X149049997Y-97224797D01*
X149175960Y-97036280D01*
X149336280Y-96875960D01*
X149524797Y-96749997D01*
X149734266Y-96663232D01*
X149845451Y-96641116D01*
X149956635Y-96619000D01*
X150183365Y-96619000D01*
X150294549Y-96641116D01*
G37*
G36*
X139664549Y-96641116D02*
G01*
X139775734Y-96663232D01*
X139985203Y-96749997D01*
X140173720Y-96875960D01*
X140334040Y-97036280D01*
X140460003Y-97224797D01*
X140546768Y-97434266D01*
X140591000Y-97656636D01*
X140591000Y-97883364D01*
X140546768Y-98105734D01*
X140460003Y-98315203D01*
X140334040Y-98503720D01*
X140173720Y-98664040D01*
X139985203Y-98790003D01*
X139775734Y-98876768D01*
X139664549Y-98898884D01*
X139553365Y-98921000D01*
X139326635Y-98921000D01*
X139215451Y-98898884D01*
X139104266Y-98876768D01*
X138894797Y-98790003D01*
X138706280Y-98664040D01*
X138545960Y-98503720D01*
X138419997Y-98315203D01*
X138333232Y-98105734D01*
X138289000Y-97883364D01*
X138289000Y-97656636D01*
X138333232Y-97434266D01*
X138419997Y-97224797D01*
X138545960Y-97036280D01*
X138706280Y-96875960D01*
X138894797Y-96749997D01*
X139104266Y-96663232D01*
X139215451Y-96641116D01*
X139326635Y-96619000D01*
X139553365Y-96619000D01*
X139664549Y-96641116D01*
G37*
G36*
X144974549Y-96641116D02*
G01*
X145085734Y-96663232D01*
X145295203Y-96749997D01*
X145483720Y-96875960D01*
X145644040Y-97036280D01*
X145770003Y-97224797D01*
X145856768Y-97434266D01*
X145901000Y-97656636D01*
X145901000Y-97883364D01*
X145856768Y-98105734D01*
X145770003Y-98315203D01*
X145644040Y-98503720D01*
X145483720Y-98664040D01*
X145295203Y-98790003D01*
X145085734Y-98876768D01*
X144974549Y-98898884D01*
X144863365Y-98921000D01*
X144636635Y-98921000D01*
X144525451Y-98898884D01*
X144414266Y-98876768D01*
X144204797Y-98790003D01*
X144016280Y-98664040D01*
X143855960Y-98503720D01*
X143729997Y-98315203D01*
X143643232Y-98105734D01*
X143599000Y-97883364D01*
X143599000Y-97656636D01*
X143643232Y-97434266D01*
X143729997Y-97224797D01*
X143855960Y-97036280D01*
X144016280Y-96875960D01*
X144204797Y-96749997D01*
X144414266Y-96663232D01*
X144525451Y-96641116D01*
X144636635Y-96619000D01*
X144863365Y-96619000D01*
X144974549Y-96641116D01*
G37*
G36*
X142304549Y-93881116D02*
G01*
X142415734Y-93903232D01*
X142625203Y-93989997D01*
X142813720Y-94115960D01*
X142974040Y-94276280D01*
X143100003Y-94464797D01*
X143186768Y-94674266D01*
X143231000Y-94896636D01*
X143231000Y-95123364D01*
X143186768Y-95345734D01*
X143100003Y-95555203D01*
X142974040Y-95743720D01*
X142813720Y-95904040D01*
X142625203Y-96030003D01*
X142415734Y-96116768D01*
X142304549Y-96138884D01*
X142193365Y-96161000D01*
X141966635Y-96161000D01*
X141855451Y-96138884D01*
X141744266Y-96116768D01*
X141534797Y-96030003D01*
X141346280Y-95904040D01*
X141185960Y-95743720D01*
X141059997Y-95555203D01*
X140973232Y-95345734D01*
X140929000Y-95123364D01*
X140929000Y-94896636D01*
X140973232Y-94674266D01*
X141059997Y-94464797D01*
X141185960Y-94276280D01*
X141346280Y-94115960D01*
X141534797Y-93989997D01*
X141744266Y-93903232D01*
X141855451Y-93881116D01*
X141966635Y-93859000D01*
X142193365Y-93859000D01*
X142304549Y-93881116D01*
G37*
G36*
X147644549Y-93881116D02*
G01*
X147755734Y-93903232D01*
X147965203Y-93989997D01*
X148153720Y-94115960D01*
X148314040Y-94276280D01*
X148440003Y-94464797D01*
X148526768Y-94674266D01*
X148571000Y-94896636D01*
X148571000Y-95123364D01*
X148526768Y-95345734D01*
X148440003Y-95555203D01*
X148314040Y-95743720D01*
X148153720Y-95904040D01*
X147965203Y-96030003D01*
X147755734Y-96116768D01*
X147644549Y-96138884D01*
X147533365Y-96161000D01*
X147306635Y-96161000D01*
X147195451Y-96138884D01*
X147084266Y-96116768D01*
X146874797Y-96030003D01*
X146686280Y-95904040D01*
X146525960Y-95743720D01*
X146399997Y-95555203D01*
X146313232Y-95345734D01*
X146269000Y-95123364D01*
X146269000Y-94896636D01*
X146313232Y-94674266D01*
X146399997Y-94464797D01*
X146525960Y-94276280D01*
X146686280Y-94115960D01*
X146874797Y-93989997D01*
X147084266Y-93903232D01*
X147195451Y-93881116D01*
X147306635Y-93859000D01*
X147533365Y-93859000D01*
X147644549Y-93881116D01*
G37*
G36*
X144984549Y-91141116D02*
G01*
X145095734Y-91163232D01*
X145305203Y-91249997D01*
X145493720Y-91375960D01*
X145654040Y-91536280D01*
X145780003Y-91724797D01*
X145866768Y-91934266D01*
X145911000Y-92156636D01*
X145911000Y-92383364D01*
X145866768Y-92605734D01*
X145780003Y-92815203D01*
X145654040Y-93003720D01*
X145493720Y-93164040D01*
X145305203Y-93290003D01*
X145095734Y-93376768D01*
X144984549Y-93398884D01*
X144873365Y-93421000D01*
X144646635Y-93421000D01*
X144535451Y-93398884D01*
X144424266Y-93376768D01*
X144214797Y-93290003D01*
X144026280Y-93164040D01*
X143865960Y-93003720D01*
X143739997Y-92815203D01*
X143653232Y-92605734D01*
X143609000Y-92383364D01*
X143609000Y-92156636D01*
X143653232Y-91934266D01*
X143739997Y-91724797D01*
X143865960Y-91536280D01*
X144026280Y-91375960D01*
X144214797Y-91249997D01*
X144424266Y-91163232D01*
X144535451Y-91141116D01*
X144646635Y-91119000D01*
X144873365Y-91119000D01*
X144984549Y-91141116D01*
G37*
G36*
X139664549Y-91141116D02*
G01*
X139775734Y-91163232D01*
X139985203Y-91249997D01*
X140173720Y-91375960D01*
X140334040Y-91536280D01*
X140460003Y-91724797D01*
X140546768Y-91934266D01*
X140591000Y-92156636D01*
X140591000Y-92383364D01*
X140546768Y-92605734D01*
X140460003Y-92815203D01*
X140334040Y-93003720D01*
X140173720Y-93164040D01*
X139985203Y-93290003D01*
X139775734Y-93376768D01*
X139664549Y-93398884D01*
X139553365Y-93421000D01*
X139326635Y-93421000D01*
X139215451Y-93398884D01*
X139104266Y-93376768D01*
X138894797Y-93290003D01*
X138706280Y-93164040D01*
X138545960Y-93003720D01*
X138419997Y-92815203D01*
X138333232Y-92605734D01*
X138289000Y-92383364D01*
X138289000Y-92156636D01*
X138333232Y-91934266D01*
X138419997Y-91724797D01*
X138545960Y-91536280D01*
X138706280Y-91375960D01*
X138894797Y-91249997D01*
X139104266Y-91163232D01*
X139215451Y-91141116D01*
X139326635Y-91119000D01*
X139553365Y-91119000D01*
X139664549Y-91141116D01*
G37*
G36*
X150294549Y-91141116D02*
G01*
X150405734Y-91163232D01*
X150615203Y-91249997D01*
X150803720Y-91375960D01*
X150964040Y-91536280D01*
X151090003Y-91724797D01*
X151176768Y-91934266D01*
X151221000Y-92156636D01*
X151221000Y-92383364D01*
X151176768Y-92605734D01*
X151090003Y-92815203D01*
X150964040Y-93003720D01*
X150803720Y-93164040D01*
X150615203Y-93290003D01*
X150405734Y-93376768D01*
X150294549Y-93398884D01*
X150183365Y-93421000D01*
X149956635Y-93421000D01*
X149845451Y-93398884D01*
X149734266Y-93376768D01*
X149524797Y-93290003D01*
X149336280Y-93164040D01*
X149175960Y-93003720D01*
X149049997Y-92815203D01*
X148963232Y-92605734D01*
X148919000Y-92383364D01*
X148919000Y-92156636D01*
X148963232Y-91934266D01*
X149049997Y-91724797D01*
X149175960Y-91536280D01*
X149336280Y-91375960D01*
X149524797Y-91249997D01*
X149734266Y-91163232D01*
X149845451Y-91141116D01*
X149956635Y-91119000D01*
X150183365Y-91119000D01*
X150294549Y-91141116D01*
G37*
G36*
X147644549Y-88381116D02*
G01*
X147755734Y-88403232D01*
X147965203Y-88489997D01*
X148153720Y-88615960D01*
X148314040Y-88776280D01*
X148440003Y-88964797D01*
X148526768Y-89174266D01*
X148571000Y-89396636D01*
X148571000Y-89623364D01*
X148526768Y-89845734D01*
X148440003Y-90055203D01*
X148314040Y-90243720D01*
X148153720Y-90404040D01*
X147965203Y-90530003D01*
X147755734Y-90616768D01*
X147644549Y-90638884D01*
X147533365Y-90661000D01*
X147306635Y-90661000D01*
X147195451Y-90638884D01*
X147084266Y-90616768D01*
X146874797Y-90530003D01*
X146686280Y-90404040D01*
X146525960Y-90243720D01*
X146399997Y-90055203D01*
X146313232Y-89845734D01*
X146269000Y-89623364D01*
X146269000Y-89396636D01*
X146313232Y-89174266D01*
X146399997Y-88964797D01*
X146525960Y-88776280D01*
X146686280Y-88615960D01*
X146874797Y-88489997D01*
X147084266Y-88403232D01*
X147195451Y-88381116D01*
X147306635Y-88359000D01*
X147533365Y-88359000D01*
X147644549Y-88381116D01*
G37*
G36*
X142304549Y-88381116D02*
G01*
X142415734Y-88403232D01*
X142625203Y-88489997D01*
X142813720Y-88615960D01*
X142974040Y-88776280D01*
X143100003Y-88964797D01*
X143186768Y-89174266D01*
X143231000Y-89396636D01*
X143231000Y-89623364D01*
X143186768Y-89845734D01*
X143100003Y-90055203D01*
X142974040Y-90243720D01*
X142813720Y-90404040D01*
X142625203Y-90530003D01*
X142415734Y-90616768D01*
X142304549Y-90638884D01*
X142193365Y-90661000D01*
X141966635Y-90661000D01*
X141855451Y-90638884D01*
X141744266Y-90616768D01*
X141534797Y-90530003D01*
X141346280Y-90404040D01*
X141185960Y-90243720D01*
X141059997Y-90055203D01*
X140973232Y-89845734D01*
X140929000Y-89623364D01*
X140929000Y-89396636D01*
X140973232Y-89174266D01*
X141059997Y-88964797D01*
X141185960Y-88776280D01*
X141346280Y-88615960D01*
X141534797Y-88489997D01*
X141744266Y-88403232D01*
X141855451Y-88381116D01*
X141966635Y-88359000D01*
X142193365Y-88359000D01*
X142304549Y-88381116D01*
G37*
G36*
X144984549Y-85641116D02*
G01*
X145095734Y-85663232D01*
X145305203Y-85749997D01*
X145493720Y-85875960D01*
X145654040Y-86036280D01*
X145780003Y-86224797D01*
X145866768Y-86434266D01*
X145911000Y-86656636D01*
X145911000Y-86883364D01*
X145866768Y-87105734D01*
X145780003Y-87315203D01*
X145654040Y-87503720D01*
X145493720Y-87664040D01*
X145305203Y-87790003D01*
X145095734Y-87876768D01*
X144984549Y-87898884D01*
X144873365Y-87921000D01*
X144646635Y-87921000D01*
X144535451Y-87898884D01*
X144424266Y-87876768D01*
X144214797Y-87790003D01*
X144026280Y-87664040D01*
X143865960Y-87503720D01*
X143739997Y-87315203D01*
X143653232Y-87105734D01*
X143609000Y-86883364D01*
X143609000Y-86656636D01*
X143653232Y-86434266D01*
X143739997Y-86224797D01*
X143865960Y-86036280D01*
X144026280Y-85875960D01*
X144214797Y-85749997D01*
X144424266Y-85663232D01*
X144535451Y-85641116D01*
X144646635Y-85619000D01*
X144873365Y-85619000D01*
X144984549Y-85641116D01*
G37*
G36*
X207344549Y-84321116D02*
G01*
X207455734Y-84343232D01*
X207665203Y-84429997D01*
X207853720Y-84555960D01*
X208014040Y-84716280D01*
X208140003Y-84904797D01*
X208226768Y-85114266D01*
X208271000Y-85336636D01*
X208271000Y-85563364D01*
X208226768Y-85785734D01*
X208140003Y-85995203D01*
X208014040Y-86183720D01*
X207853720Y-86344040D01*
X207665203Y-86470003D01*
X207455734Y-86556768D01*
X207344549Y-86578884D01*
X207233365Y-86601000D01*
X207006635Y-86601000D01*
X206895451Y-86578884D01*
X206784266Y-86556768D01*
X206574797Y-86470003D01*
X206386280Y-86344040D01*
X206225960Y-86183720D01*
X206099997Y-85995203D01*
X206013232Y-85785734D01*
X205969000Y-85563364D01*
X205969000Y-85336636D01*
X206013232Y-85114266D01*
X206099997Y-84904797D01*
X206225960Y-84716280D01*
X206386280Y-84555960D01*
X206574797Y-84429997D01*
X206784266Y-84343232D01*
X206895451Y-84321116D01*
X207006635Y-84299000D01*
X207233365Y-84299000D01*
X207344549Y-84321116D01*
G37*
G36*
X82704549Y-84321116D02*
G01*
X82815734Y-84343232D01*
X83025203Y-84429997D01*
X83213720Y-84555960D01*
X83374040Y-84716280D01*
X83500003Y-84904797D01*
X83586768Y-85114266D01*
X83631000Y-85336636D01*
X83631000Y-85563364D01*
X83586768Y-85785734D01*
X83500003Y-85995203D01*
X83374040Y-86183720D01*
X83213720Y-86344040D01*
X83025203Y-86470003D01*
X82815734Y-86556768D01*
X82704549Y-86578884D01*
X82593365Y-86601000D01*
X82366635Y-86601000D01*
X82255451Y-86578884D01*
X82144266Y-86556768D01*
X81934797Y-86470003D01*
X81746280Y-86344040D01*
X81585960Y-86183720D01*
X81459997Y-85995203D01*
X81373232Y-85785734D01*
X81329000Y-85563364D01*
X81329000Y-85336636D01*
X81373232Y-85114266D01*
X81459997Y-84904797D01*
X81585960Y-84716280D01*
X81746280Y-84555960D01*
X81934797Y-84429997D01*
X82144266Y-84343232D01*
X82255451Y-84321116D01*
X82366635Y-84299000D01*
X82593365Y-84299000D01*
X82704549Y-84321116D01*
G37*
G36*
X147644549Y-82881116D02*
G01*
X147755734Y-82903232D01*
X147965203Y-82989997D01*
X148153720Y-83115960D01*
X148314040Y-83276280D01*
X148440003Y-83464797D01*
X148526768Y-83674266D01*
X148571000Y-83896636D01*
X148571000Y-84123364D01*
X148526768Y-84345734D01*
X148440003Y-84555203D01*
X148314040Y-84743720D01*
X148153720Y-84904040D01*
X147965203Y-85030003D01*
X147755734Y-85116768D01*
X147644549Y-85138884D01*
X147533365Y-85161000D01*
X147306635Y-85161000D01*
X147195451Y-85138884D01*
X147084266Y-85116768D01*
X146874797Y-85030003D01*
X146686280Y-84904040D01*
X146525960Y-84743720D01*
X146399997Y-84555203D01*
X146313232Y-84345734D01*
X146269000Y-84123364D01*
X146269000Y-83896636D01*
X146313232Y-83674266D01*
X146399997Y-83464797D01*
X146525960Y-83276280D01*
X146686280Y-83115960D01*
X146874797Y-82989997D01*
X147084266Y-82903232D01*
X147195451Y-82881116D01*
X147306635Y-82859000D01*
X147533365Y-82859000D01*
X147644549Y-82881116D01*
G37*
G36*
X142304549Y-82881116D02*
G01*
X142415734Y-82903232D01*
X142625203Y-82989997D01*
X142813720Y-83115960D01*
X142974040Y-83276280D01*
X143100003Y-83464797D01*
X143186768Y-83674266D01*
X143231000Y-83896636D01*
X143231000Y-84123364D01*
X143186768Y-84345734D01*
X143100003Y-84555203D01*
X142974040Y-84743720D01*
X142813720Y-84904040D01*
X142625203Y-85030003D01*
X142415734Y-85116768D01*
X142304549Y-85138884D01*
X142193365Y-85161000D01*
X141966635Y-85161000D01*
X141855451Y-85138884D01*
X141744266Y-85116768D01*
X141534797Y-85030003D01*
X141346280Y-84904040D01*
X141185960Y-84743720D01*
X141059997Y-84555203D01*
X140973232Y-84345734D01*
X140929000Y-84123364D01*
X140929000Y-83896636D01*
X140973232Y-83674266D01*
X141059997Y-83464797D01*
X141185960Y-83276280D01*
X141346280Y-83115960D01*
X141534797Y-82989997D01*
X141744266Y-82903232D01*
X141855451Y-82881116D01*
X141966635Y-82859000D01*
X142193365Y-82859000D01*
X142304549Y-82881116D01*
G37*
G36*
X144974549Y-80131116D02*
G01*
X145085734Y-80153232D01*
X145295203Y-80239997D01*
X145483720Y-80365960D01*
X145644040Y-80526280D01*
X145770003Y-80714797D01*
X145856768Y-80924266D01*
X145901000Y-81146636D01*
X145901000Y-81373364D01*
X145856768Y-81595734D01*
X145770003Y-81805203D01*
X145644040Y-81993720D01*
X145483720Y-82154040D01*
X145295203Y-82280003D01*
X145085734Y-82366768D01*
X144974549Y-82388884D01*
X144863365Y-82411000D01*
X144636635Y-82411000D01*
X144525451Y-82388884D01*
X144414266Y-82366768D01*
X144204797Y-82280003D01*
X144016280Y-82154040D01*
X143855960Y-81993720D01*
X143729997Y-81805203D01*
X143643232Y-81595734D01*
X143599000Y-81373364D01*
X143599000Y-81146636D01*
X143643232Y-80924266D01*
X143729997Y-80714797D01*
X143855960Y-80526280D01*
X144016280Y-80365960D01*
X144204797Y-80239997D01*
X144414266Y-80153232D01*
X144525451Y-80131116D01*
X144636635Y-80109000D01*
X144863365Y-80109000D01*
X144974549Y-80131116D01*
G37*
G36*
X122914549Y-75721116D02*
G01*
X123025734Y-75743232D01*
X123173850Y-75804584D01*
X123211059Y-75819996D01*
X123235203Y-75829997D01*
X123423720Y-75955960D01*
X123584040Y-76116280D01*
X123710003Y-76304797D01*
X123796768Y-76514266D01*
X123841000Y-76736636D01*
X123841000Y-76963364D01*
X123796768Y-77185734D01*
X123710003Y-77395203D01*
X123584040Y-77583720D01*
X123423720Y-77744040D01*
X123235203Y-77870003D01*
X123025734Y-77956768D01*
X122914549Y-77978884D01*
X122803365Y-78001000D01*
X122576635Y-78001000D01*
X122465451Y-77978884D01*
X122354266Y-77956768D01*
X122144797Y-77870003D01*
X121956280Y-77744040D01*
X121795960Y-77583720D01*
X121669997Y-77395203D01*
X121583232Y-77185734D01*
X121539000Y-76963364D01*
X121539000Y-76736636D01*
X121583232Y-76514266D01*
X121669997Y-76304797D01*
X121795960Y-76116280D01*
X121956280Y-75955960D01*
X122144797Y-75829997D01*
X122168942Y-75819996D01*
X122206150Y-75804584D01*
X122354266Y-75743232D01*
X122465451Y-75721116D01*
X122576635Y-75699000D01*
X122803365Y-75699000D01*
X122914549Y-75721116D01*
G37*
G36*
X167073638Y-75699000D02*
G01*
X167245734Y-75733232D01*
X167455203Y-75819997D01*
X167643720Y-75945960D01*
X167804040Y-76106280D01*
X167930003Y-76294797D01*
X168016768Y-76504266D01*
X168061000Y-76726636D01*
X168061000Y-76953364D01*
X168016768Y-77175734D01*
X167930003Y-77385203D01*
X167804040Y-77573720D01*
X167643720Y-77734040D01*
X167455203Y-77860003D01*
X167455202Y-77860004D01*
X167455201Y-77860004D01*
X167393850Y-77885416D01*
X167245734Y-77946768D01*
X167195460Y-77956768D01*
X167023365Y-77991000D01*
X166796635Y-77991000D01*
X166624540Y-77956768D01*
X166574266Y-77946768D01*
X166426150Y-77885416D01*
X166364799Y-77860004D01*
X166364798Y-77860004D01*
X166364797Y-77860003D01*
X166176280Y-77734040D01*
X166015960Y-77573720D01*
X165889997Y-77385203D01*
X165803232Y-77175734D01*
X165759000Y-76953364D01*
X165759000Y-76726636D01*
X165803232Y-76504266D01*
X165889997Y-76294797D01*
X166015960Y-76106280D01*
X166176280Y-75945960D01*
X166364797Y-75819997D01*
X166574266Y-75733232D01*
X166746362Y-75699000D01*
X166796635Y-75689000D01*
X167023365Y-75689000D01*
X167073638Y-75699000D01*
G37*
G36*
X47274549Y-65821116D02*
G01*
X47385734Y-65843232D01*
X47533850Y-65904584D01*
X47571059Y-65919996D01*
X47595203Y-65929997D01*
X47783720Y-66055960D01*
X47944040Y-66216280D01*
X48070003Y-66404797D01*
X48156768Y-66614266D01*
X48201000Y-66836636D01*
X48201000Y-67063364D01*
X48156768Y-67285734D01*
X48070003Y-67495203D01*
X47944040Y-67683720D01*
X47783720Y-67844040D01*
X47595203Y-67970003D01*
X47385734Y-68056768D01*
X47274549Y-68078884D01*
X47163365Y-68101000D01*
X46936635Y-68101000D01*
X46825451Y-68078884D01*
X46714266Y-68056768D01*
X46504797Y-67970003D01*
X46316280Y-67844040D01*
X46155960Y-67683720D01*
X46029997Y-67495203D01*
X45943232Y-67285734D01*
X45899000Y-67063364D01*
X45899000Y-66836636D01*
X45943232Y-66614266D01*
X46029997Y-66404797D01*
X46155960Y-66216280D01*
X46316280Y-66055960D01*
X46504797Y-65929997D01*
X46528942Y-65919996D01*
X46566150Y-65904584D01*
X46714266Y-65843232D01*
X46825451Y-65821116D01*
X46936635Y-65799000D01*
X47163365Y-65799000D01*
X47274549Y-65821116D01*
G37*
G36*
X242703638Y-65799000D02*
G01*
X242875734Y-65833232D01*
X243085203Y-65919997D01*
X243273720Y-66045960D01*
X243434040Y-66206280D01*
X243560003Y-66394797D01*
X243646768Y-66604266D01*
X243691000Y-66826636D01*
X243691000Y-67053364D01*
X243646768Y-67275734D01*
X243560003Y-67485203D01*
X243434040Y-67673720D01*
X243273720Y-67834040D01*
X243085203Y-67960003D01*
X243085202Y-67960004D01*
X243085201Y-67960004D01*
X243023850Y-67985416D01*
X242875734Y-68046768D01*
X242825460Y-68056768D01*
X242653365Y-68091000D01*
X242426635Y-68091000D01*
X242254540Y-68056768D01*
X242204266Y-68046768D01*
X242056150Y-67985416D01*
X241994799Y-67960004D01*
X241994798Y-67960004D01*
X241994797Y-67960003D01*
X241806280Y-67834040D01*
X241645960Y-67673720D01*
X241519997Y-67485203D01*
X241433232Y-67275734D01*
X241389000Y-67053364D01*
X241389000Y-66826636D01*
X241433232Y-66604266D01*
X241519997Y-66394797D01*
X241645960Y-66206280D01*
X241806280Y-66045960D01*
X241994797Y-65919997D01*
X242204266Y-65833232D01*
X242376362Y-65799000D01*
X242426635Y-65789000D01*
X242653365Y-65789000D01*
X242703638Y-65799000D01*
G37*
G36*
X140924549Y-62101116D02*
G01*
X141035734Y-62123232D01*
X141245203Y-62209997D01*
X141433720Y-62335960D01*
X141594040Y-62496280D01*
X141720003Y-62684797D01*
X141806768Y-62894266D01*
X141851000Y-63116636D01*
X141851000Y-63343364D01*
X141806768Y-63565734D01*
X141720003Y-63775203D01*
X141594040Y-63963720D01*
X141433720Y-64124040D01*
X141245203Y-64250003D01*
X141035734Y-64336768D01*
X140924549Y-64358884D01*
X140813365Y-64381000D01*
X140586635Y-64381000D01*
X140475451Y-64358884D01*
X140364266Y-64336768D01*
X140154797Y-64250003D01*
X139966280Y-64124040D01*
X139805960Y-63963720D01*
X139679997Y-63775203D01*
X139593232Y-63565734D01*
X139549000Y-63343364D01*
X139549000Y-63116636D01*
X139593232Y-62894266D01*
X139679997Y-62684797D01*
X139805960Y-62496280D01*
X139966280Y-62335960D01*
X140154797Y-62209997D01*
X140364266Y-62123232D01*
X140475451Y-62101116D01*
X140586635Y-62079000D01*
X140813365Y-62079000D01*
X140924549Y-62101116D01*
G37*
G36*
X129674549Y-60091116D02*
G01*
X129785734Y-60113232D01*
X129995203Y-60199997D01*
X130183720Y-60325960D01*
X130344040Y-60486280D01*
X130470003Y-60674797D01*
X130556768Y-60884266D01*
X130601000Y-61106636D01*
X130601000Y-61333364D01*
X130556768Y-61555734D01*
X130470003Y-61765203D01*
X130344040Y-61953720D01*
X130183720Y-62114040D01*
X129995203Y-62240003D01*
X129785734Y-62326768D01*
X129674549Y-62348884D01*
X129563365Y-62371000D01*
X129336635Y-62371000D01*
X129225451Y-62348884D01*
X129114266Y-62326768D01*
X128904797Y-62240003D01*
X128716280Y-62114040D01*
X128555960Y-61953720D01*
X128429997Y-61765203D01*
X128343232Y-61555734D01*
X128299000Y-61333364D01*
X128299000Y-61106636D01*
X128343232Y-60884266D01*
X128429997Y-60674797D01*
X128555960Y-60486280D01*
X128716280Y-60325960D01*
X128904797Y-60199997D01*
X129114266Y-60113232D01*
X129225451Y-60091116D01*
X129336635Y-60069000D01*
X129563365Y-60069000D01*
X129674549Y-60091116D01*
G37*
G36*
X167224549Y-47641116D02*
G01*
X167335734Y-47663232D01*
X167545203Y-47749997D01*
X167733720Y-47875960D01*
X167894040Y-48036280D01*
X168020003Y-48224797D01*
X168106768Y-48434266D01*
X168151000Y-48656636D01*
X168151000Y-48883364D01*
X168106768Y-49105734D01*
X168020003Y-49315203D01*
X167894040Y-49503720D01*
X167733720Y-49664040D01*
X167545203Y-49790003D01*
X167335734Y-49876768D01*
X167224549Y-49898884D01*
X167113365Y-49921000D01*
X166886635Y-49921000D01*
X166775451Y-49898884D01*
X166664266Y-49876768D01*
X166454797Y-49790003D01*
X166266280Y-49664040D01*
X166105960Y-49503720D01*
X165979997Y-49315203D01*
X165893232Y-49105734D01*
X165849000Y-48883364D01*
X165849000Y-48656636D01*
X165893232Y-48434266D01*
X165979997Y-48224797D01*
X166105960Y-48036280D01*
X166266280Y-47875960D01*
X166454797Y-47749997D01*
X166664266Y-47663232D01*
X166775451Y-47641116D01*
X166886635Y-47619000D01*
X167113365Y-47619000D01*
X167224549Y-47641116D01*
G37*
M02*
