G04 #@! TF.GenerationSoftware,KiCad,Pcbnew,8.0.3*
G04 #@! TF.CreationDate,2024-07-31T18:48:27+09:00*
G04 #@! TF.ProjectId,R46_TopPlate,5234365f-546f-4705-906c-6174652e6b69,ver1.0*
G04 #@! TF.SameCoordinates,Original*
G04 #@! TF.FileFunction,Legend,Top*
G04 #@! TF.FilePolarity,Positive*
%FSLAX46Y46*%
G04 Gerber Fmt 4.6, Leading zero omitted, Abs format (unit mm)*
G04 Created by KiCad (PCBNEW 8.0.3) date 2024-07-31 18:48:27*
%MOMM*%
%LPD*%
G01*
G04 APERTURE LIST*
%ADD10C,0.100000*%
%ADD11O,7.000000X5.000000*%
%ADD12C,1.524000*%
%ADD13C,0.600000*%
%ADD14C,3.700000*%
%ADD15C,3.800000*%
%ADD16C,2.200000*%
%ADD17O,3.500000X1.320000*%
G04 APERTURE END LIST*
D10*
X290664907Y-18765000D02*
X289033657Y-18765000D01*
X290721157Y-15433750D01*
X292352407Y-15433750D01*
X290664907Y-18765000D01*
G36*
X290664907Y-18765000D02*
G01*
X289033657Y-18765000D01*
X290721157Y-15433750D01*
X292352407Y-15433750D01*
X290664907Y-18765000D01*
G37*
X22908255Y-77963840D02*
X20908255Y-76400000D01*
X22908255Y-74963840D01*
X22908255Y-77963840D01*
G36*
X22908255Y-77963840D02*
G01*
X20908255Y-76400000D01*
X22908255Y-74963840D01*
X22908255Y-77963840D01*
G37*
X279064833Y-18744806D02*
X277433583Y-18744806D01*
X279121083Y-15413556D01*
X280752333Y-15413556D01*
X279064833Y-18744806D01*
G36*
X279064833Y-18744806D02*
G01*
X277433583Y-18744806D01*
X279121083Y-15413556D01*
X280752333Y-15413556D01*
X279064833Y-18744806D01*
G37*
X292460899Y-108193566D02*
X290829649Y-108193566D01*
X289142149Y-104862316D01*
X290773399Y-104862316D01*
X292460899Y-108193566D01*
G36*
X292460899Y-108193566D02*
G01*
X290829649Y-108193566D01*
X289142149Y-104862316D01*
X290773399Y-104862316D01*
X292460899Y-108193566D01*
G37*
X284731250Y-108200000D02*
X283100000Y-108200000D01*
X281412500Y-104868750D01*
X283043750Y-104868750D01*
X284731250Y-108200000D01*
G36*
X284731250Y-108200000D02*
G01*
X283100000Y-108200000D01*
X281412500Y-104868750D01*
X283043750Y-104868750D01*
X284731250Y-108200000D01*
G37*
X282935258Y-18758566D02*
X281304008Y-18758566D01*
X282991508Y-15427316D01*
X284622758Y-15427316D01*
X282935258Y-18758566D01*
G36*
X282935258Y-18758566D02*
G01*
X281304008Y-18758566D01*
X282991508Y-15427316D01*
X284622758Y-15427316D01*
X282935258Y-18758566D01*
G37*
X288597461Y-108198566D02*
X286966211Y-108198566D01*
X285278711Y-104867316D01*
X286909961Y-104867316D01*
X288597461Y-108198566D01*
G36*
X288597461Y-108198566D02*
G01*
X286966211Y-108198566D01*
X285278711Y-104867316D01*
X286909961Y-104867316D01*
X288597461Y-108198566D01*
G37*
X286801469Y-18760000D02*
X285170219Y-18760000D01*
X286857719Y-15428750D01*
X288488969Y-15428750D01*
X286801469Y-18760000D01*
G36*
X286801469Y-18760000D02*
G01*
X285170219Y-18760000D01*
X286857719Y-15428750D01*
X288488969Y-15428750D01*
X286801469Y-18760000D01*
G37*
X276992627Y-108213232D02*
X275361377Y-108213232D01*
X273673877Y-104881982D01*
X275305127Y-104881982D01*
X276992627Y-108213232D01*
G36*
X276992627Y-108213232D02*
G01*
X275361377Y-108213232D01*
X273673877Y-104881982D01*
X275305127Y-104881982D01*
X276992627Y-108213232D01*
G37*
X275196635Y-18745334D02*
X273565385Y-18745334D01*
X275252885Y-15414084D01*
X276884135Y-15414084D01*
X275196635Y-18745334D01*
G36*
X275196635Y-18745334D02*
G01*
X273565385Y-18745334D01*
X275252885Y-15414084D01*
X276884135Y-15414084D01*
X275196635Y-18745334D01*
G37*
X280860825Y-108213760D02*
X279229575Y-108213760D01*
X277542075Y-104882510D01*
X279173325Y-104882510D01*
X280860825Y-108213760D01*
G36*
X280860825Y-108213760D02*
G01*
X279229575Y-108213760D01*
X277542075Y-104882510D01*
X279173325Y-104882510D01*
X280860825Y-108213760D01*
G37*
X258497617Y-86222419D02*
X258164284Y-85746228D01*
X257926189Y-86222419D02*
X257926189Y-85222419D01*
X257926189Y-85222419D02*
X258307141Y-85222419D01*
X258307141Y-85222419D02*
X258402379Y-85270038D01*
X258402379Y-85270038D02*
X258449998Y-85317657D01*
X258449998Y-85317657D02*
X258497617Y-85412895D01*
X258497617Y-85412895D02*
X258497617Y-85555752D01*
X258497617Y-85555752D02*
X258449998Y-85650990D01*
X258449998Y-85650990D02*
X258402379Y-85698609D01*
X258402379Y-85698609D02*
X258307141Y-85746228D01*
X258307141Y-85746228D02*
X257926189Y-85746228D01*
X258926189Y-85698609D02*
X259259522Y-85698609D01*
X259402379Y-86222419D02*
X258926189Y-86222419D01*
X258926189Y-86222419D02*
X258926189Y-85222419D01*
X258926189Y-85222419D02*
X259402379Y-85222419D01*
X259688094Y-85222419D02*
X260021427Y-86222419D01*
X260021427Y-86222419D02*
X260354760Y-85222419D01*
X260688094Y-86222419D02*
X260688094Y-85222419D01*
X261164284Y-85222419D02*
X261164284Y-86031942D01*
X261164284Y-86031942D02*
X261211903Y-86127180D01*
X261211903Y-86127180D02*
X261259522Y-86174800D01*
X261259522Y-86174800D02*
X261354760Y-86222419D01*
X261354760Y-86222419D02*
X261545236Y-86222419D01*
X261545236Y-86222419D02*
X261640474Y-86174800D01*
X261640474Y-86174800D02*
X261688093Y-86127180D01*
X261688093Y-86127180D02*
X261735712Y-86031942D01*
X261735712Y-86031942D02*
X261735712Y-85222419D01*
X262211903Y-86222419D02*
X262211903Y-85222419D01*
X262211903Y-85222419D02*
X262783331Y-86222419D01*
X262783331Y-86222419D02*
X262783331Y-85222419D01*
X263783331Y-85270038D02*
X263688093Y-85222419D01*
X263688093Y-85222419D02*
X263545236Y-85222419D01*
X263545236Y-85222419D02*
X263402379Y-85270038D01*
X263402379Y-85270038D02*
X263307141Y-85365276D01*
X263307141Y-85365276D02*
X263259522Y-85460514D01*
X263259522Y-85460514D02*
X263211903Y-85650990D01*
X263211903Y-85650990D02*
X263211903Y-85793847D01*
X263211903Y-85793847D02*
X263259522Y-85984323D01*
X263259522Y-85984323D02*
X263307141Y-86079561D01*
X263307141Y-86079561D02*
X263402379Y-86174800D01*
X263402379Y-86174800D02*
X263545236Y-86222419D01*
X263545236Y-86222419D02*
X263640474Y-86222419D01*
X263640474Y-86222419D02*
X263783331Y-86174800D01*
X263783331Y-86174800D02*
X263830950Y-86127180D01*
X263830950Y-86127180D02*
X263830950Y-85793847D01*
X263830950Y-85793847D02*
X263640474Y-85793847D01*
X264688093Y-85555752D02*
X264688093Y-86222419D01*
X264449998Y-85174800D02*
X264211903Y-85889085D01*
X264211903Y-85889085D02*
X264830950Y-85889085D01*
X265640474Y-85222419D02*
X265449998Y-85222419D01*
X265449998Y-85222419D02*
X265354760Y-85270038D01*
X265354760Y-85270038D02*
X265307141Y-85317657D01*
X265307141Y-85317657D02*
X265211903Y-85460514D01*
X265211903Y-85460514D02*
X265164284Y-85650990D01*
X265164284Y-85650990D02*
X265164284Y-86031942D01*
X265164284Y-86031942D02*
X265211903Y-86127180D01*
X265211903Y-86127180D02*
X265259522Y-86174800D01*
X265259522Y-86174800D02*
X265354760Y-86222419D01*
X265354760Y-86222419D02*
X265545236Y-86222419D01*
X265545236Y-86222419D02*
X265640474Y-86174800D01*
X265640474Y-86174800D02*
X265688093Y-86127180D01*
X265688093Y-86127180D02*
X265735712Y-86031942D01*
X265735712Y-86031942D02*
X265735712Y-85793847D01*
X265735712Y-85793847D02*
X265688093Y-85698609D01*
X265688093Y-85698609D02*
X265640474Y-85650990D01*
X265640474Y-85650990D02*
X265545236Y-85603371D01*
X265545236Y-85603371D02*
X265354760Y-85603371D01*
X265354760Y-85603371D02*
X265259522Y-85650990D01*
X265259522Y-85650990D02*
X265211903Y-85698609D01*
X265211903Y-85698609D02*
X265164284Y-85793847D01*
X266830951Y-85555752D02*
X267069046Y-86222419D01*
X267069046Y-86222419D02*
X267307141Y-85555752D01*
X268069046Y-86174800D02*
X267973808Y-86222419D01*
X267973808Y-86222419D02*
X267783332Y-86222419D01*
X267783332Y-86222419D02*
X267688094Y-86174800D01*
X267688094Y-86174800D02*
X267640475Y-86079561D01*
X267640475Y-86079561D02*
X267640475Y-85698609D01*
X267640475Y-85698609D02*
X267688094Y-85603371D01*
X267688094Y-85603371D02*
X267783332Y-85555752D01*
X267783332Y-85555752D02*
X267973808Y-85555752D01*
X267973808Y-85555752D02*
X268069046Y-85603371D01*
X268069046Y-85603371D02*
X268116665Y-85698609D01*
X268116665Y-85698609D02*
X268116665Y-85793847D01*
X268116665Y-85793847D02*
X267640475Y-85889085D01*
X268545237Y-86222419D02*
X268545237Y-85555752D01*
X268545237Y-85746228D02*
X268592856Y-85650990D01*
X268592856Y-85650990D02*
X268640475Y-85603371D01*
X268640475Y-85603371D02*
X268735713Y-85555752D01*
X268735713Y-85555752D02*
X268830951Y-85555752D01*
X269688094Y-86222419D02*
X269116666Y-86222419D01*
X269402380Y-86222419D02*
X269402380Y-85222419D01*
X269402380Y-85222419D02*
X269307142Y-85365276D01*
X269307142Y-85365276D02*
X269211904Y-85460514D01*
X269211904Y-85460514D02*
X269116666Y-85508133D01*
X270116666Y-86127180D02*
X270164285Y-86174800D01*
X270164285Y-86174800D02*
X270116666Y-86222419D01*
X270116666Y-86222419D02*
X270069047Y-86174800D01*
X270069047Y-86174800D02*
X270116666Y-86127180D01*
X270116666Y-86127180D02*
X270116666Y-86222419D01*
X270783332Y-85222419D02*
X270878570Y-85222419D01*
X270878570Y-85222419D02*
X270973808Y-85270038D01*
X270973808Y-85270038D02*
X271021427Y-85317657D01*
X271021427Y-85317657D02*
X271069046Y-85412895D01*
X271069046Y-85412895D02*
X271116665Y-85603371D01*
X271116665Y-85603371D02*
X271116665Y-85841466D01*
X271116665Y-85841466D02*
X271069046Y-86031942D01*
X271069046Y-86031942D02*
X271021427Y-86127180D01*
X271021427Y-86127180D02*
X270973808Y-86174800D01*
X270973808Y-86174800D02*
X270878570Y-86222419D01*
X270878570Y-86222419D02*
X270783332Y-86222419D01*
X270783332Y-86222419D02*
X270688094Y-86174800D01*
X270688094Y-86174800D02*
X270640475Y-86127180D01*
X270640475Y-86127180D02*
X270592856Y-86031942D01*
X270592856Y-86031942D02*
X270545237Y-85841466D01*
X270545237Y-85841466D02*
X270545237Y-85603371D01*
X270545237Y-85603371D02*
X270592856Y-85412895D01*
X270592856Y-85412895D02*
X270640475Y-85317657D01*
X270640475Y-85317657D02*
X270688094Y-85270038D01*
X270688094Y-85270038D02*
X270783332Y-85222419D01*
X272307142Y-86222419D02*
X272307142Y-85222419D01*
X272307142Y-85222419D02*
X272545237Y-85222419D01*
X272545237Y-85222419D02*
X272688094Y-85270038D01*
X272688094Y-85270038D02*
X272783332Y-85365276D01*
X272783332Y-85365276D02*
X272830951Y-85460514D01*
X272830951Y-85460514D02*
X272878570Y-85650990D01*
X272878570Y-85650990D02*
X272878570Y-85793847D01*
X272878570Y-85793847D02*
X272830951Y-85984323D01*
X272830951Y-85984323D02*
X272783332Y-86079561D01*
X272783332Y-86079561D02*
X272688094Y-86174800D01*
X272688094Y-86174800D02*
X272545237Y-86222419D01*
X272545237Y-86222419D02*
X272307142Y-86222419D01*
X273688094Y-86174800D02*
X273592856Y-86222419D01*
X273592856Y-86222419D02*
X273402380Y-86222419D01*
X273402380Y-86222419D02*
X273307142Y-86174800D01*
X273307142Y-86174800D02*
X273259523Y-86079561D01*
X273259523Y-86079561D02*
X273259523Y-85698609D01*
X273259523Y-85698609D02*
X273307142Y-85603371D01*
X273307142Y-85603371D02*
X273402380Y-85555752D01*
X273402380Y-85555752D02*
X273592856Y-85555752D01*
X273592856Y-85555752D02*
X273688094Y-85603371D01*
X273688094Y-85603371D02*
X273735713Y-85698609D01*
X273735713Y-85698609D02*
X273735713Y-85793847D01*
X273735713Y-85793847D02*
X273259523Y-85889085D01*
X274116666Y-86174800D02*
X274211904Y-86222419D01*
X274211904Y-86222419D02*
X274402380Y-86222419D01*
X274402380Y-86222419D02*
X274497618Y-86174800D01*
X274497618Y-86174800D02*
X274545237Y-86079561D01*
X274545237Y-86079561D02*
X274545237Y-86031942D01*
X274545237Y-86031942D02*
X274497618Y-85936704D01*
X274497618Y-85936704D02*
X274402380Y-85889085D01*
X274402380Y-85889085D02*
X274259523Y-85889085D01*
X274259523Y-85889085D02*
X274164285Y-85841466D01*
X274164285Y-85841466D02*
X274116666Y-85746228D01*
X274116666Y-85746228D02*
X274116666Y-85698609D01*
X274116666Y-85698609D02*
X274164285Y-85603371D01*
X274164285Y-85603371D02*
X274259523Y-85555752D01*
X274259523Y-85555752D02*
X274402380Y-85555752D01*
X274402380Y-85555752D02*
X274497618Y-85603371D01*
X274973809Y-86222419D02*
X274973809Y-85555752D01*
X274973809Y-85222419D02*
X274926190Y-85270038D01*
X274926190Y-85270038D02*
X274973809Y-85317657D01*
X274973809Y-85317657D02*
X275021428Y-85270038D01*
X275021428Y-85270038D02*
X274973809Y-85222419D01*
X274973809Y-85222419D02*
X274973809Y-85317657D01*
X275878570Y-85555752D02*
X275878570Y-86365276D01*
X275878570Y-86365276D02*
X275830951Y-86460514D01*
X275830951Y-86460514D02*
X275783332Y-86508133D01*
X275783332Y-86508133D02*
X275688094Y-86555752D01*
X275688094Y-86555752D02*
X275545237Y-86555752D01*
X275545237Y-86555752D02*
X275449999Y-86508133D01*
X275878570Y-86174800D02*
X275783332Y-86222419D01*
X275783332Y-86222419D02*
X275592856Y-86222419D01*
X275592856Y-86222419D02*
X275497618Y-86174800D01*
X275497618Y-86174800D02*
X275449999Y-86127180D01*
X275449999Y-86127180D02*
X275402380Y-86031942D01*
X275402380Y-86031942D02*
X275402380Y-85746228D01*
X275402380Y-85746228D02*
X275449999Y-85650990D01*
X275449999Y-85650990D02*
X275497618Y-85603371D01*
X275497618Y-85603371D02*
X275592856Y-85555752D01*
X275592856Y-85555752D02*
X275783332Y-85555752D01*
X275783332Y-85555752D02*
X275878570Y-85603371D01*
X276354761Y-85555752D02*
X276354761Y-86222419D01*
X276354761Y-85650990D02*
X276402380Y-85603371D01*
X276402380Y-85603371D02*
X276497618Y-85555752D01*
X276497618Y-85555752D02*
X276640475Y-85555752D01*
X276640475Y-85555752D02*
X276735713Y-85603371D01*
X276735713Y-85603371D02*
X276783332Y-85698609D01*
X276783332Y-85698609D02*
X276783332Y-86222419D01*
X277640475Y-86174800D02*
X277545237Y-86222419D01*
X277545237Y-86222419D02*
X277354761Y-86222419D01*
X277354761Y-86222419D02*
X277259523Y-86174800D01*
X277259523Y-86174800D02*
X277211904Y-86079561D01*
X277211904Y-86079561D02*
X277211904Y-85698609D01*
X277211904Y-85698609D02*
X277259523Y-85603371D01*
X277259523Y-85603371D02*
X277354761Y-85555752D01*
X277354761Y-85555752D02*
X277545237Y-85555752D01*
X277545237Y-85555752D02*
X277640475Y-85603371D01*
X277640475Y-85603371D02*
X277688094Y-85698609D01*
X277688094Y-85698609D02*
X277688094Y-85793847D01*
X277688094Y-85793847D02*
X277211904Y-85889085D01*
X278545237Y-86222419D02*
X278545237Y-85222419D01*
X278545237Y-86174800D02*
X278449999Y-86222419D01*
X278449999Y-86222419D02*
X278259523Y-86222419D01*
X278259523Y-86222419D02*
X278164285Y-86174800D01*
X278164285Y-86174800D02*
X278116666Y-86127180D01*
X278116666Y-86127180D02*
X278069047Y-86031942D01*
X278069047Y-86031942D02*
X278069047Y-85746228D01*
X278069047Y-85746228D02*
X278116666Y-85650990D01*
X278116666Y-85650990D02*
X278164285Y-85603371D01*
X278164285Y-85603371D02*
X278259523Y-85555752D01*
X278259523Y-85555752D02*
X278449999Y-85555752D01*
X278449999Y-85555752D02*
X278545237Y-85603371D01*
X279783333Y-86222419D02*
X279783333Y-85222419D01*
X279783333Y-85603371D02*
X279878571Y-85555752D01*
X279878571Y-85555752D02*
X280069047Y-85555752D01*
X280069047Y-85555752D02*
X280164285Y-85603371D01*
X280164285Y-85603371D02*
X280211904Y-85650990D01*
X280211904Y-85650990D02*
X280259523Y-85746228D01*
X280259523Y-85746228D02*
X280259523Y-86031942D01*
X280259523Y-86031942D02*
X280211904Y-86127180D01*
X280211904Y-86127180D02*
X280164285Y-86174800D01*
X280164285Y-86174800D02*
X280069047Y-86222419D01*
X280069047Y-86222419D02*
X279878571Y-86222419D01*
X279878571Y-86222419D02*
X279783333Y-86174800D01*
X280592857Y-85555752D02*
X280830952Y-86222419D01*
X281069047Y-85555752D02*
X280830952Y-86222419D01*
X280830952Y-86222419D02*
X280735714Y-86460514D01*
X280735714Y-86460514D02*
X280688095Y-86508133D01*
X280688095Y-86508133D02*
X280592857Y-86555752D01*
X282640476Y-85555752D02*
X282640476Y-86365276D01*
X282640476Y-86365276D02*
X282592857Y-86460514D01*
X282592857Y-86460514D02*
X282545238Y-86508133D01*
X282545238Y-86508133D02*
X282450000Y-86555752D01*
X282450000Y-86555752D02*
X282307143Y-86555752D01*
X282307143Y-86555752D02*
X282211905Y-86508133D01*
X282640476Y-86174800D02*
X282545238Y-86222419D01*
X282545238Y-86222419D02*
X282354762Y-86222419D01*
X282354762Y-86222419D02*
X282259524Y-86174800D01*
X282259524Y-86174800D02*
X282211905Y-86127180D01*
X282211905Y-86127180D02*
X282164286Y-86031942D01*
X282164286Y-86031942D02*
X282164286Y-85746228D01*
X282164286Y-85746228D02*
X282211905Y-85650990D01*
X282211905Y-85650990D02*
X282259524Y-85603371D01*
X282259524Y-85603371D02*
X282354762Y-85555752D01*
X282354762Y-85555752D02*
X282545238Y-85555752D01*
X282545238Y-85555752D02*
X282640476Y-85603371D01*
X282973810Y-85555752D02*
X283354762Y-85555752D01*
X283116667Y-85222419D02*
X283116667Y-86079561D01*
X283116667Y-86079561D02*
X283164286Y-86174800D01*
X283164286Y-86174800D02*
X283259524Y-86222419D01*
X283259524Y-86222419D02*
X283354762Y-86222419D01*
X283688096Y-86222419D02*
X283688096Y-85555752D01*
X283688096Y-85222419D02*
X283640477Y-85270038D01*
X283640477Y-85270038D02*
X283688096Y-85317657D01*
X283688096Y-85317657D02*
X283735715Y-85270038D01*
X283735715Y-85270038D02*
X283688096Y-85222419D01*
X283688096Y-85222419D02*
X283688096Y-85317657D01*
X284164286Y-85555752D02*
X284164286Y-86555752D01*
X284164286Y-85603371D02*
X284259524Y-85555752D01*
X284259524Y-85555752D02*
X284450000Y-85555752D01*
X284450000Y-85555752D02*
X284545238Y-85603371D01*
X284545238Y-85603371D02*
X284592857Y-85650990D01*
X284592857Y-85650990D02*
X284640476Y-85746228D01*
X284640476Y-85746228D02*
X284640476Y-86031942D01*
X284640476Y-86031942D02*
X284592857Y-86127180D01*
X284592857Y-86127180D02*
X284545238Y-86174800D01*
X284545238Y-86174800D02*
X284450000Y-86222419D01*
X284450000Y-86222419D02*
X284259524Y-86222419D01*
X284259524Y-86222419D02*
X284164286Y-86174800D01*
X285021429Y-86174800D02*
X285116667Y-86222419D01*
X285116667Y-86222419D02*
X285307143Y-86222419D01*
X285307143Y-86222419D02*
X285402381Y-86174800D01*
X285402381Y-86174800D02*
X285450000Y-86079561D01*
X285450000Y-86079561D02*
X285450000Y-86031942D01*
X285450000Y-86031942D02*
X285402381Y-85936704D01*
X285402381Y-85936704D02*
X285307143Y-85889085D01*
X285307143Y-85889085D02*
X285164286Y-85889085D01*
X285164286Y-85889085D02*
X285069048Y-85841466D01*
X285069048Y-85841466D02*
X285021429Y-85746228D01*
X285021429Y-85746228D02*
X285021429Y-85698609D01*
X285021429Y-85698609D02*
X285069048Y-85603371D01*
X285069048Y-85603371D02*
X285164286Y-85555752D01*
X285164286Y-85555752D02*
X285307143Y-85555752D01*
X285307143Y-85555752D02*
X285402381Y-85603371D01*
X286592858Y-85317657D02*
X286640477Y-85270038D01*
X286640477Y-85270038D02*
X286735715Y-85222419D01*
X286735715Y-85222419D02*
X286973810Y-85222419D01*
X286973810Y-85222419D02*
X287069048Y-85270038D01*
X287069048Y-85270038D02*
X287116667Y-85317657D01*
X287116667Y-85317657D02*
X287164286Y-85412895D01*
X287164286Y-85412895D02*
X287164286Y-85508133D01*
X287164286Y-85508133D02*
X287116667Y-85650990D01*
X287116667Y-85650990D02*
X286545239Y-86222419D01*
X286545239Y-86222419D02*
X287164286Y-86222419D01*
X287783334Y-85222419D02*
X287878572Y-85222419D01*
X287878572Y-85222419D02*
X287973810Y-85270038D01*
X287973810Y-85270038D02*
X288021429Y-85317657D01*
X288021429Y-85317657D02*
X288069048Y-85412895D01*
X288069048Y-85412895D02*
X288116667Y-85603371D01*
X288116667Y-85603371D02*
X288116667Y-85841466D01*
X288116667Y-85841466D02*
X288069048Y-86031942D01*
X288069048Y-86031942D02*
X288021429Y-86127180D01*
X288021429Y-86127180D02*
X287973810Y-86174800D01*
X287973810Y-86174800D02*
X287878572Y-86222419D01*
X287878572Y-86222419D02*
X287783334Y-86222419D01*
X287783334Y-86222419D02*
X287688096Y-86174800D01*
X287688096Y-86174800D02*
X287640477Y-86127180D01*
X287640477Y-86127180D02*
X287592858Y-86031942D01*
X287592858Y-86031942D02*
X287545239Y-85841466D01*
X287545239Y-85841466D02*
X287545239Y-85603371D01*
X287545239Y-85603371D02*
X287592858Y-85412895D01*
X287592858Y-85412895D02*
X287640477Y-85317657D01*
X287640477Y-85317657D02*
X287688096Y-85270038D01*
X287688096Y-85270038D02*
X287783334Y-85222419D01*
X288497620Y-85317657D02*
X288545239Y-85270038D01*
X288545239Y-85270038D02*
X288640477Y-85222419D01*
X288640477Y-85222419D02*
X288878572Y-85222419D01*
X288878572Y-85222419D02*
X288973810Y-85270038D01*
X288973810Y-85270038D02*
X289021429Y-85317657D01*
X289021429Y-85317657D02*
X289069048Y-85412895D01*
X289069048Y-85412895D02*
X289069048Y-85508133D01*
X289069048Y-85508133D02*
X289021429Y-85650990D01*
X289021429Y-85650990D02*
X288450001Y-86222419D01*
X288450001Y-86222419D02*
X289069048Y-86222419D01*
X289926191Y-85555752D02*
X289926191Y-86222419D01*
X289688096Y-85174800D02*
X289450001Y-85889085D01*
X289450001Y-85889085D02*
X290069048Y-85889085D01*
%LPC*%
D11*
X274635000Y-42600000D03*
D12*
X39470000Y-19620000D03*
X39472123Y-22161138D03*
X39467058Y-24706377D03*
X39465366Y-27246256D03*
X39470361Y-29786131D03*
X39466772Y-32322003D03*
X39467877Y-34866209D03*
X39468583Y-37410466D03*
X39469374Y-39947294D03*
X39469425Y-42486690D03*
X39468370Y-45024098D03*
X39468297Y-47565451D03*
X16678735Y-47569888D03*
X16678479Y-45026111D03*
X16681165Y-42486170D03*
X16677401Y-39947348D03*
X16676715Y-37407930D03*
X16680259Y-34867364D03*
X16678754Y-32324288D03*
X16678698Y-29784780D03*
X16676625Y-27244724D03*
X16677247Y-24704380D03*
X16679611Y-22164121D03*
X16662464Y-19605342D03*
D13*
X46960000Y-16795000D03*
X46960000Y-17620000D03*
X46960000Y-18445000D03*
X46960000Y-19295000D03*
X46960000Y-20120000D03*
X46960000Y-20945000D03*
X42320000Y-20955000D03*
X42320000Y-20130000D03*
X42320000Y-19305000D03*
X42320000Y-18455000D03*
X42320000Y-17630000D03*
X42320000Y-16805000D03*
D14*
X142775000Y-61710000D03*
D15*
X17435000Y-76350000D03*
D13*
X42320000Y-50015000D03*
X42320000Y-49190000D03*
X42320000Y-48365000D03*
X42320000Y-47515000D03*
X42320000Y-46690000D03*
X42320000Y-45865000D03*
X48890000Y-45845000D03*
X48890000Y-46670000D03*
X48890000Y-47495000D03*
X48890000Y-48345000D03*
X48890000Y-49170000D03*
X48890000Y-49995000D03*
D16*
X48010000Y-58150000D03*
D12*
X35690000Y-18125000D03*
X35690000Y-20665000D03*
X35690000Y-23205000D03*
X35690000Y-25745000D03*
X35690000Y-28285000D03*
X35690000Y-30825000D03*
X35690000Y-33365000D03*
X35690000Y-35905000D03*
X35690000Y-38445000D03*
X35690000Y-40985000D03*
X35690000Y-43525000D03*
X35690000Y-46065000D03*
X20470000Y-46065000D03*
X20470000Y-43525000D03*
X20470000Y-40985000D03*
X20470000Y-38445000D03*
X20470000Y-35905000D03*
X20470000Y-33365000D03*
X20470000Y-30825000D03*
X20470000Y-28285000D03*
X20470000Y-25745000D03*
X20470000Y-23205000D03*
X20470000Y-20665000D03*
X20470000Y-18125000D03*
D17*
X28078600Y-46000000D03*
%LPD*%
M02*
