G04 #@! TF.GenerationSoftware,KiCad,Pcbnew,8.0.3*
G04 #@! TF.CreationDate,2024-07-31T18:48:27+09:00*
G04 #@! TF.ProjectId,R46_TopPlate,5234365f-546f-4705-906c-6174652e6b69,ver1.0*
G04 #@! TF.SameCoordinates,Original*
G04 #@! TF.FileFunction,Profile,NP*
%FSLAX46Y46*%
G04 Gerber Fmt 4.6, Leading zero omitted, Abs format (unit mm)*
G04 Created by KiCad (PCBNEW 8.0.3) date 2024-07-31 18:48:27*
%MOMM*%
%LPD*%
G01*
G04 APERTURE LIST*
G04 #@! TA.AperFunction,Profile*
%ADD10C,0.090000*%
G04 #@! TD*
%ADD11C,0.090000*%
G04 APERTURE END LIST*
D10*
X164334413Y-50032741D02*
X178334398Y-50032741D01*
X225959398Y-69082741D02*
X225959377Y-83082747D01*
D11*
X82712091Y-107209957D02*
X82764256Y-107118067D01*
X82825030Y-107033186D01*
X82893702Y-106955756D01*
X82969561Y-106886222D01*
X83051894Y-106825026D01*
X83139990Y-106772612D01*
X83233137Y-106729422D01*
X83330624Y-106695901D01*
X83431740Y-106672491D01*
X83535771Y-106659635D01*
X83606395Y-106657148D01*
D10*
X49747157Y-92894724D02*
X49747135Y-106894731D01*
X264059377Y-83082747D02*
X250059391Y-83082726D01*
X296797430Y-14295000D02*
X270603314Y-14295000D01*
D11*
X40859262Y-52894883D02*
X40958004Y-52889999D01*
X41055099Y-52875525D01*
X41149886Y-52851725D01*
X41241711Y-52818864D01*
X41329913Y-52777206D01*
X41413837Y-52727015D01*
X41492824Y-52668555D01*
X41566218Y-52602093D01*
X278175311Y-19569742D02*
X278287720Y-19575424D01*
X278396895Y-19592103D01*
X278502282Y-19619224D01*
X278603325Y-19656231D01*
X278699472Y-19702572D01*
X278790166Y-19757690D01*
X278874854Y-19821032D01*
X278952982Y-19892044D01*
X279023994Y-19970170D01*
X279087337Y-20054857D01*
X279142456Y-20145550D01*
X279188796Y-20241694D01*
X279225804Y-20342735D01*
X279252925Y-20448119D01*
X279269604Y-20557291D01*
X279275287Y-20669697D01*
D10*
X266735032Y-69082482D02*
X282005848Y-69082741D01*
X181927224Y-101024998D02*
X181927224Y-97437104D01*
D11*
X41566218Y-52602093D02*
X41632681Y-52528699D01*
X41691143Y-52449712D01*
X41741337Y-52365787D01*
X41783000Y-52277583D01*
X41815865Y-52185757D01*
X41839668Y-52090965D01*
X41854144Y-51993866D01*
X41859029Y-51895116D01*
D10*
X20604147Y-14295000D02*
X15297321Y-14295000D01*
D11*
X263297279Y-24457127D02*
X263399490Y-24462297D01*
X263498758Y-24477470D01*
X263594581Y-24502142D01*
X263686453Y-24535807D01*
X263773871Y-24577959D01*
X263856331Y-24628093D01*
X263933330Y-24685703D01*
X264004363Y-24750285D01*
X264068926Y-24821333D01*
X264126515Y-24898341D01*
X264176627Y-24980804D01*
X264218758Y-25068218D01*
X264252403Y-25160075D01*
X264277060Y-25255871D01*
X264292223Y-25355101D01*
X264297390Y-25457260D01*
D10*
X135759413Y-69082741D02*
X149759398Y-69082741D01*
D11*
X69388400Y-19569742D02*
X69500801Y-19575424D01*
X69609971Y-19592103D01*
X69715353Y-19619224D01*
X69816393Y-19656231D01*
X69912536Y-19702572D01*
X70003229Y-19757690D01*
X70087916Y-19821032D01*
X70166044Y-19892044D01*
X70237056Y-19970170D01*
X70300400Y-20054857D01*
X70355519Y-20145550D01*
X70401861Y-20241694D01*
X70438870Y-20342735D01*
X70465991Y-20448119D01*
X70482670Y-20557291D01*
X70488354Y-20669697D01*
D10*
X60483991Y-81954759D02*
X60484012Y-78369405D01*
D11*
X299797441Y-17295032D02*
X299793536Y-17140639D01*
X299781949Y-16988274D01*
X299762868Y-16838125D01*
X299736481Y-16690382D01*
X299702977Y-16545232D01*
X299662545Y-16402864D01*
X299615373Y-16263467D01*
X299561651Y-16127228D01*
X299501565Y-15994336D01*
X299435306Y-15864979D01*
X299363062Y-15739347D01*
X299285022Y-15617627D01*
X299201373Y-15500007D01*
X299112305Y-15386677D01*
X299018007Y-15277825D01*
X298918666Y-15173639D01*
X298814473Y-15074307D01*
X298705614Y-14980018D01*
X298592279Y-14890960D01*
X298474657Y-14807323D01*
X298352936Y-14729293D01*
X298227305Y-14657060D01*
X298097952Y-14590813D01*
X297965067Y-14530738D01*
X297828836Y-14477026D01*
X297689451Y-14429864D01*
X297547098Y-14389440D01*
X297401966Y-14355944D01*
X297254245Y-14329563D01*
X297104123Y-14310487D01*
X296951788Y-14298903D01*
X296797430Y-14295000D01*
X64421993Y-20669697D02*
X64427675Y-20557291D01*
X64444354Y-20448119D01*
X64471475Y-20342735D01*
X64508482Y-20241694D01*
X64554822Y-20145550D01*
X64609941Y-20054857D01*
X64673283Y-19970170D01*
X64744295Y-19892044D01*
X64822421Y-19821032D01*
X64907108Y-19757690D01*
X64997800Y-19702572D01*
X65093944Y-19656231D01*
X65194986Y-19619224D01*
X65300369Y-19592103D01*
X65409541Y-19575424D01*
X65521947Y-19569742D01*
D10*
X121184398Y-50032741D02*
X121184377Y-64032747D01*
X84362830Y-78369405D02*
X83074429Y-78369405D01*
D11*
X273208947Y-20669697D02*
X273214629Y-20557291D01*
X273231308Y-20448119D01*
X273258429Y-20342735D01*
X273295436Y-20241694D01*
X273341776Y-20145550D01*
X273396894Y-20054857D01*
X273460235Y-19970170D01*
X273531246Y-19892044D01*
X273609371Y-19821032D01*
X273694057Y-19757690D01*
X273784748Y-19702572D01*
X273880890Y-19656231D01*
X273981928Y-19619224D01*
X274087309Y-19592103D01*
X274196478Y-19575424D01*
X274308880Y-19569742D01*
D10*
X81551094Y-14295000D02*
X47374347Y-14295000D01*
X282505839Y-66939934D02*
X288830797Y-66939934D01*
X67808974Y-67439947D02*
X67808953Y-73775887D01*
X190540565Y-88141612D02*
X204540551Y-88141612D01*
X68796898Y-92894724D02*
X68796877Y-106894731D01*
X117863757Y-86503663D02*
X117863757Y-88132719D01*
X159284398Y-50032741D02*
X159284377Y-64032747D01*
X270484781Y-109294886D02*
X296797430Y-109294886D01*
X217604590Y-101262624D02*
X206056070Y-101275005D01*
X88897351Y-24457127D02*
X263297279Y-24457127D01*
X287267542Y-47893164D02*
X293592501Y-47893164D01*
X40859241Y-14295000D02*
X35552050Y-14295000D01*
D11*
X287008536Y-20669697D02*
X287002852Y-20782102D01*
X286986172Y-20891274D01*
X286959050Y-20996657D01*
X286922039Y-21097699D01*
X286875696Y-21193843D01*
X286820575Y-21284535D01*
X286757229Y-21369222D01*
X286686215Y-21447348D01*
X286608085Y-21518360D01*
X286523396Y-21581702D01*
X286432701Y-21636821D01*
X286336556Y-21683161D01*
X286235515Y-21720168D01*
X286130132Y-21747289D01*
X286020962Y-21763968D01*
X285908560Y-21769651D01*
X285908560Y-21769651D02*
X285796154Y-21763968D01*
X285686981Y-21747289D01*
X285581596Y-21720168D01*
X285480554Y-21683161D01*
X285384408Y-21636821D01*
X285293713Y-21581702D01*
X285209025Y-21518360D01*
X285130896Y-21447348D01*
X285059883Y-21369222D01*
X284996539Y-21284535D01*
X284941418Y-21193843D01*
X284895077Y-21097699D01*
X284858068Y-20996657D01*
X284830946Y-20891274D01*
X284814267Y-20782102D01*
X284808584Y-20669697D01*
X269442317Y-16616994D02*
X269390143Y-16708883D01*
X269329348Y-16793762D01*
X269260646Y-16871189D01*
X269184757Y-16940721D01*
X269102395Y-17001914D01*
X269014278Y-17054325D01*
X268921123Y-17097512D01*
X268823647Y-17131031D01*
X268722566Y-17154439D01*
X268618597Y-17167293D01*
X268548035Y-17169781D01*
D10*
X295015648Y-50032741D02*
X295015627Y-64032747D01*
X49259590Y-62891215D02*
X49259590Y-65831260D01*
X294092492Y-50032741D02*
X295015648Y-50032741D01*
X182427172Y-86010153D02*
X188752130Y-86010153D01*
X57177905Y-64032467D02*
X57177905Y-50032482D01*
X171198701Y-102132597D02*
X142909816Y-102141619D01*
D11*
X14297189Y-106294853D02*
X14301092Y-106449245D01*
X14312676Y-106601610D01*
X14331752Y-106751759D01*
X14358133Y-106899502D01*
X14391629Y-107044652D01*
X14432053Y-107187020D01*
X14479215Y-107326418D01*
X14532927Y-107462657D01*
X14593002Y-107595549D01*
X14659249Y-107724905D01*
X14731482Y-107850538D01*
X14809512Y-107972258D01*
X14893149Y-108089877D01*
X14982207Y-108203207D01*
X15076496Y-108312060D01*
X15175828Y-108416246D01*
X15280014Y-108515578D01*
X15388866Y-108609867D01*
X15502196Y-108698924D01*
X15619816Y-108782562D01*
X15741536Y-108860591D01*
X15867168Y-108932824D01*
X15996525Y-108999072D01*
X16129417Y-109059147D01*
X16265656Y-109112859D01*
X16405053Y-109160021D01*
X16547421Y-109200445D01*
X16692571Y-109233941D01*
X16840314Y-109260322D01*
X16990463Y-109279398D01*
X17142828Y-109290982D01*
X17297221Y-109294886D01*
D10*
X14297189Y-67032112D02*
X14297189Y-69504033D01*
D11*
X61655495Y-21769651D02*
X61543089Y-21763968D01*
X61433917Y-21747289D01*
X61328534Y-21720168D01*
X61227492Y-21683161D01*
X61131348Y-21636821D01*
X61040656Y-21581702D01*
X60955969Y-21518360D01*
X60877843Y-21447348D01*
X60806831Y-21369222D01*
X60743489Y-21284535D01*
X60688370Y-21193843D01*
X60642030Y-21097699D01*
X60605023Y-20996657D01*
X60577902Y-20891274D01*
X60561223Y-20782102D01*
X60555541Y-20669697D01*
D10*
X135471898Y-30982741D02*
X135471877Y-44982747D01*
X231009413Y-69082741D02*
X245009398Y-69082741D01*
X140234398Y-50032741D02*
X140234377Y-64032747D01*
D11*
X53372280Y-20669697D02*
X53366596Y-20782102D01*
X53349917Y-20891274D01*
X53322795Y-20996657D01*
X53285787Y-21097699D01*
X53239445Y-21193843D01*
X53184325Y-21284535D01*
X53120982Y-21369222D01*
X53049969Y-21447348D01*
X52971842Y-21518360D01*
X52887155Y-21581702D01*
X52796462Y-21636821D01*
X52700318Y-21683161D01*
X52599278Y-21720168D01*
X52493896Y-21747289D01*
X52384727Y-21763968D01*
X52272326Y-21769651D01*
X67808931Y-81954780D02*
X67789285Y-82052088D01*
X67735709Y-82131556D01*
X67656242Y-82185137D01*
X67558925Y-82204786D01*
D10*
X47374347Y-16169670D02*
X41859029Y-16169670D01*
X97659391Y-83082726D02*
X97659413Y-69082741D01*
D11*
X289775012Y-19569742D02*
X289887417Y-19575424D01*
X289996589Y-19592103D01*
X290101973Y-19619224D01*
X290203014Y-19656231D01*
X290299158Y-19702572D01*
X290389851Y-19757690D01*
X290474537Y-19821032D01*
X290552664Y-19892044D01*
X290623675Y-19970170D01*
X290687017Y-20054857D01*
X290742136Y-20145550D01*
X290788476Y-20241694D01*
X290825483Y-20342735D01*
X290852604Y-20448119D01*
X290869283Y-20557291D01*
X290874966Y-20669697D01*
D10*
X134796423Y-86010153D02*
X141121381Y-86010153D01*
X217854553Y-97427264D02*
X217854574Y-101012618D01*
D11*
X91687771Y-81954780D02*
X91668125Y-82052088D01*
X91614549Y-82131556D01*
X91535081Y-82185137D01*
X91437764Y-82204786D01*
D10*
X230721898Y-30982741D02*
X230721877Y-44982747D01*
X278634413Y-30982741D02*
X292634398Y-30982741D01*
X102134377Y-64032747D02*
X88134391Y-64032726D01*
D11*
X165000221Y-86010153D02*
X165100989Y-86020304D01*
X165194843Y-86049434D01*
X165279774Y-86095531D01*
X165353771Y-86156585D01*
X165414823Y-86230584D01*
X165460921Y-86315518D01*
X165490054Y-86409375D01*
X165500212Y-86510144D01*
D10*
X97371898Y-30982741D02*
X97371877Y-44982747D01*
X197384377Y-64032747D02*
X183384391Y-64032726D01*
D11*
X285908560Y-19569742D02*
X286020965Y-19575424D01*
X286130138Y-19592103D01*
X286235522Y-19619224D01*
X286336565Y-19656231D01*
X286432711Y-19702572D01*
X286523405Y-19757690D01*
X286608094Y-19821032D01*
X286686222Y-19892044D01*
X286757236Y-19970170D01*
X286820580Y-20054857D01*
X286875700Y-20145550D01*
X286922042Y-20241694D01*
X286959051Y-20342735D01*
X286986173Y-20448119D01*
X287002852Y-20557291D01*
X287008536Y-20669697D01*
D10*
X20604147Y-52894883D02*
X21187660Y-51859136D01*
X190540565Y-97439623D02*
X189252164Y-97439623D01*
X47374347Y-28194453D02*
X49259611Y-29282780D01*
X83372903Y-88132741D02*
X97372910Y-88132741D01*
X14297189Y-15295132D02*
X14297189Y-51895116D01*
D11*
X296797430Y-109294886D02*
X296951788Y-109290982D01*
X297104123Y-109279398D01*
X297254245Y-109260322D01*
X297401966Y-109233941D01*
X297547098Y-109200445D01*
X297689451Y-109160021D01*
X297828836Y-109112859D01*
X297965067Y-109059147D01*
X298097952Y-108999072D01*
X298227305Y-108932824D01*
X298352936Y-108860591D01*
X298474657Y-108782562D01*
X298592279Y-108698924D01*
X298705614Y-108609867D01*
X298814473Y-108515578D01*
X298918666Y-108416246D01*
X299018007Y-108312060D01*
X299112305Y-108203207D01*
X299201373Y-108089877D01*
X299285022Y-107972258D01*
X299363062Y-107850538D01*
X299435306Y-107724905D01*
X299501565Y-107595549D01*
X299561651Y-107462657D01*
X299615373Y-107326418D01*
X299662545Y-107187020D01*
X299702977Y-107044652D01*
X299736481Y-106899502D01*
X299762868Y-106751759D01*
X299781949Y-106601610D01*
X299793536Y-106449245D01*
X299797441Y-106294853D01*
D10*
X242627911Y-88132741D02*
X242627890Y-102132747D01*
X206909398Y-69082741D02*
X206909377Y-83082747D01*
D11*
X284808584Y-20669697D02*
X284814267Y-20557291D01*
X284830947Y-20448119D01*
X284858069Y-20342735D01*
X284895080Y-20241694D01*
X284941423Y-20145550D01*
X284996544Y-20054857D01*
X285059890Y-19970170D01*
X285130905Y-19892044D01*
X285209034Y-19821032D01*
X285293723Y-19757690D01*
X285384418Y-19702572D01*
X285480563Y-19656231D01*
X285581604Y-19619224D01*
X285686987Y-19592103D01*
X285796157Y-19575424D01*
X285908560Y-19569742D01*
D10*
X211959391Y-83082726D02*
X211959413Y-69082741D01*
X92523120Y-78366885D02*
X91687771Y-78366885D01*
D11*
X41566218Y-14587811D02*
X41492818Y-14521445D01*
X41413827Y-14463030D01*
X41329902Y-14412842D01*
X41241700Y-14371157D01*
X41149875Y-14338254D01*
X41055087Y-14314408D01*
X40957989Y-14299898D01*
X40859241Y-14295000D01*
D10*
X121471913Y-30982741D02*
X135471898Y-30982741D01*
X190540565Y-92828492D02*
X190540565Y-88141612D01*
X299797441Y-73003927D02*
X295648426Y-73003927D01*
X289330788Y-67439947D02*
X289330788Y-69082741D01*
X178334377Y-64032747D02*
X164334391Y-64032726D01*
X60484012Y-73758273D02*
X60484034Y-67439925D01*
X91687792Y-73775887D02*
X92523142Y-73775887D01*
X181091874Y-97437104D02*
X181091853Y-92846105D01*
D11*
X84612815Y-82204765D02*
X84515509Y-82185116D01*
X84436049Y-82131535D01*
X84382475Y-82052067D01*
X84362830Y-81954759D01*
X206056070Y-101275005D02*
X205958752Y-101255356D01*
X205879285Y-101201775D01*
X205825708Y-101122306D01*
X205806063Y-101024998D01*
X70488354Y-20669697D02*
X70482670Y-20782102D01*
X70465991Y-20891274D01*
X70438870Y-20996657D01*
X70401861Y-21097699D01*
X70355519Y-21193843D01*
X70300400Y-21284535D01*
X70237056Y-21369222D01*
X70166044Y-21447348D01*
X70087916Y-21518360D01*
X70003229Y-21581702D01*
X69912536Y-21636821D01*
X69816393Y-21683161D01*
X69715353Y-21720168D01*
X69609971Y-21747289D01*
X69500801Y-21763968D01*
X69388400Y-21769651D01*
D10*
X116709391Y-83082726D02*
X116709413Y-69082741D01*
X268548035Y-17169781D02*
X83606395Y-17169781D01*
X183384391Y-64032726D02*
X183384413Y-50032741D01*
X294092492Y-48393177D02*
X294092492Y-50032741D01*
D11*
X14590000Y-52602093D02*
X14663393Y-52668555D01*
X14742386Y-52727015D01*
X14826323Y-52777206D01*
X14914552Y-52818864D01*
X15006420Y-52851725D01*
X15101272Y-52875525D01*
X15198457Y-52889999D01*
X15297321Y-52894883D01*
X269713661Y-47893164D02*
X269814423Y-47903322D01*
X269908274Y-47932458D01*
X269993205Y-47978559D01*
X270067203Y-48039615D01*
X270128258Y-48113616D01*
X270174358Y-48198550D01*
X270203493Y-48292407D01*
X270213652Y-48393177D01*
D10*
X59559391Y-44982726D02*
X59559413Y-30982741D01*
D11*
X290874966Y-20669697D02*
X290869283Y-20782102D01*
X290852604Y-20891274D01*
X290825483Y-20996657D01*
X290788476Y-21097699D01*
X290742136Y-21193843D01*
X290687017Y-21284535D01*
X290623675Y-21369222D01*
X290552664Y-21447348D01*
X290474537Y-21518360D01*
X290389851Y-21581702D01*
X290299158Y-21636821D01*
X290203014Y-21683161D01*
X290101973Y-21720168D01*
X289996589Y-21747289D01*
X289887417Y-21763968D01*
X289775012Y-21769651D01*
D10*
X187859398Y-69082741D02*
X187859377Y-83082747D01*
X88134391Y-64032726D02*
X88134413Y-50032741D01*
X266440648Y-88132762D02*
X266440627Y-102132747D01*
D11*
X217354540Y-85997772D02*
X217455308Y-86007930D01*
X217549162Y-86037065D01*
X217634093Y-86083166D01*
X217708090Y-86144223D01*
X217769142Y-86218223D01*
X217815240Y-86303158D01*
X217844373Y-86397015D01*
X217854531Y-86497784D01*
X188752130Y-86010153D02*
X188852898Y-86020304D01*
X188946752Y-86049434D01*
X189031683Y-86095531D01*
X189105680Y-86156585D01*
X189166732Y-86230584D01*
X189212830Y-86315518D01*
X189241963Y-86409375D01*
X189252121Y-86510144D01*
D10*
X290253127Y-83082747D02*
X266734902Y-83082489D01*
X270213652Y-50032741D02*
X286767551Y-50032741D01*
X263297279Y-26457371D02*
X88897351Y-26457371D01*
X205806063Y-101024998D02*
X205806042Y-97437104D01*
X240534391Y-64032726D02*
X240534413Y-50032741D01*
X295015627Y-64032747D02*
X259584391Y-64032726D01*
X258644612Y-66939934D02*
X264969571Y-66939934D01*
X181927224Y-97437104D02*
X181091874Y-97437104D01*
D11*
X296345477Y-20669697D02*
X296339794Y-20782102D01*
X296323115Y-20891274D01*
X296295994Y-20996657D01*
X296258987Y-21097699D01*
X296212646Y-21193843D01*
X296157528Y-21284535D01*
X296094186Y-21369222D01*
X296023174Y-21447348D01*
X295945048Y-21518360D01*
X295860361Y-21581702D01*
X295769668Y-21636821D01*
X295673524Y-21683161D01*
X295572483Y-21720168D01*
X295467099Y-21747289D01*
X295357927Y-21763968D01*
X295245522Y-21769651D01*
D10*
X204540551Y-92846105D02*
X205806042Y-92846105D01*
X133461104Y-92846105D02*
X134296453Y-92846105D01*
X197384398Y-50032741D02*
X197384377Y-64032747D01*
X16697903Y-106894709D02*
X16697925Y-92894724D01*
X111659377Y-83082747D02*
X97659391Y-83082726D01*
X192909413Y-69082741D02*
X206909398Y-69082741D01*
X45618576Y-55505103D02*
X45618576Y-60789362D01*
X35747171Y-92894724D02*
X49747157Y-92894724D01*
X142909816Y-88141612D02*
X158175271Y-88132654D01*
D11*
X264297390Y-25457260D02*
X264292223Y-25559471D01*
X264277060Y-25658739D01*
X264252403Y-25754562D01*
X264218758Y-25846434D01*
X264176627Y-25933852D01*
X264126515Y-26016312D01*
X264068926Y-26093311D01*
X264004363Y-26164344D01*
X263933330Y-26228907D01*
X263856331Y-26286496D01*
X263773871Y-26336608D01*
X263686453Y-26378739D01*
X263594581Y-26412384D01*
X263498758Y-26437041D01*
X263399490Y-26452204D01*
X263297279Y-26457371D01*
D10*
X75940648Y-50032741D02*
X75940627Y-64032747D01*
X54796891Y-106894709D02*
X54796913Y-92894724D01*
X266734902Y-83082489D02*
X266734902Y-78366885D01*
X135759391Y-83082726D02*
X135759413Y-69082741D01*
D11*
X57789065Y-21769651D02*
X57676651Y-21763968D01*
X57567465Y-21747289D01*
X57462062Y-21720168D01*
X57360996Y-21683161D01*
X57264823Y-21636821D01*
X57174100Y-21581702D01*
X57089381Y-21518360D01*
X57011221Y-21447348D01*
X56940176Y-21369222D01*
X56876802Y-21284535D01*
X56821654Y-21193843D01*
X56775287Y-21097699D01*
X56738258Y-20996657D01*
X56711120Y-20891274D01*
X56694430Y-20782102D01*
X56688744Y-20669697D01*
D10*
X173571877Y-44982747D02*
X159571891Y-44982726D01*
X116709413Y-69082741D02*
X130709398Y-69082741D01*
X21509388Y-67032112D02*
X14297189Y-67032112D01*
X242627890Y-102132747D02*
X228627905Y-102132726D01*
X254821913Y-30982741D02*
X268821898Y-30982741D01*
X109565921Y-102132726D02*
X109565900Y-88132741D01*
X299797441Y-106294853D02*
X299797441Y-73003927D01*
D11*
X283142062Y-20669697D02*
X283136375Y-20782102D01*
X283119686Y-20891274D01*
X283092550Y-20996657D01*
X283055523Y-21097699D01*
X283009162Y-21193843D01*
X282954022Y-21284535D01*
X282890660Y-21369222D01*
X282819630Y-21447348D01*
X282741490Y-21518360D01*
X282656795Y-21581702D01*
X282566101Y-21636821D01*
X282469964Y-21683161D01*
X282368941Y-21720168D01*
X282263586Y-21747289D01*
X282154456Y-21763968D01*
X282042108Y-21769651D01*
D10*
X154809391Y-83082726D02*
X154809413Y-69082741D01*
X270603314Y-14295000D02*
X269442317Y-16616994D01*
X254534398Y-50032741D02*
X254534377Y-64032747D01*
X299797441Y-69504033D02*
X299797441Y-17295032D01*
X254821891Y-44982726D02*
X254821913Y-30982741D01*
X110538816Y-88132741D02*
X110538816Y-86503684D01*
X46759462Y-68331042D02*
X22259386Y-68331042D01*
X266440627Y-102132747D02*
X252440641Y-102132726D01*
X14297189Y-73003927D02*
X14297189Y-106294853D01*
X292634377Y-102132747D02*
X278634391Y-102132726D01*
X97371877Y-44982747D02*
X83371891Y-44982726D01*
X69074444Y-78366885D02*
X67808953Y-78366885D01*
X216434377Y-64032747D02*
X202434391Y-64032726D01*
D11*
X278175311Y-21769651D02*
X278062909Y-21763968D01*
X277953740Y-21747289D01*
X277848359Y-21720168D01*
X277747321Y-21683161D01*
X277651179Y-21636821D01*
X277560488Y-21581702D01*
X277475802Y-21518360D01*
X277397677Y-21447348D01*
X277326666Y-21369222D01*
X277263325Y-21284535D01*
X277208207Y-21193843D01*
X277161867Y-21097699D01*
X277124860Y-20996657D01*
X277097739Y-20891274D01*
X277081060Y-20782102D01*
X277075378Y-20669697D01*
X73255196Y-19569742D02*
X73367541Y-19575424D01*
X73476668Y-19592103D01*
X73582021Y-19619224D01*
X73683044Y-19656231D01*
X73779180Y-19702572D01*
X73869874Y-19757690D01*
X73954570Y-19821032D01*
X74032711Y-19892044D01*
X74103742Y-19970170D01*
X74167106Y-20054857D01*
X74222247Y-20145550D01*
X74268609Y-20241694D01*
X74305637Y-20342735D01*
X74332774Y-20448119D01*
X74349464Y-20557291D01*
X74355151Y-20669697D01*
D10*
X21187660Y-15331112D02*
X20604147Y-14295000D01*
X82712091Y-16616994D02*
X81551094Y-14295000D01*
X158175271Y-88132654D02*
X158175271Y-86510165D01*
X258144621Y-69082741D02*
X258144621Y-67439925D01*
X84362852Y-73758273D02*
X84362873Y-67439925D01*
X269442317Y-107209957D02*
X270484781Y-109294886D01*
D11*
X60555541Y-20669697D02*
X60561223Y-20557291D01*
X60577902Y-20448119D01*
X60605023Y-20342735D01*
X60642030Y-20241694D01*
X60688370Y-20145550D01*
X60743489Y-20054857D01*
X60806831Y-19970170D01*
X60877843Y-19892044D01*
X60955969Y-19821032D01*
X61040656Y-19757690D01*
X61131348Y-19702572D01*
X61227492Y-19656231D01*
X61328534Y-19619224D01*
X61433917Y-19592103D01*
X61543089Y-19575424D01*
X61655495Y-19569742D01*
X141621415Y-101024977D02*
X141601769Y-101122285D01*
X141548196Y-101201753D01*
X141468735Y-101255334D01*
X141371430Y-101274983D01*
D10*
X192621898Y-30982741D02*
X192621877Y-44982747D01*
X84362830Y-81954759D02*
X84362830Y-78369405D01*
X59648641Y-78369405D02*
X59648641Y-73758273D01*
X69074444Y-83071400D02*
X69074444Y-78366885D01*
X81669627Y-109294886D02*
X82712091Y-107209957D01*
X83074429Y-78369405D02*
X83074429Y-83071400D01*
X225959377Y-83082747D02*
X211959391Y-83082726D01*
D11*
X52272326Y-19569742D02*
X52384731Y-19575424D01*
X52493903Y-19592103D01*
X52599286Y-19619224D01*
X52700328Y-19656231D01*
X52796472Y-19702572D01*
X52887164Y-19757690D01*
X52971851Y-19821032D01*
X53049977Y-19892044D01*
X53120989Y-19970170D01*
X53184331Y-20054857D01*
X53239450Y-20145550D01*
X53285790Y-20241694D01*
X53322797Y-20342735D01*
X53349918Y-20448119D01*
X53366597Y-20557291D01*
X53372280Y-20669697D01*
D10*
X235771913Y-30982741D02*
X249771898Y-30982741D01*
X21187660Y-51859136D02*
X34968558Y-51859136D01*
D11*
X56688744Y-20669697D02*
X56694430Y-20557291D01*
X56711121Y-20448119D01*
X56738259Y-20342735D01*
X56775290Y-20241694D01*
X56821658Y-20145550D01*
X56876808Y-20054857D01*
X56940183Y-19970170D01*
X57011229Y-19892044D01*
X57089389Y-19821032D01*
X57174109Y-19757690D01*
X57264833Y-19702572D01*
X57361005Y-19656231D01*
X57462069Y-19619224D01*
X57567471Y-19592103D01*
X57676655Y-19575424D01*
X57789065Y-19569742D01*
X14590000Y-14587811D02*
X14523634Y-14661204D01*
X14465219Y-14740197D01*
X14415031Y-14824134D01*
X14373346Y-14912363D01*
X14340443Y-15004230D01*
X14316597Y-15099083D01*
X14302087Y-15196268D01*
X14297189Y-15295132D01*
D10*
X47374347Y-14295000D02*
X47374347Y-16169670D01*
X141371430Y-101274983D02*
X134546481Y-101275005D01*
X67808953Y-73775887D02*
X69074444Y-73775887D01*
D11*
X51172371Y-20669697D02*
X51178053Y-20557291D01*
X51194732Y-20448119D01*
X51221853Y-20342735D01*
X51258860Y-20241694D01*
X51305201Y-20145550D01*
X51360319Y-20054857D01*
X51423661Y-19970170D01*
X51494673Y-19892044D01*
X51572799Y-19821032D01*
X51657486Y-19757690D01*
X51748179Y-19702572D01*
X51844323Y-19656231D01*
X51945364Y-19619224D01*
X52050748Y-19592103D01*
X52159920Y-19575424D01*
X52272326Y-19569742D01*
D10*
X230721877Y-44982747D02*
X216721891Y-44982726D01*
X268821898Y-30982741D02*
X268821877Y-44982747D01*
D11*
X258144621Y-67439925D02*
X258154778Y-67339156D01*
X258183911Y-67245299D01*
X258230009Y-67160365D01*
X258291062Y-67086366D01*
X258365058Y-67025313D01*
X258449989Y-66979215D01*
X258543844Y-66950085D01*
X258644612Y-66939934D01*
D10*
X259584413Y-50032741D02*
X262888712Y-50032741D01*
X123565907Y-88132719D02*
X123565907Y-102132704D01*
X221484413Y-50032741D02*
X235484398Y-50032741D01*
D11*
X20258776Y-71254141D02*
X20256496Y-71344144D01*
X20238595Y-71520509D01*
X20203637Y-71691285D01*
X20152505Y-71855591D01*
X20086083Y-72012544D01*
X20005252Y-72161263D01*
X19910896Y-72300867D01*
X19803897Y-72430474D01*
X19685138Y-72549202D01*
X19555500Y-72656170D01*
X19415868Y-72750497D01*
X19267123Y-72831300D01*
X19110148Y-72897698D01*
X18945825Y-72948810D01*
X18775038Y-72983754D01*
X18598669Y-73001648D01*
X18508667Y-73003927D01*
D10*
X265201900Y-82204786D02*
X264059377Y-82204786D01*
X83074429Y-73758273D02*
X84362852Y-73758273D01*
X159284377Y-64032747D02*
X145284391Y-64032726D01*
D11*
X61655495Y-19569742D02*
X61767900Y-19575424D01*
X61877072Y-19592103D01*
X61982456Y-19619224D01*
X62083497Y-19656231D01*
X62179641Y-19702572D01*
X62270334Y-19757690D01*
X62355021Y-19821032D01*
X62433147Y-19892044D01*
X62504159Y-19970170D01*
X62567501Y-20054857D01*
X62622619Y-20145550D01*
X62668960Y-20241694D01*
X62705967Y-20342735D01*
X62733088Y-20448119D01*
X62749767Y-20557291D01*
X62755450Y-20669697D01*
X141121381Y-86010153D02*
X141222149Y-86020304D01*
X141316003Y-86049434D01*
X141400934Y-86095531D01*
X141474931Y-86156585D01*
X141535983Y-86230584D01*
X141582081Y-86315518D01*
X141611214Y-86409375D01*
X141621372Y-86510144D01*
D10*
X49747135Y-87844774D02*
X35747150Y-87844752D01*
X254534377Y-64032747D02*
X240534391Y-64032726D01*
D11*
X65521947Y-21769651D02*
X65409541Y-21763968D01*
X65300369Y-21747289D01*
X65194986Y-21720168D01*
X65093944Y-21683161D01*
X64997800Y-21636821D01*
X64907108Y-21581702D01*
X64822421Y-21518360D01*
X64744295Y-21447348D01*
X64673283Y-21369222D01*
X64609941Y-21284535D01*
X64554822Y-21193843D01*
X64508482Y-21097699D01*
X64471475Y-20996657D01*
X64444354Y-20891274D01*
X64427675Y-20782102D01*
X64421993Y-20669697D01*
D10*
X262888712Y-50032741D02*
X262888712Y-48393155D01*
X67808953Y-78366885D02*
X67808931Y-81954780D01*
X14297189Y-69504033D02*
X18508667Y-69504033D01*
D11*
X265451906Y-81954780D02*
X265432260Y-82052088D01*
X265378684Y-82131556D01*
X265299217Y-82185137D01*
X265201900Y-82204786D01*
X182177230Y-101275005D02*
X182079912Y-101255356D01*
X182000445Y-101201775D01*
X181946869Y-101122306D01*
X181927224Y-101024998D01*
D10*
X34968558Y-51859136D02*
X35552071Y-52894883D01*
X231009391Y-83082726D02*
X231009413Y-69082741D01*
X264059377Y-82204786D02*
X264059377Y-83082747D01*
D11*
X295648426Y-73003927D02*
X295558423Y-73001648D01*
X295382053Y-72983754D01*
X295211265Y-72948810D01*
X295046942Y-72897698D01*
X294889965Y-72831300D01*
X294741218Y-72750497D01*
X294601584Y-72656170D01*
X294471945Y-72549202D01*
X294353183Y-72430474D01*
X294246182Y-72300867D01*
X294151824Y-72161263D01*
X294070992Y-72012544D01*
X294004568Y-71855591D01*
X293953436Y-71691285D01*
X293918477Y-71520509D01*
X293900575Y-71344144D01*
X293898296Y-71254141D01*
D10*
X91687814Y-67439947D02*
X91687792Y-73775887D01*
X91687771Y-78366885D02*
X91687771Y-81954780D01*
X278634391Y-102132726D02*
X278634413Y-88132741D01*
X158675262Y-86010153D02*
X165000221Y-86010153D01*
X97659413Y-69082741D02*
X111659398Y-69082741D01*
X134296475Y-97437104D02*
X133461125Y-97437104D01*
X289330788Y-69082741D02*
X290253148Y-69082741D01*
D11*
X87897218Y-25457260D02*
X87902384Y-25355101D01*
X87917547Y-25255871D01*
X87942204Y-25160075D01*
X87975850Y-25068218D01*
X88017981Y-24980804D01*
X88068093Y-24898341D01*
X88125683Y-24821333D01*
X88190247Y-24750285D01*
X88261281Y-24685703D01*
X88338281Y-24628093D01*
X88420743Y-24577959D01*
X88508163Y-24535807D01*
X88600038Y-24502142D01*
X88695864Y-24477470D01*
X88795136Y-24462297D01*
X88897351Y-24457127D01*
X262888712Y-48393155D02*
X262898869Y-48292386D01*
X262928002Y-48198529D01*
X262974100Y-48113595D01*
X263035152Y-48039596D01*
X263109149Y-47978543D01*
X263194080Y-47932445D01*
X263287934Y-47903315D01*
X263388703Y-47893164D01*
D10*
X249771877Y-44982747D02*
X235771891Y-44982726D01*
X189002179Y-101274983D02*
X182177230Y-101275005D01*
X142909816Y-97439623D02*
X141621415Y-97439623D01*
D11*
X264969571Y-66939934D02*
X265070332Y-66950092D01*
X265164184Y-66979228D01*
X265249114Y-67025329D01*
X265323113Y-67086385D01*
X265384167Y-67160386D01*
X265430268Y-67245320D01*
X265459403Y-67339177D01*
X265469562Y-67439947D01*
D10*
X73559377Y-44982747D02*
X59559391Y-44982726D01*
D11*
X274308880Y-21769651D02*
X274196478Y-21763968D01*
X274087309Y-21747289D01*
X273981928Y-21720168D01*
X273880890Y-21683161D01*
X273784748Y-21636821D01*
X273694057Y-21581702D01*
X273609371Y-21518360D01*
X273531246Y-21447348D01*
X273460235Y-21369222D01*
X273396894Y-21284535D01*
X273341776Y-21193843D01*
X273295436Y-21097699D01*
X273258429Y-20996657D01*
X273231308Y-20891274D01*
X273214629Y-20782102D01*
X273208947Y-20669697D01*
D10*
X211959413Y-69082741D02*
X225959398Y-69082741D01*
X149759398Y-69082741D02*
X149759377Y-83082747D01*
D11*
X274308880Y-19569742D02*
X274421289Y-19575424D01*
X274530464Y-19592103D01*
X274635851Y-19619224D01*
X274736894Y-19656231D01*
X274833041Y-19702572D01*
X274923735Y-19757690D01*
X275008423Y-19821032D01*
X275086551Y-19892044D01*
X275157563Y-19970170D01*
X275220906Y-20054857D01*
X275276025Y-20145550D01*
X275322365Y-20241694D01*
X275359373Y-20342735D01*
X275386494Y-20448119D01*
X275403173Y-20557291D01*
X275408856Y-20669697D01*
D10*
X266735032Y-73775887D02*
X266735032Y-69082482D01*
X140521891Y-44982726D02*
X140521913Y-30982741D01*
X73559398Y-30982741D02*
X73559377Y-44982747D01*
X252440641Y-102132726D02*
X252440641Y-88132741D01*
X164334391Y-64032726D02*
X164334413Y-50032741D01*
X189252121Y-86510144D02*
X189252143Y-92828492D01*
X245009398Y-69082741D02*
X245009377Y-83082747D01*
X18508667Y-73003927D02*
X14297189Y-73003927D01*
X192621877Y-44982747D02*
X178621891Y-44982726D01*
D11*
X68288424Y-20669697D02*
X68294107Y-20557291D01*
X68310786Y-20448119D01*
X68337908Y-20342735D01*
X68374917Y-20241694D01*
X68421258Y-20145550D01*
X68476379Y-20054857D01*
X68539723Y-19970170D01*
X68610736Y-19892044D01*
X68688865Y-19821032D01*
X68773553Y-19757690D01*
X68864248Y-19702572D01*
X68960394Y-19656231D01*
X69061436Y-19619224D01*
X69166821Y-19592103D01*
X69275994Y-19575424D01*
X69388400Y-19569742D01*
D10*
X178621913Y-30982741D02*
X192621898Y-30982741D01*
X141621372Y-86510144D02*
X141621394Y-92828492D01*
X292634398Y-88132762D02*
X292634377Y-102132747D01*
X34968558Y-15331112D02*
X21187660Y-15331112D01*
X140521913Y-30982741D02*
X154521898Y-30982741D01*
X109565900Y-88132741D02*
X110538816Y-88132741D01*
X123565907Y-102132704D02*
X109565921Y-102132726D01*
D11*
X275408856Y-20669697D02*
X275403173Y-20782102D01*
X275386494Y-20891274D01*
X275359373Y-20996657D01*
X275322365Y-21097699D01*
X275276025Y-21193843D01*
X275220906Y-21284535D01*
X275157563Y-21369222D01*
X275086551Y-21447348D01*
X275008423Y-21518360D01*
X274923735Y-21581702D01*
X274833041Y-21636821D01*
X274736894Y-21683161D01*
X274635851Y-21720168D01*
X274530464Y-21747289D01*
X274421289Y-21763968D01*
X274308880Y-21769651D01*
D10*
X159571891Y-44982726D02*
X159571913Y-30982741D01*
X282005848Y-69082741D02*
X282005848Y-67439925D01*
D11*
X268548035Y-106657148D02*
X268653530Y-106662720D01*
X268756616Y-106679143D01*
X268856575Y-106705973D01*
X268952690Y-106742766D01*
X269044246Y-106789080D01*
X269130524Y-106844471D01*
X269210808Y-106908496D01*
X269284381Y-106980711D01*
X269350527Y-107060673D01*
X269408528Y-107147940D01*
X269442317Y-107209957D01*
D10*
X168809398Y-69082741D02*
X168809377Y-83082747D01*
X268821877Y-44982747D02*
X254821891Y-44982726D01*
D11*
X77121627Y-19569742D02*
X77234032Y-19575424D01*
X77343204Y-19592103D01*
X77448587Y-19619224D01*
X77549629Y-19656231D01*
X77645773Y-19702572D01*
X77736465Y-19757690D01*
X77821152Y-19821032D01*
X77899278Y-19892044D01*
X77970290Y-19970170D01*
X78033632Y-20054857D01*
X78088751Y-20145550D01*
X78135091Y-20241694D01*
X78172098Y-20342735D01*
X78199219Y-20448119D01*
X78215898Y-20557291D01*
X78221581Y-20669697D01*
D10*
X91437764Y-82204786D02*
X84612815Y-82204765D01*
X216434398Y-50032741D02*
X216434377Y-64032747D01*
X59648641Y-73758273D02*
X60484012Y-73758273D01*
X41859029Y-51895116D02*
X41859029Y-50669933D01*
X252440641Y-88132741D02*
X266440648Y-88132762D01*
X173859413Y-69082741D02*
X187859398Y-69082741D01*
X218689924Y-97427264D02*
X217854553Y-97427264D01*
D11*
X288675058Y-20669697D02*
X288680740Y-20557291D01*
X288697419Y-20448119D01*
X288724540Y-20342735D01*
X288761547Y-20241694D01*
X288807887Y-20145550D01*
X288863006Y-20054857D01*
X288926348Y-19970170D01*
X288997360Y-19892044D01*
X289075486Y-19821032D01*
X289160173Y-19757690D01*
X289250865Y-19702572D01*
X289347009Y-19656231D01*
X289448051Y-19619224D01*
X289553434Y-19592103D01*
X289662606Y-19575424D01*
X289775012Y-19569742D01*
D10*
X265469562Y-67439947D02*
X265469540Y-73775887D01*
X154521877Y-44982747D02*
X140521891Y-44982726D01*
X116421898Y-30982741D02*
X116421877Y-44982747D01*
D11*
X289775012Y-21769651D02*
X289662606Y-21763968D01*
X289553434Y-21747289D01*
X289448051Y-21720168D01*
X289347009Y-21683161D01*
X289250865Y-21636821D01*
X289160173Y-21581702D01*
X289075486Y-21518360D01*
X288997360Y-21447348D01*
X288926348Y-21369222D01*
X288863006Y-21284535D01*
X288807887Y-21193843D01*
X288761547Y-21097699D01*
X288724540Y-20996657D01*
X288697419Y-20891274D01*
X288680740Y-20782102D01*
X288675058Y-20669697D01*
D10*
X211671877Y-44982747D02*
X197671891Y-44982726D01*
X102421891Y-44982726D02*
X102421913Y-30982741D01*
X83606395Y-106657148D02*
X268548035Y-106657148D01*
X173859391Y-83082726D02*
X173859413Y-69082741D01*
D11*
X66621902Y-20669697D02*
X66616219Y-20782102D01*
X66599540Y-20891274D01*
X66572419Y-20996657D01*
X66535412Y-21097699D01*
X66489071Y-21193843D01*
X66433953Y-21284535D01*
X66370611Y-21369222D01*
X66299599Y-21447348D01*
X66221473Y-21518360D01*
X66136786Y-21581702D01*
X66046093Y-21636821D01*
X65949949Y-21683161D01*
X65848908Y-21720168D01*
X65743524Y-21747289D01*
X65634352Y-21763968D01*
X65521947Y-21769651D01*
D10*
X141621394Y-92828492D02*
X142909816Y-92828492D01*
X292634377Y-44982747D02*
X278634391Y-44982726D01*
D11*
X286767551Y-48393155D02*
X286777708Y-48292386D01*
X286806841Y-48198529D01*
X286852939Y-48113595D01*
X286913991Y-48039596D01*
X286987988Y-47978543D01*
X287072919Y-47932445D01*
X287166773Y-47903315D01*
X287267542Y-47893164D01*
X88897351Y-26457371D02*
X88795136Y-26452204D01*
X88695864Y-26437041D01*
X88600038Y-26412384D01*
X88508163Y-26378739D01*
X88420743Y-26336608D01*
X88338281Y-26286496D01*
X88261281Y-26228907D01*
X88190247Y-26164344D01*
X88125683Y-26093311D01*
X88068093Y-26016312D01*
X88017981Y-25933852D01*
X87975850Y-25846434D01*
X87942204Y-25754562D01*
X87917547Y-25658739D01*
X87902384Y-25559471D01*
X87897218Y-25457260D01*
D10*
X107184413Y-50032741D02*
X121184398Y-50032741D01*
X250059413Y-69082741D02*
X258144621Y-69082741D01*
X290253148Y-69082741D02*
X290253127Y-83082747D01*
X145284413Y-50032741D02*
X159284398Y-50032741D01*
X111038807Y-86003672D02*
X117363766Y-86003650D01*
X173571898Y-30982741D02*
X173571877Y-44982747D01*
X197671913Y-30982741D02*
X211671898Y-30982741D01*
X121184377Y-64032747D02*
X107184391Y-64032726D01*
X217854531Y-86497784D02*
X217854553Y-92816133D01*
X140234377Y-64032747D02*
X126234391Y-64032726D01*
X266734902Y-78366885D02*
X265451927Y-78366885D01*
X270213652Y-48393177D02*
X270213652Y-50032741D01*
X134296475Y-101024998D02*
X134296475Y-97437104D01*
X206306011Y-86010153D02*
X217354540Y-85997772D01*
D11*
X69388400Y-21769651D02*
X69275990Y-21763968D01*
X69166815Y-21747289D01*
X69061428Y-21720168D01*
X68960385Y-21683161D01*
X68864238Y-21636821D01*
X68773544Y-21581702D01*
X68688856Y-21518360D01*
X68610728Y-21447348D01*
X68539716Y-21369222D01*
X68476373Y-21284535D01*
X68421254Y-21193843D01*
X68374914Y-21097699D01*
X68337906Y-20996657D01*
X68310785Y-20891274D01*
X68294106Y-20782102D01*
X68288424Y-20669697D01*
X288830797Y-66939934D02*
X288931559Y-66950092D01*
X289025410Y-66979228D01*
X289110341Y-67025329D01*
X289184339Y-67086385D01*
X289245394Y-67160386D01*
X289291494Y-67245320D01*
X289320629Y-67339177D01*
X289330788Y-67439947D01*
X60484034Y-67439925D02*
X60494191Y-67339156D01*
X60523324Y-67245299D01*
X60569422Y-67160365D01*
X60630474Y-67086366D01*
X60704471Y-67025313D01*
X60789402Y-66979215D01*
X60883256Y-66950085D01*
X60984025Y-66939934D01*
D10*
X265451927Y-78366885D02*
X265451906Y-81954780D01*
X30697910Y-92894724D02*
X30697889Y-106894731D01*
X126234391Y-64032726D02*
X126234413Y-50032741D01*
X159571913Y-30982741D02*
X173571898Y-30982741D01*
X265469540Y-73775887D02*
X266735032Y-73775887D01*
X49259611Y-53403250D02*
X45618576Y-55505103D01*
X205806042Y-97437104D02*
X204540551Y-97437104D01*
X107184391Y-64032726D02*
X107184413Y-50032741D01*
X67558925Y-82204786D02*
X60733975Y-82204765D01*
X142909816Y-92828492D02*
X142909816Y-88141612D01*
X187859377Y-83082747D02*
X173859391Y-83082726D01*
X83074429Y-69071393D02*
X83074429Y-73758273D01*
X47374347Y-21619725D02*
X47374347Y-28194453D01*
X88134413Y-50032741D02*
X102134398Y-50032741D01*
X35747171Y-73844767D02*
X49747157Y-73844767D01*
D11*
X57789065Y-19569742D02*
X57901410Y-19575424D01*
X58010537Y-19592103D01*
X58115890Y-19619224D01*
X58216912Y-19656231D01*
X58313048Y-19702572D01*
X58403742Y-19757690D01*
X58488438Y-19821032D01*
X58566579Y-19892044D01*
X58637610Y-19970170D01*
X58700974Y-20054857D01*
X58756115Y-20145550D01*
X58802477Y-20241694D01*
X58839505Y-20342735D01*
X58866642Y-20448119D01*
X58883332Y-20557291D01*
X58889019Y-20669697D01*
D10*
X211671898Y-30982741D02*
X211671877Y-44982747D01*
X84862864Y-66939934D02*
X91187823Y-66939934D01*
D11*
X41859029Y-15295132D02*
X41854144Y-15196268D01*
X41839668Y-15099083D01*
X41815865Y-15004230D01*
X41783000Y-14912363D01*
X41741337Y-14824134D01*
X41691143Y-14740197D01*
X41632681Y-14661204D01*
X41566218Y-14587811D01*
X295245522Y-19569742D02*
X295357927Y-19575424D01*
X295467099Y-19592103D01*
X295572483Y-19619224D01*
X295673524Y-19656231D01*
X295769668Y-19702572D01*
X295860361Y-19757690D01*
X295945048Y-19821032D01*
X296023174Y-19892044D01*
X296094186Y-19970170D01*
X296157528Y-20054857D01*
X296212646Y-20145550D01*
X296258987Y-20241694D01*
X296295994Y-20342735D01*
X296323115Y-20448119D01*
X296339794Y-20557291D01*
X296345477Y-20669697D01*
D10*
X218689924Y-92816133D02*
X218689924Y-97427264D01*
X221484391Y-64032726D02*
X221484413Y-50032741D01*
D11*
X295245522Y-21769651D02*
X295133116Y-21763968D01*
X295023944Y-21747289D01*
X294918561Y-21720168D01*
X294817519Y-21683161D01*
X294721375Y-21636821D01*
X294630683Y-21581702D01*
X294545996Y-21518360D01*
X294467870Y-21447348D01*
X294396858Y-21369222D01*
X294333516Y-21284535D01*
X294278397Y-21193843D01*
X294232057Y-21097699D01*
X294195050Y-20996657D01*
X294167929Y-20891274D01*
X294151250Y-20782102D01*
X294145568Y-20669697D01*
X181927181Y-86510165D02*
X181937339Y-86409396D01*
X181966474Y-86315539D01*
X182012574Y-86230604D01*
X182073629Y-86156604D01*
X182147627Y-86095547D01*
X182232558Y-86049446D01*
X182326409Y-86020311D01*
X182427172Y-86010153D01*
D10*
X117863757Y-88132719D02*
X123565907Y-88132719D01*
D11*
X217854574Y-101012618D02*
X217834928Y-101109926D01*
X217781355Y-101189394D01*
X217701894Y-101242975D01*
X217604590Y-101262624D01*
D10*
X49747157Y-73844767D02*
X49747135Y-87844774D01*
X192909391Y-83082726D02*
X192909413Y-69082741D01*
D11*
X76021673Y-20669697D02*
X76027355Y-20557291D01*
X76044034Y-20448119D01*
X76071155Y-20342735D01*
X76108162Y-20241694D01*
X76154502Y-20145550D01*
X76209621Y-20054857D01*
X76272963Y-19970170D01*
X76343975Y-19892044D01*
X76422101Y-19821032D01*
X76506788Y-19757690D01*
X76597480Y-19702572D01*
X76693624Y-19656231D01*
X76794666Y-19619224D01*
X76900049Y-19592103D01*
X77009221Y-19575424D01*
X77121627Y-19569742D01*
D10*
X278634391Y-44982726D02*
X278634413Y-30982741D01*
X216721891Y-44982726D02*
X216721913Y-30982741D01*
X141621415Y-97439623D02*
X141621415Y-101024977D01*
X102134398Y-50032741D02*
X102134377Y-64032747D01*
D11*
X280941809Y-20669697D02*
X280947495Y-20557291D01*
X280964185Y-20448119D01*
X280991322Y-20342735D01*
X281028352Y-20241694D01*
X281074718Y-20145550D01*
X281129866Y-20054857D01*
X281193239Y-19970170D01*
X281264283Y-19892044D01*
X281342441Y-19821032D01*
X281427159Y-19757690D01*
X281517881Y-19702572D01*
X281614051Y-19656231D01*
X281715114Y-19619224D01*
X281820515Y-19592103D01*
X281929698Y-19575424D01*
X282042108Y-19569742D01*
X18508667Y-69504033D02*
X18598669Y-69506312D01*
X18775038Y-69524213D01*
X18945825Y-69559171D01*
X19110148Y-69610303D01*
X19267123Y-69676725D01*
X19415868Y-69757555D01*
X19555500Y-69851911D01*
X19685138Y-69958910D01*
X19803897Y-70077670D01*
X19910896Y-70207307D01*
X20005252Y-70346939D01*
X20086083Y-70495684D01*
X20152505Y-70652659D01*
X20203637Y-70816982D01*
X20238595Y-70987769D01*
X20256496Y-71164138D01*
X20258776Y-71254141D01*
X72154876Y-20669697D02*
X72160562Y-20557291D01*
X72177253Y-20448119D01*
X72204391Y-20342735D01*
X72241422Y-20241694D01*
X72287790Y-20145550D01*
X72342940Y-20054857D01*
X72406315Y-19970170D01*
X72477361Y-19892044D01*
X72555521Y-19821032D01*
X72640241Y-19757690D01*
X72730964Y-19702572D01*
X72827136Y-19656231D01*
X72928201Y-19619224D01*
X73033603Y-19592103D01*
X73142786Y-19575424D01*
X73255196Y-19569742D01*
X77121627Y-21769651D02*
X77009221Y-21763968D01*
X76900049Y-21747289D01*
X76794666Y-21720168D01*
X76693624Y-21683161D01*
X76597480Y-21636821D01*
X76506788Y-21581702D01*
X76422101Y-21518360D01*
X76343975Y-21447348D01*
X76272963Y-21369222D01*
X76209621Y-21284535D01*
X76154502Y-21193843D01*
X76108162Y-21097699D01*
X76071155Y-20996657D01*
X76044034Y-20891274D01*
X76027355Y-20782102D01*
X76021673Y-20669697D01*
D10*
X149759377Y-83082747D02*
X135759391Y-83082726D01*
D11*
X189252164Y-101024977D02*
X189232518Y-101122285D01*
X189178945Y-101201753D01*
X189099484Y-101255334D01*
X189002179Y-101274983D01*
D10*
X204540551Y-97437104D02*
X204540551Y-102141619D01*
D11*
X158175271Y-86510165D02*
X158185429Y-86409396D01*
X158214564Y-86315539D01*
X158260665Y-86230604D01*
X158321720Y-86156604D01*
X158395718Y-86095547D01*
X158480648Y-86049446D01*
X158574500Y-86020311D01*
X158675262Y-86010153D01*
D10*
X165500212Y-88132633D02*
X171198680Y-88132611D01*
X245009377Y-83082747D02*
X231009391Y-83082726D01*
D11*
X60733975Y-82204765D02*
X60636670Y-82185116D01*
X60557209Y-82131535D01*
X60503636Y-82052067D01*
X60483991Y-81954759D01*
D10*
X259584391Y-64032726D02*
X259584413Y-50032741D01*
X16697925Y-92894724D02*
X30697910Y-92894724D01*
X205806042Y-92846105D02*
X205806020Y-86510165D01*
D11*
X293898296Y-71254141D02*
X293900575Y-71164138D01*
X293918477Y-70987769D01*
X293953436Y-70816982D01*
X294004568Y-70652659D01*
X294070992Y-70495684D01*
X294151824Y-70346939D01*
X294246182Y-70207307D01*
X294353183Y-70077670D01*
X294471945Y-69958910D01*
X294601584Y-69851911D01*
X294741218Y-69757555D01*
X294889965Y-69676725D01*
X295046942Y-69610303D01*
X295211265Y-69559171D01*
X295382053Y-69524213D01*
X295558423Y-69506312D01*
X295648426Y-69504033D01*
D10*
X165500212Y-86510144D02*
X165500212Y-88132633D01*
X35747150Y-106894709D02*
X35747171Y-92894724D01*
X295648426Y-69504033D02*
X299797441Y-69504033D01*
D11*
X78221581Y-20669697D02*
X78215898Y-20782102D01*
X78199219Y-20891274D01*
X78172098Y-20996657D01*
X78135091Y-21097699D01*
X78088751Y-21193843D01*
X78033632Y-21284535D01*
X77970290Y-21369222D01*
X77899278Y-21447348D01*
X77821152Y-21518360D01*
X77736465Y-21581702D01*
X77645773Y-21636821D01*
X77549629Y-21683161D01*
X77448587Y-21720168D01*
X77343204Y-21747289D01*
X77234032Y-21763968D01*
X77121627Y-21769651D01*
D10*
X154521898Y-30982741D02*
X154521877Y-44982747D01*
X228627905Y-88132741D02*
X242627911Y-88132741D01*
D11*
X73255196Y-21769651D02*
X73142786Y-21763968D01*
X73033603Y-21747289D01*
X72928201Y-21720168D01*
X72827136Y-21683161D01*
X72730964Y-21636821D01*
X72640241Y-21581702D01*
X72555521Y-21518360D01*
X72477361Y-21447348D01*
X72406315Y-21369222D01*
X72342940Y-21284535D01*
X72287790Y-21193843D01*
X72241422Y-21097699D01*
X72204391Y-20996657D01*
X72177253Y-20891274D01*
X72160562Y-20782102D01*
X72154876Y-20669697D01*
X15297321Y-14295000D02*
X15198457Y-14299898D01*
X15101272Y-14314408D01*
X15006420Y-14338254D01*
X14914552Y-14371157D01*
X14826323Y-14412842D01*
X14742386Y-14463030D01*
X14663393Y-14521445D01*
X14590000Y-14587811D01*
D10*
X154809413Y-69082741D02*
X168809398Y-69082741D01*
D11*
X282042108Y-21769651D02*
X281929698Y-21763968D01*
X281820515Y-21747289D01*
X281715114Y-21720168D01*
X281614051Y-21683161D01*
X281517881Y-21636821D01*
X281427159Y-21581702D01*
X281342441Y-21518360D01*
X281264283Y-21447348D01*
X281193239Y-21369222D01*
X281129866Y-21284535D01*
X281074718Y-21193843D01*
X281028352Y-21097699D01*
X280991322Y-20996657D01*
X280964185Y-20891274D01*
X280947495Y-20782102D01*
X280941809Y-20669697D01*
D10*
X263388703Y-47893164D02*
X269713661Y-47893164D01*
X41859029Y-50669933D02*
X49259611Y-50669933D01*
X57177905Y-50032482D02*
X75940648Y-50032741D01*
X145284391Y-64032726D02*
X145284413Y-50032741D01*
X228627905Y-102132726D02*
X228627905Y-88132741D01*
D11*
X83606395Y-17169781D02*
X83500814Y-17164208D01*
X83397675Y-17147787D01*
X83297690Y-17120959D01*
X83201571Y-17084169D01*
X83110028Y-17037858D01*
X83023774Y-16982470D01*
X82943520Y-16918448D01*
X82869978Y-16846236D01*
X82803859Y-16766275D01*
X82745876Y-16679010D01*
X82712091Y-16616994D01*
D10*
X134296453Y-92846105D02*
X134296432Y-86510165D01*
X202434391Y-64032726D02*
X202434413Y-50032741D01*
X235484398Y-50032741D02*
X235484377Y-64032747D01*
D11*
X134546481Y-101275005D02*
X134449163Y-101255356D01*
X134369696Y-101201775D01*
X134316120Y-101122306D01*
X134296475Y-101024998D01*
D10*
X83074429Y-83071400D02*
X69074444Y-83071400D01*
D11*
X52272326Y-21769651D02*
X52159920Y-21763968D01*
X52050748Y-21747289D01*
X51945364Y-21720168D01*
X51844323Y-21683161D01*
X51748179Y-21636821D01*
X51657486Y-21581702D01*
X51572799Y-21518360D01*
X51494673Y-21447348D01*
X51423661Y-21369222D01*
X51360319Y-21284535D01*
X51305201Y-21193843D01*
X51258860Y-21097699D01*
X51221853Y-20996657D01*
X51194732Y-20891274D01*
X51178053Y-20782102D01*
X51172371Y-20669697D01*
X67308983Y-66939934D02*
X67409744Y-66950092D01*
X67503596Y-66979228D01*
X67588526Y-67025329D01*
X67662525Y-67086385D01*
X67723579Y-67160386D01*
X67769680Y-67245320D01*
X67798815Y-67339177D01*
X67808974Y-67439947D01*
D10*
X83371913Y-30982741D02*
X97371898Y-30982741D01*
D11*
X134296432Y-86510165D02*
X134306590Y-86409396D01*
X134335725Y-86315539D01*
X134381825Y-86230604D01*
X134442880Y-86156604D01*
X134516878Y-86095547D01*
X134601809Y-86049446D01*
X134695660Y-86020311D01*
X134796423Y-86010153D01*
D10*
X168809377Y-83082747D02*
X154809391Y-83082726D01*
X130709398Y-69082741D02*
X130709377Y-83082747D01*
X69074444Y-73775887D02*
X69074444Y-69071393D01*
X135471877Y-44982747D02*
X121471891Y-44982726D01*
X15297321Y-52894883D02*
X20604147Y-52894883D01*
X204540551Y-88141612D02*
X204540551Y-92846105D01*
D11*
X205806020Y-86510165D02*
X205816178Y-86409396D01*
X205845313Y-86315539D01*
X205891414Y-86230604D01*
X205952469Y-86156604D01*
X206026467Y-86095547D01*
X206111397Y-86049446D01*
X206205249Y-86020311D01*
X206306011Y-86010153D01*
D10*
X190540565Y-102141619D02*
X190540565Y-97439623D01*
X97372889Y-102132747D02*
X83372903Y-102132726D01*
D11*
X282005848Y-67439925D02*
X282016005Y-67339156D01*
X282045138Y-67245299D01*
X282091236Y-67160365D01*
X282152288Y-67086366D01*
X282226285Y-67025313D01*
X282311216Y-66979215D01*
X282405070Y-66950085D01*
X282505839Y-66939934D01*
D10*
X292634398Y-30982741D02*
X292634377Y-44982747D01*
X235484377Y-64032747D02*
X221484391Y-64032726D01*
D11*
X65521947Y-19569742D02*
X65634352Y-19575424D01*
X65743524Y-19592103D01*
X65848908Y-19619224D01*
X65949949Y-19656231D01*
X66046093Y-19702572D01*
X66136786Y-19757690D01*
X66221473Y-19821032D01*
X66299599Y-19892044D01*
X66370611Y-19970170D01*
X66433953Y-20054857D01*
X66489071Y-20145550D01*
X66535412Y-20241694D01*
X66572419Y-20342735D01*
X66599540Y-20448119D01*
X66616219Y-20557291D01*
X66621902Y-20669697D01*
D10*
X189252164Y-97439623D02*
X189252164Y-101024977D01*
X60484012Y-78369405D02*
X59648641Y-78369405D01*
X240534413Y-50032741D02*
X254534398Y-50032741D01*
X206909377Y-83082747D02*
X192909391Y-83082726D01*
X250059391Y-83082726D02*
X250059413Y-69082741D01*
X278634413Y-88132741D02*
X292634398Y-88132762D01*
X54796913Y-92894724D02*
X68796898Y-92894724D01*
X41859029Y-45219856D02*
X41859029Y-21619725D01*
X22259386Y-68331042D02*
X21509388Y-67032112D01*
X171198680Y-88132611D02*
X171198701Y-102132597D01*
X235771891Y-44982726D02*
X235771913Y-30982741D01*
X41859029Y-21619725D02*
X47374347Y-21619725D01*
D11*
X279275287Y-20669697D02*
X279269604Y-20782102D01*
X279252925Y-20891274D01*
X279225804Y-20996657D01*
X279188796Y-21097699D01*
X279142456Y-21193843D01*
X279087337Y-21284535D01*
X279023994Y-21369222D01*
X278952982Y-21447348D01*
X278874854Y-21518360D01*
X278790166Y-21581702D01*
X278699472Y-21636821D01*
X278603325Y-21683161D01*
X278502282Y-21720168D01*
X278396895Y-21747289D01*
X278287720Y-21763968D01*
X278175311Y-21769651D01*
X84362873Y-67439925D02*
X84373030Y-67339156D01*
X84402163Y-67245299D01*
X84448261Y-67160365D01*
X84509313Y-67086366D01*
X84583310Y-67025313D01*
X84668241Y-66979215D01*
X84762095Y-66950085D01*
X84862864Y-66939934D01*
D10*
X60984025Y-66939934D02*
X67308983Y-66939934D01*
X35747150Y-87844752D02*
X35747171Y-73844767D01*
X202434413Y-50032741D02*
X216434398Y-50032741D01*
X178334398Y-50032741D02*
X178334377Y-64032747D01*
D11*
X293592501Y-47893164D02*
X293693262Y-47903322D01*
X293787114Y-47932458D01*
X293872044Y-47978559D01*
X293946043Y-48039615D01*
X294007097Y-48113616D01*
X294053198Y-48198550D01*
X294082333Y-48292407D01*
X294092492Y-48393177D01*
D10*
X45618576Y-60789362D02*
X49259590Y-62891215D01*
X116421877Y-44982747D02*
X102421891Y-44982726D01*
X111659398Y-69082741D02*
X111659377Y-83082747D01*
X142909816Y-102141619D02*
X142909816Y-97439623D01*
X92523142Y-73775887D02*
X92523120Y-78366885D01*
X197671891Y-44982726D02*
X197671913Y-30982741D01*
X216721913Y-30982741D02*
X230721898Y-30982741D01*
X41859029Y-16169670D02*
X41859029Y-15295132D01*
X204540551Y-102141619D02*
X190540565Y-102141619D01*
D11*
X91187823Y-66939934D02*
X91288584Y-66950092D01*
X91382436Y-66979228D01*
X91467366Y-67025329D01*
X91541365Y-67086385D01*
X91602419Y-67160386D01*
X91648520Y-67245320D01*
X91677655Y-67339177D01*
X91687814Y-67439947D01*
X14297189Y-51895116D02*
X14302087Y-51993865D01*
X14316597Y-52090962D01*
X14340443Y-52185751D01*
X14373346Y-52277575D01*
X14415031Y-52365778D01*
X14465219Y-52449703D01*
X14523634Y-52528693D01*
X14590000Y-52602093D01*
D10*
X121471891Y-44982726D02*
X121471913Y-30982741D01*
D11*
X62755450Y-20669697D02*
X62749767Y-20782102D01*
X62733088Y-20891274D01*
X62705967Y-20996657D01*
X62668960Y-21097699D01*
X62622619Y-21193843D01*
X62567501Y-21284535D01*
X62504159Y-21369222D01*
X62433147Y-21447348D01*
X62355021Y-21518360D01*
X62270334Y-21581702D01*
X62179641Y-21636821D01*
X62083497Y-21683161D01*
X61982456Y-21720168D01*
X61877072Y-21747289D01*
X61767900Y-21763968D01*
X61655495Y-21769651D01*
X58889019Y-20669697D02*
X58883332Y-20782102D01*
X58866642Y-20891274D01*
X58839505Y-20996657D01*
X58802477Y-21097699D01*
X58756115Y-21193843D01*
X58700974Y-21284535D01*
X58637610Y-21369222D01*
X58566579Y-21447348D01*
X58488438Y-21518360D01*
X58403742Y-21581702D01*
X58313048Y-21636821D01*
X58216912Y-21683161D01*
X58115890Y-21720168D01*
X58010537Y-21747289D01*
X57901410Y-21763968D01*
X57789065Y-21769651D01*
X110538816Y-86503684D02*
X110548974Y-86402915D01*
X110578109Y-86309058D01*
X110624210Y-86224123D01*
X110685265Y-86150123D01*
X110759263Y-86089066D01*
X110844193Y-86042965D01*
X110938045Y-86013830D01*
X111038807Y-86003672D01*
X74355151Y-20669697D02*
X74349464Y-20782102D01*
X74332774Y-20891274D01*
X74305637Y-20996657D01*
X74268609Y-21097699D01*
X74222247Y-21193843D01*
X74167106Y-21284535D01*
X74103742Y-21369222D01*
X74032711Y-21447348D01*
X73954570Y-21518360D01*
X73869874Y-21581702D01*
X73779180Y-21636821D01*
X73683044Y-21683161D01*
X73582021Y-21720168D01*
X73476668Y-21747289D01*
X73367541Y-21763968D01*
X73255196Y-21769651D01*
D10*
X130709377Y-83082747D02*
X116709391Y-83082726D01*
X49259590Y-65831260D02*
X46759462Y-68331042D01*
X178621891Y-44982726D02*
X178621913Y-30982741D01*
X183384413Y-50032741D02*
X197384398Y-50032741D01*
X30697889Y-106894731D02*
X16697903Y-106894709D01*
X68796877Y-106894731D02*
X54796891Y-106894709D01*
D11*
X282042108Y-19569742D02*
X282154456Y-19575424D01*
X282263586Y-19592103D01*
X282368941Y-19619224D01*
X282469964Y-19656231D01*
X282566101Y-19702572D01*
X282656795Y-19757690D01*
X282741490Y-19821032D01*
X282819630Y-19892044D01*
X282890660Y-19970170D01*
X282954022Y-20054857D01*
X283009162Y-20145550D01*
X283055523Y-20241694D01*
X283092550Y-20342735D01*
X283119686Y-20448119D01*
X283136375Y-20557291D01*
X283142062Y-20669697D01*
D10*
X126234413Y-50032741D02*
X140234398Y-50032741D01*
X49259611Y-45219856D02*
X41859029Y-45219856D01*
D11*
X117363766Y-86003650D02*
X117464534Y-86013808D01*
X117558388Y-86042944D01*
X117643319Y-86089045D01*
X117717316Y-86150101D01*
X117778368Y-86224102D01*
X117824466Y-86309036D01*
X117853599Y-86402893D01*
X117863757Y-86503663D01*
D10*
X17297221Y-109294886D02*
X81669627Y-109294886D01*
X286767551Y-50032741D02*
X286767551Y-48393155D01*
X49259611Y-29282780D02*
X49259611Y-45219856D01*
X181091853Y-92846105D02*
X181927202Y-92846105D01*
X69074444Y-69071393D02*
X83074429Y-69071393D01*
X249771898Y-30982741D02*
X249771877Y-44982747D01*
X181927202Y-92846105D02*
X181927181Y-86510165D01*
X35552050Y-14295000D02*
X34968558Y-15331112D01*
D11*
X277075378Y-20669697D02*
X277081060Y-20557291D01*
X277097739Y-20448119D01*
X277124860Y-20342735D01*
X277161867Y-20241694D01*
X277208207Y-20145550D01*
X277263325Y-20054857D01*
X277326666Y-19970170D01*
X277397677Y-19892044D01*
X277475802Y-19821032D01*
X277560488Y-19757690D01*
X277651179Y-19702572D01*
X277747321Y-19656231D01*
X277848359Y-19619224D01*
X277953740Y-19592103D01*
X278062909Y-19575424D01*
X278175311Y-19569742D01*
D10*
X59559413Y-30982741D02*
X73559398Y-30982741D01*
X217854553Y-92816133D02*
X218689924Y-92816133D01*
X75940627Y-64032747D02*
X57177905Y-64032467D01*
X49259611Y-50669933D02*
X49259611Y-53403250D01*
X35552071Y-52894883D02*
X40859262Y-52894883D01*
X83372903Y-102132726D02*
X83372903Y-88132741D01*
X83371891Y-44982726D02*
X83371913Y-30982741D01*
X97372910Y-88132741D02*
X97372889Y-102132747D01*
D11*
X294145568Y-20669697D02*
X294151250Y-20557291D01*
X294167929Y-20448119D01*
X294195050Y-20342735D01*
X294232057Y-20241694D01*
X294278397Y-20145550D01*
X294333516Y-20054857D01*
X294396858Y-19970170D01*
X294467870Y-19892044D01*
X294545996Y-19821032D01*
X294630683Y-19757690D01*
X294721375Y-19702572D01*
X294817519Y-19656231D01*
X294918561Y-19619224D01*
X295023944Y-19592103D01*
X295133116Y-19575424D01*
X295245522Y-19569742D01*
D10*
X189252143Y-92828492D02*
X190540565Y-92828492D01*
X102421913Y-30982741D02*
X116421898Y-30982741D01*
X133461125Y-97437104D02*
X133461104Y-92846105D01*
X49747135Y-106894731D02*
X35747150Y-106894709D01*
M02*
