M48
; DRILL file {KiCad 8.0.3} date 2024-07-31T18:48:20+0900
; FORMAT={-:-/ absolute / metric / decimal}
; #@! TF.CreationDate,2024-07-31T18:48:20+09:00
; #@! TF.GenerationSoftware,Kicad,Pcbnew,8.0.3
; #@! TF.FileFunction,Plated,1,2,PTH
FMAT,2
METRIC
; #@! TA.AperFunction,Plated,PTH,ComponentDrill
T1C0.813
; #@! TA.AperFunction,Plated,PTH,ComponentDrill
T2C0.820
; #@! TA.AperFunction,Plated,PTH,ComponentDrill
T3C2.200
%
G90
G05
T1
X16.662Y-19.605
X16.677Y-27.245
X16.677Y-37.408
X16.677Y-24.704
X16.677Y-39.947
X16.678Y-45.026
X16.679Y-29.785
X16.679Y-47.57
X16.679Y-32.324
X16.68Y-22.164
X16.68Y-34.867
X16.681Y-42.486
X20.47Y-18.125
X20.47Y-20.665
X20.47Y-23.205
X20.47Y-25.745
X20.47Y-28.285
X20.47Y-30.825
X20.47Y-33.365
X20.47Y-35.905
X20.47Y-38.445
X20.47Y-40.985
X20.47Y-43.525
X20.47Y-46.065
X35.69Y-18.125
X35.69Y-20.665
X35.69Y-23.205
X35.69Y-25.745
X35.69Y-28.285
X35.69Y-30.825
X35.69Y-33.365
X35.69Y-35.905
X35.69Y-38.445
X35.69Y-40.985
X35.69Y-43.525
X35.69Y-46.065
X39.465Y-27.246
X39.467Y-32.322
X39.467Y-24.706
X39.468Y-34.866
X39.468Y-47.565
X39.468Y-45.024
X39.469Y-37.41
X39.469Y-39.947
X39.469Y-42.487
X39.47Y-19.62
X39.47Y-29.786
X39.472Y-22.161
T3
X17.435Y-76.35
T2
X26.989Y-46.0G85X29.169Y-46.0
G05
M30
