<svg id="cut" xmlns="http://www.w3.org/2000/svg" viewBox="0 0 703.34 296.9183"><defs><style>.cls-1{fill:none;stroke:#000;stroke-miterlimit:10;stroke-width:0.7087px;}</style></defs><title>reviung39-lower-middle-plate</title><path class="cls-1" d="M702.9493,188.3673,675.5163,32.7766a2.8425,2.8425,0,0,0-2.8157-2.3547L510.53,30.42l-27.4631.0013L452.5505,25.04l-2.8941,16.4133a4.2644,4.2644,0,0,1-4.9257,3.449L425.19,41.4568a4.2645,4.2645,0,0,1-3.449-4.9257l2.8941-16.4135-21.3932-3.7723-1.048,5.5907a2.8322,2.8322,0,0,1-3.2809,2.2974L317.9538,9.9581a2.8341,2.8341,0,0,1-2.299-3.2832l1.0479-5.5894L312.767.3916s-.3217-.0373-.482-.0373a2.829,2.829,0,0,0-2.8016,2.3707l-8.25,46.8129L228.4445,36.7032l-1.2667,7.1549,11.4414,2.0174L236.955,55.313l-1.1088-.1955-2.7131,15.3864-15.2144-2.6827a5.9374,5.9374,0,0,1-8.46-1.4916L194.33,63.6619l1.4628-8.2958-5.6131-.99,1.4767-8.3748,5.6131.99,1.4376-8.1534,10.3253,1.8206,1.2668-7.1549L192.8121,30.42H30.6084A2.8268,2.8268,0,0,0,27.8106,32.85l-2.4878,14.11,7.1679,1.2322,1.4376-8.1533,10.3252,1.8206.74-4.1943a1.4174,1.4174,0,0,1,1.6419-1.15l15.3557,2.7077a1.4151,1.4151,0,0,1,1.148,1.6394l-.74,4.1964L73.84,47.0755,72.1761,56.513l-1.1089-.1955L69.8518,63.21l9.9837,9.9836-.0148.0149a7.3661,7.3661,0,1,1-10.7041,10.112L55.1761,69.38,53.14,69.0212A5.9374,5.9374,0,0,1,44.68,67.53L29.5512,64.8619l1.4627-8.2958-7.1677-1.2323L15.9353,100.2l7.1764,1.2337L24.5493,93.28l10.3253,1.8206.74-4.1943a1.4173,1.4173,0,0,1,1.6418-1.15l15.3558,2.7077a1.4151,1.4151,0,0,1,1.148,1.6394L53.02,98.3l11.4414,2.0174-1.6642,9.4375-1.1088-.1955-2.7131,15.3865-15.2144-2.6828a5.9373,5.9373,0,0,1-8.46-1.4917L20.1723,118.104l1.4627-8.2958-7.1764-1.2337L6.57,153.3125l7.1941,1.2367,1.4376-8.1533,10.3252,1.8206.74-4.1943a1.4173,1.4173,0,0,1,1.6419-1.15L43.2644,145.58a1.4152,1.4152,0,0,1,1.148,1.6394l-.74,4.1964,11.4415,2.0174L53.45,162.8709l-1.1089-.1955-2.713,15.3865-15.2145-2.6828a5.9374,5.9374,0,0,1-8.46-1.4916L10.8249,171.22l1.4627-8.2958-7.194-1.2368L.3924,188.35s-.0381.3219-.0381.4828a2.83,2.83,0,0,0,2.3541,2.7862l.0022.0031,192.9338,34.0223,27.7594,60.2226a2.8106,2.8106,0,0,0,2.0327,1.5687l51.7547,9.128H426.146l51.7156-9.12a2.8394,2.8394,0,0,0,2.1121-1.67l27.7207-60.1323,192.9343-34.02a2.8291,2.8291,0,0,0,2.357-2.7946C702.9857,188.6739,702.9493,188.3673,702.9493,188.3673ZM679.7959,93.1235l1.664,9.4375-1.1088.1955,2.713,15.3865L667.85,120.8256a5.9372,5.9372,0,0,1-8.46,1.4917l-15.1289,2.6676-1.4628-8.2957-5.613.99-1.4768-8.3748,5.6131-.99-1.4376-8.1534L650.2092,98.34l-.74-4.1943a1.4174,1.4174,0,0,1,1.15-1.6419l15.3558-2.7076a1.4151,1.4151,0,0,1,1.6394,1.1479l.74,4.1964ZM622.2551,74.8993l5.6293-10.5871-1.46-8.2785,5.6131-.99L630.6,46.8906,640.9253,45.07l-.74-4.1943a1.4173,1.4173,0,0,1,1.15-1.6419l15.3558-2.7076a1.4153,1.4153,0,0,1,1.6395,1.148l.74,4.1963,11.4414-2.0174,1.6641,9.4374-1.1088.1956,2.713,15.3864-15.2144,2.6828a5.9376,5.9376,0,0,1-8.46,1.4917l-8.8772,1.5653-5.9979,11.28-.0022-.0012a7.3691,7.3691,0,1,1-12.9736-6.9922ZM575.7,46.4926,586.025,44.672l-.74-4.1943a1.4173,1.4173,0,0,1,1.15-1.6419l15.3557-2.7077a1.4153,1.4153,0,0,1,1.6395,1.148l.74,4.1964,11.4415-2.0175,1.664,9.4375-1.1089.1956L618.88,64.4745l-15.2145,2.6827a5.9372,5.9372,0,0,1-8.46,1.4917l-15.1289,2.6676-1.4628-8.2958-5.6131.99-1.4767-8.3748,5.6131-.99Zm-3.9886,55.1694-1.1089.1956.013.0732.0226-.0032,2.7131,15.3864-15.2145,2.6827a5.9375,5.9375,0,0,1-8.46,1.4917L541.45,122.939,534.7175,134.6l-.0131-.0076a7.3637,7.3637,0,1,1-12.666-7.5118l5.5453-9.6031-1.5883-9.0023,5.5775-1.06-1.4376-8.1533,10.3252-1.8206-.74-4.1943a1.4175,1.4175,0,0,1,1.15-1.642l15.3557-2.7076a1.4152,1.4152,0,0,1,1.6395,1.148l.74,4.1964,11.4414-2.0175ZM520.705,46.1137,531.03,44.2931l-.74-4.1944a1.4171,1.4171,0,0,1,1.15-1.6418l15.3558-2.7077a1.4154,1.4154,0,0,1,1.6395,1.148l.74,4.1963,11.4414-2.0174,1.6641,9.4375-1.1089.1955,2.7131,15.3865-15.2145,2.6827a5.9373,5.9373,0,0,1-8.46,1.4917l-15.1288,2.6676-1.4629-8.2959-5.613.99L516.53,55.2567l5.6131-.99ZM465.8761,45.68l10.3252-1.8207-.74-4.1943a1.4173,1.4173,0,0,1,1.15-1.6419l15.3558-2.7076a1.4152,1.4152,0,0,1,1.6395,1.148l.74,4.1963,11.4415-2.0174,1.664,9.4375-1.1088.1955,2.713,15.3864-15.2144,2.6828a5.9376,5.9376,0,0,1-8.46,1.4917l-15.1288,2.6676L468.79,62.2075l-5.6131.99-1.4767-8.3748,5.6131-.99Zm-42.0948,72.3789,10.3252-1.8206-.7395-4.1943a1.4172,1.4172,0,0,1,1.15-1.6419l15.3558-2.7077a1.4154,1.4154,0,0,1,1.6395,1.148l.74,4.1964,11.4414-2.0175,1.6641,9.4375-1.1089.1956,2.7131,15.3864L451.747,138.723a5.9373,5.9373,0,0,1-8.46,1.4917l-15.1288,2.6676-1.4628-8.2958-5.6131.99-1.4767-8.3748,5.6131-.99ZM414.606,24.1262a2.8347,2.8347,0,1,1-2.8346,2.8347A2.8347,2.8347,0,0,1,414.606,24.1262Zm1.2025,48.9066-1.4377-8.1533,10.3252-1.8206-.74-4.1944a1.4174,1.4174,0,0,1,1.15-1.6419l15.3558-2.7076a1.4151,1.4151,0,0,1,1.6394,1.148l.74,4.1963,11.4414-2.0174,1.6641,9.4375-1.1089.1955,2.713,15.3864-15.2144,2.6828a5.9374,5.9374,0,0,1-8.46,1.4916l-15.1289,2.6677-1.4627-8.2958-5.6131.99-1.4767-8.3748Zm-12.9363,3.946,1.6327,9.26,15.0688,15.0687-.0106.0106a7.366,7.366,0,1,1-10.6248,10.2l-8.5118-8.5118-9.5,1.6752a5.9375,5.9375,0,0,1-8.46,1.4917L367.3374,108.84l-1.4627-8.2958-5.6131.99-1.4767-8.3747,5.613-.99L362.96,84.0163l10.3252-1.8206-.74-4.1943a1.4174,1.4174,0,0,1,1.15-1.6419l15.3558-2.7077a1.4152,1.4152,0,0,1,1.6394,1.148l.74,4.1964ZM359.0175,225.6375a7.37,7.37,0,1,1-7.37-7.37A7.37,7.37,0,0,1,359.0175,225.6375ZM308.156,48.5686l.489-2.773a2.844,2.844,0,0,1,3.2948-2.307L392.877,57.76a2.8442,2.8442,0,0,1,2.307,3.2948l-.489,2.7729a2.844,2.844,0,0,1-3.2948,2.307L310.4631,51.8634A2.8443,2.8443,0,0,1,308.156,48.5686Zm34.7367,19.3382a2.8347,2.8347,0,1,1-2.8346-2.8346A2.8346,2.8346,0,0,1,342.8927,67.9068ZM308.18,59.4029a2.8347,2.8347,0,1,1-2.8346,2.8346A2.8346,2.8346,0,0,1,308.18,59.4029ZM294.5407,84.2753l5.6131.99,1.4377-8.1533,10.3252,1.8206.74-4.1944a1.4173,1.4173,0,0,1,1.6418-1.15l15.3558,2.7076a1.4151,1.4151,0,0,1,1.1479,1.6395l-.74,4.1964,11.4415,2.0175-1.6641,9.4374-1.1089-.1955-2.713,15.3864-15.2145-2.6827a5.9375,5.9375,0,0,1-8.46-1.4917l-9.3583-1.65-8.7811,8.7812-.0013-.0012a7.3692,7.3692,0,1,1-10.4049-10.4383l9.4-9.4ZM283.78,145.829l1.4767-8.3748,5.6131.99,1.4377-8.1534,10.3252,1.8206.74-4.1943a1.4175,1.4175,0,0,1,1.6419-1.15l15.3558,2.7077a1.4152,1.4152,0,0,1,1.148,1.6394l-.74,4.1965,11.4414,2.0173-1.664,9.4375-1.1089-.1954-2.7131,15.3864-15.2144-2.6827a5.9375,5.9375,0,0,1-8.46-1.4917L287.93,155.1146l1.4628-8.2959ZM243.067,65.1384l5.6131.99,1.4377-8.1534,10.3252,1.8206.74-4.1943a1.4173,1.4173,0,0,1,1.6418-1.15L278.18,57.1591a1.4152,1.4152,0,0,1,1.148,1.6395l-.74,4.1964L290.03,65.0124,288.3656,74.45l-1.1089-.1955-2.713,15.3864-15.2145-2.6827a5.9375,5.9375,0,0,1-8.46-1.4917l-15.1288-2.6676,1.4628-8.2958-5.6131-.99Zm-9.3473,53.179,5.6131.99,1.4376-8.1533,10.3252,1.8206.74-4.1943a1.4174,1.4174,0,0,1,1.6419-1.15l15.3557,2.7076a1.4153,1.4153,0,0,1,1.148,1.64l-.74,4.1964,11.4414,2.0174-1.6641,9.4375-1.1089-.1955-2.713,15.3864-15.2145-2.6827a5.9373,5.9373,0,0,1-8.46-1.4917l-15.1288-2.6676,1.4627-8.2958-5.613-.99Zm-44.423-26.3,10.3253,1.8206,3.329-19.289a1.4173,1.4173,0,0,1,1.6419-1.15l15.3557,2.7077a1.4151,1.4151,0,0,1,1.148,1.6394l-3.3294,19.2912,11.4414,2.0174-1.6641,9.4375-1.1088-.1955-2.7131,15.3864L208.5081,121a5.9373,5.9373,0,0,1-8.46-1.4916L184.92,116.8408l1.4628-8.2957-5.6131-.99,1.4767-8.3747,5.6131.99ZM136.7091,46.3805l5.6131.99,1.4377-8.1534,10.3252,1.8207.74-4.1944a1.4172,1.4172,0,0,1,1.6419-1.15l15.3557,2.7076a1.4152,1.4152,0,0,1,1.148,1.6395l-.74,4.1964,11.4414,2.0174-1.6641,9.4375-1.1089-.1956-2.713,15.3865L162.9713,68.2a5.9375,5.9375,0,0,1-8.46-1.4917l-15.1288-2.6676,1.4627-8.2958-5.6131-.99Zm-2.2966,46.0154,10.3253,1.8206.74-4.1943a1.4173,1.4173,0,0,1,1.6419-1.15L162.4749,91.58a1.4151,1.4151,0,0,1,1.148,1.6394l-.74,4.1964,11.4414,2.0174-1.6641,9.4375-1.1088-.1955L170.297,115.79l9.9122,9.9122-.0024.0023a7.3685,7.3685,0,1,1-10.4489,10.3921L155.344,121.6824l-1.72-.3033a5.9374,5.9374,0,0,1-8.46-1.4916L130.0354,117.22l1.4628-8.2958-5.6131-.99,1.4767-8.3748,5.6131.99ZM80.3482,55.1342,81.8249,46.76l5.6131.99,1.4377-8.1533,10.3252,1.8206.74-4.1943a1.4173,1.4173,0,0,1,1.6419-1.15L116.9381,38.78a1.4152,1.4152,0,0,1,1.148,1.6394l-.74,4.1964,11.4414,2.0174-1.6641,9.4375-1.1089-.1955-2.7131,15.3865-15.2144-2.6828a5.9373,5.9373,0,0,1-8.46-1.4917L84.4986,64.42l1.4627-8.2958Zm-25.17,140.844a7.37,7.37,0,1,1,7.37-7.37A7.37,7.37,0,0,1,55.1779,195.9782Zm53.1877-33.5494-1.1089-.1955-2.713,15.3864L89.3292,174.937a5.9375,5.9375,0,0,1-8.46-1.4917l-15.1288-2.6676,1.4628-8.2958-5.6131-.99,2.1218-11.906c-.0409-.0048-.081-.0017-.1221-.009l-12.5608-2.2148a2.1268,2.1268,0,0,1-1.7251-2.4637l1.6779-9.5154a2.1266,2.1266,0,0,1,2.4636-1.725l12.5608,2.2148a2.1267,2.1267,0,0,1,1.7251,2.4636l-1.2364,7.0119,13.9478,2.4259.74-4.1943a1.4173,1.4173,0,0,1,1.6418-1.15L98.18,145.138a1.4153,1.4153,0,0,1,1.148,1.6395l-.74,4.1964,11.4414,2.0175ZM98.7082,121.79a5.9375,5.9375,0,0,1-8.46-1.4916L75.12,117.63l1.4628-8.2958-5.6131-.99L72.446,99.97l5.6131.99,1.4376-8.1533L89.8219,94.627,93.151,75.338a1.4174,1.4174,0,0,1,1.6419-1.15l15.3557,2.7077a1.4151,1.4151,0,0,1,1.148,1.6394l-3.3294,19.2911,11.4414,2.0175-1.6641,9.4375-1.1089-.1956-2.713,15.3865Zm45.5052,52.7685a5.9375,5.9375,0,0,1-8.46-1.4917l-15.1289-2.6676,1.4629-8.2959-5.6131-.99,1.4767-8.3748,5.6131.99,1.4376-8.1533,10.3252,1.8206.74-4.1944a1.4172,1.4172,0,0,1,1.6418-1.15l15.3558,2.7076a1.4152,1.4152,0,0,1,1.148,1.6395l-.74,4.1963,11.4415,2.0175L163.25,162.05l-1.1088-.1956-2.7131,15.3865Zm38.1894,8.3727-1.6778,9.5155a2.1266,2.1266,0,0,1-2.4636,1.725l-15.3715-2.709a2.1266,2.1266,0,0,1-1.7251-2.4636l1.6778-9.5155a2.1266,2.1266,0,0,1,2.4636-1.725l15.3716,2.709A2.1265,2.1265,0,0,1,182.4028,182.9308Zm12.209-7.7506a5.93,5.93,0,0,1-3.9107-2.5559l-15.1289-2.6676,1.4628-8.2959-5.6131-.99,1.4767-8.3748,5.6131.99,1.4377-8.1534,10.3252,1.8206.74-4.1943a1.4173,1.4173,0,0,1,1.6418-1.15l15.3558,2.7077a1.4152,1.4152,0,0,1,1.148,1.6394l-.74,4.1965,11.4414,2.0173-1.664,9.4375-1.1089-.1954-2.713,15.3864-15.2145-2.6827A5.93,5.93,0,0,1,194.6118,175.18ZM216.01,233.0075a7.37,7.37,0,1,1,7.37-7.37A7.37,7.37,0,0,1,216.01,233.0075Zm6.8861-53.1364,1.4767-8.3748,5.6131.99,1.4377-8.1533,10.3252,1.8206.7395-4.1943a1.4174,1.4174,0,0,1,1.6419-1.15l15.3558,2.7077a1.4151,1.4151,0,0,1,1.1479,1.6395l-.74,4.1964,11.4414,2.0174-1.664,9.4375-1.1089-.1956-2.713,15.3865-15.2145-2.6828a5.9374,5.9374,0,0,1-8.46-1.4916l-15.1289-2.6677,1.4628-8.2957Zm77.1236,72.54a2.1267,2.1267,0,0,1-2.1267,2.1267H285.138l-.0188-.0019h-6.7469l-.7823,4.4362-1.1088-.1955-2.7131,15.3864-15.2144-2.6827a5.9375,5.9375,0,0,1-8.46-1.4917l-15.1289-2.6676,1.4628-8.2958-5.6131-.99,1.4767-8.3748,5.6131.99,1.4376-8.1534,10.3253,1.8206.74-4.1943a1.4173,1.4173,0,0,1,1.6418-1.15l15.3558,2.7077a1.415,1.415,0,0,1,1.1479,1.6395l-.74,4.1964,11.4415,2.0174-.0021.0118h3.7592v-6.7975a2.1267,2.1267,0,0,1,2.1267-2.1266h12.7545a2.1266,2.1266,0,0,1,2.1267,2.1266ZM297.496,213.58a5.93,5.93,0,0,1-3.9107-2.5559l-15.1289-2.6676,1.4628-8.2959-5.6131-.99,1.4768-8.3748,5.613.99,1.4377-8.1534,10.3252,1.8207.74-4.1944a1.4173,1.4173,0,0,1,1.6419-1.15l15.3558,2.7076a1.4153,1.4153,0,0,1,1.148,1.6395l-.74,4.1963,11.4414,2.0175-1.664,9.4375-1.1089-.1956-2.713,15.3865L302.045,212.516A5.9306,5.9306,0,0,1,297.496,213.58ZM323.65,243.2118v3.8927a5.849,5.849,0,1,1-11.6979,0v-3.8927a5.849,5.849,0,0,1,11.6979,0Zm-3.2323,50.6163h-5.2333a4.47,4.47,0,1,1,0-8.94h5.2333a4.47,4.47,0,1,1,0,8.94Zm52.0833-34.3905h-1.126v15.6238H355.9254a5.9375,5.9375,0,0,1-8.59,0H331.9729v-8.4238h-5.7v-8.504h5.7v-8.2791h10.4845v-4.259a1.4173,1.4173,0,0,1,1.4173-1.4173h15.5927a1.4152,1.4152,0,0,1,1.4152,1.4152v4.2611h11.6179ZM375.222,153.66l-5.6131.99-1.4767-8.3747,5.6131-.99-1.4377-8.1533,10.3253-1.8206-.74-4.1944a1.4173,1.4173,0,0,1,1.15-1.6419l15.3558-2.7076a1.4152,1.4152,0,0,1,1.6395,1.148l.74,4.1964,11.4415-2.0174,1.664,9.4374-1.1089.1956,2.7131,15.3864-15.2145,2.6827a5.9375,5.9375,0,0,1-8.46,1.4917l-15.1288,2.6676Zm12.8752,140.1679h-5.2333a4.47,4.47,0,1,1,0-8.94h5.2333a4.47,4.47,0,1,1,0,8.94Zm-8.4656-46.7236v-3.8927a5.849,5.849,0,0,1,11.6979,0v3.8927a5.849,5.849,0,1,1-11.6979,0Zm6.4637-31.9064-1.4628-8.2958-5.6131.99-1.4767-8.3749,5.6131-.99-1.4376-8.1533,10.3252-1.8207-.74-4.1942a1.4173,1.4173,0,0,1,1.15-1.6419l15.3557-2.7077a1.4153,1.4153,0,0,1,1.6395,1.148l.74,4.1964,11.4415-2.0175,1.6641,9.4375-1.1089.1955,2.713,15.3865-15.2144,2.6827a5.9376,5.9376,0,0,1-8.46,1.4917ZM453.2,269.9651a5.9373,5.9373,0,0,1-8.46,1.4917l-15.1289,2.6676-1.4628-8.2958-5.6131.99-2.2173-12.2744c-.0192,0-14.3046-.018-14.3046-.018a2.1268,2.1268,0,0,1-2.1267-2.1267v-9.6622a2.1268,2.1268,0,0,1,2.1267-2.1267h12.7545a2.1268,2.1268,0,0,1,2.1267,2.1267v6.5643h4.34l0-.0009,10.3252-1.8206-.74-4.1944a1.4173,1.4173,0,0,1,1.15-1.6418l15.3557-2.7076a1.4152,1.4152,0,0,1,1.6395,1.1479l.74,4.1964,11.4414-2.0174,1.6642,9.4375-1.1089.1955,2.713,15.3864Zm7.9579-78.0631a5.9375,5.9375,0,0,1-8.46,1.4916l-15.1288,2.6677-1.4628-8.2958-5.6131.99-1.4767-8.3748,5.6131-.99-1.4376-8.1534,10.3252-1.8206-.74-4.1943a1.4174,1.4174,0,0,1,1.15-1.6419l15.3558-2.7076a1.4152,1.4152,0,0,1,1.6395,1.1479l.74,4.1964L473.1037,164.2l1.6641,9.4375-1.1088.1955,2.713,15.3865Zm17.0166-76.4885-5.6179.9627-1.4767-8.3747,5.613-.99.0191-.0026-1.4331-8.127,10.31-1.818-3.2347-18.6222a2.1266,2.1266,0,0,1,1.725-2.4636l13.9361-2.4424a2.1268,2.1268,0,0,1,2.4637,1.7251l3.2551,18.6036,11.4563-2.02,1.664,9.4374-1.1089.1956,2.6894,15.3627-15.2144,2.6827a5.9375,5.9375,0,0,1-8.46,1.4917l-15.1288,2.6676Zm9.1537,117.594a7.37,7.37,0,1,1,7.37-7.37A7.37,7.37,0,0,1,487.3279,233.0075Zm21.3926-57.6864a5.9306,5.9306,0,0,1-4.549-1.0643l-15.1288,2.6677-1.4628-8.2959-5.6131.99-1.4767-8.3748,5.6131-.99-1.4377-8.1534,10.3252-1.8206-.74-4.1944a1.4173,1.4173,0,0,1,1.15-1.6418l15.3558-2.7077a1.4154,1.4154,0,0,1,1.64,1.148l.74,4.1964,11.4414-2.0175,1.6641,9.4375-1.1088.1955,2.713,15.3865-15.2145,2.6828A5.93,5.93,0,0,1,508.7205,175.3211ZM540.52,191.5333l-15.4027,2.7224a2.1267,2.1267,0,0,1-2.4636-1.7251l-1.6778-9.5154a2.1265,2.1265,0,0,1,1.725-2.4636l15.4026-2.7224a2.1268,2.1268,0,0,1,2.4637,1.7251l1.6778,9.5154A2.1265,2.1265,0,0,1,540.52,191.5333ZM567.476,173.12a5.9373,5.9373,0,0,1-8.46,1.4917L543.8874,177.28l-1.4628-8.2959-5.6131.99-1.4766-8.3748,5.6131-.99-1.4377-8.1533,10.3252-1.8206-.74-4.1944a1.4172,1.4172,0,0,1,1.15-1.6418l15.3557-2.7077a1.4153,1.4153,0,0,1,1.6395,1.148l.74,4.1963,11.4414-2.0174,1.6642,9.4375-1.1089.1955,2.7131,15.3865Zm20.47-56.9049-5.6131.99-1.4767-8.3748,5.6243-1.0032-1.4376-8.1533L595.34,97.8582l-3.2515-18.5463a2.1265,2.1265,0,0,1,1.725-2.4636l13.9123-2.4424a2.1267,2.1267,0,0,1,2.4637,1.725l3.2958,18.5278,11.4694-2.0223,1.6642,9.4374-1.1089.1956,2.7018,15.4L612.997,120.352a5.9374,5.9374,0,0,1-8.46,1.4916l-15.1288,2.6677Zm34.43,57.3312a5.9375,5.9375,0,0,1-8.46,1.4917l-15.1289,2.6676-1.4627-8.2958-5.6131.99-1.4768-8.3747,5.6131-.99-1.4376-8.1533,10.3252-1.8206-.74-4.1944a1.4175,1.4175,0,0,1,1.15-1.6419l15.3558-2.7076a1.4151,1.4151,0,0,1,1.6394,1.148l.74,4.1964,14.163-2.49-1.2475-7.0745a2.1267,2.1267,0,0,1,1.7251-2.4636l12.5608-2.2148a2.1268,2.1268,0,0,1,2.4637,1.7251l1.6778,9.5154a2.1266,2.1266,0,0,1-1.7251,2.4636l-17.37,3.0941.8578,4.8651-1.1088.1956,2.713,15.3864Zm25.7909,22.4445a7.37,7.37,0,1,1,7.37-7.37A7.37,7.37,0,0,1,648.1669,195.9912Zm29.1091-22.0655a5.9375,5.9375,0,0,1-8.46,1.4916l-15.1288,2.6677-1.4628-8.2959-5.6131.99-1.4767-8.3748,5.6131-.99L649.31,153.261l10.3252-1.8206-.74-4.1943a1.4172,1.4172,0,0,1,1.15-1.6419l15.3557-2.7076a1.4151,1.4151,0,0,1,1.6395,1.148l.74,4.1963,11.4415-2.0174,1.6641,9.4375-1.1089.1955,2.713,15.3864Z"/></svg>