G04 #@! TF.GenerationSoftware,KiCad,Pcbnew,(5.1.6-0-10_14)*
G04 #@! TF.CreationDate,2020-08-27T09:40:30+09:00*
G04 #@! TF.ProjectId,reviung39,72657669-756e-4673-9339-2e6b69636164,2.0*
G04 #@! TF.SameCoordinates,Original*
G04 #@! TF.FileFunction,Profile,NP*
%FSLAX46Y46*%
G04 Gerber Fmt 4.6, Leading zero omitted, Abs format (unit mm)*
G04 Created by KiCad (PCBNEW (5.1.6-0-10_14)) date 2020-08-27 09:40:30*
%MOMM*%
%LPD*%
G01*
G04 APERTURE LIST*
G04 #@! TA.AperFunction,Profile*
%ADD10C,0.100000*%
G04 #@! TD*
G04 APERTURE END LIST*
D10*
X129799273Y-50940608D02*
X127060000Y-66480000D01*
X179309213Y-58586161D02*
X130957750Y-50129399D01*
X258568542Y-58586161D02*
X179309213Y-58586161D01*
X130957750Y-50129399D02*
X130856158Y-50116727D01*
X130856158Y-50116727D02*
X130755740Y-50114409D01*
X130755740Y-50114409D02*
X130608589Y-50129450D01*
X130608589Y-50129450D02*
X130467354Y-50165491D01*
X130467354Y-50165491D02*
X130334002Y-50221155D01*
X130334002Y-50221155D02*
X130210498Y-50295065D01*
X130210498Y-50295065D02*
X130098807Y-50385847D01*
X130098807Y-50385847D02*
X130000895Y-50492122D01*
X130000895Y-50492122D02*
X129918728Y-50612516D01*
X129918728Y-50612516D02*
X129854270Y-50745652D01*
X129854270Y-50745652D02*
X129822108Y-50840808D01*
X129822108Y-50840808D02*
X129799273Y-50940608D01*
X112197307Y-64849464D02*
X112076228Y-64820017D01*
X112076228Y-64820017D02*
X111961058Y-64776323D01*
X111961058Y-64776323D02*
X111852895Y-64719249D01*
X111852895Y-64719249D02*
X111752834Y-64649662D01*
X111752834Y-64649662D02*
X111661974Y-64568428D01*
X111661974Y-64568428D02*
X111581412Y-64476414D01*
X111581412Y-64476414D02*
X111512245Y-64374487D01*
X111512245Y-64374487D02*
X111455570Y-64263514D01*
X94260214Y-149851447D02*
X94309680Y-149959410D01*
X94309680Y-149959410D02*
X94370894Y-150059726D01*
X94370894Y-150059726D02*
X94442951Y-150151585D01*
X94442951Y-150151585D02*
X94524947Y-150234176D01*
X94524947Y-150234176D02*
X94615978Y-150306688D01*
X94615978Y-150306688D02*
X94715139Y-150368310D01*
X94715139Y-150368310D02*
X94821526Y-150418233D01*
X94821526Y-150418233D02*
X94934235Y-150455646D01*
X86468894Y-129560982D02*
X94260214Y-149851447D01*
X84190553Y-127682204D02*
X84382794Y-127722705D01*
X84382794Y-127722705D02*
X84570546Y-127775241D01*
X84570546Y-127775241D02*
X84753347Y-127839430D01*
X84753347Y-127839430D02*
X84930734Y-127914892D01*
X84930734Y-127914892D02*
X85102245Y-128001246D01*
X85102245Y-128001246D02*
X85267418Y-128098110D01*
X85267418Y-128098110D02*
X85425791Y-128205103D01*
X85425791Y-128205103D02*
X85576902Y-128321845D01*
X85576902Y-128321845D02*
X85720289Y-128447954D01*
X85720289Y-128447954D02*
X85855489Y-128583048D01*
X85855489Y-128583048D02*
X85982041Y-128726748D01*
X85982041Y-128726748D02*
X86099481Y-128878671D01*
X86099481Y-128878671D02*
X86207349Y-129038437D01*
X86207349Y-129038437D02*
X86305182Y-129205665D01*
X86305182Y-129205665D02*
X86392517Y-129379974D01*
X86392517Y-129379974D02*
X86468894Y-129560982D01*
X49283964Y-121510934D02*
X84190553Y-127682204D01*
X48518866Y-121522683D02*
X48637466Y-121501381D01*
X48637466Y-121501381D02*
X48756896Y-121487282D01*
X48756896Y-121487282D02*
X48876829Y-121480390D01*
X48876829Y-121480390D02*
X48996938Y-121480710D01*
X48996938Y-121480710D02*
X49116896Y-121488247D01*
X49116896Y-121488247D02*
X49236378Y-121503006D01*
X49236378Y-121503006D02*
X49283964Y-121510934D01*
X40057782Y-123306981D02*
X48518866Y-121522683D01*
X39298392Y-123319743D02*
X39416737Y-123336943D01*
X39416737Y-123336943D02*
X39535665Y-123347026D01*
X39535665Y-123347026D02*
X39654856Y-123349998D01*
X39654856Y-123349998D02*
X39773992Y-123345864D01*
X39773992Y-123345864D02*
X39892753Y-123334629D01*
X39892753Y-123334629D02*
X40010820Y-123316298D01*
X40010820Y-123316298D02*
X40057782Y-123306981D01*
X20490291Y-120009241D02*
X39298392Y-123319743D01*
X18056178Y-116532244D02*
X18033127Y-116685030D01*
X18033127Y-116685030D02*
X18018002Y-116837156D01*
X18018002Y-116837156D02*
X18010650Y-116988404D01*
X18010650Y-116988404D02*
X18010918Y-117138554D01*
X18010918Y-117138554D02*
X18018652Y-117287388D01*
X18018652Y-117287388D02*
X18033699Y-117434688D01*
X18033699Y-117434688D02*
X18055906Y-117580234D01*
X18055906Y-117580234D02*
X18085121Y-117723807D01*
X18085121Y-117723807D02*
X18121189Y-117865190D01*
X18121189Y-117865190D02*
X18163958Y-118004163D01*
X18163958Y-118004163D02*
X18213275Y-118140507D01*
X18213275Y-118140507D02*
X18268987Y-118274005D01*
X18268987Y-118274005D02*
X18330940Y-118404436D01*
X18330940Y-118404436D02*
X18398981Y-118531583D01*
X18398981Y-118531583D02*
X18472958Y-118655227D01*
X18472958Y-118655227D02*
X18552717Y-118775149D01*
X18552717Y-118775149D02*
X18638104Y-118891130D01*
X18638104Y-118891130D02*
X18728968Y-119002952D01*
X18728968Y-119002952D02*
X18825155Y-119110395D01*
X18825155Y-119110395D02*
X18926511Y-119213242D01*
X18926511Y-119213242D02*
X19032884Y-119311274D01*
X19032884Y-119311274D02*
X19144120Y-119404271D01*
X19144120Y-119404271D02*
X19260067Y-119492015D01*
X19260067Y-119492015D02*
X19380571Y-119574287D01*
X19380571Y-119574287D02*
X19505479Y-119650869D01*
X19505479Y-119650869D02*
X19634638Y-119721542D01*
X19634638Y-119721542D02*
X19767895Y-119786087D01*
X19767895Y-119786087D02*
X19905097Y-119844286D01*
X19905097Y-119844286D02*
X20046091Y-119895919D01*
X20046091Y-119895919D02*
X20190723Y-119940769D01*
X20190723Y-119940769D02*
X20338841Y-119978615D01*
X20338841Y-119978615D02*
X20490291Y-120009241D01*
X27865284Y-61063621D02*
X18056178Y-116532244D01*
X30819453Y-58586037D02*
X30683655Y-58589076D01*
X30683655Y-58589076D02*
X30549231Y-58598116D01*
X30549231Y-58598116D02*
X30416323Y-58613036D01*
X30416323Y-58613036D02*
X30285074Y-58633715D01*
X30285074Y-58633715D02*
X30155628Y-58660035D01*
X30155628Y-58660035D02*
X30028128Y-58691874D01*
X30028128Y-58691874D02*
X29902718Y-58729112D01*
X29902718Y-58729112D02*
X29779539Y-58771630D01*
X29779539Y-58771630D02*
X29658736Y-58819308D01*
X29658736Y-58819308D02*
X29540452Y-58872024D01*
X29540452Y-58872024D02*
X29424829Y-58929660D01*
X29424829Y-58929660D02*
X29312012Y-58992094D01*
X29312012Y-58992094D02*
X29202143Y-59059208D01*
X29202143Y-59059208D02*
X29095366Y-59130880D01*
X29095366Y-59130880D02*
X28991823Y-59206991D01*
X28991823Y-59206991D02*
X28891659Y-59287421D01*
X28891659Y-59287421D02*
X28795015Y-59372049D01*
X28795015Y-59372049D02*
X28702036Y-59460756D01*
X28702036Y-59460756D02*
X28612864Y-59553420D01*
X28612864Y-59553420D02*
X28527644Y-59649923D01*
X28527644Y-59649923D02*
X28446517Y-59750145D01*
X28446517Y-59750145D02*
X28369627Y-59853964D01*
X28369627Y-59853964D02*
X28297118Y-59961261D01*
X28297118Y-59961261D02*
X28229133Y-60071915D01*
X28229133Y-60071915D02*
X28165814Y-60185808D01*
X28165814Y-60185808D02*
X28107305Y-60302818D01*
X28107305Y-60302818D02*
X28053750Y-60422825D01*
X28053750Y-60422825D02*
X28005291Y-60545710D01*
X28005291Y-60545710D02*
X27962072Y-60671352D01*
X27962072Y-60671352D02*
X27924235Y-60799631D01*
X27924235Y-60799631D02*
X27891925Y-60930427D01*
X27891925Y-60930427D02*
X27865284Y-61063621D01*
X91926937Y-58586161D02*
X30819453Y-58586037D01*
X109883055Y-61767746D02*
X91926937Y-58586161D01*
X110625735Y-62353863D02*
X110568996Y-62242782D01*
X110568996Y-62242782D02*
X110499743Y-62140769D01*
X110499743Y-62140769D02*
X110419075Y-62048691D01*
X110419075Y-62048691D02*
X110328094Y-61967418D01*
X110328094Y-61967418D02*
X110227901Y-61897818D01*
X110227901Y-61897818D02*
X110119596Y-61840760D01*
X110119596Y-61840760D02*
X110004280Y-61797113D01*
X110004280Y-61797113D02*
X109883055Y-61767746D01*
X111455570Y-64263514D02*
X110625735Y-62353863D01*
X261522959Y-61065182D02*
X261496371Y-60931926D01*
X261496371Y-60931926D02*
X261464109Y-60801067D01*
X261464109Y-60801067D02*
X261426316Y-60672724D01*
X261426316Y-60672724D02*
X261383135Y-60547019D01*
X261383135Y-60547019D02*
X261334710Y-60424071D01*
X261334710Y-60424071D02*
X261281184Y-60304000D01*
X261281184Y-60304000D02*
X261222700Y-60186927D01*
X261222700Y-60186927D02*
X261159401Y-60072972D01*
X261159401Y-60072972D02*
X261091431Y-59962256D01*
X261091431Y-59962256D02*
X261018934Y-59854898D01*
X261018934Y-59854898D02*
X260942052Y-59751019D01*
X260942052Y-59751019D02*
X260860929Y-59650739D01*
X260860929Y-59650739D02*
X260775707Y-59554179D01*
X260775707Y-59554179D02*
X260686532Y-59461458D01*
X260686532Y-59461458D02*
X260593545Y-59372697D01*
X260593545Y-59372697D02*
X260496890Y-59288016D01*
X260496890Y-59288016D02*
X260396711Y-59207535D01*
X260396711Y-59207535D02*
X260293151Y-59131376D01*
X260293151Y-59131376D02*
X260186353Y-59059657D01*
X260186353Y-59059657D02*
X260076460Y-58992499D01*
X260076460Y-58992499D02*
X259963616Y-58930023D01*
X259963616Y-58930023D02*
X259847964Y-58872349D01*
X259847964Y-58872349D02*
X259729647Y-58819597D01*
X259729647Y-58819597D02*
X259608809Y-58771887D01*
X259608809Y-58771887D02*
X259485594Y-58729339D01*
X259485594Y-58729339D02*
X259360143Y-58692075D01*
X259360143Y-58692075D02*
X259232602Y-58660213D01*
X259232602Y-58660213D02*
X259103112Y-58633875D01*
X259103112Y-58633875D02*
X258971818Y-58613180D01*
X258971818Y-58613180D02*
X258838863Y-58598249D01*
X258838863Y-58598249D02*
X258704389Y-58589203D01*
X258704389Y-58589203D02*
X258568542Y-58586161D01*
X271304250Y-116533869D02*
X261522959Y-61065182D01*
X268870324Y-120009351D02*
X269021702Y-119978718D01*
X269021702Y-119978718D02*
X269169751Y-119940870D01*
X269169751Y-119940870D02*
X269314317Y-119896026D01*
X269314317Y-119896026D02*
X269455248Y-119844404D01*
X269455248Y-119844404D02*
X269592390Y-119786222D01*
X269592390Y-119786222D02*
X269725591Y-119721699D01*
X269725591Y-119721699D02*
X269854697Y-119651053D01*
X269854697Y-119651053D02*
X269979556Y-119574502D01*
X269979556Y-119574502D02*
X270100015Y-119492266D01*
X270100015Y-119492266D02*
X270215920Y-119404562D01*
X270215920Y-119404562D02*
X270327119Y-119311609D01*
X270327119Y-119311609D02*
X270433459Y-119213625D01*
X270433459Y-119213625D02*
X270534786Y-119110829D01*
X270534786Y-119110829D02*
X270630949Y-119003439D01*
X270630949Y-119003439D02*
X270721793Y-118891674D01*
X270721793Y-118891674D02*
X270807166Y-118775751D01*
X270807166Y-118775751D02*
X270886915Y-118655890D01*
X270886915Y-118655890D02*
X270960887Y-118532309D01*
X270960887Y-118532309D02*
X271028929Y-118405226D01*
X271028929Y-118405226D02*
X271090889Y-118274860D01*
X271090889Y-118274860D02*
X271146612Y-118141428D01*
X271146612Y-118141428D02*
X271195946Y-118005150D01*
X271195946Y-118005150D02*
X271238739Y-117866245D01*
X271238739Y-117866245D02*
X271274836Y-117724929D01*
X271274836Y-117724929D02*
X271304086Y-117581422D01*
X271304086Y-117581422D02*
X271326336Y-117435943D01*
X271326336Y-117435943D02*
X271341431Y-117288709D01*
X271341431Y-117288709D02*
X271349220Y-117139939D01*
X271349220Y-117139939D02*
X271349549Y-116989852D01*
X271349549Y-116989852D02*
X271342266Y-116838665D01*
X271342266Y-116838665D02*
X271327217Y-116686598D01*
X271327217Y-116686598D02*
X271304250Y-116533869D01*
X250080951Y-123319451D02*
X268870324Y-120009351D01*
X249318996Y-123306260D02*
X249437078Y-123327624D01*
X249437078Y-123327624D02*
X249555994Y-123341848D01*
X249555994Y-123341848D02*
X249675421Y-123348924D01*
X249675421Y-123348924D02*
X249795036Y-123348848D01*
X249795036Y-123348848D02*
X249914516Y-123341614D01*
X249914516Y-123341614D02*
X250033541Y-123327217D01*
X250033541Y-123327217D02*
X250080951Y-123319451D01*
X240901882Y-121521028D02*
X249318996Y-123306260D01*
X240135505Y-121508622D02*
X240254917Y-121491008D01*
X240254917Y-121491008D02*
X240374935Y-121480643D01*
X240374935Y-121480643D02*
X240495229Y-121477523D01*
X240495229Y-121477523D02*
X240615472Y-121481641D01*
X240615472Y-121481641D02*
X240735336Y-121492993D01*
X240735336Y-121492993D02*
X240854491Y-121511573D01*
X240854491Y-121511573D02*
X240901882Y-121521028D01*
X205196586Y-127682411D02*
X240135505Y-121508622D01*
X202918261Y-129560510D02*
X202994669Y-129379552D01*
X202994669Y-129379552D02*
X203082032Y-129205294D01*
X203082032Y-129205294D02*
X203179888Y-129038117D01*
X203179888Y-129038117D02*
X203287773Y-128878401D01*
X203287773Y-128878401D02*
X203405226Y-128726527D01*
X203405226Y-128726527D02*
X203531786Y-128582876D01*
X203531786Y-128582876D02*
X203666990Y-128447829D01*
X203666990Y-128447829D02*
X203810376Y-128321766D01*
X203810376Y-128321766D02*
X203961482Y-128205069D01*
X203961482Y-128205069D02*
X204119846Y-128098118D01*
X204119846Y-128098118D02*
X204285007Y-128001295D01*
X204285007Y-128001295D02*
X204456502Y-127914979D01*
X204456502Y-127914979D02*
X204633869Y-127839551D01*
X204633869Y-127839551D02*
X204816647Y-127775394D01*
X204816647Y-127775394D02*
X205004373Y-127722887D01*
X205004373Y-127722887D02*
X205196586Y-127682411D01*
X195120863Y-149851106D02*
X202918261Y-129560510D01*
X194446994Y-150455922D02*
X194559726Y-150418442D01*
X194559726Y-150418442D02*
X194666125Y-150368447D01*
X194666125Y-150368447D02*
X194765287Y-150306747D01*
X194765287Y-150306747D02*
X194856306Y-150234155D01*
X194856306Y-150234155D02*
X194938278Y-150151483D01*
X194938278Y-150151483D02*
X195010298Y-150059543D01*
X195010298Y-150059543D02*
X195071461Y-149959146D01*
X195071461Y-149959146D02*
X195120863Y-149851106D01*
X169307240Y-157186969D02*
X194446994Y-150455922D01*
X120120578Y-157186969D02*
X169307240Y-157186969D01*
X94934235Y-150455646D02*
X120120578Y-157186969D01*
X125899772Y-67290892D02*
X112197307Y-64849464D01*
X127060000Y-66480000D02*
X127037130Y-66579920D01*
X127037130Y-66579920D02*
X127004913Y-66675182D01*
X127004913Y-66675182D02*
X126940338Y-66808448D01*
X126940338Y-66808448D02*
X126858020Y-66928934D01*
X126858020Y-66928934D02*
X126759931Y-67035260D01*
X126759931Y-67035260D02*
X126648045Y-67126049D01*
X126648045Y-67126049D02*
X126524336Y-67199920D01*
X126524336Y-67199920D02*
X126390776Y-67255495D01*
X126390776Y-67255495D02*
X126249339Y-67291393D01*
X126249339Y-67291393D02*
X126101998Y-67306237D01*
X126101998Y-67306237D02*
X126001466Y-67303754D01*
X126001466Y-67303754D02*
X125899772Y-67290892D01*
M02*
