M48
; DRILL file {KiCad (5.1.6-0-10_14)} date Thursday, August 27, 2020 at 09:40:33 AM
; FORMAT={-:-/ absolute / inch / decimal}
; #@! TF.CreationDate,2020-08-27T09:40:33+09:00
; #@! TF.GenerationSoftware,Kicad,Pcbnew,(5.1.6-0-10_14)
; #@! TF.FileFunction,NonPlated,1,2,NPTH
FMAT,2
INCH
T1C0.0689
T2C0.0866
T3C0.1181
T4C0.1200
T5C0.1570
T6C0.1890
%
G90
G05
T1
X5.4956Y-5.7098
X5.8956Y-5.7098
X1.8121Y-4.2747
X2.206Y-4.3442
X8.2979Y-3.5997
X8.6918Y-3.5302
X6.2357Y-4.865
X6.6296Y-4.7956
X1.9412Y-3.5365
X2.3352Y-3.606
X9.0589Y-3.606
X9.4529Y-3.5365
X6.6897Y-3.1217
X7.0836Y-3.0523
X9.9519Y-4.3505
X10.3458Y-4.281
X9.6908Y-2.8733
X10.0848Y-2.8039
X2.0735Y-2.7995
X2.4674Y-2.869
X8.4274Y-4.3387
X8.8214Y-4.2692
X6.9495Y-4.5989
X7.3434Y-4.5294
X1.3101Y-2.8039
X1.704Y-2.8733
X1.0483Y-4.281
X1.4422Y-4.3505
X2.8353Y-2.7932
X3.2292Y-2.8627
X1.179Y-3.5413
X1.5729Y-3.6107
X4.0515Y-4.5302
X4.4454Y-4.5997
X5.9751Y-3.3887
X6.369Y-3.3192
X8.1668Y-2.8619
X8.5607Y-2.7924
X4.1818Y-3.7928
X4.5757Y-3.8623
X8.9294Y-2.867
X9.3233Y-2.7976
X6.8192Y-3.8607
X7.2131Y-3.7913
X7.533Y-3.5942
X7.9269Y-3.5247
X4.766Y-4.7964
X5.16Y-4.8658
X3.5979Y-2.7877
X3.9918Y-2.8572
X3.4672Y-3.5259
X3.8611Y-3.5954
X6.8951Y-5.6316
X7.2814Y-5.5281
X5.0278Y-3.3192
X5.4218Y-3.3887
X3.3367Y-4.2644
X3.7306Y-4.3339
X2.705Y-3.5302
X3.0989Y-3.5997
X7.4034Y-2.8564
X7.7974Y-2.7869
X6.1038Y-4.1261
X6.4977Y-4.0566
X9.8223Y-3.6107
X10.2163Y-3.5413
X4.3125Y-3.055
X4.7064Y-3.1245
X4.1106Y-5.5288
X4.497Y-5.6324
X2.5735Y-4.2704
X2.9674Y-4.3398
X7.6641Y-4.3343
X8.058Y-4.2649
X9.1893Y-4.345
X9.5832Y-4.2755
X4.8963Y-4.0574
X5.2903Y-4.1269
T2
X5.0941Y-2.8291
X6.572Y-2.3394
X5.5366Y-2.9079
T3
X8.4593Y-4.2315
X8.6882Y-4.0896
X6.9814Y-4.4917
X7.2102Y-4.3498
X1.3767Y-2.7141
X1.6403Y-2.659
X1.1149Y-4.1912
X1.3785Y-4.1362
X2.9019Y-2.7034
X3.1655Y-2.6484
X1.2456Y-3.4515
X1.5092Y-3.3964
X4.1181Y-4.4404
X4.3816Y-4.3854
X6.007Y-3.2815
X6.2358Y-3.1396
X8.1987Y-2.7547
X8.4275Y-2.6128
X4.2484Y-3.703
X4.512Y-3.648
X8.9613Y-2.7598
X9.1901Y-2.618
X6.8511Y-3.7536
X7.0799Y-3.6117
X7.5648Y-3.487
X7.7937Y-3.3451
X4.8326Y-4.7066
X5.0962Y-4.6515
X3.6645Y-2.6979
X3.9281Y-2.6428
X3.5338Y-3.4361
X3.7974Y-3.381
X6.9175Y-5.5221
X7.1331Y-5.3608
X5.0944Y-3.2294
X5.358Y-3.1743
X3.4033Y-4.1746
X3.6669Y-4.1196
X2.7716Y-3.4404
X3.0352Y-3.3854
X7.4353Y-2.7492
X7.6641Y-2.6073
X6.1357Y-4.0189
X6.3645Y-3.877
X9.8542Y-3.5036
X10.083Y-3.3617
X4.3791Y-2.9652
X4.6427Y-2.9102
X4.1848Y-5.4452
X4.4521Y-5.4133
X2.6401Y-4.1806
X2.9037Y-4.1255
X7.6959Y-4.2272
X7.9248Y-4.0853
X9.2211Y-4.2378
X9.45Y-4.0959
X4.963Y-3.9676
X5.2265Y-3.9125
X5.5456Y-5.6098
X5.7956Y-5.5098
X1.8787Y-4.1849
X2.1423Y-4.1299
X8.3298Y-3.4925
X8.5586Y-3.3506
X6.2676Y-4.7579
X6.4964Y-4.616
X2.0078Y-3.4467
X2.2714Y-3.3917
X9.0908Y-3.4988
X9.3197Y-3.3569
X6.7215Y-3.0146
X6.9504Y-2.8727
X9.9837Y-4.2433
X10.2126Y-4.1014
X9.7227Y-2.7661
X9.9515Y-2.6243
X2.1401Y-2.7097
X2.4037Y-2.6547
T4
X5.2256Y-5.9848
X6.1656Y-5.9848
T5
X7.0883Y-5.5799
X5.2248Y-3.3539
X3.5336Y-4.2991
X2.902Y-3.565
X7.6004Y-2.8217
X6.3008Y-4.0913
X10.0193Y-3.576
X4.5094Y-3.0898
X4.3038Y-5.5806
X2.7705Y-4.3051
X7.861Y-4.2996
X9.3862Y-4.3102
X5.0933Y-4.0921
X5.2256Y-5.3848
X5.6956Y-5.7098
X6.1656Y-5.3848
X2.0091Y-4.3094
X8.4949Y-3.565
X6.4327Y-4.8303
X2.1382Y-3.5713
X9.2559Y-3.5713
X6.8866Y-3.087
X10.1488Y-4.3157
X9.8878Y-2.8386
X2.2705Y-2.8343
X8.6244Y-4.3039
X7.1465Y-4.5642
X1.5071Y-2.8386
X1.2453Y-4.3157
X3.0323Y-2.828
X1.376Y-3.576
X4.2484Y-4.565
X6.172Y-3.3539
X8.3638Y-2.8272
X4.3787Y-3.8276
X9.1264Y-2.8323
X7.0161Y-3.826
X7.7299Y-3.5594
X4.963Y-4.8311
X3.7949Y-2.8224
X3.6642Y-3.5606
T6
X1.5799Y-4.537
X3.2441Y-3.7835
X9.8157Y-4.537
X1.8508Y-3.0547
X8.1516Y-3.7831
X3.8886Y-4.9815
X6.5685Y-3.4441
X7.5024Y-4.9815
X5.6953Y-5.0996
X9.5461Y-3.0543
X4.8276Y-3.4441
T0
M30
