<svg id="cut" xmlns="http://www.w3.org/2000/svg" viewBox="0 0 610.628 303.514"><defs><style>.cls-1{font-size:18px;font-family:Arial-BoldMT, Arial;font-weight:700;}</style></defs><text class="cls-1" transform="translate(0 270.502)">W : 214.325 mm<tspan x="0" y="24">H : 107.073 mm</tspan></text><path d="M622.535,191.756l-27.6-156.565a8.5,8.5,0,0,0-8.375-7.027H419.8L416.835,45a4.252,4.252,0,0,1-4.926,3.449L392.368,45a4.251,4.251,0,0,1-3.449-4.925l2.88-16.334-21.317-3.728-1.014,5.558a2.844,2.844,0,0,1-3.3,2.307L285.236,13.605a2.844,2.844,0,0,1-2.307-3.295l.993-5.439-3.883-.679a2.834,2.834,0,0,0-3.284,2.3L268.99,50.54a2.835,2.835,0,0,1-3.289,2.3l-38.842-6.921a2.833,2.833,0,0,1-2.1-1.661l-2.352-5.413a2.835,2.835,0,0,0-2.106-1.661l-50.9-9.019H51.339a8.5,8.5,0,0,0-8.374,7.023l-27.7,156.55a8.5,8.5,0,0,0,6.9,9.856l53.963,9.38a8.471,8.471,0,0,0,1.713.122l28.705-.869a8.513,8.513,0,0,1,3.308.562l52.57,20.2a8.5,8.5,0,0,1,4.671,4.375l24.756,53.642a2.834,2.834,0,0,0,1.911,1.712l63.419,16.944H380.664l63.469-17.007a2.829,2.829,0,0,0,1.91-1.714L470.8,235.36a8.508,8.508,0,0,1,4.669-4.37l52.55-20.2a8.478,8.478,0,0,1,3.309-.562l28.7.871a8.486,8.486,0,0,0,1.714-.122l53.888-9.368A8.505,8.505,0,0,0,622.535,191.756ZM547.263,67.686l1.1-7.4a5.361,5.361,0,0,1,9.162-3.118l2.788,2.339a8.472,8.472,0,0,1,3.31-1.591l1.444-8.189a5.377,5.377,0,0,1,10.682.889c0,.319-.074.936-.074.936l-1.391,7.887,5.679,0a4.247,4.247,0,0,1,.038,8.494H577.2l1.743,9.893a2.835,2.835,0,0,1-2.3,3.284l-14.883,2.624a2.835,2.835,0,0,1-3.284-2.3l-1.51-8.564h-5.554a4.228,4.228,0,0,1-4.144-5.178Zm-6.1,7a7.37,7.37,0,1,1-7.37,7.37A7.37,7.37,0,0,1,541.168,74.682ZM437.458,66.9l1.1-7.4a5.361,5.361,0,0,1,9.162-3.118l2.789,2.339a8.468,8.468,0,0,1,3.309-1.591l1.444-8.189a5.377,5.377,0,0,1,10.682.889c0,.319-.074.936-.074.936l-1.39,7.887,5.678,0a4.247,4.247,0,0,1,.038,8.494h-2.809l1.742,9.893a2.835,2.835,0,0,1-2.3,3.284L451.95,82.94a2.835,2.835,0,0,1-3.284-2.3l-1.51-8.565H441.6a4.231,4.231,0,0,1-4.145-5.177Zm-9.375,64.075a4.247,4.247,0,0,1,.038,8.493h-2.81l1.742,9.893a2.834,2.834,0,0,1-2.3,3.284l-14.884,2.624a2.835,2.835,0,0,1-3.284-2.3l-1.51-8.564h-5.553a4.228,4.228,0,0,1-4.144-5.178l1.1-7.4a5.361,5.361,0,0,1,9.163-3.118l2.788,2.34a8.453,8.453,0,0,1,3.31-1.592l1.443-8.189a5.378,5.378,0,0,1,10.683.889c0,.319-.075.936-.075.936l-1.39,7.887ZM386,86.046l1.1-7.4a5.361,5.361,0,0,1,9.163-3.119l2.788,2.34a8.453,8.453,0,0,1,3.31-1.592l1.444-8.188a5.377,5.377,0,0,1,10.682.888c0,.32-.075.937-.075.937l-1.39,7.886h5.679a4.247,4.247,0,0,1,.038,8.493h-2.81l1.742,9.892a2.834,2.834,0,0,1-2.3,3.284l-14.884,2.624a2.833,2.833,0,0,1-3.283-2.3L395.7,91.224h-5.553A4.228,4.228,0,0,1,386,86.046ZM381.871,27.77a2.835,2.835,0,1,1-2.835,2.835A2.835,2.835,0,0,1,381.871,27.77Zm-.25,75.037a7.37,7.37,0,1,1-7.37,7.37A7.371,7.371,0,0,1,381.621,102.807Zm-5,47.314a4.247,4.247,0,0,1,.038,8.494h-2.81l1.742,9.892a2.834,2.834,0,0,1-2.3,3.284l-14.883,2.625a2.836,2.836,0,0,1-3.284-2.3l-1.51-8.564h-5.554a4.252,4.252,0,0,1-4.252-4.252,4.2,4.2,0,0,1,.108-.925l1.1-7.4a5.36,5.36,0,0,1,9.162-3.118l2.788,2.339a8.474,8.474,0,0,1,3.31-1.592l1.444-8.188a5.377,5.377,0,0,1,10.682.888c0,.32-.074.937-.074.937l-1.391,7.886Zm-9.377-53.18a4.247,4.247,0,0,1,.038,8.494h-2.81l1.742,9.893a2.834,2.834,0,0,1-2.3,3.284l-14.883,2.624a2.835,2.835,0,0,1-3.284-2.3l-1.51-8.564h-5.554a4.228,4.228,0,0,1-4.144-5.178l1.1-7.4a5.361,5.361,0,0,1,9.162-3.118l2.788,2.339a8.472,8.472,0,0,1,3.31-1.591l1.444-8.189a5.377,5.377,0,0,1,10.682.889c0,.319-.074.936-.074.936l-1.391,7.887ZM275.423,52.206l.488-2.773a2.845,2.845,0,0,1,3.3-2.307L360.143,61.4a2.844,2.844,0,0,1,2.307,3.295l-.489,2.772a2.843,2.843,0,0,1-3.294,2.307L277.73,55.5A2.844,2.844,0,0,1,275.423,52.206Zm50.884,177.075a7.371,7.371,0,1,1-7.371-7.37A7.37,7.37,0,0,1,326.307,229.281ZM310.158,71.55a2.835,2.835,0,1,1-2.835-2.834A2.835,2.835,0,0,1,310.158,71.55Zm-34.713-8.5a2.835,2.835,0,1,1-2.835,2.834A2.835,2.835,0,0,1,275.445,63.047ZM266.479,99.6a4.215,4.215,0,0,1,.418-.833l3.569-6.58a5.362,5.362,0,0,1,9.677.2l1.82,3.153a8.463,8.463,0,0,1,3.654-.364l4.158-7.2a5.377,5.377,0,0,1,9.733,4.488c-.109.3-.39.855-.39.855l-4,6.935,5.337,1.941a4.247,4.247,0,0,1-2.869,8l-2.64-.962-1.746,9.892a2.834,2.834,0,0,1-3.284,2.3L275.028,118.8a2.835,2.835,0,0,1-2.3-3.284l1.51-8.564-5.219-1.9A4.253,4.253,0,0,1,266.479,99.6Zm1.23,43.136a5.365,5.365,0,0,1,3.057,2.834l1.82,3.152a8.463,8.463,0,0,1,3.654-.364l4.157-7.2a5.377,5.377,0,0,1,9.734,4.488c-.109.3-.39.855-.39.855l-4,6.935,5.337,1.941a4.247,4.247,0,0,1-2.869,7.994l-2.64-.961-1.746,9.892a2.835,2.835,0,0,1-3.284,2.3l-14.884-2.624a2.835,2.835,0,0,1-2.3-3.284l1.51-8.564-5.219-1.9a4.229,4.229,0,0,1-2.123-6.283l3.569-6.579A5.368,5.368,0,0,1,267.709,142.74Zm-4.08-32.569a7.37,7.37,0,1,1-7.37-7.371A7.37,7.37,0,0,1,263.629,110.171ZM215.022,80.456a4.243,4.243,0,0,1,.418-.833l3.57-6.579a5.36,5.36,0,0,1,9.676.2l1.82,3.152a8.463,8.463,0,0,1,3.654-.364l4.158-7.2a5.377,5.377,0,0,1,9.734,4.488c-.11.3-.39.855-.39.855l-4,6.935L249,83.054a4.247,4.247,0,0,1-2.87,7.994l-2.64-.962-1.746,9.892a2.835,2.835,0,0,1-3.284,2.3l-14.883-2.625a2.834,2.834,0,0,1-2.3-3.283l1.51-8.565-5.218-1.9A4.252,4.252,0,0,1,215.022,80.456Zm-9.377,53.18a4.215,4.215,0,0,1,.418-.833l3.57-6.58a5.36,5.36,0,0,1,9.676.2l1.82,3.152a8.463,8.463,0,0,1,3.654-.364l4.158-7.2a5.377,5.377,0,0,1,9.734,4.488c-.11.3-.39.855-.39.855l-4,6.935,5.337,1.942a4.247,4.247,0,0,1-2.87,7.994l-2.64-.962-1.746,9.892a2.834,2.834,0,0,1-3.284,2.3L214.2,152.833a2.835,2.835,0,0,1-2.3-3.284l1.51-8.564-5.218-1.9A4.253,4.253,0,0,1,205.645,133.636Zm-42.086-72.33a4.215,4.215,0,0,1,.418-.833l3.569-6.58a5.361,5.361,0,0,1,9.676.2l1.82,3.152a8.465,8.465,0,0,1,3.655-.363l4.157-7.2a5.377,5.377,0,0,1,9.734,4.488c-.109.3-.39.855-.39.855l-4,6.935,5.337,1.941a4.247,4.247,0,0,1-2.869,7.995l-2.64-.962-1.747,9.892a2.833,2.833,0,0,1-3.283,2.3L172.108,80.5a2.834,2.834,0,0,1-2.3-3.284l1.51-8.564-5.219-1.9A4.251,4.251,0,0,1,163.559,61.306Zm-6.836,58.629a4.229,4.229,0,0,1-2.123-6.283l3.569-6.579a5.36,5.36,0,0,1,9.676.2l1.82,3.152a8.465,8.465,0,0,1,3.655-.364l4.157-7.2a5.377,5.377,0,0,1,9.734,4.488c-.109.3-.39.854-.39.854l-4,6.936,5.337,1.941a4.247,4.247,0,0,1-2.869,7.994l-2.64-.962-1.747,9.892a2.834,2.834,0,0,1-3.283,2.3l-14.884-2.625a2.833,2.833,0,0,1-2.3-3.283l1.51-8.565ZM96.742,74.716a7.37,7.37,0,1,1-7.37,7.37A7.37,7.37,0,0,1,96.742,74.716ZM53.768,62.1a4.267,4.267,0,0,1,.417-.833l3.57-6.58a5.36,5.36,0,0,1,9.676.2l1.82,3.152a8.465,8.465,0,0,1,3.655-.364l4.157-7.2A5.377,5.377,0,0,1,86.8,54.965c-.109.3-.39.855-.39.855l-4,6.935s5.312,1.933,5.337,1.941a4.247,4.247,0,0,1-2.87,8l-2.639-.962-1.747,9.892a2.834,2.834,0,0,1-3.284,2.3L62.317,81.3a2.834,2.834,0,0,1-2.3-3.284l1.51-8.564-5.219-1.9A4.252,4.252,0,0,1,53.768,62.1Zm-9.377,53.179a4.3,4.3,0,0,1,.417-.833l3.57-6.579a5.361,5.361,0,0,1,9.676.2l1.82,3.152a8.45,8.45,0,0,1,3.655-.363l4.157-7.2a5.377,5.377,0,0,1,9.734,4.488c-.109.3-.39.855-.39.855l-4,6.935,5.337,1.941a4.242,4.242,0,0,1,2.771,3.612l17.546,3.094a2.836,2.836,0,0,1,2.3,3.284L98.272,143.22a2.835,2.835,0,0,1-3.283,2.3l-18.146-3.2a2.835,2.835,0,0,1-2.3-3.284l.128-.729L67.83,137.1h-.007L52.94,134.476a2.834,2.834,0,0,1-2.3-3.284l1.51-8.564-5.219-1.9A4.252,4.252,0,0,1,44.391,115.278ZM66.116,179.05l-2.639-.962L61.73,187.98a2.836,2.836,0,0,1-3.284,2.3l-14.883-2.625a2.834,2.834,0,0,1-2.3-3.284l1.51-8.564-5.219-1.9a4.232,4.232,0,0,1-2.124-6.283l3.57-6.58a5.36,5.36,0,0,1,9.676.2L50.5,164.4a8.465,8.465,0,0,1,3.655-.364l4.157-7.2a5.377,5.377,0,0,1,9.734,4.489c-.109.3-.39.854-.39.854l-4,6.936,5.337,1.941a4.247,4.247,0,0,1-2.87,7.994Zm11.875,16.724a7.37,7.37,0,1,1,7.37-7.37A7.37,7.37,0,0,1,77.991,195.774ZM126.425,176.1a4.249,4.249,0,0,1-5.413,2.55l-2.64-.961-1.746,9.892a2.835,2.835,0,0,1-3.284,2.3l-14.883-2.624a2.835,2.835,0,0,1-2.3-3.284l1.51-8.564-5.218-1.9a4.228,4.228,0,0,1-2.124-6.283l3.57-6.579a5.361,5.361,0,0,1,9.676.2l1.82,3.152a8.447,8.447,0,0,1,3.654-.363l4.158-7.2a5.377,5.377,0,0,1,9.734,4.488c-.11.3-.39.855-.39.855l-4,6.935,5.336,1.941A4.247,4.247,0,0,1,126.425,176.1Zm9.377-53.18a4.25,4.25,0,0,1-5.413,2.551l-2.64-.962L126,134.4a2.834,2.834,0,0,1-3.284,2.3l-14.883-2.624a2.835,2.835,0,0,1-2.3-3.284l1.51-8.564-5.218-1.9a4.228,4.228,0,0,1-2.124-6.283l3.57-6.58a5.36,5.36,0,0,1,9.676.2l1.82,3.152a8.463,8.463,0,0,1,3.654-.364l4.158-7.2a5.377,5.377,0,0,1,9.734,4.488c-.11.3-.39.855-.39.855l-4,6.935,5.336,1.942A4.246,4.246,0,0,1,135.8,122.923Zm1.622-30.207,1.4-7.948L117.213,80.9a2.834,2.834,0,0,1-2.3-3.283l1.51-8.565-5.218-1.9a4.228,4.228,0,0,1-2.124-6.283l3.57-6.579a5.36,5.36,0,0,1,9.676.2l1.82,3.152a8.463,8.463,0,0,1,3.654-.364l4.158-7.2a5.377,5.377,0,0,1,9.734,4.488c-.11.3-.39.854-.39.854l-4,6.936,5.336,1.941a4.244,4.244,0,0,1,2.677,2.984h0l1.811,8.434,14.436,2.545a2.836,2.836,0,0,1,2.3,3.284L161.152,96.9a2.835,2.835,0,0,1-3.284,2.3L139.723,96A2.834,2.834,0,0,1,137.424,92.716Zm38.484,85.541-2.64-.962L171,190.33a2.82,2.82,0,0,1,.656,2.336l-2.708,15.354a2.835,2.835,0,0,1-3.283,2.3l-18.146-3.2a2.834,2.834,0,0,1-2.3-3.284l2.707-15.354a2.836,2.836,0,0,1,2.706-2.341l1.928-11.127-4.746-1.727a4.842,4.842,0,0,1-3.175-3.707,3.743,3.743,0,0,1,.579-2.748l3.569-6.58a5.36,5.36,0,0,1,9.676.2l1.82,3.152a8.465,8.465,0,0,1,3.655-.364l4.157-7.2a5.377,5.377,0,0,1,9.734,4.488c-.109.3-.39.855-.39.855l-4,6.935,5.337,1.942a4.247,4.247,0,0,1-2.869,7.994ZM188.863,228.2a7.37,7.37,0,1,1,7.37-7.37A7.371,7.371,0,0,1,188.863,228.2Zm13.655-25.473,1.51-8.564-5.218-1.9a4.228,4.228,0,0,1-2.124-6.283l3.57-6.579a5.361,5.361,0,0,1,9.676.2l1.82,3.152a8.447,8.447,0,0,1,3.654-.363l4.158-7.2a5.377,5.377,0,0,1,9.734,4.488c-.11.3-.39.855-.39.855l-4,6.935,5.337,1.941a4.247,4.247,0,0,1-2.87,7.994l-2.64-.961-1.746,9.892a2.835,2.835,0,0,1-3.284,2.3l-14.883-2.624A2.835,2.835,0,0,1,202.518,202.729Zm45.811,68.16a4.249,4.249,0,0,1-5.614,2.069l-2.546-1.188-2.6,9.7a2.834,2.834,0,0,1-3.472,2l-14.6-3.911a2.835,2.835,0,0,1-2-3.472l2.25-8.4-5.033-2.347a4.233,4.233,0,0,1-1.568-6.444l4.13-6.243a5.36,5.36,0,0,1,9.621,1.046l1.539,3.3a8.463,8.463,0,0,1,3.672-.043l4.769-6.812a5.378,5.378,0,0,1,9.306,5.32c-.135.29-.463.817-.463.817l-4.593,6.56,5.147,2.4A4.247,4.247,0,0,1,248.329,270.889Zm-.6-64.926a4.215,4.215,0,0,1,.418-.833l3.569-6.58a5.361,5.361,0,0,1,9.677.2l1.82,3.152a8.463,8.463,0,0,1,3.654-.364l4.157-7.2a5.377,5.377,0,0,1,9.734,4.488c-.109.3-.39.855-.39.855l-4,6.935,5.337,1.942a4.247,4.247,0,0,1-2.869,7.994l-2.64-.962-1.746,9.892a2.836,2.836,0,0,1-3.284,2.3l-14.884-2.625a2.835,2.835,0,0,1-2.3-3.284l1.51-8.564-5.219-1.9A4.253,4.253,0,0,1,247.725,205.963Zm137.324,47.6a2.835,2.835,0,0,1-2.835,2.835H358.551l-.027,2.488h0a5.369,5.369,0,0,1-.074.783c-.055.315-.235.909-.235.909l-2.739,7.526,5.592.985a4.246,4.246,0,0,1,3.512,4.087h0V278.6h15.875a2.835,2.835,0,0,1,2.835,2.835v2.834a2.835,2.835,0,0,1-2.835,2.835H360.023c-.056,2.661-.119,5.25-.166,6.136a4.62,4.62,0,0,1-4.685,4.227H350.16a4.47,4.47,0,0,1-4.47-4.47v-3.141H316.546a5.354,5.354,0,0,1-9.734,0H292.183V293a4.47,4.47,0,0,1-4.47,4.47h-5.041a4.6,4.6,0,0,1-4.641-4.031c-.158-1.653-.414-4.446-.586-6.332H257.308a2.835,2.835,0,0,1-2.835-2.835v-2.834a2.835,2.835,0,0,1,2.835-2.835h14.906l1.211-7.058,2.373-7.1c.113-.371,3.294-7.56,3.294-7.56H255.669a2.835,2.835,0,0,1-2.835-2.835v-15.59a2.835,2.835,0,0,1,2.835-2.835h18.425a2.835,2.835,0,0,1,2.835,2.835V241H285.1a5.848,5.848,0,0,1,5.848,5.848v6.517h8a5.3,5.3,0,0,1,5.079,3.112h42.9v-9.629A5.848,5.848,0,0,1,352.776,241h8.178v-3.025a2.835,2.835,0,0,1,2.835-2.835h18.425a2.835,2.835,0,0,1,2.835,2.835Zm-1.818-41.773,1.742,9.893a2.834,2.834,0,0,1-2.3,3.284l-14.883,2.624a2.834,2.834,0,0,1-3.284-2.3L363,216.731h-5.554a4.228,4.228,0,0,1-4.144-5.178l1.1-7.4a5.361,5.361,0,0,1,9.162-3.118l2.788,2.34a8.46,8.46,0,0,1,3.31-1.592l1.444-8.188a5.377,5.377,0,0,1,10.682.888c0,.319-.074.936-.074.936l-1.391,7.887H386a4.247,4.247,0,0,1,.038,8.493Zm38.4,54.067-2.8.244,2.6,9.7a2.835,2.835,0,0,1-2,3.472l-14.6,3.911a2.834,2.834,0,0,1-3.472-2l-2.251-8.4-5.532.484a4.252,4.252,0,0,1-4.607-3.865,4.313,4.313,0,0,1,.027-.932l.454-7.471A5.361,5.361,0,0,1,398.3,257.1l2.982,2.087a8.458,8.458,0,0,1,3.158-1.874l.725-8.283a5.377,5.377,0,0,1,10.719-.046c.027.318.007.939.007.939l-.7,7.978,5.657-.5a4.247,4.247,0,0,1,.778,8.458ZM437.5,192.647h-2.81l1.742,9.893a2.833,2.833,0,0,1-2.3,3.283l-14.884,2.625a2.834,2.834,0,0,1-3.283-2.3l-1.511-8.564H408.9a4.227,4.227,0,0,1-4.144-5.177l1.1-7.4a5.361,5.361,0,0,1,9.163-3.118l2.788,2.339a8.467,8.467,0,0,1,3.31-1.592l1.443-8.188a5.378,5.378,0,0,1,10.683.888c0,.32-.075.937-.075.937l-1.39,7.886h5.679a4.247,4.247,0,0,1,.038,8.494Zm11.529,35.545a7.37,7.37,0,1,1,7.37-7.37A7.37,7.37,0,0,1,449.027,228.192Zm39.581-41.76a2.814,2.814,0,0,1,1.344,1.93l2.707,15.354a2.835,2.835,0,0,1-2.3,3.284l-18.145,3.2a2.835,2.835,0,0,1-3.284-2.3l-2.707-15.354a2.832,2.832,0,0,1,1.792-3.141l-2.106-10.969h-5.05a4.841,4.841,0,0,1-4.252-2.4,3.75,3.75,0,0,1-.4-2.78l1.1-7.4a5.361,5.361,0,0,1,9.162-3.118l2.789,2.34a8.449,8.449,0,0,1,3.309-1.592l1.444-8.189a5.377,5.377,0,0,1,10.682.889c0,.319-.074.936-.074.936l-1.391,7.887h5.679a4.247,4.247,0,0,1,.038,8.493h-2.809Zm9.579-90.192-14.218,2.507-6.718,1.184-2,4.01-1.39,7.886h5.678a4.247,4.247,0,0,1,.038,8.494h-2.809l1.742,9.892a2.835,2.835,0,0,1-2.3,3.284l-14.884,2.625a2.836,2.836,0,0,1-3.284-2.3l-1.51-8.564H450.98a4.231,4.231,0,0,1-4.145-5.177l1.1-7.4a5.361,5.361,0,0,1,9.162-3.119l2.789,2.34A8.47,8.47,0,0,1,463.2,110.3l1.444-8.188a5.375,5.375,0,0,1,5.3-4.5l.013,0,6.682-1.179-2.584-14.655a2.835,2.835,0,0,1,2.3-3.284l17.14-3.022-1.1-6.242a4.2,4.2,0,0,1-.08-.453l-.013-.075h0a3.315,3.315,0,0,1,.059-1.417l1.1-7.4a5.361,5.361,0,0,1,9.162-3.119l2.788,2.34a8.46,8.46,0,0,1,3.31-1.592l1.444-8.188a5.377,5.377,0,0,1,10.682.888c0,.32-.074.937-.074.937l-1.391,7.886h5.679a4.247,4.247,0,0,1,.038,8.494h-2.81l1.742,9.892a2.834,2.834,0,0,1-2.3,3.284l-14.884,2.625c-.043.007-.086,0-.13.009L499.031,84.7l1.456,8.257A2.835,2.835,0,0,1,498.187,96.24ZM501.63,121.4a4.219,4.219,0,0,1,.108-.926l1.1-7.4A5.361,5.361,0,0,1,512,109.95l2.788,2.34a8.453,8.453,0,0,1,3.31-1.592l1.444-8.189a5.377,5.377,0,0,1,10.682.889c0,.319-.075.936-.075.936l-1.39,7.887h5.679a4.243,4.243,0,0,1,4.246,4.184l.01,0,1.479,8.39,16.367-2.886c0-.039,1.2-8.444,1.2-8.444a5.36,5.36,0,0,1,9.162-3.118l2.788,2.339a8.474,8.474,0,0,1,3.31-1.592l1.444-8.188a5.377,5.377,0,0,1,10.682.888c0,.32-.074.937-.074.937l-1.391,7.886h5.679a4.247,4.247,0,0,1,.038,8.494h-2.81L588.315,131a2.834,2.834,0,0,1-2.3,3.283l-22.751,4.01.195,1.1a2.835,2.835,0,0,1-2.3,3.284l-18.146,3.2a2.835,2.835,0,0,1-3.283-2.3l-1.921-10.893-21.581,3.826a2.833,2.833,0,0,1-3.283-2.3l-1.51-8.564h-5.554A4.252,4.252,0,0,1,501.63,121.4Zm42.227,52.5h-2.81l1.742,9.893a2.833,2.833,0,0,1-2.3,3.283l-14.884,2.625a2.834,2.834,0,0,1-3.283-2.3l-1.51-8.564h-5.554a4.227,4.227,0,0,1-4.144-5.177l1.1-7.4a5.36,5.36,0,0,1,9.162-3.118l2.788,2.339a8.467,8.467,0,0,1,3.31-1.592l1.444-8.188a5.377,5.377,0,0,1,10.682.888c0,.32-.075.937-.075.937l-1.39,7.886h5.679a4.247,4.247,0,0,1,.038,8.494ZM559.9,195.758a7.37,7.37,0,1,1,7.37-7.37A7.37,7.37,0,0,1,559.9,195.758Zm38.857-21.472h-2.81l1.743,9.893a2.836,2.836,0,0,1-2.3,3.284l-14.883,2.624a2.834,2.834,0,0,1-3.284-2.3l-1.51-8.564h-5.554a4.228,4.228,0,0,1-4.144-5.178l1.1-7.4a5.361,5.361,0,0,1,9.162-3.119l2.788,2.34a8.46,8.46,0,0,1,3.31-1.592l1.444-8.188a5.377,5.377,0,0,1,10.682.888c0,.32-.074.936-.074.936l-1.391,7.887h5.679a4.247,4.247,0,0,1,.038,8.493Z" transform="translate(-12.037 -4.149)"/></svg>