<?xml version="1.0" encoding="utf-8"?>
<!-- Generator: Adobe Illustrator 24.0.1, SVG Export Plug-In . SVG Version: 6.00 Build 0)  -->
<svg version="1.1" id="cut" xmlns="http://www.w3.org/2000/svg" xmlns:xlink="http://www.w3.org/1999/xlink" x="0px" y="0px"
	 viewBox="0 0 116.94 92.84" style="enable-background:new 0 0 116.94 92.84;" xml:space="preserve">
<g>
	<path d="M107.42,25.75l0,0.03l0.71,0c3.76,0.02,6.97,2.73,7.63,6.44c0.36,2.05-0.1,4.12-1.29,5.82c-1.18,1.69-2.95,2.82-4.97,3.19
		l-9.93,0l-0.71,0l0,0.71l-0.03,34.01L54.44,91.77L1.26,91.77l-0.2-63.83c-0.03-1.06,0.71-1.96,1.75-2.14
		c0.12-0.02,0.23-0.03,0.33-0.03L107.42,25.75 M108.07,37.09c0.21,0,0.41-0.02,0.62-0.05c1.92-0.34,3.21-2.18,2.87-4.1
		c-0.3-1.7-1.77-2.93-3.49-2.93c-0.21,0-0.41,0.02-0.62,0.05c-0.93,0.16-1.74,0.68-2.29,1.46c-0.54,0.78-0.75,1.72-0.59,2.65
		C104.89,35.86,106.35,37.09,108.07,37.09 M9.39,90.31c0.21,0,0.41-0.02,0.62-0.05c1.92-0.34,3.21-2.18,2.87-4.1
		c-0.3-1.7-1.77-2.93-3.49-2.93c-0.21,0-0.41,0.02-0.62,0.05c-1.92,0.34-3.21,2.18-2.87,4.1C6.2,89.08,7.67,90.31,9.39,90.31
		 M41.77,90.36c0.21,0,0.41-0.02,0.62-0.05c1.92-0.34,3.21-2.18,2.87-4.1c-0.3-1.7-1.77-2.93-3.49-2.93c-0.21,0-0.41,0.02-0.62,0.05
		c-0.93,0.16-1.74,0.68-2.29,1.46c-0.54,0.78-0.75,1.72-0.59,2.65C38.58,89.13,40.05,90.36,41.77,90.36 M108.14,25.04L3.14,25.06
		c-0.15,0-0.3,0.02-0.45,0.04c-1.4,0.25-2.37,1.48-2.34,2.86l0.2,64.52l54-0.01l44.97-16.03l0.04-34.51l9.99,0
		c4.63-0.82,7.71-5.23,6.9-9.85c-0.72-4.11-4.29-7-8.32-7.02L108.14,25.04L108.14,25.04z M108.07,36.38c-1.35,0-2.55-0.97-2.79-2.34
		c-0.27-1.54,0.76-3.01,2.3-3.28c0.17-0.03,0.33-0.04,0.5-0.04c1.35,0,2.55,0.97,2.79,2.34c0.27,1.54-0.76,3.01-2.3,3.28
		C108.4,36.37,108.24,36.38,108.07,36.38L108.07,36.38z M9.39,89.6c-1.35,0-2.55-0.97-2.79-2.34c-0.27-1.54,0.76-3.01,2.3-3.28
		c0.17-0.03,0.33-0.04,0.5-0.04c1.35,0,2.55,0.97,2.79,2.34c0.27,1.54-0.76,3.01-2.3,3.28C9.72,89.59,9.55,89.6,9.39,89.6L9.39,89.6
		z M41.77,89.65c-1.35,0-2.55-0.97-2.79-2.34c-0.27-1.54,0.76-3.01,2.3-3.28c0.17-0.03,0.33-0.04,0.5-0.04
		c1.35,0,2.55,0.97,2.79,2.34c0.27,1.54-0.76,3.01-2.3,3.28C42.1,89.64,41.93,89.65,41.77,89.65L41.77,89.65z"/>
</g>
<g>
	<path d="M53.8,1.06c3.91,0,7.09,3.18,7.09,7.09s-3.18,7.09-7.09,7.09s-7.09-3.18-7.09-7.09S49.89,1.06,53.8,1.06 M53.8,11.98
		c2.11,0,3.83-1.72,3.83-3.83s-1.72-3.83-3.83-3.83s-3.83,1.72-3.83,3.83S51.69,11.98,53.8,11.98 M53.8,0.35
		c-4.31,0-7.8,3.49-7.8,7.8c0,4.31,3.49,7.8,7.8,7.8s7.8-3.49,7.8-7.8C61.6,3.84,58.11,0.35,53.8,0.35L53.8,0.35z M53.8,11.27
		c-1.72,0-3.12-1.4-3.12-3.12c0-1.72,1.4-3.12,3.12-3.12s3.12,1.4,3.12,3.12C56.92,9.87,55.52,11.27,53.8,11.27L53.8,11.27z"/>
</g>
<g>
	<path d="M17.27,1.06c3.91,0,7.09,3.18,7.09,7.09s-3.18,7.09-7.09,7.09s-7.09-3.18-7.09-7.09S13.36,1.06,17.27,1.06 M17.27,11.98
		c2.11,0,3.83-1.72,3.83-3.83s-1.72-3.83-3.83-3.83s-3.83,1.72-3.83,3.83S15.16,11.98,17.27,11.98 M17.27,0.35
		c-4.31,0-7.8,3.49-7.8,7.8c0,4.31,3.49,7.8,7.8,7.8s7.8-3.49,7.8-7.8C25.06,3.84,21.57,0.35,17.27,0.35L17.27,0.35z M17.27,11.27
		c-1.72,0-3.12-1.4-3.12-3.12c0-1.72,1.4-3.12,3.12-3.12s3.12,1.4,3.12,3.12C20.39,9.87,18.99,11.27,17.27,11.27L17.27,11.27z"/>
</g>
<g>
	<path d="M88.36,1.06c3.91,0,7.09,3.18,7.09,7.09s-3.18,7.09-7.09,7.09s-7.09-3.18-7.09-7.09S84.45,1.06,88.36,1.06 M88.36,11.98
		c2.11,0,3.83-1.72,3.83-3.83s-1.72-3.83-3.83-3.83s-3.83,1.72-3.83,3.83S86.25,11.98,88.36,11.98 M88.36,0.35
		c-4.31,0-7.8,3.49-7.8,7.8c0,4.31,3.49,7.8,7.8,7.8s7.8-3.49,7.8-7.8C96.15,3.84,92.66,0.35,88.36,0.35L88.36,0.35z M88.36,11.27
		c-1.72,0-3.12-1.4-3.12-3.12c0-1.72,1.4-3.12,3.12-3.12s3.12,1.4,3.12,3.12C91.48,9.87,90.08,11.27,88.36,11.27L88.36,11.27z"/>
</g>
</svg>
