<?xml version="1.0" encoding="utf-8"?>
<!-- Generator: Adobe Illustrator 25.2.3, SVG Export Plug-In . SVG Version: 6.00 Build 0)  -->
<svg version="1.1" xmlns="http://www.w3.org/2000/svg" xmlns:xlink="http://www.w3.org/1999/xlink" x="0px" y="0px"
	 viewBox="0 0 718.84 304.22" style="enable-background:new 0 0 718.84 304.22;" xml:space="preserve">
<style type="text/css">
	.st0{fill:none;stroke:#231815;stroke-width:0.25;stroke-miterlimit:10;}
	.st1{font-family:'ArialMT';}
	.st2{font-size:14px;}
</style>
<g id="cut">
	<path class="st0" d="M718.35,188.63L690.63,31.4c-0.72-4.06-4.25-7.03-8.37-7.03l-221.95,0l-2.97,16.84
		c-0.41,2.31-2.61,3.86-4.93,3.45l-19.54-3.45c-2.31-0.41-3.86-2.61-3.45-4.93l2.88-16.34l-21.36-3.74l-1.01,5.56
		c-0.27,1.55-1.75,2.58-3.29,2.31L325.7,9.8c-1.55-0.27-2.58-1.75-2.31-3.29l0.98-5.44l-3.86-0.67c-1.54-0.27-3.01,0.76-3.28,2.3
		l-7.76,44.05c-0.27,1.54-1.75,2.57-3.29,2.3l-38.84-6.92c-0.93-0.17-1.72-0.79-2.1-1.66l-2.35-5.41c-0.38-0.87-1.17-1.5-2.11-1.66
		l-50.9-9.02l-173.22,0c-4.13,0-7.66,2.96-8.37,7.02L0.49,188.63c-0.82,4.63,2.27,9.04,6.9,9.86l53.31,9.38
		c0.71,0.13,1.44,0.11,2.15-0.04l23.98-5.06c0.71-0.15,1.45-0.16,2.17-0.03l63.23,11.32c1.35,0.24,2.34,1.42,2.34,2.79l0,43.23
		c0,1.57,1.27,2.83,2.83,2.83l49.33,0c1.17,0,2.22,0.72,2.64,1.81l7.12,18.35c0.33,0.84,1.04,1.48,1.91,1.71l71.39,19.08l139.43,0
		l71.26-19.08c0.87-0.23,1.58-0.87,1.91-1.71l7.11-18.35c0.42-1.09,1.47-1.81,2.64-1.81l49.38,0c1.57,0,2.83-1.27,2.83-2.83l0-43.26
		c0-1.37,0.98-2.55,2.34-2.79l63.3-11.3c0.72-0.13,1.46-0.12,2.17,0.04l23.86,5.06c0.71,0.15,1.44,0.16,2.16,0.04l53.26-9.38
		C716.08,197.67,719.17,193.26,718.35,188.63z M634.48,71.2l7.77-2.08l-0.79-4.49l-6.06,1.07l-1.97-11.17l6.06-1.07l-1.25-7.09
		l41.18-7.26l1.97,11.17l-2.37,0.42l2.56,14.5c0.14,0.77-0.38,1.51-1.15,1.64l-8.29,1.46l1.36,7.73c0.14,0.77-0.38,1.51-1.15,1.64
		l-14.74,2.6l-19.47,5.22l0-0.02c-0.53,0.12-1.08,0.19-1.65,0.19c-4.07,0-7.37-3.3-7.37-7.37C629.1,74.91,631.38,72.07,634.48,71.2z
		 M586.62,64.2l-6.06,1.07l-1.97-11.17l6.06-1.07l-1.25-7.09l41.18-7.26l1.97,11.17l-2.37,0.42l2.8,15.9l-9.69,1.71l1.61,9.12
		l-23.5,4.21v9.48c0,1.57-1.27,2.83-2.83,2.83l-13.04,0l1.6,9.08l-2.37,0.42l2.56,14.5c0.14,0.77-0.38,1.51-1.15,1.64l-8.29,1.46
		l1.36,7.73c0.14,0.77-0.38,1.51-1.15,1.64l-13.43,2.37l-20.34,5.45c-0.14,0.04-0.28,0.08-0.42,0.11l-0.21,0.06l0,0
		c-1.14,0.25-2.37,0.26-3.66-0.13c-3.04-0.93-5.26-3.75-5.31-6.93c-0.06-3.36,2.13-6.21,5.16-7.17l0-0.01l8.15-2.18l-0.81-4.6
		l-6.06,1.07l-1.97-11.17l6.06-1.07l-1.25-7.09l29.76-5.25c1.31-0.23,2.15-1.41,2.14-2.73c0-0.01,0-0.02,0-0.03V76.5
		c0-1.57,1.27-2.83,2.83-2.83l15.54,0L586.62,64.2z M528.5,45.59l41.18-7.26l1.97,11.17l-2.37,0.42l2.56,14.5
		c0.14,0.77-0.38,1.51-1.15,1.64l-8.29,1.46l1.36,7.73c0.14,0.77-0.38,1.51-1.15,1.64l-16.75,2.95c-0.77,0.14-1.51-0.38-1.64-1.15
		l-1.36-7.73l-8.18,1.44c-0.77,0.14-1.51-0.38-1.64-1.15l-1.31-7.41l-6.06,1.07l-1.97-11.17l6.06-1.07L528.5,45.59z M422.19,64.31
		l41.18-7.26l1.97,11.17l-2.37,0.42l0.98,5.53c0.24,1.35,1.42,2.34,2.79,2.34l8.97,0c1.76,0,3.1-1.59,2.79-3.33l-1.73-9.75
		l-6.06,1.07l-1.97-11.17l6.06-1.07l-1.25-7.09l41.18-7.26l1.97,11.17l-2.37,0.42l2.56,14.5c0.14,0.77-0.38,1.51-1.15,1.64
		l-8.29,1.46l1.36,7.73c0.14,0.77-0.38,1.51-1.15,1.64l-19.57,3.33c-1.36,0.23-2.36,1.41-2.36,2.79l0.01,11.81
		c0,1.76,1.59,3.1,3.33,2.79L524.08,91l1.97,11.17l-2.37,0.42l2.56,14.5c0.14,0.77-0.38,1.51-1.15,1.64l-8.29,1.46l1.36,7.73
		c0.14,0.77-0.38,1.51-1.15,1.64l-16.75,2.95c-0.77,0.14-1.51-0.38-1.64-1.15l-1.36-7.73l-8.18,1.44c-0.77,0.14-1.51-0.38-1.64-1.15
		l-1.31-7.41l-6.06,1.07l-1.97-11.17l6.06-1.07l-1.17-6.66c-0.24-1.36-1.42-2.35-2.79-2.35l-19.99,0l-3.92-0.74l-18.15,3.2
		l-1.61-9.12l-9.57,1.69l-1.55-8.8l-6.06,1.07l-1.97-11.17l6.06-1.07L422.19,64.31z M476.15,200.27c0.14,0.77-0.38,1.51-1.15,1.64
		l-16.75,2.95c-0.77,0.14-1.51-0.38-1.64-1.15l-1.36-7.73l-8.18,1.44c-0.77,0.14-1.51-0.38-1.64-1.15l-1.31-7.41l-6.06,1.07
		l-1.97-11.17l6.06-1.07l-1.25-7.09l41.18-7.26l1.97,11.17l-2.37,0.42l2.56,14.5c0.14,0.77-0.38,1.51-1.15,1.64l-8.29,1.46
		L476.15,200.27z M431.48,117.46l41.18-7.26l1.97,11.17l-2.37,0.42l2.56,14.5c0.14,0.77-0.38,1.51-1.15,1.64l-8.29,1.46l1.36,7.73
		c0.14,0.77-0.38,1.51-1.15,1.64l-16.75,2.95c-0.77,0.14-1.51-0.38-1.64-1.15l-1.36-7.73l-8.18,1.44c-0.77,0.14-1.51-0.38-1.64-1.15
		l-1.31-7.41l-6.06,1.07l-1.97-11.17l6.06-1.07L431.48,117.46z M411.88,76.25l1.97,11.17l-2.37,0.42l2.07,11.74l7.91-0.54l0,0.01
		c0.21-0.02,0.43-0.03,0.65-0.03c4.07,0,7.37,3.3,7.37,7.37c0,3.95-3.11,7.17-7.02,7.35l0,0l-18.92,1.29l-15.49,2.73
		c-0.77,0.14-1.51-0.38-1.64-1.15l-1.36-7.73l-8.18,1.44c-0.77,0.14-1.51-0.38-1.64-1.15l-1.31-7.41l-6.06,1.07l-1.97-11.17
		l6.06-1.07l-1.25-7.09L411.88,76.25z M366.77,225.49c0,4.07-3.3,7.37-7.37,7.37c-4.07,0-7.37-3.3-7.37-7.37
		c0-4.07,3.3-7.37,7.37-7.37C363.47,218.12,366.77,221.42,366.77,225.49z M315.91,48.41l0.49-2.77c0.27-1.55,1.75-2.58,3.29-2.31
		l80.94,14.27c1.55,0.27,2.58,1.75,2.31,3.29l-0.49,2.77c-0.27,1.55-1.75,2.58-3.29,2.31l-80.94-14.27
		C316.67,51.43,315.63,49.96,315.91,48.41z M302.14,82.7l6.06,1.07l1.25-7.09l41.18,7.26l-1.97,11.17l-2.37-0.42l-2.56,14.5
		c-0.14,0.77-0.87,1.29-1.64,1.15l-8.29-1.46l-1.36,7.73c-0.14,0.77-0.87,1.29-1.64,1.15l-15.17-2.68l-19.47-1.33l0-0.03
		c-3.8-0.3-6.79-3.47-6.79-7.34c0-4.07,3.3-7.37,7.37-7.37c0.34,0,0.67,0.03,0.99,0.07l1.59,0.11L302.14,82.7z M235.83,191.21
		c-0.77-0.14-1.29-0.87-1.15-1.64l1.31-7.41l-6.06-1.07l1.97-11.17l6.06,1.07l1.25-7.09l41.18,7.26l-1.97,11.17l-2.37-0.42
		l-2.56,14.5c-0.14,0.77-0.87,1.29-1.64,1.15l-8.29-1.46l-1.36,7.73c-0.14,0.77-0.87,1.29-1.64,1.15l-16.75-2.95
		c-0.77-0.14-1.29-0.87-1.15-1.64l1.36-7.73L235.83,191.21z M272.91,143l-1.36,7.73c-0.14,0.77-0.87,1.29-1.64,1.15l-16.75-2.95
		c-0.77-0.14-1.29-0.87-1.15-1.64l1.36-7.73l-8.18-1.44c-0.77-0.14-1.29-0.87-1.15-1.64l1.31-7.41l-6.06-1.07l1.97-11.17l6.06,1.07
		l1.25-7.09l41.18,7.26l-1.97,11.17l-2.37-0.42l-2.56,14.5c-0.14,0.77-0.87,1.29-1.64,1.15L272.91,143z M197.15,91.55l32.65,5.76
		c1.74,0.31,3.33-1.03,3.33-2.79l0-11.67c0-1.38-0.99-2.55-2.34-2.79l-19.69-3.49c-0.77-0.14-1.29-0.87-1.15-1.64l1.36-7.73
		l-8.18-1.44c-0.77-0.14-1.29-0.87-1.15-1.64l1.31-7.41l-6.06-1.07l1.97-11.17l6.06,1.07l1.25-7.09l41.18,7.26l-1.97,11.17
		l-2.37-0.42l-2.97,16.71c-0.31,1.74,1.03,3.33,2.79,3.33h2.89c1.38,0,2.56-0.99,2.79-2.35l1.83-10.48l6.06,1.07l1.25-7.09
		l41.18,7.26l-1.97,11.17l-2.37-0.42l-2.56,14.5c-0.14,0.77-0.87,1.29-1.64,1.15l-8.29-1.46l-1.36,7.73
		c-0.14,0.77-0.87,1.29-1.64,1.15l-16.75-2.95l-6.78,0.58l-15.01,0c-1.36,0-2.47,1.1-2.47,2.47v0l-1.97,11.17l-2.37-0.42l-2.56,14.5
		c-0.14,0.77-0.87,1.29-1.64,1.15l-8.29-1.46l-1.36,7.73c-0.14,0.77-0.87,1.29-1.64,1.15l-16.75-2.95
		c-0.77-0.14-1.29-0.87-1.15-1.64l1.36-7.73l-8.18-1.44c-0.77-0.14-1.29-0.87-1.15-1.64l1.31-7.41l-6.06-1.07l1.97-11.17l6.06,1.07
		L197.15,91.55z M144.29,44.83l6.06,1.07l1.25-7.09l41.18,7.26l-1.97,11.17l-2.37-0.42l-2.56,14.5c-0.14,0.77-0.87,1.29-1.64,1.15
		L175.95,71l-1.36,7.73c-0.14,0.77-0.87,1.29-1.64,1.15l-16.75-2.95c-0.77-0.14-1.29-0.87-1.15-1.64l1.36-7.73l-8.18-1.44
		c-0.77-0.14-1.29-0.87-1.15-1.64l1.31-7.41l-6.06-1.07L144.29,44.83z M89.46,45.31l6.06,1.07l1.25-7.09l41.18,7.26l-1.97,11.17
		l-2.37-0.42l-2.89,16.36l15.42,0c1.57,0,2.83,1.27,2.83,2.83l0,14.17l0,0.03c-0.01,1.32,1.05,2.58,2.35,2.81l32.11,5.66
		l-1.97,11.17l-2.37-0.42l-2.06,11.67l7.99,2.14l-0.01,0.03c3.33,1.07,5.64,4.44,5.02,8.25c-0.45,2.77-2.53,5.08-5.23,5.85
		c-1.57,0.45-3.06,0.35-4.4-0.1l-19.78-5.3l-13.78-2.43c-0.77-0.14-1.29-0.87-1.15-1.64l1.36-7.73l-8.18-1.44
		c-0.77-0.14-1.29-0.87-1.15-1.64l1.31-7.41l-6.06-1.07l1.97-11.17l3.56,0.63c1.39,0.24,2.71-0.68,2.95-2.07l0,0
		c0.28-1.56-0.92-2.99-2.51-2.99l-12.64,0c-1.57,0-2.83-1.27-2.83-2.83l0-9.37l-22.1-3.89c-0.77-0.14-1.29-0.87-1.15-1.64l1.36-7.73
		l-8.18-1.44c-0.77-0.14-1.29-0.87-1.15-1.64l1.31-7.41l-6.06-1.07L89.46,45.31z M34.61,45.62l5.95,1.07l1.25-7.09l41.18,7.26
		l-1.97,11.17l-2.37-0.42l-2.03,11.51l7.95,2.13l0,0.01c3,0.93,5.18,3.73,5.18,7.04c0,4.07-3.3,7.37-7.37,7.37
		c-0.56,0-1.1-0.07-1.62-0.18l0,0.01l-18.67-5L46.4,77.72c-0.77-0.14-1.29-0.87-1.15-1.64l1.36-7.73l-8.18-1.44
		c-0.77-0.14-1.29-0.87-1.15-1.64l1.31-7.41l-5.95-1.07L34.61,45.62z M62.93,192.44c-0.56,0-1.11-0.07-1.63-0.19l0,0.01L37,185.75
		l-9.44-1.66c-0.77-0.14-1.29-0.87-1.15-1.64l1.36-7.73l-8.18-1.44c-0.77-0.14-1.29-0.87-1.15-1.64l1.31-7.41l-6.07-1.09l1.97-11.17
		l6.07,1.09l1.25-7.09l41.18,7.26l-1.97,11.17l-2.37-0.42l-2.13,12.05l7.43,1.99l0,0c3.01,0.93,5.19,3.73,5.19,7.04
		C70.3,189.14,67,192.44,62.93,192.44z M117.14,163.91l-2.37-0.42l-2.56,14.5c-0.14,0.77-0.87,1.29-1.64,1.15l-8.29-1.46l-1.36,7.73
		c-0.14,0.77-0.87,1.29-1.64,1.15l-16.75-2.95c-0.77-0.14-1.29-0.87-1.15-1.64l1.36-7.73l-8.18-1.44c-0.77-0.14-1.29-0.87-1.15-1.64
		l1.31-7.41l-6.06-1.07l1.97-11.17l3.69,0.65c1.31,0.23,2.56-0.64,2.79-1.95l0,0c0.26-1.47-0.87-2.83-2.37-2.83l-9.84,0
		c-1.57,0-2.83-1.27-2.83-2.83l0-18.72l-5.32-0.94l-1.36,7.73c-0.14,0.77-0.87,1.29-1.64,1.15l-16.75-2.95
		c-0.77-0.14-1.29-0.87-1.15-1.64l1.36-7.73l-8.18-1.44c-0.77-0.14-1.29-0.87-1.15-1.64l1.31-7.41l-6-1.07l1.97-11.17l6,1.07
		l1.25-7.09l41.18,7.26l-1.97,11.17l-2.37-0.42l-1.38,7.84c-0.31,1.74,1.03,3.33,2.79,3.33l8.43,0c1.57,0,2.83,1.27,2.83,2.83
		l-0.02,19.11c0,1.38,0.99,2.56,2.34,2.79l34.88,6.14L117.14,163.91z M119.87,125.99l-8.29-1.46l-1.36,7.73
		c-0.14,0.77-0.87,1.29-1.64,1.15l-16.75-2.95c-0.77-0.14-1.29-0.87-1.15-1.64l1.36-7.73l-8.18-1.44c-0.77-0.14-1.29-0.87-1.15-1.64
		l1.31-7.41l-6.06-1.07l1.97-11.17l6.06,1.07l1.25-7.09l41.18,7.26l-1.97,11.17l-2.37-0.42l-2.56,14.5
		C121.37,125.61,120.64,126.12,119.87,125.99z M159.66,196.87l0-9.6l-22.3-3.97c-0.77-0.14-1.29-0.87-1.15-1.64l1.36-7.73
		l-9.57-1.69l1.55-8.8l-6.06-1.07l1.97-11.17l6.06,1.07l1.25-7.09l41.18,7.26l-1.97,11.17l-2.37-0.42l-2.32,13.35
		c-0.3,1.73,1.03,3.32,2.79,3.32l12.26,0c1.57,0,2.83,1.27,2.83,2.83l0,14.17c0,1.57-1.27,2.83-2.83,2.83l-19.84,0
		C160.93,199.71,159.66,198.44,159.66,196.87z M211.06,219.73h-2.41l0,14.72c0,0.78-0.63,1.42-1.42,1.42l-8.42,0v7.84
		c0,0.78-0.63,1.42-1.42,1.42l-17.01,0c-0.78,0-1.42-0.63-1.42-1.42v-7.84l-8.3,0c-0.78,0-1.42-0.63-1.42-1.42v-7.52l-6.16,0
		l0-11.34l6.16,0l0-7.2l41.81,0L211.06,219.73z M220.36,178.44l-8.29-1.46l-1.36,7.73c-0.14,0.77-0.87,1.29-1.64,1.15l-16.75-2.95
		c-0.77-0.14-1.29-0.87-1.15-1.64l1.36-7.73l-8.18-1.44c-0.77-0.14-1.29-0.87-1.15-1.64l1.31-7.41l-6.06-1.07l1.97-11.17l6.06,1.07
		l1.25-7.09l41.18,7.26l-1.97,11.17l-2.37-0.42l-2.56,14.5C221.86,178.06,221.13,178.57,220.36,178.44z M229.35,224.41
		c-4.07,0-7.37-3.3-7.37-7.37c0-4.07,3.3-7.37,7.37-7.37c4.07,0,7.37,3.3,7.37,7.37C236.72,221.11,233.42,224.41,229.35,224.41z
		 M311.44,255.07c0,1.57-1.27,2.83-2.83,2.83l-22.68,0l-4.62,1.31c-0.96,0.27-1.7,1.03-1.96,1.99l-2.66,9.92
		c-0.2,0.76-0.98,1.2-1.74,1l-8.13-2.18l-2.03,7.58c-0.2,0.76-0.98,1.2-1.74,1l-16.43-4.4c-0.76-0.2-1.2-0.98-1-1.74l2.03-7.58
		l-8.02-2.15c-0.76-0.2-1.2-0.98-1-1.74l1.95-7.27l-5.95-1.59l2.93-10.95l5.91,1.59l1.94-7.24l37.03,9.89
		c1.8,0.48,3.56-0.87,3.57-2.73l-0.09-1.73c0-1.57,1.27-2.83,2.83-2.83l19.84,0c1.57,0,2.83,1.27,2.83,2.83V255.07z M313.61,222.97
		c-0.14,0.77-0.87,1.29-1.64,1.15l-16.75-2.95c-0.77-0.14-1.29-0.87-1.15-1.64l1.36-7.73l-8.18-1.44c-0.77-0.14-1.29-0.87-1.15-1.64
		l1.31-7.41l-6.06-1.07l1.97-11.17l6.06,1.07l1.25-7.09l41.18,7.26l-1.97,11.17l-2.37-0.42l-2.56,14.5
		c-0.14,0.77-0.87,1.29-1.64,1.15l-8.29-1.46L313.61,222.97z M331.41,243.06v3.89c0,3.23-2.62,5.85-5.85,5.85s-5.85-2.62-5.85-5.85
		v-3.89c0-3.23,2.62-5.85,5.85-5.85S331.41,239.82,331.41,243.06z M328.17,293.67l-5.23,0c-2.47,0-4.47-2-4.47-4.47
		s2-4.47,4.47-4.47l5.23,0c2.47,0,4.47,2,4.47,4.47S330.64,293.67,328.17,293.67z M332.63,163.49l-8.29-1.46l-1.36,7.73
		c-0.14,0.77-0.87,1.29-1.64,1.15l-16.75-2.95c-0.77-0.14-1.29-0.87-1.15-1.64l1.36-7.73l-8.18-1.44c-0.77-0.14-1.29-0.87-1.15-1.64
		l1.31-7.41l-6.06-1.07l1.97-11.17l6.06,1.07l1.25-7.09l41.18,7.26l-1.97,11.17l-2.37-0.42l-2.56,14.5
		C334.13,163.12,333.4,163.63,332.63,163.49z M381.53,260.69h-2.41v14.72c0,0.78-0.63,1.42-1.42,1.42h-8.42l0,7.84
		c0,0.78-0.63,1.42-1.42,1.42l-17.01,0c-0.78,0-1.42-0.63-1.42-1.42l0-7.84l-8.3,0c-0.78,0-1.42-0.63-1.42-1.42v-7.52h-6.16l0-11.34
		h6.16v-7.2l41.81,0L381.53,260.69z M383.22,154.86l-6.06,1.07l-1.97-11.17l6.06-1.07L380,136.6l41.18-7.26l1.97,11.17l-2.37,0.42
		l2.56,14.5c0.14,0.77-0.38,1.51-1.15,1.64l-8.29,1.46l1.36,7.73c0.14,0.77-0.38,1.51-1.15,1.64l-16.75,2.95
		c-0.77,0.14-1.51-0.38-1.64-1.15l-1.36-7.73l-8.18,1.44c-0.77,0.14-1.51-0.38-1.64-1.15L383.22,154.86z M395.85,293.67h-5.23
		c-2.47,0-4.47-2-4.47-4.47s2-4.47,4.47-4.47h5.23c2.47,0,4.47,2,4.47,4.47S398.32,293.67,395.85,293.67z M387.39,246.95v-3.89
		c0-3.23,2.62-5.85,5.85-5.85s5.85,2.62,5.85,5.85v3.89c0,3.23-2.62,5.85-5.85,5.85S387.39,250.18,387.39,246.95z M405.18,222.88
		l-1.36-7.73l-8.18,1.44c-0.77,0.14-1.51-0.38-1.64-1.15l-1.31-7.41l-6.06,1.07l-1.97-11.17l6.06-1.07l-1.25-7.09l41.18-7.26
		l1.97,11.17l-2.37,0.42l2.56,14.5c0.14,0.77-0.38,1.51-1.15,1.64l-8.29,1.46l1.36,7.73c0.14,0.77-0.38,1.51-1.15,1.64l-16.75,2.95
		C406.06,224.16,405.32,223.65,405.18,222.88z M479.2,262.54l-7.31,1.99l2.03,7.58c0.2,0.76-0.25,1.53-1,1.74l-17.25,4.59
		c-0.76,0.2-1.53-0.25-1.74-1l-2.03-7.58l-8.02,2.15c-0.76,0.2-1.53-0.25-1.74-1l-1.95-7.27l-5.95,1.59l-1.48-5.3
		c-0.34-1.22-1.45-2.06-2.72-2.07l-19.69-0.08c-1.57,0-2.83-1.27-2.83-2.83v-14.17c0-1.57,1.27-2.83,2.83-2.83l21.25,0
		c0.9,0,1.74,0.43,2.28,1.15l0.86,3.77c0.36,1.57,1.95,2.52,3.5,2.11l37.54-10.06l2.93,10.95l-2.33,0.62l3.81,14.22
		C480.4,261.56,479.95,262.34,479.2,262.54z M489.51,224.4c-4.07,0-7.37-3.3-7.37-7.37c0-4.07,3.3-7.37,7.37-7.37
		c4.07,0,7.37,3.3,7.37,7.37C496.88,221.1,493.58,224.4,489.51,224.4z M498.49,178.42c-0.77,0.14-1.51-0.38-1.64-1.15l-1.31-7.41
		l-6.06,1.07l-1.97-11.17l6.06-1.07l-1.25-7.09l41.18-7.26l1.97,11.17l-2.37,0.42l2.56,14.5c0.14,0.77-0.38,1.51-1.15,1.64
		l-8.29,1.46l1.36,7.73c0.14,0.77-0.38,1.51-1.15,1.64l-16.75,2.95c-0.77,0.14-1.51-0.38-1.64-1.15l-1.36-7.73L498.49,178.42z
		 M552,219.78h-2.41l0,14.72c0,0.78-0.63,1.42-1.42,1.42l-8.42,0v7.84c0,0.78-0.63,1.42-1.42,1.42l-17.01,0
		c-0.78,0-1.42-0.63-1.42-1.42v-7.84l-8.3,0c-0.78,0-1.42-0.63-1.42-1.42v-7.52l-6.16,0l0-11.34l6.16,0v-7.2l41.81,0V219.78z
		 M589.46,172.37l-8.29,1.46l1.36,7.73c0.14,0.77-0.38,1.51-1.15,1.64l-22.09,3.84l0,9.83c0,1.57-1.27,2.83-2.83,2.83l-19.84,0
		c-1.57,0-2.83-1.27-2.83-2.83l0-14.17c0-1.57,1.27-2.83,2.83-2.83l12.2,0c1.76,0,3.09-1.59,2.79-3.32l-1.11-6.38l-6.06,1.07
		l-1.97-11.17l6.06-1.07l-1.25-7.09l41.18-7.26l1.97,11.17l-2.37,0.42l2.56,14.5C590.74,171.5,590.23,172.24,589.46,172.37z
		 M595.98,117.42l-6.06,1.07l-1.97-11.17l6.06-1.07l-1.25-7.09l41.18-7.26l1.97,11.17l-2.37,0.42l2.56,14.5
		c0.14,0.77-0.38,1.51-1.15,1.64l-8.29,1.46l1.36,7.73c0.14,0.77-0.38,1.51-1.15,1.64l-16.75,2.95c-0.77,0.14-1.51-0.38-1.64-1.15
		l-1.36-7.73l-8.18,1.44c-0.77,0.14-1.51-0.38-1.64-1.15L595.98,117.42z M644.3,150.68l0.98,5.53l-2.37,0.42l2.56,14.5
		c0.14,0.77-0.38,1.51-1.15,1.64l-8.29,1.46l1.36,7.73c0.14,0.77-0.38,1.51-1.15,1.64l-16.75,2.95c-0.77,0.14-1.51-0.38-1.64-1.15
		l-1.36-7.73l-8.18,1.44c-0.77,0.14-1.51-0.38-1.64-1.15l-1.31-7.41l-6.06,1.07l-1.97-11.17l6.06-1.07l-1.25-7.09l32.54-5.62
		c1.36-0.23,2.35-1.41,2.35-2.79l0-19.21c0-1.57,1.27-2.84,2.83-2.84l2.21,0c1.76,0,3.09-1.59,2.79-3.33l-1.92-10.9l6.06-1.07
		l-1.25-7.09l41.18-7.26l1.97,11.17l-2.37,0.42l2.56,14.5c0.14,0.77-0.38,1.51-1.15,1.64l-8.29,1.46l1.36,7.73
		c0.14,0.77-0.38,1.51-1.15,1.64l-16.75,2.95c-0.77,0.14-1.51-0.38-1.64-1.15l-1.36-7.73l-2.88,0.51c-1.35,0.24-2.34,1.42-2.34,2.79
		v16.39c0,1.57-1.27,2.83-2.83,2.83l-6.94,0C645.33,147.35,644,148.94,644.3,150.68z M699.22,173.2l-8.29,1.46l1.36,7.73
		c0.14,0.77-0.38,1.51-1.15,1.64l-8.31,1.47l-25.25,6.77l-0.02-0.08c-0.51,0.11-1.04,0.18-1.59,0.18c-4.07,0-7.37-3.3-7.37-7.37
		c0-3.75,2.8-6.84,6.42-7.3l6.13-1.64l-0.89-5.05l-6.06,1.07l-1.97-11.17l6.06-1.07l-1.25-7.09l41.18-7.26l1.97,11.17l-2.37,0.42
		l2.56,14.5C700.51,172.33,700,173.06,699.22,173.2z"/>
</g>
<g id="graving">
</g>
<g id="note">
	<text transform="matrix(1 0 0 1 6.2349 278.5766)"><tspan x="0" y="0" class="st1 st2">W : 253.34 mm</tspan><tspan x="0" y="18" class="st1 st2">H : 107.073 mm</tspan></text>
</g>
</svg>
