<?xml version="1.0" encoding="utf-8"?>
<!-- Generator: Adobe Illustrator 25.2.3, SVG Export Plug-In . SVG Version: 6.00 Build 0)  -->
<svg version="1.1" id="cut" xmlns="http://www.w3.org/2000/svg" xmlns:xlink="http://www.w3.org/1999/xlink" x="0px" y="0px"
	 viewBox="0 0 637.8 311.81" style="enable-background:new 0 0 637.8 311.81;" xml:space="preserve">
<style type="text/css">
	.st0{font-family:'Arial-BoldMT';}
	.st1{font-size:18px;}
	.st2{fill:none;stroke:#000000;stroke-width:0.25;stroke-miterlimit:10;}
</style>
<text transform="matrix(1 0 0 1 12.0374 274.6502)"><tspan x="0" y="0" class="st0 st1">W : 214.325 mm</tspan><tspan x="0" y="24" class="st0 st1">H : 107.073 mm</tspan></text>
<path class="st2" d="M622.53,191.76l-27.6-156.57c-0.72-4.06-4.25-7.03-8.37-7.03H419.8l-2.97,16.83c-0.41,2.31-2.61,3.86-4.93,3.45
	L392.37,45c-2.31-0.41-3.86-2.61-3.45-4.93l2.88-16.33l-21.32-3.73l-1.01,5.56c-0.27,1.55-1.75,2.58-3.29,2.31L285.24,13.6
	c-1.55-0.27-2.58-1.75-2.31-3.29l0.99-5.44l-3.88-0.68c-1.54-0.27-3.01,0.76-3.28,2.3l-7.76,44.05c-0.27,1.54-1.75,2.57-3.29,2.3
	l-38.84-6.92c-0.93-0.17-1.72-0.79-2.1-1.66l-2.35-5.41c-0.38-0.87-1.17-1.5-2.11-1.66l-50.9-9.02l-118.06,0
	c-4.13,0-7.66,2.96-8.37,7.02l-27.7,156.55c-0.82,4.63,2.27,9.04,6.9,9.86l53.96,9.38c0.57,0.1,1.14,0.14,1.71,0.12l28.71-0.87
	c1.13-0.03,2.25,0.16,3.31,0.56l52.57,20.2c2.07,0.79,3.74,2.36,4.67,4.37l24.76,53.64c0.33,0.84,1.04,1.48,1.91,1.71l63.42,16.94
	h123.49l63.47-17.01c0.87-0.23,1.58-0.87,1.91-1.71l24.76-53.58c0.93-2.01,2.6-3.58,4.67-4.37l52.55-20.2
	c1.05-0.41,2.18-0.6,3.31-0.56l28.7,0.87c0.57,0.02,1.15-0.02,1.71-0.12l53.89-9.37C620.26,200.79,623.35,196.38,622.53,191.76z
	 M547.26,67.69l1.1-7.4c0.32-2.66,2.57-4.74,5.32-4.74c1.51,0,2.86,0.62,3.84,1.62l2.79,2.34c0.96-0.75,2.08-1.3,3.31-1.59
	l1.44-8.19c0.43-2.55,2.63-4.5,5.3-4.5c2.97,0,5.39,2.41,5.39,5.39c0,0.32-0.07,0.94-0.07,0.94l-1.39,7.89c0,0,5.65,0,5.68,0
	c2.35,0,4.25,1.9,4.25,4.25c0,2.34-1.88,4.23-4.21,4.25l-2.81,0l1.74,9.89c0.27,1.54-0.76,3.01-2.3,3.28l-14.88,2.62
	c-1.54,0.27-3.01-0.76-3.28-2.3l-1.51-8.56h-5.55c-2.35,0-4.25-1.9-4.25-4.25C547.16,68.29,547.2,67.98,547.26,67.69z M541.17,74.68
	c4.07,0,7.37,3.3,7.37,7.37s-3.3,7.37-7.37,7.37s-7.37-3.3-7.37-7.37S537.1,74.68,541.17,74.68z M437.46,66.9l1.1-7.4
	c0.32-2.66,2.57-4.74,5.32-4.74c1.51,0,2.86,0.62,3.84,1.62l2.79,2.34c0.96-0.75,2.08-1.3,3.31-1.59l1.44-8.19
	c0.43-2.55,2.63-4.5,5.3-4.5c2.97,0,5.39,2.41,5.39,5.39c0,0.32-0.07,0.94-0.07,0.94l-1.39,7.89c0,0,5.65,0,5.68,0
	c2.35,0,4.25,1.9,4.25,4.25c0,2.34-1.88,4.23-4.21,4.25l-2.81,0l1.74,9.89c0.27,1.54-0.76,3.01-2.3,3.28l-14.88,2.62
	c-1.54,0.27-3.01-0.76-3.28-2.3l-1.51-8.56h-5.55c-2.35,0-4.25-1.9-4.25-4.25C437.35,67.51,437.39,67.2,437.46,66.9z M428.08,130.97
	c2.35,0,4.25,1.9,4.25,4.25c0,2.34-1.88,4.23-4.21,4.25l-2.81,0l1.74,9.89c0.27,1.54-0.76,3.01-2.3,3.28l-14.88,2.62
	c-1.54,0.27-3.01-0.76-3.28-2.3l-1.51-8.56h-5.55c-2.35,0-4.25-1.9-4.25-4.25c0-0.32,0.04-0.63,0.11-0.93l1.1-7.4
	c0.32-2.66,2.57-4.74,5.32-4.74c1.51,0,2.86,0.62,3.84,1.62l2.79,2.34c0.96-0.75,2.08-1.3,3.31-1.59l1.44-8.19
	c0.43-2.55,2.63-4.5,5.3-4.5c2.97,0,5.39,2.41,5.39,5.39c0,0.32-0.07,0.94-0.07,0.94l-1.39,7.89
	C422.4,130.97,428.06,130.97,428.08,130.97z M386,86.05l1.1-7.4c0.32-2.66,2.57-4.74,5.32-4.74c1.51,0,2.86,0.62,3.84,1.62
	l2.79,2.34c0.96-0.75,2.08-1.3,3.31-1.59l1.44-8.19c0.43-2.55,2.63-4.5,5.3-4.5c2.97,0,5.39,2.41,5.39,5.39
	c0,0.32-0.07,0.94-0.07,0.94l-1.39,7.89c0,0,5.65,0,5.68,0c2.35,0,4.25,1.9,4.25,4.25c0,2.34-1.88,4.23-4.21,4.25l-2.81,0l1.74,9.89
	c0.27,1.54-0.76,3.01-2.3,3.28l-14.88,2.62c-1.54,0.27-3.01-0.76-3.28-2.3l-1.51-8.56h-5.55c-2.35,0-4.25-1.9-4.25-4.25
	C385.89,86.65,385.94,86.35,386,86.05z M381.87,27.77c1.57,0,2.83,1.27,2.83,2.83c0,1.57-1.27,2.83-2.83,2.83
	c-1.57,0-2.83-1.27-2.83-2.83C379.04,29.04,380.31,27.77,381.87,27.77z M381.62,102.81c4.07,0,7.37,3.3,7.37,7.37
	s-3.3,7.37-7.37,7.37s-7.37-3.3-7.37-7.37S377.55,102.81,381.62,102.81z M376.63,150.12c2.35,0,4.25,1.9,4.25,4.25
	c0,2.34-1.88,4.23-4.21,4.25l-2.81,0l1.74,9.89c0.27,1.54-0.76,3.01-2.3,3.28l-14.88,2.62c-1.54,0.27-3.01-0.76-3.28-2.3l-1.51-8.56
	h-5.55c-2.35,0-4.25-1.9-4.25-4.25c0-0.32,0.04-0.63,0.11-0.93l1.1-7.4c0.32-2.66,2.57-4.74,5.32-4.74c1.51,0,2.86,0.62,3.84,1.62
	l2.79,2.34c0.96-0.75,2.08-1.3,3.31-1.59l1.44-8.19c0.43-2.55,2.63-4.5,5.3-4.5c2.97,0,5.39,2.41,5.39,5.39
	c0,0.32-0.07,0.94-0.07,0.94l-1.39,7.89C370.95,150.12,376.6,150.12,376.63,150.12z M367.25,96.94c2.35,0,4.25,1.9,4.25,4.25
	c0,2.34-1.88,4.23-4.21,4.25l-2.81,0l1.74,9.89c0.27,1.54-0.76,3.01-2.3,3.28l-14.88,2.62c-1.54,0.27-3.01-0.76-3.28-2.3l-1.51-8.56
	h-5.55c-2.35,0-4.25-1.9-4.25-4.25c0-0.32,0.04-0.63,0.11-0.93l1.1-7.4c0.32-2.66,2.57-4.74,5.32-4.74c1.51,0,2.86,0.62,3.84,1.62
	l2.79,2.34c0.96-0.75,2.08-1.3,3.31-1.59l1.44-8.19c0.43-2.55,2.63-4.5,5.3-4.5c2.97,0,5.39,2.41,5.39,5.39
	c0,0.32-0.07,0.94-0.07,0.94l-1.39,7.89C361.57,96.94,367.22,96.94,367.25,96.94z M275.42,52.21l0.49-2.77
	c0.27-1.55,1.75-2.58,3.29-2.31l80.94,14.27c1.55,0.27,2.58,1.75,2.31,3.29l-0.49,2.77c-0.27,1.55-1.75,2.58-3.29,2.31L277.73,55.5
	C276.18,55.23,275.15,53.75,275.42,52.21z M326.31,229.28c0,4.07-3.3,7.37-7.37,7.37s-7.37-3.3-7.37-7.37s3.3-7.37,7.37-7.37
	S326.31,225.21,326.31,229.28z M310.16,71.55c0,1.57-1.27,2.83-2.83,2.83c-1.57,0-2.83-1.27-2.83-2.83c0-1.57,1.27-2.83,2.83-2.83
	C308.89,68.72,310.16,69.98,310.16,71.55z M275.44,63.05c1.57,0,2.83,1.27,2.83,2.83s-1.27,2.83-2.83,2.83s-2.83-1.27-2.83-2.83
	S273.88,63.05,275.44,63.05z M266.48,99.6c0.11-0.3,0.25-0.58,0.42-0.83l3.57-6.58c1.22-2.39,4.03-3.57,6.62-2.63
	c1.42,0.52,2.48,1.56,3.06,2.83l1.82,3.15c1.16-0.38,2.4-0.51,3.65-0.36l4.16-7.2c1.27-2.25,4.01-3.33,6.52-2.41
	c2.8,1.02,4.24,4.11,3.22,6.9c-0.11,0.3-0.39,0.85-0.39,0.85l-4,6.94c0,0,5.31,1.93,5.34,1.94c2.21,0.8,3.35,3.24,2.54,5.44
	c-0.8,2.19-3.22,3.33-5.41,2.55l-2.64-0.96l-1.75,9.89c-0.27,1.54-1.74,2.57-3.28,2.3l-14.88-2.62c-1.54-0.27-2.57-1.74-2.3-3.28
	l1.51-8.56l-5.22-1.9C266.81,104.25,265.68,101.81,266.48,99.6z M267.71,142.74c1.42,0.52,2.48,1.56,3.06,2.83l1.82,3.15
	c1.16-0.38,2.4-0.51,3.65-0.36l4.16-7.2c1.27-2.25,4.01-3.33,6.52-2.41c2.8,1.02,4.24,4.11,3.22,6.9c-0.11,0.3-0.39,0.85-0.39,0.85
	l-4,6.94c0,0,5.31,1.93,5.34,1.94c2.21,0.8,3.35,3.24,2.54,5.44c-0.8,2.19-3.22,3.33-5.41,2.55l-2.64-0.96l-1.75,9.89
	c-0.27,1.54-1.74,2.57-3.28,2.3l-14.88-2.62c-1.54-0.27-2.57-1.74-2.3-3.28l1.51-8.56l-5.22-1.9c-2.21-0.8-3.34-3.24-2.54-5.45
	c0.11-0.3,0.25-0.58,0.42-0.83l3.57-6.58C262.31,142.98,265.12,141.8,267.71,142.74z M263.63,110.17c0,4.07-3.3,7.37-7.37,7.37
	c-4.07,0-7.37-3.3-7.37-7.37s3.3-7.37,7.37-7.37C260.33,102.8,263.63,106.1,263.63,110.17z M215.02,80.46
	c0.11-0.3,0.25-0.58,0.42-0.83l3.57-6.58c1.22-2.39,4.03-3.57,6.62-2.63c1.42,0.52,2.48,1.56,3.06,2.83l1.82,3.15
	c1.16-0.38,2.4-0.51,3.65-0.36l4.16-7.2c1.27-2.25,4.01-3.33,6.52-2.41c2.8,1.02,4.24,4.11,3.22,6.9c-0.11,0.3-0.39,0.85-0.39,0.85
	l-4,6.94c0,0,5.31,1.93,5.34,1.94c2.21,0.8,3.35,3.24,2.54,5.44c-0.8,2.19-3.22,3.33-5.41,2.55l-2.64-0.96l-1.75,9.89
	c-0.27,1.54-1.74,2.57-3.28,2.3l-14.88-2.62c-1.54-0.27-2.57-1.74-2.3-3.28l1.51-8.56l-5.22-1.9
	C215.36,85.1,214.22,82.66,215.02,80.46z M205.65,133.64c0.11-0.3,0.25-0.58,0.42-0.83l3.57-6.58c1.22-2.39,4.03-3.57,6.62-2.63
	c1.42,0.52,2.48,1.56,3.06,2.83l1.82,3.15c1.16-0.38,2.4-0.51,3.65-0.36l4.16-7.2c1.27-2.25,4.01-3.33,6.52-2.41
	c2.8,1.02,4.24,4.11,3.22,6.9c-0.11,0.3-0.39,0.85-0.39,0.85l-4,6.94c0,0,5.31,1.93,5.34,1.94c2.21,0.8,3.35,3.24,2.54,5.44
	c-0.8,2.19-3.22,3.33-5.41,2.55l-2.64-0.96l-1.75,9.89c-0.27,1.54-1.74,2.57-3.28,2.3l-14.88-2.62c-1.54-0.27-2.57-1.74-2.3-3.28
	l1.51-8.56l-5.22-1.9C205.98,138.28,204.84,135.84,205.65,133.64z M163.56,61.31c0.11-0.3,0.25-0.58,0.42-0.83l3.57-6.58
	c1.22-2.39,4.03-3.57,6.62-2.63c1.42,0.52,2.48,1.56,3.06,2.83l1.82,3.15c1.16-0.38,2.4-0.51,3.65-0.36l4.16-7.2
	c1.27-2.25,4.01-3.33,6.52-2.41c2.8,1.02,4.24,4.11,3.22,6.9c-0.11,0.3-0.39,0.85-0.39,0.85l-4,6.94c0,0,5.31,1.93,5.34,1.94
	c2.21,0.8,3.35,3.24,2.54,5.44c-0.8,2.19-3.22,3.33-5.41,2.55l-2.64-0.96l-1.75,9.89c-0.27,1.54-1.74,2.57-3.28,2.3l-14.88-2.62
	c-1.54-0.27-2.57-1.74-2.3-3.28l1.51-8.56l-5.22-1.9C163.89,65.95,162.76,63.51,163.56,61.31z M156.72,119.94
	c-2.21-0.8-3.34-3.24-2.54-5.45c0.11-0.3,0.25-0.58,0.42-0.83l3.57-6.58c1.22-2.39,4.03-3.57,6.62-2.63
	c1.42,0.52,2.48,1.56,3.06,2.83l1.82,3.15c1.16-0.38,2.4-0.51,3.65-0.36l4.16-7.2c1.27-2.25,4.01-3.33,6.52-2.41
	c2.8,1.02,4.24,4.11,3.22,6.9c-0.11,0.3-0.39,0.85-0.39,0.85l-4,6.94c0,0,5.31,1.93,5.34,1.94c2.21,0.8,3.35,3.24,2.54,5.44
	c-0.8,2.19-3.22,3.33-5.41,2.55l-2.64-0.96l-1.75,9.89c-0.27,1.54-1.74,2.57-3.28,2.3l-14.88-2.62c-1.54-0.27-2.57-1.74-2.3-3.28
	l1.51-8.56L156.72,119.94z M96.74,74.72c4.07,0,7.37,3.3,7.37,7.37s-3.3,7.37-7.37,7.37c-4.07,0-7.37-3.3-7.37-7.37
	S92.67,74.72,96.74,74.72z M53.77,62.1c0.11-0.3,0.25-0.58,0.42-0.83l3.57-6.58c1.22-2.39,4.03-3.57,6.62-2.63
	c1.42,0.52,2.48,1.56,3.06,2.83l1.82,3.15c1.16-0.38,2.4-0.51,3.65-0.36l4.16-7.2c1.27-2.25,4.01-3.33,6.52-2.41
	c2.8,1.02,4.24,4.11,3.22,6.9c-0.11,0.3-0.39,0.85-0.39,0.85l-4,6.94c0,0,5.31,1.93,5.34,1.94c2.21,0.8,3.35,3.24,2.54,5.44
	c-0.8,2.19-3.22,3.33-5.41,2.55l-2.64-0.96l-1.75,9.89c-0.27,1.54-1.74,2.57-3.28,2.3L62.32,81.3c-1.54-0.27-2.57-1.74-2.3-3.28
	l1.51-8.56l-5.22-1.9C54.1,66.75,52.96,64.31,53.77,62.1z M44.39,115.28c0.11-0.3,0.25-0.58,0.42-0.83l3.57-6.58
	c1.22-2.39,4.03-3.57,6.62-2.63c1.42,0.52,2.48,1.56,3.06,2.83l1.82,3.15c1.16-0.38,2.4-0.51,3.65-0.36l4.16-7.2
	c1.27-2.25,4.01-3.33,6.52-2.41c2.8,1.02,4.24,4.11,3.22,6.9c-0.11,0.3-0.39,0.85-0.39,0.85l-4,6.94c0,0,5.31,1.93,5.34,1.94
	c1.6,0.58,2.63,2.02,2.77,3.61l17.55,3.09c1.54,0.27,2.57,1.74,2.3,3.28l-2.71,15.35c-0.27,1.54-1.74,2.57-3.28,2.3l-18.15-3.2
	c-1.54-0.27-2.57-1.74-2.3-3.28l0.13-0.73l-6.84-1.21c0,0,0,0-0.01,0l-14.88-2.62c-1.54-0.27-2.57-1.74-2.3-3.28l1.51-8.56
	l-5.22-1.9C44.73,119.93,43.59,117.49,44.39,115.28z M66.12,179.05l-2.64-0.96l-1.75,9.89c-0.27,1.54-1.74,2.57-3.28,2.3
	l-14.88-2.62c-1.54-0.27-2.57-1.74-2.3-3.28l1.51-8.56l-5.22-1.9c-2.21-0.8-3.34-3.24-2.54-5.45c0.11-0.3,0.25-0.58,0.42-0.83
	l3.57-6.58c1.22-2.39,4.03-3.57,6.62-2.63c1.42,0.52,2.48,1.56,3.06,2.83l1.82,3.15c1.16-0.38,2.4-0.51,3.65-0.36l4.16-7.2
	c1.27-2.25,4.01-3.33,6.52-2.41c2.8,1.02,4.24,4.11,3.22,6.9c-0.11,0.3-0.39,0.85-0.39,0.85l-4,6.94c0,0,5.31,1.93,5.34,1.94
	c2.21,0.8,3.35,3.24,2.54,5.44C70.73,178.69,68.31,179.83,66.12,179.05z M77.99,195.77c-4.07,0-7.37-3.3-7.37-7.37
	s3.3-7.37,7.37-7.37c4.07,0,7.37,3.3,7.37,7.37S82.06,195.77,77.99,195.77z M126.42,176.1c-0.8,2.19-3.22,3.33-5.41,2.55l-2.64-0.96
	l-1.75,9.89c-0.27,1.54-1.74,2.57-3.28,2.3l-14.88-2.62c-1.54-0.27-2.57-1.74-2.3-3.28l1.51-8.56l-5.22-1.9
	c-2.21-0.8-3.34-3.24-2.54-5.45c0.11-0.3,0.25-0.58,0.42-0.83l3.57-6.58c1.22-2.39,4.03-3.57,6.62-2.63
	c1.42,0.52,2.48,1.56,3.06,2.83l1.82,3.15c1.16-0.38,2.4-0.51,3.65-0.36l4.16-7.2c1.27-2.25,4.01-3.33,6.52-2.41
	c2.8,1.02,4.24,4.11,3.22,6.9c-0.11,0.3-0.39,0.85-0.39,0.85l-4,6.94c0,0,5.31,1.93,5.34,1.94
	C126.09,171.46,127.23,173.9,126.42,176.1z M135.8,122.92c-0.8,2.19-3.22,3.33-5.41,2.55l-2.64-0.96L126,134.4
	c-0.27,1.54-1.74,2.57-3.28,2.3l-14.88-2.62c-1.54-0.27-2.57-1.74-2.3-3.28l1.51-8.56l-5.22-1.9c-2.21-0.8-3.34-3.24-2.54-5.45
	c0.11-0.3,0.25-0.58,0.42-0.83l3.57-6.58c1.22-2.39,4.03-3.57,6.62-2.63c1.42,0.52,2.48,1.56,3.06,2.83l1.82,3.15
	c1.16-0.38,2.4-0.51,3.65-0.36l4.16-7.2c1.27-2.25,4.01-3.33,6.52-2.41c2.8,1.02,4.24,4.11,3.22,6.9c-0.11,0.3-0.39,0.85-0.39,0.85
	l-4,6.94c0,0,5.31,1.93,5.34,1.94C135.47,118.28,136.61,120.72,135.8,122.92z M137.42,92.72l1.4-7.95l-21.61-3.87
	c-1.54-0.27-2.57-1.74-2.3-3.28l1.51-8.56l-5.22-1.9c-2.21-0.8-3.34-3.24-2.54-5.45c0.11-0.3,0.25-0.58,0.42-0.83l3.57-6.58
	c1.22-2.39,4.03-3.57,6.62-2.63c1.42,0.52,2.48,1.56,3.06,2.83l1.82,3.15c1.16-0.38,2.4-0.51,3.65-0.36l4.16-7.2
	c1.27-2.25,4.01-3.33,6.52-2.41c2.8,1.02,4.24,4.11,3.22,6.9c-0.11,0.3-0.39,0.85-0.39,0.85l-4,6.94c0,0,5.31,1.93,5.34,1.94
	c1.39,0.5,2.35,1.65,2.68,2.98l0,0l1.81,8.43l14.44,2.55c1.54,0.27,2.57,1.74,2.3,3.28l-2.71,15.35c-0.27,1.54-1.74,2.57-3.28,2.3
	L139.72,96C138.18,95.73,137.15,94.26,137.42,92.72z M175.91,178.26l-2.64-0.96L171,190.33c0.54,0.62,0.81,1.46,0.66,2.34
	l-2.71,15.35c-0.27,1.54-1.74,2.57-3.28,2.3l-18.15-3.2c-1.54-0.27-2.57-1.74-2.3-3.28l2.71-15.35c0.24-1.35,1.39-2.3,2.71-2.34
	l1.93-11.13l-4.75-1.73c-1.63-0.59-2.9-1.99-3.18-3.71c-0.19-1.15,0.11-2.02,0.58-2.75l3.57-6.58c1.22-2.39,4.03-3.57,6.62-2.63
	c1.42,0.52,2.48,1.56,3.06,2.83l1.82,3.15c1.16-0.38,2.4-0.51,3.65-0.36l4.16-7.2c1.27-2.25,4.01-3.33,6.52-2.41
	c2.8,1.02,4.24,4.11,3.22,6.9c-0.11,0.3-0.39,0.85-0.39,0.85l-4,6.94c0,0,5.31,1.93,5.34,1.94c2.21,0.8,3.35,3.24,2.54,5.44
	C180.52,177.9,178.1,179.03,175.91,178.26z M188.86,228.2c-4.07,0-7.37-3.3-7.37-7.37s3.3-7.37,7.37-7.37c4.07,0,7.37,3.3,7.37,7.37
	S192.93,228.2,188.86,228.2z M202.52,202.73l1.51-8.56l-5.22-1.9c-2.21-0.8-3.34-3.24-2.54-5.45c0.11-0.3,0.25-0.58,0.42-0.83
	l3.57-6.58c1.22-2.39,4.03-3.57,6.62-2.63c1.42,0.52,2.48,1.56,3.06,2.83l1.82,3.15c1.16-0.38,2.4-0.51,3.65-0.36l4.16-7.2
	c1.27-2.25,4.01-3.33,6.52-2.41c2.8,1.02,4.24,4.11,3.22,6.9c-0.11,0.3-0.39,0.85-0.39,0.85l-4,6.94c0,0,5.31,1.93,5.34,1.94
	c2.21,0.8,3.35,3.24,2.54,5.44c-0.8,2.19-3.22,3.33-5.41,2.55l-2.64-0.96l-1.75,9.89c-0.27,1.54-1.74,2.57-3.28,2.3l-14.88-2.62
	C203.28,205.74,202.25,204.27,202.52,202.73z M248.33,270.89c-0.99,2.12-3.49,3.04-5.61,2.07l-2.55-1.19l-2.6,9.7
	c-0.41,1.51-1.96,2.41-3.47,2l-14.6-3.91c-1.51-0.41-2.41-1.96-2-3.47l2.25-8.4l-5.03-2.35c-2.13-0.99-3.05-3.52-2.06-5.65
	c0.13-0.29,0.3-0.55,0.49-0.79l4.13-6.24c1.42-2.28,4.33-3.21,6.82-2.04c1.37,0.64,2.33,1.77,2.8,3.09l1.54,3.3
	c1.19-0.28,2.44-0.3,3.67-0.04l4.77-6.81c1.46-2.13,4.28-2.97,6.7-1.84c2.7,1.26,3.86,4.46,2.61,7.16
	c-0.14,0.29-0.46,0.82-0.46,0.82l-4.59,6.56c0,0,5.12,2.39,5.15,2.4C248.4,266.24,249.32,268.76,248.33,270.89z M247.73,205.96
	c0.11-0.3,0.25-0.58,0.42-0.83l3.57-6.58c1.22-2.39,4.03-3.57,6.62-2.63c1.42,0.52,2.48,1.56,3.06,2.83l1.82,3.15
	c1.16-0.38,2.4-0.51,3.65-0.36l4.16-7.2c1.27-2.25,4.01-3.33,6.52-2.41c2.8,1.02,4.24,4.11,3.22,6.9c-0.11,0.3-0.39,0.85-0.39,0.85
	l-4,6.94c0,0,5.31,1.93,5.34,1.94c2.21,0.8,3.35,3.24,2.54,5.44c-0.8,2.19-3.22,3.33-5.41,2.55l-2.64-0.96l-1.75,9.89
	c-0.27,1.54-1.74,2.57-3.28,2.3l-14.88-2.62c-1.54-0.27-2.57-1.74-2.3-3.28l1.51-8.56l-5.22-1.9
	C248.06,210.61,246.92,208.17,247.73,205.96z M385.05,253.57c0,1.57-1.27,2.83-2.83,2.83h-23.66l-0.03,2.49l0,0
	c-0.01,0.26-0.03,0.52-0.07,0.78c-0.06,0.31-0.24,0.91-0.24,0.91l-2.74,7.53c0,0,5.57,0.98,5.59,0.98c2.03,0.36,3.47,2.1,3.51,4.09
	h0v5.42h15.88c1.57,0,2.83,1.27,2.83,2.83v2.83c0,1.57-1.27,2.83-2.83,2.83h-20.43c-0.06,2.66-0.12,5.25-0.17,6.14
	c-0.13,2.41-2.27,4.23-4.68,4.23h-5.01c-2.47,0-4.47-2-4.47-4.47v-3.14h-29.14c-1,2.16-3.33,3.48-5.78,3.04
	c-1.8-0.32-3.23-1.5-3.95-3.04h-14.63V293c0,2.47-2,4.47-4.47,4.47h-5.04c-2.33,0-4.42-1.71-4.64-4.03
	c-0.16-1.65-0.41-4.45-0.59-6.33h-20.14c-1.57,0-2.83-1.27-2.83-2.83v-2.83c0-1.57,1.27-2.83,2.83-2.83h14.91l1.21-7.06l2.37-7.1
	c0.11-0.37,3.29-7.56,3.29-7.56h-23.42c-1.57,0-2.83-1.27-2.83-2.83v-15.59c0-1.57,1.27-2.83,2.83-2.83h18.43
	c1.57,0,2.83,1.27,2.83,2.83V241h8.17c3.23,0,5.85,2.62,5.85,5.85v6.52h8c0.37-0.01,0.75,0,1.13,0.07c1.8,0.32,3.23,1.5,3.95,3.04
	h42.9v-9.63c0-3.23,2.62-5.85,5.85-5.85h8.18v-3.02c0-1.57,1.27-2.83,2.83-2.83h18.43c1.57,0,2.83,1.27,2.83,2.83V253.57z
	 M383.23,211.79l1.74,9.89c0.27,1.54-0.76,3.01-2.3,3.28l-14.88,2.62c-1.54,0.27-3.01-0.76-3.28-2.3l-1.51-8.56h-5.55
	c-2.35,0-4.25-1.9-4.25-4.25c0-0.32,0.04-0.63,0.11-0.93l1.1-7.4c0.32-2.66,2.57-4.74,5.32-4.74c1.51,0,2.86,0.62,3.84,1.62
	l2.79,2.34c0.96-0.75,2.08-1.3,3.31-1.59l1.44-8.19c0.43-2.55,2.63-4.5,5.3-4.5c2.97,0,5.39,2.41,5.39,5.39
	c0,0.32-0.07,0.94-0.07,0.94l-1.39,7.89c0,0,5.65,0,5.68,0c2.35,0,4.25,1.9,4.25,4.25c0,2.34-1.88,4.23-4.21,4.25L383.23,211.79z
	 M421.63,265.86l-2.8,0.24l2.6,9.7c0.41,1.51-0.49,3.07-2,3.47l-14.6,3.91c-1.51,0.41-3.07-0.49-3.47-2l-2.25-8.4l-5.53,0.48
	c-2.34,0.2-4.4-1.53-4.61-3.87c-0.03-0.32-0.01-0.63,0.03-0.93l0.45-7.47c0.09-2.68,2.15-4.94,4.89-5.18
	c1.5-0.13,2.91,0.37,3.97,1.28l2.98,2.09c0.89-0.84,1.96-1.48,3.16-1.87l0.72-8.28c0.2-2.58,2.22-4.71,4.88-4.94
	c2.96-0.26,5.58,1.93,5.83,4.9c0.03,0.32,0.01,0.94,0.01,0.94l-0.7,7.98c0,0,5.63-0.49,5.66-0.5c2.34-0.2,4.4,1.52,4.61,3.86
	C425.66,263.59,423.95,265.64,421.63,265.86z M437.5,192.65l-2.81,0l1.74,9.89c0.27,1.54-0.76,3.01-2.3,3.28l-14.88,2.62
	c-1.54,0.27-3.01-0.76-3.28-2.3l-1.51-8.56h-5.55c-2.35,0-4.25-1.9-4.25-4.25c0-0.32,0.04-0.63,0.11-0.93l1.1-7.4
	c0.32-2.66,2.57-4.74,5.32-4.74c1.51,0,2.86,0.62,3.84,1.62l2.79,2.34c0.96-0.75,2.08-1.3,3.31-1.59l1.44-8.19
	c0.43-2.55,2.63-4.5,5.3-4.5c2.97,0,5.39,2.41,5.39,5.39c0,0.32-0.07,0.94-0.07,0.94l-1.39,7.89c0,0,5.65,0,5.68,0
	c2.35,0,4.25,1.9,4.25,4.25C441.71,190.73,439.83,192.63,437.5,192.65z M449.03,228.19c-4.07,0-7.37-3.3-7.37-7.37
	s3.3-7.37,7.37-7.37s7.37,3.3,7.37,7.37S453.1,228.19,449.03,228.19z M488.61,186.43c0.68,0.41,1.19,1.09,1.34,1.93l2.71,15.35
	c0.27,1.54-0.76,3.01-2.3,3.28l-18.15,3.2c-1.54,0.27-3.01-0.76-3.28-2.3l-2.71-15.35c-0.24-1.37,0.54-2.67,1.79-3.14l-2.11-10.97
	h-5.05c-1.74,0-3.41-0.88-4.25-2.4c-0.57-1.02-0.58-1.94-0.4-2.78l1.1-7.4c0.32-2.66,2.57-4.74,5.32-4.74
	c1.51,0,2.86,0.62,3.84,1.62l2.79,2.34c0.96-0.75,2.08-1.3,3.31-1.59l1.44-8.19c0.43-2.55,2.63-4.5,5.3-4.5
	c2.97,0,5.39,2.41,5.39,5.39c0,0.32-0.07,0.94-0.07,0.94l-1.39,7.89c0,0,5.65,0,5.68,0c2.35,0,4.25,1.9,4.25,4.25
	c0,2.34-1.88,4.23-4.21,4.25l-2.81,0L488.61,186.43z M498.19,96.24l-14.22,2.51l-6.72,1.18l-2,4.01l-1.39,7.89c0,0,5.65,0,5.68,0
	c2.35,0,4.25,1.9,4.25,4.25c0,2.34-1.88,4.23-4.21,4.25l-2.81,0l1.74,9.89c0.27,1.54-0.76,3.01-2.3,3.28l-14.88,2.62
	c-1.54,0.27-3.01-0.76-3.28-2.3l-1.51-8.56h-5.55c-2.35,0-4.25-1.9-4.25-4.25c0-0.32,0.04-0.63,0.11-0.93l1.1-7.4
	c0.32-2.66,2.57-4.74,5.32-4.74c1.51,0,2.86,0.62,3.84,1.62l2.79,2.34c0.96-0.75,2.08-1.3,3.31-1.59l1.44-8.19
	c0.43-2.55,2.63-4.5,5.3-4.5c0,0,0.01,0,0.01,0l6.68-1.18l-2.58-14.66c-0.27-1.54,0.76-3.01,2.3-3.28l17.14-3.02l-1.1-6.24
	c-0.04-0.15-0.06-0.3-0.08-0.45l-0.01-0.08l0.01,0c-0.02-0.16-0.05-0.32-0.05-0.49c0-0.32,0.04-0.63,0.11-0.93l1.1-7.4
	c0.32-2.66,2.57-4.74,5.32-4.74c1.51,0,2.86,0.62,3.84,1.62l2.79,2.34c0.96-0.75,2.08-1.3,3.31-1.59l1.44-8.19
	c0.43-2.55,2.63-4.5,5.3-4.5c2.97,0,5.39,2.41,5.39,5.39c0,0.32-0.07,0.94-0.07,0.94l-1.39,7.89c0,0,5.65,0,5.68,0
	c2.35,0,4.25,1.9,4.25,4.25c0,2.34-1.88,4.23-4.21,4.25l-2.81,0l1.74,9.89c0.27,1.54-0.76,3.01-2.3,3.28l-14.88,2.62
	c-0.04,0.01-0.09,0-0.13,0.01l-7.69,1.36l1.46,8.26C500.76,94.5,499.73,95.97,498.19,96.24z M501.63,121.4
	c0-0.32,0.04-0.63,0.11-0.93l1.1-7.4c0.32-2.66,2.57-4.74,5.32-4.74c1.51,0,2.86,0.62,3.84,1.62l2.79,2.34
	c0.96-0.75,2.08-1.3,3.31-1.59l1.44-8.19c0.43-2.55,2.63-4.5,5.3-4.5c2.97,0,5.39,2.41,5.39,5.39c0,0.32-0.07,0.94-0.07,0.94
	l-1.39,7.89c0,0,5.65,0,5.68,0c2.33,0,4.21,1.87,4.25,4.18l0.01,0l1.48,8.39l16.37-2.89c0-0.04,1.2-8.44,1.2-8.44
	c0.32-2.66,2.57-4.74,5.32-4.74c1.51,0,2.86,0.62,3.84,1.62l2.79,2.34c0.96-0.75,2.08-1.3,3.31-1.59l1.44-8.19
	c0.43-2.55,2.63-4.5,5.3-4.5c2.97,0,5.39,2.41,5.39,5.39c0,0.32-0.07,0.94-0.07,0.94l-1.39,7.89c0,0,5.65,0,5.68,0
	c2.35,0,4.25,1.9,4.25,4.25c0,2.34-1.88,4.23-4.21,4.25l-2.81,0l1.74,9.89c0.27,1.54-0.76,3.01-2.3,3.28l-22.75,4.01l0.19,1.1
	c0.27,1.54-0.76,3.01-2.3,3.28l-18.15,3.2c-1.54,0.27-3.01-0.76-3.28-2.3l-1.92-10.89l-21.58,3.83c-1.54,0.27-3.01-0.76-3.28-2.3
	l-1.51-8.56h-5.55C503.53,125.65,501.63,123.75,501.63,121.4z M543.86,173.89l-2.81,0l1.74,9.89c0.27,1.54-0.76,3.01-2.3,3.28
	l-14.88,2.62c-1.54,0.27-3.01-0.76-3.28-2.3l-1.51-8.56h-5.55c-2.35,0-4.25-1.9-4.25-4.25c0-0.32,0.04-0.63,0.11-0.93l1.1-7.4
	c0.32-2.66,2.57-4.74,5.32-4.74c1.51,0,2.86,0.62,3.84,1.62l2.79,2.34c0.96-0.75,2.08-1.3,3.31-1.59l1.44-8.19
	c0.43-2.55,2.63-4.5,5.3-4.5c2.97,0,5.39,2.41,5.39,5.39c0,0.32-0.07,0.94-0.07,0.94l-1.39,7.89c0,0,5.65,0,5.68,0
	c2.35,0,4.25,1.9,4.25,4.25C548.07,171.98,546.19,173.87,543.86,173.89z M559.9,195.76c-4.07,0-7.37-3.3-7.37-7.37
	c0-4.07,3.3-7.37,7.37-7.37c4.07,0,7.37,3.3,7.37,7.37C567.27,192.46,563.97,195.76,559.9,195.76z M598.76,174.29l-2.81,0l1.74,9.89
	c0.27,1.54-0.76,3.01-2.3,3.28l-14.88,2.62c-1.54,0.27-3.01-0.76-3.28-2.3l-1.51-8.56h-5.55c-2.35,0-4.25-1.9-4.25-4.25
	c0-0.32,0.04-0.63,0.11-0.93l1.1-7.4c0.32-2.66,2.57-4.74,5.32-4.74c1.51,0,2.86,0.62,3.84,1.62l2.79,2.34
	c0.96-0.75,2.08-1.3,3.31-1.59l1.44-8.19c0.43-2.55,2.63-4.5,5.3-4.5c2.97,0,5.39,2.41,5.39,5.39c0,0.32-0.07,0.94-0.07,0.94
	l-1.39,7.89c0,0,5.65,0,5.68,0c2.35,0,4.25,1.9,4.25,4.25C602.97,172.37,601.09,174.27,598.76,174.29z"/>
</svg>
