<svg xmlns="http://www.w3.org/2000/svg" viewBox="0 0 743.069 350.673"><defs><style>.cls-1{fill:none;stroke:#000;stroke-miterlimit:10;stroke-width:0.25px;}.cls-2{fill:red;}.cls-3{font-size:14px;font-family:Arial-BoldMT, Arial;font-weight:700;}</style></defs><g id="cut"><path class="cls-1" d="M753.988,36.583H33.846A11.339,11.339,0,0,0,22.508,47.922V349.565A11.339,11.339,0,0,0,33.846,360.9H753.988a11.339,11.339,0,0,0,11.338-11.339V47.922A11.339,11.339,0,0,0,753.988,36.583Zm-.284,8.664a2.977,2.977,0,1,1-2.976,2.976A2.976,2.976,0,0,1,753.7,45.247ZM34.13,352.258a2.977,2.977,0,1,1,2.976-2.976A2.977,2.977,0,0,1,34.13,352.258Zm0-150.538a2.977,2.977,0,1,1,2.976-2.977A2.977,2.977,0,0,1,34.13,201.72Zm0-150.52a2.977,2.977,0,1,1,2.976-2.977A2.977,2.977,0,0,1,34.13,51.2Zm35.685,72.88a2.835,2.835,0,0,1-2.835,2.835H49.972a2.834,2.834,0,0,1-2.834-2.835v-9.638a2.834,2.834,0,0,1,2.834-2.834H66.98a2.834,2.834,0,0,1,2.835,2.834Zm200.3,228.178a2.977,2.977,0,1,1,2.976-2.976A2.977,2.977,0,0,1,270.114,352.258Zm0-301.058a2.977,2.977,0,1,1,2.976-2.977A2.977,2.977,0,0,1,270.114,51.2ZM517.72,352.258a2.977,2.977,0,1,1,2.976-2.976A2.976,2.976,0,0,1,517.72,352.258Zm0-301.058a2.977,2.977,0,1,1,2.976-2.977A2.976,2.976,0,0,1,517.72,51.2ZM753.7,352.258a2.977,2.977,0,1,1,2.977-2.976A2.976,2.976,0,0,1,753.7,352.258Zm0-150.538a2.977,2.977,0,1,1,2.976-2.977A2.976,2.976,0,0,1,753.706,201.72Z" transform="translate(-22.383 -10.355)"/></g><g id="graving"><path class="cls-2" d="M655.784,325.94V309.8h3.893q2.542,0,3.242.578t.7,2.761v1.67a5.292,5.292,0,0,1-.345,2.349,2.223,2.223,0,0,1-1.247.912,2.037,2.037,0,0,1,1.233.831,3.479,3.479,0,0,1,.359,1.79v5.252h-3.427V320.4a1.01,1.01,0,0,0-.165-.679.844.844,0,0,0-.621-.175h-.2v6.4Zm4.407-10.455v-2.213a1.214,1.214,0,0,0-.136-.738.8.8,0,0,0-.553-.136h-.3v4.136q.058,0,.165.009c.072.007.123.01.156.01a.785.785,0,0,0,.528-.131.673.673,0,0,0,.141-.5Z" transform="translate(-22.383 -10.355)"/><path class="cls-2" d="M664.987,325.94V309.8h5.426v2.6h-2.029v3.359h2.029v2.631h-2.029v4.931h2.029v2.621Z" transform="translate(-22.383 -10.355)"/><path class="cls-2" d="M673.17,325.94,671.064,309.8h3.222l.777,10.736.8-10.736h3.213l-2.126,16.143Z" transform="translate(-22.383 -10.355)"/><path class="cls-2" d="M679.81,325.94V309.8h3.4V325.94Z" transform="translate(-22.383 -10.355)"/><path class="cls-2" d="M684.586,309.8H688V322.62a1.24,1.24,0,0,0,.111.616.417.417,0,0,0,.384.18.5.5,0,0,0,.369-.13.537.537,0,0,0,.126-.384V309.8h3.417v12.92q0,2.205-.655,2.771t-3.257.569q-2.631,0-3.271-.583t-.641-2.757Z" transform="translate(-22.383 -10.355)"/><path class="cls-2" d="M693.788,325.94V309.8h3.175l1.7,8.27V309.8h2.961V325.94h-3.184l-1.708-7.911v7.911Z" transform="translate(-22.383 -10.355)"/><path class="cls-2" d="M702.991,313.039q0-2.243.655-2.791t3.238-.548q2.649,0,3.29.582t.641,2.757v2.242H707.4v-2.145a1.192,1.192,0,0,0-.122-.645.491.491,0,0,0-.431-.17.371.371,0,0,0-.34.151,1.441,1.441,0,0,0-.1.664V322.6a1.24,1.24,0,0,0,.111.616.417.417,0,0,0,.384.18.479.479,0,0,0,.369-.136.537.537,0,0,0,.126-.379v-2.63h-.631v-2.6h4.048v8.29H709.31l-.621-1.077a2.972,2.972,0,0,1-1.1.936,4.186,4.186,0,0,1-1.66.258,3.266,3.266,0,0,1-2.325-.627,4.134,4.134,0,0,1-.616-2.732Z" transform="translate(-22.383 -10.355)"/><path class="cls-2" d="M712.1,319.184h3.417v3.378a1.227,1.227,0,0,0,.112.616.416.416,0,0,0,.383.18.476.476,0,0,0,.369-.136.537.537,0,0,0,.127-.379v-4.911a1.2,1.2,0,0,0-.122-.646.5.5,0,0,0-.432-.17.388.388,0,0,0-.31.132.6.6,0,0,0-.136.363H712.1V309.8h7.514v2.563h-4.1v2.465a3.162,3.162,0,0,1,2.049-.718,2.162,2.162,0,0,1,1.781.709,3.4,3.4,0,0,1,.578,2.174v5.65q0,2.221-.666,2.8t-3.247.577q-2.611,0-3.261-.592t-.651-2.786Z" transform="translate(-22.383 -10.355)"/><path class="cls-2" d="M721.2,319.737h3.417v2.825a1.24,1.24,0,0,0,.111.616.417.417,0,0,0,.384.18.479.479,0,0,0,.369-.136.537.537,0,0,0,.126-.379v-3.125a1.078,1.078,0,0,0-.208-.695.7.7,0,0,0-.569-.257h-1.194v-2.9h1.194a.8.8,0,0,0,.612-.185,1.774,1.774,0,0,0,.165-.99v-1.5a1.291,1.291,0,0,0-.111-.64.42.42,0,0,0-.384-.175.444.444,0,0,0-.384.155,1.284,1.284,0,0,0-.111.66v1.573H721.2v-1.689q0-2.262.674-2.82t3.219-.558q2.591,0,3.261.592t.67,2.786v1.233a4.48,4.48,0,0,1-.355,2.072,2.228,2.228,0,0,1-1.227.966,2.28,2.28,0,0,1,1.247.893,4.562,4.562,0,0,1,.335,2.116v2.282q0,2.221-.665,2.8t-3.247.577q-2.611,0-3.262-.592t-.65-2.786Z" transform="translate(-22.383 -10.355)"/><path class="cls-2" d="M751.3,39.418H36.538a11.2,11.2,0,0,0-11.2,11.2V346.873a11.2,11.2,0,0,0,11.2,11.2H751.3a11.2,11.2,0,0,0,11.2-11.2V50.614A11.2,11.2,0,0,0,751.3,39.418Zm2.408,4.27a4.536,4.536,0,1,1-4.535,4.535A4.535,4.535,0,0,1,753.7,43.688ZM145.555,69.742h605.6v4.8h-605.6a.709.709,0,0,0,0,1.418h605.6v4.8h-605.6a.709.709,0,0,0,0,1.418h605.6v4.8h-605.6a.708.708,0,0,0-.708.708h0a.708.708,0,0,0,.708.709h605.6v4.8h-605.6a.708.708,0,0,0-.708.708h0a.708.708,0,0,0,.708.709h605.6v4.8h-605.6a.709.709,0,0,0,0,1.417h605.6v4.8H36.681v-4.8H64.768a.709.709,0,0,0,0-1.417H36.681v-4.8H64.768a.708.708,0,0,0,.708-.709h0a.708.708,0,0,0-.708-.708H36.681v-4.8H64.768a.708.708,0,0,0,.708-.709h0a.708.708,0,0,0-.708-.708H36.681v-4.8H64.768a.709.709,0,0,0,0-1.418H36.681v-4.8H64.768a.709.709,0,0,0,0-1.418H36.681v-4.8H64.768a.709.709,0,0,0,0-1.418H36.681v-4.8H751.153v4.8h-605.6a.709.709,0,0,0,0,1.418ZM36.681,62.1V57.3H751.153v4.8Zm228.9-13.88a4.536,4.536,0,1,1,8.3,2.533H513.958a4.535,4.535,0,1,1,7.524,0h224a5.67,5.67,0,0,1,5.642,5.126H36.708a5.669,5.669,0,0,1,5.642-5.126h224A4.506,4.506,0,0,1,265.578,48.223ZM34.13,43.688a4.536,4.536,0,1,1-4.536,4.535A4.535,4.535,0,0,1,34.13,43.688Zm0,310.129a4.536,4.536,0,1,1,4.535-4.535A4.536,4.536,0,0,1,34.13,353.817Zm617.03-30.635H36.681v-4.816H651.16a.709.709,0,1,0,0-1.417H36.681v-4.816H651.16a.709.709,0,1,0,0-1.417H36.681V305.9H751.153v4.816h-17.49a.709.709,0,0,0,0,1.417h17.49v4.816h-17.49a.709.709,0,0,0,0,1.417h17.49v4.816h-17.49a.709.709,0,0,0,0,1.417h17.49v4.816H36.681V324.6H651.16a.709.709,0,1,0,0-1.417ZM107.811,293.434a7.6,7.6,0,0,0,3.208.712h565.8a7.6,7.6,0,0,0,3.208-.712h71.13v4.816H36.681v-4.816Zm-71.13-1.417V287.2H103.4a7.627,7.627,0,0,0,2.33,4.816Zm645.422,0a7.621,7.621,0,0,0,2.329-4.816h66.721v4.816Zm69.05,7.65v4.816H36.681v-4.816Zm0,31.165v4.816H36.681v-4.816Zm0,6.233v4a5.693,5.693,0,0,1-.066.82H36.747a5.693,5.693,0,0,1-.066-.82v-4Zm-228.9,12.217a4.535,4.535,0,1,1-8.283-2.552H273.862a4.536,4.536,0,1,1-7.5,0H42.35a5.67,5.67,0,0,1-5.209-3.432H750.693a5.67,5.67,0,0,1-5.209,3.432H521.468A4.512,4.512,0,0,1,522.255,349.282ZM753.7,353.817a4.536,4.536,0,1,1,4.536-4.535A4.535,4.535,0,0,1,753.7,353.817Zm0-150.538a4.512,4.512,0,0,1-2.553-.789v83.294H684.432a7.652,7.652,0,0,0-7.617-6.945h-565.8a7.654,7.654,0,0,0-7.618,6.945H36.681V202.491a4.535,4.535,0,1,1,0-7.5V119.51h6.932a.709.709,0,1,0,0-1.417H36.681v-4.8h6.932a.709.709,0,1,0,0-1.417H36.681v-4.8H751.153v4.8H680.048a7.607,7.607,0,0,0-3.233-.724h-565.8a7.6,7.6,0,0,0-3.233.724H73.377a.709.709,0,0,0,0,1.417h32.341a7.629,7.629,0,0,0-2.317,4.8H73.377a.709.709,0,0,0,0,1.417H103.4a7.652,7.652,0,0,0,7.618,6.945h565.8a7.651,7.651,0,0,0,7.617-6.945h66.721V195a4.535,4.535,0,1,1,2.553,8.282Zm-2.553-89.99v4.8H684.432a7.623,7.623,0,0,0-2.316-4.8Z" transform="translate(-22.383 -10.355)"/></g><g id="note"><text class="cls-3" transform="translate(528.475 12.891)"><tspan xml:space="preserve">W : 262.05 mm  H : 114.413 mm</tspan></text><path class="cls-2" d="M27.482,22V10.551h4.867a8.353,8.353,0,0,1,2.668.308,2.631,2.631,0,0,1,1.332,1.1,3.3,3.3,0,0,1,.5,1.8,3.056,3.056,0,0,1-.758,2.129,3.638,3.638,0,0,1-2.265,1.059,5.412,5.412,0,0,1,1.238.961,13.126,13.126,0,0,1,1.316,1.859L37.779,22H35.013l-1.672-2.493a16.27,16.27,0,0,0-1.218-1.683,1.777,1.777,0,0,0-.7-.477,3.806,3.806,0,0,0-1.164-.129H29.8V22Zm2.313-6.61h1.71a8.9,8.9,0,0,0,2.079-.14,1.246,1.246,0,0,0,.648-.485,1.491,1.491,0,0,0,.234-.859,1.38,1.38,0,0,0-.308-.934,1.424,1.424,0,0,0-.871-.449Q33,12.488,31.6,12.488H29.8Z" transform="translate(-22.383 -10.355)"/><path class="cls-2" d="M43.818,19.363l2.187.367a3.585,3.585,0,0,1-1.332,1.832,3.906,3.906,0,0,1-2.277.629,3.71,3.71,0,0,1-3.2-1.414,4.748,4.748,0,0,1-.82-2.859,4.582,4.582,0,0,1,1.078-3.231,3.552,3.552,0,0,1,2.726-1.168A3.683,3.683,0,0,1,45.1,14.742a5.409,5.409,0,0,1,1.024,3.746h-5.5a2.217,2.217,0,0,0,.531,1.52,1.66,1.66,0,0,0,1.266.543,1.344,1.344,0,0,0,.867-.282A1.736,1.736,0,0,0,43.818,19.363Zm.125-2.219a2.119,2.119,0,0,0-.492-1.449,1.585,1.585,0,0,0-2.328.027,2.023,2.023,0,0,0-.461,1.422Z" transform="translate(-22.383 -10.355)"/><path class="cls-2" d="M55.521,22H53.482V20.785a3.3,3.3,0,0,1-1.2,1.059,3.087,3.087,0,0,1-1.4.347,3.161,3.161,0,0,1-2.449-1.152,4.686,4.686,0,0,1-1.019-3.215,4.631,4.631,0,0,1,.992-3.207,3.236,3.236,0,0,1,2.508-1.1,3.108,3.108,0,0,1,2.406,1.157V10.551h2.2Zm-5.859-4.328a3.792,3.792,0,0,0,.367,1.921,1.657,1.657,0,0,0,1.484.86,1.615,1.615,0,0,0,1.289-.645,2.974,2.974,0,0,0,.532-1.926,3.252,3.252,0,0,0-.516-2.058A1.633,1.633,0,0,0,51.5,15.2a1.651,1.651,0,0,0-1.309.621A2.811,2.811,0,0,0,49.662,17.676Z" transform="translate(-22.383 -10.355)"/><path class="cls-2" d="M63.771,16.238l-1.992-.359A3.106,3.106,0,0,1,62.935,14.1a4.237,4.237,0,0,1,2.438-.578,5.262,5.262,0,0,1,2.187.348,2.182,2.182,0,0,1,1.012.883,4.531,4.531,0,0,1,.293,1.965l-.024,2.562a8.9,8.9,0,0,0,.106,1.613A4.721,4.721,0,0,0,69.341,22H67.17q-.087-.219-.211-.649c-.037-.13-.063-.216-.079-.258a3.948,3.948,0,0,1-1.2.821,3.447,3.447,0,0,1-1.367.273,2.824,2.824,0,0,1-2.019-.7,2.309,2.309,0,0,1-.739-1.758,2.358,2.358,0,0,1,.336-1.254,2.2,2.2,0,0,1,.942-.844,7.366,7.366,0,0,1,1.746-.511,11.967,11.967,0,0,0,2.133-.539v-.219a1.136,1.136,0,0,0-.313-.9,1.869,1.869,0,0,0-1.18-.27,1.578,1.578,0,0,0-.914.23A1.608,1.608,0,0,0,63.771,16.238Zm2.938,1.781a13.672,13.672,0,0,1-1.336.336,4.052,4.052,0,0,0-1.2.383.916.916,0,0,0-.429.773,1.074,1.074,0,0,0,.343.8,1.2,1.2,0,0,0,.875.336,1.9,1.9,0,0,0,1.133-.39,1.377,1.377,0,0,0,.524-.727,4.343,4.343,0,0,0,.086-1.07Z" transform="translate(-22.383 -10.355)"/><path class="cls-2" d="M73.13,22H70.935v-8.3h2.039v1.179a3.541,3.541,0,0,1,.942-1.1,1.729,1.729,0,0,1,.949-.266,2.787,2.787,0,0,1,1.445.414l-.68,1.914a1.929,1.929,0,0,0-1.031-.359,1.219,1.219,0,0,0-.781.254,1.732,1.732,0,0,0-.5.918,13.061,13.061,0,0,0-.184,2.781Z" transform="translate(-22.383 -10.355)"/><path class="cls-2" d="M82.06,19.363l2.188.367a3.6,3.6,0,0,1-1.332,1.832,3.911,3.911,0,0,1-2.278.629,3.711,3.711,0,0,1-3.2-1.414,4.748,4.748,0,0,1-.82-2.859,4.582,4.582,0,0,1,1.078-3.231,3.553,3.553,0,0,1,2.727-1.168,3.681,3.681,0,0,1,2.921,1.223,5.409,5.409,0,0,1,1.024,3.746h-5.5a2.217,2.217,0,0,0,.531,1.52,1.66,1.66,0,0,0,1.266.543,1.342,1.342,0,0,0,.867-.282A1.736,1.736,0,0,0,82.06,19.363Zm.125-2.219a2.114,2.114,0,0,0-.492-1.449,1.585,1.585,0,0,0-2.328.027,2.028,2.028,0,0,0-.461,1.422Z" transform="translate(-22.383 -10.355)"/><path class="cls-2" d="M87.8,16.238,85.8,15.879A3.108,3.108,0,0,1,86.959,14.1a4.231,4.231,0,0,1,2.437-.578,5.271,5.271,0,0,1,2.188.348,2.179,2.179,0,0,1,1.011.883,4.515,4.515,0,0,1,.293,1.965l-.023,2.562a8.923,8.923,0,0,0,.105,1.613A4.727,4.727,0,0,0,93.365,22H91.193q-.087-.219-.211-.649c-.037-.13-.062-.216-.078-.258a3.948,3.948,0,0,1-1.2.821,3.451,3.451,0,0,1-1.367.273,2.825,2.825,0,0,1-2.02-.7,2.312,2.312,0,0,1-.738-1.758,2.358,2.358,0,0,1,.336-1.254,2.193,2.193,0,0,1,.941-.844,7.366,7.366,0,0,1,1.746-.511,11.967,11.967,0,0,0,2.133-.539v-.219a1.136,1.136,0,0,0-.312-.9,1.873,1.873,0,0,0-1.18-.27,1.575,1.575,0,0,0-.914.23A1.6,1.6,0,0,0,87.8,16.238Zm2.937,1.781a13.6,13.6,0,0,1-1.336.336,4.042,4.042,0,0,0-1.2.383.914.914,0,0,0-.43.773,1.072,1.072,0,0,0,.344.8,1.2,1.2,0,0,0,.875.336,1.907,1.907,0,0,0,1.133-.39,1.375,1.375,0,0,0,.523-.727,4.343,4.343,0,0,0,.086-1.07Z" transform="translate(-22.383 -10.355)"/><path class="cls-2" d="M99.5,12.582V10.551h2.195v2.031ZM99.5,22v-8.3h2.195V22Z" transform="translate(-22.383 -10.355)"/><path class="cls-2" d="M103.17,19.636l2.2-.335a1.605,1.605,0,0,0,.57.972,1.921,1.921,0,0,0,1.2.332,2.174,2.174,0,0,0,1.281-.312.7.7,0,0,0,.289-.586.576.576,0,0,0-.156-.414,1.755,1.755,0,0,0-.734-.289,11.8,11.8,0,0,1-3.367-1.071,2.135,2.135,0,0,1-.985-1.867,2.3,2.3,0,0,1,.852-1.812,3.972,3.972,0,0,1,2.64-.735,4.608,4.608,0,0,1,2.532.555,2.839,2.839,0,0,1,1.14,1.641l-2.07.382a1.287,1.287,0,0,0-.5-.742,1.843,1.843,0,0,0-1.059-.258,2.378,2.378,0,0,0-1.242.243.518.518,0,0,0-.25.445.484.484,0,0,0,.219.4,8.224,8.224,0,0,0,2.051.618,6.106,6.106,0,0,1,2.449.976,2.032,2.032,0,0,1,.688,1.633,2.5,2.5,0,0,1-.954,1.961,4.216,4.216,0,0,1-2.82.82,4.627,4.627,0,0,1-2.683-.687A3.161,3.161,0,0,1,103.17,19.636Z" transform="translate(-22.383 -10.355)"/><path class="cls-2" d="M122.63,17.793v-1.93h4.985v4.563a6.3,6.3,0,0,1-2.106,1.238,7.677,7.677,0,0,1-2.793.535,6.26,6.26,0,0,1-3.132-.754,4.788,4.788,0,0,1-2.008-2.156,6.968,6.968,0,0,1-.672-3.051,6.6,6.6,0,0,1,.75-3.18,5.053,5.053,0,0,1,2.2-2.132,5.929,5.929,0,0,1,2.742-.571,5.472,5.472,0,0,1,3.332.895,4.037,4.037,0,0,1,1.543,2.472l-2.3.43a2.429,2.429,0,0,0-.911-1.332,2.753,2.753,0,0,0-1.668-.488,3.132,3.132,0,0,0-2.41.961,4.048,4.048,0,0,0-.894,2.851,4.481,4.481,0,0,0,.906,3.059,3.023,3.023,0,0,0,2.375,1.019,3.965,3.965,0,0,0,1.457-.285,4.985,4.985,0,0,0,1.254-.691V17.793Z" transform="translate(-22.383 -10.355)"/><path class="cls-2" d="M131.834,22h-2.2v-8.3h2.039v1.179a3.541,3.541,0,0,1,.942-1.1,1.729,1.729,0,0,1,.949-.266,2.787,2.787,0,0,1,1.445.414l-.679,1.914a1.935,1.935,0,0,0-1.032-.359,1.219,1.219,0,0,0-.781.254,1.732,1.732,0,0,0-.5.918,13.084,13.084,0,0,0-.183,2.781Z" transform="translate(-22.383 -10.355)"/><path class="cls-2" d="M137.6,16.238l-1.992-.359a3.106,3.106,0,0,1,1.156-1.782,4.237,4.237,0,0,1,2.438-.578,5.262,5.262,0,0,1,2.187.348,2.182,2.182,0,0,1,1.012.883,4.531,4.531,0,0,1,.293,1.965l-.023,2.562a8.923,8.923,0,0,0,.105,1.613A4.682,4.682,0,0,0,143.17,22H141q-.087-.219-.211-.649-.056-.195-.078-.258a3.952,3.952,0,0,1-1.2.821,3.447,3.447,0,0,1-1.367.273,2.824,2.824,0,0,1-2.019-.7,2.313,2.313,0,0,1-.739-1.758,2.358,2.358,0,0,1,.336-1.254,2.2,2.2,0,0,1,.942-.844,7.366,7.366,0,0,1,1.746-.511,11.967,11.967,0,0,0,2.133-.539v-.219a1.136,1.136,0,0,0-.313-.9,1.867,1.867,0,0,0-1.179-.27,1.579,1.579,0,0,0-.915.23A1.608,1.608,0,0,0,137.6,16.238Zm2.938,1.781a13.672,13.672,0,0,1-1.336.336,4.052,4.052,0,0,0-1.2.383.916.916,0,0,0-.429.773,1.072,1.072,0,0,0,.344.8,1.2,1.2,0,0,0,.875.336,1.9,1.9,0,0,0,1.132-.39,1.377,1.377,0,0,0,.524-.727,4.343,4.343,0,0,0,.086-1.07Z" transform="translate(-22.383 -10.355)"/><path class="cls-2" d="M147.138,22l-3.343-8.3h2.3l1.563,4.234.453,1.414c.119-.359.195-.6.226-.711q.109-.351.235-.7l1.578-4.234h2.258l-3.3,8.3Z" transform="translate(-22.383 -10.355)"/><path class="cls-2" d="M153.755,12.582V10.551h2.2v2.031Zm0,9.422v-8.3h2.2V22Z" transform="translate(-22.383 -10.355)"/><path class="cls-2" d="M165.748,22h-2.2V17.769a6.589,6.589,0,0,0-.14-1.738,1.22,1.22,0,0,0-.457-.613,1.306,1.306,0,0,0-.762-.219,1.759,1.759,0,0,0-1.023.312,1.575,1.575,0,0,0-.622.829,7.151,7.151,0,0,0-.168,1.906V22h-2.195v-8.3h2.039v1.219a3.4,3.4,0,0,1,4.063-1.145,2.23,2.23,0,0,1,.91.668,2.435,2.435,0,0,1,.43.922,6.905,6.905,0,0,1,.121,1.476Z" transform="translate(-22.383 -10.355)"/><path class="cls-2" d="M167.771,22.551l2.508.3a.856.856,0,0,0,.289.6,1.65,1.65,0,0,0,.984.234,2.553,2.553,0,0,0,1.289-.258,1.059,1.059,0,0,0,.438-.554,3.369,3.369,0,0,0,.1-1.008V20.66A2.969,2.969,0,0,1,170.9,22a3.059,3.059,0,0,1-2.648-1.414,4.8,4.8,0,0,1-.766-2.782,4.575,4.575,0,0,1,1-3.187,3.237,3.237,0,0,1,2.5-1.1,3.04,3.04,0,0,1,2.539,1.352V13.707h2.055v7.445a7.432,7.432,0,0,1-.242,2.2,2.73,2.73,0,0,1-.68,1.141,3.006,3.006,0,0,1-1.168.648,6.124,6.124,0,0,1-1.848.235,4.779,4.779,0,0,1-2.992-.723,2.267,2.267,0,0,1-.883-1.832C167.763,22.743,167.766,22.655,167.771,22.551Zm1.961-4.868a2.987,2.987,0,0,0,.512,1.934,1.58,1.58,0,0,0,1.261.613,1.743,1.743,0,0,0,1.36-.629,2.744,2.744,0,0,0,.555-1.863,2.907,2.907,0,0,0-.532-1.914,1.686,1.686,0,0,0-1.343-.625,1.622,1.622,0,0,0-1.3.613A2.872,2.872,0,0,0,169.732,17.683Z" transform="translate(-22.383 -10.355)"/></g></svg>