%TF.GenerationSoftware,KiCad,Pcbnew,(5.1.9-0-10_14)*%
%TF.CreationDate,2021-04-02T11:56:41+09:00*%
%TF.ProjectId,pcb-top-plate-rev1,7063622d-746f-4702-9d70-6c6174652d72,rev?*%
%TF.SameCoordinates,Original*%
%TF.FileFunction,Profile,NP*%
%FSLAX46Y46*%
G04 Gerber Fmt 4.6, Leading zero omitted, Abs format (unit mm)*
G04 Created by KiCad (PCBNEW (5.1.9-0-10_14)) date 2021-04-02 11:56:41*
%MOMM*%
%LPD*%
G01*
G04 APERTURE LIST*
%TA.AperFunction,Profile*%
%ADD10C,0.100000*%
%TD*%
G04 APERTURE END LIST*
D10*
X226668117Y-72814917D02*
X229081816Y-86503745D01*
X84897313Y-79292105D02*
X98586142Y-81705825D01*
X82483615Y-92980934D02*
X84897313Y-79292105D01*
X104679052Y-108698084D02*
X101081468Y-122124461D01*
X91252696Y-105100500D02*
X104679052Y-108698084D01*
X87655112Y-118526877D02*
X91252696Y-105100500D01*
X206405465Y-67604318D02*
X192716637Y-70018016D01*
X203991767Y-53915489D02*
X206405465Y-67604318D01*
X158503458Y-95394589D02*
X156089760Y-81705761D01*
X190345485Y-86227104D02*
X176656657Y-88640824D01*
X187931787Y-72538276D02*
X190345485Y-86227104D01*
X174242958Y-74951996D02*
X187931787Y-72538276D01*
X190302938Y-56329188D02*
X203991767Y-53915489D01*
X209713467Y-86364908D02*
X196024639Y-88778606D01*
X176656657Y-88640824D02*
X174242958Y-74951996D01*
X192716637Y-70018016D02*
X190302938Y-56329188D01*
X207299769Y-72676079D02*
X209713467Y-86364908D01*
X193610940Y-75089778D02*
X207299769Y-72676079D01*
X101081468Y-122124461D02*
X87655112Y-118526877D01*
X114325255Y-102149474D02*
X100636426Y-99735754D01*
X116738975Y-88460646D02*
X114325255Y-102149474D01*
X103050146Y-86046926D02*
X116738975Y-88460646D01*
X100636426Y-99735754D02*
X103050146Y-86046926D01*
X143813463Y-109452345D02*
X143813420Y-123352357D01*
X110863450Y-109452345D02*
X143813463Y-109452345D01*
X110863429Y-123352336D02*
X110863450Y-109452345D01*
X143813420Y-123352357D02*
X110863429Y-123352336D01*
X154039454Y-99735711D02*
X140350625Y-102149410D01*
X151625756Y-86046883D02*
X154039454Y-99735711D01*
X137936927Y-88460581D02*
X151625756Y-86046883D01*
X140350625Y-102149410D02*
X137936927Y-88460581D01*
X167010755Y-118526877D02*
X153584378Y-122124461D01*
X163413193Y-105100500D02*
X167010755Y-118526877D01*
X149986816Y-108698084D02*
X163413193Y-105100500D01*
X153584378Y-122124461D02*
X149986816Y-108698084D01*
X172192287Y-92980891D02*
X158503458Y-95394589D01*
X169778588Y-79292062D02*
X172192287Y-92980891D01*
X156089760Y-81705761D02*
X169778588Y-79292062D01*
X58651263Y-88778650D02*
X44962434Y-86364951D01*
X61959265Y-70018059D02*
X48270436Y-67604361D01*
X64372963Y-56329231D02*
X61959265Y-70018059D01*
X50684135Y-53915532D02*
X64372963Y-56329231D01*
X48270436Y-67604361D02*
X50684135Y-53915532D01*
X78017221Y-88638736D02*
X64328392Y-86225037D01*
X80430941Y-74949907D02*
X78017221Y-88638736D01*
X66742112Y-72536209D02*
X80430941Y-74949907D01*
X64328392Y-86225037D02*
X66742112Y-72536209D01*
X96172444Y-95394654D02*
X82483615Y-92980934D01*
X98586142Y-81705825D02*
X96172444Y-95394654D01*
X212979289Y-75228615D02*
X226668117Y-72814917D01*
X215392987Y-88917444D02*
X212979289Y-75228615D01*
X196024639Y-88778606D02*
X193610940Y-75089778D01*
X229081816Y-86503745D02*
X215392987Y-88917444D01*
X107836955Y-38816432D02*
X107760430Y-38723744D01*
X107760430Y-38723744D02*
X107674050Y-38641516D01*
X107674050Y-38641516D02*
X107578901Y-38570425D01*
X107578901Y-38570425D02*
X107476066Y-38511149D01*
X107476066Y-38511149D02*
X107366629Y-38464366D01*
X107366629Y-38464366D02*
X107251676Y-38430755D01*
X107251676Y-38430755D02*
X107204393Y-38421151D01*
X108402339Y-39591751D02*
X107836955Y-38816432D01*
X109036301Y-39987269D02*
X108919191Y-39959218D01*
X108919191Y-39959218D02*
X108807167Y-39917667D01*
X108807167Y-39917667D02*
X108701322Y-39863300D01*
X108701322Y-39863300D02*
X108602744Y-39796796D01*
X108602744Y-39796796D02*
X108512526Y-39718838D01*
X108512526Y-39718838D02*
X108431756Y-39630107D01*
X108431756Y-39630107D02*
X108402339Y-39591751D01*
X142141020Y-45837709D02*
X109036301Y-39987269D01*
X72122878Y-101509763D02*
X72257969Y-101565482D01*
X72257969Y-101565482D02*
X72389641Y-101627439D01*
X72389641Y-101627439D02*
X72517707Y-101695458D01*
X72517707Y-101695458D02*
X72641985Y-101769369D01*
X72641985Y-101769369D02*
X72762289Y-101848999D01*
X72762289Y-101848999D02*
X72878436Y-101934175D01*
X72878436Y-101934175D02*
X72990242Y-102024725D01*
X72990242Y-102024725D02*
X73097522Y-102120476D01*
X73097522Y-102120476D02*
X73200092Y-102221256D01*
X73200092Y-102221256D02*
X73297768Y-102326892D01*
X73297768Y-102326892D02*
X73390365Y-102437212D01*
X73390365Y-102437212D02*
X73477700Y-102552044D01*
X73477700Y-102552044D02*
X73559589Y-102671215D01*
X73559589Y-102671215D02*
X73635846Y-102794552D01*
X73635846Y-102794552D02*
X73706288Y-102921884D01*
X73706288Y-102921884D02*
X73770732Y-103053037D01*
X53577154Y-94383411D02*
X72122878Y-101509763D01*
X52410364Y-94185167D02*
X52522306Y-94183867D01*
X52522306Y-94183867D02*
X52634050Y-94186738D01*
X52634050Y-94186738D02*
X52745483Y-94193759D01*
X52745483Y-94193759D02*
X52856488Y-94204913D01*
X52856488Y-94204913D02*
X52966953Y-94220178D01*
X52966953Y-94220178D02*
X53076761Y-94239535D01*
X53076761Y-94239535D02*
X53185798Y-94262966D01*
X53185798Y-94262966D02*
X53293949Y-94290450D01*
X53293949Y-94290450D02*
X53401101Y-94321969D01*
X53401101Y-94321969D02*
X53507138Y-94357501D01*
X53507138Y-94357501D02*
X53577154Y-94383411D01*
X42283851Y-94491587D02*
X52410364Y-94185167D01*
X180913094Y-103051852D02*
X180977547Y-102920834D01*
X180977547Y-102920834D02*
X181047987Y-102793633D01*
X181047987Y-102793633D02*
X181124232Y-102670422D01*
X181124232Y-102670422D02*
X181206097Y-102551372D01*
X181206097Y-102551372D02*
X181293399Y-102436656D01*
X181293399Y-102436656D02*
X181385954Y-102326445D01*
X181385954Y-102326445D02*
X181483578Y-102220912D01*
X181483578Y-102220912D02*
X181586087Y-102120228D01*
X181586087Y-102120228D02*
X181693298Y-102024566D01*
X181693298Y-102024566D02*
X181805028Y-101934099D01*
X181805028Y-101934099D02*
X181921092Y-101848997D01*
X181921092Y-101848997D02*
X182041307Y-101769433D01*
X182041307Y-101769433D02*
X182165488Y-101695579D01*
X182165488Y-101695579D02*
X182293454Y-101627608D01*
X182293454Y-101627608D02*
X182425019Y-101565690D01*
X182425019Y-101565690D02*
X182560000Y-101510000D01*
X172179001Y-121953950D02*
X180913094Y-103051852D01*
X171505141Y-122558758D02*
X171617869Y-122521279D01*
X171617869Y-122521279D02*
X171724266Y-122471284D01*
X171724266Y-122471284D02*
X171823425Y-122409585D01*
X171823425Y-122409585D02*
X171914442Y-122336993D01*
X171914442Y-122336993D02*
X171996412Y-122254321D01*
X171996412Y-122254321D02*
X172068432Y-122162382D01*
X172068432Y-122162382D02*
X172129596Y-122061987D01*
X172129596Y-122061987D02*
X172179001Y-121953950D01*
X149114475Y-128558435D02*
X171505141Y-122558758D01*
X105551070Y-128558435D02*
X149114475Y-128558435D01*
X83178125Y-122580893D02*
X105551070Y-128558435D01*
X82504092Y-121976688D02*
X82553561Y-122084651D01*
X82553561Y-122084651D02*
X82614778Y-122184968D01*
X82614778Y-122184968D02*
X82686836Y-122276829D01*
X82686836Y-122276829D02*
X82768834Y-122359421D01*
X82768834Y-122359421D02*
X82859865Y-122431935D01*
X82859865Y-122431935D02*
X82959027Y-122493559D01*
X82959027Y-122493559D02*
X83065414Y-122543482D01*
X83065414Y-122543482D02*
X83178125Y-122580893D01*
X73770732Y-103053037D02*
X82504092Y-121976688D01*
X143299520Y-45028521D02*
X143276517Y-45128166D01*
X143276517Y-45128166D02*
X143244215Y-45223162D01*
X143244215Y-45223162D02*
X143179598Y-45356051D01*
X143179598Y-45356051D02*
X143097327Y-45476196D01*
X143097327Y-45476196D02*
X142999364Y-45582229D01*
X142999364Y-45582229D02*
X142887669Y-45672780D01*
X142887669Y-45672780D02*
X142764203Y-45746479D01*
X142764203Y-45746479D02*
X142630929Y-45801958D01*
X142630929Y-45801958D02*
X142489807Y-45837846D01*
X142489807Y-45837846D02*
X142342798Y-45852774D01*
X142342798Y-45852774D02*
X142242491Y-45850406D01*
X142242491Y-45850406D02*
X142141020Y-45837709D01*
X146296214Y-28225326D02*
X143299520Y-45028521D01*
X147453164Y-27415879D02*
X147351783Y-27403346D01*
X147351783Y-27403346D02*
X147251577Y-27401121D01*
X147251577Y-27401121D02*
X147104735Y-27416220D01*
X147104735Y-27416220D02*
X146963792Y-27452231D01*
X146963792Y-27452231D02*
X146830702Y-27507786D01*
X146830702Y-27507786D02*
X146707418Y-27581518D01*
X146707418Y-27581518D02*
X146595896Y-27672061D01*
X146595896Y-27672061D02*
X146498089Y-27778047D01*
X146498089Y-27778047D02*
X146415952Y-27898111D01*
X146415952Y-27898111D02*
X146351439Y-28030885D01*
X146351439Y-28030885D02*
X146319186Y-28125787D01*
X146319186Y-28125787D02*
X146296214Y-28225326D01*
X161967566Y-29957628D02*
X147453164Y-27415879D01*
X61064983Y-75089821D02*
X58651263Y-88778650D01*
X47376154Y-72676123D02*
X61064983Y-75089821D01*
X44962434Y-86364951D02*
X47376154Y-72676123D01*
X41679344Y-94448652D02*
X41791878Y-94466013D01*
X41791878Y-94466013D02*
X41904921Y-94479089D01*
X41904921Y-94479089D02*
X42018353Y-94487869D01*
X42018353Y-94487869D02*
X42132050Y-94492342D01*
X42132050Y-94492342D02*
X42245892Y-94492496D01*
X42245892Y-94492496D02*
X42283851Y-94491587D01*
X22642565Y-91139573D02*
X41679344Y-94448652D01*
X20208454Y-87662568D02*
X20185404Y-87815355D01*
X20185404Y-87815355D02*
X20170280Y-87967483D01*
X20170280Y-87967483D02*
X20162928Y-88118732D01*
X20162928Y-88118732D02*
X20163196Y-88268883D01*
X20163196Y-88268883D02*
X20170930Y-88417718D01*
X20170930Y-88417718D02*
X20185978Y-88565018D01*
X20185978Y-88565018D02*
X20208185Y-88710565D01*
X20208185Y-88710565D02*
X20237400Y-88854139D01*
X20237400Y-88854139D02*
X20273468Y-88995521D01*
X20273468Y-88995521D02*
X20316237Y-89134495D01*
X20316237Y-89134495D02*
X20365554Y-89270839D01*
X20365554Y-89270839D02*
X20421265Y-89404337D01*
X20421265Y-89404337D02*
X20483218Y-89534768D01*
X20483218Y-89534768D02*
X20551259Y-89661915D01*
X20551259Y-89661915D02*
X20625236Y-89785559D01*
X20625236Y-89785559D02*
X20704994Y-89905481D01*
X20704994Y-89905481D02*
X20790382Y-90021462D01*
X20790382Y-90021462D02*
X20881245Y-90133283D01*
X20881245Y-90133283D02*
X20977431Y-90240727D01*
X20977431Y-90240727D02*
X21078787Y-90343573D01*
X21078787Y-90343573D02*
X21185160Y-90441604D01*
X21185160Y-90441604D02*
X21296396Y-90534601D01*
X21296396Y-90534601D02*
X21412342Y-90622345D01*
X21412342Y-90622345D02*
X21532846Y-90704617D01*
X21532846Y-90704617D02*
X21657754Y-90781199D01*
X21657754Y-90781199D02*
X21786913Y-90851872D01*
X21786913Y-90851872D02*
X21920169Y-90916417D01*
X21920169Y-90916417D02*
X22057371Y-90974616D01*
X22057371Y-90974616D02*
X22198365Y-91026250D01*
X22198365Y-91026250D02*
X22342997Y-91071099D01*
X22342997Y-91071099D02*
X22491114Y-91108947D01*
X22491114Y-91108947D02*
X22642565Y-91139573D01*
X29981738Y-32435082D02*
X20208454Y-87662568D01*
X32935907Y-29957498D02*
X32800109Y-29960538D01*
X32800109Y-29960538D02*
X32665685Y-29969577D01*
X32665685Y-29969577D02*
X32532778Y-29984497D01*
X32532778Y-29984497D02*
X32401529Y-30005177D01*
X32401529Y-30005177D02*
X32272084Y-30031496D01*
X32272084Y-30031496D02*
X32144584Y-30063335D01*
X32144584Y-30063335D02*
X32019173Y-30100573D01*
X32019173Y-30100573D02*
X31895995Y-30143091D01*
X31895995Y-30143091D02*
X31775192Y-30190768D01*
X31775192Y-30190768D02*
X31656908Y-30243484D01*
X31656908Y-30243484D02*
X31541285Y-30301119D01*
X31541285Y-30301119D02*
X31428468Y-30363554D01*
X31428468Y-30363554D02*
X31318599Y-30430667D01*
X31318599Y-30430667D02*
X31211822Y-30502339D01*
X31211822Y-30502339D02*
X31108279Y-30578450D01*
X31108279Y-30578450D02*
X31008115Y-30658879D01*
X31008115Y-30658879D02*
X30911471Y-30743507D01*
X30911471Y-30743507D02*
X30818492Y-30832213D01*
X30818492Y-30832213D02*
X30729321Y-30924878D01*
X30729321Y-30924878D02*
X30644100Y-31021380D01*
X30644100Y-31021380D02*
X30562973Y-31121601D01*
X30562973Y-31121601D02*
X30486083Y-31225420D01*
X30486083Y-31225420D02*
X30413574Y-31332717D01*
X30413574Y-31332717D02*
X30345588Y-31443372D01*
X30345588Y-31443372D02*
X30282270Y-31557265D01*
X30282270Y-31557265D02*
X30223761Y-31674275D01*
X30223761Y-31674275D02*
X30170205Y-31794283D01*
X30170205Y-31794283D02*
X30121746Y-31917168D01*
X30121746Y-31917168D02*
X30078526Y-32042810D01*
X30078526Y-32042810D02*
X30040690Y-32171090D01*
X30040690Y-32171090D02*
X30008379Y-32301887D01*
X30008379Y-32301887D02*
X29981738Y-32435082D01*
X74585281Y-29957628D02*
X32935907Y-29957498D01*
X92541399Y-33139195D02*
X74585281Y-29957628D01*
X93284097Y-33725313D02*
X93227354Y-33614236D01*
X93227354Y-33614236D02*
X93158097Y-33512224D01*
X93158097Y-33512224D02*
X93077426Y-33420147D01*
X93077426Y-33420147D02*
X92986443Y-33338873D01*
X92986443Y-33338873D02*
X92886247Y-33269271D01*
X92886247Y-33269271D02*
X92777941Y-33212211D01*
X92777941Y-33212211D02*
X92662624Y-33168563D01*
X92662624Y-33168563D02*
X92541399Y-33139195D01*
X94113934Y-35634973D02*
X93284097Y-33725313D01*
X94855663Y-36220919D02*
X94734584Y-36191471D01*
X94734584Y-36191471D02*
X94619414Y-36147777D01*
X94619414Y-36147777D02*
X94511251Y-36090703D01*
X94511251Y-36090703D02*
X94411192Y-36021116D01*
X94411192Y-36021116D02*
X94320333Y-35939883D01*
X94320333Y-35939883D02*
X94239773Y-35847870D01*
X94239773Y-35847870D02*
X94170607Y-35745944D01*
X94170607Y-35745944D02*
X94113934Y-35634973D01*
X107204393Y-38421151D02*
X94855663Y-36220919D01*
X232007348Y-91144870D02*
X232158726Y-91114237D01*
X232158726Y-91114237D02*
X232306775Y-91076389D01*
X232306775Y-91076389D02*
X232451342Y-91031545D01*
X232451342Y-91031545D02*
X232592273Y-90979922D01*
X232592273Y-90979922D02*
X232729415Y-90921740D01*
X232729415Y-90921740D02*
X232862616Y-90857217D01*
X232862616Y-90857217D02*
X232991723Y-90786571D01*
X232991723Y-90786571D02*
X233116582Y-90710020D01*
X233116582Y-90710020D02*
X233237040Y-90627783D01*
X233237040Y-90627783D02*
X233352946Y-90540079D01*
X233352946Y-90540079D02*
X233464145Y-90447126D01*
X233464145Y-90447126D02*
X233570485Y-90349142D01*
X233570485Y-90349142D02*
X233671813Y-90246345D01*
X233671813Y-90246345D02*
X233767976Y-90138955D01*
X233767976Y-90138955D02*
X233858820Y-90027190D01*
X233858820Y-90027190D02*
X233944194Y-89911267D01*
X233944194Y-89911267D02*
X234023943Y-89791406D01*
X234023943Y-89791406D02*
X234097915Y-89667825D01*
X234097915Y-89667825D02*
X234165958Y-89540742D01*
X234165958Y-89540742D02*
X234227917Y-89410376D01*
X234227917Y-89410376D02*
X234283641Y-89276944D01*
X234283641Y-89276944D02*
X234332976Y-89140667D01*
X234332976Y-89140667D02*
X234375769Y-89001761D01*
X234375769Y-89001761D02*
X234411867Y-88860446D01*
X234411867Y-88860446D02*
X234441117Y-88716940D01*
X234441117Y-88716940D02*
X234463367Y-88571461D01*
X234463367Y-88571461D02*
X234478463Y-88424228D01*
X234478463Y-88424228D02*
X234486253Y-88275459D01*
X234486253Y-88275459D02*
X234486583Y-88125372D01*
X234486583Y-88125372D02*
X234479300Y-87974187D01*
X234479300Y-87974187D02*
X234464252Y-87822121D01*
X234464252Y-87822121D02*
X234441286Y-87669393D01*
X212996730Y-94449707D02*
X232007348Y-91144870D01*
X212391878Y-94492663D02*
X212505803Y-94493952D01*
X212505803Y-94493952D02*
X212619628Y-94490920D01*
X212619628Y-94490920D02*
X212733228Y-94483575D01*
X212733228Y-94483575D02*
X212846480Y-94471925D01*
X212846480Y-94471925D02*
X212959262Y-94455976D01*
X212959262Y-94455976D02*
X212996730Y-94449707D01*
X221749275Y-29957628D02*
X161967566Y-29957628D01*
X224703702Y-32436632D02*
X224677114Y-32303376D01*
X224677114Y-32303376D02*
X224644852Y-32172518D01*
X224644852Y-32172518D02*
X224607059Y-32044176D01*
X224607059Y-32044176D02*
X224563878Y-31918471D01*
X224563878Y-31918471D02*
X224515453Y-31795524D01*
X224515453Y-31795524D02*
X224461926Y-31675454D01*
X224461926Y-31675454D02*
X224403442Y-31558382D01*
X224403442Y-31558382D02*
X224340143Y-31444428D01*
X224340143Y-31444428D02*
X224272173Y-31333712D01*
X224272173Y-31333712D02*
X224199676Y-31226355D01*
X224199676Y-31226355D02*
X224122793Y-31122476D01*
X224122793Y-31122476D02*
X224041670Y-31022197D01*
X224041670Y-31022197D02*
X223956449Y-30925637D01*
X223956449Y-30925637D02*
X223867273Y-30832917D01*
X223867273Y-30832917D02*
X223774286Y-30744157D01*
X223774286Y-30744157D02*
X223677631Y-30659477D01*
X223677631Y-30659477D02*
X223577452Y-30578997D01*
X223577452Y-30578997D02*
X223473891Y-30502838D01*
X223473891Y-30502838D02*
X223367092Y-30431120D01*
X223367092Y-30431120D02*
X223257199Y-30363963D01*
X223257199Y-30363963D02*
X223144355Y-30301487D01*
X223144355Y-30301487D02*
X223028702Y-30243813D01*
X223028702Y-30243813D02*
X222910385Y-30191062D01*
X222910385Y-30191062D02*
X222789547Y-30143352D01*
X222789547Y-30143352D02*
X222666331Y-30100805D01*
X222666331Y-30100805D02*
X222540880Y-30063541D01*
X222540880Y-30063541D02*
X222413338Y-30031679D01*
X222413338Y-30031679D02*
X222283848Y-30005341D01*
X222283848Y-30005341D02*
X222152553Y-29984647D01*
X222152553Y-29984647D02*
X222019597Y-29969716D01*
X222019597Y-29969716D02*
X221885123Y-29960670D01*
X221885123Y-29960670D02*
X221749275Y-29957628D01*
X234441286Y-87669393D02*
X224703702Y-32436632D01*
X223360115Y-54054326D02*
X225773835Y-67743155D01*
X209671287Y-56468025D02*
X223360115Y-54054326D01*
X212085007Y-70156853D02*
X209671287Y-56468025D01*
X225773835Y-67743155D02*
X212085007Y-70156853D01*
X206363306Y-37707434D02*
X220052134Y-35293736D01*
X208777004Y-51396263D02*
X206363306Y-37707434D01*
X222465833Y-48982564D02*
X208777004Y-51396263D01*
X220052134Y-35293736D02*
X222465833Y-48982564D01*
X186994957Y-37568619D02*
X200683786Y-35154899D01*
X189408656Y-51257447D02*
X186994957Y-37568619D01*
X203097485Y-48843727D02*
X189408656Y-51257447D01*
X200683786Y-35154899D02*
X203097485Y-48843727D01*
X184623784Y-53777685D02*
X187037504Y-67466514D01*
X170934956Y-56191405D02*
X184623784Y-53777685D01*
X173348676Y-69880234D02*
X170934956Y-56191405D01*
X187037504Y-67466514D02*
X173348676Y-69880234D01*
X167626975Y-37430815D02*
X181315804Y-35017116D01*
X170040674Y-51119643D02*
X167626975Y-37430815D01*
X183729502Y-48705945D02*
X170040674Y-51119643D01*
X181315804Y-35017116D02*
X183729502Y-48705945D01*
X166470586Y-60531472D02*
X168884284Y-74220300D01*
X152781757Y-62945170D02*
X166470586Y-60531472D01*
X155195456Y-76633999D02*
X152781757Y-62945170D01*
X168884284Y-74220300D02*
X155195456Y-76633999D01*
X149473777Y-44184602D02*
X163162605Y-41770881D01*
X151887475Y-57873430D02*
X149473777Y-44184602D01*
X165576304Y-55459710D02*
X151887475Y-57873430D01*
X163162605Y-41770881D02*
X165576304Y-55459710D01*
X134628946Y-69699991D02*
X148317775Y-67286292D01*
X137042645Y-83388819D02*
X134628946Y-69699991D01*
X150731473Y-80975121D02*
X137042645Y-83388819D01*
X148317775Y-67286292D02*
X150731473Y-80975121D01*
X131320944Y-50939400D02*
X145009773Y-48525702D01*
X133734664Y-64628229D02*
X131320944Y-50939400D01*
X147423493Y-62214530D02*
X133734664Y-64628229D01*
X145009773Y-48525702D02*
X147423493Y-62214530D01*
X107252430Y-62214595D02*
X109666129Y-48525766D01*
X120941259Y-64628293D02*
X107252430Y-62214595D01*
X123354957Y-50939465D02*
X120941259Y-64628293D01*
X109666129Y-48525766D02*
X123354957Y-50939465D01*
X106358127Y-67286357D02*
X120046955Y-69700055D01*
X103944428Y-80975185D02*
X106358127Y-67286357D01*
X117633257Y-83388884D02*
X103944428Y-80975185D01*
X120046955Y-69700055D02*
X117633257Y-83388884D01*
X89099598Y-55459753D02*
X91513318Y-41770946D01*
X102788426Y-57873473D02*
X89099598Y-55459753D01*
X105202146Y-44184645D02*
X102788426Y-57873473D01*
X91513318Y-41770946D02*
X105202146Y-44184645D01*
X88205316Y-60531515D02*
X101894144Y-62945235D01*
X85791617Y-74220344D02*
X88205316Y-60531515D01*
X99480446Y-76634064D02*
X85791617Y-74220344D01*
X101894144Y-62945235D02*
X99480446Y-76634064D01*
X70944397Y-48703856D02*
X73358095Y-35015028D01*
X84633225Y-51117576D02*
X70944397Y-48703856D01*
X87046924Y-37428748D02*
X84633225Y-51117576D01*
X73358095Y-35015028D02*
X87046924Y-37428748D01*
X70050115Y-53775618D02*
X83738943Y-56189317D01*
X67636395Y-67464447D02*
X70050115Y-53775618D01*
X81325223Y-69878145D02*
X67636395Y-67464447D01*
X83738943Y-56189317D02*
X81325223Y-69878145D01*
X51578439Y-48843770D02*
X53992137Y-35154942D01*
X65267267Y-51257469D02*
X51578439Y-48843770D01*
X67680966Y-37568640D02*
X65267267Y-51257469D01*
X53992137Y-35154942D02*
X67680966Y-37568640D01*
X32210069Y-48982608D02*
X34623789Y-35293779D01*
X45898897Y-51396306D02*
X32210069Y-48982608D01*
X48312617Y-37707477D02*
X45898897Y-51396306D01*
X34623789Y-35293779D02*
X48312617Y-37707477D01*
X28902066Y-67743176D02*
X31315786Y-54054348D01*
X42590895Y-70156896D02*
X28902066Y-67743176D01*
X45004615Y-56468068D02*
X42590895Y-70156896D01*
X31315786Y-54054348D02*
X45004615Y-56468068D01*
X39282914Y-88917487D02*
X25594086Y-86503767D01*
X41696613Y-75228658D02*
X39282914Y-88917487D01*
X28007784Y-72814938D02*
X41696613Y-75228658D01*
X25594086Y-86503767D02*
X28007784Y-72814938D01*
X202265903Y-94185232D02*
X212391878Y-94492663D01*
X201098425Y-94383626D02*
X201203716Y-94345393D01*
X201203716Y-94345393D02*
X201310199Y-94311165D01*
X201310199Y-94311165D02*
X201417760Y-94280962D01*
X201417760Y-94280962D02*
X201526283Y-94254804D01*
X201526283Y-94254804D02*
X201635655Y-94232710D01*
X201635655Y-94232710D02*
X201745759Y-94214700D01*
X201745759Y-94214700D02*
X201856482Y-94200794D01*
X201856482Y-94200794D02*
X201967709Y-94191011D01*
X201967709Y-94191011D02*
X202079324Y-94185371D01*
X202079324Y-94185371D02*
X202191214Y-94183894D01*
X202191214Y-94183894D02*
X202265903Y-94185232D01*
X182560000Y-101510000D02*
X201098425Y-94383626D01*
M02*
