M48
; DRILL file {KiCad (5.1.9-0-10_14)} date Friday, April 02, 2021 at 11:56:59 AM
; FORMAT={-:-/ absolute / metric / decimal}
; #@! TF.CreationDate,2021-04-02T11:56:59+09:00
; #@! TF.GenerationSoftware,Kicad,Pcbnew,(5.1.9-0-10_14)
FMAT,2
METRIC
T1C2.200
T2C2.200
%
G90
G05
T1
X127.34Y-100.91
T2
X42.32Y-86.49
X48.94Y-48.99
X81.44Y-97.93
X105.22Y-58.9
X111.99Y-43.27
X119.31Y-93.55
X122.01Y-74.31
X122.01Y-79.81
X122.01Y-90.81
X122.01Y-96.31
X122.02Y-85.31
X123.23Y-45.27
X124.66Y-66.05
X124.66Y-71.55
X124.66Y-77.05
X124.66Y-82.55
X124.66Y-88.05
X124.66Y-93.55
X127.33Y-63.31
X127.33Y-68.8
X127.33Y-79.81
X127.33Y-90.81
X127.33Y-96.31
X127.34Y-74.31
X130.0Y-66.05
X130.0Y-71.55
X130.0Y-77.05
X130.0Y-82.55
X130.0Y-88.05
X130.0Y-93.55
X132.65Y-74.3
X132.65Y-79.81
X132.65Y-85.31
X132.65Y-90.81
X132.65Y-96.31
X135.33Y-93.55
X149.45Y-58.89
X149.54Y-30.82
X173.22Y-97.93
X205.73Y-48.98
X212.33Y-86.49
T0
M30
