M48
; DRILL file {KiCad (5.1.6-0-10_14)} date Monday, October 19, 2020 at 10:55:12 AM
; FORMAT={-:-/ absolute / inch / decimal}
; #@! TF.CreationDate,2020-10-19T10:55:12+09:00
; #@! TF.GenerationSoftware,Kicad,Pcbnew,(5.1.6-0-10_14)
; #@! TF.FileFunction,NonPlated,1,2,NPTH
FMAT,2
INCH
T1C0.0236
T2C0.0689
T3C0.0709
T4C0.0866
T5C0.1200
T6C0.1280
T7C0.1565
T8C0.1570
T9C0.1890
%
G90
G05
T1
X5.9898Y-3.1238
X5.9898Y-3.1563
X5.9898Y-3.1888
X5.9898Y-3.2213
X5.9898Y-3.2537
X5.9898Y-3.2862
X5.9898Y-3.3187
X5.9898Y-3.3512
X5.9902Y-3.0913
X5.9898Y-4.623
X5.9898Y-4.6555
X5.9898Y-4.688
X5.9898Y-4.7205
X5.9898Y-4.753
X5.9898Y-4.7854
X5.9898Y-4.8179
X5.9898Y-4.8504
X5.9902Y-4.5906
X5.9146Y-3.1238
X5.9146Y-3.1563
X5.9146Y-3.1888
X5.9146Y-3.2213
X5.9146Y-3.2537
X5.9146Y-3.2862
X5.9146Y-3.3187
X5.9146Y-3.3512
X5.915Y-3.0913
X5.9146Y-4.623
X5.9146Y-4.6555
X5.9146Y-4.688
X5.9146Y-4.7205
X5.9146Y-4.753
X5.9146Y-4.7854
X5.9146Y-4.8179
X5.9146Y-4.8504
X5.915Y-4.5906
T2
X8.5228Y-3.9705
X8.9228Y-3.9705
X2.9831Y-3.2205
X3.3831Y-3.2205
X9.2728Y-3.9705
X9.6728Y-3.9705
X3.7331Y-5.4705
X4.1331Y-5.4705
X7.0228Y-3.2205
X7.4228Y-3.2205
X7.7728Y-4.7205
X8.1728Y-4.7205
X5.2331Y-3.2205
X5.6331Y-3.2205
X2.9831Y-4.7205
X3.3831Y-4.7205
X7.0228Y-3.9705
X7.4228Y-3.9705
X4.4831Y-5.4705
X6.6478Y-5.4705
X7.0478Y-5.4705
X4.4831Y-3.9705
X4.8831Y-3.9705
X8.5228Y-4.7205
X8.9228Y-4.7205
X2.2331Y-3.9705
X2.6331Y-3.9705
X6.2728Y-4.7205
X6.6728Y-4.7205
X3.7331Y-3.2205
X4.1331Y-3.2205
X9.2728Y-4.7205
X9.6728Y-4.7205
X2.9831Y-3.9705
X3.3831Y-3.9705
X7.7728Y-3.2205
X8.1728Y-3.2205
X5.6331Y-5.4705
X4.4831Y-4.7205
X4.8831Y-4.7205
X3.7331Y-4.7205
X4.1331Y-4.7205
X5.2331Y-3.9705
X5.6331Y-3.9705
X8.5228Y-3.2205
X8.9228Y-3.2205
X9.2728Y-3.2205
X9.6728Y-3.2205
X5.2331Y-4.7205
X5.6331Y-4.7205
X6.2728Y-3.2205
X6.6728Y-3.2205
X4.4831Y-3.2205
X4.8831Y-3.2205
X7.7728Y-3.9705
X8.1728Y-3.9705
X2.2331Y-3.2205
X2.6331Y-3.2205
X7.0228Y-4.7205
X7.4228Y-4.7205
X2.2331Y-4.7205
X2.6331Y-4.7205
X6.2728Y-3.9705
X6.6728Y-3.9705
X3.7331Y-3.9705
X4.1331Y-3.9705
T4
X5.0335Y-2.6366
X5.0335Y-2.0638
X3.4551Y-2.6846
T5
X6.3791Y-5.7455
X7.3166Y-5.7455
X4.5893Y-5.7455
X5.5268Y-5.7455
T6
X6.1717Y-2.3744
X6.6217Y-2.3744
X5.2843Y-2.3744
X5.7343Y-2.3744
T7
X5.5268Y-5.1455
T8
X3.9331Y-5.4705
X7.2228Y-3.2205
X7.9728Y-4.7205
X5.4331Y-3.2205
X3.1831Y-4.7205
X7.2228Y-3.9705
X4.6831Y-5.4705
X6.3791Y-5.1455
X6.8478Y-5.4705
X7.3166Y-5.1455
X4.6831Y-3.9705
X8.7228Y-4.7205
X2.4331Y-3.9705
X6.4728Y-4.7205
X3.9331Y-3.2205
X9.4728Y-4.7205
X3.1831Y-3.9705
X7.9728Y-3.2205
X5.4331Y-5.4705
X4.6831Y-4.7205
X3.9331Y-4.7205
X5.4331Y-3.9705
X8.7228Y-3.2205
X4.5893Y-5.1455
X5.0581Y-5.4705
X9.4728Y-3.2205
X5.4331Y-4.7205
X6.4728Y-3.2205
X4.6831Y-3.2205
X7.9728Y-3.9705
X2.4331Y-3.2205
X7.2228Y-4.7205
X2.4331Y-4.7205
X6.4728Y-3.9705
X3.9331Y-3.9705
X8.7228Y-3.9705
X3.1831Y-3.2205
X9.4728Y-3.9705
T9
X6.8476Y-3.5961
X8.3386Y-2.1287
X5.0567Y-3.5961
X6.8476Y-5.0173
X9.0976Y-5.0173
X5.0618Y-5.0173
X2.8079Y-5.0173
X2.8079Y-3.5961
T3
G00X4.8825Y-5.4697
M15
G01X4.8589Y-5.4697
M16
G05
G00X5.2573Y-5.4697
M15
G01X5.2337Y-5.4697
M16
G05
T0
M30
