G04 #@! TF.GenerationSoftware,KiCad,Pcbnew,(5.1.6-0-10_14)*
G04 #@! TF.CreationDate,2020-10-19T10:54:39+09:00*
G04 #@! TF.ProjectId,reviung34-split-L,72657669-756e-4673-9334-2d73706c6974,2.0*
G04 #@! TF.SameCoordinates,Original*
G04 #@! TF.FileFunction,Profile,NP*
%FSLAX46Y46*%
G04 Gerber Fmt 4.6, Leading zero omitted, Abs format (unit mm)*
G04 Created by KiCad (PCBNEW (5.1.6-0-10_14)) date 2020-10-19 10:54:39*
%MOMM*%
%LPD*%
G01*
G04 APERTURE LIST*
G04 #@! TA.AperFunction,Profile*
%ADD10C,0.100000*%
G04 #@! TD*
G04 APERTURE END LIST*
D10*
X153408765Y-92433689D02*
X153408765Y-109415684D01*
X152449844Y-91386229D02*
X153408765Y-92433689D01*
X152449844Y-85629970D02*
X152449844Y-91386229D01*
X149910507Y-85629970D02*
X152449844Y-85629970D01*
X149910486Y-91399665D02*
X149910507Y-85629970D01*
X148951565Y-92447103D02*
X149910486Y-91399665D01*
X148951565Y-109429120D02*
X148951565Y-92447103D01*
X149910486Y-110454122D02*
X148951565Y-109429120D01*
X149910507Y-116109979D02*
X149910486Y-110454122D01*
X152449822Y-116109979D02*
X149910507Y-116109979D01*
X152449844Y-110440686D02*
X152449822Y-116109979D01*
X153408765Y-109415684D02*
X152449844Y-110440686D01*
X252550022Y-129907347D02*
X252549935Y-110399453D01*
X250546182Y-131907356D02*
X250649244Y-131904944D01*
X250649244Y-131904944D02*
X250750960Y-131897396D01*
X250750960Y-131897396D02*
X250851204Y-131884837D01*
X250851204Y-131884837D02*
X250949848Y-131867393D01*
X250949848Y-131867393D02*
X251141833Y-131818356D01*
X251141833Y-131818356D02*
X251325906Y-131751291D01*
X251325906Y-131751291D02*
X251501057Y-131667208D01*
X251501057Y-131667208D02*
X251666276Y-131567113D01*
X251666276Y-131567113D02*
X251820554Y-131452016D01*
X251820554Y-131452016D02*
X251962880Y-131322925D01*
X251962880Y-131322925D02*
X252092243Y-131180846D01*
X252092243Y-131180846D02*
X252207636Y-131026789D01*
X252207636Y-131026789D02*
X252308046Y-130861761D01*
X252308046Y-130861761D02*
X252392464Y-130686771D01*
X252392464Y-130686771D02*
X252459881Y-130502827D01*
X252459881Y-130502827D02*
X252509286Y-130310936D01*
X252509286Y-130310936D02*
X252526919Y-130212325D01*
X252526919Y-130212325D02*
X252539670Y-130112106D01*
X252539670Y-130112106D02*
X252547413Y-130010405D01*
X252547413Y-130010405D02*
X252550022Y-129907347D01*
X231944798Y-131871678D02*
X250546182Y-131907356D01*
X230456667Y-132531177D02*
X230529789Y-132454401D01*
X230529789Y-132454401D02*
X230606482Y-132381958D01*
X230606482Y-132381958D02*
X230686551Y-132313936D01*
X230686551Y-132313936D02*
X230769796Y-132250422D01*
X230769796Y-132250422D02*
X230856022Y-132191503D01*
X230856022Y-132191503D02*
X230945030Y-132137267D01*
X230945030Y-132137267D02*
X231036624Y-132087801D01*
X231036624Y-132087801D02*
X231130607Y-132043193D01*
X231130607Y-132043193D02*
X231226781Y-132003529D01*
X231226781Y-132003529D02*
X231324950Y-131968897D01*
X231324950Y-131968897D02*
X231424915Y-131939385D01*
X231424915Y-131939385D02*
X231526480Y-131915080D01*
X231526480Y-131915080D02*
X231629449Y-131896070D01*
X231629449Y-131896070D02*
X231733622Y-131882441D01*
X231733622Y-131882441D02*
X231838804Y-131874281D01*
X231838804Y-131874281D02*
X231944798Y-131871678D01*
X215200904Y-149448761D02*
X230456667Y-132531177D01*
X213715624Y-150109380D02*
X213821459Y-150106581D01*
X213821459Y-150106581D02*
X213926477Y-150098243D01*
X213926477Y-150098243D02*
X214030480Y-150084453D01*
X214030480Y-150084453D02*
X214133272Y-150065298D01*
X214133272Y-150065298D02*
X214234657Y-150040865D01*
X214234657Y-150040865D02*
X214334439Y-150011243D01*
X214334439Y-150011243D02*
X214432421Y-149976518D01*
X214432421Y-149976518D02*
X214528408Y-149936777D01*
X214528408Y-149936777D02*
X214622202Y-149892107D01*
X214622202Y-149892107D02*
X214713608Y-149842597D01*
X214713608Y-149842597D02*
X214802430Y-149788333D01*
X214802430Y-149788333D02*
X214888471Y-149729402D01*
X214888471Y-149729402D02*
X214971535Y-149665892D01*
X214971535Y-149665892D02*
X215051426Y-149597891D01*
X215051426Y-149597891D02*
X215127948Y-149525484D01*
X215127948Y-149525484D02*
X215200904Y-149448761D01*
X154450656Y-150109389D02*
X213715624Y-150109380D01*
X152449758Y-148109382D02*
X152452361Y-148212334D01*
X152452361Y-148212334D02*
X152460089Y-148313934D01*
X152460089Y-148313934D02*
X152472815Y-148414055D01*
X152472815Y-148414055D02*
X152490414Y-148512573D01*
X152490414Y-148512573D02*
X152539725Y-148704295D01*
X152539725Y-148704295D02*
X152607017Y-148888092D01*
X152607017Y-148888092D02*
X152691282Y-149062958D01*
X152691282Y-149062958D02*
X152791516Y-149227889D01*
X152791516Y-149227889D02*
X152906710Y-149381877D01*
X152906710Y-149381877D02*
X153035859Y-149523917D01*
X153035859Y-149523917D02*
X153177957Y-149653003D01*
X153177957Y-149653003D02*
X153331996Y-149768128D01*
X153331996Y-149768128D02*
X153496971Y-149868288D01*
X153496971Y-149868288D02*
X153671875Y-149952476D01*
X153671875Y-149952476D02*
X153855702Y-150019686D01*
X153855702Y-150019686D02*
X154047446Y-150068912D01*
X154047446Y-150068912D02*
X154145971Y-150086467D01*
X154145971Y-150086467D02*
X154246099Y-150099148D01*
X154246099Y-150099148D02*
X154347702Y-150106831D01*
X154347702Y-150106831D02*
X154450656Y-150109389D01*
X152449822Y-123729970D02*
X152449758Y-148109382D01*
X149910507Y-123729970D02*
X152449822Y-123729970D01*
X149910572Y-148121935D02*
X149910507Y-123729970D01*
X71888655Y-132570365D02*
X87151396Y-149462788D01*
X70404636Y-131911167D02*
X70510349Y-131913959D01*
X70510349Y-131913959D02*
X70615247Y-131922277D01*
X70615247Y-131922277D02*
X70719134Y-131936036D01*
X70719134Y-131936036D02*
X70821814Y-131955147D01*
X70821814Y-131955147D02*
X70923092Y-131979524D01*
X70923092Y-131979524D02*
X71022771Y-132009079D01*
X71022771Y-132009079D02*
X71120658Y-132043727D01*
X71120658Y-132043727D02*
X71216555Y-132083380D01*
X71216555Y-132083380D02*
X71310268Y-132127952D01*
X71310268Y-132127952D02*
X71401600Y-132177354D01*
X71401600Y-132177354D02*
X71490356Y-132231502D01*
X71490356Y-132231502D02*
X71576341Y-132290306D01*
X71576341Y-132290306D02*
X71659359Y-132353682D01*
X71659359Y-132353682D02*
X71739214Y-132421542D01*
X71739214Y-132421542D02*
X71815711Y-132493798D01*
X71815711Y-132493798D02*
X71888655Y-132570365D01*
X51814751Y-131911167D02*
X70404636Y-131911167D01*
X49814743Y-129911152D02*
X49817345Y-130014072D01*
X49817345Y-130014072D02*
X49825068Y-130115641D01*
X49825068Y-130115641D02*
X49837786Y-130215734D01*
X49837786Y-130215734D02*
X49855374Y-130314224D01*
X49855374Y-130314224D02*
X49904657Y-130505894D01*
X49904657Y-130505894D02*
X49971911Y-130689647D01*
X49971911Y-130689647D02*
X50056130Y-130864477D01*
X50056130Y-130864477D02*
X50156310Y-131029378D01*
X50156310Y-131029378D02*
X50271444Y-131183346D01*
X50271444Y-131183346D02*
X50400529Y-131325375D01*
X50400529Y-131325375D02*
X50542557Y-131454460D01*
X50542557Y-131454460D02*
X50696525Y-131569595D01*
X50696525Y-131569595D02*
X50861426Y-131669775D01*
X50861426Y-131669775D02*
X51036255Y-131753995D01*
X51036255Y-131753995D02*
X51220008Y-131821250D01*
X51220008Y-131821250D02*
X51411678Y-131870533D01*
X51411678Y-131870533D02*
X51510168Y-131888122D01*
X51510168Y-131888122D02*
X51610261Y-131900841D01*
X51610261Y-131900841D02*
X51711830Y-131908564D01*
X51711830Y-131908564D02*
X51814751Y-131911167D01*
X49814830Y-110399453D02*
X49814743Y-129911152D01*
X50773750Y-109374451D02*
X49814830Y-110399453D01*
X50773750Y-92392456D02*
X50773750Y-109374451D01*
X49814830Y-91344996D02*
X50773750Y-92392456D01*
X49814830Y-71869979D02*
X49814830Y-91344996D01*
X51814837Y-69869972D02*
X51711916Y-69872574D01*
X51711916Y-69872574D02*
X51610347Y-69880297D01*
X51610347Y-69880297D02*
X51510255Y-69893016D01*
X51510255Y-69893016D02*
X51411765Y-69910605D01*
X51411765Y-69910605D02*
X51220095Y-69959888D01*
X51220095Y-69959888D02*
X51036343Y-70027142D01*
X51036343Y-70027142D02*
X50861514Y-70111361D01*
X50861514Y-70111361D02*
X50696613Y-70211541D01*
X50696613Y-70211541D02*
X50542646Y-70326676D01*
X50542646Y-70326676D02*
X50400618Y-70455760D01*
X50400618Y-70455760D02*
X50271534Y-70597788D01*
X50271534Y-70597788D02*
X50156399Y-70751755D01*
X50156399Y-70751755D02*
X50056219Y-70916656D01*
X50056219Y-70916656D02*
X49972000Y-71091485D01*
X49972000Y-71091485D02*
X49904746Y-71275237D01*
X49904746Y-71275237D02*
X49855463Y-71466907D01*
X49855463Y-71466907D02*
X49837874Y-71565397D01*
X49837874Y-71565397D02*
X49825155Y-71665489D01*
X49825155Y-71665489D02*
X49817432Y-71767058D01*
X49817432Y-71767058D02*
X49814830Y-71869979D01*
X84914776Y-69869972D02*
X51814837Y-69869972D01*
X85557631Y-67617310D02*
X84914776Y-69869972D01*
X87480880Y-66166128D02*
X87314777Y-66172989D01*
X87314777Y-66172989D02*
X87151845Y-66193254D01*
X87151845Y-66193254D02*
X86992715Y-66226447D01*
X86992715Y-66226447D02*
X86838019Y-66272090D01*
X86838019Y-66272090D02*
X86688390Y-66329706D01*
X86688390Y-66329706D02*
X86544458Y-66398819D01*
X86544458Y-66398819D02*
X86406858Y-66478951D01*
X86406858Y-66478951D02*
X86276220Y-66569625D01*
X86276220Y-66569625D02*
X86153177Y-66670365D01*
X86153177Y-66670365D02*
X86038361Y-66780693D01*
X86038361Y-66780693D02*
X85932404Y-66900133D01*
X85932404Y-66900133D02*
X85835938Y-67028207D01*
X85835938Y-67028207D02*
X85749596Y-67164439D01*
X85749596Y-67164439D02*
X85674009Y-67308351D01*
X85674009Y-67308351D02*
X85609810Y-67459467D01*
X85609810Y-67459467D02*
X85557631Y-67617310D01*
X90318214Y-66166128D02*
X87480880Y-66166128D01*
X90326073Y-52067941D02*
X90318214Y-66166128D01*
X92326059Y-50069070D02*
X92223180Y-50071670D01*
X92223180Y-50071670D02*
X92121650Y-50079387D01*
X92121650Y-50079387D02*
X92021596Y-50092097D01*
X92021596Y-50092097D02*
X91923142Y-50109672D01*
X91923142Y-50109672D02*
X91731538Y-50158919D01*
X91731538Y-50158919D02*
X91547844Y-50226125D01*
X91547844Y-50226125D02*
X91373064Y-50310286D01*
X91373064Y-50310286D02*
X91208201Y-50410398D01*
X91208201Y-50410398D02*
X91054262Y-50525456D01*
X91054262Y-50525456D02*
X90912249Y-50654458D01*
X90912249Y-50654458D02*
X90783169Y-50796398D01*
X90783169Y-50796398D02*
X90668024Y-50950274D01*
X90668024Y-50950274D02*
X90567821Y-51115080D01*
X90567821Y-51115080D02*
X90483562Y-51289814D01*
X90483562Y-51289814D02*
X90416254Y-51473471D01*
X90416254Y-51473471D02*
X90366900Y-51665047D01*
X90366900Y-51665047D02*
X90349270Y-51763491D01*
X90349270Y-51763491D02*
X90336505Y-51863538D01*
X90336505Y-51863538D02*
X90328730Y-51965063D01*
X90328730Y-51965063D02*
X90326073Y-52067941D01*
X147910570Y-50069070D02*
X92326059Y-50069070D01*
X149910572Y-52069077D02*
X149907969Y-51966156D01*
X149907969Y-51966156D02*
X149900246Y-51864587D01*
X149900246Y-51864587D02*
X149887527Y-51764495D01*
X149887527Y-51764495D02*
X149869939Y-51666005D01*
X149869939Y-51666005D02*
X149820656Y-51474336D01*
X149820656Y-51474336D02*
X149753402Y-51290584D01*
X149753402Y-51290584D02*
X149669183Y-51115755D01*
X149669183Y-51115755D02*
X149569004Y-50950854D01*
X149569004Y-50950854D02*
X149453870Y-50796886D01*
X149453870Y-50796886D02*
X149324786Y-50654858D01*
X149324786Y-50654858D02*
X149182758Y-50525774D01*
X149182758Y-50525774D02*
X149028791Y-50410639D01*
X149028791Y-50410639D02*
X148863890Y-50310460D01*
X148863890Y-50310460D02*
X148689061Y-50226240D01*
X148689061Y-50226240D02*
X148505310Y-50158986D01*
X148505310Y-50158986D02*
X148313640Y-50109703D01*
X148313640Y-50109703D02*
X148215150Y-50092114D01*
X148215150Y-50092114D02*
X148115058Y-50079395D01*
X148115058Y-50079395D02*
X148013489Y-50071672D01*
X148013489Y-50071672D02*
X147910570Y-50069070D01*
X149910507Y-78009979D02*
X149910572Y-52069077D01*
X152449844Y-78009979D02*
X149910507Y-78009979D01*
X152449844Y-52069078D02*
X152449844Y-78009979D01*
X154449851Y-50069070D02*
X154346930Y-50071672D01*
X154346930Y-50071672D02*
X154245361Y-50079395D01*
X154245361Y-50079395D02*
X154145269Y-50092114D01*
X154145269Y-50092114D02*
X154046779Y-50109703D01*
X154046779Y-50109703D02*
X153855109Y-50158986D01*
X153855109Y-50158986D02*
X153671357Y-50226240D01*
X153671357Y-50226240D02*
X153496528Y-50310460D01*
X153496528Y-50310460D02*
X153331627Y-50410639D01*
X153331627Y-50410639D02*
X153177660Y-50525774D01*
X153177660Y-50525774D02*
X153035632Y-50654858D01*
X153035632Y-50654858D02*
X152906548Y-50796887D01*
X152906548Y-50796887D02*
X152791413Y-50950854D01*
X152791413Y-50950854D02*
X152691233Y-51115755D01*
X152691233Y-51115755D02*
X152607014Y-51290584D01*
X152607014Y-51290584D02*
X152539760Y-51474336D01*
X152539760Y-51474336D02*
X152490477Y-51666006D01*
X152490477Y-51666006D02*
X152472888Y-51764496D01*
X152472888Y-51764496D02*
X152460169Y-51864588D01*
X152460169Y-51864588D02*
X152452446Y-51966157D01*
X152452446Y-51966157D02*
X152449844Y-52069078D01*
X213186296Y-50069048D02*
X154449851Y-50069070D01*
X215073971Y-51408243D02*
X215015837Y-51261016D01*
X215015837Y-51261016D02*
X214947103Y-51120400D01*
X214947103Y-51120400D02*
X214868329Y-50986793D01*
X214868329Y-50986793D02*
X214780078Y-50860593D01*
X214780078Y-50860593D02*
X214682911Y-50742200D01*
X214682911Y-50742200D02*
X214577390Y-50632011D01*
X214577390Y-50632011D02*
X214464076Y-50530424D01*
X214464076Y-50530424D02*
X214343532Y-50437840D01*
X214343532Y-50437840D02*
X214216320Y-50354656D01*
X214216320Y-50354656D02*
X214083000Y-50281270D01*
X214083000Y-50281270D02*
X213944135Y-50218081D01*
X213944135Y-50218081D02*
X213800287Y-50165489D01*
X213800287Y-50165489D02*
X213652017Y-50123891D01*
X213652017Y-50123891D02*
X213499887Y-50093685D01*
X213499887Y-50093685D02*
X213344460Y-50075271D01*
X213344460Y-50075271D02*
X213186296Y-50069048D01*
X252549935Y-110399453D02*
X251532168Y-109374451D01*
X221067835Y-68530798D02*
X215073971Y-51408243D01*
X222955505Y-69869993D02*
X222797340Y-69863765D01*
X222797340Y-69863765D02*
X222641912Y-69845348D01*
X222641912Y-69845348D02*
X222489783Y-69815141D01*
X222489783Y-69815141D02*
X222341513Y-69773541D01*
X222341513Y-69773541D02*
X222197666Y-69720948D01*
X222197666Y-69720948D02*
X222058803Y-69657759D01*
X222058803Y-69657759D02*
X221925484Y-69584373D01*
X221925484Y-69584373D02*
X221798273Y-69501190D01*
X221798273Y-69501190D02*
X221677730Y-69408606D01*
X221677730Y-69408606D02*
X221564418Y-69307021D01*
X221564418Y-69307021D02*
X221458897Y-69196833D01*
X221458897Y-69196833D02*
X221361731Y-69078441D01*
X221361731Y-69078441D02*
X221273479Y-68952242D01*
X221273479Y-68952242D02*
X221194705Y-68818637D01*
X221194705Y-68818637D02*
X221125970Y-68678022D01*
X221125970Y-68678022D02*
X221067835Y-68530798D01*
X250549993Y-69869993D02*
X222955505Y-69869993D01*
X147908821Y-150121942D02*
X148011805Y-150119426D01*
X148011805Y-150119426D02*
X148113441Y-150111783D01*
X148113441Y-150111783D02*
X148213601Y-150099137D01*
X148213601Y-150099137D02*
X148312161Y-150081615D01*
X148312161Y-150081615D02*
X148503974Y-150032445D01*
X148503974Y-150032445D02*
X148687872Y-149965278D01*
X148687872Y-149965278D02*
X148862847Y-149881122D01*
X148862847Y-149881122D02*
X149027893Y-149780982D01*
X149027893Y-149780982D02*
X149182001Y-149665866D01*
X149182001Y-149665866D02*
X149324165Y-149536779D01*
X149324165Y-149536779D02*
X149453377Y-149394728D01*
X149453377Y-149394728D02*
X149568629Y-149240720D01*
X149568629Y-149240720D02*
X149668913Y-149075762D01*
X149668913Y-149075762D02*
X149753224Y-148900859D01*
X149753224Y-148900859D02*
X149820552Y-148717018D01*
X149820552Y-148717018D02*
X149869891Y-148525246D01*
X149869891Y-148525246D02*
X149887500Y-148426701D01*
X149887500Y-148426701D02*
X149900234Y-148326550D01*
X149900234Y-148326550D02*
X149907966Y-148224919D01*
X149907966Y-148224919D02*
X149910572Y-148121935D01*
X88635367Y-150121964D02*
X147908821Y-150121942D01*
X87151396Y-149462788D02*
X87224336Y-149539351D01*
X87224336Y-149539351D02*
X87300830Y-149611606D01*
X87300830Y-149611606D02*
X87380683Y-149679463D01*
X87380683Y-149679463D02*
X87463698Y-149742836D01*
X87463698Y-149742836D02*
X87549680Y-149801639D01*
X87549680Y-149801639D02*
X87638434Y-149855785D01*
X87638434Y-149855785D02*
X87729763Y-149905186D01*
X87729763Y-149905186D02*
X87823473Y-149949756D01*
X87823473Y-149949756D02*
X87919367Y-149989407D01*
X87919367Y-149989407D02*
X88017251Y-150024054D01*
X88017251Y-150024054D02*
X88116927Y-150053609D01*
X88116927Y-150053609D02*
X88218202Y-150077985D01*
X88218202Y-150077985D02*
X88320879Y-150097095D01*
X88320879Y-150097095D02*
X88424762Y-150110853D01*
X88424762Y-150110853D02*
X88529657Y-150119171D01*
X88529657Y-150119171D02*
X88635367Y-150121964D01*
X251532168Y-109374451D02*
X251532168Y-92392456D01*
X252550000Y-91344996D02*
X252550000Y-71870000D01*
X251532168Y-92392456D02*
X252550000Y-91344996D01*
X252550000Y-71870000D02*
X252547397Y-71767079D01*
X252547397Y-71767079D02*
X252539674Y-71665510D01*
X252539674Y-71665510D02*
X252526955Y-71565418D01*
X252526955Y-71565418D02*
X252509366Y-71466928D01*
X252509366Y-71466928D02*
X252460083Y-71275259D01*
X252460083Y-71275259D02*
X252392829Y-71091507D01*
X252392829Y-71091507D02*
X252308609Y-70916678D01*
X252308609Y-70916678D02*
X252208430Y-70751777D01*
X252208430Y-70751777D02*
X252093295Y-70597809D01*
X252093295Y-70597809D02*
X251964211Y-70455781D01*
X251964211Y-70455781D02*
X251822183Y-70326697D01*
X251822183Y-70326697D02*
X251668215Y-70211562D01*
X251668215Y-70211562D02*
X251503314Y-70111383D01*
X251503314Y-70111383D02*
X251328485Y-70027163D01*
X251328485Y-70027163D02*
X251144733Y-69959909D01*
X251144733Y-69959909D02*
X250953064Y-69910626D01*
X250953064Y-69910626D02*
X250854574Y-69893037D01*
X250854574Y-69893037D02*
X250754482Y-69880318D01*
X250754482Y-69880318D02*
X250652913Y-69872595D01*
X250652913Y-69872595D02*
X250549993Y-69869993D01*
M02*
