<?xml version="1.0" encoding="utf-8"?>
<!-- Generator: Adobe Illustrator 24.2.3, SVG Export Plug-In . SVG Version: 6.00 Build 0)  -->
<svg version="1.1" xmlns="http://www.w3.org/2000/svg" xmlns:xlink="http://www.w3.org/1999/xlink" x="0px" y="0px"
	 viewBox="0 0 735.18 321.49" style="enable-background:new 0 0 735.18 321.49;" xml:space="preserve">
<g id="note">
	<g>
		<path d="M11.66,267.24l-3.08-12.88h2.66l1.94,8.85l2.36-8.85h3.09l2.26,9l1.98-9h2.62l-3.13,12.88h-2.76l-2.57-9.63l-2.56,9.63
			H11.66z"/>
		<path d="M32.28,260.37v-2.47h2.47v2.47H32.28z M32.28,267.24v-2.47h2.47v2.47H32.28z"/>
		<path d="M50.61,264.94v2.29h-8.66c0.09-0.87,0.38-1.69,0.84-2.46s1.39-1.81,2.78-3.09c1.11-1.04,1.8-1.74,2.05-2.11
			c0.34-0.51,0.51-1.01,0.51-1.51c0-0.55-0.15-0.97-0.44-1.27s-0.7-0.44-1.23-0.44c-0.52,0-0.93,0.16-1.23,0.47
			s-0.48,0.83-0.53,1.55l-2.46-0.25c0.15-1.36,0.61-2.33,1.38-2.93s1.74-0.89,2.9-0.89c1.27,0,2.27,0.34,3,1.03
			c0.73,0.69,1.09,1.54,1.09,2.56c0,0.58-0.1,1.13-0.31,1.66c-0.21,0.53-0.54,1.07-0.99,1.65c-0.3,0.38-0.84,0.93-1.62,1.64
			s-1.27,1.19-1.48,1.42s-0.38,0.46-0.51,0.69H50.61z"/>
		<path d="M52.32,263.92l2.46-0.25c0.07,0.56,0.28,1,0.62,1.32c0.35,0.33,0.74,0.49,1.2,0.49c0.52,0,0.95-0.21,1.31-0.63
			c0.36-0.42,0.54-1.05,0.54-1.89c0-0.79-0.18-1.38-0.53-1.78c-0.35-0.39-0.82-0.59-1.38-0.59c-0.71,0-1.34,0.31-1.91,0.94l-2-0.29
			l1.27-6.71h6.53v2.31h-4.66l-0.39,2.19c0.55-0.28,1.11-0.41,1.69-0.41c1.1,0,2.02,0.4,2.79,1.2s1.14,1.83,1.14,3.1
			c0,1.06-0.31,2.01-0.92,2.84c-0.84,1.14-2,1.71-3.49,1.71c-1.19,0-2.16-0.32-2.91-0.96S52.47,265,52.32,263.92z"/>
		<path d="M62.21,263.82l2.39-0.29c0.08,0.61,0.28,1.08,0.62,1.4s0.74,0.48,1.21,0.48c0.51,0,0.94-0.19,1.29-0.58
			s0.52-0.91,0.52-1.56c0-0.62-0.17-1.11-0.5-1.48s-0.74-0.54-1.22-0.54c-0.32,0-0.69,0.06-1.13,0.18l0.27-2.01
			c0.67,0.02,1.18-0.13,1.53-0.44c0.35-0.31,0.53-0.72,0.53-1.23c0-0.43-0.13-0.78-0.39-1.04s-0.6-0.39-1.03-0.39
			c-0.42,0-0.78,0.15-1.08,0.44s-0.48,0.72-0.54,1.28l-2.28-0.39c0.16-0.78,0.4-1.4,0.72-1.87c0.32-0.46,0.76-0.83,1.34-1.1
			s1.21-0.4,1.92-0.4c1.21,0,2.19,0.39,2.92,1.16c0.6,0.63,0.91,1.35,0.91,2.14c0,1.13-0.62,2.03-1.85,2.71
			c0.74,0.16,1.33,0.51,1.77,1.06s0.66,1.22,0.66,2c0,1.13-0.41,2.09-1.24,2.89s-1.85,1.2-3.08,1.2c-1.17,0-2.13-0.33-2.9-1.01
			C62.78,265.78,62.33,264.9,62.21,263.82z"/>
		<path d="M72.83,267.24v-2.47h2.47v2.47H72.83z"/>
		<path d="M77.22,263.82l2.39-0.29c0.08,0.61,0.28,1.08,0.62,1.4s0.74,0.48,1.21,0.48c0.51,0,0.94-0.19,1.29-0.58
			s0.52-0.91,0.52-1.56c0-0.62-0.17-1.11-0.5-1.48s-0.74-0.54-1.22-0.54c-0.32,0-0.69,0.06-1.13,0.18l0.27-2.01
			c0.67,0.02,1.18-0.13,1.53-0.44c0.35-0.31,0.53-0.72,0.53-1.23c0-0.43-0.13-0.78-0.39-1.04s-0.6-0.39-1.03-0.39
			c-0.42,0-0.78,0.15-1.08,0.44s-0.48,0.72-0.54,1.28l-2.28-0.39c0.16-0.78,0.4-1.4,0.72-1.87c0.32-0.46,0.76-0.83,1.34-1.1
			s1.21-0.4,1.92-0.4c1.21,0,2.19,0.39,2.92,1.16c0.6,0.63,0.91,1.35,0.91,2.14c0,1.13-0.62,2.03-1.85,2.71
			c0.74,0.16,1.33,0.51,1.77,1.06s0.66,1.22,0.66,2c0,1.13-0.41,2.09-1.24,2.89s-1.85,1.2-3.08,1.2c-1.17,0-2.13-0.33-2.9-1.01
			C77.79,265.78,77.34,264.9,77.22,263.82z"/>
		<path d="M92.16,267.24v-2.59h-5.27v-2.16l5.59-8.18h2.07v8.17h1.6v2.17h-1.6v2.59H92.16z M92.16,262.47v-4.4l-2.96,4.4H92.16z"/>
		<path d="M102.67,257.9h2.28v1.27c0.81-0.99,1.78-1.49,2.91-1.49c0.6,0,1.12,0.12,1.56,0.37s0.8,0.62,1.08,1.12
			c0.41-0.5,0.85-0.87,1.33-1.12s0.98-0.37,1.52-0.37c0.69,0,1.27,0.14,1.74,0.42s0.83,0.69,1.06,1.23c0.17,0.4,0.25,1.04,0.25,1.93
			v5.97h-2.47v-5.33c0-0.93-0.08-1.52-0.25-1.79c-0.23-0.35-0.58-0.53-1.05-0.53c-0.35,0-0.67,0.11-0.98,0.32s-0.52,0.52-0.66,0.93
			c-0.13,0.41-0.2,1.05-0.2,1.93v4.48h-2.47v-5.12c0-0.91-0.04-1.49-0.13-1.76s-0.22-0.46-0.41-0.59s-0.44-0.19-0.75-0.19
			c-0.38,0-0.72,0.1-1.03,0.31s-0.52,0.5-0.65,0.89s-0.2,1.03-0.2,1.92v4.54h-2.47V257.9z"/>
		<path d="M118.68,257.9h2.28v1.27c0.81-0.99,1.78-1.49,2.91-1.49c0.6,0,1.12,0.12,1.56,0.37s0.8,0.62,1.08,1.12
			c0.41-0.5,0.85-0.87,1.33-1.12s0.98-0.37,1.52-0.37c0.69,0,1.27,0.14,1.74,0.42s0.83,0.69,1.06,1.23c0.17,0.4,0.25,1.04,0.25,1.93
			v5.97h-2.47v-5.33c0-0.93-0.08-1.52-0.25-1.79c-0.23-0.35-0.58-0.53-1.05-0.53c-0.35,0-0.67,0.11-0.98,0.32s-0.52,0.52-0.66,0.93
			c-0.13,0.41-0.2,1.05-0.2,1.93v4.48h-2.47v-5.12c0-0.91-0.04-1.49-0.13-1.76s-0.22-0.46-0.41-0.59s-0.44-0.19-0.75-0.19
			c-0.38,0-0.72,0.1-1.03,0.31s-0.52,0.5-0.65,0.89s-0.2,1.03-0.2,1.92v4.54h-2.47V257.9z"/>
		<path d="M9.84,291.24v-12.88h2.6v5.07h5.1v-5.07h2.6v12.88h-2.6v-5.63h-5.1v5.63H9.84z"/>
		<path d="M28.29,284.37v-2.47h2.47v2.47H28.29z M28.29,291.24v-2.47h2.47v2.47H28.29z"/>
		<path d="M44.6,291.24h-2.47v-9.31c-0.9,0.84-1.97,1.47-3.19,1.87v-2.24c0.64-0.21,1.34-0.61,2.1-1.2
			c0.76-0.59,1.27-1.28,1.56-2.06h2V291.24z"/>
		<path d="M52.47,278.3c1.25,0,2.22,0.45,2.93,1.34c0.84,1.05,1.26,2.8,1.26,5.25c0,2.44-0.42,4.19-1.27,5.26
			c-0.7,0.88-1.67,1.32-2.92,1.32c-1.25,0-2.26-0.48-3.03-1.45c-0.77-0.96-1.15-2.68-1.15-5.15c0-2.43,0.42-4.17,1.27-5.24
			C50.25,278.74,51.22,278.3,52.47,278.3z M52.47,280.35c-0.3,0-0.57,0.1-0.8,0.29s-0.42,0.53-0.54,1.02
			c-0.17,0.64-0.25,1.71-0.25,3.23s0.08,2.55,0.23,3.12s0.34,0.94,0.58,1.13s0.5,0.28,0.8,0.28s0.57-0.09,0.8-0.29
			s0.42-0.53,0.54-1.02c0.17-0.63,0.25-1.71,0.25-3.22s-0.08-2.55-0.23-3.12c-0.15-0.56-0.34-0.94-0.58-1.13
			S52.77,280.35,52.47,280.35z"/>
		<path d="M58.3,280.82v-2.29h8.45v1.79c-0.7,0.69-1.41,1.67-2.13,2.95s-1.27,2.65-1.65,4.09s-0.56,2.73-0.56,3.87h-2.38
			c0.04-1.78,0.41-3.6,1.1-5.45s1.62-3.51,2.78-4.97H58.3z"/>
		<path d="M68.84,291.24v-2.47h2.47v2.47H68.84z"/>
		<path d="M77.49,278.3c1.25,0,2.22,0.45,2.93,1.34c0.84,1.05,1.26,2.8,1.26,5.25c0,2.44-0.42,4.19-1.27,5.26
			c-0.7,0.88-1.67,1.32-2.92,1.32c-1.25,0-2.26-0.48-3.03-1.45c-0.77-0.96-1.15-2.68-1.15-5.15c0-2.43,0.42-4.17,1.27-5.24
			C75.27,278.74,76.24,278.3,77.49,278.3z M77.49,280.35c-0.3,0-0.57,0.1-0.8,0.29s-0.42,0.53-0.54,1.02
			c-0.17,0.64-0.25,1.71-0.25,3.23s0.08,2.55,0.23,3.12s0.34,0.94,0.58,1.13s0.5,0.28,0.8,0.28s0.57-0.09,0.8-0.29
			s0.42-0.53,0.54-1.02c0.17-0.63,0.25-1.71,0.25-3.22s-0.08-2.55-0.23-3.12c-0.15-0.56-0.34-0.94-0.58-1.13
			S77.79,280.35,77.49,280.35z"/>
		<path d="M83.33,280.82v-2.29h8.45v1.79c-0.7,0.69-1.41,1.67-2.13,2.95s-1.27,2.65-1.65,4.09s-0.56,2.73-0.56,3.87h-2.38
			c0.04-1.78,0.41-3.6,1.1-5.45s1.62-3.51,2.78-4.97H83.33z"/>
		<path d="M93.25,287.82l2.39-0.29c0.08,0.61,0.28,1.08,0.62,1.4s0.74,0.48,1.21,0.48c0.51,0,0.94-0.19,1.29-0.58
			s0.52-0.91,0.52-1.56c0-0.62-0.17-1.11-0.5-1.48s-0.74-0.54-1.22-0.54c-0.32,0-0.69,0.06-1.13,0.18l0.27-2.01
			c0.67,0.02,1.18-0.13,1.53-0.44c0.35-0.31,0.53-0.72,0.53-1.23c0-0.43-0.13-0.78-0.39-1.04s-0.6-0.39-1.03-0.39
			c-0.42,0-0.78,0.15-1.08,0.44s-0.48,0.72-0.54,1.28l-2.28-0.39c0.16-0.78,0.4-1.4,0.72-1.87c0.32-0.46,0.76-0.83,1.34-1.1
			s1.21-0.4,1.92-0.4c1.21,0,2.19,0.39,2.92,1.16c0.6,0.63,0.91,1.35,0.91,2.14c0,1.13-0.62,2.03-1.85,2.71
			c0.74,0.16,1.33,0.51,1.77,1.06s0.66,1.22,0.66,2c0,1.13-0.41,2.09-1.24,2.89s-1.85,1.2-3.08,1.2c-1.17,0-2.13-0.33-2.9-1.01
			C93.82,289.78,93.37,288.9,93.25,287.82z"/>
		<path d="M108.69,281.9h2.28v1.27c0.81-0.99,1.78-1.49,2.91-1.49c0.6,0,1.12,0.12,1.56,0.37s0.8,0.62,1.08,1.12
			c0.41-0.5,0.85-0.87,1.33-1.12s0.98-0.37,1.52-0.37c0.69,0,1.27,0.14,1.74,0.42s0.83,0.69,1.06,1.23c0.17,0.4,0.25,1.04,0.25,1.93
			v5.97h-2.47v-5.33c0-0.93-0.08-1.52-0.25-1.79c-0.23-0.35-0.58-0.53-1.05-0.53c-0.35,0-0.67,0.11-0.98,0.32s-0.52,0.52-0.66,0.93
			c-0.13,0.41-0.2,1.05-0.2,1.93v4.48h-2.47v-5.12c0-0.91-0.04-1.49-0.13-1.76s-0.22-0.46-0.41-0.59s-0.44-0.19-0.75-0.19
			c-0.38,0-0.72,0.1-1.03,0.31s-0.52,0.5-0.65,0.89s-0.2,1.03-0.2,1.92v4.54h-2.47V281.9z"/>
		<path d="M124.7,281.9h2.28v1.27c0.81-0.99,1.78-1.49,2.91-1.49c0.6,0,1.12,0.12,1.56,0.37s0.8,0.62,1.08,1.12
			c0.41-0.5,0.85-0.87,1.33-1.12s0.98-0.37,1.52-0.37c0.69,0,1.27,0.14,1.74,0.42s0.83,0.69,1.06,1.23c0.17,0.4,0.25,1.04,0.25,1.93
			v5.97h-2.47v-5.33c0-0.93-0.08-1.52-0.25-1.79c-0.23-0.35-0.58-0.53-1.05-0.53c-0.35,0-0.67,0.11-0.98,0.32s-0.52,0.52-0.66,0.93
			c-0.13,0.41-0.2,1.05-0.2,1.93v4.48h-2.47v-5.12c0-0.91-0.04-1.49-0.13-1.76s-0.22-0.46-0.41-0.59s-0.44-0.19-0.75-0.19
			c-0.38,0-0.72,0.1-1.03,0.31s-0.52,0.5-0.65,0.89s-0.2,1.03-0.2,1.92v4.54h-2.47V281.9z"/>
	</g>
</g>
<g id="cut">
	<path d="M726.52,197.26L698.8,40.03c-0.72-4.06-4.25-7.03-8.37-7.03H468.47l-2.97,16.84c-0.41,2.31-2.61,3.86-4.93,3.45
		l-19.54-3.45c-2.31-0.41-3.86-2.61-3.45-4.93l2.88-16.34l-21.36-3.74l-1.01,5.56c-0.27,1.55-1.75,2.58-3.29,2.31l-80.94-14.27
		c-1.55-0.27-2.58-1.75-2.31-3.29l0.98-5.44l-3.86-0.67c-1.54-0.27-3.01,0.76-3.28,2.3l-7.76,44.04c-0.27,1.54-1.75,2.57-3.29,2.3
		l-38.84-6.92c-0.93-0.17-1.72-0.79-2.1-1.66l-2.35-5.41c-0.38-0.87-1.17-1.5-2.11-1.66L218.05,33L44.83,33
		c-4.13,0-7.66,2.96-8.37,7.02L8.65,197.26c-0.82,4.63,2.27,9.04,6.9,9.86l53.31,9.38c0.71,0.13,1.44,0.11,2.15-0.04l23.98-5.06
		c0.71-0.15,1.45-0.16,2.17-0.03l98.95,17.49c2.94,0.52,5.39,2.54,6.46,5.33l22.09,57.52c0.33,0.84,1.04,1.48,1.91,1.71l71.39,19.08
		H437.4l71.26-19.08c0.87-0.23,1.58-0.87,1.91-1.71l22.1-57.52c1.07-2.78,3.52-4.8,6.46-5.32l99.04-17.5
		c0.72-0.13,1.46-0.12,2.17,0.04l23.86,5.06c0.71,0.15,1.44,0.16,2.16,0.04l53.26-9.38C724.25,206.3,727.34,201.89,726.52,197.26z
		 M326.08,43.66l3.34-18.91c0.27-1.54,1.74-2.57,3.28-2.3l92.47,16.3c1.54,0.27,2.57,1.74,2.3,3.28l-3.34,18.91
		c-0.27,1.54-1.74,2.57-3.28,2.3l-92.47-16.3C326.84,46.67,325.81,45.2,326.08,43.66z M324.07,57.04l0.49-2.77
		c0.27-1.55,1.75-2.58,3.29-2.31l80.94,14.27c1.55,0.27,2.58,1.75,2.31,3.29l-0.49,2.77c-0.27,1.55-1.75,2.58-3.29,2.31
		l-80.94-14.27C324.83,60.07,323.8,58.59,324.07,57.04z M230.14,225.67c0-4.07,3.3-7.37,7.37-7.37c4.07,0,7.37,3.3,7.37,7.37
		c0,4.07-3.3,7.37-7.37,7.37C233.44,233.04,230.14,229.74,230.14,225.67z M489.48,278.34l-43.76,19.19
		c-7.18,3.15-14.93,4.77-22.77,4.77H312.37c-7.79,0-15.5-1.61-22.65-4.72l-44.16-19.24c-3.86-1.68-5.91-5.93-4.82-10l5.11-19.07
		c1.06-3.94,4.76-6.58,8.83-6.28l39.03,2.84l65.92,0c2.27,1.55,5,2.45,7.95,2.45c2.95,0,5.68-0.91,7.95-2.45l65.79,0l39.03-2.84
		c4.07-0.3,7.78,2.34,8.83,6.28l5.11,19.07C495.39,272.41,493.34,276.66,489.48,278.34z M360.2,234.12c0-4.07,3.3-7.37,7.37-7.37
		c4.07,0,7.37,3.3,7.37,7.37c0,4.07-3.3,7.37-7.37,7.37C363.5,241.49,360.2,238.19,360.2,234.12z M497.68,233.03
		c-4.07,0-7.37-3.3-7.37-7.37s3.3-7.37,7.37-7.37c4.07,0,7.37,3.3,7.37,7.37S501.75,233.03,497.68,233.03z M704.89,193.29
		l-42.63,7.52c-2.08,0.37-4.23-0.05-6.02-1.18l-9.78-6.17c-1.86-1.17-4.11-1.58-6.26-1.14l-77.49,16.03l-53.67,8.88
		c-2.58-3.47-6.7-5.73-11.36-5.73c-6.32,0-11.66,4.13-13.49,9.84l-71.24,11l-18.75-0.04c-4.12-0.01-7.65-2.97-8.36-7.04
		l-13.74-78.43c-0.38-2.19-2.28-3.78-4.5-3.78c-2.22,0-4.12,1.6-4.5,3.78l-13.49,78.4c-0.7,4.07-4.23,7.05-8.36,7.06l-19,0.04
		l-71.06-10.41c-1.64-6.01-7.13-10.44-13.66-10.44c-4.89,0-9.2,2.47-11.74,6.24l-56.74-9.39l-77.49-16.03
		c-2.16-0.45-4.4-0.04-6.26,1.14l-9.78,6.17c-1.79,1.13-3.93,1.55-6.02,1.18l-42.63-7.52c-4.63-0.82-7.71-5.23-6.9-9.85L42.63,54.97
		c0.7-3.94,4.04-6.86,8.03-7.02L98.97,46h107.11c1.65,0,3.3,0.14,4.92,0.43l18,3.17l0,0l181.23,31.96c3.08,0.54,6.03-1.51,6.57-4.6
		l0.01-0.04c0.36-2.06,1.83-3.75,3.81-4.4l53.33-17.55c1.29-0.42,2.6-0.75,3.94-0.99l42.84-7.55c1.63-0.29,3.27-0.43,4.92-0.43
		h107.11l50.59,2.04c2.66,0.11,4.89,2.05,5.35,4.68l23.08,130.71C712.6,188.06,709.52,192.47,704.89,193.29z"/>
	<g>
	</g>
	<g>
	</g>
	<g>
	</g>
	<g>
	</g>
	<g>
	</g>
	<g>
	</g>
</g>
</svg>
