<?xml version="1.0" encoding="utf-8"?>
<!-- Generator: Adobe Illustrator 24.2.3, SVG Export Plug-In . SVG Version: 6.00 Build 0)  -->
<svg version="1.1" xmlns="http://www.w3.org/2000/svg" xmlns:xlink="http://www.w3.org/1999/xlink" x="0px" y="0px"
	 viewBox="0 0 735.14 325.14" style="enable-background:new 0 0 735.14 325.14;" xml:space="preserve">
<g id="cut">
	<g>
		<line x1="347.15" y1="148.4" x2="347.15" y2="148.4"/>
		<path d="M726.5,201.4L698.78,44.17c-0.72-4.06-4.25-7.03-8.37-7.03H465.73l-26.48-4.64c-0.77-0.13-1.5,0.38-1.64,1.15L435.78,44
			l-6.46,2.35l-5.27-4.42l0.43-2.53c0.21-1.19-0.59-2.33-1.78-2.54c-1.19-0.21-2.32,0.58-2.54,1.77l-7.11,39.83
			c-0.41,2.31-2.62,3.85-4.93,3.44l-43.56-7.7c-0.77-0.14-1.51,0.38-1.64,1.15l-1.69,9.59l-6.46,2.35l-5.27-4.42l1.69-9.6
			c0.14-0.77-0.38-1.51-1.15-1.64l-17.37-3.07c-0.77-0.14-1.51,0.38-1.64,1.15l-1.69,9.56l-6.46,2.35l-5.27-4.42l1.69-9.57
			c0.14-0.77-0.38-1.51-1.15-1.64l-2.47-0.44c-0.72-0.13-1.36-0.53-1.79-1.11l-1.62-2.21c-0.43-0.59-1.07-0.99-1.79-1.11
			l-34.91-6.16c-0.94-0.17-1.73-0.79-2.11-1.67l-2.34-5.42c-0.38-0.87-1.17-1.5-2.1-1.67l-50.99-9.08l-173.22,0
			c-4.13,0-7.66,2.96-8.37,7.02L8.64,201.4c-0.82,4.63,2.27,9.04,6.9,9.86l53.31,9.38c0.71,0.13,1.44,0.11,2.15-0.04l23.98-5.06
			c0.71-0.15,1.45-0.16,2.17-0.03L196.1,233c2.94,0.52,5.39,2.54,6.46,5.33l22.09,57.51c0.33,0.84,1.04,1.48,1.91,1.71l71.39,19.08
			h139.43l71.26-19.08c0.87-0.23,1.58-0.87,1.91-1.71l22.1-57.51c1.07-2.78,3.52-4.8,6.46-5.32l99.04-17.5
			c0.72-0.13,1.46-0.12,2.17,0.04l23.86,5.06c0.71,0.15,1.44,0.16,2.16,0.04l53.26-9.38C724.23,210.44,727.32,206.03,726.5,201.4z
			 M701.75,146.04l-38.8,6.84l-7.33-41.59l38.8-6.84L701.75,146.04z M630.13,50.87l5.5,31.2c0.35,1.99,2.63,3,4.32,1.89
			c1.34-0.89,2.94-1.4,4.67-1.4c0.68,0,1.34,0.08,1.97,0.23c1.97,0.47,3.76-1.26,3.41-3.25l-3.78-21.43l38.8-6.84l7.33,41.59
			l-38.8,6.84l-0.02-0.13c-0.33-1.87-2.48-2.66-4.02-1.56c-1.38,0.98-3.07,1.55-4.9,1.55c-4.14,0-7.59-2.97-8.35-6.89l-37.61,6.63
			l-7.33-41.59L630.13,50.87z M575.23,50.48l7.33,41.59l-38.8,6.84l-7.33-41.59L575.23,50.48z M520.33,50.1l7.33,41.59l-38.8,6.84
			l-7.33-41.59L520.33,50.1z M494.96,217.19l-38.8,6.84l-7.33-41.59l38.8-6.84L494.96,217.19z M485.58,164.01l-38.8,6.84
			l-7.33-41.59l38.8-6.84L485.58,164.01z M440.65,46.86l1.23-6.98c0.2-1.16,1.31-1.93,2.46-1.72l19.85,3.49
			c1.16,0.2,1.93,1.31,1.72,2.46l-1.23,6.98c-0.2,1.16-1.31,1.93-2.46,1.72l-19.85-3.49C441.21,49.12,440.44,48.02,440.65,46.86z
			 M249.55,164.01l7.33-41.59l38.8,6.84l-7.33,41.59L249.55,164.01z M286.31,182.43l-7.33,41.59l-38.8-6.84l7.33-41.59
			L286.31,182.43z M214.8,50.08l38.8,6.84l-7.33,41.59l-38.8-6.84L214.8,50.08z M159.9,50.48l38.8,6.84l-7.33,41.59l-38.8-6.84
			L159.9,50.48z M50.1,51.26l38.8,6.84l-3.78,21.43c-0.35,1.99,1.44,3.72,3.41,3.25c0.63-0.15,1.3-0.23,1.98-0.23
			c1.73,0,3.33,0.52,4.67,1.4c1.69,1.12,3.97,0.1,4.32-1.89l5.5-31.2l38.8,6.84l-7.33,41.59l-37.61-6.63
			c-0.75,3.92-4.2,6.89-8.35,6.89c-1.83,0-3.51-0.58-4.9-1.56c-1.55-1.1-3.7-0.31-4.03,1.56l-0.02,0.13l-38.8-6.84L50.1,51.26z
			 M40.72,104.44l38.8,6.84l-7.33,41.59l-38.8-6.84L40.72,104.44z M117.72,205.67l-38.21-6.74c-0.54,4.18-4.1,7.42-8.43,7.42
			c-1.88,0-3.61-0.61-5.02-1.64c-1.23-0.9-2.96-0.27-3.22,1.23l-0.02,0.12l-38.8-6.84l7.33-41.59l38.8,6.84l-3.84,21.78
			c-0.34,1.95,1.38,3.55,3.34,3.22c0.47-0.08,0.94-0.12,1.43-0.12c1.89,0,3.63,0.61,5.04,1.65c1.7,1.26,4.13,0.32,4.49-1.77
			l5.64-31.99l38.8,6.84L117.72,205.67z M88.29,145.65l7.33-41.59l38.8,6.84l-7.33,41.59L88.29,145.65z M179.71,165.07l-7.09,40.2
			l-38.8-6.84l0.25-1.4l6.84-38.8h0l0.25-1.4l38.8,6.84L179.71,165.07z M182.05,152.05l-0.01,0.04l-38.8-6.84l7.33-41.59l38.8,6.84
			l-3.79,21.51c-0.35,1.99,1.44,3.71,3.4,3.25c0.61-0.14,1.26-0.22,1.91-0.22c1.73,0,3.34,0.52,4.68,1.41
			c1.69,1.12,3.97,0.11,4.32-1.89l5.52-31.3l38.8,6.84l-7.33,41.59l-37.62-6.63c-0.72,3.97-4.18,6.99-8.36,6.99
			c-1.82,0-3.51-0.57-4.89-1.55C184.49,149.42,182.38,150.22,182.05,152.05z M188.71,198.04l7.33-41.59l38.8,6.84l-7.33,41.59
			L188.71,198.04z M237.49,237.15c-4.07,0-7.37-3.3-7.37-7.37s3.3-7.37,7.37-7.37s7.37,3.3,7.37,7.37S241.56,237.15,237.49,237.15z
			 M280.89,298.31l-38.06-10.2l10.93-40.8l38.06,10.2L280.89,298.31z M413.77,283.6h-0.02l0,20.42l-8.66,0
			c-0.72,1.33-2.11,2.25-3.73,2.25s-3.01-0.92-3.73-2.25l-6.07,0v-1.37l-48.01,0v1.37l-6.14,0c-0.72,1.33-2.11,2.25-3.73,2.25
			s-3.01-0.92-3.73-2.25l-8.56,0l0.01-51.73l92.35-0.01l0,23.43h0.02V283.6z M404.7,243.18l-3.11-17.62l-15.6,9
			c-0.65,0.38-1.39,0.58-2.14,0.58h-9.6c0.44,0.95,0.7,2,0.7,3.12c0,4.07-3.3,7.37-7.37,7.37c-4.07,0-7.37-3.3-7.37-7.37
			c0-1.24,0.68-3.12,0.68-3.12h-9.57c-0.75,0-1.49-0.2-2.14-0.58l-15.63-9.02l-3.11,17.63l-38.8-6.84l7.33-41.59l38.8,6.84
			l2.04-11.59l-38.8-6.84l7.33-41.59l38.8,6.84l2.04-11.59l-38.8-6.84l0-0.02c0.32-1.79-1.38-3.19-3.12-2.66
			c-1.3,0.39-2.72,0.48-4.2,0.18c-3.12-0.62-5.67-3.04-6.47-6.11c-0.35-1.36-0.36-2.69-0.12-3.91l-37.56-6.62l7.33-41.59l38.8,6.84
			l-5.56,31.53c-0.35,1.99,1.43,3.71,3.4,3.25c0.61-0.14,1.25-0.22,1.91-0.22c1.74,0,3.36,0.52,4.7,1.42
			c1.7,1.13,3.99,0.14,4.35-1.87l3.85-21.82l38.8,6.84l-1.83,10.39l25.75,0l-1.83-10.39l38.8-6.84l3.84,21.79
			c0.35,1.99,2.63,3.01,4.32,1.89c1.34-0.89,2.95-1.41,4.68-1.41c0.68,0,1.33,0.08,1.97,0.23c1.97,0.47,3.76-1.26,3.41-3.25
			l-5.56-31.55l38.8-6.84l7.33,41.59l-37.62,6.63c0.25,1.23,0.24,2.55-0.12,3.91c-0.8,3.07-3.34,5.48-6.44,6.11
			c-1.49,0.3-2.92,0.21-4.22-0.18c-1.71-0.52-3.38,0.88-3.07,2.64l0.01,0.04l-38.8,6.84l2.04,11.59l38.8-6.84l7.33,41.59l-38.8,6.84
			l2.04,11.59l38.8-6.84l7.33,41.59L404.7,243.18z M454.24,298.31l-10.93-40.8l38.06-10.2l10.93,40.8L454.24,298.31z M497.65,237.16
			c-4.07,0-7.37-3.3-7.37-7.37s3.3-7.37,7.37-7.37s7.37,3.3,7.37,7.37S501.72,237.16,497.65,237.16z M507.61,204.88l-7.33-41.59
			l38.8-6.84l7.33,41.59L507.61,204.88z M553.13,152.06c-0.33-1.87-2.47-2.65-4.02-1.56c-1.38,0.98-3.07,1.55-4.89,1.55
			c-4.18,0-7.64-3.01-8.36-6.98l-37.63,6.63l-7.33-41.59l38.8-6.84l5.52,31.3c0.35,1.99,2.63,3.01,4.32,1.89
			c1.34-0.89,2.95-1.41,4.68-1.41c0.68,0,1.33,0.08,1.96,0.23c1.97,0.47,3.76-1.26,3.41-3.25l-3.79-21.52l38.8-6.84l7.33,41.59
			l-38.8,6.84L553.13,152.06z M562.52,205.27l-7.33-41.59l38.8-6.84l7.33,41.59L562.52,205.27z M600.71,110.89l38.8-6.84l7.33,41.59
			l-38.8,6.84L600.71,110.89z M672.32,206.06l-0.02-0.12c-0.26-1.5-2-2.13-3.22-1.23c-1.41,1.03-3.14,1.64-5.01,1.64
			c-4.33,0-7.89-3.23-8.43-7.42l-38.22,6.74l-7.33-41.59l38.8-6.84l5.64,32c0.37,2.09,2.79,3.02,4.5,1.76
			c1.41-1.04,3.15-1.65,5.04-1.65c0.49,0,0.97,0.04,1.43,0.12c1.95,0.33,3.68-1.26,3.33-3.21l-3.84-21.78l38.8-6.84l4.59,26.03
			l2.75,15.57L672.32,206.06z"/>
	</g>
</g>
<g id="note">
	<g>
		<path d="M11.64,267.4l-3.08-12.88h2.66l1.94,8.85l2.36-8.85h3.09l2.26,9l1.98-9h2.62l-3.13,12.88h-2.76l-2.57-9.63l-2.56,9.63
			H11.64z"/>
		<path d="M32.26,260.54v-2.47h2.47v2.47H32.26z M32.26,267.4v-2.47h2.47v2.47H32.26z"/>
		<path d="M50.59,265.11v2.29h-8.66c0.09-0.87,0.38-1.69,0.84-2.46s1.39-1.81,2.78-3.09c1.11-1.04,1.8-1.74,2.05-2.11
			c0.34-0.51,0.51-1.01,0.51-1.51c0-0.55-0.15-0.97-0.44-1.27s-0.7-0.44-1.23-0.44c-0.52,0-0.93,0.16-1.23,0.47
			s-0.48,0.83-0.53,1.55l-2.46-0.25c0.15-1.36,0.61-2.33,1.38-2.93s1.74-0.89,2.9-0.89c1.27,0,2.27,0.34,3,1.03
			c0.73,0.69,1.09,1.54,1.09,2.56c0,0.58-0.1,1.13-0.31,1.66c-0.21,0.53-0.54,1.07-0.99,1.65c-0.3,0.38-0.84,0.93-1.62,1.64
			s-1.27,1.19-1.48,1.42s-0.38,0.46-0.51,0.69H50.59z"/>
		<path d="M52.3,264.09l2.46-0.25c0.07,0.56,0.28,1,0.62,1.32c0.35,0.33,0.74,0.49,1.2,0.49c0.52,0,0.95-0.21,1.31-0.63
			c0.36-0.42,0.54-1.05,0.54-1.89c0-0.79-0.18-1.38-0.53-1.78c-0.35-0.39-0.82-0.59-1.38-0.59c-0.71,0-1.34,0.31-1.91,0.94l-2-0.29
			l1.27-6.71h6.53V257h-4.66l-0.39,2.19c0.55-0.28,1.11-0.41,1.69-0.41c1.1,0,2.02,0.4,2.79,1.2s1.14,1.83,1.14,3.1
			c0,1.06-0.31,2.01-0.92,2.84c-0.84,1.14-2,1.71-3.49,1.71c-1.19,0-2.16-0.32-2.91-0.96S52.45,265.16,52.3,264.09z"/>
		<path d="M62.19,263.98l2.39-0.29c0.08,0.61,0.28,1.08,0.62,1.4s0.74,0.48,1.21,0.48c0.51,0,0.94-0.19,1.29-0.58
			s0.52-0.91,0.52-1.56c0-0.62-0.17-1.11-0.5-1.48s-0.74-0.54-1.22-0.54c-0.32,0-0.69,0.06-1.13,0.18l0.27-2.01
			c0.67,0.02,1.18-0.13,1.53-0.44c0.35-0.31,0.53-0.72,0.53-1.23c0-0.43-0.13-0.78-0.39-1.04s-0.6-0.39-1.03-0.39
			c-0.42,0-0.78,0.15-1.08,0.44s-0.48,0.72-0.54,1.28l-2.28-0.39c0.16-0.78,0.4-1.4,0.72-1.87c0.32-0.46,0.76-0.83,1.34-1.1
			c0.57-0.27,1.21-0.4,1.92-0.4c1.21,0,2.19,0.39,2.92,1.16c0.6,0.63,0.91,1.35,0.91,2.14c0,1.13-0.62,2.03-1.85,2.71
			c0.74,0.16,1.33,0.51,1.77,1.06s0.66,1.22,0.66,2c0,1.13-0.41,2.09-1.24,2.89s-1.85,1.2-3.08,1.2c-1.17,0-2.13-0.33-2.9-1.01
			C62.76,265.94,62.31,265.06,62.19,263.98z"/>
		<path d="M72.81,267.4v-2.47h2.47v2.47H72.81z"/>
		<path d="M77.2,263.98l2.39-0.29c0.08,0.61,0.28,1.08,0.62,1.4s0.74,0.48,1.21,0.48c0.51,0,0.94-0.19,1.29-0.58
			s0.52-0.91,0.52-1.56c0-0.62-0.17-1.11-0.5-1.48s-0.74-0.54-1.22-0.54c-0.32,0-0.69,0.06-1.13,0.18l0.27-2.01
			c0.67,0.02,1.18-0.13,1.53-0.44c0.35-0.31,0.53-0.72,0.53-1.23c0-0.43-0.13-0.78-0.39-1.04s-0.6-0.39-1.03-0.39
			c-0.42,0-0.78,0.15-1.08,0.44s-0.48,0.72-0.54,1.28l-2.28-0.39c0.16-0.78,0.4-1.4,0.72-1.87c0.32-0.46,0.76-0.83,1.34-1.1
			s1.21-0.4,1.92-0.4c1.21,0,2.19,0.39,2.92,1.16c0.6,0.63,0.91,1.35,0.91,2.14c0,1.13-0.62,2.03-1.85,2.71
			c0.74,0.16,1.33,0.51,1.77,1.06s0.66,1.22,0.66,2c0,1.13-0.41,2.09-1.24,2.89s-1.85,1.2-3.08,1.2c-1.17,0-2.13-0.33-2.9-1.01
			C77.77,265.94,77.32,265.06,77.2,263.98z"/>
		<path d="M92.14,267.4v-2.59h-5.27v-2.16l5.59-8.18h2.07v8.17h1.6v2.17h-1.6v2.59H92.14z M92.14,262.64v-4.4l-2.96,4.4H92.14z"/>
		<path d="M103.63,267.4h-2.47v-9.31c-0.9,0.84-1.97,1.47-3.19,1.87v-2.24c0.64-0.21,1.34-0.61,2.1-1.2
			c0.76-0.59,1.27-1.28,1.56-2.06h2V267.4z"/>
		<path d="M112.66,258.07h2.28v1.27c0.81-0.99,1.78-1.49,2.91-1.49c0.6,0,1.12,0.12,1.56,0.37s0.8,0.62,1.08,1.12
			c0.41-0.5,0.85-0.87,1.33-1.12s0.98-0.37,1.52-0.37c0.69,0,1.27,0.14,1.74,0.42s0.83,0.69,1.06,1.23c0.17,0.4,0.25,1.04,0.25,1.93
			v5.97h-2.47v-5.33c0-0.93-0.08-1.52-0.25-1.79c-0.23-0.35-0.58-0.53-1.05-0.53c-0.35,0-0.67,0.11-0.98,0.32s-0.52,0.52-0.66,0.93
			c-0.13,0.41-0.2,1.05-0.2,1.93v4.48h-2.47v-5.12c0-0.91-0.04-1.49-0.13-1.76s-0.22-0.46-0.41-0.59s-0.44-0.19-0.75-0.19
			c-0.38,0-0.72,0.1-1.03,0.31s-0.52,0.5-0.65,0.89s-0.2,1.03-0.2,1.92v4.54h-2.47V258.07z"/>
		<path d="M128.67,258.07h2.28v1.27c0.81-0.99,1.78-1.49,2.91-1.49c0.6,0,1.12,0.12,1.56,0.37s0.8,0.62,1.08,1.12
			c0.41-0.5,0.85-0.87,1.33-1.12s0.98-0.37,1.52-0.37c0.69,0,1.27,0.14,1.74,0.42s0.83,0.69,1.06,1.23c0.17,0.4,0.25,1.04,0.25,1.93
			v5.97h-2.47v-5.33c0-0.93-0.08-1.52-0.25-1.79c-0.23-0.35-0.58-0.53-1.05-0.53c-0.35,0-0.67,0.11-0.98,0.32s-0.52,0.52-0.66,0.93
			c-0.13,0.41-0.2,1.05-0.2,1.93v4.48h-2.47v-5.12c0-0.91-0.04-1.49-0.13-1.76s-0.22-0.46-0.41-0.59s-0.44-0.19-0.75-0.19
			c-0.38,0-0.72,0.1-1.03,0.31s-0.52,0.5-0.65,0.89s-0.2,1.03-0.2,1.92v4.54h-2.47V258.07z"/>
		<path d="M9.82,291.4v-12.88h2.6v5.07h5.1v-5.07h2.6v12.88h-2.6v-5.63h-5.1v5.63H9.82z"/>
		<path d="M28.27,284.54v-2.47h2.47v2.47H28.27z M28.27,291.4v-2.47h2.47v2.47H28.27z"/>
		<path d="M44.58,291.4h-2.47v-9.31c-0.9,0.84-1.97,1.47-3.19,1.87v-2.24c0.64-0.21,1.34-0.61,2.1-1.2
			c0.76-0.59,1.27-1.28,1.56-2.06h2V291.4z"/>
		<path d="M52.45,278.46c1.25,0,2.22,0.45,2.93,1.34c0.84,1.05,1.26,2.8,1.26,5.25c0,2.44-0.42,4.19-1.27,5.26
			c-0.7,0.88-1.67,1.32-2.92,1.32c-1.25,0-2.26-0.48-3.03-1.45c-0.77-0.96-1.15-2.68-1.15-5.15c0-2.43,0.42-4.17,1.27-5.24
			C50.23,278.9,51.2,278.46,52.45,278.46z M52.45,280.51c-0.3,0-0.57,0.1-0.8,0.29s-0.42,0.53-0.54,1.02
			c-0.17,0.64-0.25,1.71-0.25,3.23s0.08,2.55,0.23,3.12s0.34,0.94,0.58,1.13s0.5,0.28,0.8,0.28s0.57-0.09,0.8-0.29
			s0.42-0.53,0.54-1.02c0.17-0.63,0.25-1.71,0.25-3.22s-0.08-2.55-0.23-3.12c-0.15-0.56-0.34-0.94-0.58-1.13
			S52.75,280.51,52.45,280.51z"/>
		<path d="M62.46,278.46c1.25,0,2.22,0.45,2.93,1.34c0.84,1.05,1.26,2.8,1.26,5.25c0,2.44-0.42,4.19-1.27,5.26
			c-0.7,0.88-1.67,1.32-2.92,1.32c-1.25,0-2.26-0.48-3.03-1.45c-0.77-0.96-1.15-2.68-1.15-5.15c0-2.43,0.42-4.17,1.27-5.24
			C60.24,278.9,61.21,278.46,62.46,278.46z M62.46,280.51c-0.3,0-0.57,0.1-0.8,0.29s-0.42,0.53-0.54,1.02
			c-0.17,0.64-0.25,1.71-0.25,3.23s0.08,2.55,0.23,3.12s0.34,0.94,0.58,1.13s0.5,0.28,0.8,0.28s0.57-0.09,0.8-0.29
			s0.42-0.53,0.54-1.02c0.17-0.63,0.25-1.71,0.25-3.22s-0.08-2.55-0.23-3.12c-0.15-0.56-0.34-0.94-0.58-1.13
			S62.76,280.51,62.46,280.51z"/>
		<path d="M68.82,291.4v-2.47h2.47v2.47H68.82z"/>
		<path d="M81.64,289.11v2.29h-8.66c0.09-0.87,0.38-1.69,0.84-2.46s1.39-1.81,2.78-3.09c1.11-1.04,1.8-1.74,2.05-2.11
			c0.34-0.51,0.51-1.01,0.51-1.51c0-0.55-0.15-0.97-0.44-1.27s-0.7-0.44-1.23-0.44c-0.52,0-0.93,0.16-1.23,0.47
			s-0.48,0.83-0.53,1.55l-2.46-0.25c0.15-1.36,0.61-2.33,1.38-2.93s1.74-0.89,2.9-0.89c1.27,0,2.27,0.34,3,1.03s1.09,1.54,1.09,2.56
			c0,0.58-0.1,1.13-0.31,1.66c-0.21,0.53-0.54,1.07-0.99,1.65c-0.3,0.38-0.84,0.93-1.62,1.64s-1.27,1.19-1.48,1.42
			s-0.38,0.46-0.51,0.69H81.64z"/>
		<path d="M88.15,291.4v-2.59h-5.27v-2.16l5.59-8.18h2.07v8.17h1.6v2.17h-1.6v2.59H88.15z M88.15,286.64v-4.4l-2.96,4.4H88.15z"/>
		<path d="M93.35,288.09l2.46-0.25c0.07,0.56,0.28,1,0.62,1.32c0.35,0.33,0.74,0.49,1.2,0.49c0.52,0,0.95-0.21,1.31-0.63
			c0.36-0.42,0.54-1.05,0.54-1.89c0-0.79-0.18-1.38-0.53-1.78c-0.35-0.39-0.82-0.59-1.38-0.59c-0.71,0-1.34,0.31-1.91,0.94l-2-0.29
			l1.27-6.71h6.53V281h-4.66l-0.39,2.19c0.55-0.28,1.11-0.41,1.69-0.41c1.1,0,2.02,0.4,2.79,1.2s1.14,1.83,1.14,3.1
			c0,1.06-0.31,2.01-0.92,2.84c-0.84,1.14-2,1.71-3.49,1.71c-1.19,0-2.16-0.32-2.91-0.96S93.5,289.16,93.35,288.09z"/>
		<path d="M108.67,282.07h2.28v1.27c0.81-0.99,1.78-1.49,2.91-1.49c0.6,0,1.12,0.12,1.56,0.37s0.8,0.62,1.08,1.12
			c0.41-0.5,0.85-0.87,1.33-1.12s0.98-0.37,1.52-0.37c0.69,0,1.27,0.14,1.74,0.42s0.83,0.69,1.06,1.23c0.17,0.4,0.25,1.04,0.25,1.93
			v5.97h-2.47v-5.33c0-0.93-0.08-1.52-0.25-1.79c-0.23-0.35-0.58-0.53-1.05-0.53c-0.35,0-0.67,0.11-0.98,0.32s-0.52,0.52-0.66,0.93
			c-0.13,0.41-0.2,1.05-0.2,1.93v4.48h-2.47v-5.12c0-0.91-0.04-1.49-0.13-1.76s-0.22-0.46-0.41-0.59s-0.44-0.19-0.75-0.19
			c-0.38,0-0.72,0.1-1.03,0.31s-0.52,0.5-0.65,0.89s-0.2,1.03-0.2,1.92v4.54h-2.47V282.07z"/>
		<path d="M124.68,282.07h2.28v1.27c0.81-0.99,1.78-1.49,2.91-1.49c0.6,0,1.12,0.12,1.56,0.37s0.8,0.62,1.08,1.12
			c0.41-0.5,0.85-0.87,1.33-1.12s0.98-0.37,1.52-0.37c0.69,0,1.27,0.14,1.74,0.42s0.83,0.69,1.06,1.23c0.17,0.4,0.25,1.04,0.25,1.93
			v5.97h-2.47v-5.33c0-0.93-0.08-1.52-0.25-1.79c-0.23-0.35-0.58-0.53-1.05-0.53c-0.35,0-0.67,0.11-0.98,0.32s-0.52,0.52-0.66,0.93
			c-0.13,0.41-0.2,1.05-0.2,1.93v4.48h-2.47v-5.12c0-0.91-0.04-1.49-0.13-1.76s-0.22-0.46-0.41-0.59s-0.44-0.19-0.75-0.19
			c-0.38,0-0.72,0.1-1.03,0.31s-0.52,0.5-0.65,0.89s-0.2,1.03-0.2,1.92v4.54h-2.47V282.07z"/>
	</g>
	<g>
	</g>
	<g>
	</g>
	<g>
	</g>
	<g>
	</g>
	<g>
	</g>
	<g>
	</g>
</g>
</svg>
