G04 #@! TF.GenerationSoftware,KiCad,Pcbnew,(5.1.6-0-10_14)*
G04 #@! TF.CreationDate,2020-10-19T11:14:55+09:00*
G04 #@! TF.ProjectId,reviung34-split-L-TOP,72657669-756e-4673-9334-2d73706c6974,2.0*
G04 #@! TF.SameCoordinates,PX2faf080PY2faf080*
G04 #@! TF.FileFunction,Profile,NP*
%FSLAX46Y46*%
G04 Gerber Fmt 4.6, Leading zero omitted, Abs format (unit mm)*
G04 Created by KiCad (PCBNEW (5.1.6-0-10_14)) date 2020-10-19 11:14:55*
%MOMM*%
%LPD*%
G01*
G04 APERTURE LIST*
G04 #@! TA.AperFunction,Profile*
%ADD10C,0.100000*%
G04 #@! TD*
G04 APERTURE END LIST*
D10*
X197580160Y-38760032D02*
X183680147Y-38760032D01*
X197580138Y-24860019D02*
X197580160Y-38760032D01*
X183680147Y-24860041D02*
X197580138Y-24860019D01*
X183680147Y-38760032D02*
X183680147Y-24860041D01*
X197580160Y-57809989D02*
X183680147Y-57810011D01*
X197580138Y-43909998D02*
X197580160Y-57809989D01*
X183680147Y-43910019D02*
X197580138Y-43909998D01*
X183680147Y-57810011D02*
X183680147Y-43910019D01*
X197580160Y-76859989D02*
X183680147Y-76860011D01*
X197580138Y-62959998D02*
X197580160Y-76859989D01*
X183680147Y-62960019D02*
X197580138Y-62959998D01*
X183680147Y-76860011D02*
X183680147Y-62960019D01*
X163216456Y-59078D02*
X121880172Y-59100D01*
X159480160Y-38760032D02*
X145580147Y-38760032D01*
X159480138Y-24860019D02*
X159480160Y-38760032D01*
X145580147Y-24860041D02*
X159480138Y-24860019D01*
X145580147Y-38760032D02*
X145580147Y-24860041D01*
X159480160Y-57809989D02*
X145580147Y-57810011D01*
X159480138Y-43909998D02*
X159480160Y-57809989D01*
X145580147Y-43910019D02*
X159480138Y-43909998D01*
X145580147Y-57810011D02*
X145580147Y-43910019D01*
X178530160Y-38760032D02*
X164630147Y-38760032D01*
X178530138Y-24860019D02*
X178530160Y-38760032D01*
X164630147Y-24860041D02*
X178530138Y-24860019D01*
X164630147Y-38760032D02*
X164630147Y-24860041D01*
X178530160Y-57809989D02*
X164630147Y-57810011D01*
X178530138Y-43909998D02*
X178530160Y-57809989D01*
X164630147Y-43910019D02*
X178530138Y-43909998D01*
X164630147Y-57810011D02*
X164630147Y-43910019D01*
X178530160Y-76859989D02*
X164630147Y-76860011D01*
X178530138Y-62959998D02*
X178530160Y-76859989D01*
X164630147Y-62960019D02*
X178530138Y-62959998D01*
X164630147Y-76860011D02*
X164630147Y-62960019D01*
X202580156Y-21860030D02*
X202577553Y-21757109D01*
X202577553Y-21757109D02*
X202569830Y-21655540D01*
X202569830Y-21655540D02*
X202557111Y-21555448D01*
X202557111Y-21555448D02*
X202539522Y-21456958D01*
X202539522Y-21456958D02*
X202490239Y-21265289D01*
X202490239Y-21265289D02*
X202422985Y-21081537D01*
X202422985Y-21081537D02*
X202338765Y-20906708D01*
X202338765Y-20906708D02*
X202238586Y-20741807D01*
X202238586Y-20741807D02*
X202123451Y-20587839D01*
X202123451Y-20587839D02*
X201994367Y-20445811D01*
X201994367Y-20445811D02*
X201852339Y-20316727D01*
X201852339Y-20316727D02*
X201698371Y-20201592D01*
X201698371Y-20201592D02*
X201533470Y-20101413D01*
X201533470Y-20101413D02*
X201358641Y-20017193D01*
X201358641Y-20017193D02*
X201174889Y-19949939D01*
X201174889Y-19949939D02*
X200983220Y-19900656D01*
X200983220Y-19900656D02*
X200884730Y-19883067D01*
X200884730Y-19883067D02*
X200784638Y-19870348D01*
X200784638Y-19870348D02*
X200683069Y-19862625D01*
X200683069Y-19862625D02*
X200580149Y-19860023D01*
X202580156Y-41335026D02*
X202580156Y-21860030D01*
X165104127Y-1398273D02*
X165045991Y-1251048D01*
X165045991Y-1251048D02*
X164977256Y-1110433D01*
X164977256Y-1110433D02*
X164898482Y-976828D01*
X164898482Y-976828D02*
X164810230Y-850629D01*
X164810230Y-850629D02*
X164713064Y-732237D01*
X164713064Y-732237D02*
X164607543Y-622049D01*
X164607543Y-622049D02*
X164494231Y-520464D01*
X164494231Y-520464D02*
X164373688Y-427880D01*
X164373688Y-427880D02*
X164246476Y-344697D01*
X164246476Y-344697D02*
X164113158Y-271311D01*
X164113158Y-271311D02*
X163974294Y-208122D01*
X163974294Y-208122D02*
X163830447Y-155529D01*
X163830447Y-155529D02*
X163682178Y-113929D01*
X163682178Y-113929D02*
X163530048Y-83722D01*
X163530048Y-83722D02*
X163374620Y-65305D01*
X163374620Y-65305D02*
X163216456Y-59078D01*
X171097989Y-18520824D02*
X165104127Y-1398273D01*
X121380160Y-14104797D02*
X121380160Y-20412509D01*
X122378807Y-13106107D02*
X121380160Y-14104797D01*
X122378807Y-6176104D02*
X122378807Y-13106107D01*
X121380160Y-5177414D02*
X122378807Y-6176104D01*
X121380160Y-559113D02*
X121380160Y-5177414D01*
X121880172Y-59100D02*
X121779402Y-69258D01*
X121779402Y-69258D02*
X121663396Y-108406D01*
X121663396Y-108406D02*
X121562117Y-173278D01*
X121562117Y-173278D02*
X121479494Y-259947D01*
X121479494Y-259947D02*
X121419453Y-364485D01*
X121419453Y-364485D02*
X121385921Y-482965D01*
X121385921Y-482965D02*
X121380160Y-559113D01*
X202580091Y-60389483D02*
X201562324Y-59364481D01*
X172985666Y-19860023D02*
X172827500Y-19853795D01*
X172827500Y-19853795D02*
X172672072Y-19835378D01*
X172672072Y-19835378D02*
X172519942Y-19805171D01*
X172519942Y-19805171D02*
X172371672Y-19763571D01*
X172371672Y-19763571D02*
X172227824Y-19710977D01*
X172227824Y-19710977D02*
X172088960Y-19647788D01*
X172088960Y-19647788D02*
X171955641Y-19574403D01*
X171955641Y-19574403D02*
X171828430Y-19491218D01*
X171828430Y-19491218D02*
X171707886Y-19398634D01*
X171707886Y-19398634D02*
X171594573Y-19297049D01*
X171594573Y-19297049D02*
X171489053Y-19186861D01*
X171489053Y-19186861D02*
X171391886Y-19068468D01*
X171391886Y-19068468D02*
X171303634Y-18942270D01*
X171303634Y-18942270D02*
X171224859Y-18808664D01*
X171224859Y-18808664D02*
X171156124Y-18668049D01*
X171156124Y-18668049D02*
X171097989Y-18520824D01*
X200580149Y-19860023D02*
X172985666Y-19860023D01*
X159480160Y-76859989D02*
X145580147Y-76860011D01*
X159480138Y-62959998D02*
X159480160Y-76859989D01*
X145580147Y-62960019D02*
X159480138Y-62959998D01*
X145580147Y-76860011D02*
X145580147Y-62960019D01*
X201562324Y-59364481D02*
X201562324Y-42382486D01*
X140572464Y-86677607D02*
X140572464Y-91567683D01*
X139737114Y-86677607D02*
X140572464Y-86677607D01*
X139737114Y-81972016D02*
X139737114Y-86677607D01*
X139237102Y-81472003D02*
X139337870Y-81482161D01*
X139337870Y-81482161D02*
X139453876Y-81521310D01*
X139453876Y-81521310D02*
X139555154Y-81586182D01*
X139555154Y-81586182D02*
X139637778Y-81672851D01*
X139637778Y-81672851D02*
X139697820Y-81777389D01*
X139697820Y-81777389D02*
X139731352Y-81895869D01*
X139731352Y-81895869D02*
X139737114Y-81972016D01*
X132921725Y-81472003D02*
X139237102Y-81472003D01*
X132421734Y-81972016D02*
X132431892Y-81871246D01*
X132431892Y-81871246D02*
X132471040Y-81755241D01*
X132471040Y-81755241D02*
X132535911Y-81653962D01*
X132535911Y-81653962D02*
X132622578Y-81571338D01*
X132622578Y-81571338D02*
X132727111Y-81511297D01*
X132727111Y-81511297D02*
X132845584Y-81477764D01*
X132845584Y-81477764D02*
X132921725Y-81472003D01*
X132421734Y-95437064D02*
X132421734Y-93977958D01*
X132671740Y-95687070D02*
X132563347Y-95662414D01*
X132563347Y-95662414D02*
X132478820Y-95596085D01*
X132478820Y-95596085D02*
X132429604Y-95499540D01*
X132429604Y-95499540D02*
X132421734Y-95437064D01*
X139487108Y-95687070D02*
X132671740Y-95687070D01*
X139737114Y-95437064D02*
X139712458Y-95545446D01*
X139712458Y-95545446D02*
X139646129Y-95629976D01*
X139646129Y-95629976D02*
X139549584Y-95679198D01*
X139549584Y-95679198D02*
X139487108Y-95687070D01*
X139737114Y-91567683D02*
X139737114Y-95437064D01*
X140572464Y-91567683D02*
X139737114Y-91567683D01*
X132421734Y-82707091D02*
X132421734Y-81972016D01*
X130908347Y-82707091D02*
X132421734Y-82707091D01*
X130908347Y-82008986D02*
X130908347Y-82707091D01*
X201562324Y-42382486D02*
X202580156Y-41335026D01*
X116998903Y-82008986D02*
X130908347Y-82008986D01*
X116998903Y-82707091D02*
X116998903Y-82008986D01*
X115485537Y-82707091D02*
X116998903Y-82707091D01*
X115485537Y-81972016D02*
X115485537Y-82707091D01*
X114985546Y-81472003D02*
X115086307Y-81482161D01*
X115086307Y-81482161D02*
X115202306Y-81521310D01*
X115202306Y-81521310D02*
X115303581Y-81586182D01*
X115303581Y-81586182D02*
X115386202Y-81672851D01*
X115386202Y-81672851D02*
X115446243Y-81777389D01*
X115446243Y-81777389D02*
X115479775Y-81895869D01*
X115479775Y-81895869D02*
X115485537Y-81972016D01*
X89944869Y-20912500D02*
X81044874Y-20912500D01*
X89944869Y-17866002D02*
X89944869Y-20912500D01*
X74895939Y-17866002D02*
X89944869Y-17866002D01*
X73895957Y-16866020D02*
X73901119Y-16968262D01*
X73901119Y-16968262D02*
X73916273Y-17067551D01*
X73916273Y-17067551D02*
X73956635Y-17209847D01*
X73956635Y-17209847D02*
X74016649Y-17342670D01*
X74016649Y-17342670D02*
X74094617Y-17464325D01*
X74094617Y-17464325D02*
X74188844Y-17573114D01*
X74188844Y-17573114D02*
X74297633Y-17667341D01*
X74297633Y-17667341D02*
X74419288Y-17745309D01*
X74419288Y-17745309D02*
X74552111Y-17805323D01*
X74552111Y-17805323D02*
X74694407Y-17845685D01*
X74694407Y-17845685D02*
X74793696Y-17860839D01*
X74793696Y-17860839D02*
X74895939Y-17866002D01*
X73895957Y-12663089D02*
X73895957Y-16866020D01*
X74895960Y-11663043D02*
X73895957Y-12663089D01*
X74895960Y-4733040D02*
X74895960Y-11663043D01*
X73895957Y-3732993D02*
X74895960Y-4733040D01*
X73895957Y384004D02*
X73895957Y-3732993D01*
X74895960Y1384007D02*
X74793715Y1378845D01*
X74793715Y1378845D02*
X74694424Y1363691D01*
X74694424Y1363691D02*
X74552125Y1323328D01*
X74552125Y1323328D02*
X74419298Y1263313D01*
X74419298Y1263313D02*
X74297642Y1185342D01*
X74297642Y1185342D02*
X74188850Y1091114D01*
X74188850Y1091114D02*
X74094622Y982322D01*
X74094622Y982322D02*
X74016651Y860666D01*
X74016651Y860666D02*
X73956636Y727839D01*
X73956636Y727839D02*
X73916273Y585540D01*
X73916273Y585540D02*
X73901119Y486249D01*
X73901119Y486249D02*
X73895957Y384004D01*
X113586902Y1384007D02*
X74895960Y1384007D01*
X114586905Y384004D02*
X114581742Y486249D01*
X114581742Y486249D02*
X114566588Y585540D01*
X114566588Y585540D02*
X114526225Y727839D01*
X114526225Y727839D02*
X114466209Y860666D01*
X114466209Y860666D02*
X114388239Y982322D01*
X114388239Y982322D02*
X114294010Y1091114D01*
X114294010Y1091114D02*
X114185219Y1185342D01*
X114185219Y1185342D02*
X114063562Y1263313D01*
X114063562Y1263313D02*
X113930736Y1323328D01*
X113930736Y1323328D02*
X113788437Y1363691D01*
X113788437Y1363691D02*
X113689146Y1378845D01*
X113689146Y1378845D02*
X113586902Y1384007D01*
X114586905Y-3732993D02*
X114586905Y384004D01*
X113586902Y-4733040D02*
X114586905Y-3732993D01*
X113586902Y-11663043D02*
X113586902Y-4733040D01*
X114586905Y-12663089D02*
X113586902Y-11663043D01*
X118184963Y-14740438D02*
X114586905Y-12663089D01*
X119123917Y-17800747D02*
X119175610Y-17698260D01*
X119175610Y-17698260D02*
X119221291Y-17594353D01*
X119221291Y-17594353D02*
X119261038Y-17489210D01*
X119261038Y-17489210D02*
X119294930Y-17383018D01*
X119294930Y-17383018D02*
X119323045Y-17275964D01*
X119323045Y-17275964D02*
X119345461Y-17168233D01*
X119345461Y-17168233D02*
X119362257Y-17060013D01*
X119362257Y-17060013D02*
X119373511Y-16951489D01*
X119373511Y-16951489D02*
X119379302Y-16842849D01*
X119379302Y-16842849D02*
X119379707Y-16734278D01*
X119379707Y-16734278D02*
X119374807Y-16625962D01*
X119374807Y-16625962D02*
X119364678Y-16518088D01*
X119364678Y-16518088D02*
X119349399Y-16410843D01*
X119349399Y-16410843D02*
X119329050Y-16304413D01*
X119329050Y-16304413D02*
X119303707Y-16198984D01*
X119303707Y-16198984D02*
X119273450Y-16094742D01*
X119273450Y-16094742D02*
X119238357Y-15991874D01*
X119238357Y-15991874D02*
X119198506Y-15890566D01*
X119198506Y-15890566D02*
X119153976Y-15791005D01*
X119153976Y-15791005D02*
X119104845Y-15693376D01*
X119104845Y-15693376D02*
X119051192Y-15597867D01*
X119051192Y-15597867D02*
X118993095Y-15504664D01*
X118993095Y-15504664D02*
X118930633Y-15413952D01*
X118930633Y-15413952D02*
X118863883Y-15325919D01*
X118863883Y-15325919D02*
X118792925Y-15240751D01*
X118792925Y-15240751D02*
X118717837Y-15158633D01*
X118717837Y-15158633D02*
X118638697Y-15079753D01*
X118638697Y-15079753D02*
X118555583Y-15004297D01*
X118555583Y-15004297D02*
X118468574Y-14932451D01*
X118468574Y-14932451D02*
X118377749Y-14864402D01*
X118377749Y-14864402D02*
X118283186Y-14800335D01*
X118283186Y-14800335D02*
X118184963Y-14740438D01*
X116016684Y-18684729D02*
X116120314Y-18741056D01*
X116120314Y-18741056D02*
X116225564Y-18791420D01*
X116225564Y-18791420D02*
X116332229Y-18835876D01*
X116332229Y-18835876D02*
X116440105Y-18874478D01*
X116440105Y-18874478D02*
X116548988Y-18907282D01*
X116548988Y-18907282D02*
X116658674Y-18934341D01*
X116658674Y-18934341D02*
X116768959Y-18955711D01*
X116768959Y-18955711D02*
X116879638Y-18971445D01*
X116879638Y-18971445D02*
X116990509Y-18981600D01*
X116990509Y-18981600D02*
X117101366Y-18986229D01*
X117101366Y-18986229D02*
X117212007Y-18985387D01*
X117212007Y-18985387D02*
X117322226Y-18979129D01*
X117322226Y-18979129D02*
X117431819Y-18967509D01*
X117431819Y-18967509D02*
X117540584Y-18950583D01*
X117540584Y-18950583D02*
X117648314Y-18928404D01*
X117648314Y-18928404D02*
X117754808Y-18901028D01*
X117754808Y-18901028D02*
X117859860Y-18868508D01*
X117859860Y-18868508D02*
X117963266Y-18830901D01*
X117963266Y-18830901D02*
X118064823Y-18788260D01*
X118064823Y-18788260D02*
X118164327Y-18740640D01*
X118164327Y-18740640D02*
X118261572Y-18688096D01*
X118261572Y-18688096D02*
X118356356Y-18630682D01*
X118356356Y-18630682D02*
X118448475Y-18568453D01*
X118448475Y-18568453D02*
X118537723Y-18501465D01*
X118537723Y-18501465D02*
X118623898Y-18429770D01*
X118623898Y-18429770D02*
X118706795Y-18353425D01*
X118706795Y-18353425D02*
X118786210Y-18272484D01*
X118786210Y-18272484D02*
X118861940Y-18187001D01*
X118861940Y-18187001D02*
X118933779Y-18097031D01*
X118933779Y-18097031D02*
X119001524Y-18002629D01*
X119001524Y-18002629D02*
X119064971Y-17903849D01*
X119064971Y-17903849D02*
X119123917Y-17800747D01*
X114586905Y-17859241D02*
X116016684Y-18684729D01*
X114586905Y-17866002D02*
X114586905Y-17859241D01*
X112480165Y-17866002D02*
X114586905Y-17866002D01*
X112480165Y-20912500D02*
X112480165Y-17866002D01*
X120880169Y-20912500D02*
X112480165Y-20912500D01*
X121380160Y-20412509D02*
X121370001Y-20513274D01*
X121370001Y-20513274D02*
X121330855Y-20629275D01*
X121330855Y-20629275D02*
X121265986Y-20730549D01*
X121265986Y-20730549D02*
X121179321Y-20813169D01*
X121179321Y-20813169D02*
X121074787Y-20873208D01*
X121074787Y-20873208D02*
X120956312Y-20906738D01*
X120956312Y-20906738D02*
X120880169Y-20912500D01*
X108660587Y-81472003D02*
X114985546Y-81472003D01*
X108160596Y-81972016D02*
X108170753Y-81871246D01*
X108170753Y-81871246D02*
X108209899Y-81755241D01*
X108209899Y-81755241D02*
X108274766Y-81653962D01*
X108274766Y-81653962D02*
X108361430Y-81571338D01*
X108361430Y-81571338D02*
X108465964Y-81511297D01*
X108465964Y-81511297D02*
X108584441Y-81477764D01*
X108584441Y-81477764D02*
X108660587Y-81472003D01*
X99940663Y-73720000D02*
X102479978Y-73720000D01*
X99940728Y-98111965D02*
X99940663Y-73720000D01*
X97938977Y-100111972D02*
X98041961Y-100109456D01*
X98041961Y-100109456D02*
X98143597Y-100101813D01*
X98143597Y-100101813D02*
X98243757Y-100089167D01*
X98243757Y-100089167D02*
X98342317Y-100071645D01*
X98342317Y-100071645D02*
X98534130Y-100022475D01*
X98534130Y-100022475D02*
X98718028Y-99955308D01*
X98718028Y-99955308D02*
X98893003Y-99871152D01*
X98893003Y-99871152D02*
X99058049Y-99771012D01*
X99058049Y-99771012D02*
X99212157Y-99655896D01*
X99212157Y-99655896D02*
X99354321Y-99526809D01*
X99354321Y-99526809D02*
X99483533Y-99384758D01*
X99483533Y-99384758D02*
X99598785Y-99230750D01*
X99598785Y-99230750D02*
X99699069Y-99065792D01*
X99699069Y-99065792D02*
X99783380Y-98890889D01*
X99783380Y-98890889D02*
X99850708Y-98707048D01*
X99850708Y-98707048D02*
X99900047Y-98515276D01*
X99900047Y-98515276D02*
X99917656Y-98416731D01*
X99917656Y-98416731D02*
X99930390Y-98316580D01*
X99930390Y-98316580D02*
X99938122Y-98214949D01*
X99938122Y-98214949D02*
X99940728Y-98111965D01*
X38665523Y-100111994D02*
X97938977Y-100111972D01*
X37181552Y-99452818D02*
X37254492Y-99529381D01*
X37254492Y-99529381D02*
X37330986Y-99601636D01*
X37330986Y-99601636D02*
X37410839Y-99669493D01*
X37410839Y-99669493D02*
X37493854Y-99732866D01*
X37493854Y-99732866D02*
X37579836Y-99791669D01*
X37579836Y-99791669D02*
X37668590Y-99845815D01*
X37668590Y-99845815D02*
X37759919Y-99895216D01*
X37759919Y-99895216D02*
X37853629Y-99939786D01*
X37853629Y-99939786D02*
X37949523Y-99979437D01*
X37949523Y-99979437D02*
X38047407Y-100014084D01*
X38047407Y-100014084D02*
X38147083Y-100043639D01*
X38147083Y-100043639D02*
X38248358Y-100068015D01*
X38248358Y-100068015D02*
X38351035Y-100087125D01*
X38351035Y-100087125D02*
X38454918Y-100100883D01*
X38454918Y-100100883D02*
X38559813Y-100109201D01*
X38559813Y-100109201D02*
X38665523Y-100111994D01*
X21918811Y-82560395D02*
X37181552Y-99452818D01*
X20434792Y-81901197D02*
X20540505Y-81903989D01*
X20540505Y-81903989D02*
X20645403Y-81912307D01*
X20645403Y-81912307D02*
X20749290Y-81926066D01*
X20749290Y-81926066D02*
X20851970Y-81945177D01*
X20851970Y-81945177D02*
X20953248Y-81969554D01*
X20953248Y-81969554D02*
X21052927Y-81999109D01*
X21052927Y-81999109D02*
X21150814Y-82033757D01*
X21150814Y-82033757D02*
X21246711Y-82073410D01*
X21246711Y-82073410D02*
X21340424Y-82117982D01*
X21340424Y-82117982D02*
X21431756Y-82167384D01*
X21431756Y-82167384D02*
X21520512Y-82221532D01*
X21520512Y-82221532D02*
X21606497Y-82280336D01*
X21606497Y-82280336D02*
X21689515Y-82343712D01*
X21689515Y-82343712D02*
X21769370Y-82411572D01*
X21769370Y-82411572D02*
X21845867Y-82483828D01*
X21845867Y-82483828D02*
X21918811Y-82560395D01*
X1844907Y-81901197D02*
X20434792Y-81901197D01*
X-155101Y-79901182D02*
X-152499Y-80004102D01*
X-152499Y-80004102D02*
X-144776Y-80105671D01*
X-144776Y-80105671D02*
X-132058Y-80205764D01*
X-132058Y-80205764D02*
X-114470Y-80304254D01*
X-114470Y-80304254D02*
X-65187Y-80495924D01*
X-65187Y-80495924D02*
X2067Y-80679677D01*
X2067Y-80679677D02*
X86286Y-80854507D01*
X86286Y-80854507D02*
X186466Y-81019408D01*
X186466Y-81019408D02*
X301600Y-81173376D01*
X301600Y-81173376D02*
X430685Y-81315405D01*
X430685Y-81315405D02*
X572713Y-81444490D01*
X572713Y-81444490D02*
X726681Y-81559625D01*
X726681Y-81559625D02*
X891582Y-81659805D01*
X891582Y-81659805D02*
X1066411Y-81744025D01*
X1066411Y-81744025D02*
X1250164Y-81811280D01*
X1250164Y-81811280D02*
X1441834Y-81860563D01*
X1441834Y-81860563D02*
X1540324Y-81878152D01*
X1540324Y-81878152D02*
X1640417Y-81890871D01*
X1640417Y-81890871D02*
X1741986Y-81898594D01*
X1741986Y-81898594D02*
X1844907Y-81901197D01*
X-155014Y-60389483D02*
X-155101Y-79901182D01*
X803906Y-59364481D02*
X-155014Y-60389483D01*
X803906Y-42382486D02*
X803906Y-59364481D01*
X-155014Y-41335026D02*
X803906Y-42382486D01*
X-155014Y-21860009D02*
X-155014Y-41335026D01*
X1844993Y-19860002D02*
X1742072Y-19862604D01*
X1742072Y-19862604D02*
X1640503Y-19870327D01*
X1640503Y-19870327D02*
X1540411Y-19883046D01*
X1540411Y-19883046D02*
X1441921Y-19900635D01*
X1441921Y-19900635D02*
X1250251Y-19949918D01*
X1250251Y-19949918D02*
X1066499Y-20017172D01*
X1066499Y-20017172D02*
X891670Y-20101391D01*
X891670Y-20101391D02*
X726769Y-20201571D01*
X726769Y-20201571D02*
X572802Y-20316706D01*
X572802Y-20316706D02*
X430774Y-20445790D01*
X430774Y-20445790D02*
X301690Y-20587818D01*
X301690Y-20587818D02*
X186555Y-20741785D01*
X186555Y-20741785D02*
X86375Y-20906686D01*
X86375Y-20906686D02*
X2156Y-21081515D01*
X2156Y-21081515D02*
X-65098Y-21265267D01*
X-65098Y-21265267D02*
X-114381Y-21456937D01*
X-114381Y-21456937D02*
X-131970Y-21555427D01*
X-131970Y-21555427D02*
X-144689Y-21655519D01*
X-144689Y-21655519D02*
X-152412Y-21757088D01*
X-152412Y-21757088D02*
X-155014Y-21860009D01*
X35193994Y-19860002D02*
X1844993Y-19860002D01*
X36381550Y-20251759D02*
X36281115Y-20185965D01*
X36281115Y-20185965D02*
X36177907Y-20125402D01*
X36177907Y-20125402D02*
X36072105Y-20070342D01*
X36072105Y-20070342D02*
X35963888Y-20021055D01*
X35963888Y-20021055D02*
X35853437Y-19977812D01*
X35853437Y-19977812D02*
X35740931Y-19940884D01*
X35740931Y-19940884D02*
X35626548Y-19910541D01*
X35626548Y-19910541D02*
X35510468Y-19887054D01*
X35510468Y-19887054D02*
X35392872Y-19870694D01*
X35392872Y-19870694D02*
X35273938Y-19861732D01*
X35273938Y-19861732D02*
X35193994Y-19860002D01*
X37794887Y-20691971D02*
X37648227Y-20687714D01*
X37648227Y-20687714D02*
X37503844Y-20675106D01*
X37503844Y-20675106D02*
X37361963Y-20654386D01*
X37361963Y-20654386D02*
X37222811Y-20625794D01*
X37222811Y-20625794D02*
X37086613Y-20589571D01*
X37086613Y-20589571D02*
X36953596Y-20545957D01*
X36953596Y-20545957D02*
X36823986Y-20495192D01*
X36823986Y-20495192D02*
X36698008Y-20437517D01*
X36698008Y-20437517D02*
X36575890Y-20373171D01*
X36575890Y-20373171D02*
X36457857Y-20302396D01*
X36457857Y-20302396D02*
X36381550Y-20251759D01*
X39208195Y-20251767D02*
X39093013Y-20326694D01*
X39093013Y-20326694D02*
X38973596Y-20395351D01*
X38973596Y-20395351D02*
X38850170Y-20457499D01*
X38850170Y-20457499D02*
X38722960Y-20512897D01*
X38722960Y-20512897D02*
X38592192Y-20561304D01*
X38592192Y-20561304D02*
X38458093Y-20602480D01*
X38458093Y-20602480D02*
X38320888Y-20636185D01*
X38320888Y-20636185D02*
X38180804Y-20662180D01*
X38180804Y-20662180D02*
X38038066Y-20680222D01*
X38038066Y-20680222D02*
X37892900Y-20690073D01*
X37892900Y-20690073D02*
X37794887Y-20691971D01*
X40395763Y-19860002D02*
X40276035Y-19863881D01*
X40276035Y-19863881D02*
X40157525Y-19875339D01*
X40157525Y-19875339D02*
X40040413Y-19894105D01*
X40040413Y-19894105D02*
X39924878Y-19919908D01*
X39924878Y-19919908D02*
X39811100Y-19952477D01*
X39811100Y-19952477D02*
X39699257Y-19991542D01*
X39699257Y-19991542D02*
X39589530Y-20036831D01*
X39589530Y-20036831D02*
X39482098Y-20088073D01*
X39482098Y-20088073D02*
X39377140Y-20144998D01*
X39377140Y-20144998D02*
X39274835Y-20207335D01*
X39274835Y-20207335D02*
X39208195Y-20251767D01*
X78469859Y-19860002D02*
X40395763Y-19860002D01*
X81044874Y-20912500D02*
X78469859Y-19860002D01*
X108160596Y-86677607D02*
X108160596Y-81972016D01*
X107325225Y-86677607D02*
X108160596Y-86677607D01*
X107325225Y-91567683D02*
X107325225Y-86677607D01*
X18744909Y-38760032D02*
X4844896Y-38760032D01*
X18744909Y-43910019D02*
X18744909Y-57810011D01*
X4844917Y-43909998D02*
X18744909Y-43910019D01*
X4844896Y-57809989D02*
X4844917Y-43909998D01*
X18744909Y-57810011D02*
X4844896Y-57809989D01*
X18744909Y-62960019D02*
X18744909Y-76860011D01*
X4844917Y-62959998D02*
X18744909Y-62960019D01*
X4844896Y-76859989D02*
X4844917Y-62959998D01*
X18744909Y-76860011D02*
X4844896Y-76859989D01*
X202580178Y-79901229D02*
X202580091Y-60389483D01*
X200580170Y-81901241D02*
X200683090Y-81898638D01*
X200683090Y-81898638D02*
X200784659Y-81890915D01*
X200784659Y-81890915D02*
X200884752Y-81878196D01*
X200884752Y-81878196D02*
X200983242Y-81860608D01*
X200983242Y-81860608D02*
X201174912Y-81811325D01*
X201174912Y-81811325D02*
X201358665Y-81744070D01*
X201358665Y-81744070D02*
X201533494Y-81659851D01*
X201533494Y-81659851D02*
X201698395Y-81559671D01*
X201698395Y-81559671D02*
X201852363Y-81444536D01*
X201852363Y-81444536D02*
X201994391Y-81315451D01*
X201994391Y-81315451D02*
X202123476Y-81173422D01*
X202123476Y-81173422D02*
X202238610Y-81019455D01*
X202238610Y-81019455D02*
X202338790Y-80854553D01*
X202338790Y-80854553D02*
X202423009Y-80679724D01*
X202423009Y-80679724D02*
X202490263Y-80495971D01*
X202490263Y-80495971D02*
X202539546Y-80304301D01*
X202539546Y-80304301D02*
X202557134Y-80205811D01*
X202557134Y-80205811D02*
X202569852Y-80105718D01*
X202569852Y-80105718D02*
X202577575Y-80004149D01*
X202577575Y-80004149D02*
X202580178Y-79901229D01*
X181971229Y-81901197D02*
X200580170Y-81901241D01*
X180488558Y-82558939D02*
X180561483Y-82482533D01*
X180561483Y-82482533D02*
X180637950Y-82410430D01*
X180637950Y-82410430D02*
X180717765Y-82342717D01*
X180717765Y-82342717D02*
X180800732Y-82279479D01*
X180800732Y-82279479D02*
X180886655Y-82220803D01*
X180886655Y-82220803D02*
X180975341Y-82166775D01*
X180975341Y-82166775D02*
X181066594Y-82117482D01*
X181066594Y-82117482D02*
X181160220Y-82073012D01*
X181160220Y-82073012D02*
X181256023Y-82033449D01*
X181256023Y-82033449D02*
X181353808Y-81998880D01*
X181353808Y-81998880D02*
X181453380Y-81969392D01*
X181453380Y-81969392D02*
X181554545Y-81945072D01*
X181554545Y-81945072D02*
X181657107Y-81926006D01*
X181657107Y-81926006D02*
X181760872Y-81912281D01*
X181760872Y-81912281D02*
X181865644Y-81903982D01*
X181865644Y-81903982D02*
X181971229Y-81901197D01*
X165230584Y-99413393D02*
X180488558Y-82558939D01*
X163747234Y-100072870D02*
X163852911Y-100070031D01*
X163852911Y-100070031D02*
X163957772Y-100061670D01*
X163957772Y-100061670D02*
X164061620Y-100047874D01*
X164061620Y-100047874D02*
X164164261Y-100028728D01*
X164164261Y-100028728D02*
X164265497Y-100004321D01*
X164265497Y-100004321D02*
X164365135Y-99974739D01*
X164365135Y-99974739D02*
X164462979Y-99940069D01*
X164462979Y-99940069D02*
X164558833Y-99900397D01*
X164558833Y-99900397D02*
X164652502Y-99855811D01*
X164652502Y-99855811D02*
X164743790Y-99806397D01*
X164743790Y-99806397D02*
X164832502Y-99752242D01*
X164832502Y-99752242D02*
X164918443Y-99693433D01*
X164918443Y-99693433D02*
X165001417Y-99630056D01*
X165001417Y-99630056D02*
X165081229Y-99562200D01*
X165081229Y-99562200D02*
X165157683Y-99489949D01*
X165157683Y-99489949D02*
X165230584Y-99413393D01*
X104480812Y-100099419D02*
X163747234Y-100072870D01*
X102479914Y-98099412D02*
X102482517Y-98202364D01*
X102482517Y-98202364D02*
X102490245Y-98303964D01*
X102490245Y-98303964D02*
X102502971Y-98404085D01*
X102502971Y-98404085D02*
X102520570Y-98502603D01*
X102520570Y-98502603D02*
X102569881Y-98694325D01*
X102569881Y-98694325D02*
X102637173Y-98878122D01*
X102637173Y-98878122D02*
X102721438Y-99052988D01*
X102721438Y-99052988D02*
X102821672Y-99217919D01*
X102821672Y-99217919D02*
X102936866Y-99371907D01*
X102936866Y-99371907D02*
X103066015Y-99513947D01*
X103066015Y-99513947D02*
X103208113Y-99643033D01*
X103208113Y-99643033D02*
X103362152Y-99758158D01*
X103362152Y-99758158D02*
X103527127Y-99858318D01*
X103527127Y-99858318D02*
X103702031Y-99942506D01*
X103702031Y-99942506D02*
X103885858Y-100009716D01*
X103885858Y-100009716D02*
X104077602Y-100058942D01*
X104077602Y-100058942D02*
X104176127Y-100076497D01*
X104176127Y-100076497D02*
X104276255Y-100089178D01*
X104276255Y-100089178D02*
X104377858Y-100096861D01*
X104377858Y-100096861D02*
X104480812Y-100099419D01*
X102479978Y-73720000D02*
X102479914Y-98099412D01*
X108410581Y-95687070D02*
X108302202Y-95662414D01*
X108302202Y-95662414D02*
X108217680Y-95596085D01*
X108217680Y-95596085D02*
X108168466Y-95499540D01*
X108168466Y-95499540D02*
X108160596Y-95437064D01*
X115235531Y-95687070D02*
X108410581Y-95687070D01*
X115485537Y-95437064D02*
X115460885Y-95545446D01*
X115460885Y-95545446D02*
X115394561Y-95629976D01*
X115394561Y-95629976D02*
X115298014Y-95679198D01*
X115298014Y-95679198D02*
X115235531Y-95687070D01*
X115485537Y-93977958D02*
X115485537Y-95437064D01*
X117000345Y-93977958D02*
X115485537Y-93977958D01*
X117000345Y-95914425D02*
X117000345Y-93977958D01*
X130906904Y-95914425D02*
X117000345Y-95914425D01*
X130906904Y-93977958D02*
X130906904Y-95914425D01*
X132421734Y-93977958D02*
X130906904Y-93977958D01*
X108160596Y-91567683D02*
X107325225Y-91567683D01*
X108160596Y-95437064D02*
X108160596Y-91567683D01*
X75894866Y-38760032D02*
X61994874Y-38760032D01*
X75894887Y-24860041D02*
X75894866Y-38760032D01*
X61994874Y-24860019D02*
X75894887Y-24860041D01*
X107480147Y-62960019D02*
X121380160Y-62959998D01*
X107480168Y-76860011D02*
X107480147Y-62960019D01*
X121380160Y-76859989D02*
X107480168Y-76860011D01*
X121380160Y-62959998D02*
X121380160Y-76859989D01*
X121380160Y-57809989D02*
X107480168Y-57810011D01*
X121380160Y-43909998D02*
X121380160Y-57809989D01*
X107480147Y-43910019D02*
X121380160Y-43909998D01*
X107480168Y-57810011D02*
X107480147Y-43910019D01*
X107480147Y-24860041D02*
X121380160Y-24860019D01*
X107480168Y-38760032D02*
X107480147Y-24860041D01*
X121380160Y-38760032D02*
X107480168Y-38760032D01*
X121380160Y-24860019D02*
X121380160Y-38760032D01*
X126530147Y-76860011D02*
X126530147Y-62960019D01*
X140430160Y-76859989D02*
X126530147Y-76860011D01*
X140430138Y-62959998D02*
X140430160Y-76859989D01*
X126530147Y-62960019D02*
X140430138Y-62959998D01*
X126530147Y-57810011D02*
X126530147Y-43910019D01*
X140430160Y-57809989D02*
X126530147Y-57810011D01*
X140430138Y-43909998D02*
X140430160Y-57809989D01*
X126530147Y-43910019D02*
X140430138Y-43909998D01*
X126530147Y-38760032D02*
X126530147Y-24860041D01*
X140430160Y-38760032D02*
X126530147Y-38760032D01*
X140430138Y-24860019D02*
X140430160Y-38760032D01*
X126530147Y-24860041D02*
X140430138Y-24860019D01*
X37794887Y-24860041D02*
X37794866Y-38760032D01*
X23894874Y-24860019D02*
X37794887Y-24860041D01*
X23894874Y-38760032D02*
X23894874Y-24860019D01*
X37794866Y-38760032D02*
X23894874Y-38760032D01*
X37794887Y-43910019D02*
X37794866Y-57810011D01*
X23894874Y-43909998D02*
X37794887Y-43910019D01*
X23894874Y-57809989D02*
X23894874Y-43909998D01*
X37794866Y-57810011D02*
X23894874Y-57809989D01*
X37794887Y-62960019D02*
X37794866Y-76860011D01*
X23894874Y-62959998D02*
X37794887Y-62960019D01*
X23894874Y-76859989D02*
X23894874Y-62959998D01*
X37794866Y-76860011D02*
X23894874Y-76859989D01*
X18744909Y-24860041D02*
X18744909Y-38760032D01*
X4844917Y-24860019D02*
X18744909Y-24860041D01*
X4844896Y-38760032D02*
X4844917Y-24860019D01*
X75894866Y-76860011D02*
X61994874Y-76859989D01*
X75894887Y-62960019D02*
X75894866Y-76860011D01*
X61994874Y-62959998D02*
X75894887Y-62960019D01*
X61994874Y-57809989D02*
X61994874Y-43909998D01*
X75894866Y-57810011D02*
X61994874Y-57809989D01*
X75894887Y-43910019D02*
X75894866Y-57810011D01*
X61994874Y-43909998D02*
X75894887Y-43910019D01*
X61994874Y-38760032D02*
X61994874Y-24860019D01*
X99940663Y-35620000D02*
X102480000Y-35620000D01*
X99940642Y-41389695D02*
X99940663Y-35620000D01*
X98981721Y-42437133D02*
X99940642Y-41389695D01*
X98981721Y-59419150D02*
X98981721Y-42437133D01*
X99940642Y-60444152D02*
X98981721Y-59419150D01*
X99940663Y-66100009D02*
X99940642Y-60444152D01*
X102479978Y-66100009D02*
X99940663Y-66100009D01*
X102480000Y-60430716D02*
X102479978Y-66100009D01*
X103438921Y-59405714D02*
X102480000Y-60430716D01*
X94944887Y-24860019D02*
X94944866Y-38760011D01*
X81044874Y-24859998D02*
X94944887Y-24860019D01*
X81044874Y-38759989D02*
X81044874Y-24859998D01*
X94944866Y-38760011D02*
X81044874Y-38759989D01*
X94944887Y-43910019D02*
X94944866Y-57810011D01*
X81044874Y-43909998D02*
X94944887Y-43910019D01*
X81044874Y-57809989D02*
X81044874Y-43909998D01*
X94944866Y-57810011D02*
X81044874Y-57809989D01*
X94944887Y-62960019D02*
X94944866Y-76860011D01*
X81044874Y-62959998D02*
X94944887Y-62960019D01*
X81044874Y-76859989D02*
X81044874Y-62959998D01*
X94944866Y-76860011D02*
X81044874Y-76859989D01*
X94944779Y-82009933D02*
X94944758Y-95909946D01*
X61994788Y-82009933D02*
X94944779Y-82009933D01*
X61994767Y-95909925D02*
X61994788Y-82009933D01*
X94944758Y-95909946D02*
X61994767Y-95909925D01*
X56844887Y-24860041D02*
X56844866Y-38760032D01*
X42944874Y-24860019D02*
X56844887Y-24860041D01*
X42944874Y-38760032D02*
X42944874Y-24860019D01*
X56844866Y-38760032D02*
X42944874Y-38760032D01*
X56844887Y-43910019D02*
X56844866Y-57810011D01*
X42944874Y-43909998D02*
X56844887Y-43910019D01*
X42944874Y-57809989D02*
X42944874Y-43909998D01*
X56844866Y-57810011D02*
X42944874Y-57809989D01*
X56844887Y-62960019D02*
X56844866Y-76860011D01*
X42944874Y-62959998D02*
X56844887Y-62960019D01*
X42944874Y-76859989D02*
X42944874Y-62959998D01*
X56844866Y-76860011D02*
X42944874Y-76859989D01*
X56844887Y-82010019D02*
X56844866Y-95910011D01*
X42944874Y-82009998D02*
X56844887Y-82010019D01*
X42944874Y-95909989D02*
X42944874Y-82009998D01*
X56844866Y-95910011D02*
X42944874Y-95909989D01*
X61994874Y-76859989D02*
X61994874Y-62959998D01*
X107480147Y-20912500D02*
X104480007Y-20912500D01*
X107480147Y-17866002D02*
X107480147Y-20912500D01*
X94944887Y-17866002D02*
X107480147Y-17866002D01*
X94944887Y-20912500D02*
X94944887Y-17866002D01*
X97940721Y-20912500D02*
X94944887Y-20912500D01*
X99940728Y-22912507D02*
X99938125Y-22809587D01*
X99938125Y-22809587D02*
X99930402Y-22708019D01*
X99930402Y-22708019D02*
X99917683Y-22607928D01*
X99917683Y-22607928D02*
X99900095Y-22509439D01*
X99900095Y-22509439D02*
X99850812Y-22317770D01*
X99850812Y-22317770D02*
X99783558Y-22134018D01*
X99783558Y-22134018D02*
X99699339Y-21959189D01*
X99699339Y-21959189D02*
X99599160Y-21794289D01*
X99599160Y-21794289D02*
X99484026Y-21640321D01*
X99484026Y-21640321D02*
X99354943Y-21498292D01*
X99354943Y-21498292D02*
X99212915Y-21369208D01*
X99212915Y-21369208D02*
X99058948Y-21254072D01*
X99058948Y-21254072D02*
X98894047Y-21153892D01*
X98894047Y-21153892D02*
X98719218Y-21069672D01*
X98719218Y-21069672D02*
X98535465Y-21002417D01*
X98535465Y-21002417D02*
X98343794Y-20953133D01*
X98343794Y-20953133D02*
X98245304Y-20935544D01*
X98245304Y-20935544D02*
X98145211Y-20922825D01*
X98145211Y-20922825D02*
X98043641Y-20915102D01*
X98043641Y-20915102D02*
X97940721Y-20912500D01*
X99940706Y-28000009D02*
X99940728Y-22912507D01*
X102480000Y-28000009D02*
X99940706Y-28000009D01*
X102480000Y-22912507D02*
X102480000Y-28000009D01*
X104480007Y-20912500D02*
X104377087Y-20915102D01*
X104377087Y-20915102D02*
X104275519Y-20922825D01*
X104275519Y-20922825D02*
X104175428Y-20935544D01*
X104175428Y-20935544D02*
X104076939Y-20953133D01*
X104076939Y-20953133D02*
X103885270Y-21002417D01*
X103885270Y-21002417D02*
X103701518Y-21069672D01*
X103701518Y-21069672D02*
X103526689Y-21153892D01*
X103526689Y-21153892D02*
X103361789Y-21254072D01*
X103361789Y-21254072D02*
X103207821Y-21369208D01*
X103207821Y-21369208D02*
X103065792Y-21498292D01*
X103065792Y-21498292D02*
X102936708Y-21640321D01*
X102936708Y-21640321D02*
X102821572Y-21794289D01*
X102821572Y-21794289D02*
X102721392Y-21959189D01*
X102721392Y-21959189D02*
X102637172Y-22134018D01*
X102637172Y-22134018D02*
X102569917Y-22317770D01*
X102569917Y-22317770D02*
X102520633Y-22509439D01*
X102520633Y-22509439D02*
X102503044Y-22607928D01*
X102503044Y-22607928D02*
X102490325Y-22708019D01*
X102490325Y-22708019D02*
X102482602Y-22809587D01*
X102482602Y-22809587D02*
X102480000Y-22912507D01*
X103438921Y-42423719D02*
X103438921Y-59405714D01*
X102480000Y-41376259D02*
X103438921Y-42423719D01*
X102480000Y-35620000D02*
X102480000Y-41376259D01*
M02*
