M48
; DRILL file {KiCad (5.1.6-0-10_14)} date Monday, October 19, 2020 at 11:15:11 AM
; FORMAT={-:-/ absolute / inch / decimal}
; #@! TF.CreationDate,2020-10-19T11:15:11+09:00
; #@! TF.GenerationSoftware,Kicad,Pcbnew,(5.1.6-0-10_14)
; #@! TF.FileFunction,NonPlated,1,2,NPTH
FMAT,2
INCH
T1C0.0236
T2C0.0866
%
G90
G05
T1
X4.2482Y-0.7189
X4.2807Y-0.7189
X4.3132Y-0.7189
X4.3467Y-0.7189
X4.3791Y-0.7189
X4.4116Y-0.7189
X4.2486Y-0.8071
X4.2811Y-0.8071
X4.3136Y-0.8071
X4.347Y-0.8071
X4.3795Y-0.8071
X4.412Y-0.8071
X3.9504Y-2.6553
X3.9504Y-2.6878
X3.9504Y-2.7203
X3.9504Y-2.7528
X3.9504Y-2.7852
X3.9504Y-2.8177
X3.9504Y-2.8502
X3.9504Y-2.8827
X3.9508Y-2.6228
X3.5577Y-0.8071
X3.5902Y-0.8071
X3.6226Y-0.8071
X3.6561Y-0.8071
X3.6886Y-0.8071
X3.7211Y-0.8071
X3.5581Y-0.7189
X3.5906Y-0.7189
X3.623Y-0.7189
X3.6565Y-0.7189
X3.689Y-0.7189
X3.7215Y-0.7189
X3.95Y-1.1545
X3.95Y-1.187
X3.95Y-1.2195
X3.95Y-1.252
X3.95Y-1.2844
X3.95Y-1.3169
X3.95Y-1.3494
X3.95Y-1.3819
X3.9504Y-1.122
X4.0185Y-2.8831
X4.0189Y-2.6232
X4.0189Y-2.6557
X4.0189Y-2.6882
X4.0189Y-2.7207
X4.0189Y-2.7531
X4.0189Y-2.7856
X4.0189Y-2.8181
X4.0189Y-2.8506
X4.0189Y-1.3823
X4.0193Y-1.1224
X4.0193Y-1.1549
X4.0193Y-1.1874
X4.0193Y-1.2199
X4.0193Y-1.2524
X4.0193Y-1.2848
X4.0193Y-1.3173
X4.0193Y-1.3498
T2
X6.3705Y-0.1594
X0.8394Y-3.0484
X3.0894Y-1.6272
X3.0894Y-3.0484
X4.8799Y-1.6272
X7.1299Y-3.0484
X3.0339Y-0.6106
X3.0343Y-0.0378
X4.8799Y-3.0484
T0
M30
