G04 #@! TF.GenerationSoftware,KiCad,Pcbnew,(5.1.6-0-10_14)*
G04 #@! TF.CreationDate,2020-08-01T13:26:42+09:00*
G04 #@! TF.ProjectId,reviung33-top-plate,72657669-756e-4673-9333-2d746f702d70,rev0.3*
G04 #@! TF.SameCoordinates,Original*
G04 #@! TF.FileFunction,Legend,Bot*
G04 #@! TF.FilePolarity,Positive*
%FSLAX46Y46*%
G04 Gerber Fmt 4.6, Leading zero omitted, Abs format (unit mm)*
G04 Created by KiCad (PCBNEW (5.1.6-0-10_14)) date 2020-08-01 13:26:42*
%MOMM*%
%LPD*%
G01*
G04 APERTURE LIST*
%ADD10C,0.150000*%
%ADD11C,0.010000*%
G04 APERTURE END LIST*
D10*
X110992976Y-100607380D02*
X111326309Y-100131190D01*
X111564404Y-100607380D02*
X111564404Y-99607380D01*
X111183452Y-99607380D01*
X111088214Y-99655000D01*
X111040595Y-99702619D01*
X110992976Y-99797857D01*
X110992976Y-99940714D01*
X111040595Y-100035952D01*
X111088214Y-100083571D01*
X111183452Y-100131190D01*
X111564404Y-100131190D01*
X110564404Y-100083571D02*
X110231071Y-100083571D01*
X110088214Y-100607380D02*
X110564404Y-100607380D01*
X110564404Y-99607380D01*
X110088214Y-99607380D01*
X109802500Y-99607380D02*
X109469166Y-100607380D01*
X109135833Y-99607380D01*
X108802500Y-100607380D02*
X108802500Y-99607380D01*
X108326309Y-99607380D02*
X108326309Y-100416904D01*
X108278690Y-100512142D01*
X108231071Y-100559761D01*
X108135833Y-100607380D01*
X107945357Y-100607380D01*
X107850119Y-100559761D01*
X107802500Y-100512142D01*
X107754880Y-100416904D01*
X107754880Y-99607380D01*
X107278690Y-100607380D02*
X107278690Y-99607380D01*
X106707261Y-100607380D01*
X106707261Y-99607380D01*
X105707261Y-99655000D02*
X105802500Y-99607380D01*
X105945357Y-99607380D01*
X106088214Y-99655000D01*
X106183452Y-99750238D01*
X106231071Y-99845476D01*
X106278690Y-100035952D01*
X106278690Y-100178809D01*
X106231071Y-100369285D01*
X106183452Y-100464523D01*
X106088214Y-100559761D01*
X105945357Y-100607380D01*
X105850119Y-100607380D01*
X105707261Y-100559761D01*
X105659642Y-100512142D01*
X105659642Y-100178809D01*
X105850119Y-100178809D01*
X105326309Y-99607380D02*
X104707261Y-99607380D01*
X105040595Y-99988333D01*
X104897738Y-99988333D01*
X104802500Y-100035952D01*
X104754880Y-100083571D01*
X104707261Y-100178809D01*
X104707261Y-100416904D01*
X104754880Y-100512142D01*
X104802500Y-100559761D01*
X104897738Y-100607380D01*
X105183452Y-100607380D01*
X105278690Y-100559761D01*
X105326309Y-100512142D01*
X104373928Y-99607380D02*
X103754880Y-99607380D01*
X104088214Y-99988333D01*
X103945357Y-99988333D01*
X103850119Y-100035952D01*
X103802500Y-100083571D01*
X103754880Y-100178809D01*
X103754880Y-100416904D01*
X103802500Y-100512142D01*
X103850119Y-100559761D01*
X103945357Y-100607380D01*
X104231071Y-100607380D01*
X104326309Y-100559761D01*
X104373928Y-100512142D01*
X102564404Y-100607380D02*
X102564404Y-99607380D01*
X101992976Y-100607380D02*
X102421547Y-100035952D01*
X101992976Y-99607380D02*
X102564404Y-100178809D01*
X101659642Y-99607380D02*
X101040595Y-99607380D01*
X101373928Y-99988333D01*
X101231071Y-99988333D01*
X101135833Y-100035952D01*
X101088214Y-100083571D01*
X101040595Y-100178809D01*
X101040595Y-100416904D01*
X101088214Y-100512142D01*
X101135833Y-100559761D01*
X101231071Y-100607380D01*
X101516785Y-100607380D01*
X101612023Y-100559761D01*
X101659642Y-100512142D01*
X100707261Y-99607380D02*
X100088214Y-99607380D01*
X100421547Y-99988333D01*
X100278690Y-99988333D01*
X100183452Y-100035952D01*
X100135833Y-100083571D01*
X100088214Y-100178809D01*
X100088214Y-100416904D01*
X100135833Y-100512142D01*
X100183452Y-100559761D01*
X100278690Y-100607380D01*
X100564404Y-100607380D01*
X100659642Y-100559761D01*
X100707261Y-100512142D01*
X99326309Y-100083571D02*
X99183452Y-100131190D01*
X99135833Y-100178809D01*
X99088214Y-100274047D01*
X99088214Y-100416904D01*
X99135833Y-100512142D01*
X99183452Y-100559761D01*
X99278690Y-100607380D01*
X99659642Y-100607380D01*
X99659642Y-99607380D01*
X99326309Y-99607380D01*
X99231071Y-99655000D01*
X99183452Y-99702619D01*
X99135833Y-99797857D01*
X99135833Y-99893095D01*
X99183452Y-99988333D01*
X99231071Y-100035952D01*
X99326309Y-100083571D01*
X99659642Y-100083571D01*
X97897738Y-100607380D02*
X97897738Y-99940714D01*
X97897738Y-100131190D02*
X97850119Y-100035952D01*
X97802500Y-99988333D01*
X97707261Y-99940714D01*
X97612023Y-99940714D01*
X96897738Y-100559761D02*
X96992976Y-100607380D01*
X97183452Y-100607380D01*
X97278690Y-100559761D01*
X97326309Y-100464523D01*
X97326309Y-100083571D01*
X97278690Y-99988333D01*
X97183452Y-99940714D01*
X96992976Y-99940714D01*
X96897738Y-99988333D01*
X96850119Y-100083571D01*
X96850119Y-100178809D01*
X97326309Y-100274047D01*
X96516785Y-99940714D02*
X96278690Y-100607380D01*
X96040595Y-99940714D01*
X95135833Y-100607380D02*
X95707261Y-100607380D01*
X95421547Y-100607380D02*
X95421547Y-99607380D01*
X95516785Y-99750238D01*
X95612023Y-99845476D01*
X95707261Y-99893095D01*
X94707261Y-100512142D02*
X94659642Y-100559761D01*
X94707261Y-100607380D01*
X94754880Y-100559761D01*
X94707261Y-100512142D01*
X94707261Y-100607380D01*
X94040595Y-99607380D02*
X93945357Y-99607380D01*
X93850119Y-99655000D01*
X93802500Y-99702619D01*
X93754880Y-99797857D01*
X93707261Y-99988333D01*
X93707261Y-100226428D01*
X93754880Y-100416904D01*
X93802500Y-100512142D01*
X93850119Y-100559761D01*
X93945357Y-100607380D01*
X94040595Y-100607380D01*
X94135833Y-100559761D01*
X94183452Y-100512142D01*
X94231071Y-100416904D01*
X94278690Y-100226428D01*
X94278690Y-99988333D01*
X94231071Y-99797857D01*
X94183452Y-99702619D01*
X94135833Y-99655000D01*
X94040595Y-99607380D01*
X111564404Y-102257380D02*
X111564404Y-101257380D01*
X111326309Y-101257380D01*
X111183452Y-101305000D01*
X111088214Y-101400238D01*
X111040595Y-101495476D01*
X110992976Y-101685952D01*
X110992976Y-101828809D01*
X111040595Y-102019285D01*
X111088214Y-102114523D01*
X111183452Y-102209761D01*
X111326309Y-102257380D01*
X111564404Y-102257380D01*
X110183452Y-102209761D02*
X110278690Y-102257380D01*
X110469166Y-102257380D01*
X110564404Y-102209761D01*
X110612023Y-102114523D01*
X110612023Y-101733571D01*
X110564404Y-101638333D01*
X110469166Y-101590714D01*
X110278690Y-101590714D01*
X110183452Y-101638333D01*
X110135833Y-101733571D01*
X110135833Y-101828809D01*
X110612023Y-101924047D01*
X109754880Y-102209761D02*
X109659642Y-102257380D01*
X109469166Y-102257380D01*
X109373928Y-102209761D01*
X109326309Y-102114523D01*
X109326309Y-102066904D01*
X109373928Y-101971666D01*
X109469166Y-101924047D01*
X109612023Y-101924047D01*
X109707261Y-101876428D01*
X109754880Y-101781190D01*
X109754880Y-101733571D01*
X109707261Y-101638333D01*
X109612023Y-101590714D01*
X109469166Y-101590714D01*
X109373928Y-101638333D01*
X108897738Y-102257380D02*
X108897738Y-101590714D01*
X108897738Y-101257380D02*
X108945357Y-101305000D01*
X108897738Y-101352619D01*
X108850119Y-101305000D01*
X108897738Y-101257380D01*
X108897738Y-101352619D01*
X107992976Y-101590714D02*
X107992976Y-102400238D01*
X108040595Y-102495476D01*
X108088214Y-102543095D01*
X108183452Y-102590714D01*
X108326309Y-102590714D01*
X108421547Y-102543095D01*
X107992976Y-102209761D02*
X108088214Y-102257380D01*
X108278690Y-102257380D01*
X108373928Y-102209761D01*
X108421547Y-102162142D01*
X108469166Y-102066904D01*
X108469166Y-101781190D01*
X108421547Y-101685952D01*
X108373928Y-101638333D01*
X108278690Y-101590714D01*
X108088214Y-101590714D01*
X107992976Y-101638333D01*
X107135833Y-102209761D02*
X107231071Y-102257380D01*
X107421547Y-102257380D01*
X107516785Y-102209761D01*
X107564404Y-102114523D01*
X107564404Y-101733571D01*
X107516785Y-101638333D01*
X107421547Y-101590714D01*
X107231071Y-101590714D01*
X107135833Y-101638333D01*
X107088214Y-101733571D01*
X107088214Y-101828809D01*
X107564404Y-101924047D01*
X106231071Y-102257380D02*
X106231071Y-101257380D01*
X106231071Y-102209761D02*
X106326309Y-102257380D01*
X106516785Y-102257380D01*
X106612023Y-102209761D01*
X106659642Y-102162142D01*
X106707261Y-102066904D01*
X106707261Y-101781190D01*
X106659642Y-101685952D01*
X106612023Y-101638333D01*
X106516785Y-101590714D01*
X106326309Y-101590714D01*
X106231071Y-101638333D01*
X104992976Y-102257380D02*
X104992976Y-101257380D01*
X104992976Y-101638333D02*
X104897738Y-101590714D01*
X104707261Y-101590714D01*
X104612023Y-101638333D01*
X104564404Y-101685952D01*
X104516785Y-101781190D01*
X104516785Y-102066904D01*
X104564404Y-102162142D01*
X104612023Y-102209761D01*
X104707261Y-102257380D01*
X104897738Y-102257380D01*
X104992976Y-102209761D01*
X104183452Y-101590714D02*
X103945357Y-102257380D01*
X103707261Y-101590714D02*
X103945357Y-102257380D01*
X104040595Y-102495476D01*
X104088214Y-102543095D01*
X104183452Y-102590714D01*
X102135833Y-101590714D02*
X102135833Y-102400238D01*
X102183452Y-102495476D01*
X102231071Y-102543095D01*
X102326309Y-102590714D01*
X102469166Y-102590714D01*
X102564404Y-102543095D01*
X102135833Y-102209761D02*
X102231071Y-102257380D01*
X102421547Y-102257380D01*
X102516785Y-102209761D01*
X102564404Y-102162142D01*
X102612023Y-102066904D01*
X102612023Y-101781190D01*
X102564404Y-101685952D01*
X102516785Y-101638333D01*
X102421547Y-101590714D01*
X102231071Y-101590714D01*
X102135833Y-101638333D01*
X101802500Y-101590714D02*
X101421547Y-101590714D01*
X101659642Y-101257380D02*
X101659642Y-102114523D01*
X101612023Y-102209761D01*
X101516785Y-102257380D01*
X101421547Y-102257380D01*
X101088214Y-102257380D02*
X101088214Y-101590714D01*
X101088214Y-101257380D02*
X101135833Y-101305000D01*
X101088214Y-101352619D01*
X101040595Y-101305000D01*
X101088214Y-101257380D01*
X101088214Y-101352619D01*
X100612023Y-101590714D02*
X100612023Y-102590714D01*
X100612023Y-101638333D02*
X100516785Y-101590714D01*
X100326309Y-101590714D01*
X100231071Y-101638333D01*
X100183452Y-101685952D01*
X100135833Y-101781190D01*
X100135833Y-102066904D01*
X100183452Y-102162142D01*
X100231071Y-102209761D01*
X100326309Y-102257380D01*
X100516785Y-102257380D01*
X100612023Y-102209761D01*
X99754880Y-102209761D02*
X99659642Y-102257380D01*
X99469166Y-102257380D01*
X99373928Y-102209761D01*
X99326309Y-102114523D01*
X99326309Y-102066904D01*
X99373928Y-101971666D01*
X99469166Y-101924047D01*
X99612023Y-101924047D01*
X99707261Y-101876428D01*
X99754880Y-101781190D01*
X99754880Y-101733571D01*
X99707261Y-101638333D01*
X99612023Y-101590714D01*
X99469166Y-101590714D01*
X99373928Y-101638333D01*
X98183452Y-101352619D02*
X98135833Y-101305000D01*
X98040595Y-101257380D01*
X97802500Y-101257380D01*
X97707261Y-101305000D01*
X97659642Y-101352619D01*
X97612023Y-101447857D01*
X97612023Y-101543095D01*
X97659642Y-101685952D01*
X98231071Y-102257380D01*
X97612023Y-102257380D01*
X96992976Y-101257380D02*
X96897738Y-101257380D01*
X96802500Y-101305000D01*
X96754880Y-101352619D01*
X96707261Y-101447857D01*
X96659642Y-101638333D01*
X96659642Y-101876428D01*
X96707261Y-102066904D01*
X96754880Y-102162142D01*
X96802500Y-102209761D01*
X96897738Y-102257380D01*
X96992976Y-102257380D01*
X97088214Y-102209761D01*
X97135833Y-102162142D01*
X97183452Y-102066904D01*
X97231071Y-101876428D01*
X97231071Y-101638333D01*
X97183452Y-101447857D01*
X97135833Y-101352619D01*
X97088214Y-101305000D01*
X96992976Y-101257380D01*
X96278690Y-101352619D02*
X96231071Y-101305000D01*
X96135833Y-101257380D01*
X95897738Y-101257380D01*
X95802500Y-101305000D01*
X95754880Y-101352619D01*
X95707261Y-101447857D01*
X95707261Y-101543095D01*
X95754880Y-101685952D01*
X96326309Y-102257380D01*
X95707261Y-102257380D01*
X95088214Y-101257380D02*
X94992976Y-101257380D01*
X94897738Y-101305000D01*
X94850119Y-101352619D01*
X94802500Y-101447857D01*
X94754880Y-101638333D01*
X94754880Y-101876428D01*
X94802500Y-102066904D01*
X94850119Y-102162142D01*
X94897738Y-102209761D01*
X94992976Y-102257380D01*
X95088214Y-102257380D01*
X95183452Y-102209761D01*
X95231071Y-102162142D01*
X95278690Y-102066904D01*
X95326309Y-101876428D01*
X95326309Y-101638333D01*
X95278690Y-101447857D01*
X95231071Y-101352619D01*
X95183452Y-101305000D01*
X95088214Y-101257380D01*
D11*
G36*
X117605315Y-98621922D02*
G01*
X117530345Y-98650525D01*
X117487687Y-98693908D01*
X117482353Y-98725791D01*
X117477621Y-98794282D01*
X117473515Y-98893663D01*
X117470062Y-99018214D01*
X117467287Y-99162213D01*
X117465216Y-99319941D01*
X117463872Y-99485678D01*
X117463283Y-99653703D01*
X117463473Y-99818298D01*
X117464468Y-99973741D01*
X117466292Y-100114312D01*
X117468972Y-100234292D01*
X117472533Y-100327960D01*
X117477001Y-100389596D01*
X117480082Y-100408658D01*
X117519363Y-100488116D01*
X117587210Y-100537645D01*
X117685168Y-100558247D01*
X117712449Y-100559000D01*
X117798167Y-100559000D01*
X117798167Y-98611666D01*
X117703913Y-98611666D01*
X117605315Y-98621922D01*
G37*
X117605315Y-98621922D02*
X117530345Y-98650525D01*
X117487687Y-98693908D01*
X117482353Y-98725791D01*
X117477621Y-98794282D01*
X117473515Y-98893663D01*
X117470062Y-99018214D01*
X117467287Y-99162213D01*
X117465216Y-99319941D01*
X117463872Y-99485678D01*
X117463283Y-99653703D01*
X117463473Y-99818298D01*
X117464468Y-99973741D01*
X117466292Y-100114312D01*
X117468972Y-100234292D01*
X117472533Y-100327960D01*
X117477001Y-100389596D01*
X117480082Y-100408658D01*
X117519363Y-100488116D01*
X117587210Y-100537645D01*
X117685168Y-100558247D01*
X117712449Y-100559000D01*
X117798167Y-100559000D01*
X117798167Y-98611666D01*
X117703913Y-98611666D01*
X117605315Y-98621922D01*
G36*
X117389169Y-96968093D02*
G01*
X116992381Y-97012589D01*
X116600887Y-97096850D01*
X116217898Y-97220847D01*
X115865208Y-97375247D01*
X115509935Y-97574243D01*
X115183684Y-97802008D01*
X114887017Y-98055973D01*
X114620494Y-98333568D01*
X114384676Y-98632224D01*
X114180125Y-98949373D01*
X114007401Y-99282446D01*
X113867064Y-99628873D01*
X113759675Y-99986087D01*
X113685796Y-100351517D01*
X113645987Y-100722596D01*
X113640808Y-101096754D01*
X113670821Y-101471422D01*
X113736587Y-101844032D01*
X113838665Y-102212014D01*
X113977618Y-102572799D01*
X114154005Y-102923819D01*
X114368388Y-103262505D01*
X114532553Y-103480000D01*
X114636140Y-103599791D01*
X114762723Y-103733066D01*
X114901574Y-103869468D01*
X115041965Y-103998642D01*
X115173166Y-104110231D01*
X115237000Y-104159968D01*
X115575165Y-104386517D01*
X115932842Y-104576755D01*
X116306646Y-104729746D01*
X116693194Y-104844554D01*
X117089100Y-104920244D01*
X117490980Y-104955881D01*
X117895449Y-104950528D01*
X118049900Y-104937471D01*
X118451110Y-104874916D01*
X118838135Y-104773797D01*
X119208906Y-104636113D01*
X119561356Y-104463861D01*
X119893417Y-104259042D01*
X120055034Y-104136166D01*
X118898834Y-104136166D01*
X117798167Y-104136166D01*
X117798167Y-101490333D01*
X117718792Y-101490645D01*
X117616921Y-101506230D01*
X117541472Y-101553568D01*
X117496575Y-101617627D01*
X117488709Y-101635950D01*
X117482035Y-101659307D01*
X117476456Y-101691090D01*
X117471875Y-101734695D01*
X117468196Y-101793514D01*
X117465322Y-101870942D01*
X117463154Y-101970372D01*
X117461597Y-102095197D01*
X117460554Y-102248811D01*
X117459926Y-102434608D01*
X117459619Y-102655982D01*
X117459533Y-102913791D01*
X117459500Y-104136166D01*
X116377865Y-104136166D01*
X116384700Y-102860875D01*
X116386150Y-102596552D01*
X116387535Y-102371061D01*
X116388988Y-102180896D01*
X116390643Y-102022557D01*
X116392632Y-101892539D01*
X116395090Y-101787341D01*
X116398150Y-101703460D01*
X116401944Y-101637393D01*
X116406607Y-101585637D01*
X116412272Y-101544690D01*
X116419071Y-101511048D01*
X116427140Y-101481210D01*
X116436610Y-101451673D01*
X116438577Y-101445810D01*
X116510954Y-101293360D01*
X116615740Y-101162376D01*
X116746552Y-101060649D01*
X116760880Y-101052351D01*
X116863726Y-100994538D01*
X116775321Y-100944649D01*
X116646016Y-100854405D01*
X116545774Y-100743363D01*
X116469309Y-100604558D01*
X116426430Y-100484916D01*
X116416313Y-100429116D01*
X116407393Y-100336894D01*
X116399724Y-100214146D01*
X116393357Y-100066768D01*
X116388346Y-99900656D01*
X116384744Y-99721707D01*
X116382603Y-99535815D01*
X116381976Y-99348877D01*
X116382917Y-99166790D01*
X116385477Y-98995449D01*
X116389711Y-98840749D01*
X116395670Y-98708588D01*
X116403408Y-98604861D01*
X116409145Y-98557262D01*
X116444980Y-98368116D01*
X116491282Y-98215671D01*
X116550743Y-98095016D01*
X116626053Y-98001239D01*
X116719904Y-97929428D01*
X116767093Y-97903853D01*
X116827592Y-97875633D01*
X116886629Y-97852032D01*
X116948674Y-97832584D01*
X117018196Y-97816818D01*
X117099667Y-97804267D01*
X117197557Y-97794463D01*
X117316335Y-97786936D01*
X117460472Y-97781219D01*
X117634438Y-97776842D01*
X117842704Y-97773338D01*
X118036292Y-97770857D01*
X118898834Y-97760707D01*
X118898834Y-104136166D01*
X120055034Y-104136166D01*
X120203023Y-104023652D01*
X120488105Y-103759689D01*
X120746596Y-103469153D01*
X120976429Y-103154042D01*
X121175536Y-102816353D01*
X121341850Y-102458085D01*
X121473303Y-102081236D01*
X121567828Y-101687805D01*
X121597360Y-101508746D01*
X121614041Y-101349312D01*
X121624042Y-101162012D01*
X121627364Y-100960784D01*
X121624008Y-100759564D01*
X121613974Y-100572289D01*
X121597321Y-100413308D01*
X121518838Y-100007277D01*
X121401869Y-99616807D01*
X121247990Y-99244043D01*
X121058777Y-98891129D01*
X120835805Y-98560208D01*
X120580652Y-98253423D01*
X120294891Y-97972917D01*
X119980100Y-97720835D01*
X119637854Y-97499320D01*
X119340249Y-97343136D01*
X118965110Y-97188359D01*
X118579223Y-97073496D01*
X118185799Y-96998517D01*
X117788045Y-96963393D01*
X117389169Y-96968093D01*
G37*
X117389169Y-96968093D02*
X116992381Y-97012589D01*
X116600887Y-97096850D01*
X116217898Y-97220847D01*
X115865208Y-97375247D01*
X115509935Y-97574243D01*
X115183684Y-97802008D01*
X114887017Y-98055973D01*
X114620494Y-98333568D01*
X114384676Y-98632224D01*
X114180125Y-98949373D01*
X114007401Y-99282446D01*
X113867064Y-99628873D01*
X113759675Y-99986087D01*
X113685796Y-100351517D01*
X113645987Y-100722596D01*
X113640808Y-101096754D01*
X113670821Y-101471422D01*
X113736587Y-101844032D01*
X113838665Y-102212014D01*
X113977618Y-102572799D01*
X114154005Y-102923819D01*
X114368388Y-103262505D01*
X114532553Y-103480000D01*
X114636140Y-103599791D01*
X114762723Y-103733066D01*
X114901574Y-103869468D01*
X115041965Y-103998642D01*
X115173166Y-104110231D01*
X115237000Y-104159968D01*
X115575165Y-104386517D01*
X115932842Y-104576755D01*
X116306646Y-104729746D01*
X116693194Y-104844554D01*
X117089100Y-104920244D01*
X117490980Y-104955881D01*
X117895449Y-104950528D01*
X118049900Y-104937471D01*
X118451110Y-104874916D01*
X118838135Y-104773797D01*
X119208906Y-104636113D01*
X119561356Y-104463861D01*
X119893417Y-104259042D01*
X120055034Y-104136166D01*
X118898834Y-104136166D01*
X117798167Y-104136166D01*
X117798167Y-101490333D01*
X117718792Y-101490645D01*
X117616921Y-101506230D01*
X117541472Y-101553568D01*
X117496575Y-101617627D01*
X117488709Y-101635950D01*
X117482035Y-101659307D01*
X117476456Y-101691090D01*
X117471875Y-101734695D01*
X117468196Y-101793514D01*
X117465322Y-101870942D01*
X117463154Y-101970372D01*
X117461597Y-102095197D01*
X117460554Y-102248811D01*
X117459926Y-102434608D01*
X117459619Y-102655982D01*
X117459533Y-102913791D01*
X117459500Y-104136166D01*
X116377865Y-104136166D01*
X116384700Y-102860875D01*
X116386150Y-102596552D01*
X116387535Y-102371061D01*
X116388988Y-102180896D01*
X116390643Y-102022557D01*
X116392632Y-101892539D01*
X116395090Y-101787341D01*
X116398150Y-101703460D01*
X116401944Y-101637393D01*
X116406607Y-101585637D01*
X116412272Y-101544690D01*
X116419071Y-101511048D01*
X116427140Y-101481210D01*
X116436610Y-101451673D01*
X116438577Y-101445810D01*
X116510954Y-101293360D01*
X116615740Y-101162376D01*
X116746552Y-101060649D01*
X116760880Y-101052351D01*
X116863726Y-100994538D01*
X116775321Y-100944649D01*
X116646016Y-100854405D01*
X116545774Y-100743363D01*
X116469309Y-100604558D01*
X116426430Y-100484916D01*
X116416313Y-100429116D01*
X116407393Y-100336894D01*
X116399724Y-100214146D01*
X116393357Y-100066768D01*
X116388346Y-99900656D01*
X116384744Y-99721707D01*
X116382603Y-99535815D01*
X116381976Y-99348877D01*
X116382917Y-99166790D01*
X116385477Y-98995449D01*
X116389711Y-98840749D01*
X116395670Y-98708588D01*
X116403408Y-98604861D01*
X116409145Y-98557262D01*
X116444980Y-98368116D01*
X116491282Y-98215671D01*
X116550743Y-98095016D01*
X116626053Y-98001239D01*
X116719904Y-97929428D01*
X116767093Y-97903853D01*
X116827592Y-97875633D01*
X116886629Y-97852032D01*
X116948674Y-97832584D01*
X117018196Y-97816818D01*
X117099667Y-97804267D01*
X117197557Y-97794463D01*
X117316335Y-97786936D01*
X117460472Y-97781219D01*
X117634438Y-97776842D01*
X117842704Y-97773338D01*
X118036292Y-97770857D01*
X118898834Y-97760707D01*
X118898834Y-104136166D01*
X120055034Y-104136166D01*
X120203023Y-104023652D01*
X120488105Y-103759689D01*
X120746596Y-103469153D01*
X120976429Y-103154042D01*
X121175536Y-102816353D01*
X121341850Y-102458085D01*
X121473303Y-102081236D01*
X121567828Y-101687805D01*
X121597360Y-101508746D01*
X121614041Y-101349312D01*
X121624042Y-101162012D01*
X121627364Y-100960784D01*
X121624008Y-100759564D01*
X121613974Y-100572289D01*
X121597321Y-100413308D01*
X121518838Y-100007277D01*
X121401869Y-99616807D01*
X121247990Y-99244043D01*
X121058777Y-98891129D01*
X120835805Y-98560208D01*
X120580652Y-98253423D01*
X120294891Y-97972917D01*
X119980100Y-97720835D01*
X119637854Y-97499320D01*
X119340249Y-97343136D01*
X118965110Y-97188359D01*
X118579223Y-97073496D01*
X118185799Y-96998517D01*
X117788045Y-96963393D01*
X117389169Y-96968093D01*
M02*
