G04 #@! TF.GenerationSoftware,KiCad,Pcbnew,(5.1.6-0-10_14)*
G04 #@! TF.CreationDate,2020-08-01T13:26:42+09:00*
G04 #@! TF.ProjectId,reviung33-top-plate,72657669-756e-4673-9333-2d746f702d70,rev0.3*
G04 #@! TF.SameCoordinates,Original*
G04 #@! TF.FileFunction,Profile,NP*
%FSLAX46Y46*%
G04 Gerber Fmt 4.6, Leading zero omitted, Abs format (unit mm)*
G04 Created by KiCad (PCBNEW (5.1.6-0-10_14)) date 2020-08-01 13:26:42*
%MOMM*%
%LPD*%
G01*
G04 APERTURE LIST*
G04 #@! TA.AperFunction,Profile*
%ADD10C,0.100000*%
G04 #@! TD*
G04 APERTURE END LIST*
D10*
X33025038Y-28444994D02*
X32870658Y-28448897D01*
X32870658Y-28448897D02*
X32718305Y-28460482D01*
X32718305Y-28460482D02*
X32568167Y-28479560D01*
X32568167Y-28479560D02*
X32420433Y-28505943D01*
X32420433Y-28505943D02*
X32275290Y-28539442D01*
X32275290Y-28539442D02*
X32132928Y-28579869D01*
X32132928Y-28579869D02*
X31993536Y-28627034D01*
X31993536Y-28627034D02*
X31857301Y-28680750D01*
X31857301Y-28680750D02*
X31724412Y-28740828D01*
X31724412Y-28740828D02*
X31595057Y-28807080D01*
X31595057Y-28807080D02*
X31469426Y-28879316D01*
X31469426Y-28879316D02*
X31347706Y-28957350D01*
X31347706Y-28957350D02*
X31230086Y-29040991D01*
X31230086Y-29040991D02*
X31116755Y-29130052D01*
X31116755Y-29130052D02*
X31007901Y-29224344D01*
X31007901Y-29224344D02*
X30903712Y-29323678D01*
X30903712Y-29323678D02*
X30804378Y-29427867D01*
X30804378Y-29427867D02*
X30710086Y-29536721D01*
X30710086Y-29536721D02*
X30621025Y-29650052D01*
X30621025Y-29650052D02*
X30537384Y-29767672D01*
X30537384Y-29767672D02*
X30459350Y-29889392D01*
X30459350Y-29889392D02*
X30387114Y-30015023D01*
X30387114Y-30015023D02*
X30320862Y-30144378D01*
X30320862Y-30144378D02*
X30260784Y-30277267D01*
X30260784Y-30277267D02*
X30207068Y-30413502D01*
X30207068Y-30413502D02*
X30159903Y-30552894D01*
X30159903Y-30552894D02*
X30119476Y-30695256D01*
X30119476Y-30695256D02*
X30085977Y-30840399D01*
X30085977Y-30840399D02*
X30059594Y-30988133D01*
X30059594Y-30988133D02*
X30040516Y-31138271D01*
X30040516Y-31138271D02*
X30028931Y-31290624D01*
X30028931Y-31290624D02*
X30025028Y-31445004D01*
X117800031Y-37019987D02*
X131700043Y-37019987D01*
X235525015Y-31445004D02*
X235521111Y-31290624D01*
X235521111Y-31290624D02*
X235509526Y-31138271D01*
X235509526Y-31138271D02*
X235490448Y-30988133D01*
X235490448Y-30988133D02*
X235464066Y-30840399D01*
X235464066Y-30840399D02*
X235430567Y-30695256D01*
X235430567Y-30695256D02*
X235390141Y-30552894D01*
X235390141Y-30552894D02*
X235342977Y-30413502D01*
X235342977Y-30413502D02*
X235289261Y-30277267D01*
X235289261Y-30277267D02*
X235229184Y-30144378D01*
X235229184Y-30144378D02*
X235162933Y-30015023D01*
X235162933Y-30015023D02*
X235090697Y-29889392D01*
X235090697Y-29889392D02*
X235012665Y-29767672D01*
X235012665Y-29767672D02*
X234929025Y-29650052D01*
X234929025Y-29650052D02*
X234839965Y-29536721D01*
X234839965Y-29536721D02*
X234745674Y-29427867D01*
X234745674Y-29427867D02*
X234646340Y-29323678D01*
X234646340Y-29323678D02*
X234542153Y-29224344D01*
X234542153Y-29224344D02*
X234433300Y-29130052D01*
X234433300Y-29130052D02*
X234319969Y-29040991D01*
X234319969Y-29040991D02*
X234202350Y-28957350D01*
X234202350Y-28957350D02*
X234080632Y-28879316D01*
X234080632Y-28879316D02*
X233955001Y-28807080D01*
X233955001Y-28807080D02*
X233825647Y-28740828D01*
X233825647Y-28740828D02*
X233692759Y-28680750D01*
X233692759Y-28680750D02*
X233556525Y-28627034D01*
X233556525Y-28627034D02*
X233417133Y-28579869D01*
X233417133Y-28579869D02*
X233274771Y-28539442D01*
X233274771Y-28539442D02*
X233129630Y-28505943D01*
X233129630Y-28505943D02*
X232981896Y-28479560D01*
X232981896Y-28479560D02*
X232831758Y-28460482D01*
X232831758Y-28460482D02*
X232679405Y-28448897D01*
X232679405Y-28448897D02*
X232525026Y-28444994D01*
X235525015Y-113645004D02*
X235525015Y-31445004D01*
X232525026Y-116644993D02*
X232679405Y-116641089D01*
X232679405Y-116641089D02*
X232831758Y-116629504D01*
X232831758Y-116629504D02*
X232981896Y-116610426D01*
X232981896Y-116610426D02*
X233129630Y-116584044D01*
X233129630Y-116584044D02*
X233274771Y-116550545D01*
X233274771Y-116550545D02*
X233417133Y-116510119D01*
X233417133Y-116510119D02*
X233556525Y-116462955D01*
X233556525Y-116462955D02*
X233692759Y-116409239D01*
X233692759Y-116409239D02*
X233825647Y-116349162D01*
X233825647Y-116349162D02*
X233955001Y-116282911D01*
X233955001Y-116282911D02*
X234080632Y-116210675D01*
X234080632Y-116210675D02*
X234202350Y-116132643D01*
X234202350Y-116132643D02*
X234319969Y-116049003D01*
X234319969Y-116049003D02*
X234433300Y-115959943D01*
X234433300Y-115959943D02*
X234542153Y-115865652D01*
X234542153Y-115865652D02*
X234646340Y-115766318D01*
X234646340Y-115766318D02*
X234745674Y-115662131D01*
X234745674Y-115662131D02*
X234839965Y-115553278D01*
X234839965Y-115553278D02*
X234929025Y-115439947D01*
X234929025Y-115439947D02*
X235012665Y-115322328D01*
X235012665Y-115322328D02*
X235090697Y-115200610D01*
X235090697Y-115200610D02*
X235162933Y-115074979D01*
X235162933Y-115074979D02*
X235229184Y-114945625D01*
X235229184Y-114945625D02*
X235289261Y-114812737D01*
X235289261Y-114812737D02*
X235342977Y-114676503D01*
X235342977Y-114676503D02*
X235390141Y-114537111D01*
X235390141Y-114537111D02*
X235430567Y-114394749D01*
X235430567Y-114394749D02*
X235464066Y-114249608D01*
X235464066Y-114249608D02*
X235490448Y-114101874D01*
X235490448Y-114101874D02*
X235509526Y-113951736D01*
X235509526Y-113951736D02*
X235521111Y-113799383D01*
X235521111Y-113799383D02*
X235525015Y-113645004D01*
X36025026Y-116644993D02*
X232525026Y-116644993D01*
X30734997Y-61544502D02*
X33025038Y-63478320D01*
X30025028Y-60015719D02*
X30028055Y-60125822D01*
X30028055Y-60125822D02*
X30037068Y-60235004D01*
X30037068Y-60235004D02*
X30051967Y-60343046D01*
X30051967Y-60343046D02*
X30072650Y-60449731D01*
X30072650Y-60449731D02*
X30099014Y-60554839D01*
X30099014Y-60554839D02*
X30130959Y-60658153D01*
X30130959Y-60658153D02*
X30168382Y-60759453D01*
X30168382Y-60759453D02*
X30211184Y-60858521D01*
X30211184Y-60858521D02*
X30259261Y-60955139D01*
X30259261Y-60955139D02*
X30312512Y-61049088D01*
X30312512Y-61049088D02*
X30370836Y-61140150D01*
X30370836Y-61140150D02*
X30434132Y-61228105D01*
X30434132Y-61228105D02*
X30502297Y-61312737D01*
X30502297Y-61312737D02*
X30575231Y-61393826D01*
X30575231Y-61393826D02*
X30652831Y-61471154D01*
X30652831Y-61471154D02*
X30734997Y-61544502D01*
X30025028Y-31445004D02*
X30025028Y-60015719D01*
X232525026Y-28444994D02*
X33025038Y-28444994D01*
X41600052Y-50919978D02*
X41600074Y-37019987D01*
X55500043Y-50920000D02*
X41600052Y-50919978D01*
X55500065Y-56069987D02*
X55500043Y-69970000D01*
X41600074Y-56069987D02*
X55500065Y-56069987D01*
X41600052Y-69969978D02*
X41600074Y-56069987D01*
X55500043Y-69970000D02*
X41600052Y-69969978D01*
X55500065Y-75119987D02*
X55500043Y-89020000D01*
X41600074Y-75119987D02*
X55500065Y-75119987D01*
X41600052Y-89019978D02*
X41600074Y-75119987D01*
X55500043Y-89020000D02*
X41600052Y-89019978D01*
X55500065Y-94169987D02*
X55500043Y-108070000D01*
X74550043Y-89020000D02*
X60650052Y-89019978D01*
X55500065Y-37019987D02*
X55500043Y-50920000D01*
X41600074Y-37019987D02*
X55500065Y-37019987D01*
X41600074Y-94169987D02*
X55500065Y-94169987D01*
X41600052Y-108069978D02*
X41600074Y-94169987D01*
X55500043Y-108070000D02*
X41600052Y-108069978D01*
X117800031Y-69969978D02*
X117800031Y-56069987D01*
X131700022Y-69970000D02*
X117800031Y-69969978D01*
X131700043Y-56069987D02*
X131700022Y-69970000D01*
X117800031Y-56069987D02*
X131700043Y-56069987D01*
X117800031Y-50919978D02*
X117800031Y-37019987D01*
X131700022Y-50920000D02*
X117800031Y-50919978D01*
X131700043Y-37019987D02*
X131700022Y-50920000D01*
X33025038Y-113645004D02*
X33028941Y-113799383D01*
X33028941Y-113799383D02*
X33040526Y-113951736D01*
X33040526Y-113951736D02*
X33059604Y-114101874D01*
X33059604Y-114101874D02*
X33085986Y-114249608D01*
X33085986Y-114249608D02*
X33119485Y-114394749D01*
X33119485Y-114394749D02*
X33159910Y-114537111D01*
X33159910Y-114537111D02*
X33207075Y-114676503D01*
X33207075Y-114676503D02*
X33260791Y-114812737D01*
X33260791Y-114812737D02*
X33320868Y-114945625D01*
X33320868Y-114945625D02*
X33387119Y-115074979D01*
X33387119Y-115074979D02*
X33459354Y-115200610D01*
X33459354Y-115200610D02*
X33537387Y-115322328D01*
X33537387Y-115322328D02*
X33621027Y-115439947D01*
X33621027Y-115439947D02*
X33710087Y-115553278D01*
X33710087Y-115553278D02*
X33804378Y-115662131D01*
X33804378Y-115662131D02*
X33903711Y-115766318D01*
X33903711Y-115766318D02*
X34007899Y-115865652D01*
X34007899Y-115865652D02*
X34116752Y-115959943D01*
X34116752Y-115959943D02*
X34230082Y-116049003D01*
X34230082Y-116049003D02*
X34347701Y-116132643D01*
X34347701Y-116132643D02*
X34469420Y-116210675D01*
X34469420Y-116210675D02*
X34595050Y-116282911D01*
X34595050Y-116282911D02*
X34724404Y-116349162D01*
X34724404Y-116349162D02*
X34857292Y-116409239D01*
X34857292Y-116409239D02*
X34993526Y-116462955D01*
X34993526Y-116462955D02*
X35132918Y-116510119D01*
X35132918Y-116510119D02*
X35275280Y-116550545D01*
X35275280Y-116550545D02*
X35420421Y-116584044D01*
X35420421Y-116584044D02*
X35568155Y-116610426D01*
X35568155Y-116610426D02*
X35718293Y-116629504D01*
X35718293Y-116629504D02*
X35870646Y-116641089D01*
X35870646Y-116641089D02*
X36025026Y-116644993D01*
X33025038Y-63478320D02*
X33025038Y-113645004D01*
X79760341Y-103735661D02*
X79760341Y-98845584D01*
X80595712Y-103735661D02*
X79760341Y-103735661D01*
X80595712Y-107605041D02*
X80595712Y-103735661D01*
X80845697Y-107855047D02*
X80737318Y-107830391D01*
X80737318Y-107830391D02*
X80652796Y-107764062D01*
X80652796Y-107764062D02*
X80603582Y-107667517D01*
X80603582Y-107667517D02*
X80595712Y-107605041D01*
X87670647Y-107855047D02*
X80845697Y-107855047D01*
X87920653Y-107605041D02*
X87896001Y-107713423D01*
X87896001Y-107713423D02*
X87829677Y-107797953D01*
X87829677Y-107797953D02*
X87733130Y-107847175D01*
X87733130Y-107847175D02*
X87670647Y-107855047D01*
X87920653Y-103735661D02*
X87920653Y-107605041D01*
X88756002Y-103735661D02*
X87920653Y-103735661D01*
X74550065Y-37019987D02*
X74550043Y-50920000D01*
X60650052Y-37019987D02*
X74550065Y-37019987D01*
X60650052Y-50919978D02*
X60650052Y-37019987D01*
X74550043Y-50920000D02*
X60650052Y-50919978D01*
X74550065Y-56069987D02*
X74550043Y-69970000D01*
X60650052Y-56069987D02*
X74550065Y-56069987D01*
X60650052Y-69969978D02*
X60650052Y-56069987D01*
X74550043Y-69970000D02*
X60650052Y-69969978D01*
X74550065Y-75119987D02*
X74550043Y-89020000D01*
X60650052Y-75119987D02*
X74550065Y-75119987D01*
X60650052Y-89019978D02*
X60650052Y-75119987D01*
X79700052Y-37019987D02*
X93600043Y-37019987D01*
X79700031Y-50919978D02*
X79700052Y-37019987D01*
X93600043Y-50920000D02*
X79700031Y-50919978D01*
X93600043Y-56069987D02*
X93600043Y-69970000D01*
X79700052Y-56069987D02*
X93600043Y-56069987D01*
X79700031Y-69969978D02*
X79700052Y-56069987D01*
X93600043Y-69970000D02*
X79700031Y-69969978D01*
X93600043Y-75119987D02*
X93600043Y-89020000D01*
X79700052Y-75119987D02*
X93600043Y-75119987D01*
X79700031Y-89019978D02*
X79700052Y-75119987D01*
X93600043Y-89020000D02*
X79700031Y-89019978D01*
X88756002Y-98845584D02*
X88756002Y-103735661D01*
X87920653Y-98845584D02*
X88756002Y-98845584D01*
X87920653Y-93090208D02*
X87920653Y-98845584D01*
X87420662Y-92590195D02*
X87521423Y-92600353D01*
X87521423Y-92600353D02*
X87637422Y-92639502D01*
X87637422Y-92639502D02*
X87738697Y-92704374D01*
X87738697Y-92704374D02*
X87821318Y-92791043D01*
X87821318Y-92791043D02*
X87881359Y-92895581D01*
X87881359Y-92895581D02*
X87914891Y-93014061D01*
X87914891Y-93014061D02*
X87920653Y-93090208D01*
X81095703Y-92590195D02*
X87420662Y-92590195D01*
X80595712Y-93090208D02*
X80605869Y-92989438D01*
X80605869Y-92989438D02*
X80645015Y-92873433D01*
X80645015Y-92873433D02*
X80709882Y-92772154D01*
X80709882Y-92772154D02*
X80796546Y-92689530D01*
X80796546Y-92689530D02*
X80901080Y-92629489D01*
X80901080Y-92629489D02*
X81019557Y-92595956D01*
X81019557Y-92595956D02*
X81095703Y-92590195D01*
X80595712Y-98845584D02*
X80595712Y-93090208D01*
X79760341Y-98845584D02*
X80595712Y-98845584D01*
X141225022Y-94169987D02*
X141225000Y-108070000D01*
X127325031Y-94169987D02*
X141225022Y-94169987D01*
X127325009Y-108069978D02*
X127325031Y-94169987D01*
X141225000Y-108070000D02*
X127325009Y-108069978D01*
X117800031Y-89019978D02*
X117800031Y-75119987D01*
X131700022Y-89020000D02*
X117800031Y-89019978D01*
X131700043Y-75119987D02*
X131700022Y-89020000D01*
X117800031Y-75119987D02*
X131700043Y-75119987D01*
X112650043Y-37019987D02*
X112650022Y-50920000D01*
X98750052Y-37019987D02*
X112650043Y-37019987D01*
X98750031Y-50919978D02*
X98750052Y-37019987D01*
X112650022Y-50920000D02*
X98750031Y-50919978D01*
X112650043Y-56069987D02*
X112650022Y-69970000D01*
X98750052Y-56069987D02*
X112650043Y-56069987D01*
X98750031Y-69969978D02*
X98750052Y-56069987D01*
X112650022Y-69970000D02*
X98750031Y-69969978D01*
X112650043Y-75119987D02*
X112650022Y-89020000D01*
X98750052Y-75119987D02*
X112650043Y-75119987D01*
X98750031Y-89019978D02*
X98750052Y-75119987D01*
X112650022Y-89020000D02*
X98750031Y-89019978D01*
X93600043Y-37019987D02*
X93600043Y-50920000D01*
X169800000Y-50920000D02*
X155900009Y-50919978D01*
X169800022Y-56069987D02*
X169800000Y-69970000D01*
X155900031Y-56069987D02*
X169800022Y-56069987D01*
X155900009Y-69969978D02*
X155900031Y-56069987D01*
X169800000Y-69970000D02*
X155900009Y-69969978D01*
X169800022Y-75119987D02*
X169800000Y-89020000D01*
X155900031Y-75119987D02*
X169800022Y-75119987D01*
X155900009Y-89019978D02*
X155900031Y-75119987D01*
X169800000Y-89020000D02*
X155900009Y-89019978D01*
X150750022Y-37019987D02*
X150750022Y-50920000D01*
X136850031Y-37019987D02*
X150750022Y-37019987D01*
X136850009Y-50919978D02*
X136850031Y-37019987D01*
X150750022Y-50920000D02*
X136850009Y-50919978D01*
X150750022Y-56069987D02*
X150750022Y-69970000D01*
X136850031Y-56069987D02*
X150750022Y-56069987D01*
X136850009Y-69969978D02*
X136850031Y-56069987D01*
X150750022Y-69970000D02*
X136850009Y-69969978D01*
X150750022Y-75119987D02*
X150750022Y-89020000D01*
X136850031Y-75119987D02*
X150750022Y-75119987D01*
X136850009Y-89019978D02*
X136850031Y-75119987D01*
X150750022Y-89020000D02*
X136850009Y-89019978D01*
X187937438Y-93090208D02*
X187937438Y-98845584D01*
X187437447Y-92590195D02*
X187538215Y-92600353D01*
X187538215Y-92600353D02*
X187654217Y-92639502D01*
X187654217Y-92639502D02*
X187755491Y-92704374D01*
X187755491Y-92704374D02*
X187838110Y-92791043D01*
X187838110Y-92791043D02*
X187898147Y-92895581D01*
X187898147Y-92895581D02*
X187931677Y-93014061D01*
X187931677Y-93014061D02*
X187937438Y-93090208D01*
X181112488Y-92590195D02*
X187437447Y-92590195D01*
X180612497Y-93090208D02*
X180622655Y-92989438D01*
X180622655Y-92989438D02*
X180661803Y-92873433D01*
X180661803Y-92873433D02*
X180726674Y-92772154D01*
X180726674Y-92772154D02*
X180813341Y-92689530D01*
X180813341Y-92689530D02*
X180917874Y-92629489D01*
X180917874Y-92629489D02*
X181036347Y-92595956D01*
X181036347Y-92595956D02*
X181112488Y-92590195D01*
X180612497Y-98845584D02*
X180612497Y-93090208D01*
X179777148Y-98845584D02*
X180612497Y-98845584D01*
X179777148Y-103735661D02*
X179777148Y-98845584D01*
X180612497Y-103735661D02*
X179777148Y-103735661D01*
X180612497Y-107605041D02*
X180612497Y-103735661D01*
X180862503Y-107855047D02*
X180754111Y-107830391D01*
X180754111Y-107830391D02*
X180669583Y-107764062D01*
X180669583Y-107764062D02*
X180620367Y-107667517D01*
X180620367Y-107667517D02*
X180612497Y-107605041D01*
X187687453Y-107855047D02*
X180862503Y-107855047D01*
X187937438Y-107605041D02*
X187912786Y-107713423D01*
X187912786Y-107713423D02*
X187846466Y-107797953D01*
X187846466Y-107797953D02*
X187749927Y-107847175D01*
X187749927Y-107847175D02*
X187687453Y-107855047D01*
X187937438Y-103735661D02*
X187937438Y-107605041D01*
X188772809Y-103735661D02*
X187937438Y-103735661D01*
X169800022Y-37019987D02*
X169800000Y-50920000D01*
X155900031Y-37019987D02*
X169800022Y-37019987D01*
X155900009Y-50919978D02*
X155900031Y-37019987D01*
X207900000Y-69970000D02*
X193999987Y-69969978D01*
X207900000Y-75119987D02*
X207900000Y-89020000D01*
X194000009Y-75119987D02*
X207900000Y-75119987D01*
X193999987Y-89019978D02*
X194000009Y-75119987D01*
X207900000Y-89020000D02*
X193999987Y-89019978D01*
X188850022Y-37019987D02*
X188850000Y-50920000D01*
X174950009Y-37019987D02*
X188850022Y-37019987D01*
X174950009Y-50919978D02*
X174950009Y-37019987D01*
X188850000Y-50920000D02*
X174950009Y-50919978D01*
X188850022Y-56069987D02*
X188850000Y-69970000D01*
X174950009Y-56069987D02*
X188850022Y-56069987D01*
X174950009Y-69969978D02*
X174950009Y-56069987D01*
X188850000Y-69970000D02*
X174950009Y-69969978D01*
X188850022Y-75119987D02*
X188850000Y-89020000D01*
X174950009Y-75119987D02*
X188850022Y-75119987D01*
X174950009Y-89019978D02*
X174950009Y-75119987D01*
X188850000Y-89020000D02*
X174950009Y-89019978D01*
X188772809Y-98845584D02*
X188772809Y-103735661D01*
X187937438Y-98845584D02*
X188772809Y-98845584D01*
X207900000Y-56069987D02*
X207900000Y-69970000D01*
X194000009Y-56069987D02*
X207900000Y-56069987D01*
X193999987Y-69969978D02*
X194000009Y-56069987D01*
X213049987Y-75119987D02*
X226950000Y-75119987D01*
X213049987Y-89019978D02*
X213049987Y-75119987D01*
X226949979Y-89020000D02*
X213049987Y-89019978D01*
X226950000Y-94169987D02*
X226949979Y-108070000D01*
X226950000Y-37019987D02*
X226949979Y-50920000D01*
X213049987Y-37019987D02*
X226950000Y-37019987D01*
X213049987Y-50919978D02*
X213049987Y-37019987D01*
X226949979Y-50920000D02*
X213049987Y-50919978D01*
X226950000Y-56069987D02*
X226949979Y-69970000D01*
X213049987Y-56069987D02*
X226950000Y-56069987D01*
X213049987Y-69969978D02*
X213049987Y-56069987D01*
X226949979Y-69970000D02*
X213049987Y-69969978D01*
X226950000Y-75119987D02*
X226949979Y-89020000D01*
X213049987Y-94169987D02*
X226950000Y-94169987D01*
X213049987Y-108069978D02*
X213049987Y-94169987D01*
X226949979Y-108070000D02*
X213049987Y-108069978D01*
X207900000Y-37019987D02*
X207900000Y-50920000D01*
X194000009Y-37019987D02*
X207900000Y-37019987D01*
X193999987Y-50919978D02*
X194000009Y-37019987D01*
X207900000Y-50920000D02*
X193999987Y-50919978D01*
M02*
