G04 #@! TF.GenerationSoftware,KiCad,Pcbnew,(5.1.6-0-10_14)*
G04 #@! TF.CreationDate,2020-08-01T13:26:42+09:00*
G04 #@! TF.ProjectId,reviung33-top-plate,72657669-756e-4673-9333-2d746f702d70,rev0.3*
G04 #@! TF.SameCoordinates,Original*
G04 #@! TF.FileFunction,Copper,L2,Bot*
G04 #@! TF.FilePolarity,Positive*
%FSLAX46Y46*%
G04 Gerber Fmt 4.6, Leading zero omitted, Abs format (unit mm)*
G04 Created by KiCad (PCBNEW (5.1.6-0-10_14)) date 2020-08-01 13:26:42*
%MOMM*%
%LPD*%
G01*
G04 APERTURE LIST*
G04 #@! TA.AperFunction,NonConductor*
%ADD10C,0.254000*%
G04 #@! TD*
G04 APERTURE END LIST*
D10*
G36*
X232652756Y-28975392D02*
G01*
X232778532Y-28984956D01*
X232902307Y-29000684D01*
X233023989Y-29022415D01*
X233143433Y-29049983D01*
X233260605Y-29083257D01*
X233375314Y-29122070D01*
X233487443Y-29166282D01*
X233596843Y-29215742D01*
X233703395Y-29270315D01*
X233806922Y-29329842D01*
X233907256Y-29394167D01*
X234004269Y-29463154D01*
X234097764Y-29536627D01*
X234187593Y-29614440D01*
X234273596Y-29696436D01*
X234355563Y-29782410D01*
X234433379Y-29872244D01*
X234506862Y-29965753D01*
X234575843Y-30062758D01*
X234640184Y-30163124D01*
X234699693Y-30266619D01*
X234754274Y-30373190D01*
X234803727Y-30482577D01*
X234847944Y-30594721D01*
X234886752Y-30709418D01*
X234920018Y-30826563D01*
X234947595Y-30946047D01*
X234969325Y-31067729D01*
X234985052Y-31191495D01*
X234994616Y-31317273D01*
X234998015Y-31451683D01*
X234998015Y-113638325D01*
X234994616Y-113772734D01*
X234985052Y-113898512D01*
X234969325Y-114022278D01*
X234947593Y-114143970D01*
X234920022Y-114263427D01*
X234886752Y-114380587D01*
X234847940Y-114495294D01*
X234803735Y-114607407D01*
X234754271Y-114716819D01*
X234699693Y-114823382D01*
X234640185Y-114926877D01*
X234575843Y-115027241D01*
X234506858Y-115124251D01*
X234433379Y-115217755D01*
X234355567Y-115307584D01*
X234273589Y-115393567D01*
X234187596Y-115475554D01*
X234097757Y-115553374D01*
X234004265Y-115626842D01*
X233907264Y-115695820D01*
X233806913Y-115760154D01*
X233703396Y-115819676D01*
X233596849Y-115874245D01*
X233487435Y-115923711D01*
X233375310Y-115967921D01*
X233260607Y-116006731D01*
X233143432Y-116040004D01*
X233023996Y-116067570D01*
X232902300Y-116089303D01*
X232778532Y-116105030D01*
X232652756Y-116114594D01*
X232518346Y-116117993D01*
X36031705Y-116117993D01*
X35897295Y-116114594D01*
X35771517Y-116105030D01*
X35647751Y-116089303D01*
X35526059Y-116067571D01*
X35406602Y-116040000D01*
X35289442Y-116006730D01*
X35174735Y-115967918D01*
X35062622Y-115923713D01*
X34953210Y-115874249D01*
X34846666Y-115819681D01*
X34743131Y-115760150D01*
X34642791Y-115695823D01*
X34545773Y-115626833D01*
X34452281Y-115553363D01*
X34362435Y-115475535D01*
X34276462Y-115393567D01*
X34194486Y-115307585D01*
X34116656Y-115217735D01*
X34043188Y-115124243D01*
X33974201Y-115027230D01*
X33909880Y-114926900D01*
X33850349Y-114823363D01*
X33795785Y-114716827D01*
X33746319Y-114607413D01*
X33702111Y-114495292D01*
X33663294Y-114380573D01*
X33630031Y-114263432D01*
X33602460Y-114143974D01*
X33580727Y-114022278D01*
X33565000Y-113898510D01*
X33555436Y-113772734D01*
X33552038Y-113638330D01*
X33552038Y-112834679D01*
X35113000Y-112834679D01*
X35113000Y-113145321D01*
X35173604Y-113449994D01*
X35292481Y-113736989D01*
X35465064Y-113995279D01*
X35684721Y-114214936D01*
X35943011Y-114387519D01*
X36230006Y-114506396D01*
X36534679Y-114567000D01*
X36845321Y-114567000D01*
X37149994Y-114506396D01*
X37436989Y-114387519D01*
X37695279Y-114214936D01*
X37914936Y-113995279D01*
X38087519Y-113736989D01*
X38206396Y-113449994D01*
X38267000Y-113145321D01*
X38267000Y-113074679D01*
X94603000Y-113074679D01*
X94603000Y-113385321D01*
X94663604Y-113689994D01*
X94782481Y-113976989D01*
X94955064Y-114235279D01*
X95174721Y-114454936D01*
X95433011Y-114627519D01*
X95720006Y-114746396D01*
X96024679Y-114807000D01*
X96335321Y-114807000D01*
X96639994Y-114746396D01*
X96926989Y-114627519D01*
X97185279Y-114454936D01*
X97404936Y-114235279D01*
X97577519Y-113976989D01*
X97696396Y-113689994D01*
X97757000Y-113385321D01*
X97757000Y-113074679D01*
X97741087Y-112994679D01*
X170803000Y-112994679D01*
X170803000Y-113305321D01*
X170863604Y-113609994D01*
X170982481Y-113896989D01*
X171155064Y-114155279D01*
X171374721Y-114374936D01*
X171633011Y-114547519D01*
X171920006Y-114666396D01*
X172224679Y-114727000D01*
X172535321Y-114727000D01*
X172839994Y-114666396D01*
X173126989Y-114547519D01*
X173385279Y-114374936D01*
X173604936Y-114155279D01*
X173777519Y-113896989D01*
X173896396Y-113609994D01*
X173957000Y-113305321D01*
X173957000Y-112994679D01*
X173925174Y-112834679D01*
X230283000Y-112834679D01*
X230283000Y-113145321D01*
X230343604Y-113449994D01*
X230462481Y-113736989D01*
X230635064Y-113995279D01*
X230854721Y-114214936D01*
X231113011Y-114387519D01*
X231400006Y-114506396D01*
X231704679Y-114567000D01*
X232015321Y-114567000D01*
X232319994Y-114506396D01*
X232606989Y-114387519D01*
X232865279Y-114214936D01*
X233084936Y-113995279D01*
X233257519Y-113736989D01*
X233376396Y-113449994D01*
X233437000Y-113145321D01*
X233437000Y-112834679D01*
X233376396Y-112530006D01*
X233257519Y-112243011D01*
X233084936Y-111984721D01*
X232865279Y-111765064D01*
X232606989Y-111592481D01*
X232319994Y-111473604D01*
X232015321Y-111413000D01*
X231704679Y-111413000D01*
X231400006Y-111473604D01*
X231113011Y-111592481D01*
X230854721Y-111765064D01*
X230635064Y-111984721D01*
X230462481Y-112243011D01*
X230343604Y-112530006D01*
X230283000Y-112834679D01*
X173925174Y-112834679D01*
X173896396Y-112690006D01*
X173777519Y-112403011D01*
X173604936Y-112144721D01*
X173385279Y-111925064D01*
X173126989Y-111752481D01*
X172839994Y-111633604D01*
X172535321Y-111573000D01*
X172224679Y-111573000D01*
X171920006Y-111633604D01*
X171633011Y-111752481D01*
X171374721Y-111925064D01*
X171155064Y-112144721D01*
X170982481Y-112403011D01*
X170863604Y-112690006D01*
X170803000Y-112994679D01*
X97741087Y-112994679D01*
X97696396Y-112770006D01*
X97577519Y-112483011D01*
X97404936Y-112224721D01*
X97185279Y-112005064D01*
X96926989Y-111832481D01*
X96639994Y-111713604D01*
X96335321Y-111653000D01*
X96024679Y-111653000D01*
X95720006Y-111713604D01*
X95433011Y-111832481D01*
X95174721Y-112005064D01*
X94955064Y-112224721D01*
X94782481Y-112483011D01*
X94663604Y-112770006D01*
X94603000Y-113074679D01*
X38267000Y-113074679D01*
X38267000Y-112834679D01*
X38206396Y-112530006D01*
X38087519Y-112243011D01*
X37914936Y-111984721D01*
X37695279Y-111765064D01*
X37436989Y-111592481D01*
X37149994Y-111473604D01*
X36845321Y-111413000D01*
X36534679Y-111413000D01*
X36230006Y-111473604D01*
X35943011Y-111592481D01*
X35684721Y-111765064D01*
X35465064Y-111984721D01*
X35292481Y-112243011D01*
X35173604Y-112530006D01*
X35113000Y-112834679D01*
X33552038Y-112834679D01*
X33552038Y-108069978D01*
X41070504Y-108069978D01*
X41073052Y-108095851D01*
X41073052Y-108095858D01*
X41080678Y-108173287D01*
X41110813Y-108272627D01*
X41159748Y-108364179D01*
X41225604Y-108444425D01*
X41305850Y-108510281D01*
X41397402Y-108559216D01*
X41496742Y-108589351D01*
X41600052Y-108599526D01*
X41625934Y-108596977D01*
X55474171Y-108597000D01*
X55500043Y-108599548D01*
X55525916Y-108597000D01*
X55525923Y-108597000D01*
X55603352Y-108589374D01*
X55702692Y-108559239D01*
X55794244Y-108510304D01*
X55874490Y-108444448D01*
X55940346Y-108364202D01*
X55989281Y-108272650D01*
X56019416Y-108173310D01*
X56029591Y-108070000D01*
X56027042Y-108044118D01*
X56027057Y-98845584D01*
X79233341Y-98845584D01*
X79233341Y-103735661D01*
X79238182Y-103785036D01*
X79242676Y-103834411D01*
X79243198Y-103836183D01*
X79243378Y-103838023D01*
X79257715Y-103885509D01*
X79271715Y-103933079D01*
X79272571Y-103934717D01*
X79273105Y-103936485D01*
X79296358Y-103980217D01*
X79319366Y-104024227D01*
X79320527Y-104025671D01*
X79321392Y-104027298D01*
X79352690Y-104065673D01*
X79383814Y-104104384D01*
X79385230Y-104105572D01*
X79386397Y-104107003D01*
X79424593Y-104138601D01*
X79462603Y-104170496D01*
X79464222Y-104171386D01*
X79465646Y-104172564D01*
X79509319Y-104196178D01*
X79552734Y-104220045D01*
X79554492Y-104220603D01*
X79556120Y-104221483D01*
X79603524Y-104236157D01*
X79650772Y-104251145D01*
X79652609Y-104251351D01*
X79654373Y-104251897D01*
X79703635Y-104257075D01*
X79752983Y-104262610D01*
X79756535Y-104262635D01*
X79756662Y-104262648D01*
X79756790Y-104262636D01*
X79760341Y-104262661D01*
X80068712Y-104262661D01*
X80068712Y-107605041D01*
X80071576Y-107634246D01*
X80071975Y-107663599D01*
X80072844Y-107670906D01*
X80080714Y-107733382D01*
X80088678Y-107768492D01*
X80094564Y-107804007D01*
X80100031Y-107818545D01*
X80103466Y-107833687D01*
X80118093Y-107866572D01*
X80130768Y-107900276D01*
X80134065Y-107906854D01*
X80183279Y-108003399D01*
X80187423Y-108009876D01*
X80190438Y-108016953D01*
X80215119Y-108053166D01*
X80238709Y-108090038D01*
X80244028Y-108095583D01*
X80248363Y-108101943D01*
X80279603Y-108132667D01*
X80309910Y-108164260D01*
X80316210Y-108168670D01*
X80321693Y-108174062D01*
X80327450Y-108178645D01*
X80411972Y-108244974D01*
X80420172Y-108250202D01*
X80427433Y-108256653D01*
X80463450Y-108277799D01*
X80498695Y-108300272D01*
X80507750Y-108303806D01*
X80516129Y-108308726D01*
X80555582Y-108322478D01*
X80594506Y-108337672D01*
X80604072Y-108339380D01*
X80613250Y-108342579D01*
X80620414Y-108344261D01*
X80728792Y-108368917D01*
X80732534Y-108369391D01*
X80736128Y-108370531D01*
X80783547Y-108375850D01*
X80830831Y-108381837D01*
X80834589Y-108381575D01*
X80838339Y-108381996D01*
X80845697Y-108382047D01*
X87670647Y-108382047D01*
X87699856Y-108379183D01*
X87729214Y-108378783D01*
X87736521Y-108377914D01*
X87799004Y-108370042D01*
X87834116Y-108362077D01*
X87869649Y-108356186D01*
X87884181Y-108350720D01*
X87899309Y-108347288D01*
X87932204Y-108332656D01*
X87965916Y-108319975D01*
X87972494Y-108316679D01*
X88069041Y-108267457D01*
X88075527Y-108263307D01*
X88082606Y-108260290D01*
X88118794Y-108235622D01*
X88155676Y-108212022D01*
X88161228Y-108206696D01*
X88167591Y-108202358D01*
X88198304Y-108171124D01*
X88229894Y-108140817D01*
X88234306Y-108134512D01*
X88239705Y-108129022D01*
X88244287Y-108123265D01*
X88286097Y-108069978D01*
X126795461Y-108069978D01*
X126798009Y-108095851D01*
X126798009Y-108095858D01*
X126805635Y-108173287D01*
X126835770Y-108272627D01*
X126884705Y-108364179D01*
X126950561Y-108444425D01*
X127030807Y-108510281D01*
X127122359Y-108559216D01*
X127221699Y-108589351D01*
X127325009Y-108599526D01*
X127350891Y-108596977D01*
X141199128Y-108597000D01*
X141225000Y-108599548D01*
X141250873Y-108597000D01*
X141250880Y-108597000D01*
X141328309Y-108589374D01*
X141427649Y-108559239D01*
X141519201Y-108510304D01*
X141599447Y-108444448D01*
X141665303Y-108364202D01*
X141714238Y-108272650D01*
X141744373Y-108173310D01*
X141754548Y-108070000D01*
X141751999Y-108044118D01*
X141752014Y-98845584D01*
X179250148Y-98845584D01*
X179250148Y-103735661D01*
X179254989Y-103785036D01*
X179259483Y-103834411D01*
X179260005Y-103836183D01*
X179260185Y-103838023D01*
X179274522Y-103885509D01*
X179288522Y-103933079D01*
X179289378Y-103934717D01*
X179289912Y-103936485D01*
X179313165Y-103980217D01*
X179336173Y-104024227D01*
X179337334Y-104025671D01*
X179338199Y-104027298D01*
X179369497Y-104065673D01*
X179400621Y-104104384D01*
X179402037Y-104105572D01*
X179403204Y-104107003D01*
X179441400Y-104138601D01*
X179479410Y-104170496D01*
X179481029Y-104171386D01*
X179482453Y-104172564D01*
X179526126Y-104196178D01*
X179569541Y-104220045D01*
X179571299Y-104220603D01*
X179572927Y-104221483D01*
X179620331Y-104236157D01*
X179667579Y-104251145D01*
X179669416Y-104251351D01*
X179671180Y-104251897D01*
X179720442Y-104257075D01*
X179769790Y-104262610D01*
X179773342Y-104262635D01*
X179773469Y-104262648D01*
X179773597Y-104262636D01*
X179777148Y-104262661D01*
X180085497Y-104262661D01*
X180085497Y-107605041D01*
X180088361Y-107634246D01*
X180088760Y-107663599D01*
X180089629Y-107670906D01*
X180097499Y-107733382D01*
X180105464Y-107768496D01*
X180111351Y-107804015D01*
X180116818Y-107818550D01*
X180120251Y-107833687D01*
X180134880Y-107866577D01*
X180147557Y-107900284D01*
X180150854Y-107906862D01*
X180200070Y-108003407D01*
X180204217Y-108009889D01*
X180207234Y-108016969D01*
X180231904Y-108053163D01*
X180255501Y-108090045D01*
X180260826Y-108095596D01*
X180265162Y-108101957D01*
X180296398Y-108132675D01*
X180326703Y-108164265D01*
X180333005Y-108168676D01*
X180338494Y-108174074D01*
X180344251Y-108178656D01*
X180428779Y-108244985D01*
X180436977Y-108250212D01*
X180444237Y-108256661D01*
X180480257Y-108277807D01*
X180515504Y-108300280D01*
X180524557Y-108303813D01*
X180532935Y-108308732D01*
X180572384Y-108322481D01*
X180611316Y-108337677D01*
X180620883Y-108339385D01*
X180630057Y-108342582D01*
X180637220Y-108344264D01*
X180745612Y-108368920D01*
X180749345Y-108369393D01*
X180752934Y-108370531D01*
X180800380Y-108375853D01*
X180847651Y-108381837D01*
X180851400Y-108381576D01*
X180855145Y-108381996D01*
X180862503Y-108382047D01*
X187687453Y-108382047D01*
X187716666Y-108379183D01*
X187746030Y-108378782D01*
X187753336Y-108377913D01*
X187815810Y-108370041D01*
X187850937Y-108362072D01*
X187886463Y-108356181D01*
X187900988Y-108350717D01*
X187916115Y-108347285D01*
X187949015Y-108332650D01*
X187982729Y-108319967D01*
X187989307Y-108316671D01*
X188085846Y-108267449D01*
X188092331Y-108263299D01*
X188099408Y-108260283D01*
X188135595Y-108235614D01*
X188172479Y-108212011D01*
X188178030Y-108206685D01*
X188184392Y-108202348D01*
X188215101Y-108171117D01*
X188246695Y-108140803D01*
X188251108Y-108134497D01*
X188256503Y-108129010D01*
X188261085Y-108123252D01*
X188327405Y-108038723D01*
X188332620Y-108030542D01*
X188339061Y-108023291D01*
X188360222Y-107987244D01*
X188382693Y-107951994D01*
X188386220Y-107942957D01*
X188391130Y-107934592D01*
X188404885Y-107895125D01*
X188420083Y-107856179D01*
X188421787Y-107846629D01*
X188424979Y-107837470D01*
X188426661Y-107830306D01*
X188451313Y-107721925D01*
X188451785Y-107718193D01*
X188452922Y-107714610D01*
X188458239Y-107667204D01*
X188464229Y-107619886D01*
X188463968Y-107616137D01*
X188464387Y-107612399D01*
X188464438Y-107605041D01*
X188464438Y-104262661D01*
X188772809Y-104262661D01*
X188822184Y-104257820D01*
X188871559Y-104253326D01*
X188873331Y-104252804D01*
X188875171Y-104252624D01*
X188922657Y-104238287D01*
X188970227Y-104224287D01*
X188971865Y-104223431D01*
X188973633Y-104222897D01*
X189017365Y-104199644D01*
X189061375Y-104176636D01*
X189062819Y-104175475D01*
X189064446Y-104174610D01*
X189102821Y-104143312D01*
X189141532Y-104112188D01*
X189142720Y-104110772D01*
X189144151Y-104109605D01*
X189175749Y-104071409D01*
X189207644Y-104033399D01*
X189208534Y-104031780D01*
X189209712Y-104030356D01*
X189233326Y-103986683D01*
X189257193Y-103943268D01*
X189257751Y-103941510D01*
X189258631Y-103939882D01*
X189273305Y-103892478D01*
X189288293Y-103845230D01*
X189288499Y-103843393D01*
X189289045Y-103841629D01*
X189294223Y-103792367D01*
X189299758Y-103743019D01*
X189299783Y-103739467D01*
X189299796Y-103739340D01*
X189299784Y-103739212D01*
X189299809Y-103735661D01*
X189299809Y-98845584D01*
X189294968Y-98796209D01*
X189290474Y-98746834D01*
X189289952Y-98745062D01*
X189289772Y-98743222D01*
X189275435Y-98695736D01*
X189261435Y-98648166D01*
X189260579Y-98646528D01*
X189260045Y-98644760D01*
X189236792Y-98601028D01*
X189213784Y-98557018D01*
X189212623Y-98555574D01*
X189211758Y-98553947D01*
X189180460Y-98515572D01*
X189149336Y-98476861D01*
X189147920Y-98475673D01*
X189146753Y-98474242D01*
X189108557Y-98442644D01*
X189070547Y-98410749D01*
X189068928Y-98409859D01*
X189067504Y-98408681D01*
X189023831Y-98385067D01*
X188980416Y-98361200D01*
X188978658Y-98360642D01*
X188977030Y-98359762D01*
X188929626Y-98345088D01*
X188882378Y-98330100D01*
X188880541Y-98329894D01*
X188878777Y-98329348D01*
X188829515Y-98324170D01*
X188780167Y-98318635D01*
X188776615Y-98318610D01*
X188776488Y-98318597D01*
X188776360Y-98318609D01*
X188772809Y-98318584D01*
X188464438Y-98318584D01*
X188464438Y-94169987D01*
X212520438Y-94169987D01*
X212522988Y-94195878D01*
X212522987Y-108044107D01*
X212520439Y-108069978D01*
X212522987Y-108095851D01*
X212522987Y-108095858D01*
X212530613Y-108173287D01*
X212560748Y-108272627D01*
X212609683Y-108364180D01*
X212675539Y-108444426D01*
X212755785Y-108510282D01*
X212847337Y-108559217D01*
X212946677Y-108589352D01*
X213049987Y-108599527D01*
X213075877Y-108596977D01*
X226924107Y-108597000D01*
X226949979Y-108599548D01*
X226975852Y-108597000D01*
X226975859Y-108597000D01*
X227053288Y-108589374D01*
X227152628Y-108559239D01*
X227244180Y-108510304D01*
X227324426Y-108444448D01*
X227390282Y-108364202D01*
X227439217Y-108272650D01*
X227469352Y-108173310D01*
X227479527Y-108070000D01*
X227476978Y-108044118D01*
X227477000Y-94195869D01*
X227479549Y-94169987D01*
X227469374Y-94066677D01*
X227439239Y-93967337D01*
X227390304Y-93875785D01*
X227324448Y-93795539D01*
X227244202Y-93729683D01*
X227152650Y-93680748D01*
X227053310Y-93650613D01*
X226975881Y-93642987D01*
X226975871Y-93642987D01*
X226950000Y-93640439D01*
X226924127Y-93642987D01*
X213075868Y-93642987D01*
X213049987Y-93640438D01*
X213024106Y-93642987D01*
X212946677Y-93650613D01*
X212847337Y-93680748D01*
X212755785Y-93729683D01*
X212675539Y-93795539D01*
X212609683Y-93875785D01*
X212560748Y-93967337D01*
X212530613Y-94066677D01*
X212520438Y-94169987D01*
X188464438Y-94169987D01*
X188464438Y-93090208D01*
X188462852Y-93074034D01*
X188463440Y-93057792D01*
X188462936Y-93050451D01*
X188457175Y-92974304D01*
X188448723Y-92926008D01*
X188440716Y-92877649D01*
X188439466Y-92873111D01*
X188439445Y-92872991D01*
X188439403Y-92872883D01*
X188438762Y-92870555D01*
X188405232Y-92752075D01*
X188401750Y-92743192D01*
X188399724Y-92733874D01*
X188383010Y-92695377D01*
X188367700Y-92656315D01*
X188362564Y-92648284D01*
X188358763Y-92639530D01*
X188355143Y-92633124D01*
X188295106Y-92528586D01*
X188290393Y-92521971D01*
X188286828Y-92514671D01*
X188260583Y-92480132D01*
X188235424Y-92444820D01*
X188229517Y-92439247D01*
X188224601Y-92432778D01*
X188219561Y-92427417D01*
X188136942Y-92340748D01*
X188130902Y-92335540D01*
X188125800Y-92329407D01*
X188091992Y-92301989D01*
X188059048Y-92273582D01*
X188052113Y-92269647D01*
X188045917Y-92264622D01*
X188039749Y-92260610D01*
X187938474Y-92195738D01*
X187930288Y-92191560D01*
X187922868Y-92186119D01*
X187884525Y-92168200D01*
X187846866Y-92148977D01*
X187838022Y-92146467D01*
X187829689Y-92142573D01*
X187822734Y-92140171D01*
X187706732Y-92101022D01*
X187702716Y-92100091D01*
X187698934Y-92098458D01*
X187652651Y-92088488D01*
X187606535Y-92077800D01*
X187602418Y-92077667D01*
X187598388Y-92076799D01*
X187591072Y-92076010D01*
X187490304Y-92065852D01*
X187467484Y-92065790D01*
X187444805Y-92063246D01*
X187437447Y-92063195D01*
X181112488Y-92063195D01*
X181096313Y-92064781D01*
X181080069Y-92064193D01*
X181072728Y-92064697D01*
X180996587Y-92070458D01*
X180948312Y-92078907D01*
X180899915Y-92086922D01*
X180895393Y-92088168D01*
X180895274Y-92088189D01*
X180895166Y-92088231D01*
X180892821Y-92088877D01*
X180774349Y-92122410D01*
X180765472Y-92125890D01*
X180756142Y-92127919D01*
X180717632Y-92144641D01*
X180678589Y-92159945D01*
X180670555Y-92165084D01*
X180661801Y-92168885D01*
X180655395Y-92172506D01*
X180550862Y-92232547D01*
X180544250Y-92237259D01*
X180536950Y-92240824D01*
X180502407Y-92267074D01*
X180467099Y-92292233D01*
X180461528Y-92298139D01*
X180455060Y-92303054D01*
X180449699Y-92308094D01*
X180363032Y-92390718D01*
X180357826Y-92396756D01*
X180351696Y-92401856D01*
X180324283Y-92435660D01*
X180295869Y-92468615D01*
X180291935Y-92475550D01*
X180286913Y-92481742D01*
X180282901Y-92487910D01*
X180218030Y-92589189D01*
X180213852Y-92597375D01*
X180208416Y-92604789D01*
X180190497Y-92643133D01*
X180171272Y-92680799D01*
X180168764Y-92689637D01*
X180164871Y-92697968D01*
X180162470Y-92704923D01*
X180123322Y-92820929D01*
X180122393Y-92824939D01*
X180120760Y-92828720D01*
X180110788Y-92875013D01*
X180100101Y-92921126D01*
X180099968Y-92925240D01*
X180099101Y-92929266D01*
X180098312Y-92936582D01*
X180088154Y-93037352D01*
X180088092Y-93060171D01*
X180085548Y-93082850D01*
X180085497Y-93090208D01*
X180085497Y-98318584D01*
X179777148Y-98318584D01*
X179727773Y-98323425D01*
X179678398Y-98327919D01*
X179676626Y-98328441D01*
X179674786Y-98328621D01*
X179627300Y-98342958D01*
X179579730Y-98356958D01*
X179578092Y-98357814D01*
X179576324Y-98358348D01*
X179532592Y-98381601D01*
X179488582Y-98404609D01*
X179487138Y-98405770D01*
X179485511Y-98406635D01*
X179447136Y-98437933D01*
X179408425Y-98469057D01*
X179407237Y-98470473D01*
X179405806Y-98471640D01*
X179374208Y-98509836D01*
X179342313Y-98547846D01*
X179341423Y-98549465D01*
X179340245Y-98550889D01*
X179316631Y-98594562D01*
X179292764Y-98637977D01*
X179292206Y-98639735D01*
X179291326Y-98641363D01*
X179276652Y-98688767D01*
X179261664Y-98736015D01*
X179261458Y-98737852D01*
X179260912Y-98739616D01*
X179255734Y-98788878D01*
X179250199Y-98838226D01*
X179250174Y-98841778D01*
X179250161Y-98841905D01*
X179250173Y-98842033D01*
X179250148Y-98845584D01*
X141752014Y-98845584D01*
X141752022Y-94195869D01*
X141754571Y-94169987D01*
X141744396Y-94066677D01*
X141714261Y-93967337D01*
X141665326Y-93875785D01*
X141599470Y-93795539D01*
X141519224Y-93729683D01*
X141427672Y-93680748D01*
X141328332Y-93650613D01*
X141250903Y-93642987D01*
X141250893Y-93642987D01*
X141225022Y-93640439D01*
X141199149Y-93642987D01*
X127350902Y-93642987D01*
X127325031Y-93640439D01*
X127299158Y-93642987D01*
X127299150Y-93642987D01*
X127221721Y-93650613D01*
X127122381Y-93680748D01*
X127030829Y-93729683D01*
X126950583Y-93795539D01*
X126884727Y-93875785D01*
X126835792Y-93967337D01*
X126805657Y-94066677D01*
X126795482Y-94169987D01*
X126798032Y-94195877D01*
X126798009Y-108044106D01*
X126795461Y-108069978D01*
X88286097Y-108069978D01*
X88310611Y-108038735D01*
X88315831Y-108030546D01*
X88322276Y-108023291D01*
X88343437Y-107987244D01*
X88365901Y-107952007D01*
X88369430Y-107942965D01*
X88374345Y-107934592D01*
X88388099Y-107895127D01*
X88403294Y-107856193D01*
X88405000Y-107846636D01*
X88408194Y-107837470D01*
X88409876Y-107830306D01*
X88434528Y-107721925D01*
X88435000Y-107718193D01*
X88436137Y-107714610D01*
X88441454Y-107667204D01*
X88447444Y-107619886D01*
X88447183Y-107616137D01*
X88447602Y-107612399D01*
X88447653Y-107605041D01*
X88447653Y-104262661D01*
X88756002Y-104262661D01*
X88805377Y-104257820D01*
X88854752Y-104253326D01*
X88856524Y-104252804D01*
X88858364Y-104252624D01*
X88905850Y-104238287D01*
X88953420Y-104224287D01*
X88955058Y-104223431D01*
X88956826Y-104222897D01*
X89000558Y-104199644D01*
X89044568Y-104176636D01*
X89046012Y-104175475D01*
X89047639Y-104174610D01*
X89086014Y-104143312D01*
X89124725Y-104112188D01*
X89125913Y-104110772D01*
X89127344Y-104109605D01*
X89158942Y-104071409D01*
X89190837Y-104033399D01*
X89191727Y-104031780D01*
X89192905Y-104030356D01*
X89216519Y-103986683D01*
X89240386Y-103943268D01*
X89240944Y-103941510D01*
X89241824Y-103939882D01*
X89256498Y-103892478D01*
X89271486Y-103845230D01*
X89271692Y-103843393D01*
X89272238Y-103841629D01*
X89277416Y-103792367D01*
X89282951Y-103743019D01*
X89282976Y-103739467D01*
X89282989Y-103739340D01*
X89282977Y-103739212D01*
X89283002Y-103735661D01*
X89283002Y-98845584D01*
X89278161Y-98796209D01*
X89273667Y-98746834D01*
X89273145Y-98745062D01*
X89272965Y-98743222D01*
X89258628Y-98695736D01*
X89244628Y-98648166D01*
X89243772Y-98646528D01*
X89243238Y-98644760D01*
X89219985Y-98601028D01*
X89196977Y-98557018D01*
X89195816Y-98555574D01*
X89194951Y-98553947D01*
X89163653Y-98515572D01*
X89132529Y-98476861D01*
X89131113Y-98475673D01*
X89129946Y-98474242D01*
X89091750Y-98442644D01*
X89053740Y-98410749D01*
X89052121Y-98409859D01*
X89050697Y-98408681D01*
X89007024Y-98385067D01*
X88963609Y-98361200D01*
X88961851Y-98360642D01*
X88960223Y-98359762D01*
X88912819Y-98345088D01*
X88865571Y-98330100D01*
X88863734Y-98329894D01*
X88861970Y-98329348D01*
X88812708Y-98324170D01*
X88763360Y-98318635D01*
X88759808Y-98318610D01*
X88759681Y-98318597D01*
X88759553Y-98318609D01*
X88756002Y-98318584D01*
X88447653Y-98318584D01*
X88447653Y-93090208D01*
X88446067Y-93074033D01*
X88446655Y-93057785D01*
X88446151Y-93050444D01*
X88440389Y-92974297D01*
X88431936Y-92926000D01*
X88423928Y-92877641D01*
X88422678Y-92873103D01*
X88422657Y-92872984D01*
X88422615Y-92872877D01*
X88421974Y-92870548D01*
X88388442Y-92752067D01*
X88384960Y-92743183D01*
X88382932Y-92733859D01*
X88366219Y-92695368D01*
X88350909Y-92656307D01*
X88345769Y-92648270D01*
X88341968Y-92639517D01*
X88338347Y-92633111D01*
X88278307Y-92528573D01*
X88273594Y-92521959D01*
X88270032Y-92514665D01*
X88243783Y-92480120D01*
X88218622Y-92444809D01*
X88212721Y-92439242D01*
X88207805Y-92432773D01*
X88202765Y-92427412D01*
X88120144Y-92340743D01*
X88114104Y-92335535D01*
X88109005Y-92329406D01*
X88075202Y-92301992D01*
X88042249Y-92273578D01*
X88035317Y-92269645D01*
X88029121Y-92264620D01*
X88022953Y-92260609D01*
X87921677Y-92195736D01*
X87913490Y-92191557D01*
X87906076Y-92186121D01*
X87867739Y-92168204D01*
X87830069Y-92148976D01*
X87821229Y-92146468D01*
X87812898Y-92142574D01*
X87805943Y-92140173D01*
X87689944Y-92101024D01*
X87685931Y-92100094D01*
X87682145Y-92098459D01*
X87635848Y-92088486D01*
X87589747Y-92077801D01*
X87585629Y-92077668D01*
X87581599Y-92076800D01*
X87574284Y-92076011D01*
X87473522Y-92065853D01*
X87450706Y-92065791D01*
X87428020Y-92063246D01*
X87420662Y-92063195D01*
X81095703Y-92063195D01*
X81079528Y-92064781D01*
X81063286Y-92064193D01*
X81055946Y-92064697D01*
X80979799Y-92070458D01*
X80931527Y-92078906D01*
X80883130Y-92086921D01*
X80878597Y-92088170D01*
X80878486Y-92088189D01*
X80878385Y-92088228D01*
X80876036Y-92088875D01*
X80757559Y-92122408D01*
X80748673Y-92125891D01*
X80739350Y-92127919D01*
X80700853Y-92144635D01*
X80661800Y-92159943D01*
X80653766Y-92165081D01*
X80645009Y-92168884D01*
X80638603Y-92172505D01*
X80534069Y-92232546D01*
X80527452Y-92237261D01*
X80520147Y-92240829D01*
X80485604Y-92267080D01*
X80450305Y-92292232D01*
X80444731Y-92298141D01*
X80438258Y-92303060D01*
X80432897Y-92308100D01*
X80346233Y-92390724D01*
X80341021Y-92396769D01*
X80334894Y-92401867D01*
X80307495Y-92435655D01*
X80279072Y-92468622D01*
X80275136Y-92475560D01*
X80270113Y-92481754D01*
X80266101Y-92487922D01*
X80201234Y-92589201D01*
X80197057Y-92597386D01*
X80191624Y-92604796D01*
X80173705Y-92643140D01*
X80154479Y-92680812D01*
X80151973Y-92689646D01*
X80148080Y-92697976D01*
X80145679Y-92704932D01*
X80106533Y-92820937D01*
X80105604Y-92824945D01*
X80103972Y-92828725D01*
X80093996Y-92875037D01*
X80083314Y-92921134D01*
X80083181Y-92925244D01*
X80082314Y-92929271D01*
X80081526Y-92936587D01*
X80071369Y-93037357D01*
X80071307Y-93060169D01*
X80068763Y-93082850D01*
X80068712Y-93090208D01*
X80068712Y-98318584D01*
X79760341Y-98318584D01*
X79710966Y-98323425D01*
X79661591Y-98327919D01*
X79659819Y-98328441D01*
X79657979Y-98328621D01*
X79610493Y-98342958D01*
X79562923Y-98356958D01*
X79561285Y-98357814D01*
X79559517Y-98358348D01*
X79515785Y-98381601D01*
X79471775Y-98404609D01*
X79470331Y-98405770D01*
X79468704Y-98406635D01*
X79430329Y-98437933D01*
X79391618Y-98469057D01*
X79390430Y-98470473D01*
X79388999Y-98471640D01*
X79357401Y-98509836D01*
X79325506Y-98547846D01*
X79324616Y-98549465D01*
X79323438Y-98550889D01*
X79299824Y-98594562D01*
X79275957Y-98637977D01*
X79275399Y-98639735D01*
X79274519Y-98641363D01*
X79259845Y-98688767D01*
X79244857Y-98736015D01*
X79244651Y-98737852D01*
X79244105Y-98739616D01*
X79238927Y-98788878D01*
X79233392Y-98838226D01*
X79233367Y-98841778D01*
X79233354Y-98841905D01*
X79233366Y-98842033D01*
X79233341Y-98845584D01*
X56027057Y-98845584D01*
X56027065Y-94195869D01*
X56029614Y-94169987D01*
X56019439Y-94066677D01*
X55989304Y-93967337D01*
X55940369Y-93875785D01*
X55874513Y-93795539D01*
X55794267Y-93729683D01*
X55702715Y-93680748D01*
X55603375Y-93650613D01*
X55525946Y-93642987D01*
X55525936Y-93642987D01*
X55500065Y-93640439D01*
X55474192Y-93642987D01*
X41625945Y-93642987D01*
X41600074Y-93640439D01*
X41574201Y-93642987D01*
X41574193Y-93642987D01*
X41496764Y-93650613D01*
X41397424Y-93680748D01*
X41305872Y-93729683D01*
X41225626Y-93795539D01*
X41159770Y-93875785D01*
X41110835Y-93967337D01*
X41080700Y-94066677D01*
X41070525Y-94169987D01*
X41073075Y-94195877D01*
X41073052Y-108044106D01*
X41070504Y-108069978D01*
X33552038Y-108069978D01*
X33552038Y-89019978D01*
X41070504Y-89019978D01*
X41073052Y-89045851D01*
X41073052Y-89045858D01*
X41080678Y-89123287D01*
X41110813Y-89222627D01*
X41159748Y-89314179D01*
X41225604Y-89394425D01*
X41305850Y-89460281D01*
X41397402Y-89509216D01*
X41496742Y-89539351D01*
X41600052Y-89549526D01*
X41625934Y-89546977D01*
X55474171Y-89547000D01*
X55500043Y-89549548D01*
X55525916Y-89547000D01*
X55525923Y-89547000D01*
X55603352Y-89539374D01*
X55702692Y-89509239D01*
X55794244Y-89460304D01*
X55874490Y-89394448D01*
X55940346Y-89314202D01*
X55989281Y-89222650D01*
X56019416Y-89123310D01*
X56029591Y-89020000D01*
X56027042Y-88994118D01*
X56027065Y-75145869D01*
X56029614Y-75119987D01*
X60120503Y-75119987D01*
X60123053Y-75145878D01*
X60123052Y-88994107D01*
X60120504Y-89019978D01*
X60123052Y-89045851D01*
X60123052Y-89045858D01*
X60130678Y-89123287D01*
X60160813Y-89222627D01*
X60209748Y-89314180D01*
X60275604Y-89394426D01*
X60355850Y-89460282D01*
X60447402Y-89509217D01*
X60546742Y-89539352D01*
X60650052Y-89549527D01*
X60675942Y-89546977D01*
X74524171Y-89547000D01*
X74550043Y-89549548D01*
X74575916Y-89547000D01*
X74575923Y-89547000D01*
X74653352Y-89539374D01*
X74752692Y-89509239D01*
X74844244Y-89460304D01*
X74924490Y-89394448D01*
X74990346Y-89314202D01*
X75039281Y-89222650D01*
X75069416Y-89123310D01*
X75079591Y-89020000D01*
X75079589Y-89019978D01*
X79170483Y-89019978D01*
X79173031Y-89045851D01*
X79173031Y-89045858D01*
X79180657Y-89123287D01*
X79210792Y-89222627D01*
X79259727Y-89314179D01*
X79325583Y-89394425D01*
X79405829Y-89460281D01*
X79497381Y-89509216D01*
X79596721Y-89539351D01*
X79700031Y-89549526D01*
X79725913Y-89546977D01*
X93574162Y-89547000D01*
X93600043Y-89549549D01*
X93703353Y-89539374D01*
X93802693Y-89509239D01*
X93894245Y-89460304D01*
X93974491Y-89394448D01*
X94040347Y-89314202D01*
X94089282Y-89222650D01*
X94119417Y-89123310D01*
X94127043Y-89045881D01*
X94127043Y-89045871D01*
X94129591Y-89020000D01*
X94129589Y-89019978D01*
X98220483Y-89019978D01*
X98223031Y-89045851D01*
X98223031Y-89045858D01*
X98230657Y-89123287D01*
X98260792Y-89222627D01*
X98309727Y-89314179D01*
X98375583Y-89394425D01*
X98455829Y-89460281D01*
X98547381Y-89509216D01*
X98646721Y-89539351D01*
X98750031Y-89549526D01*
X98775913Y-89546977D01*
X112624150Y-89547000D01*
X112650022Y-89549548D01*
X112675895Y-89547000D01*
X112675902Y-89547000D01*
X112753331Y-89539374D01*
X112852671Y-89509239D01*
X112944223Y-89460304D01*
X113024469Y-89394448D01*
X113090325Y-89314202D01*
X113139260Y-89222650D01*
X113169395Y-89123310D01*
X113179570Y-89020000D01*
X113177021Y-88994118D01*
X113177043Y-75145869D01*
X113179592Y-75119987D01*
X117270482Y-75119987D01*
X117273032Y-75145878D01*
X117273031Y-88994107D01*
X117270483Y-89019978D01*
X117273031Y-89045851D01*
X117273031Y-89045858D01*
X117280657Y-89123287D01*
X117310792Y-89222627D01*
X117359727Y-89314180D01*
X117425583Y-89394426D01*
X117505829Y-89460282D01*
X117597381Y-89509217D01*
X117696721Y-89539352D01*
X117800031Y-89549527D01*
X117825921Y-89546977D01*
X131674150Y-89547000D01*
X131700022Y-89549548D01*
X131725895Y-89547000D01*
X131725902Y-89547000D01*
X131803331Y-89539374D01*
X131902671Y-89509239D01*
X131994223Y-89460304D01*
X132074469Y-89394448D01*
X132140325Y-89314202D01*
X132189260Y-89222650D01*
X132219395Y-89123310D01*
X132229570Y-89020000D01*
X132229568Y-89019978D01*
X136320461Y-89019978D01*
X136323009Y-89045851D01*
X136323009Y-89045858D01*
X136330635Y-89123287D01*
X136360770Y-89222627D01*
X136409705Y-89314179D01*
X136475561Y-89394425D01*
X136555807Y-89460281D01*
X136647359Y-89509216D01*
X136746699Y-89539351D01*
X136850009Y-89549526D01*
X136875891Y-89546977D01*
X150724141Y-89547000D01*
X150750022Y-89549549D01*
X150853332Y-89539374D01*
X150952672Y-89509239D01*
X151044224Y-89460304D01*
X151124470Y-89394448D01*
X151190326Y-89314202D01*
X151239261Y-89222650D01*
X151269396Y-89123310D01*
X151277022Y-89045881D01*
X151277022Y-89045871D01*
X151279570Y-89020000D01*
X151279568Y-89019978D01*
X155370461Y-89019978D01*
X155373009Y-89045851D01*
X155373009Y-89045858D01*
X155380635Y-89123287D01*
X155410770Y-89222627D01*
X155459705Y-89314179D01*
X155525561Y-89394425D01*
X155605807Y-89460281D01*
X155697359Y-89509216D01*
X155796699Y-89539351D01*
X155900009Y-89549526D01*
X155925891Y-89546977D01*
X169774128Y-89547000D01*
X169800000Y-89549548D01*
X169825873Y-89547000D01*
X169825880Y-89547000D01*
X169903309Y-89539374D01*
X170002649Y-89509239D01*
X170094201Y-89460304D01*
X170174447Y-89394448D01*
X170240303Y-89314202D01*
X170289238Y-89222650D01*
X170319373Y-89123310D01*
X170329548Y-89020000D01*
X170326999Y-88994118D01*
X170327022Y-75145869D01*
X170329571Y-75119987D01*
X174420460Y-75119987D01*
X174423010Y-75145878D01*
X174423009Y-88994107D01*
X174420461Y-89019978D01*
X174423009Y-89045851D01*
X174423009Y-89045858D01*
X174430635Y-89123287D01*
X174460770Y-89222627D01*
X174509705Y-89314180D01*
X174575561Y-89394426D01*
X174655807Y-89460282D01*
X174747359Y-89509217D01*
X174846699Y-89539352D01*
X174950009Y-89549527D01*
X174975899Y-89546977D01*
X188824128Y-89547000D01*
X188850000Y-89549548D01*
X188875873Y-89547000D01*
X188875880Y-89547000D01*
X188953309Y-89539374D01*
X189052649Y-89509239D01*
X189144201Y-89460304D01*
X189224447Y-89394448D01*
X189290303Y-89314202D01*
X189339238Y-89222650D01*
X189369373Y-89123310D01*
X189379548Y-89020000D01*
X189379546Y-89019978D01*
X193470439Y-89019978D01*
X193472987Y-89045851D01*
X193472987Y-89045858D01*
X193480613Y-89123287D01*
X193510748Y-89222627D01*
X193559683Y-89314179D01*
X193625539Y-89394425D01*
X193705785Y-89460281D01*
X193797337Y-89509216D01*
X193896677Y-89539351D01*
X193999987Y-89549526D01*
X194025869Y-89546977D01*
X207874119Y-89547000D01*
X207900000Y-89549549D01*
X208003310Y-89539374D01*
X208102650Y-89509239D01*
X208194202Y-89460304D01*
X208274448Y-89394448D01*
X208340304Y-89314202D01*
X208389239Y-89222650D01*
X208419374Y-89123310D01*
X208427000Y-89045881D01*
X208427000Y-89045871D01*
X208429548Y-89020000D01*
X208427000Y-88994127D01*
X208427000Y-75145868D01*
X208429549Y-75119987D01*
X212520438Y-75119987D01*
X212522988Y-75145878D01*
X212522987Y-88994107D01*
X212520439Y-89019978D01*
X212522987Y-89045851D01*
X212522987Y-89045858D01*
X212530613Y-89123287D01*
X212560748Y-89222627D01*
X212609683Y-89314180D01*
X212675539Y-89394426D01*
X212755785Y-89460282D01*
X212847337Y-89509217D01*
X212946677Y-89539352D01*
X213049987Y-89549527D01*
X213075877Y-89546977D01*
X226924107Y-89547000D01*
X226949979Y-89549548D01*
X226975852Y-89547000D01*
X226975859Y-89547000D01*
X227053288Y-89539374D01*
X227152628Y-89509239D01*
X227244180Y-89460304D01*
X227324426Y-89394448D01*
X227390282Y-89314202D01*
X227439217Y-89222650D01*
X227469352Y-89123310D01*
X227479527Y-89020000D01*
X227476978Y-88994118D01*
X227477000Y-75145869D01*
X227479549Y-75119987D01*
X227469374Y-75016677D01*
X227439239Y-74917337D01*
X227390304Y-74825785D01*
X227324448Y-74745539D01*
X227244202Y-74679683D01*
X227152650Y-74630748D01*
X227053310Y-74600613D01*
X226975881Y-74592987D01*
X226975871Y-74592987D01*
X226950000Y-74590439D01*
X226924127Y-74592987D01*
X213075868Y-74592987D01*
X213049987Y-74590438D01*
X213024106Y-74592987D01*
X212946677Y-74600613D01*
X212847337Y-74630748D01*
X212755785Y-74679683D01*
X212675539Y-74745539D01*
X212609683Y-74825785D01*
X212560748Y-74917337D01*
X212530613Y-75016677D01*
X212520438Y-75119987D01*
X208429549Y-75119987D01*
X208419374Y-75016677D01*
X208389239Y-74917337D01*
X208340304Y-74825785D01*
X208274448Y-74745539D01*
X208194202Y-74679683D01*
X208102650Y-74630748D01*
X208003310Y-74600613D01*
X207925881Y-74592987D01*
X207900000Y-74590438D01*
X207874119Y-74592987D01*
X194025880Y-74592987D01*
X194000009Y-74590439D01*
X193974136Y-74592987D01*
X193974128Y-74592987D01*
X193896699Y-74600613D01*
X193797359Y-74630748D01*
X193705807Y-74679683D01*
X193625561Y-74745539D01*
X193559705Y-74825785D01*
X193510770Y-74917337D01*
X193480635Y-75016677D01*
X193470460Y-75119987D01*
X193473010Y-75145877D01*
X193472987Y-88994106D01*
X193470439Y-89019978D01*
X189379546Y-89019978D01*
X189376999Y-88994118D01*
X189377022Y-75145869D01*
X189379571Y-75119987D01*
X189369396Y-75016677D01*
X189339261Y-74917337D01*
X189290326Y-74825785D01*
X189224470Y-74745539D01*
X189144224Y-74679683D01*
X189052672Y-74630748D01*
X188953332Y-74600613D01*
X188875903Y-74592987D01*
X188875893Y-74592987D01*
X188850022Y-74590439D01*
X188824149Y-74592987D01*
X174975890Y-74592987D01*
X174950009Y-74590438D01*
X174924128Y-74592987D01*
X174846699Y-74600613D01*
X174747359Y-74630748D01*
X174655807Y-74679683D01*
X174575561Y-74745539D01*
X174509705Y-74825785D01*
X174460770Y-74917337D01*
X174430635Y-75016677D01*
X174420460Y-75119987D01*
X170329571Y-75119987D01*
X170319396Y-75016677D01*
X170289261Y-74917337D01*
X170240326Y-74825785D01*
X170174470Y-74745539D01*
X170094224Y-74679683D01*
X170002672Y-74630748D01*
X169903332Y-74600613D01*
X169825903Y-74592987D01*
X169825893Y-74592987D01*
X169800022Y-74590439D01*
X169774149Y-74592987D01*
X155925902Y-74592987D01*
X155900031Y-74590439D01*
X155874158Y-74592987D01*
X155874150Y-74592987D01*
X155796721Y-74600613D01*
X155697381Y-74630748D01*
X155605829Y-74679683D01*
X155525583Y-74745539D01*
X155459727Y-74825785D01*
X155410792Y-74917337D01*
X155380657Y-75016677D01*
X155370482Y-75119987D01*
X155373032Y-75145877D01*
X155373009Y-88994106D01*
X155370461Y-89019978D01*
X151279568Y-89019978D01*
X151277022Y-88994127D01*
X151277022Y-75145868D01*
X151279571Y-75119987D01*
X151269396Y-75016677D01*
X151239261Y-74917337D01*
X151190326Y-74825785D01*
X151124470Y-74745539D01*
X151044224Y-74679683D01*
X150952672Y-74630748D01*
X150853332Y-74600613D01*
X150775903Y-74592987D01*
X150750022Y-74590438D01*
X150724141Y-74592987D01*
X136875902Y-74592987D01*
X136850031Y-74590439D01*
X136824158Y-74592987D01*
X136824150Y-74592987D01*
X136746721Y-74600613D01*
X136647381Y-74630748D01*
X136555829Y-74679683D01*
X136475583Y-74745539D01*
X136409727Y-74825785D01*
X136360792Y-74917337D01*
X136330657Y-75016677D01*
X136320482Y-75119987D01*
X136323032Y-75145877D01*
X136323009Y-88994106D01*
X136320461Y-89019978D01*
X132229568Y-89019978D01*
X132227021Y-88994118D01*
X132227043Y-75145869D01*
X132229592Y-75119987D01*
X132219417Y-75016677D01*
X132189282Y-74917337D01*
X132140347Y-74825785D01*
X132074491Y-74745539D01*
X131994245Y-74679683D01*
X131902693Y-74630748D01*
X131803353Y-74600613D01*
X131725924Y-74592987D01*
X131725914Y-74592987D01*
X131700043Y-74590439D01*
X131674170Y-74592987D01*
X117825912Y-74592987D01*
X117800031Y-74590438D01*
X117774150Y-74592987D01*
X117696721Y-74600613D01*
X117597381Y-74630748D01*
X117505829Y-74679683D01*
X117425583Y-74745539D01*
X117359727Y-74825785D01*
X117310792Y-74917337D01*
X117280657Y-75016677D01*
X117270482Y-75119987D01*
X113179592Y-75119987D01*
X113169417Y-75016677D01*
X113139282Y-74917337D01*
X113090347Y-74825785D01*
X113024491Y-74745539D01*
X112944245Y-74679683D01*
X112852693Y-74630748D01*
X112753353Y-74600613D01*
X112675924Y-74592987D01*
X112675914Y-74592987D01*
X112650043Y-74590439D01*
X112624170Y-74592987D01*
X98775923Y-74592987D01*
X98750052Y-74590439D01*
X98724179Y-74592987D01*
X98724171Y-74592987D01*
X98646742Y-74600613D01*
X98547402Y-74630748D01*
X98455850Y-74679683D01*
X98375604Y-74745539D01*
X98309748Y-74825785D01*
X98260813Y-74917337D01*
X98230678Y-75016677D01*
X98220503Y-75119987D01*
X98223053Y-75145877D01*
X98223031Y-88994107D01*
X98220483Y-89019978D01*
X94129589Y-89019978D01*
X94127043Y-88994127D01*
X94127043Y-75145868D01*
X94129592Y-75119987D01*
X94119417Y-75016677D01*
X94089282Y-74917337D01*
X94040347Y-74825785D01*
X93974491Y-74745539D01*
X93894245Y-74679683D01*
X93802693Y-74630748D01*
X93703353Y-74600613D01*
X93625924Y-74592987D01*
X93600043Y-74590438D01*
X93574162Y-74592987D01*
X79725923Y-74592987D01*
X79700052Y-74590439D01*
X79674179Y-74592987D01*
X79674171Y-74592987D01*
X79596742Y-74600613D01*
X79497402Y-74630748D01*
X79405850Y-74679683D01*
X79325604Y-74745539D01*
X79259748Y-74825785D01*
X79210813Y-74917337D01*
X79180678Y-75016677D01*
X79170503Y-75119987D01*
X79173053Y-75145877D01*
X79173031Y-88994107D01*
X79170483Y-89019978D01*
X75079589Y-89019978D01*
X75077042Y-88994118D01*
X75077065Y-75145869D01*
X75079614Y-75119987D01*
X75069439Y-75016677D01*
X75039304Y-74917337D01*
X74990369Y-74825785D01*
X74924513Y-74745539D01*
X74844267Y-74679683D01*
X74752715Y-74630748D01*
X74653375Y-74600613D01*
X74575946Y-74592987D01*
X74575936Y-74592987D01*
X74550065Y-74590439D01*
X74524192Y-74592987D01*
X60675933Y-74592987D01*
X60650052Y-74590438D01*
X60624171Y-74592987D01*
X60546742Y-74600613D01*
X60447402Y-74630748D01*
X60355850Y-74679683D01*
X60275604Y-74745539D01*
X60209748Y-74825785D01*
X60160813Y-74917337D01*
X60130678Y-75016677D01*
X60120503Y-75119987D01*
X56029614Y-75119987D01*
X56019439Y-75016677D01*
X55989304Y-74917337D01*
X55940369Y-74825785D01*
X55874513Y-74745539D01*
X55794267Y-74679683D01*
X55702715Y-74630748D01*
X55603375Y-74600613D01*
X55525946Y-74592987D01*
X55525936Y-74592987D01*
X55500065Y-74590439D01*
X55474192Y-74592987D01*
X41625945Y-74592987D01*
X41600074Y-74590439D01*
X41574201Y-74592987D01*
X41574193Y-74592987D01*
X41496764Y-74600613D01*
X41397424Y-74630748D01*
X41305872Y-74679683D01*
X41225626Y-74745539D01*
X41159770Y-74825785D01*
X41110835Y-74917337D01*
X41080700Y-75016677D01*
X41070525Y-75119987D01*
X41073075Y-75145877D01*
X41073052Y-88994106D01*
X41070504Y-89019978D01*
X33552038Y-89019978D01*
X33552038Y-72394679D01*
X34953000Y-72394679D01*
X34953000Y-72705321D01*
X35013604Y-73009994D01*
X35132481Y-73296989D01*
X35305064Y-73555279D01*
X35524721Y-73774936D01*
X35783011Y-73947519D01*
X36070006Y-74066396D01*
X36374679Y-74127000D01*
X36685321Y-74127000D01*
X36989994Y-74066396D01*
X37276989Y-73947519D01*
X37535279Y-73774936D01*
X37754936Y-73555279D01*
X37927519Y-73296989D01*
X38046396Y-73009994D01*
X38107000Y-72705321D01*
X38107000Y-72394679D01*
X230453000Y-72394679D01*
X230453000Y-72705321D01*
X230513604Y-73009994D01*
X230632481Y-73296989D01*
X230805064Y-73555279D01*
X231024721Y-73774936D01*
X231283011Y-73947519D01*
X231570006Y-74066396D01*
X231874679Y-74127000D01*
X232185321Y-74127000D01*
X232489994Y-74066396D01*
X232776989Y-73947519D01*
X233035279Y-73774936D01*
X233254936Y-73555279D01*
X233427519Y-73296989D01*
X233546396Y-73009994D01*
X233607000Y-72705321D01*
X233607000Y-72394679D01*
X233546396Y-72090006D01*
X233427519Y-71803011D01*
X233254936Y-71544721D01*
X233035279Y-71325064D01*
X232776989Y-71152481D01*
X232489994Y-71033604D01*
X232185321Y-70973000D01*
X231874679Y-70973000D01*
X231570006Y-71033604D01*
X231283011Y-71152481D01*
X231024721Y-71325064D01*
X230805064Y-71544721D01*
X230632481Y-71803011D01*
X230513604Y-72090006D01*
X230453000Y-72394679D01*
X38107000Y-72394679D01*
X38046396Y-72090006D01*
X37927519Y-71803011D01*
X37754936Y-71544721D01*
X37535279Y-71325064D01*
X37276989Y-71152481D01*
X36989994Y-71033604D01*
X36685321Y-70973000D01*
X36374679Y-70973000D01*
X36070006Y-71033604D01*
X35783011Y-71152481D01*
X35524721Y-71325064D01*
X35305064Y-71544721D01*
X35132481Y-71803011D01*
X35013604Y-72090006D01*
X34953000Y-72394679D01*
X33552038Y-72394679D01*
X33552038Y-69969978D01*
X41070504Y-69969978D01*
X41073052Y-69995851D01*
X41073052Y-69995858D01*
X41080678Y-70073287D01*
X41110813Y-70172627D01*
X41159748Y-70264179D01*
X41225604Y-70344425D01*
X41305850Y-70410281D01*
X41397402Y-70459216D01*
X41496742Y-70489351D01*
X41600052Y-70499526D01*
X41625934Y-70496977D01*
X55474171Y-70497000D01*
X55500043Y-70499548D01*
X55525916Y-70497000D01*
X55525923Y-70497000D01*
X55603352Y-70489374D01*
X55702692Y-70459239D01*
X55794244Y-70410304D01*
X55874490Y-70344448D01*
X55940346Y-70264202D01*
X55989281Y-70172650D01*
X56019416Y-70073310D01*
X56029591Y-69970000D01*
X56027042Y-69944118D01*
X56027065Y-56095869D01*
X56029614Y-56069987D01*
X60120503Y-56069987D01*
X60123053Y-56095878D01*
X60123052Y-69944107D01*
X60120504Y-69969978D01*
X60123052Y-69995851D01*
X60123052Y-69995858D01*
X60130678Y-70073287D01*
X60160813Y-70172627D01*
X60209748Y-70264180D01*
X60275604Y-70344426D01*
X60355850Y-70410282D01*
X60447402Y-70459217D01*
X60546742Y-70489352D01*
X60650052Y-70499527D01*
X60675942Y-70496977D01*
X74524171Y-70497000D01*
X74550043Y-70499548D01*
X74575916Y-70497000D01*
X74575923Y-70497000D01*
X74653352Y-70489374D01*
X74752692Y-70459239D01*
X74844244Y-70410304D01*
X74924490Y-70344448D01*
X74990346Y-70264202D01*
X75039281Y-70172650D01*
X75069416Y-70073310D01*
X75079591Y-69970000D01*
X75079589Y-69969978D01*
X79170483Y-69969978D01*
X79173031Y-69995851D01*
X79173031Y-69995858D01*
X79180657Y-70073287D01*
X79210792Y-70172627D01*
X79259727Y-70264179D01*
X79325583Y-70344425D01*
X79405829Y-70410281D01*
X79497381Y-70459216D01*
X79596721Y-70489351D01*
X79700031Y-70499526D01*
X79725913Y-70496977D01*
X93574162Y-70497000D01*
X93600043Y-70499549D01*
X93703353Y-70489374D01*
X93802693Y-70459239D01*
X93894245Y-70410304D01*
X93974491Y-70344448D01*
X94040347Y-70264202D01*
X94089282Y-70172650D01*
X94119417Y-70073310D01*
X94127043Y-69995881D01*
X94127043Y-69995871D01*
X94129591Y-69970000D01*
X94129589Y-69969978D01*
X98220483Y-69969978D01*
X98223031Y-69995851D01*
X98223031Y-69995858D01*
X98230657Y-70073287D01*
X98260792Y-70172627D01*
X98309727Y-70264179D01*
X98375583Y-70344425D01*
X98455829Y-70410281D01*
X98547381Y-70459216D01*
X98646721Y-70489351D01*
X98750031Y-70499526D01*
X98775913Y-70496977D01*
X112624150Y-70497000D01*
X112650022Y-70499548D01*
X112675895Y-70497000D01*
X112675902Y-70497000D01*
X112753331Y-70489374D01*
X112852671Y-70459239D01*
X112944223Y-70410304D01*
X113024469Y-70344448D01*
X113090325Y-70264202D01*
X113139260Y-70172650D01*
X113169395Y-70073310D01*
X113179570Y-69970000D01*
X113177021Y-69944118D01*
X113177043Y-56095869D01*
X113179592Y-56069987D01*
X117270482Y-56069987D01*
X117273032Y-56095878D01*
X117273031Y-69944107D01*
X117270483Y-69969978D01*
X117273031Y-69995851D01*
X117273031Y-69995858D01*
X117280657Y-70073287D01*
X117310792Y-70172627D01*
X117359727Y-70264180D01*
X117425583Y-70344426D01*
X117505829Y-70410282D01*
X117597381Y-70459217D01*
X117696721Y-70489352D01*
X117800031Y-70499527D01*
X117825921Y-70496977D01*
X131674150Y-70497000D01*
X131700022Y-70499548D01*
X131725895Y-70497000D01*
X131725902Y-70497000D01*
X131803331Y-70489374D01*
X131902671Y-70459239D01*
X131994223Y-70410304D01*
X132074469Y-70344448D01*
X132140325Y-70264202D01*
X132189260Y-70172650D01*
X132219395Y-70073310D01*
X132229570Y-69970000D01*
X132229568Y-69969978D01*
X136320461Y-69969978D01*
X136323009Y-69995851D01*
X136323009Y-69995858D01*
X136330635Y-70073287D01*
X136360770Y-70172627D01*
X136409705Y-70264179D01*
X136475561Y-70344425D01*
X136555807Y-70410281D01*
X136647359Y-70459216D01*
X136746699Y-70489351D01*
X136850009Y-70499526D01*
X136875891Y-70496977D01*
X150724141Y-70497000D01*
X150750022Y-70499549D01*
X150853332Y-70489374D01*
X150952672Y-70459239D01*
X151044224Y-70410304D01*
X151124470Y-70344448D01*
X151190326Y-70264202D01*
X151239261Y-70172650D01*
X151269396Y-70073310D01*
X151277022Y-69995881D01*
X151277022Y-69995871D01*
X151279570Y-69970000D01*
X151279568Y-69969978D01*
X155370461Y-69969978D01*
X155373009Y-69995851D01*
X155373009Y-69995858D01*
X155380635Y-70073287D01*
X155410770Y-70172627D01*
X155459705Y-70264179D01*
X155525561Y-70344425D01*
X155605807Y-70410281D01*
X155697359Y-70459216D01*
X155796699Y-70489351D01*
X155900009Y-70499526D01*
X155925891Y-70496977D01*
X169774128Y-70497000D01*
X169800000Y-70499548D01*
X169825873Y-70497000D01*
X169825880Y-70497000D01*
X169903309Y-70489374D01*
X170002649Y-70459239D01*
X170094201Y-70410304D01*
X170174447Y-70344448D01*
X170240303Y-70264202D01*
X170289238Y-70172650D01*
X170319373Y-70073310D01*
X170329548Y-69970000D01*
X170326999Y-69944118D01*
X170327022Y-56095869D01*
X170329571Y-56069987D01*
X174420460Y-56069987D01*
X174423010Y-56095878D01*
X174423009Y-69944107D01*
X174420461Y-69969978D01*
X174423009Y-69995851D01*
X174423009Y-69995858D01*
X174430635Y-70073287D01*
X174460770Y-70172627D01*
X174509705Y-70264180D01*
X174575561Y-70344426D01*
X174655807Y-70410282D01*
X174747359Y-70459217D01*
X174846699Y-70489352D01*
X174950009Y-70499527D01*
X174975899Y-70496977D01*
X188824128Y-70497000D01*
X188850000Y-70499548D01*
X188875873Y-70497000D01*
X188875880Y-70497000D01*
X188953309Y-70489374D01*
X189052649Y-70459239D01*
X189144201Y-70410304D01*
X189224447Y-70344448D01*
X189290303Y-70264202D01*
X189339238Y-70172650D01*
X189369373Y-70073310D01*
X189379548Y-69970000D01*
X189379546Y-69969978D01*
X193470439Y-69969978D01*
X193472987Y-69995851D01*
X193472987Y-69995858D01*
X193480613Y-70073287D01*
X193510748Y-70172627D01*
X193559683Y-70264179D01*
X193625539Y-70344425D01*
X193705785Y-70410281D01*
X193797337Y-70459216D01*
X193896677Y-70489351D01*
X193999987Y-70499526D01*
X194025869Y-70496977D01*
X207874119Y-70497000D01*
X207900000Y-70499549D01*
X208003310Y-70489374D01*
X208102650Y-70459239D01*
X208194202Y-70410304D01*
X208274448Y-70344448D01*
X208340304Y-70264202D01*
X208389239Y-70172650D01*
X208419374Y-70073310D01*
X208427000Y-69995881D01*
X208427000Y-69995871D01*
X208429548Y-69970000D01*
X208427000Y-69944127D01*
X208427000Y-56095868D01*
X208429549Y-56069987D01*
X212520438Y-56069987D01*
X212522988Y-56095878D01*
X212522987Y-69944107D01*
X212520439Y-69969978D01*
X212522987Y-69995851D01*
X212522987Y-69995858D01*
X212530613Y-70073287D01*
X212560748Y-70172627D01*
X212609683Y-70264180D01*
X212675539Y-70344426D01*
X212755785Y-70410282D01*
X212847337Y-70459217D01*
X212946677Y-70489352D01*
X213049987Y-70499527D01*
X213075877Y-70496977D01*
X226924107Y-70497000D01*
X226949979Y-70499548D01*
X226975852Y-70497000D01*
X226975859Y-70497000D01*
X227053288Y-70489374D01*
X227152628Y-70459239D01*
X227244180Y-70410304D01*
X227324426Y-70344448D01*
X227390282Y-70264202D01*
X227439217Y-70172650D01*
X227469352Y-70073310D01*
X227479527Y-69970000D01*
X227476978Y-69944118D01*
X227477000Y-56095869D01*
X227479549Y-56069987D01*
X227469374Y-55966677D01*
X227439239Y-55867337D01*
X227390304Y-55775785D01*
X227324448Y-55695539D01*
X227244202Y-55629683D01*
X227152650Y-55580748D01*
X227053310Y-55550613D01*
X226975881Y-55542987D01*
X226975871Y-55542987D01*
X226950000Y-55540439D01*
X226924127Y-55542987D01*
X213075868Y-55542987D01*
X213049987Y-55540438D01*
X213024106Y-55542987D01*
X212946677Y-55550613D01*
X212847337Y-55580748D01*
X212755785Y-55629683D01*
X212675539Y-55695539D01*
X212609683Y-55775785D01*
X212560748Y-55867337D01*
X212530613Y-55966677D01*
X212520438Y-56069987D01*
X208429549Y-56069987D01*
X208419374Y-55966677D01*
X208389239Y-55867337D01*
X208340304Y-55775785D01*
X208274448Y-55695539D01*
X208194202Y-55629683D01*
X208102650Y-55580748D01*
X208003310Y-55550613D01*
X207925881Y-55542987D01*
X207900000Y-55540438D01*
X207874119Y-55542987D01*
X194025880Y-55542987D01*
X194000009Y-55540439D01*
X193974136Y-55542987D01*
X193974128Y-55542987D01*
X193896699Y-55550613D01*
X193797359Y-55580748D01*
X193705807Y-55629683D01*
X193625561Y-55695539D01*
X193559705Y-55775785D01*
X193510770Y-55867337D01*
X193480635Y-55966677D01*
X193470460Y-56069987D01*
X193473010Y-56095877D01*
X193472987Y-69944106D01*
X193470439Y-69969978D01*
X189379546Y-69969978D01*
X189376999Y-69944118D01*
X189377022Y-56095869D01*
X189379571Y-56069987D01*
X189369396Y-55966677D01*
X189339261Y-55867337D01*
X189290326Y-55775785D01*
X189224470Y-55695539D01*
X189144224Y-55629683D01*
X189052672Y-55580748D01*
X188953332Y-55550613D01*
X188875903Y-55542987D01*
X188875893Y-55542987D01*
X188850022Y-55540439D01*
X188824149Y-55542987D01*
X174975890Y-55542987D01*
X174950009Y-55540438D01*
X174924128Y-55542987D01*
X174846699Y-55550613D01*
X174747359Y-55580748D01*
X174655807Y-55629683D01*
X174575561Y-55695539D01*
X174509705Y-55775785D01*
X174460770Y-55867337D01*
X174430635Y-55966677D01*
X174420460Y-56069987D01*
X170329571Y-56069987D01*
X170319396Y-55966677D01*
X170289261Y-55867337D01*
X170240326Y-55775785D01*
X170174470Y-55695539D01*
X170094224Y-55629683D01*
X170002672Y-55580748D01*
X169903332Y-55550613D01*
X169825903Y-55542987D01*
X169825893Y-55542987D01*
X169800022Y-55540439D01*
X169774149Y-55542987D01*
X155925902Y-55542987D01*
X155900031Y-55540439D01*
X155874158Y-55542987D01*
X155874150Y-55542987D01*
X155796721Y-55550613D01*
X155697381Y-55580748D01*
X155605829Y-55629683D01*
X155525583Y-55695539D01*
X155459727Y-55775785D01*
X155410792Y-55867337D01*
X155380657Y-55966677D01*
X155370482Y-56069987D01*
X155373032Y-56095877D01*
X155373009Y-69944106D01*
X155370461Y-69969978D01*
X151279568Y-69969978D01*
X151277022Y-69944127D01*
X151277022Y-56095868D01*
X151279571Y-56069987D01*
X151269396Y-55966677D01*
X151239261Y-55867337D01*
X151190326Y-55775785D01*
X151124470Y-55695539D01*
X151044224Y-55629683D01*
X150952672Y-55580748D01*
X150853332Y-55550613D01*
X150775903Y-55542987D01*
X150750022Y-55540438D01*
X150724141Y-55542987D01*
X136875902Y-55542987D01*
X136850031Y-55540439D01*
X136824158Y-55542987D01*
X136824150Y-55542987D01*
X136746721Y-55550613D01*
X136647381Y-55580748D01*
X136555829Y-55629683D01*
X136475583Y-55695539D01*
X136409727Y-55775785D01*
X136360792Y-55867337D01*
X136330657Y-55966677D01*
X136320482Y-56069987D01*
X136323032Y-56095877D01*
X136323009Y-69944106D01*
X136320461Y-69969978D01*
X132229568Y-69969978D01*
X132227021Y-69944118D01*
X132227043Y-56095869D01*
X132229592Y-56069987D01*
X132219417Y-55966677D01*
X132189282Y-55867337D01*
X132140347Y-55775785D01*
X132074491Y-55695539D01*
X131994245Y-55629683D01*
X131902693Y-55580748D01*
X131803353Y-55550613D01*
X131725924Y-55542987D01*
X131725914Y-55542987D01*
X131700043Y-55540439D01*
X131674170Y-55542987D01*
X117825912Y-55542987D01*
X117800031Y-55540438D01*
X117774150Y-55542987D01*
X117696721Y-55550613D01*
X117597381Y-55580748D01*
X117505829Y-55629683D01*
X117425583Y-55695539D01*
X117359727Y-55775785D01*
X117310792Y-55867337D01*
X117280657Y-55966677D01*
X117270482Y-56069987D01*
X113179592Y-56069987D01*
X113169417Y-55966677D01*
X113139282Y-55867337D01*
X113090347Y-55775785D01*
X113024491Y-55695539D01*
X112944245Y-55629683D01*
X112852693Y-55580748D01*
X112753353Y-55550613D01*
X112675924Y-55542987D01*
X112675914Y-55542987D01*
X112650043Y-55540439D01*
X112624170Y-55542987D01*
X98775923Y-55542987D01*
X98750052Y-55540439D01*
X98724179Y-55542987D01*
X98724171Y-55542987D01*
X98646742Y-55550613D01*
X98547402Y-55580748D01*
X98455850Y-55629683D01*
X98375604Y-55695539D01*
X98309748Y-55775785D01*
X98260813Y-55867337D01*
X98230678Y-55966677D01*
X98220503Y-56069987D01*
X98223053Y-56095877D01*
X98223031Y-69944107D01*
X98220483Y-69969978D01*
X94129589Y-69969978D01*
X94127043Y-69944127D01*
X94127043Y-56095868D01*
X94129592Y-56069987D01*
X94119417Y-55966677D01*
X94089282Y-55867337D01*
X94040347Y-55775785D01*
X93974491Y-55695539D01*
X93894245Y-55629683D01*
X93802693Y-55580748D01*
X93703353Y-55550613D01*
X93625924Y-55542987D01*
X93600043Y-55540438D01*
X93574162Y-55542987D01*
X79725923Y-55542987D01*
X79700052Y-55540439D01*
X79674179Y-55542987D01*
X79674171Y-55542987D01*
X79596742Y-55550613D01*
X79497402Y-55580748D01*
X79405850Y-55629683D01*
X79325604Y-55695539D01*
X79259748Y-55775785D01*
X79210813Y-55867337D01*
X79180678Y-55966677D01*
X79170503Y-56069987D01*
X79173053Y-56095877D01*
X79173031Y-69944107D01*
X79170483Y-69969978D01*
X75079589Y-69969978D01*
X75077042Y-69944118D01*
X75077065Y-56095869D01*
X75079614Y-56069987D01*
X75069439Y-55966677D01*
X75039304Y-55867337D01*
X74990369Y-55775785D01*
X74924513Y-55695539D01*
X74844267Y-55629683D01*
X74752715Y-55580748D01*
X74653375Y-55550613D01*
X74575946Y-55542987D01*
X74575936Y-55542987D01*
X74550065Y-55540439D01*
X74524192Y-55542987D01*
X60675933Y-55542987D01*
X60650052Y-55540438D01*
X60624171Y-55542987D01*
X60546742Y-55550613D01*
X60447402Y-55580748D01*
X60355850Y-55629683D01*
X60275604Y-55695539D01*
X60209748Y-55775785D01*
X60160813Y-55867337D01*
X60130678Y-55966677D01*
X60120503Y-56069987D01*
X56029614Y-56069987D01*
X56019439Y-55966677D01*
X55989304Y-55867337D01*
X55940369Y-55775785D01*
X55874513Y-55695539D01*
X55794267Y-55629683D01*
X55702715Y-55580748D01*
X55603375Y-55550613D01*
X55525946Y-55542987D01*
X55525936Y-55542987D01*
X55500065Y-55540439D01*
X55474192Y-55542987D01*
X41625945Y-55542987D01*
X41600074Y-55540439D01*
X41574201Y-55542987D01*
X41574193Y-55542987D01*
X41496764Y-55550613D01*
X41397424Y-55580748D01*
X41305872Y-55629683D01*
X41225626Y-55695539D01*
X41159770Y-55775785D01*
X41110835Y-55867337D01*
X41080700Y-55966677D01*
X41070525Y-56069987D01*
X41073075Y-56095877D01*
X41073052Y-69944106D01*
X41070504Y-69969978D01*
X33552038Y-69969978D01*
X33552038Y-63478320D01*
X33550141Y-63458972D01*
X33550609Y-63439533D01*
X33545133Y-63407898D01*
X33542001Y-63375958D01*
X33536383Y-63357349D01*
X33533066Y-63338189D01*
X33521553Y-63308230D01*
X33512274Y-63277496D01*
X33503143Y-63260323D01*
X33496171Y-63242181D01*
X33479058Y-63215028D01*
X33463987Y-63186683D01*
X33451702Y-63171620D01*
X33441333Y-63155167D01*
X33419264Y-63131847D01*
X33398982Y-63106978D01*
X33384004Y-63094587D01*
X33370638Y-63080463D01*
X33365049Y-63075677D01*
X31080541Y-61146531D01*
X31014574Y-61087643D01*
X30957434Y-61030704D01*
X30903724Y-60970989D01*
X30853531Y-60908670D01*
X30806924Y-60843907D01*
X30763968Y-60776839D01*
X30724743Y-60707636D01*
X30689333Y-60636475D01*
X30657794Y-60563477D01*
X30630236Y-60488877D01*
X30606707Y-60412784D01*
X30587297Y-60335399D01*
X30572064Y-60256826D01*
X30561094Y-60177272D01*
X30554459Y-60096891D01*
X30552028Y-60008474D01*
X30552028Y-50919978D01*
X41070504Y-50919978D01*
X41073052Y-50945851D01*
X41073052Y-50945858D01*
X41080678Y-51023287D01*
X41110813Y-51122627D01*
X41159748Y-51214179D01*
X41225604Y-51294425D01*
X41305850Y-51360281D01*
X41397402Y-51409216D01*
X41496742Y-51439351D01*
X41600052Y-51449526D01*
X41625934Y-51446977D01*
X55474171Y-51447000D01*
X55500043Y-51449548D01*
X55525916Y-51447000D01*
X55525923Y-51447000D01*
X55603352Y-51439374D01*
X55702692Y-51409239D01*
X55794244Y-51360304D01*
X55874490Y-51294448D01*
X55940346Y-51214202D01*
X55989281Y-51122650D01*
X56019416Y-51023310D01*
X56029591Y-50920000D01*
X56027042Y-50894118D01*
X56027065Y-37045869D01*
X56029614Y-37019987D01*
X60120503Y-37019987D01*
X60123053Y-37045878D01*
X60123052Y-50894107D01*
X60120504Y-50919978D01*
X60123052Y-50945851D01*
X60123052Y-50945858D01*
X60130678Y-51023287D01*
X60160813Y-51122627D01*
X60209748Y-51214180D01*
X60275604Y-51294426D01*
X60355850Y-51360282D01*
X60447402Y-51409217D01*
X60546742Y-51439352D01*
X60650052Y-51449527D01*
X60675942Y-51446977D01*
X74524171Y-51447000D01*
X74550043Y-51449548D01*
X74575916Y-51447000D01*
X74575923Y-51447000D01*
X74653352Y-51439374D01*
X74752692Y-51409239D01*
X74844244Y-51360304D01*
X74924490Y-51294448D01*
X74990346Y-51214202D01*
X75039281Y-51122650D01*
X75069416Y-51023310D01*
X75079591Y-50920000D01*
X75079589Y-50919978D01*
X79170483Y-50919978D01*
X79173031Y-50945851D01*
X79173031Y-50945858D01*
X79180657Y-51023287D01*
X79210792Y-51122627D01*
X79259727Y-51214179D01*
X79325583Y-51294425D01*
X79405829Y-51360281D01*
X79497381Y-51409216D01*
X79596721Y-51439351D01*
X79700031Y-51449526D01*
X79725913Y-51446977D01*
X93574162Y-51447000D01*
X93600043Y-51449549D01*
X93703353Y-51439374D01*
X93802693Y-51409239D01*
X93894245Y-51360304D01*
X93974491Y-51294448D01*
X94040347Y-51214202D01*
X94089282Y-51122650D01*
X94119417Y-51023310D01*
X94127043Y-50945881D01*
X94127043Y-50945871D01*
X94129591Y-50920000D01*
X94129589Y-50919978D01*
X98220483Y-50919978D01*
X98223031Y-50945851D01*
X98223031Y-50945858D01*
X98230657Y-51023287D01*
X98260792Y-51122627D01*
X98309727Y-51214179D01*
X98375583Y-51294425D01*
X98455829Y-51360281D01*
X98547381Y-51409216D01*
X98646721Y-51439351D01*
X98750031Y-51449526D01*
X98775913Y-51446977D01*
X112624150Y-51447000D01*
X112650022Y-51449548D01*
X112675895Y-51447000D01*
X112675902Y-51447000D01*
X112753331Y-51439374D01*
X112852671Y-51409239D01*
X112944223Y-51360304D01*
X113024469Y-51294448D01*
X113090325Y-51214202D01*
X113139260Y-51122650D01*
X113169395Y-51023310D01*
X113179570Y-50920000D01*
X113177021Y-50894118D01*
X113177043Y-37045869D01*
X113179592Y-37019987D01*
X117270482Y-37019987D01*
X117273032Y-37045878D01*
X117273031Y-50894107D01*
X117270483Y-50919978D01*
X117273031Y-50945851D01*
X117273031Y-50945858D01*
X117280657Y-51023287D01*
X117310792Y-51122627D01*
X117359727Y-51214180D01*
X117425583Y-51294426D01*
X117505829Y-51360282D01*
X117597381Y-51409217D01*
X117696721Y-51439352D01*
X117800031Y-51449527D01*
X117825921Y-51446977D01*
X131674150Y-51447000D01*
X131700022Y-51449548D01*
X131725895Y-51447000D01*
X131725902Y-51447000D01*
X131803331Y-51439374D01*
X131902671Y-51409239D01*
X131994223Y-51360304D01*
X132074469Y-51294448D01*
X132140325Y-51214202D01*
X132189260Y-51122650D01*
X132219395Y-51023310D01*
X132229570Y-50920000D01*
X132229568Y-50919978D01*
X136320461Y-50919978D01*
X136323009Y-50945851D01*
X136323009Y-50945858D01*
X136330635Y-51023287D01*
X136360770Y-51122627D01*
X136409705Y-51214179D01*
X136475561Y-51294425D01*
X136555807Y-51360281D01*
X136647359Y-51409216D01*
X136746699Y-51439351D01*
X136850009Y-51449526D01*
X136875891Y-51446977D01*
X150724141Y-51447000D01*
X150750022Y-51449549D01*
X150853332Y-51439374D01*
X150952672Y-51409239D01*
X151044224Y-51360304D01*
X151124470Y-51294448D01*
X151190326Y-51214202D01*
X151239261Y-51122650D01*
X151269396Y-51023310D01*
X151277022Y-50945881D01*
X151277022Y-50945871D01*
X151279570Y-50920000D01*
X151279568Y-50919978D01*
X155370461Y-50919978D01*
X155373009Y-50945851D01*
X155373009Y-50945858D01*
X155380635Y-51023287D01*
X155410770Y-51122627D01*
X155459705Y-51214179D01*
X155525561Y-51294425D01*
X155605807Y-51360281D01*
X155697359Y-51409216D01*
X155796699Y-51439351D01*
X155900009Y-51449526D01*
X155925891Y-51446977D01*
X169774128Y-51447000D01*
X169800000Y-51449548D01*
X169825873Y-51447000D01*
X169825880Y-51447000D01*
X169903309Y-51439374D01*
X170002649Y-51409239D01*
X170094201Y-51360304D01*
X170174447Y-51294448D01*
X170240303Y-51214202D01*
X170289238Y-51122650D01*
X170319373Y-51023310D01*
X170329548Y-50920000D01*
X170326999Y-50894118D01*
X170327022Y-37045869D01*
X170329571Y-37019987D01*
X174420460Y-37019987D01*
X174423010Y-37045878D01*
X174423009Y-50894107D01*
X174420461Y-50919978D01*
X174423009Y-50945851D01*
X174423009Y-50945858D01*
X174430635Y-51023287D01*
X174460770Y-51122627D01*
X174509705Y-51214180D01*
X174575561Y-51294426D01*
X174655807Y-51360282D01*
X174747359Y-51409217D01*
X174846699Y-51439352D01*
X174950009Y-51449527D01*
X174975899Y-51446977D01*
X188824128Y-51447000D01*
X188850000Y-51449548D01*
X188875873Y-51447000D01*
X188875880Y-51447000D01*
X188953309Y-51439374D01*
X189052649Y-51409239D01*
X189144201Y-51360304D01*
X189224447Y-51294448D01*
X189290303Y-51214202D01*
X189339238Y-51122650D01*
X189369373Y-51023310D01*
X189379548Y-50920000D01*
X189379546Y-50919978D01*
X193470439Y-50919978D01*
X193472987Y-50945851D01*
X193472987Y-50945858D01*
X193480613Y-51023287D01*
X193510748Y-51122627D01*
X193559683Y-51214179D01*
X193625539Y-51294425D01*
X193705785Y-51360281D01*
X193797337Y-51409216D01*
X193896677Y-51439351D01*
X193999987Y-51449526D01*
X194025869Y-51446977D01*
X207874119Y-51447000D01*
X207900000Y-51449549D01*
X208003310Y-51439374D01*
X208102650Y-51409239D01*
X208194202Y-51360304D01*
X208274448Y-51294448D01*
X208340304Y-51214202D01*
X208389239Y-51122650D01*
X208419374Y-51023310D01*
X208427000Y-50945881D01*
X208427000Y-50945871D01*
X208429548Y-50920000D01*
X208427000Y-50894127D01*
X208427000Y-37045868D01*
X208429549Y-37019987D01*
X212520438Y-37019987D01*
X212522988Y-37045878D01*
X212522987Y-50894107D01*
X212520439Y-50919978D01*
X212522987Y-50945851D01*
X212522987Y-50945858D01*
X212530613Y-51023287D01*
X212560748Y-51122627D01*
X212609683Y-51214180D01*
X212675539Y-51294426D01*
X212755785Y-51360282D01*
X212847337Y-51409217D01*
X212946677Y-51439352D01*
X213049987Y-51449527D01*
X213075877Y-51446977D01*
X226924107Y-51447000D01*
X226949979Y-51449548D01*
X226975852Y-51447000D01*
X226975859Y-51447000D01*
X227053288Y-51439374D01*
X227152628Y-51409239D01*
X227244180Y-51360304D01*
X227324426Y-51294448D01*
X227390282Y-51214202D01*
X227439217Y-51122650D01*
X227469352Y-51023310D01*
X227479527Y-50920000D01*
X227476978Y-50894118D01*
X227477000Y-37045869D01*
X227479549Y-37019987D01*
X227469374Y-36916677D01*
X227439239Y-36817337D01*
X227390304Y-36725785D01*
X227324448Y-36645539D01*
X227244202Y-36579683D01*
X227152650Y-36530748D01*
X227053310Y-36500613D01*
X226975881Y-36492987D01*
X226975871Y-36492987D01*
X226950000Y-36490439D01*
X226924127Y-36492987D01*
X213075868Y-36492987D01*
X213049987Y-36490438D01*
X213024106Y-36492987D01*
X212946677Y-36500613D01*
X212847337Y-36530748D01*
X212755785Y-36579683D01*
X212675539Y-36645539D01*
X212609683Y-36725785D01*
X212560748Y-36817337D01*
X212530613Y-36916677D01*
X212520438Y-37019987D01*
X208429549Y-37019987D01*
X208419374Y-36916677D01*
X208389239Y-36817337D01*
X208340304Y-36725785D01*
X208274448Y-36645539D01*
X208194202Y-36579683D01*
X208102650Y-36530748D01*
X208003310Y-36500613D01*
X207925881Y-36492987D01*
X207900000Y-36490438D01*
X207874119Y-36492987D01*
X194025880Y-36492987D01*
X194000009Y-36490439D01*
X193974136Y-36492987D01*
X193974128Y-36492987D01*
X193896699Y-36500613D01*
X193797359Y-36530748D01*
X193705807Y-36579683D01*
X193625561Y-36645539D01*
X193559705Y-36725785D01*
X193510770Y-36817337D01*
X193480635Y-36916677D01*
X193470460Y-37019987D01*
X193473010Y-37045877D01*
X193472987Y-50894106D01*
X193470439Y-50919978D01*
X189379546Y-50919978D01*
X189376999Y-50894118D01*
X189377022Y-37045869D01*
X189379571Y-37019987D01*
X189369396Y-36916677D01*
X189339261Y-36817337D01*
X189290326Y-36725785D01*
X189224470Y-36645539D01*
X189144224Y-36579683D01*
X189052672Y-36530748D01*
X188953332Y-36500613D01*
X188875903Y-36492987D01*
X188875893Y-36492987D01*
X188850022Y-36490439D01*
X188824149Y-36492987D01*
X174975890Y-36492987D01*
X174950009Y-36490438D01*
X174924128Y-36492987D01*
X174846699Y-36500613D01*
X174747359Y-36530748D01*
X174655807Y-36579683D01*
X174575561Y-36645539D01*
X174509705Y-36725785D01*
X174460770Y-36817337D01*
X174430635Y-36916677D01*
X174420460Y-37019987D01*
X170329571Y-37019987D01*
X170319396Y-36916677D01*
X170289261Y-36817337D01*
X170240326Y-36725785D01*
X170174470Y-36645539D01*
X170094224Y-36579683D01*
X170002672Y-36530748D01*
X169903332Y-36500613D01*
X169825903Y-36492987D01*
X169825893Y-36492987D01*
X169800022Y-36490439D01*
X169774149Y-36492987D01*
X155925902Y-36492987D01*
X155900031Y-36490439D01*
X155874158Y-36492987D01*
X155874150Y-36492987D01*
X155796721Y-36500613D01*
X155697381Y-36530748D01*
X155605829Y-36579683D01*
X155525583Y-36645539D01*
X155459727Y-36725785D01*
X155410792Y-36817337D01*
X155380657Y-36916677D01*
X155370482Y-37019987D01*
X155373032Y-37045877D01*
X155373009Y-50894106D01*
X155370461Y-50919978D01*
X151279568Y-50919978D01*
X151277022Y-50894127D01*
X151277022Y-37045868D01*
X151279571Y-37019987D01*
X151269396Y-36916677D01*
X151239261Y-36817337D01*
X151190326Y-36725785D01*
X151124470Y-36645539D01*
X151044224Y-36579683D01*
X150952672Y-36530748D01*
X150853332Y-36500613D01*
X150775903Y-36492987D01*
X150750022Y-36490438D01*
X150724141Y-36492987D01*
X136875902Y-36492987D01*
X136850031Y-36490439D01*
X136824158Y-36492987D01*
X136824150Y-36492987D01*
X136746721Y-36500613D01*
X136647381Y-36530748D01*
X136555829Y-36579683D01*
X136475583Y-36645539D01*
X136409727Y-36725785D01*
X136360792Y-36817337D01*
X136330657Y-36916677D01*
X136320482Y-37019987D01*
X136323032Y-37045877D01*
X136323009Y-50894106D01*
X136320461Y-50919978D01*
X132229568Y-50919978D01*
X132227021Y-50894118D01*
X132227043Y-37045869D01*
X132229592Y-37019987D01*
X132219417Y-36916677D01*
X132189282Y-36817337D01*
X132140347Y-36725785D01*
X132074491Y-36645539D01*
X131994245Y-36579683D01*
X131902693Y-36530748D01*
X131803353Y-36500613D01*
X131725924Y-36492987D01*
X131725914Y-36492987D01*
X131700043Y-36490439D01*
X131674170Y-36492987D01*
X117825912Y-36492987D01*
X117800031Y-36490438D01*
X117774150Y-36492987D01*
X117696721Y-36500613D01*
X117597381Y-36530748D01*
X117505829Y-36579683D01*
X117425583Y-36645539D01*
X117359727Y-36725785D01*
X117310792Y-36817337D01*
X117280657Y-36916677D01*
X117270482Y-37019987D01*
X113179592Y-37019987D01*
X113169417Y-36916677D01*
X113139282Y-36817337D01*
X113090347Y-36725785D01*
X113024491Y-36645539D01*
X112944245Y-36579683D01*
X112852693Y-36530748D01*
X112753353Y-36500613D01*
X112675924Y-36492987D01*
X112675914Y-36492987D01*
X112650043Y-36490439D01*
X112624170Y-36492987D01*
X98775923Y-36492987D01*
X98750052Y-36490439D01*
X98724179Y-36492987D01*
X98724171Y-36492987D01*
X98646742Y-36500613D01*
X98547402Y-36530748D01*
X98455850Y-36579683D01*
X98375604Y-36645539D01*
X98309748Y-36725785D01*
X98260813Y-36817337D01*
X98230678Y-36916677D01*
X98220503Y-37019987D01*
X98223053Y-37045877D01*
X98223031Y-50894107D01*
X98220483Y-50919978D01*
X94129589Y-50919978D01*
X94127043Y-50894127D01*
X94127043Y-37045868D01*
X94129592Y-37019987D01*
X94119417Y-36916677D01*
X94089282Y-36817337D01*
X94040347Y-36725785D01*
X93974491Y-36645539D01*
X93894245Y-36579683D01*
X93802693Y-36530748D01*
X93703353Y-36500613D01*
X93625924Y-36492987D01*
X93600043Y-36490438D01*
X93574162Y-36492987D01*
X79725923Y-36492987D01*
X79700052Y-36490439D01*
X79674179Y-36492987D01*
X79674171Y-36492987D01*
X79596742Y-36500613D01*
X79497402Y-36530748D01*
X79405850Y-36579683D01*
X79325604Y-36645539D01*
X79259748Y-36725785D01*
X79210813Y-36817337D01*
X79180678Y-36916677D01*
X79170503Y-37019987D01*
X79173053Y-37045877D01*
X79173031Y-50894107D01*
X79170483Y-50919978D01*
X75079589Y-50919978D01*
X75077042Y-50894118D01*
X75077065Y-37045869D01*
X75079614Y-37019987D01*
X75069439Y-36916677D01*
X75039304Y-36817337D01*
X74990369Y-36725785D01*
X74924513Y-36645539D01*
X74844267Y-36579683D01*
X74752715Y-36530748D01*
X74653375Y-36500613D01*
X74575946Y-36492987D01*
X74575936Y-36492987D01*
X74550065Y-36490439D01*
X74524192Y-36492987D01*
X60675933Y-36492987D01*
X60650052Y-36490438D01*
X60624171Y-36492987D01*
X60546742Y-36500613D01*
X60447402Y-36530748D01*
X60355850Y-36579683D01*
X60275604Y-36645539D01*
X60209748Y-36725785D01*
X60160813Y-36817337D01*
X60130678Y-36916677D01*
X60120503Y-37019987D01*
X56029614Y-37019987D01*
X56019439Y-36916677D01*
X55989304Y-36817337D01*
X55940369Y-36725785D01*
X55874513Y-36645539D01*
X55794267Y-36579683D01*
X55702715Y-36530748D01*
X55603375Y-36500613D01*
X55525946Y-36492987D01*
X55525936Y-36492987D01*
X55500065Y-36490439D01*
X55474192Y-36492987D01*
X41625945Y-36492987D01*
X41600074Y-36490439D01*
X41574201Y-36492987D01*
X41574193Y-36492987D01*
X41496764Y-36500613D01*
X41397424Y-36530748D01*
X41305872Y-36579683D01*
X41225626Y-36645539D01*
X41159770Y-36725785D01*
X41110835Y-36817337D01*
X41080700Y-36916677D01*
X41070525Y-37019987D01*
X41073075Y-37045877D01*
X41073052Y-50894106D01*
X41070504Y-50919978D01*
X30552028Y-50919978D01*
X30552028Y-31954679D01*
X32113000Y-31954679D01*
X32113000Y-32265321D01*
X32173604Y-32569994D01*
X32292481Y-32856989D01*
X32465064Y-33115279D01*
X32684721Y-33334936D01*
X32943011Y-33507519D01*
X33230006Y-33626396D01*
X33534679Y-33687000D01*
X33845321Y-33687000D01*
X34149994Y-33626396D01*
X34436989Y-33507519D01*
X34695279Y-33334936D01*
X34914936Y-33115279D01*
X35087519Y-32856989D01*
X35206396Y-32569994D01*
X35267000Y-32265321D01*
X35267000Y-31954679D01*
X35235174Y-31794679D01*
X94603000Y-31794679D01*
X94603000Y-32105321D01*
X94663604Y-32409994D01*
X94782481Y-32696989D01*
X94955064Y-32955279D01*
X95174721Y-33174936D01*
X95433011Y-33347519D01*
X95720006Y-33466396D01*
X96024679Y-33527000D01*
X96335321Y-33527000D01*
X96639994Y-33466396D01*
X96926989Y-33347519D01*
X97185279Y-33174936D01*
X97404936Y-32955279D01*
X97577519Y-32696989D01*
X97696396Y-32409994D01*
X97757000Y-32105321D01*
X97757000Y-31794679D01*
X170803000Y-31794679D01*
X170803000Y-32105321D01*
X170863604Y-32409994D01*
X170982481Y-32696989D01*
X171155064Y-32955279D01*
X171374721Y-33174936D01*
X171633011Y-33347519D01*
X171920006Y-33466396D01*
X172224679Y-33527000D01*
X172535321Y-33527000D01*
X172839994Y-33466396D01*
X173126989Y-33347519D01*
X173385279Y-33174936D01*
X173604936Y-32955279D01*
X173777519Y-32696989D01*
X173896396Y-32409994D01*
X173957000Y-32105321D01*
X173957000Y-31954679D01*
X230283000Y-31954679D01*
X230283000Y-32265321D01*
X230343604Y-32569994D01*
X230462481Y-32856989D01*
X230635064Y-33115279D01*
X230854721Y-33334936D01*
X231113011Y-33507519D01*
X231400006Y-33626396D01*
X231704679Y-33687000D01*
X232015321Y-33687000D01*
X232319994Y-33626396D01*
X232606989Y-33507519D01*
X232865279Y-33334936D01*
X233084936Y-33115279D01*
X233257519Y-32856989D01*
X233376396Y-32569994D01*
X233437000Y-32265321D01*
X233437000Y-31954679D01*
X233376396Y-31650006D01*
X233257519Y-31363011D01*
X233084936Y-31104721D01*
X232865279Y-30885064D01*
X232606989Y-30712481D01*
X232319994Y-30593604D01*
X232015321Y-30533000D01*
X231704679Y-30533000D01*
X231400006Y-30593604D01*
X231113011Y-30712481D01*
X230854721Y-30885064D01*
X230635064Y-31104721D01*
X230462481Y-31363011D01*
X230343604Y-31650006D01*
X230283000Y-31954679D01*
X173957000Y-31954679D01*
X173957000Y-31794679D01*
X173896396Y-31490006D01*
X173777519Y-31203011D01*
X173604936Y-30944721D01*
X173385279Y-30725064D01*
X173126989Y-30552481D01*
X172839994Y-30433604D01*
X172535321Y-30373000D01*
X172224679Y-30373000D01*
X171920006Y-30433604D01*
X171633011Y-30552481D01*
X171374721Y-30725064D01*
X171155064Y-30944721D01*
X170982481Y-31203011D01*
X170863604Y-31490006D01*
X170803000Y-31794679D01*
X97757000Y-31794679D01*
X97696396Y-31490006D01*
X97577519Y-31203011D01*
X97404936Y-30944721D01*
X97185279Y-30725064D01*
X96926989Y-30552481D01*
X96639994Y-30433604D01*
X96335321Y-30373000D01*
X96024679Y-30373000D01*
X95720006Y-30433604D01*
X95433011Y-30552481D01*
X95174721Y-30725064D01*
X94955064Y-30944721D01*
X94782481Y-31203011D01*
X94663604Y-31490006D01*
X94603000Y-31794679D01*
X35235174Y-31794679D01*
X35206396Y-31650006D01*
X35087519Y-31363011D01*
X34914936Y-31104721D01*
X34695279Y-30885064D01*
X34436989Y-30712481D01*
X34149994Y-30593604D01*
X33845321Y-30533000D01*
X33534679Y-30533000D01*
X33230006Y-30593604D01*
X32943011Y-30712481D01*
X32684721Y-30885064D01*
X32465064Y-31104721D01*
X32292481Y-31363011D01*
X32173604Y-31650006D01*
X32113000Y-31954679D01*
X30552028Y-31954679D01*
X30552028Y-31451678D01*
X30555426Y-31317273D01*
X30564990Y-31191497D01*
X30580718Y-31067722D01*
X30602446Y-30946054D01*
X30630021Y-30826579D01*
X30663291Y-30709422D01*
X30702101Y-30594722D01*
X30746315Y-30482586D01*
X30795780Y-30373172D01*
X30850348Y-30266629D01*
X30909876Y-30163102D01*
X30974210Y-30062752D01*
X31043184Y-29965757D01*
X31116668Y-29872248D01*
X31194484Y-29782415D01*
X31276473Y-29696420D01*
X31362448Y-29614451D01*
X31452284Y-29536633D01*
X31545791Y-29463150D01*
X31642790Y-29394173D01*
X31743152Y-29329832D01*
X31846662Y-29270315D01*
X31953213Y-29215743D01*
X32062619Y-29166281D01*
X32174756Y-29122067D01*
X32289456Y-29083257D01*
X32406613Y-29049987D01*
X32526091Y-29022412D01*
X32647756Y-29000684D01*
X32771529Y-28984956D01*
X32897308Y-28975392D01*
X33031712Y-28971994D01*
X232518352Y-28971994D01*
X232652756Y-28975392D01*
G37*
X232652756Y-28975392D02*
X232778532Y-28984956D01*
X232902307Y-29000684D01*
X233023989Y-29022415D01*
X233143433Y-29049983D01*
X233260605Y-29083257D01*
X233375314Y-29122070D01*
X233487443Y-29166282D01*
X233596843Y-29215742D01*
X233703395Y-29270315D01*
X233806922Y-29329842D01*
X233907256Y-29394167D01*
X234004269Y-29463154D01*
X234097764Y-29536627D01*
X234187593Y-29614440D01*
X234273596Y-29696436D01*
X234355563Y-29782410D01*
X234433379Y-29872244D01*
X234506862Y-29965753D01*
X234575843Y-30062758D01*
X234640184Y-30163124D01*
X234699693Y-30266619D01*
X234754274Y-30373190D01*
X234803727Y-30482577D01*
X234847944Y-30594721D01*
X234886752Y-30709418D01*
X234920018Y-30826563D01*
X234947595Y-30946047D01*
X234969325Y-31067729D01*
X234985052Y-31191495D01*
X234994616Y-31317273D01*
X234998015Y-31451683D01*
X234998015Y-113638325D01*
X234994616Y-113772734D01*
X234985052Y-113898512D01*
X234969325Y-114022278D01*
X234947593Y-114143970D01*
X234920022Y-114263427D01*
X234886752Y-114380587D01*
X234847940Y-114495294D01*
X234803735Y-114607407D01*
X234754271Y-114716819D01*
X234699693Y-114823382D01*
X234640185Y-114926877D01*
X234575843Y-115027241D01*
X234506858Y-115124251D01*
X234433379Y-115217755D01*
X234355567Y-115307584D01*
X234273589Y-115393567D01*
X234187596Y-115475554D01*
X234097757Y-115553374D01*
X234004265Y-115626842D01*
X233907264Y-115695820D01*
X233806913Y-115760154D01*
X233703396Y-115819676D01*
X233596849Y-115874245D01*
X233487435Y-115923711D01*
X233375310Y-115967921D01*
X233260607Y-116006731D01*
X233143432Y-116040004D01*
X233023996Y-116067570D01*
X232902300Y-116089303D01*
X232778532Y-116105030D01*
X232652756Y-116114594D01*
X232518346Y-116117993D01*
X36031705Y-116117993D01*
X35897295Y-116114594D01*
X35771517Y-116105030D01*
X35647751Y-116089303D01*
X35526059Y-116067571D01*
X35406602Y-116040000D01*
X35289442Y-116006730D01*
X35174735Y-115967918D01*
X35062622Y-115923713D01*
X34953210Y-115874249D01*
X34846666Y-115819681D01*
X34743131Y-115760150D01*
X34642791Y-115695823D01*
X34545773Y-115626833D01*
X34452281Y-115553363D01*
X34362435Y-115475535D01*
X34276462Y-115393567D01*
X34194486Y-115307585D01*
X34116656Y-115217735D01*
X34043188Y-115124243D01*
X33974201Y-115027230D01*
X33909880Y-114926900D01*
X33850349Y-114823363D01*
X33795785Y-114716827D01*
X33746319Y-114607413D01*
X33702111Y-114495292D01*
X33663294Y-114380573D01*
X33630031Y-114263432D01*
X33602460Y-114143974D01*
X33580727Y-114022278D01*
X33565000Y-113898510D01*
X33555436Y-113772734D01*
X33552038Y-113638330D01*
X33552038Y-112834679D01*
X35113000Y-112834679D01*
X35113000Y-113145321D01*
X35173604Y-113449994D01*
X35292481Y-113736989D01*
X35465064Y-113995279D01*
X35684721Y-114214936D01*
X35943011Y-114387519D01*
X36230006Y-114506396D01*
X36534679Y-114567000D01*
X36845321Y-114567000D01*
X37149994Y-114506396D01*
X37436989Y-114387519D01*
X37695279Y-114214936D01*
X37914936Y-113995279D01*
X38087519Y-113736989D01*
X38206396Y-113449994D01*
X38267000Y-113145321D01*
X38267000Y-113074679D01*
X94603000Y-113074679D01*
X94603000Y-113385321D01*
X94663604Y-113689994D01*
X94782481Y-113976989D01*
X94955064Y-114235279D01*
X95174721Y-114454936D01*
X95433011Y-114627519D01*
X95720006Y-114746396D01*
X96024679Y-114807000D01*
X96335321Y-114807000D01*
X96639994Y-114746396D01*
X96926989Y-114627519D01*
X97185279Y-114454936D01*
X97404936Y-114235279D01*
X97577519Y-113976989D01*
X97696396Y-113689994D01*
X97757000Y-113385321D01*
X97757000Y-113074679D01*
X97741087Y-112994679D01*
X170803000Y-112994679D01*
X170803000Y-113305321D01*
X170863604Y-113609994D01*
X170982481Y-113896989D01*
X171155064Y-114155279D01*
X171374721Y-114374936D01*
X171633011Y-114547519D01*
X171920006Y-114666396D01*
X172224679Y-114727000D01*
X172535321Y-114727000D01*
X172839994Y-114666396D01*
X173126989Y-114547519D01*
X173385279Y-114374936D01*
X173604936Y-114155279D01*
X173777519Y-113896989D01*
X173896396Y-113609994D01*
X173957000Y-113305321D01*
X173957000Y-112994679D01*
X173925174Y-112834679D01*
X230283000Y-112834679D01*
X230283000Y-113145321D01*
X230343604Y-113449994D01*
X230462481Y-113736989D01*
X230635064Y-113995279D01*
X230854721Y-114214936D01*
X231113011Y-114387519D01*
X231400006Y-114506396D01*
X231704679Y-114567000D01*
X232015321Y-114567000D01*
X232319994Y-114506396D01*
X232606989Y-114387519D01*
X232865279Y-114214936D01*
X233084936Y-113995279D01*
X233257519Y-113736989D01*
X233376396Y-113449994D01*
X233437000Y-113145321D01*
X233437000Y-112834679D01*
X233376396Y-112530006D01*
X233257519Y-112243011D01*
X233084936Y-111984721D01*
X232865279Y-111765064D01*
X232606989Y-111592481D01*
X232319994Y-111473604D01*
X232015321Y-111413000D01*
X231704679Y-111413000D01*
X231400006Y-111473604D01*
X231113011Y-111592481D01*
X230854721Y-111765064D01*
X230635064Y-111984721D01*
X230462481Y-112243011D01*
X230343604Y-112530006D01*
X230283000Y-112834679D01*
X173925174Y-112834679D01*
X173896396Y-112690006D01*
X173777519Y-112403011D01*
X173604936Y-112144721D01*
X173385279Y-111925064D01*
X173126989Y-111752481D01*
X172839994Y-111633604D01*
X172535321Y-111573000D01*
X172224679Y-111573000D01*
X171920006Y-111633604D01*
X171633011Y-111752481D01*
X171374721Y-111925064D01*
X171155064Y-112144721D01*
X170982481Y-112403011D01*
X170863604Y-112690006D01*
X170803000Y-112994679D01*
X97741087Y-112994679D01*
X97696396Y-112770006D01*
X97577519Y-112483011D01*
X97404936Y-112224721D01*
X97185279Y-112005064D01*
X96926989Y-111832481D01*
X96639994Y-111713604D01*
X96335321Y-111653000D01*
X96024679Y-111653000D01*
X95720006Y-111713604D01*
X95433011Y-111832481D01*
X95174721Y-112005064D01*
X94955064Y-112224721D01*
X94782481Y-112483011D01*
X94663604Y-112770006D01*
X94603000Y-113074679D01*
X38267000Y-113074679D01*
X38267000Y-112834679D01*
X38206396Y-112530006D01*
X38087519Y-112243011D01*
X37914936Y-111984721D01*
X37695279Y-111765064D01*
X37436989Y-111592481D01*
X37149994Y-111473604D01*
X36845321Y-111413000D01*
X36534679Y-111413000D01*
X36230006Y-111473604D01*
X35943011Y-111592481D01*
X35684721Y-111765064D01*
X35465064Y-111984721D01*
X35292481Y-112243011D01*
X35173604Y-112530006D01*
X35113000Y-112834679D01*
X33552038Y-112834679D01*
X33552038Y-108069978D01*
X41070504Y-108069978D01*
X41073052Y-108095851D01*
X41073052Y-108095858D01*
X41080678Y-108173287D01*
X41110813Y-108272627D01*
X41159748Y-108364179D01*
X41225604Y-108444425D01*
X41305850Y-108510281D01*
X41397402Y-108559216D01*
X41496742Y-108589351D01*
X41600052Y-108599526D01*
X41625934Y-108596977D01*
X55474171Y-108597000D01*
X55500043Y-108599548D01*
X55525916Y-108597000D01*
X55525923Y-108597000D01*
X55603352Y-108589374D01*
X55702692Y-108559239D01*
X55794244Y-108510304D01*
X55874490Y-108444448D01*
X55940346Y-108364202D01*
X55989281Y-108272650D01*
X56019416Y-108173310D01*
X56029591Y-108070000D01*
X56027042Y-108044118D01*
X56027057Y-98845584D01*
X79233341Y-98845584D01*
X79233341Y-103735661D01*
X79238182Y-103785036D01*
X79242676Y-103834411D01*
X79243198Y-103836183D01*
X79243378Y-103838023D01*
X79257715Y-103885509D01*
X79271715Y-103933079D01*
X79272571Y-103934717D01*
X79273105Y-103936485D01*
X79296358Y-103980217D01*
X79319366Y-104024227D01*
X79320527Y-104025671D01*
X79321392Y-104027298D01*
X79352690Y-104065673D01*
X79383814Y-104104384D01*
X79385230Y-104105572D01*
X79386397Y-104107003D01*
X79424593Y-104138601D01*
X79462603Y-104170496D01*
X79464222Y-104171386D01*
X79465646Y-104172564D01*
X79509319Y-104196178D01*
X79552734Y-104220045D01*
X79554492Y-104220603D01*
X79556120Y-104221483D01*
X79603524Y-104236157D01*
X79650772Y-104251145D01*
X79652609Y-104251351D01*
X79654373Y-104251897D01*
X79703635Y-104257075D01*
X79752983Y-104262610D01*
X79756535Y-104262635D01*
X79756662Y-104262648D01*
X79756790Y-104262636D01*
X79760341Y-104262661D01*
X80068712Y-104262661D01*
X80068712Y-107605041D01*
X80071576Y-107634246D01*
X80071975Y-107663599D01*
X80072844Y-107670906D01*
X80080714Y-107733382D01*
X80088678Y-107768492D01*
X80094564Y-107804007D01*
X80100031Y-107818545D01*
X80103466Y-107833687D01*
X80118093Y-107866572D01*
X80130768Y-107900276D01*
X80134065Y-107906854D01*
X80183279Y-108003399D01*
X80187423Y-108009876D01*
X80190438Y-108016953D01*
X80215119Y-108053166D01*
X80238709Y-108090038D01*
X80244028Y-108095583D01*
X80248363Y-108101943D01*
X80279603Y-108132667D01*
X80309910Y-108164260D01*
X80316210Y-108168670D01*
X80321693Y-108174062D01*
X80327450Y-108178645D01*
X80411972Y-108244974D01*
X80420172Y-108250202D01*
X80427433Y-108256653D01*
X80463450Y-108277799D01*
X80498695Y-108300272D01*
X80507750Y-108303806D01*
X80516129Y-108308726D01*
X80555582Y-108322478D01*
X80594506Y-108337672D01*
X80604072Y-108339380D01*
X80613250Y-108342579D01*
X80620414Y-108344261D01*
X80728792Y-108368917D01*
X80732534Y-108369391D01*
X80736128Y-108370531D01*
X80783547Y-108375850D01*
X80830831Y-108381837D01*
X80834589Y-108381575D01*
X80838339Y-108381996D01*
X80845697Y-108382047D01*
X87670647Y-108382047D01*
X87699856Y-108379183D01*
X87729214Y-108378783D01*
X87736521Y-108377914D01*
X87799004Y-108370042D01*
X87834116Y-108362077D01*
X87869649Y-108356186D01*
X87884181Y-108350720D01*
X87899309Y-108347288D01*
X87932204Y-108332656D01*
X87965916Y-108319975D01*
X87972494Y-108316679D01*
X88069041Y-108267457D01*
X88075527Y-108263307D01*
X88082606Y-108260290D01*
X88118794Y-108235622D01*
X88155676Y-108212022D01*
X88161228Y-108206696D01*
X88167591Y-108202358D01*
X88198304Y-108171124D01*
X88229894Y-108140817D01*
X88234306Y-108134512D01*
X88239705Y-108129022D01*
X88244287Y-108123265D01*
X88286097Y-108069978D01*
X126795461Y-108069978D01*
X126798009Y-108095851D01*
X126798009Y-108095858D01*
X126805635Y-108173287D01*
X126835770Y-108272627D01*
X126884705Y-108364179D01*
X126950561Y-108444425D01*
X127030807Y-108510281D01*
X127122359Y-108559216D01*
X127221699Y-108589351D01*
X127325009Y-108599526D01*
X127350891Y-108596977D01*
X141199128Y-108597000D01*
X141225000Y-108599548D01*
X141250873Y-108597000D01*
X141250880Y-108597000D01*
X141328309Y-108589374D01*
X141427649Y-108559239D01*
X141519201Y-108510304D01*
X141599447Y-108444448D01*
X141665303Y-108364202D01*
X141714238Y-108272650D01*
X141744373Y-108173310D01*
X141754548Y-108070000D01*
X141751999Y-108044118D01*
X141752014Y-98845584D01*
X179250148Y-98845584D01*
X179250148Y-103735661D01*
X179254989Y-103785036D01*
X179259483Y-103834411D01*
X179260005Y-103836183D01*
X179260185Y-103838023D01*
X179274522Y-103885509D01*
X179288522Y-103933079D01*
X179289378Y-103934717D01*
X179289912Y-103936485D01*
X179313165Y-103980217D01*
X179336173Y-104024227D01*
X179337334Y-104025671D01*
X179338199Y-104027298D01*
X179369497Y-104065673D01*
X179400621Y-104104384D01*
X179402037Y-104105572D01*
X179403204Y-104107003D01*
X179441400Y-104138601D01*
X179479410Y-104170496D01*
X179481029Y-104171386D01*
X179482453Y-104172564D01*
X179526126Y-104196178D01*
X179569541Y-104220045D01*
X179571299Y-104220603D01*
X179572927Y-104221483D01*
X179620331Y-104236157D01*
X179667579Y-104251145D01*
X179669416Y-104251351D01*
X179671180Y-104251897D01*
X179720442Y-104257075D01*
X179769790Y-104262610D01*
X179773342Y-104262635D01*
X179773469Y-104262648D01*
X179773597Y-104262636D01*
X179777148Y-104262661D01*
X180085497Y-104262661D01*
X180085497Y-107605041D01*
X180088361Y-107634246D01*
X180088760Y-107663599D01*
X180089629Y-107670906D01*
X180097499Y-107733382D01*
X180105464Y-107768496D01*
X180111351Y-107804015D01*
X180116818Y-107818550D01*
X180120251Y-107833687D01*
X180134880Y-107866577D01*
X180147557Y-107900284D01*
X180150854Y-107906862D01*
X180200070Y-108003407D01*
X180204217Y-108009889D01*
X180207234Y-108016969D01*
X180231904Y-108053163D01*
X180255501Y-108090045D01*
X180260826Y-108095596D01*
X180265162Y-108101957D01*
X180296398Y-108132675D01*
X180326703Y-108164265D01*
X180333005Y-108168676D01*
X180338494Y-108174074D01*
X180344251Y-108178656D01*
X180428779Y-108244985D01*
X180436977Y-108250212D01*
X180444237Y-108256661D01*
X180480257Y-108277807D01*
X180515504Y-108300280D01*
X180524557Y-108303813D01*
X180532935Y-108308732D01*
X180572384Y-108322481D01*
X180611316Y-108337677D01*
X180620883Y-108339385D01*
X180630057Y-108342582D01*
X180637220Y-108344264D01*
X180745612Y-108368920D01*
X180749345Y-108369393D01*
X180752934Y-108370531D01*
X180800380Y-108375853D01*
X180847651Y-108381837D01*
X180851400Y-108381576D01*
X180855145Y-108381996D01*
X180862503Y-108382047D01*
X187687453Y-108382047D01*
X187716666Y-108379183D01*
X187746030Y-108378782D01*
X187753336Y-108377913D01*
X187815810Y-108370041D01*
X187850937Y-108362072D01*
X187886463Y-108356181D01*
X187900988Y-108350717D01*
X187916115Y-108347285D01*
X187949015Y-108332650D01*
X187982729Y-108319967D01*
X187989307Y-108316671D01*
X188085846Y-108267449D01*
X188092331Y-108263299D01*
X188099408Y-108260283D01*
X188135595Y-108235614D01*
X188172479Y-108212011D01*
X188178030Y-108206685D01*
X188184392Y-108202348D01*
X188215101Y-108171117D01*
X188246695Y-108140803D01*
X188251108Y-108134497D01*
X188256503Y-108129010D01*
X188261085Y-108123252D01*
X188327405Y-108038723D01*
X188332620Y-108030542D01*
X188339061Y-108023291D01*
X188360222Y-107987244D01*
X188382693Y-107951994D01*
X188386220Y-107942957D01*
X188391130Y-107934592D01*
X188404885Y-107895125D01*
X188420083Y-107856179D01*
X188421787Y-107846629D01*
X188424979Y-107837470D01*
X188426661Y-107830306D01*
X188451313Y-107721925D01*
X188451785Y-107718193D01*
X188452922Y-107714610D01*
X188458239Y-107667204D01*
X188464229Y-107619886D01*
X188463968Y-107616137D01*
X188464387Y-107612399D01*
X188464438Y-107605041D01*
X188464438Y-104262661D01*
X188772809Y-104262661D01*
X188822184Y-104257820D01*
X188871559Y-104253326D01*
X188873331Y-104252804D01*
X188875171Y-104252624D01*
X188922657Y-104238287D01*
X188970227Y-104224287D01*
X188971865Y-104223431D01*
X188973633Y-104222897D01*
X189017365Y-104199644D01*
X189061375Y-104176636D01*
X189062819Y-104175475D01*
X189064446Y-104174610D01*
X189102821Y-104143312D01*
X189141532Y-104112188D01*
X189142720Y-104110772D01*
X189144151Y-104109605D01*
X189175749Y-104071409D01*
X189207644Y-104033399D01*
X189208534Y-104031780D01*
X189209712Y-104030356D01*
X189233326Y-103986683D01*
X189257193Y-103943268D01*
X189257751Y-103941510D01*
X189258631Y-103939882D01*
X189273305Y-103892478D01*
X189288293Y-103845230D01*
X189288499Y-103843393D01*
X189289045Y-103841629D01*
X189294223Y-103792367D01*
X189299758Y-103743019D01*
X189299783Y-103739467D01*
X189299796Y-103739340D01*
X189299784Y-103739212D01*
X189299809Y-103735661D01*
X189299809Y-98845584D01*
X189294968Y-98796209D01*
X189290474Y-98746834D01*
X189289952Y-98745062D01*
X189289772Y-98743222D01*
X189275435Y-98695736D01*
X189261435Y-98648166D01*
X189260579Y-98646528D01*
X189260045Y-98644760D01*
X189236792Y-98601028D01*
X189213784Y-98557018D01*
X189212623Y-98555574D01*
X189211758Y-98553947D01*
X189180460Y-98515572D01*
X189149336Y-98476861D01*
X189147920Y-98475673D01*
X189146753Y-98474242D01*
X189108557Y-98442644D01*
X189070547Y-98410749D01*
X189068928Y-98409859D01*
X189067504Y-98408681D01*
X189023831Y-98385067D01*
X188980416Y-98361200D01*
X188978658Y-98360642D01*
X188977030Y-98359762D01*
X188929626Y-98345088D01*
X188882378Y-98330100D01*
X188880541Y-98329894D01*
X188878777Y-98329348D01*
X188829515Y-98324170D01*
X188780167Y-98318635D01*
X188776615Y-98318610D01*
X188776488Y-98318597D01*
X188776360Y-98318609D01*
X188772809Y-98318584D01*
X188464438Y-98318584D01*
X188464438Y-94169987D01*
X212520438Y-94169987D01*
X212522988Y-94195878D01*
X212522987Y-108044107D01*
X212520439Y-108069978D01*
X212522987Y-108095851D01*
X212522987Y-108095858D01*
X212530613Y-108173287D01*
X212560748Y-108272627D01*
X212609683Y-108364180D01*
X212675539Y-108444426D01*
X212755785Y-108510282D01*
X212847337Y-108559217D01*
X212946677Y-108589352D01*
X213049987Y-108599527D01*
X213075877Y-108596977D01*
X226924107Y-108597000D01*
X226949979Y-108599548D01*
X226975852Y-108597000D01*
X226975859Y-108597000D01*
X227053288Y-108589374D01*
X227152628Y-108559239D01*
X227244180Y-108510304D01*
X227324426Y-108444448D01*
X227390282Y-108364202D01*
X227439217Y-108272650D01*
X227469352Y-108173310D01*
X227479527Y-108070000D01*
X227476978Y-108044118D01*
X227477000Y-94195869D01*
X227479549Y-94169987D01*
X227469374Y-94066677D01*
X227439239Y-93967337D01*
X227390304Y-93875785D01*
X227324448Y-93795539D01*
X227244202Y-93729683D01*
X227152650Y-93680748D01*
X227053310Y-93650613D01*
X226975881Y-93642987D01*
X226975871Y-93642987D01*
X226950000Y-93640439D01*
X226924127Y-93642987D01*
X213075868Y-93642987D01*
X213049987Y-93640438D01*
X213024106Y-93642987D01*
X212946677Y-93650613D01*
X212847337Y-93680748D01*
X212755785Y-93729683D01*
X212675539Y-93795539D01*
X212609683Y-93875785D01*
X212560748Y-93967337D01*
X212530613Y-94066677D01*
X212520438Y-94169987D01*
X188464438Y-94169987D01*
X188464438Y-93090208D01*
X188462852Y-93074034D01*
X188463440Y-93057792D01*
X188462936Y-93050451D01*
X188457175Y-92974304D01*
X188448723Y-92926008D01*
X188440716Y-92877649D01*
X188439466Y-92873111D01*
X188439445Y-92872991D01*
X188439403Y-92872883D01*
X188438762Y-92870555D01*
X188405232Y-92752075D01*
X188401750Y-92743192D01*
X188399724Y-92733874D01*
X188383010Y-92695377D01*
X188367700Y-92656315D01*
X188362564Y-92648284D01*
X188358763Y-92639530D01*
X188355143Y-92633124D01*
X188295106Y-92528586D01*
X188290393Y-92521971D01*
X188286828Y-92514671D01*
X188260583Y-92480132D01*
X188235424Y-92444820D01*
X188229517Y-92439247D01*
X188224601Y-92432778D01*
X188219561Y-92427417D01*
X188136942Y-92340748D01*
X188130902Y-92335540D01*
X188125800Y-92329407D01*
X188091992Y-92301989D01*
X188059048Y-92273582D01*
X188052113Y-92269647D01*
X188045917Y-92264622D01*
X188039749Y-92260610D01*
X187938474Y-92195738D01*
X187930288Y-92191560D01*
X187922868Y-92186119D01*
X187884525Y-92168200D01*
X187846866Y-92148977D01*
X187838022Y-92146467D01*
X187829689Y-92142573D01*
X187822734Y-92140171D01*
X187706732Y-92101022D01*
X187702716Y-92100091D01*
X187698934Y-92098458D01*
X187652651Y-92088488D01*
X187606535Y-92077800D01*
X187602418Y-92077667D01*
X187598388Y-92076799D01*
X187591072Y-92076010D01*
X187490304Y-92065852D01*
X187467484Y-92065790D01*
X187444805Y-92063246D01*
X187437447Y-92063195D01*
X181112488Y-92063195D01*
X181096313Y-92064781D01*
X181080069Y-92064193D01*
X181072728Y-92064697D01*
X180996587Y-92070458D01*
X180948312Y-92078907D01*
X180899915Y-92086922D01*
X180895393Y-92088168D01*
X180895274Y-92088189D01*
X180895166Y-92088231D01*
X180892821Y-92088877D01*
X180774349Y-92122410D01*
X180765472Y-92125890D01*
X180756142Y-92127919D01*
X180717632Y-92144641D01*
X180678589Y-92159945D01*
X180670555Y-92165084D01*
X180661801Y-92168885D01*
X180655395Y-92172506D01*
X180550862Y-92232547D01*
X180544250Y-92237259D01*
X180536950Y-92240824D01*
X180502407Y-92267074D01*
X180467099Y-92292233D01*
X180461528Y-92298139D01*
X180455060Y-92303054D01*
X180449699Y-92308094D01*
X180363032Y-92390718D01*
X180357826Y-92396756D01*
X180351696Y-92401856D01*
X180324283Y-92435660D01*
X180295869Y-92468615D01*
X180291935Y-92475550D01*
X180286913Y-92481742D01*
X180282901Y-92487910D01*
X180218030Y-92589189D01*
X180213852Y-92597375D01*
X180208416Y-92604789D01*
X180190497Y-92643133D01*
X180171272Y-92680799D01*
X180168764Y-92689637D01*
X180164871Y-92697968D01*
X180162470Y-92704923D01*
X180123322Y-92820929D01*
X180122393Y-92824939D01*
X180120760Y-92828720D01*
X180110788Y-92875013D01*
X180100101Y-92921126D01*
X180099968Y-92925240D01*
X180099101Y-92929266D01*
X180098312Y-92936582D01*
X180088154Y-93037352D01*
X180088092Y-93060171D01*
X180085548Y-93082850D01*
X180085497Y-93090208D01*
X180085497Y-98318584D01*
X179777148Y-98318584D01*
X179727773Y-98323425D01*
X179678398Y-98327919D01*
X179676626Y-98328441D01*
X179674786Y-98328621D01*
X179627300Y-98342958D01*
X179579730Y-98356958D01*
X179578092Y-98357814D01*
X179576324Y-98358348D01*
X179532592Y-98381601D01*
X179488582Y-98404609D01*
X179487138Y-98405770D01*
X179485511Y-98406635D01*
X179447136Y-98437933D01*
X179408425Y-98469057D01*
X179407237Y-98470473D01*
X179405806Y-98471640D01*
X179374208Y-98509836D01*
X179342313Y-98547846D01*
X179341423Y-98549465D01*
X179340245Y-98550889D01*
X179316631Y-98594562D01*
X179292764Y-98637977D01*
X179292206Y-98639735D01*
X179291326Y-98641363D01*
X179276652Y-98688767D01*
X179261664Y-98736015D01*
X179261458Y-98737852D01*
X179260912Y-98739616D01*
X179255734Y-98788878D01*
X179250199Y-98838226D01*
X179250174Y-98841778D01*
X179250161Y-98841905D01*
X179250173Y-98842033D01*
X179250148Y-98845584D01*
X141752014Y-98845584D01*
X141752022Y-94195869D01*
X141754571Y-94169987D01*
X141744396Y-94066677D01*
X141714261Y-93967337D01*
X141665326Y-93875785D01*
X141599470Y-93795539D01*
X141519224Y-93729683D01*
X141427672Y-93680748D01*
X141328332Y-93650613D01*
X141250903Y-93642987D01*
X141250893Y-93642987D01*
X141225022Y-93640439D01*
X141199149Y-93642987D01*
X127350902Y-93642987D01*
X127325031Y-93640439D01*
X127299158Y-93642987D01*
X127299150Y-93642987D01*
X127221721Y-93650613D01*
X127122381Y-93680748D01*
X127030829Y-93729683D01*
X126950583Y-93795539D01*
X126884727Y-93875785D01*
X126835792Y-93967337D01*
X126805657Y-94066677D01*
X126795482Y-94169987D01*
X126798032Y-94195877D01*
X126798009Y-108044106D01*
X126795461Y-108069978D01*
X88286097Y-108069978D01*
X88310611Y-108038735D01*
X88315831Y-108030546D01*
X88322276Y-108023291D01*
X88343437Y-107987244D01*
X88365901Y-107952007D01*
X88369430Y-107942965D01*
X88374345Y-107934592D01*
X88388099Y-107895127D01*
X88403294Y-107856193D01*
X88405000Y-107846636D01*
X88408194Y-107837470D01*
X88409876Y-107830306D01*
X88434528Y-107721925D01*
X88435000Y-107718193D01*
X88436137Y-107714610D01*
X88441454Y-107667204D01*
X88447444Y-107619886D01*
X88447183Y-107616137D01*
X88447602Y-107612399D01*
X88447653Y-107605041D01*
X88447653Y-104262661D01*
X88756002Y-104262661D01*
X88805377Y-104257820D01*
X88854752Y-104253326D01*
X88856524Y-104252804D01*
X88858364Y-104252624D01*
X88905850Y-104238287D01*
X88953420Y-104224287D01*
X88955058Y-104223431D01*
X88956826Y-104222897D01*
X89000558Y-104199644D01*
X89044568Y-104176636D01*
X89046012Y-104175475D01*
X89047639Y-104174610D01*
X89086014Y-104143312D01*
X89124725Y-104112188D01*
X89125913Y-104110772D01*
X89127344Y-104109605D01*
X89158942Y-104071409D01*
X89190837Y-104033399D01*
X89191727Y-104031780D01*
X89192905Y-104030356D01*
X89216519Y-103986683D01*
X89240386Y-103943268D01*
X89240944Y-103941510D01*
X89241824Y-103939882D01*
X89256498Y-103892478D01*
X89271486Y-103845230D01*
X89271692Y-103843393D01*
X89272238Y-103841629D01*
X89277416Y-103792367D01*
X89282951Y-103743019D01*
X89282976Y-103739467D01*
X89282989Y-103739340D01*
X89282977Y-103739212D01*
X89283002Y-103735661D01*
X89283002Y-98845584D01*
X89278161Y-98796209D01*
X89273667Y-98746834D01*
X89273145Y-98745062D01*
X89272965Y-98743222D01*
X89258628Y-98695736D01*
X89244628Y-98648166D01*
X89243772Y-98646528D01*
X89243238Y-98644760D01*
X89219985Y-98601028D01*
X89196977Y-98557018D01*
X89195816Y-98555574D01*
X89194951Y-98553947D01*
X89163653Y-98515572D01*
X89132529Y-98476861D01*
X89131113Y-98475673D01*
X89129946Y-98474242D01*
X89091750Y-98442644D01*
X89053740Y-98410749D01*
X89052121Y-98409859D01*
X89050697Y-98408681D01*
X89007024Y-98385067D01*
X88963609Y-98361200D01*
X88961851Y-98360642D01*
X88960223Y-98359762D01*
X88912819Y-98345088D01*
X88865571Y-98330100D01*
X88863734Y-98329894D01*
X88861970Y-98329348D01*
X88812708Y-98324170D01*
X88763360Y-98318635D01*
X88759808Y-98318610D01*
X88759681Y-98318597D01*
X88759553Y-98318609D01*
X88756002Y-98318584D01*
X88447653Y-98318584D01*
X88447653Y-93090208D01*
X88446067Y-93074033D01*
X88446655Y-93057785D01*
X88446151Y-93050444D01*
X88440389Y-92974297D01*
X88431936Y-92926000D01*
X88423928Y-92877641D01*
X88422678Y-92873103D01*
X88422657Y-92872984D01*
X88422615Y-92872877D01*
X88421974Y-92870548D01*
X88388442Y-92752067D01*
X88384960Y-92743183D01*
X88382932Y-92733859D01*
X88366219Y-92695368D01*
X88350909Y-92656307D01*
X88345769Y-92648270D01*
X88341968Y-92639517D01*
X88338347Y-92633111D01*
X88278307Y-92528573D01*
X88273594Y-92521959D01*
X88270032Y-92514665D01*
X88243783Y-92480120D01*
X88218622Y-92444809D01*
X88212721Y-92439242D01*
X88207805Y-92432773D01*
X88202765Y-92427412D01*
X88120144Y-92340743D01*
X88114104Y-92335535D01*
X88109005Y-92329406D01*
X88075202Y-92301992D01*
X88042249Y-92273578D01*
X88035317Y-92269645D01*
X88029121Y-92264620D01*
X88022953Y-92260609D01*
X87921677Y-92195736D01*
X87913490Y-92191557D01*
X87906076Y-92186121D01*
X87867739Y-92168204D01*
X87830069Y-92148976D01*
X87821229Y-92146468D01*
X87812898Y-92142574D01*
X87805943Y-92140173D01*
X87689944Y-92101024D01*
X87685931Y-92100094D01*
X87682145Y-92098459D01*
X87635848Y-92088486D01*
X87589747Y-92077801D01*
X87585629Y-92077668D01*
X87581599Y-92076800D01*
X87574284Y-92076011D01*
X87473522Y-92065853D01*
X87450706Y-92065791D01*
X87428020Y-92063246D01*
X87420662Y-92063195D01*
X81095703Y-92063195D01*
X81079528Y-92064781D01*
X81063286Y-92064193D01*
X81055946Y-92064697D01*
X80979799Y-92070458D01*
X80931527Y-92078906D01*
X80883130Y-92086921D01*
X80878597Y-92088170D01*
X80878486Y-92088189D01*
X80878385Y-92088228D01*
X80876036Y-92088875D01*
X80757559Y-92122408D01*
X80748673Y-92125891D01*
X80739350Y-92127919D01*
X80700853Y-92144635D01*
X80661800Y-92159943D01*
X80653766Y-92165081D01*
X80645009Y-92168884D01*
X80638603Y-92172505D01*
X80534069Y-92232546D01*
X80527452Y-92237261D01*
X80520147Y-92240829D01*
X80485604Y-92267080D01*
X80450305Y-92292232D01*
X80444731Y-92298141D01*
X80438258Y-92303060D01*
X80432897Y-92308100D01*
X80346233Y-92390724D01*
X80341021Y-92396769D01*
X80334894Y-92401867D01*
X80307495Y-92435655D01*
X80279072Y-92468622D01*
X80275136Y-92475560D01*
X80270113Y-92481754D01*
X80266101Y-92487922D01*
X80201234Y-92589201D01*
X80197057Y-92597386D01*
X80191624Y-92604796D01*
X80173705Y-92643140D01*
X80154479Y-92680812D01*
X80151973Y-92689646D01*
X80148080Y-92697976D01*
X80145679Y-92704932D01*
X80106533Y-92820937D01*
X80105604Y-92824945D01*
X80103972Y-92828725D01*
X80093996Y-92875037D01*
X80083314Y-92921134D01*
X80083181Y-92925244D01*
X80082314Y-92929271D01*
X80081526Y-92936587D01*
X80071369Y-93037357D01*
X80071307Y-93060169D01*
X80068763Y-93082850D01*
X80068712Y-93090208D01*
X80068712Y-98318584D01*
X79760341Y-98318584D01*
X79710966Y-98323425D01*
X79661591Y-98327919D01*
X79659819Y-98328441D01*
X79657979Y-98328621D01*
X79610493Y-98342958D01*
X79562923Y-98356958D01*
X79561285Y-98357814D01*
X79559517Y-98358348D01*
X79515785Y-98381601D01*
X79471775Y-98404609D01*
X79470331Y-98405770D01*
X79468704Y-98406635D01*
X79430329Y-98437933D01*
X79391618Y-98469057D01*
X79390430Y-98470473D01*
X79388999Y-98471640D01*
X79357401Y-98509836D01*
X79325506Y-98547846D01*
X79324616Y-98549465D01*
X79323438Y-98550889D01*
X79299824Y-98594562D01*
X79275957Y-98637977D01*
X79275399Y-98639735D01*
X79274519Y-98641363D01*
X79259845Y-98688767D01*
X79244857Y-98736015D01*
X79244651Y-98737852D01*
X79244105Y-98739616D01*
X79238927Y-98788878D01*
X79233392Y-98838226D01*
X79233367Y-98841778D01*
X79233354Y-98841905D01*
X79233366Y-98842033D01*
X79233341Y-98845584D01*
X56027057Y-98845584D01*
X56027065Y-94195869D01*
X56029614Y-94169987D01*
X56019439Y-94066677D01*
X55989304Y-93967337D01*
X55940369Y-93875785D01*
X55874513Y-93795539D01*
X55794267Y-93729683D01*
X55702715Y-93680748D01*
X55603375Y-93650613D01*
X55525946Y-93642987D01*
X55525936Y-93642987D01*
X55500065Y-93640439D01*
X55474192Y-93642987D01*
X41625945Y-93642987D01*
X41600074Y-93640439D01*
X41574201Y-93642987D01*
X41574193Y-93642987D01*
X41496764Y-93650613D01*
X41397424Y-93680748D01*
X41305872Y-93729683D01*
X41225626Y-93795539D01*
X41159770Y-93875785D01*
X41110835Y-93967337D01*
X41080700Y-94066677D01*
X41070525Y-94169987D01*
X41073075Y-94195877D01*
X41073052Y-108044106D01*
X41070504Y-108069978D01*
X33552038Y-108069978D01*
X33552038Y-89019978D01*
X41070504Y-89019978D01*
X41073052Y-89045851D01*
X41073052Y-89045858D01*
X41080678Y-89123287D01*
X41110813Y-89222627D01*
X41159748Y-89314179D01*
X41225604Y-89394425D01*
X41305850Y-89460281D01*
X41397402Y-89509216D01*
X41496742Y-89539351D01*
X41600052Y-89549526D01*
X41625934Y-89546977D01*
X55474171Y-89547000D01*
X55500043Y-89549548D01*
X55525916Y-89547000D01*
X55525923Y-89547000D01*
X55603352Y-89539374D01*
X55702692Y-89509239D01*
X55794244Y-89460304D01*
X55874490Y-89394448D01*
X55940346Y-89314202D01*
X55989281Y-89222650D01*
X56019416Y-89123310D01*
X56029591Y-89020000D01*
X56027042Y-88994118D01*
X56027065Y-75145869D01*
X56029614Y-75119987D01*
X60120503Y-75119987D01*
X60123053Y-75145878D01*
X60123052Y-88994107D01*
X60120504Y-89019978D01*
X60123052Y-89045851D01*
X60123052Y-89045858D01*
X60130678Y-89123287D01*
X60160813Y-89222627D01*
X60209748Y-89314180D01*
X60275604Y-89394426D01*
X60355850Y-89460282D01*
X60447402Y-89509217D01*
X60546742Y-89539352D01*
X60650052Y-89549527D01*
X60675942Y-89546977D01*
X74524171Y-89547000D01*
X74550043Y-89549548D01*
X74575916Y-89547000D01*
X74575923Y-89547000D01*
X74653352Y-89539374D01*
X74752692Y-89509239D01*
X74844244Y-89460304D01*
X74924490Y-89394448D01*
X74990346Y-89314202D01*
X75039281Y-89222650D01*
X75069416Y-89123310D01*
X75079591Y-89020000D01*
X75079589Y-89019978D01*
X79170483Y-89019978D01*
X79173031Y-89045851D01*
X79173031Y-89045858D01*
X79180657Y-89123287D01*
X79210792Y-89222627D01*
X79259727Y-89314179D01*
X79325583Y-89394425D01*
X79405829Y-89460281D01*
X79497381Y-89509216D01*
X79596721Y-89539351D01*
X79700031Y-89549526D01*
X79725913Y-89546977D01*
X93574162Y-89547000D01*
X93600043Y-89549549D01*
X93703353Y-89539374D01*
X93802693Y-89509239D01*
X93894245Y-89460304D01*
X93974491Y-89394448D01*
X94040347Y-89314202D01*
X94089282Y-89222650D01*
X94119417Y-89123310D01*
X94127043Y-89045881D01*
X94127043Y-89045871D01*
X94129591Y-89020000D01*
X94129589Y-89019978D01*
X98220483Y-89019978D01*
X98223031Y-89045851D01*
X98223031Y-89045858D01*
X98230657Y-89123287D01*
X98260792Y-89222627D01*
X98309727Y-89314179D01*
X98375583Y-89394425D01*
X98455829Y-89460281D01*
X98547381Y-89509216D01*
X98646721Y-89539351D01*
X98750031Y-89549526D01*
X98775913Y-89546977D01*
X112624150Y-89547000D01*
X112650022Y-89549548D01*
X112675895Y-89547000D01*
X112675902Y-89547000D01*
X112753331Y-89539374D01*
X112852671Y-89509239D01*
X112944223Y-89460304D01*
X113024469Y-89394448D01*
X113090325Y-89314202D01*
X113139260Y-89222650D01*
X113169395Y-89123310D01*
X113179570Y-89020000D01*
X113177021Y-88994118D01*
X113177043Y-75145869D01*
X113179592Y-75119987D01*
X117270482Y-75119987D01*
X117273032Y-75145878D01*
X117273031Y-88994107D01*
X117270483Y-89019978D01*
X117273031Y-89045851D01*
X117273031Y-89045858D01*
X117280657Y-89123287D01*
X117310792Y-89222627D01*
X117359727Y-89314180D01*
X117425583Y-89394426D01*
X117505829Y-89460282D01*
X117597381Y-89509217D01*
X117696721Y-89539352D01*
X117800031Y-89549527D01*
X117825921Y-89546977D01*
X131674150Y-89547000D01*
X131700022Y-89549548D01*
X131725895Y-89547000D01*
X131725902Y-89547000D01*
X131803331Y-89539374D01*
X131902671Y-89509239D01*
X131994223Y-89460304D01*
X132074469Y-89394448D01*
X132140325Y-89314202D01*
X132189260Y-89222650D01*
X132219395Y-89123310D01*
X132229570Y-89020000D01*
X132229568Y-89019978D01*
X136320461Y-89019978D01*
X136323009Y-89045851D01*
X136323009Y-89045858D01*
X136330635Y-89123287D01*
X136360770Y-89222627D01*
X136409705Y-89314179D01*
X136475561Y-89394425D01*
X136555807Y-89460281D01*
X136647359Y-89509216D01*
X136746699Y-89539351D01*
X136850009Y-89549526D01*
X136875891Y-89546977D01*
X150724141Y-89547000D01*
X150750022Y-89549549D01*
X150853332Y-89539374D01*
X150952672Y-89509239D01*
X151044224Y-89460304D01*
X151124470Y-89394448D01*
X151190326Y-89314202D01*
X151239261Y-89222650D01*
X151269396Y-89123310D01*
X151277022Y-89045881D01*
X151277022Y-89045871D01*
X151279570Y-89020000D01*
X151279568Y-89019978D01*
X155370461Y-89019978D01*
X155373009Y-89045851D01*
X155373009Y-89045858D01*
X155380635Y-89123287D01*
X155410770Y-89222627D01*
X155459705Y-89314179D01*
X155525561Y-89394425D01*
X155605807Y-89460281D01*
X155697359Y-89509216D01*
X155796699Y-89539351D01*
X155900009Y-89549526D01*
X155925891Y-89546977D01*
X169774128Y-89547000D01*
X169800000Y-89549548D01*
X169825873Y-89547000D01*
X169825880Y-89547000D01*
X169903309Y-89539374D01*
X170002649Y-89509239D01*
X170094201Y-89460304D01*
X170174447Y-89394448D01*
X170240303Y-89314202D01*
X170289238Y-89222650D01*
X170319373Y-89123310D01*
X170329548Y-89020000D01*
X170326999Y-88994118D01*
X170327022Y-75145869D01*
X170329571Y-75119987D01*
X174420460Y-75119987D01*
X174423010Y-75145878D01*
X174423009Y-88994107D01*
X174420461Y-89019978D01*
X174423009Y-89045851D01*
X174423009Y-89045858D01*
X174430635Y-89123287D01*
X174460770Y-89222627D01*
X174509705Y-89314180D01*
X174575561Y-89394426D01*
X174655807Y-89460282D01*
X174747359Y-89509217D01*
X174846699Y-89539352D01*
X174950009Y-89549527D01*
X174975899Y-89546977D01*
X188824128Y-89547000D01*
X188850000Y-89549548D01*
X188875873Y-89547000D01*
X188875880Y-89547000D01*
X188953309Y-89539374D01*
X189052649Y-89509239D01*
X189144201Y-89460304D01*
X189224447Y-89394448D01*
X189290303Y-89314202D01*
X189339238Y-89222650D01*
X189369373Y-89123310D01*
X189379548Y-89020000D01*
X189379546Y-89019978D01*
X193470439Y-89019978D01*
X193472987Y-89045851D01*
X193472987Y-89045858D01*
X193480613Y-89123287D01*
X193510748Y-89222627D01*
X193559683Y-89314179D01*
X193625539Y-89394425D01*
X193705785Y-89460281D01*
X193797337Y-89509216D01*
X193896677Y-89539351D01*
X193999987Y-89549526D01*
X194025869Y-89546977D01*
X207874119Y-89547000D01*
X207900000Y-89549549D01*
X208003310Y-89539374D01*
X208102650Y-89509239D01*
X208194202Y-89460304D01*
X208274448Y-89394448D01*
X208340304Y-89314202D01*
X208389239Y-89222650D01*
X208419374Y-89123310D01*
X208427000Y-89045881D01*
X208427000Y-89045871D01*
X208429548Y-89020000D01*
X208427000Y-88994127D01*
X208427000Y-75145868D01*
X208429549Y-75119987D01*
X212520438Y-75119987D01*
X212522988Y-75145878D01*
X212522987Y-88994107D01*
X212520439Y-89019978D01*
X212522987Y-89045851D01*
X212522987Y-89045858D01*
X212530613Y-89123287D01*
X212560748Y-89222627D01*
X212609683Y-89314180D01*
X212675539Y-89394426D01*
X212755785Y-89460282D01*
X212847337Y-89509217D01*
X212946677Y-89539352D01*
X213049987Y-89549527D01*
X213075877Y-89546977D01*
X226924107Y-89547000D01*
X226949979Y-89549548D01*
X226975852Y-89547000D01*
X226975859Y-89547000D01*
X227053288Y-89539374D01*
X227152628Y-89509239D01*
X227244180Y-89460304D01*
X227324426Y-89394448D01*
X227390282Y-89314202D01*
X227439217Y-89222650D01*
X227469352Y-89123310D01*
X227479527Y-89020000D01*
X227476978Y-88994118D01*
X227477000Y-75145869D01*
X227479549Y-75119987D01*
X227469374Y-75016677D01*
X227439239Y-74917337D01*
X227390304Y-74825785D01*
X227324448Y-74745539D01*
X227244202Y-74679683D01*
X227152650Y-74630748D01*
X227053310Y-74600613D01*
X226975881Y-74592987D01*
X226975871Y-74592987D01*
X226950000Y-74590439D01*
X226924127Y-74592987D01*
X213075868Y-74592987D01*
X213049987Y-74590438D01*
X213024106Y-74592987D01*
X212946677Y-74600613D01*
X212847337Y-74630748D01*
X212755785Y-74679683D01*
X212675539Y-74745539D01*
X212609683Y-74825785D01*
X212560748Y-74917337D01*
X212530613Y-75016677D01*
X212520438Y-75119987D01*
X208429549Y-75119987D01*
X208419374Y-75016677D01*
X208389239Y-74917337D01*
X208340304Y-74825785D01*
X208274448Y-74745539D01*
X208194202Y-74679683D01*
X208102650Y-74630748D01*
X208003310Y-74600613D01*
X207925881Y-74592987D01*
X207900000Y-74590438D01*
X207874119Y-74592987D01*
X194025880Y-74592987D01*
X194000009Y-74590439D01*
X193974136Y-74592987D01*
X193974128Y-74592987D01*
X193896699Y-74600613D01*
X193797359Y-74630748D01*
X193705807Y-74679683D01*
X193625561Y-74745539D01*
X193559705Y-74825785D01*
X193510770Y-74917337D01*
X193480635Y-75016677D01*
X193470460Y-75119987D01*
X193473010Y-75145877D01*
X193472987Y-88994106D01*
X193470439Y-89019978D01*
X189379546Y-89019978D01*
X189376999Y-88994118D01*
X189377022Y-75145869D01*
X189379571Y-75119987D01*
X189369396Y-75016677D01*
X189339261Y-74917337D01*
X189290326Y-74825785D01*
X189224470Y-74745539D01*
X189144224Y-74679683D01*
X189052672Y-74630748D01*
X188953332Y-74600613D01*
X188875903Y-74592987D01*
X188875893Y-74592987D01*
X188850022Y-74590439D01*
X188824149Y-74592987D01*
X174975890Y-74592987D01*
X174950009Y-74590438D01*
X174924128Y-74592987D01*
X174846699Y-74600613D01*
X174747359Y-74630748D01*
X174655807Y-74679683D01*
X174575561Y-74745539D01*
X174509705Y-74825785D01*
X174460770Y-74917337D01*
X174430635Y-75016677D01*
X174420460Y-75119987D01*
X170329571Y-75119987D01*
X170319396Y-75016677D01*
X170289261Y-74917337D01*
X170240326Y-74825785D01*
X170174470Y-74745539D01*
X170094224Y-74679683D01*
X170002672Y-74630748D01*
X169903332Y-74600613D01*
X169825903Y-74592987D01*
X169825893Y-74592987D01*
X169800022Y-74590439D01*
X169774149Y-74592987D01*
X155925902Y-74592987D01*
X155900031Y-74590439D01*
X155874158Y-74592987D01*
X155874150Y-74592987D01*
X155796721Y-74600613D01*
X155697381Y-74630748D01*
X155605829Y-74679683D01*
X155525583Y-74745539D01*
X155459727Y-74825785D01*
X155410792Y-74917337D01*
X155380657Y-75016677D01*
X155370482Y-75119987D01*
X155373032Y-75145877D01*
X155373009Y-88994106D01*
X155370461Y-89019978D01*
X151279568Y-89019978D01*
X151277022Y-88994127D01*
X151277022Y-75145868D01*
X151279571Y-75119987D01*
X151269396Y-75016677D01*
X151239261Y-74917337D01*
X151190326Y-74825785D01*
X151124470Y-74745539D01*
X151044224Y-74679683D01*
X150952672Y-74630748D01*
X150853332Y-74600613D01*
X150775903Y-74592987D01*
X150750022Y-74590438D01*
X150724141Y-74592987D01*
X136875902Y-74592987D01*
X136850031Y-74590439D01*
X136824158Y-74592987D01*
X136824150Y-74592987D01*
X136746721Y-74600613D01*
X136647381Y-74630748D01*
X136555829Y-74679683D01*
X136475583Y-74745539D01*
X136409727Y-74825785D01*
X136360792Y-74917337D01*
X136330657Y-75016677D01*
X136320482Y-75119987D01*
X136323032Y-75145877D01*
X136323009Y-88994106D01*
X136320461Y-89019978D01*
X132229568Y-89019978D01*
X132227021Y-88994118D01*
X132227043Y-75145869D01*
X132229592Y-75119987D01*
X132219417Y-75016677D01*
X132189282Y-74917337D01*
X132140347Y-74825785D01*
X132074491Y-74745539D01*
X131994245Y-74679683D01*
X131902693Y-74630748D01*
X131803353Y-74600613D01*
X131725924Y-74592987D01*
X131725914Y-74592987D01*
X131700043Y-74590439D01*
X131674170Y-74592987D01*
X117825912Y-74592987D01*
X117800031Y-74590438D01*
X117774150Y-74592987D01*
X117696721Y-74600613D01*
X117597381Y-74630748D01*
X117505829Y-74679683D01*
X117425583Y-74745539D01*
X117359727Y-74825785D01*
X117310792Y-74917337D01*
X117280657Y-75016677D01*
X117270482Y-75119987D01*
X113179592Y-75119987D01*
X113169417Y-75016677D01*
X113139282Y-74917337D01*
X113090347Y-74825785D01*
X113024491Y-74745539D01*
X112944245Y-74679683D01*
X112852693Y-74630748D01*
X112753353Y-74600613D01*
X112675924Y-74592987D01*
X112675914Y-74592987D01*
X112650043Y-74590439D01*
X112624170Y-74592987D01*
X98775923Y-74592987D01*
X98750052Y-74590439D01*
X98724179Y-74592987D01*
X98724171Y-74592987D01*
X98646742Y-74600613D01*
X98547402Y-74630748D01*
X98455850Y-74679683D01*
X98375604Y-74745539D01*
X98309748Y-74825785D01*
X98260813Y-74917337D01*
X98230678Y-75016677D01*
X98220503Y-75119987D01*
X98223053Y-75145877D01*
X98223031Y-88994107D01*
X98220483Y-89019978D01*
X94129589Y-89019978D01*
X94127043Y-88994127D01*
X94127043Y-75145868D01*
X94129592Y-75119987D01*
X94119417Y-75016677D01*
X94089282Y-74917337D01*
X94040347Y-74825785D01*
X93974491Y-74745539D01*
X93894245Y-74679683D01*
X93802693Y-74630748D01*
X93703353Y-74600613D01*
X93625924Y-74592987D01*
X93600043Y-74590438D01*
X93574162Y-74592987D01*
X79725923Y-74592987D01*
X79700052Y-74590439D01*
X79674179Y-74592987D01*
X79674171Y-74592987D01*
X79596742Y-74600613D01*
X79497402Y-74630748D01*
X79405850Y-74679683D01*
X79325604Y-74745539D01*
X79259748Y-74825785D01*
X79210813Y-74917337D01*
X79180678Y-75016677D01*
X79170503Y-75119987D01*
X79173053Y-75145877D01*
X79173031Y-88994107D01*
X79170483Y-89019978D01*
X75079589Y-89019978D01*
X75077042Y-88994118D01*
X75077065Y-75145869D01*
X75079614Y-75119987D01*
X75069439Y-75016677D01*
X75039304Y-74917337D01*
X74990369Y-74825785D01*
X74924513Y-74745539D01*
X74844267Y-74679683D01*
X74752715Y-74630748D01*
X74653375Y-74600613D01*
X74575946Y-74592987D01*
X74575936Y-74592987D01*
X74550065Y-74590439D01*
X74524192Y-74592987D01*
X60675933Y-74592987D01*
X60650052Y-74590438D01*
X60624171Y-74592987D01*
X60546742Y-74600613D01*
X60447402Y-74630748D01*
X60355850Y-74679683D01*
X60275604Y-74745539D01*
X60209748Y-74825785D01*
X60160813Y-74917337D01*
X60130678Y-75016677D01*
X60120503Y-75119987D01*
X56029614Y-75119987D01*
X56019439Y-75016677D01*
X55989304Y-74917337D01*
X55940369Y-74825785D01*
X55874513Y-74745539D01*
X55794267Y-74679683D01*
X55702715Y-74630748D01*
X55603375Y-74600613D01*
X55525946Y-74592987D01*
X55525936Y-74592987D01*
X55500065Y-74590439D01*
X55474192Y-74592987D01*
X41625945Y-74592987D01*
X41600074Y-74590439D01*
X41574201Y-74592987D01*
X41574193Y-74592987D01*
X41496764Y-74600613D01*
X41397424Y-74630748D01*
X41305872Y-74679683D01*
X41225626Y-74745539D01*
X41159770Y-74825785D01*
X41110835Y-74917337D01*
X41080700Y-75016677D01*
X41070525Y-75119987D01*
X41073075Y-75145877D01*
X41073052Y-88994106D01*
X41070504Y-89019978D01*
X33552038Y-89019978D01*
X33552038Y-72394679D01*
X34953000Y-72394679D01*
X34953000Y-72705321D01*
X35013604Y-73009994D01*
X35132481Y-73296989D01*
X35305064Y-73555279D01*
X35524721Y-73774936D01*
X35783011Y-73947519D01*
X36070006Y-74066396D01*
X36374679Y-74127000D01*
X36685321Y-74127000D01*
X36989994Y-74066396D01*
X37276989Y-73947519D01*
X37535279Y-73774936D01*
X37754936Y-73555279D01*
X37927519Y-73296989D01*
X38046396Y-73009994D01*
X38107000Y-72705321D01*
X38107000Y-72394679D01*
X230453000Y-72394679D01*
X230453000Y-72705321D01*
X230513604Y-73009994D01*
X230632481Y-73296989D01*
X230805064Y-73555279D01*
X231024721Y-73774936D01*
X231283011Y-73947519D01*
X231570006Y-74066396D01*
X231874679Y-74127000D01*
X232185321Y-74127000D01*
X232489994Y-74066396D01*
X232776989Y-73947519D01*
X233035279Y-73774936D01*
X233254936Y-73555279D01*
X233427519Y-73296989D01*
X233546396Y-73009994D01*
X233607000Y-72705321D01*
X233607000Y-72394679D01*
X233546396Y-72090006D01*
X233427519Y-71803011D01*
X233254936Y-71544721D01*
X233035279Y-71325064D01*
X232776989Y-71152481D01*
X232489994Y-71033604D01*
X232185321Y-70973000D01*
X231874679Y-70973000D01*
X231570006Y-71033604D01*
X231283011Y-71152481D01*
X231024721Y-71325064D01*
X230805064Y-71544721D01*
X230632481Y-71803011D01*
X230513604Y-72090006D01*
X230453000Y-72394679D01*
X38107000Y-72394679D01*
X38046396Y-72090006D01*
X37927519Y-71803011D01*
X37754936Y-71544721D01*
X37535279Y-71325064D01*
X37276989Y-71152481D01*
X36989994Y-71033604D01*
X36685321Y-70973000D01*
X36374679Y-70973000D01*
X36070006Y-71033604D01*
X35783011Y-71152481D01*
X35524721Y-71325064D01*
X35305064Y-71544721D01*
X35132481Y-71803011D01*
X35013604Y-72090006D01*
X34953000Y-72394679D01*
X33552038Y-72394679D01*
X33552038Y-69969978D01*
X41070504Y-69969978D01*
X41073052Y-69995851D01*
X41073052Y-69995858D01*
X41080678Y-70073287D01*
X41110813Y-70172627D01*
X41159748Y-70264179D01*
X41225604Y-70344425D01*
X41305850Y-70410281D01*
X41397402Y-70459216D01*
X41496742Y-70489351D01*
X41600052Y-70499526D01*
X41625934Y-70496977D01*
X55474171Y-70497000D01*
X55500043Y-70499548D01*
X55525916Y-70497000D01*
X55525923Y-70497000D01*
X55603352Y-70489374D01*
X55702692Y-70459239D01*
X55794244Y-70410304D01*
X55874490Y-70344448D01*
X55940346Y-70264202D01*
X55989281Y-70172650D01*
X56019416Y-70073310D01*
X56029591Y-69970000D01*
X56027042Y-69944118D01*
X56027065Y-56095869D01*
X56029614Y-56069987D01*
X60120503Y-56069987D01*
X60123053Y-56095878D01*
X60123052Y-69944107D01*
X60120504Y-69969978D01*
X60123052Y-69995851D01*
X60123052Y-69995858D01*
X60130678Y-70073287D01*
X60160813Y-70172627D01*
X60209748Y-70264180D01*
X60275604Y-70344426D01*
X60355850Y-70410282D01*
X60447402Y-70459217D01*
X60546742Y-70489352D01*
X60650052Y-70499527D01*
X60675942Y-70496977D01*
X74524171Y-70497000D01*
X74550043Y-70499548D01*
X74575916Y-70497000D01*
X74575923Y-70497000D01*
X74653352Y-70489374D01*
X74752692Y-70459239D01*
X74844244Y-70410304D01*
X74924490Y-70344448D01*
X74990346Y-70264202D01*
X75039281Y-70172650D01*
X75069416Y-70073310D01*
X75079591Y-69970000D01*
X75079589Y-69969978D01*
X79170483Y-69969978D01*
X79173031Y-69995851D01*
X79173031Y-69995858D01*
X79180657Y-70073287D01*
X79210792Y-70172627D01*
X79259727Y-70264179D01*
X79325583Y-70344425D01*
X79405829Y-70410281D01*
X79497381Y-70459216D01*
X79596721Y-70489351D01*
X79700031Y-70499526D01*
X79725913Y-70496977D01*
X93574162Y-70497000D01*
X93600043Y-70499549D01*
X93703353Y-70489374D01*
X93802693Y-70459239D01*
X93894245Y-70410304D01*
X93974491Y-70344448D01*
X94040347Y-70264202D01*
X94089282Y-70172650D01*
X94119417Y-70073310D01*
X94127043Y-69995881D01*
X94127043Y-69995871D01*
X94129591Y-69970000D01*
X94129589Y-69969978D01*
X98220483Y-69969978D01*
X98223031Y-69995851D01*
X98223031Y-69995858D01*
X98230657Y-70073287D01*
X98260792Y-70172627D01*
X98309727Y-70264179D01*
X98375583Y-70344425D01*
X98455829Y-70410281D01*
X98547381Y-70459216D01*
X98646721Y-70489351D01*
X98750031Y-70499526D01*
X98775913Y-70496977D01*
X112624150Y-70497000D01*
X112650022Y-70499548D01*
X112675895Y-70497000D01*
X112675902Y-70497000D01*
X112753331Y-70489374D01*
X112852671Y-70459239D01*
X112944223Y-70410304D01*
X113024469Y-70344448D01*
X113090325Y-70264202D01*
X113139260Y-70172650D01*
X113169395Y-70073310D01*
X113179570Y-69970000D01*
X113177021Y-69944118D01*
X113177043Y-56095869D01*
X113179592Y-56069987D01*
X117270482Y-56069987D01*
X117273032Y-56095878D01*
X117273031Y-69944107D01*
X117270483Y-69969978D01*
X117273031Y-69995851D01*
X117273031Y-69995858D01*
X117280657Y-70073287D01*
X117310792Y-70172627D01*
X117359727Y-70264180D01*
X117425583Y-70344426D01*
X117505829Y-70410282D01*
X117597381Y-70459217D01*
X117696721Y-70489352D01*
X117800031Y-70499527D01*
X117825921Y-70496977D01*
X131674150Y-70497000D01*
X131700022Y-70499548D01*
X131725895Y-70497000D01*
X131725902Y-70497000D01*
X131803331Y-70489374D01*
X131902671Y-70459239D01*
X131994223Y-70410304D01*
X132074469Y-70344448D01*
X132140325Y-70264202D01*
X132189260Y-70172650D01*
X132219395Y-70073310D01*
X132229570Y-69970000D01*
X132229568Y-69969978D01*
X136320461Y-69969978D01*
X136323009Y-69995851D01*
X136323009Y-69995858D01*
X136330635Y-70073287D01*
X136360770Y-70172627D01*
X136409705Y-70264179D01*
X136475561Y-70344425D01*
X136555807Y-70410281D01*
X136647359Y-70459216D01*
X136746699Y-70489351D01*
X136850009Y-70499526D01*
X136875891Y-70496977D01*
X150724141Y-70497000D01*
X150750022Y-70499549D01*
X150853332Y-70489374D01*
X150952672Y-70459239D01*
X151044224Y-70410304D01*
X151124470Y-70344448D01*
X151190326Y-70264202D01*
X151239261Y-70172650D01*
X151269396Y-70073310D01*
X151277022Y-69995881D01*
X151277022Y-69995871D01*
X151279570Y-69970000D01*
X151279568Y-69969978D01*
X155370461Y-69969978D01*
X155373009Y-69995851D01*
X155373009Y-69995858D01*
X155380635Y-70073287D01*
X155410770Y-70172627D01*
X155459705Y-70264179D01*
X155525561Y-70344425D01*
X155605807Y-70410281D01*
X155697359Y-70459216D01*
X155796699Y-70489351D01*
X155900009Y-70499526D01*
X155925891Y-70496977D01*
X169774128Y-70497000D01*
X169800000Y-70499548D01*
X169825873Y-70497000D01*
X169825880Y-70497000D01*
X169903309Y-70489374D01*
X170002649Y-70459239D01*
X170094201Y-70410304D01*
X170174447Y-70344448D01*
X170240303Y-70264202D01*
X170289238Y-70172650D01*
X170319373Y-70073310D01*
X170329548Y-69970000D01*
X170326999Y-69944118D01*
X170327022Y-56095869D01*
X170329571Y-56069987D01*
X174420460Y-56069987D01*
X174423010Y-56095878D01*
X174423009Y-69944107D01*
X174420461Y-69969978D01*
X174423009Y-69995851D01*
X174423009Y-69995858D01*
X174430635Y-70073287D01*
X174460770Y-70172627D01*
X174509705Y-70264180D01*
X174575561Y-70344426D01*
X174655807Y-70410282D01*
X174747359Y-70459217D01*
X174846699Y-70489352D01*
X174950009Y-70499527D01*
X174975899Y-70496977D01*
X188824128Y-70497000D01*
X188850000Y-70499548D01*
X188875873Y-70497000D01*
X188875880Y-70497000D01*
X188953309Y-70489374D01*
X189052649Y-70459239D01*
X189144201Y-70410304D01*
X189224447Y-70344448D01*
X189290303Y-70264202D01*
X189339238Y-70172650D01*
X189369373Y-70073310D01*
X189379548Y-69970000D01*
X189379546Y-69969978D01*
X193470439Y-69969978D01*
X193472987Y-69995851D01*
X193472987Y-69995858D01*
X193480613Y-70073287D01*
X193510748Y-70172627D01*
X193559683Y-70264179D01*
X193625539Y-70344425D01*
X193705785Y-70410281D01*
X193797337Y-70459216D01*
X193896677Y-70489351D01*
X193999987Y-70499526D01*
X194025869Y-70496977D01*
X207874119Y-70497000D01*
X207900000Y-70499549D01*
X208003310Y-70489374D01*
X208102650Y-70459239D01*
X208194202Y-70410304D01*
X208274448Y-70344448D01*
X208340304Y-70264202D01*
X208389239Y-70172650D01*
X208419374Y-70073310D01*
X208427000Y-69995881D01*
X208427000Y-69995871D01*
X208429548Y-69970000D01*
X208427000Y-69944127D01*
X208427000Y-56095868D01*
X208429549Y-56069987D01*
X212520438Y-56069987D01*
X212522988Y-56095878D01*
X212522987Y-69944107D01*
X212520439Y-69969978D01*
X212522987Y-69995851D01*
X212522987Y-69995858D01*
X212530613Y-70073287D01*
X212560748Y-70172627D01*
X212609683Y-70264180D01*
X212675539Y-70344426D01*
X212755785Y-70410282D01*
X212847337Y-70459217D01*
X212946677Y-70489352D01*
X213049987Y-70499527D01*
X213075877Y-70496977D01*
X226924107Y-70497000D01*
X226949979Y-70499548D01*
X226975852Y-70497000D01*
X226975859Y-70497000D01*
X227053288Y-70489374D01*
X227152628Y-70459239D01*
X227244180Y-70410304D01*
X227324426Y-70344448D01*
X227390282Y-70264202D01*
X227439217Y-70172650D01*
X227469352Y-70073310D01*
X227479527Y-69970000D01*
X227476978Y-69944118D01*
X227477000Y-56095869D01*
X227479549Y-56069987D01*
X227469374Y-55966677D01*
X227439239Y-55867337D01*
X227390304Y-55775785D01*
X227324448Y-55695539D01*
X227244202Y-55629683D01*
X227152650Y-55580748D01*
X227053310Y-55550613D01*
X226975881Y-55542987D01*
X226975871Y-55542987D01*
X226950000Y-55540439D01*
X226924127Y-55542987D01*
X213075868Y-55542987D01*
X213049987Y-55540438D01*
X213024106Y-55542987D01*
X212946677Y-55550613D01*
X212847337Y-55580748D01*
X212755785Y-55629683D01*
X212675539Y-55695539D01*
X212609683Y-55775785D01*
X212560748Y-55867337D01*
X212530613Y-55966677D01*
X212520438Y-56069987D01*
X208429549Y-56069987D01*
X208419374Y-55966677D01*
X208389239Y-55867337D01*
X208340304Y-55775785D01*
X208274448Y-55695539D01*
X208194202Y-55629683D01*
X208102650Y-55580748D01*
X208003310Y-55550613D01*
X207925881Y-55542987D01*
X207900000Y-55540438D01*
X207874119Y-55542987D01*
X194025880Y-55542987D01*
X194000009Y-55540439D01*
X193974136Y-55542987D01*
X193974128Y-55542987D01*
X193896699Y-55550613D01*
X193797359Y-55580748D01*
X193705807Y-55629683D01*
X193625561Y-55695539D01*
X193559705Y-55775785D01*
X193510770Y-55867337D01*
X193480635Y-55966677D01*
X193470460Y-56069987D01*
X193473010Y-56095877D01*
X193472987Y-69944106D01*
X193470439Y-69969978D01*
X189379546Y-69969978D01*
X189376999Y-69944118D01*
X189377022Y-56095869D01*
X189379571Y-56069987D01*
X189369396Y-55966677D01*
X189339261Y-55867337D01*
X189290326Y-55775785D01*
X189224470Y-55695539D01*
X189144224Y-55629683D01*
X189052672Y-55580748D01*
X188953332Y-55550613D01*
X188875903Y-55542987D01*
X188875893Y-55542987D01*
X188850022Y-55540439D01*
X188824149Y-55542987D01*
X174975890Y-55542987D01*
X174950009Y-55540438D01*
X174924128Y-55542987D01*
X174846699Y-55550613D01*
X174747359Y-55580748D01*
X174655807Y-55629683D01*
X174575561Y-55695539D01*
X174509705Y-55775785D01*
X174460770Y-55867337D01*
X174430635Y-55966677D01*
X174420460Y-56069987D01*
X170329571Y-56069987D01*
X170319396Y-55966677D01*
X170289261Y-55867337D01*
X170240326Y-55775785D01*
X170174470Y-55695539D01*
X170094224Y-55629683D01*
X170002672Y-55580748D01*
X169903332Y-55550613D01*
X169825903Y-55542987D01*
X169825893Y-55542987D01*
X169800022Y-55540439D01*
X169774149Y-55542987D01*
X155925902Y-55542987D01*
X155900031Y-55540439D01*
X155874158Y-55542987D01*
X155874150Y-55542987D01*
X155796721Y-55550613D01*
X155697381Y-55580748D01*
X155605829Y-55629683D01*
X155525583Y-55695539D01*
X155459727Y-55775785D01*
X155410792Y-55867337D01*
X155380657Y-55966677D01*
X155370482Y-56069987D01*
X155373032Y-56095877D01*
X155373009Y-69944106D01*
X155370461Y-69969978D01*
X151279568Y-69969978D01*
X151277022Y-69944127D01*
X151277022Y-56095868D01*
X151279571Y-56069987D01*
X151269396Y-55966677D01*
X151239261Y-55867337D01*
X151190326Y-55775785D01*
X151124470Y-55695539D01*
X151044224Y-55629683D01*
X150952672Y-55580748D01*
X150853332Y-55550613D01*
X150775903Y-55542987D01*
X150750022Y-55540438D01*
X150724141Y-55542987D01*
X136875902Y-55542987D01*
X136850031Y-55540439D01*
X136824158Y-55542987D01*
X136824150Y-55542987D01*
X136746721Y-55550613D01*
X136647381Y-55580748D01*
X136555829Y-55629683D01*
X136475583Y-55695539D01*
X136409727Y-55775785D01*
X136360792Y-55867337D01*
X136330657Y-55966677D01*
X136320482Y-56069987D01*
X136323032Y-56095877D01*
X136323009Y-69944106D01*
X136320461Y-69969978D01*
X132229568Y-69969978D01*
X132227021Y-69944118D01*
X132227043Y-56095869D01*
X132229592Y-56069987D01*
X132219417Y-55966677D01*
X132189282Y-55867337D01*
X132140347Y-55775785D01*
X132074491Y-55695539D01*
X131994245Y-55629683D01*
X131902693Y-55580748D01*
X131803353Y-55550613D01*
X131725924Y-55542987D01*
X131725914Y-55542987D01*
X131700043Y-55540439D01*
X131674170Y-55542987D01*
X117825912Y-55542987D01*
X117800031Y-55540438D01*
X117774150Y-55542987D01*
X117696721Y-55550613D01*
X117597381Y-55580748D01*
X117505829Y-55629683D01*
X117425583Y-55695539D01*
X117359727Y-55775785D01*
X117310792Y-55867337D01*
X117280657Y-55966677D01*
X117270482Y-56069987D01*
X113179592Y-56069987D01*
X113169417Y-55966677D01*
X113139282Y-55867337D01*
X113090347Y-55775785D01*
X113024491Y-55695539D01*
X112944245Y-55629683D01*
X112852693Y-55580748D01*
X112753353Y-55550613D01*
X112675924Y-55542987D01*
X112675914Y-55542987D01*
X112650043Y-55540439D01*
X112624170Y-55542987D01*
X98775923Y-55542987D01*
X98750052Y-55540439D01*
X98724179Y-55542987D01*
X98724171Y-55542987D01*
X98646742Y-55550613D01*
X98547402Y-55580748D01*
X98455850Y-55629683D01*
X98375604Y-55695539D01*
X98309748Y-55775785D01*
X98260813Y-55867337D01*
X98230678Y-55966677D01*
X98220503Y-56069987D01*
X98223053Y-56095877D01*
X98223031Y-69944107D01*
X98220483Y-69969978D01*
X94129589Y-69969978D01*
X94127043Y-69944127D01*
X94127043Y-56095868D01*
X94129592Y-56069987D01*
X94119417Y-55966677D01*
X94089282Y-55867337D01*
X94040347Y-55775785D01*
X93974491Y-55695539D01*
X93894245Y-55629683D01*
X93802693Y-55580748D01*
X93703353Y-55550613D01*
X93625924Y-55542987D01*
X93600043Y-55540438D01*
X93574162Y-55542987D01*
X79725923Y-55542987D01*
X79700052Y-55540439D01*
X79674179Y-55542987D01*
X79674171Y-55542987D01*
X79596742Y-55550613D01*
X79497402Y-55580748D01*
X79405850Y-55629683D01*
X79325604Y-55695539D01*
X79259748Y-55775785D01*
X79210813Y-55867337D01*
X79180678Y-55966677D01*
X79170503Y-56069987D01*
X79173053Y-56095877D01*
X79173031Y-69944107D01*
X79170483Y-69969978D01*
X75079589Y-69969978D01*
X75077042Y-69944118D01*
X75077065Y-56095869D01*
X75079614Y-56069987D01*
X75069439Y-55966677D01*
X75039304Y-55867337D01*
X74990369Y-55775785D01*
X74924513Y-55695539D01*
X74844267Y-55629683D01*
X74752715Y-55580748D01*
X74653375Y-55550613D01*
X74575946Y-55542987D01*
X74575936Y-55542987D01*
X74550065Y-55540439D01*
X74524192Y-55542987D01*
X60675933Y-55542987D01*
X60650052Y-55540438D01*
X60624171Y-55542987D01*
X60546742Y-55550613D01*
X60447402Y-55580748D01*
X60355850Y-55629683D01*
X60275604Y-55695539D01*
X60209748Y-55775785D01*
X60160813Y-55867337D01*
X60130678Y-55966677D01*
X60120503Y-56069987D01*
X56029614Y-56069987D01*
X56019439Y-55966677D01*
X55989304Y-55867337D01*
X55940369Y-55775785D01*
X55874513Y-55695539D01*
X55794267Y-55629683D01*
X55702715Y-55580748D01*
X55603375Y-55550613D01*
X55525946Y-55542987D01*
X55525936Y-55542987D01*
X55500065Y-55540439D01*
X55474192Y-55542987D01*
X41625945Y-55542987D01*
X41600074Y-55540439D01*
X41574201Y-55542987D01*
X41574193Y-55542987D01*
X41496764Y-55550613D01*
X41397424Y-55580748D01*
X41305872Y-55629683D01*
X41225626Y-55695539D01*
X41159770Y-55775785D01*
X41110835Y-55867337D01*
X41080700Y-55966677D01*
X41070525Y-56069987D01*
X41073075Y-56095877D01*
X41073052Y-69944106D01*
X41070504Y-69969978D01*
X33552038Y-69969978D01*
X33552038Y-63478320D01*
X33550141Y-63458972D01*
X33550609Y-63439533D01*
X33545133Y-63407898D01*
X33542001Y-63375958D01*
X33536383Y-63357349D01*
X33533066Y-63338189D01*
X33521553Y-63308230D01*
X33512274Y-63277496D01*
X33503143Y-63260323D01*
X33496171Y-63242181D01*
X33479058Y-63215028D01*
X33463987Y-63186683D01*
X33451702Y-63171620D01*
X33441333Y-63155167D01*
X33419264Y-63131847D01*
X33398982Y-63106978D01*
X33384004Y-63094587D01*
X33370638Y-63080463D01*
X33365049Y-63075677D01*
X31080541Y-61146531D01*
X31014574Y-61087643D01*
X30957434Y-61030704D01*
X30903724Y-60970989D01*
X30853531Y-60908670D01*
X30806924Y-60843907D01*
X30763968Y-60776839D01*
X30724743Y-60707636D01*
X30689333Y-60636475D01*
X30657794Y-60563477D01*
X30630236Y-60488877D01*
X30606707Y-60412784D01*
X30587297Y-60335399D01*
X30572064Y-60256826D01*
X30561094Y-60177272D01*
X30554459Y-60096891D01*
X30552028Y-60008474D01*
X30552028Y-50919978D01*
X41070504Y-50919978D01*
X41073052Y-50945851D01*
X41073052Y-50945858D01*
X41080678Y-51023287D01*
X41110813Y-51122627D01*
X41159748Y-51214179D01*
X41225604Y-51294425D01*
X41305850Y-51360281D01*
X41397402Y-51409216D01*
X41496742Y-51439351D01*
X41600052Y-51449526D01*
X41625934Y-51446977D01*
X55474171Y-51447000D01*
X55500043Y-51449548D01*
X55525916Y-51447000D01*
X55525923Y-51447000D01*
X55603352Y-51439374D01*
X55702692Y-51409239D01*
X55794244Y-51360304D01*
X55874490Y-51294448D01*
X55940346Y-51214202D01*
X55989281Y-51122650D01*
X56019416Y-51023310D01*
X56029591Y-50920000D01*
X56027042Y-50894118D01*
X56027065Y-37045869D01*
X56029614Y-37019987D01*
X60120503Y-37019987D01*
X60123053Y-37045878D01*
X60123052Y-50894107D01*
X60120504Y-50919978D01*
X60123052Y-50945851D01*
X60123052Y-50945858D01*
X60130678Y-51023287D01*
X60160813Y-51122627D01*
X60209748Y-51214180D01*
X60275604Y-51294426D01*
X60355850Y-51360282D01*
X60447402Y-51409217D01*
X60546742Y-51439352D01*
X60650052Y-51449527D01*
X60675942Y-51446977D01*
X74524171Y-51447000D01*
X74550043Y-51449548D01*
X74575916Y-51447000D01*
X74575923Y-51447000D01*
X74653352Y-51439374D01*
X74752692Y-51409239D01*
X74844244Y-51360304D01*
X74924490Y-51294448D01*
X74990346Y-51214202D01*
X75039281Y-51122650D01*
X75069416Y-51023310D01*
X75079591Y-50920000D01*
X75079589Y-50919978D01*
X79170483Y-50919978D01*
X79173031Y-50945851D01*
X79173031Y-50945858D01*
X79180657Y-51023287D01*
X79210792Y-51122627D01*
X79259727Y-51214179D01*
X79325583Y-51294425D01*
X79405829Y-51360281D01*
X79497381Y-51409216D01*
X79596721Y-51439351D01*
X79700031Y-51449526D01*
X79725913Y-51446977D01*
X93574162Y-51447000D01*
X93600043Y-51449549D01*
X93703353Y-51439374D01*
X93802693Y-51409239D01*
X93894245Y-51360304D01*
X93974491Y-51294448D01*
X94040347Y-51214202D01*
X94089282Y-51122650D01*
X94119417Y-51023310D01*
X94127043Y-50945881D01*
X94127043Y-50945871D01*
X94129591Y-50920000D01*
X94129589Y-50919978D01*
X98220483Y-50919978D01*
X98223031Y-50945851D01*
X98223031Y-50945858D01*
X98230657Y-51023287D01*
X98260792Y-51122627D01*
X98309727Y-51214179D01*
X98375583Y-51294425D01*
X98455829Y-51360281D01*
X98547381Y-51409216D01*
X98646721Y-51439351D01*
X98750031Y-51449526D01*
X98775913Y-51446977D01*
X112624150Y-51447000D01*
X112650022Y-51449548D01*
X112675895Y-51447000D01*
X112675902Y-51447000D01*
X112753331Y-51439374D01*
X112852671Y-51409239D01*
X112944223Y-51360304D01*
X113024469Y-51294448D01*
X113090325Y-51214202D01*
X113139260Y-51122650D01*
X113169395Y-51023310D01*
X113179570Y-50920000D01*
X113177021Y-50894118D01*
X113177043Y-37045869D01*
X113179592Y-37019987D01*
X117270482Y-37019987D01*
X117273032Y-37045878D01*
X117273031Y-50894107D01*
X117270483Y-50919978D01*
X117273031Y-50945851D01*
X117273031Y-50945858D01*
X117280657Y-51023287D01*
X117310792Y-51122627D01*
X117359727Y-51214180D01*
X117425583Y-51294426D01*
X117505829Y-51360282D01*
X117597381Y-51409217D01*
X117696721Y-51439352D01*
X117800031Y-51449527D01*
X117825921Y-51446977D01*
X131674150Y-51447000D01*
X131700022Y-51449548D01*
X131725895Y-51447000D01*
X131725902Y-51447000D01*
X131803331Y-51439374D01*
X131902671Y-51409239D01*
X131994223Y-51360304D01*
X132074469Y-51294448D01*
X132140325Y-51214202D01*
X132189260Y-51122650D01*
X132219395Y-51023310D01*
X132229570Y-50920000D01*
X132229568Y-50919978D01*
X136320461Y-50919978D01*
X136323009Y-50945851D01*
X136323009Y-50945858D01*
X136330635Y-51023287D01*
X136360770Y-51122627D01*
X136409705Y-51214179D01*
X136475561Y-51294425D01*
X136555807Y-51360281D01*
X136647359Y-51409216D01*
X136746699Y-51439351D01*
X136850009Y-51449526D01*
X136875891Y-51446977D01*
X150724141Y-51447000D01*
X150750022Y-51449549D01*
X150853332Y-51439374D01*
X150952672Y-51409239D01*
X151044224Y-51360304D01*
X151124470Y-51294448D01*
X151190326Y-51214202D01*
X151239261Y-51122650D01*
X151269396Y-51023310D01*
X151277022Y-50945881D01*
X151277022Y-50945871D01*
X151279570Y-50920000D01*
X151279568Y-50919978D01*
X155370461Y-50919978D01*
X155373009Y-50945851D01*
X155373009Y-50945858D01*
X155380635Y-51023287D01*
X155410770Y-51122627D01*
X155459705Y-51214179D01*
X155525561Y-51294425D01*
X155605807Y-51360281D01*
X155697359Y-51409216D01*
X155796699Y-51439351D01*
X155900009Y-51449526D01*
X155925891Y-51446977D01*
X169774128Y-51447000D01*
X169800000Y-51449548D01*
X169825873Y-51447000D01*
X169825880Y-51447000D01*
X169903309Y-51439374D01*
X170002649Y-51409239D01*
X170094201Y-51360304D01*
X170174447Y-51294448D01*
X170240303Y-51214202D01*
X170289238Y-51122650D01*
X170319373Y-51023310D01*
X170329548Y-50920000D01*
X170326999Y-50894118D01*
X170327022Y-37045869D01*
X170329571Y-37019987D01*
X174420460Y-37019987D01*
X174423010Y-37045878D01*
X174423009Y-50894107D01*
X174420461Y-50919978D01*
X174423009Y-50945851D01*
X174423009Y-50945858D01*
X174430635Y-51023287D01*
X174460770Y-51122627D01*
X174509705Y-51214180D01*
X174575561Y-51294426D01*
X174655807Y-51360282D01*
X174747359Y-51409217D01*
X174846699Y-51439352D01*
X174950009Y-51449527D01*
X174975899Y-51446977D01*
X188824128Y-51447000D01*
X188850000Y-51449548D01*
X188875873Y-51447000D01*
X188875880Y-51447000D01*
X188953309Y-51439374D01*
X189052649Y-51409239D01*
X189144201Y-51360304D01*
X189224447Y-51294448D01*
X189290303Y-51214202D01*
X189339238Y-51122650D01*
X189369373Y-51023310D01*
X189379548Y-50920000D01*
X189379546Y-50919978D01*
X193470439Y-50919978D01*
X193472987Y-50945851D01*
X193472987Y-50945858D01*
X193480613Y-51023287D01*
X193510748Y-51122627D01*
X193559683Y-51214179D01*
X193625539Y-51294425D01*
X193705785Y-51360281D01*
X193797337Y-51409216D01*
X193896677Y-51439351D01*
X193999987Y-51449526D01*
X194025869Y-51446977D01*
X207874119Y-51447000D01*
X207900000Y-51449549D01*
X208003310Y-51439374D01*
X208102650Y-51409239D01*
X208194202Y-51360304D01*
X208274448Y-51294448D01*
X208340304Y-51214202D01*
X208389239Y-51122650D01*
X208419374Y-51023310D01*
X208427000Y-50945881D01*
X208427000Y-50945871D01*
X208429548Y-50920000D01*
X208427000Y-50894127D01*
X208427000Y-37045868D01*
X208429549Y-37019987D01*
X212520438Y-37019987D01*
X212522988Y-37045878D01*
X212522987Y-50894107D01*
X212520439Y-50919978D01*
X212522987Y-50945851D01*
X212522987Y-50945858D01*
X212530613Y-51023287D01*
X212560748Y-51122627D01*
X212609683Y-51214180D01*
X212675539Y-51294426D01*
X212755785Y-51360282D01*
X212847337Y-51409217D01*
X212946677Y-51439352D01*
X213049987Y-51449527D01*
X213075877Y-51446977D01*
X226924107Y-51447000D01*
X226949979Y-51449548D01*
X226975852Y-51447000D01*
X226975859Y-51447000D01*
X227053288Y-51439374D01*
X227152628Y-51409239D01*
X227244180Y-51360304D01*
X227324426Y-51294448D01*
X227390282Y-51214202D01*
X227439217Y-51122650D01*
X227469352Y-51023310D01*
X227479527Y-50920000D01*
X227476978Y-50894118D01*
X227477000Y-37045869D01*
X227479549Y-37019987D01*
X227469374Y-36916677D01*
X227439239Y-36817337D01*
X227390304Y-36725785D01*
X227324448Y-36645539D01*
X227244202Y-36579683D01*
X227152650Y-36530748D01*
X227053310Y-36500613D01*
X226975881Y-36492987D01*
X226975871Y-36492987D01*
X226950000Y-36490439D01*
X226924127Y-36492987D01*
X213075868Y-36492987D01*
X213049987Y-36490438D01*
X213024106Y-36492987D01*
X212946677Y-36500613D01*
X212847337Y-36530748D01*
X212755785Y-36579683D01*
X212675539Y-36645539D01*
X212609683Y-36725785D01*
X212560748Y-36817337D01*
X212530613Y-36916677D01*
X212520438Y-37019987D01*
X208429549Y-37019987D01*
X208419374Y-36916677D01*
X208389239Y-36817337D01*
X208340304Y-36725785D01*
X208274448Y-36645539D01*
X208194202Y-36579683D01*
X208102650Y-36530748D01*
X208003310Y-36500613D01*
X207925881Y-36492987D01*
X207900000Y-36490438D01*
X207874119Y-36492987D01*
X194025880Y-36492987D01*
X194000009Y-36490439D01*
X193974136Y-36492987D01*
X193974128Y-36492987D01*
X193896699Y-36500613D01*
X193797359Y-36530748D01*
X193705807Y-36579683D01*
X193625561Y-36645539D01*
X193559705Y-36725785D01*
X193510770Y-36817337D01*
X193480635Y-36916677D01*
X193470460Y-37019987D01*
X193473010Y-37045877D01*
X193472987Y-50894106D01*
X193470439Y-50919978D01*
X189379546Y-50919978D01*
X189376999Y-50894118D01*
X189377022Y-37045869D01*
X189379571Y-37019987D01*
X189369396Y-36916677D01*
X189339261Y-36817337D01*
X189290326Y-36725785D01*
X189224470Y-36645539D01*
X189144224Y-36579683D01*
X189052672Y-36530748D01*
X188953332Y-36500613D01*
X188875903Y-36492987D01*
X188875893Y-36492987D01*
X188850022Y-36490439D01*
X188824149Y-36492987D01*
X174975890Y-36492987D01*
X174950009Y-36490438D01*
X174924128Y-36492987D01*
X174846699Y-36500613D01*
X174747359Y-36530748D01*
X174655807Y-36579683D01*
X174575561Y-36645539D01*
X174509705Y-36725785D01*
X174460770Y-36817337D01*
X174430635Y-36916677D01*
X174420460Y-37019987D01*
X170329571Y-37019987D01*
X170319396Y-36916677D01*
X170289261Y-36817337D01*
X170240326Y-36725785D01*
X170174470Y-36645539D01*
X170094224Y-36579683D01*
X170002672Y-36530748D01*
X169903332Y-36500613D01*
X169825903Y-36492987D01*
X169825893Y-36492987D01*
X169800022Y-36490439D01*
X169774149Y-36492987D01*
X155925902Y-36492987D01*
X155900031Y-36490439D01*
X155874158Y-36492987D01*
X155874150Y-36492987D01*
X155796721Y-36500613D01*
X155697381Y-36530748D01*
X155605829Y-36579683D01*
X155525583Y-36645539D01*
X155459727Y-36725785D01*
X155410792Y-36817337D01*
X155380657Y-36916677D01*
X155370482Y-37019987D01*
X155373032Y-37045877D01*
X155373009Y-50894106D01*
X155370461Y-50919978D01*
X151279568Y-50919978D01*
X151277022Y-50894127D01*
X151277022Y-37045868D01*
X151279571Y-37019987D01*
X151269396Y-36916677D01*
X151239261Y-36817337D01*
X151190326Y-36725785D01*
X151124470Y-36645539D01*
X151044224Y-36579683D01*
X150952672Y-36530748D01*
X150853332Y-36500613D01*
X150775903Y-36492987D01*
X150750022Y-36490438D01*
X150724141Y-36492987D01*
X136875902Y-36492987D01*
X136850031Y-36490439D01*
X136824158Y-36492987D01*
X136824150Y-36492987D01*
X136746721Y-36500613D01*
X136647381Y-36530748D01*
X136555829Y-36579683D01*
X136475583Y-36645539D01*
X136409727Y-36725785D01*
X136360792Y-36817337D01*
X136330657Y-36916677D01*
X136320482Y-37019987D01*
X136323032Y-37045877D01*
X136323009Y-50894106D01*
X136320461Y-50919978D01*
X132229568Y-50919978D01*
X132227021Y-50894118D01*
X132227043Y-37045869D01*
X132229592Y-37019987D01*
X132219417Y-36916677D01*
X132189282Y-36817337D01*
X132140347Y-36725785D01*
X132074491Y-36645539D01*
X131994245Y-36579683D01*
X131902693Y-36530748D01*
X131803353Y-36500613D01*
X131725924Y-36492987D01*
X131725914Y-36492987D01*
X131700043Y-36490439D01*
X131674170Y-36492987D01*
X117825912Y-36492987D01*
X117800031Y-36490438D01*
X117774150Y-36492987D01*
X117696721Y-36500613D01*
X117597381Y-36530748D01*
X117505829Y-36579683D01*
X117425583Y-36645539D01*
X117359727Y-36725785D01*
X117310792Y-36817337D01*
X117280657Y-36916677D01*
X117270482Y-37019987D01*
X113179592Y-37019987D01*
X113169417Y-36916677D01*
X113139282Y-36817337D01*
X113090347Y-36725785D01*
X113024491Y-36645539D01*
X112944245Y-36579683D01*
X112852693Y-36530748D01*
X112753353Y-36500613D01*
X112675924Y-36492987D01*
X112675914Y-36492987D01*
X112650043Y-36490439D01*
X112624170Y-36492987D01*
X98775923Y-36492987D01*
X98750052Y-36490439D01*
X98724179Y-36492987D01*
X98724171Y-36492987D01*
X98646742Y-36500613D01*
X98547402Y-36530748D01*
X98455850Y-36579683D01*
X98375604Y-36645539D01*
X98309748Y-36725785D01*
X98260813Y-36817337D01*
X98230678Y-36916677D01*
X98220503Y-37019987D01*
X98223053Y-37045877D01*
X98223031Y-50894107D01*
X98220483Y-50919978D01*
X94129589Y-50919978D01*
X94127043Y-50894127D01*
X94127043Y-37045868D01*
X94129592Y-37019987D01*
X94119417Y-36916677D01*
X94089282Y-36817337D01*
X94040347Y-36725785D01*
X93974491Y-36645539D01*
X93894245Y-36579683D01*
X93802693Y-36530748D01*
X93703353Y-36500613D01*
X93625924Y-36492987D01*
X93600043Y-36490438D01*
X93574162Y-36492987D01*
X79725923Y-36492987D01*
X79700052Y-36490439D01*
X79674179Y-36492987D01*
X79674171Y-36492987D01*
X79596742Y-36500613D01*
X79497402Y-36530748D01*
X79405850Y-36579683D01*
X79325604Y-36645539D01*
X79259748Y-36725785D01*
X79210813Y-36817337D01*
X79180678Y-36916677D01*
X79170503Y-37019987D01*
X79173053Y-37045877D01*
X79173031Y-50894107D01*
X79170483Y-50919978D01*
X75079589Y-50919978D01*
X75077042Y-50894118D01*
X75077065Y-37045869D01*
X75079614Y-37019987D01*
X75069439Y-36916677D01*
X75039304Y-36817337D01*
X74990369Y-36725785D01*
X74924513Y-36645539D01*
X74844267Y-36579683D01*
X74752715Y-36530748D01*
X74653375Y-36500613D01*
X74575946Y-36492987D01*
X74575936Y-36492987D01*
X74550065Y-36490439D01*
X74524192Y-36492987D01*
X60675933Y-36492987D01*
X60650052Y-36490438D01*
X60624171Y-36492987D01*
X60546742Y-36500613D01*
X60447402Y-36530748D01*
X60355850Y-36579683D01*
X60275604Y-36645539D01*
X60209748Y-36725785D01*
X60160813Y-36817337D01*
X60130678Y-36916677D01*
X60120503Y-37019987D01*
X56029614Y-37019987D01*
X56019439Y-36916677D01*
X55989304Y-36817337D01*
X55940369Y-36725785D01*
X55874513Y-36645539D01*
X55794267Y-36579683D01*
X55702715Y-36530748D01*
X55603375Y-36500613D01*
X55525946Y-36492987D01*
X55525936Y-36492987D01*
X55500065Y-36490439D01*
X55474192Y-36492987D01*
X41625945Y-36492987D01*
X41600074Y-36490439D01*
X41574201Y-36492987D01*
X41574193Y-36492987D01*
X41496764Y-36500613D01*
X41397424Y-36530748D01*
X41305872Y-36579683D01*
X41225626Y-36645539D01*
X41159770Y-36725785D01*
X41110835Y-36817337D01*
X41080700Y-36916677D01*
X41070525Y-37019987D01*
X41073075Y-37045877D01*
X41073052Y-50894106D01*
X41070504Y-50919978D01*
X30552028Y-50919978D01*
X30552028Y-31954679D01*
X32113000Y-31954679D01*
X32113000Y-32265321D01*
X32173604Y-32569994D01*
X32292481Y-32856989D01*
X32465064Y-33115279D01*
X32684721Y-33334936D01*
X32943011Y-33507519D01*
X33230006Y-33626396D01*
X33534679Y-33687000D01*
X33845321Y-33687000D01*
X34149994Y-33626396D01*
X34436989Y-33507519D01*
X34695279Y-33334936D01*
X34914936Y-33115279D01*
X35087519Y-32856989D01*
X35206396Y-32569994D01*
X35267000Y-32265321D01*
X35267000Y-31954679D01*
X35235174Y-31794679D01*
X94603000Y-31794679D01*
X94603000Y-32105321D01*
X94663604Y-32409994D01*
X94782481Y-32696989D01*
X94955064Y-32955279D01*
X95174721Y-33174936D01*
X95433011Y-33347519D01*
X95720006Y-33466396D01*
X96024679Y-33527000D01*
X96335321Y-33527000D01*
X96639994Y-33466396D01*
X96926989Y-33347519D01*
X97185279Y-33174936D01*
X97404936Y-32955279D01*
X97577519Y-32696989D01*
X97696396Y-32409994D01*
X97757000Y-32105321D01*
X97757000Y-31794679D01*
X170803000Y-31794679D01*
X170803000Y-32105321D01*
X170863604Y-32409994D01*
X170982481Y-32696989D01*
X171155064Y-32955279D01*
X171374721Y-33174936D01*
X171633011Y-33347519D01*
X171920006Y-33466396D01*
X172224679Y-33527000D01*
X172535321Y-33527000D01*
X172839994Y-33466396D01*
X173126989Y-33347519D01*
X173385279Y-33174936D01*
X173604936Y-32955279D01*
X173777519Y-32696989D01*
X173896396Y-32409994D01*
X173957000Y-32105321D01*
X173957000Y-31954679D01*
X230283000Y-31954679D01*
X230283000Y-32265321D01*
X230343604Y-32569994D01*
X230462481Y-32856989D01*
X230635064Y-33115279D01*
X230854721Y-33334936D01*
X231113011Y-33507519D01*
X231400006Y-33626396D01*
X231704679Y-33687000D01*
X232015321Y-33687000D01*
X232319994Y-33626396D01*
X232606989Y-33507519D01*
X232865279Y-33334936D01*
X233084936Y-33115279D01*
X233257519Y-32856989D01*
X233376396Y-32569994D01*
X233437000Y-32265321D01*
X233437000Y-31954679D01*
X233376396Y-31650006D01*
X233257519Y-31363011D01*
X233084936Y-31104721D01*
X232865279Y-30885064D01*
X232606989Y-30712481D01*
X232319994Y-30593604D01*
X232015321Y-30533000D01*
X231704679Y-30533000D01*
X231400006Y-30593604D01*
X231113011Y-30712481D01*
X230854721Y-30885064D01*
X230635064Y-31104721D01*
X230462481Y-31363011D01*
X230343604Y-31650006D01*
X230283000Y-31954679D01*
X173957000Y-31954679D01*
X173957000Y-31794679D01*
X173896396Y-31490006D01*
X173777519Y-31203011D01*
X173604936Y-30944721D01*
X173385279Y-30725064D01*
X173126989Y-30552481D01*
X172839994Y-30433604D01*
X172535321Y-30373000D01*
X172224679Y-30373000D01*
X171920006Y-30433604D01*
X171633011Y-30552481D01*
X171374721Y-30725064D01*
X171155064Y-30944721D01*
X170982481Y-31203011D01*
X170863604Y-31490006D01*
X170803000Y-31794679D01*
X97757000Y-31794679D01*
X97696396Y-31490006D01*
X97577519Y-31203011D01*
X97404936Y-30944721D01*
X97185279Y-30725064D01*
X96926989Y-30552481D01*
X96639994Y-30433604D01*
X96335321Y-30373000D01*
X96024679Y-30373000D01*
X95720006Y-30433604D01*
X95433011Y-30552481D01*
X95174721Y-30725064D01*
X94955064Y-30944721D01*
X94782481Y-31203011D01*
X94663604Y-31490006D01*
X94603000Y-31794679D01*
X35235174Y-31794679D01*
X35206396Y-31650006D01*
X35087519Y-31363011D01*
X34914936Y-31104721D01*
X34695279Y-30885064D01*
X34436989Y-30712481D01*
X34149994Y-30593604D01*
X33845321Y-30533000D01*
X33534679Y-30533000D01*
X33230006Y-30593604D01*
X32943011Y-30712481D01*
X32684721Y-30885064D01*
X32465064Y-31104721D01*
X32292481Y-31363011D01*
X32173604Y-31650006D01*
X32113000Y-31954679D01*
X30552028Y-31954679D01*
X30552028Y-31451678D01*
X30555426Y-31317273D01*
X30564990Y-31191497D01*
X30580718Y-31067722D01*
X30602446Y-30946054D01*
X30630021Y-30826579D01*
X30663291Y-30709422D01*
X30702101Y-30594722D01*
X30746315Y-30482586D01*
X30795780Y-30373172D01*
X30850348Y-30266629D01*
X30909876Y-30163102D01*
X30974210Y-30062752D01*
X31043184Y-29965757D01*
X31116668Y-29872248D01*
X31194484Y-29782415D01*
X31276473Y-29696420D01*
X31362448Y-29614451D01*
X31452284Y-29536633D01*
X31545791Y-29463150D01*
X31642790Y-29394173D01*
X31743152Y-29329832D01*
X31846662Y-29270315D01*
X31953213Y-29215743D01*
X32062619Y-29166281D01*
X32174756Y-29122067D01*
X32289456Y-29083257D01*
X32406613Y-29049987D01*
X32526091Y-29022412D01*
X32647756Y-29000684D01*
X32771529Y-28984956D01*
X32897308Y-28975392D01*
X33031712Y-28971994D01*
X232518352Y-28971994D01*
X232652756Y-28975392D01*
M02*
