G04 #@! TF.GenerationSoftware,KiCad,Pcbnew,(5.1.6-0-10_14)*
G04 #@! TF.CreationDate,2020-08-01T09:55:55+09:00*
G04 #@! TF.ProjectId,reviung33,72657669-756e-4673-9333-2e6b69636164,1.1.1*
G04 #@! TF.SameCoordinates,Original*
G04 #@! TF.FileFunction,Profile,NP*
%FSLAX46Y46*%
G04 Gerber Fmt 4.6, Leading zero omitted, Abs format (unit mm)*
G04 Created by KiCad (PCBNEW (5.1.6-0-10_14)) date 2020-08-01 09:55:55*
%MOMM*%
%LPD*%
G01*
G04 APERTURE LIST*
G04 #@! TA.AperFunction,Profile*
%ADD10C,0.100000*%
G04 #@! TD*
G04 APERTURE END LIST*
D10*
X215430007Y-66260933D02*
X215316513Y-66126282D01*
X215316513Y-66126282D02*
X215208874Y-65986722D01*
X215208874Y-65986722D02*
X215107292Y-65842438D01*
X215107292Y-65842438D02*
X215011969Y-65693615D01*
X215011969Y-65693615D02*
X214923108Y-65540441D01*
X214923108Y-65540441D02*
X214840911Y-65383099D01*
X214840911Y-65383099D02*
X214765581Y-65221775D01*
X214765581Y-65221775D02*
X214697321Y-65056656D01*
X214697321Y-65056656D02*
X214636332Y-64887927D01*
X214636332Y-64887927D02*
X214582818Y-64715773D01*
X214582818Y-64715773D02*
X214536982Y-64540379D01*
X214536982Y-64540379D02*
X214499025Y-64361933D01*
X214499025Y-64361933D02*
X214469150Y-64180618D01*
X214469150Y-64180618D02*
X214447560Y-63996621D01*
X214447560Y-63996621D02*
X214434458Y-63810127D01*
X214434458Y-63810127D02*
X214430046Y-63621322D01*
X215430007Y-99219989D02*
X215430007Y-66260933D01*
X213430000Y-101219996D02*
X213532919Y-101217393D01*
X213532919Y-101217393D02*
X213634487Y-101209670D01*
X213634487Y-101209670D02*
X213734578Y-101196951D01*
X213734578Y-101196951D02*
X213833067Y-101179363D01*
X213833067Y-101179363D02*
X214024736Y-101130080D01*
X214024736Y-101130080D02*
X214208488Y-101062827D01*
X214208488Y-101062827D02*
X214383317Y-100978608D01*
X214383317Y-100978608D02*
X214548217Y-100878429D01*
X214548217Y-100878429D02*
X214702185Y-100763295D01*
X214702185Y-100763295D02*
X214844214Y-100634211D01*
X214844214Y-100634211D02*
X214973298Y-100492183D01*
X214973298Y-100492183D02*
X215088434Y-100338216D01*
X215088434Y-100338216D02*
X215188614Y-100173315D01*
X215188614Y-100173315D02*
X215272834Y-99998486D01*
X215272834Y-99998486D02*
X215340089Y-99814733D01*
X215340089Y-99814733D02*
X215389373Y-99623063D01*
X215389373Y-99623063D02*
X215406962Y-99524572D01*
X215406962Y-99524572D02*
X215419681Y-99424479D01*
X215419681Y-99424479D02*
X215427404Y-99322910D01*
X215427404Y-99322910D02*
X215430007Y-99219989D01*
X161409467Y-101219996D02*
X213430000Y-101219996D01*
X158780041Y-100229295D02*
X158967929Y-100233662D01*
X158967929Y-100233662D02*
X159153534Y-100246633D01*
X159153534Y-100246633D02*
X159336670Y-100268008D01*
X159336670Y-100268008D02*
X159517155Y-100297587D01*
X159517155Y-100297587D02*
X159694806Y-100335172D01*
X159694806Y-100335172D02*
X159869439Y-100380563D01*
X159869439Y-100380563D02*
X160040871Y-100433561D01*
X160040871Y-100433561D02*
X160208918Y-100493966D01*
X160208918Y-100493966D02*
X160373398Y-100561581D01*
X160373398Y-100561581D02*
X160534127Y-100636205D01*
X160534127Y-100636205D02*
X160690921Y-100717639D01*
X160690921Y-100717639D02*
X160843599Y-100805685D01*
X160843599Y-100805685D02*
X160991975Y-100900143D01*
X160991975Y-100900143D02*
X161135867Y-101000813D01*
X161135867Y-101000813D02*
X161275092Y-101107497D01*
X161275092Y-101107497D02*
X161409467Y-101219996D01*
X156150636Y-101219996D02*
X156285010Y-101107497D01*
X156285010Y-101107497D02*
X156424234Y-101000813D01*
X156424234Y-101000813D02*
X156568125Y-100900143D01*
X156568125Y-100900143D02*
X156716501Y-100805685D01*
X156716501Y-100805685D02*
X156869176Y-100717639D01*
X156869176Y-100717639D02*
X157025969Y-100636205D01*
X157025969Y-100636205D02*
X157186696Y-100561581D01*
X157186696Y-100561581D02*
X157351174Y-100493966D01*
X157351174Y-100493966D02*
X157519219Y-100433561D01*
X157519219Y-100433561D02*
X157690649Y-100380563D01*
X157690649Y-100380563D02*
X157865280Y-100335172D01*
X157865280Y-100335172D02*
X158042929Y-100297587D01*
X158042929Y-100297587D02*
X158223413Y-100268008D01*
X158223413Y-100268008D02*
X158406548Y-100246633D01*
X158406548Y-100246633D02*
X158592152Y-100233662D01*
X158592152Y-100233662D02*
X158780041Y-100229295D01*
X85137098Y-101219996D02*
X156150636Y-101219996D01*
X82580062Y-100295074D02*
X82761450Y-100299120D01*
X82761450Y-100299120D02*
X82940756Y-100311143D01*
X82940756Y-100311143D02*
X83117808Y-100330969D01*
X83117808Y-100330969D02*
X83292437Y-100358426D01*
X83292437Y-100358426D02*
X83464473Y-100393340D01*
X83464473Y-100393340D02*
X83633746Y-100435538D01*
X83633746Y-100435538D02*
X83800085Y-100484846D01*
X83800085Y-100484846D02*
X83963322Y-100541091D01*
X83963322Y-100541091D02*
X84123285Y-100604100D01*
X84123285Y-100604100D02*
X84279805Y-100673700D01*
X84279805Y-100673700D02*
X84432711Y-100749717D01*
X84432711Y-100749717D02*
X84581835Y-100831978D01*
X84581835Y-100831978D02*
X84727005Y-100920309D01*
X84727005Y-100920309D02*
X84868053Y-101014538D01*
X84868053Y-101014538D02*
X85004807Y-101114492D01*
X85004807Y-101114492D02*
X85137098Y-101219996D01*
X80023005Y-101219996D02*
X80155296Y-101114492D01*
X80155296Y-101114492D02*
X80292050Y-101014538D01*
X80292050Y-101014538D02*
X80433099Y-100920309D01*
X80433099Y-100920309D02*
X80578270Y-100831978D01*
X80578270Y-100831978D02*
X80727396Y-100749717D01*
X80727396Y-100749717D02*
X80880304Y-100673700D01*
X80880304Y-100673700D02*
X81036826Y-100604100D01*
X81036826Y-100604100D02*
X81196791Y-100541091D01*
X81196791Y-100541091D02*
X81360030Y-100484846D01*
X81360030Y-100484846D02*
X81526371Y-100435538D01*
X81526371Y-100435538D02*
X81695646Y-100393340D01*
X81695646Y-100393340D02*
X81867683Y-100358426D01*
X81867683Y-100358426D02*
X82042314Y-100330969D01*
X82042314Y-100330969D02*
X82219367Y-100311143D01*
X82219367Y-100311143D02*
X82398673Y-100299120D01*
X82398673Y-100299120D02*
X82580062Y-100295074D01*
X27929996Y-101219996D02*
X80023005Y-101219996D01*
X25929989Y-99219989D02*
X25932591Y-99322910D01*
X25932591Y-99322910D02*
X25940314Y-99424479D01*
X25940314Y-99424479D02*
X25953033Y-99524572D01*
X25953033Y-99524572D02*
X25970622Y-99623063D01*
X25970622Y-99623063D02*
X26019906Y-99814733D01*
X26019906Y-99814733D02*
X26087161Y-99998486D01*
X26087161Y-99998486D02*
X26171381Y-100173315D01*
X26171381Y-100173315D02*
X26271561Y-100338216D01*
X26271561Y-100338216D02*
X26386697Y-100492183D01*
X26386697Y-100492183D02*
X26515781Y-100634211D01*
X26515781Y-100634211D02*
X26657810Y-100763295D01*
X26657810Y-100763295D02*
X26811778Y-100878429D01*
X26811778Y-100878429D02*
X26976678Y-100978608D01*
X26976678Y-100978608D02*
X27151507Y-101062827D01*
X27151507Y-101062827D02*
X27335259Y-101130080D01*
X27335259Y-101130080D02*
X27526928Y-101179363D01*
X27526928Y-101179363D02*
X27625417Y-101196951D01*
X27625417Y-101196951D02*
X27725508Y-101209670D01*
X27725508Y-101209670D02*
X27827076Y-101217393D01*
X27827076Y-101217393D02*
X27929996Y-101219996D01*
X25929989Y-66261062D02*
X25929989Y-99219989D01*
X215430007Y-28020007D02*
X215427404Y-27917085D01*
X215427404Y-27917085D02*
X215419681Y-27815516D01*
X215419681Y-27815516D02*
X215406962Y-27715423D01*
X215406962Y-27715423D02*
X215389373Y-27616932D01*
X215389373Y-27616932D02*
X215340089Y-27425262D01*
X215340089Y-27425262D02*
X215272834Y-27241509D01*
X215272834Y-27241509D02*
X215188614Y-27066680D01*
X215188614Y-27066680D02*
X215088434Y-26901779D01*
X215088434Y-26901779D02*
X214973298Y-26747812D01*
X214973298Y-26747812D02*
X214844214Y-26605784D01*
X214844214Y-26605784D02*
X214702185Y-26476700D01*
X214702185Y-26476700D02*
X214548217Y-26361566D01*
X214548217Y-26361566D02*
X214383317Y-26261387D01*
X214383317Y-26261387D02*
X214208488Y-26177168D01*
X214208488Y-26177168D02*
X214024736Y-26109915D01*
X214024736Y-26109915D02*
X213833067Y-26060632D01*
X213833067Y-26060632D02*
X213734578Y-26043044D01*
X213734578Y-26043044D02*
X213634487Y-26030325D01*
X213634487Y-26030325D02*
X213532919Y-26022602D01*
X213532919Y-26022602D02*
X213430000Y-26020000D01*
X18430082Y-30017603D02*
X18430082Y-33517604D01*
X19430085Y-29017599D02*
X19327839Y-29022762D01*
X19327839Y-29022762D02*
X19228547Y-29037916D01*
X19228547Y-29037916D02*
X19086248Y-29078280D01*
X19086248Y-29078280D02*
X18953421Y-29138297D01*
X18953421Y-29138297D02*
X18831764Y-29216269D01*
X18831764Y-29216269D02*
X18722974Y-29310499D01*
X18722974Y-29310499D02*
X18628745Y-29419291D01*
X18628745Y-29419291D02*
X18550775Y-29540948D01*
X18550775Y-29540948D02*
X18490761Y-29673774D01*
X18490761Y-29673774D02*
X18450398Y-29816071D01*
X18450398Y-29816071D02*
X18435244Y-29915361D01*
X18435244Y-29915361D02*
X18430082Y-30017603D01*
X25929989Y-29017599D02*
X19430085Y-29017599D01*
X26930057Y-63621322D02*
X26925644Y-63810139D01*
X26925644Y-63810139D02*
X26912540Y-63996645D01*
X26912540Y-63996645D02*
X26890947Y-64180654D01*
X26890947Y-64180654D02*
X26861069Y-64361980D01*
X26861069Y-64361980D02*
X26823108Y-64540438D01*
X26823108Y-64540438D02*
X26777267Y-64715842D01*
X26777267Y-64715842D02*
X26723747Y-64888006D01*
X26723747Y-64888006D02*
X26662752Y-65056745D01*
X26662752Y-65056745D02*
X26594484Y-65221873D01*
X26594484Y-65221873D02*
X26519146Y-65383204D01*
X26519146Y-65383204D02*
X26436940Y-65540553D01*
X26436940Y-65540553D02*
X26348070Y-65693733D01*
X26348070Y-65693733D02*
X26252737Y-65842560D01*
X26252737Y-65842560D02*
X26151144Y-65986848D01*
X26151144Y-65986848D02*
X26043493Y-66126410D01*
X26043493Y-66126410D02*
X25929989Y-66261062D01*
X25929989Y-60981604D02*
X26043493Y-61116255D01*
X26043493Y-61116255D02*
X26151144Y-61255817D01*
X26151144Y-61255817D02*
X26252737Y-61400105D01*
X26252737Y-61400105D02*
X26348070Y-61548931D01*
X26348070Y-61548931D02*
X26436940Y-61702112D01*
X26436940Y-61702112D02*
X26519146Y-61859460D01*
X26519146Y-61859460D02*
X26594484Y-62020791D01*
X26594484Y-62020791D02*
X26662752Y-62185918D01*
X26662752Y-62185918D02*
X26723747Y-62354655D01*
X26723747Y-62354655D02*
X26777267Y-62526818D01*
X26777267Y-62526818D02*
X26823108Y-62702220D01*
X26823108Y-62702220D02*
X26861069Y-62880676D01*
X26861069Y-62880676D02*
X26890947Y-63062000D01*
X26890947Y-63062000D02*
X26912540Y-63246006D01*
X26912540Y-63246006D02*
X26925644Y-63432508D01*
X26925644Y-63432508D02*
X26930057Y-63621322D01*
X25929989Y-46017617D02*
X25929989Y-60981604D01*
X19430085Y-46017617D02*
X25929989Y-46017617D01*
X18430082Y-45017613D02*
X18435244Y-45119854D01*
X18435244Y-45119854D02*
X18450398Y-45219143D01*
X18450398Y-45219143D02*
X18490761Y-45361441D01*
X18490761Y-45361441D02*
X18550775Y-45494266D01*
X18550775Y-45494266D02*
X18628745Y-45615924D01*
X18628745Y-45615924D02*
X18722974Y-45724716D01*
X18722974Y-45724716D02*
X18831764Y-45818946D01*
X18831764Y-45818946D02*
X18953421Y-45896918D01*
X18953421Y-45896918D02*
X19086248Y-45956935D01*
X19086248Y-45956935D02*
X19228547Y-45997299D01*
X19228547Y-45997299D02*
X19327839Y-46012453D01*
X19327839Y-46012453D02*
X19430085Y-46017617D01*
X18430082Y-41517590D02*
X18430082Y-45017613D01*
X23130074Y-41517590D02*
X18430082Y-41517590D01*
X23930089Y-40717596D02*
X23920870Y-40839429D01*
X23920870Y-40839429D02*
X23894121Y-40955492D01*
X23894121Y-40955492D02*
X23851198Y-41064430D01*
X23851198Y-41064430D02*
X23793458Y-41164883D01*
X23793458Y-41164883D02*
X23722258Y-41255497D01*
X23722258Y-41255497D02*
X23638956Y-41334913D01*
X23638956Y-41334913D02*
X23544909Y-41401774D01*
X23544909Y-41401774D02*
X23441474Y-41454723D01*
X23441474Y-41454723D02*
X23330009Y-41492404D01*
X23330009Y-41492404D02*
X23211870Y-41513459D01*
X23211870Y-41513459D02*
X23130074Y-41517590D01*
X23930089Y-34317599D02*
X23930089Y-40717596D01*
X23130074Y-33517604D02*
X23251907Y-33526821D01*
X23251907Y-33526821D02*
X23367972Y-33553569D01*
X23367972Y-33553569D02*
X23476912Y-33596490D01*
X23476912Y-33596490D02*
X23577368Y-33654228D01*
X23577368Y-33654228D02*
X23667984Y-33725425D01*
X23667984Y-33725425D02*
X23747403Y-33808724D01*
X23747403Y-33808724D02*
X23814267Y-33902768D01*
X23814267Y-33902768D02*
X23867219Y-34006201D01*
X23867219Y-34006201D02*
X23904902Y-34117664D01*
X23904902Y-34117664D02*
X23925958Y-34235802D01*
X23925958Y-34235802D02*
X23930089Y-34317599D01*
X18430082Y-33517604D02*
X23130074Y-33517604D01*
X215430007Y-60981733D02*
X215430007Y-28020007D01*
X214430046Y-63621322D02*
X214434458Y-63432517D01*
X214434458Y-63432517D02*
X214447560Y-63246023D01*
X214447560Y-63246023D02*
X214469150Y-63062026D01*
X214469150Y-63062026D02*
X214499025Y-62880711D01*
X214499025Y-62880711D02*
X214536982Y-62702265D01*
X214536982Y-62702265D02*
X214582818Y-62526872D01*
X214582818Y-62526872D02*
X214636332Y-62354719D01*
X214636332Y-62354719D02*
X214697321Y-62185990D01*
X214697321Y-62185990D02*
X214765581Y-62020872D01*
X214765581Y-62020872D02*
X214840911Y-61859550D01*
X214840911Y-61859550D02*
X214923108Y-61702210D01*
X214923108Y-61702210D02*
X215011969Y-61549037D01*
X215011969Y-61549037D02*
X215107292Y-61400218D01*
X215107292Y-61400218D02*
X215208874Y-61255937D01*
X215208874Y-61255937D02*
X215316513Y-61116380D01*
X215316513Y-61116380D02*
X215430007Y-60981733D01*
X82580084Y-27021317D02*
X82391143Y-27016898D01*
X82391143Y-27016898D02*
X82204517Y-27003776D01*
X82204517Y-27003776D02*
X82020391Y-26982155D01*
X82020391Y-26982155D02*
X81838952Y-26952237D01*
X81838952Y-26952237D02*
X81660386Y-26914226D01*
X81660386Y-26914226D02*
X81484879Y-26868325D01*
X81484879Y-26868325D02*
X81312617Y-26814736D01*
X81312617Y-26814736D02*
X81143785Y-26753662D01*
X81143785Y-26753662D02*
X80978571Y-26685308D01*
X80978571Y-26685308D02*
X80817159Y-26609874D01*
X80817159Y-26609874D02*
X80659736Y-26527566D01*
X80659736Y-26527566D02*
X80506488Y-26438585D01*
X80506488Y-26438585D02*
X80357601Y-26343135D01*
X80357601Y-26343135D02*
X80213261Y-26241419D01*
X80213261Y-26241419D02*
X80073654Y-26133639D01*
X80073654Y-26133639D02*
X79938966Y-26020000D01*
X85221180Y-26020000D02*
X85086491Y-26133639D01*
X85086491Y-26133639D02*
X84946884Y-26241419D01*
X84946884Y-26241419D02*
X84802544Y-26343135D01*
X84802544Y-26343135D02*
X84653658Y-26438585D01*
X84653658Y-26438585D02*
X84500410Y-26527566D01*
X84500410Y-26527566D02*
X84342987Y-26609874D01*
X84342987Y-26609874D02*
X84181576Y-26685308D01*
X84181576Y-26685308D02*
X84016363Y-26753662D01*
X84016363Y-26753662D02*
X83847532Y-26814736D01*
X83847532Y-26814736D02*
X83675271Y-26868325D01*
X83675271Y-26868325D02*
X83499766Y-26914226D01*
X83499766Y-26914226D02*
X83321202Y-26952237D01*
X83321202Y-26952237D02*
X83139766Y-26982155D01*
X83139766Y-26982155D02*
X82955643Y-27003776D01*
X82955643Y-27003776D02*
X82769020Y-27016898D01*
X82769020Y-27016898D02*
X82580084Y-27021317D01*
X25929989Y-28020007D02*
X25929989Y-29017599D01*
X27929996Y-26020000D02*
X27827076Y-26022602D01*
X27827076Y-26022602D02*
X27725508Y-26030325D01*
X27725508Y-26030325D02*
X27625417Y-26043044D01*
X27625417Y-26043044D02*
X27526928Y-26060632D01*
X27526928Y-26060632D02*
X27335259Y-26109915D01*
X27335259Y-26109915D02*
X27151507Y-26177168D01*
X27151507Y-26177168D02*
X26976678Y-26261387D01*
X26976678Y-26261387D02*
X26811778Y-26361566D01*
X26811778Y-26361566D02*
X26657810Y-26476700D01*
X26657810Y-26476700D02*
X26515781Y-26605784D01*
X26515781Y-26605784D02*
X26386697Y-26747812D01*
X26386697Y-26747812D02*
X26271561Y-26901779D01*
X26271561Y-26901779D02*
X26171381Y-27066680D01*
X26171381Y-27066680D02*
X26087161Y-27241509D01*
X26087161Y-27241509D02*
X26019906Y-27425262D01*
X26019906Y-27425262D02*
X25970622Y-27616932D01*
X25970622Y-27616932D02*
X25953033Y-27715423D01*
X25953033Y-27715423D02*
X25940314Y-27815516D01*
X25940314Y-27815516D02*
X25932591Y-27917085D01*
X25932591Y-27917085D02*
X25929989Y-28020007D01*
X79938966Y-26020000D02*
X27929996Y-26020000D01*
X156138837Y-26020000D02*
X85221180Y-26020000D01*
X158779933Y-27021317D02*
X158590996Y-27016898D01*
X158590996Y-27016898D02*
X158404373Y-27003776D01*
X158404373Y-27003776D02*
X158220250Y-26982155D01*
X158220250Y-26982155D02*
X158038814Y-26952237D01*
X158038814Y-26952237D02*
X157860250Y-26914226D01*
X157860250Y-26914226D02*
X157684745Y-26868325D01*
X157684745Y-26868325D02*
X157512484Y-26814736D01*
X157512484Y-26814736D02*
X157343654Y-26753662D01*
X157343654Y-26753662D02*
X157178440Y-26685308D01*
X157178440Y-26685308D02*
X157017029Y-26609874D01*
X157017029Y-26609874D02*
X156859606Y-26527566D01*
X156859606Y-26527566D02*
X156706358Y-26438585D01*
X156706358Y-26438585D02*
X156557472Y-26343135D01*
X156557472Y-26343135D02*
X156413132Y-26241419D01*
X156413132Y-26241419D02*
X156273525Y-26133639D01*
X156273525Y-26133639D02*
X156138837Y-26020000D01*
X161421051Y-26020000D02*
X161286362Y-26133639D01*
X161286362Y-26133639D02*
X161146755Y-26241419D01*
X161146755Y-26241419D02*
X161002415Y-26343135D01*
X161002415Y-26343135D02*
X160853528Y-26438585D01*
X160853528Y-26438585D02*
X160700280Y-26527566D01*
X160700280Y-26527566D02*
X160542857Y-26609874D01*
X160542857Y-26609874D02*
X160381445Y-26685308D01*
X160381445Y-26685308D02*
X160216231Y-26753662D01*
X160216231Y-26753662D02*
X160047399Y-26814736D01*
X160047399Y-26814736D02*
X159875137Y-26868325D01*
X159875137Y-26868325D02*
X159699630Y-26914226D01*
X159699630Y-26914226D02*
X159521064Y-26952237D01*
X159521064Y-26952237D02*
X159339625Y-26982155D01*
X159339625Y-26982155D02*
X159155499Y-27003776D01*
X159155499Y-27003776D02*
X158968873Y-27016898D01*
X158968873Y-27016898D02*
X158779933Y-27021317D01*
X213430000Y-26020000D02*
X161421051Y-26020000D01*
M02*
