M48
; DRILL file {KiCad (5.1.6-0-10_14)} date Saturday, August 01, 2020 at 09:56:18 AM
; FORMAT={-:-/ absolute / inch / decimal}
; #@! TF.CreationDate,2020-08-01T09:56:18+09:00
; #@! TF.GenerationSoftware,Kicad,Pcbnew,(5.1.6-0-10_14)
; #@! TF.FileFunction,Plated,1,2,PTH
FMAT,2
INCH
T1C0.0118
T2C0.0197
T3C0.0236
%
G90
G05
T1
X0.7677Y-1.1811
X0.7677Y-1.7717
X0.9843Y-1.1811
X0.9941Y-1.7717
X1.0827Y-1.0925
X1.0827Y-3.9272
X1.099Y-1.4207
X1.099Y-1.8636
X1.099Y-2.1687
X1.099Y-2.6116
X1.099Y-2.9167
X1.099Y-3.3596
X1.099Y-3.6352
X1.099Y-3.8222
X1.1614Y-2.5
X1.378Y-3.2579
X1.4567Y-1.7028
X1.4862Y-3.0512
X1.4862Y-3.8484
X1.5059Y-2.1778
X1.565Y-3.1496
X1.5748Y-2.5787
X1.5748Y-2.7953
X1.5945Y-3.5531
X1.6142Y-1.6634
X1.6142Y-2.2244
X1.6142Y-2.4311
X1.624Y-3.7697
X1.6339Y-2.9035
X1.6535Y-2.5591
X1.6929Y-2.8445
X1.7028Y-3.7697
X1.7421Y-3.0512
X1.849Y-1.4187
X1.849Y-1.8616
X1.8504Y-2.8991
X1.8701Y-3.1791
X1.9193Y-3.8681
X1.998Y-2.2047
X2.0177Y-3.9173
X2.0571Y-3.0118
X2.0866Y-2.3917
X2.126Y-1.752
X2.1457Y-3.8681
X2.2579Y-2.939
X2.3327Y-3.1988
X2.3327Y-3.2776
X2.372Y-3.7402
X2.5Y-1.0925
X2.5689Y-3.8878
X2.5984Y-2.9035
X2.599Y-1.4167
X2.599Y-1.8707
X2.599Y-2.1648
X2.599Y-2.6089
X2.6673Y-3.75
X2.8051Y-3.4941
X2.8839Y-1.752
X2.8839Y-3.4646
X2.9335Y-3.0965
X3.0315Y-3.7992
X3.061Y-3.1299
X3.0704Y-3.3371
X3.1043Y-3.4685
X3.1594Y-3.8386
X3.1791Y-3.2283
X3.1949Y-3.311
X3.248Y-3.7205
X3.2776Y-3.3366
X3.3366Y-3.2874
X3.3366Y-3.6909
X3.349Y-1.4148
X3.349Y-1.8675
X3.349Y-2.1628
X3.349Y-2.901
X3.3661Y-3.5728
X3.4055Y-3.3366
X3.4154Y-2.3524
X3.5138Y-2.6083
X3.6319Y-1.752
X3.6319Y-2.5
X3.6319Y-3.9075
X3.7205Y-3.5728
X4.0059Y-1.1024
X4.06Y-3.3022
X4.099Y-1.4128
X4.099Y-1.8656
X4.099Y-2.16
X4.099Y-2.6037
X4.099Y-2.9089
X4.3307Y-3.2874
X4.3504Y-3.7992
X4.3799Y-1.752
X4.4193Y-3.2776
X4.4754Y-3.3789
X4.7539Y-3.3563
X4.7539Y-3.9075
X4.8278Y-3.1644
X4.849Y-1.4108
X4.849Y-1.8636
X4.849Y-2.162
X4.849Y-2.9069
X4.9311Y-2.3524
X5.0098Y-2.6083
X5.128Y-1.752
X5.128Y-2.5
X5.3839Y-3.2776
X5.4244Y-3.4772
X5.502Y-1.1024
X5.5807Y-3.1988
X5.599Y-1.4187
X5.599Y-1.8616
X5.599Y-2.164
X5.599Y-2.6096
X5.599Y-2.912
X5.7874Y-3.5728
X5.876Y-1.752
X5.876Y-3.9075
X6.2992Y-3.1791
X6.349Y-1.4167
X6.349Y-1.8596
X6.349Y-2.1648
X6.349Y-2.9128
X6.437Y-2.3524
X6.4764Y-3.2579
X6.4764Y-3.9075
X6.5059Y-2.6083
X6.6339Y-1.752
X6.6339Y-2.5
X6.7224Y-3.5728
X7.0079Y-1.1024
X7.0768Y-3.1791
X7.099Y-1.4246
X7.099Y-1.8675
X7.099Y-2.1628
X7.099Y-2.6108
X7.099Y-2.9108
X7.3819Y-1.752
X7.3819Y-2.5
X7.3819Y-3.2579
X7.3819Y-3.9075
X7.7559Y-2.5
X7.769Y-3.2054
X7.8248Y-3.1791
X7.849Y-1.4226
X7.849Y-1.8656
X7.849Y-2.16
X7.849Y-2.6136
X7.849Y-2.9081
X7.849Y-3.3518
X8.1299Y-1.1024
X8.1299Y-3.9075
X8.3268Y-3.1988
X8.3465Y-2.5689
X8.3858Y-2.5
X8.4252Y-1.752
X8.4252Y-3.2579
T2
X1.5492Y-2.3425
X1.5689Y-2.4843
X1.7677Y-3.3622
X1.7677Y-3.6772
X1.8858Y-2.4843
X1.9547Y-3.2146
X2.0866Y-2.3425
X2.1122Y-3.2146
X2.2067Y-3.8307
X2.3819Y-3.1496
X2.3819Y-3.3465
X2.9532Y-3.3558
X3.002Y-3.5138
X4.3465Y-2.4055
X4.4793Y-2.5384
X5.8366Y-2.4016
X5.9744Y-2.5394
X7.687Y-3.2579
X7.9921Y-2.6772
X8.0807Y-3.2874
X8.1299Y-3.0807
T3
G00X0.7768Y-1.2823
M15
G01X0.824Y-1.2823
M16
G05
G00X0.7768Y-1.672
M15
G01X0.824Y-1.672
M16
G05
G00X0.9402Y-1.2823
M15
G01X0.9756Y-1.2823
M16
G05
G00X0.9402Y-1.672
M15
G01X0.9756Y-1.672
M16
G05
T0
M30
