G04 #@! TF.GenerationSoftware,KiCad,Pcbnew,(5.1.6-0-10_14)*
G04 #@! TF.CreationDate,2020-08-01T09:55:55+09:00*
G04 #@! TF.ProjectId,reviung33,72657669-756e-4673-9333-2e6b69636164,1.1.1*
G04 #@! TF.SameCoordinates,Original*
G04 #@! TF.FileFunction,Legend,Bot*
G04 #@! TF.FilePolarity,Positive*
%FSLAX46Y46*%
G04 Gerber Fmt 4.6, Leading zero omitted, Abs format (unit mm)*
G04 Created by KiCad (PCBNEW (5.1.6-0-10_14)) date 2020-08-01 09:55:55*
%MOMM*%
%LPD*%
G01*
G04 APERTURE LIST*
%ADD10C,0.800000*%
%ADD11C,0.150000*%
%ADD12C,0.010000*%
%ADD13C,0.120000*%
%ADD14C,0.100000*%
G04 APERTURE END LIST*
D10*
X49900000Y-86000000D02*
G75*
G03*
X49900000Y-86000000I-400000J0D01*
G01*
D11*
X183292976Y-92652380D02*
X183626309Y-92176190D01*
X183864404Y-92652380D02*
X183864404Y-91652380D01*
X183483452Y-91652380D01*
X183388214Y-91700000D01*
X183340595Y-91747619D01*
X183292976Y-91842857D01*
X183292976Y-91985714D01*
X183340595Y-92080952D01*
X183388214Y-92128571D01*
X183483452Y-92176190D01*
X183864404Y-92176190D01*
X182864404Y-92128571D02*
X182531071Y-92128571D01*
X182388214Y-92652380D02*
X182864404Y-92652380D01*
X182864404Y-91652380D01*
X182388214Y-91652380D01*
X182102500Y-91652380D02*
X181769166Y-92652380D01*
X181435833Y-91652380D01*
X181102500Y-92652380D02*
X181102500Y-91652380D01*
X180626309Y-91652380D02*
X180626309Y-92461904D01*
X180578690Y-92557142D01*
X180531071Y-92604761D01*
X180435833Y-92652380D01*
X180245357Y-92652380D01*
X180150119Y-92604761D01*
X180102500Y-92557142D01*
X180054880Y-92461904D01*
X180054880Y-91652380D01*
X179578690Y-92652380D02*
X179578690Y-91652380D01*
X179007261Y-92652380D01*
X179007261Y-91652380D01*
X178007261Y-91700000D02*
X178102500Y-91652380D01*
X178245357Y-91652380D01*
X178388214Y-91700000D01*
X178483452Y-91795238D01*
X178531071Y-91890476D01*
X178578690Y-92080952D01*
X178578690Y-92223809D01*
X178531071Y-92414285D01*
X178483452Y-92509523D01*
X178388214Y-92604761D01*
X178245357Y-92652380D01*
X178150119Y-92652380D01*
X178007261Y-92604761D01*
X177959642Y-92557142D01*
X177959642Y-92223809D01*
X178150119Y-92223809D01*
X177626309Y-91652380D02*
X177007261Y-91652380D01*
X177340595Y-92033333D01*
X177197738Y-92033333D01*
X177102500Y-92080952D01*
X177054880Y-92128571D01*
X177007261Y-92223809D01*
X177007261Y-92461904D01*
X177054880Y-92557142D01*
X177102500Y-92604761D01*
X177197738Y-92652380D01*
X177483452Y-92652380D01*
X177578690Y-92604761D01*
X177626309Y-92557142D01*
X176673928Y-91652380D02*
X176054880Y-91652380D01*
X176388214Y-92033333D01*
X176245357Y-92033333D01*
X176150119Y-92080952D01*
X176102500Y-92128571D01*
X176054880Y-92223809D01*
X176054880Y-92461904D01*
X176102500Y-92557142D01*
X176150119Y-92604761D01*
X176245357Y-92652380D01*
X176531071Y-92652380D01*
X176626309Y-92604761D01*
X176673928Y-92557142D01*
X174864404Y-92652380D02*
X174864404Y-91652380D01*
X174292976Y-92652380D02*
X174721547Y-92080952D01*
X174292976Y-91652380D02*
X174864404Y-92223809D01*
X173959642Y-91652380D02*
X173340595Y-91652380D01*
X173673928Y-92033333D01*
X173531071Y-92033333D01*
X173435833Y-92080952D01*
X173388214Y-92128571D01*
X173340595Y-92223809D01*
X173340595Y-92461904D01*
X173388214Y-92557142D01*
X173435833Y-92604761D01*
X173531071Y-92652380D01*
X173816785Y-92652380D01*
X173912023Y-92604761D01*
X173959642Y-92557142D01*
X173007261Y-91652380D02*
X172388214Y-91652380D01*
X172721547Y-92033333D01*
X172578690Y-92033333D01*
X172483452Y-92080952D01*
X172435833Y-92128571D01*
X172388214Y-92223809D01*
X172388214Y-92461904D01*
X172435833Y-92557142D01*
X172483452Y-92604761D01*
X172578690Y-92652380D01*
X172864404Y-92652380D01*
X172959642Y-92604761D01*
X173007261Y-92557142D01*
X171626309Y-92128571D02*
X171483452Y-92176190D01*
X171435833Y-92223809D01*
X171388214Y-92319047D01*
X171388214Y-92461904D01*
X171435833Y-92557142D01*
X171483452Y-92604761D01*
X171578690Y-92652380D01*
X171959642Y-92652380D01*
X171959642Y-91652380D01*
X171626309Y-91652380D01*
X171531071Y-91700000D01*
X171483452Y-91747619D01*
X171435833Y-91842857D01*
X171435833Y-91938095D01*
X171483452Y-92033333D01*
X171531071Y-92080952D01*
X171626309Y-92128571D01*
X171959642Y-92128571D01*
X170197738Y-92652380D02*
X170197738Y-91985714D01*
X170197738Y-92176190D02*
X170150119Y-92080952D01*
X170102500Y-92033333D01*
X170007261Y-91985714D01*
X169912023Y-91985714D01*
X169197738Y-92604761D02*
X169292976Y-92652380D01*
X169483452Y-92652380D01*
X169578690Y-92604761D01*
X169626309Y-92509523D01*
X169626309Y-92128571D01*
X169578690Y-92033333D01*
X169483452Y-91985714D01*
X169292976Y-91985714D01*
X169197738Y-92033333D01*
X169150119Y-92128571D01*
X169150119Y-92223809D01*
X169626309Y-92319047D01*
X168816785Y-91985714D02*
X168578690Y-92652380D01*
X168340595Y-91985714D01*
X167435833Y-92652380D02*
X168007261Y-92652380D01*
X167721547Y-92652380D02*
X167721547Y-91652380D01*
X167816785Y-91795238D01*
X167912023Y-91890476D01*
X168007261Y-91938095D01*
X167007261Y-92557142D02*
X166959642Y-92604761D01*
X167007261Y-92652380D01*
X167054880Y-92604761D01*
X167007261Y-92557142D01*
X167007261Y-92652380D01*
X166340595Y-91652380D02*
X166245357Y-91652380D01*
X166150119Y-91700000D01*
X166102500Y-91747619D01*
X166054880Y-91842857D01*
X166007261Y-92033333D01*
X166007261Y-92271428D01*
X166054880Y-92461904D01*
X166102500Y-92557142D01*
X166150119Y-92604761D01*
X166245357Y-92652380D01*
X166340595Y-92652380D01*
X166435833Y-92604761D01*
X166483452Y-92557142D01*
X166531071Y-92461904D01*
X166578690Y-92271428D01*
X166578690Y-92033333D01*
X166531071Y-91842857D01*
X166483452Y-91747619D01*
X166435833Y-91700000D01*
X166340595Y-91652380D01*
X164816785Y-92652380D02*
X164816785Y-91652380D01*
X164578690Y-91652380D01*
X164435833Y-91700000D01*
X164340595Y-91795238D01*
X164292976Y-91890476D01*
X164245357Y-92080952D01*
X164245357Y-92223809D01*
X164292976Y-92414285D01*
X164340595Y-92509523D01*
X164435833Y-92604761D01*
X164578690Y-92652380D01*
X164816785Y-92652380D01*
X163435833Y-92604761D02*
X163531071Y-92652380D01*
X163721547Y-92652380D01*
X163816785Y-92604761D01*
X163864404Y-92509523D01*
X163864404Y-92128571D01*
X163816785Y-92033333D01*
X163721547Y-91985714D01*
X163531071Y-91985714D01*
X163435833Y-92033333D01*
X163388214Y-92128571D01*
X163388214Y-92223809D01*
X163864404Y-92319047D01*
X163007261Y-92604761D02*
X162912023Y-92652380D01*
X162721547Y-92652380D01*
X162626309Y-92604761D01*
X162578690Y-92509523D01*
X162578690Y-92461904D01*
X162626309Y-92366666D01*
X162721547Y-92319047D01*
X162864404Y-92319047D01*
X162959642Y-92271428D01*
X163007261Y-92176190D01*
X163007261Y-92128571D01*
X162959642Y-92033333D01*
X162864404Y-91985714D01*
X162721547Y-91985714D01*
X162626309Y-92033333D01*
X162150119Y-92652380D02*
X162150119Y-91985714D01*
X162150119Y-91652380D02*
X162197738Y-91700000D01*
X162150119Y-91747619D01*
X162102500Y-91700000D01*
X162150119Y-91652380D01*
X162150119Y-91747619D01*
X161245357Y-91985714D02*
X161245357Y-92795238D01*
X161292976Y-92890476D01*
X161340595Y-92938095D01*
X161435833Y-92985714D01*
X161578690Y-92985714D01*
X161673928Y-92938095D01*
X161245357Y-92604761D02*
X161340595Y-92652380D01*
X161531071Y-92652380D01*
X161626309Y-92604761D01*
X161673928Y-92557142D01*
X161721547Y-92461904D01*
X161721547Y-92176190D01*
X161673928Y-92080952D01*
X161626309Y-92033333D01*
X161531071Y-91985714D01*
X161340595Y-91985714D01*
X161245357Y-92033333D01*
X160769166Y-91985714D02*
X160769166Y-92652380D01*
X160769166Y-92080952D02*
X160721547Y-92033333D01*
X160626309Y-91985714D01*
X160483452Y-91985714D01*
X160388214Y-92033333D01*
X160340595Y-92128571D01*
X160340595Y-92652380D01*
X159483452Y-92604761D02*
X159578690Y-92652380D01*
X159769166Y-92652380D01*
X159864404Y-92604761D01*
X159912023Y-92509523D01*
X159912023Y-92128571D01*
X159864404Y-92033333D01*
X159769166Y-91985714D01*
X159578690Y-91985714D01*
X159483452Y-92033333D01*
X159435833Y-92128571D01*
X159435833Y-92223809D01*
X159912023Y-92319047D01*
X158578690Y-92652380D02*
X158578690Y-91652380D01*
X158578690Y-92604761D02*
X158673928Y-92652380D01*
X158864404Y-92652380D01*
X158959642Y-92604761D01*
X159007261Y-92557142D01*
X159054880Y-92461904D01*
X159054880Y-92176190D01*
X159007261Y-92080952D01*
X158959642Y-92033333D01*
X158864404Y-91985714D01*
X158673928Y-91985714D01*
X158578690Y-92033333D01*
X157340595Y-92652380D02*
X157340595Y-91652380D01*
X157340595Y-92033333D02*
X157245357Y-91985714D01*
X157054880Y-91985714D01*
X156959642Y-92033333D01*
X156912023Y-92080952D01*
X156864404Y-92176190D01*
X156864404Y-92461904D01*
X156912023Y-92557142D01*
X156959642Y-92604761D01*
X157054880Y-92652380D01*
X157245357Y-92652380D01*
X157340595Y-92604761D01*
X156531071Y-91985714D02*
X156292976Y-92652380D01*
X156054880Y-91985714D02*
X156292976Y-92652380D01*
X156388214Y-92890476D01*
X156435833Y-92938095D01*
X156531071Y-92985714D01*
X154483452Y-91985714D02*
X154483452Y-92795238D01*
X154531071Y-92890476D01*
X154578690Y-92938095D01*
X154673928Y-92985714D01*
X154816785Y-92985714D01*
X154912023Y-92938095D01*
X154483452Y-92604761D02*
X154578690Y-92652380D01*
X154769166Y-92652380D01*
X154864404Y-92604761D01*
X154912023Y-92557142D01*
X154959642Y-92461904D01*
X154959642Y-92176190D01*
X154912023Y-92080952D01*
X154864404Y-92033333D01*
X154769166Y-91985714D01*
X154578690Y-91985714D01*
X154483452Y-92033333D01*
X154150119Y-91985714D02*
X153769166Y-91985714D01*
X154007261Y-91652380D02*
X154007261Y-92509523D01*
X153959642Y-92604761D01*
X153864404Y-92652380D01*
X153769166Y-92652380D01*
X153435833Y-92652380D02*
X153435833Y-91985714D01*
X153435833Y-91652380D02*
X153483452Y-91700000D01*
X153435833Y-91747619D01*
X153388214Y-91700000D01*
X153435833Y-91652380D01*
X153435833Y-91747619D01*
X152959642Y-91985714D02*
X152959642Y-92985714D01*
X152959642Y-92033333D02*
X152864404Y-91985714D01*
X152673928Y-91985714D01*
X152578690Y-92033333D01*
X152531071Y-92080952D01*
X152483452Y-92176190D01*
X152483452Y-92461904D01*
X152531071Y-92557142D01*
X152578690Y-92604761D01*
X152673928Y-92652380D01*
X152864404Y-92652380D01*
X152959642Y-92604761D01*
X152102500Y-92604761D02*
X152007261Y-92652380D01*
X151816785Y-92652380D01*
X151721547Y-92604761D01*
X151673928Y-92509523D01*
X151673928Y-92461904D01*
X151721547Y-92366666D01*
X151816785Y-92319047D01*
X151959642Y-92319047D01*
X152054880Y-92271428D01*
X152102500Y-92176190D01*
X152102500Y-92128571D01*
X152054880Y-92033333D01*
X151959642Y-91985714D01*
X151816785Y-91985714D01*
X151721547Y-92033333D01*
X150531071Y-91747619D02*
X150483452Y-91700000D01*
X150388214Y-91652380D01*
X150150119Y-91652380D01*
X150054880Y-91700000D01*
X150007261Y-91747619D01*
X149959642Y-91842857D01*
X149959642Y-91938095D01*
X150007261Y-92080952D01*
X150578690Y-92652380D01*
X149959642Y-92652380D01*
X149340595Y-91652380D02*
X149245357Y-91652380D01*
X149150119Y-91700000D01*
X149102500Y-91747619D01*
X149054880Y-91842857D01*
X149007261Y-92033333D01*
X149007261Y-92271428D01*
X149054880Y-92461904D01*
X149102500Y-92557142D01*
X149150119Y-92604761D01*
X149245357Y-92652380D01*
X149340595Y-92652380D01*
X149435833Y-92604761D01*
X149483452Y-92557142D01*
X149531071Y-92461904D01*
X149578690Y-92271428D01*
X149578690Y-92033333D01*
X149531071Y-91842857D01*
X149483452Y-91747619D01*
X149435833Y-91700000D01*
X149340595Y-91652380D01*
X148626309Y-91747619D02*
X148578690Y-91700000D01*
X148483452Y-91652380D01*
X148245357Y-91652380D01*
X148150119Y-91700000D01*
X148102500Y-91747619D01*
X148054880Y-91842857D01*
X148054880Y-91938095D01*
X148102500Y-92080952D01*
X148673928Y-92652380D01*
X148054880Y-92652380D01*
X147435833Y-91652380D02*
X147340595Y-91652380D01*
X147245357Y-91700000D01*
X147197738Y-91747619D01*
X147150119Y-91842857D01*
X147102500Y-92033333D01*
X147102500Y-92271428D01*
X147150119Y-92461904D01*
X147197738Y-92557142D01*
X147245357Y-92604761D01*
X147340595Y-92652380D01*
X147435833Y-92652380D01*
X147531071Y-92604761D01*
X147578690Y-92557142D01*
X147626309Y-92461904D01*
X147673928Y-92271428D01*
X147673928Y-92033333D01*
X147626309Y-91842857D01*
X147578690Y-91747619D01*
X147531071Y-91700000D01*
X147435833Y-91652380D01*
D12*
G36*
X178854167Y-42788567D02*
G01*
X178754773Y-42725533D01*
X178674285Y-42682920D01*
X178597213Y-42664753D01*
X178546237Y-42662499D01*
X178428699Y-42679629D01*
X178335568Y-42731105D01*
X178266738Y-42817061D01*
X178222104Y-42937631D01*
X178201562Y-43092946D01*
X178201216Y-43100446D01*
X178207039Y-43268937D01*
X178239827Y-43406920D01*
X178298890Y-43513425D01*
X178383540Y-43587481D01*
X178493089Y-43628118D01*
X178581430Y-43636166D01*
X178679992Y-43621343D01*
X178766432Y-43581369D01*
X178810676Y-43542312D01*
X178846501Y-43512140D01*
X178868905Y-43521412D01*
X178875334Y-43559818D01*
X178891943Y-43609349D01*
X178933187Y-43633057D01*
X178986196Y-43624749D01*
X178997345Y-43618531D01*
X179005042Y-43604553D01*
X179011018Y-43571104D01*
X179015384Y-43514544D01*
X179018251Y-43431235D01*
X179019730Y-43317535D01*
X179019933Y-43169807D01*
X179018971Y-42984409D01*
X179018797Y-42962132D01*
X178854167Y-42962132D01*
X178854167Y-43146830D01*
X178853464Y-43236337D01*
X178849277Y-43294896D01*
X178838488Y-43333893D01*
X178817978Y-43364711D01*
X178785375Y-43398016D01*
X178692971Y-43468762D01*
X178605308Y-43498396D01*
X178523496Y-43486739D01*
X178464954Y-43449309D01*
X178409167Y-43372672D01*
X178376257Y-43263902D01*
X178367334Y-43150441D01*
X178379505Y-43016525D01*
X178413899Y-42913080D01*
X178467335Y-42842184D01*
X178536632Y-42805913D01*
X178618609Y-42806343D01*
X178710087Y-42845553D01*
X178768307Y-42888638D01*
X178854167Y-42962132D01*
X179018797Y-42962132D01*
X179018511Y-42925647D01*
X179012917Y-42249750D01*
X178933542Y-42243180D01*
X178854167Y-42236611D01*
X178854167Y-42788567D01*
G37*
X178854167Y-42788567D02*
X178754773Y-42725533D01*
X178674285Y-42682920D01*
X178597213Y-42664753D01*
X178546237Y-42662499D01*
X178428699Y-42679629D01*
X178335568Y-42731105D01*
X178266738Y-42817061D01*
X178222104Y-42937631D01*
X178201562Y-43092946D01*
X178201216Y-43100446D01*
X178207039Y-43268937D01*
X178239827Y-43406920D01*
X178298890Y-43513425D01*
X178383540Y-43587481D01*
X178493089Y-43628118D01*
X178581430Y-43636166D01*
X178679992Y-43621343D01*
X178766432Y-43581369D01*
X178810676Y-43542312D01*
X178846501Y-43512140D01*
X178868905Y-43521412D01*
X178875334Y-43559818D01*
X178891943Y-43609349D01*
X178933187Y-43633057D01*
X178986196Y-43624749D01*
X178997345Y-43618531D01*
X179005042Y-43604553D01*
X179011018Y-43571104D01*
X179015384Y-43514544D01*
X179018251Y-43431235D01*
X179019730Y-43317535D01*
X179019933Y-43169807D01*
X179018971Y-42984409D01*
X179018797Y-42962132D01*
X178854167Y-42962132D01*
X178854167Y-43146830D01*
X178853464Y-43236337D01*
X178849277Y-43294896D01*
X178838488Y-43333893D01*
X178817978Y-43364711D01*
X178785375Y-43398016D01*
X178692971Y-43468762D01*
X178605308Y-43498396D01*
X178523496Y-43486739D01*
X178464954Y-43449309D01*
X178409167Y-43372672D01*
X178376257Y-43263902D01*
X178367334Y-43150441D01*
X178379505Y-43016525D01*
X178413899Y-42913080D01*
X178467335Y-42842184D01*
X178536632Y-42805913D01*
X178618609Y-42806343D01*
X178710087Y-42845553D01*
X178768307Y-42888638D01*
X178854167Y-42962132D01*
X179018797Y-42962132D01*
X179018511Y-42925647D01*
X179012917Y-42249750D01*
X178933542Y-42243180D01*
X178854167Y-42236611D01*
X178854167Y-42788567D01*
G36*
X179785500Y-42927747D02*
G01*
X179785673Y-43118038D01*
X179786333Y-43270280D01*
X179787690Y-43388755D01*
X179789957Y-43477747D01*
X179793344Y-43541537D01*
X179798063Y-43584410D01*
X179804324Y-43610648D01*
X179812341Y-43624534D01*
X179820128Y-43629616D01*
X179870696Y-43629274D01*
X179913803Y-43596074D01*
X179933186Y-43554530D01*
X179941478Y-43527803D01*
X179955589Y-43522133D01*
X179986010Y-43538817D01*
X180024502Y-43565830D01*
X180122046Y-43614449D01*
X180230304Y-43634810D01*
X180335745Y-43626075D01*
X180420500Y-43590384D01*
X180506055Y-43508555D01*
X180563208Y-43396192D01*
X180592180Y-43252763D01*
X180596184Y-43162926D01*
X180595162Y-43137029D01*
X180426844Y-43137029D01*
X180417109Y-43276108D01*
X180385116Y-43380550D01*
X180330231Y-43452111D01*
X180307193Y-43468684D01*
X180223695Y-43497524D01*
X180134670Y-43484627D01*
X180055756Y-43441864D01*
X179997532Y-43394133D01*
X179960949Y-43343108D01*
X179941365Y-43277365D01*
X179934139Y-43185475D01*
X179933667Y-43141346D01*
X179934396Y-43057092D01*
X179939430Y-43002421D01*
X179953039Y-42964582D01*
X179979495Y-42930825D01*
X180016203Y-42894930D01*
X180107276Y-42828404D01*
X180194260Y-42801817D01*
X180273094Y-42812778D01*
X180339719Y-42858893D01*
X180390077Y-42937768D01*
X180420108Y-43047012D01*
X180426844Y-43137029D01*
X180595162Y-43137029D01*
X180591597Y-43046771D01*
X180576337Y-42957818D01*
X180553897Y-42894280D01*
X180500150Y-42805103D01*
X180428509Y-42729961D01*
X180350762Y-42680247D01*
X180322359Y-42670466D01*
X180234685Y-42663148D01*
X180136652Y-42676564D01*
X180049498Y-42706984D01*
X180022291Y-42723182D01*
X179977567Y-42752811D01*
X179948757Y-42767861D01*
X179946275Y-42768333D01*
X179941499Y-42748503D01*
X179937553Y-42694357D01*
X179934819Y-42613909D01*
X179933679Y-42515174D01*
X179933667Y-42503750D01*
X179933667Y-42239166D01*
X179785500Y-42239166D01*
X179785500Y-42927747D01*
G37*
X179785500Y-42927747D02*
X179785673Y-43118038D01*
X179786333Y-43270280D01*
X179787690Y-43388755D01*
X179789957Y-43477747D01*
X179793344Y-43541537D01*
X179798063Y-43584410D01*
X179804324Y-43610648D01*
X179812341Y-43624534D01*
X179820128Y-43629616D01*
X179870696Y-43629274D01*
X179913803Y-43596074D01*
X179933186Y-43554530D01*
X179941478Y-43527803D01*
X179955589Y-43522133D01*
X179986010Y-43538817D01*
X180024502Y-43565830D01*
X180122046Y-43614449D01*
X180230304Y-43634810D01*
X180335745Y-43626075D01*
X180420500Y-43590384D01*
X180506055Y-43508555D01*
X180563208Y-43396192D01*
X180592180Y-43252763D01*
X180596184Y-43162926D01*
X180595162Y-43137029D01*
X180426844Y-43137029D01*
X180417109Y-43276108D01*
X180385116Y-43380550D01*
X180330231Y-43452111D01*
X180307193Y-43468684D01*
X180223695Y-43497524D01*
X180134670Y-43484627D01*
X180055756Y-43441864D01*
X179997532Y-43394133D01*
X179960949Y-43343108D01*
X179941365Y-43277365D01*
X179934139Y-43185475D01*
X179933667Y-43141346D01*
X179934396Y-43057092D01*
X179939430Y-43002421D01*
X179953039Y-42964582D01*
X179979495Y-42930825D01*
X180016203Y-42894930D01*
X180107276Y-42828404D01*
X180194260Y-42801817D01*
X180273094Y-42812778D01*
X180339719Y-42858893D01*
X180390077Y-42937768D01*
X180420108Y-43047012D01*
X180426844Y-43137029D01*
X180595162Y-43137029D01*
X180591597Y-43046771D01*
X180576337Y-42957818D01*
X180553897Y-42894280D01*
X180500150Y-42805103D01*
X180428509Y-42729961D01*
X180350762Y-42680247D01*
X180322359Y-42670466D01*
X180234685Y-42663148D01*
X180136652Y-42676564D01*
X180049498Y-42706984D01*
X180022291Y-42723182D01*
X179977567Y-42752811D01*
X179948757Y-42767861D01*
X179946275Y-42768333D01*
X179941499Y-42748503D01*
X179937553Y-42694357D01*
X179934819Y-42613909D01*
X179933679Y-42515174D01*
X179933667Y-42503750D01*
X179933667Y-42239166D01*
X179785500Y-42239166D01*
X179785500Y-42927747D01*
G36*
X181055803Y-42676255D02*
G01*
X180999005Y-42699669D01*
X180981417Y-42709375D01*
X180895556Y-42782008D01*
X180835081Y-42882885D01*
X180804423Y-43003465D01*
X180801500Y-43056099D01*
X180802355Y-43104333D01*
X180808787Y-43139439D01*
X180826602Y-43163511D01*
X180861606Y-43178642D01*
X180919603Y-43186925D01*
X181006399Y-43190452D01*
X181127798Y-43191318D01*
X181176680Y-43191377D01*
X181456609Y-43191666D01*
X181443532Y-43260458D01*
X181406238Y-43372919D01*
X181343537Y-43451539D01*
X181255412Y-43496325D01*
X181141849Y-43507284D01*
X181002831Y-43484423D01*
X180971688Y-43475709D01*
X180893426Y-43457980D01*
X180848218Y-43462807D01*
X180832398Y-43491677D01*
X180837639Y-43530096D01*
X180868190Y-43572507D01*
X180935568Y-43603188D01*
X181041381Y-43622684D01*
X181129584Y-43629525D01*
X181228288Y-43631663D01*
X181299571Y-43625382D01*
X181357827Y-43608876D01*
X181383584Y-43597652D01*
X181482055Y-43534147D01*
X181551385Y-43448699D01*
X181593805Y-43336932D01*
X181611549Y-43194471D01*
X181612400Y-43149333D01*
X181604648Y-43064666D01*
X181453209Y-43064666D01*
X181199173Y-43064666D01*
X181091547Y-43064070D01*
X181019867Y-43061693D01*
X180977755Y-43056648D01*
X180958832Y-43048051D01*
X180956721Y-43035016D01*
X180957986Y-43031185D01*
X180969109Y-42981042D01*
X180970834Y-42955473D01*
X180985135Y-42914245D01*
X181020681Y-42864202D01*
X181032706Y-42851371D01*
X181108812Y-42801476D01*
X181194071Y-42786576D01*
X181279168Y-42803574D01*
X181354788Y-42849372D01*
X181411617Y-42920872D01*
X181435395Y-42985291D01*
X181453209Y-43064666D01*
X181604648Y-43064666D01*
X181597977Y-42991807D01*
X181554702Y-42865044D01*
X181482751Y-42769257D01*
X181382306Y-42704657D01*
X181253544Y-42671456D01*
X181206006Y-42667480D01*
X181118900Y-42666626D01*
X181055803Y-42676255D01*
G37*
X181055803Y-42676255D02*
X180999005Y-42699669D01*
X180981417Y-42709375D01*
X180895556Y-42782008D01*
X180835081Y-42882885D01*
X180804423Y-43003465D01*
X180801500Y-43056099D01*
X180802355Y-43104333D01*
X180808787Y-43139439D01*
X180826602Y-43163511D01*
X180861606Y-43178642D01*
X180919603Y-43186925D01*
X181006399Y-43190452D01*
X181127798Y-43191318D01*
X181176680Y-43191377D01*
X181456609Y-43191666D01*
X181443532Y-43260458D01*
X181406238Y-43372919D01*
X181343537Y-43451539D01*
X181255412Y-43496325D01*
X181141849Y-43507284D01*
X181002831Y-43484423D01*
X180971688Y-43475709D01*
X180893426Y-43457980D01*
X180848218Y-43462807D01*
X180832398Y-43491677D01*
X180837639Y-43530096D01*
X180868190Y-43572507D01*
X180935568Y-43603188D01*
X181041381Y-43622684D01*
X181129584Y-43629525D01*
X181228288Y-43631663D01*
X181299571Y-43625382D01*
X181357827Y-43608876D01*
X181383584Y-43597652D01*
X181482055Y-43534147D01*
X181551385Y-43448699D01*
X181593805Y-43336932D01*
X181611549Y-43194471D01*
X181612400Y-43149333D01*
X181604648Y-43064666D01*
X181453209Y-43064666D01*
X181199173Y-43064666D01*
X181091547Y-43064070D01*
X181019867Y-43061693D01*
X180977755Y-43056648D01*
X180958832Y-43048051D01*
X180956721Y-43035016D01*
X180957986Y-43031185D01*
X180969109Y-42981042D01*
X180970834Y-42955473D01*
X180985135Y-42914245D01*
X181020681Y-42864202D01*
X181032706Y-42851371D01*
X181108812Y-42801476D01*
X181194071Y-42786576D01*
X181279168Y-42803574D01*
X181354788Y-42849372D01*
X181411617Y-42920872D01*
X181435395Y-42985291D01*
X181453209Y-43064666D01*
X181604648Y-43064666D01*
X181597977Y-42991807D01*
X181554702Y-42865044D01*
X181482751Y-42769257D01*
X181382306Y-42704657D01*
X181253544Y-42671456D01*
X181206006Y-42667480D01*
X181118900Y-42666626D01*
X181055803Y-42676255D01*
G36*
X181765120Y-42674981D02*
G01*
X181722846Y-42711875D01*
X181715320Y-42772359D01*
X181715334Y-42772459D01*
X181724398Y-42802734D01*
X181748208Y-42815301D01*
X181799069Y-42815385D01*
X181813943Y-42814335D01*
X181869822Y-42813336D01*
X181910786Y-42825521D01*
X181952620Y-42858145D01*
X181988568Y-42894602D01*
X182071500Y-42981782D01*
X182071500Y-43296126D01*
X182072096Y-43420171D01*
X182074311Y-43508172D01*
X182078787Y-43566405D01*
X182086167Y-43601151D01*
X182097094Y-43618685D01*
X182104982Y-43623318D01*
X182177272Y-43632593D01*
X182214375Y-43622148D01*
X182223603Y-43607667D01*
X182230602Y-43569961D01*
X182235597Y-43505028D01*
X182238813Y-43408864D01*
X182240474Y-43277466D01*
X182240834Y-43149834D01*
X182240530Y-42997070D01*
X182239364Y-42881384D01*
X182236950Y-42797523D01*
X182232904Y-42740236D01*
X182226844Y-42704269D01*
X182218383Y-42684370D01*
X182207139Y-42675287D01*
X182206102Y-42674867D01*
X182146467Y-42668503D01*
X182106185Y-42697327D01*
X182092667Y-42751056D01*
X182092667Y-42815592D01*
X182007940Y-42739046D01*
X181944870Y-42689566D01*
X181889140Y-42666788D01*
X181841198Y-42662500D01*
X181765120Y-42674981D01*
G37*
X181765120Y-42674981D02*
X181722846Y-42711875D01*
X181715320Y-42772359D01*
X181715334Y-42772459D01*
X181724398Y-42802734D01*
X181748208Y-42815301D01*
X181799069Y-42815385D01*
X181813943Y-42814335D01*
X181869822Y-42813336D01*
X181910786Y-42825521D01*
X181952620Y-42858145D01*
X181988568Y-42894602D01*
X182071500Y-42981782D01*
X182071500Y-43296126D01*
X182072096Y-43420171D01*
X182074311Y-43508172D01*
X182078787Y-43566405D01*
X182086167Y-43601151D01*
X182097094Y-43618685D01*
X182104982Y-43623318D01*
X182177272Y-43632593D01*
X182214375Y-43622148D01*
X182223603Y-43607667D01*
X182230602Y-43569961D01*
X182235597Y-43505028D01*
X182238813Y-43408864D01*
X182240474Y-43277466D01*
X182240834Y-43149834D01*
X182240530Y-42997070D01*
X182239364Y-42881384D01*
X182236950Y-42797523D01*
X182232904Y-42740236D01*
X182226844Y-42704269D01*
X182218383Y-42684370D01*
X182207139Y-42675287D01*
X182206102Y-42674867D01*
X182146467Y-42668503D01*
X182106185Y-42697327D01*
X182092667Y-42751056D01*
X182092667Y-42815592D01*
X182007940Y-42739046D01*
X181944870Y-42689566D01*
X181889140Y-42666788D01*
X181841198Y-42662500D01*
X181765120Y-42674981D01*
G36*
X182729387Y-42686747D02*
G01*
X182675930Y-42710484D01*
X182591804Y-42776272D01*
X182536099Y-42864979D01*
X182505543Y-42982568D01*
X182500258Y-43030727D01*
X182496170Y-43087444D01*
X182498060Y-43128912D01*
X182511469Y-43157524D01*
X182541940Y-43175675D01*
X182595013Y-43185756D01*
X182676232Y-43190163D01*
X182791138Y-43191288D01*
X182872224Y-43191377D01*
X183154364Y-43191666D01*
X183139550Y-43260458D01*
X183099023Y-43373973D01*
X183033857Y-43453115D01*
X182944248Y-43497791D01*
X182830395Y-43507911D01*
X182692496Y-43483381D01*
X182672823Y-43477645D01*
X182600756Y-43456495D01*
X182560185Y-43449401D01*
X182542060Y-43458242D01*
X182537333Y-43484891D01*
X182537167Y-43505769D01*
X182549877Y-43558494D01*
X182594695Y-43593223D01*
X182595375Y-43593548D01*
X182654166Y-43610231D01*
X182740614Y-43621739D01*
X182840301Y-43627534D01*
X182938806Y-43627079D01*
X183021710Y-43619839D01*
X183061452Y-43610890D01*
X183154923Y-43558599D01*
X183227046Y-43477196D01*
X183277661Y-43374218D01*
X183306606Y-43257201D01*
X183313721Y-43133683D01*
X183301181Y-43030433D01*
X183141412Y-43030433D01*
X183132475Y-43051029D01*
X183102105Y-43061243D01*
X183044103Y-43064630D01*
X182952266Y-43064743D01*
X182909010Y-43064666D01*
X182664167Y-43064666D01*
X182664167Y-43010698D01*
X182677788Y-42939616D01*
X182712157Y-42869358D01*
X182757538Y-42818476D01*
X182768828Y-42811294D01*
X182816421Y-42796989D01*
X182881407Y-42789726D01*
X182893985Y-42789500D01*
X182976419Y-42806221D01*
X183051652Y-42849955D01*
X183105578Y-42911055D01*
X183119799Y-42943887D01*
X183135120Y-42995904D01*
X183141412Y-43030433D01*
X183301181Y-43030433D01*
X183298845Y-43011202D01*
X183261817Y-42897294D01*
X183202476Y-42799498D01*
X183120661Y-42725349D01*
X183080809Y-42703636D01*
X182966366Y-42670011D01*
X182843955Y-42664470D01*
X182729387Y-42686747D01*
G37*
X182729387Y-42686747D02*
X182675930Y-42710484D01*
X182591804Y-42776272D01*
X182536099Y-42864979D01*
X182505543Y-42982568D01*
X182500258Y-43030727D01*
X182496170Y-43087444D01*
X182498060Y-43128912D01*
X182511469Y-43157524D01*
X182541940Y-43175675D01*
X182595013Y-43185756D01*
X182676232Y-43190163D01*
X182791138Y-43191288D01*
X182872224Y-43191377D01*
X183154364Y-43191666D01*
X183139550Y-43260458D01*
X183099023Y-43373973D01*
X183033857Y-43453115D01*
X182944248Y-43497791D01*
X182830395Y-43507911D01*
X182692496Y-43483381D01*
X182672823Y-43477645D01*
X182600756Y-43456495D01*
X182560185Y-43449401D01*
X182542060Y-43458242D01*
X182537333Y-43484891D01*
X182537167Y-43505769D01*
X182549877Y-43558494D01*
X182594695Y-43593223D01*
X182595375Y-43593548D01*
X182654166Y-43610231D01*
X182740614Y-43621739D01*
X182840301Y-43627534D01*
X182938806Y-43627079D01*
X183021710Y-43619839D01*
X183061452Y-43610890D01*
X183154923Y-43558599D01*
X183227046Y-43477196D01*
X183277661Y-43374218D01*
X183306606Y-43257201D01*
X183313721Y-43133683D01*
X183301181Y-43030433D01*
X183141412Y-43030433D01*
X183132475Y-43051029D01*
X183102105Y-43061243D01*
X183044103Y-43064630D01*
X182952266Y-43064743D01*
X182909010Y-43064666D01*
X182664167Y-43064666D01*
X182664167Y-43010698D01*
X182677788Y-42939616D01*
X182712157Y-42869358D01*
X182757538Y-42818476D01*
X182768828Y-42811294D01*
X182816421Y-42796989D01*
X182881407Y-42789726D01*
X182893985Y-42789500D01*
X182976419Y-42806221D01*
X183051652Y-42849955D01*
X183105578Y-42911055D01*
X183119799Y-42943887D01*
X183135120Y-42995904D01*
X183141412Y-43030433D01*
X183301181Y-43030433D01*
X183298845Y-43011202D01*
X183261817Y-42897294D01*
X183202476Y-42799498D01*
X183120661Y-42725349D01*
X183080809Y-42703636D01*
X182966366Y-42670011D01*
X182843955Y-42664470D01*
X182729387Y-42686747D01*
G36*
X183480896Y-42663598D02*
G01*
X183465209Y-42679466D01*
X183461450Y-42714950D01*
X183469861Y-42774094D01*
X183490685Y-42860946D01*
X183524166Y-42979553D01*
X183570545Y-43133961D01*
X183575663Y-43150745D01*
X183623491Y-43305881D01*
X183662106Y-43424845D01*
X183694167Y-43512101D01*
X183722334Y-43572111D01*
X183749263Y-43609338D01*
X183777615Y-43628245D01*
X183810048Y-43633296D01*
X183849220Y-43628954D01*
X183859428Y-43627102D01*
X183885769Y-43621213D01*
X183906256Y-43610770D01*
X183923885Y-43589576D01*
X183941652Y-43551433D01*
X183962552Y-43490143D01*
X183989582Y-43399509D01*
X184018953Y-43297081D01*
X184050782Y-43188546D01*
X184079508Y-43096008D01*
X184102851Y-43026398D01*
X184118533Y-42986645D01*
X184123222Y-42980000D01*
X184133146Y-42999320D01*
X184151400Y-43052563D01*
X184175781Y-43132649D01*
X184204085Y-43232499D01*
X184219158Y-43288146D01*
X184254428Y-43416246D01*
X184283496Y-43508734D01*
X184309561Y-43571273D01*
X184335817Y-43609528D01*
X184365463Y-43629162D01*
X184401694Y-43635840D01*
X184415563Y-43636166D01*
X184465795Y-43623712D01*
X184490523Y-43609708D01*
X184505480Y-43583560D01*
X184529914Y-43524165D01*
X184561424Y-43438907D01*
X184597605Y-43335172D01*
X184636056Y-43220344D01*
X184674373Y-43101808D01*
X184710154Y-42986948D01*
X184740996Y-42883150D01*
X184764497Y-42797799D01*
X184778252Y-42738279D01*
X184780834Y-42717443D01*
X184763926Y-42680264D01*
X184721273Y-42666248D01*
X184667892Y-42678232D01*
X184648570Y-42692926D01*
X184629015Y-42722503D01*
X184607053Y-42772445D01*
X184580509Y-42848239D01*
X184547208Y-42955366D01*
X184516019Y-43061192D01*
X184481672Y-43176207D01*
X184450578Y-43274443D01*
X184424824Y-43349776D01*
X184406493Y-43396083D01*
X184397992Y-43407802D01*
X184388604Y-43383270D01*
X184370705Y-43324772D01*
X184346317Y-43239348D01*
X184317459Y-43134033D01*
X184293382Y-43043500D01*
X184261882Y-42927510D01*
X184232330Y-42825956D01*
X184206941Y-42745904D01*
X184187930Y-42694419D01*
X184179043Y-42678699D01*
X184124541Y-42663833D01*
X184066298Y-42680043D01*
X184064704Y-42681033D01*
X184049847Y-42706418D01*
X184026283Y-42765619D01*
X183996470Y-42851614D01*
X183962866Y-42957384D01*
X183934647Y-43052418D01*
X183900927Y-43168148D01*
X183870793Y-43269110D01*
X183846326Y-43348521D01*
X183829610Y-43399595D01*
X183823127Y-43415595D01*
X183814549Y-43399478D01*
X183796620Y-43348802D01*
X183771336Y-43269791D01*
X183740696Y-43168671D01*
X183709080Y-43060029D01*
X183671262Y-42929037D01*
X183642137Y-42833020D01*
X183619243Y-42766115D01*
X183600117Y-42722460D01*
X183582294Y-42696192D01*
X183563312Y-42681451D01*
X183547080Y-42674518D01*
X183508267Y-42663297D01*
X183480896Y-42663598D01*
G37*
X183480896Y-42663598D02*
X183465209Y-42679466D01*
X183461450Y-42714950D01*
X183469861Y-42774094D01*
X183490685Y-42860946D01*
X183524166Y-42979553D01*
X183570545Y-43133961D01*
X183575663Y-43150745D01*
X183623491Y-43305881D01*
X183662106Y-43424845D01*
X183694167Y-43512101D01*
X183722334Y-43572111D01*
X183749263Y-43609338D01*
X183777615Y-43628245D01*
X183810048Y-43633296D01*
X183849220Y-43628954D01*
X183859428Y-43627102D01*
X183885769Y-43621213D01*
X183906256Y-43610770D01*
X183923885Y-43589576D01*
X183941652Y-43551433D01*
X183962552Y-43490143D01*
X183989582Y-43399509D01*
X184018953Y-43297081D01*
X184050782Y-43188546D01*
X184079508Y-43096008D01*
X184102851Y-43026398D01*
X184118533Y-42986645D01*
X184123222Y-42980000D01*
X184133146Y-42999320D01*
X184151400Y-43052563D01*
X184175781Y-43132649D01*
X184204085Y-43232499D01*
X184219158Y-43288146D01*
X184254428Y-43416246D01*
X184283496Y-43508734D01*
X184309561Y-43571273D01*
X184335817Y-43609528D01*
X184365463Y-43629162D01*
X184401694Y-43635840D01*
X184415563Y-43636166D01*
X184465795Y-43623712D01*
X184490523Y-43609708D01*
X184505480Y-43583560D01*
X184529914Y-43524165D01*
X184561424Y-43438907D01*
X184597605Y-43335172D01*
X184636056Y-43220344D01*
X184674373Y-43101808D01*
X184710154Y-42986948D01*
X184740996Y-42883150D01*
X184764497Y-42797799D01*
X184778252Y-42738279D01*
X184780834Y-42717443D01*
X184763926Y-42680264D01*
X184721273Y-42666248D01*
X184667892Y-42678232D01*
X184648570Y-42692926D01*
X184629015Y-42722503D01*
X184607053Y-42772445D01*
X184580509Y-42848239D01*
X184547208Y-42955366D01*
X184516019Y-43061192D01*
X184481672Y-43176207D01*
X184450578Y-43274443D01*
X184424824Y-43349776D01*
X184406493Y-43396083D01*
X184397992Y-43407802D01*
X184388604Y-43383270D01*
X184370705Y-43324772D01*
X184346317Y-43239348D01*
X184317459Y-43134033D01*
X184293382Y-43043500D01*
X184261882Y-42927510D01*
X184232330Y-42825956D01*
X184206941Y-42745904D01*
X184187930Y-42694419D01*
X184179043Y-42678699D01*
X184124541Y-42663833D01*
X184066298Y-42680043D01*
X184064704Y-42681033D01*
X184049847Y-42706418D01*
X184026283Y-42765619D01*
X183996470Y-42851614D01*
X183962866Y-42957384D01*
X183934647Y-43052418D01*
X183900927Y-43168148D01*
X183870793Y-43269110D01*
X183846326Y-43348521D01*
X183829610Y-43399595D01*
X183823127Y-43415595D01*
X183814549Y-43399478D01*
X183796620Y-43348802D01*
X183771336Y-43269791D01*
X183740696Y-43168671D01*
X183709080Y-43060029D01*
X183671262Y-42929037D01*
X183642137Y-42833020D01*
X183619243Y-42766115D01*
X183600117Y-42722460D01*
X183582294Y-42696192D01*
X183563312Y-42681451D01*
X183547080Y-42674518D01*
X183508267Y-42663297D01*
X183480896Y-42663598D01*
G36*
X185221695Y-42678635D02*
G01*
X185108612Y-42726595D01*
X185023128Y-42806583D01*
X184965506Y-42918340D01*
X184936013Y-43061604D01*
X184934216Y-43083125D01*
X184938034Y-43245579D01*
X184973076Y-43382616D01*
X185037677Y-43492186D01*
X185130170Y-43572241D01*
X185248893Y-43620732D01*
X185383277Y-43635701D01*
X185495462Y-43625571D01*
X185591180Y-43598751D01*
X185597845Y-43595834D01*
X185696165Y-43529147D01*
X185765612Y-43431505D01*
X185806181Y-43302914D01*
X185818000Y-43159916D01*
X185817671Y-43156556D01*
X185646192Y-43156556D01*
X185637499Y-43264905D01*
X185612373Y-43357365D01*
X185594579Y-43391567D01*
X185528456Y-43456667D01*
X185440956Y-43493186D01*
X185343572Y-43499219D01*
X185247798Y-43472859D01*
X185215055Y-43454503D01*
X185160499Y-43395701D01*
X185122550Y-43308289D01*
X185102807Y-43203239D01*
X185102867Y-43091523D01*
X185124328Y-42984114D01*
X185140454Y-42942161D01*
X185197295Y-42860301D01*
X185273253Y-42810063D01*
X185359584Y-42791198D01*
X185447545Y-42803456D01*
X185528390Y-42846587D01*
X185593377Y-42920342D01*
X185611777Y-42955624D01*
X185637827Y-43048176D01*
X185646192Y-43156556D01*
X185817671Y-43156556D01*
X185802548Y-43002172D01*
X185756888Y-42873056D01*
X185682072Y-42773712D01*
X185579148Y-42705284D01*
X185449166Y-42668916D01*
X185362110Y-42662964D01*
X185221695Y-42678635D01*
G37*
X185221695Y-42678635D02*
X185108612Y-42726595D01*
X185023128Y-42806583D01*
X184965506Y-42918340D01*
X184936013Y-43061604D01*
X184934216Y-43083125D01*
X184938034Y-43245579D01*
X184973076Y-43382616D01*
X185037677Y-43492186D01*
X185130170Y-43572241D01*
X185248893Y-43620732D01*
X185383277Y-43635701D01*
X185495462Y-43625571D01*
X185591180Y-43598751D01*
X185597845Y-43595834D01*
X185696165Y-43529147D01*
X185765612Y-43431505D01*
X185806181Y-43302914D01*
X185818000Y-43159916D01*
X185817671Y-43156556D01*
X185646192Y-43156556D01*
X185637499Y-43264905D01*
X185612373Y-43357365D01*
X185594579Y-43391567D01*
X185528456Y-43456667D01*
X185440956Y-43493186D01*
X185343572Y-43499219D01*
X185247798Y-43472859D01*
X185215055Y-43454503D01*
X185160499Y-43395701D01*
X185122550Y-43308289D01*
X185102807Y-43203239D01*
X185102867Y-43091523D01*
X185124328Y-42984114D01*
X185140454Y-42942161D01*
X185197295Y-42860301D01*
X185273253Y-42810063D01*
X185359584Y-42791198D01*
X185447545Y-42803456D01*
X185528390Y-42846587D01*
X185593377Y-42920342D01*
X185611777Y-42955624D01*
X185637827Y-43048176D01*
X185646192Y-43156556D01*
X185817671Y-43156556D01*
X185802548Y-43002172D01*
X185756888Y-42873056D01*
X185682072Y-42773712D01*
X185579148Y-42705284D01*
X185449166Y-42668916D01*
X185362110Y-42662964D01*
X185221695Y-42678635D01*
G36*
X186296252Y-42350225D02*
G01*
X186241178Y-42356033D01*
X186199279Y-42367362D01*
X186160852Y-42385434D01*
X186148074Y-42392627D01*
X186056597Y-42460154D01*
X186000550Y-42541391D01*
X185973277Y-42646847D01*
X185970607Y-42672753D01*
X185975727Y-42812624D01*
X186015281Y-42928594D01*
X186087896Y-43019349D01*
X186192201Y-43083572D01*
X186326823Y-43119949D01*
X186445576Y-43128166D01*
X186580000Y-43128166D01*
X186580000Y-43369318D01*
X186580918Y-43476571D01*
X186584295Y-43548636D01*
X186591069Y-43592630D01*
X186602181Y-43615672D01*
X186613482Y-43623318D01*
X186679770Y-43634518D01*
X186723201Y-43618516D01*
X186731198Y-43604191D01*
X186737325Y-43570083D01*
X186741707Y-43512415D01*
X186744471Y-43427404D01*
X186745740Y-43311272D01*
X186745639Y-43160236D01*
X186744368Y-42978549D01*
X186739800Y-42472000D01*
X186580000Y-42472000D01*
X186580000Y-43007288D01*
X186441375Y-42994343D01*
X186330829Y-42975678D01*
X186251444Y-42944320D01*
X186241815Y-42938009D01*
X186179623Y-42869854D01*
X186146819Y-42782640D01*
X186144405Y-42688716D01*
X186173383Y-42600430D01*
X186210399Y-42551041D01*
X186271754Y-42506992D01*
X186353460Y-42481583D01*
X186464706Y-42472192D01*
X186487396Y-42472000D01*
X186580000Y-42472000D01*
X186739800Y-42472000D01*
X186738750Y-42355583D01*
X186484750Y-42350293D01*
X186374208Y-42348719D01*
X186296252Y-42350225D01*
G37*
X186296252Y-42350225D02*
X186241178Y-42356033D01*
X186199279Y-42367362D01*
X186160852Y-42385434D01*
X186148074Y-42392627D01*
X186056597Y-42460154D01*
X186000550Y-42541391D01*
X185973277Y-42646847D01*
X185970607Y-42672753D01*
X185975727Y-42812624D01*
X186015281Y-42928594D01*
X186087896Y-43019349D01*
X186192201Y-43083572D01*
X186326823Y-43119949D01*
X186445576Y-43128166D01*
X186580000Y-43128166D01*
X186580000Y-43369318D01*
X186580918Y-43476571D01*
X186584295Y-43548636D01*
X186591069Y-43592630D01*
X186602181Y-43615672D01*
X186613482Y-43623318D01*
X186679770Y-43634518D01*
X186723201Y-43618516D01*
X186731198Y-43604191D01*
X186737325Y-43570083D01*
X186741707Y-43512415D01*
X186744471Y-43427404D01*
X186745740Y-43311272D01*
X186745639Y-43160236D01*
X186744368Y-42978549D01*
X186739800Y-42472000D01*
X186580000Y-42472000D01*
X186580000Y-43007288D01*
X186441375Y-42994343D01*
X186330829Y-42975678D01*
X186251444Y-42944320D01*
X186241815Y-42938009D01*
X186179623Y-42869854D01*
X186146819Y-42782640D01*
X186144405Y-42688716D01*
X186173383Y-42600430D01*
X186210399Y-42551041D01*
X186271754Y-42506992D01*
X186353460Y-42481583D01*
X186464706Y-42472192D01*
X186487396Y-42472000D01*
X186580000Y-42472000D01*
X186739800Y-42472000D01*
X186738750Y-42355583D01*
X186484750Y-42350293D01*
X186374208Y-42348719D01*
X186296252Y-42350225D01*
G36*
X177954698Y-42667474D02*
G01*
X177929120Y-42685347D01*
X177903089Y-42721502D01*
X177873871Y-42781001D01*
X177838735Y-42868905D01*
X177794948Y-42990275D01*
X177775299Y-43046721D01*
X177736453Y-43157402D01*
X177701448Y-43254099D01*
X177672959Y-43329661D01*
X177653659Y-43376932D01*
X177647313Y-43389096D01*
X177633067Y-43378443D01*
X177607704Y-43327406D01*
X177571389Y-43236407D01*
X177524286Y-43105863D01*
X177466559Y-42936195D01*
X177448288Y-42881046D01*
X177418796Y-42799026D01*
X177389969Y-42731408D01*
X177366728Y-42689366D01*
X177360983Y-42682891D01*
X177323757Y-42669783D01*
X177276520Y-42671863D01*
X177237479Y-42686121D01*
X177224334Y-42705481D01*
X177231364Y-42732012D01*
X177250997Y-42792172D01*
X177281047Y-42879922D01*
X177319326Y-42989227D01*
X177363648Y-43114047D01*
X177411827Y-43248347D01*
X177461677Y-43386088D01*
X177511010Y-43521234D01*
X177557640Y-43647746D01*
X177599381Y-43759588D01*
X177634046Y-43850721D01*
X177659448Y-43915109D01*
X177673402Y-43946715D01*
X177674464Y-43948375D01*
X177706292Y-43966403D01*
X177754498Y-43974155D01*
X177802545Y-43971579D01*
X177833900Y-43958620D01*
X177838167Y-43948899D01*
X177830834Y-43917334D01*
X177811560Y-43858926D01*
X177784431Y-43786010D01*
X177782939Y-43782198D01*
X177727711Y-43641431D01*
X177902436Y-43170993D01*
X177959524Y-43016379D01*
X178002275Y-42896824D01*
X178031401Y-42807818D01*
X178047612Y-42744851D01*
X178051619Y-42703412D01*
X178044134Y-42678992D01*
X178025868Y-42667081D01*
X177997530Y-42663169D01*
X177982554Y-42662824D01*
X177954698Y-42667474D01*
G37*
X177954698Y-42667474D02*
X177929120Y-42685347D01*
X177903089Y-42721502D01*
X177873871Y-42781001D01*
X177838735Y-42868905D01*
X177794948Y-42990275D01*
X177775299Y-43046721D01*
X177736453Y-43157402D01*
X177701448Y-43254099D01*
X177672959Y-43329661D01*
X177653659Y-43376932D01*
X177647313Y-43389096D01*
X177633067Y-43378443D01*
X177607704Y-43327406D01*
X177571389Y-43236407D01*
X177524286Y-43105863D01*
X177466559Y-42936195D01*
X177448288Y-42881046D01*
X177418796Y-42799026D01*
X177389969Y-42731408D01*
X177366728Y-42689366D01*
X177360983Y-42682891D01*
X177323757Y-42669783D01*
X177276520Y-42671863D01*
X177237479Y-42686121D01*
X177224334Y-42705481D01*
X177231364Y-42732012D01*
X177250997Y-42792172D01*
X177281047Y-42879922D01*
X177319326Y-42989227D01*
X177363648Y-43114047D01*
X177411827Y-43248347D01*
X177461677Y-43386088D01*
X177511010Y-43521234D01*
X177557640Y-43647746D01*
X177599381Y-43759588D01*
X177634046Y-43850721D01*
X177659448Y-43915109D01*
X177673402Y-43946715D01*
X177674464Y-43948375D01*
X177706292Y-43966403D01*
X177754498Y-43974155D01*
X177802545Y-43971579D01*
X177833900Y-43958620D01*
X177838167Y-43948899D01*
X177830834Y-43917334D01*
X177811560Y-43858926D01*
X177784431Y-43786010D01*
X177782939Y-43782198D01*
X177727711Y-43641431D01*
X177902436Y-43170993D01*
X177959524Y-43016379D01*
X178002275Y-42896824D01*
X178031401Y-42807818D01*
X178047612Y-42744851D01*
X178051619Y-42703412D01*
X178044134Y-42678992D01*
X178025868Y-42667081D01*
X177997530Y-42663169D01*
X177982554Y-42662824D01*
X177954698Y-42667474D01*
G36*
X179369277Y-44261659D02*
G01*
X179312122Y-44301647D01*
X179283464Y-44363857D01*
X179288515Y-44435155D01*
X179294427Y-44450230D01*
X179316516Y-44484451D01*
X179350957Y-44500168D01*
X179412453Y-44503999D01*
X179413885Y-44504000D01*
X179479636Y-44499069D01*
X179517031Y-44481055D01*
X179532061Y-44460619D01*
X179550814Y-44389787D01*
X179535802Y-44325703D01*
X179494420Y-44277410D01*
X179434065Y-44253947D01*
X179369277Y-44261659D01*
G37*
X179369277Y-44261659D02*
X179312122Y-44301647D01*
X179283464Y-44363857D01*
X179288515Y-44435155D01*
X179294427Y-44450230D01*
X179316516Y-44484451D01*
X179350957Y-44500168D01*
X179412453Y-44503999D01*
X179413885Y-44504000D01*
X179479636Y-44499069D01*
X179517031Y-44481055D01*
X179532061Y-44460619D01*
X179550814Y-44389787D01*
X179535802Y-44325703D01*
X179494420Y-44277410D01*
X179434065Y-44253947D01*
X179369277Y-44261659D01*
G36*
X172137331Y-44726556D02*
G01*
X172112584Y-44732470D01*
X172073258Y-44747804D01*
X172053262Y-44773863D01*
X172044499Y-44824154D01*
X172042641Y-44849172D01*
X172036198Y-44948091D01*
X172159057Y-44936892D01*
X172232245Y-44933473D01*
X172287034Y-44942863D01*
X172333946Y-44971044D01*
X172383497Y-45024001D01*
X172437019Y-45094989D01*
X172504167Y-45187684D01*
X172504167Y-45985666D01*
X172600081Y-45985666D01*
X172665532Y-45979932D01*
X172702494Y-45964492D01*
X172706258Y-45958922D01*
X172708734Y-45931490D01*
X172710596Y-45867411D01*
X172711802Y-45772368D01*
X172712309Y-45652046D01*
X172712075Y-45512126D01*
X172711057Y-45358292D01*
X172710886Y-45339797D01*
X172705250Y-44747416D01*
X172535917Y-44747416D01*
X172529326Y-44839056D01*
X172522735Y-44930695D01*
X172420618Y-44835177D01*
X172323796Y-44760744D01*
X172231428Y-44725224D01*
X172137331Y-44726556D01*
G37*
X172137331Y-44726556D02*
X172112584Y-44732470D01*
X172073258Y-44747804D01*
X172053262Y-44773863D01*
X172044499Y-44824154D01*
X172042641Y-44849172D01*
X172036198Y-44948091D01*
X172159057Y-44936892D01*
X172232245Y-44933473D01*
X172287034Y-44942863D01*
X172333946Y-44971044D01*
X172383497Y-45024001D01*
X172437019Y-45094989D01*
X172504167Y-45187684D01*
X172504167Y-45985666D01*
X172600081Y-45985666D01*
X172665532Y-45979932D01*
X172702494Y-45964492D01*
X172706258Y-45958922D01*
X172708734Y-45931490D01*
X172710596Y-45867411D01*
X172711802Y-45772368D01*
X172712309Y-45652046D01*
X172712075Y-45512126D01*
X172711057Y-45358292D01*
X172710886Y-45339797D01*
X172705250Y-44747416D01*
X172535917Y-44747416D01*
X172529326Y-44839056D01*
X172522735Y-44930695D01*
X172420618Y-44835177D01*
X172323796Y-44760744D01*
X172231428Y-44725224D01*
X172137331Y-44726556D01*
G36*
X174263324Y-44738176D02*
G01*
X174250285Y-44747825D01*
X174244264Y-44768357D01*
X174245862Y-44803130D01*
X174255679Y-44855500D01*
X174274316Y-44928824D01*
X174302374Y-45026459D01*
X174340453Y-45151761D01*
X174389153Y-45308086D01*
X174449076Y-45498792D01*
X174507278Y-45684041D01*
X174601897Y-45985666D01*
X174727038Y-45985666D01*
X174802887Y-45982705D01*
X174846923Y-45972065D01*
X174869366Y-45951111D01*
X174870678Y-45948625D01*
X174882014Y-45917360D01*
X174902598Y-45852284D01*
X174930329Y-45760367D01*
X174963109Y-45648582D01*
X174998835Y-45523901D01*
X175001706Y-45513758D01*
X175036925Y-45392670D01*
X175069192Y-45288140D01*
X175096544Y-45206018D01*
X175117018Y-45152157D01*
X175128651Y-45132407D01*
X175129521Y-45132758D01*
X175139515Y-45157706D01*
X175158069Y-45216912D01*
X175183226Y-45303628D01*
X175213026Y-45411106D01*
X175244981Y-45530583D01*
X175277850Y-45653643D01*
X175308356Y-45764247D01*
X175334432Y-45855177D01*
X175354011Y-45919215D01*
X175364739Y-45948625D01*
X175388868Y-45971932D01*
X175436168Y-45983270D01*
X175497403Y-45985666D01*
X175568830Y-45980821D01*
X175618440Y-45968052D01*
X175631129Y-45959208D01*
X175644615Y-45929782D01*
X175667339Y-45866828D01*
X175697410Y-45776656D01*
X175732941Y-45665574D01*
X175772043Y-45539893D01*
X175812827Y-45405922D01*
X175853404Y-45269969D01*
X175891887Y-45138346D01*
X175926385Y-45017360D01*
X175955012Y-44913322D01*
X175975877Y-44832540D01*
X175987094Y-44781325D01*
X175988176Y-44766401D01*
X175961095Y-44746929D01*
X175910234Y-44737710D01*
X175852955Y-44739017D01*
X175806618Y-44751125D01*
X175791541Y-44763291D01*
X175780879Y-44790414D01*
X175760268Y-44852135D01*
X175731608Y-44942410D01*
X175696800Y-45055197D01*
X175657744Y-45184451D01*
X175633474Y-45266000D01*
X175593502Y-45398130D01*
X175556912Y-45513533D01*
X175525475Y-45607065D01*
X175500962Y-45673585D01*
X175485146Y-45707950D01*
X175480323Y-45710500D01*
X175471432Y-45681368D01*
X175453441Y-45617772D01*
X175428127Y-45526158D01*
X175397265Y-45412976D01*
X175362633Y-45284672D01*
X175349109Y-45234250D01*
X175313136Y-45102278D01*
X175279526Y-44983423D01*
X175250176Y-44884050D01*
X175226984Y-44810521D01*
X175211849Y-44769198D01*
X175208626Y-44763291D01*
X175173863Y-44744795D01*
X175119745Y-44736839D01*
X175118250Y-44736833D01*
X175063793Y-44744426D01*
X175027974Y-44762746D01*
X175027510Y-44763291D01*
X175015535Y-44790590D01*
X174994054Y-44852452D01*
X174965032Y-44942691D01*
X174930435Y-45055120D01*
X174892226Y-45183553D01*
X174872876Y-45250125D01*
X174834255Y-45382164D01*
X174798934Y-45499413D01*
X174768727Y-45596135D01*
X174745447Y-45666594D01*
X174730906Y-45705052D01*
X174727386Y-45710500D01*
X174718223Y-45691063D01*
X174699325Y-45636495D01*
X174672458Y-45552403D01*
X174639384Y-45444397D01*
X174601868Y-45318088D01*
X174575973Y-45228958D01*
X174437258Y-44747416D01*
X174338546Y-44740965D01*
X174308055Y-44738103D01*
X174282781Y-44736054D01*
X174263324Y-44738176D01*
G37*
X174263324Y-44738176D02*
X174250285Y-44747825D01*
X174244264Y-44768357D01*
X174245862Y-44803130D01*
X174255679Y-44855500D01*
X174274316Y-44928824D01*
X174302374Y-45026459D01*
X174340453Y-45151761D01*
X174389153Y-45308086D01*
X174449076Y-45498792D01*
X174507278Y-45684041D01*
X174601897Y-45985666D01*
X174727038Y-45985666D01*
X174802887Y-45982705D01*
X174846923Y-45972065D01*
X174869366Y-45951111D01*
X174870678Y-45948625D01*
X174882014Y-45917360D01*
X174902598Y-45852284D01*
X174930329Y-45760367D01*
X174963109Y-45648582D01*
X174998835Y-45523901D01*
X175001706Y-45513758D01*
X175036925Y-45392670D01*
X175069192Y-45288140D01*
X175096544Y-45206018D01*
X175117018Y-45152157D01*
X175128651Y-45132407D01*
X175129521Y-45132758D01*
X175139515Y-45157706D01*
X175158069Y-45216912D01*
X175183226Y-45303628D01*
X175213026Y-45411106D01*
X175244981Y-45530583D01*
X175277850Y-45653643D01*
X175308356Y-45764247D01*
X175334432Y-45855177D01*
X175354011Y-45919215D01*
X175364739Y-45948625D01*
X175388868Y-45971932D01*
X175436168Y-45983270D01*
X175497403Y-45985666D01*
X175568830Y-45980821D01*
X175618440Y-45968052D01*
X175631129Y-45959208D01*
X175644615Y-45929782D01*
X175667339Y-45866828D01*
X175697410Y-45776656D01*
X175732941Y-45665574D01*
X175772043Y-45539893D01*
X175812827Y-45405922D01*
X175853404Y-45269969D01*
X175891887Y-45138346D01*
X175926385Y-45017360D01*
X175955012Y-44913322D01*
X175975877Y-44832540D01*
X175987094Y-44781325D01*
X175988176Y-44766401D01*
X175961095Y-44746929D01*
X175910234Y-44737710D01*
X175852955Y-44739017D01*
X175806618Y-44751125D01*
X175791541Y-44763291D01*
X175780879Y-44790414D01*
X175760268Y-44852135D01*
X175731608Y-44942410D01*
X175696800Y-45055197D01*
X175657744Y-45184451D01*
X175633474Y-45266000D01*
X175593502Y-45398130D01*
X175556912Y-45513533D01*
X175525475Y-45607065D01*
X175500962Y-45673585D01*
X175485146Y-45707950D01*
X175480323Y-45710500D01*
X175471432Y-45681368D01*
X175453441Y-45617772D01*
X175428127Y-45526158D01*
X175397265Y-45412976D01*
X175362633Y-45284672D01*
X175349109Y-45234250D01*
X175313136Y-45102278D01*
X175279526Y-44983423D01*
X175250176Y-44884050D01*
X175226984Y-44810521D01*
X175211849Y-44769198D01*
X175208626Y-44763291D01*
X175173863Y-44744795D01*
X175119745Y-44736839D01*
X175118250Y-44736833D01*
X175063793Y-44744426D01*
X175027974Y-44762746D01*
X175027510Y-44763291D01*
X175015535Y-44790590D01*
X174994054Y-44852452D01*
X174965032Y-44942691D01*
X174930435Y-45055120D01*
X174892226Y-45183553D01*
X174872876Y-45250125D01*
X174834255Y-45382164D01*
X174798934Y-45499413D01*
X174768727Y-45596135D01*
X174745447Y-45666594D01*
X174730906Y-45705052D01*
X174727386Y-45710500D01*
X174718223Y-45691063D01*
X174699325Y-45636495D01*
X174672458Y-45552403D01*
X174639384Y-45444397D01*
X174601868Y-45318088D01*
X174575973Y-45228958D01*
X174437258Y-44747416D01*
X174338546Y-44740965D01*
X174308055Y-44738103D01*
X174282781Y-44736054D01*
X174263324Y-44738176D01*
G36*
X177294857Y-44735696D02*
G01*
X177193382Y-44777158D01*
X177112196Y-44840948D01*
X177081054Y-44883316D01*
X177046083Y-44944248D01*
X176953541Y-44862789D01*
X176835653Y-44780348D01*
X176714330Y-44733975D01*
X176595210Y-44723295D01*
X176483934Y-44747927D01*
X176386144Y-44807496D01*
X176307477Y-44901623D01*
X176304728Y-44906238D01*
X176290866Y-44932674D01*
X176280151Y-44962718D01*
X176272080Y-45002162D01*
X176266151Y-45056800D01*
X176261860Y-45132422D01*
X176258707Y-45234821D01*
X176256186Y-45369788D01*
X176254564Y-45484175D01*
X176247877Y-45988100D01*
X176349814Y-45981591D01*
X176451750Y-45975083D01*
X176462334Y-45520000D01*
X176467732Y-45338647D01*
X176474573Y-45198437D01*
X176482945Y-45098196D01*
X176492935Y-45036757D01*
X176499539Y-45018377D01*
X176561124Y-44946501D01*
X176639016Y-44911677D01*
X176727572Y-44914756D01*
X176821148Y-44956592D01*
X176836830Y-44967388D01*
X176893746Y-45009359D01*
X176936828Y-45046236D01*
X176968001Y-45084579D01*
X176989193Y-45130950D01*
X177002329Y-45191911D01*
X177009336Y-45274022D01*
X177012139Y-45383845D01*
X177012666Y-45527941D01*
X177012667Y-45566347D01*
X177012667Y-45987986D01*
X177113209Y-45981534D01*
X177213750Y-45975083D01*
X177224334Y-45520000D01*
X177229732Y-45338647D01*
X177236573Y-45198437D01*
X177244945Y-45098196D01*
X177254935Y-45036757D01*
X177261539Y-45018377D01*
X177323124Y-44946501D01*
X177401016Y-44911677D01*
X177489572Y-44914756D01*
X177583148Y-44956592D01*
X177598830Y-44967388D01*
X177655809Y-45009412D01*
X177698921Y-45046338D01*
X177730100Y-45084739D01*
X177751278Y-45131189D01*
X177764391Y-45192261D01*
X177771370Y-45274528D01*
X177774151Y-45384566D01*
X177774666Y-45528946D01*
X177774667Y-45565187D01*
X177774667Y-45985666D01*
X177870581Y-45985666D01*
X177936032Y-45979932D01*
X177972994Y-45964492D01*
X177976758Y-45958922D01*
X177979234Y-45931490D01*
X177981096Y-45867411D01*
X177982302Y-45772368D01*
X177982809Y-45652046D01*
X177982575Y-45512126D01*
X177981557Y-45358292D01*
X177981386Y-45339797D01*
X177975750Y-44747416D01*
X177891084Y-44747416D01*
X177836635Y-44749850D01*
X177811317Y-44764800D01*
X177801940Y-44803743D01*
X177799848Y-44826791D01*
X177793475Y-44877823D01*
X177785908Y-44904865D01*
X177784156Y-44906166D01*
X177763736Y-44894382D01*
X177720573Y-44863964D01*
X177680533Y-44834032D01*
X177611511Y-44787528D01*
X177541056Y-44749496D01*
X177509429Y-44736617D01*
X177404309Y-44720777D01*
X177294857Y-44735696D01*
G37*
X177294857Y-44735696D02*
X177193382Y-44777158D01*
X177112196Y-44840948D01*
X177081054Y-44883316D01*
X177046083Y-44944248D01*
X176953541Y-44862789D01*
X176835653Y-44780348D01*
X176714330Y-44733975D01*
X176595210Y-44723295D01*
X176483934Y-44747927D01*
X176386144Y-44807496D01*
X176307477Y-44901623D01*
X176304728Y-44906238D01*
X176290866Y-44932674D01*
X176280151Y-44962718D01*
X176272080Y-45002162D01*
X176266151Y-45056800D01*
X176261860Y-45132422D01*
X176258707Y-45234821D01*
X176256186Y-45369788D01*
X176254564Y-45484175D01*
X176247877Y-45988100D01*
X176349814Y-45981591D01*
X176451750Y-45975083D01*
X176462334Y-45520000D01*
X176467732Y-45338647D01*
X176474573Y-45198437D01*
X176482945Y-45098196D01*
X176492935Y-45036757D01*
X176499539Y-45018377D01*
X176561124Y-44946501D01*
X176639016Y-44911677D01*
X176727572Y-44914756D01*
X176821148Y-44956592D01*
X176836830Y-44967388D01*
X176893746Y-45009359D01*
X176936828Y-45046236D01*
X176968001Y-45084579D01*
X176989193Y-45130950D01*
X177002329Y-45191911D01*
X177009336Y-45274022D01*
X177012139Y-45383845D01*
X177012666Y-45527941D01*
X177012667Y-45566347D01*
X177012667Y-45987986D01*
X177113209Y-45981534D01*
X177213750Y-45975083D01*
X177224334Y-45520000D01*
X177229732Y-45338647D01*
X177236573Y-45198437D01*
X177244945Y-45098196D01*
X177254935Y-45036757D01*
X177261539Y-45018377D01*
X177323124Y-44946501D01*
X177401016Y-44911677D01*
X177489572Y-44914756D01*
X177583148Y-44956592D01*
X177598830Y-44967388D01*
X177655809Y-45009412D01*
X177698921Y-45046338D01*
X177730100Y-45084739D01*
X177751278Y-45131189D01*
X177764391Y-45192261D01*
X177771370Y-45274528D01*
X177774151Y-45384566D01*
X177774666Y-45528946D01*
X177774667Y-45565187D01*
X177774667Y-45985666D01*
X177870581Y-45985666D01*
X177936032Y-45979932D01*
X177972994Y-45964492D01*
X177976758Y-45958922D01*
X177979234Y-45931490D01*
X177981096Y-45867411D01*
X177982302Y-45772368D01*
X177982809Y-45652046D01*
X177982575Y-45512126D01*
X177981557Y-45358292D01*
X177981386Y-45339797D01*
X177975750Y-44747416D01*
X177891084Y-44747416D01*
X177836635Y-44749850D01*
X177811317Y-44764800D01*
X177801940Y-44803743D01*
X177799848Y-44826791D01*
X177793475Y-44877823D01*
X177785908Y-44904865D01*
X177784156Y-44906166D01*
X177763736Y-44894382D01*
X177720573Y-44863964D01*
X177680533Y-44834032D01*
X177611511Y-44787528D01*
X177541056Y-44749496D01*
X177509429Y-44736617D01*
X177404309Y-44720777D01*
X177294857Y-44735696D01*
G36*
X178340802Y-44727028D02*
G01*
X178267322Y-44750848D01*
X178229056Y-44786300D01*
X178219167Y-44832943D01*
X178224782Y-44898527D01*
X178247447Y-44932015D01*
X178295894Y-44940522D01*
X178345620Y-44935991D01*
X178420793Y-44931549D01*
X178480451Y-44944957D01*
X178535541Y-44981857D01*
X178597009Y-45047895D01*
X178621501Y-45078234D01*
X178706000Y-45185134D01*
X178706000Y-45985666D01*
X178801915Y-45985666D01*
X178867365Y-45979932D01*
X178904327Y-45964492D01*
X178908092Y-45958922D01*
X178910568Y-45931490D01*
X178912430Y-45867411D01*
X178913635Y-45772368D01*
X178914142Y-45652046D01*
X178913908Y-45512126D01*
X178912890Y-45358292D01*
X178912719Y-45339797D01*
X178907084Y-44747416D01*
X178822417Y-44747416D01*
X178769468Y-44749517D01*
X178743355Y-44763599D01*
X178731898Y-44801328D01*
X178727167Y-44838654D01*
X178716584Y-44929891D01*
X178633236Y-44844275D01*
X178533965Y-44763832D01*
X178433776Y-44725242D01*
X178340802Y-44727028D01*
G37*
X178340802Y-44727028D02*
X178267322Y-44750848D01*
X178229056Y-44786300D01*
X178219167Y-44832943D01*
X178224782Y-44898527D01*
X178247447Y-44932015D01*
X178295894Y-44940522D01*
X178345620Y-44935991D01*
X178420793Y-44931549D01*
X178480451Y-44944957D01*
X178535541Y-44981857D01*
X178597009Y-45047895D01*
X178621501Y-45078234D01*
X178706000Y-45185134D01*
X178706000Y-45985666D01*
X178801915Y-45985666D01*
X178867365Y-45979932D01*
X178904327Y-45964492D01*
X178908092Y-45958922D01*
X178910568Y-45931490D01*
X178912430Y-45867411D01*
X178913635Y-45772368D01*
X178914142Y-45652046D01*
X178913908Y-45512126D01*
X178912890Y-45358292D01*
X178912719Y-45339797D01*
X178907084Y-44747416D01*
X178822417Y-44747416D01*
X178769468Y-44749517D01*
X178743355Y-44763599D01*
X178731898Y-44801328D01*
X178727167Y-44838654D01*
X178716584Y-44929891D01*
X178633236Y-44844275D01*
X178533965Y-44763832D01*
X178433776Y-44725242D01*
X178340802Y-44727028D01*
G36*
X179360276Y-44744578D02*
G01*
X179324067Y-44762233D01*
X179315721Y-44784050D01*
X179309196Y-44832948D01*
X179304360Y-44911997D01*
X179301082Y-45024265D01*
X179299228Y-45172823D01*
X179298667Y-45353168D01*
X179299133Y-45505088D01*
X179300447Y-45644091D01*
X179302481Y-45764255D01*
X179305108Y-45859655D01*
X179308202Y-45924369D01*
X179311515Y-45952185D01*
X179339508Y-45976509D01*
X179401889Y-45985530D01*
X179413821Y-45985666D01*
X179472490Y-45982590D01*
X179511513Y-45974890D01*
X179517389Y-45971555D01*
X179521076Y-45947494D01*
X179524403Y-45886666D01*
X179527240Y-45794635D01*
X179529455Y-45676969D01*
X179530917Y-45539231D01*
X179531496Y-45386988D01*
X179531500Y-45372538D01*
X179530924Y-45183008D01*
X179529108Y-45032739D01*
X179525928Y-44918676D01*
X179521254Y-44837763D01*
X179514960Y-44786942D01*
X179506919Y-44763157D01*
X179506100Y-44762233D01*
X179467875Y-44744015D01*
X179415084Y-44736833D01*
X179360276Y-44744578D01*
G37*
X179360276Y-44744578D02*
X179324067Y-44762233D01*
X179315721Y-44784050D01*
X179309196Y-44832948D01*
X179304360Y-44911997D01*
X179301082Y-45024265D01*
X179299228Y-45172823D01*
X179298667Y-45353168D01*
X179299133Y-45505088D01*
X179300447Y-45644091D01*
X179302481Y-45764255D01*
X179305108Y-45859655D01*
X179308202Y-45924369D01*
X179311515Y-45952185D01*
X179339508Y-45976509D01*
X179401889Y-45985530D01*
X179413821Y-45985666D01*
X179472490Y-45982590D01*
X179511513Y-45974890D01*
X179517389Y-45971555D01*
X179521076Y-45947494D01*
X179524403Y-45886666D01*
X179527240Y-45794635D01*
X179529455Y-45676969D01*
X179530917Y-45539231D01*
X179531496Y-45386988D01*
X179531500Y-45372538D01*
X179530924Y-45183008D01*
X179529108Y-45032739D01*
X179525928Y-44918676D01*
X179521254Y-44837763D01*
X179514960Y-44786942D01*
X179506919Y-44763157D01*
X179506100Y-44762233D01*
X179467875Y-44744015D01*
X179415084Y-44736833D01*
X179360276Y-44744578D01*
G36*
X180246371Y-44297145D02*
G01*
X179859584Y-44302916D01*
X179853075Y-44392875D01*
X179846566Y-44482833D01*
X180505167Y-44482833D01*
X180505167Y-45054333D01*
X180211426Y-45054333D01*
X180081997Y-45055392D01*
X179989232Y-45059911D01*
X179927489Y-45069905D01*
X179891124Y-45087387D01*
X179874491Y-45114370D01*
X179871949Y-45152870D01*
X179873929Y-45174761D01*
X179880750Y-45234250D01*
X180192959Y-45240107D01*
X180505167Y-45245965D01*
X180505167Y-45985666D01*
X180716834Y-45985666D01*
X180716834Y-45160911D01*
X180716766Y-44952347D01*
X180716431Y-44782096D01*
X180715629Y-44646136D01*
X180714163Y-44540446D01*
X180711833Y-44461006D01*
X180708441Y-44403795D01*
X180703788Y-44364791D01*
X180697676Y-44339974D01*
X180689907Y-44325323D01*
X180680281Y-44316817D01*
X180674996Y-44313765D01*
X180636377Y-44305347D01*
X180559161Y-44299562D01*
X180447010Y-44296552D01*
X180303586Y-44296458D01*
X180246371Y-44297145D01*
G37*
X180246371Y-44297145D02*
X179859584Y-44302916D01*
X179853075Y-44392875D01*
X179846566Y-44482833D01*
X180505167Y-44482833D01*
X180505167Y-45054333D01*
X180211426Y-45054333D01*
X180081997Y-45055392D01*
X179989232Y-45059911D01*
X179927489Y-45069905D01*
X179891124Y-45087387D01*
X179874491Y-45114370D01*
X179871949Y-45152870D01*
X179873929Y-45174761D01*
X179880750Y-45234250D01*
X180192959Y-45240107D01*
X180505167Y-45245965D01*
X180505167Y-45985666D01*
X180716834Y-45985666D01*
X180716834Y-45160911D01*
X180716766Y-44952347D01*
X180716431Y-44782096D01*
X180715629Y-44646136D01*
X180714163Y-44540446D01*
X180711833Y-44461006D01*
X180708441Y-44403795D01*
X180703788Y-44364791D01*
X180697676Y-44339974D01*
X180689907Y-44325323D01*
X180680281Y-44316817D01*
X180674996Y-44313765D01*
X180636377Y-44305347D01*
X180559161Y-44299562D01*
X180447010Y-44296552D01*
X180303586Y-44296458D01*
X180246371Y-44297145D01*
G36*
X181758252Y-44296515D02*
G01*
X181688302Y-44306903D01*
X181655900Y-44327393D01*
X181653010Y-44335219D01*
X181664326Y-44360244D01*
X181699426Y-44412180D01*
X181754428Y-44485892D01*
X181825452Y-44576246D01*
X181908620Y-44678106D01*
X181945027Y-44721646D01*
X182050836Y-44849371D01*
X182133215Y-44953212D01*
X182190783Y-45031307D01*
X182222155Y-45081795D01*
X182227159Y-45101668D01*
X182210189Y-45125431D01*
X182171469Y-45177724D01*
X182114874Y-45253378D01*
X182044275Y-45347225D01*
X181963547Y-45454095D01*
X181920896Y-45510400D01*
X181836833Y-45622623D01*
X181761692Y-45725504D01*
X181699251Y-45813660D01*
X181653288Y-45881709D01*
X181627582Y-45924265D01*
X181623528Y-45934158D01*
X181625088Y-45959349D01*
X181647458Y-45973140D01*
X181700238Y-45980322D01*
X181718603Y-45981601D01*
X181784518Y-45981020D01*
X181834729Y-45972096D01*
X181848133Y-45965427D01*
X181867998Y-45942450D01*
X181908873Y-45890318D01*
X181966893Y-45814132D01*
X182038196Y-45718994D01*
X182118917Y-45610005D01*
X182169280Y-45541427D01*
X182252819Y-45428183D01*
X182328469Y-45327269D01*
X182392566Y-45243441D01*
X182441447Y-45181454D01*
X182471448Y-45146061D01*
X182478959Y-45139560D01*
X182483783Y-45159494D01*
X182488017Y-45215434D01*
X182491424Y-45301057D01*
X182493765Y-45410036D01*
X182494803Y-45536046D01*
X182494834Y-45562333D01*
X182494834Y-45985666D01*
X182706986Y-45985666D01*
X182701452Y-45144291D01*
X182695917Y-44302916D01*
X182505417Y-44302916D01*
X182499637Y-44678625D01*
X182496959Y-44799338D01*
X182493071Y-44903824D01*
X182488352Y-44985382D01*
X182483182Y-45037315D01*
X182478470Y-45053189D01*
X182461466Y-45036991D01*
X182422183Y-44992192D01*
X182364513Y-44923465D01*
X182292349Y-44835484D01*
X182209583Y-44732922D01*
X182160228Y-44671079D01*
X181857372Y-44290114D01*
X181758252Y-44296515D01*
G37*
X181758252Y-44296515D02*
X181688302Y-44306903D01*
X181655900Y-44327393D01*
X181653010Y-44335219D01*
X181664326Y-44360244D01*
X181699426Y-44412180D01*
X181754428Y-44485892D01*
X181825452Y-44576246D01*
X181908620Y-44678106D01*
X181945027Y-44721646D01*
X182050836Y-44849371D01*
X182133215Y-44953212D01*
X182190783Y-45031307D01*
X182222155Y-45081795D01*
X182227159Y-45101668D01*
X182210189Y-45125431D01*
X182171469Y-45177724D01*
X182114874Y-45253378D01*
X182044275Y-45347225D01*
X181963547Y-45454095D01*
X181920896Y-45510400D01*
X181836833Y-45622623D01*
X181761692Y-45725504D01*
X181699251Y-45813660D01*
X181653288Y-45881709D01*
X181627582Y-45924265D01*
X181623528Y-45934158D01*
X181625088Y-45959349D01*
X181647458Y-45973140D01*
X181700238Y-45980322D01*
X181718603Y-45981601D01*
X181784518Y-45981020D01*
X181834729Y-45972096D01*
X181848133Y-45965427D01*
X181867998Y-45942450D01*
X181908873Y-45890318D01*
X181966893Y-45814132D01*
X182038196Y-45718994D01*
X182118917Y-45610005D01*
X182169280Y-45541427D01*
X182252819Y-45428183D01*
X182328469Y-45327269D01*
X182392566Y-45243441D01*
X182441447Y-45181454D01*
X182471448Y-45146061D01*
X182478959Y-45139560D01*
X182483783Y-45159494D01*
X182488017Y-45215434D01*
X182491424Y-45301057D01*
X182493765Y-45410036D01*
X182494803Y-45536046D01*
X182494834Y-45562333D01*
X182494834Y-45985666D01*
X182706986Y-45985666D01*
X182701452Y-45144291D01*
X182695917Y-44302916D01*
X182505417Y-44302916D01*
X182499637Y-44678625D01*
X182496959Y-44799338D01*
X182493071Y-44903824D01*
X182488352Y-44985382D01*
X182483182Y-45037315D01*
X182478470Y-45053189D01*
X182461466Y-45036991D01*
X182422183Y-44992192D01*
X182364513Y-44923465D01*
X182292349Y-44835484D01*
X182209583Y-44732922D01*
X182160228Y-44671079D01*
X181857372Y-44290114D01*
X181758252Y-44296515D01*
G36*
X184755040Y-44297981D02*
G01*
X184676784Y-44316930D01*
X184615260Y-44346696D01*
X184584864Y-44381508D01*
X184515502Y-44559213D01*
X184445700Y-44737045D01*
X184377234Y-44910559D01*
X184311883Y-45075310D01*
X184251426Y-45226854D01*
X184197641Y-45360746D01*
X184152306Y-45472541D01*
X184117200Y-45557794D01*
X184094100Y-45612062D01*
X184085042Y-45630741D01*
X184073796Y-45615762D01*
X184048786Y-45566029D01*
X184012024Y-45486072D01*
X183965519Y-45380421D01*
X183911282Y-45253607D01*
X183851324Y-45110160D01*
X183817322Y-45027491D01*
X183732495Y-44822911D01*
X183659658Y-44653174D01*
X183599325Y-44519404D01*
X183552011Y-44422723D01*
X183518230Y-44364255D01*
X183507416Y-44350541D01*
X183461712Y-44312853D01*
X183410043Y-44295815D01*
X183347174Y-44292333D01*
X183301367Y-44291813D01*
X183263767Y-44292781D01*
X183233568Y-44299027D01*
X183209962Y-44314344D01*
X183192141Y-44342522D01*
X183179299Y-44387353D01*
X183170628Y-44452628D01*
X183165319Y-44542138D01*
X183162567Y-44659675D01*
X183161563Y-44809029D01*
X183161499Y-44993993D01*
X183161584Y-45163740D01*
X183161584Y-45975083D01*
X183373250Y-45975083D01*
X183383834Y-45238052D01*
X183394417Y-44501022D01*
X183691380Y-45238052D01*
X183988343Y-45975083D01*
X184193507Y-45975083D01*
X184471295Y-45251322D01*
X184749084Y-44527562D01*
X184759667Y-45251322D01*
X184770250Y-45975083D01*
X184866289Y-45981350D01*
X184927184Y-45982062D01*
X184969131Y-45976565D01*
X184977414Y-45972531D01*
X184980804Y-45948659D01*
X184983928Y-45887182D01*
X184986698Y-45792828D01*
X184989028Y-45670326D01*
X184990829Y-45524404D01*
X184992014Y-45359791D01*
X184992494Y-45181213D01*
X184992500Y-45158150D01*
X184992324Y-44950168D01*
X184991687Y-44780492D01*
X184990429Y-44645100D01*
X184988389Y-44539965D01*
X184985406Y-44461064D01*
X184981320Y-44404371D01*
X184975970Y-44365862D01*
X184969194Y-44341512D01*
X184960833Y-44327296D01*
X184959239Y-44325595D01*
X184909364Y-44300357D01*
X184836932Y-44291805D01*
X184755040Y-44297981D01*
G37*
X184755040Y-44297981D02*
X184676784Y-44316930D01*
X184615260Y-44346696D01*
X184584864Y-44381508D01*
X184515502Y-44559213D01*
X184445700Y-44737045D01*
X184377234Y-44910559D01*
X184311883Y-45075310D01*
X184251426Y-45226854D01*
X184197641Y-45360746D01*
X184152306Y-45472541D01*
X184117200Y-45557794D01*
X184094100Y-45612062D01*
X184085042Y-45630741D01*
X184073796Y-45615762D01*
X184048786Y-45566029D01*
X184012024Y-45486072D01*
X183965519Y-45380421D01*
X183911282Y-45253607D01*
X183851324Y-45110160D01*
X183817322Y-45027491D01*
X183732495Y-44822911D01*
X183659658Y-44653174D01*
X183599325Y-44519404D01*
X183552011Y-44422723D01*
X183518230Y-44364255D01*
X183507416Y-44350541D01*
X183461712Y-44312853D01*
X183410043Y-44295815D01*
X183347174Y-44292333D01*
X183301367Y-44291813D01*
X183263767Y-44292781D01*
X183233568Y-44299027D01*
X183209962Y-44314344D01*
X183192141Y-44342522D01*
X183179299Y-44387353D01*
X183170628Y-44452628D01*
X183165319Y-44542138D01*
X183162567Y-44659675D01*
X183161563Y-44809029D01*
X183161499Y-44993993D01*
X183161584Y-45163740D01*
X183161584Y-45975083D01*
X183373250Y-45975083D01*
X183383834Y-45238052D01*
X183394417Y-44501022D01*
X183691380Y-45238052D01*
X183988343Y-45975083D01*
X184193507Y-45975083D01*
X184471295Y-45251322D01*
X184749084Y-44527562D01*
X184759667Y-45251322D01*
X184770250Y-45975083D01*
X184866289Y-45981350D01*
X184927184Y-45982062D01*
X184969131Y-45976565D01*
X184977414Y-45972531D01*
X184980804Y-45948659D01*
X184983928Y-45887182D01*
X184986698Y-45792828D01*
X184989028Y-45670326D01*
X184990829Y-45524404D01*
X184992014Y-45359791D01*
X184992494Y-45181213D01*
X184992500Y-45158150D01*
X184992324Y-44950168D01*
X184991687Y-44780492D01*
X184990429Y-44645100D01*
X184988389Y-44539965D01*
X184985406Y-44461064D01*
X184981320Y-44404371D01*
X184975970Y-44365862D01*
X184969194Y-44341512D01*
X184960833Y-44327296D01*
X184959239Y-44325595D01*
X184909364Y-44300357D01*
X184836932Y-44291805D01*
X184755040Y-44297981D01*
G36*
X171169781Y-44743696D02*
G01*
X171166481Y-44744646D01*
X171057138Y-44795061D01*
X170960570Y-44874098D01*
X170887447Y-44971272D01*
X170853838Y-45051842D01*
X170836497Y-45138104D01*
X170828195Y-45226927D01*
X170828902Y-45307004D01*
X170838593Y-45367029D01*
X170854674Y-45394379D01*
X170884613Y-45400424D01*
X170949683Y-45405719D01*
X171042685Y-45409937D01*
X171156421Y-45412754D01*
X171283690Y-45413842D01*
X171284196Y-45413842D01*
X171683474Y-45414166D01*
X171668629Y-45514708D01*
X171632930Y-45639696D01*
X171568420Y-45734626D01*
X171477112Y-45798455D01*
X171361021Y-45830141D01*
X171222162Y-45828641D01*
X171106479Y-45805699D01*
X171005973Y-45778799D01*
X170939552Y-45762617D01*
X170900195Y-45757757D01*
X170880880Y-45764822D01*
X170874586Y-45784415D01*
X170874291Y-45817139D01*
X170874334Y-45825639D01*
X170877599Y-45873022D01*
X170894097Y-45903374D01*
X170933885Y-45928941D01*
X170974606Y-45947735D01*
X171048405Y-45970472D01*
X171147506Y-45987973D01*
X171258039Y-45999184D01*
X171366130Y-46003051D01*
X171457909Y-45998518D01*
X171509471Y-45988400D01*
X171650341Y-45922025D01*
X171762258Y-45824905D01*
X171839105Y-45710500D01*
X171864128Y-45635503D01*
X171880668Y-45531815D01*
X171888274Y-45412306D01*
X171886499Y-45289850D01*
X171881857Y-45244833D01*
X171682031Y-45244833D01*
X171043667Y-45244833D01*
X171043667Y-45180490D01*
X171058475Y-45099301D01*
X171096776Y-45017206D01*
X171149382Y-44950995D01*
X171182537Y-44926645D01*
X171238619Y-44908113D01*
X171313656Y-44897002D01*
X171348497Y-44895583D01*
X171463686Y-44913593D01*
X171555994Y-44966895D01*
X171624177Y-45054393D01*
X171666990Y-45174993D01*
X171667216Y-45176041D01*
X171682031Y-45244833D01*
X171881857Y-45244833D01*
X171874893Y-45177318D01*
X171860083Y-45109275D01*
X171800485Y-44974423D01*
X171710826Y-44864997D01*
X171597015Y-44784104D01*
X171464964Y-44734852D01*
X171320582Y-44720346D01*
X171169781Y-44743696D01*
G37*
X171169781Y-44743696D02*
X171166481Y-44744646D01*
X171057138Y-44795061D01*
X170960570Y-44874098D01*
X170887447Y-44971272D01*
X170853838Y-45051842D01*
X170836497Y-45138104D01*
X170828195Y-45226927D01*
X170828902Y-45307004D01*
X170838593Y-45367029D01*
X170854674Y-45394379D01*
X170884613Y-45400424D01*
X170949683Y-45405719D01*
X171042685Y-45409937D01*
X171156421Y-45412754D01*
X171283690Y-45413842D01*
X171284196Y-45413842D01*
X171683474Y-45414166D01*
X171668629Y-45514708D01*
X171632930Y-45639696D01*
X171568420Y-45734626D01*
X171477112Y-45798455D01*
X171361021Y-45830141D01*
X171222162Y-45828641D01*
X171106479Y-45805699D01*
X171005973Y-45778799D01*
X170939552Y-45762617D01*
X170900195Y-45757757D01*
X170880880Y-45764822D01*
X170874586Y-45784415D01*
X170874291Y-45817139D01*
X170874334Y-45825639D01*
X170877599Y-45873022D01*
X170894097Y-45903374D01*
X170933885Y-45928941D01*
X170974606Y-45947735D01*
X171048405Y-45970472D01*
X171147506Y-45987973D01*
X171258039Y-45999184D01*
X171366130Y-46003051D01*
X171457909Y-45998518D01*
X171509471Y-45988400D01*
X171650341Y-45922025D01*
X171762258Y-45824905D01*
X171839105Y-45710500D01*
X171864128Y-45635503D01*
X171880668Y-45531815D01*
X171888274Y-45412306D01*
X171886499Y-45289850D01*
X171881857Y-45244833D01*
X171682031Y-45244833D01*
X171043667Y-45244833D01*
X171043667Y-45180490D01*
X171058475Y-45099301D01*
X171096776Y-45017206D01*
X171149382Y-44950995D01*
X171182537Y-44926645D01*
X171238619Y-44908113D01*
X171313656Y-44897002D01*
X171348497Y-44895583D01*
X171463686Y-44913593D01*
X171555994Y-44966895D01*
X171624177Y-45054393D01*
X171666990Y-45174993D01*
X171667216Y-45176041D01*
X171682031Y-45244833D01*
X171881857Y-45244833D01*
X171874893Y-45177318D01*
X171860083Y-45109275D01*
X171800485Y-44974423D01*
X171710826Y-44864997D01*
X171597015Y-44784104D01*
X171464964Y-44734852D01*
X171320582Y-44720346D01*
X171169781Y-44743696D01*
G36*
X173496481Y-44726036D02*
G01*
X173460359Y-44731815D01*
X173346453Y-44759748D01*
X173261109Y-44802998D01*
X173191329Y-44868840D01*
X173172225Y-44893097D01*
X173158533Y-44913782D01*
X173147926Y-44938327D01*
X173139921Y-44972259D01*
X173134041Y-45021110D01*
X173129803Y-45090407D01*
X173126728Y-45185681D01*
X173124336Y-45312461D01*
X173122240Y-45468581D01*
X173115897Y-45985666D01*
X173201615Y-45985666D01*
X173256340Y-45983238D01*
X173280837Y-45969995D01*
X173287171Y-45936999D01*
X173287334Y-45922166D01*
X173295358Y-45873838D01*
X173315388Y-45858832D01*
X173341363Y-45881634D01*
X173341595Y-45882008D01*
X173367662Y-45903313D01*
X173419558Y-45933514D01*
X173464553Y-45955885D01*
X173601424Y-45999273D01*
X173736496Y-46002937D01*
X173863874Y-45966829D01*
X173879568Y-45959208D01*
X173974637Y-45895483D01*
X174033841Y-45816158D01*
X174063039Y-45712787D01*
X174065542Y-45691155D01*
X174061166Y-45604452D01*
X173852946Y-45604452D01*
X173848614Y-45687677D01*
X173813155Y-45764715D01*
X173751053Y-45814719D01*
X173669363Y-45836280D01*
X173575141Y-45827987D01*
X173475440Y-45788431D01*
X173443184Y-45768708D01*
X173340250Y-45699916D01*
X173333930Y-45554333D01*
X173327609Y-45408749D01*
X173503728Y-45417993D01*
X173646641Y-45436142D01*
X173752737Y-45473468D01*
X173821633Y-45529671D01*
X173852946Y-45604452D01*
X174061166Y-45604452D01*
X174059338Y-45568246D01*
X174016449Y-45464512D01*
X173938538Y-45381191D01*
X173827265Y-45319521D01*
X173684294Y-45280742D01*
X173511285Y-45266092D01*
X173495159Y-45266000D01*
X173329667Y-45266000D01*
X173329667Y-45172127D01*
X173341272Y-45058210D01*
X173378073Y-44977364D01*
X173443052Y-44926627D01*
X173539188Y-44903036D01*
X173602862Y-44900516D01*
X173731909Y-44916464D01*
X173841556Y-44956833D01*
X173921795Y-44992967D01*
X173971313Y-45008229D01*
X173996717Y-45001716D01*
X174004615Y-44972521D01*
X174002987Y-44934727D01*
X173987478Y-44872963D01*
X173948934Y-44824934D01*
X173881457Y-44786282D01*
X173779145Y-44752644D01*
X173744700Y-44743836D01*
X173652348Y-44724466D01*
X173577129Y-44718851D01*
X173496481Y-44726036D01*
G37*
X173496481Y-44726036D02*
X173460359Y-44731815D01*
X173346453Y-44759748D01*
X173261109Y-44802998D01*
X173191329Y-44868840D01*
X173172225Y-44893097D01*
X173158533Y-44913782D01*
X173147926Y-44938327D01*
X173139921Y-44972259D01*
X173134041Y-45021110D01*
X173129803Y-45090407D01*
X173126728Y-45185681D01*
X173124336Y-45312461D01*
X173122240Y-45468581D01*
X173115897Y-45985666D01*
X173201615Y-45985666D01*
X173256340Y-45983238D01*
X173280837Y-45969995D01*
X173287171Y-45936999D01*
X173287334Y-45922166D01*
X173295358Y-45873838D01*
X173315388Y-45858832D01*
X173341363Y-45881634D01*
X173341595Y-45882008D01*
X173367662Y-45903313D01*
X173419558Y-45933514D01*
X173464553Y-45955885D01*
X173601424Y-45999273D01*
X173736496Y-46002937D01*
X173863874Y-45966829D01*
X173879568Y-45959208D01*
X173974637Y-45895483D01*
X174033841Y-45816158D01*
X174063039Y-45712787D01*
X174065542Y-45691155D01*
X174061166Y-45604452D01*
X173852946Y-45604452D01*
X173848614Y-45687677D01*
X173813155Y-45764715D01*
X173751053Y-45814719D01*
X173669363Y-45836280D01*
X173575141Y-45827987D01*
X173475440Y-45788431D01*
X173443184Y-45768708D01*
X173340250Y-45699916D01*
X173333930Y-45554333D01*
X173327609Y-45408749D01*
X173503728Y-45417993D01*
X173646641Y-45436142D01*
X173752737Y-45473468D01*
X173821633Y-45529671D01*
X173852946Y-45604452D01*
X174061166Y-45604452D01*
X174059338Y-45568246D01*
X174016449Y-45464512D01*
X173938538Y-45381191D01*
X173827265Y-45319521D01*
X173684294Y-45280742D01*
X173511285Y-45266092D01*
X173495159Y-45266000D01*
X173329667Y-45266000D01*
X173329667Y-45172127D01*
X173341272Y-45058210D01*
X173378073Y-44977364D01*
X173443052Y-44926627D01*
X173539188Y-44903036D01*
X173602862Y-44900516D01*
X173731909Y-44916464D01*
X173841556Y-44956833D01*
X173921795Y-44992967D01*
X173971313Y-45008229D01*
X173996717Y-45001716D01*
X174004615Y-44972521D01*
X174002987Y-44934727D01*
X173987478Y-44872963D01*
X173948934Y-44824934D01*
X173881457Y-44786282D01*
X173779145Y-44752644D01*
X173744700Y-44743836D01*
X173652348Y-44724466D01*
X173577129Y-44718851D01*
X173496481Y-44726036D01*
G36*
X186007750Y-44286109D02*
G01*
X185866411Y-44308713D01*
X185793517Y-44331475D01*
X185660602Y-44405792D01*
X185551171Y-44513521D01*
X185466664Y-44651932D01*
X185408521Y-44818299D01*
X185378179Y-45009891D01*
X185373868Y-45127012D01*
X185383893Y-45272929D01*
X185410987Y-45420516D01*
X185451894Y-45558583D01*
X185503358Y-45675941D01*
X185556779Y-45755489D01*
X185571980Y-45780509D01*
X185563297Y-45805209D01*
X185525825Y-45841292D01*
X185518072Y-45847860D01*
X185462256Y-45887914D01*
X185385650Y-45934372D01*
X185315252Y-45971869D01*
X185230289Y-46019499D01*
X185182379Y-46061159D01*
X185168890Y-46087435D01*
X185167570Y-46137549D01*
X185181389Y-46190339D01*
X185204416Y-46229348D01*
X185223741Y-46239666D01*
X185250781Y-46230483D01*
X185305198Y-46205993D01*
X185377006Y-46170784D01*
X185406172Y-46155861D01*
X185495515Y-46106174D01*
X185583134Y-46051707D01*
X185652113Y-46003064D01*
X185660280Y-45996539D01*
X185752438Y-45921022D01*
X185885761Y-45966264D01*
X185968341Y-45990472D01*
X186045508Y-46002427D01*
X186135672Y-46004201D01*
X186199000Y-46001503D01*
X186379608Y-45976343D01*
X186530450Y-45921829D01*
X186653433Y-45836693D01*
X186750467Y-45719667D01*
X186814692Y-45592364D01*
X186834794Y-45537566D01*
X186848700Y-45485104D01*
X186857518Y-45425372D01*
X186862358Y-45348761D01*
X186864173Y-45253831D01*
X186637917Y-45253831D01*
X186612270Y-45427752D01*
X186560719Y-45570917D01*
X186483766Y-45682209D01*
X186381912Y-45760513D01*
X186304061Y-45792748D01*
X186205218Y-45808436D01*
X186088788Y-45805883D01*
X185974496Y-45786836D01*
X185887396Y-45755840D01*
X185787812Y-45685654D01*
X185711382Y-45587073D01*
X185656603Y-45457167D01*
X185621971Y-45293004D01*
X185613941Y-45222754D01*
X185611130Y-45106383D01*
X185621043Y-44980231D01*
X185641525Y-44859500D01*
X185670421Y-44759393D01*
X185684044Y-44728150D01*
X185762498Y-44610914D01*
X185863058Y-44529309D01*
X185988780Y-44481164D01*
X186045871Y-44470910D01*
X186197453Y-44468521D01*
X186329575Y-44502903D01*
X186440555Y-44572408D01*
X186528710Y-44675388D01*
X186592360Y-44810195D01*
X186629821Y-44975180D01*
X186637161Y-45050269D01*
X186637917Y-45253831D01*
X186864173Y-45253831D01*
X186864330Y-45245665D01*
X186864599Y-45160166D01*
X186863903Y-45034905D01*
X186861069Y-44942334D01*
X186854978Y-44872819D01*
X186844511Y-44816729D01*
X186828549Y-44764433D01*
X186814249Y-44726784D01*
X186743146Y-44593829D01*
X186645204Y-44475282D01*
X186530067Y-44381191D01*
X186434600Y-44331269D01*
X186308294Y-44297382D01*
X186160527Y-44282330D01*
X186007750Y-44286109D01*
G37*
X186007750Y-44286109D02*
X185866411Y-44308713D01*
X185793517Y-44331475D01*
X185660602Y-44405792D01*
X185551171Y-44513521D01*
X185466664Y-44651932D01*
X185408521Y-44818299D01*
X185378179Y-45009891D01*
X185373868Y-45127012D01*
X185383893Y-45272929D01*
X185410987Y-45420516D01*
X185451894Y-45558583D01*
X185503358Y-45675941D01*
X185556779Y-45755489D01*
X185571980Y-45780509D01*
X185563297Y-45805209D01*
X185525825Y-45841292D01*
X185518072Y-45847860D01*
X185462256Y-45887914D01*
X185385650Y-45934372D01*
X185315252Y-45971869D01*
X185230289Y-46019499D01*
X185182379Y-46061159D01*
X185168890Y-46087435D01*
X185167570Y-46137549D01*
X185181389Y-46190339D01*
X185204416Y-46229348D01*
X185223741Y-46239666D01*
X185250781Y-46230483D01*
X185305198Y-46205993D01*
X185377006Y-46170784D01*
X185406172Y-46155861D01*
X185495515Y-46106174D01*
X185583134Y-46051707D01*
X185652113Y-46003064D01*
X185660280Y-45996539D01*
X185752438Y-45921022D01*
X185885761Y-45966264D01*
X185968341Y-45990472D01*
X186045508Y-46002427D01*
X186135672Y-46004201D01*
X186199000Y-46001503D01*
X186379608Y-45976343D01*
X186530450Y-45921829D01*
X186653433Y-45836693D01*
X186750467Y-45719667D01*
X186814692Y-45592364D01*
X186834794Y-45537566D01*
X186848700Y-45485104D01*
X186857518Y-45425372D01*
X186862358Y-45348761D01*
X186864173Y-45253831D01*
X186637917Y-45253831D01*
X186612270Y-45427752D01*
X186560719Y-45570917D01*
X186483766Y-45682209D01*
X186381912Y-45760513D01*
X186304061Y-45792748D01*
X186205218Y-45808436D01*
X186088788Y-45805883D01*
X185974496Y-45786836D01*
X185887396Y-45755840D01*
X185787812Y-45685654D01*
X185711382Y-45587073D01*
X185656603Y-45457167D01*
X185621971Y-45293004D01*
X185613941Y-45222754D01*
X185611130Y-45106383D01*
X185621043Y-44980231D01*
X185641525Y-44859500D01*
X185670421Y-44759393D01*
X185684044Y-44728150D01*
X185762498Y-44610914D01*
X185863058Y-44529309D01*
X185988780Y-44481164D01*
X186045871Y-44470910D01*
X186197453Y-44468521D01*
X186329575Y-44502903D01*
X186440555Y-44572408D01*
X186528710Y-44675388D01*
X186592360Y-44810195D01*
X186629821Y-44975180D01*
X186637161Y-45050269D01*
X186637917Y-45253831D01*
X186864173Y-45253831D01*
X186864330Y-45245665D01*
X186864599Y-45160166D01*
X186863903Y-45034905D01*
X186861069Y-44942334D01*
X186854978Y-44872819D01*
X186844511Y-44816729D01*
X186828549Y-44764433D01*
X186814249Y-44726784D01*
X186743146Y-44593829D01*
X186645204Y-44475282D01*
X186530067Y-44381191D01*
X186434600Y-44331269D01*
X186308294Y-44297382D01*
X186160527Y-44282330D01*
X186007750Y-44286109D01*
G36*
X188948533Y-42096136D02*
G01*
X188917227Y-42116083D01*
X188898573Y-42157645D01*
X188889558Y-42227628D01*
X188887168Y-42332835D01*
X188887167Y-42335688D01*
X188887167Y-42529577D01*
X188773451Y-42541313D01*
X188630326Y-42574947D01*
X188506275Y-42641163D01*
X188406303Y-42734688D01*
X188335413Y-42850248D01*
X188298609Y-42982567D01*
X188294500Y-43046161D01*
X188294500Y-43128166D01*
X188097650Y-43128166D01*
X187991575Y-43130155D01*
X187920772Y-43138571D01*
X187878270Y-43157086D01*
X187857099Y-43189375D01*
X187850287Y-43239109D01*
X187850000Y-43258655D01*
X187855342Y-43310681D01*
X187875706Y-43345984D01*
X187917604Y-43367620D01*
X187987545Y-43378643D01*
X188092039Y-43382109D01*
X188113192Y-43382166D01*
X188294500Y-43382166D01*
X188294500Y-43508426D01*
X188294501Y-43634685D01*
X188077542Y-43640717D01*
X187860584Y-43646750D01*
X187860584Y-43858416D01*
X188077542Y-43864448D01*
X188294501Y-43870480D01*
X188294500Y-43996740D01*
X188294500Y-44123000D01*
X188096009Y-44123000D01*
X187988778Y-44125195D01*
X187917283Y-44134304D01*
X187875041Y-44154113D01*
X187855571Y-44188409D01*
X187852390Y-44240978D01*
X187853926Y-44264397D01*
X187860584Y-44345250D01*
X188077542Y-44351282D01*
X188294501Y-44357314D01*
X188294500Y-44493416D01*
X188294500Y-44629519D01*
X187860584Y-44641583D01*
X187860584Y-44853250D01*
X188294500Y-44865314D01*
X188294500Y-45117833D01*
X188096009Y-45117833D01*
X187988778Y-45120028D01*
X187917283Y-45129137D01*
X187875041Y-45148947D01*
X187855571Y-45183243D01*
X187852390Y-45235811D01*
X187853926Y-45259231D01*
X187860584Y-45340083D01*
X188294500Y-45352147D01*
X188294707Y-45451948D01*
X188312906Y-45570417D01*
X188361981Y-45690231D01*
X188434350Y-45795045D01*
X188470765Y-45831453D01*
X188553665Y-45886201D01*
X188658974Y-45931220D01*
X188766831Y-45959089D01*
X188826742Y-45964500D01*
X188885634Y-45964500D01*
X188897750Y-46377250D01*
X189008875Y-46383647D01*
X189120000Y-46390045D01*
X189120000Y-45964500D01*
X189395167Y-45964500D01*
X189395167Y-46390045D01*
X189506292Y-46383647D01*
X189617417Y-46377250D01*
X189629533Y-45964500D01*
X189880468Y-45964500D01*
X189892584Y-46377250D01*
X190003709Y-46383647D01*
X190114834Y-46390045D01*
X190114834Y-45964500D01*
X190390000Y-45964500D01*
X190390000Y-46390045D01*
X190501125Y-46383647D01*
X190612250Y-46377250D01*
X190618309Y-46170875D01*
X190624367Y-45964500D01*
X190875301Y-45964500D01*
X190887417Y-46377250D01*
X190998542Y-46383647D01*
X191109667Y-46390045D01*
X191109667Y-45970328D01*
X191227907Y-45956431D01*
X191357810Y-45929227D01*
X191465579Y-45877025D01*
X191550681Y-45808671D01*
X191626235Y-45722894D01*
X191672982Y-45629321D01*
X191697831Y-45513181D01*
X191700559Y-45488250D01*
X191712917Y-45361250D01*
X191929876Y-45355217D01*
X192146834Y-45349185D01*
X192146834Y-45246357D01*
X192145132Y-45192345D01*
X192135343Y-45156076D01*
X192110443Y-45134021D01*
X192063408Y-45122650D01*
X191987213Y-45118431D01*
X191891103Y-45117833D01*
X191702334Y-45117833D01*
X191702334Y-44865314D01*
X192136250Y-44853250D01*
X192136250Y-44641583D01*
X191918302Y-44635540D01*
X191700353Y-44629497D01*
X191706635Y-44497956D01*
X191712917Y-44366416D01*
X191929875Y-44360384D01*
X192146834Y-44354352D01*
X192146834Y-44251524D01*
X192145132Y-44197511D01*
X192135343Y-44161243D01*
X192110443Y-44139188D01*
X192063408Y-44127816D01*
X191987213Y-44123598D01*
X191891103Y-44122999D01*
X191702334Y-44123000D01*
X191702334Y-43870480D01*
X192136250Y-43858416D01*
X192136250Y-43646750D01*
X191919292Y-43640717D01*
X191702334Y-43634685D01*
X191702334Y-43382166D01*
X191891103Y-43382166D01*
X191998579Y-43381299D01*
X192070749Y-43376374D01*
X192114636Y-43363901D01*
X192137263Y-43340395D01*
X192145651Y-43302366D01*
X192146823Y-43255579D01*
X190986508Y-43255579D01*
X190978163Y-43768664D01*
X190974189Y-43956091D01*
X190968195Y-44107147D01*
X190958941Y-44227787D01*
X190945189Y-44323965D01*
X190925700Y-44401636D01*
X190899235Y-44466756D01*
X190864555Y-44525279D01*
X190820421Y-44583160D01*
X190804884Y-44601603D01*
X190712715Y-44684431D01*
X190591600Y-44757818D01*
X190454768Y-44815975D01*
X190315447Y-44853114D01*
X190205637Y-44863833D01*
X190136000Y-44863833D01*
X190136000Y-45061388D01*
X190134483Y-45149147D01*
X190130413Y-45220376D01*
X190124514Y-45264837D01*
X190120966Y-45273979D01*
X190093038Y-45281239D01*
X190037036Y-45284021D01*
X189988674Y-45282798D01*
X189871417Y-45276583D01*
X189859369Y-44869489D01*
X189744122Y-44855944D01*
X189558381Y-44816131D01*
X189395814Y-44744222D01*
X189259640Y-44642312D01*
X189153079Y-44512498D01*
X189116483Y-44447242D01*
X189045917Y-44303997D01*
X189039624Y-43771844D01*
X189033331Y-43239692D01*
X189097832Y-43226791D01*
X189168298Y-43221444D01*
X189225834Y-43226591D01*
X189289334Y-43239291D01*
X189289334Y-43676698D01*
X189290975Y-43867374D01*
X189296510Y-44021502D01*
X189306860Y-44144763D01*
X189322945Y-44242837D01*
X189345685Y-44321406D01*
X189376000Y-44386150D01*
X189413026Y-44440500D01*
X189497920Y-44519099D01*
X189610141Y-44581059D01*
X189735716Y-44619033D01*
X189759999Y-44622940D01*
X189860248Y-44636673D01*
X189865833Y-43940628D01*
X189871417Y-43244583D01*
X189945500Y-43226725D01*
X190031028Y-43220762D01*
X190077792Y-43231493D01*
X190136000Y-43254118D01*
X190136000Y-44631000D01*
X190185075Y-44631000D01*
X190274817Y-44618284D01*
X190377217Y-44585056D01*
X190473089Y-44538696D01*
X190531413Y-44497799D01*
X190579143Y-44452929D01*
X190616795Y-44407945D01*
X190645700Y-44357128D01*
X190667190Y-44294757D01*
X190682596Y-44215112D01*
X190693249Y-44112472D01*
X190700480Y-43981117D01*
X190705621Y-43815327D01*
X190707305Y-43742000D01*
X190718084Y-43244583D01*
X190792167Y-43226725D01*
X190881444Y-43221270D01*
X190926379Y-43232223D01*
X190986508Y-43255579D01*
X192146823Y-43255579D01*
X192146834Y-43255166D01*
X192145088Y-43201792D01*
X192135170Y-43165951D01*
X192110055Y-43144156D01*
X192062721Y-43132919D01*
X191986145Y-43128753D01*
X191891103Y-43128166D01*
X191702334Y-43128166D01*
X191702334Y-43026489D01*
X191682385Y-42896014D01*
X191626658Y-42777107D01*
X191541334Y-42675711D01*
X191432593Y-42597767D01*
X191306614Y-42549218D01*
X191191673Y-42535500D01*
X191109667Y-42535500D01*
X191109667Y-42326097D01*
X191108520Y-42223728D01*
X191102670Y-42156377D01*
X191088500Y-42116742D01*
X191062396Y-42097522D01*
X191020741Y-42091416D01*
X190993251Y-42091000D01*
X190942559Y-42093315D01*
X190909208Y-42105130D01*
X190889581Y-42133745D01*
X190880064Y-42186462D01*
X190877040Y-42270582D01*
X190876834Y-42326097D01*
X190876834Y-42535500D01*
X190622834Y-42535500D01*
X190622834Y-42337008D01*
X190620639Y-42229777D01*
X190611529Y-42158282D01*
X190591720Y-42116040D01*
X190557424Y-42096570D01*
X190504856Y-42093389D01*
X190481436Y-42094925D01*
X190400584Y-42101583D01*
X190388520Y-42535499D01*
X190251677Y-42535499D01*
X190114834Y-42535500D01*
X190114834Y-42326097D01*
X190113687Y-42223728D01*
X190107837Y-42156377D01*
X190093667Y-42116742D01*
X190067562Y-42097522D01*
X190025908Y-42091416D01*
X189998417Y-42091000D01*
X189947726Y-42093315D01*
X189914374Y-42105130D01*
X189894748Y-42133745D01*
X189885231Y-42186462D01*
X189882207Y-42270582D01*
X189882000Y-42326097D01*
X189882000Y-42535500D01*
X189628000Y-42535500D01*
X189628000Y-42337008D01*
X189625805Y-42229777D01*
X189616696Y-42158282D01*
X189596887Y-42116040D01*
X189562591Y-42096570D01*
X189510022Y-42093389D01*
X189486603Y-42094925D01*
X189405750Y-42101583D01*
X189399718Y-42318541D01*
X189393686Y-42535500D01*
X189120000Y-42535500D01*
X189120000Y-42326097D01*
X189118919Y-42223784D01*
X189113091Y-42156481D01*
X189098644Y-42116871D01*
X189071703Y-42097640D01*
X189028395Y-42091473D01*
X188995503Y-42091000D01*
X188948533Y-42096136D01*
G37*
X188948533Y-42096136D02*
X188917227Y-42116083D01*
X188898573Y-42157645D01*
X188889558Y-42227628D01*
X188887168Y-42332835D01*
X188887167Y-42335688D01*
X188887167Y-42529577D01*
X188773451Y-42541313D01*
X188630326Y-42574947D01*
X188506275Y-42641163D01*
X188406303Y-42734688D01*
X188335413Y-42850248D01*
X188298609Y-42982567D01*
X188294500Y-43046161D01*
X188294500Y-43128166D01*
X188097650Y-43128166D01*
X187991575Y-43130155D01*
X187920772Y-43138571D01*
X187878270Y-43157086D01*
X187857099Y-43189375D01*
X187850287Y-43239109D01*
X187850000Y-43258655D01*
X187855342Y-43310681D01*
X187875706Y-43345984D01*
X187917604Y-43367620D01*
X187987545Y-43378643D01*
X188092039Y-43382109D01*
X188113192Y-43382166D01*
X188294500Y-43382166D01*
X188294500Y-43508426D01*
X188294501Y-43634685D01*
X188077542Y-43640717D01*
X187860584Y-43646750D01*
X187860584Y-43858416D01*
X188077542Y-43864448D01*
X188294501Y-43870480D01*
X188294500Y-43996740D01*
X188294500Y-44123000D01*
X188096009Y-44123000D01*
X187988778Y-44125195D01*
X187917283Y-44134304D01*
X187875041Y-44154113D01*
X187855571Y-44188409D01*
X187852390Y-44240978D01*
X187853926Y-44264397D01*
X187860584Y-44345250D01*
X188077542Y-44351282D01*
X188294501Y-44357314D01*
X188294500Y-44493416D01*
X188294500Y-44629519D01*
X187860584Y-44641583D01*
X187860584Y-44853250D01*
X188294500Y-44865314D01*
X188294500Y-45117833D01*
X188096009Y-45117833D01*
X187988778Y-45120028D01*
X187917283Y-45129137D01*
X187875041Y-45148947D01*
X187855571Y-45183243D01*
X187852390Y-45235811D01*
X187853926Y-45259231D01*
X187860584Y-45340083D01*
X188294500Y-45352147D01*
X188294707Y-45451948D01*
X188312906Y-45570417D01*
X188361981Y-45690231D01*
X188434350Y-45795045D01*
X188470765Y-45831453D01*
X188553665Y-45886201D01*
X188658974Y-45931220D01*
X188766831Y-45959089D01*
X188826742Y-45964500D01*
X188885634Y-45964500D01*
X188897750Y-46377250D01*
X189008875Y-46383647D01*
X189120000Y-46390045D01*
X189120000Y-45964500D01*
X189395167Y-45964500D01*
X189395167Y-46390045D01*
X189506292Y-46383647D01*
X189617417Y-46377250D01*
X189629533Y-45964500D01*
X189880468Y-45964500D01*
X189892584Y-46377250D01*
X190003709Y-46383647D01*
X190114834Y-46390045D01*
X190114834Y-45964500D01*
X190390000Y-45964500D01*
X190390000Y-46390045D01*
X190501125Y-46383647D01*
X190612250Y-46377250D01*
X190618309Y-46170875D01*
X190624367Y-45964500D01*
X190875301Y-45964500D01*
X190887417Y-46377250D01*
X190998542Y-46383647D01*
X191109667Y-46390045D01*
X191109667Y-45970328D01*
X191227907Y-45956431D01*
X191357810Y-45929227D01*
X191465579Y-45877025D01*
X191550681Y-45808671D01*
X191626235Y-45722894D01*
X191672982Y-45629321D01*
X191697831Y-45513181D01*
X191700559Y-45488250D01*
X191712917Y-45361250D01*
X191929876Y-45355217D01*
X192146834Y-45349185D01*
X192146834Y-45246357D01*
X192145132Y-45192345D01*
X192135343Y-45156076D01*
X192110443Y-45134021D01*
X192063408Y-45122650D01*
X191987213Y-45118431D01*
X191891103Y-45117833D01*
X191702334Y-45117833D01*
X191702334Y-44865314D01*
X192136250Y-44853250D01*
X192136250Y-44641583D01*
X191918302Y-44635540D01*
X191700353Y-44629497D01*
X191706635Y-44497956D01*
X191712917Y-44366416D01*
X191929875Y-44360384D01*
X192146834Y-44354352D01*
X192146834Y-44251524D01*
X192145132Y-44197511D01*
X192135343Y-44161243D01*
X192110443Y-44139188D01*
X192063408Y-44127816D01*
X191987213Y-44123598D01*
X191891103Y-44122999D01*
X191702334Y-44123000D01*
X191702334Y-43870480D01*
X192136250Y-43858416D01*
X192136250Y-43646750D01*
X191919292Y-43640717D01*
X191702334Y-43634685D01*
X191702334Y-43382166D01*
X191891103Y-43382166D01*
X191998579Y-43381299D01*
X192070749Y-43376374D01*
X192114636Y-43363901D01*
X192137263Y-43340395D01*
X192145651Y-43302366D01*
X192146823Y-43255579D01*
X190986508Y-43255579D01*
X190978163Y-43768664D01*
X190974189Y-43956091D01*
X190968195Y-44107147D01*
X190958941Y-44227787D01*
X190945189Y-44323965D01*
X190925700Y-44401636D01*
X190899235Y-44466756D01*
X190864555Y-44525279D01*
X190820421Y-44583160D01*
X190804884Y-44601603D01*
X190712715Y-44684431D01*
X190591600Y-44757818D01*
X190454768Y-44815975D01*
X190315447Y-44853114D01*
X190205637Y-44863833D01*
X190136000Y-44863833D01*
X190136000Y-45061388D01*
X190134483Y-45149147D01*
X190130413Y-45220376D01*
X190124514Y-45264837D01*
X190120966Y-45273979D01*
X190093038Y-45281239D01*
X190037036Y-45284021D01*
X189988674Y-45282798D01*
X189871417Y-45276583D01*
X189859369Y-44869489D01*
X189744122Y-44855944D01*
X189558381Y-44816131D01*
X189395814Y-44744222D01*
X189259640Y-44642312D01*
X189153079Y-44512498D01*
X189116483Y-44447242D01*
X189045917Y-44303997D01*
X189039624Y-43771844D01*
X189033331Y-43239692D01*
X189097832Y-43226791D01*
X189168298Y-43221444D01*
X189225834Y-43226591D01*
X189289334Y-43239291D01*
X189289334Y-43676698D01*
X189290975Y-43867374D01*
X189296510Y-44021502D01*
X189306860Y-44144763D01*
X189322945Y-44242837D01*
X189345685Y-44321406D01*
X189376000Y-44386150D01*
X189413026Y-44440500D01*
X189497920Y-44519099D01*
X189610141Y-44581059D01*
X189735716Y-44619033D01*
X189759999Y-44622940D01*
X189860248Y-44636673D01*
X189865833Y-43940628D01*
X189871417Y-43244583D01*
X189945500Y-43226725D01*
X190031028Y-43220762D01*
X190077792Y-43231493D01*
X190136000Y-43254118D01*
X190136000Y-44631000D01*
X190185075Y-44631000D01*
X190274817Y-44618284D01*
X190377217Y-44585056D01*
X190473089Y-44538696D01*
X190531413Y-44497799D01*
X190579143Y-44452929D01*
X190616795Y-44407945D01*
X190645700Y-44357128D01*
X190667190Y-44294757D01*
X190682596Y-44215112D01*
X190693249Y-44112472D01*
X190700480Y-43981117D01*
X190705621Y-43815327D01*
X190707305Y-43742000D01*
X190718084Y-43244583D01*
X190792167Y-43226725D01*
X190881444Y-43221270D01*
X190926379Y-43232223D01*
X190986508Y-43255579D01*
X192146823Y-43255579D01*
X192146834Y-43255166D01*
X192145088Y-43201792D01*
X192135170Y-43165951D01*
X192110055Y-43144156D01*
X192062721Y-43132919D01*
X191986145Y-43128753D01*
X191891103Y-43128166D01*
X191702334Y-43128166D01*
X191702334Y-43026489D01*
X191682385Y-42896014D01*
X191626658Y-42777107D01*
X191541334Y-42675711D01*
X191432593Y-42597767D01*
X191306614Y-42549218D01*
X191191673Y-42535500D01*
X191109667Y-42535500D01*
X191109667Y-42326097D01*
X191108520Y-42223728D01*
X191102670Y-42156377D01*
X191088500Y-42116742D01*
X191062396Y-42097522D01*
X191020741Y-42091416D01*
X190993251Y-42091000D01*
X190942559Y-42093315D01*
X190909208Y-42105130D01*
X190889581Y-42133745D01*
X190880064Y-42186462D01*
X190877040Y-42270582D01*
X190876834Y-42326097D01*
X190876834Y-42535500D01*
X190622834Y-42535500D01*
X190622834Y-42337008D01*
X190620639Y-42229777D01*
X190611529Y-42158282D01*
X190591720Y-42116040D01*
X190557424Y-42096570D01*
X190504856Y-42093389D01*
X190481436Y-42094925D01*
X190400584Y-42101583D01*
X190388520Y-42535499D01*
X190251677Y-42535499D01*
X190114834Y-42535500D01*
X190114834Y-42326097D01*
X190113687Y-42223728D01*
X190107837Y-42156377D01*
X190093667Y-42116742D01*
X190067562Y-42097522D01*
X190025908Y-42091416D01*
X189998417Y-42091000D01*
X189947726Y-42093315D01*
X189914374Y-42105130D01*
X189894748Y-42133745D01*
X189885231Y-42186462D01*
X189882207Y-42270582D01*
X189882000Y-42326097D01*
X189882000Y-42535500D01*
X189628000Y-42535500D01*
X189628000Y-42337008D01*
X189625805Y-42229777D01*
X189616696Y-42158282D01*
X189596887Y-42116040D01*
X189562591Y-42096570D01*
X189510022Y-42093389D01*
X189486603Y-42094925D01*
X189405750Y-42101583D01*
X189399718Y-42318541D01*
X189393686Y-42535500D01*
X189120000Y-42535500D01*
X189120000Y-42326097D01*
X189118919Y-42223784D01*
X189113091Y-42156481D01*
X189098644Y-42116871D01*
X189071703Y-42097640D01*
X189028395Y-42091473D01*
X188995503Y-42091000D01*
X188948533Y-42096136D01*
G36*
X189489169Y-88028093D02*
G01*
X189092381Y-88072589D01*
X188700887Y-88156850D01*
X188317898Y-88280847D01*
X187965208Y-88435247D01*
X187609935Y-88634243D01*
X187283684Y-88862008D01*
X186987017Y-89115973D01*
X186720494Y-89393568D01*
X186484676Y-89692224D01*
X186280125Y-90009373D01*
X186107401Y-90342446D01*
X185967064Y-90688873D01*
X185859675Y-91046087D01*
X185785796Y-91411517D01*
X185745987Y-91782596D01*
X185740808Y-92156754D01*
X185770821Y-92531422D01*
X185836587Y-92904032D01*
X185938665Y-93272014D01*
X186077618Y-93632799D01*
X186254005Y-93983819D01*
X186468388Y-94322505D01*
X186632553Y-94540000D01*
X186736140Y-94659791D01*
X186862723Y-94793066D01*
X187001574Y-94929468D01*
X187141965Y-95058642D01*
X187273166Y-95170231D01*
X187337000Y-95219968D01*
X187675165Y-95446517D01*
X188032842Y-95636755D01*
X188406646Y-95789746D01*
X188793194Y-95904554D01*
X189189100Y-95980244D01*
X189590980Y-96015881D01*
X189995449Y-96010528D01*
X190149900Y-95997471D01*
X190551110Y-95934916D01*
X190938135Y-95833797D01*
X191308906Y-95696113D01*
X191661356Y-95523861D01*
X191993417Y-95319042D01*
X192155034Y-95196166D01*
X190998834Y-95196166D01*
X189898167Y-95196166D01*
X189898167Y-92550333D01*
X189818792Y-92550645D01*
X189716921Y-92566230D01*
X189641472Y-92613568D01*
X189596575Y-92677627D01*
X189588709Y-92695950D01*
X189582035Y-92719307D01*
X189576456Y-92751090D01*
X189571875Y-92794695D01*
X189568196Y-92853514D01*
X189565322Y-92930942D01*
X189563154Y-93030372D01*
X189561597Y-93155197D01*
X189560554Y-93308811D01*
X189559926Y-93494608D01*
X189559619Y-93715982D01*
X189559533Y-93973791D01*
X189559500Y-95196166D01*
X188477865Y-95196166D01*
X188484700Y-93920875D01*
X188486150Y-93656552D01*
X188487535Y-93431061D01*
X188488988Y-93240896D01*
X188490643Y-93082557D01*
X188492632Y-92952539D01*
X188495090Y-92847341D01*
X188498150Y-92763460D01*
X188501944Y-92697393D01*
X188506607Y-92645637D01*
X188512272Y-92604690D01*
X188519071Y-92571048D01*
X188527140Y-92541210D01*
X188536610Y-92511673D01*
X188538577Y-92505810D01*
X188610954Y-92353360D01*
X188715740Y-92222376D01*
X188846552Y-92120649D01*
X188860880Y-92112351D01*
X188963726Y-92054538D01*
X188875321Y-92004649D01*
X188746016Y-91914405D01*
X188645774Y-91803363D01*
X188569309Y-91664558D01*
X188526430Y-91544916D01*
X188516313Y-91489116D01*
X188507393Y-91396894D01*
X188499724Y-91274146D01*
X188493357Y-91126768D01*
X188488346Y-90960656D01*
X188484744Y-90781707D01*
X188482603Y-90595815D01*
X188481976Y-90408877D01*
X188482917Y-90226790D01*
X188485477Y-90055449D01*
X188489711Y-89900749D01*
X188495670Y-89768588D01*
X188503408Y-89664861D01*
X188509145Y-89617262D01*
X188544980Y-89428116D01*
X188591282Y-89275671D01*
X188650743Y-89155016D01*
X188726053Y-89061239D01*
X188819904Y-88989428D01*
X188867093Y-88963853D01*
X188927592Y-88935633D01*
X188986629Y-88912032D01*
X189048674Y-88892584D01*
X189118196Y-88876818D01*
X189199667Y-88864267D01*
X189297557Y-88854463D01*
X189416335Y-88846936D01*
X189560472Y-88841219D01*
X189734438Y-88836842D01*
X189942704Y-88833338D01*
X190136292Y-88830857D01*
X190998834Y-88820707D01*
X190998834Y-95196166D01*
X192155034Y-95196166D01*
X192303023Y-95083652D01*
X192588105Y-94819689D01*
X192846596Y-94529153D01*
X193076429Y-94214042D01*
X193275536Y-93876353D01*
X193441850Y-93518085D01*
X193573303Y-93141236D01*
X193667828Y-92747805D01*
X193697360Y-92568746D01*
X193714041Y-92409312D01*
X193724042Y-92222012D01*
X193727364Y-92020784D01*
X193724008Y-91819564D01*
X193713974Y-91632289D01*
X193697321Y-91473308D01*
X193618838Y-91067277D01*
X193501869Y-90676807D01*
X193347990Y-90304043D01*
X193158777Y-89951129D01*
X192935805Y-89620208D01*
X192680652Y-89313423D01*
X192394891Y-89032917D01*
X192080100Y-88780835D01*
X191737854Y-88559320D01*
X191440249Y-88403136D01*
X191065110Y-88248359D01*
X190679223Y-88133496D01*
X190285799Y-88058517D01*
X189888045Y-88023393D01*
X189489169Y-88028093D01*
G37*
X189489169Y-88028093D02*
X189092381Y-88072589D01*
X188700887Y-88156850D01*
X188317898Y-88280847D01*
X187965208Y-88435247D01*
X187609935Y-88634243D01*
X187283684Y-88862008D01*
X186987017Y-89115973D01*
X186720494Y-89393568D01*
X186484676Y-89692224D01*
X186280125Y-90009373D01*
X186107401Y-90342446D01*
X185967064Y-90688873D01*
X185859675Y-91046087D01*
X185785796Y-91411517D01*
X185745987Y-91782596D01*
X185740808Y-92156754D01*
X185770821Y-92531422D01*
X185836587Y-92904032D01*
X185938665Y-93272014D01*
X186077618Y-93632799D01*
X186254005Y-93983819D01*
X186468388Y-94322505D01*
X186632553Y-94540000D01*
X186736140Y-94659791D01*
X186862723Y-94793066D01*
X187001574Y-94929468D01*
X187141965Y-95058642D01*
X187273166Y-95170231D01*
X187337000Y-95219968D01*
X187675165Y-95446517D01*
X188032842Y-95636755D01*
X188406646Y-95789746D01*
X188793194Y-95904554D01*
X189189100Y-95980244D01*
X189590980Y-96015881D01*
X189995449Y-96010528D01*
X190149900Y-95997471D01*
X190551110Y-95934916D01*
X190938135Y-95833797D01*
X191308906Y-95696113D01*
X191661356Y-95523861D01*
X191993417Y-95319042D01*
X192155034Y-95196166D01*
X190998834Y-95196166D01*
X189898167Y-95196166D01*
X189898167Y-92550333D01*
X189818792Y-92550645D01*
X189716921Y-92566230D01*
X189641472Y-92613568D01*
X189596575Y-92677627D01*
X189588709Y-92695950D01*
X189582035Y-92719307D01*
X189576456Y-92751090D01*
X189571875Y-92794695D01*
X189568196Y-92853514D01*
X189565322Y-92930942D01*
X189563154Y-93030372D01*
X189561597Y-93155197D01*
X189560554Y-93308811D01*
X189559926Y-93494608D01*
X189559619Y-93715982D01*
X189559533Y-93973791D01*
X189559500Y-95196166D01*
X188477865Y-95196166D01*
X188484700Y-93920875D01*
X188486150Y-93656552D01*
X188487535Y-93431061D01*
X188488988Y-93240896D01*
X188490643Y-93082557D01*
X188492632Y-92952539D01*
X188495090Y-92847341D01*
X188498150Y-92763460D01*
X188501944Y-92697393D01*
X188506607Y-92645637D01*
X188512272Y-92604690D01*
X188519071Y-92571048D01*
X188527140Y-92541210D01*
X188536610Y-92511673D01*
X188538577Y-92505810D01*
X188610954Y-92353360D01*
X188715740Y-92222376D01*
X188846552Y-92120649D01*
X188860880Y-92112351D01*
X188963726Y-92054538D01*
X188875321Y-92004649D01*
X188746016Y-91914405D01*
X188645774Y-91803363D01*
X188569309Y-91664558D01*
X188526430Y-91544916D01*
X188516313Y-91489116D01*
X188507393Y-91396894D01*
X188499724Y-91274146D01*
X188493357Y-91126768D01*
X188488346Y-90960656D01*
X188484744Y-90781707D01*
X188482603Y-90595815D01*
X188481976Y-90408877D01*
X188482917Y-90226790D01*
X188485477Y-90055449D01*
X188489711Y-89900749D01*
X188495670Y-89768588D01*
X188503408Y-89664861D01*
X188509145Y-89617262D01*
X188544980Y-89428116D01*
X188591282Y-89275671D01*
X188650743Y-89155016D01*
X188726053Y-89061239D01*
X188819904Y-88989428D01*
X188867093Y-88963853D01*
X188927592Y-88935633D01*
X188986629Y-88912032D01*
X189048674Y-88892584D01*
X189118196Y-88876818D01*
X189199667Y-88864267D01*
X189297557Y-88854463D01*
X189416335Y-88846936D01*
X189560472Y-88841219D01*
X189734438Y-88836842D01*
X189942704Y-88833338D01*
X190136292Y-88830857D01*
X190998834Y-88820707D01*
X190998834Y-95196166D01*
X192155034Y-95196166D01*
X192303023Y-95083652D01*
X192588105Y-94819689D01*
X192846596Y-94529153D01*
X193076429Y-94214042D01*
X193275536Y-93876353D01*
X193441850Y-93518085D01*
X193573303Y-93141236D01*
X193667828Y-92747805D01*
X193697360Y-92568746D01*
X193714041Y-92409312D01*
X193724042Y-92222012D01*
X193727364Y-92020784D01*
X193724008Y-91819564D01*
X193713974Y-91632289D01*
X193697321Y-91473308D01*
X193618838Y-91067277D01*
X193501869Y-90676807D01*
X193347990Y-90304043D01*
X193158777Y-89951129D01*
X192935805Y-89620208D01*
X192680652Y-89313423D01*
X192394891Y-89032917D01*
X192080100Y-88780835D01*
X191737854Y-88559320D01*
X191440249Y-88403136D01*
X191065110Y-88248359D01*
X190679223Y-88133496D01*
X190285799Y-88058517D01*
X189888045Y-88023393D01*
X189489169Y-88028093D01*
G36*
X189705315Y-89681922D02*
G01*
X189630345Y-89710525D01*
X189587687Y-89753908D01*
X189582353Y-89785791D01*
X189577621Y-89854282D01*
X189573515Y-89953663D01*
X189570062Y-90078214D01*
X189567287Y-90222213D01*
X189565216Y-90379941D01*
X189563872Y-90545678D01*
X189563283Y-90713703D01*
X189563473Y-90878298D01*
X189564468Y-91033741D01*
X189566292Y-91174312D01*
X189568972Y-91294292D01*
X189572533Y-91387960D01*
X189577001Y-91449596D01*
X189580082Y-91468658D01*
X189619363Y-91548116D01*
X189687210Y-91597645D01*
X189785168Y-91618247D01*
X189812449Y-91619000D01*
X189898167Y-91619000D01*
X189898167Y-89671666D01*
X189803913Y-89671666D01*
X189705315Y-89681922D01*
G37*
X189705315Y-89681922D02*
X189630345Y-89710525D01*
X189587687Y-89753908D01*
X189582353Y-89785791D01*
X189577621Y-89854282D01*
X189573515Y-89953663D01*
X189570062Y-90078214D01*
X189567287Y-90222213D01*
X189565216Y-90379941D01*
X189563872Y-90545678D01*
X189563283Y-90713703D01*
X189563473Y-90878298D01*
X189564468Y-91033741D01*
X189566292Y-91174312D01*
X189568972Y-91294292D01*
X189572533Y-91387960D01*
X189577001Y-91449596D01*
X189580082Y-91468658D01*
X189619363Y-91548116D01*
X189687210Y-91597645D01*
X189785168Y-91618247D01*
X189812449Y-91619000D01*
X189898167Y-91619000D01*
X189898167Y-89671666D01*
X189803913Y-89671666D01*
X189705315Y-89681922D01*
D13*
X59147936Y-96840000D02*
X60352064Y-96840000D01*
X59147936Y-98660000D02*
X60352064Y-98660000D01*
X48102064Y-78090000D02*
X46897936Y-78090000D01*
X48102064Y-79910000D02*
X46897936Y-79910000D01*
X54752064Y-78090000D02*
X53547936Y-78090000D01*
X54752064Y-79910000D02*
X53547936Y-79910000D01*
X64602064Y-96010000D02*
X63397936Y-96010000D01*
X64602064Y-94190000D02*
X63397936Y-94190000D01*
X64602064Y-82790000D02*
X63397936Y-82790000D01*
X64602064Y-84610000D02*
X63397936Y-84610000D01*
D11*
X43300000Y-39900000D02*
X42300000Y-39900000D01*
X42800000Y-39800000D02*
X43300000Y-38900000D01*
X42300000Y-38900000D02*
X42800000Y-39800000D01*
X43300000Y-38900000D02*
X42300000Y-38900000D01*
X43550000Y-36700000D02*
X42050000Y-36700000D01*
X43550000Y-42100000D02*
X42050000Y-42100000D01*
X43550000Y-36700000D02*
X43550000Y-42100000D01*
X42050000Y-42100000D02*
X42050000Y-36700000D01*
X62400000Y-39900000D02*
X61400000Y-39900000D01*
X61900000Y-39800000D02*
X62400000Y-38900000D01*
X61400000Y-38900000D02*
X61900000Y-39800000D01*
X62400000Y-38900000D02*
X61400000Y-38900000D01*
X62650000Y-36700000D02*
X61150000Y-36700000D01*
X62650000Y-42100000D02*
X61150000Y-42100000D01*
X62650000Y-36700000D02*
X62650000Y-42100000D01*
X61150000Y-42100000D02*
X61150000Y-36700000D01*
X81500000Y-39900000D02*
X80500000Y-39900000D01*
X81000000Y-39800000D02*
X81500000Y-38900000D01*
X80500000Y-38900000D02*
X81000000Y-39800000D01*
X81500000Y-38900000D02*
X80500000Y-38900000D01*
X81750000Y-36700000D02*
X80250000Y-36700000D01*
X81750000Y-42100000D02*
X80250000Y-42100000D01*
X81750000Y-36700000D02*
X81750000Y-42100000D01*
X80250000Y-42100000D02*
X80250000Y-36700000D01*
X99250000Y-42100000D02*
X99250000Y-36700000D01*
X100750000Y-36700000D02*
X100750000Y-42100000D01*
X100750000Y-42100000D02*
X99250000Y-42100000D01*
X100750000Y-36700000D02*
X99250000Y-36700000D01*
X100500000Y-38900000D02*
X99500000Y-38900000D01*
X99500000Y-38900000D02*
X100000000Y-39800000D01*
X100000000Y-39800000D02*
X100500000Y-38900000D01*
X100500000Y-39900000D02*
X99500000Y-39900000D01*
X118350000Y-42100000D02*
X118350000Y-36700000D01*
X119850000Y-36700000D02*
X119850000Y-42100000D01*
X119850000Y-42100000D02*
X118350000Y-42100000D01*
X119850000Y-36700000D02*
X118350000Y-36700000D01*
X119600000Y-38900000D02*
X118600000Y-38900000D01*
X118600000Y-38900000D02*
X119100000Y-39800000D01*
X119100000Y-39800000D02*
X119600000Y-38900000D01*
X119600000Y-39900000D02*
X118600000Y-39900000D01*
X137250000Y-42100000D02*
X137250000Y-36700000D01*
X138750000Y-36700000D02*
X138750000Y-42100000D01*
X138750000Y-42100000D02*
X137250000Y-42100000D01*
X138750000Y-36700000D02*
X137250000Y-36700000D01*
X138500000Y-38900000D02*
X137500000Y-38900000D01*
X137500000Y-38900000D02*
X138000000Y-39800000D01*
X138000000Y-39800000D02*
X138500000Y-38900000D01*
X138500000Y-39900000D02*
X137500000Y-39900000D01*
X156450000Y-42100000D02*
X156450000Y-36700000D01*
X157950000Y-36700000D02*
X157950000Y-42100000D01*
X157950000Y-42100000D02*
X156450000Y-42100000D01*
X157950000Y-36700000D02*
X156450000Y-36700000D01*
X157700000Y-38900000D02*
X156700000Y-38900000D01*
X156700000Y-38900000D02*
X157200000Y-39800000D01*
X157200000Y-39800000D02*
X157700000Y-38900000D01*
X157700000Y-39900000D02*
X156700000Y-39900000D01*
X175550000Y-42100000D02*
X175550000Y-36700000D01*
X177050000Y-36700000D02*
X177050000Y-42100000D01*
X177050000Y-42100000D02*
X175550000Y-42100000D01*
X177050000Y-36700000D02*
X175550000Y-36700000D01*
X176800000Y-38900000D02*
X175800000Y-38900000D01*
X175800000Y-38900000D02*
X176300000Y-39800000D01*
X176300000Y-39800000D02*
X176800000Y-38900000D01*
X176800000Y-39900000D02*
X175800000Y-39900000D01*
X195700000Y-39900000D02*
X194700000Y-39900000D01*
X195200000Y-39800000D02*
X195700000Y-38900000D01*
X194700000Y-38900000D02*
X195200000Y-39800000D01*
X195700000Y-38900000D02*
X194700000Y-38900000D01*
X195950000Y-36700000D02*
X194450000Y-36700000D01*
X195950000Y-42100000D02*
X194450000Y-42100000D01*
X195950000Y-36700000D02*
X195950000Y-42100000D01*
X194450000Y-42100000D02*
X194450000Y-36700000D01*
X213350000Y-42100000D02*
X213350000Y-36700000D01*
X214850000Y-36700000D02*
X214850000Y-42100000D01*
X214850000Y-42100000D02*
X213350000Y-42100000D01*
X214850000Y-36700000D02*
X213350000Y-36700000D01*
X214600000Y-38900000D02*
X213600000Y-38900000D01*
X213600000Y-38900000D02*
X214100000Y-39800000D01*
X214100000Y-39800000D02*
X214600000Y-38900000D01*
X214600000Y-39900000D02*
X213600000Y-39900000D01*
X43300000Y-56900000D02*
X42300000Y-56900000D01*
X42800000Y-56800000D02*
X43300000Y-55900000D01*
X42300000Y-55900000D02*
X42800000Y-56800000D01*
X43300000Y-55900000D02*
X42300000Y-55900000D01*
X43550000Y-53700000D02*
X42050000Y-53700000D01*
X43550000Y-59100000D02*
X42050000Y-59100000D01*
X43550000Y-53700000D02*
X43550000Y-59100000D01*
X42050000Y-59100000D02*
X42050000Y-53700000D01*
X62400000Y-56900000D02*
X61400000Y-56900000D01*
X61900000Y-56800000D02*
X62400000Y-55900000D01*
X61400000Y-55900000D02*
X61900000Y-56800000D01*
X62400000Y-55900000D02*
X61400000Y-55900000D01*
X62650000Y-53700000D02*
X61150000Y-53700000D01*
X62650000Y-59100000D02*
X61150000Y-59100000D01*
X62650000Y-53700000D02*
X62650000Y-59100000D01*
X61150000Y-59100000D02*
X61150000Y-53700000D01*
X81500000Y-56900000D02*
X80500000Y-56900000D01*
X81000000Y-56800000D02*
X81500000Y-55900000D01*
X80500000Y-55900000D02*
X81000000Y-56800000D01*
X81500000Y-55900000D02*
X80500000Y-55900000D01*
X81750000Y-53700000D02*
X80250000Y-53700000D01*
X81750000Y-59100000D02*
X80250000Y-59100000D01*
X81750000Y-53700000D02*
X81750000Y-59100000D01*
X80250000Y-59100000D02*
X80250000Y-53700000D01*
X99250000Y-59100000D02*
X99250000Y-53700000D01*
X100750000Y-53700000D02*
X100750000Y-59100000D01*
X100750000Y-59100000D02*
X99250000Y-59100000D01*
X100750000Y-53700000D02*
X99250000Y-53700000D01*
X100500000Y-55900000D02*
X99500000Y-55900000D01*
X99500000Y-55900000D02*
X100000000Y-56800000D01*
X100000000Y-56800000D02*
X100500000Y-55900000D01*
X100500000Y-56900000D02*
X99500000Y-56900000D01*
X118350000Y-59100000D02*
X118350000Y-53700000D01*
X119850000Y-53700000D02*
X119850000Y-59100000D01*
X119850000Y-59100000D02*
X118350000Y-59100000D01*
X119850000Y-53700000D02*
X118350000Y-53700000D01*
X119600000Y-55900000D02*
X118600000Y-55900000D01*
X118600000Y-55900000D02*
X119100000Y-56800000D01*
X119100000Y-56800000D02*
X119600000Y-55900000D01*
X119600000Y-56900000D02*
X118600000Y-56900000D01*
X137250000Y-59100000D02*
X137250000Y-53700000D01*
X138750000Y-53700000D02*
X138750000Y-59100000D01*
X138750000Y-59100000D02*
X137250000Y-59100000D01*
X138750000Y-53700000D02*
X137250000Y-53700000D01*
X138500000Y-55900000D02*
X137500000Y-55900000D01*
X137500000Y-55900000D02*
X138000000Y-56800000D01*
X138000000Y-56800000D02*
X138500000Y-55900000D01*
X138500000Y-56900000D02*
X137500000Y-56900000D01*
X157700000Y-56900000D02*
X156700000Y-56900000D01*
X157200000Y-56800000D02*
X157700000Y-55900000D01*
X156700000Y-55900000D02*
X157200000Y-56800000D01*
X157700000Y-55900000D02*
X156700000Y-55900000D01*
X157950000Y-53700000D02*
X156450000Y-53700000D01*
X157950000Y-59100000D02*
X156450000Y-59100000D01*
X157950000Y-53700000D02*
X157950000Y-59100000D01*
X156450000Y-59100000D02*
X156450000Y-53700000D01*
X175550000Y-59100000D02*
X175550000Y-53700000D01*
X177050000Y-53700000D02*
X177050000Y-59100000D01*
X177050000Y-59100000D02*
X175550000Y-59100000D01*
X177050000Y-53700000D02*
X175550000Y-53700000D01*
X176800000Y-55900000D02*
X175800000Y-55900000D01*
X175800000Y-55900000D02*
X176300000Y-56800000D01*
X176300000Y-56800000D02*
X176800000Y-55900000D01*
X176800000Y-56900000D02*
X175800000Y-56900000D01*
X194450000Y-59100000D02*
X194450000Y-53700000D01*
X195950000Y-53700000D02*
X195950000Y-59100000D01*
X195950000Y-59100000D02*
X194450000Y-59100000D01*
X195950000Y-53700000D02*
X194450000Y-53700000D01*
X195700000Y-55900000D02*
X194700000Y-55900000D01*
X194700000Y-55900000D02*
X195200000Y-56800000D01*
X195200000Y-56800000D02*
X195700000Y-55900000D01*
X195700000Y-56900000D02*
X194700000Y-56900000D01*
X213350000Y-59100000D02*
X213350000Y-53700000D01*
X214850000Y-53700000D02*
X214850000Y-59100000D01*
X214850000Y-59100000D02*
X213350000Y-59100000D01*
X214850000Y-53700000D02*
X213350000Y-53700000D01*
X214600000Y-55900000D02*
X213600000Y-55900000D01*
X213600000Y-55900000D02*
X214100000Y-56800000D01*
X214100000Y-56800000D02*
X214600000Y-55900000D01*
X214600000Y-56900000D02*
X213600000Y-56900000D01*
X43300000Y-77900000D02*
X42300000Y-77900000D01*
X42800000Y-77800000D02*
X43300000Y-76900000D01*
X42300000Y-76900000D02*
X42800000Y-77800000D01*
X43300000Y-76900000D02*
X42300000Y-76900000D01*
X43550000Y-74700000D02*
X42050000Y-74700000D01*
X43550000Y-80100000D02*
X42050000Y-80100000D01*
X43550000Y-74700000D02*
X43550000Y-80100000D01*
X42050000Y-80100000D02*
X42050000Y-74700000D01*
X62400000Y-73375000D02*
X61400000Y-73375000D01*
X61900000Y-73275000D02*
X62400000Y-72375000D01*
X61400000Y-72375000D02*
X61900000Y-73275000D01*
X62400000Y-72375000D02*
X61400000Y-72375000D01*
X62650000Y-70175000D02*
X61150000Y-70175000D01*
X62650000Y-75575000D02*
X61150000Y-75575000D01*
X62650000Y-70175000D02*
X62650000Y-75575000D01*
X61150000Y-75575000D02*
X61150000Y-70175000D01*
X81500000Y-77900000D02*
X80500000Y-77900000D01*
X81000000Y-77800000D02*
X81500000Y-76900000D01*
X80500000Y-76900000D02*
X81000000Y-77800000D01*
X81500000Y-76900000D02*
X80500000Y-76900000D01*
X81750000Y-74700000D02*
X80250000Y-74700000D01*
X81750000Y-80100000D02*
X80250000Y-80100000D01*
X81750000Y-74700000D02*
X81750000Y-80100000D01*
X80250000Y-80100000D02*
X80250000Y-74700000D01*
X99250000Y-80100000D02*
X99250000Y-74700000D01*
X100750000Y-74700000D02*
X100750000Y-80100000D01*
X100750000Y-80100000D02*
X99250000Y-80100000D01*
X100750000Y-74700000D02*
X99250000Y-74700000D01*
X100500000Y-76900000D02*
X99500000Y-76900000D01*
X99500000Y-76900000D02*
X100000000Y-77800000D01*
X100000000Y-77800000D02*
X100500000Y-76900000D01*
X100500000Y-77900000D02*
X99500000Y-77900000D01*
X118350000Y-80100000D02*
X118350000Y-74700000D01*
X119850000Y-74700000D02*
X119850000Y-80100000D01*
X119850000Y-80100000D02*
X118350000Y-80100000D01*
X119850000Y-74700000D02*
X118350000Y-74700000D01*
X119600000Y-76900000D02*
X118600000Y-76900000D01*
X118600000Y-76900000D02*
X119100000Y-77800000D01*
X119100000Y-77800000D02*
X119600000Y-76900000D01*
X119600000Y-77900000D02*
X118600000Y-77900000D01*
X137250000Y-80100000D02*
X137250000Y-74700000D01*
X138750000Y-74700000D02*
X138750000Y-80100000D01*
X138750000Y-80100000D02*
X137250000Y-80100000D01*
X138750000Y-74700000D02*
X137250000Y-74700000D01*
X138500000Y-76900000D02*
X137500000Y-76900000D01*
X137500000Y-76900000D02*
X138000000Y-77800000D01*
X138000000Y-77800000D02*
X138500000Y-76900000D01*
X138500000Y-77900000D02*
X137500000Y-77900000D01*
X156450000Y-80100000D02*
X156450000Y-74700000D01*
X157950000Y-74700000D02*
X157950000Y-80100000D01*
X157950000Y-80100000D02*
X156450000Y-80100000D01*
X157950000Y-74700000D02*
X156450000Y-74700000D01*
X157700000Y-76900000D02*
X156700000Y-76900000D01*
X156700000Y-76900000D02*
X157200000Y-77800000D01*
X157200000Y-77800000D02*
X157700000Y-76900000D01*
X157700000Y-77900000D02*
X156700000Y-77900000D01*
X175550000Y-80100000D02*
X175550000Y-74700000D01*
X177050000Y-74700000D02*
X177050000Y-80100000D01*
X177050000Y-80100000D02*
X175550000Y-80100000D01*
X177050000Y-74700000D02*
X175550000Y-74700000D01*
X176800000Y-76900000D02*
X175800000Y-76900000D01*
X175800000Y-76900000D02*
X176300000Y-77800000D01*
X176300000Y-77800000D02*
X176800000Y-76900000D01*
X176800000Y-77900000D02*
X175800000Y-77900000D01*
X195700000Y-77900000D02*
X194700000Y-77900000D01*
X195200000Y-77800000D02*
X195700000Y-76900000D01*
X194700000Y-76900000D02*
X195200000Y-77800000D01*
X195700000Y-76900000D02*
X194700000Y-76900000D01*
X195950000Y-74700000D02*
X194450000Y-74700000D01*
X195950000Y-80100000D02*
X194450000Y-80100000D01*
X195950000Y-74700000D02*
X195950000Y-80100000D01*
X194450000Y-80100000D02*
X194450000Y-74700000D01*
X214600000Y-77900000D02*
X213600000Y-77900000D01*
X214100000Y-77800000D02*
X214600000Y-76900000D01*
X213600000Y-76900000D02*
X214100000Y-77800000D01*
X214600000Y-76900000D02*
X213600000Y-76900000D01*
X214850000Y-74700000D02*
X213350000Y-74700000D01*
X214850000Y-80100000D02*
X213350000Y-80100000D01*
X214850000Y-74700000D02*
X214850000Y-80100000D01*
X213350000Y-80100000D02*
X213350000Y-74700000D01*
X43300000Y-92650000D02*
X42300000Y-92650000D01*
X42800000Y-92550000D02*
X43300000Y-91650000D01*
X42300000Y-91650000D02*
X42800000Y-92550000D01*
X43300000Y-91650000D02*
X42300000Y-91650000D01*
X43550000Y-89450000D02*
X42050000Y-89450000D01*
X43550000Y-94850000D02*
X42050000Y-94850000D01*
X43550000Y-89450000D02*
X43550000Y-94850000D01*
X42050000Y-94850000D02*
X42050000Y-89450000D01*
X129200000Y-96900000D02*
X128200000Y-96900000D01*
X128700000Y-96800000D02*
X129200000Y-95900000D01*
X128200000Y-95900000D02*
X128700000Y-96800000D01*
X129200000Y-95900000D02*
X128200000Y-95900000D01*
X129450000Y-93700000D02*
X127950000Y-93700000D01*
X129450000Y-99100000D02*
X127950000Y-99100000D01*
X129450000Y-93700000D02*
X129450000Y-99100000D01*
X127950000Y-99100000D02*
X127950000Y-93700000D01*
X213350000Y-99100000D02*
X213350000Y-93700000D01*
X214850000Y-93700000D02*
X214850000Y-99100000D01*
X214850000Y-99100000D02*
X213350000Y-99100000D01*
X214850000Y-93700000D02*
X213350000Y-93700000D01*
X214600000Y-95900000D02*
X213600000Y-95900000D01*
X213600000Y-95900000D02*
X214100000Y-96800000D01*
X214100000Y-96800000D02*
X214600000Y-95900000D01*
X214600000Y-96900000D02*
X213600000Y-96900000D01*
D13*
X30261252Y-45710000D02*
X29738748Y-45710000D01*
X30261252Y-44290000D02*
X29738748Y-44290000D01*
X30602064Y-39660000D02*
X29397936Y-39660000D01*
X30602064Y-37840000D02*
X29397936Y-37840000D01*
X30602064Y-40340000D02*
X29397936Y-40340000D01*
X30602064Y-42160000D02*
X29397936Y-42160000D01*
X77102064Y-82090000D02*
X75897936Y-82090000D01*
X77102064Y-83910000D02*
X75897936Y-83910000D01*
X43897936Y-96840000D02*
X45102064Y-96840000D01*
X43897936Y-98660000D02*
X45102064Y-98660000D01*
D14*
G36*
X208430000Y-62090000D02*
G01*
X208950000Y-62610000D01*
X208950000Y-62090000D01*
X208430000Y-62090000D01*
G37*
X208430000Y-62090000D02*
X208950000Y-62610000D01*
X208950000Y-62090000D01*
X208430000Y-62090000D01*
D13*
X203950000Y-63950000D02*
X203950000Y-62050000D01*
X203950000Y-65500000D02*
X203950000Y-65300000D01*
X203950000Y-60500000D02*
X203950000Y-60700000D01*
D14*
G36*
X208950000Y-60700000D02*
G01*
X207950000Y-60700000D01*
X207950000Y-61500000D01*
X206950000Y-60500000D01*
X208950000Y-60500000D01*
X208950000Y-60700000D01*
G37*
X208950000Y-60700000D02*
X207950000Y-60700000D01*
X207950000Y-61500000D01*
X206950000Y-60500000D01*
X208950000Y-60500000D01*
X208950000Y-60700000D01*
D13*
X208950000Y-62100000D02*
X208950000Y-63950000D01*
X208950000Y-60500000D02*
X208950000Y-60690000D01*
X208950000Y-65500000D02*
X208950000Y-65300000D01*
X208950000Y-60500000D02*
X203950000Y-60500000D01*
X203950000Y-65500000D02*
X208950000Y-65500000D01*
X156300000Y-65500000D02*
X161300000Y-65500000D01*
X161300000Y-60500000D02*
X156300000Y-60500000D01*
X161300000Y-65500000D02*
X161300000Y-65300000D01*
X161300000Y-60500000D02*
X161300000Y-60690000D01*
X161300000Y-62100000D02*
X161300000Y-63950000D01*
D14*
G36*
X161300000Y-60700000D02*
G01*
X160300000Y-60700000D01*
X160300000Y-61500000D01*
X159300000Y-60500000D01*
X161300000Y-60500000D01*
X161300000Y-60700000D01*
G37*
X161300000Y-60700000D02*
X160300000Y-60700000D01*
X160300000Y-61500000D01*
X159300000Y-60500000D01*
X161300000Y-60500000D01*
X161300000Y-60700000D01*
D13*
X156300000Y-60500000D02*
X156300000Y-60700000D01*
X156300000Y-65500000D02*
X156300000Y-65300000D01*
X156300000Y-63950000D02*
X156300000Y-62050000D01*
D14*
G36*
X160780000Y-62090000D02*
G01*
X161300000Y-62610000D01*
X161300000Y-62090000D01*
X160780000Y-62090000D01*
G37*
X160780000Y-62090000D02*
X161300000Y-62610000D01*
X161300000Y-62090000D01*
X160780000Y-62090000D01*
G36*
X122690000Y-62090000D02*
G01*
X123210000Y-62610000D01*
X123210000Y-62090000D01*
X122690000Y-62090000D01*
G37*
X122690000Y-62090000D02*
X123210000Y-62610000D01*
X123210000Y-62090000D01*
X122690000Y-62090000D01*
D13*
X118210000Y-63950000D02*
X118210000Y-62050000D01*
X118210000Y-65500000D02*
X118210000Y-65300000D01*
X118210000Y-60500000D02*
X118210000Y-60700000D01*
D14*
G36*
X123210000Y-60700000D02*
G01*
X122210000Y-60700000D01*
X122210000Y-61500000D01*
X121210000Y-60500000D01*
X123210000Y-60500000D01*
X123210000Y-60700000D01*
G37*
X123210000Y-60700000D02*
X122210000Y-60700000D01*
X122210000Y-61500000D01*
X121210000Y-60500000D01*
X123210000Y-60500000D01*
X123210000Y-60700000D01*
D13*
X123210000Y-62100000D02*
X123210000Y-63950000D01*
X123210000Y-60500000D02*
X123210000Y-60690000D01*
X123210000Y-65500000D02*
X123210000Y-65300000D01*
X123210000Y-60500000D02*
X118210000Y-60500000D01*
X118210000Y-65500000D02*
X123210000Y-65500000D01*
X80100000Y-65500000D02*
X85100000Y-65500000D01*
X85100000Y-60500000D02*
X80100000Y-60500000D01*
X85100000Y-65500000D02*
X85100000Y-65300000D01*
X85100000Y-60500000D02*
X85100000Y-60690000D01*
X85100000Y-62100000D02*
X85100000Y-63950000D01*
D14*
G36*
X85100000Y-60700000D02*
G01*
X84100000Y-60700000D01*
X84100000Y-61500000D01*
X83100000Y-60500000D01*
X85100000Y-60500000D01*
X85100000Y-60700000D01*
G37*
X85100000Y-60700000D02*
X84100000Y-60700000D01*
X84100000Y-61500000D01*
X83100000Y-60500000D01*
X85100000Y-60500000D01*
X85100000Y-60700000D01*
D13*
X80100000Y-60500000D02*
X80100000Y-60700000D01*
X80100000Y-65500000D02*
X80100000Y-65300000D01*
X80100000Y-63950000D02*
X80100000Y-62050000D01*
D14*
G36*
X84580000Y-62090000D02*
G01*
X85100000Y-62610000D01*
X85100000Y-62090000D01*
X84580000Y-62090000D01*
G37*
X84580000Y-62090000D02*
X85100000Y-62610000D01*
X85100000Y-62090000D01*
X84580000Y-62090000D01*
G36*
X36980000Y-62090000D02*
G01*
X37500000Y-62610000D01*
X37500000Y-62090000D01*
X36980000Y-62090000D01*
G37*
X36980000Y-62090000D02*
X37500000Y-62610000D01*
X37500000Y-62090000D01*
X36980000Y-62090000D01*
D13*
X32500000Y-63950000D02*
X32500000Y-62050000D01*
X32500000Y-65500000D02*
X32500000Y-65300000D01*
X32500000Y-60500000D02*
X32500000Y-60700000D01*
D14*
G36*
X37500000Y-60700000D02*
G01*
X36500000Y-60700000D01*
X36500000Y-61500000D01*
X35500000Y-60500000D01*
X37500000Y-60500000D01*
X37500000Y-60700000D01*
G37*
X37500000Y-60700000D02*
X36500000Y-60700000D01*
X36500000Y-61500000D01*
X35500000Y-60500000D01*
X37500000Y-60500000D01*
X37500000Y-60700000D01*
D13*
X37500000Y-62100000D02*
X37500000Y-63950000D01*
X37500000Y-60500000D02*
X37500000Y-60690000D01*
X37500000Y-65500000D02*
X37500000Y-65300000D01*
X37500000Y-60500000D02*
X32500000Y-60500000D01*
X32500000Y-65500000D02*
X37500000Y-65500000D01*
X63397936Y-79090000D02*
X64602064Y-79090000D01*
X63397936Y-80910000D02*
X64602064Y-80910000D01*
X42252064Y-81740000D02*
X41047936Y-81740000D01*
X42252064Y-83560000D02*
X41047936Y-83560000D01*
D11*
X47675000Y-84225000D02*
X48250000Y-84225000D01*
X47675000Y-94575000D02*
X48350000Y-94575000D01*
X58025000Y-94575000D02*
X57350000Y-94575000D01*
X58025000Y-84225000D02*
X57350000Y-84225000D01*
X47675000Y-84225000D02*
X47675000Y-84900000D01*
X58025000Y-84225000D02*
X58025000Y-84900000D01*
X58025000Y-94575000D02*
X58025000Y-93900000D01*
X47675000Y-94575000D02*
X47675000Y-93900000D01*
X48250000Y-84225000D02*
X48250000Y-82950000D01*
D13*
X66250000Y-92100000D02*
X61750000Y-92100000D01*
X61750000Y-92100000D02*
X61750000Y-86700000D01*
D11*
X18880000Y-42520000D02*
X18380000Y-42520000D01*
X24880000Y-41520000D02*
X24880000Y-39270000D01*
X22880000Y-42520000D02*
X21880000Y-42520000D01*
X18880000Y-32520000D02*
X18380000Y-32520000D01*
X22880000Y-32520000D02*
X21880000Y-32520000D01*
X24880000Y-35770000D02*
X24880000Y-33520000D01*
D13*
X138130000Y-90810000D02*
X138130000Y-91110000D01*
X141430000Y-90810000D02*
X138130000Y-90810000D01*
X141430000Y-91110000D02*
X141430000Y-90810000D01*
X138130000Y-93610000D02*
X138130000Y-93310000D01*
X141430000Y-93610000D02*
X138130000Y-93610000D01*
X141430000Y-93310000D02*
X141430000Y-93610000D01*
D11*
X59919166Y-96427142D02*
X59966785Y-96474761D01*
X60109642Y-96522380D01*
X60204880Y-96522380D01*
X60347738Y-96474761D01*
X60442976Y-96379523D01*
X60490595Y-96284285D01*
X60538214Y-96093809D01*
X60538214Y-95950952D01*
X60490595Y-95760476D01*
X60442976Y-95665238D01*
X60347738Y-95570000D01*
X60204880Y-95522380D01*
X60109642Y-95522380D01*
X59966785Y-95570000D01*
X59919166Y-95617619D01*
X59062023Y-95522380D02*
X59252500Y-95522380D01*
X59347738Y-95570000D01*
X59395357Y-95617619D01*
X59490595Y-95760476D01*
X59538214Y-95950952D01*
X59538214Y-96331904D01*
X59490595Y-96427142D01*
X59442976Y-96474761D01*
X59347738Y-96522380D01*
X59157261Y-96522380D01*
X59062023Y-96474761D01*
X59014404Y-96427142D01*
X58966785Y-96331904D01*
X58966785Y-96093809D01*
X59014404Y-95998571D01*
X59062023Y-95950952D01*
X59157261Y-95903333D01*
X59347738Y-95903333D01*
X59442976Y-95950952D01*
X59490595Y-95998571D01*
X59538214Y-96093809D01*
X47666666Y-77687142D02*
X47714285Y-77734761D01*
X47857142Y-77782380D01*
X47952380Y-77782380D01*
X48095238Y-77734761D01*
X48190476Y-77639523D01*
X48238095Y-77544285D01*
X48285714Y-77353809D01*
X48285714Y-77210952D01*
X48238095Y-77020476D01*
X48190476Y-76925238D01*
X48095238Y-76830000D01*
X47952380Y-76782380D01*
X47857142Y-76782380D01*
X47714285Y-76830000D01*
X47666666Y-76877619D01*
X47333333Y-76782380D02*
X46666666Y-76782380D01*
X47095238Y-77782380D01*
X54316666Y-81067142D02*
X54364285Y-81114761D01*
X54507142Y-81162380D01*
X54602380Y-81162380D01*
X54745238Y-81114761D01*
X54840476Y-81019523D01*
X54888095Y-80924285D01*
X54935714Y-80733809D01*
X54935714Y-80590952D01*
X54888095Y-80400476D01*
X54840476Y-80305238D01*
X54745238Y-80210000D01*
X54602380Y-80162380D01*
X54507142Y-80162380D01*
X54364285Y-80210000D01*
X54316666Y-80257619D01*
X53983333Y-80162380D02*
X53364285Y-80162380D01*
X53697619Y-80543333D01*
X53554761Y-80543333D01*
X53459523Y-80590952D01*
X53411904Y-80638571D01*
X53364285Y-80733809D01*
X53364285Y-80971904D01*
X53411904Y-81067142D01*
X53459523Y-81114761D01*
X53554761Y-81162380D01*
X53840476Y-81162380D01*
X53935714Y-81114761D01*
X53983333Y-81067142D01*
X64166666Y-93807142D02*
X64214285Y-93854761D01*
X64357142Y-93902380D01*
X64452380Y-93902380D01*
X64595238Y-93854761D01*
X64690476Y-93759523D01*
X64738095Y-93664285D01*
X64785714Y-93473809D01*
X64785714Y-93330952D01*
X64738095Y-93140476D01*
X64690476Y-93045238D01*
X64595238Y-92950000D01*
X64452380Y-92902380D01*
X64357142Y-92902380D01*
X64214285Y-92950000D01*
X64166666Y-92997619D01*
X63214285Y-93902380D02*
X63785714Y-93902380D01*
X63500000Y-93902380D02*
X63500000Y-92902380D01*
X63595238Y-93045238D01*
X63690476Y-93140476D01*
X63785714Y-93188095D01*
X64166666Y-82357142D02*
X64214285Y-82404761D01*
X64357142Y-82452380D01*
X64452380Y-82452380D01*
X64595238Y-82404761D01*
X64690476Y-82309523D01*
X64738095Y-82214285D01*
X64785714Y-82023809D01*
X64785714Y-81880952D01*
X64738095Y-81690476D01*
X64690476Y-81595238D01*
X64595238Y-81500000D01*
X64452380Y-81452380D01*
X64357142Y-81452380D01*
X64214285Y-81500000D01*
X64166666Y-81547619D01*
X63785714Y-81547619D02*
X63738095Y-81500000D01*
X63642857Y-81452380D01*
X63404761Y-81452380D01*
X63309523Y-81500000D01*
X63261904Y-81547619D01*
X63214285Y-81642857D01*
X63214285Y-81738095D01*
X63261904Y-81880952D01*
X63833333Y-82452380D01*
X63214285Y-82452380D01*
X33183333Y-45328571D02*
X33516666Y-45328571D01*
X33516666Y-45852380D02*
X33516666Y-44852380D01*
X33040476Y-44852380D01*
X32135714Y-45852380D02*
X32707142Y-45852380D01*
X32421428Y-45852380D02*
X32421428Y-44852380D01*
X32516666Y-44995238D01*
X32611904Y-45090476D01*
X32707142Y-45138095D01*
X33606666Y-39792380D02*
X33940000Y-39316190D01*
X34178095Y-39792380D02*
X34178095Y-38792380D01*
X33797142Y-38792380D01*
X33701904Y-38840000D01*
X33654285Y-38887619D01*
X33606666Y-38982857D01*
X33606666Y-39125714D01*
X33654285Y-39220952D01*
X33701904Y-39268571D01*
X33797142Y-39316190D01*
X34178095Y-39316190D01*
X32654285Y-39792380D02*
X33225714Y-39792380D01*
X32940000Y-39792380D02*
X32940000Y-38792380D01*
X33035238Y-38935238D01*
X33130476Y-39030476D01*
X33225714Y-39078095D01*
X33656666Y-42292380D02*
X33990000Y-41816190D01*
X34228095Y-42292380D02*
X34228095Y-41292380D01*
X33847142Y-41292380D01*
X33751904Y-41340000D01*
X33704285Y-41387619D01*
X33656666Y-41482857D01*
X33656666Y-41625714D01*
X33704285Y-41720952D01*
X33751904Y-41768571D01*
X33847142Y-41816190D01*
X34228095Y-41816190D01*
X33275714Y-41387619D02*
X33228095Y-41340000D01*
X33132857Y-41292380D01*
X32894761Y-41292380D01*
X32799523Y-41340000D01*
X32751904Y-41387619D01*
X32704285Y-41482857D01*
X32704285Y-41578095D01*
X32751904Y-41720952D01*
X33323333Y-42292380D01*
X32704285Y-42292380D01*
X76666666Y-81632380D02*
X77000000Y-81156190D01*
X77238095Y-81632380D02*
X77238095Y-80632380D01*
X76857142Y-80632380D01*
X76761904Y-80680000D01*
X76714285Y-80727619D01*
X76666666Y-80822857D01*
X76666666Y-80965714D01*
X76714285Y-81060952D01*
X76761904Y-81108571D01*
X76857142Y-81156190D01*
X77238095Y-81156190D01*
X75809523Y-80965714D02*
X75809523Y-81632380D01*
X76047619Y-80584761D02*
X76285714Y-81299047D01*
X75666666Y-81299047D01*
X44669166Y-96552380D02*
X45002500Y-96076190D01*
X45240595Y-96552380D02*
X45240595Y-95552380D01*
X44859642Y-95552380D01*
X44764404Y-95600000D01*
X44716785Y-95647619D01*
X44669166Y-95742857D01*
X44669166Y-95885714D01*
X44716785Y-95980952D01*
X44764404Y-96028571D01*
X44859642Y-96076190D01*
X45240595Y-96076190D01*
X44335833Y-95552380D02*
X43716785Y-95552380D01*
X44050119Y-95933333D01*
X43907261Y-95933333D01*
X43812023Y-95980952D01*
X43764404Y-96028571D01*
X43716785Y-96123809D01*
X43716785Y-96361904D01*
X43764404Y-96457142D01*
X43812023Y-96504761D01*
X43907261Y-96552380D01*
X44192976Y-96552380D01*
X44288214Y-96504761D01*
X44335833Y-96457142D01*
X206616666Y-66952380D02*
X207092857Y-66952380D01*
X207092857Y-65952380D01*
X205759523Y-66952380D02*
X206330952Y-66952380D01*
X206045238Y-66952380D02*
X206045238Y-65952380D01*
X206140476Y-66095238D01*
X206235714Y-66190476D01*
X206330952Y-66238095D01*
D14*
X202767857Y-61739285D02*
X202767857Y-60989285D01*
X202589285Y-60989285D01*
X202482142Y-61025000D01*
X202410714Y-61096428D01*
X202375000Y-61167857D01*
X202339285Y-61310714D01*
X202339285Y-61417857D01*
X202375000Y-61560714D01*
X202410714Y-61632142D01*
X202482142Y-61703571D01*
X202589285Y-61739285D01*
X202767857Y-61739285D01*
X201875000Y-60989285D02*
X201732142Y-60989285D01*
X201660714Y-61025000D01*
X201589285Y-61096428D01*
X201553571Y-61239285D01*
X201553571Y-61489285D01*
X201589285Y-61632142D01*
X201660714Y-61703571D01*
X201732142Y-61739285D01*
X201875000Y-61739285D01*
X201946428Y-61703571D01*
X202017857Y-61632142D01*
X202053571Y-61489285D01*
X202053571Y-61239285D01*
X202017857Y-61096428D01*
X201946428Y-61025000D01*
X201875000Y-60989285D01*
X201232142Y-60989285D02*
X201232142Y-61596428D01*
X201196428Y-61667857D01*
X201160714Y-61703571D01*
X201089285Y-61739285D01*
X200946428Y-61739285D01*
X200875000Y-61703571D01*
X200839285Y-61667857D01*
X200803571Y-61596428D01*
X200803571Y-60989285D01*
X200553571Y-60989285D02*
X200125000Y-60989285D01*
X200339285Y-61739285D02*
X200339285Y-60989285D01*
X202950000Y-64139285D02*
X202700000Y-64889285D01*
X202450000Y-64139285D01*
X202200000Y-64889285D02*
X202200000Y-64139285D01*
X202021428Y-64139285D01*
X201914285Y-64175000D01*
X201842857Y-64246428D01*
X201807142Y-64317857D01*
X201771428Y-64460714D01*
X201771428Y-64567857D01*
X201807142Y-64710714D01*
X201842857Y-64782142D01*
X201914285Y-64853571D01*
X202021428Y-64889285D01*
X202200000Y-64889285D01*
X201450000Y-64889285D02*
X201450000Y-64139285D01*
X201271428Y-64139285D01*
X201164285Y-64175000D01*
X201092857Y-64246428D01*
X201057142Y-64317857D01*
X201021428Y-64460714D01*
X201021428Y-64567857D01*
X201057142Y-64710714D01*
X201092857Y-64782142D01*
X201164285Y-64853571D01*
X201271428Y-64889285D01*
X201450000Y-64889285D01*
X211517857Y-64889285D02*
X211517857Y-64139285D01*
X211339285Y-64139285D01*
X211232142Y-64175000D01*
X211160714Y-64246428D01*
X211125000Y-64317857D01*
X211089285Y-64460714D01*
X211089285Y-64567857D01*
X211125000Y-64710714D01*
X211160714Y-64782142D01*
X211232142Y-64853571D01*
X211339285Y-64889285D01*
X211517857Y-64889285D01*
X210767857Y-64889285D02*
X210767857Y-64139285D01*
X210410714Y-64889285D02*
X210410714Y-64139285D01*
X209982142Y-64889285D01*
X209982142Y-64139285D01*
X211571428Y-60985000D02*
X211642857Y-60949285D01*
X211750000Y-60949285D01*
X211857142Y-60985000D01*
X211928571Y-61056428D01*
X211964285Y-61127857D01*
X212000000Y-61270714D01*
X212000000Y-61377857D01*
X211964285Y-61520714D01*
X211928571Y-61592142D01*
X211857142Y-61663571D01*
X211750000Y-61699285D01*
X211678571Y-61699285D01*
X211571428Y-61663571D01*
X211535714Y-61627857D01*
X211535714Y-61377857D01*
X211678571Y-61377857D01*
X211214285Y-61699285D02*
X211214285Y-60949285D01*
X210785714Y-61699285D01*
X210785714Y-60949285D01*
X210428571Y-61699285D02*
X210428571Y-60949285D01*
X210250000Y-60949285D01*
X210142857Y-60985000D01*
X210071428Y-61056428D01*
X210035714Y-61127857D01*
X210000000Y-61270714D01*
X210000000Y-61377857D01*
X210035714Y-61520714D01*
X210071428Y-61592142D01*
X210142857Y-61663571D01*
X210250000Y-61699285D01*
X210428571Y-61699285D01*
D11*
X158966666Y-66952380D02*
X159442857Y-66952380D01*
X159442857Y-65952380D01*
X158680952Y-66047619D02*
X158633333Y-66000000D01*
X158538095Y-65952380D01*
X158300000Y-65952380D01*
X158204761Y-66000000D01*
X158157142Y-66047619D01*
X158109523Y-66142857D01*
X158109523Y-66238095D01*
X158157142Y-66380952D01*
X158728571Y-66952380D01*
X158109523Y-66952380D01*
D14*
X163921428Y-60985000D02*
X163992857Y-60949285D01*
X164100000Y-60949285D01*
X164207142Y-60985000D01*
X164278571Y-61056428D01*
X164314285Y-61127857D01*
X164350000Y-61270714D01*
X164350000Y-61377857D01*
X164314285Y-61520714D01*
X164278571Y-61592142D01*
X164207142Y-61663571D01*
X164100000Y-61699285D01*
X164028571Y-61699285D01*
X163921428Y-61663571D01*
X163885714Y-61627857D01*
X163885714Y-61377857D01*
X164028571Y-61377857D01*
X163564285Y-61699285D02*
X163564285Y-60949285D01*
X163135714Y-61699285D01*
X163135714Y-60949285D01*
X162778571Y-61699285D02*
X162778571Y-60949285D01*
X162600000Y-60949285D01*
X162492857Y-60985000D01*
X162421428Y-61056428D01*
X162385714Y-61127857D01*
X162350000Y-61270714D01*
X162350000Y-61377857D01*
X162385714Y-61520714D01*
X162421428Y-61592142D01*
X162492857Y-61663571D01*
X162600000Y-61699285D01*
X162778571Y-61699285D01*
X163867857Y-64889285D02*
X163867857Y-64139285D01*
X163689285Y-64139285D01*
X163582142Y-64175000D01*
X163510714Y-64246428D01*
X163475000Y-64317857D01*
X163439285Y-64460714D01*
X163439285Y-64567857D01*
X163475000Y-64710714D01*
X163510714Y-64782142D01*
X163582142Y-64853571D01*
X163689285Y-64889285D01*
X163867857Y-64889285D01*
X163117857Y-64889285D02*
X163117857Y-64139285D01*
X162760714Y-64889285D02*
X162760714Y-64139285D01*
X162332142Y-64889285D01*
X162332142Y-64139285D01*
X155300000Y-64139285D02*
X155050000Y-64889285D01*
X154800000Y-64139285D01*
X154550000Y-64889285D02*
X154550000Y-64139285D01*
X154371428Y-64139285D01*
X154264285Y-64175000D01*
X154192857Y-64246428D01*
X154157142Y-64317857D01*
X154121428Y-64460714D01*
X154121428Y-64567857D01*
X154157142Y-64710714D01*
X154192857Y-64782142D01*
X154264285Y-64853571D01*
X154371428Y-64889285D01*
X154550000Y-64889285D01*
X153800000Y-64889285D02*
X153800000Y-64139285D01*
X153621428Y-64139285D01*
X153514285Y-64175000D01*
X153442857Y-64246428D01*
X153407142Y-64317857D01*
X153371428Y-64460714D01*
X153371428Y-64567857D01*
X153407142Y-64710714D01*
X153442857Y-64782142D01*
X153514285Y-64853571D01*
X153621428Y-64889285D01*
X153800000Y-64889285D01*
X155117857Y-61739285D02*
X155117857Y-60989285D01*
X154939285Y-60989285D01*
X154832142Y-61025000D01*
X154760714Y-61096428D01*
X154725000Y-61167857D01*
X154689285Y-61310714D01*
X154689285Y-61417857D01*
X154725000Y-61560714D01*
X154760714Y-61632142D01*
X154832142Y-61703571D01*
X154939285Y-61739285D01*
X155117857Y-61739285D01*
X154225000Y-60989285D02*
X154082142Y-60989285D01*
X154010714Y-61025000D01*
X153939285Y-61096428D01*
X153903571Y-61239285D01*
X153903571Y-61489285D01*
X153939285Y-61632142D01*
X154010714Y-61703571D01*
X154082142Y-61739285D01*
X154225000Y-61739285D01*
X154296428Y-61703571D01*
X154367857Y-61632142D01*
X154403571Y-61489285D01*
X154403571Y-61239285D01*
X154367857Y-61096428D01*
X154296428Y-61025000D01*
X154225000Y-60989285D01*
X153582142Y-60989285D02*
X153582142Y-61596428D01*
X153546428Y-61667857D01*
X153510714Y-61703571D01*
X153439285Y-61739285D01*
X153296428Y-61739285D01*
X153225000Y-61703571D01*
X153189285Y-61667857D01*
X153153571Y-61596428D01*
X153153571Y-60989285D01*
X152903571Y-60989285D02*
X152475000Y-60989285D01*
X152689285Y-61739285D02*
X152689285Y-60989285D01*
D11*
X120876666Y-66952380D02*
X121352857Y-66952380D01*
X121352857Y-65952380D01*
X120638571Y-65952380D02*
X120019523Y-65952380D01*
X120352857Y-66333333D01*
X120210000Y-66333333D01*
X120114761Y-66380952D01*
X120067142Y-66428571D01*
X120019523Y-66523809D01*
X120019523Y-66761904D01*
X120067142Y-66857142D01*
X120114761Y-66904761D01*
X120210000Y-66952380D01*
X120495714Y-66952380D01*
X120590952Y-66904761D01*
X120638571Y-66857142D01*
D14*
X117027857Y-61739285D02*
X117027857Y-60989285D01*
X116849285Y-60989285D01*
X116742142Y-61025000D01*
X116670714Y-61096428D01*
X116635000Y-61167857D01*
X116599285Y-61310714D01*
X116599285Y-61417857D01*
X116635000Y-61560714D01*
X116670714Y-61632142D01*
X116742142Y-61703571D01*
X116849285Y-61739285D01*
X117027857Y-61739285D01*
X116135000Y-60989285D02*
X115992142Y-60989285D01*
X115920714Y-61025000D01*
X115849285Y-61096428D01*
X115813571Y-61239285D01*
X115813571Y-61489285D01*
X115849285Y-61632142D01*
X115920714Y-61703571D01*
X115992142Y-61739285D01*
X116135000Y-61739285D01*
X116206428Y-61703571D01*
X116277857Y-61632142D01*
X116313571Y-61489285D01*
X116313571Y-61239285D01*
X116277857Y-61096428D01*
X116206428Y-61025000D01*
X116135000Y-60989285D01*
X115492142Y-60989285D02*
X115492142Y-61596428D01*
X115456428Y-61667857D01*
X115420714Y-61703571D01*
X115349285Y-61739285D01*
X115206428Y-61739285D01*
X115135000Y-61703571D01*
X115099285Y-61667857D01*
X115063571Y-61596428D01*
X115063571Y-60989285D01*
X114813571Y-60989285D02*
X114385000Y-60989285D01*
X114599285Y-61739285D02*
X114599285Y-60989285D01*
X117210000Y-64139285D02*
X116960000Y-64889285D01*
X116710000Y-64139285D01*
X116460000Y-64889285D02*
X116460000Y-64139285D01*
X116281428Y-64139285D01*
X116174285Y-64175000D01*
X116102857Y-64246428D01*
X116067142Y-64317857D01*
X116031428Y-64460714D01*
X116031428Y-64567857D01*
X116067142Y-64710714D01*
X116102857Y-64782142D01*
X116174285Y-64853571D01*
X116281428Y-64889285D01*
X116460000Y-64889285D01*
X115710000Y-64889285D02*
X115710000Y-64139285D01*
X115531428Y-64139285D01*
X115424285Y-64175000D01*
X115352857Y-64246428D01*
X115317142Y-64317857D01*
X115281428Y-64460714D01*
X115281428Y-64567857D01*
X115317142Y-64710714D01*
X115352857Y-64782142D01*
X115424285Y-64853571D01*
X115531428Y-64889285D01*
X115710000Y-64889285D01*
X125777857Y-64889285D02*
X125777857Y-64139285D01*
X125599285Y-64139285D01*
X125492142Y-64175000D01*
X125420714Y-64246428D01*
X125385000Y-64317857D01*
X125349285Y-64460714D01*
X125349285Y-64567857D01*
X125385000Y-64710714D01*
X125420714Y-64782142D01*
X125492142Y-64853571D01*
X125599285Y-64889285D01*
X125777857Y-64889285D01*
X125027857Y-64889285D02*
X125027857Y-64139285D01*
X124670714Y-64889285D02*
X124670714Y-64139285D01*
X124242142Y-64889285D01*
X124242142Y-64139285D01*
X125831428Y-60985000D02*
X125902857Y-60949285D01*
X126010000Y-60949285D01*
X126117142Y-60985000D01*
X126188571Y-61056428D01*
X126224285Y-61127857D01*
X126260000Y-61270714D01*
X126260000Y-61377857D01*
X126224285Y-61520714D01*
X126188571Y-61592142D01*
X126117142Y-61663571D01*
X126010000Y-61699285D01*
X125938571Y-61699285D01*
X125831428Y-61663571D01*
X125795714Y-61627857D01*
X125795714Y-61377857D01*
X125938571Y-61377857D01*
X125474285Y-61699285D02*
X125474285Y-60949285D01*
X125045714Y-61699285D01*
X125045714Y-60949285D01*
X124688571Y-61699285D02*
X124688571Y-60949285D01*
X124510000Y-60949285D01*
X124402857Y-60985000D01*
X124331428Y-61056428D01*
X124295714Y-61127857D01*
X124260000Y-61270714D01*
X124260000Y-61377857D01*
X124295714Y-61520714D01*
X124331428Y-61592142D01*
X124402857Y-61663571D01*
X124510000Y-61699285D01*
X124688571Y-61699285D01*
D11*
X82766666Y-66952380D02*
X83242857Y-66952380D01*
X83242857Y-65952380D01*
X82004761Y-66285714D02*
X82004761Y-66952380D01*
X82242857Y-65904761D02*
X82480952Y-66619047D01*
X81861904Y-66619047D01*
D14*
X87721428Y-60985000D02*
X87792857Y-60949285D01*
X87900000Y-60949285D01*
X88007142Y-60985000D01*
X88078571Y-61056428D01*
X88114285Y-61127857D01*
X88150000Y-61270714D01*
X88150000Y-61377857D01*
X88114285Y-61520714D01*
X88078571Y-61592142D01*
X88007142Y-61663571D01*
X87900000Y-61699285D01*
X87828571Y-61699285D01*
X87721428Y-61663571D01*
X87685714Y-61627857D01*
X87685714Y-61377857D01*
X87828571Y-61377857D01*
X87364285Y-61699285D02*
X87364285Y-60949285D01*
X86935714Y-61699285D01*
X86935714Y-60949285D01*
X86578571Y-61699285D02*
X86578571Y-60949285D01*
X86400000Y-60949285D01*
X86292857Y-60985000D01*
X86221428Y-61056428D01*
X86185714Y-61127857D01*
X86150000Y-61270714D01*
X86150000Y-61377857D01*
X86185714Y-61520714D01*
X86221428Y-61592142D01*
X86292857Y-61663571D01*
X86400000Y-61699285D01*
X86578571Y-61699285D01*
X87667857Y-64889285D02*
X87667857Y-64139285D01*
X87489285Y-64139285D01*
X87382142Y-64175000D01*
X87310714Y-64246428D01*
X87275000Y-64317857D01*
X87239285Y-64460714D01*
X87239285Y-64567857D01*
X87275000Y-64710714D01*
X87310714Y-64782142D01*
X87382142Y-64853571D01*
X87489285Y-64889285D01*
X87667857Y-64889285D01*
X86917857Y-64889285D02*
X86917857Y-64139285D01*
X86560714Y-64889285D02*
X86560714Y-64139285D01*
X86132142Y-64889285D01*
X86132142Y-64139285D01*
X79100000Y-64139285D02*
X78850000Y-64889285D01*
X78600000Y-64139285D01*
X78350000Y-64889285D02*
X78350000Y-64139285D01*
X78171428Y-64139285D01*
X78064285Y-64175000D01*
X77992857Y-64246428D01*
X77957142Y-64317857D01*
X77921428Y-64460714D01*
X77921428Y-64567857D01*
X77957142Y-64710714D01*
X77992857Y-64782142D01*
X78064285Y-64853571D01*
X78171428Y-64889285D01*
X78350000Y-64889285D01*
X77600000Y-64889285D02*
X77600000Y-64139285D01*
X77421428Y-64139285D01*
X77314285Y-64175000D01*
X77242857Y-64246428D01*
X77207142Y-64317857D01*
X77171428Y-64460714D01*
X77171428Y-64567857D01*
X77207142Y-64710714D01*
X77242857Y-64782142D01*
X77314285Y-64853571D01*
X77421428Y-64889285D01*
X77600000Y-64889285D01*
X78917857Y-61739285D02*
X78917857Y-60989285D01*
X78739285Y-60989285D01*
X78632142Y-61025000D01*
X78560714Y-61096428D01*
X78525000Y-61167857D01*
X78489285Y-61310714D01*
X78489285Y-61417857D01*
X78525000Y-61560714D01*
X78560714Y-61632142D01*
X78632142Y-61703571D01*
X78739285Y-61739285D01*
X78917857Y-61739285D01*
X78025000Y-60989285D02*
X77882142Y-60989285D01*
X77810714Y-61025000D01*
X77739285Y-61096428D01*
X77703571Y-61239285D01*
X77703571Y-61489285D01*
X77739285Y-61632142D01*
X77810714Y-61703571D01*
X77882142Y-61739285D01*
X78025000Y-61739285D01*
X78096428Y-61703571D01*
X78167857Y-61632142D01*
X78203571Y-61489285D01*
X78203571Y-61239285D01*
X78167857Y-61096428D01*
X78096428Y-61025000D01*
X78025000Y-60989285D01*
X77382142Y-60989285D02*
X77382142Y-61596428D01*
X77346428Y-61667857D01*
X77310714Y-61703571D01*
X77239285Y-61739285D01*
X77096428Y-61739285D01*
X77025000Y-61703571D01*
X76989285Y-61667857D01*
X76953571Y-61596428D01*
X76953571Y-60989285D01*
X76703571Y-60989285D02*
X76275000Y-60989285D01*
X76489285Y-61739285D02*
X76489285Y-60989285D01*
D11*
X35166666Y-66952380D02*
X35642857Y-66952380D01*
X35642857Y-65952380D01*
X34357142Y-65952380D02*
X34833333Y-65952380D01*
X34880952Y-66428571D01*
X34833333Y-66380952D01*
X34738095Y-66333333D01*
X34500000Y-66333333D01*
X34404761Y-66380952D01*
X34357142Y-66428571D01*
X34309523Y-66523809D01*
X34309523Y-66761904D01*
X34357142Y-66857142D01*
X34404761Y-66904761D01*
X34500000Y-66952380D01*
X34738095Y-66952380D01*
X34833333Y-66904761D01*
X34880952Y-66857142D01*
D14*
X31317857Y-61739285D02*
X31317857Y-60989285D01*
X31139285Y-60989285D01*
X31032142Y-61025000D01*
X30960714Y-61096428D01*
X30925000Y-61167857D01*
X30889285Y-61310714D01*
X30889285Y-61417857D01*
X30925000Y-61560714D01*
X30960714Y-61632142D01*
X31032142Y-61703571D01*
X31139285Y-61739285D01*
X31317857Y-61739285D01*
X30425000Y-60989285D02*
X30282142Y-60989285D01*
X30210714Y-61025000D01*
X30139285Y-61096428D01*
X30103571Y-61239285D01*
X30103571Y-61489285D01*
X30139285Y-61632142D01*
X30210714Y-61703571D01*
X30282142Y-61739285D01*
X30425000Y-61739285D01*
X30496428Y-61703571D01*
X30567857Y-61632142D01*
X30603571Y-61489285D01*
X30603571Y-61239285D01*
X30567857Y-61096428D01*
X30496428Y-61025000D01*
X30425000Y-60989285D01*
X29782142Y-60989285D02*
X29782142Y-61596428D01*
X29746428Y-61667857D01*
X29710714Y-61703571D01*
X29639285Y-61739285D01*
X29496428Y-61739285D01*
X29425000Y-61703571D01*
X29389285Y-61667857D01*
X29353571Y-61596428D01*
X29353571Y-60989285D01*
X29103571Y-60989285D02*
X28675000Y-60989285D01*
X28889285Y-61739285D02*
X28889285Y-60989285D01*
X31500000Y-64139285D02*
X31250000Y-64889285D01*
X31000000Y-64139285D01*
X30750000Y-64889285D02*
X30750000Y-64139285D01*
X30571428Y-64139285D01*
X30464285Y-64175000D01*
X30392857Y-64246428D01*
X30357142Y-64317857D01*
X30321428Y-64460714D01*
X30321428Y-64567857D01*
X30357142Y-64710714D01*
X30392857Y-64782142D01*
X30464285Y-64853571D01*
X30571428Y-64889285D01*
X30750000Y-64889285D01*
X30000000Y-64889285D02*
X30000000Y-64139285D01*
X29821428Y-64139285D01*
X29714285Y-64175000D01*
X29642857Y-64246428D01*
X29607142Y-64317857D01*
X29571428Y-64460714D01*
X29571428Y-64567857D01*
X29607142Y-64710714D01*
X29642857Y-64782142D01*
X29714285Y-64853571D01*
X29821428Y-64889285D01*
X30000000Y-64889285D01*
X40067857Y-64889285D02*
X40067857Y-64139285D01*
X39889285Y-64139285D01*
X39782142Y-64175000D01*
X39710714Y-64246428D01*
X39675000Y-64317857D01*
X39639285Y-64460714D01*
X39639285Y-64567857D01*
X39675000Y-64710714D01*
X39710714Y-64782142D01*
X39782142Y-64853571D01*
X39889285Y-64889285D01*
X40067857Y-64889285D01*
X39317857Y-64889285D02*
X39317857Y-64139285D01*
X38960714Y-64889285D02*
X38960714Y-64139285D01*
X38532142Y-64889285D01*
X38532142Y-64139285D01*
X40121428Y-60985000D02*
X40192857Y-60949285D01*
X40300000Y-60949285D01*
X40407142Y-60985000D01*
X40478571Y-61056428D01*
X40514285Y-61127857D01*
X40550000Y-61270714D01*
X40550000Y-61377857D01*
X40514285Y-61520714D01*
X40478571Y-61592142D01*
X40407142Y-61663571D01*
X40300000Y-61699285D01*
X40228571Y-61699285D01*
X40121428Y-61663571D01*
X40085714Y-61627857D01*
X40085714Y-61377857D01*
X40228571Y-61377857D01*
X39764285Y-61699285D02*
X39764285Y-60949285D01*
X39335714Y-61699285D01*
X39335714Y-60949285D01*
X38978571Y-61699285D02*
X38978571Y-60949285D01*
X38800000Y-60949285D01*
X38692857Y-60985000D01*
X38621428Y-61056428D01*
X38585714Y-61127857D01*
X38550000Y-61270714D01*
X38550000Y-61377857D01*
X38585714Y-61520714D01*
X38621428Y-61592142D01*
X38692857Y-61663571D01*
X38800000Y-61699285D01*
X38978571Y-61699285D01*
D11*
X64176666Y-78587142D02*
X64224285Y-78634761D01*
X64367142Y-78682380D01*
X64462380Y-78682380D01*
X64605238Y-78634761D01*
X64700476Y-78539523D01*
X64748095Y-78444285D01*
X64795714Y-78253809D01*
X64795714Y-78110952D01*
X64748095Y-77920476D01*
X64700476Y-77825238D01*
X64605238Y-77730000D01*
X64462380Y-77682380D01*
X64367142Y-77682380D01*
X64224285Y-77730000D01*
X64176666Y-77777619D01*
X63319523Y-78015714D02*
X63319523Y-78682380D01*
X63557619Y-77634761D02*
X63795714Y-78349047D01*
X63176666Y-78349047D01*
X41809166Y-84677142D02*
X41856785Y-84724761D01*
X41999642Y-84772380D01*
X42094880Y-84772380D01*
X42237738Y-84724761D01*
X42332976Y-84629523D01*
X42380595Y-84534285D01*
X42428214Y-84343809D01*
X42428214Y-84200952D01*
X42380595Y-84010476D01*
X42332976Y-83915238D01*
X42237738Y-83820000D01*
X42094880Y-83772380D01*
X41999642Y-83772380D01*
X41856785Y-83820000D01*
X41809166Y-83867619D01*
X40904404Y-83772380D02*
X41380595Y-83772380D01*
X41428214Y-84248571D01*
X41380595Y-84200952D01*
X41285357Y-84153333D01*
X41047261Y-84153333D01*
X40952023Y-84200952D01*
X40904404Y-84248571D01*
X40856785Y-84343809D01*
X40856785Y-84581904D01*
X40904404Y-84677142D01*
X40952023Y-84724761D01*
X41047261Y-84772380D01*
X41285357Y-84772380D01*
X41380595Y-84724761D01*
X41428214Y-84677142D01*
X44852380Y-88638095D02*
X45661904Y-88638095D01*
X45757142Y-88685714D01*
X45804761Y-88733333D01*
X45852380Y-88828571D01*
X45852380Y-89019047D01*
X45804761Y-89114285D01*
X45757142Y-89161904D01*
X45661904Y-89209523D01*
X44852380Y-89209523D01*
X45852380Y-90209523D02*
X45852380Y-89638095D01*
X45852380Y-89923809D02*
X44852380Y-89923809D01*
X44995238Y-89828571D01*
X45090476Y-89733333D01*
X45138095Y-89638095D01*
X67026190Y-88923809D02*
X67502380Y-88923809D01*
X66502380Y-88590476D02*
X67026190Y-88923809D01*
X66502380Y-89257142D01*
X67502380Y-90114285D02*
X67502380Y-89542857D01*
X67502380Y-89828571D02*
X66502380Y-89828571D01*
X66645238Y-89733333D01*
X66740476Y-89638095D01*
X66788095Y-89542857D01*
X27077499Y-37848253D02*
X26363213Y-37848253D01*
X26220356Y-37895872D01*
X26125118Y-37991110D01*
X26077499Y-38133967D01*
X26077499Y-38229205D01*
X26077499Y-36848253D02*
X26077499Y-37419681D01*
X26077499Y-37133967D02*
X27077499Y-37133967D01*
X26934641Y-37229205D01*
X26839403Y-37324443D01*
X26791784Y-37419681D01*
X141232380Y-90162380D02*
X141565714Y-89686190D01*
X141803809Y-90162380D02*
X141803809Y-89162380D01*
X141422857Y-89162380D01*
X141327619Y-89210000D01*
X141280000Y-89257619D01*
X141232380Y-89352857D01*
X141232380Y-89495714D01*
X141280000Y-89590952D01*
X141327619Y-89638571D01*
X141422857Y-89686190D01*
X141803809Y-89686190D01*
X140803809Y-89638571D02*
X140470476Y-89638571D01*
X140327619Y-90162380D02*
X140803809Y-90162380D01*
X140803809Y-89162380D01*
X140327619Y-89162380D01*
X139946666Y-90114761D02*
X139803809Y-90162380D01*
X139565714Y-90162380D01*
X139470476Y-90114761D01*
X139422857Y-90067142D01*
X139375238Y-89971904D01*
X139375238Y-89876666D01*
X139422857Y-89781428D01*
X139470476Y-89733809D01*
X139565714Y-89686190D01*
X139756190Y-89638571D01*
X139851428Y-89590952D01*
X139899047Y-89543333D01*
X139946666Y-89448095D01*
X139946666Y-89352857D01*
X139899047Y-89257619D01*
X139851428Y-89210000D01*
X139756190Y-89162380D01*
X139518095Y-89162380D01*
X139375238Y-89210000D01*
X138946666Y-89638571D02*
X138613333Y-89638571D01*
X138470476Y-90162380D02*
X138946666Y-90162380D01*
X138946666Y-89162380D01*
X138470476Y-89162380D01*
X138184761Y-89162380D02*
X137613333Y-89162380D01*
X137899047Y-90162380D02*
X137899047Y-89162380D01*
M02*
