M48
; DRILL file {KiCad (5.1.6-0-10_14)} date Saturday, August 01, 2020 at 09:56:18 AM
; FORMAT={-:-/ absolute / inch / decimal}
; #@! TF.CreationDate,2020-08-01T09:56:18+09:00
; #@! TF.GenerationSoftware,Kicad,Pcbnew,(5.1.6-0-10_14)
; #@! TF.FileFunction,NonPlated,1,2,NPTH
FMAT,2
INCH
T1C0.0689
T2C0.1181
T3C0.1200
T4C0.1570
%
G90
G05
T1
X1.178Y-2.128
X1.578Y-2.128
X7.928Y-3.628
X8.328Y-3.628
X1.178Y-2.878
X1.578Y-2.878
X2.678Y-2.878
X3.078Y-2.878
X4.5543Y-3.628
X4.9543Y-3.628
X1.178Y-3.628
X1.578Y-3.628
X6.428Y-2.128
X6.828Y-2.128
X5.678Y-1.378
X6.078Y-1.378
X3.428Y-1.378
X3.828Y-1.378
X3.428Y-2.878
X3.828Y-2.878
X3.428Y-2.128
X3.828Y-2.128
X2.678Y-1.378
X3.078Y-1.378
X5.678Y-2.878
X6.078Y-2.878
X4.928Y-2.128
X5.328Y-2.128
X1.928Y-2.128
X2.328Y-2.128
X7.178Y-1.378
X7.578Y-1.378
X7.178Y-2.128
X7.578Y-2.128
X4.178Y-2.878
X4.578Y-2.878
X6.428Y-1.378
X6.828Y-1.378
X4.178Y-1.378
X4.578Y-1.378
X7.928Y-2.128
X8.328Y-2.128
X1.928Y-1.378
X2.328Y-1.378
X1.928Y-2.878
X2.328Y-2.878
X5.678Y-2.128
X6.078Y-2.128
X7.178Y-2.878
X7.578Y-2.878
X6.428Y-2.878
X6.828Y-2.878
X2.678Y-2.128
X3.078Y-2.128
X7.928Y-1.378
X8.328Y-1.378
X7.928Y-2.878
X8.328Y-2.878
X4.928Y-2.878
X5.328Y-2.878
X1.178Y-1.378
X1.578Y-1.378
X4.928Y-1.378
X5.328Y-1.378
X4.178Y-2.128
X4.578Y-2.128
T2
X2.728Y-2.778
X2.978Y-2.678
X4.6043Y-3.528
X4.8543Y-3.428
X1.228Y-3.528
X1.478Y-3.428
X6.478Y-2.028
X6.728Y-1.928
X5.728Y-1.278
X5.978Y-1.178
X3.478Y-1.278
X3.728Y-1.178
X3.478Y-2.778
X3.728Y-2.678
X3.478Y-2.028
X3.728Y-1.928
X2.728Y-1.278
X2.978Y-1.178
X5.728Y-2.778
X5.978Y-2.678
X4.978Y-2.028
X5.228Y-1.928
X1.978Y-2.028
X2.228Y-1.928
X7.228Y-1.278
X7.478Y-1.178
X7.228Y-2.028
X7.478Y-1.928
X4.228Y-2.778
X4.478Y-2.678
X6.478Y-1.278
X6.728Y-1.178
X4.228Y-1.278
X4.478Y-1.178
X7.978Y-2.028
X8.228Y-1.928
X1.978Y-1.278
X2.228Y-1.178
X1.978Y-2.778
X2.228Y-2.678
X5.728Y-2.028
X5.978Y-1.928
X7.228Y-2.778
X7.478Y-2.678
X6.478Y-2.778
X6.728Y-2.678
X2.728Y-2.028
X2.978Y-1.928
X7.978Y-1.278
X8.228Y-1.178
X7.978Y-2.778
X8.228Y-2.678
X4.978Y-2.778
X5.228Y-2.678
X1.228Y-1.278
X1.478Y-1.178
X4.978Y-1.278
X5.228Y-1.178
X4.228Y-2.028
X4.478Y-1.928
X1.228Y-2.028
X1.478Y-1.928
X7.978Y-3.528
X8.228Y-3.428
X1.228Y-2.778
X1.478Y-2.678
T3
X2.7858Y-3.903
X6.7228Y-3.903
T4
X2.878Y-1.378
X5.878Y-2.878
X5.128Y-2.128
X2.128Y-2.128
X7.378Y-1.378
X7.378Y-2.128
X4.378Y-2.878
X6.628Y-1.378
X4.378Y-1.378
X8.128Y-2.128
X2.128Y-1.378
X2.128Y-2.878
X5.878Y-2.128
X7.378Y-2.878
X6.628Y-2.878
X2.878Y-2.128
X8.128Y-1.378
X8.128Y-2.878
X5.128Y-2.878
X1.378Y-1.378
X5.128Y-1.378
X4.378Y-2.128
X1.378Y-2.128
X8.128Y-3.628
X1.378Y-2.878
X2.878Y-2.878
X2.7858Y-3.303
X4.7543Y-3.628
X6.7228Y-3.303
X1.378Y-3.628
X6.628Y-2.128
X5.878Y-1.378
X3.628Y-1.378
X3.628Y-2.878
X3.628Y-2.128
T0
M30
