M48
; DRILL file {KiCad (5.1.9-0-10_14)} date Thursday, June 24, 2021 at 09:39:27 AM
; FORMAT={-:-/ absolute / metric / decimal}
; #@! TF.CreationDate,2021-06-24T09:39:27+09:00
; #@! TF.GenerationSoftware,Kicad,Pcbnew,(5.1.9-0-10_14)
FMAT,2
METRIC
T1C0.300
T2C0.500
T3C0.813
T4C1.300
T5C1.750
T6C2.200
T7C3.000
T8C3.048
T9C3.988
T10C4.800
%
G90
G05
T1
X-29.4Y-67.3
X-19.5Y-10.9
X-14.3Y-66.7
X-8.1Y-28.4
X-6.7Y-43.4
X-5.506Y-59.706
X-2.226Y-40.874
X-2.226Y-52.574
X-0.8Y-65.0
X0.5Y-68.8
X1.134Y-22.166
X1.134Y-33.618
X6.0Y-29.1
X8.2Y-65.1
X8.7Y-70.5
X10.6Y-51.4
X12.11Y-65.31
X13.2Y-46.7
X13.834Y-59.634
X13.834Y-67.334
X15.42Y-34.02
X16.1Y-64.5
X17.174Y-40.926
X17.174Y-52.278
X19.3Y-10.8
X20.484Y-22.084
X20.484Y-33.584
X21.9Y-49.9
X22.7Y-27.2
X25.0Y-81.9
X25.0Y-90.1
X26.9Y-72.6
X31.2Y-82.2
X33.1Y-75.3
X34.9Y-64.3
X36.534Y-40.834
X36.534Y-52.166
X39.854Y-21.946
X39.854Y-33.546
X41.5Y-79.2
X41.5Y-84.1
X42.4Y-27.2
X44.5Y-76.553
X44.5Y-84.8
X46.4Y-28.0
X46.4Y-32.0
X47.7Y-98.4
X49.1Y-83.5
X53.6Y-36.2
X53.65Y-70.95
X54.684Y-47.984
X54.684Y-58.784
X54.7Y-40.1
X60.1Y-29.9
X64.1Y-21.9
X64.4Y-81.3
X69.5Y-33.1
X70.1Y-104.7
X71.175Y-27.975
X72.526Y-31.374
X72.834Y-54.534
X72.834Y-65.666
X72.85Y-46.55
X76.174Y-27.126
X76.216Y-20.216
X77.7Y-36.3
X84.5Y-64.5
X85.0Y-22.9
X86.9Y-79.5
X87.5Y-89.5
X90.4Y-46.2
X91.5Y-96.4
X94.7Y-74.7
X95.0Y-38.4
X95.0Y-55.7
X95.6Y-57.5
X95.7Y-37.8
X96.4Y-37.2
X96.5Y-44.5
X98.7Y-97.7
X99.0Y-46.2
X99.352Y-26.848
X100.562Y-92.762
X101.25Y-38.65
X101.3Y-42.2
X101.5Y-10.0
X101.7Y-96.6
X102.622Y-48.178
X104.1Y-80.9
X104.5Y-57.3
X104.8Y-64.5
X105.972Y-66.928
X105.972Y-75.928
X108.3Y-44.6
X110.7Y-83.4
X115.1Y-79.9
X117.5Y-31.3
X117.502Y-22.698
X118.5Y-104.7
X119.7Y-94.1
X120.792Y-41.308
X120.8Y-50.5
X123.1Y-81.7
X124.102Y-60.198
X124.102Y-67.898
X124.102Y-76.298
X129.3Y-30.6
X131.4Y-26.1
X132.6Y-17.4
X132.9Y-24.4
X135.6Y-24.4
X138.922Y-43.378
X138.922Y-54.609
X140.1Y-34.6
X141.1Y-15.7
X141.7Y-98.5
X142.3Y-61.6
X142.3Y-69.2
X146.2Y-67.3
X151.4Y-27.7
X152.074Y-18.026
X155.022Y-24.778
X155.086Y-36.014
X156.5Y-72.034
X161.642Y-44.046
X161.642Y-53.558
X161.642Y-61.542
X164.2Y-90.1
X165.8Y-63.7
X166.7Y-28.5
X167.4Y-50.0
X170.1Y-10.8
X171.0Y-16.1
X172.89Y-68.51
X177.346Y-25.1
X177.682Y-35.118
X177.682Y-44.118
X177.682Y-48.418
X178.8Y-26.7
X180.7Y-48.3
X180.7Y-70.5
X180.992Y-61.792
X181.0Y-67.1
X190.2Y-15.5
X194.096Y-34.596
X194.096Y-42.904
X197.05Y-26.85
X197.072Y-35.028
X200.362Y-44.326
X200.362Y-54.038
X208.9Y-11.1
X218.7Y-67.3
T2
X-11.3Y-51.8
X-9.2Y-59.7
X-4.28Y-34.92
X-4.28Y-43.18
X-4.0Y-67.7
X-3.2Y-66.4
X9.2Y-48.3
X13.4Y-34.0
X56.2Y-74.684
X56.8Y-73.0
X60.6Y-79.084
X68.5Y-80.5
X127.9Y-36.5
X134.4Y-26.0
X178.0Y-67.1
X180.8Y-50.3
X183.6Y-32.2
X192.4Y-42.8
X192.99Y-65.31
X195.199Y-34.099
X195.199Y-42.519
X203.4Y-50.7
T3
X80.871Y-16.799
X83.372Y-17.24
X83.514Y-1.81
X85.874Y-17.681
X86.015Y-2.251
X88.375Y-18.122
X88.516Y-2.692
X90.876Y-18.563
X91.018Y-3.133
X93.378Y-19.004
X93.519Y-3.574
X95.879Y-19.445
X96.021Y-4.015
X98.381Y-19.886
X98.522Y-4.457
X100.882Y-20.327
X101.024Y-4.898
X103.383Y-20.769
X103.525Y-5.339
X105.885Y-21.21
X106.026Y-5.78
X108.386Y-21.651
X108.528Y-6.221
X111.029Y-6.662
T4
X121.799Y-10.936
X128.201Y-12.064
T5
X-23.373Y-58.738
X-20.053Y-39.948
X-16.723Y-21.218
X-13.367Y-60.502
X-10.047Y-41.712
X-6.717Y-22.982
X-3.973Y-58.578
X-0.693Y-39.828
X2.667Y-21.108
X6.033Y-60.342
X9.313Y-41.592
X12.673Y-22.872
X15.367Y-58.468
X18.707Y-39.668
X22.017Y-20.948
X25.373Y-60.232
X28.713Y-41.432
X29.45Y-80.57
X32.023Y-22.712
X34.752Y-58.316
X38.067Y-39.558
X39.61Y-80.57
X41.387Y-20.808
X44.757Y-60.081
X48.073Y-41.322
X51.393Y-22.572
X52.907Y-65.068
X54.395Y-90.4
X56.217Y-46.338
X59.537Y-27.598
X62.913Y-66.832
X64.209Y-93.03
X66.223Y-48.102
X69.543Y-29.362
X71.057Y-71.828
X74.367Y-53.058
X77.707Y-34.308
X81.063Y-73.592
X84.373Y-54.822
X87.713Y-36.072
X89.64Y-95.0
X99.8Y-95.0
X101.767Y-36.072
X105.037Y-54.802
X108.387Y-73.572
X111.773Y-34.308
X115.043Y-53.038
X118.393Y-71.808
X119.917Y-29.292
X123.207Y-48.062
X125.123Y-93.025
X126.517Y-66.812
X129.923Y-27.528
X133.213Y-46.298
X134.937Y-90.395
X136.523Y-65.048
X138.047Y-22.552
X141.337Y-41.292
X144.667Y-60.092
X148.053Y-20.788
X149.69Y-80.55
X151.343Y-39.528
X154.673Y-58.328
X157.437Y-22.692
X159.85Y-80.55
X160.767Y-41.432
X164.057Y-60.202
X167.443Y-20.928
X170.773Y-39.668
X174.063Y-58.438
X176.807Y-22.822
X180.097Y-41.592
X183.407Y-60.362
X186.813Y-21.058
X190.103Y-39.828
X193.413Y-58.598
X196.147Y-22.982
X199.487Y-41.712
X202.777Y-60.502
X206.153Y-21.218
X209.493Y-39.948
X212.783Y-58.738
T6
X79.39Y-21.86
X90.63Y-23.86
X116.93Y-9.42
T7
X-21.681Y-56.457
X-18.361Y-37.667
X-15.031Y-18.937
X-14.986Y-55.058
X-11.666Y-36.268
X-8.336Y-17.538
X-2.281Y-56.297
X0.999Y-37.547
X4.359Y-18.827
X4.414Y-54.898
X7.694Y-36.148
X11.054Y-17.428
X17.059Y-56.187
X20.399Y-37.387
X23.709Y-18.667
X23.754Y-54.788
X27.094Y-35.988
X30.404Y-17.268
X30.72Y-78.03
X36.444Y-56.035
X37.07Y-75.49
X39.759Y-37.277
X43.079Y-18.527
X43.138Y-54.637
X46.454Y-35.878
X49.774Y-17.128
X54.599Y-62.787
X56.279Y-88.275
X57.909Y-44.057
X61.229Y-25.317
X61.294Y-61.388
X63.071Y-87.465
X64.604Y-42.658
X67.924Y-23.918
X72.749Y-69.547
X76.059Y-50.777
X79.399Y-32.027
X79.444Y-68.148
X82.754Y-49.378
X86.094Y-30.628
X90.91Y-92.46
X97.26Y-89.92
X102.577Y-33.35
X105.847Y-52.08
X108.389Y-29.746
X109.197Y-70.85
X111.659Y-48.476
X115.009Y-67.246
X120.727Y-26.57
X124.017Y-45.34
X125.692Y-90.243
X126.539Y-22.966
X127.327Y-64.09
X129.829Y-41.736
X131.169Y-86.146
X133.139Y-60.486
X138.857Y-19.83
X142.147Y-38.57
X144.669Y-16.226
X145.477Y-57.37
X147.959Y-34.966
X150.96Y-78.01
X151.289Y-53.766
X157.31Y-75.47
X158.247Y-19.97
X161.577Y-38.71
X164.059Y-16.366
X164.867Y-57.48
X167.389Y-35.106
X170.679Y-53.876
X177.617Y-20.1
X180.907Y-38.87
X183.429Y-16.496
X184.217Y-57.64
X186.719Y-35.266
X190.029Y-54.036
X196.957Y-20.26
X200.297Y-38.99
X202.769Y-16.656
X203.587Y-57.78
X206.109Y-35.386
X209.399Y-54.176
T8
X82.782Y-101.985
X106.658Y-101.985
T9
X-18.37Y-59.62
X-15.05Y-40.83
X-11.72Y-22.1
X1.03Y-59.46
X4.31Y-40.71
X7.67Y-21.99
X20.37Y-59.35
X23.71Y-40.55
X27.02Y-21.83
X34.53Y-80.57
X39.755Y-59.198
X43.07Y-40.44
X46.39Y-21.69
X57.91Y-65.95
X59.302Y-91.715
X61.22Y-47.22
X64.54Y-28.48
X76.06Y-72.71
X79.37Y-53.94
X82.71Y-35.19
X82.782Y-86.745
X94.72Y-95.0
X106.658Y-86.745
X106.77Y-35.19
X110.04Y-53.92
X113.39Y-72.69
X124.92Y-28.41
X128.21Y-47.18
X130.03Y-91.71
X131.52Y-65.93
X143.05Y-21.67
X146.34Y-40.41
X149.67Y-59.21
X154.77Y-80.55
X162.44Y-21.81
X165.77Y-40.55
X169.06Y-59.32
X181.81Y-21.94
X185.1Y-40.71
X188.41Y-59.48
X201.15Y-22.1
X204.49Y-40.83
X207.78Y-59.62
T10
X-9.87Y-65.24
X-2.99Y-27.59
X32.4Y-46.1
X48.77Y-76.53
X72.62Y-37.48
X94.66Y-79.53
X116.84Y-37.48
X140.56Y-76.53
X157.05Y-46.09
X192.47Y-27.58
X199.32Y-65.24
T0
M30
