G04 #@! TF.GenerationSoftware,KiCad,Pcbnew,(5.1.9-0-10_14)*
G04 #@! TF.CreationDate,2021-06-24T09:39:22+09:00*
G04 #@! TF.ProjectId,reviung41,72657669-756e-4673-9431-2e6b69636164,1.4*
G04 #@! TF.SameCoordinates,PX2faf080PY2faf080*
G04 #@! TF.FileFunction,Profile,NP*
%FSLAX46Y46*%
G04 Gerber Fmt 4.6, Leading zero omitted, Abs format (unit mm)*
G04 Created by KiCad (PCBNEW (5.1.9-0-10_14)) date 2021-06-24 09:39:22*
%MOMM*%
%LPD*%
G01*
G04 APERTURE LIST*
G04 #@! TA.AperFunction,Profile*
%ADD10C,0.100000*%
G04 #@! TD*
G04 APERTURE END LIST*
D10*
X-19203056Y-8566830D02*
X-19338854Y-8569869D01*
X-19338854Y-8569869D02*
X-19473278Y-8578909D01*
X-19473278Y-8578909D02*
X-19606186Y-8593829D01*
X-19606186Y-8593829D02*
X-19737435Y-8614509D01*
X-19737435Y-8614509D02*
X-19866881Y-8640828D01*
X-19866881Y-8640828D02*
X-19994381Y-8672667D01*
X-19994381Y-8672667D02*
X-20119791Y-8709905D01*
X-20119791Y-8709905D02*
X-20242970Y-8752423D01*
X-20242970Y-8752423D02*
X-20363773Y-8800101D01*
X-20363773Y-8800101D02*
X-20482057Y-8852817D01*
X-20482057Y-8852817D02*
X-20597680Y-8910453D01*
X-20597680Y-8910453D02*
X-20710497Y-8972888D01*
X-20710497Y-8972888D02*
X-20820366Y-9040001D01*
X-20820366Y-9040001D02*
X-20927143Y-9111674D01*
X-20927143Y-9111674D02*
X-21030686Y-9187785D01*
X-21030686Y-9187785D02*
X-21130850Y-9268214D01*
X-21130850Y-9268214D02*
X-21227494Y-9352842D01*
X-21227494Y-9352842D02*
X-21320473Y-9441549D01*
X-21320473Y-9441549D02*
X-21409645Y-9534214D01*
X-21409645Y-9534214D02*
X-21494865Y-9630717D01*
X-21494865Y-9630717D02*
X-21575992Y-9730938D01*
X-21575992Y-9730938D02*
X-21652882Y-9834757D01*
X-21652882Y-9834757D02*
X-21725391Y-9942054D01*
X-21725391Y-9942054D02*
X-21793376Y-10052709D01*
X-21793376Y-10052709D02*
X-21856695Y-10166601D01*
X-21856695Y-10166601D02*
X-21915204Y-10283611D01*
X-21915204Y-10283611D02*
X-21968759Y-10403618D01*
X-21968759Y-10403618D02*
X-22017218Y-10526503D01*
X-22017218Y-10526503D02*
X-22060437Y-10652145D01*
X-22060437Y-10652145D02*
X-22098274Y-10780424D01*
X-22098274Y-10780424D02*
X-22130584Y-10911220D01*
X-22130584Y-10911220D02*
X-22157225Y-11044414D01*
X21566204Y-75484389D02*
X21696687Y-75516860D01*
X21696687Y-75516860D02*
X21819258Y-75565417D01*
X21819258Y-75565417D02*
X21932841Y-75628774D01*
X21932841Y-75628774D02*
X22036361Y-75705647D01*
X22036361Y-75705647D02*
X22128744Y-75794752D01*
X22128744Y-75794752D02*
X22208915Y-75894805D01*
X22208915Y-75894805D02*
X22275799Y-76004522D01*
X22275799Y-76004522D02*
X22328322Y-76122618D01*
X22328322Y-76122618D02*
X22365409Y-76247810D01*
X22365409Y-76247810D02*
X22385985Y-76378813D01*
X22385985Y-76378813D02*
X22390000Y-76468743D01*
X-1503643Y-71503476D02*
X-1385042Y-71482174D01*
X-1385042Y-71482174D02*
X-1265612Y-71468075D01*
X-1265612Y-71468075D02*
X-1145680Y-71461183D01*
X-1145680Y-71461183D02*
X-1025571Y-71461504D01*
X-1025571Y-71461504D02*
X-905613Y-71469041D01*
X-905613Y-71469041D02*
X-786131Y-71483800D01*
X-786131Y-71483800D02*
X-738545Y-71491728D01*
X211500450Y-11045975D02*
X211473862Y-10912719D01*
X211473862Y-10912719D02*
X211441600Y-10781860D01*
X211441600Y-10781860D02*
X211403807Y-10653518D01*
X211403807Y-10653518D02*
X211360627Y-10527812D01*
X211360627Y-10527812D02*
X211312202Y-10404864D01*
X211312202Y-10404864D02*
X211258675Y-10284793D01*
X211258675Y-10284793D02*
X211200191Y-10167721D01*
X211200191Y-10167721D02*
X211136893Y-10053766D01*
X211136893Y-10053766D02*
X211068923Y-9943049D01*
X211068923Y-9943049D02*
X210996425Y-9835692D01*
X210996425Y-9835692D02*
X210919543Y-9731813D01*
X210919543Y-9731813D02*
X210838420Y-9631533D01*
X210838420Y-9631533D02*
X210753199Y-9534972D01*
X210753199Y-9534972D02*
X210664024Y-9442251D01*
X210664024Y-9442251D02*
X210571037Y-9353490D01*
X210571037Y-9353490D02*
X210474382Y-9268809D01*
X210474382Y-9268809D02*
X210374203Y-9188329D01*
X210374203Y-9188329D02*
X210270643Y-9112169D01*
X210270643Y-9112169D02*
X210163844Y-9040450D01*
X210163844Y-9040450D02*
X210053951Y-8973293D01*
X210053951Y-8973293D02*
X209941107Y-8910817D01*
X209941107Y-8910817D02*
X209825455Y-8853142D01*
X209825455Y-8853142D02*
X209707139Y-8800390D01*
X209707139Y-8800390D02*
X209586301Y-8752680D01*
X209586301Y-8752680D02*
X209463085Y-8710133D01*
X209463085Y-8710133D02*
X209337635Y-8672868D01*
X209337635Y-8672868D02*
X209210093Y-8641006D01*
X209210093Y-8641006D02*
X209080604Y-8614668D01*
X209080604Y-8614668D02*
X208949309Y-8593973D01*
X208949309Y-8593973D02*
X208816354Y-8579042D01*
X208816354Y-8579042D02*
X208681881Y-8569996D01*
X208681881Y-8569996D02*
X208546033Y-8566954D01*
X166957833Y-91720000D02*
X166957833Y-76459590D01*
X44237706Y-99832241D02*
X44287172Y-99940204D01*
X44287172Y-99940204D02*
X44348386Y-100040520D01*
X44348386Y-100040520D02*
X44420443Y-100132378D01*
X44420443Y-100132378D02*
X44502439Y-100214969D01*
X44502439Y-100214969D02*
X44593469Y-100287481D01*
X44593469Y-100287481D02*
X44692630Y-100349103D01*
X44692630Y-100349103D02*
X44799017Y-100399026D01*
X44799017Y-100399026D02*
X44911727Y-100436439D01*
X79776764Y-921401D02*
X77037491Y-16460793D01*
X148537879Y-92720000D02*
X165957833Y-92720000D01*
X-738545Y-71491728D02*
X21566204Y-75484389D01*
X190879373Y-71501821D02*
X199296488Y-73287053D01*
X-22157225Y-11044414D02*
X-31966331Y-66513037D01*
X147605375Y-93358841D02*
X147653005Y-93254108D01*
X147653005Y-93254108D02*
X147711424Y-93156902D01*
X147711424Y-93156902D02*
X147779745Y-93067830D01*
X147779745Y-93067830D02*
X147857085Y-92987497D01*
X147857085Y-92987497D02*
X147942559Y-92916508D01*
X147942559Y-92916508D02*
X148035284Y-92855471D01*
X148035284Y-92855471D02*
X148134374Y-92804990D01*
X148134374Y-92804990D02*
X148238946Y-92765671D01*
X148238946Y-92765671D02*
X148348115Y-92738120D01*
X148348115Y-92738120D02*
X148460998Y-92722944D01*
X148460998Y-92722944D02*
X148537879Y-92720000D01*
X-10724116Y-73300537D02*
X-10605771Y-73317737D01*
X-10605771Y-73317737D02*
X-10486844Y-73327820D01*
X-10486844Y-73327820D02*
X-10367653Y-73330792D01*
X-10367653Y-73330792D02*
X-10248517Y-73326657D01*
X-10248517Y-73326657D02*
X-10129756Y-73315422D01*
X-10129756Y-73315422D02*
X-10011689Y-73297092D01*
X-10011689Y-73297092D02*
X-9964727Y-73287775D01*
X60603226Y-12334656D02*
X60546487Y-12223575D01*
X60546487Y-12223575D02*
X60477234Y-12121562D01*
X60477234Y-12121562D02*
X60396566Y-12029484D01*
X60396566Y-12029484D02*
X60305586Y-11948211D01*
X60305586Y-11948211D02*
X60205392Y-11878611D01*
X60205392Y-11878611D02*
X60097087Y-11821553D01*
X60097087Y-11821553D02*
X59981772Y-11777906D01*
X59981772Y-11777906D02*
X59860547Y-11748539D01*
X129286705Y-8566954D02*
X80935242Y-110192D01*
X145098354Y-99831900D02*
X147605375Y-93358841D01*
X-29532217Y-69990034D02*
X-10724116Y-73300537D01*
X218847815Y-69990145D02*
X218999193Y-69959512D01*
X218999193Y-69959512D02*
X219147242Y-69921664D01*
X219147242Y-69921664D02*
X219291808Y-69876820D01*
X219291808Y-69876820D02*
X219432739Y-69825198D01*
X219432739Y-69825198D02*
X219569881Y-69767016D01*
X219569881Y-69767016D02*
X219703082Y-69702492D01*
X219703082Y-69702492D02*
X219832188Y-69631846D01*
X219832188Y-69631846D02*
X219957047Y-69555296D01*
X219957047Y-69555296D02*
X220077506Y-69473060D01*
X220077506Y-69473060D02*
X220193411Y-69385356D01*
X220193411Y-69385356D02*
X220304610Y-69292403D01*
X220304610Y-69292403D02*
X220410950Y-69194419D01*
X220410950Y-69194419D02*
X220512278Y-69091623D01*
X220512278Y-69091623D02*
X220608440Y-68984233D01*
X220608440Y-68984233D02*
X220699284Y-68872467D01*
X220699284Y-68872467D02*
X220784658Y-68756545D01*
X220784658Y-68756545D02*
X220864407Y-68636684D01*
X220864407Y-68636684D02*
X220938379Y-68513103D01*
X220938379Y-68513103D02*
X221006421Y-68386020D01*
X221006421Y-68386020D02*
X221068380Y-68255653D01*
X221068380Y-68255653D02*
X221124103Y-68122222D01*
X221124103Y-68122222D02*
X221173437Y-67985944D01*
X221173437Y-67985944D02*
X221216230Y-67847038D01*
X221216230Y-67847038D02*
X221252328Y-67705723D01*
X221252328Y-67705723D02*
X221281578Y-67562216D01*
X221281578Y-67562216D02*
X221303827Y-67416737D01*
X221303827Y-67416737D02*
X221318922Y-67269503D01*
X221318922Y-67269503D02*
X221326711Y-67120733D01*
X221326711Y-67120733D02*
X221327040Y-66970646D01*
X221327040Y-66970646D02*
X221319757Y-66819459D01*
X221319757Y-66819459D02*
X221304708Y-66667392D01*
X221304708Y-66667392D02*
X221281741Y-66514663D01*
X221281741Y-66514663D02*
X211500450Y-11045975D01*
X199296488Y-73287053D02*
X199414570Y-73308417D01*
X199414570Y-73308417D02*
X199533486Y-73322641D01*
X199533486Y-73322641D02*
X199652913Y-73329717D01*
X199652913Y-73329717D02*
X199772527Y-73329641D01*
X199772527Y-73329641D02*
X199892008Y-73322407D01*
X199892008Y-73322407D02*
X200011032Y-73308010D01*
X200011032Y-73308010D02*
X200058442Y-73300244D01*
X166957833Y-76459590D02*
X166966811Y-76325375D01*
X166966811Y-76325375D02*
X166993030Y-76196121D01*
X166993030Y-76196121D02*
X167035412Y-76073112D01*
X167035412Y-76073112D02*
X167092881Y-75957636D01*
X167092881Y-75957636D02*
X167164362Y-75850976D01*
X167164362Y-75850976D02*
X167248777Y-75754417D01*
X167248777Y-75754417D02*
X167345052Y-75669246D01*
X167345052Y-75669246D02*
X167452109Y-75596747D01*
X167452109Y-75596747D02*
X167568872Y-75538207D01*
X167568872Y-75538207D02*
X167694266Y-75494909D01*
X167694266Y-75494909D02*
X167782125Y-75475147D01*
X-31966331Y-66513037D02*
X-31989382Y-66665823D01*
X-31989382Y-66665823D02*
X-32004507Y-66817949D01*
X-32004507Y-66817949D02*
X-32011859Y-66969197D01*
X-32011859Y-66969197D02*
X-32011591Y-67119347D01*
X-32011591Y-67119347D02*
X-32003857Y-67268182D01*
X-32003857Y-67268182D02*
X-31988810Y-67415481D01*
X-31988810Y-67415481D02*
X-31966603Y-67561027D01*
X-31966603Y-67561027D02*
X-31937388Y-67704601D01*
X-31937388Y-67704601D02*
X-31901320Y-67845983D01*
X-31901320Y-67845983D02*
X-31858551Y-67984956D01*
X-31858551Y-67984956D02*
X-31809234Y-68121301D01*
X-31809234Y-68121301D02*
X-31753522Y-68254798D01*
X-31753522Y-68254798D02*
X-31691569Y-68385230D01*
X-31691569Y-68385230D02*
X-31623528Y-68512377D01*
X-31623528Y-68512377D02*
X-31549551Y-68636020D01*
X-31549551Y-68636020D02*
X-31469792Y-68755942D01*
X-31469792Y-68755942D02*
X-31384404Y-68871923D01*
X-31384404Y-68871923D02*
X-31293540Y-68983745D01*
X-31293540Y-68983745D02*
X-31197354Y-69091189D01*
X-31197354Y-69091189D02*
X-31095997Y-69194036D01*
X-31095997Y-69194036D02*
X-30989624Y-69292067D01*
X-30989624Y-69292067D02*
X-30878388Y-69385064D01*
X-30878388Y-69385064D02*
X-30762441Y-69472808D01*
X-30762441Y-69472808D02*
X-30641937Y-69555080D01*
X-30641937Y-69555080D02*
X-30517029Y-69631662D01*
X-30517029Y-69631662D02*
X-30387870Y-69702335D01*
X-30387870Y-69702335D02*
X-30254613Y-69766880D01*
X-30254613Y-69766880D02*
X-30117411Y-69825079D01*
X-30117411Y-69825079D02*
X-29976417Y-69876712D01*
X-29976417Y-69876712D02*
X-29831785Y-69921562D01*
X-29831785Y-69921562D02*
X-29683667Y-69959408D01*
X-29683667Y-69959408D02*
X-29532217Y-69990034D01*
X119284731Y-107167762D02*
X144424486Y-100436715D01*
X40792187Y-92720000D02*
X40906975Y-92726581D01*
X40906975Y-92726581D02*
X41018646Y-92745924D01*
X41018646Y-92745924D02*
X41126317Y-92777424D01*
X41126317Y-92777424D02*
X41229105Y-92820476D01*
X41229105Y-92820476D02*
X41326128Y-92874476D01*
X41326128Y-92874476D02*
X41416503Y-92938820D01*
X41416503Y-92938820D02*
X41499346Y-93012904D01*
X41499346Y-93012904D02*
X41573776Y-93096123D01*
X41573776Y-93096123D02*
X41638909Y-93187873D01*
X41638909Y-93187873D02*
X41693862Y-93287550D01*
X41693862Y-93287550D02*
X41724407Y-93358107D01*
X62174798Y-14830257D02*
X62053719Y-14800810D01*
X62053719Y-14800810D02*
X61938549Y-14757116D01*
X61938549Y-14757116D02*
X61830386Y-14700042D01*
X61830386Y-14700042D02*
X61730325Y-14630455D01*
X61730325Y-14630455D02*
X61639465Y-14549221D01*
X61639465Y-14549221D02*
X61558903Y-14457207D01*
X61558903Y-14457207D02*
X61489736Y-14355280D01*
X61489736Y-14355280D02*
X61433061Y-14244307D01*
X-9964727Y-73287775D02*
X-1503643Y-71503476D01*
X44911727Y-100436439D02*
X70098069Y-107167762D01*
X41724407Y-93358107D02*
X44237706Y-99832241D01*
X61433061Y-14244307D02*
X60603226Y-12334656D01*
X41904428Y-8566954D02*
X-19203056Y-8566830D01*
X167782125Y-75475147D02*
X190112996Y-71489415D01*
X190112996Y-71489415D02*
X190232409Y-71471801D01*
X190232409Y-71471801D02*
X190352427Y-71461436D01*
X190352427Y-71461436D02*
X190472721Y-71458316D01*
X190472721Y-71458316D02*
X190592964Y-71462434D01*
X190592964Y-71462434D02*
X190712827Y-71473786D01*
X190712827Y-71473786D02*
X190831982Y-71492366D01*
X190831982Y-71492366D02*
X190879373Y-71501821D01*
X144424486Y-100436715D02*
X144537218Y-100399235D01*
X144537218Y-100399235D02*
X144643617Y-100349240D01*
X144643617Y-100349240D02*
X144742778Y-100287540D01*
X144742778Y-100287540D02*
X144833797Y-100214948D01*
X144833797Y-100214948D02*
X144915769Y-100132276D01*
X144915769Y-100132276D02*
X144987789Y-100040336D01*
X144987789Y-100040336D02*
X145048952Y-99939940D01*
X145048952Y-99939940D02*
X145098354Y-99831900D01*
X200058442Y-73300244D02*
X218847815Y-69990145D01*
X165957833Y-92720000D02*
X166060077Y-92714837D01*
X166060077Y-92714837D02*
X166159367Y-92699683D01*
X166159367Y-92699683D02*
X166301666Y-92659320D01*
X166301666Y-92659320D02*
X166434492Y-92599305D01*
X166434492Y-92599305D02*
X166556149Y-92521335D01*
X166556149Y-92521335D02*
X166664939Y-92427106D01*
X166664939Y-92427106D02*
X166759168Y-92318316D01*
X166759168Y-92318316D02*
X166837138Y-92196659D01*
X166837138Y-92196659D02*
X166897153Y-92063833D01*
X166897153Y-92063833D02*
X166937516Y-91921534D01*
X166937516Y-91921534D02*
X166952670Y-91822244D01*
X166952670Y-91822244D02*
X166957833Y-91720000D01*
X70098069Y-107167762D02*
X119284731Y-107167762D01*
X59860547Y-11748539D02*
X41904428Y-8566954D01*
X77037491Y-16460793D02*
X77014621Y-16560713D01*
X77014621Y-16560713D02*
X76982404Y-16655976D01*
X76982404Y-16655976D02*
X76917830Y-16789241D01*
X76917830Y-16789241D02*
X76835511Y-16909727D01*
X76835511Y-16909727D02*
X76737423Y-17016054D01*
X76737423Y-17016054D02*
X76625537Y-17106842D01*
X76625537Y-17106842D02*
X76501827Y-17180714D01*
X76501827Y-17180714D02*
X76368267Y-17236288D01*
X76368267Y-17236288D02*
X76226830Y-17272187D01*
X76226830Y-17272187D02*
X76079490Y-17287030D01*
X76079490Y-17287030D02*
X75978958Y-17284548D01*
X75978958Y-17284548D02*
X75877264Y-17271686D01*
X80935242Y-110192D02*
X80833650Y-97520D01*
X80833650Y-97520D02*
X80733232Y-95202D01*
X80733232Y-95202D02*
X80586081Y-110243D01*
X80586081Y-110243D02*
X80444846Y-146284D01*
X80444846Y-146284D02*
X80311494Y-201948D01*
X80311494Y-201948D02*
X80187990Y-275859D01*
X80187990Y-275859D02*
X80076299Y-366640D01*
X80076299Y-366640D02*
X79978387Y-472916D01*
X79978387Y-472916D02*
X79896219Y-593309D01*
X79896219Y-593309D02*
X79831762Y-726445D01*
X79831762Y-726445D02*
X79799599Y-821601D01*
X79799599Y-821601D02*
X79776764Y-921401D01*
X22390000Y-76468743D02*
X22390000Y-91720000D01*
X75877264Y-17271686D02*
X62174798Y-14830257D01*
X208546033Y-8566954D02*
X129286705Y-8566954D01*
X23390000Y-92720000D02*
X40792187Y-92720000D01*
X22390000Y-91720000D02*
X22395162Y-91822244D01*
X22395162Y-91822244D02*
X22410316Y-91921534D01*
X22410316Y-91921534D02*
X22450679Y-92063833D01*
X22450679Y-92063833D02*
X22510694Y-92196659D01*
X22510694Y-92196659D02*
X22588664Y-92318316D01*
X22588664Y-92318316D02*
X22682893Y-92427106D01*
X22682893Y-92427106D02*
X22791683Y-92521335D01*
X22791683Y-92521335D02*
X22913340Y-92599305D01*
X22913340Y-92599305D02*
X23046166Y-92659320D01*
X23046166Y-92659320D02*
X23188465Y-92699683D01*
X23188465Y-92699683D02*
X23287755Y-92714837D01*
X23287755Y-92714837D02*
X23390000Y-92720000D01*
M02*
