G04 #@! TF.GenerationSoftware,KiCad,Pcbnew,(5.1.9-0-10_14)*
G04 #@! TF.CreationDate,2021-06-24T09:39:22+09:00*
G04 #@! TF.ProjectId,reviung41,72657669-756e-4673-9431-2e6b69636164,1.4*
G04 #@! TF.SameCoordinates,PX2faf080PY2faf080*
G04 #@! TF.FileFunction,Soldermask,Bot*
G04 #@! TF.FilePolarity,Negative*
%FSLAX46Y46*%
G04 Gerber Fmt 4.6, Leading zero omitted, Abs format (unit mm)*
G04 Created by KiCad (PCBNEW (5.1.9-0-10_14)) date 2021-06-24 09:39:22*
%MOMM*%
%LPD*%
G01*
G04 APERTURE LIST*
%ADD10C,3.000000*%
%ADD11C,3.987800*%
%ADD12C,1.750000*%
%ADD13C,0.100000*%
%ADD14C,2.400000*%
%ADD15C,5.000000*%
%ADD16R,2.550000X2.500000*%
%ADD17R,1.500000X1.000000*%
%ADD18C,1.524000*%
%ADD19R,1.300000X0.950000*%
%ADD20C,3.048000*%
%ADD21C,2.000000*%
%ADD22C,0.600000*%
%ADD23C,0.900000*%
G04 APERTURE END LIST*
D10*
X49773544Y-17128243D03*
D11*
X46390000Y-21690000D03*
D10*
X43078949Y-18526989D03*
D12*
X41387177Y-20807867D03*
X51392823Y-22572133D03*
D13*
G36*
X38381013Y-18967899D02*
G01*
X38815133Y-16505880D01*
X41326393Y-16948683D01*
X40892273Y-19410702D01*
X38381013Y-18967899D01*
G37*
G36*
X51552690Y-18711237D02*
G01*
X51986810Y-16249218D01*
X54498070Y-16692021D01*
X54063950Y-19154040D01*
X51552690Y-18711237D01*
G37*
G36*
X87872690Y-32211237D02*
G01*
X88306810Y-29749218D01*
X90818070Y-30192021D01*
X90383950Y-32654040D01*
X87872690Y-32211237D01*
G37*
G36*
X74701013Y-32467899D02*
G01*
X75135133Y-30005880D01*
X77646393Y-30448683D01*
X77212273Y-32910702D01*
X74701013Y-32467899D01*
G37*
D12*
X87712823Y-36072133D03*
X77707177Y-34307867D03*
D10*
X79398949Y-32026989D03*
D11*
X82710000Y-35190000D03*
D10*
X86093544Y-30628243D03*
D14*
X79390000Y-21860000D03*
X90630000Y-23860000D03*
X116930000Y-9420000D03*
D15*
X72620000Y-37480000D03*
X116840000Y-37480000D03*
X192470000Y-27580000D03*
X199320000Y-65240000D03*
X157050000Y-46090000D03*
X140560000Y-76530000D03*
X94660000Y-79530000D03*
X48770000Y-76530000D03*
X32400000Y-46100000D03*
X-9870000Y-65240000D03*
X-2990000Y-27590000D03*
D16*
X160612000Y-75470000D03*
X147685000Y-78010000D03*
D12*
X159850000Y-80550000D03*
X149690000Y-80550000D03*
D10*
X150960000Y-78010000D03*
D11*
X154770000Y-80550000D03*
D10*
X157310000Y-75470000D03*
X133139279Y-60486110D03*
D11*
X131520000Y-65930000D03*
D10*
X127326816Y-64090188D03*
D12*
X126517177Y-66812133D03*
X136522823Y-65047867D03*
D13*
G36*
X123063001Y-66111297D02*
G01*
X122628881Y-63649278D01*
X125140141Y-63206475D01*
X125574261Y-65668494D01*
X123063001Y-66111297D01*
G37*
G36*
X135352544Y-61365135D02*
G01*
X134918424Y-58903116D01*
X137429684Y-58460313D01*
X137863804Y-60922332D01*
X135352544Y-61365135D01*
G37*
D10*
X30403544Y-17268243D03*
D11*
X27020000Y-21830000D03*
D10*
X23708949Y-18666989D03*
D12*
X22017177Y-20947867D03*
X32022823Y-22712133D03*
D13*
G36*
X19011013Y-19107899D02*
G01*
X19445133Y-16645880D01*
X21956393Y-17088683D01*
X21522273Y-19550702D01*
X19011013Y-19107899D01*
G37*
G36*
X32182690Y-18851237D02*
G01*
X32616810Y-16389218D01*
X35128070Y-16832021D01*
X34693950Y-19294040D01*
X32182690Y-18851237D01*
G37*
D17*
X137190000Y-28870000D03*
X137190000Y-32070000D03*
X132290000Y-28870000D03*
X132290000Y-32070000D03*
X175850000Y-27870000D03*
X175850000Y-31070000D03*
X170950000Y-27870000D03*
X170950000Y-31070000D03*
X198540000Y-45860000D03*
X198540000Y-49060000D03*
X193640000Y-45860000D03*
X193640000Y-49060000D03*
X163190000Y-65310000D03*
X163190000Y-68510000D03*
X158290000Y-65310000D03*
X158290000Y-68510000D03*
X118640000Y-85840000D03*
X118640000Y-89040000D03*
X113740000Y-85840000D03*
X113740000Y-89040000D03*
X75760000Y-85860000D03*
X75760000Y-89060000D03*
X70860000Y-85860000D03*
X70860000Y-89060000D03*
X31210000Y-65310000D03*
X31210000Y-68510000D03*
X26310000Y-65310000D03*
X26310000Y-68510000D03*
X-9180000Y-49070000D03*
X-9180000Y-45870000D03*
X-4280000Y-49070000D03*
X-4280000Y-45870000D03*
X18390000Y-27850000D03*
X18390000Y-31050000D03*
X13490000Y-27850000D03*
X13490000Y-31050000D03*
X57040000Y-28840000D03*
X57040000Y-32040000D03*
X52140000Y-28840000D03*
X52140000Y-32040000D03*
D10*
X186719279Y-35266110D03*
D11*
X185100000Y-40710000D03*
D10*
X180906816Y-38870188D03*
D12*
X180097177Y-41592133D03*
X190102823Y-39827867D03*
D13*
G36*
X176643001Y-40891297D02*
G01*
X176208881Y-38429278D01*
X178720141Y-37986475D01*
X179154261Y-40448494D01*
X176643001Y-40891297D01*
G37*
G36*
X188932544Y-36145135D02*
G01*
X188498424Y-33683116D01*
X191009684Y-33240313D01*
X191443804Y-35702332D01*
X188932544Y-36145135D01*
G37*
G36*
X208322544Y-36265135D02*
G01*
X207888424Y-33803116D01*
X210399684Y-33360313D01*
X210833804Y-35822332D01*
X208322544Y-36265135D01*
G37*
G36*
X196033001Y-41011297D02*
G01*
X195598881Y-38549278D01*
X198110141Y-38106475D01*
X198544261Y-40568494D01*
X196033001Y-41011297D01*
G37*
D12*
X209492823Y-39947867D03*
X199487177Y-41712133D03*
D10*
X200296816Y-38990188D03*
D11*
X204490000Y-40830000D03*
D10*
X206109279Y-35386110D03*
D18*
X80870734Y-16798930D03*
X83372146Y-17239996D03*
X85873557Y-17681063D03*
X88374969Y-18122129D03*
X90876381Y-18563195D03*
X93377792Y-19004262D03*
X95879204Y-19445328D03*
X98380616Y-19886395D03*
X100882027Y-20327461D03*
X103383439Y-20768527D03*
X105884851Y-21209594D03*
X108386262Y-21650660D03*
X111029188Y-6661886D03*
X108527776Y-6220820D03*
X106026364Y-5779753D03*
X103524953Y-5338687D03*
X101023541Y-4897621D03*
X98522129Y-4456554D03*
X96020718Y-4015488D03*
X93519306Y-3574421D03*
X91017894Y-3133355D03*
X88516482Y-2692289D03*
X86015071Y-2251222D03*
X83513659Y-1810156D03*
D10*
X131168651Y-86145696D03*
D11*
X130030000Y-91710000D03*
D10*
X125692422Y-90242649D03*
D12*
X125123097Y-93024801D03*
X134936903Y-90395199D03*
D13*
G36*
X121620983Y-92627683D02*
G01*
X120973936Y-90212868D01*
X123437047Y-89552879D01*
X124084094Y-91967694D01*
X121620983Y-92627683D01*
G37*
G36*
X133450106Y-86828478D02*
G01*
X132803059Y-84413663D01*
X135266170Y-83753674D01*
X135913217Y-86168489D01*
X133450106Y-86828478D01*
G37*
G36*
X64704921Y-89197413D02*
G01*
X65351968Y-86782598D01*
X67815079Y-87442587D01*
X67168032Y-89857402D01*
X64704921Y-89197413D01*
G37*
G36*
X51560998Y-88305110D02*
G01*
X52208045Y-85890295D01*
X54671156Y-86550284D01*
X54024109Y-88965099D01*
X51560998Y-88305110D01*
G37*
D12*
X64209164Y-93029683D03*
X54395358Y-90400081D03*
D10*
X56279484Y-88275330D03*
D11*
X59302261Y-91714882D03*
D10*
X63070513Y-87465379D03*
X37070000Y-75490000D03*
D11*
X34530000Y-80570000D03*
D10*
X30720000Y-78030000D03*
D12*
X29450000Y-80570000D03*
X39610000Y-80570000D03*
D16*
X27445000Y-78030000D03*
X40372000Y-75490000D03*
D13*
G36*
X211612544Y-55055135D02*
G01*
X211178424Y-52593116D01*
X213689684Y-52150313D01*
X214123804Y-54612332D01*
X211612544Y-55055135D01*
G37*
G36*
X199323001Y-59801297D02*
G01*
X198888881Y-57339278D01*
X201400141Y-56896475D01*
X201834261Y-59358494D01*
X199323001Y-59801297D01*
G37*
D12*
X212782823Y-58737867D03*
X202777177Y-60502133D03*
D10*
X203586816Y-57780188D03*
D11*
X207780000Y-59620000D03*
D10*
X209399279Y-54176110D03*
X190029279Y-54036110D03*
D11*
X188410000Y-59480000D03*
D10*
X184216816Y-57640188D03*
D12*
X183407177Y-60362133D03*
X193412823Y-58597867D03*
D13*
G36*
X179953001Y-59661297D02*
G01*
X179518881Y-57199278D01*
X182030141Y-56756475D01*
X182464261Y-59218494D01*
X179953001Y-59661297D01*
G37*
G36*
X192242544Y-54915135D02*
G01*
X191808424Y-52453116D01*
X194319684Y-52010313D01*
X194753804Y-54472332D01*
X192242544Y-54915135D01*
G37*
D10*
X170679279Y-53876110D03*
D11*
X169060000Y-59320000D03*
D10*
X164866816Y-57480188D03*
D12*
X164057177Y-60202133D03*
X174062823Y-58437867D03*
D13*
G36*
X160603001Y-59501297D02*
G01*
X160168881Y-57039278D01*
X162680141Y-56596475D01*
X163114261Y-59058494D01*
X160603001Y-59501297D01*
G37*
G36*
X172892544Y-54755135D02*
G01*
X172458424Y-52293116D01*
X174969684Y-51850313D01*
X175403804Y-54312332D01*
X172892544Y-54755135D01*
G37*
G36*
X153502544Y-54645135D02*
G01*
X153068424Y-52183116D01*
X155579684Y-51740313D01*
X156013804Y-54202332D01*
X153502544Y-54645135D01*
G37*
G36*
X141213001Y-59391297D02*
G01*
X140778881Y-56929278D01*
X143290141Y-56486475D01*
X143724261Y-58948494D01*
X141213001Y-59391297D01*
G37*
D12*
X154672823Y-58327867D03*
X144667177Y-60092133D03*
D10*
X145476816Y-57370188D03*
D11*
X149670000Y-59210000D03*
D10*
X151289279Y-53766110D03*
D13*
G36*
X117222544Y-68125135D02*
G01*
X116788424Y-65663116D01*
X119299684Y-65220313D01*
X119733804Y-67682332D01*
X117222544Y-68125135D01*
G37*
G36*
X104933001Y-72871297D02*
G01*
X104498881Y-70409278D01*
X107010141Y-69966475D01*
X107444261Y-72428494D01*
X104933001Y-72871297D01*
G37*
D12*
X118392823Y-71807867D03*
X108387177Y-73572133D03*
D10*
X109196816Y-70850188D03*
D11*
X113390000Y-72690000D03*
D10*
X115009279Y-67246110D03*
X167389279Y-35106110D03*
D11*
X165770000Y-40550000D03*
D10*
X161576816Y-38710188D03*
D12*
X160767177Y-41432133D03*
X170772823Y-39667867D03*
D13*
G36*
X157313001Y-40731297D02*
G01*
X156878881Y-38269278D01*
X159390141Y-37826475D01*
X159824261Y-40288494D01*
X157313001Y-40731297D01*
G37*
G36*
X169602544Y-35985135D02*
G01*
X169168424Y-33523116D01*
X171679684Y-33080313D01*
X172113804Y-35542332D01*
X169602544Y-35985135D01*
G37*
G36*
X150172544Y-35845135D02*
G01*
X149738424Y-33383116D01*
X152249684Y-32940313D01*
X152683804Y-35402332D01*
X150172544Y-35845135D01*
G37*
G36*
X137883001Y-40591297D02*
G01*
X137448881Y-38129278D01*
X139960141Y-37686475D01*
X140394261Y-40148494D01*
X137883001Y-40591297D01*
G37*
D12*
X151342823Y-39527867D03*
X141337177Y-41292133D03*
D10*
X142146816Y-38570188D03*
D11*
X146340000Y-40410000D03*
D10*
X147959279Y-34966110D03*
X129829279Y-41736110D03*
D11*
X128210000Y-47180000D03*
D10*
X124016816Y-45340188D03*
D12*
X123207177Y-48062133D03*
X133212823Y-46297867D03*
D13*
G36*
X119753001Y-47361297D02*
G01*
X119318881Y-44899278D01*
X121830141Y-44456475D01*
X122264261Y-46918494D01*
X119753001Y-47361297D01*
G37*
G36*
X132042544Y-42615135D02*
G01*
X131608424Y-40153116D01*
X134119684Y-39710313D01*
X134553804Y-42172332D01*
X132042544Y-42615135D01*
G37*
G36*
X113872544Y-49355135D02*
G01*
X113438424Y-46893116D01*
X115949684Y-46450313D01*
X116383804Y-48912332D01*
X113872544Y-49355135D01*
G37*
G36*
X101583001Y-54101297D02*
G01*
X101148881Y-51639278D01*
X103660141Y-51196475D01*
X104094261Y-53658494D01*
X101583001Y-54101297D01*
G37*
D12*
X115042823Y-53037867D03*
X105037177Y-54802133D03*
D10*
X105846816Y-52080188D03*
D11*
X110040000Y-53920000D03*
D10*
X111659279Y-48476110D03*
X202769279Y-16656110D03*
D11*
X201150000Y-22100000D03*
D10*
X196956816Y-20260188D03*
D12*
X196147177Y-22982133D03*
X206152823Y-21217867D03*
D13*
G36*
X192693001Y-22281297D02*
G01*
X192258881Y-19819278D01*
X194770141Y-19376475D01*
X195204261Y-21838494D01*
X192693001Y-22281297D01*
G37*
G36*
X204982544Y-17535135D02*
G01*
X204548424Y-15073116D01*
X207059684Y-14630313D01*
X207493804Y-17092332D01*
X204982544Y-17535135D01*
G37*
G36*
X185642544Y-17375135D02*
G01*
X185208424Y-14913116D01*
X187719684Y-14470313D01*
X188153804Y-16932332D01*
X185642544Y-17375135D01*
G37*
G36*
X173353001Y-22121297D02*
G01*
X172918881Y-19659278D01*
X175430141Y-19216475D01*
X175864261Y-21678494D01*
X173353001Y-22121297D01*
G37*
D12*
X186812823Y-21057867D03*
X176807177Y-22822133D03*
D10*
X177616816Y-20100188D03*
D11*
X181810000Y-21940000D03*
D10*
X183429279Y-16496110D03*
D13*
G36*
X166272544Y-17245135D02*
G01*
X165838424Y-14783116D01*
X168349684Y-14340313D01*
X168783804Y-16802332D01*
X166272544Y-17245135D01*
G37*
G36*
X153983001Y-21991297D02*
G01*
X153548881Y-19529278D01*
X156060141Y-19086475D01*
X156494261Y-21548494D01*
X153983001Y-21991297D01*
G37*
D12*
X167442823Y-20927867D03*
X157437177Y-22692133D03*
D10*
X158246816Y-19970188D03*
D11*
X162440000Y-21810000D03*
D10*
X164059279Y-16366110D03*
X144669279Y-16226110D03*
D11*
X143050000Y-21670000D03*
D10*
X138856816Y-19830188D03*
D12*
X138047177Y-22552133D03*
X148052823Y-20787867D03*
D13*
G36*
X134593001Y-21851297D02*
G01*
X134158881Y-19389278D01*
X136670141Y-18946475D01*
X137104261Y-21408494D01*
X134593001Y-21851297D01*
G37*
G36*
X146882544Y-17105135D02*
G01*
X146448424Y-14643116D01*
X148959684Y-14200313D01*
X149393804Y-16662332D01*
X146882544Y-17105135D01*
G37*
G36*
X128752544Y-23845135D02*
G01*
X128318424Y-21383116D01*
X130829684Y-20940313D01*
X131263804Y-23402332D01*
X128752544Y-23845135D01*
G37*
G36*
X116463001Y-28591297D02*
G01*
X116028881Y-26129278D01*
X118540141Y-25686475D01*
X118974261Y-28148494D01*
X116463001Y-28591297D01*
G37*
D12*
X129922823Y-27527867D03*
X119917177Y-29292133D03*
D10*
X120726816Y-26570188D03*
D11*
X124920000Y-28410000D03*
D10*
X126539279Y-22966110D03*
X108389279Y-29746110D03*
D11*
X106770000Y-35190000D03*
D10*
X102576816Y-33350188D03*
D12*
X101767177Y-36072133D03*
X111772823Y-34307867D03*
D13*
G36*
X98313001Y-35371297D02*
G01*
X97878881Y-32909278D01*
X100390141Y-32466475D01*
X100824261Y-34928494D01*
X98313001Y-35371297D01*
G37*
G36*
X110602544Y-30625135D02*
G01*
X110168424Y-28163116D01*
X112679684Y-27720313D01*
X113113804Y-30182332D01*
X110602544Y-30625135D01*
G37*
D10*
X79443544Y-68148243D03*
D11*
X76060000Y-72710000D03*
D10*
X72748949Y-69546989D03*
D12*
X71057177Y-71827867D03*
X81062823Y-73592133D03*
D13*
G36*
X68051013Y-69987899D02*
G01*
X68485133Y-67525880D01*
X70996393Y-67968683D01*
X70562273Y-70430702D01*
X68051013Y-69987899D01*
G37*
G36*
X81222690Y-69731237D02*
G01*
X81656810Y-67269218D01*
X84168070Y-67712021D01*
X83733950Y-70174040D01*
X81222690Y-69731237D01*
G37*
G36*
X63072690Y-62971237D02*
G01*
X63506810Y-60509218D01*
X66018070Y-60952021D01*
X65583950Y-63414040D01*
X63072690Y-62971237D01*
G37*
G36*
X49901013Y-63227899D02*
G01*
X50335133Y-60765880D01*
X52846393Y-61208683D01*
X52412273Y-63670702D01*
X49901013Y-63227899D01*
G37*
D12*
X62912823Y-66832133D03*
X52907177Y-65067867D03*
D10*
X54598949Y-62786989D03*
D11*
X57910000Y-65950000D03*
D10*
X61293544Y-61388243D03*
D13*
G36*
X44917310Y-56219608D02*
G01*
X45351430Y-53757589D01*
X47862690Y-54200392D01*
X47428570Y-56662411D01*
X44917310Y-56219608D01*
G37*
G36*
X31745633Y-56476270D02*
G01*
X32179753Y-54014251D01*
X34691013Y-54457054D01*
X34256893Y-56919073D01*
X31745633Y-56476270D01*
G37*
D12*
X44757443Y-60080504D03*
X34751797Y-58316238D03*
D10*
X36443569Y-56035360D03*
D11*
X39754620Y-59198371D03*
D10*
X43138164Y-54636614D03*
D13*
G36*
X25532690Y-56371237D02*
G01*
X25966810Y-53909218D01*
X28478070Y-54352021D01*
X28043950Y-56814040D01*
X25532690Y-56371237D01*
G37*
G36*
X12361013Y-56627899D02*
G01*
X12795133Y-54165880D01*
X15306393Y-54608683D01*
X14872273Y-57070702D01*
X12361013Y-56627899D01*
G37*
D12*
X25372823Y-60232133D03*
X15367177Y-58467867D03*
D10*
X17058949Y-56186989D03*
D11*
X20370000Y-59350000D03*
D10*
X23753544Y-54788243D03*
D13*
G36*
X6192690Y-56481237D02*
G01*
X6626810Y-54019218D01*
X9138070Y-54462021D01*
X8703950Y-56924040D01*
X6192690Y-56481237D01*
G37*
G36*
X-6978987Y-56737899D02*
G01*
X-6544867Y-54275880D01*
X-4033607Y-54718683D01*
X-4467727Y-57180702D01*
X-6978987Y-56737899D01*
G37*
D12*
X6032823Y-60342133D03*
X-3972823Y-58577867D03*
D10*
X-2281051Y-56296989D03*
D11*
X1030000Y-59460000D03*
D10*
X4413544Y-54898243D03*
X-14986456Y-55058243D03*
D11*
X-18370000Y-59620000D03*
D10*
X-21681051Y-56456989D03*
D12*
X-23372823Y-58737867D03*
X-13367177Y-60502133D03*
D13*
G36*
X-26378987Y-56897899D02*
G01*
X-25944867Y-54435880D01*
X-23433607Y-54878683D01*
X-23867727Y-57340702D01*
X-26378987Y-56897899D01*
G37*
G36*
X-13207310Y-56641237D02*
G01*
X-12773190Y-54179218D01*
X-10261930Y-54622021D01*
X-10696050Y-57084040D01*
X-13207310Y-56641237D01*
G37*
D10*
X82753544Y-49378243D03*
D11*
X79370000Y-53940000D03*
D10*
X76058949Y-50776989D03*
D12*
X74367177Y-53057867D03*
X84372823Y-54822133D03*
D13*
G36*
X71361013Y-51217899D02*
G01*
X71795133Y-48755880D01*
X74306393Y-49198683D01*
X73872273Y-51660702D01*
X71361013Y-51217899D01*
G37*
G36*
X84532690Y-50961237D02*
G01*
X84966810Y-48499218D01*
X87478070Y-48942021D01*
X87043950Y-51404040D01*
X84532690Y-50961237D01*
G37*
D10*
X64603544Y-42658243D03*
D11*
X61220000Y-47220000D03*
D10*
X57908949Y-44056989D03*
D12*
X56217177Y-46337867D03*
X66222823Y-48102133D03*
D13*
G36*
X53211013Y-44497899D02*
G01*
X53645133Y-42035880D01*
X56156393Y-42478683D01*
X55722273Y-44940702D01*
X53211013Y-44497899D01*
G37*
G36*
X66382690Y-44241237D02*
G01*
X66816810Y-41779218D01*
X69328070Y-42222021D01*
X68893950Y-44684040D01*
X66382690Y-44241237D01*
G37*
D10*
X46453544Y-35878243D03*
D11*
X43070000Y-40440000D03*
D10*
X39758949Y-37276989D03*
D12*
X38067177Y-39557867D03*
X48072823Y-41322133D03*
D13*
G36*
X35061013Y-37717899D02*
G01*
X35495133Y-35255880D01*
X38006393Y-35698683D01*
X37572273Y-38160702D01*
X35061013Y-37717899D01*
G37*
G36*
X48232690Y-37461237D02*
G01*
X48666810Y-34999218D01*
X51178070Y-35442021D01*
X50743950Y-37904040D01*
X48232690Y-37461237D01*
G37*
G36*
X28872690Y-37571237D02*
G01*
X29306810Y-35109218D01*
X31818070Y-35552021D01*
X31383950Y-38014040D01*
X28872690Y-37571237D01*
G37*
G36*
X15701013Y-37827899D02*
G01*
X16135133Y-35365880D01*
X18646393Y-35808683D01*
X18212273Y-38270702D01*
X15701013Y-37827899D01*
G37*
D12*
X28712823Y-41432133D03*
X18707177Y-39667867D03*
D10*
X20398949Y-37386989D03*
D11*
X23710000Y-40550000D03*
D10*
X27093544Y-35988243D03*
D13*
G36*
X9472690Y-37731237D02*
G01*
X9906810Y-35269218D01*
X12418070Y-35712021D01*
X11983950Y-38174040D01*
X9472690Y-37731237D01*
G37*
G36*
X-3698987Y-37987899D02*
G01*
X-3264867Y-35525880D01*
X-753607Y-35968683D01*
X-1187727Y-38430702D01*
X-3698987Y-37987899D01*
G37*
D12*
X9312823Y-41592133D03*
X-692823Y-39827867D03*
D10*
X998949Y-37546989D03*
D11*
X4310000Y-40710000D03*
D10*
X7693544Y-36148243D03*
D13*
G36*
X-9887310Y-37851237D02*
G01*
X-9453190Y-35389218D01*
X-6941930Y-35832021D01*
X-7376050Y-38294040D01*
X-9887310Y-37851237D01*
G37*
G36*
X-23058987Y-38107899D02*
G01*
X-22624867Y-35645880D01*
X-20113607Y-36088683D01*
X-20547727Y-38550702D01*
X-23058987Y-38107899D01*
G37*
D12*
X-10047177Y-41712133D03*
X-20052823Y-39947867D03*
D10*
X-18361051Y-37666989D03*
D11*
X-15050000Y-40830000D03*
D10*
X-11666456Y-36268243D03*
X67923544Y-23918243D03*
D11*
X64540000Y-28480000D03*
D10*
X61228949Y-25316989D03*
D12*
X59537177Y-27597867D03*
X69542823Y-29362133D03*
D13*
G36*
X56531013Y-25757899D02*
G01*
X56965133Y-23295880D01*
X59476393Y-23738683D01*
X59042273Y-26200702D01*
X56531013Y-25757899D01*
G37*
G36*
X69702690Y-25501237D02*
G01*
X70136810Y-23039218D01*
X72648070Y-23482021D01*
X72213950Y-25944040D01*
X69702690Y-25501237D01*
G37*
G36*
X12832690Y-19011237D02*
G01*
X13266810Y-16549218D01*
X15778070Y-16992021D01*
X15343950Y-19454040D01*
X12832690Y-19011237D01*
G37*
G36*
X-338987Y-19267899D02*
G01*
X95133Y-16805880D01*
X2606393Y-17248683D01*
X2172273Y-19710702D01*
X-338987Y-19267899D01*
G37*
D12*
X12672823Y-22872133D03*
X2667177Y-21107867D03*
D10*
X4358949Y-18826989D03*
D11*
X7670000Y-21990000D03*
D10*
X11053544Y-17428243D03*
D13*
G36*
X-6557310Y-19121237D02*
G01*
X-6123190Y-16659218D01*
X-3611930Y-17102021D01*
X-4046050Y-19564040D01*
X-6557310Y-19121237D01*
G37*
G36*
X-19728987Y-19377899D02*
G01*
X-19294867Y-16915880D01*
X-16783607Y-17358683D01*
X-17217727Y-19820702D01*
X-19728987Y-19377899D01*
G37*
D12*
X-6717177Y-22982133D03*
X-16722823Y-21217867D03*
D10*
X-15031051Y-18936989D03*
D11*
X-11720000Y-22100000D03*
D10*
X-8336456Y-17538243D03*
D13*
G36*
X-14970642Y-26476686D02*
G01*
X-14805676Y-25541119D01*
X-13525426Y-25766862D01*
X-13690392Y-26702429D01*
X-14970642Y-26476686D01*
G37*
G36*
X-11474574Y-27093138D02*
G01*
X-11309608Y-26157571D01*
X-10029358Y-26383314D01*
X-10194324Y-27318881D01*
X-11474574Y-27093138D01*
G37*
G36*
X4449358Y-26366686D02*
G01*
X4614324Y-25431119D01*
X5894574Y-25656862D01*
X5729608Y-26592429D01*
X4449358Y-26366686D01*
G37*
G36*
X7945426Y-26983138D02*
G01*
X8110392Y-26047571D01*
X9390642Y-26273314D01*
X9225676Y-27208881D01*
X7945426Y-26983138D01*
G37*
G36*
X23769358Y-26176686D02*
G01*
X23934324Y-25241119D01*
X25214574Y-25466862D01*
X25049608Y-26402429D01*
X23769358Y-26176686D01*
G37*
G36*
X27265426Y-26793138D02*
G01*
X27430392Y-25857571D01*
X28710642Y-26083314D01*
X28545676Y-27018881D01*
X27265426Y-26793138D01*
G37*
G36*
X43179358Y-26076686D02*
G01*
X43344324Y-25141119D01*
X44624574Y-25366862D01*
X44459608Y-26302429D01*
X43179358Y-26076686D01*
G37*
G36*
X46675426Y-26693138D02*
G01*
X46840392Y-25757571D01*
X48120642Y-25983314D01*
X47955676Y-26918881D01*
X46675426Y-26693138D01*
G37*
G36*
X61329358Y-32866686D02*
G01*
X61494324Y-31931119D01*
X62774574Y-32156862D01*
X62609608Y-33092429D01*
X61329358Y-32866686D01*
G37*
G36*
X64825426Y-33483138D02*
G01*
X64990392Y-32547571D01*
X66270642Y-32773314D01*
X66105676Y-33708881D01*
X64825426Y-33483138D01*
G37*
G36*
X82965426Y-40183138D02*
G01*
X83130392Y-39247571D01*
X84410642Y-39473314D01*
X84245676Y-40408881D01*
X82965426Y-40183138D01*
G37*
G36*
X79469358Y-39566686D02*
G01*
X79634324Y-38631119D01*
X80914574Y-38856862D01*
X80749608Y-39792429D01*
X79469358Y-39566686D01*
G37*
G36*
X-14654574Y-45853138D02*
G01*
X-14489608Y-44917571D01*
X-13209358Y-45143314D01*
X-13374324Y-46078881D01*
X-14654574Y-45853138D01*
G37*
G36*
X-18150642Y-45236686D02*
G01*
X-17985676Y-44301119D01*
X-16705426Y-44526862D01*
X-16870392Y-45462429D01*
X-18150642Y-45236686D01*
G37*
G36*
X4575426Y-45703138D02*
G01*
X4740392Y-44767571D01*
X6020642Y-44993314D01*
X5855676Y-45928881D01*
X4575426Y-45703138D01*
G37*
G36*
X1079358Y-45086686D02*
G01*
X1244324Y-44151119D01*
X2524574Y-44376862D01*
X2359608Y-45312429D01*
X1079358Y-45086686D01*
G37*
G36*
X20539358Y-44936686D02*
G01*
X20704324Y-44001119D01*
X21984574Y-44226862D01*
X21819608Y-45162429D01*
X20539358Y-44936686D01*
G37*
G36*
X24035426Y-45553138D02*
G01*
X24200392Y-44617571D01*
X25480642Y-44843314D01*
X25315676Y-45778881D01*
X24035426Y-45553138D01*
G37*
G36*
X39799358Y-44816686D02*
G01*
X39964324Y-43881119D01*
X41244574Y-44106862D01*
X41079608Y-45042429D01*
X39799358Y-44816686D01*
G37*
G36*
X43295426Y-45433138D02*
G01*
X43460392Y-44497571D01*
X44740642Y-44723314D01*
X44575676Y-45658881D01*
X43295426Y-45433138D01*
G37*
G36*
X57979358Y-51596686D02*
G01*
X58144324Y-50661119D01*
X59424574Y-50886862D01*
X59259608Y-51822429D01*
X57979358Y-51596686D01*
G37*
G36*
X61475426Y-52213138D02*
G01*
X61640392Y-51277571D01*
X62920642Y-51503314D01*
X62755676Y-52438881D01*
X61475426Y-52213138D01*
G37*
G36*
X79555426Y-58913138D02*
G01*
X79720392Y-57977571D01*
X81000642Y-58203314D01*
X80835676Y-59138881D01*
X79555426Y-58913138D01*
G37*
G36*
X76059358Y-58296686D02*
G01*
X76224324Y-57361119D01*
X77504574Y-57586862D01*
X77339608Y-58522429D01*
X76059358Y-58296686D01*
G37*
G36*
X-18194574Y-64603138D02*
G01*
X-18029608Y-63667571D01*
X-16749358Y-63893314D01*
X-16914324Y-64828881D01*
X-18194574Y-64603138D01*
G37*
G36*
X-21690642Y-63986686D02*
G01*
X-21525676Y-63051119D01*
X-20245426Y-63276862D01*
X-20410392Y-64212429D01*
X-21690642Y-63986686D01*
G37*
G36*
X1165426Y-64433138D02*
G01*
X1330392Y-63497571D01*
X2610642Y-63723314D01*
X2445676Y-64658881D01*
X1165426Y-64433138D01*
G37*
G36*
X-2330642Y-63816686D02*
G01*
X-2165676Y-62881119D01*
X-885426Y-63106862D01*
X-1050392Y-64042429D01*
X-2330642Y-63816686D01*
G37*
G36*
X17239358Y-63746686D02*
G01*
X17404324Y-62811119D01*
X18684574Y-63036862D01*
X18519608Y-63972429D01*
X17239358Y-63746686D01*
G37*
G36*
X20735426Y-64363138D02*
G01*
X20900392Y-63427571D01*
X22180642Y-63653314D01*
X22015676Y-64588881D01*
X20735426Y-64363138D01*
G37*
G36*
X36489358Y-63576686D02*
G01*
X36654324Y-62641119D01*
X37934574Y-62866862D01*
X37769608Y-63802429D01*
X36489358Y-63576686D01*
G37*
G36*
X39985426Y-64193138D02*
G01*
X40150392Y-63257571D01*
X41430642Y-63483314D01*
X41265676Y-64418881D01*
X39985426Y-64193138D01*
G37*
G36*
X58245426Y-70963138D02*
G01*
X58410392Y-70027571D01*
X59690642Y-70253314D01*
X59525676Y-71188881D01*
X58245426Y-70963138D01*
G37*
G36*
X54749358Y-70346686D02*
G01*
X54914324Y-69411119D01*
X56194574Y-69636862D01*
X56029608Y-70572429D01*
X54749358Y-70346686D01*
G37*
G36*
X76355426Y-77703138D02*
G01*
X76520392Y-76767571D01*
X77800642Y-76993314D01*
X77635676Y-77928881D01*
X76355426Y-77703138D01*
G37*
G36*
X72859358Y-77086686D02*
G01*
X73024324Y-76151119D01*
X74304574Y-76376862D01*
X74139608Y-77312429D01*
X72859358Y-77086686D01*
G37*
G36*
X108720392Y-39802429D02*
G01*
X108555426Y-38866862D01*
X109835676Y-38641119D01*
X110000642Y-39576686D01*
X108720392Y-39802429D01*
G37*
G36*
X105224324Y-40418881D02*
G01*
X105059358Y-39483314D01*
X106339608Y-39257571D01*
X106504574Y-40193138D01*
X105224324Y-40418881D01*
G37*
G36*
X126970392Y-32982429D02*
G01*
X126805426Y-32046862D01*
X128085676Y-31821119D01*
X128250642Y-32756686D01*
X126970392Y-32982429D01*
G37*
G36*
X123474324Y-33598881D02*
G01*
X123309358Y-32663314D01*
X124589608Y-32437571D01*
X124754574Y-33373138D01*
X123474324Y-33598881D01*
G37*
G36*
X141494324Y-26898881D02*
G01*
X141329358Y-25963314D01*
X142609608Y-25737571D01*
X142774574Y-26673138D01*
X141494324Y-26898881D01*
G37*
G36*
X144990392Y-26282429D02*
G01*
X144825426Y-25346862D01*
X146105676Y-25121119D01*
X146270642Y-26056686D01*
X144990392Y-26282429D01*
G37*
G36*
X160974324Y-26998881D02*
G01*
X160809358Y-26063314D01*
X162089608Y-25837571D01*
X162254574Y-26773138D01*
X160974324Y-26998881D01*
G37*
G36*
X164470392Y-26382429D02*
G01*
X164305426Y-25446862D01*
X165585676Y-25221119D01*
X165750642Y-26156686D01*
X164470392Y-26382429D01*
G37*
G36*
X180324324Y-27198881D02*
G01*
X180159358Y-26263314D01*
X181439608Y-26037571D01*
X181604574Y-26973138D01*
X180324324Y-27198881D01*
G37*
G36*
X183820392Y-26582429D02*
G01*
X183655426Y-25646862D01*
X184935676Y-25421119D01*
X185100642Y-26356686D01*
X183820392Y-26582429D01*
G37*
G36*
X199734324Y-27298881D02*
G01*
X199569358Y-26363314D01*
X200849608Y-26137571D01*
X201014574Y-27073138D01*
X199734324Y-27298881D01*
G37*
G36*
X203230392Y-26682429D02*
G01*
X203065426Y-25746862D01*
X204345676Y-25521119D01*
X204510642Y-26456686D01*
X203230392Y-26682429D01*
G37*
G36*
X112100392Y-58482429D02*
G01*
X111935426Y-57546862D01*
X113215676Y-57321119D01*
X113380642Y-58256686D01*
X112100392Y-58482429D01*
G37*
G36*
X108604324Y-59098881D02*
G01*
X108439358Y-58163314D01*
X109719608Y-57937571D01*
X109884574Y-58873138D01*
X108604324Y-59098881D01*
G37*
G36*
X126694324Y-52408881D02*
G01*
X126529358Y-51473314D01*
X127809608Y-51247571D01*
X127974574Y-52183138D01*
X126694324Y-52408881D01*
G37*
G36*
X130190392Y-51792429D02*
G01*
X130025426Y-50856862D01*
X131305676Y-50631119D01*
X131470642Y-51566686D01*
X130190392Y-51792429D01*
G37*
G36*
X144914324Y-45618881D02*
G01*
X144749358Y-44683314D01*
X146029608Y-44457571D01*
X146194574Y-45393138D01*
X144914324Y-45618881D01*
G37*
G36*
X148410392Y-45002429D02*
G01*
X148245426Y-44066862D01*
X149525676Y-43841119D01*
X149690642Y-44776686D01*
X148410392Y-45002429D01*
G37*
G36*
X167780392Y-45132429D02*
G01*
X167615426Y-44196862D01*
X168895676Y-43971119D01*
X169060642Y-44906686D01*
X167780392Y-45132429D01*
G37*
G36*
X164284324Y-45748881D02*
G01*
X164119358Y-44813314D01*
X165399608Y-44587571D01*
X165564574Y-45523138D01*
X164284324Y-45748881D01*
G37*
G36*
X187160392Y-45302429D02*
G01*
X186995426Y-44366862D01*
X188275676Y-44141119D01*
X188440642Y-45076686D01*
X187160392Y-45302429D01*
G37*
G36*
X183664324Y-45918881D02*
G01*
X183499358Y-44983314D01*
X184779608Y-44757571D01*
X184944574Y-45693138D01*
X183664324Y-45918881D01*
G37*
G36*
X206540392Y-45432429D02*
G01*
X206375426Y-44496862D01*
X207655676Y-44271119D01*
X207820642Y-45206686D01*
X206540392Y-45432429D01*
G37*
G36*
X203044324Y-46048881D02*
G01*
X202879358Y-45113314D01*
X204159608Y-44887571D01*
X204324574Y-45823138D01*
X203044324Y-46048881D01*
G37*
G36*
X115480392Y-77262429D02*
G01*
X115315426Y-76326862D01*
X116595676Y-76101119D01*
X116760642Y-77036686D01*
X115480392Y-77262429D01*
G37*
G36*
X111984324Y-77878881D02*
G01*
X111819358Y-76943314D01*
X113099608Y-76717571D01*
X113264574Y-77653138D01*
X111984324Y-77878881D01*
G37*
G36*
X133630392Y-70512429D02*
G01*
X133465426Y-69576862D01*
X134745676Y-69351119D01*
X134910642Y-70286686D01*
X133630392Y-70512429D01*
G37*
G36*
X130134324Y-71128881D02*
G01*
X129969358Y-70193314D01*
X131249608Y-69967571D01*
X131414574Y-70903138D01*
X130134324Y-71128881D01*
G37*
G36*
X148224324Y-64368881D02*
G01*
X148059358Y-63433314D01*
X149339608Y-63207571D01*
X149504574Y-64143138D01*
X148224324Y-64368881D01*
G37*
G36*
X151720392Y-63752429D02*
G01*
X151555426Y-62816862D01*
X152835676Y-62591119D01*
X153000642Y-63526686D01*
X151720392Y-63752429D01*
G37*
G36*
X167634324Y-64528881D02*
G01*
X167469358Y-63593314D01*
X168749608Y-63367571D01*
X168914574Y-64303138D01*
X167634324Y-64528881D01*
G37*
G36*
X171130392Y-63912429D02*
G01*
X170965426Y-62976862D01*
X172245676Y-62751119D01*
X172410642Y-63686686D01*
X171130392Y-63912429D01*
G37*
G36*
X190510392Y-64052429D02*
G01*
X190345426Y-63116862D01*
X191625676Y-62891119D01*
X191790642Y-63826686D01*
X190510392Y-64052429D01*
G37*
G36*
X187014324Y-64668881D02*
G01*
X186849358Y-63733314D01*
X188129608Y-63507571D01*
X188294574Y-64443138D01*
X187014324Y-64668881D01*
G37*
G36*
X209920392Y-64212429D02*
G01*
X209755426Y-63276862D01*
X211035676Y-63051119D01*
X211200642Y-63986686D01*
X209920392Y-64212429D01*
G37*
G36*
X206424324Y-64828881D02*
G01*
X206259358Y-63893314D01*
X207539608Y-63667571D01*
X207704574Y-64603138D01*
X206424324Y-64828881D01*
G37*
D19*
X36385000Y-84940000D03*
X32835000Y-84940000D03*
D13*
G36*
X59103727Y-96689986D02*
G01*
X59349605Y-95772357D01*
X60605309Y-96108822D01*
X60359431Y-97026451D01*
X59103727Y-96689986D01*
G37*
G36*
X55674691Y-95771178D02*
G01*
X55920569Y-94853549D01*
X57176273Y-95190014D01*
X56930395Y-96107643D01*
X55674691Y-95771178D01*
G37*
D19*
X96505000Y-99390000D03*
X92955000Y-99390000D03*
D13*
G36*
X129170569Y-96946451D02*
G01*
X128924691Y-96028822D01*
X130180395Y-95692357D01*
X130426273Y-96609986D01*
X129170569Y-96946451D01*
G37*
G36*
X132599605Y-96027643D02*
G01*
X132353727Y-95110014D01*
X133609431Y-94773549D01*
X133855309Y-95691178D01*
X132599605Y-96027643D01*
G37*
D19*
X153005000Y-84950000D03*
X156555000Y-84950000D03*
D11*
X82782000Y-86745000D03*
X106658000Y-86745000D03*
D20*
X82782000Y-101985000D03*
X106658000Y-101985000D03*
D16*
X100562000Y-89920000D03*
X87635000Y-92460000D03*
D12*
X99800000Y-95000000D03*
X89640000Y-95000000D03*
D10*
X90910000Y-92460000D03*
D11*
X94720000Y-95000000D03*
D10*
X97260000Y-89920000D03*
D21*
X121799375Y-10935643D03*
X128200625Y-12064357D03*
D22*
X46400000Y-28000000D03*
X46400000Y-32000000D03*
X71175380Y-27975380D03*
X69500000Y-33100000D03*
X129300000Y-30600000D03*
X132900000Y-24400000D03*
X95000000Y-38400000D03*
X95000000Y-55700000D03*
X95700000Y-37800000D03*
X95600001Y-57499999D03*
X96400000Y-37200000D03*
X25000000Y-81900000D03*
X26900000Y-72600000D03*
X96500000Y-44500000D03*
X41500000Y-79200000D03*
X41500000Y-84100000D03*
X100562000Y-92762000D03*
X101700000Y-96600000D03*
X72526089Y-31373911D03*
D23*
X-4280000Y-43180000D03*
X-4280000Y-34920000D03*
X-11300000Y-51800000D03*
X-3200000Y-66400000D03*
X68500000Y-80500000D03*
X56800000Y-73000000D03*
X192990000Y-65310000D03*
X195198871Y-34098871D03*
X195198871Y-42518871D03*
X203400000Y-50700000D03*
X134400000Y-26000000D03*
X9200000Y-48300000D03*
X13400000Y-34000000D03*
X-4000000Y-67700000D03*
X-9200000Y-59700000D03*
X56200000Y-74684002D03*
X60600000Y-79084002D03*
X178000000Y-67100000D03*
X180800000Y-50300000D03*
X192400000Y-42800000D03*
X183600000Y-32200000D03*
X127900000Y-36500000D03*
D22*
X-8100000Y-28400000D03*
X6000000Y-29100000D03*
X22700000Y-27200000D03*
X42400000Y-27200000D03*
X-14300000Y-66700000D03*
X8200000Y-65100000D03*
X16100000Y-64500000D03*
X33100000Y-75300000D03*
X49100000Y-83500000D03*
X31200000Y-82200000D03*
X34900000Y-64300000D03*
X53600000Y-36200000D03*
X64100000Y-21900000D03*
X85000000Y-22900000D03*
X108300000Y-44600000D03*
X115100000Y-79900000D03*
X110700000Y-83400000D03*
X151400000Y-27700000D03*
X141100000Y-15700000D03*
X-6700000Y-43400000D03*
X-800000Y-65000000D03*
X91500000Y-96400000D03*
X98700000Y-97700000D03*
X-19500000Y-10900000D03*
X-29400000Y-67300000D03*
X218700000Y-67300000D03*
X208900000Y-11100000D03*
X164200000Y-90100000D03*
X141700000Y-98500000D03*
X118500000Y-104700000D03*
X70100000Y-104700000D03*
X47700000Y-98400000D03*
X25000000Y-90100000D03*
X180700000Y-70500000D03*
X8700000Y-70500000D03*
X19300000Y-10800000D03*
X170100000Y-10800000D03*
X90400000Y-46200000D03*
X99000000Y-46200000D03*
X84500000Y-64500000D03*
X104800000Y-64500000D03*
X94700000Y-74700000D03*
X21900000Y-49900000D03*
X167400000Y-50000000D03*
X101500000Y-10000000D03*
X131400000Y-26100000D03*
X146200000Y-67300000D03*
X165800000Y-63700000D03*
X178800000Y-26700000D03*
X166700000Y-28500000D03*
X101250000Y-38650000D03*
X102621571Y-48178429D03*
X104500000Y-57300000D03*
X105971571Y-66928429D03*
X105971571Y-75928429D03*
X104100000Y-80900000D03*
X99351571Y-26848429D03*
X1133703Y-33618291D03*
X1133703Y-22166297D03*
X-2226297Y-40873703D03*
X-2226297Y-52573703D03*
X44500000Y-76552998D03*
X44500000Y-84800000D03*
X-5506297Y-59706297D03*
X500000Y-68800000D03*
X124101571Y-67898429D03*
X124101571Y-76298429D03*
X117501571Y-22698429D03*
X124101571Y-60198429D03*
X120800000Y-50500000D03*
X120791571Y-41308429D03*
X117500000Y-31300000D03*
X20483703Y-22083703D03*
X20483703Y-33583703D03*
X17173703Y-40926297D03*
X17173703Y-52278291D03*
X13833703Y-59633703D03*
X13833703Y-67333703D03*
X119700000Y-94100000D03*
X87500000Y-89500000D03*
X123100000Y-81700000D03*
X142300000Y-69200000D03*
X142300000Y-61600000D03*
X138921571Y-54608886D03*
X138921571Y-43378429D03*
X132600000Y-17400000D03*
X140100000Y-34600000D03*
X135600000Y-24400000D03*
X86900000Y-79500000D03*
X39853703Y-21946297D03*
X39853703Y-33546297D03*
X36533703Y-40833703D03*
X36533703Y-52166297D03*
X156500000Y-72034302D03*
X161641571Y-61541571D03*
X161641571Y-53558429D03*
X161641571Y-44045529D03*
X155021571Y-24778429D03*
X155086343Y-36013657D03*
X152073889Y-18026111D03*
X60100000Y-29899692D03*
X54700000Y-40100000D03*
X54683703Y-47983703D03*
X54683703Y-58783703D03*
X180991571Y-61791571D03*
X181000000Y-67100000D03*
X177681571Y-48418429D03*
X177681571Y-44118429D03*
X177346042Y-25100000D03*
X177681571Y-35118429D03*
X171000000Y-16100000D03*
X77700000Y-36300000D03*
X72850000Y-46550000D03*
X72833703Y-54533703D03*
X72833703Y-65666297D03*
X200361571Y-44325529D03*
X200361571Y-54038429D03*
X190200000Y-15500000D03*
X197071571Y-35028429D03*
X197050000Y-26850000D03*
X76215698Y-20215698D03*
X76173703Y-27126297D03*
X15420000Y-34020000D03*
X13200000Y-46700000D03*
X12110000Y-65310000D03*
X10600000Y-51400000D03*
X64400000Y-81300000D03*
X53650000Y-70950000D03*
X172890000Y-68510000D03*
X180700000Y-48300000D03*
X194096440Y-34596440D03*
X194096440Y-42903560D03*
X101300000Y-42200000D03*
M02*
