G04 #@! TF.GenerationSoftware,KiCad,Pcbnew,(5.1.9-0-10_14)*
G04 #@! TF.CreationDate,2021-12-01T15:45:57+09:00*
G04 #@! TF.ProjectId,slim_top_plate,736c696d-5f74-46f7-905f-706c6174652e,rev?*
G04 #@! TF.SameCoordinates,PX136f960PY1ca38b0*
G04 #@! TF.FileFunction,Profile,NP*
%FSLAX46Y46*%
G04 Gerber Fmt 4.6, Leading zero omitted, Abs format (unit mm)*
G04 Created by KiCad (PCBNEW (5.1.9-0-10_14)) date 2021-12-01 15:45:57*
%MOMM*%
%LPD*%
G01*
G04 APERTURE LIST*
G04 #@! TA.AperFunction,Profile*
%ADD10C,0.088000*%
G04 #@! TD*
G04 APERTURE END LIST*
D10*
X254337478Y-21687507D02*
X240337493Y-21687485D01*
X240337493Y-21687485D02*
X240337515Y-7687500D01*
X251956228Y-64550007D02*
X216524993Y-64549985D01*
X254309508Y-101569603D02*
X254304086Y-101676958D01*
X254304086Y-101676958D02*
X254288175Y-101781213D01*
X254288175Y-101781213D02*
X254262301Y-101881839D01*
X254262301Y-101881839D02*
X254226993Y-101978309D01*
X254226993Y-101978309D02*
X254182778Y-102070094D01*
X254182778Y-102070094D02*
X254130183Y-102156666D01*
X254130183Y-102156666D02*
X254069738Y-102237499D01*
X254069738Y-102237499D02*
X254001969Y-102312064D01*
X254001969Y-102312064D02*
X253927404Y-102379833D01*
X253927404Y-102379833D02*
X253846571Y-102440279D01*
X253846571Y-102440279D02*
X253759999Y-102492873D01*
X253759999Y-102492873D02*
X253668214Y-102537089D01*
X253668214Y-102537089D02*
X253571744Y-102572397D01*
X253571744Y-102572397D02*
X253471118Y-102598271D01*
X253471118Y-102598271D02*
X253366863Y-102614182D01*
X253366863Y-102614182D02*
X253259508Y-102619604D01*
X187662478Y-45500007D02*
X173662493Y-45499985D01*
X187662500Y-31500000D02*
X187662478Y-45500007D01*
X173662515Y-31500000D02*
X187662500Y-31500000D01*
X254337500Y-7687500D02*
X254337478Y-21687507D01*
X253259508Y-100519603D02*
X253366863Y-100525024D01*
X253366863Y-100525024D02*
X253471118Y-100540935D01*
X253471118Y-100540935D02*
X253571744Y-100566809D01*
X253571744Y-100566809D02*
X253668214Y-100602117D01*
X253668214Y-100602117D02*
X253759999Y-100646333D01*
X253759999Y-100646333D02*
X253846571Y-100698927D01*
X253846571Y-100698927D02*
X253927404Y-100759373D01*
X253927404Y-100759373D02*
X254001969Y-100827142D01*
X254001969Y-100827142D02*
X254069738Y-100901707D01*
X254069738Y-100901707D02*
X254130183Y-100982539D01*
X254130183Y-100982539D02*
X254182778Y-101069112D01*
X254182778Y-101069112D02*
X254226993Y-101160897D01*
X254226993Y-101160897D02*
X254262301Y-101257366D01*
X254262301Y-101257366D02*
X254288175Y-101357992D01*
X254288175Y-101357992D02*
X254304086Y-101462247D01*
X254304086Y-101462247D02*
X254309508Y-101569603D01*
X238946450Y-67957185D02*
X238956607Y-67856416D01*
X238956607Y-67856416D02*
X238985740Y-67762559D01*
X238985740Y-67762559D02*
X239031838Y-67677625D01*
X239031838Y-67677625D02*
X239092890Y-67603626D01*
X239092890Y-67603626D02*
X239166887Y-67542572D01*
X239166887Y-67542572D02*
X239251818Y-67496475D01*
X239251818Y-67496475D02*
X239345672Y-67467345D01*
X239345672Y-67467345D02*
X239446441Y-67457194D01*
X238946450Y-69599742D02*
X238946450Y-67957185D01*
X223675612Y-69599742D02*
X238946450Y-69599742D01*
X223675612Y-74293146D02*
X223675612Y-69599742D01*
X252209507Y-101569603D02*
X252214928Y-101462247D01*
X252214928Y-101462247D02*
X252230839Y-101357992D01*
X252230839Y-101357992D02*
X252256713Y-101257366D01*
X252256713Y-101257366D02*
X252292021Y-101160897D01*
X252292021Y-101160897D02*
X252336237Y-101069112D01*
X252336237Y-101069112D02*
X252388831Y-100982539D01*
X252388831Y-100982539D02*
X252449277Y-100901707D01*
X252449277Y-100901707D02*
X252517046Y-100827142D01*
X252517046Y-100827142D02*
X252591611Y-100759373D01*
X252591611Y-100759373D02*
X252672444Y-100698927D01*
X252672444Y-100698927D02*
X252759016Y-100646333D01*
X252759016Y-100646333D02*
X252850801Y-100602117D01*
X252850801Y-100602117D02*
X252947271Y-100566809D01*
X252947271Y-100566809D02*
X253047897Y-100540935D01*
X253047897Y-100540935D02*
X253152152Y-100525024D01*
X253152152Y-100525024D02*
X253259508Y-100519603D01*
X251956250Y-50550000D02*
X251956228Y-64550007D01*
X251033093Y-50550000D02*
X251956250Y-50550000D01*
X251033093Y-48910436D02*
X251033093Y-50550000D01*
X253259508Y-102619604D02*
X253152152Y-102614182D01*
X253152152Y-102614182D02*
X253047897Y-102598271D01*
X253047897Y-102598271D02*
X252947271Y-102572397D01*
X252947271Y-102572397D02*
X252850801Y-102537089D01*
X252850801Y-102537089D02*
X252759016Y-102492873D01*
X252759016Y-102492873D02*
X252672444Y-102440279D01*
X252672444Y-102440279D02*
X252591611Y-102379833D01*
X252591611Y-102379833D02*
X252517046Y-102312064D01*
X252517046Y-102312064D02*
X252449277Y-102237499D01*
X252449277Y-102237499D02*
X252388831Y-102156666D01*
X252388831Y-102156666D02*
X252336237Y-102070094D01*
X252336237Y-102070094D02*
X252292021Y-101978309D01*
X252292021Y-101978309D02*
X252256713Y-101881839D01*
X252256713Y-101881839D02*
X252230839Y-101781213D01*
X252230839Y-101781213D02*
X252214928Y-101676958D01*
X252214928Y-101676958D02*
X252209507Y-101569603D01*
X222410142Y-67957206D02*
X222410120Y-74293146D01*
X221910151Y-67457194D02*
X222010912Y-67467352D01*
X222010912Y-67467352D02*
X222104764Y-67496487D01*
X222104764Y-67496487D02*
X222189694Y-67542588D01*
X222189694Y-67542588D02*
X222263693Y-67603645D01*
X222263693Y-67603645D02*
X222324747Y-67677645D01*
X222324747Y-67677645D02*
X222370848Y-67762580D01*
X222370848Y-67762580D02*
X222399983Y-67856437D01*
X222399983Y-67856437D02*
X222410142Y-67957206D01*
X215585193Y-67457194D02*
X221910151Y-67457194D01*
X223381228Y-102650007D02*
X209381243Y-102649985D01*
X223675496Y-78884145D02*
X222392529Y-78884145D01*
X223675496Y-83599748D02*
X223675496Y-78884145D01*
X247193728Y-83599748D02*
X223675496Y-83599748D01*
X247193750Y-69600000D02*
X247193728Y-83599748D01*
X246271390Y-69600000D02*
X247193750Y-69600000D01*
X246271390Y-67957206D02*
X246271390Y-69600000D01*
X245771399Y-67457194D02*
X245872160Y-67467352D01*
X245872160Y-67467352D02*
X245966012Y-67496487D01*
X245966012Y-67496487D02*
X246050942Y-67542588D01*
X246050942Y-67542588D02*
X246124941Y-67603645D01*
X246124941Y-67603645D02*
X246185995Y-67677645D01*
X246185995Y-67677645D02*
X246232096Y-67762580D01*
X246232096Y-67762580D02*
X246261231Y-67856437D01*
X246261231Y-67856437D02*
X246271390Y-67957206D01*
X239446441Y-67457194D02*
X245771399Y-67457194D01*
X215085202Y-67957185D02*
X215095359Y-67856416D01*
X215095359Y-67856416D02*
X215124492Y-67762559D01*
X215124492Y-67762559D02*
X215170590Y-67677625D01*
X215170590Y-67677625D02*
X215231642Y-67603626D01*
X215231642Y-67603626D02*
X215305639Y-67542572D01*
X215305639Y-67542572D02*
X215390570Y-67496475D01*
X215390570Y-67496475D02*
X215484424Y-67467345D01*
X215484424Y-67467345D02*
X215585193Y-67457194D01*
X215085202Y-69600000D02*
X215085202Y-67957185D01*
X207000015Y-69600000D02*
X215085202Y-69600000D01*
X206999993Y-83599985D02*
X207000015Y-69600000D01*
X222410120Y-74293146D02*
X223675612Y-74293146D01*
X220999978Y-83600007D02*
X206999993Y-83599985D01*
X220999978Y-82722046D02*
X220999978Y-83600007D01*
X222142501Y-82722046D02*
X220999978Y-82722046D01*
X222392507Y-82472040D02*
X222372861Y-82569348D01*
X222372861Y-82569348D02*
X222319285Y-82648816D01*
X222319285Y-82648816D02*
X222239818Y-82702397D01*
X222239818Y-82702397D02*
X222142501Y-82722046D01*
X222392529Y-78884145D02*
X222392507Y-82472040D01*
X219829313Y-48910415D02*
X219839470Y-48809646D01*
X219839470Y-48809646D02*
X219868603Y-48715789D01*
X219868603Y-48715789D02*
X219914701Y-48630855D01*
X219914701Y-48630855D02*
X219975753Y-48556856D01*
X219975753Y-48556856D02*
X220049750Y-48495802D01*
X220049750Y-48495802D02*
X220134681Y-48449705D01*
X220134681Y-48449705D02*
X220228535Y-48420575D01*
X220228535Y-48420575D02*
X220329304Y-48410424D01*
X219829313Y-50550000D02*
X219829313Y-48910415D01*
X226654263Y-48410424D02*
X226755024Y-48420582D01*
X226755024Y-48420582D02*
X226848876Y-48449717D01*
X226848876Y-48449717D02*
X226933806Y-48495818D01*
X226933806Y-48495818D02*
X227007805Y-48556875D01*
X227007805Y-48556875D02*
X227068859Y-48630875D01*
X227068859Y-48630875D02*
X227114960Y-48715810D01*
X227114960Y-48715810D02*
X227144095Y-48809667D01*
X227144095Y-48809667D02*
X227154254Y-48910436D01*
X220329304Y-48410424D02*
X226654263Y-48410424D01*
X243708153Y-50550000D02*
X243708153Y-48910415D01*
X227154254Y-50550000D02*
X243708153Y-50550000D01*
X227154254Y-48910436D02*
X227154254Y-50550000D01*
X249575000Y-88650022D02*
X249574978Y-102650007D01*
X235575015Y-88650000D02*
X249575000Y-88650022D01*
X235574993Y-102649985D02*
X235575015Y-88650000D01*
X249574978Y-102650007D02*
X235574993Y-102649985D01*
X250533102Y-48410424D02*
X250633864Y-48420582D01*
X250633864Y-48420582D02*
X250727715Y-48449717D01*
X250727715Y-48449717D02*
X250812646Y-48495818D01*
X250812646Y-48495818D02*
X250886644Y-48556875D01*
X250886644Y-48556875D02*
X250947699Y-48630875D01*
X250947699Y-48630875D02*
X250993799Y-48715810D01*
X250993799Y-48715810D02*
X251022934Y-48809667D01*
X251022934Y-48809667D02*
X251033093Y-48910436D01*
X244208144Y-48410424D02*
X250533102Y-48410424D01*
X243708153Y-48910415D02*
X243718310Y-48809646D01*
X243718310Y-48809646D02*
X243747443Y-48715789D01*
X243747443Y-48715789D02*
X243793541Y-48630855D01*
X243793541Y-48630855D02*
X243854593Y-48556856D01*
X243854593Y-48556856D02*
X243928590Y-48495802D01*
X243928590Y-48495802D02*
X244013521Y-48449705D01*
X244013521Y-48449705D02*
X244107375Y-48420575D01*
X244107375Y-48420575D02*
X244208144Y-48410424D01*
X187950015Y-69600000D02*
X201950000Y-69600000D01*
X187949993Y-83599985D02*
X187950015Y-69600000D01*
X201949978Y-83600007D02*
X187949993Y-83599985D01*
X223381250Y-88650022D02*
X223381228Y-102650007D01*
X209381243Y-88650000D02*
X223381250Y-88650022D01*
X209381243Y-102649985D02*
X209381243Y-88650000D01*
X240337515Y-7687500D02*
X254337500Y-7687500D01*
X174845969Y-97954363D02*
X174845969Y-101542258D01*
X175681319Y-97954363D02*
X174845969Y-97954363D01*
X182900000Y-69600000D02*
X182899978Y-83600007D01*
X168900015Y-69600000D02*
X182900000Y-69600000D01*
X168899993Y-83599985D02*
X168900015Y-69600000D01*
X182899978Y-83600007D02*
X168899993Y-83599985D01*
X199568750Y-88650000D02*
X199568728Y-102649985D01*
X198595833Y-88650000D02*
X199568750Y-88650000D01*
X198595833Y-87020944D02*
X198595833Y-88650000D01*
X198095842Y-86520931D02*
X198196604Y-86531089D01*
X198196604Y-86531089D02*
X198290455Y-86560225D01*
X198290455Y-86560225D02*
X198375386Y-86606326D01*
X198375386Y-86606326D02*
X198449384Y-86667382D01*
X198449384Y-86667382D02*
X198510439Y-86741383D01*
X198510439Y-86741383D02*
X198556539Y-86826317D01*
X198556539Y-86826317D02*
X198585674Y-86920174D01*
X198585674Y-86920174D02*
X198595833Y-87020944D01*
X191770884Y-86520910D02*
X198095842Y-86520931D01*
X191270893Y-87020922D02*
X191281050Y-86920153D01*
X191281050Y-86920153D02*
X191310183Y-86826296D01*
X191310183Y-86826296D02*
X191356281Y-86741361D01*
X191356281Y-86741361D02*
X191417333Y-86667361D01*
X191417333Y-86667361D02*
X191491330Y-86606304D01*
X191491330Y-86606304D02*
X191576261Y-86560203D01*
X191576261Y-86560203D02*
X191670115Y-86531068D01*
X191670115Y-86531068D02*
X191770884Y-86520910D01*
X191270893Y-88649979D02*
X191270893Y-87020922D01*
X185568743Y-88649979D02*
X191270893Y-88649979D01*
X185568743Y-102649964D02*
X185568743Y-88649979D01*
X199568728Y-102649985D02*
X185568743Y-102649964D01*
X201950000Y-69600000D02*
X201949978Y-83600007D01*
X235574993Y-45499985D02*
X235575015Y-31500000D01*
X249574978Y-45500007D02*
X235574993Y-45499985D01*
X249575000Y-31500000D02*
X249574978Y-45500007D01*
X216524993Y-21687485D02*
X216525015Y-7687500D01*
X230524978Y-21687507D02*
X216524993Y-21687485D01*
X230525000Y-7687500D02*
X230524978Y-21687507D01*
X216525015Y-7687500D02*
X230525000Y-7687500D01*
X211762493Y-45499985D02*
X211762515Y-31500000D01*
X225762478Y-45500007D02*
X211762493Y-45499985D01*
X225762500Y-31500000D02*
X225762478Y-45500007D01*
X211762515Y-31500000D02*
X225762500Y-31500000D01*
X197474993Y-21687485D02*
X197475015Y-7687500D01*
X211474978Y-21687507D02*
X197474993Y-21687485D01*
X211475000Y-7687500D02*
X211474978Y-21687507D01*
X197475015Y-7687500D02*
X211475000Y-7687500D01*
X197475015Y-50550000D02*
X211475000Y-50550000D01*
X197474993Y-64549985D02*
X197475015Y-50550000D01*
X211474978Y-64550007D02*
X197474993Y-64549985D01*
X211475000Y-50550000D02*
X211474978Y-64550007D01*
X192712493Y-45499985D02*
X192712515Y-31500000D01*
X206712478Y-45500007D02*
X192712493Y-45499985D01*
X206712500Y-31500000D02*
X206712478Y-45500007D01*
X192712515Y-31500000D02*
X206712500Y-31500000D01*
X178424993Y-21687485D02*
X178425015Y-7687500D01*
X192424978Y-21687507D02*
X178424993Y-21687485D01*
X192425000Y-7687500D02*
X192424978Y-21687507D01*
X178425015Y-7687500D02*
X192425000Y-7687500D01*
X178425015Y-50550000D02*
X192425000Y-50550000D01*
X178424993Y-64549985D02*
X178425015Y-50550000D01*
X192424978Y-64550007D02*
X178424993Y-64549985D01*
X192425000Y-50550000D02*
X192424978Y-64550007D01*
X173662493Y-45499985D02*
X173662515Y-31500000D01*
X167771014Y-101792243D02*
X167673708Y-101772594D01*
X167673708Y-101772594D02*
X167594248Y-101719013D01*
X167594248Y-101719013D02*
X167540674Y-101639544D01*
X167540674Y-101639544D02*
X167521029Y-101542236D01*
X174595963Y-101792264D02*
X167771014Y-101792243D01*
X174845969Y-101542258D02*
X174826323Y-101639566D01*
X174826323Y-101639566D02*
X174772747Y-101719034D01*
X174772747Y-101719034D02*
X174693280Y-101772615D01*
X174693280Y-101772615D02*
X174595963Y-101792264D01*
X174846013Y-87027425D02*
X174845991Y-93363364D01*
X174346022Y-86527412D02*
X174446783Y-86537570D01*
X174446783Y-86537570D02*
X174540635Y-86566706D01*
X174540635Y-86566706D02*
X174625565Y-86612807D01*
X174625565Y-86612807D02*
X174699564Y-86673863D01*
X174699564Y-86673863D02*
X174760618Y-86747864D01*
X174760618Y-86747864D02*
X174806719Y-86832798D01*
X174806719Y-86832798D02*
X174835854Y-86926655D01*
X174835854Y-86926655D02*
X174846013Y-87027425D01*
X168021063Y-86527412D02*
X174346022Y-86527412D01*
X167521072Y-87027403D02*
X167531229Y-86926634D01*
X167531229Y-86926634D02*
X167560362Y-86832777D01*
X167560362Y-86832777D02*
X167606460Y-86747843D01*
X167606460Y-86747843D02*
X167667512Y-86673844D01*
X167667512Y-86673844D02*
X167741509Y-86612791D01*
X167741509Y-86612791D02*
X167826440Y-86566693D01*
X167826440Y-86566693D02*
X167920294Y-86537563D01*
X167920294Y-86537563D02*
X168021063Y-86527412D01*
X167521051Y-93345751D02*
X167521072Y-87027403D01*
X166232628Y-93345751D02*
X167521051Y-93345751D01*
X166232628Y-88658871D02*
X166232628Y-93345751D01*
X150967173Y-88649914D02*
X166232628Y-88658871D01*
X150967173Y-87027425D02*
X150967173Y-88649914D01*
X150467182Y-86527412D02*
X150567943Y-86537570D01*
X150567943Y-86537570D02*
X150661795Y-86566706D01*
X150661795Y-86566706D02*
X150746725Y-86612807D01*
X150746725Y-86612807D02*
X150820724Y-86673863D01*
X150820724Y-86673863D02*
X150881778Y-86747864D01*
X150881778Y-86747864D02*
X150927879Y-86832798D01*
X150927879Y-86832798D02*
X150957014Y-86926655D01*
X150957014Y-86926655D02*
X150967173Y-87027425D01*
X144142223Y-86527412D02*
X150467182Y-86527412D01*
X143642232Y-87027403D02*
X143652389Y-86926634D01*
X143652389Y-86926634D02*
X143681522Y-86832777D01*
X143681522Y-86832777D02*
X143727620Y-86747843D01*
X143727620Y-86747843D02*
X143788673Y-86673844D01*
X143788673Y-86673844D02*
X143862669Y-86612791D01*
X143862669Y-86612791D02*
X143947600Y-86566693D01*
X143947600Y-86566693D02*
X144041455Y-86537563D01*
X144041455Y-86537563D02*
X144142223Y-86527412D01*
X143642232Y-88649892D02*
X143642232Y-87027403D01*
X137943765Y-88649871D02*
X143642232Y-88649892D01*
X137943743Y-102649856D02*
X137943765Y-88649871D01*
X166232628Y-102658878D02*
X137943743Y-102649856D01*
X166232628Y-97956882D02*
X166232628Y-102658878D01*
X167521029Y-97956882D02*
X166232628Y-97956882D01*
X167521029Y-101542236D02*
X167521029Y-97956882D01*
X256862496Y-7162726D02*
X256859893Y-7059806D01*
X256859893Y-7059806D02*
X256852170Y-6958239D01*
X256852170Y-6958239D02*
X256839451Y-6858147D01*
X256839451Y-6858147D02*
X256821863Y-6759658D01*
X256821863Y-6759658D02*
X256799531Y-6662898D01*
X256799531Y-6662898D02*
X256772580Y-6567991D01*
X256772580Y-6567991D02*
X256741137Y-6475063D01*
X256741137Y-6475063D02*
X256705327Y-6384241D01*
X256705327Y-6384241D02*
X256665275Y-6295649D01*
X256665275Y-6295649D02*
X256621108Y-6209413D01*
X256621108Y-6209413D02*
X256572951Y-6125660D01*
X256572951Y-6125660D02*
X256520930Y-6044514D01*
X256520930Y-6044514D02*
X256465170Y-5966102D01*
X256465170Y-5966102D02*
X256405796Y-5890549D01*
X256405796Y-5890549D02*
X256342936Y-5817980D01*
X256342936Y-5817980D02*
X256276714Y-5748522D01*
X256276714Y-5748522D02*
X256207256Y-5682300D01*
X256207256Y-5682300D02*
X256134687Y-5619439D01*
X256134687Y-5619439D02*
X256059134Y-5560066D01*
X256059134Y-5560066D02*
X255980721Y-5504306D01*
X255980721Y-5504306D02*
X255899576Y-5452284D01*
X255899576Y-5452284D02*
X255815822Y-5404127D01*
X255815822Y-5404127D02*
X255729587Y-5359960D01*
X255729587Y-5359960D02*
X255640995Y-5319908D01*
X255640995Y-5319908D02*
X255550173Y-5284098D01*
X255550173Y-5284098D02*
X255457245Y-5252655D01*
X255457245Y-5252655D02*
X255362338Y-5225704D01*
X255362338Y-5225704D02*
X255265577Y-5203372D01*
X255265577Y-5203372D02*
X255167089Y-5185784D01*
X255167089Y-5185784D02*
X255066997Y-5173065D01*
X255066997Y-5173065D02*
X254965430Y-5165342D01*
X254965430Y-5165342D02*
X254862511Y-5162740D01*
X256862496Y-103175255D02*
X256862496Y-7162726D01*
X254862511Y-105175240D02*
X254965430Y-105172637D01*
X254965430Y-105172637D02*
X255066997Y-105164914D01*
X255066997Y-105164914D02*
X255167089Y-105152195D01*
X255167089Y-105152195D02*
X255265577Y-105134607D01*
X255265577Y-105134607D02*
X255362338Y-105112275D01*
X255362338Y-105112275D02*
X255457245Y-105085324D01*
X255457245Y-105085324D02*
X255550173Y-105053881D01*
X255550173Y-105053881D02*
X255640995Y-105018071D01*
X255640995Y-105018071D02*
X255729587Y-104978019D01*
X255729587Y-104978019D02*
X255815822Y-104933852D01*
X255815822Y-104933852D02*
X255899576Y-104885695D01*
X255899576Y-104885695D02*
X255980721Y-104833674D01*
X255980721Y-104833674D02*
X256059134Y-104777914D01*
X256059134Y-104777914D02*
X256134687Y-104718540D01*
X256134687Y-104718540D02*
X256207256Y-104655680D01*
X256207256Y-104655680D02*
X256276714Y-104589458D01*
X256276714Y-104589458D02*
X256342936Y-104520000D01*
X256342936Y-104520000D02*
X256405796Y-104447431D01*
X256405796Y-104447431D02*
X256465170Y-104371878D01*
X256465170Y-104371878D02*
X256520930Y-104293465D01*
X256520930Y-104293465D02*
X256572951Y-104212320D01*
X256572951Y-104212320D02*
X256621108Y-104128566D01*
X256621108Y-104128566D02*
X256665275Y-104042331D01*
X256665275Y-104042331D02*
X256705327Y-103953739D01*
X256705327Y-103953739D02*
X256741137Y-103862917D01*
X256741137Y-103862917D02*
X256772580Y-103769989D01*
X256772580Y-103769989D02*
X256799531Y-103675082D01*
X256799531Y-103675082D02*
X256821863Y-103578321D01*
X256821863Y-103578321D02*
X256839451Y-103479833D01*
X256839451Y-103479833D02*
X256852170Y-103379741D01*
X256852170Y-103379741D02*
X256859893Y-103278174D01*
X256859893Y-103278174D02*
X256862496Y-103175255D01*
X11212504Y-105175240D02*
X254862511Y-105175240D01*
X9212496Y-103175233D02*
X9215098Y-103278154D01*
X9215098Y-103278154D02*
X9222821Y-103379723D01*
X9222821Y-103379723D02*
X9235540Y-103479816D01*
X9235540Y-103479816D02*
X9253128Y-103578307D01*
X9253128Y-103578307D02*
X9275460Y-103675069D01*
X9275460Y-103675069D02*
X9302411Y-103769977D01*
X9302411Y-103769977D02*
X9333854Y-103862906D01*
X9333854Y-103862906D02*
X9369665Y-103953730D01*
X9369665Y-103953730D02*
X9409716Y-104042323D01*
X9409716Y-104042323D02*
X9453884Y-104128559D01*
X9453884Y-104128559D02*
X9502041Y-104212314D01*
X9502041Y-104212314D02*
X9554063Y-104293460D01*
X9554063Y-104293460D02*
X9609823Y-104371873D01*
X9609823Y-104371873D02*
X9669197Y-104447427D01*
X9669197Y-104447427D02*
X9732058Y-104519996D01*
X9732058Y-104519996D02*
X9798281Y-104589455D01*
X9798281Y-104589455D02*
X9867739Y-104655678D01*
X9867739Y-104655678D02*
X9940309Y-104718539D01*
X9940309Y-104718539D02*
X10015862Y-104777912D01*
X10015862Y-104777912D02*
X10094276Y-104833673D01*
X10094276Y-104833673D02*
X10175422Y-104885694D01*
X10175422Y-104885694D02*
X10259176Y-104933852D01*
X10259176Y-104933852D02*
X10345413Y-104978019D01*
X10345413Y-104978019D02*
X10434006Y-105018071D01*
X10434006Y-105018071D02*
X10524830Y-105053881D01*
X10524830Y-105053881D02*
X10617759Y-105085324D01*
X10617759Y-105085324D02*
X10712667Y-105112275D01*
X10712667Y-105112275D02*
X10809429Y-105134607D01*
X10809429Y-105134607D02*
X10907920Y-105152195D01*
X10907920Y-105152195D02*
X11008013Y-105164914D01*
X11008013Y-105164914D02*
X11109582Y-105172637D01*
X11109582Y-105172637D02*
X11212504Y-105175240D01*
X9212496Y-25712993D02*
X9212496Y-103175233D01*
X10212500Y-24712990D02*
X10110254Y-24718153D01*
X10110254Y-24718153D02*
X10010962Y-24733307D01*
X10010962Y-24733307D02*
X9915127Y-24757949D01*
X9915127Y-24757949D02*
X9823251Y-24791577D01*
X9823251Y-24791577D02*
X9735836Y-24833688D01*
X9735836Y-24833688D02*
X9653386Y-24883779D01*
X9653386Y-24883779D02*
X9576402Y-24941347D01*
X9576402Y-24941347D02*
X9505388Y-25005890D01*
X9505388Y-25005890D02*
X9440846Y-25076905D01*
X9440846Y-25076905D02*
X9383279Y-25153889D01*
X9383279Y-25153889D02*
X9333190Y-25236339D01*
X9333190Y-25236339D02*
X9291080Y-25323753D01*
X9291080Y-25323753D02*
X9257453Y-25415628D01*
X9257453Y-25415628D02*
X9232812Y-25511462D01*
X9232812Y-25511462D02*
X9217658Y-25610751D01*
X9217658Y-25610751D02*
X9212496Y-25712993D01*
X10600000Y-24712990D02*
X10212500Y-24712990D01*
X10600000Y-23212758D02*
X10600000Y-24712990D01*
X995470Y-23212758D02*
X10600000Y-23212758D01*
X-4512Y-22212755D02*
X650Y-22315000D01*
X650Y-22315000D02*
X15804Y-22414292D01*
X15804Y-22414292D02*
X40445Y-22510127D01*
X40445Y-22510127D02*
X74072Y-22602003D01*
X74072Y-22602003D02*
X116181Y-22689418D01*
X116181Y-22689418D02*
X166270Y-22771868D01*
X166270Y-22771868D02*
X223836Y-22848852D01*
X223836Y-22848852D02*
X288377Y-22919866D01*
X288377Y-22919866D02*
X359390Y-22984407D01*
X359390Y-22984407D02*
X436372Y-23041974D01*
X436372Y-23041974D02*
X518821Y-23092064D01*
X518821Y-23092064D02*
X606233Y-23134173D01*
X606233Y-23134173D02*
X698107Y-23167800D01*
X698107Y-23167800D02*
X793940Y-23192441D01*
X793940Y-23192441D02*
X893228Y-23207595D01*
X893228Y-23207595D02*
X995470Y-23212758D01*
X-4512Y-1012757D02*
X-4512Y-22212755D01*
X995470Y-12753D02*
X893228Y-17916D01*
X893228Y-17916D02*
X793940Y-33070D01*
X793940Y-33070D02*
X698107Y-57712D01*
X698107Y-57712D02*
X606233Y-91340D01*
X606233Y-91340D02*
X518821Y-133451D01*
X518821Y-133451D02*
X436372Y-183542D01*
X436372Y-183542D02*
X359390Y-241110D01*
X359390Y-241110D02*
X288377Y-305653D01*
X288377Y-305653D02*
X223836Y-376668D01*
X223836Y-376668D02*
X166270Y-453652D01*
X166270Y-453652D02*
X116181Y-536102D01*
X116181Y-536102D02*
X74072Y-623517D01*
X74072Y-623517D02*
X40445Y-715392D01*
X40445Y-715392D02*
X15804Y-811225D01*
X15804Y-811225D02*
X650Y-910515D01*
X650Y-910515D02*
X-4512Y-1012757D01*
X41195471Y-12753D02*
X995470Y-12753D01*
X42195475Y-1012757D02*
X42190312Y-910515D01*
X42190312Y-910515D02*
X42175158Y-811225D01*
X42175158Y-811225D02*
X42150517Y-715392D01*
X42150517Y-715392D02*
X42116890Y-623517D01*
X42116890Y-623517D02*
X42074780Y-536102D01*
X42074780Y-536102D02*
X42024691Y-453652D01*
X42024691Y-453652D02*
X41967124Y-376668D01*
X41967124Y-376668D02*
X41902582Y-305653D01*
X41902582Y-305653D02*
X41831568Y-241110D01*
X41831568Y-241110D02*
X41754584Y-183542D01*
X41754584Y-183542D02*
X41672134Y-133451D01*
X41672134Y-133451D02*
X41584719Y-91340D01*
X41584719Y-91340D02*
X41492843Y-57712D01*
X41492843Y-57712D02*
X41397008Y-33070D01*
X41397008Y-33070D02*
X41297716Y-17916D01*
X41297716Y-17916D02*
X41195471Y-12753D01*
X42195475Y-22212755D02*
X42195475Y-1012757D01*
X41195471Y-23212758D02*
X41297716Y-23207595D01*
X41297716Y-23207595D02*
X41397008Y-23192441D01*
X41397008Y-23192441D02*
X41492843Y-23167800D01*
X41492843Y-23167800D02*
X41584719Y-23134173D01*
X41584719Y-23134173D02*
X41672134Y-23092064D01*
X41672134Y-23092064D02*
X41754584Y-23041974D01*
X41754584Y-23041974D02*
X41831568Y-22984407D01*
X41831568Y-22984407D02*
X41902582Y-22919866D01*
X41902582Y-22919866D02*
X41967124Y-22848852D01*
X41967124Y-22848852D02*
X42024691Y-22771868D01*
X42024691Y-22771868D02*
X42074780Y-22689418D01*
X42074780Y-22689418D02*
X42116890Y-22602003D01*
X42116890Y-22602003D02*
X42150517Y-22510127D01*
X42150517Y-22510127D02*
X42175158Y-22414292D01*
X42175158Y-22414292D02*
X42190312Y-22315000D01*
X42190312Y-22315000D02*
X42195475Y-22212755D01*
X36200000Y-23212758D02*
X36367380Y-23212758D01*
X36367380Y-23212758D02*
X36472826Y-23212758D01*
X36472826Y-23212758D02*
X36599872Y-23212758D01*
X36599872Y-23212758D02*
X36746598Y-23212758D01*
X36746598Y-23212758D02*
X36911086Y-23212758D01*
X36911086Y-23212758D02*
X37091415Y-23212758D01*
X37091415Y-23212758D02*
X37285664Y-23212758D01*
X37285664Y-23212758D02*
X37491915Y-23212758D01*
X37491915Y-23212758D02*
X37708248Y-23212758D01*
X37708248Y-23212758D02*
X37932742Y-23212758D01*
X37932742Y-23212758D02*
X38163478Y-23212758D01*
X38163478Y-23212758D02*
X38398536Y-23212758D01*
X38398536Y-23212758D02*
X38635997Y-23212758D01*
X38635997Y-23212758D02*
X38873939Y-23212758D01*
X38873939Y-23212758D02*
X39110444Y-23212758D01*
X39110444Y-23212758D02*
X39343592Y-23212758D01*
X39343592Y-23212758D02*
X39571462Y-23212758D01*
X39571462Y-23212758D02*
X39792136Y-23212758D01*
X39792136Y-23212758D02*
X40003693Y-23212758D01*
X40003693Y-23212758D02*
X40204213Y-23212758D01*
X40204213Y-23212758D02*
X40391776Y-23212758D01*
X40391776Y-23212758D02*
X40564463Y-23212758D01*
X40564463Y-23212758D02*
X40720354Y-23212758D01*
X40720354Y-23212758D02*
X40857530Y-23212758D01*
X40857530Y-23212758D02*
X40974069Y-23212758D01*
X40974069Y-23212758D02*
X41068052Y-23212758D01*
X41068052Y-23212758D02*
X41180673Y-23212758D01*
X41180673Y-23212758D02*
X41195471Y-23212758D01*
X36200000Y-24712990D02*
X36200000Y-23212758D01*
X42221464Y-24712990D02*
X36200000Y-24712990D01*
X43221467Y-23713008D02*
X43216304Y-23815249D01*
X43216304Y-23815249D02*
X43201150Y-23914537D01*
X43201150Y-23914537D02*
X43176509Y-24010370D01*
X43176509Y-24010370D02*
X43142882Y-24102244D01*
X43142882Y-24102244D02*
X43100772Y-24189656D01*
X43100772Y-24189656D02*
X43050683Y-24272105D01*
X43050683Y-24272105D02*
X42993116Y-24349087D01*
X42993116Y-24349087D02*
X42928574Y-24420100D01*
X42928574Y-24420100D02*
X42857560Y-24484641D01*
X42857560Y-24484641D02*
X42780577Y-24542207D01*
X42780577Y-24542207D02*
X42698126Y-24592296D01*
X42698126Y-24592296D02*
X42610712Y-24634405D01*
X42610712Y-24634405D02*
X42518836Y-24668032D01*
X42518836Y-24668032D02*
X42423000Y-24692673D01*
X42423000Y-24692673D02*
X42323709Y-24707827D01*
X42323709Y-24707827D02*
X42221464Y-24712990D01*
X43221467Y-6162744D02*
X43221467Y-23713008D01*
X44221471Y-5162740D02*
X44119225Y-5167903D01*
X44119225Y-5167903D02*
X44019933Y-5183057D01*
X44019933Y-5183057D02*
X43924098Y-5207699D01*
X43924098Y-5207699D02*
X43832222Y-5241327D01*
X43832222Y-5241327D02*
X43744807Y-5283438D01*
X43744807Y-5283438D02*
X43662357Y-5333529D01*
X43662357Y-5333529D02*
X43585373Y-5391097D01*
X43585373Y-5391097D02*
X43514359Y-5455640D01*
X43514359Y-5455640D02*
X43449817Y-5526655D01*
X43449817Y-5526655D02*
X43392250Y-5603639D01*
X43392250Y-5603639D02*
X43342161Y-5686090D01*
X43342161Y-5686090D02*
X43300051Y-5773504D01*
X43300051Y-5773504D02*
X43266424Y-5865379D01*
X43266424Y-5865379D02*
X43241783Y-5961213D01*
X43241783Y-5961213D02*
X43226629Y-6060502D01*
X43226629Y-6060502D02*
X43221467Y-6162744D01*
X254862511Y-5162740D02*
X44221471Y-5162740D01*
X234381504Y-11755598D02*
X234386925Y-11648242D01*
X234386925Y-11648242D02*
X234402836Y-11543987D01*
X234402836Y-11543987D02*
X234428710Y-11443361D01*
X234428710Y-11443361D02*
X234464018Y-11346891D01*
X234464018Y-11346891D02*
X234508234Y-11255106D01*
X234508234Y-11255106D02*
X234560828Y-11168534D01*
X234560828Y-11168534D02*
X234621274Y-11087701D01*
X234621274Y-11087701D02*
X234689043Y-11013137D01*
X234689043Y-11013137D02*
X234763608Y-10945367D01*
X234763608Y-10945367D02*
X234844441Y-10884922D01*
X234844441Y-10884922D02*
X234931013Y-10832327D01*
X234931013Y-10832327D02*
X235022798Y-10788112D01*
X235022798Y-10788112D02*
X235119268Y-10752804D01*
X235119268Y-10752804D02*
X235219894Y-10726930D01*
X235219894Y-10726930D02*
X235324149Y-10711019D01*
X235324149Y-10711019D02*
X235431505Y-10705598D01*
X235431505Y-12805599D02*
X235324149Y-12800177D01*
X235324149Y-12800177D02*
X235219894Y-12784266D01*
X235219894Y-12784266D02*
X235119268Y-12758392D01*
X235119268Y-12758392D02*
X235022798Y-12723084D01*
X235022798Y-12723084D02*
X234931013Y-12678868D01*
X234931013Y-12678868D02*
X234844441Y-12626274D01*
X234844441Y-12626274D02*
X234763608Y-12565828D01*
X234763608Y-12565828D02*
X234689043Y-12498059D01*
X234689043Y-12498059D02*
X234621274Y-12423494D01*
X234621274Y-12423494D02*
X234560828Y-12342661D01*
X234560828Y-12342661D02*
X234508234Y-12256089D01*
X234508234Y-12256089D02*
X234464018Y-12164304D01*
X234464018Y-12164304D02*
X234428710Y-12067834D01*
X234428710Y-12067834D02*
X234402836Y-11967208D01*
X234402836Y-11967208D02*
X234386925Y-11862953D01*
X234386925Y-11862953D02*
X234381504Y-11755598D01*
X236481505Y-11755598D02*
X236476083Y-11862953D01*
X236476083Y-11862953D02*
X236460172Y-11967208D01*
X236460172Y-11967208D02*
X236434298Y-12067834D01*
X236434298Y-12067834D02*
X236398990Y-12164304D01*
X236398990Y-12164304D02*
X236354775Y-12256089D01*
X236354775Y-12256089D02*
X236302180Y-12342661D01*
X236302180Y-12342661D02*
X236241735Y-12423494D01*
X236241735Y-12423494D02*
X236173966Y-12498059D01*
X236173966Y-12498059D02*
X236099401Y-12565828D01*
X236099401Y-12565828D02*
X236018568Y-12626274D01*
X236018568Y-12626274D02*
X235931996Y-12678868D01*
X235931996Y-12678868D02*
X235840211Y-12723084D01*
X235840211Y-12723084D02*
X235743741Y-12758392D01*
X235743741Y-12758392D02*
X235643115Y-12784266D01*
X235643115Y-12784266D02*
X235538860Y-12800177D01*
X235538860Y-12800177D02*
X235431505Y-12805599D01*
X235431505Y-10705598D02*
X235538860Y-10711019D01*
X235538860Y-10711019D02*
X235643115Y-10726930D01*
X235643115Y-10726930D02*
X235743741Y-10752804D01*
X235743741Y-10752804D02*
X235840211Y-10788112D01*
X235840211Y-10788112D02*
X235931996Y-10832327D01*
X235931996Y-10832327D02*
X236018568Y-10884922D01*
X236018568Y-10884922D02*
X236099401Y-10945367D01*
X236099401Y-10945367D02*
X236173966Y-11013137D01*
X236173966Y-11013137D02*
X236241735Y-11087701D01*
X236241735Y-11087701D02*
X236302180Y-11168534D01*
X236302180Y-11168534D02*
X236354775Y-11255106D01*
X236354775Y-11255106D02*
X236398990Y-11346891D01*
X236398990Y-11346891D02*
X236434298Y-11443361D01*
X236434298Y-11443361D02*
X236460172Y-11543987D01*
X236460172Y-11543987D02*
X236476083Y-11648242D01*
X236476083Y-11648242D02*
X236481505Y-11755598D01*
X235575015Y-31500000D02*
X249575000Y-31500000D01*
X104592269Y-93363364D02*
X104592269Y-88649742D01*
X103326778Y-93363364D02*
X104592269Y-93363364D01*
X103326799Y-87027425D02*
X103326778Y-93363364D01*
X102826808Y-86527412D02*
X102927570Y-86537570D01*
X102927570Y-86537570D02*
X103021421Y-86566706D01*
X103021421Y-86566706D02*
X103106352Y-86612807D01*
X103106352Y-86612807D02*
X103180350Y-86673863D01*
X103180350Y-86673863D02*
X103241405Y-86747864D01*
X103241405Y-86747864D02*
X103287505Y-86832798D01*
X103287505Y-86832798D02*
X103316640Y-86926655D01*
X103316640Y-86926655D02*
X103326799Y-87027425D01*
X91778279Y-86515031D02*
X102826808Y-86527412D01*
X91278288Y-87015044D02*
X91288445Y-86914274D01*
X91288445Y-86914274D02*
X91317578Y-86820417D01*
X91317578Y-86820417D02*
X91363676Y-86735483D01*
X91363676Y-86735483D02*
X91424728Y-86661482D01*
X91424728Y-86661482D02*
X91498725Y-86600426D01*
X91498725Y-86600426D02*
X91583656Y-86554325D01*
X91583656Y-86554325D02*
X91677510Y-86525189D01*
X91677510Y-86525189D02*
X91778279Y-86515031D01*
X91278267Y-93333392D02*
X91278288Y-87015044D01*
X90442896Y-93333392D02*
X91278267Y-93333392D01*
X90442896Y-97944523D02*
X90442896Y-93333392D01*
X91278267Y-97944523D02*
X90442896Y-97944523D01*
X91278245Y-101529877D02*
X91278267Y-97944523D01*
X91528230Y-101779883D02*
X91430924Y-101760234D01*
X91430924Y-101760234D02*
X91351464Y-101706653D01*
X91351464Y-101706653D02*
X91297890Y-101627185D01*
X91297890Y-101627185D02*
X91278245Y-101529877D01*
X103076750Y-101792264D02*
X91528230Y-101779883D01*
X103326756Y-101542258D02*
X103307110Y-101639566D01*
X103307110Y-101639566D02*
X103253534Y-101719034D01*
X103253534Y-101719034D02*
X103174067Y-101772615D01*
X103174067Y-101772615D02*
X103076750Y-101792264D01*
X103326778Y-97954363D02*
X103326756Y-101542258D01*
X104592269Y-97954363D02*
X103326778Y-97954363D01*
X104592269Y-102649748D02*
X104592269Y-97954363D01*
X118592254Y-102649748D02*
X104592269Y-102649748D01*
X118592254Y-97956882D02*
X118592254Y-102649748D01*
X119880655Y-97956882D02*
X118592254Y-97956882D01*
X119880655Y-101542236D02*
X119880655Y-97956882D01*
X120130640Y-101792243D02*
X120033334Y-101772594D01*
X120033334Y-101772594D02*
X119953874Y-101719013D01*
X119953874Y-101719013D02*
X119900300Y-101639544D01*
X119900300Y-101639544D02*
X119880655Y-101542236D01*
X126955589Y-101792264D02*
X120130640Y-101792243D01*
X127205596Y-101542258D02*
X127185950Y-101639566D01*
X127185950Y-101639566D02*
X127132374Y-101719034D01*
X127132374Y-101719034D02*
X127052906Y-101772615D01*
X127052906Y-101772615D02*
X126955589Y-101792264D01*
X127205596Y-97954363D02*
X127205596Y-101542258D01*
X128040945Y-97954363D02*
X127205596Y-97954363D01*
X132860332Y-101569603D02*
X132854910Y-101676958D01*
X132854910Y-101676958D02*
X132838999Y-101781213D01*
X132838999Y-101781213D02*
X132813125Y-101881839D01*
X132813125Y-101881839D02*
X132777817Y-101978309D01*
X132777817Y-101978309D02*
X132733602Y-102070094D01*
X132733602Y-102070094D02*
X132681007Y-102156666D01*
X132681007Y-102156666D02*
X132620562Y-102237499D01*
X132620562Y-102237499D02*
X132552793Y-102312064D01*
X132552793Y-102312064D02*
X132478228Y-102379833D01*
X132478228Y-102379833D02*
X132397395Y-102440279D01*
X132397395Y-102440279D02*
X132310823Y-102492873D01*
X132310823Y-102492873D02*
X132219038Y-102537089D01*
X132219038Y-102537089D02*
X132122568Y-102572397D01*
X132122568Y-102572397D02*
X132021942Y-102598271D01*
X132021942Y-102598271D02*
X131917687Y-102614182D01*
X131917687Y-102614182D02*
X131810332Y-102619604D01*
X131810332Y-100519603D02*
X131917687Y-100525024D01*
X131917687Y-100525024D02*
X132021942Y-100540935D01*
X132021942Y-100540935D02*
X132122568Y-100566809D01*
X132122568Y-100566809D02*
X132219038Y-100602117D01*
X132219038Y-100602117D02*
X132310823Y-100646333D01*
X132310823Y-100646333D02*
X132397395Y-100698927D01*
X132397395Y-100698927D02*
X132478228Y-100759373D01*
X132478228Y-100759373D02*
X132552793Y-100827142D01*
X132552793Y-100827142D02*
X132620562Y-100901707D01*
X132620562Y-100901707D02*
X132681007Y-100982539D01*
X132681007Y-100982539D02*
X132733602Y-101069112D01*
X132733602Y-101069112D02*
X132777817Y-101160897D01*
X132777817Y-101160897D02*
X132813125Y-101257366D01*
X132813125Y-101257366D02*
X132838999Y-101357992D01*
X132838999Y-101357992D02*
X132854910Y-101462247D01*
X132854910Y-101462247D02*
X132860332Y-101569603D01*
X130760331Y-101569603D02*
X130765752Y-101462247D01*
X130765752Y-101462247D02*
X130781663Y-101357992D01*
X130781663Y-101357992D02*
X130807537Y-101257366D01*
X130807537Y-101257366D02*
X130842845Y-101160897D01*
X130842845Y-101160897D02*
X130887061Y-101069112D01*
X130887061Y-101069112D02*
X130939655Y-100982539D01*
X130939655Y-100982539D02*
X131000101Y-100901707D01*
X131000101Y-100901707D02*
X131067870Y-100827142D01*
X131067870Y-100827142D02*
X131142435Y-100759373D01*
X131142435Y-100759373D02*
X131223268Y-100698927D01*
X131223268Y-100698927D02*
X131309840Y-100646333D01*
X131309840Y-100646333D02*
X131401625Y-100602117D01*
X131401625Y-100602117D02*
X131498095Y-100566809D01*
X131498095Y-100566809D02*
X131598721Y-100540935D01*
X131598721Y-100540935D02*
X131702976Y-100525024D01*
X131702976Y-100525024D02*
X131810332Y-100519603D01*
X131810332Y-102619604D02*
X131702976Y-102614182D01*
X131702976Y-102614182D02*
X131598721Y-102598271D01*
X131598721Y-102598271D02*
X131498095Y-102572397D01*
X131498095Y-102572397D02*
X131401625Y-102537089D01*
X131401625Y-102537089D02*
X131309840Y-102492873D01*
X131309840Y-102492873D02*
X131223268Y-102440279D01*
X131223268Y-102440279D02*
X131142435Y-102379833D01*
X131142435Y-102379833D02*
X131067870Y-102312064D01*
X131067870Y-102312064D02*
X131000101Y-102237499D01*
X131000101Y-102237499D02*
X130939655Y-102156666D01*
X130939655Y-102156666D02*
X130887061Y-102070094D01*
X130887061Y-102070094D02*
X130842845Y-101978309D01*
X130842845Y-101978309D02*
X130807537Y-101881839D01*
X130807537Y-101881839D02*
X130781663Y-101781213D01*
X130781663Y-101781213D02*
X130765752Y-101676958D01*
X130765752Y-101676958D02*
X130760331Y-101569603D01*
X175681341Y-93363364D02*
X175681319Y-97954363D01*
X174845991Y-93363364D02*
X175681341Y-93363364D01*
X12819511Y-100519603D02*
X12926866Y-100525024D01*
X12926866Y-100525024D02*
X13031121Y-100540935D01*
X13031121Y-100540935D02*
X13131747Y-100566809D01*
X13131747Y-100566809D02*
X13228217Y-100602117D01*
X13228217Y-100602117D02*
X13320002Y-100646333D01*
X13320002Y-100646333D02*
X13406574Y-100698927D01*
X13406574Y-100698927D02*
X13487407Y-100759373D01*
X13487407Y-100759373D02*
X13561972Y-100827142D01*
X13561972Y-100827142D02*
X13629741Y-100901707D01*
X13629741Y-100901707D02*
X13690187Y-100982539D01*
X13690187Y-100982539D02*
X13742781Y-101069112D01*
X13742781Y-101069112D02*
X13786997Y-101160897D01*
X13786997Y-101160897D02*
X13822305Y-101257366D01*
X13822305Y-101257366D02*
X13848179Y-101357992D01*
X13848179Y-101357992D02*
X13864090Y-101462247D01*
X13864090Y-101462247D02*
X13869512Y-101569603D01*
X11769511Y-101569603D02*
X11774931Y-101462247D01*
X11774931Y-101462247D02*
X11790842Y-101357992D01*
X11790842Y-101357992D02*
X11816715Y-101257366D01*
X11816715Y-101257366D02*
X11852022Y-101160897D01*
X11852022Y-101160897D02*
X11896236Y-101069112D01*
X11896236Y-101069112D02*
X11948829Y-100982539D01*
X11948829Y-100982539D02*
X12009274Y-100901707D01*
X12009274Y-100901707D02*
X12077042Y-100827142D01*
X12077042Y-100827142D02*
X12151606Y-100759373D01*
X12151606Y-100759373D02*
X12232438Y-100698927D01*
X12232438Y-100698927D02*
X12319010Y-100646333D01*
X12319010Y-100646333D02*
X12410796Y-100602117D01*
X12410796Y-100602117D02*
X12507266Y-100566809D01*
X12507266Y-100566809D02*
X12607894Y-100540935D01*
X12607894Y-100540935D02*
X12712151Y-100525024D01*
X12712151Y-100525024D02*
X12819511Y-100519603D01*
X12819511Y-102619604D02*
X12712151Y-102614182D01*
X12712151Y-102614182D02*
X12607894Y-102598271D01*
X12607894Y-102598271D02*
X12507266Y-102572397D01*
X12507266Y-102572397D02*
X12410796Y-102537089D01*
X12410796Y-102537089D02*
X12319010Y-102492873D01*
X12319010Y-102492873D02*
X12232438Y-102440279D01*
X12232438Y-102440279D02*
X12151606Y-102379833D01*
X12151606Y-102379833D02*
X12077042Y-102312064D01*
X12077042Y-102312064D02*
X12009274Y-102237499D01*
X12009274Y-102237499D02*
X11948829Y-102156666D01*
X11948829Y-102156666D02*
X11896236Y-102070094D01*
X11896236Y-102070094D02*
X11852022Y-101978309D01*
X11852022Y-101978309D02*
X11816715Y-101881839D01*
X11816715Y-101881839D02*
X11790842Y-101781213D01*
X11790842Y-101781213D02*
X11774931Y-101676958D01*
X11774931Y-101676958D02*
X11769511Y-101569603D01*
X14118506Y-64549727D02*
X14118506Y-50549742D01*
X32881228Y-64550007D02*
X14118506Y-64549727D01*
X32881250Y-50550000D02*
X32881228Y-64550007D01*
X14118506Y-50549742D02*
X32881250Y-50550000D01*
X30500000Y-88650000D02*
X30499978Y-102650007D01*
X16500015Y-88650000D02*
X30500000Y-88650000D01*
X16499993Y-102649985D02*
X16500015Y-88650000D01*
X30499978Y-102650007D02*
X16499993Y-102649985D01*
X39181877Y-82722024D02*
X39084572Y-82702375D01*
X39084572Y-82702375D02*
X39005111Y-82648794D01*
X39005111Y-82648794D02*
X38951538Y-82569326D01*
X38951538Y-82569326D02*
X38931893Y-82472018D01*
X46006827Y-82722046D02*
X39181877Y-82722024D01*
X46256833Y-82472040D02*
X46237187Y-82569348D01*
X46237187Y-82569348D02*
X46183611Y-82648816D01*
X46183611Y-82648816D02*
X46104144Y-82702397D01*
X46104144Y-82702397D02*
X46006827Y-82722046D01*
X46256833Y-78884145D02*
X46256833Y-82472040D01*
X47092183Y-78884145D02*
X46256833Y-78884145D01*
X47092204Y-74293146D02*
X47092183Y-78884145D01*
X46256855Y-74293146D02*
X47092204Y-74293146D01*
X46256876Y-67957206D02*
X46256855Y-74293146D01*
X45756885Y-67457194D02*
X45857647Y-67467352D01*
X45857647Y-67467352D02*
X45951498Y-67496487D01*
X45951498Y-67496487D02*
X46036429Y-67542588D01*
X46036429Y-67542588D02*
X46110427Y-67603645D01*
X46110427Y-67603645D02*
X46171482Y-67677645D01*
X46171482Y-67677645D02*
X46217582Y-67762580D01*
X46217582Y-67762580D02*
X46246717Y-67856437D01*
X46246717Y-67856437D02*
X46256876Y-67957206D01*
X39431927Y-67457194D02*
X45756885Y-67457194D01*
X38931936Y-67957185D02*
X38942093Y-67856416D01*
X38942093Y-67856416D02*
X38971226Y-67762559D01*
X38971226Y-67762559D02*
X39017324Y-67677625D01*
X39017324Y-67677625D02*
X39078376Y-67603626D01*
X39078376Y-67603626D02*
X39152373Y-67542572D01*
X39152373Y-67542572D02*
X39237304Y-67496475D01*
X39237304Y-67496475D02*
X39331158Y-67467345D01*
X39331158Y-67467345D02*
X39431927Y-67457194D01*
X38931914Y-74275533D02*
X38931936Y-67957185D01*
X37643491Y-74275533D02*
X38931914Y-74275533D01*
X37643491Y-69599742D02*
X37643491Y-74275533D01*
X23643506Y-69599742D02*
X37643491Y-69599742D01*
X23643506Y-74293146D02*
X23643506Y-69599742D01*
X22378015Y-74293146D02*
X23643506Y-74293146D01*
X22378037Y-67957206D02*
X22378015Y-74293146D01*
X21878046Y-67457194D02*
X21978807Y-67467352D01*
X21978807Y-67467352D02*
X22072659Y-67496487D01*
X22072659Y-67496487D02*
X22157589Y-67542588D01*
X22157589Y-67542588D02*
X22231588Y-67603645D01*
X22231588Y-67603645D02*
X22292642Y-67677645D01*
X22292642Y-67677645D02*
X22338743Y-67762580D01*
X22338743Y-67762580D02*
X22367878Y-67856437D01*
X22367878Y-67856437D02*
X22378037Y-67957206D01*
X15553087Y-67457194D02*
X21878046Y-67457194D01*
X15053096Y-67957185D02*
X15063253Y-67856416D01*
X15063253Y-67856416D02*
X15092386Y-67762559D01*
X15092386Y-67762559D02*
X15138484Y-67677625D01*
X15138484Y-67677625D02*
X15199536Y-67603626D01*
X15199536Y-67603626D02*
X15273533Y-67542572D01*
X15273533Y-67542572D02*
X15358464Y-67496475D01*
X15358464Y-67496475D02*
X15452318Y-67467345D01*
X15452318Y-67467345D02*
X15553087Y-67457194D01*
X15053075Y-74275533D02*
X15053096Y-67957185D01*
X14217703Y-74275533D02*
X15053075Y-74275533D01*
X14217703Y-78886664D02*
X14217703Y-74275533D01*
X15053075Y-78886664D02*
X14217703Y-78886664D01*
X15053053Y-82472018D02*
X15053075Y-78886664D01*
X15303038Y-82722024D02*
X15205732Y-82702375D01*
X15205732Y-82702375D02*
X15126272Y-82648794D01*
X15126272Y-82648794D02*
X15072698Y-82569326D01*
X15072698Y-82569326D02*
X15053053Y-82472018D01*
X22127987Y-82722046D02*
X15303038Y-82722024D01*
X22377993Y-82472040D02*
X22358347Y-82569348D01*
X22358347Y-82569348D02*
X22304771Y-82648816D01*
X22304771Y-82648816D02*
X22225304Y-82702397D01*
X22225304Y-82702397D02*
X22127987Y-82722046D01*
X22378015Y-78884145D02*
X22377993Y-82472040D01*
X23643506Y-78884145D02*
X22378015Y-78884145D01*
X23643506Y-83599748D02*
X23643506Y-78884145D01*
X37643491Y-83599748D02*
X23643506Y-83599748D01*
X37643491Y-78886664D02*
X37643491Y-83599748D01*
X38931893Y-78886664D02*
X37643491Y-78886664D01*
X38931893Y-82472018D02*
X38931893Y-78886664D01*
X56693750Y-88650000D02*
X56693728Y-102650007D01*
X42693743Y-88650000D02*
X56693750Y-88650000D01*
X42693743Y-102649985D02*
X42693743Y-88650000D01*
X56693728Y-102650007D02*
X42693743Y-102649985D01*
X80506250Y-88650000D02*
X80506228Y-102650007D01*
X66506243Y-88650000D02*
X80506250Y-88650000D01*
X66506243Y-102649985D02*
X66506243Y-88650000D01*
X80506228Y-102650007D02*
X66506243Y-102649985D01*
X87650000Y-69600000D02*
X87649978Y-83600007D01*
X73650015Y-69600000D02*
X87650000Y-69600000D01*
X73649993Y-83599985D02*
X73650015Y-69600000D01*
X87649978Y-83600007D02*
X73649993Y-83599985D01*
X128040967Y-93363364D02*
X128040945Y-97954363D01*
X127205617Y-93363364D02*
X128040967Y-93363364D01*
X127205639Y-87027425D02*
X127205617Y-93363364D01*
X126705648Y-86527412D02*
X126806409Y-86537570D01*
X126806409Y-86537570D02*
X126900261Y-86566706D01*
X126900261Y-86566706D02*
X126985191Y-86612807D01*
X126985191Y-86612807D02*
X127059190Y-86673863D01*
X127059190Y-86673863D02*
X127120244Y-86747864D01*
X127120244Y-86747864D02*
X127166345Y-86832798D01*
X127166345Y-86832798D02*
X127195480Y-86926655D01*
X127195480Y-86926655D02*
X127205639Y-87027425D01*
X120380689Y-86527412D02*
X126705648Y-86527412D01*
X119880698Y-87027403D02*
X119890855Y-86926634D01*
X119890855Y-86926634D02*
X119919988Y-86832777D01*
X119919988Y-86832777D02*
X119966086Y-86747843D01*
X119966086Y-86747843D02*
X120027138Y-86673844D01*
X120027138Y-86673844D02*
X120101135Y-86612791D01*
X120101135Y-86612791D02*
X120186066Y-86566693D01*
X120186066Y-86566693D02*
X120279920Y-86537563D01*
X120279920Y-86537563D02*
X120380689Y-86527412D01*
X119880677Y-93345751D02*
X119880698Y-87027403D01*
X118592254Y-93345751D02*
X119880677Y-93345751D01*
X118592254Y-88649742D02*
X118592254Y-93345751D01*
X104592269Y-88649742D02*
X118592254Y-88649742D01*
X25722880Y-26841434D02*
X25728301Y-26734078D01*
X25728301Y-26734078D02*
X25744212Y-26629823D01*
X25744212Y-26629823D02*
X25770086Y-26529197D01*
X25770086Y-26529197D02*
X25805394Y-26432728D01*
X25805394Y-26432728D02*
X25849610Y-26340943D01*
X25849610Y-26340943D02*
X25902204Y-26254370D01*
X25902204Y-26254370D02*
X25962650Y-26173538D01*
X25962650Y-26173538D02*
X26030419Y-26098973D01*
X26030419Y-26098973D02*
X26104984Y-26031204D01*
X26104984Y-26031204D02*
X26185816Y-25970758D01*
X26185816Y-25970758D02*
X26272389Y-25918164D01*
X26272389Y-25918164D02*
X26364174Y-25873948D01*
X26364174Y-25873948D02*
X26460643Y-25838640D01*
X26460643Y-25838640D02*
X26561269Y-25812766D01*
X26561269Y-25812766D02*
X26665524Y-25796855D01*
X26665524Y-25796855D02*
X26772880Y-25791434D01*
X13869512Y-101569603D02*
X13864090Y-101676958D01*
X13864090Y-101676958D02*
X13848179Y-101781213D01*
X13848179Y-101781213D02*
X13822305Y-101881839D01*
X13822305Y-101881839D02*
X13786997Y-101978309D01*
X13786997Y-101978309D02*
X13742781Y-102070094D01*
X13742781Y-102070094D02*
X13690187Y-102156666D01*
X13690187Y-102156666D02*
X13629741Y-102237499D01*
X13629741Y-102237499D02*
X13561972Y-102312064D01*
X13561972Y-102312064D02*
X13487407Y-102379833D01*
X13487407Y-102379833D02*
X13406574Y-102440279D01*
X13406574Y-102440279D02*
X13320002Y-102492873D01*
X13320002Y-102492873D02*
X13228217Y-102537089D01*
X13228217Y-102537089D02*
X13131747Y-102572397D01*
X13131747Y-102572397D02*
X13031121Y-102598271D01*
X13031121Y-102598271D02*
X12926866Y-102614182D01*
X12926866Y-102614182D02*
X12819511Y-102619604D01*
X154612493Y-45499985D02*
X154612515Y-31500000D01*
X168612478Y-45500007D02*
X154612493Y-45499985D01*
X168612500Y-31500000D02*
X168612478Y-45500007D01*
X154612515Y-31500000D02*
X168612500Y-31500000D01*
X154325000Y-50550000D02*
X154324978Y-64550007D01*
X140325015Y-50550000D02*
X154325000Y-50550000D01*
X140324993Y-64549985D02*
X140325015Y-50550000D01*
X154324978Y-64550007D02*
X140324993Y-64549985D01*
X130800015Y-69600000D02*
X144800000Y-69600000D01*
X130799993Y-83599985D02*
X130800015Y-69600000D01*
X144799978Y-83600007D02*
X130799993Y-83599985D01*
X144800000Y-69600000D02*
X144799978Y-83600007D01*
X135562493Y-21687485D02*
X135562515Y-7687500D01*
X149562478Y-21687507D02*
X135562493Y-21687485D01*
X149562500Y-7687500D02*
X149562478Y-21687507D01*
X135562515Y-7687500D02*
X149562500Y-7687500D01*
X135562493Y-45499985D02*
X135562515Y-31500000D01*
X149562478Y-45500007D02*
X135562493Y-45499985D01*
X149562500Y-31500000D02*
X149562478Y-45500007D01*
X135562515Y-31500000D02*
X149562500Y-31500000D01*
X135275000Y-50550000D02*
X135274978Y-64550007D01*
X121275015Y-50550000D02*
X135275000Y-50550000D01*
X121274993Y-64549985D02*
X121275015Y-50550000D01*
X135274978Y-64550007D02*
X121274993Y-64549985D01*
X111750015Y-69600000D02*
X125750000Y-69600000D01*
X111749993Y-83599985D02*
X111750015Y-69600000D01*
X125749978Y-83600007D02*
X111749993Y-83599985D01*
X125750000Y-69600000D02*
X125749978Y-83600007D01*
X116512493Y-21687485D02*
X116512515Y-7687500D01*
X130512478Y-21687507D02*
X116512493Y-21687485D01*
X130512500Y-7687500D02*
X130512478Y-21687507D01*
X116512515Y-7687500D02*
X130512500Y-7687500D01*
X116512493Y-45499985D02*
X116512515Y-31500000D01*
X130512478Y-45500007D02*
X116512493Y-45499985D01*
X130512500Y-31500000D02*
X130512478Y-45500007D01*
X116512515Y-31500000D02*
X130512500Y-31500000D01*
X116225000Y-50550000D02*
X116224978Y-64550007D01*
X102225015Y-50550000D02*
X116225000Y-50550000D01*
X102224993Y-64549985D02*
X102225015Y-50550000D01*
X116224978Y-64550007D02*
X102224993Y-64549985D01*
X92700015Y-69600000D02*
X106700000Y-69600000D01*
X92699993Y-83599985D02*
X92700015Y-69600000D01*
X106699978Y-83600007D02*
X92699993Y-83599985D01*
X106700000Y-69600000D02*
X106699978Y-83600007D01*
X97462493Y-21687485D02*
X97462515Y-7687500D01*
X111462478Y-21687507D02*
X97462493Y-21687485D01*
X111462500Y-7687500D02*
X111462478Y-21687507D01*
X97462515Y-7687500D02*
X111462500Y-7687500D01*
X97462493Y-45499985D02*
X97462515Y-31500000D01*
X111462478Y-45500007D02*
X97462493Y-45499985D01*
X111462500Y-31500000D02*
X111462478Y-45500007D01*
X97462515Y-31500000D02*
X111462500Y-31500000D01*
X97175000Y-50550000D02*
X97174978Y-64550007D01*
X83175015Y-50550000D02*
X97175000Y-50550000D01*
X83174993Y-64549985D02*
X83175015Y-50550000D01*
X97174978Y-64550007D02*
X83174993Y-64549985D01*
X89363181Y-49071602D02*
X89255825Y-49066180D01*
X89255825Y-49066180D02*
X89151570Y-49050269D01*
X89151570Y-49050269D02*
X89050944Y-49024395D01*
X89050944Y-49024395D02*
X88954475Y-48989087D01*
X88954475Y-48989087D02*
X88862690Y-48944871D01*
X88862690Y-48944871D02*
X88776117Y-48892277D01*
X88776117Y-48892277D02*
X88695285Y-48831831D01*
X88695285Y-48831831D02*
X88620720Y-48764062D01*
X88620720Y-48764062D02*
X88552951Y-48689497D01*
X88552951Y-48689497D02*
X88492505Y-48608664D01*
X88492505Y-48608664D02*
X88439911Y-48522092D01*
X88439911Y-48522092D02*
X88395695Y-48430307D01*
X88395695Y-48430307D02*
X88360387Y-48333837D01*
X88360387Y-48333837D02*
X88334513Y-48233211D01*
X88334513Y-48233211D02*
X88318602Y-48128956D01*
X88318602Y-48128956D02*
X88313181Y-48021601D01*
X90413182Y-48021601D02*
X90407760Y-48128956D01*
X90407760Y-48128956D02*
X90391849Y-48233211D01*
X90391849Y-48233211D02*
X90365975Y-48333837D01*
X90365975Y-48333837D02*
X90330667Y-48430307D01*
X90330667Y-48430307D02*
X90286451Y-48522092D01*
X90286451Y-48522092D02*
X90233857Y-48608664D01*
X90233857Y-48608664D02*
X90173411Y-48689497D01*
X90173411Y-48689497D02*
X90105642Y-48764062D01*
X90105642Y-48764062D02*
X90031077Y-48831831D01*
X90031077Y-48831831D02*
X89950244Y-48892277D01*
X89950244Y-48892277D02*
X89863672Y-48944871D01*
X89863672Y-48944871D02*
X89771887Y-48989087D01*
X89771887Y-48989087D02*
X89675417Y-49024395D01*
X89675417Y-49024395D02*
X89574791Y-49050269D01*
X89574791Y-49050269D02*
X89470536Y-49066180D01*
X89470536Y-49066180D02*
X89363181Y-49071602D01*
X89363181Y-46971601D02*
X89470536Y-46977022D01*
X89470536Y-46977022D02*
X89574791Y-46992933D01*
X89574791Y-46992933D02*
X89675417Y-47018807D01*
X89675417Y-47018807D02*
X89771887Y-47054115D01*
X89771887Y-47054115D02*
X89863672Y-47098331D01*
X89863672Y-47098331D02*
X89950244Y-47150925D01*
X89950244Y-47150925D02*
X90031077Y-47211371D01*
X90031077Y-47211371D02*
X90105642Y-47279140D01*
X90105642Y-47279140D02*
X90173411Y-47353705D01*
X90173411Y-47353705D02*
X90233857Y-47434537D01*
X90233857Y-47434537D02*
X90286451Y-47521110D01*
X90286451Y-47521110D02*
X90330667Y-47612895D01*
X90330667Y-47612895D02*
X90365975Y-47709364D01*
X90365975Y-47709364D02*
X90391849Y-47809990D01*
X90391849Y-47809990D02*
X90407760Y-47914245D01*
X90407760Y-47914245D02*
X90413182Y-48021601D01*
X88313181Y-48021601D02*
X88318602Y-47914245D01*
X88318602Y-47914245D02*
X88334513Y-47809990D01*
X88334513Y-47809990D02*
X88360387Y-47709364D01*
X88360387Y-47709364D02*
X88395695Y-47612895D01*
X88395695Y-47612895D02*
X88439911Y-47521110D01*
X88439911Y-47521110D02*
X88492505Y-47434537D01*
X88492505Y-47434537D02*
X88552951Y-47353705D01*
X88552951Y-47353705D02*
X88620720Y-47279140D01*
X88620720Y-47279140D02*
X88695285Y-47211371D01*
X88695285Y-47211371D02*
X88776117Y-47150925D01*
X88776117Y-47150925D02*
X88862690Y-47098331D01*
X88862690Y-47098331D02*
X88954475Y-47054115D01*
X88954475Y-47054115D02*
X89050944Y-47018807D01*
X89050944Y-47018807D02*
X89151570Y-46992933D01*
X89151570Y-46992933D02*
X89255825Y-46977022D01*
X89255825Y-46977022D02*
X89363181Y-46971601D01*
X78412493Y-21687485D02*
X78412515Y-7687500D01*
X92412478Y-21687507D02*
X78412493Y-21687485D01*
X92412500Y-7687500D02*
X92412478Y-21687507D01*
X78412515Y-7687500D02*
X92412500Y-7687500D01*
X78412493Y-45499985D02*
X78412515Y-31500000D01*
X92412478Y-45500007D02*
X78412493Y-45499985D01*
X92412500Y-31500000D02*
X92412478Y-45500007D01*
X78412515Y-31500000D02*
X92412500Y-31500000D01*
X54599993Y-83599985D02*
X54600015Y-69600000D01*
X68599978Y-83600007D02*
X54599993Y-83599985D01*
X68600000Y-69600000D02*
X68599978Y-83600007D01*
X54600015Y-69600000D02*
X68600000Y-69600000D01*
X59074978Y-64550007D02*
X45074993Y-64549985D01*
X59075000Y-50550000D02*
X59074978Y-64550007D01*
X45075015Y-50550000D02*
X59075000Y-50550000D01*
X45074993Y-64549985D02*
X45075015Y-50550000D01*
X78124978Y-64550007D02*
X64124993Y-64549985D01*
X78125000Y-50550000D02*
X78124978Y-64550007D01*
X64125015Y-50550000D02*
X78125000Y-50550000D01*
X64124993Y-64549985D02*
X64125015Y-50550000D01*
X73362500Y-31500000D02*
X73362478Y-45500007D01*
X59362515Y-31500000D02*
X73362500Y-31500000D01*
X59362493Y-45499985D02*
X59362515Y-31500000D01*
X73362478Y-45500007D02*
X59362493Y-45499985D01*
X54599993Y-21687485D02*
X54600015Y-7687500D01*
X68599978Y-21687507D02*
X54599993Y-21687485D01*
X68600000Y-7687500D02*
X68599978Y-21687507D01*
X54600015Y-7687500D02*
X68600000Y-7687500D01*
X46348387Y-25869465D02*
X46348236Y-25868001D01*
X46348214Y-25871145D02*
X46348387Y-25869465D01*
X47398215Y-26921145D02*
X47290859Y-26915723D01*
X47290859Y-26915723D02*
X47186604Y-26899812D01*
X47186604Y-26899812D02*
X47085978Y-26873938D01*
X47085978Y-26873938D02*
X46989508Y-26838630D01*
X46989508Y-26838630D02*
X46897723Y-26794414D01*
X46897723Y-26794414D02*
X46811151Y-26741820D01*
X46811151Y-26741820D02*
X46730318Y-26681374D01*
X46730318Y-26681374D02*
X46655753Y-26613605D01*
X46655753Y-26613605D02*
X46587984Y-26539040D01*
X46587984Y-26539040D02*
X46527538Y-26458208D01*
X46527538Y-26458208D02*
X46474944Y-26371635D01*
X46474944Y-26371635D02*
X46430728Y-26279850D01*
X46430728Y-26279850D02*
X46395420Y-26183381D01*
X46395420Y-26183381D02*
X46369546Y-26082755D01*
X46369546Y-26082755D02*
X46353635Y-25978500D01*
X46353635Y-25978500D02*
X46348214Y-25871145D01*
X48448215Y-25871145D02*
X48442793Y-25978500D01*
X48442793Y-25978500D02*
X48426882Y-26082755D01*
X48426882Y-26082755D02*
X48401008Y-26183381D01*
X48401008Y-26183381D02*
X48365700Y-26279850D01*
X48365700Y-26279850D02*
X48321484Y-26371635D01*
X48321484Y-26371635D02*
X48268890Y-26458208D01*
X48268890Y-26458208D02*
X48208444Y-26539040D01*
X48208444Y-26539040D02*
X48140675Y-26613605D01*
X48140675Y-26613605D02*
X48066110Y-26681374D01*
X48066110Y-26681374D02*
X47985278Y-26741820D01*
X47985278Y-26741820D02*
X47898705Y-26794414D01*
X47898705Y-26794414D02*
X47806920Y-26838630D01*
X47806920Y-26838630D02*
X47710451Y-26873938D01*
X47710451Y-26873938D02*
X47609825Y-26899812D01*
X47609825Y-26899812D02*
X47505570Y-26915723D01*
X47505570Y-26915723D02*
X47398215Y-26921145D01*
X48448065Y-25869573D02*
X48448215Y-25871145D01*
X48448215Y-25868001D02*
X48448065Y-25869573D01*
X47398215Y-24818001D02*
X47505574Y-24823421D01*
X47505574Y-24823421D02*
X47609831Y-24839332D01*
X47609831Y-24839332D02*
X47710459Y-24865205D01*
X47710459Y-24865205D02*
X47806929Y-24900512D01*
X47806929Y-24900512D02*
X47898715Y-24944726D01*
X47898715Y-24944726D02*
X47985287Y-24997319D01*
X47985287Y-24997319D02*
X48066119Y-25057764D01*
X48066119Y-25057764D02*
X48140683Y-25125532D01*
X48140683Y-25125532D02*
X48208451Y-25200096D01*
X48208451Y-25200096D02*
X48268896Y-25280928D01*
X48268896Y-25280928D02*
X48321489Y-25367500D01*
X48321489Y-25367500D02*
X48365703Y-25459286D01*
X48365703Y-25459286D02*
X48401010Y-25555756D01*
X48401010Y-25555756D02*
X48426883Y-25656384D01*
X48426883Y-25656384D02*
X48442794Y-25760641D01*
X48442794Y-25760641D02*
X48448215Y-25868001D01*
X46348236Y-25868001D02*
X46353656Y-25760641D01*
X46353656Y-25760641D02*
X46369567Y-25656384D01*
X46369567Y-25656384D02*
X46395440Y-25555756D01*
X46395440Y-25555756D02*
X46430747Y-25459286D01*
X46430747Y-25459286D02*
X46474961Y-25367500D01*
X46474961Y-25367500D02*
X46527553Y-25280928D01*
X46527553Y-25280928D02*
X46587997Y-25200096D01*
X46587997Y-25200096D02*
X46655764Y-25125532D01*
X46655764Y-25125532D02*
X46730327Y-25057764D01*
X46730327Y-25057764D02*
X46811157Y-24997319D01*
X46811157Y-24997319D02*
X46897728Y-24944726D01*
X46897728Y-24944726D02*
X46989512Y-24900512D01*
X46989512Y-24900512D02*
X47085980Y-24865205D01*
X47085980Y-24865205D02*
X47186605Y-24839332D01*
X47186605Y-24839332D02*
X47290859Y-24823421D01*
X47290859Y-24823421D02*
X47398215Y-24818001D01*
X40312493Y-45499985D02*
X40312515Y-31500000D01*
X54312478Y-45500007D02*
X40312493Y-45499985D01*
X54312500Y-31500000D02*
X54312478Y-45500007D01*
X40312515Y-31500000D02*
X54312500Y-31500000D01*
X23584315Y-1533548D02*
X23589736Y-1426192D01*
X23589736Y-1426192D02*
X23605647Y-1321937D01*
X23605647Y-1321937D02*
X23631521Y-1221311D01*
X23631521Y-1221311D02*
X23666829Y-1124841D01*
X23666829Y-1124841D02*
X23711045Y-1033056D01*
X23711045Y-1033056D02*
X23763639Y-946484D01*
X23763639Y-946484D02*
X23824085Y-865651D01*
X23824085Y-865651D02*
X23891854Y-791086D01*
X23891854Y-791086D02*
X23966419Y-723317D01*
X23966419Y-723317D02*
X24047252Y-662871D01*
X24047252Y-662871D02*
X24133824Y-610277D01*
X24133824Y-610277D02*
X24225609Y-566061D01*
X24225609Y-566061D02*
X24322079Y-530753D01*
X24322079Y-530753D02*
X24422705Y-504879D01*
X24422705Y-504879D02*
X24526960Y-488968D01*
X24526960Y-488968D02*
X24634316Y-483547D01*
X24634316Y-2583548D02*
X24526960Y-2578126D01*
X24526960Y-2578126D02*
X24422705Y-2562215D01*
X24422705Y-2562215D02*
X24322079Y-2536341D01*
X24322079Y-2536341D02*
X24225609Y-2501033D01*
X24225609Y-2501033D02*
X24133824Y-2456817D01*
X24133824Y-2456817D02*
X24047252Y-2404223D01*
X24047252Y-2404223D02*
X23966419Y-2343777D01*
X23966419Y-2343777D02*
X23891854Y-2276008D01*
X23891854Y-2276008D02*
X23824085Y-2201443D01*
X23824085Y-2201443D02*
X23763639Y-2120611D01*
X23763639Y-2120611D02*
X23711045Y-2034038D01*
X23711045Y-2034038D02*
X23666829Y-1942253D01*
X23666829Y-1942253D02*
X23631521Y-1845784D01*
X23631521Y-1845784D02*
X23605647Y-1745158D01*
X23605647Y-1745158D02*
X23589736Y-1640903D01*
X23589736Y-1640903D02*
X23584315Y-1533548D01*
X25684316Y-1533548D02*
X25678895Y-1640903D01*
X25678895Y-1640903D02*
X25662984Y-1745158D01*
X25662984Y-1745158D02*
X25637111Y-1845784D01*
X25637111Y-1845784D02*
X25601804Y-1942253D01*
X25601804Y-1942253D02*
X25557590Y-2034038D01*
X25557590Y-2034038D02*
X25504997Y-2120611D01*
X25504997Y-2120611D02*
X25444552Y-2201443D01*
X25444552Y-2201443D02*
X25376784Y-2276008D01*
X25376784Y-2276008D02*
X25302220Y-2343777D01*
X25302220Y-2343777D02*
X25221388Y-2404223D01*
X25221388Y-2404223D02*
X25134816Y-2456817D01*
X25134816Y-2456817D02*
X25043030Y-2501033D01*
X25043030Y-2501033D02*
X24946560Y-2536341D01*
X24946560Y-2536341D02*
X24845932Y-2562215D01*
X24845932Y-2562215D02*
X24741675Y-2578126D01*
X24741675Y-2578126D02*
X24634316Y-2583548D01*
X24634316Y-483547D02*
X24741675Y-488968D01*
X24741675Y-488968D02*
X24845932Y-504879D01*
X24845932Y-504879D02*
X24946560Y-530753D01*
X24946560Y-530753D02*
X25043030Y-566061D01*
X25043030Y-566061D02*
X25134816Y-610277D01*
X25134816Y-610277D02*
X25221388Y-662871D01*
X25221388Y-662871D02*
X25302220Y-723317D01*
X25302220Y-723317D02*
X25376784Y-791086D01*
X25376784Y-791086D02*
X25444552Y-865651D01*
X25444552Y-865651D02*
X25504997Y-946484D01*
X25504997Y-946484D02*
X25557590Y-1033056D01*
X25557590Y-1033056D02*
X25601804Y-1124841D01*
X25601804Y-1124841D02*
X25637111Y-1221311D01*
X25637111Y-1221311D02*
X25662984Y-1321937D01*
X25662984Y-1321937D02*
X25678895Y-1426192D01*
X25678895Y-1426192D02*
X25684316Y-1533548D01*
X5059563Y-16619125D02*
X5054141Y-16726484D01*
X5054141Y-16726484D02*
X5038230Y-16830742D01*
X5038230Y-16830742D02*
X5012356Y-16931370D01*
X5012356Y-16931370D02*
X4977048Y-17027840D01*
X4977048Y-17027840D02*
X4932832Y-17119626D01*
X4932832Y-17119626D02*
X4880238Y-17206198D01*
X4880238Y-17206198D02*
X4819792Y-17287030D01*
X4819792Y-17287030D02*
X4752023Y-17361594D01*
X4752023Y-17361594D02*
X4677458Y-17429362D01*
X4677458Y-17429362D02*
X4596626Y-17489807D01*
X4596626Y-17489807D02*
X4510053Y-17542400D01*
X4510053Y-17542400D02*
X4418268Y-17586614D01*
X4418268Y-17586614D02*
X4321799Y-17621921D01*
X4321799Y-17621921D02*
X4221173Y-17647794D01*
X4221173Y-17647794D02*
X4116918Y-17663705D01*
X4116918Y-17663705D02*
X4009563Y-17669126D01*
X4009563Y-15569125D02*
X4116918Y-15574546D01*
X4116918Y-15574546D02*
X4221173Y-15590457D01*
X4221173Y-15590457D02*
X4321799Y-15616331D01*
X4321799Y-15616331D02*
X4418268Y-15651639D01*
X4418268Y-15651639D02*
X4510053Y-15695855D01*
X4510053Y-15695855D02*
X4596626Y-15748449D01*
X4596626Y-15748449D02*
X4677458Y-15808895D01*
X4677458Y-15808895D02*
X4752023Y-15876664D01*
X4752023Y-15876664D02*
X4819792Y-15951229D01*
X4819792Y-15951229D02*
X4880238Y-16032061D01*
X4880238Y-16032061D02*
X4932832Y-16118634D01*
X4932832Y-16118634D02*
X4977048Y-16210419D01*
X4977048Y-16210419D02*
X5012356Y-16306888D01*
X5012356Y-16306888D02*
X5038230Y-16407514D01*
X5038230Y-16407514D02*
X5054141Y-16511769D01*
X5054141Y-16511769D02*
X5059563Y-16619125D01*
X2959562Y-16619125D02*
X2964983Y-16511769D01*
X2964983Y-16511769D02*
X2980894Y-16407514D01*
X2980894Y-16407514D02*
X3006768Y-16306888D01*
X3006768Y-16306888D02*
X3042076Y-16210419D01*
X3042076Y-16210419D02*
X3086292Y-16118634D01*
X3086292Y-16118634D02*
X3138886Y-16032061D01*
X3138886Y-16032061D02*
X3199332Y-15951229D01*
X3199332Y-15951229D02*
X3267101Y-15876664D01*
X3267101Y-15876664D02*
X3341666Y-15808895D01*
X3341666Y-15808895D02*
X3422499Y-15748449D01*
X3422499Y-15748449D02*
X3509071Y-15695855D01*
X3509071Y-15695855D02*
X3600856Y-15651639D01*
X3600856Y-15651639D02*
X3697326Y-15616331D01*
X3697326Y-15616331D02*
X3797952Y-15590457D01*
X3797952Y-15590457D02*
X3902207Y-15574546D01*
X3902207Y-15574546D02*
X4009563Y-15569125D01*
X4009563Y-17669126D02*
X3902207Y-17663705D01*
X3902207Y-17663705D02*
X3797952Y-17647794D01*
X3797952Y-17647794D02*
X3697326Y-17621921D01*
X3697326Y-17621921D02*
X3600856Y-17586614D01*
X3600856Y-17586614D02*
X3509071Y-17542400D01*
X3509071Y-17542400D02*
X3422499Y-17489807D01*
X3422499Y-17489807D02*
X3341666Y-17429362D01*
X3341666Y-17429362D02*
X3267101Y-17361594D01*
X3267101Y-17361594D02*
X3199332Y-17287030D01*
X3199332Y-17287030D02*
X3138886Y-17206198D01*
X3138886Y-17206198D02*
X3086292Y-17119626D01*
X3086292Y-17119626D02*
X3042076Y-17027840D01*
X3042076Y-17027840D02*
X3006768Y-16931370D01*
X3006768Y-16931370D02*
X2980894Y-16830742D01*
X2980894Y-16830742D02*
X2964983Y-16726484D01*
X2964983Y-16726484D02*
X2959562Y-16619125D01*
X5059563Y-2507067D02*
X5054141Y-2614422D01*
X5054141Y-2614422D02*
X5038230Y-2718677D01*
X5038230Y-2718677D02*
X5012356Y-2819303D01*
X5012356Y-2819303D02*
X4977048Y-2915773D01*
X4977048Y-2915773D02*
X4932832Y-3007558D01*
X4932832Y-3007558D02*
X4880238Y-3094130D01*
X4880238Y-3094130D02*
X4819792Y-3174963D01*
X4819792Y-3174963D02*
X4752023Y-3249528D01*
X4752023Y-3249528D02*
X4677458Y-3317297D01*
X4677458Y-3317297D02*
X4596626Y-3377742D01*
X4596626Y-3377742D02*
X4510053Y-3430337D01*
X4510053Y-3430337D02*
X4418268Y-3474552D01*
X4418268Y-3474552D02*
X4321799Y-3509860D01*
X4321799Y-3509860D02*
X4221173Y-3535734D01*
X4221173Y-3535734D02*
X4116918Y-3551645D01*
X4116918Y-3551645D02*
X4009563Y-3557067D01*
X4009563Y-1457066D02*
X4116918Y-1462487D01*
X4116918Y-1462487D02*
X4221173Y-1478398D01*
X4221173Y-1478398D02*
X4321799Y-1504272D01*
X4321799Y-1504272D02*
X4418268Y-1539580D01*
X4418268Y-1539580D02*
X4510053Y-1583796D01*
X4510053Y-1583796D02*
X4596626Y-1636390D01*
X4596626Y-1636390D02*
X4677458Y-1696836D01*
X4677458Y-1696836D02*
X4752023Y-1764605D01*
X4752023Y-1764605D02*
X4819792Y-1839170D01*
X4819792Y-1839170D02*
X4880238Y-1920003D01*
X4880238Y-1920003D02*
X4932832Y-2006575D01*
X4932832Y-2006575D02*
X4977048Y-2098360D01*
X4977048Y-2098360D02*
X5012356Y-2194830D01*
X5012356Y-2194830D02*
X5038230Y-2295456D01*
X5038230Y-2295456D02*
X5054141Y-2399711D01*
X5054141Y-2399711D02*
X5059563Y-2507067D01*
X2959562Y-2507067D02*
X2964983Y-2399711D01*
X2964983Y-2399711D02*
X2980894Y-2295456D01*
X2980894Y-2295456D02*
X3006768Y-2194830D01*
X3006768Y-2194830D02*
X3042076Y-2098360D01*
X3042076Y-2098360D02*
X3086292Y-2006575D01*
X3086292Y-2006575D02*
X3138886Y-1920003D01*
X3138886Y-1920003D02*
X3199332Y-1839170D01*
X3199332Y-1839170D02*
X3267101Y-1764605D01*
X3267101Y-1764605D02*
X3341666Y-1696836D01*
X3341666Y-1696836D02*
X3422499Y-1636390D01*
X3422499Y-1636390D02*
X3509071Y-1583796D01*
X3509071Y-1583796D02*
X3600856Y-1539580D01*
X3600856Y-1539580D02*
X3697326Y-1504272D01*
X3697326Y-1504272D02*
X3797952Y-1478398D01*
X3797952Y-1478398D02*
X3902207Y-1462487D01*
X3902207Y-1462487D02*
X4009563Y-1457066D01*
X4009563Y-3557067D02*
X3902207Y-3551645D01*
X3902207Y-3551645D02*
X3797952Y-3535734D01*
X3797952Y-3535734D02*
X3697326Y-3509860D01*
X3697326Y-3509860D02*
X3600856Y-3474552D01*
X3600856Y-3474552D02*
X3509071Y-3430337D01*
X3509071Y-3430337D02*
X3422499Y-3377742D01*
X3422499Y-3377742D02*
X3341666Y-3317297D01*
X3341666Y-3317297D02*
X3267101Y-3249528D01*
X3267101Y-3249528D02*
X3199332Y-3174963D01*
X3199332Y-3174963D02*
X3138886Y-3094130D01*
X3138886Y-3094130D02*
X3086292Y-3007558D01*
X3086292Y-3007558D02*
X3042076Y-2915773D01*
X3042076Y-2915773D02*
X3006768Y-2819303D01*
X3006768Y-2819303D02*
X2980894Y-2718677D01*
X2980894Y-2718677D02*
X2964983Y-2614422D01*
X2964983Y-2614422D02*
X2959562Y-2507067D01*
X15900000Y-24712990D02*
X15900000Y-23212758D01*
X30900000Y-24712990D02*
X15900000Y-24712990D01*
X30900000Y-23212758D02*
X30900000Y-24712990D01*
X15900000Y-23212758D02*
X30900000Y-23212758D01*
X16500015Y-31500000D02*
X30500000Y-31500000D01*
X16499993Y-45499985D02*
X16500015Y-31500000D01*
X30499978Y-45500007D02*
X16499993Y-45499985D01*
X30500000Y-31500000D02*
X30499978Y-45500007D01*
X26772880Y-27891435D02*
X26665524Y-27886014D01*
X26665524Y-27886014D02*
X26561269Y-27870103D01*
X26561269Y-27870103D02*
X26460643Y-27844230D01*
X26460643Y-27844230D02*
X26364174Y-27808923D01*
X26364174Y-27808923D02*
X26272389Y-27764709D01*
X26272389Y-27764709D02*
X26185816Y-27712116D01*
X26185816Y-27712116D02*
X26104984Y-27651671D01*
X26104984Y-27651671D02*
X26030419Y-27583903D01*
X26030419Y-27583903D02*
X25962650Y-27509339D01*
X25962650Y-27509339D02*
X25902204Y-27428507D01*
X25902204Y-27428507D02*
X25849610Y-27341935D01*
X25849610Y-27341935D02*
X25805394Y-27250149D01*
X25805394Y-27250149D02*
X25770086Y-27153679D01*
X25770086Y-27153679D02*
X25744212Y-27053051D01*
X25744212Y-27053051D02*
X25728301Y-26948793D01*
X25728301Y-26948793D02*
X25722880Y-26841434D01*
X27822881Y-26841434D02*
X27817460Y-26948793D01*
X27817460Y-26948793D02*
X27801549Y-27053051D01*
X27801549Y-27053051D02*
X27775676Y-27153679D01*
X27775676Y-27153679D02*
X27740369Y-27250149D01*
X27740369Y-27250149D02*
X27696155Y-27341935D01*
X27696155Y-27341935D02*
X27643561Y-27428507D01*
X27643561Y-27428507D02*
X27583117Y-27509339D01*
X27583117Y-27509339D02*
X27515349Y-27583903D01*
X27515349Y-27583903D02*
X27440785Y-27651671D01*
X27440785Y-27651671D02*
X27359953Y-27712116D01*
X27359953Y-27712116D02*
X27273380Y-27764709D01*
X27273380Y-27764709D02*
X27181595Y-27808923D01*
X27181595Y-27808923D02*
X27085124Y-27844230D01*
X27085124Y-27844230D02*
X26984496Y-27870103D01*
X26984496Y-27870103D02*
X26880239Y-27886014D01*
X26880239Y-27886014D02*
X26772880Y-27891435D01*
X26772880Y-25791434D02*
X26880239Y-25796855D01*
X26880239Y-25796855D02*
X26984496Y-25812766D01*
X26984496Y-25812766D02*
X27085124Y-25838640D01*
X27085124Y-25838640D02*
X27181595Y-25873948D01*
X27181595Y-25873948D02*
X27273380Y-25918164D01*
X27273380Y-25918164D02*
X27359953Y-25970758D01*
X27359953Y-25970758D02*
X27440785Y-26031204D01*
X27440785Y-26031204D02*
X27515349Y-26098973D01*
X27515349Y-26098973D02*
X27583117Y-26173538D01*
X27583117Y-26173538D02*
X27643561Y-26254370D01*
X27643561Y-26254370D02*
X27696155Y-26340943D01*
X27696155Y-26340943D02*
X27740369Y-26432728D01*
X27740369Y-26432728D02*
X27775676Y-26529197D01*
X27775676Y-26529197D02*
X27801549Y-26629823D01*
X27801549Y-26629823D02*
X27817460Y-26734078D01*
X27817460Y-26734078D02*
X27822881Y-26841434D01*
X216525015Y-50550000D02*
X219829313Y-50550000D01*
X216524993Y-64549985D02*
X216525015Y-50550000D01*
X176713276Y-46971601D02*
X176820635Y-46977022D01*
X176820635Y-46977022D02*
X176924892Y-46992933D01*
X176924892Y-46992933D02*
X177025520Y-47018807D01*
X177025520Y-47018807D02*
X177121990Y-47054115D01*
X177121990Y-47054115D02*
X177213776Y-47098331D01*
X177213776Y-47098331D02*
X177300348Y-47150925D01*
X177300348Y-47150925D02*
X177381180Y-47211371D01*
X177381180Y-47211371D02*
X177455744Y-47279140D01*
X177455744Y-47279140D02*
X177523512Y-47353705D01*
X177523512Y-47353705D02*
X177583957Y-47434537D01*
X177583957Y-47434537D02*
X177636550Y-47521110D01*
X177636550Y-47521110D02*
X177680764Y-47612895D01*
X177680764Y-47612895D02*
X177716071Y-47709364D01*
X177716071Y-47709364D02*
X177741944Y-47809990D01*
X177741944Y-47809990D02*
X177757855Y-47914245D01*
X177757855Y-47914245D02*
X177763276Y-48021601D01*
X175663275Y-48021601D02*
X175668696Y-47914245D01*
X175668696Y-47914245D02*
X175684607Y-47809990D01*
X175684607Y-47809990D02*
X175710481Y-47709364D01*
X175710481Y-47709364D02*
X175745789Y-47612895D01*
X175745789Y-47612895D02*
X175790005Y-47521110D01*
X175790005Y-47521110D02*
X175842599Y-47434537D01*
X175842599Y-47434537D02*
X175903045Y-47353705D01*
X175903045Y-47353705D02*
X175970814Y-47279140D01*
X175970814Y-47279140D02*
X176045379Y-47211371D01*
X176045379Y-47211371D02*
X176126212Y-47150925D01*
X176126212Y-47150925D02*
X176212784Y-47098331D01*
X176212784Y-47098331D02*
X176304569Y-47054115D01*
X176304569Y-47054115D02*
X176401039Y-47018807D01*
X176401039Y-47018807D02*
X176501665Y-46992933D01*
X176501665Y-46992933D02*
X176605920Y-46977022D01*
X176605920Y-46977022D02*
X176713276Y-46971601D01*
X176713276Y-49071602D02*
X176605920Y-49066180D01*
X176605920Y-49066180D02*
X176501665Y-49050269D01*
X176501665Y-49050269D02*
X176401039Y-49024395D01*
X176401039Y-49024395D02*
X176304569Y-48989087D01*
X176304569Y-48989087D02*
X176212784Y-48944871D01*
X176212784Y-48944871D02*
X176126212Y-48892277D01*
X176126212Y-48892277D02*
X176045379Y-48831831D01*
X176045379Y-48831831D02*
X175970814Y-48764062D01*
X175970814Y-48764062D02*
X175903045Y-48689497D01*
X175903045Y-48689497D02*
X175842599Y-48608664D01*
X175842599Y-48608664D02*
X175790005Y-48522092D01*
X175790005Y-48522092D02*
X175745789Y-48430307D01*
X175745789Y-48430307D02*
X175710481Y-48333837D01*
X175710481Y-48333837D02*
X175684607Y-48233211D01*
X175684607Y-48233211D02*
X175668696Y-48128956D01*
X175668696Y-48128956D02*
X175663275Y-48021601D01*
X177763276Y-48021601D02*
X177757855Y-48128956D01*
X177757855Y-48128956D02*
X177741944Y-48233211D01*
X177741944Y-48233211D02*
X177716071Y-48333837D01*
X177716071Y-48333837D02*
X177680764Y-48430307D01*
X177680764Y-48430307D02*
X177636550Y-48522092D01*
X177636550Y-48522092D02*
X177583957Y-48608664D01*
X177583957Y-48608664D02*
X177523512Y-48689497D01*
X177523512Y-48689497D02*
X177455744Y-48764062D01*
X177455744Y-48764062D02*
X177381180Y-48831831D01*
X177381180Y-48831831D02*
X177300348Y-48892277D01*
X177300348Y-48892277D02*
X177213776Y-48944871D01*
X177213776Y-48944871D02*
X177121990Y-48989087D01*
X177121990Y-48989087D02*
X177025520Y-49024395D01*
X177025520Y-49024395D02*
X176924892Y-49050269D01*
X176924892Y-49050269D02*
X176820635Y-49066180D01*
X176820635Y-49066180D02*
X176713276Y-49071602D01*
X159374993Y-21687485D02*
X159375015Y-7687500D01*
X173374978Y-21687507D02*
X159374993Y-21687485D01*
X173375000Y-7687500D02*
X173374978Y-21687507D01*
X159375015Y-7687500D02*
X173375000Y-7687500D01*
X173374978Y-64550007D02*
X159374993Y-64549985D01*
X173375000Y-50550000D02*
X173374978Y-64550007D01*
X159375015Y-50550000D02*
X173375000Y-50550000D01*
X159374993Y-64549985D02*
X159375015Y-50550000D01*
X149850015Y-69600000D02*
X163850000Y-69600000D01*
X149849993Y-83599985D02*
X149850015Y-69600000D01*
X163849978Y-83600007D02*
X149849993Y-83599985D01*
X163850000Y-69600000D02*
X163849978Y-83600007D01*
M02*
